<?xml version="1.0" encoding="UTF-8"?>
<!DOCTYPE svg PUBLIC "-//W3C//DTD SVG 1.1//EN" "http://www.w3.org/Graphics/SVG/1.1/DTD/svg11.dtd">
<svg width="359mm" height="160mm" viewBox="0 0 35900 16000" version="1.1" xmlns="http://www.w3.org/2000/svg" stroke-width="28.222" stroke-linejoin="round" xml:space="preserve">
 <path fill="rgb(255,255,255)" stroke="none" d="M 17934,16000 L 4,16000 4,-1 35863,-1 35863,16000 17934,16000 Z"/>
 <path fill="none" stroke="rgb(179,179,179)" stroke-linejoin="round" d="M 17959,15481 L 867,15481 867,519 35052,519 35052,15481 17959,15481 Z"/>
 <path fill="none" stroke="rgb(179,179,179)" stroke-linejoin="round" d="M 35052,15480 L 867,15480"/>
 <path fill="none" stroke="rgb(179,179,179)" stroke-linejoin="round" d="M 35052,12986 L 867,12986"/>
 <path fill="none" stroke="rgb(179,179,179)" stroke-linejoin="round" d="M 35052,10492 L 867,10492"/>
 <path fill="none" stroke="rgb(179,179,179)" stroke-linejoin="round" d="M 35052,7999 L 867,7999"/>
 <path fill="none" stroke="rgb(179,179,179)" stroke-linejoin="round" d="M 35052,5505 L 867,5505"/>
 <path fill="none" stroke="rgb(179,179,179)" stroke-linejoin="round" d="M 35052,3011 L 867,3011"/>
 <path fill="none" stroke="rgb(179,179,179)" stroke-linejoin="round" d="M 35052,518 L 867,518"/>
 <path fill="none" stroke="rgb(179,179,179)" stroke-linejoin="round" d="M 867,10642 L 867,10492"/>
 <path fill="none" stroke="rgb(179,179,179)" stroke-linejoin="round" d="M 867,10642 L 867,10492"/>
 <path fill="none" stroke="rgb(179,179,179)" stroke-linejoin="round" d="M 5140,10642 L 5140,10492"/>
 <path fill="none" stroke="rgb(179,179,179)" stroke-linejoin="round" d="M 5140,10642 L 5140,10492"/>
 <path fill="none" stroke="rgb(179,179,179)" stroke-linejoin="round" d="M 9413,10642 L 9413,10492"/>
 <path fill="none" stroke="rgb(179,179,179)" stroke-linejoin="round" d="M 9413,10642 L 9413,10492"/>
 <path fill="none" stroke="rgb(179,179,179)" stroke-linejoin="round" d="M 13686,10642 L 13686,10492"/>
 <path fill="none" stroke="rgb(179,179,179)" stroke-linejoin="round" d="M 13686,10642 L 13686,10492"/>
 <path fill="none" stroke="rgb(179,179,179)" stroke-linejoin="round" d="M 17959,10642 L 17959,10492"/>
 <path fill="none" stroke="rgb(179,179,179)" stroke-linejoin="round" d="M 17959,10642 L 17959,10492"/>
 <path fill="none" stroke="rgb(179,179,179)" stroke-linejoin="round" d="M 22232,10642 L 22232,10492"/>
 <path fill="none" stroke="rgb(179,179,179)" stroke-linejoin="round" d="M 22232,10642 L 22232,10492"/>
 <path fill="none" stroke="rgb(179,179,179)" stroke-linejoin="round" d="M 26505,10642 L 26505,10492"/>
 <path fill="none" stroke="rgb(179,179,179)" stroke-linejoin="round" d="M 26505,10642 L 26505,10492"/>
 <path fill="none" stroke="rgb(179,179,179)" stroke-linejoin="round" d="M 30778,10642 L 30778,10492"/>
 <path fill="none" stroke="rgb(179,179,179)" stroke-linejoin="round" d="M 30778,10642 L 30778,10492"/>
 <path fill="none" stroke="rgb(179,179,179)" stroke-linejoin="round" d="M 35052,10642 L 35052,10492"/>
 <path fill="none" stroke="rgb(179,179,179)" stroke-linejoin="round" d="M 35052,10642 L 35052,10492"/>
 <path fill="none" stroke="rgb(179,179,179)" stroke-linejoin="round" d="M 867,10492 L 35052,10492"/>
 <path fill="none" stroke="rgb(179,179,179)" stroke-linejoin="round" d="M 17810,15480 L 17959,15480"/>
 <path fill="none" stroke="rgb(179,179,179)" stroke-linejoin="round" d="M 17810,15480 L 17959,15480"/>
 <path fill="none" stroke="rgb(179,179,179)" stroke-linejoin="round" d="M 17810,12986 L 17959,12986"/>
 <path fill="none" stroke="rgb(179,179,179)" stroke-linejoin="round" d="M 17810,12986 L 17959,12986"/>
 <path fill="none" stroke="rgb(179,179,179)" stroke-linejoin="round" d="M 17810,10492 L 17959,10492"/>
 <path fill="none" stroke="rgb(179,179,179)" stroke-linejoin="round" d="M 17810,10492 L 17959,10492"/>
 <path fill="none" stroke="rgb(179,179,179)" stroke-linejoin="round" d="M 17810,7999 L 17959,7999"/>
 <path fill="none" stroke="rgb(179,179,179)" stroke-linejoin="round" d="M 17810,7999 L 17959,7999"/>
 <path fill="none" stroke="rgb(179,179,179)" stroke-linejoin="round" d="M 17810,5505 L 17959,5505"/>
 <path fill="none" stroke="rgb(179,179,179)" stroke-linejoin="round" d="M 17810,5505 L 17959,5505"/>
 <path fill="none" stroke="rgb(179,179,179)" stroke-linejoin="round" d="M 17810,3011 L 17959,3011"/>
 <path fill="none" stroke="rgb(179,179,179)" stroke-linejoin="round" d="M 17810,3011 L 17959,3011"/>
 <path fill="none" stroke="rgb(179,179,179)" stroke-linejoin="round" d="M 17810,517 L 17959,517"/>
 <path fill="none" stroke="rgb(179,179,179)" stroke-linejoin="round" d="M 17810,517 L 17959,517"/>
 <path fill="none" stroke="rgb(179,179,179)" stroke-linejoin="round" d="M 17959,15480 L 17959,517"/>
 <path fill="none" stroke="rgb(126,0,33)" stroke-width="80" stroke-linejoin="round" d="M 33012,12994 L 32972,13074 32937,13121 32902,13092 32866,13126 32830,13071 32795,12968 32760,12966 32725,12979 32695,12862 32656,12835 32620,12879 32584,12837 32545,12868 32511,12901 32476,12842 32440,12887 32405,12962 32369,12909 32330,12872 32292,12999 32261,13005 32224,12929 32190,13121 32152,13181 32114,13153 32085,13356 32047,13538 32010,13285 31982,13645 31944,13621 31898,13339 31860,13138 31826,13070 31786,13048 31752,12915 31717,12989 31684,12874 31649,12818 31611,12946 31578,12917 31543,12772 31508,12837 31473,12817 31438,12761 31403,12821 31367,12836 31332,12782 31296,12823 31259,12923 31225,12800 31188,12895 31150,13051 31113,12936 31081,12990 31046,13139 31007,13051 30970,13062 30937,13109 30900,13108 30860,12969 30827,12998 30789,13048 30753,12845 30720,12950 30683,12956 30647,12857 30614,13014 30578,13069 30538,12923 30506,12890 30470,12936 30433,12856 30401,12917 30366,12931 30325,12937 30293,12818 30260,12945 30215,12852 30183,12899 30151,12971 30112,12859 30075,12797 30044,12723 30005,12719 29971,12703 29939,12658 29899,12648 29863,12575 29831,12597 29793,12676 29759,12595 29725,12678 29686,12683 29650,12677 29617,12644 29582,12817 29546,12773 29513,12771 29480,13102 29439,12986 29405,12980 29374,13218 29335,13159 29300,13219 29268,13095 29227,13001 29190,13021 29148,12801 29109,12804 29075,12681 29038,12580 29003,12658 28967,12492 28933,12392 28899,12510 28864,12445 28833,12288 28796,12389 28758,12332 28725,12258 28688,12337 28654,12348 28620,12249 28583,12326 28547,12375 28511,12278 28475,12338 28436,12457 28402,12343 28368,12467 28331,12570 28295,12488 28263,12511 28222,12559 28185,12454 28151,12328 28115,12435 28078,12464 28042,12396 28006,12428 27971,12435 27938,12338 27903,12357 27864,12378 27829,12272 27793,12356 27756,12362 27725,12196 27653,12288 27620,12179 27585,12214 27547,12256 27512,12158 27478,12192 27442,12285 27409,12159 27375,12103 27336,12222 27303,12040 27266,12042 27233,12066 27199,12025 27160,12018 27124,12036 27090,12017 27052,12028 27017,12134 26981,12083 26947,12085 26905,12181 26872,12120 26836,12077 26800,12118 26763,12149 26729,12140 26698,12089 26656,12217 26621,12129 26587,12113 26551,12146 26515,12131 26479,12065 26443,12073 26408,12032 26376,11939 26341,11999 26307,11945 26274,11832 26234,11841 26201,11886 26171,11813 26131,11788 26097,11796 26064,11713 26025,11730 25992,11822 25957,11753 25922,11755 25885,11823 25850,11751 25813,11718 25774,11858 25739,11839 25703,11780 25664,11908 25631,11934 25598,11835 25562,11908 25521,11945 25487,11800 25452,11823 25419,11905 25384,11798 25343,11829 25309,11869 25275,11801 25239,11790 25203,11875 25171,11778 25132,11736 25097,11849 25068,11725 25029,11659 24995,11737 24959,11648 24926,11577 24891,11657 24854,11681 24819,11604 24780,11661 24750,11687 24713,11596 24683,11555 24640,11630 24607,11479 24568,11548 24538,11538 24502,11541 24392,11563 24354,11662 24324,11558 24291,11594 24247,11671 24215,11659 24182,11623 24143,11614 24108,11692 24074,11693 24038,11643 24002,11779 23967,11725 23928,11663 23895,11745 23856,11765 23823,11745 23791,11606 23751,11693 23716,11561 23681,11420 23647,11472 23618,11406 23580,11370 23546,11415 23506,11389 23472,11368 23440,11403 23409,11329 23368,11345 23334,11306 23297,11321 23264,11320 23228,11350 23195,11346 23158,11291 23121,11365 23088,11400 23050,11284 23014,11400 22980,11415 22945,11377 22911,11399 22877,11421 22840,11386 22803,11328 22769,11377 22735,11350 22700,11288 22665,11294 22629,11253 22590,11227 22560,11242 22527,11264 22487,11240 22458,11218 22417,11232 22383,11191 22351,11179 22314,11185 22277,11175 22241,11178 22209,11179 22171,11177 22133,11157 22103,11147 22058,11121 22029,11134 21993,11111 21960,11165 21919,11134 21885,11151 21854,11117 21817,11085 21785,11105 21747,11138 21709,11098 21673,11098 21643,11140 21606,11142 21573,11113 21536,11103 21501,11080 21465,11070 21432,11140 21396,11129 21359,11075 21322,11109 21290,11127 21255,11094 21218,11152 21182,11202 21145,11132 21115,11084 21080,11068 21040,11041 21010,11022 20968,11022 20937,11036 20907,11037 20873,11016 20842,11004 20797,10994 20769,10991 20736,11021 20696,11003 20666,11007 20624,10983 20591,10992 20551,10975 20513,10999 20479,10975 20445,10960 20409,10958 20374,10965 20343,10924 20311,10954 20272,10960 20240,10927 20206,10937 20173,10930 20134,10912 20102,10899 20062,10912 20030,10905 19996,10884 19962,10892 19923,10890 19886,10871 19854,10882 19819,10879 19786,10891 19746,10856 19707,10858 19675,10854 19639,10830 19602,10813 19571,10830 19536,10829 19500,10829 19467,10823 19435,10839 19397,10845 19358,10816 19329,10822 19293,10776 19255,10799 19228,10779 19185,10772 19148,10763 19123,10803 19087,10783 19047,10788 19014,10773 18976,10729 18938,10745 18919,10761 18872,10733 18831,10782 18790,10759 18757,10797 18723,10772 18687,10735 18650,10802 18614,10737 18545,10857 18511,10782 18479,10724 18445,10705 18421,10700 18384,10664 18349,10655 18307,10616 18269,10567 18243,10596 18207,10602 18168,10574 18134,10582 18103,10562 18064,10580 18033,10603 17998,10574 17959,10492 17926,10457 17894,10494 17858,10464 17824,10460 17796,10446 17760,10453 17720,10433 17689,10474 17651,10471 17613,10352 17579,10374 17545,10355 17510,10377 17475,10373 17444,10353 17401,10362 17363,10356 17337,10319 17301,10260 17265,10283 17229,10245 17190,10245 17153,10245 17127,10213 17093,10227 17052,10226 17016,10210 16978,10187 16943,10135 16914,10168 16877,10155 16836,10102 16807,10144 16774,10144 16735,10141 16696,10151 16664,10131 16626,10085 16597,10082 16560,10068 16523,10068 16492,10034 16456,10021 16420,10032 16392,10018 16317,10007 16278,9955 16248,9984 16214,9982 16179,9941 16148,9934 16108,9949 16072,9929 16040,9929 16006,9923 15968,9861 15932,9854 15894,9831 15858,9827 15820,9792 15782,9831 15749,9837 15717,9837 15679,9805 15644,9809 15608,9755 15539,9749 15506,9723 15471,9766 15436,9744 15399,9700 15364,9725 15331,9643 15295,9649 15261,9659 15227,9671 15190,9616 15154,9611 15122,9615 15088,9589 15053,9632 15018,9646 14985,9653 14946,9556 14912,9560 14880,9530 14844,9481 14810,9488 14775,9457 14740,9479 14705,9465 14666,9468 14621,9356 14589,9357 14549,9398 14508,9384 14477,9301 14441,9340 14406,9356 14372,9290 14337,9333 14299,9301 14263,9224 14232,9232 14198,9233 14161,9216 14128,9219 14093,9222 14055,9241 14023,9229 13988,9189 13950,9124 13917,9138 13883,9122 13844,9125 13815,9117 13777,9103 13739,9077 13711,9115 13674,9155 13605,9014 13566,9017 13531,8993 13501,8966 13463,8987 13427,8979 13388,8959 13354,9007 13319,8991 13282,8930 13247,8933 13211,8909 13173,8896 13138,8892 13104,8872 13064,8850 13032,8858 12995,8835 12959,8799 12924,8790 12890,8767 12854,8745 12818,8717 12786,8677 12751,8720 12716,8713 12681,8745 12645,8696 12612,8628 12577,8653 12541,8656 12507,8610 12471,8605 12437,8618 12403,8608 12366,8631 12333,8551 12297,8477 12259,8483 12226,8486 12190,8403 12152,8431 12118,8441 12082,8425 12049,8478 12013,8422 11974,8367 11934,8348 11904,8307 11868,8315 11831,8291 11797,8282 11760,8306 11725,8245 11693,8283 11660,8287 11622,8198 11584,8180 11549,8166 11514,8119 11478,8149 11446,8208 11409,8100 11373,8141 11340,8121 11302,8057 11271,8015 11238,8019 11165,7972 11130,8021 11096,8033 11053,8000 11022,7963 10988,7963 10950,7947 10918,7972 10882,7957 10845,7951 10810,7954 10778,7905 10744,7918 10705,7945 10669,7947 10634,7864 10595,7829 10560,7776 10528,7813 10490,7765 10455,7778 10423,7791 10384,7777 10345,7722 10313,7726 10278,7702 10239,7663 10211,7669 10171,7696 10134,7711 10103,7634 10066,7668 10031,7616 9996,7612 9955,7646 9924,7547 9890,7484 9853,7527 9819,7467 9783,7487 9746,7513 9712,7509 9676,7532 9645,7496 9606,7461 9571,7444 9538,7375 9501,7364 9465,7403 9433,7352 9393,7304 9360,7297 9327,7315 9290,7341 9252,7367 9214,7314 9183,7304 9146,7285 9112,7244 9075,7246 9036,7189 9006,7193 8969,7181 8936,7158 8903,7114 8861,7078 8826,7113 8793,7081 8759,7088 8724,7052 8689,7065 8655,7054 8617,7031 8584,7008 8552,6999 8510,6963 8477,6985 8445,6960 8403,6945 8371,6962 8334,7052 8299,7022 8265,7047 8232,7022 8192,6991 8155,6966 8121,6964 8087,6970 8051,6916 8016,6968 7979,7000 7941,6995 7908,6963 7873,6940 7836,6845 7801,6838 7763,6855 7727,6832 7694,6782 7661,6818 7621,6818 7585,6773 7557,6805 7517,6689 7482,6653 7449,6675 7410,6690 7377,6650 7345,6662 7315,6689 7273,6644 7236,6592 7200,6563 7168,6529 7133,6543 7098,6494 7061,6414 7027,6436 6992,6567 6957,6476 6923,6362 6886,6564 6849,6540 6817,6473 6778,6613 6740,6500 6707,6405 6674,6491 6639,6501 6601,6452 6566,6461 6532,6515 6494,6505 6458,6478 6421,6404 6386,6374 6351,6320 6312,6325 6281,6279 6246,6197 6211,6215 6176,6209 6138,6178 6104,6220 6070,6211 6036,6155 6003,6180 5966,6163 5930,6047 5895,6119 5860,6113 5825,6069 5790,6114 5757,6111 5720,6083 5684,6115 5648,6136 5611,6061 5578,6083 5544,6025 5507,6017 5474,6049 5436,6080 5401,6016 5369,6070 5331,6044 5290,5999 5260,6029 5220,6021 5182,5962 5155,5972 5116,6021 5075,5978 5043,5944 5008,5936 4970,5910 4934,5838 4901,5861 4864,5845 4832,5804 4797,5824 4760,5845 4727,5791 4692,5760 4658,5842 4620,5744 4587,5632 4552,5716 4517,5705 4484,5685 4450,5671 4414,5655 4384,5564 4348,5582 4309,5609 4277,5442 4238,5467 4204,5646 4167,5530 4130,5558 4097,5601 4062,5561 4026,5599 3992,5690 3955,5528 3920,5490 3885,5563 3848,5514 3815,5501 3778,5436 3747,5422 3706,5374 3672,5378 3636,5333 3596,5271 3572,5223 3540,5213 3506,5112 3472,5117 3441,5137 3405,5141 3372,5199 3331,5182 3291,5188 3246,5138 3214,5133 3181,5042 3145,5037 3113,5127 3075,5147 3036,5058 3005,5066 2970,5017"/>
 <path fill="none" stroke="rgb(87,157,28)" stroke-width="80" stroke-linejoin="round" d="M 33023,12891 L 32983,13054 32948,13059 32913,13090 32876,13104 32842,13060 32808,12892 32773,12891 32738,12945 32706,12776 32668,12740 32632,12818 32595,12707 32556,12745 32524,12822 32490,12739 32453,12814 32419,12917 32380,12856 32341,12771 32303,12981 32270,13018 32233,12932 32197,13097 32160,13181 32125,13133 32096,13376 32060,13546 32023,13305 31993,13642 31954,13621 31911,13378 31872,13183 31836,13123 31796,13074 31762,12893 31728,12962 31696,12852 31662,12754 31624,13000 31588,12950 31554,12711 31517,12781 31482,12729 31449,12655 31415,12764 31378,12793 31343,12685 31305,12785 31268,12931 31234,12761 31195,12895 31157,13099 31121,12971 31090,13029 31059,13209 31020,13156 30983,13146 30949,13223 30911,13161 30870,13042 30838,13097 30799,13160 30762,12931 30734,13041 30693,13049 30658,12919 30626,13132 30588,13198 30548,13048 30516,12969 30478,13049 30441,12914 30408,13006 30377,13046 30335,13060 30302,12896 30269,13029 30226,12929 30193,12997 30159,13106 30120,12984 30084,12881 30053,12759 30016,12763 29983,12762 29950,12732 29909,12707 29874,12577 29840,12582 29801,12711 29767,12608 29733,12732 29695,12765 29659,12731 29627,12705 29591,12948 29554,12941 29523,12911 29488,13280 29449,13152 29412,13124 29384,13403 29346,13362 29308,13459 29276,13330 29236,13190 29197,13238 29156,12985 29118,12984 29081,12839 29045,12669 29008,12747 28972,12545 28940,12478 28904,12635 28871,12562 28840,12374 28802,12478 28765,12429 28730,12346 28693,12455 28660,12485 28625,12364 28590,12436 28553,12512 28516,12382 28480,12467 28440,12631 28406,12470 28371,12596 28334,12705 28297,12660 28267,12682 28226,12799 28190,12661 28155,12498 28120,12585 28083,12655 28048,12593 28011,12638 27974,12625 27939,12520 27905,12546 27867,12590 27834,12513 27798,12581 27761,12568 27728,12372 27657,12495 27620,12394 27587,12446 27548,12489 27514,12344 27483,12389 27446,12504 27411,12377 27377,12297 27336,12467 27304,12184 27266,12199 27236,12254 27202,12234 27163,12207 27126,12231 27091,12187 27053,12218 27016,12355 26981,12343 26948,12318 26906,12445 26873,12365 26839,12308 26804,12391 26768,12421 26731,12401 26697,12340 26657,12501 26621,12376 26587,12375 26555,12465 26516,12438 26481,12310 26444,12327 26410,12297 26376,12182 26338,12239 26306,12197 26274,12015 26234,12060 26203,12103 26172,12042 26131,12004 26096,12037 26064,11918 26023,11937 25990,12012 25956,11979 25921,11999 25887,12055 25851,11955 25813,11912 25774,12086 25738,12071 25702,12060 25663,12153 25628,12193 25596,12058 25563,12186 25522,12226 25488,12047 25452,12044 25417,12158 25383,12032 25341,12080 25307,12128 25273,12069 25235,12071 25202,12122 25171,12019 25132,11979 25094,12132 25064,11977 25025,11900 24992,11977 24958,11893 24925,11780 24889,11919 24851,11915 24815,11861 24780,11901 24747,11943 24709,11821 24680,11803 24638,11870 24608,11735 24569,11760 24536,11777 24501,11751 24392,11808 24349,11930 24322,11772 24290,11819 24244,11910 24214,11929 24180,11855 24139,11864 24107,11915 24072,11947 24036,11871 23999,12021 23962,11965 23927,11887 23893,11985 23855,12026 23822,12008 23788,11849 23750,11926 23715,11768 23681,11659 23644,11698 23615,11606 23578,11559 23544,11616 23508,11569 23471,11552 23437,11580 23405,11511 23363,11536 23334,11496 23297,11482 23262,11484 23228,11516 23193,11556 23158,11477 23120,11564 23084,11608 23046,11465 23011,11604 22979,11642 22945,11589 22910,11600 22875,11633 22837,11565 22799,11514 22765,11596 22728,11539 22694,11444 22662,11458 22627,11404 22589,11384 22556,11401 22519,11426 22482,11352 22452,11357 22417,11358 22378,11336 22347,11312 22312,11318 22275,11295 22239,11311 22204,11286 22164,11304 22128,11269 22099,11277 22059,11248 22030,11236 21992,11214 21959,11276 21918,11247 21883,11259 21850,11228 21813,11177 21783,11193 21749,11243 21709,11223 21673,11209 21640,11247 21602,11223 21569,11206 21532,11204 21496,11202 21460,11170 21430,11245 21394,11236 21356,11173 21319,11214 21282,11208 21246,11151 21211,11233 21175,11321 21143,11205 21111,11165 21075,11137 21037,11108 21003,11070 20964,11080 20930,11083 20900,11085 20869,11062 20838,11019 20796,11027 20762,11004 20728,11033 20688,11047 20658,11029 20621,11024 20589,11018 20550,11005 20511,11020 20477,10981 20443,10985 20406,10994 20370,10974 20338,10921 20308,10956 20274,10967 20239,10943 20203,10961 20167,10924 20129,10902 20099,10880 20059,10927 20030,10929 19995,10883 19960,10883 19923,10892 19884,10877 19850,10898 19814,10886 19782,10904 19743,10859 19704,10823 19675,10833 19636,10805 19598,10807 19566,10812 19533,10819 19495,10800 19463,10799 19434,10805 19396,10850 19358,10799 19327,10819 19287,10749 19250,10786 19224,10759 19182,10772 19145,10748 19122,10783 19084,10751 19045,10774 19011,10744 18972,10706 18935,10755 18918,10747 18870,10723 18832,10770 18792,10776 18757,10822 18723,10813 18686,10750 18650,10840 18613,10764 18540,10923 18509,10814 18481,10748 18446,10716 18421,10703 18383,10667 18346,10659 18305,10633 18270,10556 18245,10601 18207,10583 18166,10552 18134,10576 18102,10555 18064,10564 18032,10593 17997,10576 17959,10492 17928,10459 17896,10495 17858,10457 17821,10439 17799,10434 17762,10429 17723,10441 17691,10453 17652,10458 17613,10306 17580,10364 17545,10324 17511,10363 17474,10349 17445,10327 17403,10370 17365,10349 17339,10308 17301,10258 17264,10272 17231,10231 17191,10220 17155,10220 17130,10192 17096,10200 17056,10209 17019,10187 16981,10164 16943,10122 16915,10127 16878,10138 16836,10091 16813,10123 16777,10114 16736,10106 16699,10120 16664,10125 16628,10078 16597,10072 16559,10032 16523,10013 16494,9998 16459,9996 16421,9992 16392,9993 16317,9966 16279,9934 16252,9960 16216,9943 16180,9892 16148,9887 16109,9920 16072,9899 16039,9888 16007,9896 15969,9811 15936,9794 15899,9782 15861,9788 15823,9748 15785,9792 15753,9816 15721,9823 15682,9795 15647,9775 15615,9721 15547,9711 15510,9696 15474,9732 15439,9725 15403,9693 15370,9704 15337,9621 15298,9603 15265,9617 15232,9645 15194,9594 15156,9602 15123,9610 15091,9577 15057,9585 15025,9623 14990,9631 14950,9553 14914,9550 14883,9535 14848,9475 14816,9480 14779,9449 14745,9470 14709,9472 14670,9477 14628,9374 14593,9372 14554,9437 14514,9429 14484,9317 14447,9380 14413,9380 14378,9294 14347,9370 14307,9314 14270,9208 14237,9218 14202,9213 14164,9183 14134,9206 14102,9261 14060,9222 14028,9243 13993,9168 13954,9088 13921,9119 13887,9078 13843,9075 13819,9089 13780,9067 13744,9066 13714,9082 13677,9163 13606,8967 13568,8987 13533,8939 13503,8899 13466,8931 13432,8932 13393,8911 13359,8983 13321,8953 13285,8887 13251,8890 13216,8860 13179,8837 13144,8843 13109,8815 13073,8786 13039,8808 13003,8808 12964,8743 12928,8746 12895,8718 12859,8709 12826,8672 12794,8650 12756,8682 12722,8685 12685,8714 12648,8668 12616,8611 12579,8629 12544,8625 12512,8571 12476,8572 12439,8605 12405,8571 12368,8604 12334,8536 12299,8493 12262,8484 12227,8471 12194,8407 12156,8445 12123,8466 12085,8444 12051,8482 12015,8429 11977,8409 11939,8388 11908,8309 11872,8334 11835,8295 11802,8304 11765,8350 11731,8266 11696,8317 11662,8281 11625,8187 11590,8174 11553,8144 11519,8076 11480,8114 11449,8201 11412,8054 11376,8129 11342,8134 11304,7991 11274,7952 11243,7941 11167,7897 11132,7941 11096,7997 11056,7962 11022,7889 10989,7901 10951,7882 10923,7904 10884,7878 10848,7884 10810,7866 10780,7824 10745,7852 10708,7883 10671,7881 10636,7787 10597,7753 10563,7696 10532,7742 10494,7700 10458,7704 10425,7716 10386,7717 10348,7656 10320,7675 10282,7657 10243,7607 10214,7607 10174,7624 10139,7634 10108,7597 10069,7624 10034,7586 9998,7570 9958,7585 9928,7506 9891,7434 9857,7485 9820,7446 9786,7478 9749,7506 9715,7485 9678,7493 9651,7495 9610,7421 9575,7421 9540,7338 9504,7347 9467,7399 9437,7347 9397,7297 9364,7285 9330,7297 9292,7327 9256,7366 9217,7299 9184,7288 9146,7257 9112,7229 9076,7233 9042,7182 9008,7172 8973,7161 8938,7099 8905,7021 8866,7007 8830,7045 8795,7008 8762,6968 8727,6928 8695,6958 8660,6961 8621,6907 8588,6868 8555,6858 8515,6811 8481,6850 8450,6803 8407,6794 8377,6800 8338,6964 8303,6898 8267,6940 8235,6882 8193,6827 8158,6801 8124,6811 8089,6832 8053,6743 8019,6825 7983,6868 7944,6871 7909,6790 7873,6775 7837,6651 7802,6661 7769,6689 7730,6661 7699,6591 7663,6655 7627,6610 7591,6582 7562,6614 7520,6492 7488,6440 7452,6465 7418,6503 7384,6412 7352,6457 7318,6480 7278,6450 7241,6368 7205,6364 7173,6319 7138,6307 7104,6268 7065,6211 7032,6246 6994,6347 6961,6255 6926,6163 6890,6348 6851,6314 6820,6254 6781,6363 6744,6285 6710,6194 6678,6291 6639,6277 6601,6215 6569,6250 6535,6308 6501,6305 6459,6250 6426,6198 6390,6175 6356,6147 6319,6153 6287,6094 6250,5976 6217,5992 6180,5991 6145,5937 6110,6005 6076,6001 6042,5876 6009,5961 5973,5929 5935,5744 5901,5847 5868,5843 5830,5786 5796,5825 5762,5851 5724,5801 5690,5893 5650,5904 5614,5792 5581,5795 5547,5730 5509,5718 5477,5782 5437,5792 5403,5705 5369,5784 5331,5757 5294,5720 5261,5732 5226,5758 5185,5629 5158,5640 5120,5700 5083,5673 5050,5618 5014,5598 4975,5571 4942,5484 4910,5483 4876,5490 4841,5412 4806,5455 4768,5474 4735,5424 4702,5373 4668,5511 4630,5356 4597,5216 4561,5307 4526,5295 4492,5277 4459,5267 4424,5235 4393,5158 4360,5158 4318,5194 4286,5003 4244,5045 4212,5224 4171,5123 4135,5143 4099,5157 4065,5123 4031,5181 3997,5270 3961,5110 3923,5074 3887,5105 3851,5106 3819,5070 3782,5053 3750,5022 3708,4981 3677,4977 3641,4940 3607,4842 3575,4828 3544,4802 3507,4653 3477,4627 3446,4677 3409,4691 3375,4791 3337,4738 3295,4781 3258,4701 3223,4707 3190,4552 3155,4545 3122,4667 3087,4692 3046,4580 3016,4569 2979,4541"/>
 <path fill="none" stroke="rgb(255,211,32)" stroke-width="80" stroke-linejoin="round" d="M 32999,14364 L 32959,14461 32922,14489 32884,14461 32848,14469 32817,14435 32785,14361 32750,14317 32714,14360 32680,14117 32642,14060 32608,14144 32575,14036 32535,14099 32501,14121 32463,14012 32426,14127 32390,14266 32358,14204 32317,14104 32280,14284 32247,14316 32209,14235 32174,14425 32138,14476 32101,14438 32075,14563 32034,14694 31997,14517 31967,14766 31932,14759 31888,14586 31849,14429 31813,14352 31772,14363 31742,14157 31709,14272 31676,14116 31640,13963 31600,14231 31564,14173 31532,13861 31498,13978 31466,13899 31429,13766 31391,13895 31353,13928 31319,13846 31286,13943 31250,14104 31215,13866 31178,14047 31137,14289 31100,14181 31069,14204 31039,14388 31000,14283 30963,14312 30928,14348 30890,14341 30850,14203 30823,14259 30785,14284 30748,14015 30713,14166 30675,14186 30638,14047 30608,14234 30571,14274 30529,14089 30499,14020 30462,14138 30424,13978 30393,14076 30359,14105 30316,14117 30283,13892 30251,14077 30207,13927 30177,14041 30144,14121 30105,13963 30066,13849 30036,13738 29997,13761 29965,13724 29934,13679 29894,13627 29858,13527 29824,13540 29787,13677 29755,13545 29721,13659 29683,13666 29643,13671 29612,13641 29577,13879 29542,13854 29512,13784 29479,14291 29436,14109 29399,14098 29369,14346 29333,14321 29299,14388 29266,14288 29224,14177 29184,14202 29141,13859 29103,13829 29070,13655 29034,13536 29000,13593 28961,13437 28929,13385 28893,13455 28860,13403 28833,13291 28796,13369 28756,13328 28722,13276 28685,13335 28651,13339 28621,13243 28585,13290 28545,13348 28508,13266 28471,13329 28433,13411 28399,13316 28365,13399 28326,13472 28289,13407 28258,13441 28221,13518 28185,13425 28149,13299 28111,13373 28071,13384 28036,13352 28005,13373 27971,13386 27936,13298 27900,13306 27860,13323 27828,13272 27793,13307 27759,13321 27727,13181 27652,13222 27616,13150 27583,13182 27546,13226 27513,13133 27479,13147 27440,13214 27405,13111 27372,13054 27334,13194 27306,12998 27266,12987 27231,13007 27196,12979 27156,12985 27121,12994 27090,12963 27052,12964 27014,13072 26979,13032 26944,13031 26904,13125 26870,13077 26835,13015 26802,13062 26764,13068 26729,13071 26696,13038 26657,13147 26622,13027 26588,13011 26552,13048 26513,13059 26478,12985 26442,12993 26407,12941 26376,12828 26336,12884 26306,12844 26273,12652 26236,12700 26203,12766 26170,12650 26129,12610 26094,12648 26063,12503 26026,12543 25991,12626 25955,12558 25919,12585 25884,12629 25851,12552 25815,12501 25776,12662 25740,12631 25705,12616 25663,12756 25628,12764 25598,12619 25564,12741 25523,12765 25487,12566 25451,12611 25416,12734 25384,12580 25344,12634 25311,12621 25275,12564 25234,12563 25201,12688 25169,12528 25132,12500 25095,12632 25066,12451 25026,12343 24992,12486 24956,12375 24924,12233 24891,12334 24854,12354 24818,12275 24780,12381 24748,12401 24712,12279 24684,12199 24641,12302 24609,12138 24568,12203 24537,12182 24502,12178 24394,12192 24350,12326 24323,12191 24290,12198 24248,12301 24216,12295 24181,12240 24137,12258 24107,12321 24073,12358 24039,12273 24002,12438 23962,12370 23925,12279 23892,12377 23857,12435 23825,12404 23792,12205 23752,12296 23716,12153 23681,12024 23648,12068 23620,11970 23583,11907 23546,11981 23507,11960 23471,11912 23438,11953 23410,11881 23371,11902 23338,11863 23298,11869 23262,11844 23226,11886 23195,11902 23162,11850 23125,11884 23087,11915 23049,11801 23010,11914 22980,11938 22948,11912 22913,11912 22877,11935 22838,11875 22800,11817 22769,11869 22736,11843 22700,11781 22667,11782 22629,11731 22588,11697 22557,11704 22525,11727 22487,11670 22459,11675 22419,11681 22380,11629 22346,11613 22313,11610 22276,11616 22245,11617 22210,11592 22169,11590 22132,11577 22101,11559 22061,11532 22034,11536 21993,11502 21960,11549 21920,11531 21887,11570 21855,11513 21820,11481 21788,11464 21749,11533 21711,11509 21675,11496 21643,11513 21608,11509 21576,11481 21538,11485 21500,11465 21463,11458 21430,11514 21394,11509 21356,11439 21320,11482 21287,11470 21251,11441 21216,11507 21180,11577 21145,11467 21111,11424 21076,11400 21038,11389 21008,11376 20969,11367 20935,11354 20903,11337 20870,11328 20840,11313 20800,11328 20768,11302 20733,11305 20694,11294 20664,11284 20626,11281 20591,11299 20552,11280 20515,11307 20479,11247 20446,11219 20411,11239 20376,11247 20343,11205 20312,11213 20273,11214 20241,11165 20207,11195 20172,11161 20133,11148 20103,11144 20063,11160 20032,11143 19995,11108 19961,11121 19925,11134 19890,11117 19855,11127 19820,11093 19787,11100 19747,11080 19708,11073 19679,11085 19639,11007 19601,11000 19570,10991 19537,11012 19500,11001 19469,10987 19436,11013 19397,11018 19356,10966 19329,10984 19291,10910 19255,10967 19229,10927 19186,10909 19146,10869 19122,10943 19083,10894 19048,10917 19015,10892 18976,10839 18937,10856 18919,10881 18870,10835 18835,10921 18795,10902 18760,10943 18725,10919 18688,10848 18651,10950 18614,10864 18548,11035 18513,10916 18480,10813 18445,10785 18425,10778 18387,10720 18352,10699 18311,10653 18271,10600 18245,10626 18209,10626 18167,10573 18138,10613 18106,10557 18066,10582 18032,10601 17996,10571 17959,10492 17932,10469 17899,10487 17860,10451 17824,10438 17802,10446 17765,10441 17727,10432 17693,10429 17653,10446 17615,10331 17582,10371 17550,10341 17518,10369 17479,10349 17448,10331 17405,10346 17366,10326 17342,10321 17306,10276 17269,10282 17237,10253 17196,10254 17158,10240 17132,10211 17099,10244 17060,10236 17024,10232 16986,10188 16948,10169 16919,10156 16886,10179 16846,10138 16820,10166 16783,10156 16741,10155 16703,10160 16670,10158 16636,10107 16607,10116 16568,10087 16532,10075 16497,10046 16465,10027 16428,10055 16403,10046 16327,10009 16287,9950 16258,9989 16222,9983 16189,9926 16158,9894 16119,9933 16080,9917 16047,9889 16014,9867 15979,9791 15946,9774 15908,9746 15869,9770 15831,9683 15794,9770 15765,9769 15735,9790 15695,9733 15658,9713 15622,9633 15557,9613 15524,9590 15488,9613 15452,9601 15414,9544 15381,9587 15347,9475 15311,9421 15280,9428 15245,9427 15206,9364 15168,9379 15137,9390 15105,9361 15072,9380 15037,9412 15003,9415 14960,9291 14928,9298 14899,9284 14867,9219 14832,9210 14795,9181 14757,9191 14722,9197 14687,9209 14647,9136 14613,9105 14574,9147 14534,9129 14503,9077 14466,9088 14431,9102 14398,9051 14365,9082 14325,9056 14288,9010 14257,8994 14225,8999 14188,8969 14158,8987 14121,8988 14079,8993 14046,8988 14012,8975 13976,8906 13947,8931 13912,8896 13870,8912 13842,8896 13803,8899 13767,8865 13743,8906 13703,8930 13632,8783 13596,8815 13562,8760 13531,8711 13492,8735 13458,8752 13420,8741 13386,8793 13349,8752 13315,8661 13281,8660 13247,8634 13209,8611 13172,8617 13137,8572 13103,8559 13071,8541 13035,8532 12997,8459 12961,8474 12928,8428 12892,8408 12858,8317 12827,8268 12790,8335 12756,8354 12721,8416 12685,8320 12653,8195 12616,8204 12582,8220 12547,8135 12511,8131 12476,8142 12443,8112 12406,8135 12373,8067 12338,7998 12300,7978 12264,7989 12231,7911 12195,7949 12162,7972 12126,7961 12091,7993 12054,7942 12018,7910 11981,7879 11952,7841 11916,7853 11879,7844 11846,7838 11811,7863 11776,7804 11743,7824 11709,7821 11673,7772 11635,7764 11600,7753 11565,7713 11529,7724 11495,7755 11463,7711 11425,7738 11391,7741 11354,7673 11324,7613 11293,7612 11218,7594 11182,7627 11147,7647 11107,7616 11075,7553 11041,7562 11004,7560 10973,7587 10938,7550 10903,7543 10866,7521 10836,7492 10802,7514 10764,7563 10729,7544 10694,7426 10654,7372 10619,7291 10589,7367 10552,7334 10517,7333 10484,7315 10446,7325 10407,7241 10376,7265 10341,7262 10301,7156 10273,7180 10233,7191 10198,7194 10167,7115 10129,7162 10093,7069 10059,7089 10019,7104 9987,6982 9952,6869 9917,6951 9884,6883 9850,6932 9812,6951 9777,6899 9738,6962 9709,6927 9672,6834 9638,6859 9604,6750 9565,6754 9527,6794 9497,6744 9459,6683 9426,6710 9392,6724 9353,6745 9314,6763 9277,6695 9244,6712 9210,6691 9175,6653 9140,6653 9102,6620 9069,6625 9030,6630 8999,6602 8967,6590 8929,6567 8892,6585 8858,6574 8822,6555 8787,6544 8756,6556 8721,6558 8682,6533 8649,6516 8615,6516 8575,6490 8542,6523 8511,6497 8468,6490 8435,6494 8397,6573 8359,6570 8323,6584 8292,6560 8252,6506 8215,6517 8183,6509 8145,6546 8107,6498 8072,6540 8033,6567 7998,6569 7963,6544 7930,6524 7893,6437 7859,6433 7821,6472 7784,6438 7751,6403 7719,6450 7680,6429 7645,6407 7612,6419 7571,6283 7538,6239 7505,6293 7468,6330 7433,6275 7399,6282 7367,6307 7323,6253 7290,6192 7251,6185 7218,6158 7183,6136 7145,6067 7107,6013 7071,6033 7036,6155 6998,6058 6966,5968 6928,6172 6890,6094 6855,6060 6815,6191 6779,6064 6741,5947 6708,6072 6669,6061 6630,5981 6598,6007 6562,6094 6526,6076 6485,6024 6447,5942 6412,5928 6376,5858 6339,5866 6304,5804 6268,5670 6231,5682 6194,5689 6155,5619 6119,5666 6083,5659 6049,5563 6014,5616 5978,5598 5939,5453 5901,5500 5865,5501 5824,5431 5790,5491 5753,5477 5715,5461 5675,5471 5635,5506 5598,5406 5565,5413 5528,5341 5486,5359 5451,5381 5409,5374 5372,5325 5338,5369 5296,5339 5257,5299 5222,5290 5185,5299 5144,5214 5113,5216 5073,5245 5031,5233 4997,5180 4957,5132 4918,5090 4883,4987 4848,4986 4810,4987 4774,4911 4737,4919 4698,4945 4663,4828 4627,4818 4590,4947 4548,4772 4512,4586 4477,4723 4440,4664 4404,4605 4366,4590 4328,4542 4294,4418 4260,4456 4217,4473 4181,4245 4137,4253 4101,4423 4060,4327 4021,4308 3983,4347 3946,4273 3909,4350 3873,4444 3834,4273 3794,4187 3756,4261 3718,4198 3683,4173 3646,4118 3610,4096 3567,4050 3531,4055 3495,3998 3457,3918 3423,3869 3388,3880 3352,3764 3317,3753 3286,3762 3245,3777 3210,3807 3165,3785 3124,3793 3083,3732 3046,3701 3009,3579 2971,3540 2935,3645 2898,3681 2856,3610 2823,3545 2785,3500"/>
 <path fill="none" stroke="rgb(255,66,14)" stroke-width="80" stroke-linejoin="round" d="M 33047,14373 L 33008,14519 32970,14558 32939,14523 32904,14564 32869,14502 32832,14380 32796,14339 32758,14389 32731,14087 32695,14071 32660,14157 32623,14003 32581,14062 32545,14110 32511,14018 32477,14130 32446,14300 32410,14259 32366,14105 32328,14355 32297,14384 32261,14289 32228,14514 32191,14561 32151,14528 32121,14682 32084,14802 32049,14636 32023,14866 31985,14863 31936,14699 31898,14526 31863,14437 31824,14432 31792,14198 31756,14314 31720,14099 31684,13941 31645,14264 31614,14206 31582,13872 31546,13953 31510,13907 31474,13784 31438,13910 31404,13940 31370,13865 31335,13929 31295,14128 31260,13857 31223,14033 31187,14344 31151,14226 31119,14266 31085,14467 31044,14353 31008,14379 30976,14425 30941,14415 30899,14247 30866,14306 30825,14349 30787,14021 30759,14235 30722,14235 30685,14076 30653,14265 30613,14350 30570,14119 30543,14052 30510,14193 30472,13986 30438,14076 30403,14148 30360,14163 30329,13914 30297,14119 30255,13941 30222,14004 30189,14176 30148,13946 30113,13871 30082,13759 30045,13767 30009,13718 29977,13667 29935,13644 29901,13557 29869,13586 29831,13693 29797,13565 29760,13649 29721,13676 29685,13672 29655,13658 29622,13895 29582,13843 29551,13785 29517,14371 29478,14178 29445,14170 29417,14473 29375,14397 29338,14487 29305,14366 29263,14223 29227,14299 29185,13855 29147,13820 29110,13646 29071,13558 29037,13617 29001,13485 28971,13439 28935,13498 28899,13469 28869,13382 28831,13436 28794,13420 28762,13375 28725,13403 28689,13423 28655,13344 28619,13390 28583,13422 28547,13360 28511,13379 28469,13462 28435,13390 28401,13463 28365,13513 28331,13467 28299,13461 28258,13516 28219,13452 28184,13372 28149,13418 28112,13440 28077,13399 28041,13410 28003,13402 27969,13358 27937,13368 27899,13379 27865,13334 27827,13362 27788,13360 27757,13265 27687,13305 27654,13242 27618,13289 27578,13303 27544,13226 27513,13237 27476,13296 27444,13209 27410,13133 27366,13280 27335,13055 27297,13061 27266,13061 27233,13020 27192,13016 27153,13032 27118,13013 27081,13044 27048,13164 27016,13109 26980,13090 26936,13220 26900,13166 26864,13087 26831,13155 26795,13183 26760,13158 26727,13120 26685,13233 26650,13142 26617,13103 26584,13172 26544,13141 26507,13052 26469,13059 26437,13030 26406,12821 26370,12939 26335,12808 26301,12539 26260,12577 26230,12697 26199,12548 26160,12512 26124,12531 26092,12380 26050,12387 26015,12523 25981,12431 25948,12466 25913,12501 25877,12438 25836,12365 25796,12582 25761,12523 25729,12512 25689,12703 25655,12720 25620,12518 25585,12690 25547,12779 25513,12482 25477,12500 25441,12679 25408,12455 25367,12536 25335,12564 25299,12463 25262,12469 25224,12595 25192,12417 25152,12357 25117,12571 25089,12322 25052,12236 25015,12337 24980,12236 24946,12151 24910,12214 24875,12236 24840,12172 24802,12234 24768,12273 24730,12164 24702,12137 24661,12209 24631,12074 24591,12132 24558,12097 24521,12105 24416,12121 24373,12218 24345,12102 24310,12127 24266,12203 24236,12208 24201,12166 24159,12158 24126,12199 24091,12222 24055,12155 24020,12323 23983,12253 23947,12185 23910,12243 23872,12309 23838,12258 23807,12110 23770,12186 23735,12071 23699,11970 23662,12026 23632,11948 23598,11899 23565,11953 23528,11926 23490,11903 23454,11941 23424,11855 23384,11889 23355,11860 23317,11853 23281,11829 23244,11872 23209,11887 23175,11843 23140,11879 23105,11905 23066,11804 23028,11891 22994,11917 22960,11901 22925,11903 22892,11921 22853,11876 22814,11806 22781,11857 22745,11831 22710,11766 22677,11770 22641,11727 22601,11663 22571,11676 22536,11705 22499,11647 22470,11632 22431,11629 22392,11569 22359,11551 22325,11552 22288,11537 22255,11561 22220,11509 22180,11501 22141,11486 22112,11480 22072,11456 22043,11445 22004,11394 21970,11456 21927,11431 21896,11489 21863,11414 21827,11364 21795,11334 21757,11432 21717,11365 21680,11365 21650,11448 21615,11456 21584,11362 21547,11366 21508,11332 21470,11308 21438,11430 21402,11430 21365,11299 21328,11366 21294,11359 21257,11288 21223,11413 21188,11528 21153,11355 21118,11279 21082,11233 21043,11204 21013,11159 20975,11165 20941,11175 20908,11152 20875,11128 20843,11071 20801,11093 20771,11067 20738,11112 20697,11098 20666,11064 20628,11043 20595,11069 20557,11062 20520,11087 20484,11009 20452,11006 20413,10991 20378,11024 20346,10944 20316,10982 20277,10979 20245,10932 20209,10954 20174,10917 20134,10881 20108,10904 20067,10914 20035,10913 19996,10873 19962,10874 19925,10877 19890,10856 19857,10873 19822,10855 19786,10862 19747,10837 19707,10829 19677,10818 19639,10795 19601,10767 19572,10762 19539,10789 19501,10789 19468,10758 19437,10764 19398,10773 19359,10748 19331,10766 19291,10720 19255,10737 19230,10706 19188,10713 19149,10693 19123,10712 19084,10705 19047,10705 19016,10706 18976,10651 18939,10681 18918,10689 18870,10669 18832,10703 18794,10711 18756,10711 18723,10711 18687,10679 18651,10759 18614,10678 18545,10806 18512,10728 18480,10653 18446,10652 18422,10619 18385,10604 18349,10583 18308,10569 18270,10536 18245,10557 18207,10545 18167,10534 18135,10530 18104,10518 18064,10522 18032,10551 17995,10528 17959,10492 17927,10457 17897,10464 17858,10453 17822,10468 17796,10440 17759,10437 17721,10441 17689,10439 17649,10445 17612,10367 17579,10400 17546,10363 17513,10369 17475,10348 17445,10343 17402,10374 17363,10374 17338,10337 17301,10274 17265,10289 17232,10227 17190,10236 17154,10235 17126,10190 17094,10225 17055,10214 17019,10182 16981,10152 16942,10072 16913,10069 16877,10103 16835,10040 16812,10076 16776,10069 16733,10060 16696,10090 16663,10069 16629,10007 16599,9978 16561,9954 16524,9930 16492,9901 16458,9869 16421,9897 16394,9874 16318,9835 16281,9780 16249,9820 16214,9794 16179,9709 16149,9693 16108,9738 16073,9738 16039,9709 16006,9690 15967,9578 15934,9565 15895,9547 15859,9565 15819,9495 15785,9580 15753,9567 15723,9594 15681,9531 15646,9547 15611,9463 15547,9452 15513,9417 15475,9446 15440,9455 15403,9407 15371,9445 15336,9350 15299,9332 15265,9329 15232,9353 15194,9307 15157,9307 15126,9311 15093,9288 15056,9295 15023,9324 14989,9326 14947,9270 14914,9252 14885,9251 14850,9205 14816,9204 14778,9200 14742,9226 14709,9196 14674,9200 14632,9158 14598,9145 14558,9166 14519,9174 14489,9145 14453,9156 14416,9158 14382,9119 14349,9127 14309,9121 14273,9080 14244,9080 14209,9073 14171,9053 14140,9043 14103,9073 14064,9057 14032,9077 13998,9029 13960,8970 13928,8990 13894,8964 13852,8965 13827,8965 13787,8950 13751,8948 13724,8962 13685,9006 13619,8846 13580,8859 13545,8825 13512,8768 13474,8808 13440,8804 13403,8805 13371,8852 13333,8825 13295,8750 13262,8766 13227,8726 13192,8720 13156,8698 13121,8675 13083,8637 13050,8664 13014,8634 12978,8570 12943,8563 12910,8526 12872,8513 12836,8462 12803,8423 12768,8471 12736,8459 12702,8528 12665,8441 12629,8348 12592,8376 12558,8386 12526,8302 12490,8299 12455,8303 12419,8283 12382,8323 12349,8242 12313,8145 12277,8129 12242,8134 12206,8056 12170,8104 12136,8146 12100,8122 12066,8142 12029,8076 11992,8035 11955,8009 11924,7962 11887,7979 11851,7953 11817,7952 11781,7989 11748,7928 11715,7953 11681,7931 11645,7874 11607,7856 11571,7858 11535,7833 11501,7852 11469,7890 11434,7820 11396,7843 11362,7844 11324,7799 11295,7772 11264,7759 11189,7731 11152,7766 11116,7784 11076,7766 11045,7724 11013,7724 10974,7720 10941,7713 10904,7709 10868,7697 10833,7708 10804,7662 10769,7661 10731,7701 10696,7692 10660,7625 10621,7569 10587,7487 10557,7563 10521,7501 10484,7518 10451,7512 10412,7518 10373,7438 10343,7450 10307,7442 10267,7375 10239,7391 10199,7416 10164,7411 10132,7350 10093,7363 10058,7298 10024,7313 9985,7350 9952,7214 9915,7126 9880,7185 9845,7129 9812,7160 9776,7216 9742,7149 9707,7207 9675,7162 9636,7073 9600,7099 9569,6990 9531,6995 9495,7048 9463,6951 9424,6884 9388,6878 9356,6936 9317,6951 9282,6995 9245,6880 9211,6887 9175,6872 9139,6815 9102,6812 9067,6764 9035,6751 8999,6759 8966,6729 8933,6703 8893,6684 8858,6699 8825,6670 8792,6666 8757,6643 8724,6666 8688,6657 8651,6625 8618,6608 8588,6597 8548,6587 8514,6608 8480,6590 8437,6578 8405,6577 8369,6638 8332,6622 8299,6652 8266,6624 8225,6595 8189,6574 8156,6574 8118,6589 8084,6556 8049,6590 8013,6614 7976,6604 7940,6577 7906,6568 7870,6494 7837,6464 7802,6521 7766,6470 7732,6417 7698,6461 7659,6453 7625,6419 7595,6434 7556,6293 7522,6233 7487,6272 7451,6307 7415,6229 7383,6256 7355,6289 7312,6232 7277,6131 7240,6128 7205,6091 7171,6084 7135,5987 7099,5909 7065,5951 7029,6096 6992,5956 6958,5844 6922,6098 6885,6026 6851,5959 6814,6143 6776,5973 6742,5868 6711,6033 6672,6018 6634,5891 6601,5933 6568,6046 6532,6039 6494,5968 6456,5850 6423,5865 6387,5764 6351,5800 6317,5705 6283,5581 6248,5582 6213,5614 6176,5535 6140,5612 6106,5569 6074,5482 6040,5543 6005,5521 5966,5378 5933,5445 5898,5446 5862,5381 5829,5438 5795,5448 5758,5431 5721,5467 5683,5503 5647,5406 5614,5412 5579,5341 5541,5345 5508,5396 5468,5397 5434,5336 5400,5407 5362,5380 5324,5325 5291,5347 5255,5335 5216,5247 5187,5253 5149,5332 5109,5284 5078,5219 5043,5182 5006,5149 4971,5005 4938,5063 4903,5051 4868,4982 4833,4996 4798,5035 4765,4920 4731,4909 4695,5045 4655,4874 4622,4683 4588,4831 4555,4796 4520,4766 4485,4726 4448,4702 4417,4595 4386,4648 4344,4659 4313,4476 4270,4463 4236,4677 4196,4578 4159,4588 4125,4623 4089,4552 4054,4628 4020,4737 3984,4570 3947,4525 3912,4582 3875,4531 3841,4516 3808,4465 3774,4457 3735,4415 3702,4441 3665,4400 3631,4351 3601,4319 3568,4307 3536,4239 3501,4233 3470,4257 3432,4260 3400,4289 3359,4280 3320,4315 3282,4255 3247,4251 3214,4137 3175,4136 3145,4239 3110,4263 3069,4198 3038,4173 3002,4129"/>
 <path fill="none" stroke="rgb(0,69,134)" stroke-width="80" stroke-linejoin="round" d="M 33006,12385 L 32969,12499 32935,12515 32899,12494 32862,12532 32826,12486 32792,12382 32759,12346 32723,12379 32692,12232 32654,12225 32618,12277 32583,12212 32543,12273 32508,12329 32472,12263 32435,12314 32402,12395 32366,12341 32326,12299 32288,12456 32257,12469 32222,12373 32186,12598 32149,12659 32112,12637 32081,12820 32046,12964 32009,12756 31980,13070 31941,13043 31898,12826 31861,12637 31827,12547 31783,12554 31750,12403 31713,12482 31682,12335 31649,12260 31609,12439 31576,12398 31541,12240 31506,12309 31473,12269 31437,12208 31401,12287 31365,12315 31330,12234 31295,12293 31257,12420 31222,12275 31187,12397 31150,12564 31114,12446 31081,12502 31045,12694 31007,12612 30971,12618 30940,12654 30902,12653 30859,12547 30828,12570 30791,12620 30756,12386 30725,12512 30684,12537 30649,12418 30617,12603 30580,12666 30539,12498 30507,12462 30472,12515 30435,12417 30402,12496 30368,12530 30325,12539 30293,12397 30262,12545 30219,12429 30186,12490 30152,12567 30113,12460 30078,12382 30047,12296 30009,12309 29974,12288 29941,12240 29905,12213 29870,12137 29836,12162 29798,12261 29763,12169 29729,12271 29692,12264 29654,12263 29622,12234 29587,12443 29549,12401 29519,12378 29484,12747 29443,12637 29408,12626 29379,12876 29341,12804 29304,12892 29272,12767 29228,12683 29190,12709 29151,12452 29115,12463 29079,12321 29043,12220 29008,12304 28972,12121 28939,12042 28903,12154 28869,12091 28837,11953 28801,12053 28763,12007 28729,11934 28693,12031 28660,12016 28626,11920 28590,12015 28552,12060 28514,11985 28478,12052 28438,12141 28404,12054 28371,12157 28332,12283 28297,12197 28266,12201 28227,12277 28190,12171 28153,12066 28119,12147 28083,12175 28047,12120 28012,12155 27976,12148 27942,12062 27909,12085 27870,12116 27835,12034 27798,12100 27761,12107 27731,11942 27659,12050 27624,11937 27589,11977 27550,12022 27517,11910 27484,11959 27446,12058 27412,11919 27381,11878 27340,12005 27308,11786 27269,11816 27236,11830 27202,11802 27164,11795 27127,11796 27092,11808 27056,11811 27021,11920 26987,11885 26952,11872 26911,11998 26877,11927 26841,11868 26807,11932 26771,11949 26735,11958 26703,11898 26663,12021 26629,11940 26597,11909 26558,11971 26521,11954 26485,11871 26446,11884 26413,11841 26381,11727 26344,11797 26312,11731 26278,11615 26239,11645 26205,11688 26175,11600 26136,11592 26100,11618 26070,11504 26030,11520 25994,11635 25961,11560 25924,11588 25890,11639 25856,11560 25817,11520 25781,11694 25746,11656 25711,11620 25673,11731 25638,11772 25605,11664 25570,11741 25527,11799 25494,11624 25458,11660 25424,11749 25391,11630 25349,11678 25313,11728 25280,11649 25242,11656 25208,11726 25176,11626 25137,11596 25100,11718 25071,11579 25034,11511 25000,11586 24964,11508 24932,11397 24895,11512 24859,11543 24823,11442 24787,11531 24756,11539 24718,11420 24688,11369 24648,11497 24614,11345 24576,11382 24545,11390 24510,11384 24400,11414 24360,11538 24331,11412 24299,11434 24253,11561 24222,11537 24189,11486 24147,11498 24115,11566 24079,11590 24042,11519 24007,11667 23971,11622 23934,11566 23901,11622 23862,11674 23830,11629 23796,11490 23758,11598 23724,11431 23689,11314 23655,11337 23624,11279 23587,11241 23553,11288 23514,11289 23479,11256 23446,11289 23416,11208 23375,11246 23343,11220 23305,11214 23273,11223 23237,11255 23202,11241 23166,11209 23129,11270 23096,11296 23057,11186 23019,11316 22987,11332 22951,11292 22917,11297 22884,11342 22845,11294 22809,11243 22774,11289 22740,11254 22705,11208 22670,11205 22635,11174 22597,11155 22566,11136 22532,11176 22493,11152 22464,11146 22425,11155 22390,11098 22357,11085 22320,11089 22282,11080 22249,11094 22216,11096 22178,11078 22141,11064 22109,11059 22067,11061 22037,11052 22000,11032 21969,11090 21926,11068 21894,11099 21861,11056 21824,11012 21793,11040 21754,11087 21717,11040 21680,11040 21651,11087 21614,11090 21579,11053 21543,11050 21508,11018 21471,11000 21439,11073 21401,11078 21363,11003 21328,11065 21295,11057 21260,11015 21224,11096 21186,11165 21153,11080 21120,11026 21085,10989 21046,10981 21012,10944 20977,10960 20944,10969 20913,10967 20879,10939 20847,10920 20805,10927 20775,10914 20743,10936 20703,10933 20668,10935 20631,10919 20596,10929 20557,10922 20520,10951 20484,10923 20452,10896 20416,10910 20381,10908 20349,10866 20315,10897 20279,10902 20246,10879 20212,10888 20178,10880 20139,10841 20109,10834 20070,10869 20038,10858 20004,10834 19967,10837 19931,10841 19894,10824 19861,10831 19827,10834 19791,10857 19750,10810 19713,10799 19682,10808 19644,10769 19605,10772 19574,10784 19543,10776 19505,10800 19472,10774 19441,10801 19399,10806 19362,10769 19334,10792 19299,10724 19259,10742 19232,10737 19189,10727 19152,10714 19129,10754 19090,10747 19049,10756 19017,10726 18979,10676 18943,10705 18924,10728 18873,10708 18834,10755 18796,10737 18762,10782 18726,10760 18691,10729 18652,10810 18619,10733 18547,10856 18514,10780 18482,10724 18451,10684 18427,10671 18388,10639 18352,10641 18309,10602 18274,10535 18249,10570 18212,10564 18171,10531 18135,10571 18107,10532 18068,10550 18038,10572 18001,10542 17959,10492 17929,10427 17898,10469 17862,10433 17827,10416 17798,10435 17762,10448 17722,10428 17693,10434 17654,10445 17613,10327 17580,10373 17547,10334 17513,10358 17476,10335 17444,10345 17401,10376 17365,10352 17340,10310 17303,10245 17264,10278 17228,10244 17191,10251 17155,10244 17129,10216 17092,10223 17051,10258 17017,10231 16981,10202 16944,10146 16914,10163 16876,10162 16837,10122 16811,10156 16776,10163 16736,10154 16695,10173 16663,10157 16628,10109 16598,10110 16559,10091 16520,10085 16489,10072 16456,10037 16419,10048 16393,10038 16313,10055 16278,9995 16248,10023 16212,10009 16174,9977 16143,9990 16107,9977 16071,9974 16038,9968 16001,9959 15961,9915 15931,9904 15894,9899 15856,9910 15817,9866 15779,9911 15748,9911 15717,9915 15678,9891 15642,9881 15605,9846 15540,9824 15506,9814 15469,9843 15432,9840 15397,9795 15365,9812 15329,9740 15291,9759 15257,9773 15225,9768 15190,9721 15152,9713 15118,9724 15084,9707 15047,9739 15018,9760 14985,9756 14939,9655 14905,9685 14873,9648 14841,9605 14807,9600 14768,9584 14732,9611 14696,9610 14660,9606 14619,9523 14585,9508 14545,9555 14505,9573 14476,9463 14441,9517 14405,9519 14367,9446 14335,9520 14297,9459 14260,9400 14230,9396 14193,9398 14157,9378 14125,9397 14091,9411 14051,9401 14015,9411 13982,9354 13943,9283 13913,9305 13879,9286 13834,9305 13808,9281 13769,9294 13733,9264 13706,9299 13666,9344 13597,9207 13561,9226 13526,9183 13492,9159 13453,9178 13420,9172 13384,9163 13351,9202 13313,9180 13274,9149 13243,9132 13209,9111 13172,9117 13135,9105 13097,9103 13063,9084 13031,9085 12995,9093 12957,9043 12917,9049 12887,9017 12850,9009 12815,8998 12784,8960 12744,9004 12713,8985 12679,9009 12642,8987 12609,8923 12569,8949 12536,8961 12504,8908 12467,8914 12432,8922 12395,8917 12359,8934 12328,8885 12293,8823 12255,8808 12218,8808 12181,8763 12149,8792 12115,8796 12079,8791 12044,8828 12006,8792 11972,8742 11936,8727 11902,8692 11866,8692 11826,8690 11796,8675 11761,8704 11724,8640 11693,8683 11654,8671 11620,8574 11584,8563 11546,8569 11510,8505 11473,8541 11441,8612 11409,8476 11370,8564 11336,8533 11298,8430 11267,8359 11237,8361 11161,8303 11127,8369 11090,8398 11052,8363 11022,8317 10984,8308 10948,8282 10914,8302 10881,8296 10846,8304 10808,8283 10776,8238 10740,8269 10703,8274 10671,8294 10633,8197 10591,8143 10558,8107 10527,8116 10494,8104 10455,8121 10421,8112 10383,8121 10346,8059 10316,8069 10279,8052 10237,8008 10210,8011 10171,8039 10137,8044 10105,7997 10064,7996 10031,7966 9996,7981 9956,7991 9924,7926 9887,7858 9853,7906 9819,7876 9785,7859 9749,7905 9712,7884 9674,7902 9645,7901 9608,7861 9573,7857 9538,7798 9499,7786 9465,7829 9434,7783 9395,7752 9359,7744 9325,7750 9289,7769 9252,7804 9214,7770 9182,7733 9145,7728 9111,7673 9075,7699 9037,7658 9005,7651 8967,7636 8935,7616 8903,7552 8864,7511 8829,7558 8793,7517 8760,7529 8726,7484 8692,7501 8659,7497 8619,7459 8587,7442 8556,7406 8516,7380 8481,7389 8448,7367 8405,7355 8375,7368 8339,7487 8300,7458 8267,7467 8233,7444 8193,7399 8158,7375 8123,7392 8087,7387 8049,7320 8017,7385 7982,7432 7943,7426 7908,7383 7873,7349 7839,7255 7806,7230 7768,7271 7731,7238 7698,7170 7665,7217 7628,7223 7592,7184 7560,7200 7522,7088 7488,7052 7456,7075 7418,7104 7381,7054 7350,7056 7319,7092 7280,7041 7245,7009 7202,6981 7173,6955 7137,6963 7104,6914 7069,6881 7030,6892 6997,6995 6959,6911 6930,6820 6893,6977 6851,6962 6819,6905 6780,7019 6744,6926 6711,6861 6677,6928 6639,6926 6603,6881 6570,6905 6536,6947 6500,6949 6460,6937 6426,6863 6394,6844 6359,6796 6323,6817 6286,6750 6255,6651 6221,6681 6185,6674 6150,6632 6111,6688 6079,6677 6047,6575 6013,6632 5980,6610 5938,6376 5904,6505 5871,6513 5833,6422 5801,6523 5763,6488 5727,6450 5691,6500 5655,6538 5617,6433 5584,6446 5548,6341 5512,6350 5480,6402 5440,6461 5407,6370 5372,6427 5336,6405 5300,6333 5265,6376 5228,6394 5188,6269 5161,6279 5126,6360 5085,6294 5053,6251 5014,6208 4977,6197 4946,6130 4911,6136 4875,6124 4839,6049 4804,6095 4770,6128 4737,6060 4706,6057 4665,6117 4628,6007 4599,5909 4562,5987 4528,5982 4491,5956 4458,5959 4425,5929 4394,5861 4362,5874 4316,5898 4285,5777 4246,5805 4211,5920 4171,5862 4136,5854 4100,5897 4066,5861 4034,5905 3996,5987 3961,5860 3921,5818 3889,5866 3856,5832 3818,5836 3784,5797 3749,5764 3712,5740 3681,5759 3641,5698 3605,5661 3573,5592 3544,5572 3513,5453 3476,5448 3449,5488 3404,5479 3376,5548 3337,5546 3296,5558 3256,5475 3220,5482 3188,5327 3155,5343 3120,5474 3086,5531 3045,5391 3013,5399 2980,5341"/>
 <text class="TextShape"><tspan class="TextParagraph" font-family="Liberation Sans, sans-serif" font-size="353px" font-weight="400"><tspan class="TextPosition" x="721" y="11060"><tspan fill="rgb(0,0,0)" stroke="none">-2</tspan></tspan></tspan></text>
 <text class="TextShape"><tspan class="TextParagraph" font-family="Liberation Sans, sans-serif" font-size="353px" font-weight="400"><tspan class="TextPosition" x="4849" y="11060"><tspan fill="rgb(0,0,0)" stroke="none">-1.5</tspan></tspan></tspan></text>
 <text class="TextShape"><tspan class="TextParagraph" font-family="Liberation Sans, sans-serif" font-size="353px" font-weight="400"><tspan class="TextPosition" x="9267" y="11060"><tspan fill="rgb(0,0,0)" stroke="none">-1</tspan></tspan></tspan></text>
 <text class="TextShape"><tspan class="TextParagraph" font-family="Liberation Sans, sans-serif" font-size="353px" font-weight="400"><tspan class="TextPosition" x="13395" y="11060"><tspan fill="rgb(0,0,0)" stroke="none">-0.5</tspan></tspan></tspan></text>
 <text class="TextShape"><tspan class="TextParagraph" font-family="Liberation Sans, sans-serif" font-size="353px" font-weight="400"><tspan class="TextPosition" x="17867" y="11060"><tspan fill="rgb(0,0,0)" stroke="none">0</tspan></tspan></tspan></text>
 <text class="TextShape"><tspan class="TextParagraph" font-family="Liberation Sans, sans-serif" font-size="353px" font-weight="400"><tspan class="TextPosition" x="21995" y="11060"><tspan fill="rgb(0,0,0)" stroke="none">0.5</tspan></tspan></tspan></text>
 <text class="TextShape"><tspan class="TextParagraph" font-family="Liberation Sans, sans-serif" font-size="353px" font-weight="400"><tspan class="TextPosition" x="26413" y="11060"><tspan fill="rgb(0,0,0)" stroke="none">1</tspan></tspan></tspan></text>
 <text class="TextShape"><tspan class="TextParagraph" font-family="Liberation Sans, sans-serif" font-size="353px" font-weight="400"><tspan class="TextPosition" x="30541" y="11060"><tspan fill="rgb(0,0,0)" stroke="none">1.5</tspan></tspan></tspan></text>
 <text class="TextShape"><tspan class="TextParagraph" font-family="Liberation Sans, sans-serif" font-size="353px" font-weight="400"><tspan class="TextPosition" x="34960" y="11060"><tspan fill="rgb(0,0,0)" stroke="none">2</tspan></tspan></tspan></text>
 <text class="TextShape"><tspan class="TextParagraph" font-family="Liberation Sans, sans-serif" font-size="353px" font-weight="400"><tspan class="TextPosition" x="16943" y="15601"><tspan fill="rgb(0,0,0)" stroke="none">-0.02</tspan></tspan></tspan></text>
 <text class="TextShape"><tspan class="TextParagraph" font-family="Liberation Sans, sans-serif" font-size="353px" font-weight="400"><tspan class="TextPosition" x="16943" y="13107"><tspan fill="rgb(0,0,0)" stroke="none">-0.01</tspan></tspan></tspan></text>
 <text class="TextShape"><tspan class="TextParagraph" font-family="Liberation Sans, sans-serif" font-size="353px" font-weight="400"><tspan class="TextPosition" x="17525" y="10613"><tspan fill="rgb(0,0,0)" stroke="none">0</tspan></tspan></tspan></text>
 <text class="TextShape"><tspan class="TextParagraph" font-family="Liberation Sans, sans-serif" font-size="353px" font-weight="400"><tspan class="TextPosition" x="17049" y="8119"><tspan fill="rgb(0,0,0)" stroke="none">0.01</tspan></tspan></tspan></text>
 <text class="TextShape"><tspan class="TextParagraph" font-family="Liberation Sans, sans-serif" font-size="353px" font-weight="400"><tspan class="TextPosition" x="17049" y="5625"><tspan fill="rgb(0,0,0)" stroke="none">0.02</tspan></tspan></tspan></text>
 <text class="TextShape"><tspan class="TextParagraph" font-family="Liberation Sans, sans-serif" font-size="353px" font-weight="400"><tspan class="TextPosition" x="17049" y="3131"><tspan fill="rgb(0,0,0)" stroke="none">0.03</tspan></tspan></tspan></text>
 <text class="TextShape"><tspan class="TextParagraph" font-family="Liberation Sans, sans-serif" font-size="353px" font-weight="400"><tspan class="TextPosition" x="17049" y="637"><tspan fill="rgb(0,0,0)" stroke="none">0.04</tspan></tspan></tspan></text>
</svg>