<?xml version="1.0" encoding="UTF-8" standalone="no"?>
<!DOCTYPE svg PUBLIC "-//W3C//DTD SVG 1.0//EN" "http://www.w3.org/TR/2001/PR-SVG-20010719/DTD/svg10.dtd">
<svg width="77cm" height="57cm" viewBox="173 28 1523 1138" xmlns="http://www.w3.org/2000/svg" xmlns:xlink="http://www.w3.org/1999/xlink">
  <g>
    <rect style="fill: #fffcbb" x="180" y="540" width="1500" height="200"/>
    <rect style="fill: none; fill-opacity:0; stroke-width: 2.35099e-37; stroke: #ffffff" x="180" y="540" width="1500" height="200"/>
  </g>
  <g>
    <rect style="fill: #fffcbb" x="908" y="120" width="55.9999" height="1040"/>
    <rect style="fill: none; fill-opacity:0; stroke-width: 2.35099e-37; stroke: #ffffff" x="908" y="120" width="55.9999" height="1040"/>
  </g>
  <rect style="fill: none; fill-opacity:0; stroke-width: 12; stroke: #ff0000" x="190" y="116" width="780" height="620"/>
  <rect style="fill: none; fill-opacity:0; stroke-width: 12; stroke: #b67600" x="910" y="536" width="780" height="620"/>
  <rect style="fill: none; fill-opacity:0; stroke-width: 12; stroke: #0000ff" x="180" y="540" width="780" height="620"/>
  <rect style="fill: none; fill-opacity:0; stroke-width: 12; stroke: #008000" x="900" y="120" width="780" height="620"/>
  <g>
    <ellipse style="fill: #afafaf" cx="210" cy="150" rx="10" ry="10"/>
    <ellipse style="fill: none; fill-opacity:0; stroke-width: 2; stroke: #000000" cx="210" cy="150" rx="10" ry="10"/>
  </g>
  <g>
    <ellipse style="fill: #afafaf" cx="330" cy="150" rx="10" ry="10"/>
    <ellipse style="fill: none; fill-opacity:0; stroke-width: 2; stroke: #000000" cx="330" cy="150" rx="10" ry="10"/>
  </g>
  <g>
    <ellipse style="fill: #afafaf" cx="450" cy="150" rx="10" ry="10"/>
    <ellipse style="fill: none; fill-opacity:0; stroke-width: 2; stroke: #000000" cx="450" cy="150" rx="10" ry="10"/>
  </g>
  <g>
    <ellipse style="fill: #afafaf" cx="570" cy="150" rx="10" ry="10"/>
    <ellipse style="fill: none; fill-opacity:0; stroke-width: 2; stroke: #000000" cx="570" cy="150" rx="10" ry="10"/>
  </g>
  <g>
    <ellipse style="fill: #afafaf" cx="690" cy="150" rx="10" ry="10"/>
    <ellipse style="fill: none; fill-opacity:0; stroke-width: 2; stroke: #000000" cx="690" cy="150" rx="10" ry="10"/>
  </g>
  <g>
    <ellipse style="fill: #afafaf" cx="810" cy="150" rx="10" ry="10"/>
    <ellipse style="fill: none; fill-opacity:0; stroke-width: 2; stroke: #000000" cx="810" cy="150" rx="10" ry="10"/>
  </g>
  <g>
    <ellipse style="fill: #afafaf" cx="930" cy="150" rx="10" ry="10"/>
    <ellipse style="fill: none; fill-opacity:0; stroke-width: 2; stroke: #000000" cx="930" cy="150" rx="10" ry="10"/>
  </g>
  <g>
    <ellipse style="fill: #afafaf" cx="210" cy="290" rx="10" ry="10"/>
    <ellipse style="fill: none; fill-opacity:0; stroke-width: 2; stroke: #000000" cx="210" cy="290" rx="10" ry="10"/>
  </g>
  <g>
    <ellipse style="fill: #afafaf" cx="450" cy="290" rx="10" ry="10"/>
    <ellipse style="fill: none; fill-opacity:0; stroke-width: 2; stroke: #000000" cx="450" cy="290" rx="10" ry="10"/>
  </g>
  <g>
    <ellipse style="fill: #afafaf" cx="570" cy="290" rx="10" ry="10"/>
    <ellipse style="fill: none; fill-opacity:0; stroke-width: 2; stroke: #000000" cx="570" cy="290" rx="10" ry="10"/>
  </g>
  <g>
    <ellipse style="fill: #afafaf" cx="690" cy="290" rx="10" ry="10"/>
    <ellipse style="fill: none; fill-opacity:0; stroke-width: 2; stroke: #000000" cx="690" cy="290" rx="10" ry="10"/>
  </g>
  <g>
    <ellipse style="fill: #afafaf" cx="810" cy="290" rx="10" ry="10"/>
    <ellipse style="fill: none; fill-opacity:0; stroke-width: 2; stroke: #000000" cx="810" cy="290" rx="10" ry="10"/>
  </g>
  <g>
    <ellipse style="fill: #afafaf" cx="930" cy="290" rx="10" ry="10"/>
    <ellipse style="fill: none; fill-opacity:0; stroke-width: 2; stroke: #000000" cx="930" cy="290" rx="10" ry="10"/>
  </g>
  <g>
    <ellipse style="fill: #afafaf" cx="210" cy="430" rx="10" ry="10"/>
    <ellipse style="fill: none; fill-opacity:0; stroke-width: 2; stroke: #000000" cx="210" cy="430" rx="10" ry="10"/>
  </g>
  <g>
    <ellipse style="fill: #afafaf" cx="330" cy="430" rx="10" ry="10"/>
    <ellipse style="fill: none; fill-opacity:0; stroke-width: 2; stroke: #000000" cx="330" cy="430" rx="10" ry="10"/>
  </g>
  <g>
    <ellipse style="fill: #afafaf" cx="450" cy="430" rx="10" ry="10"/>
    <ellipse style="fill: none; fill-opacity:0; stroke-width: 2; stroke: #000000" cx="450" cy="430" rx="10" ry="10"/>
  </g>
  <g>
    <ellipse style="fill: #ff0000" cx="570" cy="430" rx="10" ry="10"/>
    <ellipse style="fill: none; fill-opacity:0; stroke-width: 2.35099e-37; stroke: #000000" cx="570" cy="430" rx="10" ry="10"/>
  </g>
  <g>
    <ellipse style="fill: #afafaf" cx="810" cy="430" rx="10" ry="10"/>
    <ellipse style="fill: none; fill-opacity:0; stroke-width: 2; stroke: #000000" cx="810" cy="430" rx="10" ry="10"/>
  </g>
  <g>
    <ellipse style="fill: #afafaf" cx="930" cy="430" rx="10" ry="10"/>
    <ellipse style="fill: none; fill-opacity:0; stroke-width: 2; stroke: #000000" cx="930" cy="430" rx="10" ry="10"/>
  </g>
  <g>
    <ellipse style="fill: #afafaf" cx="210" cy="570" rx="10" ry="10"/>
    <ellipse style="fill: none; fill-opacity:0; stroke-width: 2; stroke: #000000" cx="210" cy="570" rx="10" ry="10"/>
  </g>
  <g>
    <ellipse style="fill: #afafaf" cx="330" cy="570" rx="10" ry="10"/>
    <ellipse style="fill: none; fill-opacity:0; stroke-width: 2; stroke: #000000" cx="330" cy="570" rx="10" ry="10"/>
  </g>
  <g>
    <ellipse style="fill: #afafaf" cx="450" cy="570" rx="10" ry="10"/>
    <ellipse style="fill: none; fill-opacity:0; stroke-width: 2; stroke: #000000" cx="450" cy="570" rx="10" ry="10"/>
  </g>
  <g>
    <ellipse style="fill: #afafaf" cx="570" cy="570" rx="10" ry="10"/>
    <ellipse style="fill: none; fill-opacity:0; stroke-width: 2; stroke: #000000" cx="570" cy="570" rx="10" ry="10"/>
  </g>
  <g>
    <ellipse style="fill: #afafaf" cx="690" cy="570" rx="10" ry="10"/>
    <ellipse style="fill: none; fill-opacity:0; stroke-width: 2; stroke: #000000" cx="690" cy="570" rx="10" ry="10"/>
  </g>
  <g>
    <ellipse style="fill: #afafaf" cx="810" cy="570" rx="10" ry="10"/>
    <ellipse style="fill: none; fill-opacity:0; stroke-width: 2; stroke: #000000" cx="810" cy="570" rx="10" ry="10"/>
  </g>
  <g>
    <ellipse style="fill: #afafaf" cx="930" cy="570" rx="10" ry="10"/>
    <ellipse style="fill: none; fill-opacity:0; stroke-width: 2; stroke: #000000" cx="930" cy="570" rx="10" ry="10"/>
  </g>
  <g>
    <ellipse style="fill: #afafaf" cx="210" cy="710" rx="10" ry="10"/>
    <ellipse style="fill: none; fill-opacity:0; stroke-width: 2; stroke: #000000" cx="210" cy="710" rx="10" ry="10"/>
  </g>
  <g>
    <ellipse style="fill: #afafaf" cx="450" cy="710" rx="10" ry="10"/>
    <ellipse style="fill: none; fill-opacity:0; stroke-width: 2; stroke: #000000" cx="450" cy="710" rx="10" ry="10"/>
  </g>
  <g>
    <ellipse style="fill: #afafaf" cx="570" cy="710" rx="10" ry="10"/>
    <ellipse style="fill: none; fill-opacity:0; stroke-width: 2; stroke: #000000" cx="570" cy="710" rx="10" ry="10"/>
  </g>
  <g>
    <ellipse style="fill: #afafaf" cx="690" cy="710" rx="10" ry="10"/>
    <ellipse style="fill: none; fill-opacity:0; stroke-width: 2; stroke: #000000" cx="690" cy="710" rx="10" ry="10"/>
  </g>
  <g>
    <ellipse style="fill: #afafaf" cx="810" cy="710" rx="10" ry="10"/>
    <ellipse style="fill: none; fill-opacity:0; stroke-width: 2; stroke: #000000" cx="810" cy="710" rx="10" ry="10"/>
  </g>
  <g>
    <ellipse style="fill: #afafaf" cx="930" cy="710" rx="10" ry="10"/>
    <ellipse style="fill: none; fill-opacity:0; stroke-width: 2; stroke: #000000" cx="930" cy="710" rx="10" ry="10"/>
  </g>
  <g>
    <ellipse style="fill: #afafaf" cx="1050" cy="150" rx="10" ry="10"/>
    <ellipse style="fill: none; fill-opacity:0; stroke-width: 2; stroke: #000000" cx="1050" cy="150" rx="10" ry="10"/>
  </g>
  <g>
    <ellipse style="fill: #afafaf" cx="1170" cy="150" rx="10" ry="10"/>
    <ellipse style="fill: none; fill-opacity:0; stroke-width: 2; stroke: #000000" cx="1170" cy="150" rx="10" ry="10"/>
  </g>
  <g>
    <ellipse style="fill: #afafaf" cx="1290" cy="150" rx="10" ry="10"/>
    <ellipse style="fill: none; fill-opacity:0; stroke-width: 2; stroke: #000000" cx="1290" cy="150" rx="10" ry="10"/>
  </g>
  <g>
    <ellipse style="fill: #afafaf" cx="1410" cy="150" rx="10" ry="10"/>
    <ellipse style="fill: none; fill-opacity:0; stroke-width: 2; stroke: #000000" cx="1410" cy="150" rx="10" ry="10"/>
  </g>
  <g>
    <ellipse style="fill: #afafaf" cx="1530" cy="150" rx="10" ry="10"/>
    <ellipse style="fill: none; fill-opacity:0; stroke-width: 2; stroke: #000000" cx="1530" cy="150" rx="10" ry="10"/>
  </g>
  <g>
    <ellipse style="fill: #afafaf" cx="1650" cy="150" rx="10" ry="10"/>
    <ellipse style="fill: none; fill-opacity:0; stroke-width: 2; stroke: #000000" cx="1650" cy="150" rx="10" ry="10"/>
  </g>
  <g>
    <ellipse style="fill: #afafaf" cx="1170" cy="290" rx="10" ry="10"/>
    <ellipse style="fill: none; fill-opacity:0; stroke-width: 2; stroke: #000000" cx="1170" cy="290" rx="10" ry="10"/>
  </g>
  <g>
    <ellipse style="fill: #afafaf" cx="1290" cy="290" rx="10" ry="10"/>
    <ellipse style="fill: none; fill-opacity:0; stroke-width: 2; stroke: #000000" cx="1290" cy="290" rx="10" ry="10"/>
  </g>
  <g>
    <ellipse style="fill: #afafaf" cx="1410" cy="290" rx="10" ry="10"/>
    <ellipse style="fill: none; fill-opacity:0; stroke-width: 2; stroke: #000000" cx="1410" cy="290" rx="10" ry="10"/>
  </g>
  <g>
    <ellipse style="fill: #afafaf" cx="1530" cy="290" rx="10" ry="10"/>
    <ellipse style="fill: none; fill-opacity:0; stroke-width: 2; stroke: #000000" cx="1530" cy="290" rx="10" ry="10"/>
  </g>
  <g>
    <ellipse style="fill: #afafaf" cx="1650" cy="290" rx="10" ry="10"/>
    <ellipse style="fill: none; fill-opacity:0; stroke-width: 2; stroke: #000000" cx="1650" cy="290" rx="10" ry="10"/>
  </g>
  <g>
    <ellipse style="fill: #afafaf" cx="1050" cy="430" rx="10" ry="10"/>
    <ellipse style="fill: none; fill-opacity:0; stroke-width: 2; stroke: #000000" cx="1050" cy="430" rx="10" ry="10"/>
  </g>
  <g>
    <ellipse style="fill: #afafaf" cx="1170" cy="430" rx="10" ry="10"/>
    <ellipse style="fill: none; fill-opacity:0; stroke-width: 2; stroke: #000000" cx="1170" cy="430" rx="10" ry="10"/>
  </g>
  <g>
    <ellipse style="fill: #008000" cx="1290" cy="430" rx="10" ry="10"/>
    <ellipse style="fill: none; fill-opacity:0; stroke-width: 2.35099e-37; stroke: #000000" cx="1290" cy="430" rx="10" ry="10"/>
  </g>
  <g>
    <ellipse style="fill: #afafaf" cx="1530" cy="430" rx="10" ry="10"/>
    <ellipse style="fill: none; fill-opacity:0; stroke-width: 2; stroke: #000000" cx="1530" cy="430" rx="10" ry="10"/>
  </g>
  <g>
    <ellipse style="fill: #afafaf" cx="1650" cy="430" rx="10" ry="10"/>
    <ellipse style="fill: none; fill-opacity:0; stroke-width: 2; stroke: #000000" cx="1650" cy="430" rx="10" ry="10"/>
  </g>
  <g>
    <ellipse style="fill: #afafaf" cx="1050" cy="570" rx="10" ry="10"/>
    <ellipse style="fill: none; fill-opacity:0; stroke-width: 2; stroke: #000000" cx="1050" cy="570" rx="10" ry="10"/>
  </g>
  <g>
    <ellipse style="fill: #afafaf" cx="1170" cy="570" rx="10" ry="10"/>
    <ellipse style="fill: none; fill-opacity:0; stroke-width: 2; stroke: #000000" cx="1170" cy="570" rx="10" ry="10"/>
  </g>
  <g>
    <ellipse style="fill: #afafaf" cx="1290" cy="570" rx="10" ry="10"/>
    <ellipse style="fill: none; fill-opacity:0; stroke-width: 2; stroke: #000000" cx="1290" cy="570" rx="10" ry="10"/>
  </g>
  <g>
    <ellipse style="fill: #afafaf" cx="1410" cy="570" rx="10" ry="10"/>
    <ellipse style="fill: none; fill-opacity:0; stroke-width: 2; stroke: #000000" cx="1410" cy="570" rx="10" ry="10"/>
  </g>
  <g>
    <ellipse style="fill: #afafaf" cx="1530" cy="570" rx="10" ry="10"/>
    <ellipse style="fill: none; fill-opacity:0; stroke-width: 2; stroke: #000000" cx="1530" cy="570" rx="10" ry="10"/>
  </g>
  <g>
    <ellipse style="fill: #afafaf" cx="1650" cy="570" rx="10" ry="10"/>
    <ellipse style="fill: none; fill-opacity:0; stroke-width: 2; stroke: #000000" cx="1650" cy="570" rx="10" ry="10"/>
  </g>
  <g>
    <ellipse style="fill: #afafaf" cx="1170" cy="710" rx="10" ry="10"/>
    <ellipse style="fill: none; fill-opacity:0; stroke-width: 2; stroke: #000000" cx="1170" cy="710" rx="10" ry="10"/>
  </g>
  <g>
    <ellipse style="fill: #afafaf" cx="1290" cy="710" rx="10" ry="10"/>
    <ellipse style="fill: none; fill-opacity:0; stroke-width: 2; stroke: #000000" cx="1290" cy="710" rx="10" ry="10"/>
  </g>
  <g>
    <ellipse style="fill: #afafaf" cx="1410" cy="710" rx="10" ry="10"/>
    <ellipse style="fill: none; fill-opacity:0; stroke-width: 2; stroke: #000000" cx="1410" cy="710" rx="10" ry="10"/>
  </g>
  <g>
    <ellipse style="fill: #afafaf" cx="1530" cy="710" rx="10" ry="10"/>
    <ellipse style="fill: none; fill-opacity:0; stroke-width: 2; stroke: #000000" cx="1530" cy="710" rx="10" ry="10"/>
  </g>
  <g>
    <ellipse style="fill: #afafaf" cx="1650" cy="710" rx="10" ry="10"/>
    <ellipse style="fill: none; fill-opacity:0; stroke-width: 2; stroke: #000000" cx="1650" cy="710" rx="10" ry="10"/>
  </g>
  <g>
    <ellipse style="fill: #afafaf" cx="210" cy="850" rx="10" ry="10"/>
    <ellipse style="fill: none; fill-opacity:0; stroke-width: 2; stroke: #000000" cx="210" cy="850" rx="10" ry="10"/>
  </g>
  <g>
    <ellipse style="fill: #afafaf" cx="330" cy="850" rx="10" ry="10"/>
    <ellipse style="fill: none; fill-opacity:0; stroke-width: 2; stroke: #000000" cx="330" cy="850" rx="10" ry="10"/>
  </g>
  <g>
    <ellipse style="fill: #afafaf" cx="450" cy="850" rx="10" ry="10"/>
    <ellipse style="fill: none; fill-opacity:0; stroke-width: 2; stroke: #000000" cx="450" cy="850" rx="10" ry="10"/>
  </g>
  <g>
    <ellipse style="fill: #0000ff" cx="570" cy="850" rx="10" ry="10"/>
    <ellipse style="fill: none; fill-opacity:0; stroke-width: 2.35099e-37; stroke: #000000" cx="570" cy="850" rx="10" ry="10"/>
  </g>
  <g>
    <ellipse style="fill: #afafaf" cx="810" cy="850" rx="10" ry="10"/>
    <ellipse style="fill: none; fill-opacity:0; stroke-width: 2; stroke: #000000" cx="810" cy="850" rx="10" ry="10"/>
  </g>
  <g>
    <ellipse style="fill: #afafaf" cx="930" cy="850" rx="10" ry="10"/>
    <ellipse style="fill: none; fill-opacity:0; stroke-width: 2; stroke: #000000" cx="930" cy="850" rx="10" ry="10"/>
  </g>
  <g>
    <ellipse style="fill: #afafaf" cx="210" cy="990" rx="10" ry="10"/>
    <ellipse style="fill: none; fill-opacity:0; stroke-width: 2; stroke: #000000" cx="210" cy="990" rx="10" ry="10"/>
  </g>
  <g>
    <ellipse style="fill: #afafaf" cx="330" cy="990" rx="10" ry="10"/>
    <ellipse style="fill: none; fill-opacity:0; stroke-width: 2; stroke: #000000" cx="330" cy="990" rx="10" ry="10"/>
  </g>
  <g>
    <ellipse style="fill: #afafaf" cx="450" cy="990" rx="10" ry="10"/>
    <ellipse style="fill: none; fill-opacity:0; stroke-width: 2; stroke: #000000" cx="450" cy="990" rx="10" ry="10"/>
  </g>
  <g>
    <ellipse style="fill: #afafaf" cx="570" cy="990" rx="10" ry="10"/>
    <ellipse style="fill: none; fill-opacity:0; stroke-width: 2; stroke: #000000" cx="570" cy="990" rx="10" ry="10"/>
  </g>
  <g>
    <ellipse style="fill: #afafaf" cx="690" cy="990" rx="10" ry="10"/>
    <ellipse style="fill: none; fill-opacity:0; stroke-width: 2; stroke: #000000" cx="690" cy="990" rx="10" ry="10"/>
  </g>
  <g>
    <ellipse style="fill: #afafaf" cx="810" cy="990" rx="10" ry="10"/>
    <ellipse style="fill: none; fill-opacity:0; stroke-width: 2; stroke: #000000" cx="810" cy="990" rx="10" ry="10"/>
  </g>
  <g>
    <ellipse style="fill: #afafaf" cx="930" cy="990" rx="10" ry="10"/>
    <ellipse style="fill: none; fill-opacity:0; stroke-width: 2; stroke: #000000" cx="930" cy="990" rx="10" ry="10"/>
  </g>
  <g>
    <ellipse style="fill: #afafaf" cx="210" cy="1130" rx="10" ry="10"/>
    <ellipse style="fill: none; fill-opacity:0; stroke-width: 2; stroke: #000000" cx="210" cy="1130" rx="10" ry="10"/>
  </g>
  <g>
    <ellipse style="fill: #afafaf" cx="330" cy="1130" rx="10" ry="10"/>
    <ellipse style="fill: none; fill-opacity:0; stroke-width: 2; stroke: #000000" cx="330" cy="1130" rx="10" ry="10"/>
  </g>
  <g>
    <ellipse style="fill: #afafaf" cx="450" cy="1130" rx="10" ry="10"/>
    <ellipse style="fill: none; fill-opacity:0; stroke-width: 2; stroke: #000000" cx="450" cy="1130" rx="10" ry="10"/>
  </g>
  <g>
    <ellipse style="fill: #afafaf" cx="570" cy="1130" rx="10" ry="10"/>
    <ellipse style="fill: none; fill-opacity:0; stroke-width: 2; stroke: #000000" cx="570" cy="1130" rx="10" ry="10"/>
  </g>
  <g>
    <ellipse style="fill: #afafaf" cx="690" cy="1130" rx="10" ry="10"/>
    <ellipse style="fill: none; fill-opacity:0; stroke-width: 2; stroke: #000000" cx="690" cy="1130" rx="10" ry="10"/>
  </g>
  <g>
    <ellipse style="fill: #afafaf" cx="810" cy="1130" rx="10" ry="10"/>
    <ellipse style="fill: none; fill-opacity:0; stroke-width: 2; stroke: #000000" cx="810" cy="1130" rx="10" ry="10"/>
  </g>
  <g>
    <ellipse style="fill: #afafaf" cx="930" cy="1130" rx="10" ry="10"/>
    <ellipse style="fill: none; fill-opacity:0; stroke-width: 2; stroke: #000000" cx="930" cy="1130" rx="10" ry="10"/>
  </g>
  <g>
    <ellipse style="fill: #afafaf" cx="1050" cy="850" rx="10" ry="10"/>
    <ellipse style="fill: none; fill-opacity:0; stroke-width: 2; stroke: #000000" cx="1050" cy="850" rx="10" ry="10"/>
  </g>
  <g>
    <ellipse style="fill: #afafaf" cx="1170" cy="850" rx="10" ry="10"/>
    <ellipse style="fill: none; fill-opacity:0; stroke-width: 2; stroke: #000000" cx="1170" cy="850" rx="10" ry="10"/>
  </g>
  <g>
    <ellipse style="fill: #b67600" cx="1290" cy="850" rx="10" ry="10"/>
    <ellipse style="fill: none; fill-opacity:0; stroke-width: 2.35099e-37; stroke: #000000" cx="1290" cy="850" rx="10" ry="10"/>
  </g>
  <g>
    <ellipse style="fill: #afafaf" cx="1530" cy="850" rx="10" ry="10"/>
    <ellipse style="fill: none; fill-opacity:0; stroke-width: 2; stroke: #000000" cx="1530" cy="850" rx="10" ry="10"/>
  </g>
  <g>
    <ellipse style="fill: #afafaf" cx="1650" cy="850" rx="10" ry="10"/>
    <ellipse style="fill: none; fill-opacity:0; stroke-width: 2; stroke: #000000" cx="1650" cy="850" rx="10" ry="10"/>
  </g>
  <g>
    <ellipse style="fill: #afafaf" cx="1050" cy="990" rx="10" ry="10"/>
    <ellipse style="fill: none; fill-opacity:0; stroke-width: 2; stroke: #000000" cx="1050" cy="990" rx="10" ry="10"/>
  </g>
  <g>
    <ellipse style="fill: #afafaf" cx="1170" cy="990" rx="10" ry="10"/>
    <ellipse style="fill: none; fill-opacity:0; stroke-width: 2; stroke: #000000" cx="1170" cy="990" rx="10" ry="10"/>
  </g>
  <g>
    <ellipse style="fill: #afafaf" cx="1290" cy="990" rx="10" ry="10"/>
    <ellipse style="fill: none; fill-opacity:0; stroke-width: 2; stroke: #000000" cx="1290" cy="990" rx="10" ry="10"/>
  </g>
  <g>
    <ellipse style="fill: #afafaf" cx="1410" cy="990" rx="10" ry="10"/>
    <ellipse style="fill: none; fill-opacity:0; stroke-width: 2; stroke: #000000" cx="1410" cy="990" rx="10" ry="10"/>
  </g>
  <g>
    <ellipse style="fill: #afafaf" cx="1530" cy="990" rx="10" ry="10"/>
    <ellipse style="fill: none; fill-opacity:0; stroke-width: 2; stroke: #000000" cx="1530" cy="990" rx="10" ry="10"/>
  </g>
  <g>
    <ellipse style="fill: #afafaf" cx="1650" cy="990" rx="10" ry="10"/>
    <ellipse style="fill: none; fill-opacity:0; stroke-width: 2; stroke: #000000" cx="1650" cy="990" rx="10" ry="10"/>
  </g>
  <g>
    <ellipse style="fill: #afafaf" cx="1050" cy="1130" rx="10" ry="10"/>
    <ellipse style="fill: none; fill-opacity:0; stroke-width: 2; stroke: #000000" cx="1050" cy="1130" rx="10" ry="10"/>
  </g>
  <g>
    <ellipse style="fill: #afafaf" cx="1170" cy="1130" rx="10" ry="10"/>
    <ellipse style="fill: none; fill-opacity:0; stroke-width: 2; stroke: #000000" cx="1170" cy="1130" rx="10" ry="10"/>
  </g>
  <g>
    <ellipse style="fill: #afafaf" cx="1290" cy="1130" rx="10" ry="10"/>
    <ellipse style="fill: none; fill-opacity:0; stroke-width: 2; stroke: #000000" cx="1290" cy="1130" rx="10" ry="10"/>
  </g>
  <g>
    <ellipse style="fill: #afafaf" cx="1410" cy="1130" rx="10" ry="10"/>
    <ellipse style="fill: none; fill-opacity:0; stroke-width: 2; stroke: #000000" cx="1410" cy="1130" rx="10" ry="10"/>
  </g>
  <g>
    <ellipse style="fill: #afafaf" cx="1530" cy="1130" rx="10" ry="10"/>
    <ellipse style="fill: none; fill-opacity:0; stroke-width: 2; stroke: #000000" cx="1530" cy="1130" rx="10" ry="10"/>
  </g>
  <g>
    <ellipse style="fill: #afafaf" cx="1650" cy="1130" rx="10" ry="10"/>
    <ellipse style="fill: none; fill-opacity:0; stroke-width: 2; stroke: #000000" cx="1650" cy="1130" rx="10" ry="10"/>
  </g>
  <g>
    <line style="fill: none; fill-opacity:0; stroke-width: 4; stroke: #000000" x1="604" y1="409.826" x2="1256" y2="409.826"/>
    <polygon style="fill: #000000" points="604,398.826 582,409.826 604,420.826 "/>
    <polygon style="fill: none; fill-opacity:0; stroke-width: 4; stroke: #000000" points="604,398.826 582,409.826 604,420.826 "/>
    <polygon style="fill: #000000" points="1256,420.826 1278,409.826 1256,398.826 "/>
    <polygon style="fill: none; fill-opacity:0; stroke-width: 4; stroke: #000000" points="1256,420.826 1278,409.826 1256,398.826 "/>
  </g>
  <g>
    <line style="fill: none; fill-opacity:0; stroke-width: 4; stroke: #000000" x1="204" y1="80" x2="556" y2="80"/>
    <polygon style="fill: #000000" points="204,69 182,80 204,91 "/>
    <polygon style="fill: none; fill-opacity:0; stroke-width: 4; stroke: #000000" points="204,69 182,80 204,91 "/>
    <polygon style="fill: #000000" points="556,91 578,80 556,69 "/>
    <polygon style="fill: none; fill-opacity:0; stroke-width: 4; stroke: #000000" points="556,91 578,80 556,69 "/>
  </g>
  <text font-size="33.8667" style="fill: #000000;text-anchor:start;font-family:serif;font-style:normal;font-weight:700" x="480" y="60">
    <tspan x="480" y="60">x outreach</tspan>
  </text>
  <text font-size="33.8667" style="fill: #000000;text-anchor:start;font-family:serif;font-style:normal;font-weight:700" x="1074.5" y="396.332">
    <tspan x="1074.5" y="396.332">x key</tspan>
  </text>
  <g>
    <line style="fill: none; fill-opacity:0; stroke-width: 4; stroke: #000000" x1="604" y1="80" x2="956" y2="80"/>
    <polygon style="fill: #000000" points="604,69 582,80 604,91 "/>
    <polygon style="fill: none; fill-opacity:0; stroke-width: 4; stroke: #000000" points="604,69 582,80 604,91 "/>
    <polygon style="fill: #000000" points="956,91 978,80 956,69 "/>
    <polygon style="fill: none; fill-opacity:0; stroke-width: 4; stroke: #000000" points="956,91 978,80 956,69 "/>
  </g>
</svg>
