<?xml version="1.0" encoding="UTF-8"?>
<!DOCTYPE svg PUBLIC "-//W3C//DTD SVG 1.1//EN" "http://www.w3.org/Graphics/SVG/1.1/DTD/svg11.dtd">
<svg width="260mm" height="104mm" viewBox="0 0 26000 10400" version="1.1" xmlns="http://www.w3.org/2000/svg" stroke-width="28.222" stroke-linejoin="round" xml:space="preserve">
 <path fill="rgb(255,255,255)" stroke="none" d="M 13013,10355 L 11,10355 11,0 26015,0 26015,10355 13013,10355 Z"/>
 <path fill="none" stroke="rgb(179,179,179)" stroke-linejoin="round" d="M 13480,9196 L 1506,9196 1506,240 25455,240 25455,9196 13480,9196 Z"/>
 <path fill="none" stroke="rgb(179,179,179)" stroke-linejoin="round" d="M 25455,9195 L 1506,9195"/>
 <path fill="none" stroke="rgb(179,179,179)" stroke-linejoin="round" d="M 25455,8299 L 1506,8299"/>
 <path fill="none" stroke="rgb(179,179,179)" stroke-linejoin="round" d="M 25455,7403 L 1506,7403"/>
 <path fill="none" stroke="rgb(179,179,179)" stroke-linejoin="round" d="M 25455,6507 L 1506,6507"/>
 <path fill="none" stroke="rgb(179,179,179)" stroke-linejoin="round" d="M 25455,5612 L 1506,5612"/>
 <path fill="none" stroke="rgb(179,179,179)" stroke-linejoin="round" d="M 25455,4717 L 1506,4717"/>
 <path fill="none" stroke="rgb(179,179,179)" stroke-linejoin="round" d="M 25455,3821 L 1506,3821"/>
 <path fill="none" stroke="rgb(179,179,179)" stroke-linejoin="round" d="M 25455,2926 L 1506,2926"/>
 <path fill="none" stroke="rgb(179,179,179)" stroke-linejoin="round" d="M 25455,2030 L 1506,2030"/>
 <path fill="none" stroke="rgb(179,179,179)" stroke-linejoin="round" d="M 25455,1134 L 1506,1134"/>
 <path fill="none" stroke="rgb(179,179,179)" stroke-linejoin="round" d="M 25455,239 L 1506,239"/>
 <path fill="none" stroke="rgb(179,179,179)" stroke-linejoin="round" d="M 1356,9195 L 1506,9195"/>
 <path fill="none" stroke="rgb(179,179,179)" stroke-linejoin="round" d="M 1356,9195 L 1506,9195"/>
 <path fill="none" stroke="rgb(179,179,179)" stroke-linejoin="round" d="M 1356,8299 L 1506,8299"/>
 <path fill="none" stroke="rgb(179,179,179)" stroke-linejoin="round" d="M 1356,8299 L 1506,8299"/>
 <path fill="none" stroke="rgb(179,179,179)" stroke-linejoin="round" d="M 1356,7403 L 1506,7403"/>
 <path fill="none" stroke="rgb(179,179,179)" stroke-linejoin="round" d="M 1356,7403 L 1506,7403"/>
 <path fill="none" stroke="rgb(179,179,179)" stroke-linejoin="round" d="M 1356,6507 L 1506,6507"/>
 <path fill="none" stroke="rgb(179,179,179)" stroke-linejoin="round" d="M 1356,6507 L 1506,6507"/>
 <path fill="none" stroke="rgb(179,179,179)" stroke-linejoin="round" d="M 1356,5612 L 1506,5612"/>
 <path fill="none" stroke="rgb(179,179,179)" stroke-linejoin="round" d="M 1356,5612 L 1506,5612"/>
 <path fill="none" stroke="rgb(179,179,179)" stroke-linejoin="round" d="M 1356,4717 L 1506,4717"/>
 <path fill="none" stroke="rgb(179,179,179)" stroke-linejoin="round" d="M 1356,4717 L 1506,4717"/>
 <path fill="none" stroke="rgb(179,179,179)" stroke-linejoin="round" d="M 1356,3821 L 1506,3821"/>
 <path fill="none" stroke="rgb(179,179,179)" stroke-linejoin="round" d="M 1356,3821 L 1506,3821"/>
 <path fill="none" stroke="rgb(179,179,179)" stroke-linejoin="round" d="M 1356,2926 L 1506,2926"/>
 <path fill="none" stroke="rgb(179,179,179)" stroke-linejoin="round" d="M 1356,2926 L 1506,2926"/>
 <path fill="none" stroke="rgb(179,179,179)" stroke-linejoin="round" d="M 1356,2030 L 1506,2030"/>
 <path fill="none" stroke="rgb(179,179,179)" stroke-linejoin="round" d="M 1356,2030 L 1506,2030"/>
 <path fill="none" stroke="rgb(179,179,179)" stroke-linejoin="round" d="M 1356,1134 L 1506,1134"/>
 <path fill="none" stroke="rgb(179,179,179)" stroke-linejoin="round" d="M 1356,1134 L 1506,1134"/>
 <path fill="none" stroke="rgb(179,179,179)" stroke-linejoin="round" d="M 1356,239 L 1506,239"/>
 <path fill="none" stroke="rgb(179,179,179)" stroke-linejoin="round" d="M 1356,239 L 1506,239"/>
 <path fill="none" stroke="rgb(179,179,179)" stroke-linejoin="round" d="M 1506,9195 L 1506,239"/>
 <path fill="none" stroke="rgb(102,102,255)" stroke-width="80" stroke-linejoin="round" d="M 1506,8289 L 1684,8222 1863,7832 2042,7868 2220,7682 2399,7840 2578,7843 2757,6999 2935,7022 3114,6830 3293,6815 3472,6561 3650,6260 3829,6264 4008,6049 4186,6071 4365,6201 4544,5812 4723,5785 4901,5641 5080,5656 5259,5663 5438,5618 5616,5506 5795,5406 5974,5418 6153,5409 6331,5339 6510,5206 6689,5079 6867,5212 7046,5178 7225,5286 7404,4971 7582,4866 7761,4808 7940,4728 8119,4862 8297,4208 8476,4213 8655,4167 8833,4227 9012,4240 9191,4161 9370,4245 9548,4262 9727,4232 9906,4245 10085,4240 10263,4092 10442,3664 10621,3668 10800,3472 10978,3460 11157,3451 11336,3420 11514,3411 11693,1595 11872,1540 12051,1524 12229,1511 12408,1495 12587,1491 12766,1496 12944,1523 13122,1464 13301,1444 13480,1487 13658,1430 13837,1408 14016,1412 14194,1393 14373,1378 14552,1361 14731,1354 14909,1350 15088,1320 15267,1332 15446,1319 15624,1287 15803,1253 15982,1278 16160,1231 16339,1215 16518,1196 16697,1186 16875,1193 17054,1198 17233,1167 17412,934 17590,945 17769,1088 17948,1072 18127,940 18305,1589 18484,1061 18663,1055 18841,969 19020,884 19199,1082 19378,978 19556,1042 19735,1037 19914,1030 20093,1066 20271,1067 20450,883 20629,860 20807,994 20986,915 21165,1142 21344,844 21522,1029 21701,1016 21880,825 22059,930 22237,947 22416,756 22595,749 22774,902 22952,933 23131,916 23310,762 23488,864 23667,873 23846,923 24025,801 24203,766 24382,817 24561,870 24740,807 24918,742 25097,867 25276,764 25455,2196"/>
 <path fill="none" stroke="rgb(197,0,11)" stroke-width="80" stroke-linejoin="round" d="M 1506,8241 L 1684,8223 1863,7938 2042,7936 2220,7869 2399,7808 2578,7802 2757,7126 2935,7095 3114,6952 3293,6808 3472,6604 3650,6316 3829,6308 4008,6216 4186,6185 4365,6154 4544,5890 4723,5879 4901,5618 5080,5616 5259,5605 5438,5571 5616,5472 5795,5469 5974,5451 6153,5450 6331,5162 6510,5153 6689,5151 6867,5129 7046,5127 7225,5111 7404,4967 7582,4900 7761,4834 7940,4767 8119,4764 8297,4281 8476,4274 8655,4261 8833,4260 9012,4238 9191,4237 9370,4231 9548,4231 9727,4230 9906,4226 10085,4204 10263,4066 10442,3806 10621,3798 10800,3552 10978,3422 11157,3389 11336,3376 11514,3370 11693,1699 11872,1691 12051,1658 12229,1648 12408,1637 12587,1634 12766,1617 12944,1615 13122,1611 13301,1571 13480,1552 13658,1537 13837,1511 14016,1492 14194,1490 14373,1485 14552,1472 14731,1468 14909,1451 15088,1436 15267,1411 15446,1387 15624,1362 15803,1326 15982,1320 16160,1308 16339,1305 16518,1283 16697,1277 16875,1256 17054,1245 17233,1219 17412,1183 17590,1173 17769,1140 17948,1137 18127,1128 18305,1121 18484,1116 18663,1097 18841,1092 19020,1092 19199,1090 19378,1087 19556,1078 19735,1065 19914,1047 20093,1046 20271,1045 20450,1039 20629,1032 20807,1031 20986,1025 21165,1019 21344,1013 21522,1004 21701,1001 21880,980 22059,976 22237,957 22416,956 22595,955 22774,942 22952,936 23131,924 23310,922 23488,915 23667,909 23846,898 24025,890 24203,881 24382,881 24561,877 24740,874 24918,872 25097,858 25276,844 25455,814"/>
 <text class="TextShape"><tspan class="TextParagraph" font-family="Liberation Sans, sans-serif" font-size="353px" font-weight="400"><tspan class="TextPosition" x="700" y="9316"><tspan fill="rgb(0,0,0)" stroke="none">600</tspan></tspan></tspan></text>
 <text class="TextShape"><tspan class="TextParagraph" font-family="Liberation Sans, sans-serif" font-size="353px" font-weight="400"><tspan class="TextPosition" x="700" y="8420"><tspan fill="rgb(0,0,0)" stroke="none">700</tspan></tspan></tspan></text>
 <text class="TextShape"><tspan class="TextParagraph" font-family="Liberation Sans, sans-serif" font-size="353px" font-weight="400"><tspan class="TextPosition" x="700" y="7524"><tspan fill="rgb(0,0,0)" stroke="none">800</tspan></tspan></tspan></text>
 <text class="TextShape"><tspan class="TextParagraph" font-family="Liberation Sans, sans-serif" font-size="353px" font-weight="400"><tspan class="TextPosition" x="700" y="6628"><tspan fill="rgb(0,0,0)" stroke="none">900</tspan></tspan></tspan></text>
 <text class="TextShape"><tspan class="TextParagraph" font-family="Liberation Sans, sans-serif" font-size="353px" font-weight="400"><tspan class="TextPosition" x="515" y="5733"><tspan fill="rgb(0,0,0)" stroke="none">1000</tspan></tspan></tspan></text>
 <text class="TextShape"><tspan class="TextParagraph" font-family="Liberation Sans, sans-serif" font-size="353px" font-weight="400"><tspan class="TextPosition" x="515" y="4837"><tspan fill="rgb(0,0,0)" stroke="none">1100</tspan></tspan></tspan></text>
 <text class="TextShape"><tspan class="TextParagraph" font-family="Liberation Sans, sans-serif" font-size="353px" font-weight="400"><tspan class="TextPosition" x="515" y="3941"><tspan fill="rgb(0,0,0)" stroke="none">1200</tspan></tspan></tspan></text>
 <text class="TextShape"><tspan class="TextParagraph" font-family="Liberation Sans, sans-serif" font-size="353px" font-weight="400"><tspan class="TextPosition" x="515" y="3046"><tspan fill="rgb(0,0,0)" stroke="none">1300</tspan></tspan></tspan></text>
 <text class="TextShape"><tspan class="TextParagraph" font-family="Liberation Sans, sans-serif" font-size="353px" font-weight="400"><tspan class="TextPosition" x="515" y="2150"><tspan fill="rgb(0,0,0)" stroke="none">1400</tspan></tspan></tspan></text>
 <text class="TextShape"><tspan class="TextParagraph" font-family="Liberation Sans, sans-serif" font-size="353px" font-weight="400"><tspan class="TextPosition" x="515" y="1254"><tspan fill="rgb(0,0,0)" stroke="none">1500</tspan></tspan></tspan></text>
 <text class="TextShape"><tspan class="TextParagraph" font-family="Liberation Sans, sans-serif" font-size="353px" font-weight="400"><tspan class="TextPosition" x="515" y="359"><tspan fill="rgb(0,0,0)" stroke="none">1600</tspan></tspan></tspan></text>
 <path fill="none" stroke="rgb(102,102,255)" stroke-width="80" stroke-linejoin="round" d="M 9709,9858 L 10509,9858"/>
 <path fill="none" stroke="rgb(197,0,11)" stroke-width="80" stroke-linejoin="round" d="M 12816,9858 L 13615,9858"/>
 <text class="TextShape"><tspan class="TextParagraph" font-family="Liberation Sans, sans-serif" font-size="353px" font-weight="400"><tspan class="TextPosition" x="10609" y="9978"><tspan fill="rgb(0,0,0)" stroke="none">calculated</tspan></tspan></tspan></text>
 <text class="TextShape"><tspan class="TextParagraph" font-family="Liberation Sans, sans-serif" font-size="353px" font-weight="400"><tspan class="TextPosition" x="13715" y="9978"><tspan fill="rgb(0,0,0)" stroke="none">measured</tspan></tspan></tspan></text>
</svg>