<?xml version="1.0" encoding="UTF-8" standalone="no"?>
<!DOCTYPE svg PUBLIC "-//W3C//DTD SVG 1.1//EN"
 "http://www.w3.org/Graphics/SVG/1.1/DTD/svg11.dtd">
<!-- Generated by graphviz version 2.38.0 (20140413.2041)
 -->
<!-- Title: main Pages: 1 -->
<svg width="948pt" height="686pt"
 viewBox="0.00 0.00 948.00 686.00" xmlns="http://www.w3.org/2000/svg" xmlns:xlink="http://www.w3.org/1999/xlink">
<g id="graph0" class="graph" transform="scale(1 1) rotate(0) translate(4 682)">
<title>main</title>
<polygon fill="white" stroke="none" points="-4,4 -4,-682 944,-682 944,4 -4,4"/>
<!-- Node1 -->
<g id="node1" class="node"><title>Node1</title>
<polygon fill="#bfbfbf" stroke="black" points="0,-278.5 0,-297.5 38,-297.5 38,-278.5 0,-278.5"/>
<text text-anchor="middle" x="19" y="-285.5" font-family="Helvetica,sans-Serif" font-size="10.00">main</text>
</g>
<!-- Node2 -->
<g id="node2" class="node"><title>Node2</title>
<g id="a_node2"><a xlink:href="namespacetlz.html#a3c03f5d9d6261ec2909938822fc47f8a" target="_top" xlink:title="tlz::get_args">
<polygon fill="white" stroke="black" points="98.5,-658.5 98.5,-677.5 169.5,-677.5 169.5,-658.5 98.5,-658.5"/>
<text text-anchor="middle" x="134" y="-665.5" font-family="Helvetica,sans-Serif" font-size="10.00">tlz::get_args</text>
</a>
</g>
</g>
<!-- Node1&#45;&gt;Node2 -->
<g id="edge1" class="edge"><title>Node1&#45;&gt;Node2</title>
<path fill="none" stroke="midnightblue" d="M20.2135,-297.836C21.5165,-349.373 29.8857,-588.031 74,-644 77.998,-649.072 83.2428,-653.08 88.9574,-656.243"/>
<polygon fill="midnightblue" stroke="midnightblue" points="87.6697,-659.505 98.2125,-660.553 90.6246,-653.159 87.6697,-659.505"/>
</g>
<!-- Node3 -->
<g id="node3" class="node"><title>Node3</title>
<g id="a_node3"><a xlink:href="namespacetlz.html#a3ac10800719e65de4ff54112b989a8a7" target="_top" xlink:title="tlz::homography_arg">
<polygon fill="white" stroke="black" points="81.5,-544.5 81.5,-563.5 186.5,-563.5 186.5,-544.5 81.5,-544.5"/>
<text text-anchor="middle" x="134" y="-551.5" font-family="Helvetica,sans-Serif" font-size="10.00">tlz::homography_arg</text>
</a>
</g>
</g>
<!-- Node1&#45;&gt;Node3 -->
<g id="edge2" class="edge"><title>Node1&#45;&gt;Node3</title>
<path fill="none" stroke="midnightblue" d="M20.9717,-297.742C25.1953,-338.321 43.1447,-493.516 74,-530 77.1799,-533.76 81.0387,-536.938 85.2441,-539.623"/>
<polygon fill="midnightblue" stroke="midnightblue" points="83.7915,-542.816 94.2564,-544.47 87.107,-536.651 83.7915,-542.816"/>
</g>
<!-- Node9 -->
<g id="node9" class="node"><title>Node9</title>
<g id="a_node9"><a xlink:href="namespacetlz.html#aa1be9362f548fcf9378e1fc9074089c4" target="_top" xlink:title="tlz::import_json_file">
<polygon fill="white" stroke="black" points="418,-601.5 418,-620.5 519,-620.5 519,-601.5 418,-601.5"/>
<text text-anchor="middle" x="468.5" y="-608.5" font-family="Helvetica,sans-Serif" font-size="10.00">tlz::import_json_file</text>
</a>
</g>
</g>
<!-- Node1&#45;&gt;Node9 -->
<g id="edge52" class="edge"><title>Node1&#45;&gt;Node9</title>
<path fill="none" stroke="midnightblue" d="M20.4676,-297.718C22.838,-342.895 34.9877,-531.918 74,-573 164.851,-668.672 341.14,-642.089 423.328,-622.91"/>
<polygon fill="midnightblue" stroke="midnightblue" points="424.203,-626.299 433.108,-620.558 422.566,-619.493 424.203,-626.299"/>
</g>
<!-- Node10 -->
<g id="node10" class="node"><title>Node10</title>
<g id="a_node10"><a xlink:href="namespacetlz.html#a634de7ca11e100e4a118dffe80376a75" target="_top" xlink:title="tlz::in_filename_arg">
<polygon fill="white" stroke="black" points="418,-506.5 418,-525.5 519,-525.5 519,-506.5 418,-506.5"/>
<text text-anchor="middle" x="468.5" y="-513.5" font-family="Helvetica,sans-Serif" font-size="10.00">tlz::in_filename_arg</text>
</a>
</g>
</g>
<!-- Node1&#45;&gt;Node10 -->
<g id="edge18" class="edge"><title>Node1&#45;&gt;Node10</title>
<path fill="none" stroke="midnightblue" d="M20.1013,-297.558C20.9403,-325.97 27.4206,-410.682 74,-455 164.12,-540.744 321.955,-536.09 407.793,-525.754"/>
<polygon fill="midnightblue" stroke="midnightblue" points="408.416,-529.203 417.895,-524.471 407.534,-522.259 408.416,-529.203"/>
</g>
<!-- Node17 -->
<g id="node17" class="node"><title>Node17</title>
<g id="a_node17"><a xlink:href="namespacetlz.html#a65770a2c1ff57c5ae6542d4465a3d3f4" target="_top" xlink:title="tlz::out_filename_arg">
<polygon fill="white" stroke="black" points="415,-0.5 415,-19.5 522,-19.5 522,-0.5 415,-0.5"/>
<text text-anchor="middle" x="468.5" y="-7.5" font-family="Helvetica,sans-Serif" font-size="10.00">tlz::out_filename_arg</text>
</a>
</g>
</g>
<!-- Node1&#45;&gt;Node17 -->
<g id="edge19" class="edge"><title>Node1&#45;&gt;Node17</title>
<path fill="none" stroke="midnightblue" d="M38.1505,-286.432C78.0911,-282.614 171.811,-271.534 194,-250 241.341,-204.056 186.708,-155.778 230,-106 274.647,-54.6638 350.744,-30.4009 404.761,-19.1865"/>
<polygon fill="midnightblue" stroke="midnightblue" points="405.448,-22.6184 414.577,-17.2408 404.087,-15.752 405.448,-22.6184"/>
</g>
<!-- Node18 -->
<g id="node18" class="node"><title>Node18</title>
<g id="a_node18"><a xlink:href="namespacetlz.html#aea648783e0ac6c50afae30a01cfc260d" target="_top" xlink:title="tlz::enum_arg">
<polygon fill="white" stroke="black" points="558.5,-430.5 558.5,-449.5 634.5,-449.5 634.5,-430.5 558.5,-430.5"/>
<text text-anchor="middle" x="596.5" y="-437.5" font-family="Helvetica,sans-Serif" font-size="10.00">tlz::enum_arg</text>
</a>
</g>
</g>
<!-- Node1&#45;&gt;Node18 -->
<g id="edge21" class="edge"><title>Node1&#45;&gt;Node18</title>
<path fill="none" stroke="midnightblue" d="M30.7879,-297.57C41.158,-306.266 57.6291,-318.803 74,-326 238.978,-398.532 454.228,-426.651 548.182,-435.978"/>
<polygon fill="midnightblue" stroke="midnightblue" points="547.937,-439.471 558.227,-436.949 548.611,-432.503 547.937,-439.471"/>
</g>
<!-- Node19 -->
<g id="node19" class="node"><title>Node19</title>
<g id="a_node19"><a xlink:href="namespacetlz.html#a89b5e26ad069ef85937a1cb5f20c1d64" target="_top" xlink:title="tlz::in_filename_opt_arg">
<polygon fill="white" stroke="black" points="74,-297.5 74,-316.5 194,-316.5 194,-297.5 74,-297.5"/>
<text text-anchor="middle" x="134" y="-304.5" font-family="Helvetica,sans-Serif" font-size="10.00">tlz::in_filename_opt_arg</text>
</a>
</g>
</g>
<!-- Node1&#45;&gt;Node19 -->
<g id="edge25" class="edge"><title>Node1&#45;&gt;Node19</title>
<path fill="none" stroke="midnightblue" d="M38.1554,-291.053C46.0981,-292.388 55.9551,-294.046 66.2832,-295.782"/>
<polygon fill="midnightblue" stroke="midnightblue" points="65.8408,-299.257 76.2827,-297.463 67.0016,-292.354 65.8408,-299.257"/>
</g>
<!-- Node26 -->
<g id="node26" class="node"><title>Node26</title>
<g id="a_node26"><a xlink:href="namespacetlz.html#a9517e892e5486b965a722d5589dc58c4" target="_top" xlink:title="tlz::decode_border">
<polygon fill="white" stroke="black" points="256,-468.5 256,-487.5 353,-487.5 353,-468.5 256,-468.5"/>
<text text-anchor="middle" x="304.5" y="-475.5" font-family="Helvetica,sans-Serif" font-size="10.00">tlz::decode_border</text>
</a>
</g>
</g>
<!-- Node1&#45;&gt;Node26 -->
<g id="edge50" class="edge"><title>Node1&#45;&gt;Node26</title>
<path fill="none" stroke="midnightblue" d="M21.1911,-297.693C24.6519,-321.573 36.9353,-383.641 74,-416 121.702,-457.646 194.662,-471.643 245.469,-476.173"/>
<polygon fill="midnightblue" stroke="midnightblue" points="245.394,-479.678 255.639,-476.981 245.948,-472.7 245.394,-479.678"/>
</g>
<!-- Node27 -->
<g id="node27" class="node"><title>Node27</title>
<g id="a_node27"><a xlink:href="namespacetlz.html#afbf92393383d3dde6ffd98700ea014f1" target="_top" xlink:title="tlz::load_texture">
<polygon fill="white" stroke="black" points="91,-221.5 91,-240.5 177,-240.5 177,-221.5 91,-221.5"/>
<text text-anchor="middle" x="134" y="-228.5" font-family="Helvetica,sans-Serif" font-size="10.00">tlz::load_texture</text>
</a>
</g>
</g>
<!-- Node1&#45;&gt;Node27 -->
<g id="edge53" class="edge"><title>Node1&#45;&gt;Node27</title>
<path fill="none" stroke="midnightblue" d="M34.3022,-278.379C44.9809,-271.415 60.0722,-262.03 74,-255 81.5095,-251.21 89.7657,-247.553 97.6618,-244.285"/>
<polygon fill="midnightblue" stroke="midnightblue" points="99.0713,-247.49 107.04,-240.508 96.4566,-240.997 99.0713,-247.49"/>
</g>
<!-- Node28 -->
<g id="node28" class="node"><title>Node28</title>
<g id="a_node28"><a xlink:href="namespacetlz.html#a0b91e1131356fee9a4c7a72c3b398186" target="_top" xlink:title="tlz::add_border">
<polygon fill="white" stroke="black" points="93.5,-183.5 93.5,-202.5 174.5,-202.5 174.5,-183.5 93.5,-183.5"/>
<text text-anchor="middle" x="134" y="-190.5" font-family="Helvetica,sans-Serif" font-size="10.00">tlz::add_border</text>
</a>
</g>
</g>
<!-- Node1&#45;&gt;Node28 -->
<g id="edge54" class="edge"><title>Node1&#45;&gt;Node28</title>
<path fill="none" stroke="midnightblue" d="M24.3328,-278.311C32.0246,-262.195 49.5839,-229.888 74,-212 77.0437,-209.77 80.3604,-207.795 83.8182,-206.046"/>
<polygon fill="midnightblue" stroke="midnightblue" points="85.4584,-209.148 93.2104,-201.926 82.6467,-202.738 85.4584,-209.148"/>
</g>
<!-- Node29 -->
<g id="node29" class="node"><title>Node29</title>
<g id="a_node29"><a xlink:href="apply__homography_8cc.html#a4a177f8e856ff6c59c1b93baab8e5f81" target="_top" xlink:title="background_color">
<polygon fill="white" stroke="black" points="87.5,-145.5 87.5,-164.5 180.5,-164.5 180.5,-145.5 87.5,-145.5"/>
<text text-anchor="middle" x="134" y="-152.5" font-family="Helvetica,sans-Serif" font-size="10.00">background_color</text>
</a>
</g>
</g>
<!-- Node1&#45;&gt;Node29 -->
<g id="edge55" class="edge"><title>Node1&#45;&gt;Node29</title>
<path fill="none" stroke="midnightblue" d="M21.8239,-278.494C26.4906,-256.749 40.9061,-203.025 74,-174 75.9467,-172.293 78.0488,-170.738 80.2597,-169.323"/>
<polygon fill="midnightblue" stroke="midnightblue" points="82.0604,-172.33 89.2291,-164.528 78.7601,-166.156 82.0604,-172.33"/>
</g>
<!-- Node30 -->
<g id="node30" class="node"><title>Node30</title>
<g id="a_node30"><a xlink:href="namespacetlz.html#abef378599dee0140819b796094d46e0f" target="_top" xlink:title="tlz::save_texture">
<polygon fill="white" stroke="black" points="89.5,-107.5 89.5,-126.5 178.5,-126.5 178.5,-107.5 89.5,-107.5"/>
<text text-anchor="middle" x="134" y="-114.5" font-family="Helvetica,sans-Serif" font-size="10.00">tlz::save_texture</text>
</a>
</g>
</g>
<!-- Node1&#45;&gt;Node30 -->
<g id="edge56" class="edge"><title>Node1&#45;&gt;Node30</title>
<path fill="none" stroke="midnightblue" d="M20.575,-278.252C22.6773,-251.558 32.2019,-176.57 74,-136 75.9256,-134.131 78.0359,-132.446 80.2767,-130.926"/>
<polygon fill="midnightblue" stroke="midnightblue" points="82.3964,-133.754 89.4513,-125.849 79.0069,-127.629 82.3964,-133.754"/>
</g>
<!-- Node31 -->
<g id="node31" class="node"><title>Node31</title>
<g id="a_node31"><a xlink:href="namespacetlz.html#a55912f12ae3521ac51a3d4ab3d75183a" target="_top" xlink:title="tlz::load_depth">
<polygon fill="white" stroke="black" points="94,-69.5 94,-88.5 174,-88.5 174,-69.5 94,-69.5"/>
<text text-anchor="middle" x="134" y="-76.5" font-family="Helvetica,sans-Serif" font-size="10.00">tlz::load_depth</text>
</a>
</g>
</g>
<!-- Node1&#45;&gt;Node31 -->
<g id="edge57" class="edge"><title>Node1&#45;&gt;Node31</title>
<path fill="none" stroke="midnightblue" d="M19.7635,-278.166C19.5693,-247.181 23.253,-150.536 74,-98 77.0279,-94.8654 80.5744,-92.247 84.3997,-90.06"/>
<polygon fill="midnightblue" stroke="midnightblue" points="86.144,-93.1081 93.7183,-85.7 83.1774,-86.7678 86.144,-93.1081"/>
</g>
<!-- Node32 -->
<g id="node32" class="node"><title>Node32</title>
<g id="a_node32"><a xlink:href="namespacetlz.html#a368c5ff91078bfc7c2584e90c147f953" target="_top" xlink:title="tlz::save_depth">
<polygon fill="white" stroke="black" points="92.5,-31.5 92.5,-50.5 175.5,-50.5 175.5,-31.5 92.5,-31.5"/>
<text text-anchor="middle" x="134" y="-38.5" font-family="Helvetica,sans-Serif" font-size="10.00">tlz::save_depth</text>
</a>
</g>
</g>
<!-- Node1&#45;&gt;Node32 -->
<g id="edge58" class="edge"><title>Node1&#45;&gt;Node32</title>
<path fill="none" stroke="midnightblue" d="M21.0121,-278.496C25.3335,-239.606 43.4266,-93.0891 74,-60 76.7157,-57.0608 79.8875,-54.5746 83.3254,-52.4718"/>
<polygon fill="midnightblue" stroke="midnightblue" points="84.9216,-55.5869 92.3115,-47.9949 81.8,-49.3214 84.9216,-55.5869"/>
</g>
<!-- Node4 -->
<g id="node4" class="node"><title>Node4</title>
<g id="a_node4"><a xlink:href="namespacetlz.html#acc042de1df74e590015a1efe234a338c" target="_top" xlink:title="tlz::decode_view_homography">
<polygon fill="white" stroke="black" points="230,-544.5 230,-563.5 379,-563.5 379,-544.5 230,-544.5"/>
<text text-anchor="middle" x="304.5" y="-551.5" font-family="Helvetica,sans-Serif" font-size="10.00">tlz::decode_view_homography</text>
</a>
</g>
</g>
<!-- Node3&#45;&gt;Node4 -->
<g id="edge3" class="edge"><title>Node3&#45;&gt;Node4</title>
<path fill="none" stroke="midnightblue" d="M186.93,-554C197.295,-554 208.429,-554 219.556,-554"/>
<polygon fill="midnightblue" stroke="midnightblue" points="219.751,-557.5 229.75,-554 219.75,-550.5 219.751,-557.5"/>
</g>
<!-- Node8 -->
<g id="node8" class="node"><title>Node8</title>
<g id="a_node8"><a xlink:href="namespacetlz.html#a35f9e03fa4fd9cec699f5fa27962400f" target="_top" xlink:title="tlz::json_arg">
<polygon fill="white" stroke="black" points="269.5,-582.5 269.5,-601.5 339.5,-601.5 339.5,-582.5 269.5,-582.5"/>
<text text-anchor="middle" x="304.5" y="-589.5" font-family="Helvetica,sans-Serif" font-size="10.00">tlz::json_arg</text>
</a>
</g>
</g>
<!-- Node3&#45;&gt;Node8 -->
<g id="edge7" class="edge"><title>Node3&#45;&gt;Node8</title>
<path fill="none" stroke="midnightblue" d="M177.52,-563.589C202.54,-569.232 234.131,-576.356 259.418,-582.059"/>
<polygon fill="midnightblue" stroke="midnightblue" points="258.953,-585.542 269.478,-584.327 260.493,-578.713 258.953,-585.542"/>
</g>
<!-- Node5 -->
<g id="node5" class="node"><title>Node5</title>
<g id="a_node5"><a xlink:href="namespacetlz.html#a066563a26e2de02f215b179f3d3a53da" target="_top" xlink:title="tlz::decode_mat">
<polygon fill="white" stroke="black" points="425.5,-544.5 425.5,-563.5 511.5,-563.5 511.5,-544.5 425.5,-544.5"/>
<text text-anchor="middle" x="468.5" y="-551.5" font-family="Helvetica,sans-Serif" font-size="10.00">tlz::decode_mat</text>
</a>
</g>
</g>
<!-- Node4&#45;&gt;Node5 -->
<g id="edge4" class="edge"><title>Node4&#45;&gt;Node5</title>
<path fill="none" stroke="midnightblue" d="M379.389,-554C391.4,-554 403.622,-554 414.986,-554"/>
<polygon fill="midnightblue" stroke="midnightblue" points="415.151,-557.5 425.151,-554 415.151,-550.5 415.151,-557.5"/>
</g>
<!-- Node6 -->
<g id="node6" class="node"><title>Node6</title>
<g id="a_node6"><a xlink:href="namespacetlz.html#add846dc50c32dfb356cb1a7ac11d37ac" target="_top" xlink:title="tlz::get_or">
<polygon fill="white" stroke="black" points="438.5,-468.5 438.5,-487.5 498.5,-487.5 498.5,-468.5 438.5,-468.5"/>
<text text-anchor="middle" x="468.5" y="-475.5" font-family="Helvetica,sans-Serif" font-size="10.00">tlz::get_or</text>
</a>
</g>
</g>
<!-- Node4&#45;&gt;Node6 -->
<g id="edge5" class="edge"><title>Node4&#45;&gt;Node6</title>
<path fill="none" stroke="midnightblue" d="M322.229,-544.402C343.419,-532.453 381.245,-511.815 415,-497 419.532,-495.011 424.345,-493.059 429.146,-491.209"/>
<polygon fill="midnightblue" stroke="midnightblue" points="430.745,-494.349 438.892,-487.576 428.299,-487.79 430.745,-494.349"/>
</g>
<!-- Node7 -->
<g id="node7" class="node"><title>Node7</title>
<g id="a_node7"><a xlink:href="namespacetlz.html#a252af14b9b4ac6502d3e9c5dd8dc90b8" target="_top" xlink:title="tlz::has">
<polygon fill="white" stroke="black" points="572,-468.5 572,-487.5 621,-487.5 621,-468.5 572,-468.5"/>
<text text-anchor="middle" x="596.5" y="-475.5" font-family="Helvetica,sans-Serif" font-size="10.00">tlz::has</text>
</a>
</g>
</g>
<!-- Node6&#45;&gt;Node7 -->
<g id="edge6" class="edge"><title>Node6&#45;&gt;Node7</title>
<path fill="none" stroke="midnightblue" d="M498.724,-478C517.58,-478 542.169,-478 561.842,-478"/>
<polygon fill="midnightblue" stroke="midnightblue" points="561.911,-481.5 571.911,-478 561.911,-474.5 561.911,-481.5"/>
</g>
<!-- Node8&#45;&gt;Node9 -->
<g id="edge8" class="edge"><title>Node8&#45;&gt;Node9</title>
<path fill="none" stroke="midnightblue" d="M339.856,-596.029C359.597,-598.345 384.945,-601.318 407.843,-604.003"/>
<polygon fill="midnightblue" stroke="midnightblue" points="407.482,-607.485 417.821,-605.173 408.297,-600.532 407.482,-607.485"/>
</g>
<!-- Node8&#45;&gt;Node10 -->
<g id="edge9" class="edge"><title>Node8&#45;&gt;Node10</title>
<path fill="none" stroke="midnightblue" d="M339.606,-587.303C352.572,-584.487 367.079,-580.028 379,-573 399.041,-561.185 395.538,-547.746 415,-535 417.969,-533.056 421.162,-531.279 424.455,-529.662"/>
<polygon fill="midnightblue" stroke="midnightblue" points="426.144,-532.743 433.895,-525.519 423.331,-526.333 426.144,-532.743"/>
</g>
<!-- Node11 -->
<g id="node11" class="node"><title>Node11</title>
<g id="a_node11"><a xlink:href="namespacetlz.html#a0621d598fb83b13bf028f3e6293d04f8" target="_top" xlink:title="tlz::string_arg">
<polygon fill="white" stroke="black" points="558.5,-240.5 558.5,-259.5 634.5,-259.5 634.5,-240.5 558.5,-240.5"/>
<text text-anchor="middle" x="596.5" y="-247.5" font-family="Helvetica,sans-Serif" font-size="10.00">tlz::string_arg</text>
</a>
</g>
</g>
<!-- Node10&#45;&gt;Node11 -->
<g id="edge10" class="edge"><title>Node10&#45;&gt;Node11</title>
<path fill="none" stroke="midnightblue" d="M510.269,-506.438C514.72,-503.979 518.791,-500.887 522,-497 587.308,-417.884 497.625,-351.942 558,-269 558.773,-267.938 559.623,-266.931 560.535,-265.977"/>
<polygon fill="midnightblue" stroke="midnightblue" points="562.84,-268.616 568.498,-259.659 558.489,-263.133 562.84,-268.616"/>
</g>
<!-- Node12 -->
<g id="node12" class="node"><title>Node12</title>
<g id="a_node12"><a xlink:href="namespacetlz.html#a780431daab8d2595372eacb43143b52d" target="_top" xlink:title="tlz::args">
<polygon fill="white" stroke="black" points="701.5,-354.5 701.5,-373.5 753.5,-373.5 753.5,-354.5 701.5,-354.5"/>
<text text-anchor="middle" x="727.5" y="-361.5" font-family="Helvetica,sans-Serif" font-size="10.00">tlz::args</text>
</a>
</g>
</g>
<!-- Node10&#45;&gt;Node12 -->
<g id="edge16" class="edge"><title>Node10&#45;&gt;Node12</title>
<path fill="none" stroke="midnightblue" d="M519.272,-520.681C554.054,-521.587 600.297,-517.861 635,-497 679.264,-470.392 707.214,-413.177 719.401,-383.205"/>
<polygon fill="midnightblue" stroke="midnightblue" points="722.683,-384.423 723.055,-373.835 716.161,-381.88 722.683,-384.423"/>
</g>
<!-- Node14 -->
<g id="node14" class="node"><title>Node14</title>
<g id="a_node14"><a xlink:href="classtlz_1_1args__list.html#a38ad21acd64a4af98ffdf4a47837cdbe" target="_top" xlink:title="tlz::args_list::usage_fail">
<polygon fill="white" stroke="black" points="820,-278.5 820,-297.5 940,-297.5 940,-278.5 820,-278.5"/>
<text text-anchor="middle" x="880" y="-285.5" font-family="Helvetica,sans-Serif" font-size="10.00">tlz::args_list::usage_fail</text>
</a>
</g>
</g>
<!-- Node10&#45;&gt;Node14 -->
<g id="edge17" class="edge"><title>Node10&#45;&gt;Node14</title>
<path fill="none" stroke="midnightblue" d="M503.105,-525.519C509.641,-528.089 516.243,-531.229 522,-535 541.462,-547.746 536.629,-563.808 558,-573 589.437,-586.522 603.514,-586.408 635,-573 761.112,-519.299 844.766,-361.305 870.548,-306.767"/>
<polygon fill="midnightblue" stroke="midnightblue" points="873.783,-308.112 874.808,-297.567 867.43,-305.171 873.783,-308.112"/>
</g>
<!-- Node16 -->
<g id="node16" class="node"><title>Node16</title>
<g id="a_node16"><a xlink:href="namespacetlz.html#abb019466ea9f56c0dab27e893d891837" target="_top" xlink:title="tlz::file_exists">
<polygon fill="white" stroke="black" points="558,-544.5 558,-563.5 635,-563.5 635,-544.5 558,-544.5"/>
<text text-anchor="middle" x="596.5" y="-551.5" font-family="Helvetica,sans-Serif" font-size="10.00">tlz::file_exists</text>
</a>
</g>
</g>
<!-- Node10&#45;&gt;Node16 -->
<g id="edge15" class="edge"><title>Node10&#45;&gt;Node16</title>
<path fill="none" stroke="midnightblue" d="M501.295,-525.589C517.262,-530.404 536.807,-536.299 553.947,-541.468"/>
<polygon fill="midnightblue" stroke="midnightblue" points="553.13,-544.878 563.715,-544.414 555.152,-538.176 553.13,-544.878"/>
</g>
<!-- Node11&#45;&gt;Node12 -->
<g id="edge11" class="edge"><title>Node11&#45;&gt;Node12</title>
<path fill="none" stroke="midnightblue" d="M619.645,-259.672C624.882,-262.372 630.305,-265.529 635,-269 666.097,-291.987 695.984,-325.987 712.725,-346.467"/>
<polygon fill="midnightblue" stroke="midnightblue" points="710.066,-348.745 719.06,-354.345 715.521,-344.358 710.066,-348.745"/>
</g>
<!-- Node13 -->
<g id="node13" class="node"><title>Node13</title>
<g id="a_node13"><a xlink:href="classtlz_1_1args__list.html#a73d99bc75998dc14607a3a372d28dc6d" target="_top" xlink:title="tlz::args_list::next_arg">
<polygon fill="white" stroke="black" points="671,-240.5 671,-259.5 784,-259.5 784,-240.5 671,-240.5"/>
<text text-anchor="middle" x="727.5" y="-247.5" font-family="Helvetica,sans-Serif" font-size="10.00">tlz::args_list::next_arg</text>
</a>
</g>
</g>
<!-- Node11&#45;&gt;Node13 -->
<g id="edge12" class="edge"><title>Node11&#45;&gt;Node13</title>
<path fill="none" stroke="midnightblue" d="M634.812,-250C642.835,-250 651.544,-250 660.295,-250"/>
<polygon fill="midnightblue" stroke="midnightblue" points="660.549,-253.5 670.549,-250 660.549,-246.5 660.549,-253.5"/>
</g>
<!-- Node13&#45;&gt;Node14 -->
<g id="edge13" class="edge"><title>Node13&#45;&gt;Node14</title>
<path fill="none" stroke="midnightblue" d="M766.478,-259.589C786.159,-264.558 810.391,-270.677 831.321,-275.961"/>
<polygon fill="midnightblue" stroke="midnightblue" points="830.743,-279.425 841.296,-278.48 832.457,-272.638 830.743,-279.425"/>
</g>
<!-- Node15 -->
<g id="node15" class="node"><title>Node15</title>
<g id="a_node15"><a xlink:href="namespacetlz.html#a8e4f8c8c2927bc4350de13bfa0f8f9e1" target="_top" xlink:title="tlz::to_string">
<polygon fill="white" stroke="black" points="844.5,-210.5 844.5,-229.5 915.5,-229.5 915.5,-210.5 844.5,-210.5"/>
<text text-anchor="middle" x="880" y="-217.5" font-family="Helvetica,sans-Serif" font-size="10.00">tlz::to_string</text>
</a>
</g>
</g>
<!-- Node13&#45;&gt;Node15 -->
<g id="edge14" class="edge"><title>Node13&#45;&gt;Node15</title>
<path fill="none" stroke="midnightblue" d="M776.533,-240.425C795.028,-236.739 816.059,-232.546 834.234,-228.923"/>
<polygon fill="midnightblue" stroke="midnightblue" points="835.16,-232.308 844.283,-226.92 833.792,-225.443 835.16,-232.308"/>
</g>
<!-- Node17&#45;&gt;Node11 -->
<g id="edge20" class="edge"><title>Node17&#45;&gt;Node11</title>
<path fill="none" stroke="midnightblue" d="M474.595,-19.7055C493.594,-55.893 560.504,-183.34 585.755,-231.439"/>
<polygon fill="midnightblue" stroke="midnightblue" points="582.732,-233.21 590.479,-240.437 588.93,-229.956 582.732,-233.21"/>
</g>
<!-- Node18&#45;&gt;Node12 -->
<g id="edge22" class="edge"><title>Node18&#45;&gt;Node12</title>
<path fill="none" stroke="midnightblue" d="M613.838,-430.375C635.938,-417.355 675.563,-394.009 701.441,-378.764"/>
<polygon fill="midnightblue" stroke="midnightblue" points="703.455,-381.639 710.295,-373.547 699.902,-375.608 703.455,-381.639"/>
</g>
<!-- Node18&#45;&gt;Node13 -->
<g id="edge23" class="edge"><title>Node18&#45;&gt;Node13</title>
<path fill="none" stroke="midnightblue" d="M604.074,-430.317C624.513,-400.213 687.179,-307.915 714.051,-268.335"/>
<polygon fill="midnightblue" stroke="midnightblue" points="717.063,-270.131 719.784,-259.892 711.271,-266.199 717.063,-270.131"/>
</g>
<!-- Node18&#45;&gt;Node14 -->
<g id="edge24" class="edge"><title>Node18&#45;&gt;Node14</title>
<path fill="none" stroke="midnightblue" d="M634.727,-434.151C674.02,-426.758 736.694,-411.421 784,-383 818.114,-362.504 848.956,-327.128 865.732,-305.812"/>
<polygon fill="midnightblue" stroke="midnightblue" points="868.709,-307.682 872.03,-297.621 863.16,-303.415 868.709,-307.682"/>
</g>
<!-- Node19&#45;&gt;Node10 -->
<g id="edge28" class="edge"><title>Node19&#45;&gt;Node10</title>
<path fill="none" stroke="midnightblue" d="M146.604,-316.534C164.124,-330.726 198.621,-357.893 230,-378 293.463,-418.667 319.232,-413.074 379,-459 397.447,-473.175 395.538,-484.254 415,-497 417.969,-498.944 421.162,-500.721 424.455,-502.338"/>
<polygon fill="midnightblue" stroke="midnightblue" points="423.331,-505.667 433.895,-506.481 426.144,-499.257 423.331,-505.667"/>
</g>
<!-- Node19&#45;&gt;Node12 -->
<g id="edge26" class="edge"><title>Node19&#45;&gt;Node12</title>
<path fill="none" stroke="midnightblue" d="M175.986,-316.548C192.673,-320.194 212.191,-324.155 230,-327 374.817,-350.134 411.59,-354.554 558,-363 603.855,-365.645 656.845,-365.422 690.969,-364.854"/>
<polygon fill="midnightblue" stroke="midnightblue" points="691.419,-368.346 701.352,-364.66 691.289,-361.347 691.419,-368.346"/>
</g>
<!-- Node19&#45;&gt;Node17 -->
<g id="edge29" class="edge"><title>Node19&#45;&gt;Node17</title>
<path fill="none" stroke="midnightblue" d="M173.236,-297.432C180.977,-293.973 188.437,-289.299 194,-283 234.823,-236.779 186.8,-193.007 230,-149 278.284,-99.8142 326.02,-150.088 379,-106 406.5,-83.1149 389.265,-58.8533 415,-34 418.965,-30.171 423.649,-26.8794 428.561,-24.0712"/>
<polygon fill="midnightblue" stroke="midnightblue" points="430.2,-27.1648 437.542,-19.5266 427.039,-20.9189 430.2,-27.1648"/>
</g>
<!-- Node20 -->
<g id="node20" class="node"><title>Node20</title>
<g id="a_node20"><a xlink:href="classtlz_1_1args__list.html#a4aee93f4b0d9b5b4e7a5d13cb637337c" target="_top" xlink:title="tlz::args_list::has\l_next_arg">
<polygon fill="white" stroke="black" points="422.5,-153 422.5,-183 514.5,-183 514.5,-153 422.5,-153"/>
<text text-anchor="start" x="430.5" y="-171" font-family="Helvetica,sans-Serif" font-size="10.00">tlz::args_list::has</text>
<text text-anchor="middle" x="468.5" y="-160" font-family="Helvetica,sans-Serif" font-size="10.00">_next_arg</text>
</a>
</g>
</g>
<!-- Node19&#45;&gt;Node20 -->
<g id="edge27" class="edge"><title>Node19&#45;&gt;Node20</title>
<path fill="none" stroke="midnightblue" d="M168.069,-297.422C177.063,-293.825 186.408,-289.087 194,-283 215.931,-265.417 206.997,-247.155 230,-231 245.025,-220.448 347.255,-195.596 412.602,-180.45"/>
<polygon fill="midnightblue" stroke="midnightblue" points="413.401,-183.857 422.357,-178.197 411.826,-177.037 413.401,-183.857"/>
</g>
<!-- Node21 -->
<g id="node21" class="node"><title>Node21</title>
<g id="a_node21"><a xlink:href="namespacetlz.html#a4791154460ea7bf2fa5984b1748bc9d1" target="_top" xlink:title="tlz::out_filename_opt_arg">
<polygon fill="white" stroke="black" points="241.5,-158.5 241.5,-177.5 367.5,-177.5 367.5,-158.5 241.5,-158.5"/>
<text text-anchor="middle" x="304.5" y="-165.5" font-family="Helvetica,sans-Serif" font-size="10.00">tlz::out_filename_opt_arg</text>
</a>
</g>
</g>
<!-- Node19&#45;&gt;Node21 -->
<g id="edge30" class="edge"><title>Node19&#45;&gt;Node21</title>
<path fill="none" stroke="midnightblue" d="M171.437,-297.428C179.629,-293.936 187.738,-289.249 194,-283 223.91,-253.149 199.583,-224.334 230,-195 235.711,-189.493 242.637,-185.093 249.929,-181.583"/>
<polygon fill="midnightblue" stroke="midnightblue" points="251.466,-184.733 259.296,-177.595 248.724,-178.292 251.466,-184.733"/>
</g>
<!-- Node23 -->
<g id="node23" class="node"><title>Node23</title>
<g id="a_node23"><a xlink:href="namespacetlz.html#a0783a9e66143c507b2680fc68834657c" target="_top" xlink:title="tlz::out_dirname_arg">
<polygon fill="white" stroke="black" points="416,-278.5 416,-297.5 521,-297.5 521,-278.5 416,-278.5"/>
<text text-anchor="middle" x="468.5" y="-285.5" font-family="Helvetica,sans-Serif" font-size="10.00">tlz::out_dirname_arg</text>
</a>
</g>
</g>
<!-- Node19&#45;&gt;Node23 -->
<g id="edge38" class="edge"><title>Node19&#45;&gt;Node23</title>
<path fill="none" stroke="midnightblue" d="M194.061,-303.625C253.6,-300.223 345.112,-294.994 405.632,-291.535"/>
<polygon fill="midnightblue" stroke="midnightblue" points="406.028,-295.019 415.812,-290.954 405.628,-288.03 406.028,-295.019"/>
</g>
<!-- Node24 -->
<g id="node24" class="node"><title>Node24</title>
<g id="a_node24"><a xlink:href="namespacetlz.html#a401e3de191fb11547a91972b97244c3a" target="_top" xlink:title="tlz::out_dirname_opt_arg">
<polygon fill="white" stroke="black" points="242.5,-240.5 242.5,-259.5 366.5,-259.5 366.5,-240.5 242.5,-240.5"/>
<text text-anchor="middle" x="304.5" y="-247.5" font-family="Helvetica,sans-Serif" font-size="10.00">tlz::out_dirname_opt_arg</text>
</a>
</g>
</g>
<!-- Node19&#45;&gt;Node24 -->
<g id="edge40" class="edge"><title>Node19&#45;&gt;Node24</title>
<path fill="none" stroke="midnightblue" d="M161.98,-297.477C180.97,-290.812 207.001,-281.749 230,-274 241.006,-270.292 252.967,-266.349 263.981,-262.754"/>
<polygon fill="midnightblue" stroke="midnightblue" points="265.35,-265.989 273.775,-259.566 263.183,-259.333 265.35,-265.989"/>
</g>
<!-- Node25 -->
<g id="node25" class="node"><title>Node25</title>
<g id="a_node25"><a xlink:href="namespacetlz.html#af0d1e8ba5b9f2dbc2b589afab3a21fc8" target="_top" xlink:title="tlz::int_arg">
<polygon fill="white" stroke="black" points="565.5,-278.5 565.5,-297.5 627.5,-297.5 627.5,-278.5 565.5,-278.5"/>
<text text-anchor="middle" x="596.5" y="-285.5" font-family="Helvetica,sans-Serif" font-size="10.00">tlz::int_arg</text>
</a>
</g>
</g>
<!-- Node19&#45;&gt;Node25 -->
<g id="edge46" class="edge"><title>Node19&#45;&gt;Node25</title>
<path fill="none" stroke="midnightblue" d="M194.026,-309.871C205.933,-310.342 218.365,-310.755 230,-311 359.761,-313.731 393.488,-325.171 522,-307 532.977,-305.448 544.676,-302.864 555.437,-300.095"/>
<polygon fill="midnightblue" stroke="midnightblue" points="556.667,-303.389 565.413,-297.41 554.847,-296.629 556.667,-303.389"/>
</g>
<!-- Node21&#45;&gt;Node12 -->
<g id="edge31" class="edge"><title>Node21&#45;&gt;Node12</title>
<path fill="none" stroke="midnightblue" d="M339.059,-158.468C392.716,-144.137 494.58,-120.946 522,-143 580.15,-189.77 508.216,-251.409 558,-307 567.165,-317.234 645,-340.781 691.613,-354.188"/>
<polygon fill="midnightblue" stroke="midnightblue" points="690.753,-357.583 701.33,-356.967 692.678,-350.852 690.753,-357.583"/>
</g>
<!-- Node21&#45;&gt;Node13 -->
<g id="edge36" class="edge"><title>Node21&#45;&gt;Node13</title>
<path fill="none" stroke="midnightblue" d="M341.132,-158.468C353.58,-154.354 367.344,-148.881 379,-142 397.434,-131.117 394.99,-117.608 415,-110 459.451,-93.0997 476.667,-95.6316 522,-110 599.227,-134.477 603.604,-170.045 671,-215 681.054,-221.706 692.307,-228.865 702.038,-234.95"/>
<polygon fill="midnightblue" stroke="midnightblue" points="700.472,-238.098 710.813,-240.405 704.168,-232.153 700.472,-238.098"/>
</g>
<!-- Node21&#45;&gt;Node17 -->
<g id="edge37" class="edge"><title>Node21&#45;&gt;Node17</title>
<path fill="none" stroke="midnightblue" d="M356.129,-158.467C364.572,-155.031 372.638,-150.357 379,-144 415.386,-107.638 380.728,-72.3612 415,-34 418.29,-30.3169 422.26,-27.1624 426.524,-24.4695"/>
<polygon fill="midnightblue" stroke="midnightblue" points="428.445,-27.4098 435.57,-19.5689 425.11,-21.255 428.445,-27.4098"/>
</g>
<!-- Node21&#45;&gt;Node20 -->
<g id="edge32" class="edge"><title>Node21&#45;&gt;Node20</title>
<path fill="none" stroke="midnightblue" d="M367.67,-168C382.317,-168 397.835,-168 412.158,-168"/>
<polygon fill="midnightblue" stroke="midnightblue" points="412.347,-171.5 422.347,-168 412.347,-164.5 412.347,-171.5"/>
</g>
<!-- Node22 -->
<g id="node22" class="node"><title>Node22</title>
<g id="a_node22"><a xlink:href="classtlz_1_1args__list.html#ae7c07d1c8f24c2aa4fe0ba68ec45d353" target="_top" xlink:title="tlz::args_list::next\l_arg_is">
<polygon fill="white" stroke="black" points="680,-175 680,-205 775,-205 775,-175 680,-175"/>
<text text-anchor="start" x="688" y="-193" font-family="Helvetica,sans-Serif" font-size="10.00">tlz::args_list::next</text>
<text text-anchor="middle" x="727.5" y="-182" font-family="Helvetica,sans-Serif" font-size="10.00">_arg_is</text>
</a>
</g>
</g>
<!-- Node21&#45;&gt;Node22 -->
<g id="edge33" class="edge"><title>Node21&#45;&gt;Node22</title>
<path fill="none" stroke="midnightblue" d="M349.622,-158.412C360.095,-154.592 370.64,-149.301 379,-142 405.35,-118.987 385.137,-90.223 415,-72 498.465,-21.0686 547.196,-28.9767 635,-72 674.565,-91.3868 701.926,-137.043 715.848,-165.542"/>
<polygon fill="midnightblue" stroke="midnightblue" points="712.793,-167.271 720.21,-174.836 719.13,-164.297 712.793,-167.271"/>
</g>
<!-- Node22&#45;&gt;Node14 -->
<g id="edge34" class="edge"><title>Node22&#45;&gt;Node14</title>
<path fill="none" stroke="midnightblue" d="M751.686,-205.098C779.959,-223.508 827.464,-254.442 855.761,-272.867"/>
<polygon fill="midnightblue" stroke="midnightblue" points="853.935,-275.855 864.224,-278.379 857.754,-269.989 853.935,-275.855"/>
</g>
<!-- Node22&#45;&gt;Node15 -->
<g id="edge35" class="edge"><title>Node22&#45;&gt;Node15</title>
<path fill="none" stroke="midnightblue" d="M775.294,-199.328C794.078,-203.072 815.636,-207.369 834.214,-211.073"/>
<polygon fill="midnightblue" stroke="midnightblue" points="833.7,-214.539 844.192,-213.061 835.069,-207.674 833.7,-214.539"/>
</g>
<!-- Node23&#45;&gt;Node11 -->
<g id="edge39" class="edge"><title>Node23&#45;&gt;Node11</title>
<path fill="none" stroke="midnightblue" d="M501.295,-278.411C517.262,-273.596 536.807,-267.701 553.947,-262.532"/>
<polygon fill="midnightblue" stroke="midnightblue" points="555.152,-265.824 563.715,-259.586 553.13,-259.122 555.152,-265.824"/>
</g>
<!-- Node24&#45;&gt;Node12 -->
<g id="edge41" class="edge"><title>Node24&#45;&gt;Node12</title>
<path fill="none" stroke="midnightblue" d="M320.882,-259.61C341.563,-272.15 379.812,-294.021 415,-307 510.903,-342.375 631.812,-356.432 690.817,-361.477"/>
<polygon fill="midnightblue" stroke="midnightblue" points="690.842,-364.991 701.094,-362.317 691.413,-358.014 690.842,-364.991"/>
</g>
<!-- Node24&#45;&gt;Node13 -->
<g id="edge44" class="edge"><title>Node24&#45;&gt;Node13</title>
<path fill="none" stroke="midnightblue" d="M366.663,-240.641C432.917,-231.863 541.663,-221.412 635,-231 649.546,-232.494 665.19,-235.291 679.357,-238.289"/>
<polygon fill="midnightblue" stroke="midnightblue" points="678.856,-241.762 689.375,-240.491 680.359,-234.925 678.856,-241.762"/>
</g>
<!-- Node24&#45;&gt;Node20 -->
<g id="edge42" class="edge"><title>Node24&#45;&gt;Node20</title>
<path fill="none" stroke="midnightblue" d="M337.005,-240.403C350.297,-235.854 365.733,-229.899 379,-223 396.283,-214.013 398.528,-208.398 415,-198 420.118,-194.769 425.594,-191.472 431.007,-188.302"/>
<polygon fill="midnightblue" stroke="midnightblue" points="433.071,-191.152 439.982,-183.122 429.571,-185.089 433.071,-191.152"/>
</g>
<!-- Node24&#45;&gt;Node22 -->
<g id="edge43" class="edge"><title>Node24&#45;&gt;Node22</title>
<path fill="none" stroke="midnightblue" d="M344.338,-240.489C365.188,-235.636 391.389,-229.942 415,-226 503.505,-211.225 607.171,-200.552 669.787,-194.824"/>
<polygon fill="midnightblue" stroke="midnightblue" points="670.209,-198.3 679.853,-193.914 669.578,-191.329 670.209,-198.3"/>
</g>
<!-- Node24&#45;&gt;Node23 -->
<g id="edge45" class="edge"><title>Node24&#45;&gt;Node23</title>
<path fill="none" stroke="midnightblue" d="M346.379,-259.589C367.853,-264.626 394.36,-270.844 417.097,-276.177"/>
<polygon fill="midnightblue" stroke="midnightblue" points="416.379,-279.604 426.915,-278.48 417.978,-272.789 416.379,-279.604"/>
</g>
<!-- Node25&#45;&gt;Node12 -->
<g id="edge47" class="edge"><title>Node25&#45;&gt;Node12</title>
<path fill="none" stroke="midnightblue" d="M613.838,-297.625C635.938,-310.645 675.563,-333.991 701.441,-349.236"/>
<polygon fill="midnightblue" stroke="midnightblue" points="699.902,-352.392 710.295,-354.453 703.455,-346.361 699.902,-352.392"/>
</g>
<!-- Node25&#45;&gt;Node13 -->
<g id="edge48" class="edge"><title>Node25&#45;&gt;Node13</title>
<path fill="none" stroke="midnightblue" d="M627.745,-279.091C644.662,-274.107 666.009,-267.819 684.524,-262.365"/>
<polygon fill="midnightblue" stroke="midnightblue" points="685.586,-265.701 694.19,-259.518 683.608,-258.986 685.586,-265.701"/>
</g>
<!-- Node25&#45;&gt;Node14 -->
<g id="edge49" class="edge"><title>Node25&#45;&gt;Node14</title>
<path fill="none" stroke="midnightblue" d="M627.625,-288C670.776,-288 751.402,-288 809.731,-288"/>
<polygon fill="midnightblue" stroke="midnightblue" points="809.983,-291.5 819.983,-288 809.983,-284.5 809.983,-291.5"/>
</g>
<!-- Node26&#45;&gt;Node6 -->
<g id="edge51" class="edge"><title>Node26&#45;&gt;Node6</title>
<path fill="none" stroke="midnightblue" d="M353.229,-478C377.078,-478 405.585,-478 428.16,-478"/>
<polygon fill="midnightblue" stroke="midnightblue" points="428.397,-481.5 438.397,-478 428.397,-474.5 428.397,-481.5"/>
</g>
</g>
</svg>
