<?xml version="1.0" encoding="UTF-8" standalone="no"?>
<!DOCTYPE svg PUBLIC "-//W3C//DTD SVG 1.1//EN"
 "http://www.w3.org/Graphics/SVG/1.1/DTD/svg11.dtd">
<!-- Generated by graphviz version 2.38.0 (20140413.2041)
 -->
<!-- Title: main Pages: 1 -->
<svg width="937pt" height="366pt"
 viewBox="0.00 0.00 937.00 366.00" xmlns="http://www.w3.org/2000/svg" xmlns:xlink="http://www.w3.org/1999/xlink">
<g id="graph0" class="graph" transform="scale(1 1) rotate(0) translate(4 362)">
<title>main</title>
<polygon fill="white" stroke="none" points="-4,4 -4,-362 933,-362 933,4 -4,4"/>
<!-- Node1 -->
<g id="node1" class="node"><title>Node1</title>
<polygon fill="#bfbfbf" stroke="black" points="0,-167.5 0,-186.5 38,-186.5 38,-167.5 0,-167.5"/>
<text text-anchor="middle" x="19" y="-174.5" font-family="Helvetica,sans-Serif" font-size="10.00">main</text>
</g>
<!-- Node2 -->
<g id="node2" class="node"><title>Node2</title>
<g id="a_node2"><a xlink:href="namespacetlz.html#a3c03f5d9d6261ec2909938822fc47f8a" target="_top" xlink:title="tlz::get_args">
<polygon fill="white" stroke="black" points="102,-300.5 102,-319.5 173,-319.5 173,-300.5 102,-300.5"/>
<text text-anchor="middle" x="137.5" y="-307.5" font-family="Helvetica,sans-Serif" font-size="10.00">tlz::get_args</text>
</a>
</g>
</g>
<!-- Node1&#45;&gt;Node2 -->
<g id="edge1" class="edge"><title>Node1&#45;&gt;Node2</title>
<path fill="none" stroke="midnightblue" d="M22.2181,-186.596C27.5336,-207.534 42.9292,-257.702 74,-286 79.3762,-290.896 85.8574,-294.833 92.5824,-297.986"/>
<polygon fill="midnightblue" stroke="midnightblue" points="91.2452,-301.221 101.823,-301.818 93.9262,-294.755 91.2452,-301.221"/>
</g>
<!-- Node3 -->
<g id="node3" class="node"><title>Node3</title>
<g id="a_node3"><a xlink:href="namespacetlz.html#a634de7ca11e100e4a118dffe80376a75" target="_top" xlink:title="tlz::in_filename_arg">
<polygon fill="white" stroke="black" points="395,-224.5 395,-243.5 496,-243.5 496,-224.5 395,-224.5"/>
<text text-anchor="middle" x="445.5" y="-231.5" font-family="Helvetica,sans-Serif" font-size="10.00">tlz::in_filename_arg</text>
</a>
</g>
</g>
<!-- Node1&#45;&gt;Node3 -->
<g id="edge2" class="edge"><title>Node1&#45;&gt;Node3</title>
<path fill="none" stroke="midnightblue" d="M23.4679,-186.737C30.1639,-203.862 46.6728,-238.894 74,-253 185.008,-310.302 340.488,-269.866 409.327,-246.903"/>
<polygon fill="midnightblue" stroke="midnightblue" points="410.507,-250.198 418.84,-243.655 408.245,-243.574 410.507,-250.198"/>
</g>
<!-- Node10 -->
<g id="node10" class="node"><title>Node10</title>
<g id="a_node10"><a xlink:href="namespacetlz.html#a170805c7a8ede64a93e0ee23196e5b7c" target="_top" xlink:title="tlz::intrinsics_arg">
<polygon fill="white" stroke="black" points="92,-224.5 92,-243.5 183,-243.5 183,-224.5 92,-224.5"/>
<text text-anchor="middle" x="137.5" y="-231.5" font-family="Helvetica,sans-Serif" font-size="10.00">tlz::intrinsics_arg</text>
</a>
</g>
</g>
<!-- Node1&#45;&gt;Node10 -->
<g id="edge11" class="edge"><title>Node1&#45;&gt;Node10</title>
<path fill="none" stroke="midnightblue" d="M34.2614,-186.703C44.9198,-193.708 60.0036,-203.107 74,-210 81.8694,-213.875 90.5307,-217.552 98.8331,-220.809"/>
<polygon fill="midnightblue" stroke="midnightblue" points="97.7545,-224.144 108.346,-224.428 100.244,-217.601 97.7545,-224.144"/>
</g>
<!-- Node16 -->
<g id="node16" class="node"><title>Node16</title>
<g id="a_node16"><a xlink:href="namespacetlz.html#aa1be9362f548fcf9378e1fc9074089c4" target="_top" xlink:title="tlz::import_json_file">
<polygon fill="white" stroke="black" points="395,-186.5 395,-205.5 496,-205.5 496,-186.5 395,-186.5"/>
<text text-anchor="middle" x="445.5" y="-193.5" font-family="Helvetica,sans-Serif" font-size="10.00">tlz::import_json_file</text>
</a>
</g>
</g>
<!-- Node1&#45;&gt;Node16 -->
<g id="edge22" class="edge"><title>Node1&#45;&gt;Node16</title>
<path fill="none" stroke="midnightblue" d="M38.4747,-178.962C48.8957,-180.006 62.1621,-181.229 74,-182 183.281,-189.119 310.948,-192.959 384.297,-194.734"/>
<polygon fill="midnightblue" stroke="midnightblue" points="384.636,-198.243 394.716,-194.981 384.802,-191.245 384.636,-198.243"/>
</g>
<!-- Node17 -->
<g id="node17" class="node"><title>Node17</title>
<g id="a_node17"><a xlink:href="namespacetlz.html#a65770a2c1ff57c5ae6542d4465a3d3f4" target="_top" xlink:title="tlz::out_filename_arg">
<polygon fill="white" stroke="black" points="244.5,-148.5 244.5,-167.5 351.5,-167.5 351.5,-148.5 244.5,-148.5"/>
<text text-anchor="middle" x="298" y="-155.5" font-family="Helvetica,sans-Serif" font-size="10.00">tlz::out_filename_arg</text>
</a>
</g>
</g>
<!-- Node1&#45;&gt;Node17 -->
<g id="edge20" class="edge"><title>Node1&#45;&gt;Node17</title>
<path fill="none" stroke="midnightblue" d="M38.1747,-175.753C77.2246,-173.075 170.713,-166.662 233.968,-162.324"/>
<polygon fill="midnightblue" stroke="midnightblue" points="234.499,-165.795 244.236,-161.619 234.02,-158.812 234.499,-165.795"/>
</g>
<!-- Node18 -->
<g id="node18" class="node"><title>Node18</title>
<g id="a_node18"><a xlink:href="structtlz_1_1distortion__parameters.html#a96312c5d7baa4b7b1f2a76e9396037f8" target="_top" xlink:title="tlz::distortion_parameters\l::cv_coeffs">
<polygon fill="white" stroke="black" points="74,-99 74,-129 201,-129 201,-99 74,-99"/>
<text text-anchor="start" x="82" y="-117" font-family="Helvetica,sans-Serif" font-size="10.00">tlz::distortion_parameters</text>
<text text-anchor="middle" x="137.5" y="-106" font-family="Helvetica,sans-Serif" font-size="10.00">::cv_coeffs</text>
</a>
</g>
</g>
<!-- Node1&#45;&gt;Node18 -->
<g id="edge23" class="edge"><title>Node1&#45;&gt;Node18</title>
<path fill="none" stroke="midnightblue" d="M34.8905,-167.34C45.6037,-160.528 60.4867,-151.348 74,-144 80.4699,-140.482 87.4175,-136.932 94.2448,-133.566"/>
<polygon fill="midnightblue" stroke="midnightblue" points="95.9561,-136.626 103.424,-129.111 92.8994,-130.328 95.9561,-136.626"/>
</g>
<!-- Node19 -->
<g id="node19" class="node"><title>Node19</title>
<g id="a_node19"><a xlink:href="namespacetlz.html#ab98de0b10e3e079dee189f81adc638a0" target="_top" xlink:title="tlz::export_json_file">
<polygon fill="white" stroke="black" points="87,-60.5 87,-79.5 188,-79.5 188,-60.5 87,-60.5"/>
<text text-anchor="middle" x="137.5" y="-67.5" font-family="Helvetica,sans-Serif" font-size="10.00">tlz::export_json_file</text>
</a>
</g>
</g>
<!-- Node1&#45;&gt;Node19 -->
<g id="edge24" class="edge"><title>Node1&#45;&gt;Node19</title>
<path fill="none" stroke="midnightblue" d="M23.2274,-167.477C29.8331,-149.427 46.6229,-110.15 74,-89 76.4344,-87.1193 79.0546,-85.4239 81.7939,-83.8955"/>
<polygon fill="midnightblue" stroke="midnightblue" points="83.3523,-87.03 90.8664,-79.5609 80.3345,-80.7139 83.3523,-87.03"/>
</g>
<!-- Node21 -->
<g id="node21" class="node"><title>Node21</title>
<g id="a_node21"><a xlink:href="namespacetlz.html#a509bd15737c6ed2aec28c4f7039d1b35" target="_top" xlink:title="tlz::encode_kinect\l_reprojection_parameters">
<polygon fill="white" stroke="black" points="74.5,-11 74.5,-41 200.5,-41 200.5,-11 74.5,-11"/>
<text text-anchor="start" x="82.5" y="-29" font-family="Helvetica,sans-Serif" font-size="10.00">tlz::encode_kinect</text>
<text text-anchor="middle" x="137.5" y="-18" font-family="Helvetica,sans-Serif" font-size="10.00">_reprojection_parameters</text>
</a>
</g>
</g>
<!-- Node1&#45;&gt;Node21 -->
<g id="edge26" class="edge"><title>Node1&#45;&gt;Node21</title>
<path fill="none" stroke="midnightblue" d="M21.5393,-167.373C25.7282,-144.2 39.4239,-84.7431 74,-51 75.4741,-49.5614 77.0415,-48.2024 78.6823,-46.9188"/>
<polygon fill="midnightblue" stroke="midnightblue" points="81.0223,-49.5658 87.4067,-41.1106 77.143,-43.7389 81.0223,-49.5658"/>
</g>
<!-- Node4 -->
<g id="node4" class="node"><title>Node4</title>
<g id="a_node4"><a xlink:href="namespacetlz.html#a0621d598fb83b13bf028f3e6293d04f8" target="_top" xlink:title="tlz::string_arg">
<polygon fill="white" stroke="black" points="540,-148.5 540,-167.5 616,-167.5 616,-148.5 540,-148.5"/>
<text text-anchor="middle" x="578" y="-155.5" font-family="Helvetica,sans-Serif" font-size="10.00">tlz::string_arg</text>
</a>
</g>
</g>
<!-- Node3&#45;&gt;Node4 -->
<g id="edge3" class="edge"><title>Node3&#45;&gt;Node4</title>
<path fill="none" stroke="midnightblue" d="M476.68,-224.49C483.272,-221.852 490.051,-218.682 496,-215 514.456,-203.577 514.284,-194.54 532,-182 536.698,-178.675 541.911,-175.491 547.075,-172.591"/>
<polygon fill="midnightblue" stroke="midnightblue" points="549.031,-175.514 556.195,-167.709 545.727,-169.343 549.031,-175.514"/>
</g>
<!-- Node5 -->
<g id="node5" class="node"><title>Node5</title>
<g id="a_node5"><a xlink:href="namespacetlz.html#a780431daab8d2595372eacb43143b52d" target="_top" xlink:title="tlz::args">
<polygon fill="white" stroke="black" points="690.5,-186.5 690.5,-205.5 742.5,-205.5 742.5,-186.5 690.5,-186.5"/>
<text text-anchor="middle" x="716.5" y="-193.5" font-family="Helvetica,sans-Serif" font-size="10.00">tlz::args</text>
</a>
</g>
</g>
<!-- Node3&#45;&gt;Node5 -->
<g id="edge9" class="edge"><title>Node3&#45;&gt;Node5</title>
<path fill="none" stroke="midnightblue" d="M485.049,-224.441C499.68,-221.075 516.54,-217.509 532,-215 583.217,-206.686 643.1,-201.286 680.168,-198.441"/>
<polygon fill="midnightblue" stroke="midnightblue" points="680.736,-201.908 690.448,-197.673 680.215,-194.928 680.736,-201.908"/>
</g>
<!-- Node7 -->
<g id="node7" class="node"><title>Node7</title>
<g id="a_node7"><a xlink:href="classtlz_1_1args__list.html#a38ad21acd64a4af98ffdf4a47837cdbe" target="_top" xlink:title="tlz::args_list::usage_fail">
<polygon fill="white" stroke="black" points="809,-224.5 809,-243.5 929,-243.5 929,-224.5 809,-224.5"/>
<text text-anchor="middle" x="869" y="-231.5" font-family="Helvetica,sans-Serif" font-size="10.00">tlz::args_list::usage_fail</text>
</a>
</g>
</g>
<!-- Node3&#45;&gt;Node7 -->
<g id="edge10" class="edge"><title>Node3&#45;&gt;Node7</title>
<path fill="none" stroke="midnightblue" d="M481.155,-243.508C496.59,-247.273 515.071,-251.142 532,-253 623.978,-263.097 730.744,-253.43 798.801,-244.588"/>
<polygon fill="midnightblue" stroke="midnightblue" points="799.518,-248.023 808.969,-243.235 798.595,-241.084 799.518,-248.023"/>
</g>
<!-- Node9 -->
<g id="node9" class="node"><title>Node9</title>
<g id="a_node9"><a xlink:href="namespacetlz.html#abb019466ea9f56c0dab27e893d891837" target="_top" xlink:title="tlz::file_exists">
<polygon fill="white" stroke="black" points="539.5,-224.5 539.5,-243.5 616.5,-243.5 616.5,-224.5 539.5,-224.5"/>
<text text-anchor="middle" x="578" y="-231.5" font-family="Helvetica,sans-Serif" font-size="10.00">tlz::file_exists</text>
</a>
</g>
</g>
<!-- Node3&#45;&gt;Node9 -->
<g id="edge8" class="edge"><title>Node3&#45;&gt;Node9</title>
<path fill="none" stroke="midnightblue" d="M496.209,-234C507.017,-234 518.428,-234 529.162,-234"/>
<polygon fill="midnightblue" stroke="midnightblue" points="529.203,-237.5 539.203,-234 529.203,-230.5 529.203,-237.5"/>
</g>
<!-- Node4&#45;&gt;Node5 -->
<g id="edge4" class="edge"><title>Node4&#45;&gt;Node5</title>
<path fill="none" stroke="midnightblue" d="M613.445,-167.589C633.942,-173.295 659.882,-180.517 680.48,-186.251"/>
<polygon fill="midnightblue" stroke="midnightblue" points="679.543,-189.623 690.115,-188.933 681.42,-182.879 679.543,-189.623"/>
</g>
<!-- Node6 -->
<g id="node6" class="node"><title>Node6</title>
<g id="a_node6"><a xlink:href="classtlz_1_1args__list.html#a73d99bc75998dc14607a3a372d28dc6d" target="_top" xlink:title="tlz::args_list::next_arg">
<polygon fill="white" stroke="black" points="660,-148.5 660,-167.5 773,-167.5 773,-148.5 660,-148.5"/>
<text text-anchor="middle" x="716.5" y="-155.5" font-family="Helvetica,sans-Serif" font-size="10.00">tlz::args_list::next_arg</text>
</a>
</g>
</g>
<!-- Node4&#45;&gt;Node6 -->
<g id="edge5" class="edge"><title>Node4&#45;&gt;Node6</title>
<path fill="none" stroke="midnightblue" d="M616.299,-158C626.678,-158 638.268,-158 649.764,-158"/>
<polygon fill="midnightblue" stroke="midnightblue" points="649.808,-161.5 659.808,-158 649.808,-154.5 649.808,-161.5"/>
</g>
<!-- Node6&#45;&gt;Node7 -->
<g id="edge6" class="edge"><title>Node6&#45;&gt;Node7</title>
<path fill="none" stroke="midnightblue" d="M749.069,-167.522C757.011,-170.265 765.427,-173.48 773,-177 798.931,-189.054 826.784,-206.332 845.58,-218.7"/>
<polygon fill="midnightblue" stroke="midnightblue" points="843.77,-221.7 854.032,-224.333 847.652,-215.875 843.77,-221.7"/>
</g>
<!-- Node8 -->
<g id="node8" class="node"><title>Node8</title>
<g id="a_node8"><a xlink:href="namespacetlz.html#a8e4f8c8c2927bc4350de13bfa0f8f9e1" target="_top" xlink:title="tlz::to_string">
<polygon fill="white" stroke="black" points="833.5,-148.5 833.5,-167.5 904.5,-167.5 904.5,-148.5 833.5,-148.5"/>
<text text-anchor="middle" x="869" y="-155.5" font-family="Helvetica,sans-Serif" font-size="10.00">tlz::to_string</text>
</a>
</g>
</g>
<!-- Node6&#45;&gt;Node8 -->
<g id="edge7" class="edge"><title>Node6&#45;&gt;Node8</title>
<path fill="none" stroke="midnightblue" d="M773.113,-158C789.441,-158 807.096,-158 822.698,-158"/>
<polygon fill="midnightblue" stroke="midnightblue" points="823.13,-161.5 833.13,-158 823.129,-154.5 823.13,-161.5"/>
</g>
<!-- Node11 -->
<g id="node11" class="node"><title>Node11</title>
<g id="a_node11"><a xlink:href="namespacetlz.html#a8cba4853d0d796a01c72f59f36f2a492" target="_top" xlink:title="tlz::decode_intrinsics">
<polygon fill="white" stroke="black" points="243.5,-300.5 243.5,-319.5 352.5,-319.5 352.5,-300.5 243.5,-300.5"/>
<text text-anchor="middle" x="298" y="-307.5" font-family="Helvetica,sans-Serif" font-size="10.00">tlz::decode_intrinsics</text>
</a>
</g>
</g>
<!-- Node10&#45;&gt;Node11 -->
<g id="edge12" class="edge"><title>Node10&#45;&gt;Node11</title>
<path fill="none" stroke="midnightblue" d="M158.574,-243.625C186.204,-256.874 236.13,-280.813 267.868,-296.031"/>
<polygon fill="midnightblue" stroke="midnightblue" points="266.559,-299.285 277.089,-300.453 269.585,-292.973 266.559,-299.285"/>
</g>
<!-- Node15 -->
<g id="node15" class="node"><title>Node15</title>
<g id="a_node15"><a xlink:href="namespacetlz.html#a35f9e03fa4fd9cec699f5fa27962400f" target="_top" xlink:title="tlz::json_arg">
<polygon fill="white" stroke="black" points="263,-224.5 263,-243.5 333,-243.5 333,-224.5 263,-224.5"/>
<text text-anchor="middle" x="298" y="-231.5" font-family="Helvetica,sans-Serif" font-size="10.00">tlz::json_arg</text>
</a>
</g>
</g>
<!-- Node10&#45;&gt;Node15 -->
<g id="edge17" class="edge"><title>Node10&#45;&gt;Node15</title>
<path fill="none" stroke="midnightblue" d="M183.073,-234C204.791,-234 230.836,-234 252.539,-234"/>
<polygon fill="midnightblue" stroke="midnightblue" points="252.806,-237.5 262.806,-234 252.806,-230.5 252.806,-237.5"/>
</g>
<!-- Node12 -->
<g id="node12" class="node"><title>Node12</title>
<g id="a_node12"><a xlink:href="namespacetlz.html#a066563a26e2de02f215b179f3d3a53da" target="_top" xlink:title="tlz::decode_mat">
<polygon fill="white" stroke="black" points="402.5,-338.5 402.5,-357.5 488.5,-357.5 488.5,-338.5 402.5,-338.5"/>
<text text-anchor="middle" x="445.5" y="-345.5" font-family="Helvetica,sans-Serif" font-size="10.00">tlz::decode_mat</text>
</a>
</g>
</g>
<!-- Node11&#45;&gt;Node12 -->
<g id="edge13" class="edge"><title>Node11&#45;&gt;Node12</title>
<path fill="none" stroke="midnightblue" d="M335.716,-319.589C354.657,-324.536 377.957,-330.621 398.129,-335.889"/>
<polygon fill="midnightblue" stroke="midnightblue" points="397.488,-339.339 408.048,-338.48 399.257,-332.567 397.488,-339.339"/>
</g>
<!-- Node13 -->
<g id="node13" class="node"><title>Node13</title>
<g id="a_node13"><a xlink:href="namespacetlz.html#a252af14b9b4ac6502d3e9c5dd8dc90b8" target="_top" xlink:title="tlz::has">
<polygon fill="white" stroke="black" points="553.5,-300.5 553.5,-319.5 602.5,-319.5 602.5,-300.5 553.5,-300.5"/>
<text text-anchor="middle" x="578" y="-307.5" font-family="Helvetica,sans-Serif" font-size="10.00">tlz::has</text>
</a>
</g>
</g>
<!-- Node11&#45;&gt;Node13 -->
<g id="edge14" class="edge"><title>Node11&#45;&gt;Node13</title>
<path fill="none" stroke="midnightblue" d="M337.977,-300.49C355.32,-296.725 376.062,-292.856 395,-291 439.675,-286.622 451.409,-285.84 496,-291 511.703,-292.817 528.782,-296.553 543.192,-300.235"/>
<polygon fill="midnightblue" stroke="midnightblue" points="542.592,-303.696 553.155,-302.878 544.387,-296.93 542.592,-303.696"/>
</g>
<!-- Node14 -->
<g id="node14" class="node"><title>Node14</title>
<g id="a_node14"><a xlink:href="namespacetlz.html#add846dc50c32dfb356cb1a7ac11d37ac" target="_top" xlink:title="tlz::get_or">
<polygon fill="white" stroke="black" points="415.5,-300.5 415.5,-319.5 475.5,-319.5 475.5,-300.5 415.5,-300.5"/>
<text text-anchor="middle" x="445.5" y="-307.5" font-family="Helvetica,sans-Serif" font-size="10.00">tlz::get_or</text>
</a>
</g>
</g>
<!-- Node11&#45;&gt;Node14 -->
<g id="edge15" class="edge"><title>Node11&#45;&gt;Node14</title>
<path fill="none" stroke="midnightblue" d="M352.765,-310C370.164,-310 389.12,-310 405.26,-310"/>
<polygon fill="midnightblue" stroke="midnightblue" points="405.415,-313.5 415.415,-310 405.415,-306.5 405.415,-313.5"/>
</g>
<!-- Node14&#45;&gt;Node13 -->
<g id="edge16" class="edge"><title>Node14&#45;&gt;Node13</title>
<path fill="none" stroke="midnightblue" d="M475.787,-310C495.844,-310 522.495,-310 543.414,-310"/>
<polygon fill="midnightblue" stroke="midnightblue" points="543.467,-313.5 553.467,-310 543.467,-306.5 543.467,-313.5"/>
</g>
<!-- Node15&#45;&gt;Node3 -->
<g id="edge19" class="edge"><title>Node15&#45;&gt;Node3</title>
<path fill="none" stroke="midnightblue" d="M333.113,-234C348.49,-234 367.112,-234 384.691,-234"/>
<polygon fill="midnightblue" stroke="midnightblue" points="384.889,-237.5 394.889,-234 384.889,-230.5 384.889,-237.5"/>
</g>
<!-- Node15&#45;&gt;Node16 -->
<g id="edge18" class="edge"><title>Node15&#45;&gt;Node16</title>
<path fill="none" stroke="midnightblue" d="M333.113,-225.091C352.546,-220.015 377.161,-213.587 398.306,-208.064"/>
<polygon fill="midnightblue" stroke="midnightblue" points="399.266,-211.431 408.057,-205.518 397.497,-204.658 399.266,-211.431"/>
</g>
<!-- Node17&#45;&gt;Node4 -->
<g id="edge21" class="edge"><title>Node17&#45;&gt;Node4</title>
<path fill="none" stroke="midnightblue" d="M351.616,-158C402.905,-158 480.191,-158 529.615,-158"/>
<polygon fill="midnightblue" stroke="midnightblue" points="529.719,-161.5 539.719,-158 529.719,-154.5 529.719,-161.5"/>
</g>
<!-- Node20 -->
<g id="node20" class="node"><title>Node20</title>
<g id="a_node20"><a xlink:href="namespacetlz.html#ae11c827ac9e581f9d2f98c39aab3750d" target="_top" xlink:title="tlz::file_name_extension">
<polygon fill="white" stroke="black" points="237,-60.5 237,-79.5 359,-79.5 359,-60.5 237,-60.5"/>
<text text-anchor="middle" x="298" y="-67.5" font-family="Helvetica,sans-Serif" font-size="10.00">tlz::file_name_extension</text>
</a>
</g>
</g>
<!-- Node19&#45;&gt;Node20 -->
<g id="edge25" class="edge"><title>Node19&#45;&gt;Node20</title>
<path fill="none" stroke="midnightblue" d="M188.216,-70C200.394,-70 213.658,-70 226.603,-70"/>
<polygon fill="midnightblue" stroke="midnightblue" points="226.889,-73.5001 236.889,-70 226.889,-66.5001 226.889,-73.5001"/>
</g>
<!-- Node22 -->
<g id="node22" class="node"><title>Node22</title>
<g id="a_node22"><a xlink:href="namespacetlz.html#a46c3e46d56bc36cf6b1236522563bc4a" target="_top" xlink:title="tlz::encode_intrinsics">
<polygon fill="white" stroke="black" points="243.5,-19.5 243.5,-38.5 352.5,-38.5 352.5,-19.5 243.5,-19.5"/>
<text text-anchor="middle" x="298" y="-26.5" font-family="Helvetica,sans-Serif" font-size="10.00">tlz::encode_intrinsics</text>
</a>
</g>
</g>
<!-- Node21&#45;&gt;Node22 -->
<g id="edge27" class="edge"><title>Node21&#45;&gt;Node22</title>
<path fill="none" stroke="midnightblue" d="M200.688,-27.1771C211.401,-27.3798 222.551,-27.5909 233.303,-27.7944"/>
<polygon fill="midnightblue" stroke="midnightblue" points="233.398,-31.2967 243.463,-27.9867 233.531,-24.298 233.398,-31.2967"/>
</g>
<!-- Node23 -->
<g id="node23" class="node"><title>Node23</title>
<g id="a_node23"><a xlink:href="namespacetlz.html#acf7ca4ee1b750cf31a40170bea887d46" target="_top" xlink:title="tlz::encode_mat">
<polygon fill="white" stroke="black" points="402.5,-0.5 402.5,-19.5 488.5,-19.5 488.5,-0.5 402.5,-0.5"/>
<text text-anchor="middle" x="445.5" y="-7.5" font-family="Helvetica,sans-Serif" font-size="10.00">tlz::encode_mat</text>
</a>
</g>
</g>
<!-- Node21&#45;&gt;Node23 -->
<g id="edge30" class="edge"><title>Node21&#45;&gt;Node23</title>
<path fill="none" stroke="midnightblue" d="M200.58,-14.3597C212.62,-12.5437 225.171,-10.9545 237,-10 289.744,-5.7441 350.276,-6.37213 392.293,-7.68062"/>
<polygon fill="midnightblue" stroke="midnightblue" points="392.182,-11.1788 402.294,-8.0158 392.417,-4.1827 392.182,-11.1788"/>
</g>
<!-- Node22&#45;&gt;Node23 -->
<g id="edge28" class="edge"><title>Node22&#45;&gt;Node23</title>
<path fill="none" stroke="midnightblue" d="M352.765,-21.9791C365.668,-20.2942 379.428,-18.4974 392.261,-16.8216"/>
<polygon fill="midnightblue" stroke="midnightblue" points="392.857,-20.2736 402.319,-15.5081 391.95,-13.3325 392.857,-20.2736"/>
</g>
<!-- Node24 -->
<g id="node24" class="node"><title>Node24</title>
<g id="a_node24"><a xlink:href="namespacetlz.html#a7b27ca69fad329b4a00aceee41d2962b" target="_top" xlink:title="tlz::encode_mat_">
<polygon fill="white" stroke="black" points="532,-0.5 532,-19.5 624,-19.5 624,-0.5 532,-0.5"/>
<text text-anchor="middle" x="578" y="-7.5" font-family="Helvetica,sans-Serif" font-size="10.00">tlz::encode_mat_</text>
</a>
</g>
</g>
<!-- Node23&#45;&gt;Node24 -->
<g id="edge29" class="edge"><title>Node23&#45;&gt;Node24</title>
<path fill="none" stroke="midnightblue" d="M488.509,-10C499.12,-10 510.674,-10 521.826,-10"/>
<polygon fill="midnightblue" stroke="midnightblue" points="521.915,-13.5001 531.915,-10 521.915,-6.5001 521.915,-13.5001"/>
</g>
</g>
</svg>
