<?xml version="1.0" encoding="UTF-8" standalone="no"?>
<!DOCTYPE svg PUBLIC "-//W3C//DTD SVG 1.1//EN"
 "http://www.w3.org/Graphics/SVG/1.1/DTD/svg11.dtd">
<!-- Generated by graphviz version 2.38.0 (20140413.2041)
 -->
<!-- Title: main Pages: 1 -->
<svg width="782pt" height="382pt"
 viewBox="0.00 0.00 782.00 382.00" xmlns="http://www.w3.org/2000/svg" xmlns:xlink="http://www.w3.org/1999/xlink">
<g id="graph0" class="graph" transform="scale(1 1) rotate(0) translate(4 378)">
<title>main</title>
<polygon fill="white" stroke="none" points="-4,4 -4,-378 778,-378 778,4 -4,4"/>
<!-- Node1 -->
<g id="node1" class="node"><title>Node1</title>
<polygon fill="#bfbfbf" stroke="black" points="0,-211.5 0,-230.5 38,-230.5 38,-211.5 0,-211.5"/>
<text text-anchor="middle" x="19" y="-218.5" font-family="Helvetica,sans-Serif" font-size="10.00">main</text>
</g>
<!-- Node2 -->
<g id="node2" class="node"><title>Node2</title>
<g id="a_node2"><a xlink:href="namespacetlz.html#a3c03f5d9d6261ec2909938822fc47f8a" target="_top" xlink:title="tlz::get_args">
<polygon fill="white" stroke="black" points="93,-354.5 93,-373.5 164,-373.5 164,-354.5 93,-354.5"/>
<text text-anchor="middle" x="128.5" y="-361.5" font-family="Helvetica,sans-Serif" font-size="10.00">tlz::get_args</text>
</a>
</g>
</g>
<!-- Node1&#45;&gt;Node2 -->
<g id="edge1" class="edge"><title>Node1&#45;&gt;Node2</title>
<path fill="none" stroke="midnightblue" d="M21.9319,-230.663C26.8255,-252.815 41.6855,-307.824 74,-340 77.7805,-343.764 82.2552,-346.993 86.9814,-349.748"/>
<polygon fill="midnightblue" stroke="midnightblue" points="85.7648,-353.056 96.2638,-354.478 88.9429,-346.819 85.7648,-353.056"/>
</g>
<!-- Node3 -->
<g id="node3" class="node"><title>Node3</title>
<g id="a_node3"><a xlink:href="namespacetlz.html#a634de7ca11e100e4a118dffe80376a75" target="_top" xlink:title="tlz::in_filename_arg">
<polygon fill="white" stroke="black" points="229.5,-316.5 229.5,-335.5 330.5,-335.5 330.5,-316.5 229.5,-316.5"/>
<text text-anchor="middle" x="280" y="-323.5" font-family="Helvetica,sans-Serif" font-size="10.00">tlz::in_filename_arg</text>
</a>
</g>
</g>
<!-- Node1&#45;&gt;Node3 -->
<g id="edge2" class="edge"><title>Node1&#45;&gt;Node3</title>
<path fill="none" stroke="midnightblue" d="M23.3524,-230.753C29.9626,-248.347 46.4741,-285.136 74,-302 117.421,-328.602 175.805,-333.065 219.16,-331.772"/>
<polygon fill="midnightblue" stroke="midnightblue" points="219.433,-335.264 229.282,-331.358 219.147,-328.269 219.433,-335.264"/>
</g>
<!-- Node10 -->
<g id="node10" class="node"><title>Node10</title>
<g id="a_node10"><a xlink:href="namespacetlz.html#af0d1e8ba5b9f2dbc2b589afab3a21fc8" target="_top" xlink:title="tlz::int_arg">
<polygon fill="white" stroke="black" points="392,-240.5 392,-259.5 454,-259.5 454,-240.5 392,-240.5"/>
<text text-anchor="middle" x="423" y="-247.5" font-family="Helvetica,sans-Serif" font-size="10.00">tlz::int_arg</text>
</a>
</g>
</g>
<!-- Node1&#45;&gt;Node10 -->
<g id="edge11" class="edge"><title>Node1&#45;&gt;Node10</title>
<path fill="none" stroke="midnightblue" d="M35.9714,-230.689C46.4306,-236.598 60.5976,-243.799 74,-248 187.584,-283.601 222.756,-282.682 341,-269 354.473,-267.441 368.96,-264.469 381.904,-261.331"/>
<polygon fill="midnightblue" stroke="midnightblue" points="383.069,-264.647 391.906,-258.803 381.353,-257.861 383.069,-264.647"/>
</g>
<!-- Node11 -->
<g id="node11" class="node"><title>Node11</title>
<g id="a_node11"><a xlink:href="namespacetlz.html#a65770a2c1ff57c5ae6542d4465a3d3f4" target="_top" xlink:title="tlz::out_filename_arg">
<polygon fill="white" stroke="black" points="226.5,-240.5 226.5,-259.5 333.5,-259.5 333.5,-240.5 226.5,-240.5"/>
<text text-anchor="middle" x="280" y="-247.5" font-family="Helvetica,sans-Serif" font-size="10.00">tlz::out_filename_arg</text>
</a>
</g>
</g>
<!-- Node1&#45;&gt;Node11 -->
<g id="edge15" class="edge"><title>Node1&#45;&gt;Node11</title>
<path fill="none" stroke="midnightblue" d="M38.2124,-223.039C74.6009,-227.114 157.804,-236.43 216.168,-242.965"/>
<polygon fill="midnightblue" stroke="midnightblue" points="216.069,-246.475 226.396,-244.11 216.848,-239.519 216.069,-246.475"/>
</g>
<!-- Node12 -->
<g id="node12" class="node"><title>Node12</title>
<g id="a_node12"><a xlink:href="namespacetlz.html#a5186c46291b525427b48828632f7adec" target="_top" xlink:title="tlz::bool_opt_arg">
<polygon fill="white" stroke="black" points="84,-183.5 84,-202.5 173,-202.5 173,-183.5 84,-183.5"/>
<text text-anchor="middle" x="128.5" y="-190.5" font-family="Helvetica,sans-Serif" font-size="10.00">tlz::bool_opt_arg</text>
</a>
</g>
</g>
<!-- Node1&#45;&gt;Node12 -->
<g id="edge17" class="edge"><title>Node1&#45;&gt;Node12</title>
<path fill="none" stroke="midnightblue" d="M38.2359,-216.25C50.0293,-213.178 65.9513,-209.031 81.0832,-205.09"/>
<polygon fill="midnightblue" stroke="midnightblue" points="82.0667,-208.451 90.8616,-202.543 80.3022,-201.677 82.0667,-208.451"/>
</g>
<!-- Node16 -->
<g id="node16" class="node"><title>Node16</title>
<g id="a_node16"><a xlink:href="namespacetlz.html#aa1be9362f548fcf9378e1fc9074089c4" target="_top" xlink:title="tlz::import_json_file">
<polygon fill="white" stroke="black" points="78,-145.5 78,-164.5 179,-164.5 179,-145.5 78,-145.5"/>
<text text-anchor="middle" x="128.5" y="-152.5" font-family="Helvetica,sans-Serif" font-size="10.00">tlz::import_json_file</text>
</a>
</g>
</g>
<!-- Node1&#45;&gt;Node16 -->
<g id="edge25" class="edge"><title>Node1&#45;&gt;Node16</title>
<path fill="none" stroke="midnightblue" d="M29.0907,-211.136C39.1886,-200.679 56.4003,-184.282 74,-174 77.4442,-171.988 81.1363,-170.137 84.9121,-168.447"/>
<polygon fill="midnightblue" stroke="midnightblue" points="86.4452,-171.601 94.376,-164.576 83.7952,-165.122 86.4452,-171.601"/>
</g>
<!-- Node17 -->
<g id="node17" class="node"><title>Node17</title>
<g id="a_node17"><a xlink:href="namespacetlz.html#ab98de0b10e3e079dee189f81adc638a0" target="_top" xlink:title="tlz::export_json_file">
<polygon fill="white" stroke="black" points="78,-82.5 78,-101.5 179,-101.5 179,-82.5 78,-82.5"/>
<text text-anchor="middle" x="128.5" y="-89.5" font-family="Helvetica,sans-Serif" font-size="10.00">tlz::export_json_file</text>
</a>
</g>
</g>
<!-- Node1&#45;&gt;Node17 -->
<g id="edge26" class="edge"><title>Node1&#45;&gt;Node17</title>
<path fill="none" stroke="midnightblue" d="M24.7964,-211.405C33.3081,-194.919 52.2225,-160.618 74,-136 83.2131,-125.585 95.0176,-115.602 105.193,-107.786"/>
<polygon fill="midnightblue" stroke="midnightblue" points="107.34,-110.551 113.265,-101.768 103.156,-104.939 107.34,-110.551"/>
</g>
<!-- Node19 -->
<g id="node19" class="node"><title>Node19</title>
<g id="a_node19"><a xlink:href="namespacetlz.html#a46c3e46d56bc36cf6b1236522563bc4a" target="_top" xlink:title="tlz::encode_intrinsics">
<polygon fill="white" stroke="black" points="74,-22.5 74,-41.5 183,-41.5 183,-22.5 74,-22.5"/>
<text text-anchor="middle" x="128.5" y="-29.5" font-family="Helvetica,sans-Serif" font-size="10.00">tlz::encode_intrinsics</text>
</a>
</g>
</g>
<!-- Node1&#45;&gt;Node19 -->
<g id="edge28" class="edge"><title>Node1&#45;&gt;Node19</title>
<path fill="none" stroke="midnightblue" d="M21.5587,-211.465C26.0071,-186.573 40.6516,-118.415 74,-73 81.3709,-62.9621 91.8591,-54.1845 101.599,-47.3541"/>
<polygon fill="midnightblue" stroke="midnightblue" points="103.814,-50.0853 110.223,-41.6483 99.9514,-44.2474 103.814,-50.0853"/>
</g>
<!-- Node4 -->
<g id="node4" class="node"><title>Node4</title>
<g id="a_node4"><a xlink:href="namespacetlz.html#a0621d598fb83b13bf028f3e6293d04f8" target="_top" xlink:title="tlz::string_arg">
<polygon fill="white" stroke="black" points="385,-202.5 385,-221.5 461,-221.5 461,-202.5 385,-202.5"/>
<text text-anchor="middle" x="423" y="-209.5" font-family="Helvetica,sans-Serif" font-size="10.00">tlz::string_arg</text>
</a>
</g>
</g>
<!-- Node3&#45;&gt;Node4 -->
<g id="edge3" class="edge"><title>Node3&#45;&gt;Node4</title>
<path fill="none" stroke="midnightblue" d="M291.349,-316.479C303.434,-305.29 323.944,-286.08 341,-269 357.439,-252.538 357.878,-244.25 377,-231 379.566,-229.222 382.325,-227.562 385.167,-226.024"/>
<polygon fill="midnightblue" stroke="midnightblue" points="386.943,-229.052 394.4,-221.526 383.878,-222.759 386.943,-229.052"/>
</g>
<!-- Node5 -->
<g id="node5" class="node"><title>Node5</title>
<g id="a_node5"><a xlink:href="namespacetlz.html#a780431daab8d2595372eacb43143b52d" target="_top" xlink:title="tlz::args">
<polygon fill="white" stroke="black" points="535.5,-221.5 535.5,-240.5 587.5,-240.5 587.5,-221.5 535.5,-221.5"/>
<text text-anchor="middle" x="561.5" y="-228.5" font-family="Helvetica,sans-Serif" font-size="10.00">tlz::args</text>
</a>
</g>
</g>
<!-- Node3&#45;&gt;Node5 -->
<g id="edge9" class="edge"><title>Node3&#45;&gt;Node5</title>
<path fill="none" stroke="midnightblue" d="M316.336,-316.419C354.378,-305.841 416.504,-287.807 469,-269 489.631,-261.609 512.39,-252.163 530.049,-244.537"/>
<polygon fill="midnightblue" stroke="midnightblue" points="531.518,-247.715 539.289,-240.513 528.723,-241.297 531.518,-247.715"/>
</g>
<!-- Node7 -->
<g id="node7" class="node"><title>Node7</title>
<g id="a_node7"><a xlink:href="classtlz_1_1args__list.html#a38ad21acd64a4af98ffdf4a47837cdbe" target="_top" xlink:title="tlz::args_list::usage_fail">
<polygon fill="white" stroke="black" points="654,-259.5 654,-278.5 774,-278.5 774,-259.5 654,-259.5"/>
<text text-anchor="middle" x="714" y="-266.5" font-family="Helvetica,sans-Serif" font-size="10.00">tlz::args_list::usage_fail</text>
</a>
</g>
</g>
<!-- Node3&#45;&gt;Node7 -->
<g id="edge10" class="edge"><title>Node3&#45;&gt;Node7</title>
<path fill="none" stroke="midnightblue" d="M330.556,-319.461C407.516,-309.307 556.003,-289.715 643.594,-278.158"/>
<polygon fill="midnightblue" stroke="midnightblue" points="644.248,-281.602 653.704,-276.824 643.332,-274.662 644.248,-281.602"/>
</g>
<!-- Node9 -->
<g id="node9" class="node"><title>Node9</title>
<g id="a_node9"><a xlink:href="namespacetlz.html#abb019466ea9f56c0dab27e893d891837" target="_top" xlink:title="tlz::file_exists">
<polygon fill="white" stroke="black" points="384.5,-354.5 384.5,-373.5 461.5,-373.5 461.5,-354.5 384.5,-354.5"/>
<text text-anchor="middle" x="423" y="-361.5" font-family="Helvetica,sans-Serif" font-size="10.00">tlz::file_exists</text>
</a>
</g>
</g>
<!-- Node3&#45;&gt;Node9 -->
<g id="edge8" class="edge"><title>Node3&#45;&gt;Node9</title>
<path fill="none" stroke="midnightblue" d="M316.58,-335.589C334.782,-340.494 357.138,-346.52 376.572,-351.757"/>
<polygon fill="midnightblue" stroke="midnightblue" points="375.865,-355.191 386.431,-354.414 377.686,-348.432 375.865,-355.191"/>
</g>
<!-- Node4&#45;&gt;Node5 -->
<g id="edge4" class="edge"><title>Node4&#45;&gt;Node5</title>
<path fill="none" stroke="midnightblue" d="M461.299,-217.192C481.239,-219.967 505.649,-223.365 525.266,-226.096"/>
<polygon fill="midnightblue" stroke="midnightblue" points="524.938,-229.584 535.325,-227.496 525.903,-222.65 524.938,-229.584"/>
</g>
<!-- Node6 -->
<g id="node6" class="node"><title>Node6</title>
<g id="a_node6"><a xlink:href="classtlz_1_1args__list.html#a73d99bc75998dc14607a3a372d28dc6d" target="_top" xlink:title="tlz::args_list::next_arg">
<polygon fill="white" stroke="black" points="505,-183.5 505,-202.5 618,-202.5 618,-183.5 505,-183.5"/>
<text text-anchor="middle" x="561.5" y="-190.5" font-family="Helvetica,sans-Serif" font-size="10.00">tlz::args_list::next_arg</text>
</a>
</g>
</g>
<!-- Node4&#45;&gt;Node6 -->
<g id="edge5" class="edge"><title>Node4&#45;&gt;Node6</title>
<path fill="none" stroke="midnightblue" d="M461.299,-206.808C471.678,-205.363 483.268,-203.75 494.764,-202.15"/>
<polygon fill="midnightblue" stroke="midnightblue" points="495.386,-205.597 504.808,-200.752 494.421,-198.664 495.386,-205.597"/>
</g>
<!-- Node6&#45;&gt;Node7 -->
<g id="edge6" class="edge"><title>Node6&#45;&gt;Node7</title>
<path fill="none" stroke="midnightblue" d="M594.069,-202.522C602.011,-205.265 610.427,-208.48 618,-212 643.931,-224.054 671.784,-241.332 690.58,-253.7"/>
<polygon fill="midnightblue" stroke="midnightblue" points="688.77,-256.7 699.032,-259.333 692.652,-250.875 688.77,-256.7"/>
</g>
<!-- Node8 -->
<g id="node8" class="node"><title>Node8</title>
<g id="a_node8"><a xlink:href="namespacetlz.html#a8e4f8c8c2927bc4350de13bfa0f8f9e1" target="_top" xlink:title="tlz::to_string">
<polygon fill="white" stroke="black" points="678.5,-183.5 678.5,-202.5 749.5,-202.5 749.5,-183.5 678.5,-183.5"/>
<text text-anchor="middle" x="714" y="-190.5" font-family="Helvetica,sans-Serif" font-size="10.00">tlz::to_string</text>
</a>
</g>
</g>
<!-- Node6&#45;&gt;Node8 -->
<g id="edge7" class="edge"><title>Node6&#45;&gt;Node8</title>
<path fill="none" stroke="midnightblue" d="M618.113,-193C634.441,-193 652.096,-193 667.698,-193"/>
<polygon fill="midnightblue" stroke="midnightblue" points="668.13,-196.5 678.13,-193 668.129,-189.5 668.13,-196.5"/>
</g>
<!-- Node10&#45;&gt;Node5 -->
<g id="edge12" class="edge"><title>Node10&#45;&gt;Node5</title>
<path fill="none" stroke="midnightblue" d="M454.294,-245.783C475.313,-242.857 503.375,-238.951 525.375,-235.889"/>
<polygon fill="midnightblue" stroke="midnightblue" points="525.898,-239.35 535.32,-234.505 524.933,-232.417 525.898,-239.35"/>
</g>
<!-- Node10&#45;&gt;Node6 -->
<g id="edge13" class="edge"><title>Node10&#45;&gt;Node6</title>
<path fill="none" stroke="midnightblue" d="M447.991,-240.321C454.832,-237.44 462.256,-234.196 469,-231 485.349,-223.252 488.391,-219.174 505,-212 509.843,-209.908 514.998,-207.885 520.141,-205.988"/>
<polygon fill="midnightblue" stroke="midnightblue" points="521.678,-209.157 529.93,-202.512 519.335,-202.56 521.678,-209.157"/>
</g>
<!-- Node10&#45;&gt;Node7 -->
<g id="edge14" class="edge"><title>Node10&#45;&gt;Node7</title>
<path fill="none" stroke="midnightblue" d="M454.11,-251.98C498.663,-254.909 583.374,-260.478 643.761,-264.448"/>
<polygon fill="midnightblue" stroke="midnightblue" points="643.776,-267.956 653.984,-265.12 644.235,-260.971 643.776,-267.956"/>
</g>
<!-- Node11&#45;&gt;Node4 -->
<g id="edge16" class="edge"><title>Node11&#45;&gt;Node4</title>
<path fill="none" stroke="midnightblue" d="M316.58,-240.411C334.782,-235.506 357.138,-229.48 376.572,-224.243"/>
<polygon fill="midnightblue" stroke="midnightblue" points="377.686,-227.568 386.431,-221.586 375.865,-220.809 377.686,-227.568"/>
</g>
<!-- Node12&#45;&gt;Node5 -->
<g id="edge18" class="edge"><title>Node12&#45;&gt;Node5</title>
<path fill="none" stroke="midnightblue" d="M173.18,-186.395C238.61,-177.971 365.446,-167.35 469,-193 486.561,-197.35 488.391,-204.826 505,-212 511.533,-214.822 518.634,-217.519 525.507,-219.949"/>
<polygon fill="midnightblue" stroke="midnightblue" points="524.726,-223.38 535.321,-223.301 526.989,-216.756 524.726,-223.38"/>
</g>
<!-- Node13 -->
<g id="node13" class="node"><title>Node13</title>
<g id="a_node13"><a xlink:href="classtlz_1_1args__list.html#a4aee93f4b0d9b5b4e7a5d13cb637337c" target="_top" xlink:title="tlz::args_list::has\l_next_arg">
<polygon fill="white" stroke="black" points="234,-77 234,-107 326,-107 326,-77 234,-77"/>
<text text-anchor="start" x="242" y="-95" font-family="Helvetica,sans-Serif" font-size="10.00">tlz::args_list::has</text>
<text text-anchor="middle" x="280" y="-84" font-family="Helvetica,sans-Serif" font-size="10.00">_next_arg</text>
</a>
</g>
</g>
<!-- Node12&#45;&gt;Node13 -->
<g id="edge19" class="edge"><title>Node12&#45;&gt;Node13</title>
<path fill="none" stroke="midnightblue" d="M166.187,-183.438C172.142,-180.938 177.991,-177.834 183,-174 205.322,-156.916 197.765,-140.417 219,-122 223.179,-118.375 227.873,-115.063 232.747,-112.072"/>
<polygon fill="midnightblue" stroke="midnightblue" points="234.664,-115.009 241.642,-107.037 231.215,-108.917 234.664,-115.009"/>
</g>
<!-- Node14 -->
<g id="node14" class="node"><title>Node14</title>
<g id="a_node14"><a xlink:href="namespacetlz.html#ac18630fe66cc71c8cc5eb6acce057f5f" target="_top" xlink:title="tlz::bool_arg">
<polygon fill="white" stroke="black" points="388,-126.5 388,-145.5 458,-145.5 458,-126.5 388,-126.5"/>
<text text-anchor="middle" x="423" y="-133.5" font-family="Helvetica,sans-Serif" font-size="10.00">tlz::bool_arg</text>
</a>
</g>
</g>
<!-- Node12&#45;&gt;Node14 -->
<g id="edge20" class="edge"><title>Node12&#45;&gt;Node14</title>
<path fill="none" stroke="midnightblue" d="M156.773,-183.49C165.201,-180.504 174.501,-177.161 183,-174 199.09,-168.016 202.342,-164.152 219,-160 272.648,-146.627 336.183,-140.643 377.702,-138.006"/>
<polygon fill="midnightblue" stroke="midnightblue" points="377.99,-141.495 387.763,-137.406 377.572,-134.508 377.99,-141.495"/>
</g>
<!-- Node15 -->
<g id="node15" class="node"><title>Node15</title>
<g id="a_node15"><a xlink:href="namespacetlz.html#abea9308e4287a82deb9e44e7cc9782a0" target="_top" xlink:title="tlz::view_index_arg">
<polygon fill="white" stroke="black" points="229.5,-202.5 229.5,-221.5 330.5,-221.5 330.5,-202.5 229.5,-202.5"/>
<text text-anchor="middle" x="280" y="-209.5" font-family="Helvetica,sans-Serif" font-size="10.00">tlz::view_index_arg</text>
</a>
</g>
</g>
<!-- Node12&#45;&gt;Node15 -->
<g id="edge23" class="edge"><title>Node12&#45;&gt;Node15</title>
<path fill="none" stroke="midnightblue" d="M173.143,-198.547C187.566,-200.38 203.869,-202.452 219.283,-204.411"/>
<polygon fill="midnightblue" stroke="midnightblue" points="218.893,-207.889 229.254,-205.678 219.775,-200.945 218.893,-207.889"/>
</g>
<!-- Node14&#45;&gt;Node5 -->
<g id="edge21" class="edge"><title>Node14&#45;&gt;Node5</title>
<path fill="none" stroke="midnightblue" d="M446.86,-145.547C454.407,-149.359 462.52,-154.229 469,-160 489.991,-178.695 482.581,-195.044 505,-212 511.087,-216.604 518.366,-220.14 525.618,-222.84"/>
<polygon fill="midnightblue" stroke="midnightblue" points="524.782,-226.249 535.375,-226.024 526.954,-219.594 524.782,-226.249"/>
</g>
<!-- Node14&#45;&gt;Node6 -->
<g id="edge22" class="edge"><title>Node14&#45;&gt;Node6</title>
<path fill="none" stroke="midnightblue" d="M446.847,-145.541C469.091,-154.829 503.112,-169.036 528.137,-179.486"/>
<polygon fill="midnightblue" stroke="midnightblue" points="527.002,-182.805 537.578,-183.428 529.699,-176.345 527.002,-182.805"/>
</g>
<!-- Node15&#45;&gt;Node4 -->
<g id="edge24" class="edge"><title>Node15&#45;&gt;Node4</title>
<path fill="none" stroke="midnightblue" d="M330.711,-212C345.003,-212 360.546,-212 374.688,-212"/>
<polygon fill="midnightblue" stroke="midnightblue" points="374.7,-215.5 384.7,-212 374.7,-208.5 374.7,-215.5"/>
</g>
<!-- Node18 -->
<g id="node18" class="node"><title>Node18</title>
<g id="a_node18"><a xlink:href="namespacetlz.html#ae11c827ac9e581f9d2f98c39aab3750d" target="_top" xlink:title="tlz::file_name_extension">
<polygon fill="white" stroke="black" points="219,-38.5 219,-57.5 341,-57.5 341,-38.5 219,-38.5"/>
<text text-anchor="middle" x="280" y="-45.5" font-family="Helvetica,sans-Serif" font-size="10.00">tlz::file_name_extension</text>
</a>
</g>
</g>
<!-- Node17&#45;&gt;Node18 -->
<g id="edge27" class="edge"><title>Node17&#45;&gt;Node18</title>
<path fill="none" stroke="midnightblue" d="M161.939,-82.4527C183.881,-75.9949 213.075,-67.4028 236.819,-60.4146"/>
<polygon fill="midnightblue" stroke="midnightblue" points="238.019,-63.7098 246.624,-57.5287 236.043,-56.9946 238.019,-63.7098"/>
</g>
<!-- Node20 -->
<g id="node20" class="node"><title>Node20</title>
<g id="a_node20"><a xlink:href="namespacetlz.html#acf7ca4ee1b750cf31a40170bea887d46" target="_top" xlink:title="tlz::encode_mat">
<polygon fill="white" stroke="black" points="237,-0.5 237,-19.5 323,-19.5 323,-0.5 237,-0.5"/>
<text text-anchor="middle" x="280" y="-7.5" font-family="Helvetica,sans-Serif" font-size="10.00">tlz::encode_mat</text>
</a>
</g>
</g>
<!-- Node19&#45;&gt;Node20 -->
<g id="edge29" class="edge"><title>Node19&#45;&gt;Node20</title>
<path fill="none" stroke="midnightblue" d="M183.051,-24.1196C197.209,-22.0362 212.473,-19.7899 226.571,-17.7153"/>
<polygon fill="midnightblue" stroke="midnightblue" points="227.214,-21.1584 236.598,-16.2397 226.195,-14.233 227.214,-21.1584"/>
</g>
<!-- Node21 -->
<g id="node21" class="node"><title>Node21</title>
<g id="a_node21"><a xlink:href="namespacetlz.html#a7b27ca69fad329b4a00aceee41d2962b" target="_top" xlink:title="tlz::encode_mat_">
<polygon fill="white" stroke="black" points="377,-0.5 377,-19.5 469,-19.5 469,-0.5 377,-0.5"/>
<text text-anchor="middle" x="423" y="-7.5" font-family="Helvetica,sans-Serif" font-size="10.00">tlz::encode_mat_</text>
</a>
</g>
</g>
<!-- Node20&#45;&gt;Node21 -->
<g id="edge30" class="edge"><title>Node20&#45;&gt;Node21</title>
<path fill="none" stroke="midnightblue" d="M323.305,-10C336.882,-10 352.129,-10 366.504,-10"/>
<polygon fill="midnightblue" stroke="midnightblue" points="366.781,-13.5001 376.781,-10 366.781,-6.5001 366.781,-13.5001"/>
</g>
</g>
</svg>
