<?xml version="1.0" encoding="UTF-8" standalone="no"?>
<!DOCTYPE svg PUBLIC "-//W3C//DTD SVG 1.1//EN"
 "http://www.w3.org/Graphics/SVG/1.1/DTD/svg11.dtd">
<!-- Generated by graphviz version 2.38.0 (20140413.2041)
 -->
<!-- Title: main Pages: 1 -->
<svg width="656pt" height="408pt"
 viewBox="0.00 0.00 656.00 408.00" xmlns="http://www.w3.org/2000/svg" xmlns:xlink="http://www.w3.org/1999/xlink">
<g id="graph0" class="graph" transform="scale(1 1) rotate(0) translate(4 404)">
<title>main</title>
<polygon fill="white" stroke="none" points="-4,4 -4,-404 652,-404 652,4 -4,4"/>
<!-- Node1 -->
<g id="node1" class="node"><title>Node1</title>
<polygon fill="#bfbfbf" stroke="black" points="0,-190.5 0,-209.5 38,-209.5 38,-190.5 0,-190.5"/>
<text text-anchor="middle" x="19" y="-197.5" font-family="Helvetica,sans-Serif" font-size="10.00">main</text>
</g>
<!-- Node2 -->
<g id="node2" class="node"><title>Node2</title>
<g id="a_node2"><a xlink:href="namespacetlz.html#a3c03f5d9d6261ec2909938822fc47f8a" target="_top" xlink:title="tlz::get_args">
<polygon fill="white" stroke="black" points="94,-380.5 94,-399.5 165,-399.5 165,-380.5 94,-380.5"/>
<text text-anchor="middle" x="129.5" y="-387.5" font-family="Helvetica,sans-Serif" font-size="10.00">tlz::get_args</text>
</a>
</g>
</g>
<!-- Node1&#45;&gt;Node2 -->
<g id="edge1" class="edge"><title>Node1&#45;&gt;Node2</title>
<path fill="none" stroke="midnightblue" d="M20.1774,-209.625C21.2291,-238.264 28.2421,-323.869 74,-371 77.1475,-374.242 80.8772,-376.931 84.8863,-379.162"/>
<polygon fill="midnightblue" stroke="midnightblue" points="83.444,-382.351 93.9916,-383.35 86.369,-375.992 83.444,-382.351"/>
</g>
<!-- Node3 -->
<g id="node3" class="node"><title>Node3</title>
<g id="a_node3"><a xlink:href="namespacetlz.html#aea648783e0ac6c50afae30a01cfc260d" target="_top" xlink:title="tlz::enum_arg">
<polygon fill="white" stroke="black" points="244,-266.5 244,-285.5 320,-285.5 320,-266.5 244,-266.5"/>
<text text-anchor="middle" x="282" y="-273.5" font-family="Helvetica,sans-Serif" font-size="10.00">tlz::enum_arg</text>
</a>
</g>
</g>
<!-- Node1&#45;&gt;Node3 -->
<g id="edge2" class="edge"><title>Node1&#45;&gt;Node3</title>
<path fill="none" stroke="midnightblue" d="M22.0598,-209.511C26.9851,-229.611 41.5326,-276.109 74,-295 129.445,-327.26 207.69,-305.562 250.344,-289.283"/>
<polygon fill="midnightblue" stroke="midnightblue" points="251.878,-292.44 259.886,-285.502 249.3,-285.932 251.878,-292.44"/>
</g>
<!-- Node8 -->
<g id="node8" class="node"><title>Node8</title>
<g id="a_node8"><a xlink:href="namespacetlz.html#a634de7ca11e100e4a118dffe80376a75" target="_top" xlink:title="tlz::in_filename_arg">
<polygon fill="white" stroke="black" points="79,-342.5 79,-361.5 180,-361.5 180,-342.5 79,-342.5"/>
<text text-anchor="middle" x="129.5" y="-349.5" font-family="Helvetica,sans-Serif" font-size="10.00">tlz::in_filename_arg</text>
</a>
</g>
</g>
<!-- Node1&#45;&gt;Node8 -->
<g id="edge8" class="edge"><title>Node1&#45;&gt;Node8</title>
<path fill="none" stroke="midnightblue" d="M21.5684,-209.701C25.8219,-233.067 39.6502,-293.11 74,-328 77.7128,-331.771 82.1197,-334.994 86.7948,-337.736"/>
<polygon fill="midnightblue" stroke="midnightblue" points="85.5057,-341.008 96.0038,-342.437 88.6883,-334.773 85.5057,-341.008"/>
</g>
<!-- Node11 -->
<g id="node11" class="node"><title>Node11</title>
<g id="a_node11"><a xlink:href="namespacetlz.html#a066563a26e2de02f215b179f3d3a53da" target="_top" xlink:title="tlz::decode_mat">
<polygon fill="white" stroke="black" points="86.5,-266.5 86.5,-285.5 172.5,-285.5 172.5,-266.5 86.5,-266.5"/>
<text text-anchor="middle" x="129.5" y="-273.5" font-family="Helvetica,sans-Serif" font-size="10.00">tlz::decode_mat</text>
</a>
</g>
</g>
<!-- Node1&#45;&gt;Node11 -->
<g id="edge15" class="edge"><title>Node1&#45;&gt;Node11</title>
<path fill="none" stroke="midnightblue" d="M26.941,-209.834C36.2931,-222.418 54.0816,-244.122 74,-257 77.0845,-258.994 80.4031,-260.807 83.8256,-262.449"/>
<polygon fill="midnightblue" stroke="midnightblue" points="82.4682,-265.675 93.0378,-266.406 85.2307,-259.243 82.4682,-265.675"/>
</g>
<!-- Node12 -->
<g id="node12" class="node"><title>Node12</title>
<g id="a_node12"><a xlink:href="namespacetlz.html#aa1be9362f548fcf9378e1fc9074089c4" target="_top" xlink:title="tlz::import_json_file">
<polygon fill="white" stroke="black" points="79,-228.5 79,-247.5 180,-247.5 180,-228.5 79,-228.5"/>
<text text-anchor="middle" x="129.5" y="-235.5" font-family="Helvetica,sans-Serif" font-size="10.00">tlz::import_json_file</text>
</a>
</g>
</g>
<!-- Node1&#45;&gt;Node12 -->
<g id="edge16" class="edge"><title>Node1&#45;&gt;Node12</title>
<path fill="none" stroke="midnightblue" d="M38.4898,-206.52C48.9155,-210.193 62.1815,-214.861 74,-219 79.6343,-220.973 85.598,-223.057 91.4325,-225.093"/>
<polygon fill="midnightblue" stroke="midnightblue" points="90.4538,-228.459 101.049,-228.447 92.7589,-221.849 90.4538,-228.459"/>
</g>
<!-- Node13 -->
<g id="node13" class="node"><title>Node13</title>
<g id="a_node13"><a xlink:href="namespacetlz.html#ad15709c59127deda12dbfd6bc4518a07" target="_top" xlink:title="tlz::to_euler">
<polygon fill="white" stroke="black" points="95.5,-114.5 95.5,-133.5 163.5,-133.5 163.5,-114.5 95.5,-114.5"/>
<text text-anchor="middle" x="129.5" y="-121.5" font-family="Helvetica,sans-Serif" font-size="10.00">tlz::to_euler</text>
</a>
</g>
</g>
<!-- Node1&#45;&gt;Node13 -->
<g id="edge17" class="edge"><title>Node1&#45;&gt;Node13</title>
<path fill="none" stroke="midnightblue" d="M28.318,-190.108C38.2588,-178.766 55.8394,-160.177 74,-148 79.7116,-144.17 86.1345,-140.71 92.5134,-137.687"/>
<polygon fill="midnightblue" stroke="midnightblue" points="94.0294,-140.843 101.74,-133.577 91.1809,-134.449 94.0294,-140.843"/>
</g>
<!-- Node15 -->
<g id="node15" class="node"><title>Node15</title>
<g id="a_node15"><a xlink:href="namespacetlz.html#a65770a2c1ff57c5ae6542d4465a3d3f4" target="_top" xlink:title="tlz::out_filename_arg">
<polygon fill="white" stroke="black" points="76,-190.5 76,-209.5 183,-209.5 183,-190.5 76,-190.5"/>
<text text-anchor="middle" x="129.5" y="-197.5" font-family="Helvetica,sans-Serif" font-size="10.00">tlz::out_filename_arg</text>
</a>
</g>
</g>
<!-- Node1&#45;&gt;Node15 -->
<g id="edge19" class="edge"><title>Node1&#45;&gt;Node15</title>
<path fill="none" stroke="midnightblue" d="M38.4055,-200C46.2049,-200 55.7933,-200 65.7742,-200"/>
<polygon fill="midnightblue" stroke="midnightblue" points="65.8342,-203.5 75.8342,-200 65.8342,-196.5 65.8342,-203.5"/>
</g>
<!-- Node16 -->
<g id="node16" class="node"><title>Node16</title>
<g id="a_node16"><a xlink:href="namespacetlz.html#a63246890b0c946b5f62a1d3e2bea6103" target="_top" xlink:title="tlz::real_arg">
<polygon fill="white" stroke="black" points="248,-190.5 248,-209.5 316,-209.5 316,-190.5 248,-190.5"/>
<text text-anchor="middle" x="282" y="-197.5" font-family="Helvetica,sans-Serif" font-size="10.00">tlz::real_arg</text>
</a>
</g>
</g>
<!-- Node1&#45;&gt;Node16 -->
<g id="edge21" class="edge"><title>Node1&#45;&gt;Node16</title>
<path fill="none" stroke="midnightblue" d="M38.0835,-191.908C48.3821,-187.744 61.6564,-183.108 74,-181 130.197,-171.402 195.862,-180.885 237.91,-189.554"/>
<polygon fill="midnightblue" stroke="midnightblue" points="237.3,-193.003 247.811,-191.671 238.764,-186.157 237.3,-193.003"/>
</g>
<!-- Node17 -->
<g id="node17" class="node"><title>Node17</title>
<g id="a_node17"><a xlink:href="namespacetlz.html#aa97786c6fc9e60663efcaa490eb3181f" target="_top" xlink:title="tlz::to_rotation_matrix">
<polygon fill="white" stroke="black" points="74,-76.5 74,-95.5 185,-95.5 185,-76.5 74,-76.5"/>
<text text-anchor="middle" x="129.5" y="-83.5" font-family="Helvetica,sans-Serif" font-size="10.00">tlz::to_rotation_matrix</text>
</a>
</g>
</g>
<!-- Node1&#45;&gt;Node17 -->
<g id="edge25" class="edge"><title>Node1&#45;&gt;Node17</title>
<path fill="none" stroke="midnightblue" d="M22.8958,-190.423C29.124,-171.406 45.5791,-128.682 74,-105 76.0208,-103.316 78.2001,-101.778 80.4844,-100.373"/>
<polygon fill="midnightblue" stroke="midnightblue" points="82.4369,-103.303 89.7005,-95.5901 79.2124,-97.09 82.4369,-103.303"/>
</g>
<!-- Node18 -->
<g id="node18" class="node"><title>Node18</title>
<g id="a_node18"><a xlink:href="namespacetlz.html#ab98de0b10e3e079dee189f81adc638a0" target="_top" xlink:title="tlz::export_json_file">
<polygon fill="white" stroke="black" points="79,-38.5 79,-57.5 180,-57.5 180,-38.5 79,-38.5"/>
<text text-anchor="middle" x="129.5" y="-45.5" font-family="Helvetica,sans-Serif" font-size="10.00">tlz::export_json_file</text>
</a>
</g>
</g>
<!-- Node1&#45;&gt;Node18 -->
<g id="edge26" class="edge"><title>Node1&#45;&gt;Node18</title>
<path fill="none" stroke="midnightblue" d="M21.1678,-190.459C24.6222,-166.314 36.9796,-102.206 74,-67 75.6519,-65.4291 77.4406,-63.9873 79.3288,-62.6641"/>
<polygon fill="midnightblue" stroke="midnightblue" points="81.214,-65.6173 88.1283,-57.5896 77.717,-59.5533 81.214,-65.6173"/>
</g>
<!-- Node20 -->
<g id="node20" class="node"><title>Node20</title>
<g id="a_node20"><a xlink:href="namespacetlz.html#acf7ca4ee1b750cf31a40170bea887d46" target="_top" xlink:title="tlz::encode_mat">
<polygon fill="white" stroke="black" points="86.5,-0.5 86.5,-19.5 172.5,-19.5 172.5,-0.5 86.5,-0.5"/>
<text text-anchor="middle" x="129.5" y="-7.5" font-family="Helvetica,sans-Serif" font-size="10.00">tlz::encode_mat</text>
</a>
</g>
</g>
<!-- Node1&#45;&gt;Node20 -->
<g id="edge28" class="edge"><title>Node1&#45;&gt;Node20</title>
<path fill="none" stroke="midnightblue" d="M20.1774,-190.375C21.2291,-161.736 28.2421,-76.1313 74,-29 75.4134,-27.5441 76.9443,-26.1997 78.5651,-24.9582"/>
<polygon fill="midnightblue" stroke="midnightblue" points="80.6227,-27.8012 87.2921,-19.5689 76.9447,-21.8453 80.6227,-27.8012"/>
</g>
<!-- Node4 -->
<g id="node4" class="node"><title>Node4</title>
<g id="a_node4"><a xlink:href="namespacetlz.html#a780431daab8d2595372eacb43143b52d" target="_top" xlink:title="tlz::args">
<polygon fill="white" stroke="black" points="409.5,-266.5 409.5,-285.5 461.5,-285.5 461.5,-266.5 409.5,-266.5"/>
<text text-anchor="middle" x="435.5" y="-273.5" font-family="Helvetica,sans-Serif" font-size="10.00">tlz::args</text>
</a>
</g>
</g>
<!-- Node3&#45;&gt;Node4 -->
<g id="edge3" class="edge"><title>Node3&#45;&gt;Node4</title>
<path fill="none" stroke="midnightblue" d="M320.061,-276C344.174,-276 375.438,-276 399.193,-276"/>
<polygon fill="midnightblue" stroke="midnightblue" points="399.198,-279.5 409.198,-276 399.198,-272.5 399.198,-279.5"/>
</g>
<!-- Node5 -->
<g id="node5" class="node"><title>Node5</title>
<g id="a_node5"><a xlink:href="classtlz_1_1args__list.html#a73d99bc75998dc14607a3a372d28dc6d" target="_top" xlink:title="tlz::args_list::next_arg">
<polygon fill="white" stroke="black" points="379,-228.5 379,-247.5 492,-247.5 492,-228.5 379,-228.5"/>
<text text-anchor="middle" x="435.5" y="-235.5" font-family="Helvetica,sans-Serif" font-size="10.00">tlz::args_list::next_arg</text>
</a>
</g>
</g>
<!-- Node3&#45;&gt;Node5 -->
<g id="edge4" class="edge"><title>Node3&#45;&gt;Node5</title>
<path fill="none" stroke="midnightblue" d="M320.061,-266.704C340.101,-261.678 365.08,-255.412 386.583,-250.019"/>
<polygon fill="midnightblue" stroke="midnightblue" points="387.657,-253.358 396.505,-247.53 385.954,-246.568 387.657,-253.358"/>
</g>
<!-- Node6 -->
<g id="node6" class="node"><title>Node6</title>
<g id="a_node6"><a xlink:href="classtlz_1_1args__list.html#a38ad21acd64a4af98ffdf4a47837cdbe" target="_top" xlink:title="tlz::args_list::usage_fail">
<polygon fill="white" stroke="black" points="528,-285.5 528,-304.5 648,-304.5 648,-285.5 528,-285.5"/>
<text text-anchor="middle" x="588" y="-292.5" font-family="Helvetica,sans-Serif" font-size="10.00">tlz::args_list::usage_fail</text>
</a>
</g>
</g>
<!-- Node3&#45;&gt;Node6 -->
<g id="edge7" class="edge"><title>Node3&#45;&gt;Node6</title>
<path fill="none" stroke="midnightblue" d="M320.132,-285.107C337.836,-288.996 359.386,-293.078 379,-295 425.052,-299.513 477.116,-299.509 517.635,-298.378"/>
<polygon fill="midnightblue" stroke="midnightblue" points="517.789,-301.875 527.677,-298.068 517.574,-294.878 517.789,-301.875"/>
</g>
<!-- Node5&#45;&gt;Node6 -->
<g id="edge5" class="edge"><title>Node5&#45;&gt;Node6</title>
<path fill="none" stroke="midnightblue" d="M465.404,-247.585C473.995,-250.518 483.406,-253.813 492,-257 513.035,-264.802 536.438,-274.155 554.752,-281.63"/>
<polygon fill="midnightblue" stroke="midnightblue" points="553.51,-284.903 564.09,-285.458 556.165,-278.426 553.51,-284.903"/>
</g>
<!-- Node7 -->
<g id="node7" class="node"><title>Node7</title>
<g id="a_node7"><a xlink:href="namespacetlz.html#a8e4f8c8c2927bc4350de13bfa0f8f9e1" target="_top" xlink:title="tlz::to_string">
<polygon fill="white" stroke="black" points="552.5,-228.5 552.5,-247.5 623.5,-247.5 623.5,-228.5 552.5,-228.5"/>
<text text-anchor="middle" x="588" y="-235.5" font-family="Helvetica,sans-Serif" font-size="10.00">tlz::to_string</text>
</a>
</g>
</g>
<!-- Node5&#45;&gt;Node7 -->
<g id="edge6" class="edge"><title>Node5&#45;&gt;Node7</title>
<path fill="none" stroke="midnightblue" d="M492.113,-238C508.441,-238 526.096,-238 541.698,-238"/>
<polygon fill="midnightblue" stroke="midnightblue" points="542.13,-241.5 552.13,-238 542.129,-234.5 542.13,-241.5"/>
</g>
<!-- Node8&#45;&gt;Node4 -->
<g id="edge13" class="edge"><title>Node8&#45;&gt;Node4</title>
<path fill="none" stroke="midnightblue" d="M168.694,-342.452C228.144,-327.589 341.939,-299.14 399.423,-284.769"/>
<polygon fill="midnightblue" stroke="midnightblue" points="400.623,-288.077 409.475,-282.256 398.925,-281.286 400.623,-288.077"/>
</g>
<!-- Node8&#45;&gt;Node6 -->
<g id="edge14" class="edge"><title>Node8&#45;&gt;Node6</title>
<path fill="none" stroke="midnightblue" d="M167.214,-361.509C183.557,-365.274 203.115,-369.143 221,-371 274.932,-376.6 289.395,-379.155 343,-371 421.257,-359.095 508.945,-326.871 554.91,-308.432"/>
<polygon fill="midnightblue" stroke="midnightblue" points="556.383,-311.611 564.334,-304.609 553.752,-305.125 556.383,-311.611"/>
</g>
<!-- Node9 -->
<g id="node9" class="node"><title>Node9</title>
<g id="a_node9"><a xlink:href="namespacetlz.html#a0621d598fb83b13bf028f3e6293d04f8" target="_top" xlink:title="tlz::string_arg">
<polygon fill="white" stroke="black" points="244,-228.5 244,-247.5 320,-247.5 320,-228.5 244,-228.5"/>
<text text-anchor="middle" x="282" y="-235.5" font-family="Helvetica,sans-Serif" font-size="10.00">tlz::string_arg</text>
</a>
</g>
</g>
<!-- Node8&#45;&gt;Node9 -->
<g id="edge9" class="edge"><title>Node8&#45;&gt;Node9</title>
<path fill="none" stroke="midnightblue" d="M139.771,-342.331C150.627,-331.003 169.142,-311.662 185,-295 201.039,-278.148 201.283,-269.349 221,-257 225.124,-254.417 229.628,-252.158 234.256,-250.188"/>
<polygon fill="midnightblue" stroke="midnightblue" points="235.745,-253.367 243.847,-246.54 233.256,-246.824 235.745,-253.367"/>
</g>
<!-- Node10 -->
<g id="node10" class="node"><title>Node10</title>
<g id="a_node10"><a xlink:href="namespacetlz.html#abb019466ea9f56c0dab27e893d891837" target="_top" xlink:title="tlz::file_exists">
<polygon fill="white" stroke="black" points="243.5,-342.5 243.5,-361.5 320.5,-361.5 320.5,-342.5 243.5,-342.5"/>
<text text-anchor="middle" x="282" y="-349.5" font-family="Helvetica,sans-Serif" font-size="10.00">tlz::file_exists</text>
</a>
</g>
</g>
<!-- Node8&#45;&gt;Node10 -->
<g id="edge12" class="edge"><title>Node8&#45;&gt;Node10</title>
<path fill="none" stroke="midnightblue" d="M180.196,-352C197.213,-352 216.209,-352 233.082,-352"/>
<polygon fill="midnightblue" stroke="midnightblue" points="233.277,-355.5 243.277,-352 233.277,-348.5 233.277,-355.5"/>
</g>
<!-- Node9&#45;&gt;Node4 -->
<g id="edge10" class="edge"><title>Node9&#45;&gt;Node4</title>
<path fill="none" stroke="midnightblue" d="M320.061,-247.296C344.174,-253.344 375.438,-261.186 399.193,-267.144"/>
<polygon fill="midnightblue" stroke="midnightblue" points="398.647,-270.616 409.198,-269.654 400.35,-263.826 398.647,-270.616"/>
</g>
<!-- Node9&#45;&gt;Node5 -->
<g id="edge11" class="edge"><title>Node9&#45;&gt;Node5</title>
<path fill="none" stroke="midnightblue" d="M320.061,-238C334.715,-238 352.009,-238 368.655,-238"/>
<polygon fill="midnightblue" stroke="midnightblue" points="368.905,-241.5 378.905,-238 368.905,-234.5 368.905,-241.5"/>
</g>
<!-- Node14 -->
<g id="node14" class="node"><title>Node14</title>
<g id="a_node14"><a xlink:href="namespacetlz.html#a6eb3653f0e3dd7efcb6a620f9643492a" target="_top" xlink:title="tlz::is_orthogonal\l_matrix">
<polygon fill="white" stroke="black" points="236.5,-109 236.5,-139 327.5,-139 327.5,-109 236.5,-109"/>
<text text-anchor="start" x="244.5" y="-127" font-family="Helvetica,sans-Serif" font-size="10.00">tlz::is_orthogonal</text>
<text text-anchor="middle" x="282" y="-116" font-family="Helvetica,sans-Serif" font-size="10.00">_matrix</text>
</a>
</g>
</g>
<!-- Node13&#45;&gt;Node14 -->
<g id="edge18" class="edge"><title>Node13&#45;&gt;Node14</title>
<path fill="none" stroke="midnightblue" d="M163.528,-124C181.895,-124 205.223,-124 226.243,-124"/>
<polygon fill="midnightblue" stroke="midnightblue" points="226.344,-127.5 236.344,-124 226.344,-120.5 226.344,-127.5"/>
</g>
<!-- Node15&#45;&gt;Node9 -->
<g id="edge20" class="edge"><title>Node15&#45;&gt;Node9</title>
<path fill="none" stroke="midnightblue" d="M168.478,-209.589C188.398,-214.619 212.982,-220.826 234.084,-226.154"/>
<polygon fill="midnightblue" stroke="midnightblue" points="233.263,-229.557 243.816,-228.611 234.977,-222.77 233.263,-229.557"/>
</g>
<!-- Node16&#45;&gt;Node4 -->
<g id="edge22" class="edge"><title>Node16&#45;&gt;Node4</title>
<path fill="none" stroke="midnightblue" d="M316.076,-207.214C325.215,-210.056 334.851,-213.896 343,-219 362.717,-231.349 359.428,-244.424 379,-257 385.303,-261.05 392.566,-264.341 399.718,-266.975"/>
<polygon fill="midnightblue" stroke="midnightblue" points="398.706,-270.327 409.299,-270.17 400.92,-263.687 398.706,-270.327"/>
</g>
<!-- Node16&#45;&gt;Node5 -->
<g id="edge23" class="edge"><title>Node16&#45;&gt;Node5</title>
<path fill="none" stroke="midnightblue" d="M316.247,-208.339C336.885,-213.516 363.746,-220.253 386.651,-225.998"/>
<polygon fill="midnightblue" stroke="midnightblue" points="385.976,-229.437 396.527,-228.475 387.679,-222.648 385.976,-229.437"/>
</g>
<!-- Node16&#45;&gt;Node6 -->
<g id="edge24" class="edge"><title>Node16&#45;&gt;Node6</title>
<path fill="none" stroke="midnightblue" d="M316.036,-196.085C358.905,-192.501 434.958,-191.337 492,-219 512.933,-229.151 510.092,-242.15 528,-257 538.155,-265.421 550.275,-273.517 560.881,-280.056"/>
<polygon fill="midnightblue" stroke="midnightblue" points="559.35,-283.219 569.724,-285.371 562.956,-277.219 559.35,-283.219"/>
</g>
<!-- Node19 -->
<g id="node19" class="node"><title>Node19</title>
<g id="a_node19"><a xlink:href="namespacetlz.html#ae11c827ac9e581f9d2f98c39aab3750d" target="_top" xlink:title="tlz::file_name_extension">
<polygon fill="white" stroke="black" points="221,-38.5 221,-57.5 343,-57.5 343,-38.5 221,-38.5"/>
<text text-anchor="middle" x="282" y="-45.5" font-family="Helvetica,sans-Serif" font-size="10.00">tlz::file_name_extension</text>
</a>
</g>
</g>
<!-- Node18&#45;&gt;Node19 -->
<g id="edge27" class="edge"><title>Node18&#45;&gt;Node19</title>
<path fill="none" stroke="midnightblue" d="M180.196,-48C189.957,-48 200.369,-48 210.657,-48"/>
<polygon fill="midnightblue" stroke="midnightblue" points="210.876,-51.5001 220.876,-48 210.876,-44.5001 210.876,-51.5001"/>
</g>
<!-- Node21 -->
<g id="node21" class="node"><title>Node21</title>
<g id="a_node21"><a xlink:href="namespacetlz.html#a7b27ca69fad329b4a00aceee41d2962b" target="_top" xlink:title="tlz::encode_mat_">
<polygon fill="white" stroke="black" points="236,-0.5 236,-19.5 328,-19.5 328,-0.5 236,-0.5"/>
<text text-anchor="middle" x="282" y="-7.5" font-family="Helvetica,sans-Serif" font-size="10.00">tlz::encode_mat_</text>
</a>
</g>
</g>
<!-- Node20&#45;&gt;Node21 -->
<g id="edge29" class="edge"><title>Node20&#45;&gt;Node21</title>
<path fill="none" stroke="midnightblue" d="M172.823,-10C189.248,-10 208.281,-10 225.76,-10"/>
<polygon fill="midnightblue" stroke="midnightblue" points="225.84,-13.5001 235.84,-10 225.84,-6.5001 225.84,-13.5001"/>
</g>
</g>
</svg>
