<?xml version="1.0" encoding="UTF-8" standalone="no"?>
<!DOCTYPE svg PUBLIC "-//W3C//DTD SVG 1.1//EN"
 "http://www.w3.org/Graphics/SVG/1.1/DTD/svg11.dtd">
<!-- Generated by graphviz version 2.38.0 (20140413.2041)
 -->
<!-- Title: main Pages: 1 -->
<svg width="952pt" height="759pt"
 viewBox="0.00 0.00 952.00 759.00" xmlns="http://www.w3.org/2000/svg" xmlns:xlink="http://www.w3.org/1999/xlink">
<g id="graph0" class="graph" transform="scale(1 1) rotate(0) translate(4 755)">
<title>main</title>
<polygon fill="white" stroke="none" points="-4,4 -4,-755 948,-755 948,4 -4,4"/>
<!-- Node1 -->
<g id="node1" class="node"><title>Node1</title>
<polygon fill="#bfbfbf" stroke="black" points="0,-339.5 0,-358.5 38,-358.5 38,-339.5 0,-339.5"/>
<text text-anchor="middle" x="19" y="-346.5" font-family="Helvetica,sans-Serif" font-size="10.00">main</text>
</g>
<!-- Node2 -->
<g id="node2" class="node"><title>Node2</title>
<g id="a_node2"><a xlink:href="namespacetlz.html#a3c03f5d9d6261ec2909938822fc47f8a" target="_top" xlink:title="tlz::get_args">
<polygon fill="white" stroke="black" points="102,-731.5 102,-750.5 173,-750.5 173,-731.5 102,-731.5"/>
<text text-anchor="middle" x="137.5" y="-738.5" font-family="Helvetica,sans-Serif" font-size="10.00">tlz::get_args</text>
</a>
</g>
</g>
<!-- Node1&#45;&gt;Node2 -->
<g id="edge1" class="edge"><title>Node1&#45;&gt;Node2</title>
<path fill="none" stroke="midnightblue" d="M20.1397,-358.833C21.0747,-411.441 27.9025,-659.4 74,-717 78.7934,-722.989 85.2693,-727.486 92.2418,-730.861"/>
<polygon fill="midnightblue" stroke="midnightblue" points="91.3639,-734.282 101.946,-734.803 93.9985,-727.797 91.3639,-734.282"/>
</g>
<!-- Node3 -->
<g id="node3" class="node"><title>Node3</title>
<g id="a_node3"><a xlink:href="namespacetlz.html#a91f1aec7120c97452c495ee447e56b57" target="_top" xlink:title="tlz::dataset_arg">
<polygon fill="white" stroke="black" points="249.5,-453.5 249.5,-472.5 333.5,-472.5 333.5,-453.5 249.5,-453.5"/>
<text text-anchor="middle" x="291.5" y="-460.5" font-family="Helvetica,sans-Serif" font-size="10.00">tlz::dataset_arg</text>
</a>
</g>
</g>
<!-- Node1&#45;&gt;Node3 -->
<g id="edge2" class="edge"><title>Node1&#45;&gt;Node3</title>
<path fill="none" stroke="midnightblue" d="M22.6427,-358.627C28.4157,-377.637 44.0928,-419.814 74,-439 123.419,-470.703 192.527,-472.779 239.265,-469.504"/>
<polygon fill="midnightblue" stroke="midnightblue" points="239.781,-472.974 249.467,-468.679 239.217,-465.996 239.781,-472.974"/>
</g>
<!-- Node10 -->
<g id="node10" class="node"><title>Node10</title>
<g id="a_node10"><a xlink:href="namespacetlz.html#abb019466ea9f56c0dab27e893d891837" target="_top" xlink:title="tlz::file_exists">
<polygon fill="white" stroke="black" points="540.5,-491.5 540.5,-510.5 617.5,-510.5 617.5,-491.5 540.5,-491.5"/>
<text text-anchor="middle" x="579" y="-498.5" font-family="Helvetica,sans-Serif" font-size="10.00">tlz::file_exists</text>
</a>
</g>
</g>
<!-- Node1&#45;&gt;Node10 -->
<g id="edge53" class="edge"><title>Node1&#45;&gt;Node10</title>
<path fill="none" stroke="midnightblue" d="M21.1491,-358.772C24.4718,-382.167 36.3897,-441.419 74,-468 146.406,-519.173 418.923,-510.09 530.214,-504.017"/>
<polygon fill="midnightblue" stroke="midnightblue" points="530.68,-507.497 540.468,-503.441 530.288,-500.508 530.68,-507.497"/>
</g>
<!-- Node11 -->
<g id="node11" class="node"><title>Node11</title>
<g id="a_node11"><a xlink:href="namespacetlz.html#af0d1e8ba5b9f2dbc2b589afab3a21fc8" target="_top" xlink:title="tlz::int_arg">
<polygon fill="white" stroke="black" points="548,-605.5 548,-624.5 610,-624.5 610,-605.5 548,-605.5"/>
<text text-anchor="middle" x="579" y="-612.5" font-family="Helvetica,sans-Serif" font-size="10.00">tlz::int_arg</text>
</a>
</g>
</g>
<!-- Node1&#45;&gt;Node11 -->
<g id="edge12" class="edge"><title>Node1&#45;&gt;Node11</title>
<path fill="none" stroke="midnightblue" d="M20.8566,-358.546C24.6724,-399.014 41.3858,-555.932 74,-591 198.869,-725.264 301.785,-672.933 483,-645 504.202,-641.732 527.159,-634.588 545.194,-628.092"/>
<polygon fill="midnightblue" stroke="midnightblue" points="546.507,-631.338 554.665,-624.578 544.072,-624.775 546.507,-631.338"/>
</g>
<!-- Node12 -->
<g id="node12" class="node"><title>Node12</title>
<g id="a_node12"><a xlink:href="namespacetlz.html#a63246890b0c946b5f62a1d3e2bea6103" target="_top" xlink:title="tlz::real_arg">
<polygon fill="white" stroke="black" points="545,-415.5 545,-434.5 613,-434.5 613,-415.5 545,-415.5"/>
<text text-anchor="middle" x="579" y="-422.5" font-family="Helvetica,sans-Serif" font-size="10.00">tlz::real_arg</text>
</a>
</g>
</g>
<!-- Node1&#45;&gt;Node12 -->
<g id="edge16" class="edge"><title>Node1&#45;&gt;Node12</title>
<path fill="none" stroke="midnightblue" d="M25.828,-358.864C34.4229,-372.346 51.895,-395.994 74,-406 155.542,-442.91 428.279,-432.985 534.828,-427.49"/>
<polygon fill="midnightblue" stroke="midnightblue" points="535.105,-430.98 544.906,-426.957 534.736,-423.99 535.105,-430.98"/>
</g>
<!-- Node13 -->
<g id="node13" class="node"><title>Node13</title>
<g id="a_node13"><a xlink:href="namespacetlz.html#a170805c7a8ede64a93e0ee23196e5b7c" target="_top" xlink:title="tlz::intrinsics_arg">
<polygon fill="white" stroke="black" points="92,-377.5 92,-396.5 183,-396.5 183,-377.5 92,-377.5"/>
<text text-anchor="middle" x="137.5" y="-384.5" font-family="Helvetica,sans-Serif" font-size="10.00">tlz::intrinsics_arg</text>
</a>
</g>
</g>
<!-- Node1&#45;&gt;Node13 -->
<g id="edge20" class="edge"><title>Node1&#45;&gt;Node13</title>
<path fill="none" stroke="midnightblue" d="M38.4271,-355.705C48.8331,-359.436 62.1005,-364.1 74,-368 80.5167,-370.136 87.4419,-372.323 94.219,-374.418"/>
<polygon fill="midnightblue" stroke="midnightblue" points="93.3911,-377.824 103.978,-377.404 95.4395,-371.131 93.3911,-377.824"/>
</g>
<!-- Node20 -->
<g id="node20" class="node"><title>Node20</title>
<g id="a_node20"><a xlink:href="namespacetlz.html#a65770a2c1ff57c5ae6542d4465a3d3f4" target="_top" xlink:title="tlz::out_filename_arg">
<polygon fill="white" stroke="black" points="238,-611.5 238,-630.5 345,-630.5 345,-611.5 238,-611.5"/>
<text text-anchor="middle" x="291.5" y="-618.5" font-family="Helvetica,sans-Serif" font-size="10.00">tlz::out_filename_arg</text>
</a>
</g>
</g>
<!-- Node1&#45;&gt;Node20 -->
<g id="edge29" class="edge"><title>Node1&#45;&gt;Node20</title>
<path fill="none" stroke="midnightblue" d="M19.6955,-358.694C19.2471,-390.159 22.1352,-490.597 74,-546 113.846,-588.564 179.037,-606.974 227.488,-614.936"/>
<polygon fill="midnightblue" stroke="midnightblue" points="227.142,-618.424 237.557,-616.481 228.204,-611.505 227.142,-618.424"/>
</g>
<!-- Node21 -->
<g id="node21" class="node"><title>Node21</title>
<g id="a_node21"><a xlink:href="namespacetlz.html#a8d3380a8873e542207e21a4384957425" target="_top" xlink:title="tlz::string_opt_arg">
<polygon fill="white" stroke="black" points="244,-529.5 244,-548.5 339,-548.5 339,-529.5 244,-529.5"/>
<text text-anchor="middle" x="291.5" y="-536.5" font-family="Helvetica,sans-Serif" font-size="10.00">tlz::string_opt_arg</text>
</a>
</g>
</g>
<!-- Node1&#45;&gt;Node21 -->
<g id="edge31" class="edge"><title>Node1&#45;&gt;Node21</title>
<path fill="none" stroke="midnightblue" d="M19.8224,-358.842C19.8827,-388.036 24.4126,-474.625 74,-515 118.26,-551.037 185.582,-552.924 233.391,-548.403"/>
<polygon fill="midnightblue" stroke="midnightblue" points="234.01,-551.856 243.582,-547.315 233.267,-544.896 234.01,-551.856"/>
</g>
<!-- Node23 -->
<g id="node23" class="node"><title>Node23</title>
<g id="a_node23"><a xlink:href="classtlz_1_1dataset.html#ad7d438f87e20fd0a734aabff2e6d52a9" target="_top" xlink:title="tlz::dataset::group">
<polygon fill="white" stroke="black" points="90,-339.5 90,-358.5 185,-358.5 185,-339.5 90,-339.5"/>
<text text-anchor="middle" x="137.5" y="-346.5" font-family="Helvetica,sans-Serif" font-size="10.00">tlz::dataset::group</text>
</a>
</g>
</g>
<!-- Node1&#45;&gt;Node23 -->
<g id="edge36" class="edge"><title>Node1&#45;&gt;Node23</title>
<path fill="none" stroke="midnightblue" d="M38.2031,-349C49.4343,-349 64.5152,-349 79.4872,-349"/>
<polygon fill="midnightblue" stroke="midnightblue" points="79.7863,-352.5 89.7863,-349 79.7862,-345.5 79.7863,-352.5"/>
</g>
<!-- Node25 -->
<g id="node25" class="node"><title>Node25</title>
<g id="a_node25"><a xlink:href="classtlz_1_1dataset.html#a8214662ec50b7214c1e5993185247a0a" target="_top" xlink:title="tlz::dataset::indices">
<polygon fill="white" stroke="black" points="86.5,-175.5 86.5,-194.5 188.5,-194.5 188.5,-175.5 86.5,-175.5"/>
<text text-anchor="middle" x="137.5" y="-182.5" font-family="Helvetica,sans-Serif" font-size="10.00">tlz::dataset::indices</text>
</a>
</g>
</g>
<!-- Node1&#45;&gt;Node25 -->
<g id="edge39" class="edge"><title>Node1&#45;&gt;Node25</title>
<path fill="none" stroke="midnightblue" d="M21.0292,-339.404C24.1998,-314.465 36.0249,-246.918 74,-209 77.9583,-205.048 82.637,-201.733 87.6256,-198.956"/>
<polygon fill="midnightblue" stroke="midnightblue" points="89.3573,-202.007 96.8506,-194.517 86.322,-195.699 89.3573,-202.007"/>
</g>
<!-- Node26 -->
<g id="node26" class="node"><title>Node26</title>
<g id="a_node26"><a xlink:href="classtlz_1_1dataset__group.html#aa0c9157fd56b01adebcecdcdd98f9e3f" target="_top" xlink:title="tlz::dataset_group\l::view">
<polygon fill="white" stroke="black" points="244,-83 244,-113 339,-113 339,-83 244,-83"/>
<text text-anchor="start" x="252" y="-101" font-family="Helvetica,sans-Serif" font-size="10.00">tlz::dataset_group</text>
<text text-anchor="middle" x="291.5" y="-90" font-family="Helvetica,sans-Serif" font-size="10.00">::view</text>
</a>
</g>
</g>
<!-- Node1&#45;&gt;Node26 -->
<g id="edge40" class="edge"><title>Node1&#45;&gt;Node26</title>
<path fill="none" stroke="midnightblue" d="M21.8332,-339.202C26.4481,-317.351 40.6448,-264.411 74,-237 119.057,-199.973 156.523,-241.721 201,-204 231.045,-178.519 209.408,-151.119 237,-123 238.4,-121.573 239.898,-120.218 241.469,-118.933"/>
<polygon fill="midnightblue" stroke="midnightblue" points="243.653,-121.677 249.839,-113.076 239.639,-115.942 243.653,-121.677"/>
</g>
<!-- Node31 -->
<g id="node31" class="node"><title>Node31</title>
<g id="a_node31"><a xlink:href="classtlz_1_1dataset__view.html#af3c734eaed33af07993255db63d3fc54" target="_top" xlink:title="tlz::dataset_view::\limage_filename">
<polygon fill="white" stroke="black" points="89,-290 89,-320 186,-320 186,-290 89,-290"/>
<text text-anchor="start" x="97" y="-308" font-family="Helvetica,sans-Serif" font-size="10.00">tlz::dataset_view::</text>
<text text-anchor="middle" x="137.5" y="-297" font-family="Helvetica,sans-Serif" font-size="10.00">image_filename</text>
</a>
</g>
</g>
<!-- Node1&#45;&gt;Node31 -->
<g id="edge46" class="edge"><title>Node1&#45;&gt;Node31</title>
<path fill="none" stroke="midnightblue" d="M38.2031,-342.125C51.3782,-337.149 69.8509,-330.172 87.2307,-323.608"/>
<polygon fill="midnightblue" stroke="midnightblue" points="88.6148,-326.827 96.7331,-320.019 86.1415,-320.278 88.6148,-326.827"/>
</g>
<!-- Node34 -->
<g id="node34" class="node"><title>Node34</title>
<g id="a_node34"><a xlink:href="classtlz_1_1dataset__view.html#a38cfd9cd54168855c54c607d01184c17" target="_top" xlink:title="tlz::dataset_view::\lcamera_name">
<polygon fill="white" stroke="black" points="243,-132 243,-162 340,-162 340,-132 243,-132"/>
<text text-anchor="start" x="251" y="-150" font-family="Helvetica,sans-Serif" font-size="10.00">tlz::dataset_view::</text>
<text text-anchor="middle" x="291.5" y="-139" font-family="Helvetica,sans-Serif" font-size="10.00">camera_name</text>
</a>
</g>
</g>
<!-- Node1&#45;&gt;Node34 -->
<g id="edge51" class="edge"><title>Node1&#45;&gt;Node34</title>
<path fill="none" stroke="midnightblue" d="M25.3165,-339.216C33.7656,-324.542 51.6154,-296.865 74,-281 122.736,-246.458 155.283,-275.449 201,-237 226.274,-215.744 212.861,-194.536 237,-172 238.644,-170.465 240.399,-169.01 242.234,-167.632"/>
<polygon fill="midnightblue" stroke="midnightblue" points="244.258,-170.49 250.696,-162.075 240.416,-164.639 244.258,-170.49"/>
</g>
<!-- Node35 -->
<g id="node35" class="node"><title>Node35</title>
<g id="a_node35"><a xlink:href="namespacetlz.html#afbf92393383d3dde6ffd98700ea014f1" target="_top" xlink:title="tlz::load_texture">
<polygon fill="white" stroke="black" points="94.5,-137.5 94.5,-156.5 180.5,-156.5 180.5,-137.5 94.5,-137.5"/>
<text text-anchor="middle" x="137.5" y="-144.5" font-family="Helvetica,sans-Serif" font-size="10.00">tlz::load_texture</text>
</a>
</g>
</g>
<!-- Node1&#45;&gt;Node35 -->
<g id="edge54" class="edge"><title>Node1&#45;&gt;Node35</title>
<path fill="none" stroke="midnightblue" d="M19.8533,-339.485C19.9255,-309.515 24.3135,-216.095 74,-166 77.232,-162.741 81.004,-160.038 85.0646,-157.796"/>
<polygon fill="midnightblue" stroke="midnightblue" points="86.663,-160.915 94.317,-153.589 83.7652,-154.542 86.663,-160.915"/>
</g>
<!-- Node36 -->
<g id="node36" class="node"><title>Node36</title>
<g id="a_node36"><a xlink:href="namespacetlz.html#acc37da60bde41595da4139110c2d36e6" target="_top" xlink:title="tlz::checkerboard_world\l_corners">
<polygon fill="white" stroke="black" points="77.5,-88 77.5,-118 197.5,-118 197.5,-88 77.5,-88"/>
<text text-anchor="start" x="85.5" y="-106" font-family="Helvetica,sans-Serif" font-size="10.00">tlz::checkerboard_world</text>
<text text-anchor="middle" x="137.5" y="-95" font-family="Helvetica,sans-Serif" font-size="10.00">_corners</text>
</a>
</g>
</g>
<!-- Node1&#45;&gt;Node36 -->
<g id="edge55" class="edge"><title>Node1&#45;&gt;Node36</title>
<path fill="none" stroke="midnightblue" d="M19.4466,-339.218C18.0783,-305.465 18.0692,-192.421 74,-128 75.1588,-126.665 76.3989,-125.401 77.7065,-124.203"/>
<polygon fill="midnightblue" stroke="midnightblue" points="79.977,-126.875 85.8399,-118.05 75.7534,-121.292 79.977,-126.875"/>
</g>
<!-- Node37 -->
<g id="node37" class="node"><title>Node37</title>
<g id="a_node37"><a xlink:href="structtlz_1_1distortion__parameters.html#a96312c5d7baa4b7b1f2a76e9396037f8" target="_top" xlink:title="tlz::distortion_parameters\l::cv_coeffs">
<polygon fill="white" stroke="black" points="74,-39 74,-69 201,-69 201,-39 74,-39"/>
<text text-anchor="start" x="82" y="-57" font-family="Helvetica,sans-Serif" font-size="10.00">tlz::distortion_parameters</text>
<text text-anchor="middle" x="137.5" y="-46" font-family="Helvetica,sans-Serif" font-size="10.00">::cv_coeffs</text>
</a>
</g>
</g>
<!-- Node1&#45;&gt;Node37 -->
<g id="edge56" class="edge"><title>Node1&#45;&gt;Node37</title>
<path fill="none" stroke="midnightblue" d="M20.7154,-339.328C24.0966,-296.009 39.7616,-120.161 74,-79 75.0043,-77.7927 76.0753,-76.6433 77.2033,-75.5489"/>
<polygon fill="midnightblue" stroke="midnightblue" points="79.6935,-78.0422 85.3718,-69.0974 75.3549,-72.5489 79.6935,-78.0422"/>
</g>
<!-- Node38 -->
<g id="node38" class="node"><title>Node38</title>
<g id="a_node38"><a xlink:href="namespacetlz.html#a445f7e177edcda36ece43a5fcd78615f" target="_top" xlink:title="tlz::export_cameras_file">
<polygon fill="white" stroke="black" points="77,-0.5 77,-19.5 198,-19.5 198,-0.5 77,-0.5"/>
<text text-anchor="middle" x="137.5" y="-7.5" font-family="Helvetica,sans-Serif" font-size="10.00">tlz::export_cameras_file</text>
</a>
</g>
</g>
<!-- Node1&#45;&gt;Node38 -->
<g id="edge57" class="edge"><title>Node1&#45;&gt;Node38</title>
<path fill="none" stroke="midnightblue" d="M20.3257,-339.183C22.1232,-290.792 32.3239,-78.0586 74,-30 75.5161,-28.2517 77.1851,-26.6549 78.9732,-25.1966"/>
<polygon fill="midnightblue" stroke="midnightblue" points="81.0105,-28.0465 87.4709,-19.6493 77.184,-22.1849 81.0105,-28.0465"/>
</g>
<!-- Node4 -->
<g id="node4" class="node"><title>Node4</title>
<g id="a_node4"><a xlink:href="namespacetlz.html#a634de7ca11e100e4a118dffe80376a75" target="_top" xlink:title="tlz::in_filename_arg">
<polygon fill="white" stroke="black" points="382,-453.5 382,-472.5 483,-472.5 483,-453.5 382,-453.5"/>
<text text-anchor="middle" x="432.5" y="-460.5" font-family="Helvetica,sans-Serif" font-size="10.00">tlz::in_filename_arg</text>
</a>
</g>
</g>
<!-- Node3&#45;&gt;Node4 -->
<g id="edge3" class="edge"><title>Node3&#45;&gt;Node4</title>
<path fill="none" stroke="midnightblue" d="M333.828,-463C345.763,-463 359.031,-463 371.844,-463"/>
<polygon fill="midnightblue" stroke="midnightblue" points="371.988,-466.5 381.988,-463 371.988,-459.5 371.988,-466.5"/>
</g>
<!-- Node5 -->
<g id="node5" class="node"><title>Node5</title>
<g id="a_node5"><a xlink:href="namespacetlz.html#a0621d598fb83b13bf028f3e6293d04f8" target="_top" xlink:title="tlz::string_arg">
<polygon fill="white" stroke="black" points="541,-567.5 541,-586.5 617,-586.5 617,-567.5 541,-567.5"/>
<text text-anchor="middle" x="579" y="-574.5" font-family="Helvetica,sans-Serif" font-size="10.00">tlz::string_arg</text>
</a>
</g>
</g>
<!-- Node4&#45;&gt;Node5 -->
<g id="edge4" class="edge"><title>Node4&#45;&gt;Node5</title>
<path fill="none" stroke="midnightblue" d="M445.82,-472.72C470.667,-492.322 527.01,-536.772 557.495,-560.823"/>
<polygon fill="midnightblue" stroke="midnightblue" points="555.692,-563.859 565.711,-567.305 560.028,-558.363 555.692,-563.859"/>
</g>
<!-- Node6 -->
<g id="node6" class="node"><title>Node6</title>
<g id="a_node6"><a xlink:href="namespacetlz.html#a780431daab8d2595372eacb43143b52d" target="_top" xlink:title="tlz::args">
<polygon fill="white" stroke="black" points="705.5,-529.5 705.5,-548.5 757.5,-548.5 757.5,-529.5 705.5,-529.5"/>
<text text-anchor="middle" x="731.5" y="-536.5" font-family="Helvetica,sans-Serif" font-size="10.00">tlz::args</text>
</a>
</g>
</g>
<!-- Node4&#45;&gt;Node6 -->
<g id="edge10" class="edge"><title>Node4&#45;&gt;Node6</title>
<path fill="none" stroke="midnightblue" d="M483.398,-461.257C525.853,-461.256 587.894,-464.799 639,-482 665.887,-491.049 693.013,-509.366 710.668,-522.803"/>
<polygon fill="midnightblue" stroke="midnightblue" points="708.954,-525.905 718.986,-529.309 713.267,-520.391 708.954,-525.905"/>
</g>
<!-- Node8 -->
<g id="node8" class="node"><title>Node8</title>
<g id="a_node8"><a xlink:href="classtlz_1_1args__list.html#a38ad21acd64a4af98ffdf4a47837cdbe" target="_top" xlink:title="tlz::args_list::usage_fail">
<polygon fill="white" stroke="black" points="824,-500.5 824,-519.5 944,-519.5 944,-500.5 824,-500.5"/>
<text text-anchor="middle" x="884" y="-507.5" font-family="Helvetica,sans-Serif" font-size="10.00">tlz::args_list::usage_fail</text>
</a>
</g>
</g>
<!-- Node4&#45;&gt;Node8 -->
<g id="edge11" class="edge"><title>Node4&#45;&gt;Node8</title>
<path fill="none" stroke="midnightblue" d="M443.506,-453.372C458.482,-439.705 488.266,-415.306 519,-406 570.045,-390.545 586.169,-398.696 639,-406 707.155,-415.422 725.36,-419.538 788,-448 815.553,-460.519 844.257,-480.348 862.803,-494.2"/>
<polygon fill="midnightblue" stroke="midnightblue" points="860.725,-497.017 870.805,-500.279 864.96,-491.443 860.725,-497.017"/>
</g>
<!-- Node4&#45;&gt;Node10 -->
<g id="edge9" class="edge"><title>Node4&#45;&gt;Node10</title>
<path fill="none" stroke="midnightblue" d="M469.963,-472.589C488.774,-477.536 511.915,-483.621 531.947,-488.889"/>
<polygon fill="midnightblue" stroke="midnightblue" points="531.237,-492.322 541.799,-491.48 533.018,-485.552 531.237,-492.322"/>
</g>
<!-- Node5&#45;&gt;Node6 -->
<g id="edge5" class="edge"><title>Node5&#45;&gt;Node6</title>
<path fill="none" stroke="midnightblue" d="M617.202,-567.607C641.163,-561.557 672.108,-553.744 695.601,-547.812"/>
<polygon fill="midnightblue" stroke="midnightblue" points="696.656,-551.155 705.495,-545.314 694.942,-544.368 696.656,-551.155"/>
</g>
<!-- Node7 -->
<g id="node7" class="node"><title>Node7</title>
<g id="a_node7"><a xlink:href="classtlz_1_1args__list.html#a73d99bc75998dc14607a3a372d28dc6d" target="_top" xlink:title="tlz::args_list::next_arg">
<polygon fill="white" stroke="black" points="675,-567.5 675,-586.5 788,-586.5 788,-567.5 675,-567.5"/>
<text text-anchor="middle" x="731.5" y="-574.5" font-family="Helvetica,sans-Serif" font-size="10.00">tlz::args_list::next_arg</text>
</a>
</g>
</g>
<!-- Node5&#45;&gt;Node7 -->
<g id="edge6" class="edge"><title>Node5&#45;&gt;Node7</title>
<path fill="none" stroke="midnightblue" d="M617.202,-577C631.619,-577 648.565,-577 664.894,-577"/>
<polygon fill="midnightblue" stroke="midnightblue" points="664.954,-580.5 674.954,-577 664.954,-573.5 664.954,-580.5"/>
</g>
<!-- Node7&#45;&gt;Node8 -->
<g id="edge7" class="edge"><title>Node7&#45;&gt;Node8</title>
<path fill="none" stroke="midnightblue" d="M762.74,-567.492C771.017,-564.662 779.929,-561.401 788,-558 811.89,-547.932 838.128,-534.483 856.964,-524.382"/>
<polygon fill="midnightblue" stroke="midnightblue" points="858.703,-527.421 865.831,-519.582 855.371,-521.265 858.703,-527.421"/>
</g>
<!-- Node9 -->
<g id="node9" class="node"><title>Node9</title>
<g id="a_node9"><a xlink:href="namespacetlz.html#a8e4f8c8c2927bc4350de13bfa0f8f9e1" target="_top" xlink:title="tlz::to_string">
<polygon fill="white" stroke="black" points="848.5,-567.5 848.5,-586.5 919.5,-586.5 919.5,-567.5 848.5,-567.5"/>
<text text-anchor="middle" x="884" y="-574.5" font-family="Helvetica,sans-Serif" font-size="10.00">tlz::to_string</text>
</a>
</g>
</g>
<!-- Node7&#45;&gt;Node9 -->
<g id="edge8" class="edge"><title>Node7&#45;&gt;Node9</title>
<path fill="none" stroke="midnightblue" d="M788.113,-577C804.441,-577 822.096,-577 837.698,-577"/>
<polygon fill="midnightblue" stroke="midnightblue" points="838.13,-580.5 848.13,-577 838.129,-573.5 838.13,-580.5"/>
</g>
<!-- Node11&#45;&gt;Node6 -->
<g id="edge13" class="edge"><title>Node11&#45;&gt;Node6</title>
<path fill="none" stroke="midnightblue" d="M610.088,-608.463C619.776,-605.553 630.258,-601.505 639,-596 658.686,-583.603 655.428,-570.576 675,-558 681.303,-553.95 688.566,-550.659 695.718,-548.025"/>
<polygon fill="midnightblue" stroke="midnightblue" points="696.92,-551.313 705.299,-544.83 694.706,-544.673 696.92,-551.313"/>
</g>
<!-- Node11&#45;&gt;Node7 -->
<g id="edge14" class="edge"><title>Node11&#45;&gt;Node7</title>
<path fill="none" stroke="midnightblue" d="M610.094,-607.401C630.885,-602.152 658.974,-595.06 682.793,-589.046"/>
<polygon fill="midnightblue" stroke="midnightblue" points="683.867,-592.384 692.705,-586.543 682.153,-585.597 683.867,-592.384"/>
</g>
<!-- Node11&#45;&gt;Node8 -->
<g id="edge15" class="edge"><title>Node11&#45;&gt;Node8</title>
<path fill="none" stroke="midnightblue" d="M610.344,-618.662C652.491,-622.366 730.093,-624.098 788,-596 808.931,-585.844 806.941,-573.819 824,-558 836.037,-546.839 850.296,-535.199 861.781,-526.177"/>
<polygon fill="midnightblue" stroke="midnightblue" points="864.189,-528.737 869.94,-519.839 859.895,-523.209 864.189,-528.737"/>
</g>
<!-- Node12&#45;&gt;Node6 -->
<g id="edge17" class="edge"><title>Node12&#45;&gt;Node6</title>
<path fill="none" stroke="midnightblue" d="M609.938,-434.571C619.616,-438.334 630.13,-443.167 639,-449 670.137,-469.477 699.644,-501.612 716.36,-521.433"/>
<polygon fill="midnightblue" stroke="midnightblue" points="713.834,-523.87 722.905,-529.345 719.228,-519.409 713.834,-523.87"/>
</g>
<!-- Node12&#45;&gt;Node7 -->
<g id="edge18" class="edge"><title>Node12&#45;&gt;Node7</title>
<path fill="none" stroke="midnightblue" d="M592.581,-434.83C605.494,-445.409 625.547,-463.255 639,-482 660.793,-512.365 647.127,-533.1 675,-558 676.759,-559.571 678.653,-561.014 680.645,-562.338"/>
<polygon fill="midnightblue" stroke="midnightblue" points="679.428,-565.663 689.877,-567.417 682.803,-559.53 679.428,-565.663"/>
</g>
<!-- Node12&#45;&gt;Node8 -->
<g id="edge19" class="edge"><title>Node12&#45;&gt;Node8</title>
<path fill="none" stroke="midnightblue" d="M613.003,-434.258C667.924,-449.665 778.079,-480.567 839.352,-497.755"/>
<polygon fill="midnightblue" stroke="midnightblue" points="838.539,-501.162 849.113,-500.494 840.43,-494.423 838.539,-501.162"/>
</g>
<!-- Node14 -->
<g id="node14" class="node"><title>Node14</title>
<g id="a_node14"><a xlink:href="namespacetlz.html#a8cba4853d0d796a01c72f59f36f2a492" target="_top" xlink:title="tlz::decode_intrinsics">
<polygon fill="white" stroke="black" points="237,-339.5 237,-358.5 346,-358.5 346,-339.5 237,-339.5"/>
<text text-anchor="middle" x="291.5" y="-346.5" font-family="Helvetica,sans-Serif" font-size="10.00">tlz::decode_intrinsics</text>
</a>
</g>
</g>
<!-- Node13&#45;&gt;Node14 -->
<g id="edge21" class="edge"><title>Node13&#45;&gt;Node14</title>
<path fill="none" stroke="midnightblue" d="M176.856,-377.411C196.824,-372.419 221.43,-366.268 242.633,-360.967"/>
<polygon fill="midnightblue" stroke="midnightblue" points="243.567,-364.341 252.42,-358.52 241.869,-357.55 243.567,-364.341"/>
</g>
<!-- Node18 -->
<g id="node18" class="node"><title>Node18</title>
<g id="a_node18"><a xlink:href="namespacetlz.html#a35f9e03fa4fd9cec699f5fa27962400f" target="_top" xlink:title="tlz::json_arg">
<polygon fill="white" stroke="black" points="256.5,-377.5 256.5,-396.5 326.5,-396.5 326.5,-377.5 256.5,-377.5"/>
<text text-anchor="middle" x="291.5" y="-384.5" font-family="Helvetica,sans-Serif" font-size="10.00">tlz::json_arg</text>
</a>
</g>
</g>
<!-- Node13&#45;&gt;Node18 -->
<g id="edge26" class="edge"><title>Node13&#45;&gt;Node18</title>
<path fill="none" stroke="midnightblue" d="M183.283,-387C203.028,-387 226.176,-387 245.9,-387"/>
<polygon fill="midnightblue" stroke="midnightblue" points="246.163,-390.5 256.163,-387 246.163,-383.5 246.163,-390.5"/>
</g>
<!-- Node15 -->
<g id="node15" class="node"><title>Node15</title>
<g id="a_node15"><a xlink:href="namespacetlz.html#a066563a26e2de02f215b179f3d3a53da" target="_top" xlink:title="tlz::decode_mat">
<polygon fill="white" stroke="black" points="389.5,-339.5 389.5,-358.5 475.5,-358.5 475.5,-339.5 389.5,-339.5"/>
<text text-anchor="middle" x="432.5" y="-346.5" font-family="Helvetica,sans-Serif" font-size="10.00">tlz::decode_mat</text>
</a>
</g>
</g>
<!-- Node14&#45;&gt;Node15 -->
<g id="edge22" class="edge"><title>Node14&#45;&gt;Node15</title>
<path fill="none" stroke="midnightblue" d="M346.241,-349C357.009,-349 368.31,-349 379.035,-349"/>
<polygon fill="midnightblue" stroke="midnightblue" points="379.104,-352.5 389.104,-349 379.104,-345.5 379.104,-352.5"/>
</g>
<!-- Node16 -->
<g id="node16" class="node"><title>Node16</title>
<g id="a_node16"><a xlink:href="namespacetlz.html#a252af14b9b4ac6502d3e9c5dd8dc90b8" target="_top" xlink:title="tlz::has">
<polygon fill="white" stroke="black" points="554.5,-244.5 554.5,-263.5 603.5,-263.5 603.5,-244.5 554.5,-244.5"/>
<text text-anchor="middle" x="579" y="-251.5" font-family="Helvetica,sans-Serif" font-size="10.00">tlz::has</text>
</a>
</g>
</g>
<!-- Node14&#45;&gt;Node16 -->
<g id="edge23" class="edge"><title>Node14&#45;&gt;Node16</title>
<path fill="none" stroke="midnightblue" d="M327.914,-339.431C366.397,-328.795 429.543,-310.647 483,-292 504.326,-284.561 527.903,-275.138 546.234,-267.536"/>
<polygon fill="midnightblue" stroke="midnightblue" points="547.689,-270.721 555.566,-263.636 544.989,-264.263 547.689,-270.721"/>
</g>
<!-- Node17 -->
<g id="node17" class="node"><title>Node17</title>
<g id="a_node17"><a xlink:href="namespacetlz.html#add846dc50c32dfb356cb1a7ac11d37ac" target="_top" xlink:title="tlz::get_or">
<polygon fill="white" stroke="black" points="402.5,-263.5 402.5,-282.5 462.5,-282.5 462.5,-263.5 402.5,-263.5"/>
<text text-anchor="middle" x="432.5" y="-270.5" font-family="Helvetica,sans-Serif" font-size="10.00">tlz::get_or</text>
</a>
</g>
</g>
<!-- Node14&#45;&gt;Node17 -->
<g id="edge24" class="edge"><title>Node14&#45;&gt;Node17</title>
<path fill="none" stroke="midnightblue" d="M325.978,-339.44C332.835,-336.848 339.834,-333.709 346,-330 364.599,-318.811 364.046,-309.196 382,-297 387.34,-293.372 393.311,-289.987 399.208,-286.97"/>
<polygon fill="midnightblue" stroke="midnightblue" points="400.845,-290.065 408.311,-282.548 397.787,-283.769 400.845,-290.065"/>
</g>
<!-- Node17&#45;&gt;Node16 -->
<g id="edge25" class="edge"><title>Node17&#45;&gt;Node16</title>
<path fill="none" stroke="midnightblue" d="M462.742,-269.155C486.266,-266.062 519.353,-261.711 544.046,-258.465"/>
<polygon fill="midnightblue" stroke="midnightblue" points="544.604,-261.921 554.063,-257.147 543.692,-254.981 544.604,-261.921"/>
</g>
<!-- Node18&#45;&gt;Node4 -->
<g id="edge28" class="edge"><title>Node18&#45;&gt;Node4</title>
<path fill="none" stroke="midnightblue" d="M310.104,-396.625C334.126,-409.76 377.365,-433.401 405.229,-448.636"/>
<polygon fill="midnightblue" stroke="midnightblue" points="403.585,-451.726 414.038,-453.453 406.943,-445.584 403.585,-451.726"/>
</g>
<!-- Node19 -->
<g id="node19" class="node"><title>Node19</title>
<g id="a_node19"><a xlink:href="namespacetlz.html#aa1be9362f548fcf9378e1fc9074089c4" target="_top" xlink:title="tlz::import_json_file">
<polygon fill="white" stroke="black" points="382,-377.5 382,-396.5 483,-396.5 483,-377.5 382,-377.5"/>
<text text-anchor="middle" x="432.5" y="-384.5" font-family="Helvetica,sans-Serif" font-size="10.00">tlz::import_json_file</text>
</a>
</g>
</g>
<!-- Node18&#45;&gt;Node19 -->
<g id="edge27" class="edge"><title>Node18&#45;&gt;Node19</title>
<path fill="none" stroke="midnightblue" d="M326.503,-387C340.151,-387 356.295,-387 371.778,-387"/>
<polygon fill="midnightblue" stroke="midnightblue" points="371.825,-390.5 381.825,-387 371.825,-383.5 371.825,-390.5"/>
</g>
<!-- Node20&#45;&gt;Node5 -->
<g id="edge30" class="edge"><title>Node20&#45;&gt;Node5</title>
<path fill="none" stroke="midnightblue" d="M333.644,-630.529C373.19,-637.758 434.005,-643.739 483,-626 502.583,-618.91 500.754,-606.043 519,-596 522.924,-593.84 527.132,-591.88 531.428,-590.113"/>
<polygon fill="midnightblue" stroke="midnightblue" points="532.771,-593.347 540.896,-586.547 530.304,-586.796 532.771,-593.347"/>
</g>
<!-- Node21&#45;&gt;Node4 -->
<g id="edge35" class="edge"><title>Node21&#45;&gt;Node4</title>
<path fill="none" stroke="midnightblue" d="M310.104,-529.375C334.126,-516.24 377.365,-492.599 405.229,-477.364"/>
<polygon fill="midnightblue" stroke="midnightblue" points="406.943,-480.416 414.038,-472.547 403.585,-474.274 406.943,-480.416"/>
</g>
<!-- Node21&#45;&gt;Node5 -->
<g id="edge34" class="edge"><title>Node21&#45;&gt;Node5</title>
<path fill="none" stroke="midnightblue" d="M300.699,-548.501C315.184,-564.468 347.086,-596.104 382,-608 439.856,-627.713 460.917,-615.032 519,-596 525.241,-593.955 531.86,-591.805 538.321,-589.717"/>
<polygon fill="midnightblue" stroke="midnightblue" points="539.825,-592.909 548.269,-586.509 537.677,-586.247 539.825,-592.909"/>
</g>
<!-- Node21&#45;&gt;Node6 -->
<g id="edge32" class="edge"><title>Node21&#45;&gt;Node6</title>
<path fill="none" stroke="midnightblue" d="M339.374,-539C427.583,-539 616.435,-539 695.036,-539"/>
<polygon fill="midnightblue" stroke="midnightblue" points="695.373,-542.5 705.373,-539 695.373,-535.5 695.373,-542.5"/>
</g>
<!-- Node22 -->
<g id="node22" class="node"><title>Node22</title>
<g id="a_node22"><a xlink:href="classtlz_1_1args__list.html#a4aee93f4b0d9b5b4e7a5d13cb637337c" target="_top" xlink:title="tlz::args_list::has\l_next_arg">
<polygon fill="white" stroke="black" points="386.5,-568 386.5,-598 478.5,-598 478.5,-568 386.5,-568"/>
<text text-anchor="start" x="394.5" y="-586" font-family="Helvetica,sans-Serif" font-size="10.00">tlz::args_list::has</text>
<text text-anchor="middle" x="432.5" y="-575" font-family="Helvetica,sans-Serif" font-size="10.00">_next_arg</text>
</a>
</g>
</g>
<!-- Node21&#45;&gt;Node22 -->
<g id="edge33" class="edge"><title>Node21&#45;&gt;Node22</title>
<path fill="none" stroke="midnightblue" d="M322.661,-548.547C338.431,-553.539 358.23,-559.807 376.603,-565.622"/>
<polygon fill="midnightblue" stroke="midnightblue" points="375.749,-569.023 386.339,-568.704 377.862,-562.35 375.749,-569.023"/>
</g>
<!-- Node23&#45;&gt;Node16 -->
<g id="edge38" class="edge"><title>Node23&#45;&gt;Node16</title>
<path fill="none" stroke="midnightblue" d="M182.87,-339.432C189.276,-336.96 195.539,-333.867 201,-330 223.054,-314.383 214.113,-295.369 237,-281 334.193,-219.98 478.956,-235.697 544.091,-247.071"/>
<polygon fill="midnightblue" stroke="midnightblue" points="543.741,-250.565 554.207,-248.916 544.998,-243.678 543.741,-250.565"/>
</g>
<!-- Node24 -->
<g id="node24" class="node"><title>Node24</title>
<g id="a_node24"><a xlink:href="classtlz_1_1dataset__group.html#acad4f6300bfc455279aaeb975d5e61de" target="_top" xlink:title="tlz::dataset_group\l::dataset_group">
<polygon fill="white" stroke="black" points="244,-290 244,-320 339,-320 339,-290 244,-290"/>
<text text-anchor="start" x="252" y="-308" font-family="Helvetica,sans-Serif" font-size="10.00">tlz::dataset_group</text>
<text text-anchor="middle" x="291.5" y="-297" font-family="Helvetica,sans-Serif" font-size="10.00">::dataset_group</text>
</a>
</g>
</g>
<!-- Node23&#45;&gt;Node24 -->
<g id="edge37" class="edge"><title>Node23&#45;&gt;Node24</title>
<path fill="none" stroke="midnightblue" d="M171.482,-339.453C189.723,-334.172 212.893,-327.465 233.934,-321.374"/>
<polygon fill="midnightblue" stroke="midnightblue" points="235.11,-324.678 243.742,-318.535 233.163,-317.954 235.11,-324.678"/>
</g>
<!-- Node27 -->
<g id="node27" class="node"><title>Node27</title>
<g id="a_node27"><a xlink:href="classtlz_1_1dataset.html#acbdb309b8dd22f687fff41f6e9ac6ed4" target="_top" xlink:title="tlz::dataset::view">
<polygon fill="white" stroke="black" points="386.5,-49.5 386.5,-68.5 478.5,-68.5 478.5,-49.5 386.5,-49.5"/>
<text text-anchor="middle" x="432.5" y="-56.5" font-family="Helvetica,sans-Serif" font-size="10.00">tlz::dataset::view</text>
</a>
</g>
</g>
<!-- Node26&#45;&gt;Node27 -->
<g id="edge41" class="edge"><title>Node26&#45;&gt;Node27</title>
<path fill="none" stroke="midnightblue" d="M339.172,-84.9051C354.828,-80.5122 372.224,-75.6314 387.656,-71.3015"/>
<polygon fill="midnightblue" stroke="midnightblue" points="388.793,-74.6177 397.476,-68.5463 386.902,-67.878 388.793,-74.6177"/>
</g>
<!-- Node28 -->
<g id="node28" class="node"><title>Node28</title>
<g id="a_node28"><a xlink:href="classtlz_1_1dataset__view.html#a1ec7ba844d313cddc558874fe85246a8" target="_top" xlink:title="tlz::dataset_view::\lgroup_view">
<polygon fill="white" stroke="black" points="384,-88 384,-118 481,-118 481,-88 384,-88"/>
<text text-anchor="start" x="392" y="-106" font-family="Helvetica,sans-Serif" font-size="10.00">tlz::dataset_view::</text>
<text text-anchor="middle" x="432.5" y="-95" font-family="Helvetica,sans-Serif" font-size="10.00">group_view</text>
</a>
</g>
</g>
<!-- Node26&#45;&gt;Node28 -->
<g id="edge42" class="edge"><title>Node26&#45;&gt;Node28</title>
<path fill="none" stroke="midnightblue" d="M339.172,-99.6788C350.162,-100.074 362.008,-100.5 373.431,-100.911"/>
<polygon fill="midnightblue" stroke="midnightblue" points="373.647,-104.421 383.766,-101.283 373.898,-97.4256 373.647,-104.421"/>
</g>
<!-- Node28&#45;&gt;Node16 -->
<g id="edge44" class="edge"><title>Node28&#45;&gt;Node16</title>
<path fill="none" stroke="midnightblue" d="M447.883,-118.031C474.897,-146.26 533.059,-207.037 561.568,-236.829"/>
<polygon fill="midnightblue" stroke="midnightblue" points="559.33,-239.552 568.772,-244.357 564.387,-234.712 559.33,-239.552"/>
</g>
<!-- Node29 -->
<g id="node29" class="node"><title>Node29</title>
<g id="a_node29"><a xlink:href="classtlz_1_1dataset__view.html#a31a73cf70078f270c9045bc0babadee2" target="_top" xlink:title="tlz::dataset_view::\ldataset_view">
<polygon fill="white" stroke="black" points="530.5,-88 530.5,-118 627.5,-118 627.5,-88 530.5,-88"/>
<text text-anchor="start" x="538.5" y="-106" font-family="Helvetica,sans-Serif" font-size="10.00">tlz::dataset_view::</text>
<text text-anchor="middle" x="579" y="-95" font-family="Helvetica,sans-Serif" font-size="10.00">dataset_view</text>
</a>
</g>
</g>
<!-- Node28&#45;&gt;Node29 -->
<g id="edge43" class="edge"><title>Node28&#45;&gt;Node29</title>
<path fill="none" stroke="midnightblue" d="M481.215,-103C493.669,-103 507.227,-103 520.145,-103"/>
<polygon fill="midnightblue" stroke="midnightblue" points="520.335,-106.5 530.335,-103 520.335,-99.5001 520.335,-106.5"/>
</g>
<!-- Node30 -->
<g id="node30" class="node"><title>Node30</title>
<g id="a_node30"><a xlink:href="classtlz_1_1dataset.html#ab14f5b1f18c0ab423c18270b7ca46bd2" target="_top" xlink:title="tlz::dataset::parameters">
<polygon fill="white" stroke="black" points="519,-137.5 519,-156.5 639,-156.5 639,-137.5 519,-137.5"/>
<text text-anchor="middle" x="579" y="-144.5" font-family="Helvetica,sans-Serif" font-size="10.00">tlz::dataset::parameters</text>
</a>
</g>
</g>
<!-- Node28&#45;&gt;Node30 -->
<g id="edge45" class="edge"><title>Node28&#45;&gt;Node30</title>
<path fill="none" stroke="midnightblue" d="M481.215,-117.529C499.22,-123.012 519.531,-129.196 536.881,-134.479"/>
<polygon fill="midnightblue" stroke="midnightblue" points="536.128,-137.909 546.714,-137.473 538.167,-131.212 536.128,-137.909"/>
</g>
<!-- Node32 -->
<g id="node32" class="node"><title>Node32</title>
<g id="a_node32"><a xlink:href="classtlz_1_1dataset__view.html#a327a842dc304656596d65b9bbf52fb1c" target="_top" xlink:title="tlz::dataset_view::\llocal_filename">
<polygon fill="white" stroke="black" points="243,-181 243,-211 340,-211 340,-181 243,-181"/>
<text text-anchor="start" x="251" y="-199" font-family="Helvetica,sans-Serif" font-size="10.00">tlz::dataset_view::</text>
<text text-anchor="middle" x="291.5" y="-188" font-family="Helvetica,sans-Serif" font-size="10.00">local_filename</text>
</a>
</g>
</g>
<!-- Node31&#45;&gt;Node32 -->
<g id="edge47" class="edge"><title>Node31&#45;&gt;Node32</title>
<path fill="none" stroke="midnightblue" d="M177.629,-289.858C185.81,-285.723 194.051,-280.762 201,-275 221.801,-257.75 216.757,-243.902 237,-226 240.889,-222.561 245.237,-219.344 249.727,-216.389"/>
<polygon fill="midnightblue" stroke="midnightblue" points="251.759,-219.249 258.457,-211.04 248.102,-213.28 251.759,-219.249"/>
</g>
<!-- Node32&#45;&gt;Node17 -->
<g id="edge48" class="edge"><title>Node32&#45;&gt;Node17</title>
<path fill="none" stroke="midnightblue" d="M319.631,-211.029C344.431,-224.767 380.87,-244.953 405.356,-258.517"/>
<polygon fill="midnightblue" stroke="midnightblue" points="403.662,-261.58 414.105,-263.364 407.054,-255.457 403.662,-261.58"/>
</g>
<!-- Node33 -->
<g id="node33" class="node"><title>Node33</title>
<g id="a_node33"><a xlink:href="classtlz_1_1dataset__view.html#a4951a6300847e0fed4fecf79d8753b58" target="_top" xlink:title="tlz::dataset_view::\llocal_parameters">
<polygon fill="white" stroke="black" points="384,-176 384,-206 481,-206 481,-176 384,-176"/>
<text text-anchor="start" x="392" y="-194" font-family="Helvetica,sans-Serif" font-size="10.00">tlz::dataset_view::</text>
<text text-anchor="middle" x="432.5" y="-183" font-family="Helvetica,sans-Serif" font-size="10.00">local_parameters</text>
</a>
</g>
</g>
<!-- Node32&#45;&gt;Node33 -->
<g id="edge49" class="edge"><title>Node32&#45;&gt;Node33</title>
<path fill="none" stroke="midnightblue" d="M340.336,-194.279C351.038,-193.894 362.502,-193.482 373.564,-193.084"/>
<polygon fill="midnightblue" stroke="midnightblue" points="373.708,-196.581 383.576,-192.724 373.457,-189.586 373.708,-196.581"/>
</g>
<!-- Node33&#45;&gt;Node30 -->
<g id="edge50" class="edge"><title>Node33&#45;&gt;Node30</title>
<path fill="none" stroke="midnightblue" d="M481.215,-176.471C499.22,-170.988 519.531,-164.804 536.881,-159.521"/>
<polygon fill="midnightblue" stroke="midnightblue" points="538.167,-162.788 546.714,-156.527 536.128,-156.091 538.167,-162.788"/>
</g>
<!-- Node34&#45;&gt;Node30 -->
<g id="edge52" class="edge"><title>Node34&#45;&gt;Node30</title>
<path fill="none" stroke="midnightblue" d="M340.286,-147C386.346,-147 456.545,-147 508.731,-147"/>
<polygon fill="midnightblue" stroke="midnightblue" points="508.915,-150.5 518.915,-147 508.915,-143.5 508.915,-150.5"/>
</g>
</g>
</svg>
