<?xml version="1.0" encoding="UTF-8" standalone="no"?>
<!DOCTYPE svg PUBLIC "-//W3C//DTD SVG 1.1//EN"
 "http://www.w3.org/Graphics/SVG/1.1/DTD/svg11.dtd">
<!-- Generated by graphviz version 2.38.0 (20140413.2041)
 -->
<!-- Title: main Pages: 1 -->
<svg width="681pt" height="406pt"
 viewBox="0.00 0.00 681.00 405.50" xmlns="http://www.w3.org/2000/svg" xmlns:xlink="http://www.w3.org/1999/xlink">
<g id="graph0" class="graph" transform="scale(1 1) rotate(0) translate(4 401.5)">
<title>main</title>
<polygon fill="white" stroke="none" points="-4,4 -4,-401.5 677,-401.5 677,4 -4,4"/>
<!-- Node1 -->
<g id="node1" class="node"><title>Node1</title>
<polygon fill="#bfbfbf" stroke="black" points="0,-157 0,-176 38,-176 38,-157 0,-157"/>
<text text-anchor="middle" x="19" y="-164" font-family="Helvetica,sans-Serif" font-size="10.00">main</text>
</g>
<!-- Node2 -->
<g id="node2" class="node"><title>Node2</title>
<g id="a_node2"><a xlink:href="namespacetlz.html#a3c03f5d9d6261ec2909938822fc47f8a" target="_top" xlink:title="tlz::get_args">
<polygon fill="white" stroke="black" points="106.5,-309 106.5,-328 177.5,-328 177.5,-309 106.5,-309"/>
<text text-anchor="middle" x="142" y="-316" font-family="Helvetica,sans-Serif" font-size="10.00">tlz::get_args</text>
</a>
</g>
</g>
<!-- Node1&#45;&gt;Node2 -->
<g id="edge1" class="edge"><title>Node1&#45;&gt;Node2</title>
<path fill="none" stroke="midnightblue" d="M21.0458,-176.173C24.214,-200.628 35.9552,-265.404 74,-299.5 80.4068,-305.242 88.4283,-309.26 96.6719,-312.068"/>
<polygon fill="midnightblue" stroke="midnightblue" points="95.7909,-315.457 106.368,-314.841 97.7154,-308.726 95.7909,-315.457"/>
</g>
<!-- Node3 -->
<g id="node3" class="node"><title>Node3</title>
<g id="a_node3"><a xlink:href="namespacetlz.html#a634de7ca11e100e4a118dffe80376a75" target="_top" xlink:title="tlz::in_filename_arg">
<polygon fill="white" stroke="black" points="91.5,-176 91.5,-195 192.5,-195 192.5,-176 91.5,-176"/>
<text text-anchor="middle" x="142" y="-183" font-family="Helvetica,sans-Serif" font-size="10.00">tlz::in_filename_arg</text>
</a>
</g>
</g>
<!-- Node1&#45;&gt;Node3 -->
<g id="edge2" class="edge"><title>Node1&#45;&gt;Node3</title>
<path fill="none" stroke="midnightblue" d="M38.1149,-169.344C49.6883,-171.162 65.4203,-173.632 81.0986,-176.094"/>
<polygon fill="midnightblue" stroke="midnightblue" points="80.9277,-179.61 91.3496,-177.704 82.0136,-172.695 80.9277,-179.61"/>
</g>
<!-- Node10 -->
<g id="node10" class="node"><title>Node10</title>
<g id="a_node10"><a xlink:href="namespacetlz.html#a65770a2c1ff57c5ae6542d4465a3d3f4" target="_top" xlink:title="tlz::out_filename_arg">
<polygon fill="white" stroke="black" points="88.5,-214 88.5,-233 195.5,-233 195.5,-214 88.5,-214"/>
<text text-anchor="middle" x="142" y="-221" font-family="Helvetica,sans-Serif" font-size="10.00">tlz::out_filename_arg</text>
</a>
</g>
</g>
<!-- Node1&#45;&gt;Node10 -->
<g id="edge11" class="edge"><title>Node1&#45;&gt;Node10</title>
<path fill="none" stroke="midnightblue" d="M31.2968,-176.173C41.7593,-184.696 58.0636,-196.904 74,-204.5 78.9114,-206.841 84.1665,-208.946 89.4925,-210.826"/>
<polygon fill="midnightblue" stroke="midnightblue" points="88.5045,-214.185 99.0971,-213.968 90.6813,-207.532 88.5045,-214.185"/>
</g>
<!-- Node11 -->
<g id="node11" class="node"><title>Node11</title>
<g id="a_node11"><a xlink:href="namespacetlz.html#a59931291e2fb8d804edf4ea1b95c35d9" target="_top" xlink:title="tlz::int_opt_arg">
<polygon fill="white" stroke="black" points="101.5,-271 101.5,-290 182.5,-290 182.5,-271 101.5,-271"/>
<text text-anchor="middle" x="142" y="-278" font-family="Helvetica,sans-Serif" font-size="10.00">tlz::int_opt_arg</text>
</a>
</g>
</g>
<!-- Node1&#45;&gt;Node11 -->
<g id="edge13" class="edge"><title>Node1&#45;&gt;Node11</title>
<path fill="none" stroke="midnightblue" d="M25.1665,-176.417C33.6702,-192.011 51.8964,-222.54 74,-242.5 84.4156,-251.906 97.5512,-259.986 109.426,-266.246"/>
<polygon fill="midnightblue" stroke="midnightblue" points="108.098,-269.496 118.604,-270.868 111.246,-263.244 108.098,-269.496"/>
</g>
<!-- Node15 -->
<g id="node15" class="node"><title>Node15</title>
<g id="a_node15"><a xlink:href="namespacetlz.html#aa1be9362f548fcf9378e1fc9074089c4" target="_top" xlink:title="tlz::import_json_file">
<polygon fill="white" stroke="black" points="91.5,-138 91.5,-157 192.5,-157 192.5,-138 91.5,-138"/>
<text text-anchor="middle" x="142" y="-145" font-family="Helvetica,sans-Serif" font-size="10.00">tlz::import_json_file</text>
</a>
</g>
</g>
<!-- Node1&#45;&gt;Node15 -->
<g id="edge24" class="edge"><title>Node1&#45;&gt;Node15</title>
<path fill="none" stroke="midnightblue" d="M38.1149,-163.656C49.6883,-161.838 65.4203,-159.368 81.0986,-156.906"/>
<polygon fill="midnightblue" stroke="midnightblue" points="82.0136,-160.305 91.3496,-155.296 80.9277,-153.39 82.0136,-160.305"/>
</g>
<!-- Node16 -->
<g id="node16" class="node"><title>Node16</title>
<g id="a_node16"><a xlink:href="namespacetlz.html#acac95b93493a5cbc6fb4717d68231a20" target="_top" xlink:title="tlz::decode_obj_img\l_correspondences_set_dim">
<polygon fill="white" stroke="black" points="74,-88.5 74,-118.5 210,-118.5 210,-88.5 74,-88.5"/>
<text text-anchor="start" x="82" y="-106.5" font-family="Helvetica,sans-Serif" font-size="10.00">tlz::decode_obj_img</text>
<text text-anchor="middle" x="142" y="-95.5" font-family="Helvetica,sans-Serif" font-size="10.00">_correspondences_set_dim</text>
</a>
</g>
</g>
<!-- Node1&#45;&gt;Node16 -->
<g id="edge25" class="edge"><title>Node1&#45;&gt;Node16</title>
<path fill="none" stroke="midnightblue" d="M31.8636,-156.805C42.4392,-148.499 58.5862,-136.626 74,-128.5 77.9366,-126.425 82.0842,-124.44 86.3067,-122.562"/>
<polygon fill="midnightblue" stroke="midnightblue" points="87.7692,-125.744 95.6172,-118.627 85.0435,-119.296 87.7692,-125.744"/>
</g>
<!-- Node17 -->
<g id="node17" class="node"><title>Node17</title>
<g id="a_node17"><a xlink:href="namespacetlz.html#ab98de0b10e3e079dee189f81adc638a0" target="_top" xlink:title="tlz::export_json_file">
<polygon fill="white" stroke="black" points="91.5,-50 91.5,-69 192.5,-69 192.5,-50 91.5,-50"/>
<text text-anchor="middle" x="142" y="-57" font-family="Helvetica,sans-Serif" font-size="10.00">tlz::export_json_file</text>
</a>
</g>
</g>
<!-- Node1&#45;&gt;Node17 -->
<g id="edge26" class="edge"><title>Node1&#45;&gt;Node17</title>
<path fill="none" stroke="midnightblue" d="M23.1915,-156.93C29.7359,-138.799 46.4254,-99.3915 74,-78.5 76.602,-76.5286 79.4004,-74.7617 82.3249,-73.1781"/>
<polygon fill="midnightblue" stroke="midnightblue" points="83.8139,-76.3457 91.4061,-68.956 80.8627,-69.9982 83.8139,-76.3457"/>
</g>
<!-- Node19 -->
<g id="node19" class="node"><title>Node19</title>
<g id="a_node19"><a xlink:href="namespacetlz.html#ad1dd4f34c6ed90450cf085bc95f0a393" target="_top" xlink:title="tlz::encode_obj_img\l_correspondences_set">
<polygon fill="white" stroke="black" points="84.5,-0.5 84.5,-30.5 199.5,-30.5 199.5,-0.5 84.5,-0.5"/>
<text text-anchor="start" x="92.5" y="-18.5" font-family="Helvetica,sans-Serif" font-size="10.00">tlz::encode_obj_img</text>
<text text-anchor="middle" x="142" y="-7.5" font-family="Helvetica,sans-Serif" font-size="10.00">_correspondences_set</text>
</a>
</g>
</g>
<!-- Node1&#45;&gt;Node19 -->
<g id="edge28" class="edge"><title>Node1&#45;&gt;Node19</title>
<path fill="none" stroke="midnightblue" d="M21.4889,-156.821C25.5659,-133.532 39.0319,-73.8367 74,-40.5 75.6428,-38.9339 77.3926,-37.4639 79.2258,-36.0844"/>
<polygon fill="midnightblue" stroke="midnightblue" points="81.2215,-38.9621 87.7241,-30.5975 77.4245,-33.0813 81.2215,-38.9621"/>
</g>
<!-- Node4 -->
<g id="node4" class="node"><title>Node4</title>
<g id="a_node4"><a xlink:href="namespacetlz.html#a0621d598fb83b13bf028f3e6293d04f8" target="_top" xlink:title="tlz::string_arg">
<polygon fill="white" stroke="black" points="269,-214 269,-233 345,-233 345,-214 269,-214"/>
<text text-anchor="middle" x="307" y="-221" font-family="Helvetica,sans-Serif" font-size="10.00">tlz::string_arg</text>
</a>
</g>
</g>
<!-- Node3&#45;&gt;Node4 -->
<g id="edge3" class="edge"><title>Node3&#45;&gt;Node4</title>
<path fill="none" stroke="midnightblue" d="M184.132,-195.089C206.908,-200.399 235.311,-207.02 258.966,-212.535"/>
<polygon fill="midnightblue" stroke="midnightblue" points="258.25,-215.962 268.783,-214.824 259.839,-209.145 258.25,-215.962"/>
</g>
<!-- Node5 -->
<g id="node5" class="node"><title>Node5</title>
<g id="a_node5"><a xlink:href="namespacetlz.html#a780431daab8d2595372eacb43143b52d" target="_top" xlink:title="tlz::args">
<polygon fill="white" stroke="black" points="434.5,-252 434.5,-271 486.5,-271 486.5,-252 434.5,-252"/>
<text text-anchor="middle" x="460.5" y="-259" font-family="Helvetica,sans-Serif" font-size="10.00">tlz::args</text>
</a>
</g>
</g>
<!-- Node3&#45;&gt;Node5 -->
<g id="edge9" class="edge"><title>Node3&#45;&gt;Node5</title>
<path fill="none" stroke="midnightblue" d="M192.608,-183.108C239.108,-182.385 309.963,-185.223 368,-204.5 395.074,-213.493 422.347,-231.985 439.983,-245.476"/>
<polygon fill="midnightblue" stroke="midnightblue" points="438.251,-248.567 448.275,-251.998 442.579,-243.065 438.251,-248.567"/>
</g>
<!-- Node7 -->
<g id="node7" class="node"><title>Node7</title>
<g id="a_node7"><a xlink:href="classtlz_1_1args__list.html#a38ad21acd64a4af98ffdf4a47837cdbe" target="_top" xlink:title="tlz::args_list::usage_fail">
<polygon fill="white" stroke="black" points="553,-290 553,-309 673,-309 673,-290 553,-290"/>
<text text-anchor="middle" x="613" y="-297" font-family="Helvetica,sans-Serif" font-size="10.00">tlz::args_list::usage_fail</text>
</a>
</g>
</g>
<!-- Node3&#45;&gt;Node7 -->
<g id="edge10" class="edge"><title>Node3&#45;&gt;Node7</title>
<path fill="none" stroke="midnightblue" d="M189.066,-175.992C196.351,-173.498 203.587,-170.382 210,-166.5 229.902,-154.452 224.629,-137.692 246,-128.5 295.81,-107.075 316.291,-112.184 368,-128.5 466.145,-159.467 559.112,-245.582 595.672,-282.423"/>
<polygon fill="midnightblue" stroke="midnightblue" points="593.482,-285.19 602.977,-289.892 598.486,-280.296 593.482,-285.19"/>
</g>
<!-- Node9 -->
<g id="node9" class="node"><title>Node9</title>
<g id="a_node9"><a xlink:href="namespacetlz.html#abb019466ea9f56c0dab27e893d891837" target="_top" xlink:title="tlz::file_exists">
<polygon fill="white" stroke="black" points="268.5,-138 268.5,-157 345.5,-157 345.5,-138 268.5,-138"/>
<text text-anchor="middle" x="307" y="-145" font-family="Helvetica,sans-Serif" font-size="10.00">tlz::file_exists</text>
</a>
</g>
</g>
<!-- Node3&#45;&gt;Node9 -->
<g id="edge8" class="edge"><title>Node3&#45;&gt;Node9</title>
<path fill="none" stroke="midnightblue" d="M184.132,-175.911C206.743,-170.64 234.9,-164.075 258.451,-158.585"/>
<polygon fill="midnightblue" stroke="midnightblue" points="259.289,-161.984 268.233,-156.305 257.7,-155.166 259.289,-161.984"/>
</g>
<!-- Node4&#45;&gt;Node5 -->
<g id="edge4" class="edge"><title>Node4&#45;&gt;Node5</title>
<path fill="none" stroke="midnightblue" d="M345.061,-232.796C369.174,-238.844 400.438,-246.686 424.193,-252.644"/>
<polygon fill="midnightblue" stroke="midnightblue" points="423.647,-256.116 434.198,-255.154 425.35,-249.326 423.647,-256.116"/>
</g>
<!-- Node6 -->
<g id="node6" class="node"><title>Node6</title>
<g id="a_node6"><a xlink:href="classtlz_1_1args__list.html#a73d99bc75998dc14607a3a372d28dc6d" target="_top" xlink:title="tlz::args_list::next_arg">
<polygon fill="white" stroke="black" points="404,-328 404,-347 517,-347 517,-328 404,-328"/>
<text text-anchor="middle" x="460.5" y="-335" font-family="Helvetica,sans-Serif" font-size="10.00">tlz::args_list::next_arg</text>
</a>
</g>
</g>
<!-- Node4&#45;&gt;Node6 -->
<g id="edge5" class="edge"><title>Node4&#45;&gt;Node6</title>
<path fill="none" stroke="midnightblue" d="M320.656,-233.023C346.658,-252.589 406.328,-297.489 438.32,-321.563"/>
<polygon fill="midnightblue" stroke="midnightblue" points="436.464,-324.546 446.559,-327.762 440.673,-318.953 436.464,-324.546"/>
</g>
<!-- Node6&#45;&gt;Node7 -->
<g id="edge6" class="edge"><title>Node6&#45;&gt;Node7</title>
<path fill="none" stroke="midnightblue" d="M499.478,-327.911C519.159,-322.942 543.391,-316.823 564.321,-311.539"/>
<polygon fill="midnightblue" stroke="midnightblue" points="565.457,-314.862 574.296,-309.02 563.743,-308.075 565.457,-314.862"/>
</g>
<!-- Node8 -->
<g id="node8" class="node"><title>Node8</title>
<g id="a_node8"><a xlink:href="namespacetlz.html#a8e4f8c8c2927bc4350de13bfa0f8f9e1" target="_top" xlink:title="tlz::to_string">
<polygon fill="white" stroke="black" points="577.5,-328 577.5,-347 648.5,-347 648.5,-328 577.5,-328"/>
<text text-anchor="middle" x="613" y="-335" font-family="Helvetica,sans-Serif" font-size="10.00">tlz::to_string</text>
</a>
</g>
</g>
<!-- Node6&#45;&gt;Node8 -->
<g id="edge7" class="edge"><title>Node6&#45;&gt;Node8</title>
<path fill="none" stroke="midnightblue" d="M517.113,-337.5C533.441,-337.5 551.096,-337.5 566.698,-337.5"/>
<polygon fill="midnightblue" stroke="midnightblue" points="567.13,-341 577.13,-337.5 567.129,-334 567.13,-341"/>
</g>
<!-- Node10&#45;&gt;Node4 -->
<g id="edge12" class="edge"><title>Node10&#45;&gt;Node4</title>
<path fill="none" stroke="midnightblue" d="M195.921,-223.5C216.094,-223.5 238.94,-223.5 258.57,-223.5"/>
<polygon fill="midnightblue" stroke="midnightblue" points="258.809,-227 268.809,-223.5 258.809,-220 258.809,-227"/>
</g>
<!-- Node11&#45;&gt;Node5 -->
<g id="edge14" class="edge"><title>Node11&#45;&gt;Node5</title>
<path fill="none" stroke="midnightblue" d="M182.764,-278.113C245.1,-274.371 364.827,-267.183 424.253,-263.616"/>
<polygon fill="midnightblue" stroke="midnightblue" points="424.507,-267.107 434.279,-263.014 424.087,-260.12 424.507,-267.107"/>
</g>
<!-- Node12 -->
<g id="node12" class="node"><title>Node12</title>
<g id="a_node12"><a xlink:href="classtlz_1_1args__list.html#a4aee93f4b0d9b5b4e7a5d13cb637337c" target="_top" xlink:title="tlz::args_list::has\l_next_arg">
<polygon fill="white" stroke="black" points="261,-328.5 261,-358.5 353,-358.5 353,-328.5 261,-328.5"/>
<text text-anchor="start" x="269" y="-346.5" font-family="Helvetica,sans-Serif" font-size="10.00">tlz::args_list::has</text>
<text text-anchor="middle" x="307" y="-335.5" font-family="Helvetica,sans-Serif" font-size="10.00">_next_arg</text>
</a>
</g>
</g>
<!-- Node11&#45;&gt;Node12 -->
<g id="edge15" class="edge"><title>Node11&#45;&gt;Node12</title>
<path fill="none" stroke="midnightblue" d="M182.081,-290.095C191.359,-292.78 201.133,-295.948 210,-299.5 226.795,-306.227 229.633,-310.791 246,-318.5 250.131,-320.446 254.456,-322.402 258.809,-324.315"/>
<polygon fill="midnightblue" stroke="midnightblue" points="257.754,-327.671 268.322,-328.416 260.525,-321.243 257.754,-327.671"/>
</g>
<!-- Node13 -->
<g id="node13" class="node"><title>Node13</title>
<g id="a_node13"><a xlink:href="namespacetlz.html#af0d1e8ba5b9f2dbc2b589afab3a21fc8" target="_top" xlink:title="tlz::int_arg">
<polygon fill="white" stroke="black" points="276,-378 276,-397 338,-397 338,-378 276,-378"/>
<text text-anchor="middle" x="307" y="-385" font-family="Helvetica,sans-Serif" font-size="10.00">tlz::int_arg</text>
</a>
</g>
</g>
<!-- Node11&#45;&gt;Node13 -->
<g id="edge16" class="edge"><title>Node11&#45;&gt;Node13</title>
<path fill="none" stroke="midnightblue" d="M182.775,-286.125C192.437,-288.941 202.217,-293.166 210,-299.5 236.828,-321.333 219.506,-346.262 246,-368.5 251.811,-373.378 258.884,-377.007 266.107,-379.707"/>
<polygon fill="midnightblue" stroke="midnightblue" points="265.354,-383.14 275.945,-382.842 267.479,-376.471 265.354,-383.14"/>
</g>
<!-- Node14 -->
<g id="node14" class="node"><title>Node14</title>
<g id="a_node14"><a xlink:href="namespacetlz.html#a63246890b0c946b5f62a1d3e2bea6103" target="_top" xlink:title="tlz::real_arg">
<polygon fill="white" stroke="black" points="273,-290 273,-309 341,-309 341,-290 273,-290"/>
<text text-anchor="middle" x="307" y="-297" font-family="Helvetica,sans-Serif" font-size="10.00">tlz::real_arg</text>
</a>
</g>
</g>
<!-- Node11&#45;&gt;Node14 -->
<g id="edge20" class="edge"><title>Node11&#45;&gt;Node14</title>
<path fill="none" stroke="midnightblue" d="M182.874,-285.148C207.038,-287.965 237.874,-291.559 262.642,-294.446"/>
<polygon fill="midnightblue" stroke="midnightblue" points="262.51,-297.954 272.848,-295.636 263.321,-291.001 262.51,-297.954"/>
</g>
<!-- Node13&#45;&gt;Node5 -->
<g id="edge17" class="edge"><title>Node13&#45;&gt;Node5</title>
<path fill="none" stroke="midnightblue" d="M338.135,-381.985C348.28,-379.123 359.239,-374.844 368,-368.5 390.179,-352.44 386.4,-339.478 404,-318.5 415.858,-304.366 430.452,-289.463 441.698,-278.441"/>
<polygon fill="midnightblue" stroke="midnightblue" points="444.459,-280.639 449.208,-271.169 439.59,-275.611 444.459,-280.639"/>
</g>
<!-- Node13&#45;&gt;Node6 -->
<g id="edge18" class="edge"><title>Node13&#45;&gt;Node6</title>
<path fill="none" stroke="midnightblue" d="M338.254,-378.049C347.785,-375.037 358.344,-371.664 368,-368.5 385.819,-362.661 405.524,-356.01 422.071,-350.369"/>
<polygon fill="midnightblue" stroke="midnightblue" points="423.589,-353.549 431.92,-347.004 421.325,-346.925 423.589,-353.549"/>
</g>
<!-- Node13&#45;&gt;Node7 -->
<g id="edge19" class="edge"><title>Node13&#45;&gt;Node7</title>
<path fill="none" stroke="midnightblue" d="M338.253,-389.015C380.662,-389.855 459.08,-386.642 517,-356.5 537.637,-345.76 533.314,-330.897 553,-318.5 556.193,-316.489 559.618,-314.673 563.151,-313.036"/>
<polygon fill="midnightblue" stroke="midnightblue" points="564.764,-316.157 572.674,-309.108 562.095,-309.685 564.764,-316.157"/>
</g>
<!-- Node14&#45;&gt;Node5 -->
<g id="edge21" class="edge"><title>Node14&#45;&gt;Node5</title>
<path fill="none" stroke="midnightblue" d="M341.247,-291.161C365.898,-284.978 399.427,-276.568 424.488,-270.282"/>
<polygon fill="midnightblue" stroke="midnightblue" points="425.471,-273.644 434.319,-267.816 423.768,-266.854 425.471,-273.644"/>
</g>
<!-- Node14&#45;&gt;Node6 -->
<g id="edge22" class="edge"><title>Node14&#45;&gt;Node6</title>
<path fill="none" stroke="midnightblue" d="M341.247,-307.839C361.885,-313.016 388.746,-319.753 411.651,-325.498"/>
<polygon fill="midnightblue" stroke="midnightblue" points="410.976,-328.937 421.527,-327.975 412.679,-322.148 410.976,-328.937"/>
</g>
<!-- Node14&#45;&gt;Node7 -->
<g id="edge23" class="edge"><title>Node14&#45;&gt;Node7</title>
<path fill="none" stroke="midnightblue" d="M341.112,-299.5C389.217,-299.5 479.558,-299.5 542.63,-299.5"/>
<polygon fill="midnightblue" stroke="midnightblue" points="542.898,-303 552.898,-299.5 542.898,-296 542.898,-303"/>
</g>
<!-- Node18 -->
<g id="node18" class="node"><title>Node18</title>
<g id="a_node18"><a xlink:href="namespacetlz.html#ae11c827ac9e581f9d2f98c39aab3750d" target="_top" xlink:title="tlz::file_name_extension">
<polygon fill="white" stroke="black" points="246,-50 246,-69 368,-69 368,-50 246,-50"/>
<text text-anchor="middle" x="307" y="-57" font-family="Helvetica,sans-Serif" font-size="10.00">tlz::file_name_extension</text>
</a>
</g>
</g>
<!-- Node17&#45;&gt;Node18 -->
<g id="edge27" class="edge"><title>Node17&#45;&gt;Node18</title>
<path fill="none" stroke="midnightblue" d="M192.791,-59.5C206.277,-59.5 221.134,-59.5 235.525,-59.5"/>
<polygon fill="midnightblue" stroke="midnightblue" points="235.894,-63.0001 245.894,-59.5 235.894,-56.0001 235.894,-63.0001"/>
</g>
</g>
</svg>
