<?xml version="1.0" encoding="UTF-8" standalone="no"?>
<!DOCTYPE svg PUBLIC "-//W3C//DTD SVG 1.1//EN"
 "http://www.w3.org/Graphics/SVG/1.1/DTD/svg11.dtd">
<!-- Generated by graphviz version 2.38.0 (20140413.2041)
 -->
<!-- Title: main Pages: 1 -->
<svg width="1261pt" height="491pt"
 viewBox="0.00 0.00 1261.00 490.86" xmlns="http://www.w3.org/2000/svg" xmlns:xlink="http://www.w3.org/1999/xlink">
<g id="graph0" class="graph" transform="scale(1 1) rotate(0) translate(4 486.865)">
<title>main</title>
<polygon fill="white" stroke="none" points="-4,4 -4,-486.865 1257,-486.865 1257,4 -4,4"/>
<!-- Node1 -->
<g id="node1" class="node"><title>Node1</title>
<polygon fill="#bfbfbf" stroke="black" points="0,-269.5 0,-288.5 38,-288.5 38,-269.5 0,-269.5"/>
<text text-anchor="middle" x="19" y="-276.5" font-family="Helvetica,sans-Serif" font-size="10.00">main</text>
</g>
<!-- Node2 -->
<g id="node2" class="node"><title>Node2</title>
<g id="a_node2"><a xlink:href="namespacetlz.html#a3c03f5d9d6261ec2909938822fc47f8a" target="_top" xlink:title="tlz::get_args">
<polygon fill="white" stroke="black" points="117.5,-421.5 117.5,-440.5 188.5,-440.5 188.5,-421.5 117.5,-421.5"/>
<text text-anchor="middle" x="153" y="-428.5" font-family="Helvetica,sans-Serif" font-size="10.00">tlz::get_args</text>
</a>
</g>
</g>
<!-- Node1&#45;&gt;Node2 -->
<g id="edge1" class="edge"><title>Node1&#45;&gt;Node2</title>
<path fill="none" stroke="midnightblue" d="M20.9707,-288.758C23.9627,-313.414 35.3245,-378.621 74,-412 83.3149,-420.039 95.4811,-424.793 107.424,-427.572"/>
<polygon fill="midnightblue" stroke="midnightblue" points="106.857,-431.027 117.337,-429.47 108.174,-424.152 106.857,-431.027"/>
</g>
<!-- Node3 -->
<g id="node3" class="node"><title>Node3</title>
<g id="a_node3"><a xlink:href="namespacetlz.html#a11d8bb3ca89f4957bfde1cd0d5429a16" target="_top" xlink:title="tlz::image_correspondences_arg">
<polygon fill="white" stroke="black" points="74,-269.5 74,-288.5 232,-288.5 232,-269.5 74,-269.5"/>
<text text-anchor="middle" x="153" y="-276.5" font-family="Helvetica,sans-Serif" font-size="10.00">tlz::image_correspondences_arg</text>
</a>
</g>
</g>
<!-- Node1&#45;&gt;Node3 -->
<g id="edge2" class="edge"><title>Node1&#45;&gt;Node3</title>
<path fill="none" stroke="midnightblue" d="M38.0773,-279C45.2567,-279 54.0776,-279 63.6048,-279"/>
<polygon fill="midnightblue" stroke="midnightblue" points="63.7497,-282.5 73.7497,-279 63.7496,-275.5 63.7497,-282.5"/>
</g>
<!-- Node21 -->
<g id="node21" class="node"><title>Node21</title>
<g id="a_node21"><a xlink:href="namespacetlz.html#a170805c7a8ede64a93e0ee23196e5b7c" target="_top" xlink:title="tlz::intrinsics_arg">
<polygon fill="white" stroke="black" points="107.5,-345.5 107.5,-364.5 198.5,-364.5 198.5,-345.5 107.5,-345.5"/>
<text text-anchor="middle" x="153" y="-352.5" font-family="Helvetica,sans-Serif" font-size="10.00">tlz::intrinsics_arg</text>
</a>
</g>
</g>
<!-- Node1&#45;&gt;Node21 -->
<g id="edge24" class="edge"><title>Node1&#45;&gt;Node21</title>
<path fill="none" stroke="midnightblue" d="M27.7342,-288.859C37.3799,-300.522 54.9381,-319.767 74,-331 81.6271,-335.495 90.1778,-339.225 98.7468,-342.296"/>
<polygon fill="midnightblue" stroke="midnightblue" points="97.7877,-345.666 108.381,-345.49 99.9901,-339.021 97.7877,-345.666"/>
</g>
<!-- Node23 -->
<g id="node23" class="node"><title>Node23</title>
<g id="a_node23"><a xlink:href="namespacetlz.html#a066563a26e2de02f215b179f3d3a53da" target="_top" xlink:title="tlz::decode_mat">
<polygon fill="white" stroke="black" points="520,-357.5 520,-376.5 606,-376.5 606,-357.5 520,-357.5"/>
<text text-anchor="middle" x="563" y="-364.5" font-family="Helvetica,sans-Serif" font-size="10.00">tlz::decode_mat</text>
</a>
</g>
</g>
<!-- Node1&#45;&gt;Node23 -->
<g id="edge32" class="edge"><title>Node1&#45;&gt;Node23</title>
<path fill="none" stroke="midnightblue" d="M38.2165,-286.446C48.5568,-290.408 61.8284,-295.057 74,-298 233.151,-336.48 276.974,-324.39 439,-348 462.258,-351.389 487.957,-355.328 509.824,-358.738"/>
<polygon fill="midnightblue" stroke="midnightblue" points="509.48,-362.227 519.901,-360.314 510.562,-355.311 509.48,-362.227"/>
</g>
<!-- Node24 -->
<g id="node24" class="node"><title>Node24</title>
<g id="a_node24"><a xlink:href="namespacetlz.html#a35f9e03fa4fd9cec699f5fa27962400f" target="_top" xlink:title="tlz::json_arg">
<polygon fill="white" stroke="black" points="318.5,-231.5 318.5,-250.5 388.5,-250.5 388.5,-231.5 318.5,-231.5"/>
<text text-anchor="middle" x="353.5" y="-238.5" font-family="Helvetica,sans-Serif" font-size="10.00">tlz::json_arg</text>
</a>
</g>
</g>
<!-- Node1&#45;&gt;Node24 -->
<g id="edge33" class="edge"><title>Node1&#45;&gt;Node24</title>
<path fill="none" stroke="midnightblue" d="M38.1446,-271.233C48.4623,-267.17 61.7353,-262.527 74,-260 155.38,-243.23 252.672,-240.401 308.061,-240.361"/>
<polygon fill="midnightblue" stroke="midnightblue" points="308.224,-243.861 318.233,-240.385 308.241,-236.861 308.224,-243.861"/>
</g>
<!-- Node25 -->
<g id="node25" class="node"><title>Node25</title>
<g id="a_node25"><a xlink:href="namespacetlz.html#a65770a2c1ff57c5ae6542d4465a3d3f4" target="_top" xlink:title="tlz::out_filename_arg">
<polygon fill="white" stroke="black" points="99.5,-184.5 99.5,-203.5 206.5,-203.5 206.5,-184.5 99.5,-184.5"/>
<text text-anchor="middle" x="153" y="-191.5" font-family="Helvetica,sans-Serif" font-size="10.00">tlz::out_filename_arg</text>
</a>
</g>
</g>
<!-- Node1&#45;&gt;Node25 -->
<g id="edge34" class="edge"><title>Node1&#45;&gt;Node25</title>
<path fill="none" stroke="midnightblue" d="M27.936,-269.464C37.7803,-258.12 55.534,-239.188 74,-227 85.9305,-219.126 100.049,-212.473 112.972,-207.249"/>
<polygon fill="midnightblue" stroke="midnightblue" points="114.503,-210.41 122.566,-203.537 111.977,-203.882 114.503,-210.41"/>
</g>
<!-- Node26 -->
<g id="node26" class="node"><title>Node26</title>
<g id="a_node26"><a xlink:href="namespacetlz.html#ae9eeca909bec8ca797356b56d3cfbb90" target="_top" xlink:title="tlz::undistort">
<polygon fill="white" stroke="black" points="117.5,-127.5 117.5,-146.5 188.5,-146.5 188.5,-127.5 117.5,-127.5"/>
<text text-anchor="middle" x="153" y="-134.5" font-family="Helvetica,sans-Serif" font-size="10.00">tlz::undistort</text>
</a>
</g>
</g>
<!-- Node1&#45;&gt;Node26 -->
<g id="edge36" class="edge"><title>Node1&#45;&gt;Node26</title>
<path fill="none" stroke="midnightblue" d="M22.7094,-269.432C28.7936,-249.481 45.3002,-202.975 74,-175 84.6762,-164.593 98.7565,-156.553 112.013,-150.606"/>
<polygon fill="midnightblue" stroke="midnightblue" points="113.593,-153.738 121.459,-146.641 110.884,-147.284 113.593,-153.738"/>
</g>
<!-- Node30 -->
<g id="node30" class="node"><title>Node30</title>
<g id="a_node30"><a xlink:href="namespacetlz.html#a318f0ec11ecbe39c32ad870473ea9c35" target="_top" xlink:title="Compute square of a number. ">
<polygon fill="white" stroke="black" points="131,-57.5 131,-76.5 175,-76.5 175,-57.5 131,-57.5"/>
<text text-anchor="middle" x="153" y="-64.5" font-family="Helvetica,sans-Serif" font-size="10.00">tlz::sq</text>
</a>
</g>
</g>
<!-- Node1&#45;&gt;Node30 -->
<g id="edge40" class="edge"><title>Node1&#45;&gt;Node30</title>
<path fill="none" stroke="midnightblue" d="M21.03,-269.261C24.2949,-242.484 36.5156,-166.531 74,-118 86.4838,-101.837 105.62,-89.214 121.814,-80.5695"/>
<polygon fill="midnightblue" stroke="midnightblue" points="123.6,-83.5878 130.936,-75.9428 120.434,-77.3449 123.6,-83.5878"/>
</g>
<!-- Node34 -->
<g id="node34" class="node"><title>Node34</title>
<g id="a_node34"><a xlink:href="namespacetlz.html#ab98de0b10e3e079dee189f81adc638a0" target="_top" xlink:title="tlz::export_json_file">
<polygon fill="white" stroke="black" points="102.5,-383.5 102.5,-402.5 203.5,-402.5 203.5,-383.5 102.5,-383.5"/>
<text text-anchor="middle" x="153" y="-390.5" font-family="Helvetica,sans-Serif" font-size="10.00">tlz::export_json_file</text>
</a>
</g>
</g>
<!-- Node1&#45;&gt;Node34 -->
<g id="edge44" class="edge"><title>Node1&#45;&gt;Node34</title>
<path fill="none" stroke="midnightblue" d="M22.6171,-288.518C28.4329,-307.814 44.3184,-351.603 74,-374 79.5315,-378.174 85.8565,-381.443 92.4581,-384.002"/>
<polygon fill="midnightblue" stroke="midnightblue" points="91.6745,-387.43 102.268,-387.265 93.8838,-380.788 91.6745,-387.43"/>
</g>
<!-- Node4 -->
<g id="node4" class="node"><title>Node4</title>
<g id="a_node4"><a xlink:href="namespacetlz.html#ad75d99f2e1623434fbadee66f3ff29a1" target="_top" xlink:title="tlz::import_image_correspondences">
<polygon fill="white" stroke="black" points="268,-269.5 268,-288.5 439,-288.5 439,-269.5 268,-269.5"/>
<text text-anchor="middle" x="353.5" y="-276.5" font-family="Helvetica,sans-Serif" font-size="10.00">tlz::import_image_correspondences</text>
</a>
</g>
</g>
<!-- Node3&#45;&gt;Node4 -->
<g id="edge3" class="edge"><title>Node3&#45;&gt;Node4</title>
<path fill="none" stroke="midnightblue" d="M232.168,-279C240.589,-279 249.223,-279 257.812,-279"/>
<polygon fill="midnightblue" stroke="midnightblue" points="257.857,-282.5 267.857,-279 257.857,-275.5 257.857,-282.5"/>
</g>
<!-- Node14 -->
<g id="node14" class="node"><title>Node14</title>
<g id="a_node14"><a xlink:href="namespacetlz.html#a634de7ca11e100e4a118dffe80376a75" target="_top" xlink:title="tlz::in_filename_arg">
<polygon fill="white" stroke="black" points="512.5,-193.5 512.5,-212.5 613.5,-212.5 613.5,-193.5 512.5,-193.5"/>
<text text-anchor="middle" x="563" y="-200.5" font-family="Helvetica,sans-Serif" font-size="10.00">tlz::in_filename_arg</text>
</a>
</g>
</g>
<!-- Node3&#45;&gt;Node14 -->
<g id="edge15" class="edge"><title>Node3&#45;&gt;Node14</title>
<path fill="none" stroke="midnightblue" d="M168.359,-269.438C189.264,-256.087 229.765,-232.339 268,-222 346.997,-200.639 442.087,-198.557 502.298,-199.999"/>
<polygon fill="midnightblue" stroke="midnightblue" points="502.294,-203.501 512.388,-200.282 502.49,-196.503 502.294,-203.501"/>
</g>
<!-- Node5 -->
<g id="node5" class="node"><title>Node5</title>
<g id="a_node5"><a xlink:href="namespacetlz.html#ae11c827ac9e581f9d2f98c39aab3750d" target="_top" xlink:title="tlz::file_name_extension">
<polygon fill="white" stroke="black" points="502,-395.5 502,-414.5 624,-414.5 624,-395.5 502,-395.5"/>
<text text-anchor="middle" x="563" y="-402.5" font-family="Helvetica,sans-Serif" font-size="10.00">tlz::file_name_extension</text>
</a>
</g>
</g>
<!-- Node4&#45;&gt;Node5 -->
<g id="edge4" class="edge"><title>Node4&#45;&gt;Node5</title>
<path fill="none" stroke="midnightblue" d="M367.232,-288.577C384.146,-301.481 414.717,-325.442 439,-348 456.045,-363.834 454.738,-374.567 475,-386 480.39,-389.041 486.222,-391.596 492.225,-393.742"/>
<polygon fill="midnightblue" stroke="midnightblue" points="491.171,-397.079 501.762,-396.789 493.301,-390.412 491.171,-397.079"/>
</g>
<!-- Node6 -->
<g id="node6" class="node"><title>Node6</title>
<g id="a_node6"><a xlink:href="namespacetlz.html#a24915249769d936c24ceb34f50b06104" target="_top" xlink:title="tlz::decode_image_correspondences">
<polygon fill="white" stroke="black" points="475,-269.5 475,-288.5 651,-288.5 651,-269.5 475,-269.5"/>
<text text-anchor="middle" x="563" y="-276.5" font-family="Helvetica,sans-Serif" font-size="10.00">tlz::decode_image_correspondences</text>
</a>
</g>
</g>
<!-- Node4&#45;&gt;Node6 -->
<g id="edge5" class="edge"><title>Node4&#45;&gt;Node6</title>
<path fill="none" stroke="midnightblue" d="M439.197,-279C447.655,-279 456.287,-279 464.859,-279"/>
<polygon fill="midnightblue" stroke="midnightblue" points="464.879,-282.5 474.879,-279 464.879,-275.5 464.879,-282.5"/>
</g>
<!-- Node12 -->
<g id="node12" class="node"><title>Node12</title>
<g id="a_node12"><a xlink:href="namespacetlz.html#aa1be9362f548fcf9378e1fc9074089c4" target="_top" xlink:title="tlz::import_json_file">
<polygon fill="white" stroke="black" points="512.5,-231.5 512.5,-250.5 613.5,-250.5 613.5,-231.5 512.5,-231.5"/>
<text text-anchor="middle" x="563" y="-238.5" font-family="Helvetica,sans-Serif" font-size="10.00">tlz::import_json_file</text>
</a>
</g>
</g>
<!-- Node4&#45;&gt;Node12 -->
<g id="edge13" class="edge"><title>Node4&#45;&gt;Node12</title>
<path fill="none" stroke="midnightblue" d="M406.593,-269.46C435.715,-264.127 472.126,-257.459 502.383,-251.918"/>
<polygon fill="midnightblue" stroke="midnightblue" points="503.182,-255.33 512.388,-250.086 501.921,-248.444 503.182,-255.33"/>
</g>
<!-- Node13 -->
<g id="node13" class="node"><title>Node13</title>
<g id="a_node13"><a xlink:href="namespacetlz.html#a2ec439452fda5eeb03f60715e50fa96a" target="_top" xlink:title="tlz::import_binary\l_image_correspondences">
<polygon fill="white" stroke="black" points="499,-308 499,-338 627,-338 627,-308 499,-308"/>
<text text-anchor="start" x="507" y="-326" font-family="Helvetica,sans-Serif" font-size="10.00">tlz::import_binary</text>
<text text-anchor="middle" x="563" y="-315" font-family="Helvetica,sans-Serif" font-size="10.00">_image_correspondences</text>
</a>
</g>
</g>
<!-- Node4&#45;&gt;Node13 -->
<g id="edge14" class="edge"><title>Node4&#45;&gt;Node13</title>
<path fill="none" stroke="midnightblue" d="M399.524,-288.547C425.654,-294.088 459.194,-301.2 489.008,-307.522"/>
<polygon fill="midnightblue" stroke="midnightblue" points="488.451,-310.982 498.96,-309.632 489.903,-304.134 488.451,-310.982"/>
</g>
<!-- Node7 -->
<g id="node7" class="node"><title>Node7</title>
<g id="a_node7"><a xlink:href="namespacetlz.html#a252af14b9b4ac6502d3e9c5dd8dc90b8" target="_top" xlink:title="tlz::has">
<polygon fill="white" stroke="black" points="1204,-329.5 1204,-348.5 1253,-348.5 1253,-329.5 1204,-329.5"/>
<text text-anchor="middle" x="1228.5" y="-336.5" font-family="Helvetica,sans-Serif" font-size="10.00">tlz::has</text>
</a>
</g>
</g>
<!-- Node6&#45;&gt;Node7 -->
<g id="edge6" class="edge"><title>Node6&#45;&gt;Node7</title>
<path fill="none" stroke="midnightblue" d="M651.097,-285.829C768.56,-295.225 984.228,-313.131 1168,-332 1176.29,-332.852 1185.23,-333.856 1193.59,-334.834"/>
<polygon fill="midnightblue" stroke="midnightblue" points="1193.43,-338.341 1203.78,-336.046 1194.26,-331.39 1193.43,-338.341"/>
</g>
<!-- Node8 -->
<g id="node8" class="node"><title>Node8</title>
<g id="a_node8"><a xlink:href="namespacetlz.html#ab83b0eb933afca1abe8ccd3470207691" target="_top" xlink:title="tlz::decode_image_correspondence\l_feature">
<polygon fill="white" stroke="black" points="687,-327 687,-357 857,-357 857,-327 687,-327"/>
<text text-anchor="start" x="695" y="-345" font-family="Helvetica,sans-Serif" font-size="10.00">tlz::decode_image_correspondence</text>
<text text-anchor="middle" x="772" y="-334" font-family="Helvetica,sans-Serif" font-size="10.00">_feature</text>
</a>
</g>
</g>
<!-- Node6&#45;&gt;Node8 -->
<g id="edge7" class="edge"><title>Node6&#45;&gt;Node8</title>
<path fill="none" stroke="midnightblue" d="M613.526,-288.591C625.851,-291.313 638.976,-294.5 651,-298 675.591,-305.157 702.401,-314.805 724.43,-323.242"/>
<polygon fill="midnightblue" stroke="midnightblue" points="723.283,-326.551 733.873,-326.896 725.81,-320.023 723.283,-326.551"/>
</g>
<!-- Node8&#45;&gt;Node7 -->
<g id="edge8" class="edge"><title>Node8&#45;&gt;Node7</title>
<path fill="none" stroke="midnightblue" d="M857.228,-337.256C869.231,-336.735 881.427,-336.289 893,-336 1003.09,-333.25 1133.6,-336.219 1193.89,-337.945"/>
<polygon fill="midnightblue" stroke="midnightblue" points="1193.88,-341.445 1203.97,-338.24 1194.08,-334.448 1193.88,-341.445"/>
</g>
<!-- Node9 -->
<g id="node9" class="node"><title>Node9</title>
<g id="a_node9"><a xlink:href="namespacetlz.html#a74e8454f97dace7cffb1afdb6d3ca87b" target="_top" xlink:title="tlz::decode_view_index">
<polygon fill="white" stroke="black" points="893,-395.5 893,-414.5 1012,-414.5 1012,-395.5 893,-395.5"/>
<text text-anchor="middle" x="952.5" y="-402.5" font-family="Helvetica,sans-Serif" font-size="10.00">tlz::decode_view_index</text>
</a>
</g>
</g>
<!-- Node8&#45;&gt;Node9 -->
<g id="edge9" class="edge"><title>Node8&#45;&gt;Node9</title>
<path fill="none" stroke="midnightblue" d="M814.598,-357.075C837.668,-365.393 866.891,-375.859 893,-385 899.602,-387.311 906.634,-389.742 913.449,-392.082"/>
<polygon fill="midnightblue" stroke="midnightblue" points="912.609,-395.493 923.204,-395.419 914.876,-388.87 912.609,-395.493"/>
</g>
<!-- Node10 -->
<g id="node10" class="node"><title>Node10</title>
<g id="a_node10"><a xlink:href="namespacetlz.html#ae8f9175a86bbe49ac0f4485d5db3080b" target="_top" xlink:title="tlz::decode_feature\l_point">
<polygon fill="white" stroke="black" points="902.5,-346 902.5,-376 1002.5,-376 1002.5,-346 902.5,-346"/>
<text text-anchor="start" x="910.5" y="-364" font-family="Helvetica,sans-Serif" font-size="10.00">tlz::decode_feature</text>
<text text-anchor="middle" x="952.5" y="-353" font-family="Helvetica,sans-Serif" font-size="10.00">_point</text>
</a>
</g>
</g>
<!-- Node8&#45;&gt;Node10 -->
<g id="edge10" class="edge"><title>Node8&#45;&gt;Node10</title>
<path fill="none" stroke="midnightblue" d="M857.023,-350.944C868.931,-352.211 880.963,-353.492 892.268,-354.695"/>
<polygon fill="midnightblue" stroke="midnightblue" points="892.107,-358.198 902.422,-355.776 892.848,-351.237 892.107,-358.198"/>
</g>
<!-- Node11 -->
<g id="node11" class="node"><title>Node11</title>
<g id="a_node11"><a xlink:href="namespacetlz.html#add846dc50c32dfb356cb1a7ac11d37ac" target="_top" xlink:title="tlz::get_or">
<polygon fill="white" stroke="black" points="1078,-351.5 1078,-370.5 1138,-370.5 1138,-351.5 1078,-351.5"/>
<text text-anchor="middle" x="1108" y="-358.5" font-family="Helvetica,sans-Serif" font-size="10.00">tlz::get_or</text>
</a>
</g>
</g>
<!-- Node10&#45;&gt;Node11 -->
<g id="edge11" class="edge"><title>Node10&#45;&gt;Node11</title>
<path fill="none" stroke="midnightblue" d="M1002.91,-361C1023.86,-361 1047.94,-361 1067.66,-361"/>
<polygon fill="midnightblue" stroke="midnightblue" points="1067.82,-364.5 1077.82,-361 1067.82,-357.5 1067.82,-364.5"/>
</g>
<!-- Node11&#45;&gt;Node7 -->
<g id="edge12" class="edge"><title>Node11&#45;&gt;Node7</title>
<path fill="none" stroke="midnightblue" d="M1138.29,-355.562C1154.98,-352.464 1175.97,-348.567 1193.39,-345.332"/>
<polygon fill="midnightblue" stroke="midnightblue" points="1194.52,-348.683 1203.71,-343.416 1193.24,-341.8 1194.52,-348.683"/>
</g>
<!-- Node15 -->
<g id="node15" class="node"><title>Node15</title>
<g id="a_node15"><a xlink:href="namespacetlz.html#a0621d598fb83b13bf028f3e6293d04f8" target="_top" xlink:title="tlz::string_arg">
<polygon fill="white" stroke="black" points="734,-117.5 734,-136.5 810,-136.5 810,-117.5 734,-117.5"/>
<text text-anchor="middle" x="772" y="-124.5" font-family="Helvetica,sans-Serif" font-size="10.00">tlz::string_arg</text>
</a>
</g>
</g>
<!-- Node14&#45;&gt;Node15 -->
<g id="edge16" class="edge"><title>Node14&#45;&gt;Node15</title>
<path fill="none" stroke="midnightblue" d="M611.757,-193.425C624.866,-189.844 638.817,-185.114 651,-179 669.117,-169.909 668.925,-160.174 687,-151 698.525,-145.15 711.686,-140.536 724.116,-136.982"/>
<polygon fill="midnightblue" stroke="midnightblue" points="725.134,-140.333 733.882,-134.356 723.316,-133.573 725.134,-140.333"/>
</g>
<!-- Node16 -->
<g id="node16" class="node"><title>Node16</title>
<g id="a_node16"><a xlink:href="namespacetlz.html#a780431daab8d2595372eacb43143b52d" target="_top" xlink:title="tlz::args">
<polygon fill="white" stroke="black" points="926.5,-155.5 926.5,-174.5 978.5,-174.5 978.5,-155.5 926.5,-155.5"/>
<text text-anchor="middle" x="952.5" y="-162.5" font-family="Helvetica,sans-Serif" font-size="10.00">tlz::args</text>
</a>
</g>
</g>
<!-- Node14&#45;&gt;Node16 -->
<g id="edge22" class="edge"><title>Node14&#45;&gt;Node16</title>
<path fill="none" stroke="midnightblue" d="M613.55,-194.403C635.929,-190.764 662.738,-186.741 687,-184 768.789,-174.761 865.342,-169.16 916.148,-166.621"/>
<polygon fill="midnightblue" stroke="midnightblue" points="916.456,-170.111 926.273,-166.126 916.114,-163.119 916.456,-170.111"/>
</g>
<!-- Node18 -->
<g id="node18" class="node"><title>Node18</title>
<g id="a_node18"><a xlink:href="classtlz_1_1args__list.html#a38ad21acd64a4af98ffdf4a47837cdbe" target="_top" xlink:title="tlz::args_list::usage_fail">
<polygon fill="white" stroke="black" points="1048,-193.5 1048,-212.5 1168,-212.5 1168,-193.5 1048,-193.5"/>
<text text-anchor="middle" x="1108" y="-200.5" font-family="Helvetica,sans-Serif" font-size="10.00">tlz::args_list::usage_fail</text>
</a>
</g>
</g>
<!-- Node14&#45;&gt;Node18 -->
<g id="edge23" class="edge"><title>Node14&#45;&gt;Node18</title>
<path fill="none" stroke="midnightblue" d="M613.77,-212.463C636.074,-216.244 662.763,-220.139 687,-222 810.308,-231.468 954.372,-220.08 1037.7,-211.296"/>
<polygon fill="midnightblue" stroke="midnightblue" points="1038.24,-214.759 1047.81,-210.212 1037.49,-207.799 1038.24,-214.759"/>
</g>
<!-- Node20 -->
<g id="node20" class="node"><title>Node20</title>
<g id="a_node20"><a xlink:href="namespacetlz.html#abb019466ea9f56c0dab27e893d891837" target="_top" xlink:title="tlz::file_exists">
<polygon fill="white" stroke="black" points="733.5,-193.5 733.5,-212.5 810.5,-212.5 810.5,-193.5 733.5,-193.5"/>
<text text-anchor="middle" x="772" y="-200.5" font-family="Helvetica,sans-Serif" font-size="10.00">tlz::file_exists</text>
</a>
</g>
</g>
<!-- Node14&#45;&gt;Node20 -->
<g id="edge21" class="edge"><title>Node14&#45;&gt;Node20</title>
<path fill="none" stroke="midnightblue" d="M613.582,-203C646.823,-203 690.36,-203 723.22,-203"/>
<polygon fill="midnightblue" stroke="midnightblue" points="723.488,-206.5 733.488,-203 723.488,-199.5 723.488,-206.5"/>
</g>
<!-- Node15&#45;&gt;Node16 -->
<g id="edge17" class="edge"><title>Node15&#45;&gt;Node16</title>
<path fill="none" stroke="midnightblue" d="M810.419,-134.966C841.739,-141.634 886.091,-151.075 916.665,-157.584"/>
<polygon fill="midnightblue" stroke="midnightblue" points="915.957,-161.012 926.467,-159.671 917.415,-154.165 915.957,-161.012"/>
</g>
<!-- Node17 -->
<g id="node17" class="node"><title>Node17</title>
<g id="a_node17"><a xlink:href="classtlz_1_1args__list.html#a73d99bc75998dc14607a3a372d28dc6d" target="_top" xlink:title="tlz::args_list::next_arg">
<polygon fill="white" stroke="black" points="896,-117.5 896,-136.5 1009,-136.5 1009,-117.5 896,-117.5"/>
<text text-anchor="middle" x="952.5" y="-124.5" font-family="Helvetica,sans-Serif" font-size="10.00">tlz::args_list::next_arg</text>
</a>
</g>
</g>
<!-- Node15&#45;&gt;Node17 -->
<g id="edge18" class="edge"><title>Node15&#45;&gt;Node17</title>
<path fill="none" stroke="midnightblue" d="M810.419,-127C832.163,-127 860.188,-127 885.524,-127"/>
<polygon fill="midnightblue" stroke="midnightblue" points="885.819,-130.5 895.819,-127 885.819,-123.5 885.819,-130.5"/>
</g>
<!-- Node17&#45;&gt;Node18 -->
<g id="edge19" class="edge"><title>Node17&#45;&gt;Node18</title>
<path fill="none" stroke="midnightblue" d="M987.407,-136.574C995.597,-139.277 1004.23,-142.46 1012,-146 1038.18,-157.917 1066.18,-175.36 1084.95,-187.807"/>
<polygon fill="midnightblue" stroke="midnightblue" points="1083.13,-190.796 1093.38,-193.47 1087.03,-184.986 1083.13,-190.796"/>
</g>
<!-- Node19 -->
<g id="node19" class="node"><title>Node19</title>
<g id="a_node19"><a xlink:href="namespacetlz.html#a8e4f8c8c2927bc4350de13bfa0f8f9e1" target="_top" xlink:title="tlz::to_string">
<polygon fill="white" stroke="black" points="1072.5,-117.5 1072.5,-136.5 1143.5,-136.5 1143.5,-117.5 1072.5,-117.5"/>
<text text-anchor="middle" x="1108" y="-124.5" font-family="Helvetica,sans-Serif" font-size="10.00">tlz::to_string</text>
</a>
</g>
</g>
<!-- Node17&#45;&gt;Node19 -->
<g id="edge20" class="edge"><title>Node17&#45;&gt;Node19</title>
<path fill="none" stroke="midnightblue" d="M1009.35,-127C1026.65,-127 1045.48,-127 1061.95,-127"/>
<polygon fill="midnightblue" stroke="midnightblue" points="1062.39,-130.5 1072.39,-127 1062.39,-123.5 1062.39,-130.5"/>
</g>
<!-- Node22 -->
<g id="node22" class="node"><title>Node22</title>
<g id="a_node22"><a xlink:href="namespacetlz.html#a8cba4853d0d796a01c72f59f36f2a492" target="_top" xlink:title="tlz::decode_intrinsics">
<polygon fill="white" stroke="black" points="299,-357.5 299,-376.5 408,-376.5 408,-357.5 299,-357.5"/>
<text text-anchor="middle" x="353.5" y="-364.5" font-family="Helvetica,sans-Serif" font-size="10.00">tlz::decode_intrinsics</text>
</a>
</g>
</g>
<!-- Node21&#45;&gt;Node22 -->
<g id="edge25" class="edge"><title>Node21&#45;&gt;Node22</title>
<path fill="none" stroke="midnightblue" d="M198.547,-357.693C225.132,-359.3 259.332,-361.368 288.743,-363.146"/>
<polygon fill="midnightblue" stroke="midnightblue" points="288.733,-366.651 298.926,-363.761 289.156,-359.664 288.733,-366.651"/>
</g>
<!-- Node21&#45;&gt;Node24 -->
<g id="edge29" class="edge"><title>Node21&#45;&gt;Node24</title>
<path fill="none" stroke="midnightblue" d="M168.686,-345.444C184.829,-334.678 211.226,-316.284 232,-298 249.463,-282.629 247.774,-271.495 268,-260 280.188,-253.073 294.707,-248.672 308.241,-245.875"/>
<polygon fill="midnightblue" stroke="midnightblue" points="309.134,-249.27 318.345,-244.034 307.879,-242.383 309.134,-249.27"/>
</g>
<!-- Node22&#45;&gt;Node7 -->
<g id="edge27" class="edge"><title>Node22&#45;&gt;Node7</title>
<path fill="none" stroke="midnightblue" d="M364.808,-376.532C384.499,-394.107 429.56,-431.34 475,-448 599.28,-493.567 638.629,-481 771,-481 771,-481 771,-481 953.5,-481 1061.27,-481 1168.84,-393.337 1209.99,-355.767"/>
<polygon fill="midnightblue" stroke="midnightblue" points="1212.59,-358.132 1217.53,-348.76 1207.82,-353.005 1212.59,-358.132"/>
</g>
<!-- Node22&#45;&gt;Node11 -->
<g id="edge28" class="edge"><title>Node22&#45;&gt;Node11</title>
<path fill="none" stroke="midnightblue" d="M369.308,-376.675C391.294,-390.4 434.356,-414.872 475,-424 591.433,-450.149 897.745,-458.442 1012,-424 1041.96,-414.968 1071.15,-393.058 1089.1,-377.624"/>
<polygon fill="midnightblue" stroke="midnightblue" points="1091.8,-379.907 1096.96,-370.653 1087.15,-374.671 1091.8,-379.907"/>
</g>
<!-- Node22&#45;&gt;Node23 -->
<g id="edge26" class="edge"><title>Node22&#45;&gt;Node23</title>
<path fill="none" stroke="midnightblue" d="M408.206,-367C439.493,-367 478.764,-367 509.79,-367"/>
<polygon fill="midnightblue" stroke="midnightblue" points="509.973,-370.5 519.973,-367 509.973,-363.5 509.973,-370.5"/>
</g>
<!-- Node24&#45;&gt;Node12 -->
<g id="edge30" class="edge"><title>Node24&#45;&gt;Node12</title>
<path fill="none" stroke="midnightblue" d="M388.764,-241C419.488,-241 465.256,-241 502.035,-241"/>
<polygon fill="midnightblue" stroke="midnightblue" points="502.15,-244.5 512.15,-241 502.15,-237.5 502.15,-244.5"/>
</g>
<!-- Node24&#45;&gt;Node14 -->
<g id="edge31" class="edge"><title>Node24&#45;&gt;Node14</title>
<path fill="none" stroke="midnightblue" d="M388.764,-234.725C419.488,-229.099 465.256,-220.717 502.035,-213.982"/>
<polygon fill="midnightblue" stroke="midnightblue" points="502.944,-217.373 512.15,-212.129 501.683,-210.488 502.944,-217.373"/>
</g>
<!-- Node25&#45;&gt;Node15 -->
<g id="edge35" class="edge"><title>Node25&#45;&gt;Node15</title>
<path fill="none" stroke="midnightblue" d="M206.694,-189.687C297.541,-182.055 489.456,-165.066 651,-145 675.003,-142.018 701.614,-138.091 723.665,-134.665"/>
<polygon fill="midnightblue" stroke="midnightblue" points="724.433,-138.087 733.77,-133.081 723.349,-131.172 724.433,-138.087"/>
</g>
<!-- Node27 -->
<g id="node27" class="node"><title>Node27</title>
<g id="a_node27"><a xlink:href="namespacetlz.html#a8b5e4acbb884887859e414ffe06a09f8" target="_top" xlink:title="tlz::undistort_points">
<polygon fill="white" stroke="black" points="302.5,-114.5 302.5,-133.5 404.5,-133.5 404.5,-114.5 302.5,-114.5"/>
<text text-anchor="middle" x="353.5" y="-121.5" font-family="Helvetica,sans-Serif" font-size="10.00">tlz::undistort_points</text>
</a>
</g>
</g>
<!-- Node26&#45;&gt;Node27 -->
<g id="edge37" class="edge"><title>Node26&#45;&gt;Node27</title>
<path fill="none" stroke="midnightblue" d="M188.576,-134.736C217.064,-132.87 258.143,-130.18 292.051,-127.959"/>
<polygon fill="midnightblue" stroke="midnightblue" points="292.572,-131.432 302.322,-127.286 292.115,-124.447 292.572,-131.432"/>
</g>
<!-- Node28 -->
<g id="node28" class="node"><title>Node28</title>
<g id="a_node28"><a xlink:href="structtlz_1_1distortion__parameters.html#a307fee036b04519d633fb8456899850c" target="_top" xlink:title="tlz::distortion_parameters\l::is_none">
<polygon fill="white" stroke="black" points="499.5,-106 499.5,-136 626.5,-136 626.5,-106 499.5,-106"/>
<text text-anchor="start" x="507.5" y="-124" font-family="Helvetica,sans-Serif" font-size="10.00">tlz::distortion_parameters</text>
<text text-anchor="middle" x="563" y="-113" font-family="Helvetica,sans-Serif" font-size="10.00">::is_none</text>
</a>
</g>
</g>
<!-- Node27&#45;&gt;Node28 -->
<g id="edge38" class="edge"><title>Node27&#45;&gt;Node28</title>
<path fill="none" stroke="midnightblue" d="M404.73,-123.274C430.047,-122.908 461.219,-122.457 489.116,-122.054"/>
<polygon fill="midnightblue" stroke="midnightblue" points="489.28,-125.552 499.228,-121.908 489.179,-118.553 489.28,-125.552"/>
</g>
<!-- Node29 -->
<g id="node29" class="node"><title>Node29</title>
<g id="a_node29"><a xlink:href="structtlz_1_1distortion__parameters.html#a96312c5d7baa4b7b1f2a76e9396037f8" target="_top" xlink:title="tlz::distortion_parameters\l::cv_coeffs">
<polygon fill="white" stroke="black" points="499.5,-57 499.5,-87 626.5,-87 626.5,-57 499.5,-57"/>
<text text-anchor="start" x="507.5" y="-75" font-family="Helvetica,sans-Serif" font-size="10.00">tlz::distortion_parameters</text>
<text text-anchor="middle" x="563" y="-64" font-family="Helvetica,sans-Serif" font-size="10.00">::cv_coeffs</text>
</a>
</g>
</g>
<!-- Node27&#45;&gt;Node29 -->
<g id="edge39" class="edge"><title>Node27&#45;&gt;Node29</title>
<path fill="none" stroke="midnightblue" d="M398.437,-114.479C411.516,-111.548 425.86,-108.238 439,-105 458.286,-100.247 479.184,-94.7655 498.187,-89.6526"/>
<polygon fill="midnightblue" stroke="midnightblue" points="499.193,-93.0064 507.933,-87.0183 497.366,-86.2489 499.193,-93.0064"/>
</g>
<!-- Node31 -->
<g id="node31" class="node"><title>Node31</title>
<g id="a_node31"><a xlink:href="namespacetlz.html#a643b2d03bd805fe78dcd684ef45e52fb" target="_top" xlink:title="Clamp value between minimum and maximum value. ">
<polygon fill="white" stroke="black" points="324,-38.5 324,-57.5 383,-57.5 383,-38.5 324,-38.5"/>
<text text-anchor="middle" x="353.5" y="-45.5" font-family="Helvetica,sans-Serif" font-size="10.00">tlz::clamp</text>
</a>
</g>
</g>
<!-- Node30&#45;&gt;Node31 -->
<g id="edge41" class="edge"><title>Node30&#45;&gt;Node31</title>
<path fill="none" stroke="midnightblue" d="M175.243,-64.9667C208.251,-61.8072 272.356,-55.6712 313.753,-51.7088"/>
<polygon fill="midnightblue" stroke="midnightblue" points="314.135,-55.1883 323.756,-50.7513 313.468,-48.2202 314.135,-55.1883"/>
</g>
<!-- Node32 -->
<g id="node32" class="node"><title>Node32</title>
<g id="a_node32"><a xlink:href="namespacetlz.html#a4fe5757a830e199f84d229eee11f616e" target="_top" xlink:title="Compute greatest common divisor of a and b. ">
<polygon fill="white" stroke="black" points="329,-0.5 329,-19.5 378,-19.5 378,-0.5 329,-0.5"/>
<text text-anchor="middle" x="353.5" y="-7.5" font-family="Helvetica,sans-Serif" font-size="10.00">tlz::gcd</text>
</a>
</g>
</g>
<!-- Node30&#45;&gt;Node32 -->
<g id="edge42" class="edge"><title>Node30&#45;&gt;Node32</title>
<path fill="none" stroke="midnightblue" d="M175.233,-59.2088C197.981,-51.0306 235.24,-38.1182 268,-29 284.478,-24.4137 302.995,-20.1519 318.487,-16.8317"/>
<polygon fill="midnightblue" stroke="midnightblue" points="319.6,-20.1742 328.666,-14.6911 318.16,-13.324 319.6,-20.1742"/>
</g>
<!-- Node33 -->
<g id="node33" class="node"><title>Node33</title>
<g id="a_node33"><a xlink:href="namespacetlz.html#aec6e2158ce198aa20a8493fde3d3b552" target="_top" xlink:title="Compute least common multiple of a and b. ">
<polygon fill="white" stroke="black" points="329,-76.5 329,-95.5 378,-95.5 378,-76.5 329,-76.5"/>
<text text-anchor="middle" x="353.5" y="-83.5" font-family="Helvetica,sans-Serif" font-size="10.00">tlz::lcm</text>
</a>
</g>
</g>
<!-- Node30&#45;&gt;Node33 -->
<g id="edge43" class="edge"><title>Node30&#45;&gt;Node33</title>
<path fill="none" stroke="midnightblue" d="M175.243,-69.0333C209.653,-72.327 277.858,-78.8554 318.902,-82.784"/>
<polygon fill="midnightblue" stroke="midnightblue" points="318.674,-86.2782 328.962,-83.747 319.341,-79.31 318.674,-86.2782"/>
</g>
<!-- Node34&#45;&gt;Node5 -->
<g id="edge45" class="edge"><title>Node34&#45;&gt;Node5</title>
<path fill="none" stroke="midnightblue" d="M203.621,-394.459C275.687,-396.579 409.655,-400.519 491.812,-402.936"/>
<polygon fill="midnightblue" stroke="midnightblue" points="491.715,-406.434 501.813,-403.23 491.92,-399.437 491.715,-406.434"/>
</g>
</g>
</svg>
