<?xml version="1.0" encoding="UTF-8" standalone="no"?>
<!DOCTYPE svg PUBLIC "-//W3C//DTD SVG 1.1//EN"
 "http://www.w3.org/Graphics/SVG/1.1/DTD/svg11.dtd">
<!-- Generated by graphviz version 2.38.0 (20140413.2041)
 -->
<!-- Title: main Pages: 1 -->
<svg width="968pt" height="531pt"
 viewBox="0.00 0.00 968.00 530.80" xmlns="http://www.w3.org/2000/svg" xmlns:xlink="http://www.w3.org/1999/xlink">
<g id="graph0" class="graph" transform="scale(1 1) rotate(0) translate(4 526.797)">
<title>main</title>
<polygon fill="white" stroke="none" points="-4,4 -4,-526.797 964,-526.797 964,4 -4,4"/>
<!-- Node1 -->
<g id="node1" class="node"><title>Node1</title>
<polygon fill="#bfbfbf" stroke="black" points="0,-231 0,-250 38,-250 38,-231 0,-231"/>
<text text-anchor="middle" x="19" y="-238" font-family="Helvetica,sans-Serif" font-size="10.00">main</text>
</g>
<!-- Node2 -->
<g id="node2" class="node"><title>Node2</title>
<g id="a_node2"><a xlink:href="namespacetlz.html#a3c03f5d9d6261ec2909938822fc47f8a" target="_top" xlink:title="tlz::get_args">
<polygon fill="white" stroke="black" points="95,-421 95,-440 166,-440 166,-421 95,-421"/>
<text text-anchor="middle" x="130.5" y="-428" font-family="Helvetica,sans-Serif" font-size="10.00">tlz::get_args</text>
</a>
</g>
</g>
<!-- Node1&#45;&gt;Node2 -->
<g id="edge1" class="edge"><title>Node1&#45;&gt;Node2</title>
<path fill="none" stroke="midnightblue" d="M20.1652,-250.137C21.1826,-278.809 28.1101,-364.497 74,-411.5 77.3795,-414.961 81.4156,-417.792 85.7483,-420.108"/>
<polygon fill="midnightblue" stroke="midnightblue" points="84.3818,-423.33 94.943,-424.173 87.2124,-416.928 84.3818,-423.33"/>
</g>
<!-- Node3 -->
<g id="node3" class="node"><title>Node3</title>
<g id="a_node3"><a xlink:href="namespacetlz.html#accab66b2847b4c4ea3170487b64903c1" target="_top" xlink:title="tlz::feature_points_arg">
<polygon fill="white" stroke="black" points="74,-383 74,-402 187,-402 187,-383 74,-383"/>
<text text-anchor="middle" x="130.5" y="-390" font-family="Helvetica,sans-Serif" font-size="10.00">tlz::feature_points_arg</text>
</a>
</g>
</g>
<!-- Node1&#45;&gt;Node3 -->
<g id="edge2" class="edge"><title>Node1&#45;&gt;Node3</title>
<path fill="none" stroke="midnightblue" d="M21.5534,-250.216C25.7738,-273.615 39.5341,-333.725 74,-368.5 77.7376,-372.271 82.1648,-375.489 86.8631,-378.225"/>
<polygon fill="midnightblue" stroke="midnightblue" points="85.6194,-381.518 96.1223,-382.911 88.7805,-375.273 85.6194,-381.518"/>
</g>
<!-- Node9 -->
<g id="node9" class="node"><title>Node9</title>
<g id="a_node9"><a xlink:href="namespacetlz.html#a35f9e03fa4fd9cec699f5fa27962400f" target="_top" xlink:title="tlz::json_arg">
<polygon fill="white" stroke="black" points="249,-269 249,-288 319,-288 319,-269 249,-269"/>
<text text-anchor="middle" x="284" y="-276" font-family="Helvetica,sans-Serif" font-size="10.00">tlz::json_arg</text>
</a>
</g>
</g>
<!-- Node1&#45;&gt;Node9 -->
<g id="edge28" class="edge"><title>Node1&#45;&gt;Node9</title>
<path fill="none" stroke="midnightblue" d="M38.4913,-243.261C48.9175,-244.812 62.1836,-246.777 74,-248.5 130.967,-256.808 196.696,-266.213 238.997,-272.243"/>
<polygon fill="midnightblue" stroke="midnightblue" points="238.571,-275.717 248.965,-273.663 239.558,-268.787 238.571,-275.717"/>
</g>
<!-- Node18 -->
<g id="node18" class="node"><title>Node18</title>
<g id="a_node18"><a xlink:href="namespacetlz.html#a170805c7a8ede64a93e0ee23196e5b7c" target="_top" xlink:title="tlz::intrinsics_arg">
<polygon fill="white" stroke="black" points="85,-307 85,-326 176,-326 176,-307 85,-307"/>
<text text-anchor="middle" x="130.5" y="-314" font-family="Helvetica,sans-Serif" font-size="10.00">tlz::intrinsics_arg</text>
</a>
</g>
</g>
<!-- Node1&#45;&gt;Node18 -->
<g id="edge21" class="edge"><title>Node1&#45;&gt;Node18</title>
<path fill="none" stroke="midnightblue" d="M27.9523,-250.011C37.8127,-261.331 55.5823,-280.239 74,-292.5 79.8125,-296.369 86.3513,-299.848 92.8465,-302.878"/>
<polygon fill="midnightblue" stroke="midnightblue" points="91.6777,-306.187 102.242,-306.99 94.484,-299.774 91.6777,-306.187"/>
</g>
<!-- Node20 -->
<g id="node20" class="node"><title>Node20</title>
<g id="a_node20"><a xlink:href="namespacetlz.html#a066563a26e2de02f215b179f3d3a53da" target="_top" xlink:title="tlz::decode_mat">
<polygon fill="white" stroke="black" points="401.5,-383 401.5,-402 487.5,-402 487.5,-383 401.5,-383"/>
<text text-anchor="middle" x="444.5" y="-390" font-family="Helvetica,sans-Serif" font-size="10.00">tlz::decode_mat</text>
</a>
</g>
</g>
<!-- Node1&#45;&gt;Node20 -->
<g id="edge27" class="edge"><title>Node1&#45;&gt;Node20</title>
<path fill="none" stroke="midnightblue" d="M22.4632,-250.232C27.9951,-269.921 43.3843,-314.398 74,-335.5 124.508,-370.313 301.865,-384.792 391.22,-389.985"/>
<polygon fill="midnightblue" stroke="midnightblue" points="391.226,-393.491 401.407,-390.559 391.619,-386.502 391.226,-393.491"/>
</g>
<!-- Node21 -->
<g id="node21" class="node"><title>Node21</title>
<g id="a_node21"><a xlink:href="namespacetlz.html#a65770a2c1ff57c5ae6542d4465a3d3f4" target="_top" xlink:title="tlz::out_filename_arg">
<polygon fill="white" stroke="black" points="230.5,-215 230.5,-234 337.5,-234 337.5,-215 230.5,-215"/>
<text text-anchor="middle" x="284" y="-222" font-family="Helvetica,sans-Serif" font-size="10.00">tlz::out_filename_arg</text>
</a>
</g>
</g>
<!-- Node1&#45;&gt;Node21 -->
<g id="edge29" class="edge"><title>Node1&#45;&gt;Node21</title>
<path fill="none" stroke="midnightblue" d="M38.0771,-239.4C75.0481,-237.151 160.832,-231.932 220.372,-228.31"/>
<polygon fill="midnightblue" stroke="midnightblue" points="220.658,-231.799 230.427,-227.698 220.233,-224.812 220.658,-231.799"/>
</g>
<!-- Node22 -->
<g id="node22" class="node"><title>Node22</title>
<g id="a_node22"><a xlink:href="namespacetlz.html#ae9eeca909bec8ca797356b56d3cfbb90" target="_top" xlink:title="tlz::undistort">
<polygon fill="white" stroke="black" points="95,-143 95,-162 166,-162 166,-143 95,-143"/>
<text text-anchor="middle" x="130.5" y="-150" font-family="Helvetica,sans-Serif" font-size="10.00">tlz::undistort</text>
</a>
</g>
</g>
<!-- Node1&#45;&gt;Node22 -->
<g id="edge31" class="edge"><title>Node1&#45;&gt;Node22</title>
<path fill="none" stroke="midnightblue" d="M25.2726,-230.559C33.6644,-215.652 51.4403,-187.547 74,-171.5 77.5011,-169.01 81.3555,-166.824 85.3517,-164.91"/>
<polygon fill="midnightblue" stroke="midnightblue" points="86.9723,-168.026 94.834,-160.923 84.2591,-161.573 86.9723,-168.026"/>
</g>
<!-- Node26 -->
<g id="node26" class="node"><title>Node26</title>
<g id="a_node26"><a xlink:href="namespacetlz.html#ab937f017b3638fd7ae21499b9ecc3688" target="_top" xlink:title="tlz::model_horizontal\l_slope">
<polygon fill="white" stroke="black" points="77,-93.5 77,-123.5 184,-123.5 184,-93.5 77,-93.5"/>
<text text-anchor="start" x="85" y="-111.5" font-family="Helvetica,sans-Serif" font-size="10.00">tlz::model_horizontal</text>
<text text-anchor="middle" x="130.5" y="-100.5" font-family="Helvetica,sans-Serif" font-size="10.00">_slope</text>
</a>
</g>
</g>
<!-- Node1&#45;&gt;Node26 -->
<g id="edge35" class="edge"><title>Node1&#45;&gt;Node26</title>
<path fill="none" stroke="midnightblue" d="M22.4754,-230.898C28.208,-210.414 44.2314,-161.983 74,-133.5 75.613,-131.957 77.3378,-130.498 79.1448,-129.12"/>
<polygon fill="midnightblue" stroke="midnightblue" points="81.0965,-132.025 87.5035,-123.587 77.2329,-126.188 81.0965,-132.025"/>
</g>
<!-- Node27 -->
<g id="node27" class="node"><title>Node27</title>
<g id="a_node27"><a xlink:href="namespacetlz.html#ad9e6861d0c3fa74ca4a44f379cea8d31" target="_top" xlink:title="tlz::model_vertical\l_slope">
<polygon fill="white" stroke="black" points="82.5,-44.5 82.5,-74.5 178.5,-74.5 178.5,-44.5 82.5,-44.5"/>
<text text-anchor="start" x="90.5" y="-62.5" font-family="Helvetica,sans-Serif" font-size="10.00">tlz::model_vertical</text>
<text text-anchor="middle" x="130.5" y="-51.5" font-family="Helvetica,sans-Serif" font-size="10.00">_slope</text>
</a>
</g>
</g>
<!-- Node1&#45;&gt;Node27 -->
<g id="edge36" class="edge"><title>Node1&#45;&gt;Node27</title>
<path fill="none" stroke="midnightblue" d="M20.6873,-230.651C23.0765,-203.641 33.2664,-127.492 74,-83.5 74.8826,-82.5468 75.8096,-81.6296 76.7746,-80.7473"/>
<polygon fill="midnightblue" stroke="midnightblue" points="78.9644,-83.4792 84.8114,-74.6439 74.7308,-77.9045 78.9644,-83.4792"/>
</g>
<!-- Node28 -->
<g id="node28" class="node"><title>Node28</title>
<g id="a_node28"><a xlink:href="namespacetlz.html#ab98de0b10e3e079dee189f81adc638a0" target="_top" xlink:title="tlz::export_json_file">
<polygon fill="white" stroke="black" points="80,-6 80,-25 181,-25 181,-6 80,-6"/>
<text text-anchor="middle" x="130.5" y="-13" font-family="Helvetica,sans-Serif" font-size="10.00">tlz::export_json_file</text>
</a>
</g>
</g>
<!-- Node1&#45;&gt;Node28 -->
<g id="edge37" class="edge"><title>Node1&#45;&gt;Node28</title>
<path fill="none" stroke="midnightblue" d="M19.5482,-230.822C18.581,-198.453 19.8941,-92.7345 74,-34.5 75.3518,-33.0451 76.8196,-31.7016 78.378,-30.461"/>
<polygon fill="midnightblue" stroke="midnightblue" points="80.2643,-33.4092 86.8065,-25.0756 76.4953,-27.5105 80.2643,-33.4092"/>
</g>
<!-- Node30 -->
<g id="node30" class="node"><title>Node30</title>
<g id="a_node30"><a xlink:href="namespacetlz.html#a96def3742b2e93e5d1da90d6083d670c" target="_top" xlink:title="tlz::encode_feature\l_slopes">
<polygon fill="white" stroke="black" points="80.5,-181.5 80.5,-211.5 180.5,-211.5 180.5,-181.5 80.5,-181.5"/>
<text text-anchor="start" x="88.5" y="-199.5" font-family="Helvetica,sans-Serif" font-size="10.00">tlz::encode_feature</text>
<text text-anchor="middle" x="130.5" y="-188.5" font-family="Helvetica,sans-Serif" font-size="10.00">_slopes</text>
</a>
</g>
</g>
<!-- Node1&#45;&gt;Node30 -->
<g id="edge39" class="edge"><title>Node1&#45;&gt;Node30</title>
<path fill="none" stroke="midnightblue" d="M38.0817,-233.234C50.1546,-228.383 66.63,-221.763 82.2707,-215.478"/>
<polygon fill="midnightblue" stroke="midnightblue" points="83.8807,-218.603 91.8546,-211.627 81.2707,-212.108 83.8807,-218.603"/>
</g>
<!-- Node4 -->
<g id="node4" class="node"><title>Node4</title>
<g id="a_node4"><a xlink:href="namespacetlz.html#abc92401653ee5627160c4f3c48a11311" target="_top" xlink:title="tlz::decode_feature\l_points">
<polygon fill="white" stroke="black" points="234,-459.5 234,-489.5 334,-489.5 334,-459.5 234,-459.5"/>
<text text-anchor="start" x="242" y="-477.5" font-family="Helvetica,sans-Serif" font-size="10.00">tlz::decode_feature</text>
<text text-anchor="middle" x="284" y="-466.5" font-family="Helvetica,sans-Serif" font-size="10.00">_points</text>
</a>
</g>
</g>
<!-- Node3&#45;&gt;Node4 -->
<g id="edge3" class="edge"><title>Node3&#45;&gt;Node4</title>
<path fill="none" stroke="midnightblue" d="M163.752,-402.013C171.518,-404.718 179.682,-407.917 187,-411.5 211.112,-423.305 236.422,-440.125 254.997,-453.416"/>
<polygon fill="midnightblue" stroke="midnightblue" points="253.136,-456.389 263.284,-459.431 257.248,-450.724 253.136,-456.389"/>
</g>
<!-- Node3&#45;&gt;Node9 -->
<g id="edge10" class="edge"><title>Node3&#45;&gt;Node9</title>
<path fill="none" stroke="midnightblue" d="M140.968,-382.857C152.048,-371.553 170.927,-352.235 187,-335.5 203.115,-318.721 203.283,-309.849 223,-297.5 228.042,-294.342 233.654,-291.668 239.365,-289.414"/>
<polygon fill="midnightblue" stroke="midnightblue" points="240.728,-292.645 248.987,-286.008 238.393,-286.046 240.728,-292.645"/>
</g>
<!-- Node5 -->
<g id="node5" class="node"><title>Node5</title>
<g id="a_node5"><a xlink:href="namespacetlz.html#a252af14b9b4ac6502d3e9c5dd8dc90b8" target="_top" xlink:title="tlz::has">
<polygon fill="white" stroke="black" points="723,-465 723,-484 772,-484 772,-465 723,-465"/>
<text text-anchor="middle" x="747.5" y="-472" font-family="Helvetica,sans-Serif" font-size="10.00">tlz::has</text>
</a>
</g>
</g>
<!-- Node4&#45;&gt;Node5 -->
<g id="edge4" class="edge"><title>Node4&#45;&gt;Node5</title>
<path fill="none" stroke="midnightblue" d="M313.047,-489.657C331.709,-498.857 357.098,-509.72 381,-514.5 501.911,-538.682 648.452,-503.597 713.104,-484.917"/>
<polygon fill="midnightblue" stroke="midnightblue" points="714.158,-488.255 722.761,-482.071 712.179,-481.541 714.158,-488.255"/>
</g>
<!-- Node6 -->
<g id="node6" class="node"><title>Node6</title>
<g id="a_node6"><a xlink:href="namespacetlz.html#a74e8454f97dace7cffb1afdb6d3ca87b" target="_top" xlink:title="tlz::decode_view_index">
<polygon fill="white" stroke="black" points="385,-421 385,-440 504,-440 504,-421 385,-421"/>
<text text-anchor="middle" x="444.5" y="-428" font-family="Helvetica,sans-Serif" font-size="10.00">tlz::decode_view_index</text>
</a>
</g>
</g>
<!-- Node4&#45;&gt;Node6 -->
<g id="edge5" class="edge"><title>Node4&#45;&gt;Node6</title>
<path fill="none" stroke="midnightblue" d="M334.282,-460.819C354.961,-455.079 378.832,-448.452 398.974,-442.861"/>
<polygon fill="midnightblue" stroke="midnightblue" points="400.13,-446.172 408.83,-440.125 398.258,-439.427 400.13,-446.172"/>
</g>
<!-- Node7 -->
<g id="node7" class="node"><title>Node7</title>
<g id="a_node7"><a xlink:href="namespacetlz.html#add846dc50c32dfb356cb1a7ac11d37ac" target="_top" xlink:title="tlz::get_or">
<polygon fill="white" stroke="black" points="569.5,-465 569.5,-484 629.5,-484 629.5,-465 569.5,-465"/>
<text text-anchor="middle" x="599.5" y="-472" font-family="Helvetica,sans-Serif" font-size="10.00">tlz::get_or</text>
</a>
</g>
</g>
<!-- Node4&#45;&gt;Node7 -->
<g id="edge6" class="edge"><title>Node4&#45;&gt;Node7</title>
<path fill="none" stroke="midnightblue" d="M334.39,-489.304C349.233,-493.084 365.654,-496.611 381,-498.5 437.022,-505.397 452.029,-505.795 508,-498.5 525.321,-496.242 544.047,-491.651 559.947,-487.083"/>
<polygon fill="midnightblue" stroke="midnightblue" points="561.356,-490.316 569.943,-484.11 559.361,-483.606 561.356,-490.316"/>
</g>
<!-- Node8 -->
<g id="node8" class="node"><title>Node8</title>
<g id="a_node8"><a xlink:href="namespacetlz.html#ae8f9175a86bbe49ac0f4485d5db3080b" target="_top" xlink:title="tlz::decode_feature\l_point">
<polygon fill="white" stroke="black" points="394.5,-459.5 394.5,-489.5 494.5,-489.5 494.5,-459.5 394.5,-459.5"/>
<text text-anchor="start" x="402.5" y="-477.5" font-family="Helvetica,sans-Serif" font-size="10.00">tlz::decode_feature</text>
<text text-anchor="middle" x="444.5" y="-466.5" font-family="Helvetica,sans-Serif" font-size="10.00">_point</text>
</a>
</g>
</g>
<!-- Node4&#45;&gt;Node8 -->
<g id="edge8" class="edge"><title>Node4&#45;&gt;Node8</title>
<path fill="none" stroke="midnightblue" d="M334.282,-474.5C350.085,-474.5 367.754,-474.5 384.197,-474.5"/>
<polygon fill="midnightblue" stroke="midnightblue" points="384.249,-478 394.249,-474.5 384.249,-471 384.249,-478"/>
</g>
<!-- Node7&#45;&gt;Node5 -->
<g id="edge7" class="edge"><title>Node7&#45;&gt;Node5</title>
<path fill="none" stroke="midnightblue" d="M629.694,-474.5C653.577,-474.5 687.387,-474.5 712.49,-474.5"/>
<polygon fill="midnightblue" stroke="midnightblue" points="712.662,-478 722.662,-474.5 712.662,-471 712.662,-478"/>
</g>
<!-- Node8&#45;&gt;Node7 -->
<g id="edge9" class="edge"><title>Node8&#45;&gt;Node7</title>
<path fill="none" stroke="midnightblue" d="M494.752,-474.5C515.634,-474.5 539.631,-474.5 559.284,-474.5"/>
<polygon fill="midnightblue" stroke="midnightblue" points="559.415,-478 569.415,-474.5 559.415,-471 559.415,-478"/>
</g>
<!-- Node10 -->
<g id="node10" class="node"><title>Node10</title>
<g id="a_node10"><a xlink:href="namespacetlz.html#aa1be9362f548fcf9378e1fc9074089c4" target="_top" xlink:title="tlz::import_json_file">
<polygon fill="white" stroke="black" points="394,-269 394,-288 495,-288 495,-269 394,-269"/>
<text text-anchor="middle" x="444.5" y="-276" font-family="Helvetica,sans-Serif" font-size="10.00">tlz::import_json_file</text>
</a>
</g>
</g>
<!-- Node9&#45;&gt;Node10 -->
<g id="edge11" class="edge"><title>Node9&#45;&gt;Node10</title>
<path fill="none" stroke="midnightblue" d="M319.002,-278.5C337.848,-278.5 361.829,-278.5 383.702,-278.5"/>
<polygon fill="midnightblue" stroke="midnightblue" points="383.907,-282 393.907,-278.5 383.907,-275 383.907,-282"/>
</g>
<!-- Node11 -->
<g id="node11" class="node"><title>Node11</title>
<g id="a_node11"><a xlink:href="namespacetlz.html#a634de7ca11e100e4a118dffe80376a75" target="_top" xlink:title="tlz::in_filename_arg">
<polygon fill="white" stroke="black" points="394,-231 394,-250 495,-250 495,-231 394,-231"/>
<text text-anchor="middle" x="444.5" y="-238" font-family="Helvetica,sans-Serif" font-size="10.00">tlz::in_filename_arg</text>
</a>
</g>
</g>
<!-- Node9&#45;&gt;Node11 -->
<g id="edge12" class="edge"><title>Node9&#45;&gt;Node11</title>
<path fill="none" stroke="midnightblue" d="M319.002,-270.348C340.828,-265.115 369.539,-258.232 393.889,-252.394"/>
<polygon fill="midnightblue" stroke="midnightblue" points="394.767,-255.783 403.676,-250.048 393.135,-248.976 394.767,-255.783"/>
</g>
<!-- Node12 -->
<g id="node12" class="node"><title>Node12</title>
<g id="a_node12"><a xlink:href="namespacetlz.html#a0621d598fb83b13bf028f3e6293d04f8" target="_top" xlink:title="tlz::string_arg">
<polygon fill="white" stroke="black" points="561.5,-184 561.5,-203 637.5,-203 637.5,-184 561.5,-184"/>
<text text-anchor="middle" x="599.5" y="-191" font-family="Helvetica,sans-Serif" font-size="10.00">tlz::string_arg</text>
</a>
</g>
</g>
<!-- Node11&#45;&gt;Node12 -->
<g id="edge13" class="edge"><title>Node11&#45;&gt;Node12</title>
<path fill="none" stroke="midnightblue" d="M476.462,-230.989C499.819,-223.814 532.081,-213.903 557.567,-206.074"/>
<polygon fill="midnightblue" stroke="midnightblue" points="558.791,-209.36 567.322,-203.078 556.735,-202.668 558.791,-209.36"/>
</g>
<!-- Node13 -->
<g id="node13" class="node"><title>Node13</title>
<g id="a_node13"><a xlink:href="namespacetlz.html#a780431daab8d2595372eacb43143b52d" target="_top" xlink:title="tlz::args">
<polygon fill="white" stroke="black" points="721.5,-222 721.5,-241 773.5,-241 773.5,-222 721.5,-222"/>
<text text-anchor="middle" x="747.5" y="-229" font-family="Helvetica,sans-Serif" font-size="10.00">tlz::args</text>
</a>
</g>
</g>
<!-- Node11&#45;&gt;Node13 -->
<g id="edge19" class="edge"><title>Node11&#45;&gt;Node13</title>
<path fill="none" stroke="midnightblue" d="M495.204,-239.014C556.099,-237.193 657.738,-234.154 711.185,-232.556"/>
<polygon fill="midnightblue" stroke="midnightblue" points="711.315,-236.054 721.205,-232.256 711.105,-229.057 711.315,-236.054"/>
</g>
<!-- Node15 -->
<g id="node15" class="node"><title>Node15</title>
<g id="a_node15"><a xlink:href="classtlz_1_1args__list.html#a38ad21acd64a4af98ffdf4a47837cdbe" target="_top" xlink:title="tlz::args_list::usage_fail">
<polygon fill="white" stroke="black" points="840,-241 840,-260 960,-260 960,-241 840,-241"/>
<text text-anchor="middle" x="900" y="-248" font-family="Helvetica,sans-Serif" font-size="10.00">tlz::args_list::usage_fail</text>
</a>
</g>
</g>
<!-- Node11&#45;&gt;Node15 -->
<g id="edge20" class="edge"><title>Node11&#45;&gt;Node15</title>
<path fill="none" stroke="midnightblue" d="M485.093,-250.027C492.906,-252.596 500.883,-255.734 508,-259.5 526.161,-269.108 524.624,-281.667 544,-288.5 656.638,-328.225 800.839,-286.619 865.272,-263.611"/>
<polygon fill="midnightblue" stroke="midnightblue" points="866.717,-266.809 874.911,-260.093 864.317,-260.234 866.717,-266.809"/>
</g>
<!-- Node17 -->
<g id="node17" class="node"><title>Node17</title>
<g id="a_node17"><a xlink:href="namespacetlz.html#abb019466ea9f56c0dab27e893d891837" target="_top" xlink:title="tlz::file_exists">
<polygon fill="white" stroke="black" points="561,-260 561,-279 638,-279 638,-260 561,-260"/>
<text text-anchor="middle" x="599.5" y="-267" font-family="Helvetica,sans-Serif" font-size="10.00">tlz::file_exists</text>
</a>
</g>
</g>
<!-- Node11&#45;&gt;Node17 -->
<g id="edge18" class="edge"><title>Node11&#45;&gt;Node17</title>
<path fill="none" stroke="midnightblue" d="M495.175,-249.915C512.972,-253.289 532.988,-257.083 550.629,-260.426"/>
<polygon fill="midnightblue" stroke="midnightblue" points="550.23,-263.913 560.707,-262.337 551.534,-257.036 550.23,-263.913"/>
</g>
<!-- Node12&#45;&gt;Node13 -->
<g id="edge14" class="edge"><title>Node12&#45;&gt;Node13</title>
<path fill="none" stroke="midnightblue" d="M637.342,-203.089C660.051,-209 689.006,-216.536 711.388,-222.361"/>
<polygon fill="midnightblue" stroke="midnightblue" points="710.603,-225.774 721.163,-224.905 712.367,-218.999 710.603,-225.774"/>
</g>
<!-- Node14 -->
<g id="node14" class="node"><title>Node14</title>
<g id="a_node14"><a xlink:href="classtlz_1_1args__list.html#a73d99bc75998dc14607a3a372d28dc6d" target="_top" xlink:title="tlz::args_list::next_arg">
<polygon fill="white" stroke="black" points="691,-184 691,-203 804,-203 804,-184 691,-184"/>
<text text-anchor="middle" x="747.5" y="-191" font-family="Helvetica,sans-Serif" font-size="10.00">tlz::args_list::next_arg</text>
</a>
</g>
</g>
<!-- Node12&#45;&gt;Node14 -->
<g id="edge15" class="edge"><title>Node12&#45;&gt;Node14</title>
<path fill="none" stroke="midnightblue" d="M637.72,-193.5C650.831,-193.5 665.987,-193.5 680.745,-193.5"/>
<polygon fill="midnightblue" stroke="midnightblue" points="680.868,-197 690.868,-193.5 680.868,-190 680.868,-197"/>
</g>
<!-- Node14&#45;&gt;Node15 -->
<g id="edge16" class="edge"><title>Node14&#45;&gt;Node15</title>
<path fill="none" stroke="midnightblue" d="M777.404,-203.085C785.995,-206.018 795.406,-209.313 804,-212.5 825.035,-220.302 848.438,-229.655 866.752,-237.13"/>
<polygon fill="midnightblue" stroke="midnightblue" points="865.51,-240.403 876.09,-240.958 868.165,-233.926 865.51,-240.403"/>
</g>
<!-- Node16 -->
<g id="node16" class="node"><title>Node16</title>
<g id="a_node16"><a xlink:href="namespacetlz.html#a8e4f8c8c2927bc4350de13bfa0f8f9e1" target="_top" xlink:title="tlz::to_string">
<polygon fill="white" stroke="black" points="864.5,-146 864.5,-165 935.5,-165 935.5,-146 864.5,-146"/>
<text text-anchor="middle" x="900" y="-153" font-family="Helvetica,sans-Serif" font-size="10.00">tlz::to_string</text>
</a>
</g>
</g>
<!-- Node14&#45;&gt;Node16 -->
<g id="edge17" class="edge"><title>Node14&#45;&gt;Node16</title>
<path fill="none" stroke="midnightblue" d="M786.478,-183.911C807.15,-178.691 832.844,-172.204 854.458,-166.747"/>
<polygon fill="midnightblue" stroke="midnightblue" points="855.545,-170.082 864.384,-164.24 853.831,-163.295 855.545,-170.082"/>
</g>
<!-- Node18&#45;&gt;Node9 -->
<g id="edge26" class="edge"><title>Node18&#45;&gt;Node9</title>
<path fill="none" stroke="midnightblue" d="M169.73,-306.911C190.862,-301.61 217.206,-295.003 239.169,-289.494"/>
<polygon fill="midnightblue" stroke="midnightblue" points="240.07,-292.876 248.918,-287.049 238.367,-286.087 240.07,-292.876"/>
</g>
<!-- Node19 -->
<g id="node19" class="node"><title>Node19</title>
<g id="a_node19"><a xlink:href="namespacetlz.html#a8cba4853d0d796a01c72f59f36f2a492" target="_top" xlink:title="tlz::decode_intrinsics">
<polygon fill="white" stroke="black" points="229.5,-307 229.5,-326 338.5,-326 338.5,-307 229.5,-307"/>
<text text-anchor="middle" x="284" y="-314" font-family="Helvetica,sans-Serif" font-size="10.00">tlz::decode_intrinsics</text>
</a>
</g>
</g>
<!-- Node18&#45;&gt;Node19 -->
<g id="edge22" class="edge"><title>Node18&#45;&gt;Node19</title>
<path fill="none" stroke="midnightblue" d="M176.136,-316.5C189.551,-316.5 204.541,-316.5 218.953,-316.5"/>
<polygon fill="midnightblue" stroke="midnightblue" points="219.314,-320 229.314,-316.5 219.314,-313 219.314,-320"/>
</g>
<!-- Node19&#45;&gt;Node5 -->
<g id="edge24" class="edge"><title>Node19&#45;&gt;Node5</title>
<path fill="none" stroke="midnightblue" d="M338.55,-313.503C384.545,-312.527 452.083,-314.938 508,-332.5 597.332,-360.557 688.454,-427.828 727.186,-458.622"/>
<polygon fill="midnightblue" stroke="midnightblue" points="725.066,-461.408 735.051,-464.95 729.454,-455.955 725.066,-461.408"/>
</g>
<!-- Node19&#45;&gt;Node7 -->
<g id="edge25" class="edge"><title>Node19&#45;&gt;Node7</title>
<path fill="none" stroke="midnightblue" d="M336.267,-326.004C392.749,-337.098 479.386,-356.144 508,-373.5 542.855,-394.641 571.961,-433.386 587.15,-456.252"/>
<polygon fill="midnightblue" stroke="midnightblue" points="584.248,-458.211 592.614,-464.712 590.128,-454.413 584.248,-458.211"/>
</g>
<!-- Node19&#45;&gt;Node20 -->
<g id="edge23" class="edge"><title>Node19&#45;&gt;Node20</title>
<path fill="none" stroke="midnightblue" d="M313.542,-326.04C323.758,-329.937 335.171,-334.862 345,-340.5 362.583,-350.585 363.348,-358.537 381,-368.5 388.196,-372.562 396.216,-376.218 404.046,-379.382"/>
<polygon fill="midnightblue" stroke="midnightblue" points="402.846,-382.67 413.436,-382.99 405.357,-376.136 402.846,-382.67"/>
</g>
<!-- Node21&#45;&gt;Node12 -->
<g id="edge30" class="edge"><title>Node21&#45;&gt;Node12</title>
<path fill="none" stroke="midnightblue" d="M337.826,-219.276C397.459,-213.38 493.614,-203.872 550.973,-198.2"/>
<polygon fill="midnightblue" stroke="midnightblue" points="551.607,-201.654 561.214,-197.187 550.918,-194.688 551.607,-201.654"/>
</g>
<!-- Node23 -->
<g id="node23" class="node"><title>Node23</title>
<g id="a_node23"><a xlink:href="namespacetlz.html#a8b5e4acbb884887859e414ffe06a09f8" target="_top" xlink:title="tlz::undistort_points">
<polygon fill="white" stroke="black" points="233,-55 233,-74 335,-74 335,-55 233,-55"/>
<text text-anchor="middle" x="284" y="-62" font-family="Helvetica,sans-Serif" font-size="10.00">tlz::undistort_points</text>
</a>
</g>
</g>
<!-- Node22&#45;&gt;Node23 -->
<g id="edge32" class="edge"><title>Node22&#45;&gt;Node23</title>
<path fill="none" stroke="midnightblue" d="M162.667,-142.938C170.776,-140.003 179.373,-136.481 187,-132.5 215.419,-117.665 245.078,-95.4588 263.773,-80.4969"/>
<polygon fill="midnightblue" stroke="midnightblue" points="265.99,-83.2053 271.547,-74.1848 261.578,-77.771 265.99,-83.2053"/>
</g>
<!-- Node24 -->
<g id="node24" class="node"><title>Node24</title>
<g id="a_node24"><a xlink:href="structtlz_1_1distortion__parameters.html#a307fee036b04519d633fb8456899850c" target="_top" xlink:title="tlz::distortion_parameters\l::is_none">
<polygon fill="white" stroke="black" points="381,-49.5 381,-79.5 508,-79.5 508,-49.5 381,-49.5"/>
<text text-anchor="start" x="389" y="-67.5" font-family="Helvetica,sans-Serif" font-size="10.00">tlz::distortion_parameters</text>
<text text-anchor="middle" x="444.5" y="-56.5" font-family="Helvetica,sans-Serif" font-size="10.00">::is_none</text>
</a>
</g>
</g>
<!-- Node23&#45;&gt;Node24 -->
<g id="edge33" class="edge"><title>Node23&#45;&gt;Node24</title>
<path fill="none" stroke="midnightblue" d="M335.15,-64.5C346.487,-64.5 358.747,-64.5 370.802,-64.5"/>
<polygon fill="midnightblue" stroke="midnightblue" points="370.857,-68.0001 380.857,-64.5 370.857,-61.0001 370.857,-68.0001"/>
</g>
<!-- Node25 -->
<g id="node25" class="node"><title>Node25</title>
<g id="a_node25"><a xlink:href="structtlz_1_1distortion__parameters.html#a96312c5d7baa4b7b1f2a76e9396037f8" target="_top" xlink:title="tlz::distortion_parameters\l::cv_coeffs">
<polygon fill="white" stroke="black" points="381,-0.5 381,-30.5 508,-30.5 508,-0.5 381,-0.5"/>
<text text-anchor="start" x="389" y="-18.5" font-family="Helvetica,sans-Serif" font-size="10.00">tlz::distortion_parameters</text>
<text text-anchor="middle" x="444.5" y="-7.5" font-family="Helvetica,sans-Serif" font-size="10.00">::cv_coeffs</text>
</a>
</g>
</g>
<!-- Node23&#45;&gt;Node25 -->
<g id="edge34" class="edge"><title>Node23&#45;&gt;Node25</title>
<path fill="none" stroke="midnightblue" d="M315.937,-54.936C335.565,-48.8679 361.588,-40.823 385.008,-33.5826"/>
<polygon fill="midnightblue" stroke="midnightblue" points="386.34,-36.8345 394.86,-30.537 384.272,-30.1467 386.34,-36.8345"/>
</g>
<!-- Node29 -->
<g id="node29" class="node"><title>Node29</title>
<g id="a_node29"><a xlink:href="namespacetlz.html#ae11c827ac9e581f9d2f98c39aab3750d" target="_top" xlink:title="tlz::file_name_extension">
<polygon fill="white" stroke="black" points="223,-6 223,-25 345,-25 345,-6 223,-6"/>
<text text-anchor="middle" x="284" y="-13" font-family="Helvetica,sans-Serif" font-size="10.00">tlz::file_name_extension</text>
</a>
</g>
</g>
<!-- Node28&#45;&gt;Node29 -->
<g id="edge38" class="edge"><title>Node28&#45;&gt;Node29</title>
<path fill="none" stroke="midnightblue" d="M181.107,-15.5C191.243,-15.5 202.092,-15.5 212.792,-15.5"/>
<polygon fill="midnightblue" stroke="midnightblue" points="212.977,-19.0001 222.977,-15.5 212.977,-12.0001 212.977,-19.0001"/>
</g>
<!-- Node31 -->
<g id="node31" class="node"><title>Node31</title>
<g id="a_node31"><a xlink:href="namespacetlz.html#a0b42822a3802ba98cfb8d42223b3149d" target="_top" xlink:title="tlz::encode_feature\l_points">
<polygon fill="white" stroke="black" points="234,-142.5 234,-172.5 334,-172.5 334,-142.5 234,-142.5"/>
<text text-anchor="start" x="242" y="-160.5" font-family="Helvetica,sans-Serif" font-size="10.00">tlz::encode_feature</text>
<text text-anchor="middle" x="284" y="-149.5" font-family="Helvetica,sans-Serif" font-size="10.00">_points</text>
</a>
</g>
</g>
<!-- Node30&#45;&gt;Node31 -->
<g id="edge40" class="edge"><title>Node30&#45;&gt;Node31</title>
<path fill="none" stroke="midnightblue" d="M180.688,-183.838C194.517,-180.278 209.699,-176.37 224.036,-172.679"/>
<polygon fill="midnightblue" stroke="midnightblue" points="224.988,-176.048 233.8,-170.165 223.243,-169.269 224.988,-176.048"/>
</g>
<!-- Node32 -->
<g id="node32" class="node"><title>Node32</title>
<g id="a_node32"><a xlink:href="namespacetlz.html#a8f6c31dc4b1dffe7950bcb1f4ff85cbc" target="_top" xlink:title="tlz::encode_feature\l_point">
<polygon fill="white" stroke="black" points="394.5,-98.5 394.5,-128.5 494.5,-128.5 494.5,-98.5 394.5,-98.5"/>
<text text-anchor="start" x="402.5" y="-116.5" font-family="Helvetica,sans-Serif" font-size="10.00">tlz::encode_feature</text>
<text text-anchor="middle" x="444.5" y="-105.5" font-family="Helvetica,sans-Serif" font-size="10.00">_point</text>
</a>
</g>
</g>
<!-- Node31&#45;&gt;Node32 -->
<g id="edge41" class="edge"><title>Node31&#45;&gt;Node32</title>
<path fill="none" stroke="midnightblue" d="M334.282,-143.819C350.085,-139.432 367.754,-134.527 384.197,-129.963"/>
<polygon fill="midnightblue" stroke="midnightblue" points="385.55,-133.22 394.249,-127.172 383.677,-126.475 385.55,-133.22"/>
</g>
<!-- Node33 -->
<g id="node33" class="node"><title>Node33</title>
<g id="a_node33"><a xlink:href="namespacetlz.html#aadab29bdc80bc1d0ad6d3784dd427992" target="_top" xlink:title="tlz::encode_view_index">
<polygon fill="white" stroke="black" points="385,-148 385,-167 504,-167 504,-148 385,-148"/>
<text text-anchor="middle" x="444.5" y="-155" font-family="Helvetica,sans-Serif" font-size="10.00">tlz::encode_view_index</text>
</a>
</g>
</g>
<!-- Node31&#45;&gt;Node33 -->
<g id="edge42" class="edge"><title>Node31&#45;&gt;Node33</title>
<path fill="none" stroke="midnightblue" d="M334.282,-157.5C347.027,-157.5 360.985,-157.5 374.535,-157.5"/>
<polygon fill="midnightblue" stroke="midnightblue" points="374.79,-161 384.79,-157.5 374.79,-154 374.79,-161"/>
</g>
<!-- Node33&#45;&gt;Node16 -->
<g id="edge43" class="edge"><title>Node33&#45;&gt;Node16</title>
<path fill="none" stroke="midnightblue" d="M481.233,-147.99C499.804,-143.531 522.96,-138.718 544,-136.5 655.137,-124.785 786.651,-139.146 854.122,-148.558"/>
<polygon fill="midnightblue" stroke="midnightblue" points="853.994,-152.075 864.387,-150.021 854.981,-145.145 853.994,-152.075"/>
</g>
<!-- Node34 -->
<g id="node34" class="node"><title>Node34</title>
<g id="a_node34"><a xlink:href="structtlz_1_1view__index.html#a20518c30015d833cdb2a69b524886b96" target="_top" xlink:title="tlz::view_index::is_2d">
<polygon fill="white" stroke="black" points="544,-146 544,-165 655,-165 655,-146 544,-146"/>
<text text-anchor="middle" x="599.5" y="-153" font-family="Helvetica,sans-Serif" font-size="10.00">tlz::view_index::is_2d</text>
</a>
</g>
</g>
<!-- Node33&#45;&gt;Node34 -->
<g id="edge44" class="edge"><title>Node33&#45;&gt;Node34</title>
<path fill="none" stroke="midnightblue" d="M504.216,-156.732C513.848,-156.607 523.878,-156.475 533.649,-156.348"/>
<polygon fill="midnightblue" stroke="midnightblue" points="533.756,-159.847 543.709,-156.216 533.664,-152.847 533.756,-159.847"/>
</g>
</g>
</svg>
