<?xml version="1.0" encoding="UTF-8" standalone="no"?>
<!DOCTYPE svg PUBLIC "-//W3C//DTD SVG 1.1//EN"
 "http://www.w3.org/Graphics/SVG/1.1/DTD/svg11.dtd">
<!-- Generated by graphviz version 2.38.0 (20140413.2041)
 -->
<!-- Title: main Pages: 1 -->
<svg width="961pt" height="1129pt"
 viewBox="0.00 0.00 961.00 1128.50" xmlns="http://www.w3.org/2000/svg" xmlns:xlink="http://www.w3.org/1999/xlink">
<g id="graph0" class="graph" transform="scale(1 1) rotate(0) translate(4 1124.5)">
<title>main</title>
<polygon fill="white" stroke="none" points="-4,4 -4,-1124.5 957,-1124.5 957,4 -4,4"/>
<!-- Node1 -->
<g id="node1" class="node"><title>Node1</title>
<polygon fill="#bfbfbf" stroke="black" points="0,-544 0,-563 38,-563 38,-544 0,-544"/>
<text text-anchor="middle" x="19" y="-551" font-family="Helvetica,sans-Serif" font-size="10.00">main</text>
</g>
<!-- Node2 -->
<g id="node2" class="node"><title>Node2</title>
<g id="a_node2"><a xlink:href="namespacetlz.html#a3c03f5d9d6261ec2909938822fc47f8a" target="_top" xlink:title="tlz::get_args">
<polygon fill="white" stroke="black" points="102,-1063 102,-1082 173,-1082 173,-1063 102,-1063"/>
<text text-anchor="middle" x="137.5" y="-1070" font-family="Helvetica,sans-Serif" font-size="10.00">tlz::get_args</text>
</a>
</g>
</g>
<!-- Node1&#45;&gt;Node2 -->
<g id="edge1" class="edge"><title>Node1&#45;&gt;Node2</title>
<path fill="none" stroke="midnightblue" d="M20.4644,-563.373C23.6616,-629.661 43.2032,-1008.52 74,-1048.5 78.6816,-1054.58 85.1035,-1059.12 92.0571,-1062.51"/>
<polygon fill="midnightblue" stroke="midnightblue" points="91.1737,-1065.92 101.755,-1066.45 93.8123,-1059.44 91.1737,-1065.92"/>
</g>
<!-- Node3 -->
<g id="node3" class="node"><title>Node3</title>
<g id="a_node3"><a xlink:href="namespacetlz.html#a91f1aec7120c97452c495ee447e56b57" target="_top" xlink:title="tlz::dataset_arg">
<polygon fill="white" stroke="black" points="245,-987 245,-1006 329,-1006 329,-987 245,-987"/>
<text text-anchor="middle" x="287" y="-994" font-family="Helvetica,sans-Serif" font-size="10.00">tlz::dataset_arg</text>
</a>
</g>
</g>
<!-- Node1&#45;&gt;Node3 -->
<g id="edge2" class="edge"><title>Node1&#45;&gt;Node3</title>
<path fill="none" stroke="midnightblue" d="M19.7174,-563.007C18.2424,-619.731 13.638,-913.063 74,-972.5 115.642,-1013.5 186.483,-1013.08 234.713,-1006.72"/>
<polygon fill="midnightblue" stroke="midnightblue" points="235.246,-1010.18 244.643,-1005.29 234.245,-1003.25 235.246,-1010.18"/>
</g>
<!-- Node4 -->
<g id="node4" class="node"><title>Node4</title>
<g id="a_node4"><a xlink:href="namespacetlz.html#a634de7ca11e100e4a118dffe80376a75" target="_top" xlink:title="tlz::in_filename_arg">
<polygon fill="white" stroke="black" points="382,-1025 382,-1044 483,-1044 483,-1025 382,-1025"/>
<text text-anchor="middle" x="432.5" y="-1032" font-family="Helvetica,sans-Serif" font-size="10.00">tlz::in_filename_arg</text>
</a>
</g>
</g>
<!-- Node1&#45;&gt;Node4 -->
<g id="edge21" class="edge"><title>Node1&#45;&gt;Node4</title>
<path fill="none" stroke="midnightblue" d="M20.4478,-563.399C23.404,-626.656 41.0196,-972.668 74,-1004.5 115.156,-1044.22 281.282,-1042.39 371.869,-1038.18"/>
<polygon fill="midnightblue" stroke="midnightblue" points="372.177,-1041.67 381.994,-1037.69 371.836,-1034.68 372.177,-1041.67"/>
</g>
<!-- Node9 -->
<g id="node9" class="node"><title>Node9</title>
<g id="a_node9"><a xlink:href="namespacetlz.html#a8e4f8c8c2927bc4350de13bfa0f8f9e1" target="_top" xlink:title="tlz::to_string">
<polygon fill="white" stroke="black" points="857.5,-977 857.5,-996 928.5,-996 928.5,-977 857.5,-977"/>
<text text-anchor="middle" x="893" y="-984" font-family="Helvetica,sans-Serif" font-size="10.00">tlz::to_string</text>
</a>
</g>
</g>
<!-- Node1&#45;&gt;Node9 -->
<g id="edge62" class="edge"><title>Node1&#45;&gt;Node9</title>
<path fill="none" stroke="midnightblue" d="M20.0305,-563.219C20.3967,-615.2 24.7469,-859.97 74,-912.5 139.946,-982.834 189.585,-958.5 286,-958.5 286,-958.5 286,-958.5 589,-958.5 680.948,-958.5 787.927,-971.443 846.996,-979.729"/>
<polygon fill="midnightblue" stroke="midnightblue" points="846.711,-983.224 857.104,-981.168 847.697,-976.293 846.711,-983.224"/>
</g>
<!-- Node11 -->
<g id="node11" class="node"><title>Node11</title>
<g id="a_node11"><a xlink:href="namespacetlz.html#a170805c7a8ede64a93e0ee23196e5b7c" target="_top" xlink:title="tlz::intrinsics_arg">
<polygon fill="white" stroke="black" points="92,-884 92,-903 183,-903 183,-884 92,-884"/>
<text text-anchor="middle" x="137.5" y="-891" font-family="Helvetica,sans-Serif" font-size="10.00">tlz::intrinsics_arg</text>
</a>
</g>
</g>
<!-- Node1&#45;&gt;Node11 -->
<g id="edge12" class="edge"><title>Node1&#45;&gt;Node11</title>
<path fill="none" stroke="midnightblue" d="M20.394,-563.18C22.5185,-610.898 34.0389,-820.756 74,-869.5 77.0627,-873.236 80.7784,-876.391 84.8543,-879.056"/>
<polygon fill="midnightblue" stroke="midnightblue" points="83.1809,-882.13 93.6326,-883.867 86.5448,-875.992 83.1809,-882.13"/>
</g>
<!-- Node17 -->
<g id="node17" class="node"><title>Node17</title>
<g id="a_node17"><a xlink:href="namespacetlz.html#aa1be9362f548fcf9378e1fc9074089c4" target="_top" xlink:title="tlz::import_json_file">
<polygon fill="white" stroke="black" points="382,-873 382,-892 483,-892 483,-873 382,-873"/>
<text text-anchor="middle" x="432.5" y="-880" font-family="Helvetica,sans-Serif" font-size="10.00">tlz::import_json_file</text>
</a>
</g>
</g>
<!-- Node1&#45;&gt;Node17 -->
<g id="edge26" class="edge"><title>Node1&#45;&gt;Node17</title>
<path fill="none" stroke="midnightblue" d="M20.3595,-563.271C22.2433,-608.677 32.5324,-798.463 74,-836.5 117.296,-876.214 278.911,-854.699 337,-863.5 350.449,-865.537 364.884,-868.197 378.323,-870.877"/>
<polygon fill="midnightblue" stroke="midnightblue" points="377.876,-874.358 388.373,-872.921 379.272,-867.498 377.876,-874.358"/>
</g>
<!-- Node18 -->
<g id="node18" class="node"><title>Node18</title>
<g id="a_node18"><a xlink:href="structtlz_1_1distortion__parameters.html#a307fee036b04519d633fb8456899850c" target="_top" xlink:title="tlz::distortion_parameters\l::is_none">
<polygon fill="white" stroke="black" points="74,-796.5 74,-826.5 201,-826.5 201,-796.5 74,-796.5"/>
<text text-anchor="start" x="82" y="-814.5" font-family="Helvetica,sans-Serif" font-size="10.00">tlz::distortion_parameters</text>
<text text-anchor="middle" x="137.5" y="-803.5" font-family="Helvetica,sans-Serif" font-size="10.00">::is_none</text>
</a>
</g>
</g>
<!-- Node1&#45;&gt;Node18 -->
<g id="edge22" class="edge"><title>Node1&#45;&gt;Node18</title>
<path fill="none" stroke="midnightblue" d="M19.507,-563.447C18.3358,-597.797 18.8934,-713.063 74,-781.5 76.8366,-785.023 80.1872,-788.158 83.8397,-790.943"/>
<polygon fill="midnightblue" stroke="midnightblue" points="81.964,-793.899 92.2356,-796.496 85.8256,-788.06 81.964,-793.899"/>
</g>
<!-- Node19 -->
<g id="node19" class="node"><title>Node19</title>
<g id="a_node19"><a xlink:href="classtlz_1_1dataset.html#ad7d438f87e20fd0a734aabff2e6d52a9" target="_top" xlink:title="tlz::dataset::group">
<polygon fill="white" stroke="black" points="90,-670 90,-689 185,-689 185,-670 90,-670"/>
<text text-anchor="middle" x="137.5" y="-677" font-family="Helvetica,sans-Serif" font-size="10.00">tlz::dataset::group</text>
</a>
</g>
</g>
<!-- Node1&#45;&gt;Node19 -->
<g id="edge23" class="edge"><title>Node1&#45;&gt;Node19</title>
<path fill="none" stroke="midnightblue" d="M22.2622,-563.278C27.5804,-584.087 42.8464,-633.01 74,-659.5 76.5604,-661.677 79.3606,-663.618 82.3114,-665.348"/>
<polygon fill="midnightblue" stroke="midnightblue" points="81.0141,-668.612 91.5263,-669.933 84.132,-662.345 81.0141,-668.612"/>
</g>
<!-- Node21 -->
<g id="node21" class="node"><title>Node21</title>
<g id="a_node21"><a xlink:href="namespacetlz.html#a3fe6565d9058a6aacef917e7229daa27" target="_top" xlink:title="tlz::has_feature_slopes">
<polygon fill="white" stroke="black" points="529,-523 529,-542 647,-542 647,-523 529,-523"/>
<text text-anchor="middle" x="588" y="-530" font-family="Helvetica,sans-Serif" font-size="10.00">tlz::has_feature_slopes</text>
</a>
</g>
</g>
<!-- Node1&#45;&gt;Node21 -->
<g id="edge27" class="edge"><title>Node1&#45;&gt;Node21</title>
<path fill="none" stroke="midnightblue" d="M38.0867,-545.427C48.3863,-541.268 61.6605,-536.632 74,-534.5 231.235,-507.33 419.647,-517.21 518.588,-525.589"/>
<polygon fill="midnightblue" stroke="midnightblue" points="518.486,-529.093 528.751,-526.471 519.091,-522.119 518.486,-529.093"/>
</g>
<!-- Node22 -->
<g id="node22" class="node"><title>Node22</title>
<g id="a_node22"><a xlink:href="namespacetlz.html#a3f97cf7f503f586ab7cfa5175b5a5bf2" target="_top" xlink:title="tlz::decode_feature\l_slopes">
<polygon fill="white" stroke="black" points="87.5,-708.5 87.5,-738.5 187.5,-738.5 187.5,-708.5 87.5,-708.5"/>
<text text-anchor="start" x="95.5" y="-726.5" font-family="Helvetica,sans-Serif" font-size="10.00">tlz::decode_feature</text>
<text text-anchor="middle" x="137.5" y="-715.5" font-family="Helvetica,sans-Serif" font-size="10.00">_slopes</text>
</a>
</g>
</g>
<!-- Node1&#45;&gt;Node22 -->
<g id="edge29" class="edge"><title>Node1&#45;&gt;Node22</title>
<path fill="none" stroke="midnightblue" d="M20.9084,-563.03C23.8234,-588.464 35.1556,-658.712 74,-698.5 75.4389,-699.974 76.9759,-701.363 78.5907,-702.673"/>
<polygon fill="midnightblue" stroke="midnightblue" points="76.9895,-705.818 87.2188,-708.577 80.9428,-700.041 76.9895,-705.818"/>
</g>
<!-- Node23 -->
<g id="node23" class="node"><title>Node23</title>
<g id="a_node23"><a xlink:href="namespacetlz.html#abc92401653ee5627160c4f3c48a11311" target="_top" xlink:title="tlz::decode_feature\l_points">
<polygon fill="white" stroke="black" points="237,-750.5 237,-780.5 337,-780.5 337,-750.5 237,-750.5"/>
<text text-anchor="start" x="245" y="-768.5" font-family="Helvetica,sans-Serif" font-size="10.00">tlz::decode_feature</text>
<text text-anchor="middle" x="287" y="-757.5" font-family="Helvetica,sans-Serif" font-size="10.00">_points</text>
</a>
</g>
</g>
<!-- Node1&#45;&gt;Node23 -->
<g id="edge36" class="edge"><title>Node1&#45;&gt;Node23</title>
<path fill="none" stroke="midnightblue" d="M21.2767,-563.447C26.1307,-599.6 44.6586,-723.184 74,-747.5 115.997,-782.304 180.081,-782.946 226.799,-777.256"/>
<polygon fill="midnightblue" stroke="midnightblue" points="227.342,-780.715 236.786,-775.913 226.409,-773.777 227.342,-780.715"/>
</g>
<!-- Node26 -->
<g id="node26" class="node"><title>Node26</title>
<g id="a_node26"><a xlink:href="apply__homography_8cc.html#a4a177f8e856ff6c59c1b93baab8e5f81" target="_top" xlink:title="background_color">
<polygon fill="white" stroke="black" points="91,-582 91,-601 184,-601 184,-582 91,-582"/>
<text text-anchor="middle" x="137.5" y="-589" font-family="Helvetica,sans-Serif" font-size="10.00">background_color</text>
</a>
</g>
</g>
<!-- Node1&#45;&gt;Node26 -->
<g id="edge37" class="edge"><title>Node1&#45;&gt;Node26</title>
<path fill="none" stroke="midnightblue" d="M38.4271,-560.205C48.8331,-563.936 62.1005,-568.6 74,-572.5 80.5167,-574.636 87.4419,-576.823 94.219,-578.918"/>
<polygon fill="midnightblue" stroke="midnightblue" points="93.3911,-582.324 103.978,-581.904 95.4395,-575.631 93.3911,-582.324"/>
</g>
<!-- Node27 -->
<g id="node27" class="node"><title>Node27</title>
<g id="a_node27"><a xlink:href="classtlz_1_1dataset.html#acbdb309b8dd22f687fff41f6e9ac6ed4" target="_top" xlink:title="tlz::dataset::view">
<polygon fill="white" stroke="black" points="91.5,-544 91.5,-563 183.5,-563 183.5,-544 91.5,-544"/>
<text text-anchor="middle" x="137.5" y="-551" font-family="Helvetica,sans-Serif" font-size="10.00">tlz::dataset::view</text>
</a>
</g>
</g>
<!-- Node1&#45;&gt;Node27 -->
<g id="edge38" class="edge"><title>Node1&#45;&gt;Node27</title>
<path fill="none" stroke="midnightblue" d="M38.2031,-553.5C49.8573,-553.5 65.6566,-553.5 81.178,-553.5"/>
<polygon fill="midnightblue" stroke="midnightblue" points="81.2913,-557 91.2913,-553.5 81.2913,-550 81.2913,-557"/>
</g>
<!-- Node28 -->
<g id="node28" class="node"><title>Node28</title>
<g id="a_node28"><a xlink:href="classtlz_1_1dataset__view.html#af3c734eaed33af07993255db63d3fc54" target="_top" xlink:title="tlz::dataset_view::\limage_filename">
<polygon fill="white" stroke="black" points="89,-620.5 89,-650.5 186,-650.5 186,-620.5 89,-620.5"/>
<text text-anchor="start" x="97" y="-638.5" font-family="Helvetica,sans-Serif" font-size="10.00">tlz::dataset_view::</text>
<text text-anchor="middle" x="137.5" y="-627.5" font-family="Helvetica,sans-Serif" font-size="10.00">image_filename</text>
</a>
</g>
</g>
<!-- Node1&#45;&gt;Node28 -->
<g id="edge39" class="edge"><title>Node1&#45;&gt;Node28</title>
<path fill="none" stroke="midnightblue" d="M27.0319,-563.197C36.4822,-575.632 54.3767,-597.177 74,-610.5 76.8417,-612.429 79.8546,-614.245 82.9621,-615.948"/>
<polygon fill="midnightblue" stroke="midnightblue" points="81.4001,-619.08 91.9062,-620.449 84.5469,-612.828 81.4001,-619.08"/>
</g>
<!-- Node32 -->
<g id="node32" class="node"><title>Node32</title>
<g id="a_node32"><a xlink:href="classtlz_1_1viewer.html#a4be73d43a59e54ac622a45ecb042e351" target="_top" xlink:title="tlz::viewer::add_real\l_slider">
<polygon fill="white" stroke="black" points="85.5,-456.5 85.5,-486.5 189.5,-486.5 189.5,-456.5 85.5,-456.5"/>
<text text-anchor="start" x="93.5" y="-474.5" font-family="Helvetica,sans-Serif" font-size="10.00">tlz::viewer::add_real</text>
<text text-anchor="middle" x="137.5" y="-463.5" font-family="Helvetica,sans-Serif" font-size="10.00">_slider</text>
</a>
</g>
</g>
<!-- Node1&#45;&gt;Node32 -->
<g id="edge44" class="edge"><title>Node1&#45;&gt;Node32</title>
<path fill="none" stroke="midnightblue" d="M28.3894,-543.712C38.3973,-532.469 56.041,-513.973 74,-501.5 79.2549,-497.85 85.0222,-494.423 90.8625,-491.283"/>
<polygon fill="midnightblue" stroke="midnightblue" points="92.7254,-494.262 100.037,-486.594 89.5399,-488.028 92.7254,-494.262"/>
</g>
<!-- Node33 -->
<g id="node33" class="node"><title>Node33</title>
<g id="a_node33"><a xlink:href="classtlz_1_1viewer.html#a2bf9d63d7a1a5ec4d5bdabc13d9ab688" target="_top" xlink:title="tlz::viewer::add_int\l_slider">
<polygon fill="white" stroke="black" points="88,-407.5 88,-437.5 187,-437.5 187,-407.5 88,-407.5"/>
<text text-anchor="start" x="96" y="-425.5" font-family="Helvetica,sans-Serif" font-size="10.00">tlz::viewer::add_int</text>
<text text-anchor="middle" x="137.5" y="-414.5" font-family="Helvetica,sans-Serif" font-size="10.00">_slider</text>
</a>
</g>
</g>
<!-- Node1&#45;&gt;Node33 -->
<g id="edge45" class="edge"><title>Node1&#45;&gt;Node33</title>
<path fill="none" stroke="midnightblue" d="M22.3532,-543.766C27.8482,-523.027 43.4375,-474.129 74,-446.5 75.6813,-444.98 77.4692,-443.552 79.3375,-442.212"/>
<polygon fill="midnightblue" stroke="midnightblue" points="81.3012,-445.113 87.9643,-436.875 77.6186,-439.16 81.3012,-445.113"/>
</g>
<!-- Node34 -->
<g id="node34" class="node"><title>Node34</title>
<g id="a_node34"><a xlink:href="namespacetlz.html#a504e67ffe264bacc884eb904ec814a80" target="_top" xlink:title="tlz::visualize_feature\l_slopes">
<polygon fill="white" stroke="black" points="84,-358.5 84,-388.5 191,-388.5 191,-358.5 84,-358.5"/>
<text text-anchor="start" x="92" y="-376.5" font-family="Helvetica,sans-Serif" font-size="10.00">tlz::visualize_feature</text>
<text text-anchor="middle" x="137.5" y="-365.5" font-family="Helvetica,sans-Serif" font-size="10.00">_slopes</text>
</a>
</g>
</g>
<!-- Node1&#45;&gt;Node34 -->
<g id="edge46" class="edge"><title>Node1&#45;&gt;Node34</title>
<path fill="none" stroke="midnightblue" d="M20.6125,-543.623C22.8104,-516.553 32.557,-440.351 74,-397.5 74.9318,-396.537 75.9064,-395.611 76.9182,-394.723"/>
<polygon fill="midnightblue" stroke="midnightblue" points="79.2912,-397.324 85.3062,-388.602 75.165,-391.669 79.2912,-397.324"/>
</g>
<!-- Node37 -->
<g id="node37" class="node"><title>Node37</title>
<g id="a_node37"><a xlink:href="namespacetlz.html#aa97786c6fc9e60663efcaa490eb3181f" target="_top" xlink:title="tlz::to_rotation_matrix">
<polygon fill="white" stroke="black" points="82,-320 82,-339 193,-339 193,-320 82,-320"/>
<text text-anchor="middle" x="137.5" y="-327" font-family="Helvetica,sans-Serif" font-size="10.00">tlz::to_rotation_matrix</text>
</a>
</g>
</g>
<!-- Node1&#45;&gt;Node37 -->
<g id="edge49" class="edge"><title>Node1&#45;&gt;Node37</title>
<path fill="none" stroke="midnightblue" d="M19.4877,-543.795C18.3291,-511.35 19.1077,-405.494 74,-348.5 75.3866,-347.06 76.8785,-345.729 78.4547,-344.497"/>
<polygon fill="midnightblue" stroke="midnightblue" points="80.3549,-347.437 86.9401,-339.137 76.6164,-341.519 80.3549,-347.437"/>
</g>
<!-- Node38 -->
<g id="node38" class="node"><title>Node38</title>
<g id="a_node38"><a xlink:href="namespacetlz.html#ab937f017b3638fd7ae21499b9ecc3688" target="_top" xlink:title="tlz::model_horizontal\l_slope">
<polygon fill="white" stroke="black" points="84,-270.5 84,-300.5 191,-300.5 191,-270.5 84,-270.5"/>
<text text-anchor="start" x="92" y="-288.5" font-family="Helvetica,sans-Serif" font-size="10.00">tlz::model_horizontal</text>
<text text-anchor="middle" x="137.5" y="-277.5" font-family="Helvetica,sans-Serif" font-size="10.00">_slope</text>
</a>
</g>
</g>
<!-- Node1&#45;&gt;Node38 -->
<g id="edge50" class="edge"><title>Node1&#45;&gt;Node38</title>
<path fill="none" stroke="midnightblue" d="M20.9325,-543.987C25.0589,-503.651 42.8626,-347.133 74,-310.5 75.017,-309.303 76.0995,-308.164 77.2377,-307.078"/>
<polygon fill="midnightblue" stroke="midnightblue" points="79.7231,-309.578 85.4567,-300.669 75.4186,-304.058 79.7231,-309.578"/>
</g>
<!-- Node39 -->
<g id="node39" class="node"><title>Node39</title>
<g id="a_node39"><a xlink:href="namespacetlz.html#ad9e6861d0c3fa74ca4a44f379cea8d31" target="_top" xlink:title="tlz::model_vertical\l_slope">
<polygon fill="white" stroke="black" points="89.5,-221.5 89.5,-251.5 185.5,-251.5 185.5,-221.5 89.5,-221.5"/>
<text text-anchor="start" x="97.5" y="-239.5" font-family="Helvetica,sans-Serif" font-size="10.00">tlz::model_vertical</text>
<text text-anchor="middle" x="137.5" y="-228.5" font-family="Helvetica,sans-Serif" font-size="10.00">_slope</text>
</a>
</g>
</g>
<!-- Node1&#45;&gt;Node39 -->
<g id="edge51" class="edge"><title>Node1&#45;&gt;Node39</title>
<path fill="none" stroke="midnightblue" d="M20.5299,-543.924C23.2207,-498.532 36.7333,-305.36 74,-260.5 75.9497,-258.153 78.1566,-256.035 80.5477,-254.124"/>
<polygon fill="midnightblue" stroke="midnightblue" points="82.8421,-256.804 89.2796,-248.39 78.9996,-250.953 82.8421,-256.804"/>
</g>
<!-- Node40 -->
<g id="node40" class="node"><title>Node40</title>
<g id="a_node40"><a xlink:href="classtlz_1_1viewer.html#a0ad9ee28b8127c63b2886b04fb36e3dc" target="_top" xlink:title="tlz::viewer::clear">
<polygon fill="white" stroke="black" points="93,-145 93,-164 182,-164 182,-145 93,-145"/>
<text text-anchor="middle" x="137.5" y="-152" font-family="Helvetica,sans-Serif" font-size="10.00">tlz::viewer::clear</text>
</a>
</g>
</g>
<!-- Node1&#45;&gt;Node40 -->
<g id="edge52" class="edge"><title>Node1&#45;&gt;Node40</title>
<path fill="none" stroke="midnightblue" d="M20.0168,-543.994C20.3013,-490.921 24.2503,-231.566 74,-173.5 76.7809,-170.254 80.0976,-167.552 83.732,-165.305"/>
<polygon fill="midnightblue" stroke="midnightblue" points="85.2977,-168.435 92.6863,-160.842 82.175,-162.17 85.2977,-168.435"/>
</g>
<!-- Node43 -->
<g id="node43" class="node"><title>Node43</title>
<g id="a_node43"><a xlink:href="classtlz_1_1viewer.html#a5f0412cff89a343ad52431689502389d" target="_top" xlink:title="tlz::viewer::draw">
<polygon fill="white" stroke="black" points="93,-183 93,-202 182,-202 182,-183 93,-183"/>
<text text-anchor="middle" x="137.5" y="-190" font-family="Helvetica,sans-Serif" font-size="10.00">tlz::viewer::draw</text>
</a>
</g>
</g>
<!-- Node1&#45;&gt;Node43 -->
<g id="edge55" class="edge"><title>Node1&#45;&gt;Node43</title>
<path fill="none" stroke="midnightblue" d="M20.1822,-543.976C21.3259,-494.087 29.0143,-263.192 74,-211.5 76.8059,-208.276 80.1402,-205.589 83.7864,-203.352"/>
<polygon fill="midnightblue" stroke="midnightblue" points="85.3535,-206.481 92.7589,-198.904 82.2448,-200.209 85.3535,-206.481"/>
</g>
<!-- Node44 -->
<g id="node44" class="node"><title>Node44</title>
<g id="a_node44"><a xlink:href="namespacetlz.html#a318f0ec11ecbe39c32ad870473ea9c35" target="_top" xlink:title="Compute square of a number. ">
<polygon fill="white" stroke="black" points="115.5,-107 115.5,-126 159.5,-126 159.5,-107 115.5,-107"/>
<text text-anchor="middle" x="137.5" y="-114" font-family="Helvetica,sans-Serif" font-size="10.00">tlz::sq</text>
</a>
</g>
</g>
<!-- Node1&#45;&gt;Node44 -->
<g id="edge58" class="edge"><title>Node1&#45;&gt;Node44</title>
<path fill="none" stroke="midnightblue" d="M19.8795,-543.801C19.3723,-487.201 19.5386,-199.887 74,-135.5 81.7383,-126.351 93.7352,-121.518 105.157,-118.996"/>
<polygon fill="midnightblue" stroke="midnightblue" points="106.071,-122.391 115.347,-117.273 104.903,-115.489 106.071,-122.391"/>
</g>
<!-- Node48 -->
<g id="node48" class="node"><title>Node48</title>
<g id="a_node48"><a xlink:href="classtlz_1_1viewer.html#ad4fda702b7c5af2cb0bb9bc3842113f3" target="_top" xlink:title="tlz::viewer::draw_text">
<polygon fill="white" stroke="black" points="82.5,-69 82.5,-88 192.5,-88 192.5,-69 82.5,-69"/>
<text text-anchor="middle" x="137.5" y="-76" font-family="Helvetica,sans-Serif" font-size="10.00">tlz::viewer::draw_text</text>
</a>
</g>
</g>
<!-- Node1&#45;&gt;Node48 -->
<g id="edge63" class="edge"><title>Node1&#45;&gt;Node48</title>
<path fill="none" stroke="midnightblue" d="M19.762,-543.714C18.5067,-483.941 14.7824,-168.268 74,-97.5 75.0007,-96.3041 76.0743,-95.1818 77.2099,-94.1287"/>
<polygon fill="midnightblue" stroke="midnightblue" points="79.4427,-96.8333 85.4927,-88.1356 75.3393,-91.1621 79.4427,-96.8333"/>
</g>
<!-- Node49 -->
<g id="node49" class="node"><title>Node49</title>
<g id="a_node49"><a xlink:href="classtlz_1_1viewer.html#a4ccb30b02c81909ba1af97745375385a" target="_top" xlink:title="tlz::viewer::show_modal">
<polygon fill="white" stroke="black" points="76.5,-28 76.5,-47 198.5,-47 198.5,-28 76.5,-28"/>
<text text-anchor="middle" x="137.5" y="-35" font-family="Helvetica,sans-Serif" font-size="10.00">tlz::viewer::show_modal</text>
</a>
</g>
</g>
<!-- Node1&#45;&gt;Node49 -->
<g id="edge64" class="edge"><title>Node1&#45;&gt;Node49</title>
<path fill="none" stroke="midnightblue" d="M20.4528,-543.637C23.5733,-477.416 42.7013,-98.9564 74,-59.5 76.1089,-56.8414 78.5617,-54.5034 81.2512,-52.4474"/>
<polygon fill="midnightblue" stroke="midnightblue" points="83.2568,-55.3224 89.9222,-47.0868 79.5759,-49.3683 83.2568,-55.3224"/>
</g>
<!-- Node3&#45;&gt;Node4 -->
<g id="edge3" class="edge"><title>Node3&#45;&gt;Node4</title>
<path fill="none" stroke="midnightblue" d="M324.211,-1006.09C342.821,-1011.02 365.697,-1017.07 385.539,-1022.33"/>
<polygon fill="midnightblue" stroke="midnightblue" points="384.738,-1025.74 395.3,-1024.91 386.53,-1018.97 384.738,-1025.74"/>
</g>
<!-- Node5 -->
<g id="node5" class="node"><title>Node5</title>
<g id="a_node5"><a xlink:href="namespacetlz.html#a0621d598fb83b13bf028f3e6293d04f8" target="_top" xlink:title="tlz::string_arg">
<polygon fill="white" stroke="black" points="550,-1025 550,-1044 626,-1044 626,-1025 550,-1025"/>
<text text-anchor="middle" x="588" y="-1032" font-family="Helvetica,sans-Serif" font-size="10.00">tlz::string_arg</text>
</a>
</g>
</g>
<!-- Node4&#45;&gt;Node5 -->
<g id="edge4" class="edge"><title>Node4&#45;&gt;Node5</title>
<path fill="none" stroke="midnightblue" d="M483.337,-1034.5C501.339,-1034.5 521.603,-1034.5 539.408,-1034.5"/>
<polygon fill="midnightblue" stroke="midnightblue" points="539.571,-1038 549.571,-1034.5 539.571,-1031 539.571,-1038"/>
</g>
<!-- Node6 -->
<g id="node6" class="node"><title>Node6</title>
<g id="a_node6"><a xlink:href="namespacetlz.html#a780431daab8d2595372eacb43143b52d" target="_top" xlink:title="tlz::args">
<polygon fill="white" stroke="black" points="714.5,-1101 714.5,-1120 766.5,-1120 766.5,-1101 714.5,-1101"/>
<text text-anchor="middle" x="740.5" y="-1108" font-family="Helvetica,sans-Serif" font-size="10.00">tlz::args</text>
</a>
</g>
</g>
<!-- Node4&#45;&gt;Node6 -->
<g id="edge10" class="edge"><title>Node4&#45;&gt;Node6</title>
<path fill="none" stroke="midnightblue" d="M446.819,-1044.05C464.452,-1056.15 496.95,-1076.62 528,-1086.5 587.896,-1105.56 661.564,-1109.88 704.264,-1110.64"/>
<polygon fill="midnightblue" stroke="midnightblue" points="704.384,-1114.15 714.425,-1110.77 704.469,-1107.15 704.384,-1114.15"/>
</g>
<!-- Node8 -->
<g id="node8" class="node"><title>Node8</title>
<g id="a_node8"><a xlink:href="classtlz_1_1args__list.html#a38ad21acd64a4af98ffdf4a47837cdbe" target="_top" xlink:title="tlz::args_list::usage_fail">
<polygon fill="white" stroke="black" points="833,-1044 833,-1063 953,-1063 953,-1044 833,-1044"/>
<text text-anchor="middle" x="893" y="-1051" font-family="Helvetica,sans-Serif" font-size="10.00">tlz::args_list::usage_fail</text>
</a>
</g>
</g>
<!-- Node4&#45;&gt;Node8 -->
<g id="edge11" class="edge"><title>Node4&#45;&gt;Node8</title>
<path fill="none" stroke="midnightblue" d="M471.86,-1044.01C488.93,-1047.77 509.349,-1051.64 528,-1053.5 630.25,-1063.68 749.459,-1060.93 822.832,-1057.56"/>
<polygon fill="midnightblue" stroke="midnightblue" points="823.052,-1061.06 832.875,-1057.09 822.72,-1054.07 823.052,-1061.06"/>
</g>
<!-- Node10 -->
<g id="node10" class="node"><title>Node10</title>
<g id="a_node10"><a xlink:href="namespacetlz.html#abb019466ea9f56c0dab27e893d891837" target="_top" xlink:title="tlz::file_exists">
<polygon fill="white" stroke="black" points="549.5,-987 549.5,-1006 626.5,-1006 626.5,-987 549.5,-987"/>
<text text-anchor="middle" x="588" y="-994" font-family="Helvetica,sans-Serif" font-size="10.00">tlz::file_exists</text>
</a>
</g>
</g>
<!-- Node4&#45;&gt;Node10 -->
<g id="edge9" class="edge"><title>Node4&#45;&gt;Node10</title>
<path fill="none" stroke="midnightblue" d="M472.235,-1024.91C492.629,-1019.86 517.815,-1013.63 539.392,-1008.29"/>
<polygon fill="midnightblue" stroke="midnightblue" points="540.473,-1011.62 549.339,-1005.82 538.791,-1004.83 540.473,-1011.62"/>
</g>
<!-- Node5&#45;&gt;Node6 -->
<g id="edge5" class="edge"><title>Node5&#45;&gt;Node6</title>
<path fill="none" stroke="midnightblue" d="M608.061,-1044.13C634.183,-1057.32 681.294,-1081.11 711.448,-1096.33"/>
<polygon fill="midnightblue" stroke="midnightblue" points="710.09,-1099.57 720.594,-1100.95 713.245,-1093.32 710.09,-1099.57"/>
</g>
<!-- Node7 -->
<g id="node7" class="node"><title>Node7</title>
<g id="a_node7"><a xlink:href="classtlz_1_1args__list.html#a73d99bc75998dc14607a3a372d28dc6d" target="_top" xlink:title="tlz::args_list::next_arg">
<polygon fill="white" stroke="black" points="684,-1025 684,-1044 797,-1044 797,-1025 684,-1025"/>
<text text-anchor="middle" x="740.5" y="-1032" font-family="Helvetica,sans-Serif" font-size="10.00">tlz::args_list::next_arg</text>
</a>
</g>
</g>
<!-- Node5&#45;&gt;Node7 -->
<g id="edge6" class="edge"><title>Node5&#45;&gt;Node7</title>
<path fill="none" stroke="midnightblue" d="M626.202,-1034.5C640.619,-1034.5 657.565,-1034.5 673.894,-1034.5"/>
<polygon fill="midnightblue" stroke="midnightblue" points="673.954,-1038 683.954,-1034.5 673.954,-1031 673.954,-1038"/>
</g>
<!-- Node7&#45;&gt;Node8 -->
<g id="edge7" class="edge"><title>Node7&#45;&gt;Node8</title>
<path fill="none" stroke="midnightblue" d="M797.113,-1041.52C805.479,-1042.58 814.192,-1043.68 822.8,-1044.76"/>
<polygon fill="midnightblue" stroke="midnightblue" points="822.468,-1048.25 832.828,-1046.03 823.345,-1041.3 822.468,-1048.25"/>
</g>
<!-- Node7&#45;&gt;Node9 -->
<g id="edge8" class="edge"><title>Node7&#45;&gt;Node9</title>
<path fill="none" stroke="midnightblue" d="M771.594,-1024.9C794.767,-1017.51 827.006,-1007.23 852.293,-999.164"/>
<polygon fill="midnightblue" stroke="midnightblue" points="853.494,-1002.45 861.958,-996.082 851.367,-995.786 853.494,-1002.45"/>
</g>
<!-- Node12 -->
<g id="node12" class="node"><title>Node12</title>
<g id="a_node12"><a xlink:href="namespacetlz.html#a8cba4853d0d796a01c72f59f36f2a492" target="_top" xlink:title="tlz::decode_intrinsics">
<polygon fill="white" stroke="black" points="378,-911 378,-930 487,-930 487,-911 378,-911"/>
<text text-anchor="middle" x="432.5" y="-918" font-family="Helvetica,sans-Serif" font-size="10.00">tlz::decode_intrinsics</text>
</a>
</g>
</g>
<!-- Node11&#45;&gt;Node12 -->
<g id="edge13" class="edge"><title>Node11&#45;&gt;Node12</title>
<path fill="none" stroke="midnightblue" d="M183,-897.601C232.207,-902.135 311.892,-909.478 367.726,-914.623"/>
<polygon fill="midnightblue" stroke="midnightblue" points="367.583,-918.125 377.862,-915.557 368.225,-911.154 367.583,-918.125"/>
</g>
<!-- Node16 -->
<g id="node16" class="node"><title>Node16</title>
<g id="a_node16"><a xlink:href="namespacetlz.html#a35f9e03fa4fd9cec699f5fa27962400f" target="_top" xlink:title="tlz::json_arg">
<polygon fill="white" stroke="black" points="252,-873 252,-892 322,-892 322,-873 252,-873"/>
<text text-anchor="middle" x="287" y="-880" font-family="Helvetica,sans-Serif" font-size="10.00">tlz::json_arg</text>
</a>
</g>
</g>
<!-- Node11&#45;&gt;Node16 -->
<g id="edge18" class="edge"><title>Node11&#45;&gt;Node16</title>
<path fill="none" stroke="midnightblue" d="M183.155,-890.17C201.67,-888.789 223.099,-887.191 241.588,-885.812"/>
<polygon fill="midnightblue" stroke="midnightblue" points="242.092,-889.284 251.804,-885.05 241.572,-882.304 242.092,-889.284"/>
</g>
<!-- Node13 -->
<g id="node13" class="node"><title>Node13</title>
<g id="a_node13"><a xlink:href="namespacetlz.html#a066563a26e2de02f215b179f3d3a53da" target="_top" xlink:title="tlz::decode_mat">
<polygon fill="white" stroke="black" points="545,-911 545,-930 631,-930 631,-911 545,-911"/>
<text text-anchor="middle" x="588" y="-918" font-family="Helvetica,sans-Serif" font-size="10.00">tlz::decode_mat</text>
</a>
</g>
</g>
<!-- Node12&#45;&gt;Node13 -->
<g id="edge14" class="edge"><title>Node12&#45;&gt;Node13</title>
<path fill="none" stroke="midnightblue" d="M487.187,-920.5C502.5,-920.5 519.164,-920.5 534.411,-920.5"/>
<polygon fill="midnightblue" stroke="midnightblue" points="534.706,-924 544.706,-920.5 534.706,-917 534.706,-924"/>
</g>
<!-- Node14 -->
<g id="node14" class="node"><title>Node14</title>
<g id="a_node14"><a xlink:href="namespacetlz.html#a252af14b9b4ac6502d3e9c5dd8dc90b8" target="_top" xlink:title="tlz::has">
<polygon fill="white" stroke="black" points="716,-775 716,-794 765,-794 765,-775 716,-775"/>
<text text-anchor="middle" x="740.5" y="-782" font-family="Helvetica,sans-Serif" font-size="10.00">tlz::has</text>
</a>
</g>
</g>
<!-- Node12&#45;&gt;Node14 -->
<g id="edge15" class="edge"><title>Node12&#45;&gt;Node14</title>
<path fill="none" stroke="midnightblue" d="M473.483,-910.963C526.686,-897.929 617.582,-874.364 648,-858.5 676.955,-843.399 705.424,-818.306 722.726,-801.586"/>
<polygon fill="midnightblue" stroke="midnightblue" points="725.619,-803.648 730.275,-794.131 720.7,-798.667 725.619,-803.648"/>
</g>
<!-- Node15 -->
<g id="node15" class="node"><title>Node15</title>
<g id="a_node15"><a xlink:href="namespacetlz.html#add846dc50c32dfb356cb1a7ac11d37ac" target="_top" xlink:title="tlz::get_or">
<polygon fill="white" stroke="black" points="558,-775 558,-794 618,-794 618,-775 558,-775"/>
<text text-anchor="middle" x="588" y="-782" font-family="Helvetica,sans-Serif" font-size="10.00">tlz::get_or</text>
</a>
</g>
</g>
<!-- Node12&#45;&gt;Node15 -->
<g id="edge16" class="edge"><title>Node12&#45;&gt;Node15</title>
<path fill="none" stroke="midnightblue" d="M473.35,-910.994C479.891,-908.488 486.365,-905.367 492,-901.5 512.149,-887.674 553.469,-831.737 574.34,-802.501"/>
<polygon fill="midnightblue" stroke="midnightblue" points="577.415,-804.216 580.345,-794.034 571.705,-800.166 577.415,-804.216"/>
</g>
<!-- Node15&#45;&gt;Node14 -->
<g id="edge17" class="edge"><title>Node15&#45;&gt;Node14</title>
<path fill="none" stroke="midnightblue" d="M618.018,-784.5C642.942,-784.5 678.915,-784.5 705.247,-784.5"/>
<polygon fill="midnightblue" stroke="midnightblue" points="705.528,-788 715.528,-784.5 705.528,-781 705.528,-788"/>
</g>
<!-- Node16&#45;&gt;Node4 -->
<g id="edge20" class="edge"><title>Node16&#45;&gt;Node4</title>
<path fill="none" stroke="midnightblue" d="M296.977,-892.008C320.734,-917.173 385.49,-985.765 415.65,-1017.71"/>
<polygon fill="midnightblue" stroke="midnightblue" points="413.117,-1020.13 422.527,-1025 418.207,-1015.32 413.117,-1020.13"/>
</g>
<!-- Node16&#45;&gt;Node17 -->
<g id="edge19" class="edge"><title>Node16&#45;&gt;Node17</title>
<path fill="none" stroke="midnightblue" d="M322.007,-882.5C336.833,-882.5 354.663,-882.5 371.59,-882.5"/>
<polygon fill="midnightblue" stroke="midnightblue" points="371.977,-886 381.977,-882.5 371.977,-879 371.977,-886"/>
</g>
<!-- Node19&#45;&gt;Node14 -->
<g id="edge25" class="edge"><title>Node19&#45;&gt;Node14</title>
<path fill="none" stroke="midnightblue" d="M185.044,-678.106C253.13,-676.972 383.574,-678.235 492,-699.5 572.578,-715.303 662.745,-751.16 708.796,-770.878"/>
<polygon fill="midnightblue" stroke="midnightblue" points="707.632,-774.187 718.2,-774.943 710.41,-767.762 707.632,-774.187"/>
</g>
<!-- Node20 -->
<g id="node20" class="node"><title>Node20</title>
<g id="a_node20"><a xlink:href="classtlz_1_1dataset__group.html#acad4f6300bfc455279aaeb975d5e61de" target="_top" xlink:title="tlz::dataset_group\l::dataset_group">
<polygon fill="white" stroke="black" points="239.5,-621.5 239.5,-651.5 334.5,-651.5 334.5,-621.5 239.5,-621.5"/>
<text text-anchor="start" x="247.5" y="-639.5" font-family="Helvetica,sans-Serif" font-size="10.00">tlz::dataset_group</text>
<text text-anchor="middle" x="287" y="-628.5" font-family="Helvetica,sans-Serif" font-size="10.00">::dataset_group</text>
</a>
</g>
</g>
<!-- Node19&#45;&gt;Node20 -->
<g id="edge24" class="edge"><title>Node19&#45;&gt;Node20</title>
<path fill="none" stroke="midnightblue" d="M171.235,-669.957C188.37,-664.962 209.836,-658.704 229.553,-652.956"/>
<polygon fill="midnightblue" stroke="midnightblue" points="230.747,-656.253 239.368,-650.094 228.788,-649.533 230.747,-656.253"/>
</g>
<!-- Node21&#45;&gt;Node14 -->
<g id="edge28" class="edge"><title>Node21&#45;&gt;Node14</title>
<path fill="none" stroke="midnightblue" d="M611.551,-542.066C623.677,-548.152 638.124,-557.052 648,-568.5 700.28,-629.101 726.215,-723.952 735.444,-764.754"/>
<polygon fill="midnightblue" stroke="midnightblue" points="732.073,-765.724 737.612,-774.755 738.914,-764.241 732.073,-765.724"/>
</g>
<!-- Node22&#45;&gt;Node23 -->
<g id="edge30" class="edge"><title>Node22&#45;&gt;Node23</title>
<path fill="none" stroke="midnightblue" d="M187.615,-737.485C200.237,-741.079 213.946,-744.983 227.011,-748.703"/>
<polygon fill="midnightblue" stroke="midnightblue" points="226.272,-752.132 236.848,-751.504 228.189,-745.399 226.272,-752.132"/>
</g>
<!-- Node23&#45;&gt;Node14 -->
<g id="edge31" class="edge"><title>Node23&#45;&gt;Node14</title>
<path fill="none" stroke="midnightblue" d="M314.194,-780.672C330.518,-789.235 352.291,-799.082 373,-803.5 492.532,-829.003 526.418,-815.99 648,-803.5 667.246,-801.523 688.416,-797.265 705.542,-793.28"/>
<polygon fill="midnightblue" stroke="midnightblue" points="706.723,-796.596 715.629,-790.857 705.088,-789.79 706.723,-796.596"/>
</g>
<!-- Node23&#45;&gt;Node15 -->
<g id="edge33" class="edge"><title>Node23&#45;&gt;Node15</title>
<path fill="none" stroke="midnightblue" d="M337.029,-780.44C348.707,-783.369 361.205,-785.998 373,-787.5 433.611,-795.217 504.654,-791.782 547.719,-788.338"/>
<polygon fill="midnightblue" stroke="midnightblue" points="548.107,-791.818 557.779,-787.492 547.521,-784.842 548.107,-791.818"/>
</g>
<!-- Node24 -->
<g id="node24" class="node"><title>Node24</title>
<g id="a_node24"><a xlink:href="namespacetlz.html#a74e8454f97dace7cffb1afdb6d3ca87b" target="_top" xlink:title="tlz::decode_view_index">
<polygon fill="white" stroke="black" points="373,-709 373,-728 492,-728 492,-709 373,-709"/>
<text text-anchor="middle" x="432.5" y="-716" font-family="Helvetica,sans-Serif" font-size="10.00">tlz::decode_view_index</text>
</a>
</g>
</g>
<!-- Node23&#45;&gt;Node24 -->
<g id="edge32" class="edge"><title>Node23&#45;&gt;Node24</title>
<path fill="none" stroke="midnightblue" d="M333.799,-750.5C352.762,-744.289 374.52,-737.163 392.682,-731.214"/>
<polygon fill="midnightblue" stroke="midnightblue" points="393.948,-734.482 402.362,-728.043 391.769,-727.83 393.948,-734.482"/>
</g>
<!-- Node25 -->
<g id="node25" class="node"><title>Node25</title>
<g id="a_node25"><a xlink:href="namespacetlz.html#ae8f9175a86bbe49ac0f4485d5db3080b" target="_top" xlink:title="tlz::decode_feature\l_point">
<polygon fill="white" stroke="black" points="382.5,-747.5 382.5,-777.5 482.5,-777.5 482.5,-747.5 382.5,-747.5"/>
<text text-anchor="start" x="390.5" y="-765.5" font-family="Helvetica,sans-Serif" font-size="10.00">tlz::decode_feature</text>
<text text-anchor="middle" x="432.5" y="-754.5" font-family="Helvetica,sans-Serif" font-size="10.00">_point</text>
</a>
</g>
</g>
<!-- Node23&#45;&gt;Node25 -->
<g id="edge34" class="edge"><title>Node23&#45;&gt;Node25</title>
<path fill="none" stroke="midnightblue" d="M337.385,-764.468C348.433,-764.237 360.268,-763.989 371.688,-763.75"/>
<polygon fill="midnightblue" stroke="midnightblue" points="372.1,-767.243 382.024,-763.534 371.953,-760.244 372.1,-767.243"/>
</g>
<!-- Node25&#45;&gt;Node15 -->
<g id="edge35" class="edge"><title>Node25&#45;&gt;Node15</title>
<path fill="none" stroke="midnightblue" d="M482.913,-769.582C503.863,-772.585 527.939,-776.035 547.656,-778.861"/>
<polygon fill="midnightblue" stroke="midnightblue" points="547.425,-782.364 557.82,-780.318 548.418,-775.434 547.425,-782.364"/>
</g>
<!-- Node29 -->
<g id="node29" class="node"><title>Node29</title>
<g id="a_node29"><a xlink:href="classtlz_1_1dataset__view.html#a327a842dc304656596d65b9bbf52fb1c" target="_top" xlink:title="tlz::dataset_view::\llocal_filename">
<polygon fill="white" stroke="black" points="238.5,-572.5 238.5,-602.5 335.5,-602.5 335.5,-572.5 238.5,-572.5"/>
<text text-anchor="start" x="246.5" y="-590.5" font-family="Helvetica,sans-Serif" font-size="10.00">tlz::dataset_view::</text>
<text text-anchor="middle" x="287" y="-579.5" font-family="Helvetica,sans-Serif" font-size="10.00">local_filename</text>
</a>
</g>
</g>
<!-- Node28&#45;&gt;Node29 -->
<g id="edge40" class="edge"><title>Node28&#45;&gt;Node29</title>
<path fill="none" stroke="midnightblue" d="M184.765,-620.444C199.181,-615.753 215.231,-610.53 230.226,-605.65"/>
<polygon fill="midnightblue" stroke="midnightblue" points="231.473,-608.925 239.899,-602.502 229.307,-602.269 231.473,-608.925"/>
</g>
<!-- Node29&#45;&gt;Node15 -->
<g id="edge41" class="edge"><title>Node29&#45;&gt;Node15</title>
<path fill="none" stroke="midnightblue" d="M319.511,-602.582C325.357,-605.48 331.388,-608.536 337,-611.5 407.048,-648.495 427.671,-653.27 492,-699.5 521.3,-720.556 551.81,-749.266 570.105,-767.342"/>
<polygon fill="midnightblue" stroke="midnightblue" points="568.056,-770.242 577.604,-774.834 573.003,-765.29 568.056,-770.242"/>
</g>
<!-- Node30 -->
<g id="node30" class="node"><title>Node30</title>
<g id="a_node30"><a xlink:href="classtlz_1_1dataset__view.html#a4951a6300847e0fed4fecf79d8753b58" target="_top" xlink:title="tlz::dataset_view::\llocal_parameters">
<polygon fill="white" stroke="black" points="384,-572.5 384,-602.5 481,-602.5 481,-572.5 384,-572.5"/>
<text text-anchor="start" x="392" y="-590.5" font-family="Helvetica,sans-Serif" font-size="10.00">tlz::dataset_view::</text>
<text text-anchor="middle" x="432.5" y="-579.5" font-family="Helvetica,sans-Serif" font-size="10.00">local_parameters</text>
</a>
</g>
</g>
<!-- Node29&#45;&gt;Node30 -->
<g id="edge42" class="edge"><title>Node29&#45;&gt;Node30</title>
<path fill="none" stroke="midnightblue" d="M335.783,-587.5C347.886,-587.5 361.016,-587.5 373.561,-587.5"/>
<polygon fill="midnightblue" stroke="midnightblue" points="373.925,-591 383.925,-587.5 373.925,-584 373.925,-591"/>
</g>
<!-- Node31 -->
<g id="node31" class="node"><title>Node31</title>
<g id="a_node31"><a xlink:href="classtlz_1_1dataset.html#ab14f5b1f18c0ab423c18270b7ca46bd2" target="_top" xlink:title="tlz::dataset::parameters">
<polygon fill="white" stroke="black" points="528,-578 528,-597 648,-597 648,-578 528,-578"/>
<text text-anchor="middle" x="588" y="-585" font-family="Helvetica,sans-Serif" font-size="10.00">tlz::dataset::parameters</text>
</a>
</g>
</g>
<!-- Node30&#45;&gt;Node31 -->
<g id="edge43" class="edge"><title>Node30&#45;&gt;Node31</title>
<path fill="none" stroke="midnightblue" d="M481.227,-587.5C492.778,-587.5 505.358,-587.5 517.68,-587.5"/>
<polygon fill="midnightblue" stroke="midnightblue" points="517.941,-591 527.941,-587.5 517.941,-584 517.941,-591"/>
</g>
<!-- Node35 -->
<g id="node35" class="node"><title>Node35</title>
<g id="a_node35"><a xlink:href="namespacetlz.html#ac822758bd15e79a45a9529097026c9bc" target="_top" xlink:title="tlz::random_color">
<polygon fill="white" stroke="black" points="241,-383 241,-402 333,-402 333,-383 241,-383"/>
<text text-anchor="middle" x="287" y="-390" font-family="Helvetica,sans-Serif" font-size="10.00">tlz::random_color</text>
</a>
</g>
</g>
<!-- Node34&#45;&gt;Node35 -->
<g id="edge47" class="edge"><title>Node34&#45;&gt;Node35</title>
<path fill="none" stroke="midnightblue" d="M191.334,-380.306C204.119,-381.953 217.817,-383.717 230.711,-385.378"/>
<polygon fill="midnightblue" stroke="midnightblue" points="230.481,-388.877 240.846,-386.684 231.375,-381.935 230.481,-388.877"/>
</g>
<!-- Node36 -->
<g id="node36" class="node"><title>Node36</title>
<g id="a_node36"><a xlink:href="namespacetlz.html#ae5932564ec9a5798fa5dbfdd1ed411a1" target="_top" xlink:title="tlz::string_hash">
<polygon fill="white" stroke="black" points="245.5,-345 245.5,-364 328.5,-364 328.5,-345 245.5,-345"/>
<text text-anchor="middle" x="287" y="-352" font-family="Helvetica,sans-Serif" font-size="10.00">tlz::string_hash</text>
</a>
</g>
</g>
<!-- Node34&#45;&gt;Node36 -->
<g id="edge48" class="edge"><title>Node34&#45;&gt;Node36</title>
<path fill="none" stroke="midnightblue" d="M191.334,-366.694C205.569,-364.861 220.937,-362.881 235.066,-361.061"/>
<polygon fill="midnightblue" stroke="midnightblue" points="235.63,-364.517 245.101,-359.768 234.736,-357.575 235.63,-364.517"/>
</g>
<!-- Node41 -->
<g id="node41" class="node"><title>Node41</title>
<g id="a_node41"><a xlink:href="classtlz_1_1viewer.html#af74a8aef9dde68eeff6b1e2561b39014" target="_top" xlink:title="tlz::viewer::height">
<polygon fill="white" stroke="black" points="240,-202 240,-221 334,-221 334,-202 240,-202"/>
<text text-anchor="middle" x="287" y="-209" font-family="Helvetica,sans-Serif" font-size="10.00">tlz::viewer::height</text>
</a>
</g>
</g>
<!-- Node40&#45;&gt;Node41 -->
<g id="edge53" class="edge"><title>Node40&#45;&gt;Node41</title>
<path fill="none" stroke="midnightblue" d="M174.279,-164.097C183.129,-166.819 192.505,-170.004 201,-173.5 217.731,-180.384 220.538,-184.995 237,-192.5 241.224,-194.426 245.704,-196.336 250.172,-198.162"/>
<polygon fill="midnightblue" stroke="midnightblue" points="249.243,-201.559 259.828,-201.995 251.825,-195.053 249.243,-201.559"/>
</g>
<!-- Node42 -->
<g id="node42" class="node"><title>Node42</title>
<g id="a_node42"><a xlink:href="classtlz_1_1viewer.html#acc43bf1dd1d0c3cdc35a948d4c194769" target="_top" xlink:title="tlz::viewer::width">
<polygon fill="white" stroke="black" points="241.5,-164 241.5,-183 332.5,-183 332.5,-164 241.5,-164"/>
<text text-anchor="middle" x="287" y="-171" font-family="Helvetica,sans-Serif" font-size="10.00">tlz::viewer::width</text>
</a>
</g>
</g>
<!-- Node40&#45;&gt;Node42 -->
<g id="edge54" class="edge"><title>Node40&#45;&gt;Node42</title>
<path fill="none" stroke="midnightblue" d="M182.356,-160.149C197.611,-162.114 214.921,-164.344 230.966,-166.411"/>
<polygon fill="midnightblue" stroke="midnightblue" points="230.927,-169.935 241.292,-167.741 231.822,-162.992 230.927,-169.935"/>
</g>
<!-- Node43&#45;&gt;Node41 -->
<g id="edge57" class="edge"><title>Node43&#45;&gt;Node41</title>
<path fill="none" stroke="midnightblue" d="M182.356,-198.149C197.193,-200.06 213.974,-202.222 229.644,-204.241"/>
<polygon fill="midnightblue" stroke="midnightblue" points="229.385,-207.736 239.75,-205.542 230.279,-200.793 229.385,-207.736"/>
</g>
<!-- Node43&#45;&gt;Node42 -->
<g id="edge56" class="edge"><title>Node43&#45;&gt;Node42</title>
<path fill="none" stroke="midnightblue" d="M182.356,-186.851C197.611,-184.886 214.921,-182.656 230.966,-180.589"/>
<polygon fill="midnightblue" stroke="midnightblue" points="231.822,-184.008 241.292,-179.259 230.927,-177.065 231.822,-184.008"/>
</g>
<!-- Node45 -->
<g id="node45" class="node"><title>Node45</title>
<g id="a_node45"><a xlink:href="namespacetlz.html#a643b2d03bd805fe78dcd684ef45e52fb" target="_top" xlink:title="Clamp value between minimum and maximum value. ">
<polygon fill="white" stroke="black" points="257.5,-50 257.5,-69 316.5,-69 316.5,-50 257.5,-50"/>
<text text-anchor="middle" x="287" y="-57" font-family="Helvetica,sans-Serif" font-size="10.00">tlz::clamp</text>
</a>
</g>
</g>
<!-- Node44&#45;&gt;Node45 -->
<g id="edge59" class="edge"><title>Node44&#45;&gt;Node45</title>
<path fill="none" stroke="midnightblue" d="M159.682,-111.143C171.951,-107.774 187.576,-103.024 201,-97.5 217.731,-90.6155 220.538,-86.0051 237,-78.5 241.224,-76.5744 245.704,-74.6637 250.172,-72.8382"/>
<polygon fill="midnightblue" stroke="midnightblue" points="251.825,-75.9474 259.828,-69.0048 249.243,-69.4413 251.825,-75.9474"/>
</g>
<!-- Node46 -->
<g id="node46" class="node"><title>Node46</title>
<g id="a_node46"><a xlink:href="namespacetlz.html#a4fe5757a830e199f84d229eee11f616e" target="_top" xlink:title="Compute greatest common divisor of a and b. ">
<polygon fill="white" stroke="black" points="262.5,-126 262.5,-145 311.5,-145 311.5,-126 262.5,-126"/>
<text text-anchor="middle" x="287" y="-133" font-family="Helvetica,sans-Serif" font-size="10.00">tlz::gcd</text>
</a>
</g>
</g>
<!-- Node44&#45;&gt;Node46 -->
<g id="edge60" class="edge"><title>Node44&#45;&gt;Node46</title>
<path fill="none" stroke="midnightblue" d="M159.633,-119.222C183.897,-122.348 224.014,-127.515 252.535,-131.189"/>
<polygon fill="midnightblue" stroke="midnightblue" points="252.102,-134.662 262.468,-132.469 252.997,-127.72 252.102,-134.662"/>
</g>
<!-- Node47 -->
<g id="node47" class="node"><title>Node47</title>
<g id="a_node47"><a xlink:href="namespacetlz.html#aec6e2158ce198aa20a8493fde3d3b552" target="_top" xlink:title="Compute least common multiple of a and b. ">
<polygon fill="white" stroke="black" points="262.5,-88 262.5,-107 311.5,-107 311.5,-88 262.5,-88"/>
<text text-anchor="middle" x="287" y="-95" font-family="Helvetica,sans-Serif" font-size="10.00">tlz::lcm</text>
</a>
</g>
</g>
<!-- Node44&#45;&gt;Node47 -->
<g id="edge61" class="edge"><title>Node44&#45;&gt;Node47</title>
<path fill="none" stroke="midnightblue" d="M159.633,-113.778C183.897,-110.652 224.014,-105.485 252.535,-101.811"/>
<polygon fill="midnightblue" stroke="midnightblue" points="252.997,-105.28 262.468,-100.531 252.102,-98.3376 252.997,-105.28"/>
</g>
<!-- Node50 -->
<g id="node50" class="node"><title>Node50</title>
<g id="a_node50"><a xlink:href="classtlz_1_1viewer.html#a39742c89e09f32e2d2c9162882dc158c" target="_top" xlink:title="tlz::viewer::update\l_modal">
<polygon fill="white" stroke="black" points="238.5,-0.5 238.5,-30.5 335.5,-30.5 335.5,-0.5 238.5,-0.5"/>
<text text-anchor="start" x="246.5" y="-18.5" font-family="Helvetica,sans-Serif" font-size="10.00">tlz::viewer::update</text>
<text text-anchor="middle" x="287" y="-7.5" font-family="Helvetica,sans-Serif" font-size="10.00">_modal</text>
</a>
</g>
</g>
<!-- Node49&#45;&gt;Node50 -->
<g id="edge65" class="edge"><title>Node49&#45;&gt;Node50</title>
<path fill="none" stroke="midnightblue" d="M198.919,-28.4883C208.501,-27.0591 218.394,-25.5836 227.92,-24.1627"/>
<polygon fill="midnightblue" stroke="midnightblue" points="228.708,-27.584 238.082,-22.647 227.675,-20.6606 228.708,-27.584"/>
</g>
</g>
</svg>
