<?xml version="1.0" encoding="UTF-8" standalone="no"?>
<!DOCTYPE svg PUBLIC "-//W3C//DTD SVG 1.1//EN"
 "http://www.w3.org/Graphics/SVG/1.1/DTD/svg11.dtd">
<!-- Generated by graphviz version 2.38.0 (20140413.2041)
 -->
<!-- Title: main Pages: 1 -->
<svg width="943pt" height="938pt"
 viewBox="0.00 0.00 943.00 938.00" xmlns="http://www.w3.org/2000/svg" xmlns:xlink="http://www.w3.org/1999/xlink">
<g id="graph0" class="graph" transform="scale(1 1) rotate(0) translate(4 934)">
<title>main</title>
<polygon fill="white" stroke="none" points="-4,4 -4,-934 939,-934 939,4 -4,4"/>
<!-- Node1 -->
<g id="node1" class="node"><title>Node1</title>
<polygon fill="#bfbfbf" stroke="black" points="0,-471.5 0,-490.5 38,-490.5 38,-471.5 0,-471.5"/>
<text text-anchor="middle" x="19" y="-478.5" font-family="Helvetica,sans-Serif" font-size="10.00">main</text>
</g>
<!-- Node2 -->
<g id="node2" class="node"><title>Node2</title>
<g id="a_node2"><a xlink:href="namespacetlz.html#a3c03f5d9d6261ec2909938822fc47f8a" target="_top" xlink:title="tlz::get_args">
<polygon fill="white" stroke="black" points="102,-910.5 102,-929.5 173,-929.5 173,-910.5 102,-910.5"/>
<text text-anchor="middle" x="137.5" y="-917.5" font-family="Helvetica,sans-Serif" font-size="10.00">tlz::get_args</text>
</a>
</g>
</g>
<!-- Node1&#45;&gt;Node2 -->
<g id="edge1" class="edge"><title>Node1&#45;&gt;Node2</title>
<path fill="none" stroke="midnightblue" d="M19.9591,-490.574C19.9051,-546.449 22.213,-830.199 74,-896 78.7444,-902.028 85.1966,-906.543 92.1608,-909.925"/>
<polygon fill="midnightblue" stroke="midnightblue" points="91.2805,-913.345 101.862,-913.869 93.9169,-906.861 91.2805,-913.345"/>
</g>
<!-- Node3 -->
<g id="node3" class="node"><title>Node3</title>
<g id="a_node3"><a xlink:href="namespacetlz.html#a91f1aec7120c97452c495ee447e56b57" target="_top" xlink:title="tlz::dataset_arg">
<polygon fill="white" stroke="black" points="263.5,-670.5 263.5,-689.5 347.5,-689.5 347.5,-670.5 263.5,-670.5"/>
<text text-anchor="middle" x="305.5" y="-677.5" font-family="Helvetica,sans-Serif" font-size="10.00">tlz::dataset_arg</text>
</a>
</g>
</g>
<!-- Node1&#45;&gt;Node3 -->
<g id="edge2" class="edge"><title>Node1&#45;&gt;Node3</title>
<path fill="none" stroke="midnightblue" d="M19.6292,-490.515C19.0359,-520.412 21.6654,-613.015 74,-656 123.884,-696.972 201.781,-696.014 252.983,-689.59"/>
<polygon fill="midnightblue" stroke="midnightblue" points="253.734,-693.02 263.167,-688.196 252.785,-686.084 253.734,-693.02"/>
</g>
<!-- Node11 -->
<g id="node11" class="node"><title>Node11</title>
<g id="a_node11"><a xlink:href="namespacetlz.html#a097b9c15e0cbb06c775671b1239ec594" target="_top" xlink:title="tlz::references_grid_arg">
<polygon fill="white" stroke="black" points="78,-784.5 78,-803.5 197,-803.5 197,-784.5 78,-784.5"/>
<text text-anchor="middle" x="137.5" y="-791.5" font-family="Helvetica,sans-Serif" font-size="10.00">tlz::references_grid_arg</text>
</a>
</g>
</g>
<!-- Node1&#45;&gt;Node11 -->
<g id="edge12" class="edge"><title>Node1&#45;&gt;Node11</title>
<path fill="none" stroke="midnightblue" d="M20.4577,-490.666C22.8169,-536.48 35.0384,-731.346 74,-775 75.1941,-776.338 76.4791,-777.583 77.8393,-778.742"/>
<polygon fill="midnightblue" stroke="midnightblue" points="76.0939,-781.786 86.3413,-784.477 80.0086,-775.983 76.0939,-781.786"/>
</g>
<!-- Node13 -->
<g id="node13" class="node"><title>Node13</title>
<g id="a_node13"><a xlink:href="namespacetlz.html#a35f9e03fa4fd9cec699f5fa27962400f" target="_top" xlink:title="tlz::json_arg">
<polygon fill="white" stroke="black" points="270.5,-708.5 270.5,-727.5 340.5,-727.5 340.5,-708.5 270.5,-708.5"/>
<text text-anchor="middle" x="305.5" y="-715.5" font-family="Helvetica,sans-Serif" font-size="10.00">tlz::json_arg</text>
</a>
</g>
</g>
<!-- Node1&#45;&gt;Node13 -->
<g id="edge29" class="edge"><title>Node1&#45;&gt;Node13</title>
<path fill="none" stroke="midnightblue" d="M21.0851,-490.526C25.5003,-527.527 43.3535,-660.984 74,-688 125.119,-733.063 209.093,-731.729 260.334,-725.601"/>
<polygon fill="midnightblue" stroke="midnightblue" points="260.976,-729.047 270.437,-724.28 260.068,-722.106 260.976,-729.047"/>
</g>
<!-- Node15 -->
<g id="node15" class="node"><title>Node15</title>
<g id="a_node15"><a xlink:href="namespacetlz.html#a922b23e21d7b208319196b18bd9a3ea6" target="_top" xlink:title="tlz::relative_camera\l_positions_arg">
<polygon fill="white" stroke="black" points="86.5,-823 86.5,-853 188.5,-853 188.5,-823 86.5,-823"/>
<text text-anchor="start" x="94.5" y="-841" font-family="Helvetica,sans-Serif" font-size="10.00">tlz::relative_camera</text>
<text text-anchor="middle" x="137.5" y="-830" font-family="Helvetica,sans-Serif" font-size="10.00">_positions_arg</text>
</a>
</g>
</g>
<!-- Node1&#45;&gt;Node15 -->
<g id="edge17" class="edge"><title>Node1&#45;&gt;Node15</title>
<path fill="none" stroke="midnightblue" d="M20.3139,-490.501C22.103,-539.267 32.4511,-761.173 74,-813 75.2884,-814.607 76.6956,-816.111 78.1992,-817.519"/>
<polygon fill="midnightblue" stroke="midnightblue" points="76.3427,-820.505 86.4162,-823.788 80.5883,-814.94 76.3427,-820.505"/>
</g>
<!-- Node17 -->
<g id="node17" class="node"><title>Node17</title>
<g id="a_node17"><a xlink:href="namespacetlz.html#a066563a26e2de02f215b179f3d3a53da" target="_top" xlink:title="tlz::decode_mat">
<polygon fill="white" stroke="black" points="420.5,-828.5 420.5,-847.5 506.5,-847.5 506.5,-828.5 420.5,-828.5"/>
<text text-anchor="middle" x="463.5" y="-835.5" font-family="Helvetica,sans-Serif" font-size="10.00">tlz::decode_mat</text>
</a>
</g>
</g>
<!-- Node1&#45;&gt;Node17 -->
<g id="edge28" class="edge"><title>Node1&#45;&gt;Node17</title>
<path fill="none" stroke="midnightblue" d="M19.7508,-490.812C18.5879,-545.558 15.9741,-812.6 74,-863 124.332,-906.717 307.964,-872.148 374,-863 391.384,-860.592 410.156,-855.642 425.919,-850.778"/>
<polygon fill="midnightblue" stroke="midnightblue" points="427.338,-853.999 435.798,-847.622 425.207,-847.331 427.338,-853.999"/>
</g>
<!-- Node18 -->
<g id="node18" class="node"><title>Node18</title>
<g id="a_node18"><a xlink:href="namespacetlz.html#a170805c7a8ede64a93e0ee23196e5b7c" target="_top" xlink:title="tlz::intrinsics_arg">
<polygon fill="white" stroke="black" points="92,-746.5 92,-765.5 183,-765.5 183,-746.5 92,-746.5"/>
<text text-anchor="middle" x="137.5" y="-753.5" font-family="Helvetica,sans-Serif" font-size="10.00">tlz::intrinsics_arg</text>
</a>
</g>
</g>
<!-- Node1&#45;&gt;Node18 -->
<g id="edge21" class="edge"><title>Node1&#45;&gt;Node18</title>
<path fill="none" stroke="midnightblue" d="M20.8493,-490.555C24.6917,-531.807 41.6784,-694.246 74,-732 77.2315,-735.775 81.1266,-738.958 85.3736,-741.642"/>
<polygon fill="midnightblue" stroke="midnightblue" points="84.0119,-744.882 94.4855,-746.48 87.2946,-738.699 84.0119,-744.882"/>
</g>
<!-- Node22 -->
<g id="node22" class="node"><title>Node22</title>
<g id="a_node22"><a xlink:href="namespacetlz.html#a65770a2c1ff57c5ae6542d4465a3d3f4" target="_top" xlink:title="tlz::out_filename_arg">
<polygon fill="white" stroke="black" points="410,-632.5 410,-651.5 517,-651.5 517,-632.5 410,-632.5"/>
<text text-anchor="middle" x="463.5" y="-639.5" font-family="Helvetica,sans-Serif" font-size="10.00">tlz::out_filename_arg</text>
</a>
</g>
</g>
<!-- Node1&#45;&gt;Node22 -->
<g id="edge30" class="edge"><title>Node1&#45;&gt;Node22</title>
<path fill="none" stroke="midnightblue" d="M20.7811,-490.836C23.3283,-515.623 33.7324,-580.747 74,-610 124.385,-646.603 303.12,-647.116 399.616,-644.512"/>
<polygon fill="midnightblue" stroke="midnightblue" points="399.932,-648.005 409.827,-644.217 399.73,-641.008 399.932,-648.005"/>
</g>
<!-- Node23 -->
<g id="node23" class="node"><title>Node23</title>
<g id="a_node23"><a xlink:href="namespacetlz.html#a4791154460ea7bf2fa5984b1748bc9d1" target="_top" xlink:title="tlz::out_filename_opt_arg">
<polygon fill="white" stroke="black" points="242.5,-572.5 242.5,-591.5 368.5,-591.5 368.5,-572.5 242.5,-572.5"/>
<text text-anchor="middle" x="305.5" y="-579.5" font-family="Helvetica,sans-Serif" font-size="10.00">tlz::out_filename_opt_arg</text>
</a>
</g>
</g>
<!-- Node1&#45;&gt;Node23 -->
<g id="edge32" class="edge"><title>Node1&#45;&gt;Node23</title>
<path fill="none" stroke="midnightblue" d="M21.6295,-490.72C25.8273,-512.281 39.2258,-563.873 74,-585 132.914,-620.793 216.9,-607.061 265.547,-594.246"/>
<polygon fill="midnightblue" stroke="midnightblue" points="266.657,-597.571 275.37,-591.543 264.8,-590.822 266.657,-597.571"/>
</g>
<!-- Node26 -->
<g id="node26" class="node"><title>Node26</title>
<g id="a_node26"><a xlink:href="structtlz_1_1distortion__parameters.html#a307fee036b04519d633fb8456899850c" target="_top" xlink:title="tlz::distortion_parameters\l::is_none">
<polygon fill="white" stroke="black" points="74,-545 74,-575 201,-575 201,-545 74,-545"/>
<text text-anchor="start" x="82" y="-563" font-family="Helvetica,sans-Serif" font-size="10.00">tlz::distortion_parameters</text>
<text text-anchor="middle" x="137.5" y="-552" font-family="Helvetica,sans-Serif" font-size="10.00">::is_none</text>
</a>
</g>
</g>
<!-- Node1&#45;&gt;Node26 -->
<g id="edge40" class="edge"><title>Node1&#45;&gt;Node26</title>
<path fill="none" stroke="midnightblue" d="M27.4105,-490.801C36.9942,-502.887 54.7553,-523.375 74,-536 76.2899,-537.502 78.6878,-538.931 81.1543,-540.288"/>
<polygon fill="midnightblue" stroke="midnightblue" points="79.8082,-543.528 90.3159,-544.884 82.9472,-537.272 79.8082,-543.528"/>
</g>
<!-- Node27 -->
<g id="node27" class="node"><title>Node27</title>
<g id="a_node27"><a xlink:href="structtlz_1_1relative__camera__positions.html#a210689e9345a5fea8e61f026db619c8b" target="_top" xlink:title="tlz::relative_camera\l_positions::to_reference\l_target_positions">
<polygon fill="white" stroke="black" points="77,-485.5 77,-526.5 198,-526.5 198,-485.5 77,-485.5"/>
<text text-anchor="start" x="85" y="-514.5" font-family="Helvetica,sans-Serif" font-size="10.00">tlz::relative_camera</text>
<text text-anchor="start" x="85" y="-503.5" font-family="Helvetica,sans-Serif" font-size="10.00">_positions::to_reference</text>
<text text-anchor="middle" x="137.5" y="-492.5" font-family="Helvetica,sans-Serif" font-size="10.00">_target_positions</text>
</a>
</g>
</g>
<!-- Node1&#45;&gt;Node27 -->
<g id="edge41" class="edge"><title>Node1&#45;&gt;Node27</title>
<path fill="none" stroke="midnightblue" d="M38.2031,-484.906C46.2875,-486.641 56.3667,-488.804 66.964,-491.078"/>
<polygon fill="midnightblue" stroke="midnightblue" points="66.2878,-494.513 76.7996,-493.189 67.7565,-487.668 66.2878,-494.513"/>
</g>
<!-- Node28 -->
<g id="node28" class="node"><title>Node28</title>
<g id="a_node28"><a xlink:href="namespacetlz.html#a4f0a2bcf6828f70de313375cf8b67fd1" target="_top" xlink:title="tlz::get_target_views">
<polygon fill="white" stroke="black" points="84,-447.5 84,-466.5 191,-466.5 191,-447.5 84,-447.5"/>
<text text-anchor="middle" x="137.5" y="-454.5" font-family="Helvetica,sans-Serif" font-size="10.00">tlz::get_target_views</text>
</a>
</g>
</g>
<!-- Node1&#45;&gt;Node28 -->
<g id="edge42" class="edge"><title>Node1&#45;&gt;Node28</title>
<path fill="none" stroke="midnightblue" d="M38.2031,-477.25C49.6473,-474.892 65.0886,-471.711 80.3388,-468.57"/>
<polygon fill="midnightblue" stroke="midnightblue" points="81.2007,-471.966 90.2888,-466.52 79.7882,-465.11 81.2007,-471.966"/>
</g>
<!-- Node29 -->
<g id="node29" class="node"><title>Node29</title>
<g id="a_node29"><a xlink:href="namespacetlz.html#aadab29bdc80bc1d0ad6d3784dd427992" target="_top" xlink:title="tlz::encode_view_index">
<polygon fill="white" stroke="black" points="78,-409.5 78,-428.5 197,-428.5 197,-409.5 78,-409.5"/>
<text text-anchor="middle" x="137.5" y="-416.5" font-family="Helvetica,sans-Serif" font-size="10.00">tlz::encode_view_index</text>
</a>
</g>
</g>
<!-- Node1&#45;&gt;Node29 -->
<g id="edge43" class="edge"><title>Node1&#45;&gt;Node29</title>
<path fill="none" stroke="midnightblue" d="M29.925,-471.157C40.1757,-461.486 57.0259,-446.919 74,-438 78.2323,-435.776 82.7654,-433.77 87.3857,-431.969"/>
<polygon fill="midnightblue" stroke="midnightblue" points="88.6856,-435.221 96.9232,-428.558 86.3286,-428.63 88.6856,-435.221"/>
</g>
<!-- Node31 -->
<g id="node31" class="node"><title>Node31</title>
<g id="a_node31"><a xlink:href="structtlz_1_1references__grid.html#ac2d383bed7f034aa729ae386b689ad6d" target="_top" xlink:title="tlz::references_grid\l::cols">
<polygon fill="white" stroke="black" points="87.5,-360 87.5,-390 187.5,-390 187.5,-360 87.5,-360"/>
<text text-anchor="start" x="95.5" y="-378" font-family="Helvetica,sans-Serif" font-size="10.00">tlz::references_grid</text>
<text text-anchor="middle" x="137.5" y="-367" font-family="Helvetica,sans-Serif" font-size="10.00">::cols</text>
</a>
</g>
</g>
<!-- Node1&#45;&gt;Node31 -->
<g id="edge46" class="edge"><title>Node1&#45;&gt;Node31</title>
<path fill="none" stroke="midnightblue" d="M24.0632,-471.395C31.5831,-454.685 49.1952,-420.126 74,-400 76.0646,-398.325 78.2558,-396.75 80.5348,-395.271"/>
<polygon fill="midnightblue" stroke="midnightblue" points="82.7428,-398.039 89.6784,-390.03 79.262,-391.966 82.7428,-398.039"/>
</g>
<!-- Node32 -->
<g id="node32" class="node"><title>Node32</title>
<g id="a_node32"><a xlink:href="structtlz_1_1references__grid.html#a5b4c4debbacfe143fd93753c04d84bca" target="_top" xlink:title="tlz::references_grid\l::rows">
<polygon fill="white" stroke="black" points="87.5,-311 87.5,-341 187.5,-341 187.5,-311 87.5,-311"/>
<text text-anchor="start" x="95.5" y="-329" font-family="Helvetica,sans-Serif" font-size="10.00">tlz::references_grid</text>
<text text-anchor="middle" x="137.5" y="-318" font-family="Helvetica,sans-Serif" font-size="10.00">::rows</text>
</a>
</g>
</g>
<!-- Node1&#45;&gt;Node32 -->
<g id="edge47" class="edge"><title>Node1&#45;&gt;Node32</title>
<path fill="none" stroke="midnightblue" d="M21.3866,-471.422C25.2936,-447.778 38.5149,-386.02 74,-351 75.466,-349.553 77.0265,-348.187 78.6613,-346.897"/>
<polygon fill="midnightblue" stroke="midnightblue" points="81.0042,-349.541 87.3636,-341.067 77.1078,-343.725 81.0042,-349.541"/>
</g>
<!-- Node33 -->
<g id="node33" class="node"><title>Node33</title>
<g id="a_node33"><a xlink:href="structtlz_1_1references__grid.html#a3ad2b6212dea0a1b71addfee4fc6bfba" target="_top" xlink:title="tlz::references_grid\l::view">
<polygon fill="white" stroke="black" points="87.5,-262 87.5,-292 187.5,-292 187.5,-262 87.5,-262"/>
<text text-anchor="start" x="95.5" y="-280" font-family="Helvetica,sans-Serif" font-size="10.00">tlz::references_grid</text>
<text text-anchor="middle" x="137.5" y="-269" font-family="Helvetica,sans-Serif" font-size="10.00">::view</text>
</a>
</g>
</g>
<!-- Node1&#45;&gt;Node33 -->
<g id="edge48" class="edge"><title>Node1&#45;&gt;Node33</title>
<path fill="none" stroke="midnightblue" d="M20.1177,-471.451C20.9883,-442.199 27.5158,-352.741 74,-302 75.5394,-300.32 77.2069,-298.75 78.9741,-297.285"/>
<polygon fill="midnightblue" stroke="midnightblue" points="81.0695,-300.09 87.2723,-291.501 77.067,-294.348 81.0695,-300.09"/>
</g>
<!-- Node34 -->
<g id="node34" class="node"><title>Node34</title>
<g id="a_node34"><a xlink:href="structtlz_1_1relative__camera__positions.html#abc210fc9594b475dcbbb8706e0122742" target="_top" xlink:title="tlz::relative_camera\l_positions::to_target\l_reference_positions">
<polygon fill="white" stroke="black" points="84,-202.5 84,-243.5 191,-243.5 191,-202.5 84,-202.5"/>
<text text-anchor="start" x="92" y="-231.5" font-family="Helvetica,sans-Serif" font-size="10.00">tlz::relative_camera</text>
<text text-anchor="start" x="92" y="-220.5" font-family="Helvetica,sans-Serif" font-size="10.00">_positions::to_target</text>
<text text-anchor="middle" x="137.5" y="-209.5" font-family="Helvetica,sans-Serif" font-size="10.00">_reference_positions</text>
</a>
</g>
</g>
<!-- Node1&#45;&gt;Node34 -->
<g id="edge49" class="edge"><title>Node1&#45;&gt;Node34</title>
<path fill="none" stroke="midnightblue" d="M19.507,-471.053C18.3358,-436.703 18.8934,-321.437 74,-253 74.7171,-252.109 75.4671,-251.244 76.2465,-250.402"/>
<polygon fill="midnightblue" stroke="midnightblue" points="78.8671,-252.752 83.9628,-243.463 74.1866,-247.547 78.8671,-252.752"/>
</g>
<!-- Node35 -->
<g id="node35" class="node"><title>Node35</title>
<g id="a_node35"><a xlink:href="namespacetlz.html#a318f0ec11ecbe39c32ad870473ea9c35" target="_top" xlink:title="Compute square of a number. ">
<polygon fill="white" stroke="black" points="115.5,-164.5 115.5,-183.5 159.5,-183.5 159.5,-164.5 115.5,-164.5"/>
<text text-anchor="middle" x="137.5" y="-171.5" font-family="Helvetica,sans-Serif" font-size="10.00">tlz::sq</text>
</a>
</g>
</g>
<!-- Node1&#45;&gt;Node35 -->
<g id="edge50" class="edge"><title>Node1&#45;&gt;Node35</title>
<path fill="none" stroke="midnightblue" d="M20.5039,-471.229C23.0379,-425.797 35.8131,-235.627 74,-193 81.9374,-184.14 93.8628,-179.35 105.176,-176.783"/>
<polygon fill="midnightblue" stroke="midnightblue" points="106.024,-180.188 115.261,-174.998 104.804,-173.295 106.024,-180.188"/>
</g>
<!-- Node39 -->
<g id="node39" class="node"><title>Node39</title>
<g id="a_node39"><a xlink:href="classtlz_1_1dataset.html#a8214662ec50b7214c1e5993185247a0a" target="_top" xlink:title="tlz::dataset::indices">
<polygon fill="white" stroke="black" points="86.5,-126.5 86.5,-145.5 188.5,-145.5 188.5,-126.5 86.5,-126.5"/>
<text text-anchor="middle" x="137.5" y="-133.5" font-family="Helvetica,sans-Serif" font-size="10.00">tlz::dataset::indices</text>
</a>
</g>
</g>
<!-- Node1&#45;&gt;Node39 -->
<g id="edge54" class="edge"><title>Node1&#45;&gt;Node39</title>
<path fill="none" stroke="midnightblue" d="M20.2692,-471.282C21.815,-422.416 31.0696,-203.956 74,-155 75.1824,-153.652 76.4571,-152.397 77.8083,-151.231"/>
<polygon fill="midnightblue" stroke="midnightblue" points="79.9804,-153.986 86.2723,-145.462 76.0379,-148.202 79.9804,-153.986"/>
</g>
<!-- Node40 -->
<g id="node40" class="node"><title>Node40</title>
<g id="a_node40"><a xlink:href="classtlz_1_1dataset.html#acbdb309b8dd22f687fff41f6e9ac6ed4" target="_top" xlink:title="tlz::dataset::view">
<polygon fill="white" stroke="black" points="91.5,-88.5 91.5,-107.5 183.5,-107.5 183.5,-88.5 91.5,-88.5"/>
<text text-anchor="middle" x="137.5" y="-95.5" font-family="Helvetica,sans-Serif" font-size="10.00">tlz::dataset::view</text>
</a>
</g>
</g>
<!-- Node1&#45;&gt;Node40 -->
<g id="edge55" class="edge"><title>Node1&#45;&gt;Node40</title>
<path fill="none" stroke="midnightblue" d="M20.0856,-471.215C20.7392,-418.874 26.3411,-172.282 74,-117 76.4784,-114.125 79.377,-111.677 82.5437,-109.594"/>
<polygon fill="midnightblue" stroke="midnightblue" points="84.2422,-112.655 91.4472,-104.887 80.9707,-106.466 84.2422,-112.655"/>
</g>
<!-- Node41 -->
<g id="node41" class="node"><title>Node41</title>
<g id="a_node41"><a xlink:href="classtlz_1_1dataset__view.html#a38cfd9cd54168855c54c607d01184c17" target="_top" xlink:title="tlz::dataset_view::\lcamera_name">
<polygon fill="white" stroke="black" points="89,-39 89,-69 186,-69 186,-39 89,-39"/>
<text text-anchor="start" x="97" y="-57" font-family="Helvetica,sans-Serif" font-size="10.00">tlz::dataset_view::</text>
<text text-anchor="middle" x="137.5" y="-46" font-family="Helvetica,sans-Serif" font-size="10.00">camera_name</text>
</a>
</g>
</g>
<!-- Node1&#45;&gt;Node41 -->
<g id="edge56" class="edge"><title>Node1&#45;&gt;Node41</title>
<path fill="none" stroke="midnightblue" d="M20.0177,-471.379C20.3016,-416.466 24.2269,-142.88 74,-79 75.8518,-76.6233 77.9645,-74.4718 80.2668,-72.5242"/>
<polygon fill="midnightblue" stroke="midnightblue" points="82.5012,-75.2339 88.7212,-66.6571 78.5102,-69.483 82.5012,-75.2339"/>
</g>
<!-- Node43 -->
<g id="node43" class="node"><title>Node43</title>
<g id="a_node43"><a xlink:href="namespacetlz.html#a445f7e177edcda36ece43a5fcd78615f" target="_top" xlink:title="tlz::export_cameras_file">
<polygon fill="white" stroke="black" points="77,-0.5 77,-19.5 198,-19.5 198,-0.5 77,-0.5"/>
<text text-anchor="middle" x="137.5" y="-7.5" font-family="Helvetica,sans-Serif" font-size="10.00">tlz::export_cameras_file</text>
</a>
</g>
</g>
<!-- Node1&#45;&gt;Node43 -->
<g id="edge58" class="edge"><title>Node1&#45;&gt;Node43</title>
<path fill="none" stroke="midnightblue" d="M19.7924,-471.333C18.7185,-412.28 15.889,-100.39 74,-30 75.3327,-28.3856 76.7962,-26.9 78.3646,-25.5329"/>
<polygon fill="midnightblue" stroke="midnightblue" points="80.6946,-28.1792 86.9638,-19.6383 76.7367,-22.4055 80.6946,-28.1792"/>
</g>
<!-- Node4 -->
<g id="node4" class="node"><title>Node4</title>
<g id="a_node4"><a xlink:href="namespacetlz.html#a634de7ca11e100e4a118dffe80376a75" target="_top" xlink:title="tlz::in_filename_arg">
<polygon fill="white" stroke="black" points="413,-670.5 413,-689.5 514,-689.5 514,-670.5 413,-670.5"/>
<text text-anchor="middle" x="463.5" y="-677.5" font-family="Helvetica,sans-Serif" font-size="10.00">tlz::in_filename_arg</text>
</a>
</g>
</g>
<!-- Node3&#45;&gt;Node4 -->
<g id="edge3" class="edge"><title>Node3&#45;&gt;Node4</title>
<path fill="none" stroke="midnightblue" d="M347.896,-680C364.727,-680 384.5,-680 402.839,-680"/>
<polygon fill="midnightblue" stroke="midnightblue" points="402.852,-683.5 412.852,-680 402.852,-676.5 402.852,-683.5"/>
</g>
<!-- Node5 -->
<g id="node5" class="node"><title>Node5</title>
<g id="a_node5"><a xlink:href="namespacetlz.html#a0621d598fb83b13bf028f3e6293d04f8" target="_top" xlink:title="tlz::string_arg">
<polygon fill="white" stroke="black" points="553.5,-632.5 553.5,-651.5 629.5,-651.5 629.5,-632.5 553.5,-632.5"/>
<text text-anchor="middle" x="591.5" y="-639.5" font-family="Helvetica,sans-Serif" font-size="10.00">tlz::string_arg</text>
</a>
</g>
</g>
<!-- Node4&#45;&gt;Node5 -->
<g id="edge4" class="edge"><title>Node4&#45;&gt;Node5</title>
<path fill="none" stroke="midnightblue" d="M496.295,-670.411C512.262,-665.596 531.807,-659.701 548.947,-654.532"/>
<polygon fill="midnightblue" stroke="midnightblue" points="550.152,-657.824 558.715,-651.586 548.13,-651.122 550.152,-657.824"/>
</g>
<!-- Node6 -->
<g id="node6" class="node"><title>Node6</title>
<g id="a_node6"><a xlink:href="namespacetlz.html#a780431daab8d2595372eacb43143b52d" target="_top" xlink:title="tlz::args">
<polygon fill="white" stroke="black" points="696.5,-632.5 696.5,-651.5 748.5,-651.5 748.5,-632.5 696.5,-632.5"/>
<text text-anchor="middle" x="722.5" y="-639.5" font-family="Helvetica,sans-Serif" font-size="10.00">tlz::args</text>
</a>
</g>
</g>
<!-- Node4&#45;&gt;Node6 -->
<g id="edge10" class="edge"><title>Node4&#45;&gt;Node6</title>
<path fill="none" stroke="midnightblue" d="M514.268,-675.472C547.21,-672.183 591.309,-667.225 630,-661 648.704,-657.991 669.381,-653.774 686.341,-650.077"/>
<polygon fill="midnightblue" stroke="midnightblue" points="687.361,-653.436 696.369,-647.858 685.849,-646.601 687.361,-653.436"/>
</g>
<!-- Node8 -->
<g id="node8" class="node"><title>Node8</title>
<g id="a_node8"><a xlink:href="classtlz_1_1args__list.html#a38ad21acd64a4af98ffdf4a47837cdbe" target="_top" xlink:title="tlz::args_list::usage_fail">
<polygon fill="white" stroke="black" points="815,-515.5 815,-534.5 935,-534.5 935,-515.5 815,-515.5"/>
<text text-anchor="middle" x="875" y="-522.5" font-family="Helvetica,sans-Serif" font-size="10.00">tlz::args_list::usage_fail</text>
</a>
</g>
</g>
<!-- Node4&#45;&gt;Node8 -->
<g id="edge11" class="edge"><title>Node4&#45;&gt;Node8</title>
<path fill="none" stroke="midnightblue" d="M509.461,-689.537C574.166,-700.71 694.984,-711.813 779,-661 824.633,-633.401 853.955,-574.575 866.687,-544.135"/>
<polygon fill="midnightblue" stroke="midnightblue" points="870.017,-545.233 870.498,-534.649 863.522,-542.623 870.017,-545.233"/>
</g>
<!-- Node10 -->
<g id="node10" class="node"><title>Node10</title>
<g id="a_node10"><a xlink:href="namespacetlz.html#abb019466ea9f56c0dab27e893d891837" target="_top" xlink:title="tlz::file_exists">
<polygon fill="white" stroke="black" points="553,-746.5 553,-765.5 630,-765.5 630,-746.5 553,-746.5"/>
<text text-anchor="middle" x="591.5" y="-753.5" font-family="Helvetica,sans-Serif" font-size="10.00">tlz::file_exists</text>
</a>
</g>
</g>
<!-- Node4&#45;&gt;Node10 -->
<g id="edge9" class="edge"><title>Node4&#45;&gt;Node10</title>
<path fill="none" stroke="midnightblue" d="M497.073,-689.52C503.89,-692.129 510.865,-695.284 517,-699 535.565,-710.245 535.795,-718.767 553,-732 556.929,-735.022 561.242,-738.036 565.501,-740.856"/>
<polygon fill="midnightblue" stroke="midnightblue" points="563.717,-743.869 574.026,-746.313 567.491,-737.974 563.717,-743.869"/>
</g>
<!-- Node5&#45;&gt;Node6 -->
<g id="edge5" class="edge"><title>Node5&#45;&gt;Node6</title>
<path fill="none" stroke="midnightblue" d="M629.812,-642C647.436,-642 668.375,-642 685.79,-642"/>
<polygon fill="midnightblue" stroke="midnightblue" points="686.117,-645.5 696.117,-642 686.117,-638.5 686.117,-645.5"/>
</g>
<!-- Node7 -->
<g id="node7" class="node"><title>Node7</title>
<g id="a_node7"><a xlink:href="classtlz_1_1args__list.html#a73d99bc75998dc14607a3a372d28dc6d" target="_top" xlink:title="tlz::args_list::next_arg">
<polygon fill="white" stroke="black" points="666,-515.5 666,-534.5 779,-534.5 779,-515.5 666,-515.5"/>
<text text-anchor="middle" x="722.5" y="-522.5" font-family="Helvetica,sans-Serif" font-size="10.00">tlz::args_list::next_arg</text>
</a>
</g>
</g>
<!-- Node5&#45;&gt;Node7 -->
<g id="edge6" class="edge"><title>Node5&#45;&gt;Node7</title>
<path fill="none" stroke="midnightblue" d="M603.057,-632.425C624.979,-612.543 675.671,-566.565 703.092,-541.695"/>
<polygon fill="midnightblue" stroke="midnightblue" points="705.742,-544.018 710.798,-534.707 701.039,-538.833 705.742,-544.018"/>
</g>
<!-- Node7&#45;&gt;Node8 -->
<g id="edge7" class="edge"><title>Node7&#45;&gt;Node8</title>
<path fill="none" stroke="midnightblue" d="M779.113,-525C787.479,-525 796.192,-525 804.8,-525"/>
<polygon fill="midnightblue" stroke="midnightblue" points="804.828,-528.5 814.828,-525 804.828,-521.5 804.828,-528.5"/>
</g>
<!-- Node9 -->
<g id="node9" class="node"><title>Node9</title>
<g id="a_node9"><a xlink:href="namespacetlz.html#a8e4f8c8c2927bc4350de13bfa0f8f9e1" target="_top" xlink:title="tlz::to_string">
<polygon fill="white" stroke="black" points="839.5,-471.5 839.5,-490.5 910.5,-490.5 910.5,-471.5 839.5,-471.5"/>
<text text-anchor="middle" x="875" y="-478.5" font-family="Helvetica,sans-Serif" font-size="10.00">tlz::to_string</text>
</a>
</g>
</g>
<!-- Node7&#45;&gt;Node9 -->
<g id="edge8" class="edge"><title>Node7&#45;&gt;Node9</title>
<path fill="none" stroke="midnightblue" d="M756.156,-515.453C778.245,-508.995 807.634,-500.403 831.537,-493.415"/>
<polygon fill="midnightblue" stroke="midnightblue" points="832.791,-496.694 841.407,-490.529 830.827,-489.976 832.791,-496.694"/>
</g>
<!-- Node12 -->
<g id="node12" class="node"><title>Node12</title>
<g id="a_node12"><a xlink:href="namespacetlz.html#a01838f5b78a259fcff3c50ad9567f6c8" target="_top" xlink:title="tlz::decode_references_grid">
<polygon fill="white" stroke="black" points="237,-784.5 237,-803.5 374,-803.5 374,-784.5 237,-784.5"/>
<text text-anchor="middle" x="305.5" y="-791.5" font-family="Helvetica,sans-Serif" font-size="10.00">tlz::decode_references_grid</text>
</a>
</g>
</g>
<!-- Node11&#45;&gt;Node12 -->
<g id="edge13" class="edge"><title>Node11&#45;&gt;Node12</title>
<path fill="none" stroke="midnightblue" d="M197.025,-794C206.586,-794 216.622,-794 226.561,-794"/>
<polygon fill="midnightblue" stroke="midnightblue" points="226.86,-797.5 236.86,-794 226.86,-790.5 226.86,-797.5"/>
</g>
<!-- Node11&#45;&gt;Node13 -->
<g id="edge14" class="edge"><title>Node11&#45;&gt;Node13</title>
<path fill="none" stroke="midnightblue" d="M180.817,-784.41C187.834,-781.913 194.827,-778.817 201,-775 220.788,-762.765 217.087,-749.029 237,-737 244.186,-732.659 252.399,-729.278 260.563,-726.655"/>
<polygon fill="midnightblue" stroke="midnightblue" points="261.784,-729.946 270.427,-723.818 259.849,-723.219 261.784,-729.946"/>
</g>
<!-- Node13&#45;&gt;Node4 -->
<g id="edge16" class="edge"><title>Node13&#45;&gt;Node4</title>
<path fill="none" stroke="midnightblue" d="M340.735,-709.661C362.081,-704.461 389.893,-697.686 413.547,-691.924"/>
<polygon fill="midnightblue" stroke="midnightblue" points="414.511,-695.292 423.399,-689.525 412.855,-688.491 414.511,-695.292"/>
</g>
<!-- Node14 -->
<g id="node14" class="node"><title>Node14</title>
<g id="a_node14"><a xlink:href="namespacetlz.html#aa1be9362f548fcf9378e1fc9074089c4" target="_top" xlink:title="tlz::import_json_file">
<polygon fill="white" stroke="black" points="413,-708.5 413,-727.5 514,-727.5 514,-708.5 413,-708.5"/>
<text text-anchor="middle" x="463.5" y="-715.5" font-family="Helvetica,sans-Serif" font-size="10.00">tlz::import_json_file</text>
</a>
</g>
</g>
<!-- Node13&#45;&gt;Node14 -->
<g id="edge15" class="edge"><title>Node13&#45;&gt;Node14</title>
<path fill="none" stroke="midnightblue" d="M340.735,-718C358.925,-718 381.81,-718 402.817,-718"/>
<polygon fill="midnightblue" stroke="midnightblue" points="402.95,-721.5 412.95,-718 402.95,-714.5 402.95,-721.5"/>
</g>
<!-- Node15&#45;&gt;Node13 -->
<g id="edge20" class="edge"><title>Node15&#45;&gt;Node13</title>
<path fill="none" stroke="midnightblue" d="M187.137,-822.916C192.161,-820.122 196.913,-816.842 201,-813 228.233,-787.401 208.447,-761.118 237,-737 243.685,-731.354 251.936,-727.38 260.349,-724.585"/>
<polygon fill="midnightblue" stroke="midnightblue" points="261.531,-727.889 270.213,-721.816 259.639,-721.149 261.531,-727.889"/>
</g>
<!-- Node16 -->
<g id="node16" class="node"><title>Node16</title>
<g id="a_node16"><a xlink:href="namespacetlz.html#a387370f41b7b1fcbaf5478adc6143309" target="_top" xlink:title="tlz::decode_relative\l_camera_positions">
<polygon fill="white" stroke="black" points="255,-823 255,-853 356,-853 356,-823 255,-823"/>
<text text-anchor="start" x="263" y="-841" font-family="Helvetica,sans-Serif" font-size="10.00">tlz::decode_relative</text>
<text text-anchor="middle" x="305.5" y="-830" font-family="Helvetica,sans-Serif" font-size="10.00">_camera_positions</text>
</a>
</g>
</g>
<!-- Node15&#45;&gt;Node16 -->
<g id="edge18" class="edge"><title>Node15&#45;&gt;Node16</title>
<path fill="none" stroke="midnightblue" d="M188.756,-838C206.469,-838 226.552,-838 244.959,-838"/>
<polygon fill="midnightblue" stroke="midnightblue" points="244.986,-841.5 254.986,-838 244.986,-834.5 244.986,-841.5"/>
</g>
<!-- Node16&#45;&gt;Node17 -->
<g id="edge19" class="edge"><title>Node16&#45;&gt;Node17</title>
<path fill="none" stroke="midnightblue" d="M356.288,-838C373.346,-838 392.484,-838 409.767,-838"/>
<polygon fill="midnightblue" stroke="midnightblue" points="410.253,-841.5 420.253,-838 410.253,-834.5 410.253,-841.5"/>
</g>
<!-- Node18&#45;&gt;Node13 -->
<g id="edge27" class="edge"><title>Node18&#45;&gt;Node13</title>
<path fill="none" stroke="midnightblue" d="M180.389,-746.411C204.87,-740.807 235.734,-733.742 260.559,-728.059"/>
<polygon fill="midnightblue" stroke="midnightblue" points="261.477,-731.439 270.444,-725.796 259.915,-724.616 261.477,-731.439"/>
</g>
<!-- Node19 -->
<g id="node19" class="node"><title>Node19</title>
<g id="a_node19"><a xlink:href="namespacetlz.html#a8cba4853d0d796a01c72f59f36f2a492" target="_top" xlink:title="tlz::decode_intrinsics">
<polygon fill="white" stroke="black" points="251,-746.5 251,-765.5 360,-765.5 360,-746.5 251,-746.5"/>
<text text-anchor="middle" x="305.5" y="-753.5" font-family="Helvetica,sans-Serif" font-size="10.00">tlz::decode_intrinsics</text>
</a>
</g>
</g>
<!-- Node18&#45;&gt;Node19 -->
<g id="edge22" class="edge"><title>Node18&#45;&gt;Node19</title>
<path fill="none" stroke="midnightblue" d="M183.422,-756C201.084,-756 221.683,-756 240.828,-756"/>
<polygon fill="midnightblue" stroke="midnightblue" points="240.985,-759.5 250.985,-756 240.985,-752.5 240.985,-759.5"/>
</g>
<!-- Node19&#45;&gt;Node17 -->
<g id="edge23" class="edge"><title>Node19&#45;&gt;Node17</title>
<path fill="none" stroke="midnightblue" d="M351.61,-765.517C359.332,-768.03 367.087,-771.15 374,-775 392.962,-785.561 392.469,-795.203 410,-808 417.639,-813.576 426.404,-818.943 434.555,-823.558"/>
<polygon fill="midnightblue" stroke="midnightblue" points="432.956,-826.672 443.406,-828.419 436.326,-820.537 432.956,-826.672"/>
</g>
<!-- Node20 -->
<g id="node20" class="node"><title>Node20</title>
<g id="a_node20"><a xlink:href="namespacetlz.html#a252af14b9b4ac6502d3e9c5dd8dc90b8" target="_top" xlink:title="tlz::has">
<polygon fill="white" stroke="black" points="567,-784.5 567,-803.5 616,-803.5 616,-784.5 567,-784.5"/>
<text text-anchor="middle" x="591.5" y="-791.5" font-family="Helvetica,sans-Serif" font-size="10.00">tlz::has</text>
</a>
</g>
</g>
<!-- Node19&#45;&gt;Node20 -->
<g id="edge24" class="edge"><title>Node19&#45;&gt;Node20</title>
<path fill="none" stroke="midnightblue" d="M354.037,-765.516C371.577,-768.819 391.647,-772.353 410,-775 460.952,-782.347 520.383,-788.055 556.72,-791.223"/>
<polygon fill="midnightblue" stroke="midnightblue" points="556.513,-794.718 566.775,-792.087 557.111,-787.744 556.513,-794.718"/>
</g>
<!-- Node21 -->
<g id="node21" class="node"><title>Node21</title>
<g id="a_node21"><a xlink:href="namespacetlz.html#add846dc50c32dfb356cb1a7ac11d37ac" target="_top" xlink:title="tlz::get_or">
<polygon fill="white" stroke="black" points="433.5,-746.5 433.5,-765.5 493.5,-765.5 493.5,-746.5 433.5,-746.5"/>
<text text-anchor="middle" x="463.5" y="-753.5" font-family="Helvetica,sans-Serif" font-size="10.00">tlz::get_or</text>
</a>
</g>
</g>
<!-- Node19&#45;&gt;Node21 -->
<g id="edge25" class="edge"><title>Node19&#45;&gt;Node21</title>
<path fill="none" stroke="midnightblue" d="M360.186,-756C380.86,-756 404.065,-756 423.143,-756"/>
<polygon fill="midnightblue" stroke="midnightblue" points="423.275,-759.5 433.275,-756 423.275,-752.5 423.275,-759.5"/>
</g>
<!-- Node21&#45;&gt;Node20 -->
<g id="edge26" class="edge"><title>Node21&#45;&gt;Node20</title>
<path fill="none" stroke="midnightblue" d="M493.724,-764.813C512.667,-770.527 537.396,-777.984 557.114,-783.931"/>
<polygon fill="midnightblue" stroke="midnightblue" points="556.327,-787.349 566.911,-786.886 558.348,-780.648 556.327,-787.349"/>
</g>
<!-- Node22&#45;&gt;Node5 -->
<g id="edge31" class="edge"><title>Node22&#45;&gt;Node5</title>
<path fill="none" stroke="midnightblue" d="M517.205,-642C525.835,-642 534.73,-642 543.218,-642"/>
<polygon fill="midnightblue" stroke="midnightblue" points="543.324,-645.5 553.324,-642 543.324,-638.5 543.324,-645.5"/>
</g>
<!-- Node23&#45;&gt;Node6 -->
<g id="edge33" class="edge"><title>Node23&#45;&gt;Node6</title>
<path fill="none" stroke="midnightblue" d="M368.729,-588.416C434.022,-595.492 539.539,-607.9 630,-623 648.686,-626.119 669.362,-630.346 686.325,-634.021"/>
<polygon fill="midnightblue" stroke="midnightblue" points="685.838,-637.497 696.356,-636.223 687.339,-630.66 685.838,-637.497"/>
</g>
<!-- Node23&#45;&gt;Node7 -->
<g id="edge38" class="edge"><title>Node23&#45;&gt;Node7</title>
<path fill="none" stroke="midnightblue" d="M322.666,-572.458C342.474,-561.334 377.428,-543.515 410,-536 493.038,-516.841 591.793,-517.091 655.503,-520.121"/>
<polygon fill="midnightblue" stroke="midnightblue" points="655.643,-523.633 665.809,-520.65 656.002,-516.642 655.643,-523.633"/>
</g>
<!-- Node23&#45;&gt;Node22 -->
<g id="edge39" class="edge"><title>Node23&#45;&gt;Node22</title>
<path fill="none" stroke="midnightblue" d="M331.219,-591.507C357.385,-601.571 398.876,-617.529 428.201,-628.808"/>
<polygon fill="midnightblue" stroke="midnightblue" points="427.049,-632.115 437.639,-632.438 429.562,-625.582 427.049,-632.115"/>
</g>
<!-- Node24 -->
<g id="node24" class="node"><title>Node24</title>
<g id="a_node24"><a xlink:href="classtlz_1_1args__list.html#a4aee93f4b0d9b5b4e7a5d13cb637337c" target="_top" xlink:title="tlz::args_list::has\l_next_arg">
<polygon fill="white" stroke="black" points="417.5,-545 417.5,-575 509.5,-575 509.5,-545 417.5,-545"/>
<text text-anchor="start" x="425.5" y="-563" font-family="Helvetica,sans-Serif" font-size="10.00">tlz::args_list::has</text>
<text text-anchor="middle" x="463.5" y="-552" font-family="Helvetica,sans-Serif" font-size="10.00">_next_arg</text>
</a>
</g>
</g>
<!-- Node23&#45;&gt;Node24 -->
<g id="edge34" class="edge"><title>Node23&#45;&gt;Node24</title>
<path fill="none" stroke="midnightblue" d="M368.604,-573.242C381.349,-571.444 394.685,-569.564 407.173,-567.803"/>
<polygon fill="midnightblue" stroke="midnightblue" points="408.017,-571.218 417.431,-566.356 407.04,-564.287 408.017,-571.218"/>
</g>
<!-- Node25 -->
<g id="node25" class="node"><title>Node25</title>
<g id="a_node25"><a xlink:href="classtlz_1_1args__list.html#ae7c07d1c8f24c2aa4fe0ba68ec45d353" target="_top" xlink:title="tlz::args_list::next\l_arg_is">
<polygon fill="white" stroke="black" points="675,-466 675,-496 770,-496 770,-466 675,-466"/>
<text text-anchor="start" x="683" y="-484" font-family="Helvetica,sans-Serif" font-size="10.00">tlz::args_list::next</text>
<text text-anchor="middle" x="722.5" y="-473" font-family="Helvetica,sans-Serif" font-size="10.00">_arg_is</text>
</a>
</g>
</g>
<!-- Node23&#45;&gt;Node25 -->
<g id="edge35" class="edge"><title>Node23&#45;&gt;Node25</title>
<path fill="none" stroke="midnightblue" d="M318.012,-572.298C336.219,-557.557 373.366,-529.873 410,-517 495.264,-487.039 600.935,-480.797 664.693,-480.111"/>
<polygon fill="midnightblue" stroke="midnightblue" points="664.963,-483.61 674.94,-480.045 664.918,-476.61 664.963,-483.61"/>
</g>
<!-- Node25&#45;&gt;Node8 -->
<g id="edge36" class="edge"><title>Node25&#45;&gt;Node8</title>
<path fill="none" stroke="midnightblue" d="M770.294,-494.681C789.84,-500.395 812.389,-506.988 831.459,-512.563"/>
<polygon fill="midnightblue" stroke="midnightblue" points="830.499,-515.929 841.08,-515.375 832.464,-509.21 830.499,-515.929"/>
</g>
<!-- Node25&#45;&gt;Node9 -->
<g id="edge37" class="edge"><title>Node25&#45;&gt;Node9</title>
<path fill="none" stroke="midnightblue" d="M770.294,-481C788.991,-481 810.437,-481 828.956,-481"/>
<polygon fill="midnightblue" stroke="midnightblue" points="829.192,-484.5 839.192,-481 829.192,-477.5 829.192,-484.5"/>
</g>
<!-- Node29&#45;&gt;Node9 -->
<g id="edge44" class="edge"><title>Node29&#45;&gt;Node9</title>
<path fill="none" stroke="midnightblue" d="M197.272,-424.231C262.145,-429.545 369.685,-437 462.5,-437 462.5,-437 462.5,-437 592.5,-437 675.864,-437 696.94,-442.31 779,-457 796.195,-460.078 814.881,-464.549 831.095,-468.799"/>
<polygon fill="midnightblue" stroke="midnightblue" points="830.271,-472.201 840.836,-471.402 832.079,-465.439 830.271,-472.201"/>
</g>
<!-- Node30 -->
<g id="node30" class="node"><title>Node30</title>
<g id="a_node30"><a xlink:href="structtlz_1_1view__index.html#a20518c30015d833cdb2a69b524886b96" target="_top" xlink:title="tlz::view_index::is_2d">
<polygon fill="white" stroke="black" points="250,-389.5 250,-408.5 361,-408.5 361,-389.5 250,-389.5"/>
<text text-anchor="middle" x="305.5" y="-396.5" font-family="Helvetica,sans-Serif" font-size="10.00">tlz::view_index::is_2d</text>
</a>
</g>
</g>
<!-- Node29&#45;&gt;Node30 -->
<g id="edge45" class="edge"><title>Node29&#45;&gt;Node30</title>
<path fill="none" stroke="midnightblue" d="M197.025,-411.949C210.846,-410.284 225.661,-408.499 239.74,-406.802"/>
<polygon fill="midnightblue" stroke="midnightblue" points="240.327,-410.257 249.836,-405.586 239.489,-403.307 240.327,-410.257"/>
</g>
<!-- Node36 -->
<g id="node36" class="node"><title>Node36</title>
<g id="a_node36"><a xlink:href="namespacetlz.html#a643b2d03bd805fe78dcd684ef45e52fb" target="_top" xlink:title="Clamp value between minimum and maximum value. ">
<polygon fill="white" stroke="black" points="276,-164.5 276,-183.5 335,-183.5 335,-164.5 276,-164.5"/>
<text text-anchor="middle" x="305.5" y="-171.5" font-family="Helvetica,sans-Serif" font-size="10.00">tlz::clamp</text>
</a>
</g>
</g>
<!-- Node35&#45;&gt;Node36 -->
<g id="edge51" class="edge"><title>Node35&#45;&gt;Node36</title>
<path fill="none" stroke="midnightblue" d="M159.524,-174C186.132,-174 232.484,-174 265.616,-174"/>
<polygon fill="midnightblue" stroke="midnightblue" points="265.866,-177.5 275.866,-174 265.866,-170.5 265.866,-177.5"/>
</g>
<!-- Node37 -->
<g id="node37" class="node"><title>Node37</title>
<g id="a_node37"><a xlink:href="namespacetlz.html#a4fe5757a830e199f84d229eee11f616e" target="_top" xlink:title="Compute greatest common divisor of a and b. ">
<polygon fill="white" stroke="black" points="281,-126.5 281,-145.5 330,-145.5 330,-126.5 281,-126.5"/>
<text text-anchor="middle" x="305.5" y="-133.5" font-family="Helvetica,sans-Serif" font-size="10.00">tlz::gcd</text>
</a>
</g>
</g>
<!-- Node35&#45;&gt;Node37 -->
<g id="edge52" class="edge"><title>Node35&#45;&gt;Node37</title>
<path fill="none" stroke="midnightblue" d="M159.524,-169.187C187.671,-162.744 237.91,-151.244 271.223,-143.618"/>
<polygon fill="midnightblue" stroke="midnightblue" points="272.008,-147.029 280.975,-141.385 270.446,-140.205 272.008,-147.029"/>
</g>
<!-- Node38 -->
<g id="node38" class="node"><title>Node38</title>
<g id="a_node38"><a xlink:href="namespacetlz.html#aec6e2158ce198aa20a8493fde3d3b552" target="_top" xlink:title="Compute least common multiple of a and b. ">
<polygon fill="white" stroke="black" points="281,-202.5 281,-221.5 330,-221.5 330,-202.5 281,-202.5"/>
<text text-anchor="middle" x="305.5" y="-209.5" font-family="Helvetica,sans-Serif" font-size="10.00">tlz::lcm</text>
</a>
</g>
</g>
<!-- Node35&#45;&gt;Node38 -->
<g id="edge53" class="edge"><title>Node35&#45;&gt;Node38</title>
<path fill="none" stroke="midnightblue" d="M159.524,-178.813C187.671,-185.256 237.91,-196.756 271.223,-204.382"/>
<polygon fill="midnightblue" stroke="midnightblue" points="270.446,-207.795 280.975,-206.615 272.008,-200.971 270.446,-207.795"/>
</g>
<!-- Node42 -->
<g id="node42" class="node"><title>Node42</title>
<g id="a_node42"><a xlink:href="classtlz_1_1dataset.html#ab14f5b1f18c0ab423c18270b7ca46bd2" target="_top" xlink:title="tlz::dataset::parameters">
<polygon fill="white" stroke="black" points="245.5,-44.5 245.5,-63.5 365.5,-63.5 365.5,-44.5 245.5,-44.5"/>
<text text-anchor="middle" x="305.5" y="-51.5" font-family="Helvetica,sans-Serif" font-size="10.00">tlz::dataset::parameters</text>
</a>
</g>
</g>
<!-- Node41&#45;&gt;Node42 -->
<g id="edge57" class="edge"><title>Node41&#45;&gt;Node42</title>
<path fill="none" stroke="midnightblue" d="M186.069,-54C201.381,-54 218.675,-54 235.22,-54"/>
<polygon fill="midnightblue" stroke="midnightblue" points="235.4,-57.5001 245.4,-54 235.4,-50.5001 235.4,-57.5001"/>
</g>
</g>
</svg>
