<?xml version="1.0" encoding="UTF-8" standalone="no"?>
<!DOCTYPE svg PUBLIC "-//W3C//DTD SVG 1.1//EN"
 "http://www.w3.org/Graphics/SVG/1.1/DTD/svg11.dtd">
<!-- Generated by graphviz version 2.38.0 (20140413.2041)
 -->
<!-- Title: estimate_xy_rotation Pages: 1 -->
<svg width="232pt" height="104pt"
 viewBox="0.00 0.00 232.00 104.00" xmlns="http://www.w3.org/2000/svg" xmlns:xlink="http://www.w3.org/1999/xlink">
<g id="graph0" class="graph" transform="scale(1 1) rotate(0) translate(4 100)">
<title>estimate_xy_rotation</title>
<polygon fill="white" stroke="none" points="-4,4 -4,-100 228,-100 228,4 -4,4"/>
<!-- Node1 -->
<g id="node1" class="node"><title>Node1</title>
<polygon fill="#bfbfbf" stroke="black" points="0,-38.5 0,-57.5 107,-57.5 107,-38.5 0,-38.5"/>
<text text-anchor="middle" x="53.5" y="-45.5" font-family="Helvetica,sans-Serif" font-size="10.00">estimate_xy_rotation</text>
</g>
<!-- Node2 -->
<g id="node2" class="node"><title>Node2</title>
<g id="a_node2"><a xlink:href="namespacetlz.html#a029afc2252e5ecc8a0f98a571aa33a0a" target="_top" xlink:title="tlz::to_eigen">
<polygon fill="white" stroke="black" points="148.5,-76.5 148.5,-95.5 218.5,-95.5 218.5,-76.5 148.5,-76.5"/>
<text text-anchor="middle" x="183.5" y="-83.5" font-family="Helvetica,sans-Serif" font-size="10.00">tlz::to_eigen</text>
</a>
</g>
</g>
<!-- Node1&#45;&gt;Node2 -->
<g id="edge1" class="edge"><title>Node1&#45;&gt;Node2</title>
<path fill="none" stroke="midnightblue" d="M86.7998,-57.589C103.02,-62.4044 122.875,-68.2988 140.287,-73.468"/>
<polygon fill="midnightblue" stroke="midnightblue" points="139.628,-76.9233 150.211,-76.4141 141.62,-70.2127 139.628,-76.9233"/>
</g>
<!-- Node3 -->
<g id="node3" class="node"><title>Node3</title>
<g id="a_node3"><a xlink:href="cg__rotation__from__depths_8cc.html#a5b57319a2fb3750b839043a88dfee1c5" target="_top" xlink:title="null_vec3">
<polygon fill="white" stroke="black" points="154.5,-38.5 154.5,-57.5 212.5,-57.5 212.5,-38.5 154.5,-38.5"/>
<text text-anchor="middle" x="183.5" y="-45.5" font-family="Helvetica,sans-Serif" font-size="10.00">null_vec3</text>
</a>
</g>
</g>
<!-- Node1&#45;&gt;Node3 -->
<g id="edge2" class="edge"><title>Node1&#45;&gt;Node3</title>
<path fill="none" stroke="midnightblue" d="M107.301,-48C119.639,-48 132.55,-48 144.122,-48"/>
<polygon fill="midnightblue" stroke="midnightblue" points="144.318,-51.5001 154.318,-48 144.318,-44.5001 144.318,-51.5001"/>
</g>
<!-- Node4 -->
<g id="node4" class="node"><title>Node4</title>
<g id="a_node4"><a xlink:href="namespacetlz.html#ab9c83b575db6f56c83d8d1cb6309c0bc" target="_top" xlink:title="tlz::from_eigen">
<polygon fill="white" stroke="black" points="143,-0.5 143,-19.5 224,-19.5 224,-0.5 143,-0.5"/>
<text text-anchor="middle" x="183.5" y="-7.5" font-family="Helvetica,sans-Serif" font-size="10.00">tlz::from_eigen</text>
</a>
</g>
</g>
<!-- Node1&#45;&gt;Node4 -->
<g id="edge3" class="edge"><title>Node1&#45;&gt;Node4</title>
<path fill="none" stroke="midnightblue" d="M86.7998,-38.411C103.02,-33.5956 122.875,-27.7012 140.287,-22.532"/>
<polygon fill="midnightblue" stroke="midnightblue" points="141.62,-25.7873 150.211,-19.5859 139.628,-19.0767 141.62,-25.7873"/>
</g>
</g>
</svg>
