<?xml version="1.0" encoding="UTF-8" standalone="no"?>
<!DOCTYPE svg PUBLIC "-//W3C//DTD SVG 1.1//EN"
 "http://www.w3.org/Graphics/SVG/1.1/DTD/svg11.dtd">
<!-- Generated by graphviz version 2.38.0 (20140413.2041)
 -->
<!-- Title: estimate_xy_rotation Pages: 1 -->
<svg width="243pt" height="66pt"
 viewBox="0.00 0.00 243.00 66.00" xmlns="http://www.w3.org/2000/svg" xmlns:xlink="http://www.w3.org/1999/xlink">
<g id="graph0" class="graph" transform="scale(1 1) rotate(0) translate(4 62)">
<title>estimate_xy_rotation</title>
<polygon fill="white" stroke="none" points="-4,4 -4,-62 239,-62 239,4 -4,4"/>
<!-- Node1 -->
<g id="node1" class="node"><title>Node1</title>
<polygon fill="#bfbfbf" stroke="black" points="0,-19.5 0,-38.5 107,-38.5 107,-19.5 0,-19.5"/>
<text text-anchor="middle" x="53.5" y="-26.5" font-family="Helvetica,sans-Serif" font-size="10.00">estimate_xy_rotation</text>
</g>
<!-- Node2 -->
<g id="node2" class="node"><title>Node2</title>
<g id="a_node2"><a xlink:href="namespacetlz.html#ade8defb32aafaf166c303f8a816c482c" target="_top" xlink:title="tlz::to_eigen_mat">
<polygon fill="white" stroke="black" points="143,-38.5 143,-57.5 235,-57.5 235,-38.5 143,-38.5"/>
<text text-anchor="middle" x="189" y="-45.5" font-family="Helvetica,sans-Serif" font-size="10.00">tlz::to_eigen_mat</text>
</a>
</g>
</g>
<!-- Node1&#45;&gt;Node2 -->
<g id="edge1" class="edge"><title>Node1&#45;&gt;Node2</title>
<path fill="none" stroke="midnightblue" d="M107.263,-36.5093C115.657,-37.7039 124.36,-38.9426 132.808,-40.1449"/>
<polygon fill="midnightblue" stroke="midnightblue" points="132.555,-43.6441 142.948,-41.5882 133.541,-36.714 132.555,-43.6441"/>
</g>
<!-- Node3 -->
<g id="node3" class="node"><title>Node3</title>
<g id="a_node3"><a xlink:href="cg__rotation__from__depths_8cc.html#a5b57319a2fb3750b839043a88dfee1c5" target="_top" xlink:title="null_vec3">
<polygon fill="white" stroke="black" points="160,-0.5 160,-19.5 218,-19.5 218,-0.5 160,-0.5"/>
<text text-anchor="middle" x="189" y="-7.5" font-family="Helvetica,sans-Serif" font-size="10.00">null_vec3</text>
</a>
</g>
</g>
<!-- Node1&#45;&gt;Node3 -->
<g id="edge2" class="edge"><title>Node1&#45;&gt;Node3</title>
<path fill="none" stroke="midnightblue" d="M107.263,-21.4907C121.41,-19.4773 136.435,-17.3389 149.638,-15.4598"/>
<polygon fill="midnightblue" stroke="midnightblue" points="150.378,-18.8898 159.785,-14.0156 149.392,-11.9596 150.378,-18.8898"/>
</g>
</g>
</svg>
