<?xml version="1.0" encoding="UTF-8" standalone="no"?>
<!DOCTYPE svg PUBLIC "-//W3C//DTD SVG 1.1//EN"
 "http://www.w3.org/Graphics/SVG/1.1/DTD/svg11.dtd">
<!-- Generated by graphviz version 2.38.0 (20140413.2041)
 -->
<!-- Title: main Pages: 1 -->
<svg width="648pt" height="1553pt"
 viewBox="0.00 0.00 648.00 1553.00" xmlns="http://www.w3.org/2000/svg" xmlns:xlink="http://www.w3.org/1999/xlink">
<g id="graph0" class="graph" transform="scale(1 1) rotate(0) translate(4 1549)">
<title>main</title>
<polygon fill="white" stroke="none" points="-4,4 -4,-1549 644,-1549 644,4 -4,4"/>
<!-- Node1 -->
<g id="node1" class="node"><title>Node1</title>
<polygon fill="#bfbfbf" stroke="black" points="0,-729.5 0,-748.5 38,-748.5 38,-729.5 0,-729.5"/>
<text text-anchor="middle" x="19" y="-736.5" font-family="Helvetica,sans-Serif" font-size="10.00">main</text>
</g>
<!-- Node2 -->
<g id="node2" class="node"><title>Node2</title>
<g id="a_node2"><a xlink:href="namespacetlz.html#a3c03f5d9d6261ec2909938822fc47f8a" target="_top" xlink:title="tlz::get_args">
<polygon fill="white" stroke="black" points="117.5,-1525.5 117.5,-1544.5 188.5,-1544.5 188.5,-1525.5 117.5,-1525.5"/>
<text text-anchor="middle" x="153" y="-1532.5" font-family="Helvetica,sans-Serif" font-size="10.00">tlz::get_args</text>
</a>
</g>
</g>
<!-- Node1&#45;&gt;Node2 -->
<g id="edge1" class="edge"><title>Node1&#45;&gt;Node2</title>
<path fill="none" stroke="midnightblue" d="M20.0251,-748.716C20.3282,-833.652 24.2385,-1448.33 74,-1511 82.1335,-1521.24 94.5447,-1527.22 107.091,-1530.68"/>
<polygon fill="midnightblue" stroke="midnightblue" points="106.576,-1534.15 117.102,-1532.94 108.12,-1527.32 106.576,-1534.15"/>
</g>
<!-- Node3 -->
<g id="node3" class="node"><title>Node3</title>
<g id="a_node3"><a xlink:href="namespacetlz.html#a91f1aec7120c97452c495ee447e56b57" target="_top" xlink:title="tlz::dataset_arg">
<polygon fill="white" stroke="black" points="111,-1373.5 111,-1392.5 195,-1392.5 195,-1373.5 111,-1373.5"/>
<text text-anchor="middle" x="153" y="-1380.5" font-family="Helvetica,sans-Serif" font-size="10.00">tlz::dataset_arg</text>
</a>
</g>
</g>
<!-- Node1&#45;&gt;Node3 -->
<g id="edge2" class="edge"><title>Node1&#45;&gt;Node3</title>
<path fill="none" stroke="midnightblue" d="M20.1712,-748.955C21.5708,-825.221 32.1624,-1315.23 74,-1364 80.9457,-1372.1 90.7105,-1377.05 100.988,-1380.02"/>
<polygon fill="midnightblue" stroke="midnightblue" points="100.394,-1383.47 110.923,-1382.29 101.955,-1376.65 100.394,-1383.47"/>
</g>
<!-- Node7 -->
<g id="node7" class="node"><title>Node7</title>
<g id="a_node7"><a xlink:href="namespacetlz.html#abb019466ea9f56c0dab27e893d891837" target="_top" xlink:title="tlz::file_exists">
<polygon fill="white" stroke="black" points="475,-1468.5 475,-1487.5 552,-1487.5 552,-1468.5 475,-1468.5"/>
<text text-anchor="middle" x="513.5" y="-1475.5" font-family="Helvetica,sans-Serif" font-size="10.00">tlz::file_exists</text>
</a>
</g>
</g>
<!-- Node1&#45;&gt;Node7 -->
<g id="edge50" class="edge"><title>Node1&#45;&gt;Node7</title>
<path fill="none" stroke="midnightblue" d="M20.0505,-748.605C20.5598,-828.83 25.8246,-1385.86 74,-1440 174.895,-1553.4 383.216,-1513.7 471.512,-1490.21"/>
<polygon fill="midnightblue" stroke="midnightblue" points="472.695,-1493.52 481.421,-1487.51 470.853,-1486.76 472.695,-1493.52"/>
</g>
<!-- Node8 -->
<g id="node8" class="node"><title>Node8</title>
<g id="a_node8"><a xlink:href="namespacetlz.html#a11d8bb3ca89f4957bfde1cd0d5429a16" target="_top" xlink:title="tlz::image_correspondences_arg">
<polygon fill="white" stroke="black" points="74,-1411.5 74,-1430.5 232,-1430.5 232,-1411.5 74,-1411.5"/>
<text text-anchor="middle" x="153" y="-1418.5" font-family="Helvetica,sans-Serif" font-size="10.00">tlz::image_correspondences_arg</text>
</a>
</g>
</g>
<!-- Node1&#45;&gt;Node8 -->
<g id="edge8" class="edge"><title>Node1&#45;&gt;Node8</title>
<path fill="none" stroke="midnightblue" d="M20.1141,-748.554C21.1241,-826.037 29.5768,-1349.96 74,-1402 75.018,-1403.19 76.0971,-1404.32 77.2301,-1405.38"/>
<polygon fill="midnightblue" stroke="midnightblue" points="75.3019,-1408.31 85.4109,-1411.48 79.4862,-1402.69 75.3019,-1408.31"/>
</g>
<!-- Node10 -->
<g id="node10" class="node"><title>Node10</title>
<g id="a_node10"><a xlink:href="namespacetlz.html#a5186c46291b525427b48828632f7adec" target="_top" xlink:title="tlz::bool_opt_arg">
<polygon fill="white" stroke="black" points="108.5,-1209.5 108.5,-1228.5 197.5,-1228.5 197.5,-1209.5 108.5,-1209.5"/>
<text text-anchor="middle" x="153" y="-1216.5" font-family="Helvetica,sans-Serif" font-size="10.00">tlz::bool_opt_arg</text>
</a>
</g>
</g>
<!-- Node1&#45;&gt;Node10 -->
<g id="edge11" class="edge"><title>Node1&#45;&gt;Node10</title>
<path fill="none" stroke="midnightblue" d="M19.7653,-748.783C18.5296,-808.54 14.902,-1124.13 74,-1195 80.4652,-1202.75 89.3737,-1208.05 98.8646,-1211.66"/>
<polygon fill="midnightblue" stroke="midnightblue" points="97.8899,-1215.02 108.481,-1214.73 100.02,-1208.35 97.8899,-1215.02"/>
</g>
<!-- Node14 -->
<g id="node14" class="node"><title>Node14</title>
<g id="a_node14"><a xlink:href="namespacetlz.html#a8d3380a8873e542207e21a4384957425" target="_top" xlink:title="tlz::string_opt_arg">
<polygon fill="white" stroke="black" points="105.5,-1335.5 105.5,-1354.5 200.5,-1354.5 200.5,-1335.5 105.5,-1335.5"/>
<text text-anchor="middle" x="153" y="-1342.5" font-family="Helvetica,sans-Serif" font-size="10.00">tlz::string_opt_arg</text>
</a>
</g>
</g>
<!-- Node1&#45;&gt;Node14 -->
<g id="edge18" class="edge"><title>Node1&#45;&gt;Node14</title>
<path fill="none" stroke="midnightblue" d="M20.3739,-748.849C22.8172,-810.499 37.5562,-1143.72 74,-1238 87.8408,-1273.81 116.815,-1308.43 135.289,-1328.18"/>
<polygon fill="midnightblue" stroke="midnightblue" points="132.816,-1330.65 142.26,-1335.45 137.871,-1325.81 132.816,-1330.65"/>
</g>
<!-- Node15 -->
<g id="node15" class="node"><title>Node15</title>
<g id="a_node15"><a xlink:href="classtlz_1_1dataset.html#ad7d438f87e20fd0a734aabff2e6d52a9" target="_top" xlink:title="tlz::dataset::group">
<polygon fill="white" stroke="black" points="105.5,-1083.5 105.5,-1102.5 200.5,-1102.5 200.5,-1083.5 105.5,-1083.5"/>
<text text-anchor="middle" x="153" y="-1090.5" font-family="Helvetica,sans-Serif" font-size="10.00">tlz::dataset::group</text>
</a>
</g>
</g>
<!-- Node1&#45;&gt;Node15 -->
<g id="edge23" class="edge"><title>Node1&#45;&gt;Node15</title>
<path fill="none" stroke="midnightblue" d="M20.168,-748.701C21.2294,-798.479 28.5273,-1024.78 74,-1074 79.8462,-1080.33 87.4166,-1084.71 95.5378,-1087.71"/>
<polygon fill="midnightblue" stroke="midnightblue" points="94.6695,-1091.11 105.254,-1090.64 96.6893,-1084.4 94.6695,-1091.11"/>
</g>
<!-- Node18 -->
<g id="node18" class="node"><title>Node18</title>
<g id="a_node18"><a xlink:href="classtlz_1_1dataset__group.html#a782b8049db0faa9ecfd0f7b0d6f31766" target="_top" xlink:title="tlz::dataset_group\l::image_size_with_border">
<polygon fill="white" stroke="black" points="89,-1122 89,-1152 217,-1152 217,-1122 89,-1122"/>
<text text-anchor="start" x="97" y="-1140" font-family="Helvetica,sans-Serif" font-size="10.00">tlz::dataset_group</text>
<text text-anchor="middle" x="153" y="-1129" font-family="Helvetica,sans-Serif" font-size="10.00">::image_size_with_border</text>
</a>
</g>
</g>
<!-- Node1&#45;&gt;Node18 -->
<g id="edge26" class="edge"><title>Node1&#45;&gt;Node18</title>
<path fill="none" stroke="midnightblue" d="M20.0605,-748.664C20.5826,-801.466 25.6094,-1054.8 74,-1112 75.9374,-1114.29 78.0851,-1116.37 80.3953,-1118.27"/>
<polygon fill="midnightblue" stroke="midnightblue" points="78.5729,-1121.26 88.8065,-1124 82.517,-1115.48 78.5729,-1121.26"/>
</g>
<!-- Node20 -->
<g id="node20" class="node"><title>Node20</title>
<g id="a_node20"><a xlink:href="classtlz_1_1dataset__group.html#a1b2ebd9009b660773532e42691dc301e" target="_top" xlink:title="tlz::dataset_group\l::image_border">
<polygon fill="white" stroke="red" points="306,-1122 306,-1152 401,-1152 401,-1122 306,-1122"/>
<text text-anchor="start" x="314" y="-1140" font-family="Helvetica,sans-Serif" font-size="10.00">tlz::dataset_group</text>
<text text-anchor="middle" x="353.5" y="-1129" font-family="Helvetica,sans-Serif" font-size="10.00">::image_border</text>
</a>
</g>
</g>
<!-- Node1&#45;&gt;Node20 -->
<g id="edge56" class="edge"><title>Node1&#45;&gt;Node20</title>
<path fill="none" stroke="midnightblue" d="M20.4851,-748.708C23.6077,-809.274 41.7721,-1133.62 74,-1162 140.612,-1220.65 254.12,-1182.78 313.569,-1156.34"/>
<polygon fill="midnightblue" stroke="midnightblue" points="315.332,-1159.38 322.978,-1152.05 312.427,-1153.01 315.332,-1159.38"/>
</g>
<!-- Node22 -->
<g id="node22" class="node"><title>Node22</title>
<g id="a_node22"><a xlink:href="namespacetlz.html#adeaba792165d6750fff2c8a9b692d10b" target="_top" xlink:title="tlz::get_feature_names">
<polygon fill="white" stroke="black" points="95,-1045.5 95,-1064.5 211,-1064.5 211,-1045.5 95,-1045.5"/>
<text text-anchor="middle" x="153" y="-1052.5" font-family="Helvetica,sans-Serif" font-size="10.00">tlz::get_feature_names</text>
</a>
</g>
</g>
<!-- Node1&#45;&gt;Node22 -->
<g id="edge31" class="edge"><title>Node1&#45;&gt;Node22</title>
<path fill="none" stroke="midnightblue" d="M20.3774,-748.505C22.3943,-794.431 33.3797,-992.906 74,-1036 77.4057,-1039.61 81.3741,-1042.59 85.6826,-1045.03"/>
<polygon fill="midnightblue" stroke="midnightblue" points="84.3899,-1048.29 94.9326,-1049.34 87.3459,-1041.95 84.3899,-1048.29"/>
</g>
<!-- Node23 -->
<g id="node23" class="node"><title>Node23</title>
<g id="a_node23"><a xlink:href="classtlz_1_1viewer.html#a2bf9d63d7a1a5ec4d5bdabc13d9ab688" target="_top" xlink:title="tlz::viewer::add_int\l_slider">
<polygon fill="white" stroke="black" points="103.5,-996 103.5,-1026 202.5,-1026 202.5,-996 103.5,-996"/>
<text text-anchor="start" x="111.5" y="-1014" font-family="Helvetica,sans-Serif" font-size="10.00">tlz::viewer::add_int</text>
<text text-anchor="middle" x="153" y="-1003" font-family="Helvetica,sans-Serif" font-size="10.00">_slider</text>
</a>
</g>
</g>
<!-- Node1&#45;&gt;Node23 -->
<g id="edge32" class="edge"><title>Node1&#45;&gt;Node23</title>
<path fill="none" stroke="midnightblue" d="M20.8444,-748.726C24.6099,-789.959 41.1472,-949.87 74,-986 79.4486,-991.992 86.3334,-996.555 93.7457,-1000.03"/>
<polygon fill="midnightblue" stroke="midnightblue" points="92.7638,-1003.41 103.348,-1003.87 95.3645,-996.907 92.7638,-1003.41"/>
</g>
<!-- Node24 -->
<g id="node24" class="node"><title>Node24</title>
<g id="a_node24"><a xlink:href="classtlz_1_1dataset.html#acff1e030f5c941654ea16f8061f49346" target="_top" xlink:title="tlz::dataset::x_mid">
<polygon fill="white" stroke="black" points="104,-957.5 104,-976.5 202,-976.5 202,-957.5 104,-957.5"/>
<text text-anchor="middle" x="153" y="-964.5" font-family="Helvetica,sans-Serif" font-size="10.00">tlz::dataset::x_mid</text>
</a>
</g>
</g>
<!-- Node1&#45;&gt;Node24 -->
<g id="edge33" class="edge"><title>Node1&#45;&gt;Node24</title>
<path fill="none" stroke="midnightblue" d="M21.162,-748.519C25.8645,-785.507 44.6483,-919.054 74,-948 79.6518,-953.574 86.6495,-957.608 94.1144,-960.512"/>
<polygon fill="midnightblue" stroke="midnightblue" points="93.1622,-963.882 103.754,-963.616 95.308,-957.219 93.1622,-963.882"/>
</g>
<!-- Node25 -->
<g id="node25" class="node"><title>Node25</title>
<g id="a_node25"><a xlink:href="classtlz_1_1dataset.html#a15180d3b04937d9f1c69041a220b943b" target="_top" xlink:title="tlz::dataset::x_min">
<polygon fill="white" stroke="black" points="104,-919.5 104,-938.5 202,-938.5 202,-919.5 104,-919.5"/>
<text text-anchor="middle" x="153" y="-926.5" font-family="Helvetica,sans-Serif" font-size="10.00">tlz::dataset::x_min</text>
</a>
</g>
</g>
<!-- Node1&#45;&gt;Node25 -->
<g id="edge34" class="edge"><title>Node1&#45;&gt;Node25</title>
<path fill="none" stroke="midnightblue" d="M19.9716,-748.834C20.4485,-778.059 26.0219,-865.131 74,-910 79.7261,-915.355 86.7016,-919.274 94.1011,-922.13"/>
<polygon fill="midnightblue" stroke="midnightblue" points="93.0468,-925.467 103.638,-925.206 95.1957,-918.805 93.0468,-925.467"/>
</g>
<!-- Node26 -->
<g id="node26" class="node"><title>Node26</title>
<g id="a_node26"><a xlink:href="classtlz_1_1dataset.html#a280e3ae6c4b37e1e18fabf00b70be20a" target="_top" xlink:title="tlz::dataset::x_max">
<polygon fill="white" stroke="black" points="102.5,-881.5 102.5,-900.5 203.5,-900.5 203.5,-881.5 102.5,-881.5"/>
<text text-anchor="middle" x="153" y="-888.5" font-family="Helvetica,sans-Serif" font-size="10.00">tlz::dataset::x_max</text>
</a>
</g>
</g>
<!-- Node1&#45;&gt;Node26 -->
<g id="edge35" class="edge"><title>Node1&#45;&gt;Node26</title>
<path fill="none" stroke="midnightblue" d="M20.9707,-748.758C23.9627,-773.414 35.3245,-838.621 74,-872 79.5131,-876.758 86.025,-880.365 92.8983,-883.094"/>
<polygon fill="midnightblue" stroke="midnightblue" points="91.8413,-886.431 102.435,-886.294 94.0685,-879.794 91.8413,-886.431"/>
</g>
<!-- Node27 -->
<g id="node27" class="node"><title>Node27</title>
<g id="a_node27"><a xlink:href="classtlz_1_1dataset.html#a7efef5473f244709a47ff506267652b1" target="_top" xlink:title="tlz::dataset::x_step">
<polygon fill="white" stroke="black" points="102.5,-843.5 102.5,-862.5 203.5,-862.5 203.5,-843.5 102.5,-843.5"/>
<text text-anchor="middle" x="153" y="-850.5" font-family="Helvetica,sans-Serif" font-size="10.00">tlz::dataset::x_step</text>
</a>
</g>
</g>
<!-- Node1&#45;&gt;Node27 -->
<g id="edge36" class="edge"><title>Node1&#45;&gt;Node27</title>
<path fill="none" stroke="midnightblue" d="M22.6171,-748.518C28.4329,-767.814 44.3184,-811.603 74,-834 79.5315,-838.174 85.8565,-841.443 92.4581,-844.002"/>
<polygon fill="midnightblue" stroke="midnightblue" points="91.6745,-847.43 102.268,-847.265 93.8838,-840.788 91.6745,-847.43"/>
</g>
<!-- Node28 -->
<g id="node28" class="node"><title>Node28</title>
<g id="a_node28"><a xlink:href="classtlz_1_1dataset.html#a1183ab5dd7eab8ff6478d9105dc5da19" target="_top" xlink:title="tlz::dataset::y_mid">
<polygon fill="white" stroke="black" points="104,-805.5 104,-824.5 202,-824.5 202,-805.5 104,-805.5"/>
<text text-anchor="middle" x="153" y="-812.5" font-family="Helvetica,sans-Serif" font-size="10.00">tlz::dataset::y_mid</text>
</a>
</g>
</g>
<!-- Node1&#45;&gt;Node28 -->
<g id="edge37" class="edge"><title>Node1&#45;&gt;Node28</title>
<path fill="none" stroke="midnightblue" d="M26.4447,-748.693C35.5064,-761.534 53.2478,-783.961 74,-796 80.2163,-799.606 87.0928,-802.531 94.1114,-804.901"/>
<polygon fill="midnightblue" stroke="midnightblue" points="93.1367,-808.263 103.722,-807.803 95.1602,-801.562 93.1367,-808.263"/>
</g>
<!-- Node29 -->
<g id="node29" class="node"><title>Node29</title>
<g id="a_node29"><a xlink:href="classtlz_1_1dataset.html#a3a77e1219653f07bef6ec7b08cbf7dcf" target="_top" xlink:title="tlz::dataset::y_min">
<polygon fill="white" stroke="black" points="104,-767.5 104,-786.5 202,-786.5 202,-767.5 104,-767.5"/>
<text text-anchor="middle" x="153" y="-774.5" font-family="Helvetica,sans-Serif" font-size="10.00">tlz::dataset::y_min</text>
</a>
</g>
</g>
<!-- Node1&#45;&gt;Node29 -->
<g id="edge38" class="edge"><title>Node1&#45;&gt;Node29</title>
<path fill="none" stroke="midnightblue" d="M38.3459,-745.965C48.7266,-749.777 61.9956,-754.436 74,-758 82.1628,-760.424 90.8718,-762.773 99.4015,-764.945"/>
<polygon fill="midnightblue" stroke="midnightblue" points="98.7393,-768.387 109.289,-767.407 100.431,-761.594 98.7393,-768.387"/>
</g>
<!-- Node30 -->
<g id="node30" class="node"><title>Node30</title>
<g id="a_node30"><a xlink:href="classtlz_1_1dataset.html#a6900b6a88a2ac1e23d1a51da20f650e4" target="_top" xlink:title="tlz::dataset::y_max">
<polygon fill="white" stroke="black" points="102.5,-729.5 102.5,-748.5 203.5,-748.5 203.5,-729.5 102.5,-729.5"/>
<text text-anchor="middle" x="153" y="-736.5" font-family="Helvetica,sans-Serif" font-size="10.00">tlz::dataset::y_max</text>
</a>
</g>
</g>
<!-- Node1&#45;&gt;Node30 -->
<g id="edge39" class="edge"><title>Node1&#45;&gt;Node30</title>
<path fill="none" stroke="midnightblue" d="M38.0773,-739C52.1471,-739 72.521,-739 92.1609,-739"/>
<polygon fill="midnightblue" stroke="midnightblue" points="92.3272,-742.5 102.327,-739 92.3271,-735.5 92.3272,-742.5"/>
</g>
<!-- Node31 -->
<g id="node31" class="node"><title>Node31</title>
<g id="a_node31"><a xlink:href="classtlz_1_1dataset.html#a95703f1285ba42a810d46644128daf9a" target="_top" xlink:title="tlz::dataset::y_step">
<polygon fill="white" stroke="black" points="102.5,-691.5 102.5,-710.5 203.5,-710.5 203.5,-691.5 102.5,-691.5"/>
<text text-anchor="middle" x="153" y="-698.5" font-family="Helvetica,sans-Serif" font-size="10.00">tlz::dataset::y_step</text>
</a>
</g>
</g>
<!-- Node1&#45;&gt;Node31 -->
<g id="edge40" class="edge"><title>Node1&#45;&gt;Node31</title>
<path fill="none" stroke="midnightblue" d="M38.3459,-732.035C48.7266,-728.223 61.9956,-723.564 74,-720 82.1628,-717.576 90.8718,-715.227 99.4015,-713.055"/>
<polygon fill="midnightblue" stroke="midnightblue" points="100.431,-716.406 109.289,-710.593 98.7393,-709.613 100.431,-716.406"/>
</g>
<!-- Node32 -->
<g id="node32" class="node"><title>Node32</title>
<g id="a_node32"><a xlink:href="classtlz_1_1viewer.html#a4be73d43a59e54ac622a45ecb042e351" target="_top" xlink:title="tlz::viewer::add_real\l_slider">
<polygon fill="white" stroke="black" points="101,-642 101,-672 205,-672 205,-642 101,-642"/>
<text text-anchor="start" x="109" y="-660" font-family="Helvetica,sans-Serif" font-size="10.00">tlz::viewer::add_real</text>
<text text-anchor="middle" x="153" y="-649" font-family="Helvetica,sans-Serif" font-size="10.00">_slider</text>
</a>
</g>
</g>
<!-- Node1&#45;&gt;Node32 -->
<g id="edge41" class="edge"><title>Node1&#45;&gt;Node32</title>
<path fill="none" stroke="midnightblue" d="M26.8914,-729.088C36.1899,-716.421 53.9204,-694.625 74,-682 79.3721,-678.622 85.2415,-675.662 91.2715,-673.078"/>
<polygon fill="midnightblue" stroke="midnightblue" points="92.8059,-676.235 100.831,-669.318 90.2438,-669.721 92.8059,-676.235"/>
</g>
<!-- Node33 -->
<g id="node33" class="node"><title>Node33</title>
<g id="a_node33"><a xlink:href="classtlz_1_1dataset.html#acef78cfe5bb77142cbd71e420f36e48b" target="_top" xlink:title="tlz::dataset::valid">
<polygon fill="white" stroke="black" points="107,-603.5 107,-622.5 199,-622.5 199,-603.5 107,-603.5"/>
<text text-anchor="middle" x="153" y="-610.5" font-family="Helvetica,sans-Serif" font-size="10.00">tlz::dataset::valid</text>
</a>
</g>
</g>
<!-- Node1&#45;&gt;Node33 -->
<g id="edge42" class="edge"><title>Node1&#45;&gt;Node33</title>
<path fill="none" stroke="midnightblue" d="M22.0681,-729.396C27.0847,-708.493 41.9212,-658.693 74,-633 80.7446,-627.598 88.7795,-623.639 97.0886,-620.74"/>
<polygon fill="midnightblue" stroke="midnightblue" points="98.3306,-624.022 106.908,-617.802 96.324,-617.316 98.3306,-624.022"/>
</g>
<!-- Node34 -->
<g id="node34" class="node"><title>Node34</title>
<g id="a_node34"><a xlink:href="classtlz_1_1viewer.html#a0ad9ee28b8127c63b2886b04fb36e3dc" target="_top" xlink:title="tlz::viewer::clear">
<polygon fill="white" stroke="black" points="108.5,-164.5 108.5,-183.5 197.5,-183.5 197.5,-164.5 108.5,-164.5"/>
<text text-anchor="middle" x="153" y="-171.5" font-family="Helvetica,sans-Serif" font-size="10.00">tlz::viewer::clear</text>
</a>
</g>
</g>
<!-- Node1&#45;&gt;Node34 -->
<g id="edge43" class="edge"><title>Node1&#45;&gt;Node34</title>
<path fill="none" stroke="midnightblue" d="M20.2896,-729.433C22.4751,-660.027 37.3012,-235.248 74,-193 80.3766,-185.659 89.0706,-180.908 98.3454,-177.881"/>
<polygon fill="midnightblue" stroke="midnightblue" points="99.361,-181.233 108.148,-175.314 97.5875,-174.461 99.361,-181.233"/>
</g>
<!-- Node37 -->
<g id="node37" class="node"><title>Node37</title>
<g id="a_node37"><a xlink:href="classtlz_1_1dataset__group.html#aa0c9157fd56b01adebcecdcdd98f9e3f" target="_top" xlink:title="tlz::dataset_group\l::view">
<polygon fill="white" stroke="red" points="105.5,-554 105.5,-584 200.5,-584 200.5,-554 105.5,-554"/>
<text text-anchor="start" x="113.5" y="-572" font-family="Helvetica,sans-Serif" font-size="10.00">tlz::dataset_group</text>
<text text-anchor="middle" x="153" y="-561" font-family="Helvetica,sans-Serif" font-size="10.00">::view</text>
</a>
</g>
</g>
<!-- Node1&#45;&gt;Node37 -->
<g id="edge46" class="edge"><title>Node1&#45;&gt;Node37</title>
<path fill="none" stroke="midnightblue" d="M20.7573,-729.317C23.297,-703.504 33.7806,-632.398 74,-594 80.2098,-588.071 87.829,-583.549 95.8474,-580.099"/>
<polygon fill="midnightblue" stroke="midnightblue" points="97.2498,-583.311 105.383,-576.521 94.7909,-576.757 97.2498,-583.311"/>
</g>
<!-- Node39 -->
<g id="node39" class="node"><title>Node39</title>
<g id="a_node39"><a xlink:href="classtlz_1_1dataset__view.html#af3c734eaed33af07993255db63d3fc54" target="_top" xlink:title="tlz::dataset_view::\limage_filename">
<polygon fill="white" stroke="red" points="104.5,-466 104.5,-496 201.5,-496 201.5,-466 104.5,-466"/>
<text text-anchor="start" x="112.5" y="-484" font-family="Helvetica,sans-Serif" font-size="10.00">tlz::dataset_view::</text>
<text text-anchor="middle" x="153" y="-473" font-family="Helvetica,sans-Serif" font-size="10.00">image_filename</text>
</a>
</g>
</g>
<!-- Node1&#45;&gt;Node39 -->
<g id="edge48" class="edge"><title>Node1&#45;&gt;Node39</title>
<path fill="none" stroke="midnightblue" d="M20.9806,-729.289C25.1779,-689.549 42.8495,-539.83 74,-506 79.7463,-499.759 87.0502,-495.07 94.8737,-491.547"/>
<polygon fill="midnightblue" stroke="midnightblue" points="96.1713,-494.798 104.234,-487.925 93.645,-488.27 96.1713,-494.798"/>
</g>
<!-- Node40 -->
<g id="node40" class="node"><title>Node40</title>
<g id="a_node40"><a xlink:href="classtlz_1_1dataset__view.html#a63238745feff55e3d0bea101589895c1" target="_top" xlink:title="tlz::dataset_view::\ldepth_filename">
<polygon fill="white" stroke="red" points="104.5,-417 104.5,-447 201.5,-447 201.5,-417 104.5,-417"/>
<text text-anchor="start" x="112.5" y="-435" font-family="Helvetica,sans-Serif" font-size="10.00">tlz::dataset_view::</text>
<text text-anchor="middle" x="153" y="-424" font-family="Helvetica,sans-Serif" font-size="10.00">depth_filename</text>
</a>
</g>
</g>
<!-- Node1&#45;&gt;Node40 -->
<g id="edge49" class="edge"><title>Node1&#45;&gt;Node40</title>
<path fill="none" stroke="midnightblue" d="M20.548,-729.443C23.2807,-685.005 36.8158,-498.978 74,-457 79.6928,-450.573 87.0388,-445.787 94.9416,-442.226"/>
<polygon fill="midnightblue" stroke="midnightblue" points="96.3332,-445.441 104.409,-438.582 93.819,-438.908 96.3332,-445.441"/>
</g>
<!-- Node41 -->
<g id="node41" class="node"><title>Node41</title>
<g id="a_node41"><a xlink:href="namespacetlz.html#a55912f12ae3521ac51a3d4ab3d75183a" target="_top" xlink:title="tlz::load_depth">
<polygon fill="white" stroke="black" points="113,-378.5 113,-397.5 193,-397.5 193,-378.5 113,-378.5"/>
<text text-anchor="middle" x="153" y="-385.5" font-family="Helvetica,sans-Serif" font-size="10.00">tlz::load_depth</text>
</a>
</g>
</g>
<!-- Node1&#45;&gt;Node41 -->
<g id="edge51" class="edge"><title>Node1&#45;&gt;Node41</title>
<path fill="none" stroke="midnightblue" d="M20.1969,-729.424C21.4024,-680.286 29.3044,-456.876 74,-408 81.5842,-399.707 92.0969,-394.65 102.951,-391.614"/>
<polygon fill="midnightblue" stroke="midnightblue" points="103.956,-394.975 112.941,-389.36 102.415,-388.147 103.956,-394.975"/>
</g>
<!-- Node42 -->
<g id="node42" class="node"><title>Node42</title>
<g id="a_node42"><a xlink:href="classtlz_1_1viewer.html#a6a59617413dc76948b6802399ddf555b" target="_top" xlink:title="tlz::viewer::visualize\l_depth">
<polygon fill="white" stroke="black" points="100,-329 100,-359 206,-359 206,-329 100,-329"/>
<text text-anchor="start" x="108" y="-347" font-family="Helvetica,sans-Serif" font-size="10.00">tlz::viewer::visualize</text>
<text text-anchor="middle" x="153" y="-336" font-family="Helvetica,sans-Serif" font-size="10.00">_depth</text>
</a>
</g>
</g>
<!-- Node1&#45;&gt;Node42 -->
<g id="edge52" class="edge"><title>Node1&#45;&gt;Node42</title>
<path fill="none" stroke="midnightblue" d="M20.0721,-729.414C20.6561,-677.033 25.958,-425.717 74,-369 78.5079,-363.678 84.1516,-359.478 90.3304,-356.165"/>
<polygon fill="midnightblue" stroke="midnightblue" points="92.0339,-359.235 99.696,-351.918 89.1431,-352.86 92.0339,-359.235"/>
</g>
<!-- Node43 -->
<g id="node43" class="node"><title>Node43</title>
<g id="a_node43"><a xlink:href="namespacetlz.html#ac822758bd15e79a45a9529097026c9bc" target="_top" xlink:title="tlz::random_color">
<polygon fill="white" stroke="black" points="107,-290.5 107,-309.5 199,-309.5 199,-290.5 107,-290.5"/>
<text text-anchor="middle" x="153" y="-297.5" font-family="Helvetica,sans-Serif" font-size="10.00">tlz::random_color</text>
</a>
</g>
</g>
<!-- Node1&#45;&gt;Node43 -->
<g id="edge53" class="edge"><title>Node1&#45;&gt;Node43</title>
<path fill="none" stroke="midnightblue" d="M19.819,-729.208C18.9673,-672.075 17.5059,-382.145 74,-319 80.1422,-312.135 88.312,-307.548 97.0531,-304.521"/>
<polygon fill="midnightblue" stroke="midnightblue" points="98.0118,-307.887 106.693,-301.814 96.1195,-301.147 98.0118,-307.887"/>
</g>
<!-- Node44 -->
<g id="node44" class="node"><title>Node44</title>
<g id="a_node44"><a xlink:href="namespacetlz.html#ae5932564ec9a5798fa5dbfdd1ed411a1" target="_top" xlink:title="tlz::string_hash">
<polygon fill="white" stroke="black" points="111.5,-252.5 111.5,-271.5 194.5,-271.5 194.5,-252.5 111.5,-252.5"/>
<text text-anchor="middle" x="153" y="-259.5" font-family="Helvetica,sans-Serif" font-size="10.00">tlz::string_hash</text>
</a>
</g>
</g>
<!-- Node1&#45;&gt;Node44 -->
<g id="edge54" class="edge"><title>Node1&#45;&gt;Node44</title>
<path fill="none" stroke="midnightblue" d="M20.4807,-729.419C23.7125,-666.675 43.0865,-315.92 74,-281 81.071,-273.012 90.8863,-268.103 101.173,-265.144"/>
<polygon fill="midnightblue" stroke="midnightblue" points="102.139,-268.514 111.105,-262.869 100.576,-261.691 102.139,-268.514"/>
</g>
<!-- Node45 -->
<g id="node45" class="node"><title>Node45</title>
<g id="a_node45"><a xlink:href="namespacetlz.html#a7f1e6601e70df95f0c06c82252c66e1b" target="_top" xlink:title="tlz::visualize_view\l_points_closeup">
<polygon fill="white" stroke="red" points="104.5,-203 104.5,-233 201.5,-233 201.5,-203 104.5,-203"/>
<text text-anchor="start" x="112.5" y="-221" font-family="Helvetica,sans-Serif" font-size="10.00">tlz::visualize_view</text>
<text text-anchor="middle" x="153" y="-210" font-family="Helvetica,sans-Serif" font-size="10.00">_points_closeup</text>
</a>
</g>
</g>
<!-- Node1&#45;&gt;Node45 -->
<g id="edge55" class="edge"><title>Node1&#45;&gt;Node45</title>
<path fill="none" stroke="midnightblue" d="M20.4371,-729.087C23.4549,-662.53 42.0274,-282.173 74,-243 79.4933,-236.27 86.807,-231.328 94.7594,-227.704"/>
<polygon fill="midnightblue" stroke="midnightblue" points="96.2405,-230.884 104.317,-224.028 93.7274,-224.351 96.2405,-230.884"/>
</g>
<!-- Node46 -->
<g id="node46" class="node"><title>Node46</title>
<g id="a_node46"><a xlink:href="classtlz_1_1viewer.html#a5f0412cff89a343ad52431689502389d" target="_top" xlink:title="tlz::viewer::draw">
<polygon fill="white" stroke="black" points="108.5,-515.5 108.5,-534.5 197.5,-534.5 197.5,-515.5 108.5,-515.5"/>
<text text-anchor="middle" x="153" y="-522.5" font-family="Helvetica,sans-Serif" font-size="10.00">tlz::viewer::draw</text>
</a>
</g>
</g>
<!-- Node1&#45;&gt;Node46 -->
<g id="edge57" class="edge"><title>Node1&#45;&gt;Node46</title>
<path fill="none" stroke="midnightblue" d="M19.5681,-729.276C18.7296,-697.746 20.5579,-597.359 74,-545 80.7467,-538.39 89.3651,-533.876 98.3973,-530.812"/>
<polygon fill="midnightblue" stroke="midnightblue" points="99.6148,-534.105 108.292,-528.026 97.7174,-527.367 99.6148,-534.105"/>
</g>
<!-- Node47 -->
<g id="node47" class="node"><title>Node47</title>
<g id="a_node47"><a xlink:href="namespacetlz.html#abf1d01f09b5e0671d1538ea8259cdb1e" target="_top" xlink:title="tlz::visualize_view\l_points">
<polygon fill="white" stroke="red" points="104.5,-115 104.5,-145 201.5,-145 201.5,-115 104.5,-115"/>
<text text-anchor="start" x="112.5" y="-133" font-family="Helvetica,sans-Serif" font-size="10.00">tlz::visualize_view</text>
<text text-anchor="middle" x="153" y="-122" font-family="Helvetica,sans-Serif" font-size="10.00">_points</text>
</a>
</g>
</g>
<!-- Node1&#45;&gt;Node47 -->
<g id="edge60" class="edge"><title>Node1&#45;&gt;Node47</title>
<path fill="none" stroke="midnightblue" d="M20.2614,-729.264C22.292,-656.701 36.4728,-201.748 74,-155 79.4385,-148.225 86.7235,-143.26 94.664,-139.627"/>
<polygon fill="midnightblue" stroke="midnightblue" points="96.1434,-142.808 104.215,-135.945 93.6255,-136.276 96.1434,-142.808"/>
</g>
<!-- Node48 -->
<g id="node48" class="node"><title>Node48</title>
<g id="a_node48"><a xlink:href="classtlz_1_1viewer.html#ad4fda702b7c5af2cb0bb9bc3842113f3" target="_top" xlink:title="tlz::viewer::draw_text">
<polygon fill="white" stroke="black" points="98,-76.5 98,-95.5 208,-95.5 208,-76.5 98,-76.5"/>
<text text-anchor="middle" x="153" y="-83.5" font-family="Helvetica,sans-Serif" font-size="10.00">tlz::viewer::draw_text</text>
</a>
</g>
</g>
<!-- Node1&#45;&gt;Node48 -->
<g id="edge61" class="edge"><title>Node1&#45;&gt;Node48</title>
<path fill="none" stroke="midnightblue" d="M20.1525,-729.388C21.4393,-653.649 31.5046,-154.599 74,-105 78.0084,-100.321 82.9582,-96.6921 88.4046,-93.8892"/>
<polygon fill="midnightblue" stroke="midnightblue" points="90.0729,-96.9859 97.9609,-89.9128 87.3836,-90.5231 90.0729,-96.9859"/>
</g>
<!-- Node49 -->
<g id="node49" class="node"><title>Node49</title>
<g id="a_node49"><a xlink:href="namespacetlz.html#a8e4f8c8c2927bc4350de13bfa0f8f9e1" target="_top" xlink:title="tlz::to_string">
<polygon fill="white" stroke="black" points="117.5,-38.5 117.5,-57.5 188.5,-57.5 188.5,-38.5 117.5,-38.5"/>
<text text-anchor="middle" x="153" y="-45.5" font-family="Helvetica,sans-Serif" font-size="10.00">tlz::to_string</text>
</a>
</g>
</g>
<!-- Node1&#45;&gt;Node49 -->
<g id="edge62" class="edge"><title>Node1&#45;&gt;Node49</title>
<path fill="none" stroke="midnightblue" d="M20.1047,-729.317C21.0394,-650.785 29.0063,-119.77 74,-67 82.3484,-57.2087 94.8195,-52.0084 107.354,-49.3612"/>
<polygon fill="midnightblue" stroke="midnightblue" points="108.029,-52.7976 117.343,-47.7467 106.912,-45.8873 108.029,-52.7976"/>
</g>
<!-- Node50 -->
<g id="node50" class="node"><title>Node50</title>
<g id="a_node50"><a xlink:href="classtlz_1_1viewer.html#a4ccb30b02c81909ba1af97745375385a" target="_top" xlink:title="tlz::viewer::show_modal">
<polygon fill="white" stroke="red" points="92,-0.5 92,-19.5 214,-19.5 214,-0.5 92,-0.5"/>
<text text-anchor="middle" x="153" y="-7.5" font-family="Helvetica,sans-Serif" font-size="10.00">tlz::viewer::show_modal</text>
</a>
</g>
</g>
<!-- Node1&#45;&gt;Node50 -->
<g id="edge63" class="edge"><title>Node1&#45;&gt;Node50</title>
<path fill="none" stroke="midnightblue" d="M20.061,-729.289C20.657,-648.178 26.4971,-84.9548 74,-29 76.5398,-26.0084 79.4644,-23.445 82.6585,-21.2518"/>
<polygon fill="midnightblue" stroke="midnightblue" points="84.6069,-24.1739 91.6637,-16.2712 81.219,-18.0483 84.6069,-24.1739"/>
</g>
<!-- Node4 -->
<g id="node4" class="node"><title>Node4</title>
<g id="a_node4"><a xlink:href="namespacetlz.html#a634de7ca11e100e4a118dffe80376a75" target="_top" xlink:title="tlz::in_filename_arg">
<polygon fill="white" stroke="red" points="303,-1411.5 303,-1430.5 404,-1430.5 404,-1411.5 303,-1411.5"/>
<text text-anchor="middle" x="353.5" y="-1418.5" font-family="Helvetica,sans-Serif" font-size="10.00">tlz::in_filename_arg</text>
</a>
</g>
</g>
<!-- Node3&#45;&gt;Node4 -->
<g id="edge3" class="edge"><title>Node3&#45;&gt;Node4</title>
<path fill="none" stroke="midnightblue" d="M195.129,-1390.87C223.411,-1396.29 261.413,-1403.56 292.989,-1409.61"/>
<polygon fill="midnightblue" stroke="midnightblue" points="292.514,-1413.08 302.994,-1411.52 293.83,-1406.2 292.514,-1413.08"/>
</g>
<!-- Node5 -->
<g id="node5" class="node"><title>Node5</title>
<g id="a_node5"><a xlink:href="namespacetlz.html#a0621d598fb83b13bf028f3e6293d04f8" target="_top" xlink:title="tlz::string_arg">
<polygon fill="white" stroke="red" points="475.5,-1335.5 475.5,-1354.5 551.5,-1354.5 551.5,-1335.5 475.5,-1335.5"/>
<text text-anchor="middle" x="513.5" y="-1342.5" font-family="Helvetica,sans-Serif" font-size="10.00">tlz::string_arg</text>
</a>
</g>
</g>
<!-- Node4&#45;&gt;Node5 -->
<g id="edge4" class="edge"><title>Node4&#45;&gt;Node5</title>
<path fill="none" stroke="midnightblue" d="M374.511,-1411.37C402.054,-1398.13 451.822,-1374.19 483.46,-1358.97"/>
<polygon fill="midnightblue" stroke="midnightblue" points="485.157,-1362.04 492.652,-1354.55 482.123,-1355.73 485.157,-1362.04"/>
</g>
<!-- Node6 -->
<g id="node6" class="node"><title>Node6</title>
<g id="a_node6"><a xlink:href="namespacetlz.html#a780431daab8d2595372eacb43143b52d" target="_top" xlink:title="tlz::args">
<polygon fill="white" stroke="black" points="588,-1335.5 588,-1354.5 640,-1354.5 640,-1335.5 588,-1335.5"/>
<text text-anchor="middle" x="614" y="-1342.5" font-family="Helvetica,sans-Serif" font-size="10.00">tlz::args</text>
</a>
</g>
</g>
<!-- Node4&#45;&gt;Node6 -->
<g id="edge7" class="edge"><title>Node4&#45;&gt;Node6</title>
<path fill="none" stroke="midnightblue" d="M404.052,-1422.77C445.3,-1422.45 504.712,-1417.75 552,-1397 570.016,-1389.1 586.737,-1374.06 598.099,-1362.19"/>
<polygon fill="midnightblue" stroke="midnightblue" points="600.881,-1364.33 605.059,-1354.59 595.721,-1359.6 600.881,-1364.33"/>
</g>
<!-- Node4&#45;&gt;Node7 -->
<g id="edge6" class="edge"><title>Node4&#45;&gt;Node7</title>
<path fill="none" stroke="midnightblue" d="M404.263,-1429.96C415.83,-1432.66 427.979,-1435.99 439,-1440 455.999,-1446.19 474.061,-1455.49 488.025,-1463.33"/>
<polygon fill="midnightblue" stroke="midnightblue" points="486.562,-1466.53 496.975,-1468.48 490.051,-1460.46 486.562,-1466.53"/>
</g>
<!-- Node5&#45;&gt;Node6 -->
<g id="edge5" class="edge"><title>Node5&#45;&gt;Node6</title>
<path fill="none" stroke="midnightblue" d="M551.739,-1345C560.243,-1345 569.255,-1345 577.676,-1345"/>
<polygon fill="midnightblue" stroke="midnightblue" points="577.943,-1348.5 587.943,-1345 577.943,-1341.5 577.943,-1348.5"/>
</g>
<!-- Node8&#45;&gt;Node4 -->
<g id="edge10" class="edge"><title>Node8&#45;&gt;Node4</title>
<path fill="none" stroke="midnightblue" d="M232.168,-1421C252.308,-1421 273.662,-1421 292.702,-1421"/>
<polygon fill="midnightblue" stroke="midnightblue" points="292.724,-1424.5 302.724,-1421 292.724,-1417.5 292.724,-1424.5"/>
</g>
<!-- Node9 -->
<g id="node9" class="node"><title>Node9</title>
<g id="a_node9"><a xlink:href="namespacetlz.html#ad75d99f2e1623434fbadee66f3ff29a1" target="_top" xlink:title="tlz::import_image_correspondences">
<polygon fill="white" stroke="red" points="268,-1449.5 268,-1468.5 439,-1468.5 439,-1449.5 268,-1449.5"/>
<text text-anchor="middle" x="353.5" y="-1456.5" font-family="Helvetica,sans-Serif" font-size="10.00">tlz::import_image_correspondences</text>
</a>
</g>
</g>
<!-- Node8&#45;&gt;Node9 -->
<g id="edge9" class="edge"><title>Node8&#45;&gt;Node9</title>
<path fill="none" stroke="midnightblue" d="M203.834,-1430.54C230.734,-1435.69 264.136,-1442.08 292.461,-1447.51"/>
<polygon fill="midnightblue" stroke="midnightblue" points="292.166,-1451.01 302.646,-1449.46 293.482,-1444.14 292.166,-1451.01"/>
</g>
<!-- Node10&#45;&gt;Node6 -->
<g id="edge12" class="edge"><title>Node10&#45;&gt;Node6</title>
<path fill="none" stroke="midnightblue" d="M197.69,-1215.52C254.678,-1212.42 356.8,-1211.76 439,-1238 500.805,-1257.73 563.134,-1303.9 593.676,-1328.65"/>
<polygon fill="midnightblue" stroke="midnightblue" points="591.815,-1331.65 601.76,-1335.31 596.265,-1326.25 591.815,-1331.65"/>
</g>
<!-- Node11 -->
<g id="node11" class="node"><title>Node11</title>
<g id="a_node11"><a xlink:href="classtlz_1_1args__list.html#a4aee93f4b0d9b5b4e7a5d13cb637337c" target="_top" xlink:title="tlz::args_list::has\l_next_arg">
<polygon fill="white" stroke="black" points="307.5,-1286 307.5,-1316 399.5,-1316 399.5,-1286 307.5,-1286"/>
<text text-anchor="start" x="315.5" y="-1304" font-family="Helvetica,sans-Serif" font-size="10.00">tlz::args_list::has</text>
<text text-anchor="middle" x="353.5" y="-1293" font-family="Helvetica,sans-Serif" font-size="10.00">_next_arg</text>
</a>
</g>
</g>
<!-- Node10&#45;&gt;Node11 -->
<g id="edge13" class="edge"><title>Node10&#45;&gt;Node11</title>
<path fill="none" stroke="midnightblue" d="M170.95,-1228.66C192.847,-1240.86 232.388,-1261.96 268,-1276 277.393,-1279.7 287.559,-1283.16 297.476,-1286.25"/>
<polygon fill="midnightblue" stroke="midnightblue" points="296.686,-1289.67 307.271,-1289.21 298.713,-1282.97 296.686,-1289.67"/>
</g>
<!-- Node12 -->
<g id="node12" class="node"><title>Node12</title>
<g id="a_node12"><a xlink:href="namespacetlz.html#ac18630fe66cc71c8cc5eb6acce057f5f" target="_top" xlink:title="tlz::bool_arg">
<polygon fill="white" stroke="red" points="478.5,-1171.5 478.5,-1190.5 548.5,-1190.5 548.5,-1171.5 478.5,-1171.5"/>
<text text-anchor="middle" x="513.5" y="-1178.5" font-family="Helvetica,sans-Serif" font-size="10.00">tlz::bool_arg</text>
</a>
</g>
</g>
<!-- Node10&#45;&gt;Node12 -->
<g id="edge14" class="edge"><title>Node10&#45;&gt;Node12</title>
<path fill="none" stroke="midnightblue" d="M197.549,-1213.4C218.785,-1210.73 244.712,-1207.57 268,-1205 337.908,-1197.28 419.202,-1189.55 468.208,-1185.02"/>
<polygon fill="midnightblue" stroke="midnightblue" points="468.819,-1188.48 478.457,-1184.08 468.178,-1181.51 468.819,-1188.48"/>
</g>
<!-- Node13 -->
<g id="node13" class="node"><title>Node13</title>
<g id="a_node13"><a xlink:href="namespacetlz.html#abea9308e4287a82deb9e44e7cc9782a0" target="_top" xlink:title="tlz::view_index_arg">
<polygon fill="white" stroke="black" points="303,-1247.5 303,-1266.5 404,-1266.5 404,-1247.5 303,-1247.5"/>
<text text-anchor="middle" x="353.5" y="-1254.5" font-family="Helvetica,sans-Serif" font-size="10.00">tlz::view_index_arg</text>
</a>
</g>
</g>
<!-- Node10&#45;&gt;Node13 -->
<g id="edge16" class="edge"><title>Node10&#45;&gt;Node13</title>
<path fill="none" stroke="midnightblue" d="M197.562,-1227.34C225.451,-1232.68 262.014,-1239.68 292.617,-1245.54"/>
<polygon fill="midnightblue" stroke="midnightblue" points="292.267,-1249.03 302.746,-1247.48 293.583,-1242.16 292.267,-1249.03"/>
</g>
<!-- Node12&#45;&gt;Node6 -->
<g id="edge15" class="edge"><title>Node12&#45;&gt;Node6</title>
<path fill="none" stroke="midnightblue" d="M534.104,-1190.56C540.437,-1194.37 547.084,-1199.24 552,-1205 583.275,-1241.67 600.891,-1296.85 608.477,-1325.77"/>
<polygon fill="midnightblue" stroke="midnightblue" points="605.082,-1326.61 610.901,-1335.47 611.873,-1324.92 605.082,-1326.61"/>
</g>
<!-- Node13&#45;&gt;Node5 -->
<g id="edge17" class="edge"><title>Node13&#45;&gt;Node5</title>
<path fill="none" stroke="midnightblue" d="M404.308,-1264.32C416.112,-1267.25 428.356,-1271.33 439,-1277 462.819,-1289.69 484.78,-1312 498.376,-1327.59"/>
<polygon fill="midnightblue" stroke="midnightblue" points="495.899,-1330.08 505.028,-1335.46 501.245,-1325.56 495.899,-1330.08"/>
</g>
<!-- Node14&#45;&gt;Node4 -->
<g id="edge22" class="edge"><title>Node14&#45;&gt;Node4</title>
<path fill="none" stroke="midnightblue" d="M200.78,-1352.36C211.423,-1355.12 222.41,-1358.88 232,-1364 251.147,-1374.22 249.05,-1386.42 268,-1397 276.116,-1401.53 285.157,-1405.27 294.223,-1408.33"/>
<polygon fill="midnightblue" stroke="midnightblue" points="293.439,-1411.75 304.028,-1411.39 295.526,-1405.07 293.439,-1411.75"/>
</g>
<!-- Node14&#45;&gt;Node5 -->
<g id="edge21" class="edge"><title>Node14&#45;&gt;Node5</title>
<path fill="none" stroke="midnightblue" d="M200.5,-1345C268.978,-1345 396.261,-1345 465.196,-1345"/>
<polygon fill="midnightblue" stroke="midnightblue" points="465.335,-1348.5 475.335,-1345 465.335,-1341.5 465.335,-1348.5"/>
</g>
<!-- Node14&#45;&gt;Node6 -->
<g id="edge19" class="edge"><title>Node14&#45;&gt;Node6</title>
<path fill="none" stroke="midnightblue" d="M200.766,-1351.79C221.342,-1354.51 245.826,-1357.37 268,-1359 393.904,-1368.23 427.194,-1382.99 552,-1364 560.749,-1362.67 569.969,-1360.32 578.517,-1357.72"/>
<polygon fill="midnightblue" stroke="midnightblue" points="579.737,-1361.01 588.175,-1354.6 577.583,-1354.35 579.737,-1361.01"/>
</g>
<!-- Node14&#45;&gt;Node11 -->
<g id="edge20" class="edge"><title>Node14&#45;&gt;Node11</title>
<path fill="none" stroke="midnightblue" d="M197.072,-1335.45C226.498,-1328.93 265.748,-1320.23 297.443,-1313.2"/>
<polygon fill="midnightblue" stroke="midnightblue" points="298.44,-1316.57 307.446,-1310.99 296.925,-1309.73 298.44,-1316.57"/>
</g>
<!-- Node16 -->
<g id="node16" class="node"><title>Node16</title>
<g id="a_node16"><a xlink:href="classtlz_1_1dataset__group.html#acad4f6300bfc455279aaeb975d5e61de" target="_top" xlink:title="tlz::dataset_group\l::dataset_group">
<polygon fill="white" stroke="black" points="306,-958 306,-988 401,-988 401,-958 306,-958"/>
<text text-anchor="start" x="314" y="-976" font-family="Helvetica,sans-Serif" font-size="10.00">tlz::dataset_group</text>
<text text-anchor="middle" x="353.5" y="-965" font-family="Helvetica,sans-Serif" font-size="10.00">::dataset_group</text>
</a>
</g>
</g>
<!-- Node15&#45;&gt;Node16 -->
<g id="edge24" class="edge"><title>Node15&#45;&gt;Node16</title>
<path fill="none" stroke="midnightblue" d="M200.705,-1088.44C211.822,-1085.6 223.043,-1081.1 232,-1074 259.727,-1052.02 241.432,-1026.36 268,-1003 276.145,-995.837 286.115,-990.351 296.314,-986.16"/>
<polygon fill="midnightblue" stroke="midnightblue" points="297.549,-989.435 305.698,-982.664 295.106,-982.875 297.549,-989.435"/>
</g>
<!-- Node17 -->
<g id="node17" class="node"><title>Node17</title>
<g id="a_node17"><a xlink:href="namespacetlz.html#a252af14b9b4ac6502d3e9c5dd8dc90b8" target="_top" xlink:title="tlz::has">
<polygon fill="white" stroke="black" points="489,-1067.5 489,-1086.5 538,-1086.5 538,-1067.5 489,-1067.5"/>
<text text-anchor="middle" x="513.5" y="-1074.5" font-family="Helvetica,sans-Serif" font-size="10.00">tlz::has</text>
</a>
</g>
</g>
<!-- Node15&#45;&gt;Node17 -->
<g id="edge25" class="edge"><title>Node15&#45;&gt;Node17</title>
<path fill="none" stroke="midnightblue" d="M200.642,-1086.24C211.402,-1083.45 222.476,-1079.53 232,-1074 252.123,-1062.33 246.629,-1045.19 268,-1036 337.816,-1005.97 365.446,-1016.87 439,-1036 458.14,-1040.98 477.587,-1052.15 491.666,-1061.58"/>
<polygon fill="midnightblue" stroke="midnightblue" points="489.879,-1064.6 500.086,-1067.44 493.878,-1058.86 489.879,-1064.6"/>
</g>
<!-- Node19 -->
<g id="node19" class="node"><title>Node19</title>
<g id="a_node19"><a xlink:href="namespacetlz.html#a0b91e1131356fee9a4c7a72c3b398186" target="_top" xlink:title="tlz::add_border">
<polygon fill="white" stroke="black" points="313,-1083.5 313,-1102.5 394,-1102.5 394,-1083.5 313,-1083.5"/>
<text text-anchor="middle" x="353.5" y="-1090.5" font-family="Helvetica,sans-Serif" font-size="10.00">tlz::add_border</text>
</a>
</g>
</g>
<!-- Node18&#45;&gt;Node19 -->
<g id="edge27" class="edge"><title>Node18&#45;&gt;Node19</title>
<path fill="none" stroke="midnightblue" d="M217.079,-1123.02C244.84,-1116.86 276.975,-1109.74 302.972,-1103.98"/>
<polygon fill="midnightblue" stroke="midnightblue" points="303.971,-1107.34 312.976,-1101.76 302.456,-1100.51 303.971,-1107.34"/>
</g>
<!-- Node18&#45;&gt;Node20 -->
<g id="edge28" class="edge"><title>Node18&#45;&gt;Node20</title>
<path fill="none" stroke="midnightblue" d="M217.079,-1137C242.31,-1137 271.153,-1137 295.718,-1137"/>
<polygon fill="midnightblue" stroke="midnightblue" points="295.962,-1140.5 305.962,-1137 295.962,-1133.5 295.962,-1140.5"/>
</g>
<!-- Node21 -->
<g id="node21" class="node"><title>Node21</title>
<g id="a_node21"><a xlink:href="classtlz_1_1dataset.html#a7aecc40555a69a401c3d3b9c53025fcd" target="_top" xlink:title="tlz::dataset::image_size">
<polygon fill="white" stroke="black" points="293,-1045.5 293,-1064.5 414,-1064.5 414,-1045.5 293,-1045.5"/>
<text text-anchor="middle" x="353.5" y="-1052.5" font-family="Helvetica,sans-Serif" font-size="10.00">tlz::dataset::image_size</text>
</a>
</g>
</g>
<!-- Node18&#45;&gt;Node21 -->
<g id="edge30" class="edge"><title>Node18&#45;&gt;Node21</title>
<path fill="none" stroke="midnightblue" d="M212.543,-1121.84C219.337,-1119.04 225.981,-1115.78 232,-1112 251.695,-1099.62 247.774,-1085.49 268,-1074 272.739,-1071.31 277.83,-1069 283.079,-1067.01"/>
<polygon fill="midnightblue" stroke="midnightblue" points="284.297,-1070.29 292.654,-1063.78 282.06,-1063.66 284.297,-1070.29"/>
</g>
<!-- Node20&#45;&gt;Node17 -->
<g id="edge29" class="edge"><title>Node20&#45;&gt;Node17</title>
<path fill="none" stroke="midnightblue" d="M401.427,-1124.54C413.778,-1120.87 427,-1116.6 439,-1112 454.611,-1106.02 471.488,-1098.09 485.128,-1091.29"/>
<polygon fill="midnightblue" stroke="midnightblue" points="487.082,-1094.23 494.423,-1086.59 483.921,-1087.98 487.082,-1094.23"/>
</g>
<!-- Node35 -->
<g id="node35" class="node"><title>Node35</title>
<g id="a_node35"><a xlink:href="classtlz_1_1viewer.html#af74a8aef9dde68eeff6b1e2561b39014" target="_top" xlink:title="tlz::viewer::height">
<polygon fill="white" stroke="black" points="306.5,-242.5 306.5,-261.5 400.5,-261.5 400.5,-242.5 306.5,-242.5"/>
<text text-anchor="middle" x="353.5" y="-249.5" font-family="Helvetica,sans-Serif" font-size="10.00">tlz::viewer::height</text>
</a>
</g>
</g>
<!-- Node34&#45;&gt;Node35 -->
<g id="edge44" class="edge"><title>Node34&#45;&gt;Node35</title>
<path fill="none" stroke="midnightblue" d="M197.815,-182.912C209.098,-185.684 221.122,-189.065 232,-193 266.033,-205.312 303.143,-224.413 327.058,-237.526"/>
<polygon fill="midnightblue" stroke="midnightblue" points="325.404,-240.611 335.846,-242.402 328.8,-234.49 325.404,-240.611"/>
</g>
<!-- Node36 -->
<g id="node36" class="node"><title>Node36</title>
<g id="a_node36"><a xlink:href="classtlz_1_1viewer.html#acc43bf1dd1d0c3cdc35a948d4c194769" target="_top" xlink:title="tlz::viewer::width">
<polygon fill="white" stroke="black" points="308,-436.5 308,-455.5 399,-455.5 399,-436.5 308,-436.5"/>
<text text-anchor="middle" x="353.5" y="-443.5" font-family="Helvetica,sans-Serif" font-size="10.00">tlz::viewer::width</text>
</a>
</g>
</g>
<!-- Node34&#45;&gt;Node36 -->
<g id="edge45" class="edge"><title>Node34&#45;&gt;Node36</title>
<path fill="none" stroke="midnightblue" d="M197.64,-177.551C209.799,-180.313 222.315,-185.028 232,-193 261.479,-217.264 251.698,-236.474 268,-271 294.906,-327.986 327.534,-394.977 343.21,-427.037"/>
<polygon fill="midnightblue" stroke="midnightblue" points="340.136,-428.718 347.675,-436.161 346.423,-425.641 340.136,-428.718"/>
</g>
<!-- Node38 -->
<g id="node38" class="node"><title>Node38</title>
<g id="a_node38"><a xlink:href="classtlz_1_1dataset.html#acbdb309b8dd22f687fff41f6e9ac6ed4" target="_top" xlink:title="tlz::dataset::view">
<polygon fill="white" stroke="black" points="307.5,-559.5 307.5,-578.5 399.5,-578.5 399.5,-559.5 307.5,-559.5"/>
<text text-anchor="middle" x="353.5" y="-566.5" font-family="Helvetica,sans-Serif" font-size="10.00">tlz::dataset::view</text>
</a>
</g>
</g>
<!-- Node37&#45;&gt;Node38 -->
<g id="edge47" class="edge"><title>Node37&#45;&gt;Node38</title>
<path fill="none" stroke="midnightblue" d="M200.539,-569C229.469,-569 266.816,-569 297.246,-569"/>
<polygon fill="midnightblue" stroke="midnightblue" points="297.278,-572.5 307.278,-569 297.278,-565.5 297.278,-572.5"/>
</g>
<!-- Node46&#45;&gt;Node35 -->
<g id="edge59" class="edge"><title>Node46&#45;&gt;Node35</title>
<path fill="none" stroke="midnightblue" d="M197.664,-521.479C209.824,-518.717 222.334,-513.995 232,-506 261.732,-481.407 251.61,-461.931 268,-427 294.768,-369.95 327.459,-302.988 343.18,-270.949"/>
<polygon fill="midnightblue" stroke="midnightblue" points="346.391,-272.35 347.658,-261.831 340.108,-269.263 346.391,-272.35"/>
</g>
<!-- Node46&#45;&gt;Node36 -->
<g id="edge58" class="edge"><title>Node46&#45;&gt;Node36</title>
<path fill="none" stroke="midnightblue" d="M197.834,-516.138C209.116,-513.365 221.135,-509.972 232,-506 266.298,-493.462 303.62,-473.876 327.497,-460.517"/>
<polygon fill="midnightblue" stroke="midnightblue" points="329.279,-463.531 336.256,-455.558 325.83,-457.439 329.279,-463.531"/>
</g>
</g>
</svg>
