<?xml version="1.0" encoding="UTF-8" standalone="no"?>
<!DOCTYPE svg PUBLIC "-//W3C//DTD SVG 1.1//EN"
 "http://www.w3.org/Graphics/SVG/1.1/DTD/svg11.dtd">
<!-- Generated by graphviz version 2.38.0 (20140413.2041)
 -->
<!-- Title: main Pages: 1 -->
<svg width="924pt" height="341pt"
 viewBox="0.00 0.00 924.00 341.34" xmlns="http://www.w3.org/2000/svg" xmlns:xlink="http://www.w3.org/1999/xlink">
<g id="graph0" class="graph" transform="scale(1 1) rotate(0) translate(4 337.344)">
<title>main</title>
<polygon fill="white" stroke="none" points="-4,4 -4,-337.344 920,-337.344 920,4 -4,4"/>
<!-- Node1 -->
<g id="node1" class="node"><title>Node1</title>
<polygon fill="#bfbfbf" stroke="black" points="0,-160.844 0,-179.844 38,-179.844 38,-160.844 0,-160.844"/>
<text text-anchor="middle" x="19" y="-167.844" font-family="Helvetica,sans-Serif" font-size="10.00">main</text>
</g>
<!-- Node2 -->
<g id="node2" class="node"><title>Node2</title>
<g id="a_node2"><a xlink:href="namespacetlz.html#a3c03f5d9d6261ec2909938822fc47f8a" target="_top" xlink:title="tlz::get_args">
<polygon fill="white" stroke="black" points="98,-227.844 98,-246.844 169,-246.844 169,-227.844 98,-227.844"/>
<text text-anchor="middle" x="133.5" y="-234.844" font-family="Helvetica,sans-Serif" font-size="10.00">tlz::get_args</text>
</a>
</g>
</g>
<!-- Node1&#45;&gt;Node2 -->
<g id="edge1" class="edge"><title>Node1&#45;&gt;Node2</title>
<path fill="none" stroke="midnightblue" d="M28.6311,-180.132C38.5918,-190.883 55.9339,-207.992 74,-218.344 78.4603,-220.9 83.3118,-223.167 88.2497,-225.162"/>
<polygon fill="midnightblue" stroke="midnightblue" points="87.1782,-228.498 97.7717,-228.671 89.5985,-221.929 87.1782,-228.498"/>
</g>
<!-- Node3 -->
<g id="node3" class="node"><title>Node3</title>
<g id="a_node3"><a xlink:href="namespacetlz.html#a13d1bcc21c6eb46a1226f7cf943fcf72" target="_top" xlink:title="tlz::straight_depths_arg">
<polygon fill="white" stroke="black" points="74,-189.844 74,-208.844 193,-208.844 193,-189.844 74,-189.844"/>
<text text-anchor="middle" x="133.5" y="-196.844" font-family="Helvetica,sans-Serif" font-size="10.00">tlz::straight_depths_arg</text>
</a>
</g>
</g>
<!-- Node1&#45;&gt;Node3 -->
<g id="edge2" class="edge"><title>Node1&#45;&gt;Node3</title>
<path fill="none" stroke="midnightblue" d="M38.0751,-175.004C50.9516,-178.323 68.8815,-182.945 85.6613,-187.271"/>
<polygon fill="midnightblue" stroke="midnightblue" points="84.8041,-190.664 95.3613,-189.771 86.5515,-183.885 84.8041,-190.664"/>
</g>
<!-- Node16 -->
<g id="node16" class="node"><title>Node16</title>
<g id="a_node16"><a xlink:href="namespacetlz.html#a4791154460ea7bf2fa5984b1748bc9d1" target="_top" xlink:title="tlz::out_filename_opt_arg">
<polygon fill="white" stroke="black" points="229,-123.844 229,-142.844 355,-142.844 355,-123.844 229,-123.844"/>
<text text-anchor="middle" x="292" y="-130.844" font-family="Helvetica,sans-Serif" font-size="10.00">tlz::out_filename_opt_arg</text>
</a>
</g>
</g>
<!-- Node1&#45;&gt;Node16 -->
<g id="edge17" class="edge"><title>Node1&#45;&gt;Node16</title>
<path fill="none" stroke="midnightblue" d="M38.2019,-167.859C74.5125,-162.902 157.703,-151.544 218.777,-143.205"/>
<polygon fill="midnightblue" stroke="midnightblue" points="219.325,-146.663 228.759,-141.842 218.378,-139.727 219.325,-146.663"/>
</g>
<!-- Node20 -->
<g id="node20" class="node"><title>Node20</title>
<g id="a_node20"><a xlink:href="namespacetlz.html#a318f0ec11ecbe39c32ad870473ea9c35" target="_top" xlink:title="Compute square of a number. ">
<polygon fill="white" stroke="black" points="111.5,-66.8445 111.5,-85.8445 155.5,-85.8445 155.5,-66.8445 111.5,-66.8445"/>
<text text-anchor="middle" x="133.5" y="-73.8445" font-family="Helvetica,sans-Serif" font-size="10.00">tlz::sq</text>
</a>
</g>
</g>
<!-- Node1&#45;&gt;Node20 -->
<g id="edge26" class="edge"><title>Node1&#45;&gt;Node20</title>
<path fill="none" stroke="midnightblue" d="M31.6157,-160.639C50.9155,-144.513 89.7806,-112.039 113.236,-92.4409"/>
<polygon fill="midnightblue" stroke="midnightblue" points="115.685,-94.9551 121.115,-85.8573 111.197,-89.5834 115.685,-94.9551"/>
</g>
<!-- Node4 -->
<g id="node4" class="node"><title>Node4</title>
<g id="a_node4"><a xlink:href="namespacetlz.html#a18ebdbd3058b74f2195388d86343b21d" target="_top" xlink:title="tlz::decode_straight\l_depths">
<polygon fill="white" stroke="black" points="241,-273.344 241,-303.344 343,-303.344 343,-273.344 241,-273.344"/>
<text text-anchor="start" x="249" y="-291.344" font-family="Helvetica,sans-Serif" font-size="10.00">tlz::decode_straight</text>
<text text-anchor="middle" x="292" y="-280.344" font-family="Helvetica,sans-Serif" font-size="10.00">_depths</text>
</a>
</g>
</g>
<!-- Node3&#45;&gt;Node4 -->
<g id="edge3" class="edge"><title>Node3&#45;&gt;Node4</title>
<path fill="none" stroke="midnightblue" d="M169.847,-208.894C177.654,-211.53 185.754,-214.69 193,-218.344 219.344,-231.632 246.423,-251.541 265.422,-266.733"/>
<polygon fill="midnightblue" stroke="midnightblue" points="263.328,-269.542 273.297,-273.132 267.743,-264.109 263.328,-269.542"/>
</g>
<!-- Node7 -->
<g id="node7" class="node"><title>Node7</title>
<g id="a_node7"><a xlink:href="namespacetlz.html#a35f9e03fa4fd9cec699f5fa27962400f" target="_top" xlink:title="tlz::json_arg">
<polygon fill="white" stroke="black" points="257,-199.844 257,-218.844 327,-218.844 327,-199.844 257,-199.844"/>
<text text-anchor="middle" x="292" y="-206.844" font-family="Helvetica,sans-Serif" font-size="10.00">tlz::json_arg</text>
</a>
</g>
</g>
<!-- Node3&#45;&gt;Node7 -->
<g id="edge6" class="edge"><title>Node3&#45;&gt;Node7</title>
<path fill="none" stroke="midnightblue" d="M193.22,-203.097C211.033,-204.235 230.288,-205.465 246.963,-206.531"/>
<polygon fill="midnightblue" stroke="midnightblue" points="246.773,-210.025 256.976,-207.17 247.219,-203.04 246.773,-210.025"/>
</g>
<!-- Node5 -->
<g id="node5" class="node"><title>Node5</title>
<g id="a_node5"><a xlink:href="namespacetlz.html#add846dc50c32dfb356cb1a7ac11d37ac" target="_top" xlink:title="tlz::get_or">
<polygon fill="white" stroke="black" points="414.5,-296.844 414.5,-315.844 474.5,-315.844 474.5,-296.844 414.5,-296.844"/>
<text text-anchor="middle" x="444.5" y="-303.844" font-family="Helvetica,sans-Serif" font-size="10.00">tlz::get_or</text>
</a>
</g>
</g>
<!-- Node4&#45;&gt;Node5 -->
<g id="edge4" class="edge"><title>Node4&#45;&gt;Node5</title>
<path fill="none" stroke="midnightblue" d="M343.114,-294.338C363.027,-296.72 385.593,-299.419 404.279,-301.654"/>
<polygon fill="midnightblue" stroke="midnightblue" points="403.875,-305.13 414.22,-302.843 404.706,-298.18 403.875,-305.13"/>
</g>
<!-- Node6 -->
<g id="node6" class="node"><title>Node6</title>
<g id="a_node6"><a xlink:href="namespacetlz.html#a252af14b9b4ac6502d3e9c5dd8dc90b8" target="_top" xlink:title="tlz::has">
<polygon fill="white" stroke="black" points="548,-313.844 548,-332.844 597,-332.844 597,-313.844 548,-313.844"/>
<text text-anchor="middle" x="572.5" y="-320.844" font-family="Helvetica,sans-Serif" font-size="10.00">tlz::has</text>
</a>
</g>
</g>
<!-- Node5&#45;&gt;Node6 -->
<g id="edge5" class="edge"><title>Node5&#45;&gt;Node6</title>
<path fill="none" stroke="midnightblue" d="M474.724,-310.287C493.58,-312.832 518.169,-316.149 537.842,-318.803"/>
<polygon fill="midnightblue" stroke="midnightblue" points="537.533,-322.293 547.911,-320.162 538.469,-315.356 537.533,-322.293"/>
</g>
<!-- Node8 -->
<g id="node8" class="node"><title>Node8</title>
<g id="a_node8"><a xlink:href="namespacetlz.html#aa1be9362f548fcf9378e1fc9074089c4" target="_top" xlink:title="tlz::import_json_file">
<polygon fill="white" stroke="black" points="394,-237.844 394,-256.844 495,-256.844 495,-237.844 394,-237.844"/>
<text text-anchor="middle" x="444.5" y="-244.844" font-family="Helvetica,sans-Serif" font-size="10.00">tlz::import_json_file</text>
</a>
</g>
</g>
<!-- Node7&#45;&gt;Node8 -->
<g id="edge7" class="edge"><title>Node7&#45;&gt;Node8</title>
<path fill="none" stroke="midnightblue" d="M327.151,-217.967C347.457,-223.094 373.523,-229.676 395.834,-235.309"/>
<polygon fill="midnightblue" stroke="midnightblue" points="395.234,-238.767 405.786,-237.822 396.948,-231.98 395.234,-238.767"/>
</g>
<!-- Node9 -->
<g id="node9" class="node"><title>Node9</title>
<g id="a_node9"><a xlink:href="namespacetlz.html#a634de7ca11e100e4a118dffe80376a75" target="_top" xlink:title="tlz::in_filename_arg">
<polygon fill="white" stroke="black" points="394,-199.844 394,-218.844 495,-218.844 495,-199.844 394,-199.844"/>
<text text-anchor="middle" x="444.5" y="-206.844" font-family="Helvetica,sans-Serif" font-size="10.00">tlz::in_filename_arg</text>
</a>
</g>
</g>
<!-- Node7&#45;&gt;Node9 -->
<g id="edge8" class="edge"><title>Node7&#45;&gt;Node9</title>
<path fill="none" stroke="midnightblue" d="M327.151,-209.344C343.838,-209.344 364.416,-209.344 383.603,-209.344"/>
<polygon fill="midnightblue" stroke="midnightblue" points="383.782,-212.845 393.782,-209.344 383.782,-205.845 383.782,-212.845"/>
</g>
<!-- Node10 -->
<g id="node10" class="node"><title>Node10</title>
<g id="a_node10"><a xlink:href="namespacetlz.html#a0621d598fb83b13bf028f3e6293d04f8" target="_top" xlink:title="tlz::string_arg">
<polygon fill="white" stroke="black" points="534.5,-123.844 534.5,-142.844 610.5,-142.844 610.5,-123.844 534.5,-123.844"/>
<text text-anchor="middle" x="572.5" y="-130.844" font-family="Helvetica,sans-Serif" font-size="10.00">tlz::string_arg</text>
</a>
</g>
</g>
<!-- Node9&#45;&gt;Node10 -->
<g id="edge9" class="edge"><title>Node9&#45;&gt;Node10</title>
<path fill="none" stroke="midnightblue" d="M461.458,-199.719C483.044,-186.699 521.748,-163.354 547.024,-148.108"/>
<polygon fill="midnightblue" stroke="midnightblue" points="548.916,-151.054 555.672,-142.892 545.301,-145.06 548.916,-151.054"/>
</g>
<!-- Node11 -->
<g id="node11" class="node"><title>Node11</title>
<g id="a_node11"><a xlink:href="namespacetlz.html#a780431daab8d2595372eacb43143b52d" target="_top" xlink:title="tlz::args">
<polygon fill="white" stroke="black" points="677.5,-161.844 677.5,-180.844 729.5,-180.844 729.5,-161.844 677.5,-161.844"/>
<text text-anchor="middle" x="703.5" y="-168.844" font-family="Helvetica,sans-Serif" font-size="10.00">tlz::args</text>
</a>
</g>
</g>
<!-- Node9&#45;&gt;Node11 -->
<g id="edge15" class="edge"><title>Node9&#45;&gt;Node11</title>
<path fill="none" stroke="midnightblue" d="M495.122,-202.252C528.004,-197.526 572.09,-191.142 611,-185.344 629.56,-182.579 650.224,-179.424 667.213,-176.809"/>
<polygon fill="midnightblue" stroke="midnightblue" points="667.914,-180.243 677.264,-175.26 666.847,-173.325 667.914,-180.243"/>
</g>
<!-- Node13 -->
<g id="node13" class="node"><title>Node13</title>
<g id="a_node13"><a xlink:href="classtlz_1_1args__list.html#a38ad21acd64a4af98ffdf4a47837cdbe" target="_top" xlink:title="tlz::args_list::usage_fail">
<polygon fill="white" stroke="black" points="796,-104.844 796,-123.844 916,-123.844 916,-104.844 796,-104.844"/>
<text text-anchor="middle" x="856" y="-111.844" font-family="Helvetica,sans-Serif" font-size="10.00">tlz::args_list::usage_fail</text>
</a>
</g>
</g>
<!-- Node9&#45;&gt;Node13 -->
<g id="edge16" class="edge"><title>Node9&#45;&gt;Node13</title>
<path fill="none" stroke="midnightblue" d="M495.059,-215.871C558.91,-222.188 672.133,-226.21 760,-190.344 792.22,-177.193 822.318,-149.488 839.679,-131.411"/>
<polygon fill="midnightblue" stroke="midnightblue" points="842.454,-133.568 846.721,-123.87 837.338,-128.79 842.454,-133.568"/>
</g>
<!-- Node15 -->
<g id="node15" class="node"><title>Node15</title>
<g id="a_node15"><a xlink:href="namespacetlz.html#abb019466ea9f56c0dab27e893d891837" target="_top" xlink:title="tlz::file_exists">
<polygon fill="white" stroke="black" points="534,-275.844 534,-294.844 611,-294.844 611,-275.844 534,-275.844"/>
<text text-anchor="middle" x="572.5" y="-282.844" font-family="Helvetica,sans-Serif" font-size="10.00">tlz::file_exists</text>
</a>
</g>
</g>
<!-- Node9&#45;&gt;Node15 -->
<g id="edge14" class="edge"><title>Node9&#45;&gt;Node15</title>
<path fill="none" stroke="midnightblue" d="M478.073,-218.865C484.89,-221.473 491.865,-224.628 498,-228.344 516.565,-239.589 516.795,-248.112 534,-261.344 537.929,-264.366 542.242,-267.38 546.501,-270.2"/>
<polygon fill="midnightblue" stroke="midnightblue" points="544.717,-273.214 555.026,-275.658 548.491,-267.318 544.717,-273.214"/>
</g>
<!-- Node10&#45;&gt;Node11 -->
<g id="edge10" class="edge"><title>Node10&#45;&gt;Node11</title>
<path fill="none" stroke="midnightblue" d="M606.052,-142.933C624.78,-148.45 648.314,-155.383 667.447,-161.019"/>
<polygon fill="midnightblue" stroke="midnightblue" points="666.701,-164.448 677.283,-163.916 668.679,-157.733 666.701,-164.448"/>
</g>
<!-- Node12 -->
<g id="node12" class="node"><title>Node12</title>
<g id="a_node12"><a xlink:href="classtlz_1_1args__list.html#a73d99bc75998dc14607a3a372d28dc6d" target="_top" xlink:title="tlz::args_list::next_arg">
<polygon fill="white" stroke="black" points="647,-104.844 647,-123.844 760,-123.844 760,-104.844 647,-104.844"/>
<text text-anchor="middle" x="703.5" y="-111.844" font-family="Helvetica,sans-Serif" font-size="10.00">tlz::args_list::next_arg</text>
</a>
</g>
</g>
<!-- Node10&#45;&gt;Node12 -->
<g id="edge11" class="edge"><title>Node10&#45;&gt;Node12</title>
<path fill="none" stroke="midnightblue" d="M610.812,-127.849C618.922,-126.654 627.733,-125.357 636.581,-124.054"/>
<polygon fill="midnightblue" stroke="midnightblue" points="637.166,-127.505 646.549,-122.585 636.146,-120.58 637.166,-127.505"/>
</g>
<!-- Node12&#45;&gt;Node13 -->
<g id="edge12" class="edge"><title>Node12&#45;&gt;Node13</title>
<path fill="none" stroke="midnightblue" d="M760.113,-114.344C768.479,-114.344 777.192,-114.344 785.8,-114.344"/>
<polygon fill="midnightblue" stroke="midnightblue" points="785.828,-117.845 795.828,-114.344 785.828,-110.845 785.828,-117.845"/>
</g>
<!-- Node14 -->
<g id="node14" class="node"><title>Node14</title>
<g id="a_node14"><a xlink:href="namespacetlz.html#a8e4f8c8c2927bc4350de13bfa0f8f9e1" target="_top" xlink:title="tlz::to_string">
<polygon fill="white" stroke="black" points="820.5,-63.8445 820.5,-82.8445 891.5,-82.8445 891.5,-63.8445 820.5,-63.8445"/>
<text text-anchor="middle" x="856" y="-70.8445" font-family="Helvetica,sans-Serif" font-size="10.00">tlz::to_string</text>
</a>
</g>
</g>
<!-- Node12&#45;&gt;Node14 -->
<g id="edge13" class="edge"><title>Node12&#45;&gt;Node14</title>
<path fill="none" stroke="midnightblue" d="M739.406,-104.835C760.585,-99.0654 787.819,-91.6464 810.531,-85.4589"/>
<polygon fill="midnightblue" stroke="midnightblue" points="811.555,-88.8076 820.283,-82.8022 809.715,-82.0538 811.555,-88.8076"/>
</g>
<!-- Node16&#45;&gt;Node11 -->
<g id="edge18" class="edge"><title>Node16&#45;&gt;Node11</title>
<path fill="none" stroke="midnightblue" d="M335.738,-142.888C352.841,-146.377 372.776,-150.032 391,-152.344 490.682,-164.993 609.417,-169.287 667.284,-170.693"/>
<polygon fill="midnightblue" stroke="midnightblue" points="667.285,-174.193 677.362,-170.923 667.445,-167.195 667.285,-174.193"/>
</g>
<!-- Node16&#45;&gt;Node12 -->
<g id="edge23" class="edge"><title>Node16&#45;&gt;Node12</title>
<path fill="none" stroke="midnightblue" d="M332.799,-123.834C350.506,-120.069 371.679,-116.2 391,-114.344 475.521,-106.227 573.539,-108.066 636.705,-110.703"/>
<polygon fill="midnightblue" stroke="midnightblue" points="636.779,-114.21 646.922,-111.149 637.084,-107.216 636.779,-114.21"/>
</g>
<!-- Node17 -->
<g id="node17" class="node"><title>Node17</title>
<g id="a_node17"><a xlink:href="classtlz_1_1args__list.html#a4aee93f4b0d9b5b4e7a5d13cb637337c" target="_top" xlink:title="tlz::args_list::has\l_next_arg">
<polygon fill="white" stroke="black" points="398.5,-36.3445 398.5,-66.3445 490.5,-66.3445 490.5,-36.3445 398.5,-36.3445"/>
<text text-anchor="start" x="406.5" y="-54.3445" font-family="Helvetica,sans-Serif" font-size="10.00">tlz::args_list::has</text>
<text text-anchor="middle" x="444.5" y="-43.3445" font-family="Helvetica,sans-Serif" font-size="10.00">_next_arg</text>
</a>
</g>
</g>
<!-- Node16&#45;&gt;Node17 -->
<g id="edge19" class="edge"><title>Node16&#45;&gt;Node17</title>
<path fill="none" stroke="midnightblue" d="M333.45,-123.805C340.866,-121.269 348.355,-118.146 355,-114.344 373.84,-103.566 373.469,-94.1415 391,-81.3445 395.558,-78.0177 400.516,-74.7654 405.505,-71.703"/>
<polygon fill="midnightblue" stroke="midnightblue" points="407.614,-74.5225 414.441,-66.4206 404.051,-68.4967 407.614,-74.5225"/>
</g>
<!-- Node18 -->
<g id="node18" class="node"><title>Node18</title>
<g id="a_node18"><a xlink:href="classtlz_1_1args__list.html#ae7c07d1c8f24c2aa4fe0ba68ec45d353" target="_top" xlink:title="tlz::args_list::next\l_arg_is">
<polygon fill="white" stroke="black" points="656,-55.3445 656,-85.3445 751,-85.3445 751,-55.3445 656,-55.3445"/>
<text text-anchor="start" x="664" y="-73.3445" font-family="Helvetica,sans-Serif" font-size="10.00">tlz::args_list::next</text>
<text text-anchor="middle" x="703.5" y="-62.3445" font-family="Helvetica,sans-Serif" font-size="10.00">_arg_is</text>
</a>
</g>
</g>
<!-- Node16&#45;&gt;Node18 -->
<g id="edge20" class="edge"><title>Node16&#45;&gt;Node18</title>
<path fill="none" stroke="midnightblue" d="M340.441,-123.753C345.748,-121.298 350.76,-118.216 355,-114.344 386.208,-85.8533 355.916,-49.8983 391,-26.3445 476.4,30.9891 604.735,-19.8481 666.614,-50.7294"/>
<polygon fill="midnightblue" stroke="midnightblue" points="665.104,-53.8883 675.603,-55.3101 668.282,-47.6513 665.104,-53.8883"/>
</g>
<!-- Node19 -->
<g id="node19" class="node"><title>Node19</title>
<g id="a_node19"><a xlink:href="namespacetlz.html#a65770a2c1ff57c5ae6542d4465a3d3f4" target="_top" xlink:title="tlz::out_filename_arg">
<polygon fill="white" stroke="black" points="391,-123.844 391,-142.844 498,-142.844 498,-123.844 391,-123.844"/>
<text text-anchor="middle" x="444.5" y="-130.844" font-family="Helvetica,sans-Serif" font-size="10.00">tlz::out_filename_arg</text>
</a>
</g>
</g>
<!-- Node16&#45;&gt;Node19 -->
<g id="edge24" class="edge"><title>Node16&#45;&gt;Node19</title>
<path fill="none" stroke="midnightblue" d="M355.083,-133.344C363.488,-133.344 372.118,-133.344 380.538,-133.344"/>
<polygon fill="midnightblue" stroke="midnightblue" points="380.674,-136.845 390.674,-133.344 380.674,-129.845 380.674,-136.845"/>
</g>
<!-- Node18&#45;&gt;Node13 -->
<g id="edge21" class="edge"><title>Node18&#45;&gt;Node13</title>
<path fill="none" stroke="midnightblue" d="M751.294,-84.0252C770.84,-89.7395 793.389,-96.332 812.459,-101.907"/>
<polygon fill="midnightblue" stroke="midnightblue" points="811.499,-105.273 822.08,-104.72 813.464,-98.5544 811.499,-105.273"/>
</g>
<!-- Node18&#45;&gt;Node14 -->
<g id="edge22" class="edge"><title>Node18&#45;&gt;Node14</title>
<path fill="none" stroke="midnightblue" d="M751.294,-71.2772C769.991,-71.6499 791.437,-72.0774 809.956,-72.4466"/>
<polygon fill="midnightblue" stroke="midnightblue" points="810.124,-75.9505 820.192,-72.6506 810.263,-68.9519 810.124,-75.9505"/>
</g>
<!-- Node19&#45;&gt;Node10 -->
<g id="edge25" class="edge"><title>Node19&#45;&gt;Node10</title>
<path fill="none" stroke="midnightblue" d="M498.205,-133.344C506.835,-133.344 515.73,-133.344 524.218,-133.344"/>
<polygon fill="midnightblue" stroke="midnightblue" points="524.324,-136.845 534.324,-133.344 524.324,-129.845 524.324,-136.845"/>
</g>
<!-- Node21 -->
<g id="node21" class="node"><title>Node21</title>
<g id="a_node21"><a xlink:href="namespacetlz.html#a643b2d03bd805fe78dcd684ef45e52fb" target="_top" xlink:title="Clamp value between minimum and maximum value. ">
<polygon fill="white" stroke="black" points="262.5,-85.8445 262.5,-104.844 321.5,-104.844 321.5,-85.8445 262.5,-85.8445"/>
<text text-anchor="middle" x="292" y="-92.8445" font-family="Helvetica,sans-Serif" font-size="10.00">tlz::clamp</text>
</a>
</g>
</g>
<!-- Node20&#45;&gt;Node21 -->
<g id="edge27" class="edge"><title>Node20&#45;&gt;Node21</title>
<path fill="none" stroke="midnightblue" d="M155.606,-78.9069C180.235,-81.897 221.471,-86.9033 251.977,-90.6069"/>
<polygon fill="midnightblue" stroke="midnightblue" points="251.927,-94.1264 262.276,-91.8572 252.77,-87.1774 251.927,-94.1264"/>
</g>
<!-- Node22 -->
<g id="node22" class="node"><title>Node22</title>
<g id="a_node22"><a xlink:href="namespacetlz.html#a4fe5757a830e199f84d229eee11f616e" target="_top" xlink:title="Compute greatest common divisor of a and b. ">
<polygon fill="white" stroke="black" points="267.5,-47.8445 267.5,-66.8445 316.5,-66.8445 316.5,-47.8445 267.5,-47.8445"/>
<text text-anchor="middle" x="292" y="-54.8445" font-family="Helvetica,sans-Serif" font-size="10.00">tlz::gcd</text>
</a>
</g>
</g>
<!-- Node20&#45;&gt;Node22 -->
<g id="edge28" class="edge"><title>Node20&#45;&gt;Node22</title>
<path fill="none" stroke="midnightblue" d="M155.606,-73.782C181.653,-70.6198 226.275,-65.2025 257.135,-61.4559"/>
<polygon fill="midnightblue" stroke="midnightblue" points="257.918,-64.8866 267.423,-60.2068 257.074,-57.9376 257.918,-64.8866"/>
</g>
<!-- Node23 -->
<g id="node23" class="node"><title>Node23</title>
<g id="a_node23"><a xlink:href="namespacetlz.html#aec6e2158ce198aa20a8493fde3d3b552" target="_top" xlink:title="Compute least common multiple of a and b. ">
<polygon fill="white" stroke="black" points="267.5,-9.84447 267.5,-28.8445 316.5,-28.8445 316.5,-9.84447 267.5,-9.84447"/>
<text text-anchor="middle" x="292" y="-16.8445" font-family="Helvetica,sans-Serif" font-size="10.00">tlz::lcm</text>
</a>
</g>
</g>
<!-- Node20&#45;&gt;Node23 -->
<g id="edge29" class="edge"><title>Node20&#45;&gt;Node23</title>
<path fill="none" stroke="midnightblue" d="M155.696,-67.2199C174.72,-59.175 203.492,-47.3631 229,-38.3445 238.198,-35.0925 248.273,-31.865 257.577,-29.0181"/>
<polygon fill="midnightblue" stroke="midnightblue" points="258.725,-32.3277 267.293,-26.0951 256.709,-25.6245 258.725,-32.3277"/>
</g>
</g>
</svg>
