<?xml version="1.0" encoding="UTF-8" standalone="no"?>
<!DOCTYPE svg PUBLIC "-//W3C//DTD SVG 1.1//EN"
 "http://www.w3.org/Graphics/SVG/1.1/DTD/svg11.dtd">
<!-- Generated by graphviz version 2.38.0 (20140413.2041)
 -->
<!-- Title: main Pages: 1 -->
<svg width="1261pt" height="751pt"
 viewBox="0.00 0.00 1261.00 751.00" xmlns="http://www.w3.org/2000/svg" xmlns:xlink="http://www.w3.org/1999/xlink">
<g id="graph0" class="graph" transform="scale(1 1) rotate(0) translate(4 747)">
<title>main</title>
<polygon fill="white" stroke="none" points="-4,4 -4,-747 1257,-747 1257,4 -4,4"/>
<!-- Node1 -->
<g id="node1" class="node"><title>Node1</title>
<polygon fill="#bfbfbf" stroke="black" points="0,-347 0,-366 38,-366 38,-347 0,-347"/>
<text text-anchor="middle" x="19" y="-354" font-family="Helvetica,sans-Serif" font-size="10.00">main</text>
</g>
<!-- Node2 -->
<g id="node2" class="node"><title>Node2</title>
<g id="a_node2"><a xlink:href="namespacetlz.html#a3c03f5d9d6261ec2909938822fc47f8a" target="_top" xlink:title="tlz::get_args">
<polygon fill="white" stroke="black" points="117.5,-670 117.5,-689 188.5,-689 188.5,-670 117.5,-670"/>
<text text-anchor="middle" x="153" y="-677" font-family="Helvetica,sans-Serif" font-size="10.00">tlz::get_args</text>
</a>
</g>
</g>
<!-- Node1&#45;&gt;Node2 -->
<g id="edge1" class="edge"><title>Node1&#45;&gt;Node2</title>
<path fill="none" stroke="midnightblue" d="M20.3429,-366.227C22.198,-413.225 32.5421,-616.338 74,-660.5 82.7315,-669.801 95.1906,-674.88 107.595,-677.567"/>
<polygon fill="midnightblue" stroke="midnightblue" points="107.015,-681.018 117.46,-679.244 108.188,-674.117 107.015,-681.018"/>
</g>
<!-- Node3 -->
<g id="node3" class="node"><title>Node3</title>
<g id="a_node3"><a xlink:href="namespacetlz.html#a11d8bb3ca89f4957bfde1cd0d5429a16" target="_top" xlink:title="tlz::image_correspondences_arg">
<polygon fill="white" stroke="black" points="74,-480 74,-499 232,-499 232,-480 74,-480"/>
<text text-anchor="middle" x="153" y="-487" font-family="Helvetica,sans-Serif" font-size="10.00">tlz::image_correspondences_arg</text>
</a>
</g>
</g>
<!-- Node1&#45;&gt;Node3 -->
<g id="edge2" class="edge"><title>Node1&#45;&gt;Node3</title>
<path fill="none" stroke="midnightblue" d="M22.0774,-366.256C27.1124,-387.512 41.9834,-438.277 74,-465.5 78.8876,-469.656 84.4864,-473.092 90.3921,-475.934"/>
<polygon fill="midnightblue" stroke="midnightblue" points="89.2924,-479.269 99.8668,-479.928 92.0114,-472.818 89.2924,-479.269"/>
</g>
<!-- Node21 -->
<g id="node21" class="node"><title>Node21</title>
<g id="a_node21"><a xlink:href="namespacetlz.html#a170805c7a8ede64a93e0ee23196e5b7c" target="_top" xlink:title="tlz::intrinsics_arg">
<polygon fill="white" stroke="black" points="107.5,-556 107.5,-575 198.5,-575 198.5,-556 107.5,-556"/>
<text text-anchor="middle" x="153" y="-563" font-family="Helvetica,sans-Serif" font-size="10.00">tlz::intrinsics_arg</text>
</a>
</g>
</g>
<!-- Node1&#45;&gt;Node21 -->
<g id="edge24" class="edge"><title>Node1&#45;&gt;Node21</title>
<path fill="none" stroke="midnightblue" d="M19.8245,-366.109C19.8114,-396.378 23.9738,-490.743 74,-541.5 80.5734,-548.169 88.9517,-552.995 97.7649,-556.484"/>
<polygon fill="midnightblue" stroke="midnightblue" points="96.8395,-559.866 107.434,-559.769 99.0916,-553.238 96.8395,-559.866"/>
</g>
<!-- Node23 -->
<g id="node23" class="node"><title>Node23</title>
<g id="a_node23"><a xlink:href="namespacetlz.html#a066563a26e2de02f215b179f3d3a53da" target="_top" xlink:title="tlz::decode_mat">
<polygon fill="white" stroke="black" points="520,-598 520,-617 606,-617 606,-598 520,-598"/>
<text text-anchor="middle" x="563" y="-605" font-family="Helvetica,sans-Serif" font-size="10.00">tlz::decode_mat</text>
</a>
</g>
</g>
<!-- Node1&#45;&gt;Node23 -->
<g id="edge32" class="edge"><title>Node1&#45;&gt;Node23</title>
<path fill="none" stroke="midnightblue" d="M20.7889,-366.239C24.2296,-406.058 39.331,-555.731 74,-584.5 138.955,-638.402 397.895,-622.391 509.915,-612.597"/>
<polygon fill="midnightblue" stroke="midnightblue" points="510.317,-616.075 519.966,-611.7 509.695,-609.103 510.317,-616.075"/>
</g>
<!-- Node24 -->
<g id="node24" class="node"><title>Node24</title>
<g id="a_node24"><a xlink:href="namespacetlz.html#a35f9e03fa4fd9cec699f5fa27962400f" target="_top" xlink:title="tlz::json_arg">
<polygon fill="white" stroke="black" points="318.5,-556 318.5,-575 388.5,-575 388.5,-556 318.5,-556"/>
<text text-anchor="middle" x="353.5" y="-563" font-family="Helvetica,sans-Serif" font-size="10.00">tlz::json_arg</text>
</a>
</g>
</g>
<!-- Node1&#45;&gt;Node24 -->
<g id="edge33" class="edge"><title>Node1&#45;&gt;Node24</title>
<path fill="none" stroke="midnightblue" d="M20.3257,-366.106C21.7892,-393.088 29.8298,-470.098 74,-508.5 91.5635,-523.77 234.446,-547.483 308.435,-558.907"/>
<polygon fill="midnightblue" stroke="midnightblue" points="307.983,-562.379 318.398,-560.436 309.045,-555.46 307.983,-562.379"/>
</g>
<!-- Node25 -->
<g id="node25" class="node"><title>Node25</title>
<g id="a_node25"><a xlink:href="namespacetlz.html#a13d1bcc21c6eb46a1226f7cf943fcf72" target="_top" xlink:title="tlz::straight_depths_arg">
<polygon fill="white" stroke="black" points="93.5,-632 93.5,-651 212.5,-651 212.5,-632 93.5,-632"/>
<text text-anchor="middle" x="153" y="-639" font-family="Helvetica,sans-Serif" font-size="10.00">tlz::straight_depths_arg</text>
</a>
</g>
</g>
<!-- Node1&#45;&gt;Node25 -->
<g id="edge34" class="edge"><title>Node1&#45;&gt;Node25</title>
<path fill="none" stroke="midnightblue" d="M20.7075,-366.202C24.0056,-408.851 39.2036,-579.25 74,-617.5 77.4859,-621.332 81.5672,-624.559 86.0026,-627.275"/>
<polygon fill="midnightblue" stroke="midnightblue" points="84.4171,-630.396 94.9053,-631.895 87.6414,-624.182 84.4171,-630.396"/>
</g>
<!-- Node27 -->
<g id="node27" class="node"><title>Node27</title>
<g id="a_node27"><a xlink:href="namespacetlz.html#a65770a2c1ff57c5ae6542d4465a3d3f4" target="_top" xlink:title="tlz::out_filename_arg">
<polygon fill="white" stroke="black" points="300,-322 300,-341 407,-341 407,-322 300,-322"/>
<text text-anchor="middle" x="353.5" y="-329" font-family="Helvetica,sans-Serif" font-size="10.00">tlz::out_filename_arg</text>
</a>
</g>
</g>
<!-- Node1&#45;&gt;Node27 -->
<g id="edge38" class="edge"><title>Node1&#45;&gt;Node27</title>
<path fill="none" stroke="midnightblue" d="M38.3503,-355.12C85.451,-351.579 212.337,-342.039 289.678,-336.223"/>
<polygon fill="midnightblue" stroke="midnightblue" points="290.074,-339.704 299.784,-335.464 289.549,-332.723 290.074,-339.704"/>
</g>
<!-- Node28 -->
<g id="node28" class="node"><title>Node28</title>
<g id="a_node28"><a xlink:href="namespacetlz.html#ace8122bb9e3521f3fbaa00a88a1d5928" target="_top" xlink:title="tlz::get_all_views">
<polygon fill="white" stroke="black" points="107,-404 107,-423 199,-423 199,-404 107,-404"/>
<text text-anchor="middle" x="153" y="-411" font-family="Helvetica,sans-Serif" font-size="10.00">tlz::get_all_views</text>
</a>
</g>
</g>
<!-- Node1&#45;&gt;Node28 -->
<g id="edge40" class="edge"><title>Node1&#45;&gt;Node28</title>
<path fill="none" stroke="midnightblue" d="M31.2305,-366.316C41.6484,-374.934 57.9244,-387.204 74,-394.5 81.3086,-397.817 89.2759,-400.603 97.2358,-402.93"/>
<polygon fill="midnightblue" stroke="midnightblue" points="96.3296,-406.31 106.897,-405.544 98.1581,-399.553 96.3296,-406.31"/>
</g>
<!-- Node30 -->
<g id="node30" class="node"><title>Node30</title>
<g id="a_node30"><a xlink:href="namespacetlz.html#adeaba792165d6750fff2c8a9b692d10b" target="_top" xlink:title="tlz::get_feature_names">
<polygon fill="white" stroke="black" points="95,-366 95,-385 211,-385 211,-366 95,-366"/>
<text text-anchor="middle" x="153" y="-373" font-family="Helvetica,sans-Serif" font-size="10.00">tlz::get_feature_names</text>
</a>
</g>
</g>
<!-- Node1&#45;&gt;Node30 -->
<g id="edge42" class="edge"><title>Node1&#45;&gt;Node30</title>
<path fill="none" stroke="midnightblue" d="M38.0773,-359.102C50.3543,-360.869 67.4312,-363.327 84.6321,-365.803"/>
<polygon fill="midnightblue" stroke="midnightblue" points="84.3421,-369.297 94.7387,-367.258 85.3394,-362.369 84.3421,-369.297"/>
</g>
<!-- Node31 -->
<g id="node31" class="node"><title>Node31</title>
<g id="a_node31"><a xlink:href="namespacetlz.html#ae9eeca909bec8ca797356b56d3cfbb90" target="_top" xlink:title="tlz::undistort">
<polygon fill="white" stroke="black" points="117.5,-164 117.5,-183 188.5,-183 188.5,-164 117.5,-164"/>
<text text-anchor="middle" x="153" y="-171" font-family="Helvetica,sans-Serif" font-size="10.00">tlz::undistort</text>
</a>
</g>
</g>
<!-- Node1&#45;&gt;Node31 -->
<g id="edge43" class="edge"><title>Node1&#45;&gt;Node31</title>
<path fill="none" stroke="midnightblue" d="M20.171,-346.74C21.2156,-318.536 28.2342,-236.216 74,-193.5 83.102,-185.005 95.3115,-179.999 107.365,-177.085"/>
<polygon fill="midnightblue" stroke="midnightblue" points="108.254,-180.476 117.381,-175.097 106.891,-173.61 108.254,-180.476"/>
</g>
<!-- Node35 -->
<g id="node35" class="node"><title>Node35</title>
<g id="a_node35"><a xlink:href="namespacetlz.html#a2d22b0db00d90ecf5eb79fd0a5b7bcf9" target="_top" xlink:title="tlz::positions">
<polygon fill="white" stroke="black" points="117,-290 117,-309 189,-309 189,-290 117,-290"/>
<text text-anchor="middle" x="153" y="-297" font-family="Helvetica,sans-Serif" font-size="10.00">tlz::positions</text>
</a>
</g>
</g>
<!-- Node1&#45;&gt;Node35 -->
<g id="edge47" class="edge"><title>Node1&#45;&gt;Node35</title>
<path fill="none" stroke="midnightblue" d="M33.6817,-346.811C44.2936,-339.631 59.5766,-330.002 74,-323.5 84.3836,-318.819 95.9375,-314.711 106.903,-311.278"/>
<polygon fill="midnightblue" stroke="midnightblue" points="108.187,-314.547 116.757,-308.318 106.173,-307.843 108.187,-314.547"/>
</g>
<!-- Node36 -->
<g id="node36" class="node"><title>Node36</title>
<g id="a_node36"><a xlink:href="namespacetlz.html#a1b96e05afba5d411f359ae7b873aa8fe" target="_top" xlink:title="tlz::mul_h">
<polygon fill="white" stroke="black" points="123.5,-252 123.5,-271 182.5,-271 182.5,-252 123.5,-252"/>
<text text-anchor="middle" x="153" y="-259" font-family="Helvetica,sans-Serif" font-size="10.00">tlz::mul_h</text>
</a>
</g>
</g>
<!-- Node1&#45;&gt;Node36 -->
<g id="edge48" class="edge"><title>Node1&#45;&gt;Node36</title>
<path fill="none" stroke="midnightblue" d="M24.0755,-346.877C31.4988,-330.562 48.8167,-297.581 74,-280.5 85.5816,-272.645 100.077,-268.028 113.419,-265.319"/>
<polygon fill="midnightblue" stroke="midnightblue" points="114.077,-268.757 123.33,-263.597 112.878,-261.861 114.077,-268.757"/>
</g>
<!-- Node37 -->
<g id="node37" class="node"><title>Node37</title>
<g id="a_node37"><a xlink:href="cg__straight__depths__from__disparity_8cc.html#a07afa36b0bc8753a0225a357d30a78f0" target="_top" xlink:title="common_view_feature\l_positions">
<polygon fill="white" stroke="black" points="95.5,-202.5 95.5,-232.5 210.5,-232.5 210.5,-202.5 95.5,-202.5"/>
<text text-anchor="start" x="103.5" y="-220.5" font-family="Helvetica,sans-Serif" font-size="10.00">common_view_feature</text>
<text text-anchor="middle" x="153" y="-209.5" font-family="Helvetica,sans-Serif" font-size="10.00">_positions</text>
</a>
</g>
</g>
<!-- Node1&#45;&gt;Node37 -->
<g id="edge49" class="edge"><title>Node1&#45;&gt;Node37</title>
<path fill="none" stroke="midnightblue" d="M21.8212,-346.991C26.482,-325.239 40.8861,-271.502 74,-242.5 77.6839,-239.274 81.7882,-236.463 86.1331,-234.014"/>
<polygon fill="midnightblue" stroke="midnightblue" points="87.9099,-237.04 95.3319,-229.48 84.8149,-230.762 87.9099,-237.04"/>
</g>
<!-- Node38 -->
<g id="node38" class="node"><title>Node38</title>
<g id="a_node38"><a xlink:href="cg__straight__depths__from__disparity_8cc.html#a4f882a50925fe8d08a6837020bdbd420" target="_top" xlink:title="estimate_relative_scale">
<polygon fill="white" stroke="black" points="93.5,-50 93.5,-69 212.5,-69 212.5,-50 93.5,-50"/>
<text text-anchor="middle" x="153" y="-57" font-family="Helvetica,sans-Serif" font-size="10.00">estimate_relative_scale</text>
</a>
</g>
</g>
<!-- Node1&#45;&gt;Node38 -->
<g id="edge50" class="edge"><title>Node1&#45;&gt;Node38</title>
<path fill="none" stroke="midnightblue" d="M20.5212,-346.722C23.0965,-302.122 35.905,-118.432 74,-78.5 77.0305,-75.3233 80.4962,-72.6408 84.2441,-70.3788"/>
<polygon fill="midnightblue" stroke="midnightblue" points="86.0216,-73.4042 93.4293,-65.8295 82.9147,-67.1315 86.0216,-73.4042"/>
</g>
<!-- Node43 -->
<g id="node43" class="node"><title>Node43</title>
<g id="a_node43"><a xlink:href="cg__straight__depths__from__disparity_8cc.html#a5d2d28b02b011f2543488ffbd0c3e7d3" target="_top" xlink:title="compute_global_ratios">
<polygon fill="white" stroke="black" points="96,-126 96,-145 210,-145 210,-126 96,-126"/>
<text text-anchor="middle" x="153" y="-133" font-family="Helvetica,sans-Serif" font-size="10.00">compute_global_ratios</text>
</a>
</g>
</g>
<!-- Node1&#45;&gt;Node43 -->
<g id="edge55" class="edge"><title>Node1&#45;&gt;Node43</title>
<path fill="none" stroke="midnightblue" d="M19.4179,-346.815C18.0387,-314.457 18.201,-209.069 74,-154.5 77.704,-150.878 81.9769,-147.907 86.5754,-145.474"/>
<polygon fill="midnightblue" stroke="midnightblue" points="88.015,-148.665 95.7558,-141.431 85.1934,-142.258 88.015,-148.665"/>
</g>
<!-- Node44 -->
<g id="node44" class="node"><title>Node44</title>
<g id="a_node44"><a xlink:href="cg__straight__depths__from__disparity_8cc.html#a42c2349df5d8cca5b71a04a8027740a8" target="_top" xlink:title="complete_depths">
<polygon fill="white" stroke="black" points="107.5,-88 107.5,-107 198.5,-107 198.5,-88 107.5,-88"/>
<text text-anchor="middle" x="153" y="-95" font-family="Helvetica,sans-Serif" font-size="10.00">complete_depths</text>
</a>
</g>
</g>
<!-- Node1&#45;&gt;Node44 -->
<g id="edge56" class="edge"><title>Node1&#45;&gt;Node44</title>
<path fill="none" stroke="midnightblue" d="M20.8214,-346.987C24.493,-306.667 40.7005,-150.391 74,-116.5 80.4562,-109.929 88.7778,-105.485 97.5714,-102.507"/>
<polygon fill="midnightblue" stroke="midnightblue" points="98.5362,-105.871 107.233,-99.8195 96.6604,-99.1272 98.5362,-105.871"/>
</g>
<!-- Node45 -->
<g id="node45" class="node"><title>Node45</title>
<g id="a_node45"><a xlink:href="namespacetlz.html#ab98de0b10e3e079dee189f81adc638a0" target="_top" xlink:title="tlz::export_json_file">
<polygon fill="white" stroke="black" points="303,-415 303,-434 404,-434 404,-415 303,-415"/>
<text text-anchor="middle" x="353.5" y="-422" font-family="Helvetica,sans-Serif" font-size="10.00">tlz::export_json_file</text>
</a>
</g>
</g>
<!-- Node1&#45;&gt;Node45 -->
<g id="edge58" class="edge"><title>Node1&#45;&gt;Node45</title>
<path fill="none" stroke="midnightblue" d="M23.4679,-366.237C30.1639,-383.362 46.6728,-418.394 74,-432.5 151.083,-472.29 256.842,-452.405 313.271,-436.927"/>
<polygon fill="midnightblue" stroke="midnightblue" points="314.551,-440.202 323.215,-434.104 312.639,-433.468 314.551,-440.202"/>
</g>
<!-- Node46 -->
<g id="node46" class="node"><title>Node46</title>
<g id="a_node46"><a xlink:href="namespacetlz.html#a37f6b5c348f5171c91d6eaf80374e40d" target="_top" xlink:title="tlz::encode_straight\l_depths">
<polygon fill="white" stroke="black" points="102,-0.5 102,-30.5 204,-30.5 204,-0.5 102,-0.5"/>
<text text-anchor="start" x="110" y="-18.5" font-family="Helvetica,sans-Serif" font-size="10.00">tlz::encode_straight</text>
<text text-anchor="middle" x="153" y="-7.5" font-family="Helvetica,sans-Serif" font-size="10.00">_depths</text>
</a>
</g>
</g>
<!-- Node1&#45;&gt;Node46 -->
<g id="edge60" class="edge"><title>Node1&#45;&gt;Node46</title>
<path fill="none" stroke="midnightblue" d="M20.3398,-346.775C22.205,-298.838 32.6787,-88.0967 74,-40.5 78.9991,-34.7417 85.3264,-30.2988 92.2061,-26.8729"/>
<polygon fill="midnightblue" stroke="midnightblue" points="94.0025,-29.914 101.857,-22.8037 91.2828,-23.4639 94.0025,-29.914"/>
</g>
<!-- Node4 -->
<g id="node4" class="node"><title>Node4</title>
<g id="a_node4"><a xlink:href="namespacetlz.html#ad75d99f2e1623434fbadee66f3ff29a1" target="_top" xlink:title="tlz::import_image_correspondences">
<polygon fill="white" stroke="black" points="268,-491 268,-510 439,-510 439,-491 268,-491"/>
<text text-anchor="middle" x="353.5" y="-498" font-family="Helvetica,sans-Serif" font-size="10.00">tlz::import_image_correspondences</text>
</a>
</g>
</g>
<!-- Node3&#45;&gt;Node4 -->
<g id="edge3" class="edge"><title>Node3&#45;&gt;Node4</title>
<path fill="none" stroke="midnightblue" d="M232.168,-493.832C240.589,-494.298 249.223,-494.777 257.812,-495.253"/>
<polygon fill="midnightblue" stroke="midnightblue" points="257.679,-498.751 267.857,-495.809 258.066,-491.761 257.679,-498.751"/>
</g>
<!-- Node14 -->
<g id="node14" class="node"><title>Node14</title>
<g id="a_node14"><a xlink:href="namespacetlz.html#a634de7ca11e100e4a118dffe80376a75" target="_top" xlink:title="tlz::in_filename_arg">
<polygon fill="white" stroke="black" points="512.5,-434 512.5,-453 613.5,-453 613.5,-434 512.5,-434"/>
<text text-anchor="middle" x="563" y="-441" font-family="Helvetica,sans-Serif" font-size="10.00">tlz::in_filename_arg</text>
</a>
</g>
</g>
<!-- Node3&#45;&gt;Node14 -->
<g id="edge15" class="edge"><title>Node3&#45;&gt;Node14</title>
<path fill="none" stroke="midnightblue" d="M232.184,-480.685C310.916,-471.808 430.67,-458.307 502.147,-450.248"/>
<polygon fill="midnightblue" stroke="midnightblue" points="502.787,-453.698 512.332,-449.1 502.003,-446.742 502.787,-453.698"/>
</g>
<!-- Node5 -->
<g id="node5" class="node"><title>Node5</title>
<g id="a_node5"><a xlink:href="namespacetlz.html#ae11c827ac9e581f9d2f98c39aab3750d" target="_top" xlink:title="tlz::file_name_extension">
<polygon fill="white" stroke="black" points="502,-396 502,-415 624,-415 624,-396 502,-396"/>
<text text-anchor="middle" x="563" y="-403" font-family="Helvetica,sans-Serif" font-size="10.00">tlz::file_name_extension</text>
</a>
</g>
</g>
<!-- Node4&#45;&gt;Node5 -->
<g id="edge4" class="edge"><title>Node4&#45;&gt;Node5</title>
<path fill="none" stroke="midnightblue" d="M368.374,-490.886C395.046,-472.551 452.8,-433.596 475,-424.5 481.248,-421.94 487.896,-419.701 494.625,-417.747"/>
<polygon fill="midnightblue" stroke="midnightblue" points="495.762,-421.066 504.507,-415.085 493.941,-414.307 495.762,-421.066"/>
</g>
<!-- Node6 -->
<g id="node6" class="node"><title>Node6</title>
<g id="a_node6"><a xlink:href="namespacetlz.html#a24915249769d936c24ceb34f50b06104" target="_top" xlink:title="tlz::decode_image_correspondences">
<polygon fill="white" stroke="black" points="475,-472 475,-491 651,-491 651,-472 475,-472"/>
<text text-anchor="middle" x="563" y="-479" font-family="Helvetica,sans-Serif" font-size="10.00">tlz::decode_image_correspondences</text>
</a>
</g>
</g>
<!-- Node4&#45;&gt;Node6 -->
<g id="edge5" class="edge"><title>Node4&#45;&gt;Node6</title>
<path fill="none" stroke="midnightblue" d="M439.197,-492.745C447.655,-491.97 456.287,-491.18 464.859,-490.395"/>
<polygon fill="midnightblue" stroke="midnightblue" points="465.24,-493.875 474.879,-489.477 464.602,-486.904 465.24,-493.875"/>
</g>
<!-- Node12 -->
<g id="node12" class="node"><title>Node12</title>
<g id="a_node12"><a xlink:href="namespacetlz.html#aa1be9362f548fcf9378e1fc9074089c4" target="_top" xlink:title="tlz::import_json_file">
<polygon fill="white" stroke="black" points="512.5,-560 512.5,-579 613.5,-579 613.5,-560 512.5,-560"/>
<text text-anchor="middle" x="563" y="-567" font-family="Helvetica,sans-Serif" font-size="10.00">tlz::import_json_file</text>
</a>
</g>
</g>
<!-- Node4&#45;&gt;Node12 -->
<g id="edge13" class="edge"><title>Node4&#45;&gt;Node12</title>
<path fill="none" stroke="midnightblue" d="M374.557,-510.123C398.146,-521.132 438.695,-539.104 475,-550.5 483.774,-553.254 493.168,-555.754 502.42,-557.97"/>
<polygon fill="midnightblue" stroke="midnightblue" points="501.837,-561.427 512.368,-560.261 503.408,-554.606 501.837,-561.427"/>
</g>
<!-- Node13 -->
<g id="node13" class="node"><title>Node13</title>
<g id="a_node13"><a xlink:href="namespacetlz.html#a2ec439452fda5eeb03f60715e50fa96a" target="_top" xlink:title="tlz::import_binary\l_image_correspondences">
<polygon fill="white" stroke="black" points="499,-510.5 499,-540.5 627,-540.5 627,-510.5 499,-510.5"/>
<text text-anchor="start" x="507" y="-528.5" font-family="Helvetica,sans-Serif" font-size="10.00">tlz::import_binary</text>
<text text-anchor="middle" x="563" y="-517.5" font-family="Helvetica,sans-Serif" font-size="10.00">_image_correspondences</text>
</a>
</g>
</g>
<!-- Node4&#45;&gt;Node13 -->
<g id="edge14" class="edge"><title>Node4&#45;&gt;Node13</title>
<path fill="none" stroke="midnightblue" d="M433.539,-510.023C451.718,-512.213 470.972,-514.533 488.888,-516.691"/>
<polygon fill="midnightblue" stroke="midnightblue" points="488.627,-520.185 498.974,-517.907 489.465,-513.235 488.627,-520.185"/>
</g>
<!-- Node7 -->
<g id="node7" class="node"><title>Node7</title>
<g id="a_node7"><a xlink:href="namespacetlz.html#a252af14b9b4ac6502d3e9c5dd8dc90b8" target="_top" xlink:title="tlz::has">
<polygon fill="white" stroke="black" points="1204,-573 1204,-592 1253,-592 1253,-573 1204,-573"/>
<text text-anchor="middle" x="1228.5" y="-580" font-family="Helvetica,sans-Serif" font-size="10.00">tlz::has</text>
</a>
</g>
</g>
<!-- Node6&#45;&gt;Node7 -->
<g id="edge6" class="edge"><title>Node6&#45;&gt;Node7</title>
<path fill="none" stroke="midnightblue" d="M651.058,-475.413C771.484,-470.133 993.757,-471.834 1168,-538.5 1183.87,-544.573 1199.23,-556.118 1210.36,-565.858"/>
<polygon fill="midnightblue" stroke="midnightblue" points="1208.25,-568.671 1217.99,-572.835 1212.98,-563.504 1208.25,-568.671"/>
</g>
<!-- Node8 -->
<g id="node8" class="node"><title>Node8</title>
<g id="a_node8"><a xlink:href="namespacetlz.html#ab83b0eb933afca1abe8ccd3470207691" target="_top" xlink:title="tlz::decode_image_correspondence\l_feature">
<polygon fill="white" stroke="black" points="687,-526.5 687,-556.5 857,-556.5 857,-526.5 687,-526.5"/>
<text text-anchor="start" x="695" y="-544.5" font-family="Helvetica,sans-Serif" font-size="10.00">tlz::decode_image_correspondence</text>
<text text-anchor="middle" x="772" y="-533.5" font-family="Helvetica,sans-Serif" font-size="10.00">_feature</text>
</a>
</g>
</g>
<!-- Node6&#45;&gt;Node8 -->
<g id="edge7" class="edge"><title>Node6&#45;&gt;Node8</title>
<path fill="none" stroke="midnightblue" d="M609.363,-491.064C622.832,-494.136 637.571,-497.728 651,-501.5 673.632,-507.858 698.319,-515.892 719.385,-523.09"/>
<polygon fill="midnightblue" stroke="midnightblue" points="718.504,-526.488 729.098,-526.437 720.784,-519.87 718.504,-526.488"/>
</g>
<!-- Node8&#45;&gt;Node7 -->
<g id="edge8" class="edge"><title>Node8&#45;&gt;Node7</title>
<path fill="none" stroke="midnightblue" d="M857.243,-539.128C869.244,-538.867 881.435,-538.645 893,-538.5 945.885,-537.839 959.379,-533.183 1012,-538.5 1077.28,-545.096 1152.02,-562.661 1194.1,-573.498"/>
<polygon fill="midnightblue" stroke="midnightblue" points="1193.26,-576.896 1203.82,-576.031 1195.03,-570.122 1193.26,-576.896"/>
</g>
<!-- Node9 -->
<g id="node9" class="node"><title>Node9</title>
<g id="a_node9"><a xlink:href="namespacetlz.html#a74e8454f97dace7cffb1afdb6d3ca87b" target="_top" xlink:title="tlz::decode_view_index">
<polygon fill="white" stroke="black" points="893,-548 893,-567 1012,-567 1012,-548 893,-548"/>
<text text-anchor="middle" x="952.5" y="-555" font-family="Helvetica,sans-Serif" font-size="10.00">tlz::decode_view_index</text>
</a>
</g>
</g>
<!-- Node8&#45;&gt;Node9 -->
<g id="edge9" class="edge"><title>Node8&#45;&gt;Node9</title>
<path fill="none" stroke="midnightblue" d="M857.023,-549.031C865.638,-549.804 874.317,-550.582 882.739,-551.337"/>
<polygon fill="midnightblue" stroke="midnightblue" points="882.591,-554.837 892.863,-552.244 883.216,-547.865 882.591,-554.837"/>
</g>
<!-- Node10 -->
<g id="node10" class="node"><title>Node10</title>
<g id="a_node10"><a xlink:href="namespacetlz.html#ae8f9175a86bbe49ac0f4485d5db3080b" target="_top" xlink:title="tlz::decode_feature\l_point">
<polygon fill="white" stroke="black" points="902.5,-586.5 902.5,-616.5 1002.5,-616.5 1002.5,-586.5 902.5,-586.5"/>
<text text-anchor="start" x="910.5" y="-604.5" font-family="Helvetica,sans-Serif" font-size="10.00">tlz::decode_feature</text>
<text text-anchor="middle" x="952.5" y="-593.5" font-family="Helvetica,sans-Serif" font-size="10.00">_point</text>
</a>
</g>
</g>
<!-- Node8&#45;&gt;Node10 -->
<g id="edge10" class="edge"><title>Node8&#45;&gt;Node10</title>
<path fill="none" stroke="midnightblue" d="M818.043,-556.641C842.023,-564.701 871.698,-574.676 896.972,-583.171"/>
<polygon fill="midnightblue" stroke="midnightblue" points="896.187,-586.6 906.781,-586.468 898.417,-579.965 896.187,-586.6"/>
</g>
<!-- Node11 -->
<g id="node11" class="node"><title>Node11</title>
<g id="a_node11"><a xlink:href="namespacetlz.html#add846dc50c32dfb356cb1a7ac11d37ac" target="_top" xlink:title="tlz::get_or">
<polygon fill="white" stroke="black" points="1078,-674 1078,-693 1138,-693 1138,-674 1078,-674"/>
<text text-anchor="middle" x="1108" y="-681" font-family="Helvetica,sans-Serif" font-size="10.00">tlz::get_or</text>
</a>
</g>
</g>
<!-- Node10&#45;&gt;Node11 -->
<g id="edge11" class="edge"><title>Node10&#45;&gt;Node11</title>
<path fill="none" stroke="midnightblue" d="M981.654,-616.54C1009.68,-631.512 1052.4,-654.33 1080.01,-669.081"/>
<polygon fill="midnightblue" stroke="midnightblue" points="1078.63,-672.311 1089.1,-673.936 1081.92,-666.137 1078.63,-672.311"/>
</g>
<!-- Node11&#45;&gt;Node7 -->
<g id="edge12" class="edge"><title>Node11&#45;&gt;Node7</title>
<path fill="none" stroke="midnightblue" d="M1138.22,-675.077C1148.27,-671.314 1159.19,-666.189 1168,-659.5 1189.03,-643.526 1206.56,-618.349 1217.03,-601.165"/>
<polygon fill="midnightblue" stroke="midnightblue" points="1220.3,-602.498 1222.35,-592.101 1214.27,-598.955 1220.3,-602.498"/>
</g>
<!-- Node15 -->
<g id="node15" class="node"><title>Node15</title>
<g id="a_node15"><a xlink:href="namespacetlz.html#a0621d598fb83b13bf028f3e6293d04f8" target="_top" xlink:title="tlz::string_arg">
<polygon fill="white" stroke="black" points="734,-320 734,-339 810,-339 810,-320 734,-320"/>
<text text-anchor="middle" x="772" y="-327" font-family="Helvetica,sans-Serif" font-size="10.00">tlz::string_arg</text>
</a>
</g>
</g>
<!-- Node14&#45;&gt;Node15 -->
<g id="edge16" class="edge"><title>Node14&#45;&gt;Node15</title>
<path fill="none" stroke="midnightblue" d="M613.775,-440.349C626.904,-437.558 640.36,-432.728 651,-424.5 678.987,-402.856 659.711,-376.018 687,-353.5 697.441,-344.884 710.811,-339.359 723.8,-335.817"/>
<polygon fill="midnightblue" stroke="midnightblue" points="724.689,-339.203 733.603,-333.476 723.063,-332.394 724.689,-339.203"/>
</g>
<!-- Node16 -->
<g id="node16" class="node"><title>Node16</title>
<g id="a_node16"><a xlink:href="namespacetlz.html#a780431daab8d2595372eacb43143b52d" target="_top" xlink:title="tlz::args">
<polygon fill="white" stroke="black" points="926.5,-358 926.5,-377 978.5,-377 978.5,-358 926.5,-358"/>
<text text-anchor="middle" x="952.5" y="-365" font-family="Helvetica,sans-Serif" font-size="10.00">tlz::args</text>
</a>
</g>
</g>
<!-- Node14&#45;&gt;Node16 -->
<g id="edge22" class="edge"><title>Node14&#45;&gt;Node16</title>
<path fill="none" stroke="midnightblue" d="M613.888,-437.291C626.459,-434.483 639.609,-430.408 651,-424.5 670.268,-414.506 667.148,-400.275 687,-391.5 763.344,-357.753 863.979,-359.732 916.375,-363.786"/>
<polygon fill="midnightblue" stroke="midnightblue" points="916.234,-367.287 926.493,-364.643 916.824,-360.312 916.234,-367.287"/>
</g>
<!-- Node18 -->
<g id="node18" class="node"><title>Node18</title>
<g id="a_node18"><a xlink:href="classtlz_1_1args__list.html#a38ad21acd64a4af98ffdf4a47837cdbe" target="_top" xlink:title="tlz::args_list::usage_fail">
<polygon fill="white" stroke="black" points="1048,-377 1048,-396 1168,-396 1168,-377 1048,-377"/>
<text text-anchor="middle" x="1108" y="-384" font-family="Helvetica,sans-Serif" font-size="10.00">tlz::args_list::usage_fail</text>
</a>
</g>
</g>
<!-- Node14&#45;&gt;Node18 -->
<g id="edge23" class="edge"><title>Node14&#45;&gt;Node18</title>
<path fill="none" stroke="midnightblue" d="M613.575,-435.113C635.959,-431.515 662.764,-427.465 687,-424.5 810.131,-409.435 954.252,-397.666 1037.64,-391.429"/>
<polygon fill="midnightblue" stroke="midnightblue" points="1038.04,-394.909 1047.75,-390.678 1037.52,-387.928 1038.04,-394.909"/>
</g>
<!-- Node20 -->
<g id="node20" class="node"><title>Node20</title>
<g id="a_node20"><a xlink:href="namespacetlz.html#abb019466ea9f56c0dab27e893d891837" target="_top" xlink:title="tlz::file_exists">
<polygon fill="white" stroke="black" points="733.5,-434 733.5,-453 810.5,-453 810.5,-434 733.5,-434"/>
<text text-anchor="middle" x="772" y="-441" font-family="Helvetica,sans-Serif" font-size="10.00">tlz::file_exists</text>
</a>
</g>
</g>
<!-- Node14&#45;&gt;Node20 -->
<g id="edge21" class="edge"><title>Node14&#45;&gt;Node20</title>
<path fill="none" stroke="midnightblue" d="M613.582,-443.5C646.823,-443.5 690.36,-443.5 723.22,-443.5"/>
<polygon fill="midnightblue" stroke="midnightblue" points="723.488,-447 733.488,-443.5 723.488,-440 723.488,-447"/>
</g>
<!-- Node15&#45;&gt;Node16 -->
<g id="edge17" class="edge"><title>Node15&#45;&gt;Node16</title>
<path fill="none" stroke="midnightblue" d="M810.419,-337.466C841.739,-344.134 886.091,-353.575 916.665,-360.084"/>
<polygon fill="midnightblue" stroke="midnightblue" points="915.957,-363.512 926.467,-362.171 917.415,-356.665 915.957,-363.512"/>
</g>
<!-- Node17 -->
<g id="node17" class="node"><title>Node17</title>
<g id="a_node17"><a xlink:href="classtlz_1_1args__list.html#a73d99bc75998dc14607a3a372d28dc6d" target="_top" xlink:title="tlz::args_list::next_arg">
<polygon fill="white" stroke="black" points="896,-320 896,-339 1009,-339 1009,-320 896,-320"/>
<text text-anchor="middle" x="952.5" y="-327" font-family="Helvetica,sans-Serif" font-size="10.00">tlz::args_list::next_arg</text>
</a>
</g>
</g>
<!-- Node15&#45;&gt;Node17 -->
<g id="edge18" class="edge"><title>Node15&#45;&gt;Node17</title>
<path fill="none" stroke="midnightblue" d="M810.419,-329.5C832.163,-329.5 860.188,-329.5 885.524,-329.5"/>
<polygon fill="midnightblue" stroke="midnightblue" points="885.819,-333 895.819,-329.5 885.819,-326 885.819,-333"/>
</g>
<!-- Node17&#45;&gt;Node18 -->
<g id="edge19" class="edge"><title>Node17&#45;&gt;Node18</title>
<path fill="none" stroke="midnightblue" d="M984.296,-339.078C993.27,-341.984 1003.06,-345.266 1012,-348.5 1033.1,-356.136 1056.5,-365.486 1074.8,-373.001"/>
<polygon fill="midnightblue" stroke="midnightblue" points="1073.55,-376.272 1084.13,-376.855 1076.22,-369.802 1073.55,-376.272"/>
</g>
<!-- Node19 -->
<g id="node19" class="node"><title>Node19</title>
<g id="a_node19"><a xlink:href="namespacetlz.html#a8e4f8c8c2927bc4350de13bfa0f8f9e1" target="_top" xlink:title="tlz::to_string">
<polygon fill="white" stroke="black" points="1072.5,-320 1072.5,-339 1143.5,-339 1143.5,-320 1072.5,-320"/>
<text text-anchor="middle" x="1108" y="-327" font-family="Helvetica,sans-Serif" font-size="10.00">tlz::to_string</text>
</a>
</g>
</g>
<!-- Node17&#45;&gt;Node19 -->
<g id="edge20" class="edge"><title>Node17&#45;&gt;Node19</title>
<path fill="none" stroke="midnightblue" d="M1009.35,-329.5C1026.65,-329.5 1045.48,-329.5 1061.95,-329.5"/>
<polygon fill="midnightblue" stroke="midnightblue" points="1062.39,-333 1072.39,-329.5 1062.39,-326 1062.39,-333"/>
</g>
<!-- Node22 -->
<g id="node22" class="node"><title>Node22</title>
<g id="a_node22"><a xlink:href="namespacetlz.html#a8cba4853d0d796a01c72f59f36f2a492" target="_top" xlink:title="tlz::decode_intrinsics">
<polygon fill="white" stroke="black" points="299,-633 299,-652 408,-652 408,-633 299,-633"/>
<text text-anchor="middle" x="353.5" y="-640" font-family="Helvetica,sans-Serif" font-size="10.00">tlz::decode_intrinsics</text>
</a>
</g>
</g>
<!-- Node21&#45;&gt;Node22 -->
<g id="edge25" class="edge"><title>Node21&#45;&gt;Node22</title>
<path fill="none" stroke="midnightblue" d="M178.739,-575.096C213.901,-588.736 278.466,-613.782 318.222,-629.203"/>
<polygon fill="midnightblue" stroke="midnightblue" points="317.173,-632.55 327.762,-632.904 319.705,-626.024 317.173,-632.55"/>
</g>
<!-- Node21&#45;&gt;Node24 -->
<g id="edge29" class="edge"><title>Node21&#45;&gt;Node24</title>
<path fill="none" stroke="midnightblue" d="M198.547,-565.5C231.244,-565.5 275.458,-565.5 308.116,-565.5"/>
<polygon fill="midnightblue" stroke="midnightblue" points="308.284,-569 318.284,-565.5 308.284,-562 308.284,-569"/>
</g>
<!-- Node22&#45;&gt;Node7 -->
<g id="edge27" class="edge"><title>Node22&#45;&gt;Node7</title>
<path fill="none" stroke="midnightblue" d="M408.084,-643.133C487.381,-644.013 640.66,-645.5 771,-645.5 771,-645.5 771,-645.5 953.5,-645.5 1042.27,-645.5 1143.21,-613.702 1194.22,-595.287"/>
<polygon fill="midnightblue" stroke="midnightblue" points="1195.55,-598.526 1203.73,-591.796 1193.14,-591.954 1195.55,-598.526"/>
</g>
<!-- Node22&#45;&gt;Node11 -->
<g id="edge28" class="edge"><title>Node22&#45;&gt;Node11</title>
<path fill="none" stroke="midnightblue" d="M408.051,-651.251C428.893,-654.343 453.009,-657.536 475,-659.5 698.705,-679.475 968.405,-682.852 1067.78,-683.402"/>
<polygon fill="midnightblue" stroke="midnightblue" points="1067.94,-686.903 1077.96,-683.452 1067.97,-679.903 1067.94,-686.903"/>
</g>
<!-- Node22&#45;&gt;Node23 -->
<g id="edge26" class="edge"><title>Node22&#45;&gt;Node23</title>
<path fill="none" stroke="midnightblue" d="M408.206,-633.441C439.493,-628.164 478.764,-621.54 509.79,-616.306"/>
<polygon fill="midnightblue" stroke="midnightblue" points="510.695,-619.703 519.973,-614.589 509.53,-612.801 510.695,-619.703"/>
</g>
<!-- Node24&#45;&gt;Node12 -->
<g id="edge30" class="edge"><title>Node24&#45;&gt;Node12</title>
<path fill="none" stroke="midnightblue" d="M388.764,-566.161C419.488,-566.753 465.256,-567.635 502.035,-568.344"/>
<polygon fill="midnightblue" stroke="midnightblue" points="502.084,-571.846 512.15,-568.539 502.219,-564.847 502.084,-571.846"/>
</g>
<!-- Node24&#45;&gt;Node14 -->
<g id="edge31" class="edge"><title>Node24&#45;&gt;Node14</title>
<path fill="none" stroke="midnightblue" d="M379.551,-555.907C397.588,-548.098 421.694,-535.719 439,-519.5 460.862,-499.01 450.462,-479.695 475,-462.5 483.166,-456.777 492.74,-452.732 502.494,-449.883"/>
<polygon fill="midnightblue" stroke="midnightblue" points="503.425,-453.257 512.263,-447.414 501.71,-446.471 503.425,-453.257"/>
</g>
<!-- Node25&#45;&gt;Node24 -->
<g id="edge37" class="edge"><title>Node25&#45;&gt;Node24</title>
<path fill="none" stroke="midnightblue" d="M179.14,-631.875C214.34,-618.398 278.432,-593.858 318.051,-578.689"/>
<polygon fill="midnightblue" stroke="midnightblue" points="319.477,-581.892 327.564,-575.047 316.974,-575.354 319.477,-581.892"/>
</g>
<!-- Node26 -->
<g id="node26" class="node"><title>Node26</title>
<g id="a_node26"><a xlink:href="namespacetlz.html#a18ebdbd3058b74f2195388d86343b21d" target="_top" xlink:title="tlz::decode_straight\l_depths">
<polygon fill="white" stroke="black" points="721,-712.5 721,-742.5 823,-742.5 823,-712.5 721,-712.5"/>
<text text-anchor="start" x="729" y="-730.5" font-family="Helvetica,sans-Serif" font-size="10.00">tlz::decode_straight</text>
<text text-anchor="middle" x="772" y="-719.5" font-family="Helvetica,sans-Serif" font-size="10.00">_depths</text>
</a>
</g>
</g>
<!-- Node25&#45;&gt;Node26 -->
<g id="edge35" class="edge"><title>Node25&#45;&gt;Node26</title>
<path fill="none" stroke="midnightblue" d="M208.216,-651.029C227.132,-654.348 248.503,-658.094 268,-661.5 359.988,-677.568 382.489,-684.784 475,-697.5 556.387,-708.687 650.899,-717.553 710.813,-722.664"/>
<polygon fill="midnightblue" stroke="midnightblue" points="710.595,-726.158 720.855,-723.513 711.185,-719.183 710.595,-726.158"/>
</g>
<!-- Node26&#45;&gt;Node11 -->
<g id="edge36" class="edge"><title>Node26&#45;&gt;Node11</title>
<path fill="none" stroke="midnightblue" d="M823.397,-721.492C871.795,-715.648 946.947,-706.375 1012,-697.5 1030.33,-694.999 1050.62,-692.036 1067.72,-689.481"/>
<polygon fill="midnightblue" stroke="midnightblue" points="1068.55,-692.897 1077.92,-687.951 1067.51,-685.974 1068.55,-692.897"/>
</g>
<!-- Node27&#45;&gt;Node15 -->
<g id="edge39" class="edge"><title>Node27&#45;&gt;Node15</title>
<path fill="none" stroke="midnightblue" d="M407.25,-331.247C489.16,-330.853 645.639,-330.102 723.936,-329.726"/>
<polygon fill="midnightblue" stroke="midnightblue" points="724.012,-333.226 733.996,-329.678 723.979,-326.226 724.012,-333.226"/>
</g>
<!-- Node29 -->
<g id="node29" class="node"><title>Node29</title>
<g id="a_node29"><a xlink:href="namespacetlz.html#a5649e44b2c9d8527dcdcc6282b4850c3" target="_top" xlink:title="tlz::get_all_views_set">
<polygon fill="white" stroke="black" points="298,-377 298,-396 409,-396 409,-377 298,-377"/>
<text text-anchor="middle" x="353.5" y="-384" font-family="Helvetica,sans-Serif" font-size="10.00">tlz::get_all_views_set</text>
</a>
</g>
</g>
<!-- Node28&#45;&gt;Node29 -->
<g id="edge41" class="edge"><title>Node28&#45;&gt;Node29</title>
<path fill="none" stroke="midnightblue" d="M199.043,-407.373C225.237,-403.81 258.698,-399.259 287.686,-395.316"/>
<polygon fill="midnightblue" stroke="midnightblue" points="288.297,-398.765 297.734,-393.949 287.353,-391.829 288.297,-398.765"/>
</g>
<!-- Node32 -->
<g id="node32" class="node"><title>Node32</title>
<g id="a_node32"><a xlink:href="namespacetlz.html#a8b5e4acbb884887859e414ffe06a09f8" target="_top" xlink:title="tlz::undistort_points">
<polygon fill="white" stroke="black" points="302.5,-164 302.5,-183 404.5,-183 404.5,-164 302.5,-164"/>
<text text-anchor="middle" x="353.5" y="-171" font-family="Helvetica,sans-Serif" font-size="10.00">tlz::undistort_points</text>
</a>
</g>
</g>
<!-- Node31&#45;&gt;Node32 -->
<g id="edge44" class="edge"><title>Node31&#45;&gt;Node32</title>
<path fill="none" stroke="midnightblue" d="M188.576,-173.5C217.064,-173.5 258.143,-173.5 292.051,-173.5"/>
<polygon fill="midnightblue" stroke="midnightblue" points="292.322,-177 302.322,-173.5 292.322,-170 292.322,-177"/>
</g>
<!-- Node33 -->
<g id="node33" class="node"><title>Node33</title>
<g id="a_node33"><a xlink:href="structtlz_1_1distortion__parameters.html#a307fee036b04519d633fb8456899850c" target="_top" xlink:title="tlz::distortion_parameters\l::is_none">
<polygon fill="white" stroke="black" points="499.5,-150.5 499.5,-180.5 626.5,-180.5 626.5,-150.5 499.5,-150.5"/>
<text text-anchor="start" x="507.5" y="-168.5" font-family="Helvetica,sans-Serif" font-size="10.00">tlz::distortion_parameters</text>
<text text-anchor="middle" x="563" y="-157.5" font-family="Helvetica,sans-Serif" font-size="10.00">::is_none</text>
</a>
</g>
</g>
<!-- Node32&#45;&gt;Node33 -->
<g id="edge45" class="edge"><title>Node32&#45;&gt;Node33</title>
<path fill="none" stroke="midnightblue" d="M404.73,-171.563C430.047,-170.587 461.219,-169.386 489.116,-168.31"/>
<polygon fill="midnightblue" stroke="midnightblue" points="489.371,-171.803 499.228,-167.92 489.101,-164.808 489.371,-171.803"/>
</g>
<!-- Node34 -->
<g id="node34" class="node"><title>Node34</title>
<g id="a_node34"><a xlink:href="structtlz_1_1distortion__parameters.html#a96312c5d7baa4b7b1f2a76e9396037f8" target="_top" xlink:title="tlz::distortion_parameters\l::cv_coeffs">
<polygon fill="white" stroke="black" points="499.5,-199.5 499.5,-229.5 626.5,-229.5 626.5,-199.5 499.5,-199.5"/>
<text text-anchor="start" x="507.5" y="-217.5" font-family="Helvetica,sans-Serif" font-size="10.00">tlz::distortion_parameters</text>
<text text-anchor="middle" x="563" y="-206.5" font-family="Helvetica,sans-Serif" font-size="10.00">::cv_coeffs</text>
</a>
</g>
</g>
<!-- Node32&#45;&gt;Node34 -->
<g id="edge46" class="edge"><title>Node32&#45;&gt;Node34</title>
<path fill="none" stroke="midnightblue" d="M402.626,-183.009C428.329,-188.088 460.498,-194.444 489.192,-200.114"/>
<polygon fill="midnightblue" stroke="midnightblue" points="488.691,-203.582 499.18,-202.087 490.048,-196.715 488.691,-203.582"/>
</g>
<!-- Node39 -->
<g id="node39" class="node"><title>Node39</title>
<g id="a_node39"><a xlink:href="namespacetlz.html#a318f0ec11ecbe39c32ad870473ea9c35" target="_top" xlink:title="Compute square of a number. ">
<polygon fill="white" stroke="black" points="331.5,-66 331.5,-85 375.5,-85 375.5,-66 331.5,-66"/>
<text text-anchor="middle" x="353.5" y="-73" font-family="Helvetica,sans-Serif" font-size="10.00">tlz::sq</text>
</a>
</g>
</g>
<!-- Node38&#45;&gt;Node39 -->
<g id="edge51" class="edge"><title>Node38&#45;&gt;Node39</title>
<path fill="none" stroke="midnightblue" d="M212.751,-64.2356C248.231,-67.0954 292.045,-70.6271 321.054,-72.9653"/>
<polygon fill="midnightblue" stroke="midnightblue" points="321.15,-76.4843 331.399,-73.7991 321.712,-69.5069 321.15,-76.4843"/>
</g>
<!-- Node40 -->
<g id="node40" class="node"><title>Node40</title>
<g id="a_node40"><a xlink:href="namespacetlz.html#a643b2d03bd805fe78dcd684ef45e52fb" target="_top" xlink:title="Clamp value between minimum and maximum value. ">
<polygon fill="white" stroke="black" points="533.5,-104 533.5,-123 592.5,-123 592.5,-104 533.5,-104"/>
<text text-anchor="middle" x="563" y="-111" font-family="Helvetica,sans-Serif" font-size="10.00">tlz::clamp</text>
</a>
</g>
</g>
<!-- Node39&#45;&gt;Node40 -->
<g id="edge52" class="edge"><title>Node39&#45;&gt;Node40</title>
<path fill="none" stroke="midnightblue" d="M375.538,-79.3528C410.163,-85.6937 479.665,-98.4218 523.343,-106.421"/>
<polygon fill="midnightblue" stroke="midnightblue" points="522.852,-109.889 533.319,-108.248 524.113,-103.003 522.852,-109.889"/>
</g>
<!-- Node41 -->
<g id="node41" class="node"><title>Node41</title>
<g id="a_node41"><a xlink:href="namespacetlz.html#a4fe5757a830e199f84d229eee11f616e" target="_top" xlink:title="Compute greatest common divisor of a and b. ">
<polygon fill="white" stroke="black" points="538.5,-66 538.5,-85 587.5,-85 587.5,-66 538.5,-66"/>
<text text-anchor="middle" x="563" y="-73" font-family="Helvetica,sans-Serif" font-size="10.00">tlz::gcd</text>
</a>
</g>
</g>
<!-- Node39&#45;&gt;Node41 -->
<g id="edge53" class="edge"><title>Node39&#45;&gt;Node41</title>
<path fill="none" stroke="midnightblue" d="M375.538,-75.5C411.518,-75.5 485.157,-75.5 528.348,-75.5"/>
<polygon fill="midnightblue" stroke="midnightblue" points="528.372,-79.0001 538.372,-75.5 528.372,-72.0001 528.372,-79.0001"/>
</g>
<!-- Node42 -->
<g id="node42" class="node"><title>Node42</title>
<g id="a_node42"><a xlink:href="namespacetlz.html#aec6e2158ce198aa20a8493fde3d3b552" target="_top" xlink:title="Compute least common multiple of a and b. ">
<polygon fill="white" stroke="black" points="538.5,-28 538.5,-47 587.5,-47 587.5,-28 538.5,-28"/>
<text text-anchor="middle" x="563" y="-35" font-family="Helvetica,sans-Serif" font-size="10.00">tlz::lcm</text>
</a>
</g>
</g>
<!-- Node39&#45;&gt;Node42 -->
<g id="edge54" class="edge"><title>Node39&#45;&gt;Node42</title>
<path fill="none" stroke="midnightblue" d="M375.538,-71.6472C411.518,-65.0582 485.157,-51.5724 528.348,-43.6628"/>
<polygon fill="midnightblue" stroke="midnightblue" points="529.166,-47.0712 538.372,-41.827 527.905,-40.1857 529.166,-47.0712"/>
</g>
<!-- Node44&#45;&gt;Node39 -->
<g id="edge57" class="edge"><title>Node44&#45;&gt;Node39</title>
<path fill="none" stroke="midnightblue" d="M198.547,-92.5628C235.885,-88.4246 288.244,-82.6216 321.259,-78.9624"/>
<polygon fill="midnightblue" stroke="midnightblue" points="321.702,-82.4349 331.256,-77.8545 320.931,-75.4775 321.702,-82.4349"/>
</g>
<!-- Node45&#45;&gt;Node5 -->
<g id="edge59" class="edge"><title>Node45&#45;&gt;Node5</title>
<path fill="none" stroke="midnightblue" d="M404.201,-419.949C430.478,-417.543 463.172,-414.549 491.975,-411.912"/>
<polygon fill="midnightblue" stroke="midnightblue" points="492.344,-415.393 501.983,-410.995 491.706,-408.422 492.344,-415.393"/>
</g>
</g>
</svg>
