<?xml version="1.0" encoding="UTF-8" standalone="no"?>
<!DOCTYPE svg PUBLIC "-//W3C//DTD SVG 1.1//EN"
 "http://www.w3.org/Graphics/SVG/1.1/DTD/svg11.dtd">
<!-- Generated by graphviz version 2.38.0 (20140413.2041)
 -->
<!-- Title: main Pages: 1 -->
<svg width="1279pt" height="872pt"
 viewBox="0.00 0.00 1279.00 871.87" xmlns="http://www.w3.org/2000/svg" xmlns:xlink="http://www.w3.org/1999/xlink">
<g id="graph0" class="graph" transform="scale(1 1) rotate(0) translate(4 867.87)">
<title>main</title>
<polygon fill="white" stroke="none" points="-4,4 -4,-867.87 1275,-867.87 1275,4 -4,4"/>
<!-- Node1 -->
<g id="node1" class="node"><title>Node1</title>
<polygon fill="#bfbfbf" stroke="black" points="0,-330 0,-349 38,-349 38,-330 0,-330"/>
<text text-anchor="middle" x="19" y="-337" font-family="Helvetica,sans-Serif" font-size="10.00">main</text>
</g>
<!-- Node2 -->
<g id="node2" class="node"><title>Node2</title>
<g id="a_node2"><a xlink:href="namespacetlz.html#a3c03f5d9d6261ec2909938822fc47f8a" target="_top" xlink:title="tlz::get_args">
<polygon fill="white" stroke="black" points="124,-757 124,-776 195,-776 195,-757 124,-757"/>
<text text-anchor="middle" x="159.5" y="-764" font-family="Helvetica,sans-Serif" font-size="10.00">tlz::get_args</text>
</a>
</g>
</g>
<!-- Node1&#45;&gt;Node2 -->
<g id="edge1" class="edge"><title>Node1&#45;&gt;Node2</title>
<path fill="none" stroke="midnightblue" d="M19.8467,-349.029C19.1529,-404.625 18.4374,-686.723 74,-747.5 84.1393,-758.591 99.2397,-763.918 113.883,-766.291"/>
<polygon fill="midnightblue" stroke="midnightblue" points="113.533,-769.774 123.88,-767.497 114.371,-762.825 113.533,-769.774"/>
</g>
<!-- Node3 -->
<g id="node3" class="node"><title>Node3</title>
<g id="a_node3"><a xlink:href="namespacetlz.html#a11d8bb3ca89f4957bfde1cd0d5429a16" target="_top" xlink:title="tlz::image_correspondences_arg">
<polygon fill="white" stroke="black" points="80.5,-615 80.5,-634 238.5,-634 238.5,-615 80.5,-615"/>
<text text-anchor="middle" x="159.5" y="-622" font-family="Helvetica,sans-Serif" font-size="10.00">tlz::image_correspondences_arg</text>
</a>
</g>
</g>
<!-- Node1&#45;&gt;Node3 -->
<g id="edge2" class="edge"><title>Node1&#45;&gt;Node3</title>
<path fill="none" stroke="midnightblue" d="M20.6875,-349.221C23.9004,-391.948 38.7894,-562.631 74,-600.5 77.5437,-604.311 81.6442,-607.533 86.0899,-610.254"/>
<polygon fill="midnightblue" stroke="midnightblue" points="84.5229,-613.384 95.0096,-614.895 87.7538,-607.175 84.5229,-613.384"/>
</g>
<!-- Node19 -->
<g id="node19" class="node"><title>Node19</title>
<g id="a_node19"><a xlink:href="namespacetlz.html#a8e4f8c8c2927bc4350de13bfa0f8f9e1" target="_top" xlink:title="tlz::to_string">
<polygon fill="white" stroke="black" points="1090.5,-603 1090.5,-622 1161.5,-622 1161.5,-603 1090.5,-603"/>
<text text-anchor="middle" x="1126" y="-610" font-family="Helvetica,sans-Serif" font-size="10.00">tlz::to_string</text>
</a>
</g>
</g>
<!-- Node1&#45;&gt;Node19 -->
<g id="edge51" class="edge"><title>Node1&#45;&gt;Node19</title>
<path fill="none" stroke="midnightblue" d="M19.4984,-349.179C18.4462,-380.534 19.6942,-480.14 74,-529.5 149.397,-598.03 888.747,-610.139 1080.02,-612.13"/>
<polygon fill="midnightblue" stroke="midnightblue" points="1080.23,-615.633 1090.27,-612.233 1080.3,-608.633 1080.23,-615.633"/>
</g>
<!-- Node21 -->
<g id="node21" class="node"><title>Node21</title>
<g id="a_node21"><a xlink:href="namespacetlz.html#a097b9c15e0cbb06c775671b1239ec594" target="_top" xlink:title="tlz::references_grid_arg">
<polygon fill="white" stroke="black" points="100,-501 100,-520 219,-520 219,-501 100,-501"/>
<text text-anchor="middle" x="159.5" y="-508" font-family="Helvetica,sans-Serif" font-size="10.00">tlz::references_grid_arg</text>
</a>
</g>
</g>
<!-- Node1&#45;&gt;Node21 -->
<g id="edge24" class="edge"><title>Node1&#45;&gt;Node21</title>
<path fill="none" stroke="midnightblue" d="M20.6101,-349.01C22.8022,-375.037 32.5349,-448.046 74,-486.5 78.7698,-490.923 84.2961,-494.539 90.1945,-497.493"/>
<polygon fill="midnightblue" stroke="midnightblue" points="89.1465,-500.854 99.7142,-501.612 91.9263,-494.429 89.1465,-500.854"/>
</g>
<!-- Node24 -->
<g id="node24" class="node"><title>Node24</title>
<g id="a_node24"><a xlink:href="namespacetlz.html#af0d1e8ba5b9f2dbc2b589afab3a21fc8" target="_top" xlink:title="tlz::int_arg">
<polygon fill="white" stroke="black" points="759,-413 759,-432 821,-432 821,-413 759,-413"/>
<text text-anchor="middle" x="790" y="-420" font-family="Helvetica,sans-Serif" font-size="10.00">tlz::int_arg</text>
</a>
</g>
</g>
<!-- Node1&#45;&gt;Node24 -->
<g id="edge29" class="edge"><title>Node1&#45;&gt;Node24</title>
<path fill="none" stroke="midnightblue" d="M30.7335,-349.197C41.0652,-357.982 57.5103,-370.579 74,-377.5 160.249,-413.699 187.908,-406.379 281,-415.5 454.381,-432.487 662.616,-427.429 748.717,-424.231"/>
<polygon fill="midnightblue" stroke="midnightblue" points="748.983,-427.723 758.842,-423.842 748.715,-420.729 748.983,-427.723"/>
</g>
<!-- Node25 -->
<g id="node25" class="node"><title>Node25</title>
<g id="a_node25"><a xlink:href="namespacetlz.html#a65770a2c1ff57c5ae6542d4465a3d3f4" target="_top" xlink:title="tlz::out_filename_arg">
<polygon fill="white" stroke="black" points="527.5,-463 527.5,-482 634.5,-482 634.5,-463 527.5,-463"/>
<text text-anchor="middle" x="581" y="-470" font-family="Helvetica,sans-Serif" font-size="10.00">tlz::out_filename_arg</text>
</a>
</g>
</g>
<!-- Node1&#45;&gt;Node25 -->
<g id="edge33" class="edge"><title>Node1&#45;&gt;Node25</title>
<path fill="none" stroke="midnightblue" d="M21.487,-349.215C25.445,-371.323 38.4729,-425.269 74,-448.5 145.254,-495.093 398.142,-484.938 517.179,-477.221"/>
<polygon fill="midnightblue" stroke="midnightblue" points="517.491,-480.708 527.238,-476.554 517.028,-473.723 517.491,-480.708"/>
</g>
<!-- Node26 -->
<g id="node26" class="node"><title>Node26</title>
<g id="a_node26"><a xlink:href="namespacetlz.html#a318f0ec11ecbe39c32ad870473ea9c35" target="_top" xlink:title="Compute square of a number. ">
<polygon fill="white" stroke="black" points="137.5,-349 137.5,-368 181.5,-368 181.5,-349 137.5,-349"/>
<text text-anchor="middle" x="159.5" y="-356" font-family="Helvetica,sans-Serif" font-size="10.00">tlz::sq</text>
</a>
</g>
</g>
<!-- Node1&#45;&gt;Node26 -->
<g id="edge35" class="edge"><title>Node1&#45;&gt;Node26</title>
<path fill="none" stroke="midnightblue" d="M38.1065,-341.984C60.7328,-345.088 99.8171,-350.45 127.303,-354.22"/>
<polygon fill="midnightblue" stroke="midnightblue" points="126.827,-357.688 137.21,-355.579 127.779,-350.753 126.827,-357.688"/>
</g>
<!-- Node30 -->
<g id="node30" class="node"><title>Node30</title>
<g id="a_node30"><a xlink:href="namespacetlz.html#ac3ed451219922f0c9f792a355bbf629d" target="_top" xlink:title="tlz::get_references_grid">
<polygon fill="white" stroke="black" points="100,-273 100,-292 219,-292 219,-273 100,-273"/>
<text text-anchor="middle" x="159.5" y="-280" font-family="Helvetica,sans-Serif" font-size="10.00">tlz::get_references_grid</text>
</a>
</g>
</g>
<!-- Node1&#45;&gt;Node30 -->
<g id="edge39" class="edge"><title>Node1&#45;&gt;Node30</title>
<path fill="none" stroke="midnightblue" d="M33.6415,-329.721C44.2324,-322.493 59.5067,-312.845 74,-306.5 84.2682,-302.005 95.6057,-298.113 106.552,-294.847"/>
<polygon fill="midnightblue" stroke="midnightblue" points="107.795,-298.133 116.453,-292.026 105.877,-291.401 107.795,-298.133"/>
</g>
<!-- Node32 -->
<g id="node32" class="node"><title>Node32</title>
<g id="a_node32"><a xlink:href="structtlz_1_1references__grid.html#a5b4c4debbacfe143fd93753c04d84bca" target="_top" xlink:title="tlz::references_grid\l::rows">
<polygon fill="white" stroke="black" points="319,-261.5 319,-291.5 419,-291.5 419,-261.5 319,-261.5"/>
<text text-anchor="start" x="327" y="-279.5" font-family="Helvetica,sans-Serif" font-size="10.00">tlz::references_grid</text>
<text text-anchor="middle" x="369" y="-268.5" font-family="Helvetica,sans-Serif" font-size="10.00">::rows</text>
</a>
</g>
</g>
<!-- Node1&#45;&gt;Node32 -->
<g id="edge46" class="edge"><title>Node1&#45;&gt;Node32</title>
<path fill="none" stroke="midnightblue" d="M38.1183,-336.649C76.3937,-330.582 168.273,-315.773 245,-301.5 265.893,-297.614 288.717,-293.06 308.97,-288.912"/>
<polygon fill="midnightblue" stroke="midnightblue" points="309.904,-292.293 318.993,-286.849 308.493,-285.437 309.904,-292.293"/>
</g>
<!-- Node33 -->
<g id="node33" class="node"><title>Node33</title>
<g id="a_node33"><a xlink:href="structtlz_1_1references__grid.html#ac2d383bed7f034aa729ae386b689ad6d" target="_top" xlink:title="tlz::references_grid\l::cols">
<polygon fill="white" stroke="black" points="319,-163.5 319,-193.5 419,-193.5 419,-163.5 319,-163.5"/>
<text text-anchor="start" x="327" y="-181.5" font-family="Helvetica,sans-Serif" font-size="10.00">tlz::references_grid</text>
<text text-anchor="middle" x="369" y="-170.5" font-family="Helvetica,sans-Serif" font-size="10.00">::cols</text>
</a>
</g>
</g>
<!-- Node1&#45;&gt;Node33 -->
<g id="edge45" class="edge"><title>Node1&#45;&gt;Node33</title>
<path fill="none" stroke="midnightblue" d="M24.089,-329.897C31.5326,-313.611 48.8802,-280.674 74,-263.5 138.692,-219.271 171.52,-247.739 245,-220.5 261.773,-214.282 264.299,-208.909 281,-202.5 289.903,-199.084 299.489,-195.935 308.932,-193.121"/>
<polygon fill="midnightblue" stroke="midnightblue" points="310.044,-196.442 318.685,-190.311 308.107,-189.716 310.044,-196.442"/>
</g>
<!-- Node34 -->
<g id="node34" class="node"><title>Node34</title>
<g id="a_node34"><a xlink:href="structtlz_1_1references__grid.html#a3ad2b6212dea0a1b71addfee4fc6bfba" target="_top" xlink:title="tlz::references_grid\l::view">
<polygon fill="white" stroke="black" points="319,-114.5 319,-144.5 419,-144.5 419,-114.5 319,-114.5"/>
<text text-anchor="start" x="327" y="-132.5" font-family="Helvetica,sans-Serif" font-size="10.00">tlz::references_grid</text>
<text text-anchor="middle" x="369" y="-121.5" font-family="Helvetica,sans-Serif" font-size="10.00">::view</text>
</a>
</g>
</g>
<!-- Node1&#45;&gt;Node34 -->
<g id="edge47" class="edge"><title>Node1&#45;&gt;Node34</title>
<path fill="none" stroke="midnightblue" d="M21.3454,-329.99C25.1039,-307.177 37.9162,-249.119 74,-220.5 134.711,-172.349 175.883,-221.532 245,-186.5 264.36,-176.687 262.01,-164.012 281,-153.5 289.636,-148.719 299.291,-144.838 308.939,-141.704"/>
<polygon fill="midnightblue" stroke="midnightblue" points="309.981,-145.045 318.548,-138.812 307.963,-138.342 309.981,-145.045"/>
</g>
<!-- Node35 -->
<g id="node35" class="node"><title>Node35</title>
<g id="a_node35"><a xlink:href="structtlz_1_1references__grid.html#a14d7b4abd9087b92b5061f9d1a0c4745" target="_top" xlink:title="tlz::references_grid\l::has_view">
<polygon fill="white" stroke="black" points="109.5,-147.5 109.5,-177.5 209.5,-177.5 209.5,-147.5 109.5,-147.5"/>
<text text-anchor="start" x="117.5" y="-165.5" font-family="Helvetica,sans-Serif" font-size="10.00">tlz::references_grid</text>
<text text-anchor="middle" x="159.5" y="-154.5" font-family="Helvetica,sans-Serif" font-size="10.00">::has_view</text>
</a>
</g>
</g>
<!-- Node1&#45;&gt;Node35 -->
<g id="edge44" class="edge"><title>Node1&#45;&gt;Node35</title>
<path fill="none" stroke="midnightblue" d="M20.7801,-329.755C23.3764,-303.763 33.988,-232.078 74,-192.5 81.2216,-185.357 90.2514,-179.906 99.6985,-175.749"/>
<polygon fill="midnightblue" stroke="midnightblue" points="101.202,-178.919 109.233,-172.008 98.6457,-172.402 101.202,-178.919"/>
</g>
<!-- Node36 -->
<g id="node36" class="node"><title>Node36</title>
<g id="a_node36"><a xlink:href="namespacetlz.html#abab56a7d5e8f6eba9520c66a15fafa6d" target="_top" xlink:title="tlz::feature_points\l_for_view">
<polygon fill="white" stroke="black" points="112,-98.5 112,-128.5 207,-128.5 207,-98.5 112,-98.5"/>
<text text-anchor="start" x="120" y="-116.5" font-family="Helvetica,sans-Serif" font-size="10.00">tlz::feature_points</text>
<text text-anchor="middle" x="159.5" y="-105.5" font-family="Helvetica,sans-Serif" font-size="10.00">_for_view</text>
</a>
</g>
</g>
<!-- Node1&#45;&gt;Node36 -->
<g id="edge48" class="edge"><title>Node1&#45;&gt;Node36</title>
<path fill="none" stroke="midnightblue" d="M19.498,-329.895C18.3722,-297.792 19.2423,-193.114 74,-137.5 81.7004,-129.679 91.7495,-124.359 102.218,-120.751"/>
<polygon fill="midnightblue" stroke="midnightblue" points="103.294,-124.083 111.895,-117.897 101.313,-117.369 103.294,-124.083"/>
</g>
<!-- Node37 -->
<g id="node37" class="node"><title>Node37</title>
<g id="a_node37"><a xlink:href="namespacetlz.html#a4c8ba0cd4f8d2e01c0aa3c58056bd648" target="_top" xlink:title="tlz::get_reference\l_views">
<polygon fill="white" stroke="black" points="113.5,-49.5 113.5,-79.5 205.5,-79.5 205.5,-49.5 113.5,-49.5"/>
<text text-anchor="start" x="121.5" y="-67.5" font-family="Helvetica,sans-Serif" font-size="10.00">tlz::get_reference</text>
<text text-anchor="middle" x="159.5" y="-56.5" font-family="Helvetica,sans-Serif" font-size="10.00">_views</text>
</a>
</g>
</g>
<!-- Node1&#45;&gt;Node37 -->
<g id="edge49" class="edge"><title>Node1&#45;&gt;Node37</title>
<path fill="none" stroke="midnightblue" d="M20.7664,-329.871C24.2627,-288.309 40.0146,-124.763 74,-88.5 81.9045,-80.0657 92.5359,-74.522 103.586,-70.8965"/>
<polygon fill="midnightblue" stroke="midnightblue" points="104.652,-74.233 113.347,-68.1798 102.775,-67.4893 104.652,-74.233"/>
</g>
<!-- Node38 -->
<g id="node38" class="node"><title>Node38</title>
<g id="a_node38"><a xlink:href="namespacetlz.html#ae26f7675ecb867cba4f721a2533bceb6" target="_top" xlink:title="tlz::image_correspondences\l_with_reference">
<polygon fill="white" stroke="black" points="90,-0.5 90,-30.5 229,-30.5 229,-0.5 90,-0.5"/>
<text text-anchor="start" x="98" y="-18.5" font-family="Helvetica,sans-Serif" font-size="10.00">tlz::image_correspondences</text>
<text text-anchor="middle" x="159.5" y="-7.5" font-family="Helvetica,sans-Serif" font-size="10.00">_with_reference</text>
</a>
</g>
</g>
<!-- Node1&#45;&gt;Node38 -->
<g id="edge50" class="edge"><title>Node1&#45;&gt;Node38</title>
<path fill="none" stroke="midnightblue" d="M20.3968,-329.932C22.5048,-283.694 33.8511,-83.8183 74,-39.5 76.2526,-37.0135 78.742,-34.7772 81.411,-32.7663"/>
<polygon fill="midnightblue" stroke="midnightblue" points="83.3272,-35.6957 89.8993,-27.3855 79.5793,-29.7834 83.3272,-35.6957"/>
</g>
<!-- Node39 -->
<g id="node39" class="node"><title>Node39</title>
<g id="a_node39"><a xlink:href="namespacetlz.html#a703280f6c42435c957e976f0ab000b30" target="_top" xlink:title="tlz::export_image_corresponcences">
<polygon fill="white" stroke="black" points="74,-719 74,-738 245,-738 245,-719 74,-719"/>
<text text-anchor="middle" x="159.5" y="-726" font-family="Helvetica,sans-Serif" font-size="10.00">tlz::export_image_corresponcences</text>
</a>
</g>
</g>
<!-- Node1&#45;&gt;Node39 -->
<g id="edge52" class="edge"><title>Node1&#45;&gt;Node39</title>
<path fill="none" stroke="midnightblue" d="M19.6897,-349.098C18.8232,-388.197 19.3876,-538.374 74,-643.5 88.8738,-672.131 116.729,-697.262 136.384,-712.629"/>
<polygon fill="midnightblue" stroke="midnightblue" points="134.42,-715.533 144.502,-718.79 138.652,-709.956 134.42,-715.533"/>
</g>
<!-- Node4 -->
<g id="node4" class="node"><title>Node4</title>
<g id="a_node4"><a xlink:href="namespacetlz.html#ad75d99f2e1623434fbadee66f3ff29a1" target="_top" xlink:title="tlz::import_image_correspondences">
<polygon fill="white" stroke="black" points="283.5,-659 283.5,-678 454.5,-678 454.5,-659 283.5,-659"/>
<text text-anchor="middle" x="369" y="-666" font-family="Helvetica,sans-Serif" font-size="10.00">tlz::import_image_correspondences</text>
</a>
</g>
</g>
<!-- Node3&#45;&gt;Node4 -->
<g id="edge3" class="edge"><title>Node3&#45;&gt;Node4</title>
<path fill="none" stroke="midnightblue" d="M205.524,-634.047C237.066,-640.736 279.406,-649.714 312.955,-656.828"/>
<polygon fill="midnightblue" stroke="midnightblue" points="312.555,-660.321 323.063,-658.971 314.007,-653.473 312.555,-660.321"/>
</g>
<!-- Node14 -->
<g id="node14" class="node"><title>Node14</title>
<g id="a_node14"><a xlink:href="namespacetlz.html#a634de7ca11e100e4a118dffe80376a75" target="_top" xlink:title="tlz::in_filename_arg">
<polygon fill="white" stroke="black" points="530.5,-535 530.5,-554 631.5,-554 631.5,-535 530.5,-535"/>
<text text-anchor="middle" x="581" y="-542" font-family="Helvetica,sans-Serif" font-size="10.00">tlz::in_filename_arg</text>
</a>
</g>
</g>
<!-- Node3&#45;&gt;Node14 -->
<g id="edge15" class="edge"><title>Node3&#45;&gt;Node14</title>
<path fill="none" stroke="midnightblue" d="M210.685,-614.93C288.347,-600.119 437.335,-571.707 520.372,-555.871"/>
<polygon fill="midnightblue" stroke="midnightblue" points="521.241,-559.269 530.409,-553.957 519.93,-552.393 521.241,-559.269"/>
</g>
<!-- Node5 -->
<g id="node5" class="node"><title>Node5</title>
<g id="a_node5"><a xlink:href="namespacetlz.html#ae11c827ac9e581f9d2f98c39aab3750d" target="_top" xlink:title="tlz::file_name_extension">
<polygon fill="white" stroke="black" points="520,-741 520,-760 642,-760 642,-741 520,-741"/>
<text text-anchor="middle" x="581" y="-748" font-family="Helvetica,sans-Serif" font-size="10.00">tlz::file_name_extension</text>
</a>
</g>
</g>
<!-- Node4&#45;&gt;Node5 -->
<g id="edge4" class="edge"><title>Node4&#45;&gt;Node5</title>
<path fill="none" stroke="midnightblue" d="M428.138,-678.001C438.197,-681.073 448.228,-685.135 457,-690.5 477.687,-703.154 472.109,-719.186 493,-731.5 498.205,-734.568 503.848,-737.142 509.674,-739.301"/>
<polygon fill="midnightblue" stroke="midnightblue" points="509.014,-742.768 519.607,-742.558 511.195,-736.117 509.014,-742.768"/>
</g>
<!-- Node6 -->
<g id="node6" class="node"><title>Node6</title>
<g id="a_node6"><a xlink:href="namespacetlz.html#a24915249769d936c24ceb34f50b06104" target="_top" xlink:title="tlz::decode_image_correspondences">
<polygon fill="white" stroke="black" points="493,-703 493,-722 669,-722 669,-703 493,-703"/>
<text text-anchor="middle" x="581" y="-710" font-family="Helvetica,sans-Serif" font-size="10.00">tlz::decode_image_correspondences</text>
</a>
</g>
</g>
<!-- Node4&#45;&gt;Node6 -->
<g id="edge5" class="edge"><title>Node4&#45;&gt;Node6</title>
<path fill="none" stroke="midnightblue" d="M415.567,-678.047C447.626,-684.765 490.708,-693.791 524.731,-700.92"/>
<polygon fill="midnightblue" stroke="midnightblue" points="524.017,-704.346 534.522,-702.971 525.452,-697.495 524.017,-704.346"/>
</g>
<!-- Node12 -->
<g id="node12" class="node"><title>Node12</title>
<g id="a_node12"><a xlink:href="namespacetlz.html#aa1be9362f548fcf9378e1fc9074089c4" target="_top" xlink:title="tlz::import_json_file">
<polygon fill="white" stroke="black" points="530.5,-615 530.5,-634 631.5,-634 631.5,-615 530.5,-615"/>
<text text-anchor="middle" x="581" y="-622" font-family="Helvetica,sans-Serif" font-size="10.00">tlz::import_json_file</text>
</a>
</g>
</g>
<!-- Node4&#45;&gt;Node12 -->
<g id="edge13" class="edge"><title>Node4&#45;&gt;Node12</title>
<path fill="none" stroke="midnightblue" d="M415.567,-658.953C447.626,-652.235 490.708,-643.209 524.731,-636.08"/>
<polygon fill="midnightblue" stroke="midnightblue" points="525.452,-639.505 534.522,-634.029 524.017,-632.654 525.452,-639.505"/>
</g>
<!-- Node13 -->
<g id="node13" class="node"><title>Node13</title>
<g id="a_node13"><a xlink:href="namespacetlz.html#a2ec439452fda5eeb03f60715e50fa96a" target="_top" xlink:title="tlz::import_binary\l_image_correspondences">
<polygon fill="white" stroke="black" points="517,-653.5 517,-683.5 645,-683.5 645,-653.5 517,-653.5"/>
<text text-anchor="start" x="525" y="-671.5" font-family="Helvetica,sans-Serif" font-size="10.00">tlz::import_binary</text>
<text text-anchor="middle" x="581" y="-660.5" font-family="Helvetica,sans-Serif" font-size="10.00">_image_correspondences</text>
</a>
</g>
</g>
<!-- Node4&#45;&gt;Node13 -->
<g id="edge14" class="edge"><title>Node4&#45;&gt;Node13</title>
<path fill="none" stroke="midnightblue" d="M454.507,-668.5C471.779,-668.5 489.821,-668.5 506.664,-668.5"/>
<polygon fill="midnightblue" stroke="midnightblue" points="506.978,-672 516.978,-668.5 506.978,-665 506.978,-672"/>
</g>
<!-- Node7 -->
<g id="node7" class="node"><title>Node7</title>
<g id="a_node7"><a xlink:href="namespacetlz.html#a252af14b9b4ac6502d3e9c5dd8dc90b8" target="_top" xlink:title="tlz::has">
<polygon fill="white" stroke="black" points="1222,-723 1222,-742 1271,-742 1271,-723 1222,-723"/>
<text text-anchor="middle" x="1246.5" y="-730" font-family="Helvetica,sans-Serif" font-size="10.00">tlz::has</text>
</a>
</g>
</g>
<!-- Node6&#45;&gt;Node7 -->
<g id="edge6" class="edge"><title>Node6&#45;&gt;Node7</title>
<path fill="none" stroke="midnightblue" d="M637.667,-702.978C702.92,-692.339 814.43,-675.784 911,-669.5 963.777,-666.066 977.61,-662.253 1030,-669.5 1096.31,-678.672 1170.63,-703.889 1212.38,-719.497"/>
<polygon fill="midnightblue" stroke="midnightblue" points="1211.18,-722.785 1221.77,-723.052 1213.65,-716.238 1211.18,-722.785"/>
</g>
<!-- Node8 -->
<g id="node8" class="node"><title>Node8</title>
<g id="a_node8"><a xlink:href="namespacetlz.html#ab83b0eb933afca1abe8ccd3470207691" target="_top" xlink:title="tlz::decode_image_correspondence\l_feature">
<polygon fill="white" stroke="black" points="705,-707.5 705,-737.5 875,-737.5 875,-707.5 705,-707.5"/>
<text text-anchor="start" x="713" y="-725.5" font-family="Helvetica,sans-Serif" font-size="10.00">tlz::decode_image_correspondence</text>
<text text-anchor="middle" x="790" y="-714.5" font-family="Helvetica,sans-Serif" font-size="10.00">_feature</text>
</a>
</g>
</g>
<!-- Node6&#45;&gt;Node8 -->
<g id="edge7" class="edge"><title>Node6&#45;&gt;Node8</title>
<path fill="none" stroke="midnightblue" d="M669.187,-716.712C677.684,-717.122 686.332,-717.54 694.894,-717.954"/>
<polygon fill="midnightblue" stroke="midnightblue" points="694.733,-721.45 704.89,-718.437 695.071,-714.458 694.733,-721.45"/>
</g>
<!-- Node8&#45;&gt;Node7 -->
<g id="edge8" class="edge"><title>Node8&#45;&gt;Node7</title>
<path fill="none" stroke="midnightblue" d="M831.739,-737.51C854.672,-745.162 884.038,-753.648 911,-757.5 1032.02,-774.789 1065.59,-772.637 1186,-751.5 1194.67,-749.977 1203.83,-747.508 1212.3,-744.847"/>
<polygon fill="midnightblue" stroke="midnightblue" points="1213.45,-748.151 1221.84,-741.679 1211.25,-741.507 1213.45,-748.151"/>
</g>
<!-- Node9 -->
<g id="node9" class="node"><title>Node9</title>
<g id="a_node9"><a xlink:href="namespacetlz.html#a74e8454f97dace7cffb1afdb6d3ca87b" target="_top" xlink:title="tlz::decode_view_index">
<polygon fill="white" stroke="black" points="911,-679 911,-698 1030,-698 1030,-679 911,-679"/>
<text text-anchor="middle" x="970.5" y="-686" font-family="Helvetica,sans-Serif" font-size="10.00">tlz::decode_view_index</text>
</a>
</g>
</g>
<!-- Node8&#45;&gt;Node9 -->
<g id="edge9" class="edge"><title>Node8&#45;&gt;Node9</title>
<path fill="none" stroke="midnightblue" d="M869.812,-707.488C883.151,-704.947 896.805,-702.347 909.56,-699.917"/>
<polygon fill="midnightblue" stroke="midnightblue" points="910.405,-703.319 919.574,-698.01 909.096,-696.443 910.405,-703.319"/>
</g>
<!-- Node10 -->
<g id="node10" class="node"><title>Node10</title>
<g id="a_node10"><a xlink:href="namespacetlz.html#ae8f9175a86bbe49ac0f4485d5db3080b" target="_top" xlink:title="tlz::decode_feature\l_point">
<polygon fill="white" stroke="black" points="920.5,-717.5 920.5,-747.5 1020.5,-747.5 1020.5,-717.5 920.5,-717.5"/>
<text text-anchor="start" x="928.5" y="-735.5" font-family="Helvetica,sans-Serif" font-size="10.00">tlz::decode_feature</text>
<text text-anchor="middle" x="970.5" y="-724.5" font-family="Helvetica,sans-Serif" font-size="10.00">_point</text>
</a>
</g>
</g>
<!-- Node8&#45;&gt;Node10 -->
<g id="edge10" class="edge"><title>Node8&#45;&gt;Node10</title>
<path fill="none" stroke="midnightblue" d="M875.023,-727.207C886.931,-727.874 898.963,-728.548 910.268,-729.182"/>
<polygon fill="midnightblue" stroke="midnightblue" points="910.241,-732.686 920.422,-729.751 910.633,-725.697 910.241,-732.686"/>
</g>
<!-- Node11 -->
<g id="node11" class="node"><title>Node11</title>
<g id="a_node11"><a xlink:href="namespacetlz.html#add846dc50c32dfb356cb1a7ac11d37ac" target="_top" xlink:title="tlz::get_or">
<polygon fill="white" stroke="black" points="1096,-723 1096,-742 1156,-742 1156,-723 1096,-723"/>
<text text-anchor="middle" x="1126" y="-730" font-family="Helvetica,sans-Serif" font-size="10.00">tlz::get_or</text>
</a>
</g>
</g>
<!-- Node10&#45;&gt;Node11 -->
<g id="edge11" class="edge"><title>Node10&#45;&gt;Node11</title>
<path fill="none" stroke="midnightblue" d="M1020.91,-732.5C1041.86,-732.5 1065.94,-732.5 1085.66,-732.5"/>
<polygon fill="midnightblue" stroke="midnightblue" points="1085.82,-736 1095.82,-732.5 1085.82,-729 1085.82,-736"/>
</g>
<!-- Node11&#45;&gt;Node7 -->
<g id="edge12" class="edge"><title>Node11&#45;&gt;Node7</title>
<path fill="none" stroke="midnightblue" d="M1156.29,-732.5C1172.98,-732.5 1193.97,-732.5 1211.39,-732.5"/>
<polygon fill="midnightblue" stroke="midnightblue" points="1211.71,-736 1221.71,-732.5 1211.71,-729 1211.71,-736"/>
</g>
<!-- Node15 -->
<g id="node15" class="node"><title>Node15</title>
<g id="a_node15"><a xlink:href="namespacetlz.html#a0621d598fb83b13bf028f3e6293d04f8" target="_top" xlink:title="tlz::string_arg">
<polygon fill="white" stroke="black" points="752,-451 752,-470 828,-470 828,-451 752,-451"/>
<text text-anchor="middle" x="790" y="-458" font-family="Helvetica,sans-Serif" font-size="10.00">tlz::string_arg</text>
</a>
</g>
</g>
<!-- Node14&#45;&gt;Node15 -->
<g id="edge16" class="edge"><title>Node14&#45;&gt;Node15</title>
<path fill="none" stroke="midnightblue" d="M596.928,-534.937C619.489,-520.88 663.999,-494.667 705,-479.5 716.613,-475.204 729.503,-471.7 741.628,-468.924"/>
<polygon fill="midnightblue" stroke="midnightblue" points="742.558,-472.303 751.588,-466.762 741.074,-465.462 742.558,-472.303"/>
</g>
<!-- Node16 -->
<g id="node16" class="node"><title>Node16</title>
<g id="a_node16"><a xlink:href="namespacetlz.html#a780431daab8d2595372eacb43143b52d" target="_top" xlink:title="tlz::args">
<polygon fill="white" stroke="black" points="944.5,-489 944.5,-508 996.5,-508 996.5,-489 944.5,-489"/>
<text text-anchor="middle" x="970.5" y="-496" font-family="Helvetica,sans-Serif" font-size="10.00">tlz::args</text>
</a>
</g>
</g>
<!-- Node14&#45;&gt;Node16 -->
<g id="edge22" class="edge"><title>Node14&#45;&gt;Node16</title>
<path fill="none" stroke="midnightblue" d="M631.7,-541.54C690.138,-537.685 789.956,-529.932 875,-517.5 894.794,-514.607 916.707,-510.272 934.445,-506.474"/>
<polygon fill="midnightblue" stroke="midnightblue" points="935.332,-509.863 944.358,-504.314 933.842,-503.023 935.332,-509.863"/>
</g>
<!-- Node18 -->
<g id="node18" class="node"><title>Node18</title>
<g id="a_node18"><a xlink:href="classtlz_1_1args__list.html#a38ad21acd64a4af98ffdf4a47837cdbe" target="_top" xlink:title="tlz::args_list::usage_fail">
<polygon fill="white" stroke="black" points="1066,-451 1066,-470 1186,-470 1186,-451 1066,-451"/>
<text text-anchor="middle" x="1126" y="-458" font-family="Helvetica,sans-Serif" font-size="10.00">tlz::args_list::usage_fail</text>
</a>
</g>
</g>
<!-- Node14&#45;&gt;Node18 -->
<g id="edge23" class="edge"><title>Node14&#45;&gt;Node18</title>
<path fill="none" stroke="midnightblue" d="M631.518,-550.315C716.066,-558.342 892.455,-566.754 1030,-517.5 1057.54,-507.637 1085.9,-489.371 1104.37,-476.17"/>
<polygon fill="midnightblue" stroke="midnightblue" points="1106.59,-478.882 1112.6,-470.155 1102.46,-473.23 1106.59,-478.882"/>
</g>
<!-- Node20 -->
<g id="node20" class="node"><title>Node20</title>
<g id="a_node20"><a xlink:href="namespacetlz.html#abb019466ea9f56c0dab27e893d891837" target="_top" xlink:title="tlz::file_exists">
<polygon fill="white" stroke="black" points="751.5,-489 751.5,-508 828.5,-508 828.5,-489 751.5,-489"/>
<text text-anchor="middle" x="790" y="-496" font-family="Helvetica,sans-Serif" font-size="10.00">tlz::file_exists</text>
</a>
</g>
</g>
<!-- Node14&#45;&gt;Node20 -->
<g id="edge21" class="edge"><title>Node14&#45;&gt;Node20</title>
<path fill="none" stroke="midnightblue" d="M624.891,-534.969C658.842,-527.424 706.228,-516.894 741.357,-509.087"/>
<polygon fill="midnightblue" stroke="midnightblue" points="742.374,-512.447 751.377,-506.861 740.856,-505.613 742.374,-512.447"/>
</g>
<!-- Node15&#45;&gt;Node16 -->
<g id="edge17" class="edge"><title>Node15&#45;&gt;Node16</title>
<path fill="none" stroke="midnightblue" d="M828.419,-468.466C859.739,-475.134 904.091,-484.575 934.665,-491.084"/>
<polygon fill="midnightblue" stroke="midnightblue" points="933.957,-494.512 944.467,-493.171 935.415,-487.665 933.957,-494.512"/>
</g>
<!-- Node17 -->
<g id="node17" class="node"><title>Node17</title>
<g id="a_node17"><a xlink:href="classtlz_1_1args__list.html#a73d99bc75998dc14607a3a372d28dc6d" target="_top" xlink:title="tlz::args_list::next_arg">
<polygon fill="white" stroke="black" points="914,-451 914,-470 1027,-470 1027,-451 914,-451"/>
<text text-anchor="middle" x="970.5" y="-458" font-family="Helvetica,sans-Serif" font-size="10.00">tlz::args_list::next_arg</text>
</a>
</g>
</g>
<!-- Node15&#45;&gt;Node17 -->
<g id="edge18" class="edge"><title>Node15&#45;&gt;Node17</title>
<path fill="none" stroke="midnightblue" d="M828.419,-460.5C850.163,-460.5 878.188,-460.5 903.524,-460.5"/>
<polygon fill="midnightblue" stroke="midnightblue" points="903.819,-464 913.819,-460.5 903.819,-457 903.819,-464"/>
</g>
<!-- Node17&#45;&gt;Node18 -->
<g id="edge19" class="edge"><title>Node17&#45;&gt;Node18</title>
<path fill="none" stroke="midnightblue" d="M1027.35,-460.5C1036.54,-460.5 1046.17,-460.5 1055.64,-460.5"/>
<polygon fill="midnightblue" stroke="midnightblue" points="1055.83,-464 1065.83,-460.5 1055.83,-457 1055.83,-464"/>
</g>
<!-- Node17&#45;&gt;Node19 -->
<g id="edge20" class="edge"><title>Node17&#45;&gt;Node19</title>
<path fill="none" stroke="midnightblue" d="M1012.47,-470.077C1018.67,-472.556 1024.75,-475.65 1030,-479.5 1071.79,-510.118 1102.29,-564.713 1116.35,-593.511"/>
<polygon fill="midnightblue" stroke="midnightblue" points="1113.34,-595.32 1120.78,-602.861 1119.66,-592.325 1113.34,-595.32"/>
</g>
<!-- Node22 -->
<g id="node22" class="node"><title>Node22</title>
<g id="a_node22"><a xlink:href="namespacetlz.html#a01838f5b78a259fcff3c50ad9567f6c8" target="_top" xlink:title="tlz::decode_references_grid">
<polygon fill="white" stroke="black" points="300.5,-501 300.5,-520 437.5,-520 437.5,-501 300.5,-501"/>
<text text-anchor="middle" x="369" y="-508" font-family="Helvetica,sans-Serif" font-size="10.00">tlz::decode_references_grid</text>
</a>
</g>
</g>
<!-- Node21&#45;&gt;Node22 -->
<g id="edge25" class="edge"><title>Node21&#45;&gt;Node22</title>
<path fill="none" stroke="midnightblue" d="M219.129,-510.5C241.157,-510.5 266.554,-510.5 290.063,-510.5"/>
<polygon fill="midnightblue" stroke="midnightblue" points="290.359,-514 300.359,-510.5 290.359,-507 290.359,-514"/>
</g>
<!-- Node23 -->
<g id="node23" class="node"><title>Node23</title>
<g id="a_node23"><a xlink:href="namespacetlz.html#a35f9e03fa4fd9cec699f5fa27962400f" target="_top" xlink:title="tlz::json_arg">
<polygon fill="white" stroke="black" points="334,-539 334,-558 404,-558 404,-539 334,-539"/>
<text text-anchor="middle" x="369" y="-546" font-family="Helvetica,sans-Serif" font-size="10.00">tlz::json_arg</text>
</a>
</g>
</g>
<!-- Node21&#45;&gt;Node23 -->
<g id="edge26" class="edge"><title>Node21&#45;&gt;Node23</title>
<path fill="none" stroke="midnightblue" d="M212.593,-520.04C246.824,-526.309 291.128,-534.422 323.668,-540.381"/>
<polygon fill="midnightblue" stroke="midnightblue" points="323.325,-543.877 333.792,-542.235 324.586,-536.991 323.325,-543.877"/>
</g>
<!-- Node23&#45;&gt;Node12 -->
<g id="edge27" class="edge"><title>Node23&#45;&gt;Node12</title>
<path fill="none" stroke="midnightblue" d="M396.597,-558.125C433.993,-571.659 502.217,-596.35 544.087,-611.503"/>
<polygon fill="midnightblue" stroke="midnightblue" points="543.025,-614.841 553.619,-614.953 545.407,-608.258 543.025,-614.841"/>
</g>
<!-- Node23&#45;&gt;Node14 -->
<g id="edge28" class="edge"><title>Node23&#45;&gt;Node14</title>
<path fill="none" stroke="midnightblue" d="M404.208,-547.848C435.441,-547.254 482.316,-546.361 519.809,-545.646"/>
<polygon fill="midnightblue" stroke="midnightblue" points="520.183,-549.14 530.114,-545.45 520.049,-542.141 520.183,-549.14"/>
</g>
<!-- Node24&#45;&gt;Node16 -->
<g id="edge30" class="edge"><title>Node24&#45;&gt;Node16</title>
<path fill="none" stroke="midnightblue" d="M821.318,-425.013C838.022,-427.433 858.627,-432.181 875,-441.5 895.219,-453.008 891.329,-467.079 911,-479.5 918.189,-484.04 926.566,-487.594 934.696,-490.336"/>
<polygon fill="midnightblue" stroke="midnightblue" points="933.807,-493.724 944.393,-493.289 935.847,-487.027 933.807,-493.724"/>
</g>
<!-- Node24&#45;&gt;Node17 -->
<g id="edge31" class="edge"><title>Node24&#45;&gt;Node17</title>
<path fill="none" stroke="midnightblue" d="M821.28,-428.946C846.749,-434.368 883.814,-442.259 914.507,-448.793"/>
<polygon fill="midnightblue" stroke="midnightblue" points="914.136,-452.292 924.646,-450.951 915.594,-445.446 914.136,-452.292"/>
</g>
<!-- Node24&#45;&gt;Node18 -->
<g id="edge32" class="edge"><title>Node24&#45;&gt;Node18</title>
<path fill="none" stroke="midnightblue" d="M821.307,-423.761C866.803,-425.914 955.381,-431.109 1030,-441.5 1043.94,-443.441 1058.92,-446.144 1072.77,-448.903"/>
<polygon fill="midnightblue" stroke="midnightblue" points="1072.12,-452.343 1082.62,-450.911 1073.52,-445.484 1072.12,-452.343"/>
</g>
<!-- Node25&#45;&gt;Node15 -->
<g id="edge34" class="edge"><title>Node25&#45;&gt;Node15</title>
<path fill="none" stroke="midnightblue" d="M634.502,-469.456C667.575,-467.539 709.909,-465.085 741.897,-463.231"/>
<polygon fill="midnightblue" stroke="midnightblue" points="742.114,-466.724 751.895,-462.651 741.709,-459.736 742.114,-466.724"/>
</g>
<!-- Node27 -->
<g id="node27" class="node"><title>Node27</title>
<g id="a_node27"><a xlink:href="namespacetlz.html#a643b2d03bd805fe78dcd684ef45e52fb" target="_top" xlink:title="Clamp value between minimum and maximum value. ">
<polygon fill="white" stroke="black" points="339.5,-387 339.5,-406 398.5,-406 398.5,-387 339.5,-387"/>
<text text-anchor="middle" x="369" y="-394" font-family="Helvetica,sans-Serif" font-size="10.00">tlz::clamp</text>
</a>
</g>
</g>
<!-- Node26&#45;&gt;Node27 -->
<g id="edge36" class="edge"><title>Node26&#45;&gt;Node27</title>
<path fill="none" stroke="midnightblue" d="M181.538,-362.353C216.163,-368.694 285.665,-381.422 329.343,-389.421"/>
<polygon fill="midnightblue" stroke="midnightblue" points="328.852,-392.889 339.319,-391.248 330.113,-386.003 328.852,-392.889"/>
</g>
<!-- Node28 -->
<g id="node28" class="node"><title>Node28</title>
<g id="a_node28"><a xlink:href="namespacetlz.html#a4fe5757a830e199f84d229eee11f616e" target="_top" xlink:title="Compute greatest common divisor of a and b. ">
<polygon fill="white" stroke="black" points="344.5,-349 344.5,-368 393.5,-368 393.5,-349 344.5,-349"/>
<text text-anchor="middle" x="369" y="-356" font-family="Helvetica,sans-Serif" font-size="10.00">tlz::gcd</text>
</a>
</g>
</g>
<!-- Node26&#45;&gt;Node28 -->
<g id="edge37" class="edge"><title>Node26&#45;&gt;Node28</title>
<path fill="none" stroke="midnightblue" d="M181.538,-358.5C217.518,-358.5 291.157,-358.5 334.348,-358.5"/>
<polygon fill="midnightblue" stroke="midnightblue" points="334.372,-362 344.372,-358.5 334.372,-355 334.372,-362"/>
</g>
<!-- Node29 -->
<g id="node29" class="node"><title>Node29</title>
<g id="a_node29"><a xlink:href="namespacetlz.html#aec6e2158ce198aa20a8493fde3d3b552" target="_top" xlink:title="Compute least common multiple of a and b. ">
<polygon fill="white" stroke="black" points="344.5,-311 344.5,-330 393.5,-330 393.5,-311 344.5,-311"/>
<text text-anchor="middle" x="369" y="-318" font-family="Helvetica,sans-Serif" font-size="10.00">tlz::lcm</text>
</a>
</g>
</g>
<!-- Node26&#45;&gt;Node29 -->
<g id="edge38" class="edge"><title>Node26&#45;&gt;Node29</title>
<path fill="none" stroke="midnightblue" d="M181.538,-354.647C217.518,-348.058 291.157,-334.572 334.348,-326.663"/>
<polygon fill="midnightblue" stroke="midnightblue" points="335.166,-330.071 344.372,-324.827 333.905,-323.186 335.166,-330.071"/>
</g>
<!-- Node31 -->
<g id="node31" class="node"><title>Node31</title>
<g id="a_node31"><a xlink:href="namespacetlz.html#a50da847dcfcd4a37035f36baf5658b0d" target="_top" xlink:title="tlz::get_reference\l_views_set">
<polygon fill="white" stroke="black" points="323,-212.5 323,-242.5 415,-242.5 415,-212.5 323,-212.5"/>
<text text-anchor="start" x="331" y="-230.5" font-family="Helvetica,sans-Serif" font-size="10.00">tlz::get_reference</text>
<text text-anchor="middle" x="369" y="-219.5" font-family="Helvetica,sans-Serif" font-size="10.00">_views_set</text>
</a>
</g>
</g>
<!-- Node30&#45;&gt;Node31 -->
<g id="edge40" class="edge"><title>Node30&#45;&gt;Node31</title>
<path fill="none" stroke="midnightblue" d="M196.644,-272.92C228.697,-264.424 275.998,-251.886 312.787,-242.135"/>
<polygon fill="midnightblue" stroke="midnightblue" points="314.094,-245.409 322.864,-239.464 312.301,-238.643 314.094,-245.409"/>
</g>
<!-- Node30&#45;&gt;Node32 -->
<g id="edge41" class="edge"><title>Node30&#45;&gt;Node32</title>
<path fill="none" stroke="midnightblue" d="M219.129,-280.805C247.201,-279.993 280.746,-279.023 308.88,-278.209"/>
<polygon fill="midnightblue" stroke="midnightblue" points="309.086,-281.705 318.981,-277.917 308.884,-274.708 309.086,-281.705"/>
</g>
<!-- Node30&#45;&gt;Node33 -->
<g id="edge42" class="edge"><title>Node30&#45;&gt;Node33</title>
<path fill="none" stroke="midnightblue" d="M215.922,-272.972C226.222,-269.535 236.425,-264.859 245,-258.5 268.766,-240.875 257.167,-220.035 281,-202.5 289.321,-196.378 299.126,-191.818 309.099,-188.42"/>
<polygon fill="midnightblue" stroke="midnightblue" points="310.123,-191.768 318.67,-185.507 308.084,-185.071 310.123,-191.768"/>
</g>
<!-- Node30&#45;&gt;Node34 -->
<g id="edge43" class="edge"><title>Node30&#45;&gt;Node34</title>
<path fill="none" stroke="midnightblue" d="M177.812,-272.96C196.253,-262.134 225.427,-243.024 245,-220.5 267.173,-194.984 254.576,-174.583 281,-153.5 289.168,-146.983 298.984,-142.233 309.035,-138.771"/>
<polygon fill="midnightblue" stroke="midnightblue" points="310.15,-142.091 318.698,-135.831 308.112,-135.394 310.15,-142.091"/>
</g>
<!-- Node39&#45;&gt;Node5 -->
<g id="edge53" class="edge"><title>Node39&#45;&gt;Node5</title>
<path fill="none" stroke="midnightblue" d="M245.14,-732.939C322.973,-737.021 437.026,-743.002 509.888,-746.823"/>
<polygon fill="midnightblue" stroke="midnightblue" points="509.718,-750.319 519.887,-747.347 510.084,-743.328 509.718,-750.319"/>
</g>
<!-- Node40 -->
<g id="node40" class="node"><title>Node40</title>
<g id="a_node40"><a xlink:href="namespacetlz.html#ab98de0b10e3e079dee189f81adc638a0" target="_top" xlink:title="tlz::export_json_file">
<polygon fill="white" stroke="black" points="318.5,-700 318.5,-719 419.5,-719 419.5,-700 318.5,-700"/>
<text text-anchor="middle" x="369" y="-707" font-family="Helvetica,sans-Serif" font-size="10.00">tlz::export_json_file</text>
</a>
</g>
</g>
<!-- Node39&#45;&gt;Node40 -->
<g id="edge54" class="edge"><title>Node39&#45;&gt;Node40</title>
<path fill="none" stroke="midnightblue" d="M245.197,-720.745C266.383,-718.805 288.665,-716.764 308.347,-714.962"/>
<polygon fill="midnightblue" stroke="midnightblue" points="308.743,-718.441 318.382,-714.043 308.105,-711.47 308.743,-718.441"/>
</g>
<!-- Node41 -->
<g id="node41" class="node"><title>Node41</title>
<g id="a_node41"><a xlink:href="namespacetlz.html#a5425610b090d56218f8a7272ba402bfb" target="_top" xlink:title="tlz::encode_image_correspondences">
<polygon fill="white" stroke="black" points="281,-826 281,-845 457,-845 457,-826 281,-826"/>
<text text-anchor="middle" x="369" y="-833" font-family="Helvetica,sans-Serif" font-size="10.00">tlz::encode_image_correspondences</text>
</a>
</g>
</g>
<!-- Node39&#45;&gt;Node41 -->
<g id="edge56" class="edge"><title>Node39&#45;&gt;Node41</title>
<path fill="none" stroke="midnightblue" d="M228.428,-738.063C234.356,-740.552 239.994,-743.65 245,-747.5 272.42,-768.585 253.515,-795.499 281,-816.5 283.361,-818.304 285.858,-819.944 288.457,-821.435"/>
<polygon fill="midnightblue" stroke="midnightblue" points="287.119,-824.678 297.637,-825.949 290.208,-818.396 287.119,-824.678"/>
</g>
<!-- Node46 -->
<g id="node46" class="node"><title>Node46</title>
<g id="a_node46"><a xlink:href="namespacetlz.html#a24bb23db2319f38046e6de526a0cb20e" target="_top" xlink:title="tlz::export_binary\l_image_correspondences">
<polygon fill="white" stroke="black" points="305,-776.5 305,-806.5 433,-806.5 433,-776.5 305,-776.5"/>
<text text-anchor="start" x="313" y="-794.5" font-family="Helvetica,sans-Serif" font-size="10.00">tlz::export_binary</text>
<text text-anchor="middle" x="369" y="-783.5" font-family="Helvetica,sans-Serif" font-size="10.00">_image_correspondences</text>
</a>
</g>
</g>
<!-- Node39&#45;&gt;Node46 -->
<g id="edge62" class="edge"><title>Node39&#45;&gt;Node46</title>
<path fill="none" stroke="midnightblue" d="M208.643,-738.016C220.613,-740.74 233.35,-743.947 245,-747.5 261.421,-752.508 264.882,-755.59 281,-761.5 291.451,-765.332 302.657,-769.301 313.434,-773.047"/>
<polygon fill="midnightblue" stroke="midnightblue" points="312.581,-776.456 323.176,-776.415 314.868,-769.84 312.581,-776.456"/>
</g>
<!-- Node40&#45;&gt;Node5 -->
<g id="edge55" class="edge"><title>Node40&#45;&gt;Node5</title>
<path fill="none" stroke="midnightblue" d="M418.706,-719.009C449.21,-724.965 488.713,-732.677 520.99,-738.979"/>
<polygon fill="midnightblue" stroke="midnightblue" points="520.709,-742.49 531.195,-740.971 522.051,-735.62 520.709,-742.49"/>
</g>
<!-- Node42 -->
<g id="node42" class="node"><title>Node42</title>
<g id="a_node42"><a xlink:href="namespacetlz.html#aa875dcb2a47f0a406887a14c6f515bfd" target="_top" xlink:title="tlz::encode_image_correspondence\l_feature">
<polygon fill="white" stroke="black" points="496,-820.5 496,-850.5 666,-850.5 666,-820.5 496,-820.5"/>
<text text-anchor="start" x="504" y="-838.5" font-family="Helvetica,sans-Serif" font-size="10.00">tlz::encode_image_correspondence</text>
<text text-anchor="middle" x="581" y="-827.5" font-family="Helvetica,sans-Serif" font-size="10.00">_feature</text>
</a>
</g>
</g>
<!-- Node41&#45;&gt;Node42 -->
<g id="edge57" class="edge"><title>Node41&#45;&gt;Node42</title>
<path fill="none" stroke="midnightblue" d="M457.235,-835.5C466.586,-835.5 476.131,-835.5 485.561,-835.5"/>
<polygon fill="midnightblue" stroke="midnightblue" points="485.735,-839 495.735,-835.5 485.735,-832 485.735,-839"/>
</g>
<!-- Node43 -->
<g id="node43" class="node"><title>Node43</title>
<g id="a_node43"><a xlink:href="namespacetlz.html#aadab29bdc80bc1d0ad6d3784dd427992" target="_top" xlink:title="tlz::encode_view_index">
<polygon fill="white" stroke="black" points="730.5,-830 730.5,-849 849.5,-849 849.5,-830 730.5,-830"/>
<text text-anchor="middle" x="790" y="-837" font-family="Helvetica,sans-Serif" font-size="10.00">tlz::encode_view_index</text>
</a>
</g>
</g>
<!-- Node42&#45;&gt;Node43 -->
<g id="edge58" class="edge"><title>Node42&#45;&gt;Node43</title>
<path fill="none" stroke="midnightblue" d="M666.195,-837.127C684.16,-837.474 702.929,-837.837 720.234,-838.171"/>
<polygon fill="midnightblue" stroke="midnightblue" points="720.17,-841.671 730.236,-838.364 720.305,-834.672 720.17,-841.671"/>
</g>
<!-- Node45 -->
<g id="node45" class="node"><title>Node45</title>
<g id="a_node45"><a xlink:href="namespacetlz.html#a8f6c31dc4b1dffe7950bcb1f4ff85cbc" target="_top" xlink:title="tlz::encode_feature\l_point">
<polygon fill="white" stroke="black" points="740,-780.5 740,-810.5 840,-810.5 840,-780.5 740,-780.5"/>
<text text-anchor="start" x="748" y="-798.5" font-family="Helvetica,sans-Serif" font-size="10.00">tlz::encode_feature</text>
<text text-anchor="middle" x="790" y="-787.5" font-family="Helvetica,sans-Serif" font-size="10.00">_point</text>
</a>
</g>
</g>
<!-- Node42&#45;&gt;Node45 -->
<g id="edge61" class="edge"><title>Node42&#45;&gt;Node45</title>
<path fill="none" stroke="midnightblue" d="M659.668,-820.492C682.843,-816.014 707.863,-811.179 729.665,-806.966"/>
<polygon fill="midnightblue" stroke="midnightblue" points="730.607,-810.348 739.761,-805.015 729.279,-803.476 730.607,-810.348"/>
</g>
<!-- Node43&#45;&gt;Node19 -->
<g id="edge59" class="edge"><title>Node43&#45;&gt;Node19</title>
<path fill="none" stroke="midnightblue" d="M821.472,-849.018C870.809,-862.389 968.81,-880.232 1030,-833.5 1074.25,-799.704 1043.8,-764.565 1066,-713.5 1079.22,-683.091 1099.58,-650.385 1112.59,-630.683"/>
<polygon fill="midnightblue" stroke="midnightblue" points="1115.67,-632.378 1118.32,-622.122 1109.85,-628.482 1115.67,-632.378"/>
</g>
<!-- Node44 -->
<g id="node44" class="node"><title>Node44</title>
<g id="a_node44"><a xlink:href="structtlz_1_1view__index.html#a20518c30015d833cdb2a69b524886b96" target="_top" xlink:title="tlz::view_index::is_2d">
<polygon fill="white" stroke="black" points="915,-805 915,-824 1026,-824 1026,-805 915,-805"/>
<text text-anchor="middle" x="970.5" y="-812" font-family="Helvetica,sans-Serif" font-size="10.00">tlz::view_index::is_2d</text>
</a>
</g>
</g>
<!-- Node43&#45;&gt;Node44 -->
<g id="edge60" class="edge"><title>Node43&#45;&gt;Node44</title>
<path fill="none" stroke="midnightblue" d="M849.942,-831.245C867.511,-828.784 886.858,-826.075 904.775,-823.565"/>
<polygon fill="midnightblue" stroke="midnightblue" points="905.429,-827.008 914.847,-822.154 904.458,-820.075 905.429,-827.008"/>
</g>
</g>
</svg>
