<?xml version="1.0" encoding="UTF-8" standalone="no"?>
<!DOCTYPE svg PUBLIC "-//W3C//DTD SVG 1.1//EN"
 "http://www.w3.org/Graphics/SVG/1.1/DTD/svg11.dtd">
<!-- Generated by graphviz version 2.38.0 (20140413.2041)
 -->
<!-- Title: main Pages: 1 -->
<svg width="1099pt" height="856pt"
 viewBox="0.00 0.00 1099.00 856.00" xmlns="http://www.w3.org/2000/svg" xmlns:xlink="http://www.w3.org/1999/xlink">
<g id="graph0" class="graph" transform="scale(1 1) rotate(0) translate(4 852)">
<title>main</title>
<polygon fill="white" stroke="none" points="-4,4 -4,-852 1095,-852 1095,4 -4,4"/>
<!-- Node1 -->
<g id="node1" class="node"><title>Node1</title>
<polygon fill="#bfbfbf" stroke="black" points="0,-228.5 0,-247.5 38,-247.5 38,-228.5 0,-228.5"/>
<text text-anchor="middle" x="19" y="-235.5" font-family="Helvetica,sans-Serif" font-size="10.00">main</text>
</g>
<!-- Node2 -->
<g id="node2" class="node"><title>Node2</title>
<g id="a_node2"><a xlink:href="namespacetlz.html#a3c03f5d9d6261ec2909938822fc47f8a" target="_top" xlink:title="tlz::get_args">
<polygon fill="white" stroke="black" points="105,-664.5 105,-683.5 176,-683.5 176,-664.5 105,-664.5"/>
<text text-anchor="middle" x="140.5" y="-671.5" font-family="Helvetica,sans-Serif" font-size="10.00">tlz::get_args</text>
</a>
</g>
</g>
<!-- Node1&#45;&gt;Node2 -->
<g id="edge1" class="edge"><title>Node1&#45;&gt;Node2</title>
<path fill="none" stroke="midnightblue" d="M19.8709,-247.687C19.3142,-304.211 19.2472,-591.121 74,-655 79.4782,-661.391 86.9652,-665.698 94.9228,-668.585"/>
<polygon fill="midnightblue" stroke="midnightblue" points="94.1797,-672.014 104.759,-671.447 96.1355,-665.293 94.1797,-672.014"/>
</g>
<!-- Node3 -->
<g id="node3" class="node"><title>Node3</title>
<g id="a_node3"><a xlink:href="namespacetlz.html#a063febb60aec45ac8c7f3b33179f00be" target="_top" xlink:title="tlz::feature_slopes_arg">
<polygon fill="white" stroke="black" points="82.5,-626.5 82.5,-645.5 198.5,-645.5 198.5,-626.5 82.5,-626.5"/>
<text text-anchor="middle" x="140.5" y="-633.5" font-family="Helvetica,sans-Serif" font-size="10.00">tlz::feature_slopes_arg</text>
</a>
</g>
</g>
<!-- Node1&#45;&gt;Node3 -->
<g id="edge2" class="edge"><title>Node1&#45;&gt;Node3</title>
<path fill="none" stroke="midnightblue" d="M20.0962,-247.656C20.8085,-300.425 26.6806,-553.662 74,-612 76.9551,-615.643 80.5155,-618.733 84.4304,-621.355"/>
<polygon fill="midnightblue" stroke="midnightblue" points="83.0281,-624.579 93.4695,-626.376 86.4274,-618.46 83.0281,-624.579"/>
</g>
<!-- Node19 -->
<g id="node19" class="node"><title>Node19</title>
<g id="a_node19"><a xlink:href="namespacetlz.html#a170805c7a8ede64a93e0ee23196e5b7c" target="_top" xlink:title="tlz::intrinsics_arg">
<polygon fill="white" stroke="black" points="258.5,-588.5 258.5,-607.5 349.5,-607.5 349.5,-588.5 258.5,-588.5"/>
<text text-anchor="middle" x="304" y="-595.5" font-family="Helvetica,sans-Serif" font-size="10.00">tlz::intrinsics_arg</text>
</a>
</g>
</g>
<!-- Node1&#45;&gt;Node19 -->
<g id="edge22" class="edge"><title>Node1&#45;&gt;Node19</title>
<path fill="none" stroke="midnightblue" d="M20.0411,-247.518C20.4661,-297.352 25.0841,-527.7 74,-574 120.27,-617.795 197.684,-616.362 249.531,-609.041"/>
<polygon fill="midnightblue" stroke="midnightblue" points="250.186,-612.482 259.542,-607.51 249.128,-605.562 250.186,-612.482"/>
</g>
<!-- Node22 -->
<g id="node22" class="node"><title>Node22</title>
<g id="a_node22"><a xlink:href="namespacetlz.html#a65770a2c1ff57c5ae6542d4465a3d3f4" target="_top" xlink:title="tlz::out_filename_arg">
<polygon fill="white" stroke="black" points="402,-512.5 402,-531.5 509,-531.5 509,-512.5 402,-512.5"/>
<text text-anchor="middle" x="455.5" y="-519.5" font-family="Helvetica,sans-Serif" font-size="10.00">tlz::out_filename_arg</text>
</a>
</g>
</g>
<!-- Node1&#45;&gt;Node22 -->
<g id="edge28" class="edge"><title>Node1&#45;&gt;Node22</title>
<path fill="none" stroke="midnightblue" d="M21.2095,-247.64C26.0215,-284.471 44.9661,-415.653 74,-444 159.109,-527.094 307.582,-532.711 391.691,-528.169"/>
<polygon fill="midnightblue" stroke="midnightblue" points="392.1,-531.651 401.87,-527.552 391.677,-524.663 392.1,-531.651"/>
</g>
<!-- Node23 -->
<g id="node23" class="node"><title>Node23</title>
<g id="a_node23"><a xlink:href="namespacetlz.html#aa97786c6fc9e60663efcaa490eb3181f" target="_top" xlink:title="tlz::to_rotation_matrix">
<polygon fill="white" stroke="black" points="85,-114.5 85,-133.5 196,-133.5 196,-114.5 85,-114.5"/>
<text text-anchor="middle" x="140.5" y="-121.5" font-family="Helvetica,sans-Serif" font-size="10.00">tlz::to_rotation_matrix</text>
</a>
</g>
</g>
<!-- Node1&#45;&gt;Node23 -->
<g id="edge30" class="edge"><title>Node1&#45;&gt;Node23</title>
<path fill="none" stroke="midnightblue" d="M23.2768,-228.402C29.9669,-210.182 46.8948,-170.407 74,-148 78.9618,-143.898 84.687,-140.465 90.6448,-137.6"/>
<polygon fill="midnightblue" stroke="midnightblue" points="92.3017,-140.698 100.122,-133.55 89.5511,-134.261 92.3017,-140.698"/>
</g>
<!-- Node24 -->
<g id="node24" class="node"><title>Node24</title>
<g id="a_node24"><a xlink:href="structtlz_1_1intrinsics.html#ad5875d6c77076468aebce0d88ef61c20" target="_top" xlink:title="tlz::intrinsics::fx">
<polygon fill="white" stroke="black" points="566.5,-252.5 566.5,-271.5 652.5,-271.5 652.5,-252.5 566.5,-252.5"/>
<text text-anchor="middle" x="609.5" y="-259.5" font-family="Helvetica,sans-Serif" font-size="10.00">tlz::intrinsics::fx</text>
</a>
</g>
</g>
<!-- Node1&#45;&gt;Node24 -->
<g id="edge31" class="edge"><title>Node1&#45;&gt;Node24</title>
<path fill="none" stroke="midnightblue" d="M38.258,-238.745C117.136,-241.961 430.319,-254.733 555.954,-259.857"/>
<polygon fill="midnightblue" stroke="midnightblue" points="555.961,-263.36 566.095,-260.271 556.246,-256.366 555.961,-263.36"/>
</g>
<!-- Node25 -->
<g id="node25" class="node"><title>Node25</title>
<g id="a_node25"><a xlink:href="structtlz_1_1intrinsics.html#a52e02ae0e8bbea245fcced1c38964f29" target="_top" xlink:title="tlz::intrinsics::fy">
<polygon fill="white" stroke="black" points="566.5,-202.5 566.5,-221.5 652.5,-221.5 652.5,-202.5 566.5,-202.5"/>
<text text-anchor="middle" x="609.5" y="-209.5" font-family="Helvetica,sans-Serif" font-size="10.00">tlz::intrinsics::fy</text>
</a>
</g>
</g>
<!-- Node1&#45;&gt;Node25 -->
<g id="edge32" class="edge"><title>Node1&#45;&gt;Node25</title>
<path fill="none" stroke="midnightblue" d="M38.258,-237.193C117.136,-233.709 430.319,-219.872 555.954,-214.322"/>
<polygon fill="midnightblue" stroke="midnightblue" points="556.259,-217.812 566.095,-213.873 555.95,-210.818 556.259,-217.812"/>
</g>
<!-- Node26 -->
<g id="node26" class="node"><title>Node26</title>
<g id="a_node26"><a xlink:href="structtlz_1_1intrinsics.html#acc9b666adbc970c279c56a4549cc90d5" target="_top" xlink:title="tlz::intrinsics::cx">
<polygon fill="white" stroke="black" points="565,-152.5 565,-171.5 654,-171.5 654,-152.5 565,-152.5"/>
<text text-anchor="middle" x="609.5" y="-159.5" font-family="Helvetica,sans-Serif" font-size="10.00">tlz::intrinsics::cx</text>
</a>
</g>
</g>
<!-- Node1&#45;&gt;Node26 -->
<g id="edge33" class="edge"><title>Node1&#45;&gt;Node26</title>
<path fill="none" stroke="midnightblue" d="M38.4273,-233.866C48.8334,-231.627 62.1008,-228.932 74,-227 248.937,-198.592 457.921,-176.611 554.573,-167.118"/>
<polygon fill="midnightblue" stroke="midnightblue" points="555.072,-170.586 564.684,-166.13 554.391,-163.619 555.072,-170.586"/>
</g>
<!-- Node27 -->
<g id="node27" class="node"><title>Node27</title>
<g id="a_node27"><a xlink:href="structtlz_1_1intrinsics.html#af7acb0b51e36fbb45d73bc10efef7d25" target="_top" xlink:title="tlz::intrinsics::cy">
<polygon fill="white" stroke="black" points="96,-360.5 96,-379.5 185,-379.5 185,-360.5 96,-360.5"/>
<text text-anchor="middle" x="140.5" y="-367.5" font-family="Helvetica,sans-Serif" font-size="10.00">tlz::intrinsics::cy</text>
</a>
</g>
</g>
<!-- Node1&#45;&gt;Node27 -->
<g id="edge34" class="edge"><title>Node1&#45;&gt;Node27</title>
<path fill="none" stroke="midnightblue" d="M28.9819,-247.921C49.2371,-270.295 98.6743,-324.904 123.996,-352.874"/>
<polygon fill="midnightblue" stroke="midnightblue" points="121.433,-355.258 130.739,-360.322 126.622,-350.56 121.433,-355.258"/>
</g>
<!-- Node29 -->
<g id="node29" class="node"><title>Node29</title>
<g id="a_node29"><a xlink:href="namespacetlz.html#acf7ca4ee1b750cf31a40170bea887d46" target="_top" xlink:title="tlz::encode_mat">
<polygon fill="white" stroke="black" points="412.5,-436.5 412.5,-455.5 498.5,-455.5 498.5,-436.5 412.5,-436.5"/>
<text text-anchor="middle" x="455.5" y="-443.5" font-family="Helvetica,sans-Serif" font-size="10.00">tlz::encode_mat</text>
</a>
</g>
</g>
<!-- Node1&#45;&gt;Node29 -->
<g id="edge61" class="edge"><title>Node1&#45;&gt;Node29</title>
<path fill="none" stroke="midnightblue" d="M20.8795,-247.826C23.7229,-274.067 34.8931,-346.668 74,-389 164.706,-487.186 232.059,-478.956 365,-465 379.238,-463.505 394.543,-460.708 408.4,-457.711"/>
<polygon fill="midnightblue" stroke="midnightblue" points="409.209,-461.117 418.198,-455.509 407.674,-454.287 409.209,-461.117"/>
</g>
<!-- Node37 -->
<g id="node37" class="node"><title>Node37</title>
<g id="a_node37"><a xlink:href="namespacetlz.html#a318f0ec11ecbe39c32ad870473ea9c35" target="_top" xlink:title="Compute square of a number. ">
<polygon fill="white" stroke="black" points="118.5,-76.5 118.5,-95.5 162.5,-95.5 162.5,-76.5 118.5,-76.5"/>
<text text-anchor="middle" x="140.5" y="-83.5" font-family="Helvetica,sans-Serif" font-size="10.00">tlz::sq</text>
</a>
</g>
</g>
<!-- Node1&#45;&gt;Node37 -->
<g id="edge54" class="edge"><title>Node1&#45;&gt;Node37</title>
<path fill="none" stroke="midnightblue" d="M21.058,-228.341C24.2548,-203.917 36.0577,-139.21 74,-105 83.3858,-96.5373 96.3311,-91.8286 108.236,-89.2145"/>
<polygon fill="midnightblue" stroke="midnightblue" points="109.086,-92.6183 118.315,-87.4149 107.855,-85.7273 109.086,-92.6183"/>
</g>
<!-- Node41 -->
<g id="node41" class="node"><title>Node41</title>
<g id="a_node41"><a xlink:href="cg__rotation__from__fslopes_8cc.html#a47b91afd196cb08bd947ef4df3563db2" target="_top" xlink:title="one_dim_search_minimum">
<polygon fill="white" stroke="black" points="74,-38.5 74,-57.5 207,-57.5 207,-38.5 74,-38.5"/>
<text text-anchor="middle" x="140.5" y="-45.5" font-family="Helvetica,sans-Serif" font-size="10.00">one_dim_search_minimum</text>
</a>
</g>
</g>
<!-- Node1&#45;&gt;Node41 -->
<g id="edge58" class="edge"><title>Node1&#45;&gt;Node41</title>
<path fill="none" stroke="midnightblue" d="M20.0629,-228.261C20.7947,-199.303 27.0066,-112.9 74,-67 75.4929,-65.5419 77.0907,-64.1944 78.7719,-62.9494"/>
<polygon fill="midnightblue" stroke="midnightblue" points="81.0054,-65.6905 87.7731,-57.5388 77.3991,-59.6909 81.0054,-65.6905"/>
</g>
<!-- Node42 -->
<g id="node42" class="node"><title>Node42</title>
<g id="a_node42"><a xlink:href="namespacetlz.html#ab98de0b10e3e079dee189f81adc638a0" target="_top" xlink:title="tlz::export_json_file">
<polygon fill="white" stroke="black" points="90,-0.5 90,-19.5 191,-19.5 191,-0.5 90,-0.5"/>
<text text-anchor="middle" x="140.5" y="-7.5" font-family="Helvetica,sans-Serif" font-size="10.00">tlz::export_json_file</text>
</a>
</g>
</g>
<!-- Node1&#45;&gt;Node42 -->
<g id="edge59" class="edge"><title>Node1&#45;&gt;Node42</title>
<path fill="none" stroke="midnightblue" d="M19.3926,-228.083C17.9332,-194.932 17.8717,-86.8081 74,-29 76.0878,-26.8497 78.4031,-24.9389 80.8805,-23.2413"/>
<polygon fill="midnightblue" stroke="midnightblue" points="82.8016,-26.1775 89.833,-18.2522 79.394,-20.0629 82.8016,-26.1775"/>
</g>
<!-- Node4 -->
<g id="node4" class="node"><title>Node4</title>
<g id="a_node4"><a xlink:href="namespacetlz.html#a3f97cf7f503f586ab7cfa5175b5a5bf2" target="_top" xlink:title="tlz::decode_feature\l_slopes">
<polygon fill="white" stroke="black" points="254,-706 254,-736 354,-736 354,-706 254,-706"/>
<text text-anchor="start" x="262" y="-724" font-family="Helvetica,sans-Serif" font-size="10.00">tlz::decode_feature</text>
<text text-anchor="middle" x="304" y="-713" font-family="Helvetica,sans-Serif" font-size="10.00">_slopes</text>
</a>
</g>
</g>
<!-- Node3&#45;&gt;Node4 -->
<g id="edge3" class="edge"><title>Node3&#45;&gt;Node4</title>
<path fill="none" stroke="midnightblue" d="M182.084,-645.575C190.506,-648.166 199.188,-651.3 207,-655 232.362,-667.012 258.433,-685.391 276.993,-699.707"/>
<polygon fill="midnightblue" stroke="midnightblue" points="274.936,-702.541 284.963,-705.961 279.257,-697.034 274.936,-702.541"/>
</g>
<!-- Node10 -->
<g id="node10" class="node"><title>Node10</title>
<g id="a_node10"><a xlink:href="namespacetlz.html#a35f9e03fa4fd9cec699f5fa27962400f" target="_top" xlink:title="tlz::json_arg">
<polygon fill="white" stroke="black" points="420.5,-626.5 420.5,-645.5 490.5,-645.5 490.5,-626.5 420.5,-626.5"/>
<text text-anchor="middle" x="455.5" y="-633.5" font-family="Helvetica,sans-Serif" font-size="10.00">tlz::json_arg</text>
</a>
</g>
</g>
<!-- Node3&#45;&gt;Node10 -->
<g id="edge11" class="edge"><title>Node3&#45;&gt;Node10</title>
<path fill="none" stroke="midnightblue" d="M198.545,-636C259.339,-636 354.322,-636 409.881,-636"/>
<polygon fill="midnightblue" stroke="midnightblue" points="410.112,-639.5 420.112,-636 410.112,-632.5 410.112,-639.5"/>
</g>
<!-- Node5 -->
<g id="node5" class="node"><title>Node5</title>
<g id="a_node5"><a xlink:href="namespacetlz.html#abc92401653ee5627160c4f3c48a11311" target="_top" xlink:title="tlz::decode_feature\l_points">
<polygon fill="white" stroke="black" points="405.5,-747 405.5,-777 505.5,-777 505.5,-747 405.5,-747"/>
<text text-anchor="start" x="413.5" y="-765" font-family="Helvetica,sans-Serif" font-size="10.00">tlz::decode_feature</text>
<text text-anchor="middle" x="455.5" y="-754" font-family="Helvetica,sans-Serif" font-size="10.00">_points</text>
</a>
</g>
</g>
<!-- Node4&#45;&gt;Node5 -->
<g id="edge4" class="edge"><title>Node4&#45;&gt;Node5</title>
<path fill="none" stroke="midnightblue" d="M354.366,-734.539C367.575,-738.161 381.984,-742.113 395.649,-745.86"/>
<polygon fill="midnightblue" stroke="midnightblue" points="394.871,-749.276 405.441,-748.546 396.722,-742.525 394.871,-749.276"/>
</g>
<!-- Node6 -->
<g id="node6" class="node"><title>Node6</title>
<g id="a_node6"><a xlink:href="namespacetlz.html#a252af14b9b4ac6502d3e9c5dd8dc90b8" target="_top" xlink:title="tlz::has">
<polygon fill="white" stroke="black" points="854,-708.5 854,-727.5 903,-727.5 903,-708.5 854,-708.5"/>
<text text-anchor="middle" x="878.5" y="-715.5" font-family="Helvetica,sans-Serif" font-size="10.00">tlz::has</text>
</a>
</g>
</g>
<!-- Node5&#45;&gt;Node6 -->
<g id="edge5" class="edge"><title>Node5&#45;&gt;Node6</title>
<path fill="none" stroke="midnightblue" d="M505.736,-763.298C518.822,-763.589 532.945,-763.854 546,-764 602.441,-764.631 616.901,-770.232 673,-764 734.22,-757.2 803.886,-739.282 844.065,-727.921"/>
<polygon fill="midnightblue" stroke="midnightblue" points="845.213,-731.233 853.863,-725.115 843.286,-724.504 845.213,-731.233"/>
</g>
<!-- Node7 -->
<g id="node7" class="node"><title>Node7</title>
<g id="a_node7"><a xlink:href="namespacetlz.html#a74e8454f97dace7cffb1afdb6d3ca87b" target="_top" xlink:title="tlz::decode_view_index">
<polygon fill="white" stroke="black" points="550,-828.5 550,-847.5 669,-847.5 669,-828.5 550,-828.5"/>
<text text-anchor="middle" x="609.5" y="-835.5" font-family="Helvetica,sans-Serif" font-size="10.00">tlz::decode_view_index</text>
</a>
</g>
</g>
<!-- Node5&#45;&gt;Node7 -->
<g id="edge6" class="edge"><title>Node5&#45;&gt;Node7</title>
<path fill="none" stroke="midnightblue" d="M480.245,-777.196C497.964,-788.187 522.984,-802.981 546,-814 553.987,-817.824 562.756,-821.497 571.134,-824.771"/>
<polygon fill="midnightblue" stroke="midnightblue" points="570.127,-828.133 580.719,-828.416 572.616,-821.59 570.127,-828.133"/>
</g>
<!-- Node8 -->
<g id="node8" class="node"><title>Node8</title>
<g id="a_node8"><a xlink:href="namespacetlz.html#add846dc50c32dfb356cb1a7ac11d37ac" target="_top" xlink:title="tlz::get_or">
<polygon fill="white" stroke="black" points="717.5,-708.5 717.5,-727.5 777.5,-727.5 777.5,-708.5 717.5,-708.5"/>
<text text-anchor="middle" x="747.5" y="-715.5" font-family="Helvetica,sans-Serif" font-size="10.00">tlz::get_or</text>
</a>
</g>
</g>
<!-- Node5&#45;&gt;Node8 -->
<g id="edge7" class="edge"><title>Node5&#45;&gt;Node8</title>
<path fill="none" stroke="midnightblue" d="M505.574,-761.045C549.779,-759.395 616.327,-754.943 673,-743 686.529,-740.149 701.017,-735.569 713.523,-731.103"/>
<polygon fill="midnightblue" stroke="midnightblue" points="714.9,-734.325 723.072,-727.581 712.478,-727.758 714.9,-734.325"/>
</g>
<!-- Node9 -->
<g id="node9" class="node"><title>Node9</title>
<g id="a_node9"><a xlink:href="namespacetlz.html#ae8f9175a86bbe49ac0f4485d5db3080b" target="_top" xlink:title="tlz::decode_feature\l_point">
<polygon fill="white" stroke="black" points="559.5,-703 559.5,-733 659.5,-733 659.5,-703 559.5,-703"/>
<text text-anchor="start" x="567.5" y="-721" font-family="Helvetica,sans-Serif" font-size="10.00">tlz::decode_feature</text>
<text text-anchor="middle" x="609.5" y="-710" font-family="Helvetica,sans-Serif" font-size="10.00">_point</text>
</a>
</g>
</g>
<!-- Node5&#45;&gt;Node9 -->
<g id="edge9" class="edge"><title>Node5&#45;&gt;Node9</title>
<path fill="none" stroke="midnightblue" d="M505.85,-747.714C519.796,-743.678 535.112,-739.244 549.561,-735.061"/>
<polygon fill="midnightblue" stroke="midnightblue" points="550.765,-738.356 559.398,-732.214 548.819,-731.633 550.765,-738.356"/>
</g>
<!-- Node8&#45;&gt;Node6 -->
<g id="edge8" class="edge"><title>Node8&#45;&gt;Node6</title>
<path fill="none" stroke="midnightblue" d="M777.772,-718C797.396,-718 823.295,-718 843.782,-718"/>
<polygon fill="midnightblue" stroke="midnightblue" points="843.94,-721.5 853.94,-718 843.94,-714.5 843.94,-721.5"/>
</g>
<!-- Node9&#45;&gt;Node8 -->
<g id="edge10" class="edge"><title>Node9&#45;&gt;Node8</title>
<path fill="none" stroke="midnightblue" d="M659.599,-718C675.15,-718 692.134,-718 706.928,-718"/>
<polygon fill="midnightblue" stroke="midnightblue" points="707.262,-721.5 717.262,-718 707.262,-714.5 707.262,-721.5"/>
</g>
<!-- Node11 -->
<g id="node11" class="node"><title>Node11</title>
<g id="a_node11"><a xlink:href="namespacetlz.html#aa1be9362f548fcf9378e1fc9074089c4" target="_top" xlink:title="tlz::import_json_file">
<polygon fill="white" stroke="black" points="559,-664.5 559,-683.5 660,-683.5 660,-664.5 559,-664.5"/>
<text text-anchor="middle" x="609.5" y="-671.5" font-family="Helvetica,sans-Serif" font-size="10.00">tlz::import_json_file</text>
</a>
</g>
</g>
<!-- Node10&#45;&gt;Node11 -->
<g id="edge12" class="edge"><title>Node10&#45;&gt;Node11</title>
<path fill="none" stroke="midnightblue" d="M490.612,-644.528C511.274,-649.694 537.944,-656.361 560.689,-662.047"/>
<polygon fill="midnightblue" stroke="midnightblue" points="559.947,-665.469 570.497,-664.499 561.645,-658.678 559.947,-665.469"/>
</g>
<!-- Node12 -->
<g id="node12" class="node"><title>Node12</title>
<g id="a_node12"><a xlink:href="namespacetlz.html#a634de7ca11e100e4a118dffe80376a75" target="_top" xlink:title="tlz::in_filename_arg">
<polygon fill="white" stroke="black" points="559,-550.5 559,-569.5 660,-569.5 660,-550.5 559,-550.5"/>
<text text-anchor="middle" x="609.5" y="-557.5" font-family="Helvetica,sans-Serif" font-size="10.00">tlz::in_filename_arg</text>
</a>
</g>
</g>
<!-- Node10&#45;&gt;Node12 -->
<g id="edge13" class="edge"><title>Node10&#45;&gt;Node12</title>
<path fill="none" stroke="midnightblue" d="M486.322,-626.498C494.141,-623.713 502.484,-620.473 510,-617 536.785,-604.621 565.842,-587.286 585.403,-574.991"/>
<polygon fill="midnightblue" stroke="midnightblue" points="587.374,-577.886 593.936,-569.568 583.619,-571.978 587.374,-577.886"/>
</g>
<!-- Node13 -->
<g id="node13" class="node"><title>Node13</title>
<g id="a_node13"><a xlink:href="namespacetlz.html#a0621d598fb83b13bf028f3e6293d04f8" target="_top" xlink:title="tlz::string_arg">
<polygon fill="white" stroke="black" points="709.5,-455.5 709.5,-474.5 785.5,-474.5 785.5,-455.5 709.5,-455.5"/>
<text text-anchor="middle" x="747.5" y="-462.5" font-family="Helvetica,sans-Serif" font-size="10.00">tlz::string_arg</text>
</a>
</g>
</g>
<!-- Node12&#45;&gt;Node13 -->
<g id="edge14" class="edge"><title>Node12&#45;&gt;Node13</title>
<path fill="none" stroke="midnightblue" d="M655.292,-550.44C661.571,-547.971 667.686,-544.876 673,-541 695.71,-524.435 688.767,-508.513 709,-489 712.281,-485.836 716.04,-482.856 719.883,-480.143"/>
<polygon fill="midnightblue" stroke="midnightblue" points="721.816,-483.061 728.277,-474.664 717.99,-477.2 721.816,-483.061"/>
</g>
<!-- Node14 -->
<g id="node14" class="node"><title>Node14</title>
<g id="a_node14"><a xlink:href="namespacetlz.html#a780431daab8d2595372eacb43143b52d" target="_top" xlink:title="tlz::args">
<polygon fill="white" stroke="black" points="852.5,-493.5 852.5,-512.5 904.5,-512.5 904.5,-493.5 852.5,-493.5"/>
<text text-anchor="middle" x="878.5" y="-500.5" font-family="Helvetica,sans-Serif" font-size="10.00">tlz::args</text>
</a>
</g>
</g>
<!-- Node12&#45;&gt;Node14 -->
<g id="edge20" class="edge"><title>Node12&#45;&gt;Node14</title>
<path fill="none" stroke="midnightblue" d="M643.736,-550.407C653.235,-547.527 663.568,-544.262 673,-541 689.224,-535.388 692.393,-531.35 709,-527 754.203,-515.159 807.859,-508.789 842.274,-505.649"/>
<polygon fill="midnightblue" stroke="midnightblue" points="842.648,-509.13 852.306,-504.776 842.041,-502.156 842.648,-509.13"/>
</g>
<!-- Node16 -->
<g id="node16" class="node"><title>Node16</title>
<g id="a_node16"><a xlink:href="classtlz_1_1args__list.html#a38ad21acd64a4af98ffdf4a47837cdbe" target="_top" xlink:title="tlz::args_list::usage_fail">
<polygon fill="white" stroke="black" points="971,-512.5 971,-531.5 1091,-531.5 1091,-512.5 971,-512.5"/>
<text text-anchor="middle" x="1031" y="-519.5" font-family="Helvetica,sans-Serif" font-size="10.00">tlz::args_list::usage_fail</text>
</a>
</g>
</g>
<!-- Node12&#45;&gt;Node16 -->
<g id="edge21" class="edge"><title>Node12&#45;&gt;Node16</title>
<path fill="none" stroke="midnightblue" d="M660.27,-555.492C734.932,-548.728 876.18,-535.934 960.828,-528.266"/>
<polygon fill="midnightblue" stroke="midnightblue" points="961.218,-531.745 970.862,-527.357 960.587,-524.773 961.218,-531.745"/>
</g>
<!-- Node18 -->
<g id="node18" class="node"><title>Node18</title>
<g id="a_node18"><a xlink:href="namespacetlz.html#abb019466ea9f56c0dab27e893d891837" target="_top" xlink:title="tlz::file_exists">
<polygon fill="white" stroke="black" points="709,-569.5 709,-588.5 786,-588.5 786,-569.5 709,-569.5"/>
<text text-anchor="middle" x="747.5" y="-576.5" font-family="Helvetica,sans-Serif" font-size="10.00">tlz::file_exists</text>
</a>
</g>
</g>
<!-- Node12&#45;&gt;Node18 -->
<g id="edge19" class="edge"><title>Node12&#45;&gt;Node18</title>
<path fill="none" stroke="midnightblue" d="M660.369,-566.967C672.925,-568.721 686.371,-570.6 698.816,-572.338"/>
<polygon fill="midnightblue" stroke="midnightblue" points="698.606,-575.843 708.994,-573.76 699.575,-568.91 698.606,-575.843"/>
</g>
<!-- Node13&#45;&gt;Node14 -->
<g id="edge15" class="edge"><title>Node13&#45;&gt;Node14</title>
<path fill="none" stroke="midnightblue" d="M781.052,-474.589C799.78,-480.106 823.314,-487.038 842.447,-492.674"/>
<polygon fill="midnightblue" stroke="midnightblue" points="841.701,-496.103 852.283,-495.572 843.679,-489.389 841.701,-496.103"/>
</g>
<!-- Node15 -->
<g id="node15" class="node"><title>Node15</title>
<g id="a_node15"><a xlink:href="classtlz_1_1args__list.html#a73d99bc75998dc14607a3a372d28dc6d" target="_top" xlink:title="tlz::args_list::next_arg">
<polygon fill="white" stroke="black" points="822,-455.5 822,-474.5 935,-474.5 935,-455.5 822,-455.5"/>
<text text-anchor="middle" x="878.5" y="-462.5" font-family="Helvetica,sans-Serif" font-size="10.00">tlz::args_list::next_arg</text>
</a>
</g>
</g>
<!-- Node13&#45;&gt;Node15 -->
<g id="edge16" class="edge"><title>Node13&#45;&gt;Node15</title>
<path fill="none" stroke="midnightblue" d="M785.812,-465C793.835,-465 802.544,-465 811.295,-465"/>
<polygon fill="midnightblue" stroke="midnightblue" points="811.549,-468.5 821.549,-465 811.549,-461.5 811.549,-468.5"/>
</g>
<!-- Node15&#45;&gt;Node16 -->
<g id="edge17" class="edge"><title>Node15&#45;&gt;Node16</title>
<path fill="none" stroke="midnightblue" d="M908.404,-474.585C916.995,-477.518 926.406,-480.813 935,-484 956.035,-491.802 979.438,-501.155 997.752,-508.63"/>
<polygon fill="midnightblue" stroke="midnightblue" points="996.51,-511.903 1007.09,-512.458 999.165,-505.426 996.51,-511.903"/>
</g>
<!-- Node17 -->
<g id="node17" class="node"><title>Node17</title>
<g id="a_node17"><a xlink:href="namespacetlz.html#a8e4f8c8c2927bc4350de13bfa0f8f9e1" target="_top" xlink:title="tlz::to_string">
<polygon fill="white" stroke="black" points="995.5,-455.5 995.5,-474.5 1066.5,-474.5 1066.5,-455.5 995.5,-455.5"/>
<text text-anchor="middle" x="1031" y="-462.5" font-family="Helvetica,sans-Serif" font-size="10.00">tlz::to_string</text>
</a>
</g>
</g>
<!-- Node15&#45;&gt;Node17 -->
<g id="edge18" class="edge"><title>Node15&#45;&gt;Node17</title>
<path fill="none" stroke="midnightblue" d="M935.113,-465C951.441,-465 969.096,-465 984.698,-465"/>
<polygon fill="midnightblue" stroke="midnightblue" points="985.13,-468.5 995.13,-465 985.129,-461.5 985.13,-468.5"/>
</g>
<!-- Node19&#45;&gt;Node10 -->
<g id="edge27" class="edge"><title>Node19&#45;&gt;Node10</title>
<path fill="none" stroke="midnightblue" d="M342.725,-607.589C363.335,-612.828 388.969,-619.343 410.488,-624.813"/>
<polygon fill="midnightblue" stroke="midnightblue" points="409.812,-628.252 420.366,-627.324 411.536,-621.468 409.812,-628.252"/>
</g>
<!-- Node20 -->
<g id="node20" class="node"><title>Node20</title>
<g id="a_node20"><a xlink:href="namespacetlz.html#a8cba4853d0d796a01c72f59f36f2a492" target="_top" xlink:title="tlz::decode_intrinsics">
<polygon fill="white" stroke="black" points="401,-588.5 401,-607.5 510,-607.5 510,-588.5 401,-588.5"/>
<text text-anchor="middle" x="455.5" y="-595.5" font-family="Helvetica,sans-Serif" font-size="10.00">tlz::decode_intrinsics</text>
</a>
</g>
</g>
<!-- Node19&#45;&gt;Node20 -->
<g id="edge23" class="edge"><title>Node19&#45;&gt;Node20</title>
<path fill="none" stroke="midnightblue" d="M349.855,-598C362.671,-598 376.892,-598 390.613,-598"/>
<polygon fill="midnightblue" stroke="midnightblue" points="390.977,-601.5 400.977,-598 390.977,-594.5 390.977,-601.5"/>
</g>
<!-- Node20&#45;&gt;Node6 -->
<g id="edge25" class="edge"><title>Node20&#45;&gt;Node6</title>
<path fill="none" stroke="midnightblue" d="M510.013,-595.408C554.462,-594.681 618.933,-596.955 673,-612 744.387,-631.864 819.571,-678.507 855.656,-702.755"/>
<polygon fill="midnightblue" stroke="midnightblue" points="853.725,-705.675 863.961,-708.408 857.663,-699.888 853.725,-705.675"/>
</g>
<!-- Node20&#45;&gt;Node8 -->
<g id="edge26" class="edge"><title>Node20&#45;&gt;Node8</title>
<path fill="none" stroke="midnightblue" d="M510.108,-605.22C555.477,-612.906 621.197,-627.831 673,-655 695.395,-666.746 716.856,-686.449 730.744,-700.697"/>
<polygon fill="midnightblue" stroke="midnightblue" points="728.579,-703.5 737.996,-708.354 733.661,-698.687 728.579,-703.5"/>
</g>
<!-- Node21 -->
<g id="node21" class="node"><title>Node21</title>
<g id="a_node21"><a xlink:href="namespacetlz.html#a066563a26e2de02f215b179f3d3a53da" target="_top" xlink:title="tlz::decode_mat">
<polygon fill="white" stroke="black" points="566.5,-512.5 566.5,-531.5 652.5,-531.5 652.5,-512.5 566.5,-512.5"/>
<text text-anchor="middle" x="609.5" y="-519.5" font-family="Helvetica,sans-Serif" font-size="10.00">tlz::decode_mat</text>
</a>
</g>
</g>
<!-- Node20&#45;&gt;Node21 -->
<g id="edge24" class="edge"><title>Node20&#45;&gt;Node21</title>
<path fill="none" stroke="midnightblue" d="M469.202,-588.325C485.998,-575.913 516.879,-554.395 546,-541 550.958,-538.719 556.261,-536.625 561.604,-534.727"/>
<polygon fill="midnightblue" stroke="midnightblue" points="562.82,-538.011 571.198,-531.525 560.604,-531.371 562.82,-538.011"/>
</g>
<!-- Node22&#45;&gt;Node13 -->
<g id="edge29" class="edge"><title>Node22&#45;&gt;Node13</title>
<path fill="none" stroke="midnightblue" d="M500.617,-512.434C515.066,-509.355 531.205,-505.972 546,-503 598.515,-492.451 658.932,-481.108 699.602,-473.589"/>
<polygon fill="midnightblue" stroke="midnightblue" points="700.3,-477.019 709.499,-471.762 699.03,-470.135 700.3,-477.019"/>
</g>
<!-- Node27&#45;&gt;Node19 -->
<g id="edge53" class="edge"><title>Node27&#45;&gt;Node19</title>
<path fill="none" stroke="midnightblue" d="M148.234,-379.507C172.808,-414.199 257.907,-534.34 290.325,-580.105"/>
<polygon fill="midnightblue" stroke="midnightblue" points="287.601,-582.316 296.237,-588.453 293.313,-578.269 287.601,-582.316"/>
</g>
<!-- Node27&#45;&gt;Node20 -->
<g id="edge35" class="edge"><title>Node27&#45;&gt;Node20</title>
<path fill="none" stroke="midnightblue" d="M150.478,-379.538C167.557,-397.414 206.302,-436.703 243,-465 305.779,-513.407 386.718,-560.484 427.889,-583.458"/>
<polygon fill="midnightblue" stroke="midnightblue" points="426.316,-586.588 436.759,-588.377 429.711,-580.467 426.316,-586.588"/>
</g>
<!-- Node28 -->
<g id="node28" class="node"><title>Node28</title>
<g id="a_node28"><a xlink:href="namespacetlz.html#a46c3e46d56bc36cf6b1236522563bc4a" target="_top" xlink:title="tlz::encode_intrinsics">
<polygon fill="white" stroke="black" points="249.5,-436.5 249.5,-455.5 358.5,-455.5 358.5,-436.5 249.5,-436.5"/>
<text text-anchor="middle" x="304" y="-443.5" font-family="Helvetica,sans-Serif" font-size="10.00">tlz::encode_intrinsics</text>
</a>
</g>
</g>
<!-- Node27&#45;&gt;Node28 -->
<g id="edge36" class="edge"><title>Node27&#45;&gt;Node28</title>
<path fill="none" stroke="midnightblue" d="M158.861,-379.52C178.88,-390.35 212.903,-408.307 243,-422 251.074,-425.673 259.883,-429.367 268.204,-432.718"/>
<polygon fill="midnightblue" stroke="midnightblue" points="267.088,-436.04 277.674,-436.472 269.668,-429.533 267.088,-436.04"/>
</g>
<!-- Node31 -->
<g id="node31" class="node"><title>Node31</title>
<g id="a_node31"><a xlink:href="namespacetlz.html#a67f7411515a0538e3a39b9d0602ed854" target="_top" xlink:title="tlz::undistort_point">
<polygon fill="white" stroke="black" points="255.5,-360.5 255.5,-379.5 352.5,-379.5 352.5,-360.5 255.5,-360.5"/>
<text text-anchor="middle" x="304" y="-367.5" font-family="Helvetica,sans-Serif" font-size="10.00">tlz::undistort_point</text>
</a>
</g>
</g>
<!-- Node27&#45;&gt;Node31 -->
<g id="edge39" class="edge"><title>Node27&#45;&gt;Node31</title>
<path fill="none" stroke="midnightblue" d="M185.204,-370C203.66,-370 225.411,-370 245.167,-370"/>
<polygon fill="midnightblue" stroke="midnightblue" points="245.289,-373.5 255.289,-370 245.289,-366.5 245.289,-373.5"/>
</g>
<!-- Node32 -->
<g id="node32" class="node"><title>Node32</title>
<g id="a_node32"><a xlink:href="namespacetlz.html#a8b5e4acbb884887859e414ffe06a09f8" target="_top" xlink:title="tlz::undistort_points">
<polygon fill="white" stroke="black" points="404.5,-363.5 404.5,-382.5 506.5,-382.5 506.5,-363.5 404.5,-363.5"/>
<text text-anchor="middle" x="455.5" y="-370.5" font-family="Helvetica,sans-Serif" font-size="10.00">tlz::undistort_points</text>
</a>
</g>
</g>
<!-- Node27&#45;&gt;Node32 -->
<g id="edge43" class="edge"><title>Node27&#45;&gt;Node32</title>
<path fill="none" stroke="midnightblue" d="M182.738,-379.511C201.08,-383.276 223.007,-387.145 243,-389 296.99,-394.01 310.99,-393.79 365,-389 376.431,-387.986 388.588,-386.258 400.136,-384.302"/>
<polygon fill="midnightblue" stroke="midnightblue" points="400.859,-387.729 410.095,-382.538 399.637,-380.836 400.859,-387.729"/>
</g>
<!-- Node35 -->
<g id="node35" class="node"><title>Node35</title>
<g id="a_node35"><a xlink:href="namespacetlz.html#aa0b38daa346fbb57c8f6668de69ea2d1" target="_top" xlink:title="tlz::distort_point">
<polygon fill="white" stroke="black" points="412.5,-275.5 412.5,-294.5 498.5,-294.5 498.5,-275.5 412.5,-275.5"/>
<text text-anchor="middle" x="455.5" y="-282.5" font-family="Helvetica,sans-Serif" font-size="10.00">tlz::distort_point</text>
</a>
</g>
</g>
<!-- Node27&#45;&gt;Node35 -->
<g id="edge44" class="edge"><title>Node27&#45;&gt;Node35</title>
<path fill="none" stroke="midnightblue" d="M148.441,-360.137C164.272,-344.381 204.653,-316.778 243,-304 295.376,-286.547 358.459,-279.926 402.026,-279.215"/>
<polygon fill="midnightblue" stroke="midnightblue" points="402.133,-282.715 412.112,-279.156 402.092,-275.715 402.133,-282.715"/>
</g>
<!-- Node36 -->
<g id="node36" class="node"><title>Node36</title>
<g id="a_node36"><a xlink:href="namespacetlz.html#ab01b1e8009a6b2ae9fe0fd559de7dd20" target="_top" xlink:title="tlz::distort_points">
<polygon fill="white" stroke="black" points="258,-322.5 258,-341.5 350,-341.5 350,-322.5 258,-322.5"/>
<text text-anchor="middle" x="304" y="-329.5" font-family="Helvetica,sans-Serif" font-size="10.00">tlz::distort_points</text>
</a>
</g>
</g>
<!-- Node27&#45;&gt;Node36 -->
<g id="edge50" class="edge"><title>Node27&#45;&gt;Node36</title>
<path fill="none" stroke="midnightblue" d="M182.253,-360.411C203.661,-355.374 230.086,-349.156 252.753,-343.823"/>
<polygon fill="midnightblue" stroke="midnightblue" points="253.607,-347.217 262.54,-341.52 252.004,-340.404 253.607,-347.217"/>
</g>
<!-- Node28&#45;&gt;Node29 -->
<g id="edge37" class="edge"><title>Node28&#45;&gt;Node29</title>
<path fill="none" stroke="midnightblue" d="M358.551,-446C372.709,-446 387.973,-446 402.071,-446"/>
<polygon fill="midnightblue" stroke="midnightblue" points="402.098,-449.5 412.098,-446 402.098,-442.5 402.098,-449.5"/>
</g>
<!-- Node30 -->
<g id="node30" class="node"><title>Node30</title>
<g id="a_node30"><a xlink:href="namespacetlz.html#a7b27ca69fad329b4a00aceee41d2962b" target="_top" xlink:title="tlz::encode_mat_">
<polygon fill="white" stroke="black" points="563.5,-436.5 563.5,-455.5 655.5,-455.5 655.5,-436.5 563.5,-436.5"/>
<text text-anchor="middle" x="609.5" y="-443.5" font-family="Helvetica,sans-Serif" font-size="10.00">tlz::encode_mat_</text>
</a>
</g>
</g>
<!-- Node29&#45;&gt;Node30 -->
<g id="edge38" class="edge"><title>Node29&#45;&gt;Node30</title>
<path fill="none" stroke="midnightblue" d="M498.84,-446C515.735,-446 535.41,-446 553.393,-446"/>
<polygon fill="midnightblue" stroke="midnightblue" points="553.465,-449.5 563.465,-446 553.465,-442.5 553.465,-449.5"/>
</g>
<!-- Node31&#45;&gt;Node32 -->
<g id="edge40" class="edge"><title>Node31&#45;&gt;Node32</title>
<path fill="none" stroke="midnightblue" d="M352.714,-370.957C365.856,-371.221 380.287,-371.511 394.047,-371.787"/>
<polygon fill="midnightblue" stroke="midnightblue" points="394.338,-375.293 404.406,-371.995 394.478,-368.295 394.338,-375.293"/>
</g>
<!-- Node33 -->
<g id="node33" class="node"><title>Node33</title>
<g id="a_node33"><a xlink:href="structtlz_1_1distortion__parameters.html#a307fee036b04519d633fb8456899850c" target="_top" xlink:title="tlz::distortion_parameters\l::is_none">
<polygon fill="white" stroke="black" points="546,-311 546,-341 673,-341 673,-311 546,-311"/>
<text text-anchor="start" x="554" y="-329" font-family="Helvetica,sans-Serif" font-size="10.00">tlz::distortion_parameters</text>
<text text-anchor="middle" x="609.5" y="-318" font-family="Helvetica,sans-Serif" font-size="10.00">::is_none</text>
</a>
</g>
</g>
<!-- Node32&#45;&gt;Node33 -->
<g id="edge41" class="edge"><title>Node32&#45;&gt;Node33</title>
<path fill="none" stroke="midnightblue" d="M487.259,-363.489C505.314,-357.906 528.724,-350.668 550.152,-344.042"/>
<polygon fill="midnightblue" stroke="midnightblue" points="551.312,-347.347 559.831,-341.049 549.244,-340.659 551.312,-347.347"/>
</g>
<!-- Node34 -->
<g id="node34" class="node"><title>Node34</title>
<g id="a_node34"><a xlink:href="structtlz_1_1distortion__parameters.html#a96312c5d7baa4b7b1f2a76e9396037f8" target="_top" xlink:title="tlz::distortion_parameters\l::cv_coeffs">
<polygon fill="white" stroke="black" points="546,-360 546,-390 673,-390 673,-360 546,-360"/>
<text text-anchor="start" x="554" y="-378" font-family="Helvetica,sans-Serif" font-size="10.00">tlz::distortion_parameters</text>
<text text-anchor="middle" x="609.5" y="-367" font-family="Helvetica,sans-Serif" font-size="10.00">::cv_coeffs</text>
</a>
</g>
</g>
<!-- Node32&#45;&gt;Node34 -->
<g id="edge42" class="edge"><title>Node32&#45;&gt;Node34</title>
<path fill="none" stroke="midnightblue" d="M506.692,-373.66C515.998,-373.783 525.89,-373.913 535.71,-374.042"/>
<polygon fill="midnightblue" stroke="midnightblue" points="535.845,-377.544 545.89,-374.176 535.937,-370.545 535.845,-377.544"/>
</g>
<!-- Node35&#45;&gt;Node24 -->
<g id="edge47" class="edge"><title>Node35&#45;&gt;Node24</title>
<path fill="none" stroke="midnightblue" d="M498.84,-278.593C516.711,-275.889 537.693,-272.714 556.493,-269.87"/>
<polygon fill="midnightblue" stroke="midnightblue" points="557.023,-273.329 566.387,-268.372 555.975,-266.408 557.023,-273.329"/>
</g>
<!-- Node35&#45;&gt;Node25 -->
<g id="edge49" class="edge"><title>Node35&#45;&gt;Node25</title>
<path fill="none" stroke="midnightblue" d="M476.371,-275.457C502.657,-262.832 549.183,-240.488 579.424,-225.964"/>
<polygon fill="midnightblue" stroke="midnightblue" points="581.125,-229.03 588.624,-221.546 578.094,-222.72 581.125,-229.03"/>
</g>
<!-- Node35&#45;&gt;Node26 -->
<g id="edge46" class="edge"><title>Node35&#45;&gt;Node26</title>
<path fill="none" stroke="midnightblue" d="M464.001,-275.35C478.368,-257.35 511.424,-218.199 546,-193 554.975,-186.459 565.54,-180.626 575.403,-175.834"/>
<polygon fill="midnightblue" stroke="midnightblue" points="576.98,-178.961 584.57,-171.569 574.027,-172.614 576.98,-178.961"/>
</g>
<!-- Node35&#45;&gt;Node27 -->
<g id="edge48" class="edge"><title>Node35&#45;&gt;Node27</title>
<path fill="none" stroke="midnightblue" d="M412.112,-292.679C368.642,-296.933 299.575,-303.148 243,-322 218.614,-330.126 193.405,-344.247 174.211,-355.297"/>
<polygon fill="midnightblue" stroke="midnightblue" points="172.215,-352.408 165.301,-360.435 175.712,-358.471 172.215,-352.408"/>
</g>
<!-- Node35&#45;&gt;Node33 -->
<g id="edge45" class="edge"><title>Node35&#45;&gt;Node33</title>
<path fill="none" stroke="midnightblue" d="M491.754,-294.509C506.997,-298.621 525.345,-303.57 542.934,-308.314"/>
<polygon fill="midnightblue" stroke="midnightblue" points="542.036,-311.697 552.602,-310.922 543.859,-304.939 542.036,-311.697"/>
</g>
<!-- Node36&#45;&gt;Node33 -->
<g id="edge51" class="edge"><title>Node36&#45;&gt;Node33</title>
<path fill="none" stroke="midnightblue" d="M350.109,-331.108C399.023,-330.141 477.826,-328.583 535.562,-327.442"/>
<polygon fill="midnightblue" stroke="midnightblue" points="535.794,-330.938 545.722,-327.241 535.655,-323.94 535.794,-330.938"/>
</g>
<!-- Node36&#45;&gt;Node35 -->
<g id="edge52" class="edge"><title>Node36&#45;&gt;Node35</title>
<path fill="none" stroke="midnightblue" d="M335.254,-322.489C357.975,-315.346 389.321,-305.491 414.173,-297.678"/>
<polygon fill="midnightblue" stroke="midnightblue" points="415.545,-300.916 424.035,-294.578 413.446,-294.238 415.545,-300.916"/>
</g>
<!-- Node38 -->
<g id="node38" class="node"><title>Node38</title>
<g id="a_node38"><a xlink:href="namespacetlz.html#a643b2d03bd805fe78dcd684ef45e52fb" target="_top" xlink:title="Clamp value between minimum and maximum value. ">
<polygon fill="white" stroke="black" points="274.5,-114.5 274.5,-133.5 333.5,-133.5 333.5,-114.5 274.5,-114.5"/>
<text text-anchor="middle" x="304" y="-121.5" font-family="Helvetica,sans-Serif" font-size="10.00">tlz::clamp</text>
</a>
</g>
</g>
<!-- Node37&#45;&gt;Node38 -->
<g id="edge55" class="edge"><title>Node37&#45;&gt;Node38</title>
<path fill="none" stroke="midnightblue" d="M162.613,-90.9678C188.382,-97.031 232.457,-107.402 264.358,-114.908"/>
<polygon fill="midnightblue" stroke="midnightblue" points="263.713,-118.352 274.249,-117.235 265.317,-111.538 263.713,-118.352"/>
</g>
<!-- Node39 -->
<g id="node39" class="node"><title>Node39</title>
<g id="a_node39"><a xlink:href="namespacetlz.html#a4fe5757a830e199f84d229eee11f616e" target="_top" xlink:title="Compute greatest common divisor of a and b. ">
<polygon fill="white" stroke="black" points="279.5,-76.5 279.5,-95.5 328.5,-95.5 328.5,-76.5 279.5,-76.5"/>
<text text-anchor="middle" x="304" y="-83.5" font-family="Helvetica,sans-Serif" font-size="10.00">tlz::gcd</text>
</a>
</g>
</g>
<!-- Node37&#45;&gt;Node39 -->
<g id="edge56" class="edge"><title>Node37&#45;&gt;Node39</title>
<path fill="none" stroke="midnightblue" d="M162.613,-86C189.653,-86 236.85,-86 268.987,-86"/>
<polygon fill="midnightblue" stroke="midnightblue" points="269.257,-89.5001 279.257,-86 269.257,-82.5001 269.257,-89.5001"/>
</g>
<!-- Node40 -->
<g id="node40" class="node"><title>Node40</title>
<g id="a_node40"><a xlink:href="namespacetlz.html#aec6e2158ce198aa20a8493fde3d3b552" target="_top" xlink:title="Compute least common multiple of a and b. ">
<polygon fill="white" stroke="black" points="279.5,-38.5 279.5,-57.5 328.5,-57.5 328.5,-38.5 279.5,-38.5"/>
<text text-anchor="middle" x="304" y="-45.5" font-family="Helvetica,sans-Serif" font-size="10.00">tlz::lcm</text>
</a>
</g>
</g>
<!-- Node37&#45;&gt;Node40 -->
<g id="edge57" class="edge"><title>Node37&#45;&gt;Node40</title>
<path fill="none" stroke="midnightblue" d="M162.613,-81.0322C189.771,-74.6422 237.261,-63.4681 269.405,-55.9047"/>
<polygon fill="midnightblue" stroke="midnightblue" points="270.324,-59.284 279.257,-53.5866 268.721,-52.4701 270.324,-59.284"/>
</g>
<!-- Node43 -->
<g id="node43" class="node"><title>Node43</title>
<g id="a_node43"><a xlink:href="namespacetlz.html#ae11c827ac9e581f9d2f98c39aab3750d" target="_top" xlink:title="tlz::file_name_extension">
<polygon fill="white" stroke="black" points="243,-0.5 243,-19.5 365,-19.5 365,-0.5 243,-0.5"/>
<text text-anchor="middle" x="304" y="-7.5" font-family="Helvetica,sans-Serif" font-size="10.00">tlz::file_name_extension</text>
</a>
</g>
</g>
<!-- Node42&#45;&gt;Node43 -->
<g id="edge60" class="edge"><title>Node42&#45;&gt;Node43</title>
<path fill="none" stroke="midnightblue" d="M191.273,-10C204.399,-10 218.812,-10 232.796,-10"/>
<polygon fill="midnightblue" stroke="midnightblue" points="232.878,-13.5001 242.878,-10 232.878,-6.5001 232.878,-13.5001"/>
</g>
</g>
</svg>
