<?xml version="1.0" encoding="UTF-8" standalone="no"?>
<!DOCTYPE svg PUBLIC "-//W3C//DTD SVG 1.1//EN"
 "http://www.w3.org/Graphics/SVG/1.1/DTD/svg11.dtd">
<!-- Generated by graphviz version 2.38.0 (20140413.2041)
 -->
<!-- Title: main Pages: 1 -->
<svg width="822pt" height="888pt"
 viewBox="0.00 0.00 822.00 888.00" xmlns="http://www.w3.org/2000/svg" xmlns:xlink="http://www.w3.org/1999/xlink">
<g id="graph0" class="graph" transform="scale(1 1) rotate(0) translate(4 884)">
<title>main</title>
<polygon fill="white" stroke="none" points="-4,4 -4,-884 818,-884 818,4 -4,4"/>
<!-- Node1 -->
<g id="node1" class="node"><title>Node1</title>
<polygon fill="#bfbfbf" stroke="black" points="0,-380.5 0,-399.5 38,-399.5 38,-380.5 0,-380.5"/>
<text text-anchor="middle" x="19" y="-387.5" font-family="Helvetica,sans-Serif" font-size="10.00">main</text>
</g>
<!-- Node2 -->
<g id="node2" class="node"><title>Node2</title>
<g id="a_node2"><a xlink:href="namespacetlz.html#a3c03f5d9d6261ec2909938822fc47f8a" target="_top" xlink:title="tlz::get_args">
<polygon fill="white" stroke="black" points="107,-860.5 107,-879.5 178,-879.5 178,-860.5 107,-860.5"/>
<text text-anchor="middle" x="142.5" y="-867.5" font-family="Helvetica,sans-Serif" font-size="10.00">tlz::get_args</text>
</a>
</g>
</g>
<!-- Node1&#45;&gt;Node2 -->
<g id="edge1" class="edge"><title>Node1&#45;&gt;Node2</title>
<path fill="none" stroke="midnightblue" d="M19.8076,-399.748C18.8246,-459.299 16.4434,-773.875 74,-846 79.925,-853.425 88.3227,-858.555 97.1902,-862.1"/>
<polygon fill="midnightblue" stroke="midnightblue" points="96.3081,-865.496 106.902,-865.357 98.534,-858.859 96.3081,-865.496"/>
</g>
<!-- Node3 -->
<g id="node3" class="node"><title>Node3</title>
<g id="a_node3"><a xlink:href="namespacetlz.html#a91f1aec7120c97452c495ee447e56b57" target="_top" xlink:title="tlz::dataset_arg">
<polygon fill="white" stroke="black" points="100.5,-762.5 100.5,-781.5 184.5,-781.5 184.5,-762.5 100.5,-762.5"/>
<text text-anchor="middle" x="142.5" y="-769.5" font-family="Helvetica,sans-Serif" font-size="10.00">tlz::dataset_arg</text>
</a>
</g>
</g>
<!-- Node1&#45;&gt;Node3 -->
<g id="edge2" class="edge"><title>Node1&#45;&gt;Node3</title>
<path fill="none" stroke="midnightblue" d="M20.4463,-399.633C22.8955,-449.094 36.0102,-674.384 74,-731 81.7925,-742.613 94.0912,-751.481 106.068,-757.948"/>
<polygon fill="midnightblue" stroke="midnightblue" points="104.572,-761.112 115.084,-762.43 107.688,-754.844 104.572,-761.112"/>
</g>
<!-- Node9 -->
<g id="node9" class="node"><title>Node9</title>
<g id="a_node9"><a xlink:href="namespacetlz.html#a8e4f8c8c2927bc4350de13bfa0f8f9e1" target="_top" xlink:title="tlz::to_string">
<polygon fill="white" stroke="black" points="718.5,-583.5 718.5,-602.5 789.5,-602.5 789.5,-583.5 718.5,-583.5"/>
<text text-anchor="middle" x="754" y="-590.5" font-family="Helvetica,sans-Serif" font-size="10.00">tlz::to_string</text>
</a>
</g>
</g>
<!-- Node1&#45;&gt;Node9 -->
<g id="edge47" class="edge"><title>Node1&#45;&gt;Node9</title>
<path fill="none" stroke="midnightblue" d="M20.2844,-399.825C21.6439,-426.633 29.4461,-501.282 74,-535 115.424,-566.349 255.05,-554 307,-554 307,-554 307,-554 454.5,-554 545.218,-554 650.147,-571.93 708.309,-583.475"/>
<polygon fill="midnightblue" stroke="midnightblue" points="707.772,-586.937 718.267,-585.48 709.154,-580.075 707.772,-586.937"/>
</g>
<!-- Node10 -->
<g id="node10" class="node"><title>Node10</title>
<g id="a_node10"><a xlink:href="namespacetlz.html#abb019466ea9f56c0dab27e893d891837" target="_top" xlink:title="tlz::file_exists">
<polygon fill="white" stroke="black" points="415,-822.5 415,-841.5 492,-841.5 492,-822.5 415,-822.5"/>
<text text-anchor="middle" x="453.5" y="-829.5" font-family="Helvetica,sans-Serif" font-size="10.00">tlz::file_exists</text>
</a>
</g>
</g>
<!-- Node1&#45;&gt;Node10 -->
<g id="edge30" class="edge"><title>Node1&#45;&gt;Node10</title>
<path fill="none" stroke="midnightblue" d="M19.7837,-399.808C18.7661,-455.757 16.6674,-734.088 74,-791 119.507,-836.173 313.45,-836.424 404.689,-833.897"/>
<polygon fill="midnightblue" stroke="midnightblue" points="404.876,-837.393 414.766,-833.595 404.666,-830.397 404.876,-837.393"/>
</g>
<!-- Node11 -->
<g id="node11" class="node"><title>Node11</title>
<g id="a_node11"><a xlink:href="namespacetlz.html#af0d1e8ba5b9f2dbc2b589afab3a21fc8" target="_top" xlink:title="tlz::int_arg">
<polygon fill="white" stroke="black" points="422.5,-623.5 422.5,-642.5 484.5,-642.5 484.5,-623.5 422.5,-623.5"/>
<text text-anchor="middle" x="453.5" y="-630.5" font-family="Helvetica,sans-Serif" font-size="10.00">tlz::int_arg</text>
</a>
</g>
</g>
<!-- Node1&#45;&gt;Node11 -->
<g id="edge12" class="edge"><title>Node1&#45;&gt;Node11</title>
<path fill="none" stroke="midnightblue" d="M19.6455,-399.582C19.1007,-429.704 21.8582,-523.138 74,-568 124.219,-611.208 304.088,-597.762 369,-611 383.163,-613.888 398.503,-617.722 412.124,-621.379"/>
<polygon fill="midnightblue" stroke="midnightblue" points="411.588,-624.861 422.157,-624.123 413.434,-618.109 411.588,-624.861"/>
</g>
<!-- Node12 -->
<g id="node12" class="node"><title>Node12</title>
<g id="a_node12"><a xlink:href="namespacetlz.html#a65770a2c1ff57c5ae6542d4465a3d3f4" target="_top" xlink:title="tlz::out_filename_arg">
<polygon fill="white" stroke="black" points="254.5,-620.5 254.5,-639.5 361.5,-639.5 361.5,-620.5 254.5,-620.5"/>
<text text-anchor="middle" x="308" y="-627.5" font-family="Helvetica,sans-Serif" font-size="10.00">tlz::out_filename_arg</text>
</a>
</g>
</g>
<!-- Node1&#45;&gt;Node12 -->
<g id="edge16" class="edge"><title>Node1&#45;&gt;Node12</title>
<path fill="none" stroke="midnightblue" d="M20.9696,-399.699C25.0075,-438.011 41.7993,-578.085 74,-606 121.962,-647.579 198.061,-647.376 250.153,-640.885"/>
<polygon fill="midnightblue" stroke="midnightblue" points="250.799,-644.329 260.236,-639.513 249.855,-637.393 250.799,-644.329"/>
</g>
<!-- Node13 -->
<g id="node13" class="node"><title>Node13</title>
<g id="a_node13"><a xlink:href="namespacetlz.html#a8d3380a8873e542207e21a4384957425" target="_top" xlink:title="tlz::string_opt_arg">
<polygon fill="white" stroke="black" points="95,-702.5 95,-721.5 190,-721.5 190,-702.5 95,-702.5"/>
<text text-anchor="middle" x="142.5" y="-709.5" font-family="Helvetica,sans-Serif" font-size="10.00">tlz::string_opt_arg</text>
</a>
</g>
</g>
<!-- Node1&#45;&gt;Node13 -->
<g id="edge18" class="edge"><title>Node1&#45;&gt;Node13</title>
<path fill="none" stroke="midnightblue" d="M20.1387,-399.897C21.0248,-435.274 27.4767,-557.941 74,-644 85.2799,-664.866 104.936,-683.584 120.138,-696.074"/>
<polygon fill="midnightblue" stroke="midnightblue" points="118.034,-698.872 128.043,-702.346 122.385,-693.389 118.034,-698.872"/>
</g>
<!-- Node15 -->
<g id="node15" class="node"><title>Node15</title>
<g id="a_node15"><a xlink:href="classtlz_1_1dataset.html#ad7d438f87e20fd0a734aabff2e6d52a9" target="_top" xlink:title="tlz::dataset::group">
<polygon fill="white" stroke="black" points="95,-506.5 95,-525.5 190,-525.5 190,-506.5 95,-506.5"/>
<text text-anchor="middle" x="142.5" y="-513.5" font-family="Helvetica,sans-Serif" font-size="10.00">tlz::dataset::group</text>
</a>
</g>
</g>
<!-- Node1&#45;&gt;Node15 -->
<g id="edge23" class="edge"><title>Node1&#45;&gt;Node15</title>
<path fill="none" stroke="midnightblue" d="M22.1398,-399.516C27.2991,-420.244 42.4027,-469.717 74,-496 77.4767,-498.892 81.3584,-501.366 85.4555,-503.482"/>
<polygon fill="midnightblue" stroke="midnightblue" points="84.1337,-506.724 94.6951,-507.566 86.9641,-500.322 84.1337,-506.724"/>
</g>
<!-- Node18 -->
<g id="node18" class="node"><title>Node18</title>
<g id="a_node18"><a xlink:href="classtlz_1_1dataset__group.html#a4cc740eed6929b9f06a2157120740a7f" target="_top" xlink:title="tlz::dataset_group::set">
<polygon fill="white" stroke="black" points="85.5,-380.5 85.5,-399.5 199.5,-399.5 199.5,-380.5 85.5,-380.5"/>
<text text-anchor="middle" x="142.5" y="-387.5" font-family="Helvetica,sans-Serif" font-size="10.00">tlz::dataset_group::set</text>
</a>
</g>
</g>
<!-- Node1&#45;&gt;Node18 -->
<g id="edge26" class="edge"><title>Node1&#45;&gt;Node18</title>
<path fill="none" stroke="midnightblue" d="M38.1898,-390C48.2129,-390 61.3422,-390 74.8642,-390"/>
<polygon fill="midnightblue" stroke="midnightblue" points="75.2362,-393.5 85.2362,-390 75.2361,-386.5 75.2362,-393.5"/>
</g>
<!-- Node19 -->
<g id="node19" class="node"><title>Node19</title>
<g id="a_node19"><a xlink:href="classtlz_1_1dataset.html#a3a77e1219653f07bef6ec7b08cbf7dcf" target="_top" xlink:title="tlz::dataset::y_min">
<polygon fill="white" stroke="black" points="93.5,-342.5 93.5,-361.5 191.5,-361.5 191.5,-342.5 93.5,-342.5"/>
<text text-anchor="middle" x="142.5" y="-349.5" font-family="Helvetica,sans-Serif" font-size="10.00">tlz::dataset::y_min</text>
</a>
</g>
</g>
<!-- Node1&#45;&gt;Node19 -->
<g id="edge27" class="edge"><title>Node1&#45;&gt;Node19</title>
<path fill="none" stroke="midnightblue" d="M38.3963,-383.199C48.7927,-379.438 62.0607,-374.777 74,-371 81.1829,-368.728 88.8375,-366.444 96.3159,-364.287"/>
<polygon fill="midnightblue" stroke="midnightblue" points="97.3297,-367.638 105.991,-361.536 95.415,-360.904 97.3297,-367.638"/>
</g>
<!-- Node20 -->
<g id="node20" class="node"><title>Node20</title>
<g id="a_node20"><a xlink:href="classtlz_1_1dataset.html#a6900b6a88a2ac1e23d1a51da20f650e4" target="_top" xlink:title="tlz::dataset::y_max">
<polygon fill="white" stroke="black" points="92,-304.5 92,-323.5 193,-323.5 193,-304.5 92,-304.5"/>
<text text-anchor="middle" x="142.5" y="-311.5" font-family="Helvetica,sans-Serif" font-size="10.00">tlz::dataset::y_max</text>
</a>
</g>
</g>
<!-- Node1&#45;&gt;Node20 -->
<g id="edge28" class="edge"><title>Node1&#45;&gt;Node20</title>
<path fill="none" stroke="midnightblue" d="M26.5081,-380.414C35.6418,-367.694 53.4644,-345.405 74,-333 77.5755,-330.84 81.4052,-328.918 85.3567,-327.209"/>
<polygon fill="midnightblue" stroke="midnightblue" points="86.6631,-330.456 94.7356,-323.594 84.1459,-323.924 86.6631,-330.456"/>
</g>
<!-- Node21 -->
<g id="node21" class="node"><title>Node21</title>
<g id="a_node21"><a xlink:href="classtlz_1_1dataset.html#a95703f1285ba42a810d46644128daf9a" target="_top" xlink:title="tlz::dataset::y_step">
<polygon fill="white" stroke="black" points="92,-266.5 92,-285.5 193,-285.5 193,-266.5 92,-266.5"/>
<text text-anchor="middle" x="142.5" y="-273.5" font-family="Helvetica,sans-Serif" font-size="10.00">tlz::dataset::y_step</text>
</a>
</g>
</g>
<!-- Node1&#45;&gt;Node21 -->
<g id="edge29" class="edge"><title>Node1&#45;&gt;Node21</title>
<path fill="none" stroke="midnightblue" d="M22.7749,-380.273C28.7858,-360.987 44.8694,-317.803 74,-295 76.6363,-292.936 79.4851,-291.097 82.4703,-289.457"/>
<polygon fill="midnightblue" stroke="midnightblue" points="84.1837,-292.52 91.7593,-285.113 81.2182,-286.179 84.1837,-292.52"/>
</g>
<!-- Node22 -->
<g id="node22" class="node"><title>Node22</title>
<g id="a_node22"><a xlink:href="classtlz_1_1dataset__group.html#aa0c9157fd56b01adebcecdcdd98f9e3f" target="_top" xlink:title="tlz::dataset_group\l::view">
<polygon fill="white" stroke="black" points="260.5,-325 260.5,-355 355.5,-355 355.5,-325 260.5,-325"/>
<text text-anchor="start" x="268.5" y="-343" font-family="Helvetica,sans-Serif" font-size="10.00">tlz::dataset_group</text>
<text text-anchor="middle" x="308" y="-332" font-family="Helvetica,sans-Serif" font-size="10.00">::view</text>
</a>
</g>
</g>
<!-- Node1&#45;&gt;Node22 -->
<g id="edge31" class="edge"><title>Node1&#45;&gt;Node22</title>
<path fill="none" stroke="midnightblue" d="M38.0835,-398.092C48.3821,-402.256 61.6564,-406.892 74,-409 134.02,-419.251 153.043,-427.667 211,-409 239.462,-399.832 266.621,-378.753 284.741,-362.288"/>
<polygon fill="midnightblue" stroke="midnightblue" points="287.5,-364.499 292.403,-355.107 282.713,-359.392 287.5,-364.499"/>
</g>
<!-- Node27 -->
<g id="node27" class="node"><title>Node27</title>
<g id="a_node27"><a xlink:href="classtlz_1_1dataset__view.html#af3c734eaed33af07993255db63d3fc54" target="_top" xlink:title="tlz::dataset_view::\limage_filename">
<polygon fill="white" stroke="black" points="94,-457 94,-487 191,-487 191,-457 94,-457"/>
<text text-anchor="start" x="102" y="-475" font-family="Helvetica,sans-Serif" font-size="10.00">tlz::dataset_view::</text>
<text text-anchor="middle" x="142.5" y="-464" font-family="Helvetica,sans-Serif" font-size="10.00">image_filename</text>
</a>
</g>
</g>
<!-- Node1&#45;&gt;Node27 -->
<g id="edge37" class="edge"><title>Node1&#45;&gt;Node27</title>
<path fill="none" stroke="midnightblue" d="M28.3253,-399.882C38.2731,-411.212 55.8602,-429.792 74,-442 79.647,-445.8 85.854,-449.315 92.1462,-452.498"/>
<polygon fill="midnightblue" stroke="midnightblue" points="90.84,-455.753 101.37,-456.92 93.8659,-449.441 90.84,-455.753"/>
</g>
<!-- Node31 -->
<g id="node31" class="node"><title>Node31</title>
<g id="a_node31"><a xlink:href="classtlz_1_1dataset.html#acff1e030f5c941654ea16f8061f49346" target="_top" xlink:title="tlz::dataset::x_mid">
<polygon fill="white" stroke="black" points="93.5,-228.5 93.5,-247.5 191.5,-247.5 191.5,-228.5 93.5,-228.5"/>
<text text-anchor="middle" x="142.5" y="-235.5" font-family="Helvetica,sans-Serif" font-size="10.00">tlz::dataset::x_mid</text>
</a>
</g>
</g>
<!-- Node1&#45;&gt;Node31 -->
<g id="edge43" class="edge"><title>Node1&#45;&gt;Node31</title>
<path fill="none" stroke="midnightblue" d="M21.0418,-380.323C24.2008,-355.857 35.9221,-291.059 74,-257 77.027,-254.292 80.4113,-251.968 84.0084,-249.973"/>
<polygon fill="midnightblue" stroke="midnightblue" points="85.7069,-253.043 93.3057,-245.66 82.7613,-246.693 85.7069,-253.043"/>
</g>
<!-- Node32 -->
<g id="node32" class="node"><title>Node32</title>
<g id="a_node32"><a xlink:href="classtlz_1_1dataset.html#a15180d3b04937d9f1c69041a220b943b" target="_top" xlink:title="tlz::dataset::x_min">
<polygon fill="white" stroke="black" points="93.5,-190.5 93.5,-209.5 191.5,-209.5 191.5,-190.5 93.5,-190.5"/>
<text text-anchor="middle" x="142.5" y="-197.5" font-family="Helvetica,sans-Serif" font-size="10.00">tlz::dataset::x_min</text>
</a>
</g>
</g>
<!-- Node1&#45;&gt;Node32 -->
<g id="edge44" class="edge"><title>Node1&#45;&gt;Node32</title>
<path fill="none" stroke="midnightblue" d="M20.046,-380.244C20.7307,-351.237 26.8246,-264.712 74,-219 77.0491,-216.045 80.5201,-213.543 84.2416,-211.425"/>
<polygon fill="midnightblue" stroke="midnightblue" points="85.7513,-214.583 93.2987,-207.147 82.7617,-208.253 85.7513,-214.583"/>
</g>
<!-- Node33 -->
<g id="node33" class="node"><title>Node33</title>
<g id="a_node33"><a xlink:href="classtlz_1_1dataset.html#a280e3ae6c4b37e1e18fabf00b70be20a" target="_top" xlink:title="tlz::dataset::x_max">
<polygon fill="white" stroke="black" points="92,-152.5 92,-171.5 193,-171.5 193,-152.5 92,-152.5"/>
<text text-anchor="middle" x="142.5" y="-159.5" font-family="Helvetica,sans-Serif" font-size="10.00">tlz::dataset::x_max</text>
</a>
</g>
</g>
<!-- Node1&#45;&gt;Node33 -->
<g id="edge45" class="edge"><title>Node1&#45;&gt;Node33</title>
<path fill="none" stroke="midnightblue" d="M21.2257,-380.258C26.0972,-343.033 45.2314,-210.395 74,-181 76.5466,-178.398 79.4194,-176.145 82.5074,-174.194"/>
<polygon fill="midnightblue" stroke="midnightblue" points="84.4041,-177.154 91.6878,-169.46 81.1957,-170.932 84.4041,-177.154"/>
</g>
<!-- Node34 -->
<g id="node34" class="node"><title>Node34</title>
<g id="a_node34"><a xlink:href="classtlz_1_1dataset.html#a52d7087aa473ea89d7dceb8573fbb891" target="_top" xlink:title="tlz::dataset::x_valid">
<polygon fill="white" stroke="black" points="91.5,-114.5 91.5,-133.5 193.5,-133.5 193.5,-114.5 91.5,-114.5"/>
<text text-anchor="middle" x="142.5" y="-121.5" font-family="Helvetica,sans-Serif" font-size="10.00">tlz::dataset::x_valid</text>
</a>
</g>
</g>
<!-- Node1&#45;&gt;Node34 -->
<g id="edge46" class="edge"><title>Node1&#45;&gt;Node34</title>
<path fill="none" stroke="midnightblue" d="M20.8114,-380.244C24.4421,-338.886 40.506,-178.536 74,-143 76.4542,-140.396 79.2345,-138.14 82.2338,-136.186"/>
<polygon fill="midnightblue" stroke="midnightblue" points="83.9845,-139.219 91.177,-131.44 80.7031,-133.036 83.9845,-139.219"/>
</g>
<!-- Node35 -->
<g id="node35" class="node"><title>Node35</title>
<g id="a_node35"><a xlink:href="classtlz_1_1dataset.html#a1183ab5dd7eab8ff6478d9105dc5da19" target="_top" xlink:title="tlz::dataset::y_mid">
<polygon fill="white" stroke="black" points="93.5,-76.5 93.5,-95.5 191.5,-95.5 191.5,-76.5 93.5,-76.5"/>
<text text-anchor="middle" x="142.5" y="-83.5" font-family="Helvetica,sans-Serif" font-size="10.00">tlz::dataset::y_mid</text>
</a>
</g>
</g>
<!-- Node1&#45;&gt;Node35 -->
<g id="edge48" class="edge"><title>Node1&#45;&gt;Node35</title>
<path fill="none" stroke="midnightblue" d="M20.4999,-380.312C23.0158,-335.271 35.7219,-146.767 74,-105 76.9611,-101.769 80.4243,-99.0709 84.1897,-96.8198"/>
<polygon fill="midnightblue" stroke="midnightblue" points="85.9601,-99.8512 93.4303,-92.3381 82.9053,-93.5529 85.9601,-99.8512"/>
</g>
<!-- Node36 -->
<g id="node36" class="node"><title>Node36</title>
<g id="a_node36"><a xlink:href="namespacetlz.html#ab98de0b10e3e079dee189f81adc638a0" target="_top" xlink:title="tlz::export_json_file">
<polygon fill="white" stroke="black" points="92,-38.5 92,-57.5 193,-57.5 193,-38.5 92,-38.5"/>
<text text-anchor="middle" x="142.5" y="-45.5" font-family="Helvetica,sans-Serif" font-size="10.00">tlz::export_json_file</text>
</a>
</g>
</g>
<!-- Node1&#45;&gt;Node36 -->
<g id="edge49" class="edge"><title>Node1&#45;&gt;Node36</title>
<path fill="none" stroke="midnightblue" d="M20.2633,-380.354C21.7805,-331.85 30.9173,-115.042 74,-67 76.5908,-64.111 79.5829,-61.6469 82.8361,-59.5466"/>
<polygon fill="midnightblue" stroke="midnightblue" points="84.7084,-62.5178 91.9616,-54.795 81.4755,-56.3091 84.7084,-62.5178"/>
</g>
<!-- Node38 -->
<g id="node38" class="node"><title>Node38</title>
<g id="a_node38"><a xlink:href="namespacetlz.html#a8448b40853e010ac63c82c46bb6484dc" target="_top" xlink:title="tlz::encode_references_grid">
<polygon fill="white" stroke="black" points="74,-0.5 74,-19.5 211,-19.5 211,-0.5 74,-0.5"/>
<text text-anchor="middle" x="142.5" y="-7.5" font-family="Helvetica,sans-Serif" font-size="10.00">tlz::encode_references_grid</text>
</a>
</g>
</g>
<!-- Node1&#45;&gt;Node38 -->
<g id="edge51" class="edge"><title>Node1&#45;&gt;Node38</title>
<path fill="none" stroke="midnightblue" d="M20.0782,-380.278C20.6931,-328.276 26.1266,-83.3146 74,-29 75.1622,-27.6814 76.408,-26.4512 77.7243,-25.3034"/>
<polygon fill="midnightblue" stroke="midnightblue" points="79.7279,-28.1733 85.9421,-19.5922 75.733,-22.4251 79.7279,-28.1733"/>
</g>
<!-- Node4 -->
<g id="node4" class="node"><title>Node4</title>
<g id="a_node4"><a xlink:href="namespacetlz.html#a634de7ca11e100e4a118dffe80376a75" target="_top" xlink:title="tlz::in_filename_arg">
<polygon fill="white" stroke="black" points="257.5,-784.5 257.5,-803.5 358.5,-803.5 358.5,-784.5 257.5,-784.5"/>
<text text-anchor="middle" x="308" y="-791.5" font-family="Helvetica,sans-Serif" font-size="10.00">tlz::in_filename_arg</text>
</a>
</g>
</g>
<!-- Node3&#45;&gt;Node4 -->
<g id="edge3" class="edge"><title>Node3&#45;&gt;Node4</title>
<path fill="none" stroke="midnightblue" d="M184.758,-777.552C203.7,-780.1 226.523,-783.171 247.294,-785.966"/>
<polygon fill="midnightblue" stroke="midnightblue" points="246.922,-789.448 257.3,-787.312 247.856,-782.51 246.922,-789.448"/>
</g>
<!-- Node5 -->
<g id="node5" class="node"><title>Node5</title>
<g id="a_node5"><a xlink:href="namespacetlz.html#a0621d598fb83b13bf028f3e6293d04f8" target="_top" xlink:title="tlz::string_arg">
<polygon fill="white" stroke="black" points="415.5,-661.5 415.5,-680.5 491.5,-680.5 491.5,-661.5 415.5,-661.5"/>
<text text-anchor="middle" x="453.5" y="-668.5" font-family="Helvetica,sans-Serif" font-size="10.00">tlz::string_arg</text>
</a>
</g>
</g>
<!-- Node4&#45;&gt;Node5 -->
<g id="edge4" class="edge"><title>Node4&#45;&gt;Node5</title>
<path fill="none" stroke="midnightblue" d="M320.26,-784.348C344.78,-763.331 403.229,-713.232 433.541,-687.251"/>
<polygon fill="midnightblue" stroke="midnightblue" points="435.977,-689.772 441.292,-680.607 431.422,-684.457 435.977,-689.772"/>
</g>
<!-- Node6 -->
<g id="node6" class="node"><title>Node6</title>
<g id="a_node6"><a xlink:href="namespacetlz.html#a780431daab8d2595372eacb43143b52d" target="_top" xlink:title="tlz::args">
<polygon fill="white" stroke="black" points="572,-705.5 572,-724.5 624,-724.5 624,-705.5 572,-705.5"/>
<text text-anchor="middle" x="598" y="-712.5" font-family="Helvetica,sans-Serif" font-size="10.00">tlz::args</text>
</a>
</g>
</g>
<!-- Node4&#45;&gt;Node6 -->
<g id="edge10" class="edge"><title>Node4&#45;&gt;Node6</title>
<path fill="none" stroke="midnightblue" d="M343.74,-784.471C399.09,-769.288 506.689,-739.773 562.125,-724.566"/>
<polygon fill="midnightblue" stroke="midnightblue" points="563.127,-727.921 571.845,-721.9 561.275,-721.17 563.127,-727.921"/>
</g>
<!-- Node8 -->
<g id="node8" class="node"><title>Node8</title>
<g id="a_node8"><a xlink:href="classtlz_1_1args__list.html#a38ad21acd64a4af98ffdf4a47837cdbe" target="_top" xlink:title="tlz::args_list::usage_fail">
<polygon fill="white" stroke="black" points="694,-661.5 694,-680.5 814,-680.5 814,-661.5 694,-661.5"/>
<text text-anchor="middle" x="754" y="-668.5" font-family="Helvetica,sans-Serif" font-size="10.00">tlz::args_list::usage_fail</text>
</a>
</g>
</g>
<!-- Node4&#45;&gt;Node8 -->
<g id="edge11" class="edge"><title>Node4&#45;&gt;Node8</title>
<path fill="none" stroke="midnightblue" d="M358.677,-792.54C428.216,-788.946 557.351,-776.564 658,-734 686.195,-722.076 715.003,-701.56 733.388,-687.189"/>
<polygon fill="midnightblue" stroke="midnightblue" points="735.895,-689.666 741.528,-680.692 731.529,-684.195 735.895,-689.666"/>
</g>
<!-- Node4&#45;&gt;Node10 -->
<g id="edge9" class="edge"><title>Node4&#45;&gt;Node10</title>
<path fill="none" stroke="midnightblue" d="M345.211,-803.589C363.821,-808.517 386.697,-814.575 406.539,-819.829"/>
<polygon fill="midnightblue" stroke="midnightblue" points="405.738,-823.238 416.3,-822.414 407.53,-816.471 405.738,-823.238"/>
</g>
<!-- Node5&#45;&gt;Node6 -->
<g id="edge5" class="edge"><title>Node5&#45;&gt;Node6</title>
<path fill="none" stroke="midnightblue" d="M485.42,-680.547C508.054,-687.536 538.783,-697.024 562.262,-704.274"/>
<polygon fill="midnightblue" stroke="midnightblue" points="561.249,-707.624 571.837,-707.23 563.314,-700.936 561.249,-707.624"/>
</g>
<!-- Node7 -->
<g id="node7" class="node"><title>Node7</title>
<g id="a_node7"><a xlink:href="classtlz_1_1args__list.html#a73d99bc75998dc14607a3a372d28dc6d" target="_top" xlink:title="tlz::args_list::next_arg">
<polygon fill="white" stroke="black" points="541.5,-661.5 541.5,-680.5 654.5,-680.5 654.5,-661.5 541.5,-661.5"/>
<text text-anchor="middle" x="598" y="-668.5" font-family="Helvetica,sans-Serif" font-size="10.00">tlz::args_list::next_arg</text>
</a>
</g>
</g>
<!-- Node5&#45;&gt;Node7 -->
<g id="edge6" class="edge"><title>Node5&#45;&gt;Node7</title>
<path fill="none" stroke="midnightblue" d="M491.568,-671C503.66,-671 517.472,-671 531.029,-671"/>
<polygon fill="midnightblue" stroke="midnightblue" points="531.313,-674.5 541.313,-671 531.313,-667.5 531.313,-674.5"/>
</g>
<!-- Node7&#45;&gt;Node8 -->
<g id="edge7" class="edge"><title>Node7&#45;&gt;Node8</title>
<path fill="none" stroke="midnightblue" d="M654.598,-671C664.061,-671 673.993,-671 683.757,-671"/>
<polygon fill="midnightblue" stroke="midnightblue" points="683.845,-674.5 693.845,-671 683.845,-667.5 683.845,-674.5"/>
</g>
<!-- Node7&#45;&gt;Node9 -->
<g id="edge8" class="edge"><title>Node7&#45;&gt;Node9</title>
<path fill="none" stroke="midnightblue" d="M617.883,-661.436C644.669,-647.869 693.887,-622.94 724.95,-607.207"/>
<polygon fill="midnightblue" stroke="midnightblue" points="726.623,-610.283 733.962,-602.643 723.46,-604.039 726.623,-610.283"/>
</g>
<!-- Node11&#45;&gt;Node6 -->
<g id="edge13" class="edge"><title>Node11&#45;&gt;Node6</title>
<path fill="none" stroke="midnightblue" d="M484.143,-642.557C490.299,-645.163 496.562,-648.308 502,-652 521.247,-665.068 518.886,-676.737 538,-690 545.358,-695.105 553.922,-699.472 562.207,-703.059"/>
<polygon fill="midnightblue" stroke="midnightblue" points="561.132,-706.4 571.714,-706.911 563.76,-699.912 561.132,-706.4"/>
</g>
<!-- Node11&#45;&gt;Node7 -->
<g id="edge14" class="edge"><title>Node11&#45;&gt;Node7</title>
<path fill="none" stroke="midnightblue" d="M484.721,-641.059C504.133,-646.235 529.709,-653.056 551.547,-658.879"/>
<polygon fill="midnightblue" stroke="midnightblue" points="550.718,-662.28 561.283,-661.475 552.522,-655.517 550.718,-662.28"/>
</g>
<!-- Node11&#45;&gt;Node8 -->
<g id="edge15" class="edge"><title>Node11&#45;&gt;Node8</title>
<path fill="none" stroke="midnightblue" d="M484.615,-634.826C524.437,-637.466 596.733,-643.038 658,-652 671.66,-653.998 686.326,-656.668 699.949,-659.374"/>
<polygon fill="midnightblue" stroke="midnightblue" points="699.634,-662.881 710.13,-661.439 701.025,-656.021 699.634,-662.881"/>
</g>
<!-- Node12&#45;&gt;Node5 -->
<g id="edge17" class="edge"><title>Node12&#45;&gt;Node5</title>
<path fill="none" stroke="midnightblue" d="M342.282,-639.509C362.153,-645.187 387.611,-652.46 409.054,-658.587"/>
<polygon fill="midnightblue" stroke="midnightblue" points="408.324,-662.018 418.901,-661.4 410.247,-655.288 408.324,-662.018"/>
</g>
<!-- Node13&#45;&gt;Node4 -->
<g id="edge22" class="edge"><title>Node13&#45;&gt;Node4</title>
<path fill="none" stroke="midnightblue" d="M159.292,-721.703C179.299,-733.796 215.032,-754.729 247,-770 254.858,-773.754 263.468,-777.438 271.65,-780.749"/>
<polygon fill="midnightblue" stroke="midnightblue" points="270.402,-784.02 280.989,-784.447 272.98,-777.511 270.402,-784.02"/>
</g>
<!-- Node13&#45;&gt;Node5 -->
<g id="edge21" class="edge"><title>Node13&#45;&gt;Node5</title>
<path fill="none" stroke="midnightblue" d="M178.699,-702.498C198.606,-697.463 224.038,-691.593 247,-688 300.799,-679.583 363.217,-675.166 405.018,-672.968"/>
<polygon fill="midnightblue" stroke="midnightblue" points="405.372,-676.455 415.183,-672.456 405.02,-669.464 405.372,-676.455"/>
</g>
<!-- Node13&#45;&gt;Node6 -->
<g id="edge19" class="edge"><title>Node13&#45;&gt;Node6</title>
<path fill="none" stroke="midnightblue" d="M174.855,-721.626C195.198,-727.359 222.403,-734.071 247,-737 300.842,-743.41 314.84,-739.607 369,-737 437.398,-733.708 516.939,-724.891 561.686,-719.471"/>
<polygon fill="midnightblue" stroke="midnightblue" points="562.253,-722.928 571.753,-718.237 561.402,-715.98 562.253,-722.928"/>
</g>
<!-- Node14 -->
<g id="node14" class="node"><title>Node14</title>
<g id="a_node14"><a xlink:href="classtlz_1_1args__list.html#a4aee93f4b0d9b5b4e7a5d13cb637337c" target="_top" xlink:title="tlz::args_list::has\l_next_arg">
<polygon fill="white" stroke="black" points="262,-697 262,-727 354,-727 354,-697 262,-697"/>
<text text-anchor="start" x="270" y="-715" font-family="Helvetica,sans-Serif" font-size="10.00">tlz::args_list::has</text>
<text text-anchor="middle" x="308" y="-704" font-family="Helvetica,sans-Serif" font-size="10.00">_next_arg</text>
</a>
</g>
</g>
<!-- Node13&#45;&gt;Node14 -->
<g id="edge20" class="edge"><title>Node13&#45;&gt;Node14</title>
<path fill="none" stroke="midnightblue" d="M190.353,-712C209.477,-712 231.739,-712 251.657,-712"/>
<polygon fill="midnightblue" stroke="midnightblue" points="251.831,-715.5 261.831,-712 251.831,-708.5 251.831,-715.5"/>
</g>
<!-- Node16 -->
<g id="node16" class="node"><title>Node16</title>
<g id="a_node16"><a xlink:href="classtlz_1_1dataset__group.html#acad4f6300bfc455279aaeb975d5e61de" target="_top" xlink:title="tlz::dataset_group\l::dataset_group">
<polygon fill="white" stroke="black" points="260.5,-495 260.5,-525 355.5,-525 355.5,-495 260.5,-495"/>
<text text-anchor="start" x="268.5" y="-513" font-family="Helvetica,sans-Serif" font-size="10.00">tlz::dataset_group</text>
<text text-anchor="middle" x="308" y="-502" font-family="Helvetica,sans-Serif" font-size="10.00">::dataset_group</text>
</a>
</g>
</g>
<!-- Node15&#45;&gt;Node16 -->
<g id="edge24" class="edge"><title>Node15&#45;&gt;Node16</title>
<path fill="none" stroke="midnightblue" d="M190.353,-514.281C209.076,-513.594 230.805,-512.796 250.399,-512.077"/>
<polygon fill="midnightblue" stroke="midnightblue" points="250.559,-515.574 260.423,-511.709 250.302,-508.578 250.559,-515.574"/>
</g>
<!-- Node17 -->
<g id="node17" class="node"><title>Node17</title>
<g id="a_node17"><a xlink:href="namespacetlz.html#a252af14b9b4ac6502d3e9c5dd8dc90b8" target="_top" xlink:title="tlz::has">
<polygon fill="white" stroke="black" points="573.5,-418.5 573.5,-437.5 622.5,-437.5 622.5,-418.5 573.5,-418.5"/>
<text text-anchor="middle" x="598" y="-425.5" font-family="Helvetica,sans-Serif" font-size="10.00">tlz::has</text>
</a>
</g>
</g>
<!-- Node15&#45;&gt;Node17 -->
<g id="edge25" class="edge"><title>Node15&#45;&gt;Node17</title>
<path fill="none" stroke="midnightblue" d="M175.791,-506.493C186.95,-503.191 199.53,-499.452 211,-496 227.021,-491.179 230.681,-488.688 247,-485 358.767,-459.744 389.119,-466.686 502,-447 522.456,-443.432 545.276,-438.887 563.423,-435.137"/>
<polygon fill="midnightblue" stroke="midnightblue" points="564.17,-438.556 573.246,-433.09 562.742,-431.703 564.17,-438.556"/>
</g>
<!-- Node23 -->
<g id="node23" class="node"><title>Node23</title>
<g id="a_node23"><a xlink:href="classtlz_1_1dataset.html#acbdb309b8dd22f687fff41f6e9ac6ed4" target="_top" xlink:title="tlz::dataset::view">
<polygon fill="white" stroke="black" points="407.5,-330.5 407.5,-349.5 499.5,-349.5 499.5,-330.5 407.5,-330.5"/>
<text text-anchor="middle" x="453.5" y="-337.5" font-family="Helvetica,sans-Serif" font-size="10.00">tlz::dataset::view</text>
</a>
</g>
</g>
<!-- Node22&#45;&gt;Node23 -->
<g id="edge32" class="edge"><title>Node22&#45;&gt;Node23</title>
<path fill="none" stroke="midnightblue" d="M355.59,-340C368.764,-340 383.233,-340 396.88,-340"/>
<polygon fill="midnightblue" stroke="midnightblue" points="397.122,-343.5 407.122,-340 397.122,-336.5 397.122,-343.5"/>
</g>
<!-- Node24 -->
<g id="node24" class="node"><title>Node24</title>
<g id="a_node24"><a xlink:href="classtlz_1_1dataset__view.html#a1ec7ba844d313cddc558874fe85246a8" target="_top" xlink:title="tlz::dataset_view::\lgroup_view">
<polygon fill="white" stroke="black" points="405,-281 405,-311 502,-311 502,-281 405,-281"/>
<text text-anchor="start" x="413" y="-299" font-family="Helvetica,sans-Serif" font-size="10.00">tlz::dataset_view::</text>
<text text-anchor="middle" x="453.5" y="-288" font-family="Helvetica,sans-Serif" font-size="10.00">group_view</text>
</a>
</g>
</g>
<!-- Node22&#45;&gt;Node24 -->
<g id="edge33" class="edge"><title>Node22&#45;&gt;Node24</title>
<path fill="none" stroke="midnightblue" d="M355.59,-325.714C368.112,-321.875 381.803,-317.677 394.848,-313.677"/>
<polygon fill="midnightblue" stroke="midnightblue" points="396.132,-316.944 404.667,-310.667 394.08,-310.252 396.132,-316.944"/>
</g>
<!-- Node24&#45;&gt;Node17 -->
<g id="edge35" class="edge"><title>Node24&#45;&gt;Node17</title>
<path fill="none" stroke="midnightblue" d="M488.742,-311.067C493.487,-313.972 498.073,-317.286 502,-321 524.596,-342.366 517.511,-357.605 538,-381 548.451,-392.933 562.22,-404.096 573.828,-412.545"/>
<polygon fill="midnightblue" stroke="midnightblue" points="572.004,-415.542 582.193,-418.446 576.039,-409.822 572.004,-415.542"/>
</g>
<!-- Node25 -->
<g id="node25" class="node"><title>Node25</title>
<g id="a_node25"><a xlink:href="classtlz_1_1dataset__view.html#a31a73cf70078f270c9045bc0babadee2" target="_top" xlink:title="tlz::dataset_view::\ldataset_view">
<polygon fill="white" stroke="black" points="549.5,-281 549.5,-311 646.5,-311 646.5,-281 549.5,-281"/>
<text text-anchor="start" x="557.5" y="-299" font-family="Helvetica,sans-Serif" font-size="10.00">tlz::dataset_view::</text>
<text text-anchor="middle" x="598" y="-288" font-family="Helvetica,sans-Serif" font-size="10.00">dataset_view</text>
</a>
</g>
</g>
<!-- Node24&#45;&gt;Node25 -->
<g id="edge34" class="edge"><title>Node24&#45;&gt;Node25</title>
<path fill="none" stroke="midnightblue" d="M502.347,-296C514.096,-296 526.8,-296 538.971,-296"/>
<polygon fill="midnightblue" stroke="midnightblue" points="539.037,-299.5 549.037,-296 539.037,-292.5 539.037,-299.5"/>
</g>
<!-- Node26 -->
<g id="node26" class="node"><title>Node26</title>
<g id="a_node26"><a xlink:href="classtlz_1_1dataset.html#ab14f5b1f18c0ab423c18270b7ca46bd2" target="_top" xlink:title="tlz::dataset::parameters">
<polygon fill="white" stroke="black" points="538,-352.5 538,-371.5 658,-371.5 658,-352.5 538,-352.5"/>
<text text-anchor="middle" x="598" y="-359.5" font-family="Helvetica,sans-Serif" font-size="10.00">tlz::dataset::parameters</text>
</a>
</g>
</g>
<!-- Node24&#45;&gt;Node26 -->
<g id="edge36" class="edge"><title>Node24&#45;&gt;Node26</title>
<path fill="none" stroke="midnightblue" d="M487.192,-311.142C511.314,-322.314 543.872,-337.393 567.263,-348.227"/>
<polygon fill="midnightblue" stroke="midnightblue" points="565.819,-351.415 576.364,-352.442 568.761,-345.064 565.819,-351.415"/>
</g>
<!-- Node28 -->
<g id="node28" class="node"><title>Node28</title>
<g id="a_node28"><a xlink:href="classtlz_1_1dataset__view.html#a327a842dc304656596d65b9bbf52fb1c" target="_top" xlink:title="tlz::dataset_view::\llocal_filename">
<polygon fill="white" stroke="black" points="259.5,-407 259.5,-437 356.5,-437 356.5,-407 259.5,-407"/>
<text text-anchor="start" x="267.5" y="-425" font-family="Helvetica,sans-Serif" font-size="10.00">tlz::dataset_view::</text>
<text text-anchor="middle" x="308" y="-414" font-family="Helvetica,sans-Serif" font-size="10.00">local_filename</text>
</a>
</g>
</g>
<!-- Node27&#45;&gt;Node28 -->
<g id="edge38" class="edge"><title>Node27&#45;&gt;Node28</title>
<path fill="none" stroke="midnightblue" d="M191.23,-457.404C209.531,-451.807 230.6,-445.364 249.706,-439.521"/>
<polygon fill="midnightblue" stroke="midnightblue" points="250.954,-442.8 259.493,-436.528 248.906,-436.106 250.954,-442.8"/>
</g>
<!-- Node29 -->
<g id="node29" class="node"><title>Node29</title>
<g id="a_node29"><a xlink:href="namespacetlz.html#add846dc50c32dfb356cb1a7ac11d37ac" target="_top" xlink:title="tlz::get_or">
<polygon fill="white" stroke="black" points="423.5,-418.5 423.5,-437.5 483.5,-437.5 483.5,-418.5 423.5,-418.5"/>
<text text-anchor="middle" x="453.5" y="-425.5" font-family="Helvetica,sans-Serif" font-size="10.00">tlz::get_or</text>
</a>
</g>
</g>
<!-- Node28&#45;&gt;Node29 -->
<g id="edge39" class="edge"><title>Node28&#45;&gt;Node29</title>
<path fill="none" stroke="midnightblue" d="M356.783,-423.998C375.013,-424.76 395.575,-425.62 412.956,-426.347"/>
<polygon fill="midnightblue" stroke="midnightblue" points="413.18,-429.859 423.317,-426.78 413.472,-422.865 413.18,-429.859"/>
</g>
<!-- Node30 -->
<g id="node30" class="node"><title>Node30</title>
<g id="a_node30"><a xlink:href="classtlz_1_1dataset__view.html#a4951a6300847e0fed4fecf79d8753b58" target="_top" xlink:title="tlz::dataset_view::\llocal_parameters">
<polygon fill="white" stroke="black" points="405,-369 405,-399 502,-399 502,-369 405,-369"/>
<text text-anchor="start" x="413" y="-387" font-family="Helvetica,sans-Serif" font-size="10.00">tlz::dataset_view::</text>
<text text-anchor="middle" x="453.5" y="-376" font-family="Helvetica,sans-Serif" font-size="10.00">local_parameters</text>
</a>
</g>
</g>
<!-- Node28&#45;&gt;Node30 -->
<g id="edge41" class="edge"><title>Node28&#45;&gt;Node30</title>
<path fill="none" stroke="midnightblue" d="M356.783,-409.347C369.007,-406.11 382.279,-402.595 394.937,-399.243"/>
<polygon fill="midnightblue" stroke="midnightblue" points="396.154,-402.542 404.925,-396.598 394.362,-395.775 396.154,-402.542"/>
</g>
<!-- Node29&#45;&gt;Node17 -->
<g id="edge40" class="edge"><title>Node29&#45;&gt;Node17</title>
<path fill="none" stroke="midnightblue" d="M483.681,-428C506.662,-428 538.741,-428 562.904,-428"/>
<polygon fill="midnightblue" stroke="midnightblue" points="563.056,-431.5 573.056,-428 563.056,-424.5 563.056,-431.5"/>
</g>
<!-- Node30&#45;&gt;Node26 -->
<g id="edge42" class="edge"><title>Node30&#45;&gt;Node26</title>
<path fill="none" stroke="midnightblue" d="M502.347,-376.613C510.541,-375.348 519.2,-374.011 527.818,-372.681"/>
<polygon fill="midnightblue" stroke="midnightblue" points="528.538,-376.111 537.886,-371.126 527.469,-369.193 528.538,-376.111"/>
</g>
<!-- Node37 -->
<g id="node37" class="node"><title>Node37</title>
<g id="a_node37"><a xlink:href="namespacetlz.html#ae11c827ac9e581f9d2f98c39aab3750d" target="_top" xlink:title="tlz::file_name_extension">
<polygon fill="white" stroke="black" points="247,-38.5 247,-57.5 369,-57.5 369,-38.5 247,-38.5"/>
<text text-anchor="middle" x="308" y="-45.5" font-family="Helvetica,sans-Serif" font-size="10.00">tlz::file_name_extension</text>
</a>
</g>
</g>
<!-- Node36&#45;&gt;Node37 -->
<g id="edge50" class="edge"><title>Node36&#45;&gt;Node37</title>
<path fill="none" stroke="midnightblue" d="M193.444,-48C206.971,-48 221.874,-48 236.309,-48"/>
<polygon fill="midnightblue" stroke="midnightblue" points="236.71,-51.5001 246.71,-48 236.71,-44.5001 236.71,-51.5001"/>
</g>
</g>
</svg>
