<?xml version="1.0" encoding="UTF-8" standalone="no"?>
<!DOCTYPE svg PUBLIC "-//W3C//DTD SVG 1.1//EN"
 "http://www.w3.org/Graphics/SVG/1.1/DTD/svg11.dtd">
<!-- Generated by graphviz version 2.38.0 (20140413.2041)
 -->
<!-- Title: do_2d_optical_flow Pages: 1 -->
<svg width="1155pt" height="633pt"
 viewBox="0.00 0.00 1155.00 632.50" xmlns="http://www.w3.org/2000/svg" xmlns:xlink="http://www.w3.org/1999/xlink">
<g id="graph0" class="graph" transform="scale(1 1) rotate(0) translate(4 628.5)">
<title>do_2d_optical_flow</title>
<polygon fill="white" stroke="none" points="-4,4 -4,-628.5 1151,-628.5 1151,4 -4,4"/>
<!-- Node1 -->
<g id="node1" class="node"><title>Node1</title>
<polygon fill="#bfbfbf" stroke="black" points="0,-232 0,-251 100,-251 100,-232 0,-232"/>
<text text-anchor="middle" x="50" y="-239" font-family="Helvetica,sans-Serif" font-size="10.00">do_2d_optical_flow</text>
</g>
<!-- Node2 -->
<g id="node2" class="node"><title>Node2</title>
<g id="a_node2"><a xlink:href="classtlz_1_1dataset__group.html#a4cc740eed6929b9f06a2157120740a7f" target="_top" xlink:title="tlz::dataset_group::set">
<polygon fill="white" stroke="black" points="303,-605 303,-624 417,-624 417,-605 303,-605"/>
<text text-anchor="middle" x="360" y="-612" font-family="Helvetica,sans-Serif" font-size="10.00">tlz::dataset_group::set</text>
</a>
</g>
</g>
<!-- Node1&#45;&gt;Node2 -->
<g id="edge1" class="edge"><title>Node1&#45;&gt;Node2</title>
<path fill="none" stroke="midnightblue" d="M50.5238,-251.182C49.0081,-293.286 48.7523,-462.283 136,-550.5 177.072,-592.028 243.165,-607.044 292.756,-612.259"/>
<polygon fill="midnightblue" stroke="midnightblue" points="292.472,-615.748 302.756,-613.203 293.129,-608.779 292.472,-615.748"/>
</g>
<!-- Node3 -->
<g id="node3" class="node"><title>Node3</title>
<g id="a_node3"><a xlink:href="classtlz_1_1dataset.html#a3a77e1219653f07bef6ec7b08cbf7dcf" target="_top" xlink:title="tlz::dataset::y_min">
<polygon fill="white" stroke="black" points="152.5,-213 152.5,-232 250.5,-232 250.5,-213 152.5,-213"/>
<text text-anchor="middle" x="201.5" y="-220" font-family="Helvetica,sans-Serif" font-size="10.00">tlz::dataset::y_min</text>
</a>
</g>
</g>
<!-- Node1&#45;&gt;Node3 -->
<g id="edge2" class="edge"><title>Node1&#45;&gt;Node3</title>
<path fill="none" stroke="midnightblue" d="M100.366,-235.226C113.849,-233.513 128.582,-231.64 142.498,-229.872"/>
<polygon fill="midnightblue" stroke="midnightblue" points="142.978,-233.339 152.457,-228.606 142.096,-226.395 142.978,-233.339"/>
</g>
<!-- Node4 -->
<g id="node4" class="node"><title>Node4</title>
<g id="a_node4"><a xlink:href="classtlz_1_1dataset.html#a6900b6a88a2ac1e23d1a51da20f650e4" target="_top" xlink:title="tlz::dataset::y_max">
<polygon fill="white" stroke="black" points="151,-175 151,-194 252,-194 252,-175 151,-175"/>
<text text-anchor="middle" x="201.5" y="-182" font-family="Helvetica,sans-Serif" font-size="10.00">tlz::dataset::y_max</text>
</a>
</g>
</g>
<!-- Node1&#45;&gt;Node4 -->
<g id="edge3" class="edge"><title>Node1&#45;&gt;Node4</title>
<path fill="none" stroke="midnightblue" d="M70.2739,-231.992C87.305,-223.806 112.949,-212.004 136,-203.5 142.109,-201.246 148.618,-199.072 155.063,-197.051"/>
<polygon fill="midnightblue" stroke="midnightblue" points="156.521,-200.266 165.071,-194.01 154.486,-193.568 156.521,-200.266"/>
</g>
<!-- Node5 -->
<g id="node5" class="node"><title>Node5</title>
<g id="a_node5"><a xlink:href="cg__optical__flow__cors_8cc.html#a1a3ce6b4daa6a5b861ab2085a6c3642c" target="_top" xlink:title="load_image">
<polygon fill="white" stroke="black" points="471.5,-248 471.5,-267 537.5,-267 537.5,-248 471.5,-248"/>
<text text-anchor="middle" x="504.5" y="-255" font-family="Helvetica,sans-Serif" font-size="10.00">load_image</text>
</a>
</g>
</g>
<!-- Node1&#45;&gt;Node5 -->
<g id="edge4" class="edge"><title>Node1&#45;&gt;Node5</title>
<path fill="none" stroke="midnightblue" d="M100.287,-243.243C189.69,-246.404 377.104,-253.031 461.144,-256.002"/>
<polygon fill="midnightblue" stroke="midnightblue" points="461.227,-259.507 471.344,-256.363 461.474,-252.512 461.227,-259.507"/>
</g>
<!-- Node21 -->
<g id="node21" class="node"><title>Node21</title>
<g id="a_node21"><a xlink:href="cg__optical__flow__cors_8cc.html#a89184ca9fefae735b0f1f9824fb57543" target="_top" xlink:title="add_correspondences">
<polygon fill="white" stroke="black" points="304,-567 304,-586 416,-586 416,-567 304,-567"/>
<text text-anchor="middle" x="360" y="-574" font-family="Helvetica,sans-Serif" font-size="10.00">add_correspondences</text>
</a>
</g>
</g>
<!-- Node1&#45;&gt;Node21 -->
<g id="edge22" class="edge"><title>Node1&#45;&gt;Node21</title>
<path fill="none" stroke="midnightblue" d="M51.0695,-251.086C51.8788,-289.291 60.0621,-432.259 136,-507.5 177.88,-548.996 244.176,-565.612 293.613,-572.225"/>
<polygon fill="midnightblue" stroke="midnightblue" points="293.224,-575.704 303.577,-573.455 294.081,-568.757 293.224,-575.704"/>
</g>
<!-- Node22 -->
<g id="node22" class="node"><title>Node22</title>
<g id="a_node22"><a xlink:href="classtlz_1_1dataset.html#a3623ef5d2922b36ca94b4982ba17e9fe" target="_top" xlink:title="tlz::dataset::is_2d">
<polygon fill="white" stroke="black" points="154,-137 154,-156 249,-156 249,-137 154,-137"/>
<text text-anchor="middle" x="201.5" y="-144" font-family="Helvetica,sans-Serif" font-size="10.00">tlz::dataset::is_2d</text>
</a>
</g>
</g>
<!-- Node1&#45;&gt;Node22 -->
<g id="edge23" class="edge"><title>Node1&#45;&gt;Node22</title>
<path fill="none" stroke="midnightblue" d="M59.1475,-231.837C73.2106,-215.759 103.657,-183.507 136,-165.5 139.951,-163.3 144.182,-161.332 148.52,-159.574"/>
<polygon fill="midnightblue" stroke="midnightblue" points="149.932,-162.784 158.116,-156.056 147.522,-156.212 149.932,-162.784"/>
</g>
<!-- Node23 -->
<g id="node23" class="node"><title>Node23</title>
<g id="a_node23"><a xlink:href="classtlz_1_1dataset.html#a95703f1285ba42a810d46644128daf9a" target="_top" xlink:title="tlz::dataset::y_step">
<polygon fill="white" stroke="black" points="151,-99 151,-118 252,-118 252,-99 151,-99"/>
<text text-anchor="middle" x="201.5" y="-106" font-family="Helvetica,sans-Serif" font-size="10.00">tlz::dataset::y_step</text>
</a>
</g>
</g>
<!-- Node1&#45;&gt;Node23 -->
<g id="edge24" class="edge"><title>Node1&#45;&gt;Node23</title>
<path fill="none" stroke="midnightblue" d="M55.4456,-231.902C66.1026,-209.962 95.2788,-155.857 136,-127.5 138.865,-125.505 141.941,-123.717 145.139,-122.114"/>
<polygon fill="midnightblue" stroke="midnightblue" points="146.637,-125.279 154.404,-118.072 143.838,-118.863 146.637,-125.279"/>
</g>
<!-- Node24 -->
<g id="node24" class="node"><title>Node24</title>
<g id="a_node24"><a xlink:href="cg__optical__flow__cors_8cc.html#aa5dfbbc67079c854cb58b99bb003aab9" target="_top" xlink:title="print_flow_indicator">
<polygon fill="white" stroke="black" points="309.5,-529 309.5,-548 410.5,-548 410.5,-529 309.5,-529"/>
<text text-anchor="middle" x="360" y="-536" font-family="Helvetica,sans-Serif" font-size="10.00">print_flow_indicator</text>
</a>
</g>
</g>
<!-- Node1&#45;&gt;Node24 -->
<g id="edge25" class="edge"><title>Node1&#45;&gt;Node24</title>
<path fill="none" stroke="midnightblue" d="M51.8421,-251.018C55.3428,-284.859 71.728,-400.641 136,-462.5 180.388,-505.222 249.741,-523.981 299.316,-532.186"/>
<polygon fill="midnightblue" stroke="midnightblue" points="298.846,-535.655 309.265,-533.736 299.923,-528.738 298.846,-535.655"/>
</g>
<!-- Node25 -->
<g id="node25" class="node"><title>Node25</title>
<g id="a_node25"><a xlink:href="cg__optical__flow__cors_8cc.html#afb40806f0de30fe623408f5cf1f47465" target="_top" xlink:title="flow_to">
<polygon fill="white" stroke="black" points="336,-289 336,-308 384,-308 384,-289 336,-289"/>
<text text-anchor="middle" x="360" y="-296" font-family="Helvetica,sans-Serif" font-size="10.00">flow_to</text>
</a>
</g>
</g>
<!-- Node1&#45;&gt;Node25 -->
<g id="edge26" class="edge"><title>Node1&#45;&gt;Node25</title>
<path fill="none" stroke="midnightblue" d="M71.1239,-251.052C88.0477,-258.658 113.082,-268.922 136,-274.5 202.06,-290.58 281.744,-295.89 325.738,-297.641"/>
<polygon fill="midnightblue" stroke="midnightblue" points="325.745,-301.143 335.865,-298.005 325.997,-294.148 325.745,-301.143"/>
</g>
<!-- Node27 -->
<g id="node27" class="node"><title>Node27</title>
<g id="a_node27"><a xlink:href="cg__optical__flow__cors_8cc.html#aa3aa33a3711a66a8f1c2b008580a75cb" target="_top" xlink:title="vertical_optical_flow\l_window_size">
<polygon fill="white" stroke="black" points="149,-49.5 149,-79.5 254,-79.5 254,-49.5 149,-49.5"/>
<text text-anchor="start" x="157" y="-67.5" font-family="Helvetica,sans-Serif" font-size="10.00">vertical_optical_flow</text>
<text text-anchor="middle" x="201.5" y="-56.5" font-family="Helvetica,sans-Serif" font-size="10.00">_window_size</text>
</a>
</g>
</g>
<!-- Node1&#45;&gt;Node27 -->
<g id="edge29" class="edge"><title>Node1&#45;&gt;Node27</title>
<path fill="none" stroke="midnightblue" d="M53.8374,-231.823C62.0845,-205.311 88.5274,-130.747 136,-89.5 137.943,-87.8114 140.014,-86.2303 142.176,-84.7506"/>
<polygon fill="midnightblue" stroke="midnightblue" points="144.113,-87.6701 150.898,-79.5323 140.519,-81.6631 144.113,-87.6701"/>
</g>
<!-- Node28 -->
<g id="node28" class="node"><title>Node28</title>
<g id="a_node28"><a xlink:href="structflow__state.html#a70ebb1f3987cbd90e1fd2666a0b68cf5" target="_top" xlink:title="flow_state::valid_features\l_count">
<polygon fill="white" stroke="black" points="137.5,-0.5 137.5,-30.5 265.5,-30.5 265.5,-0.5 137.5,-0.5"/>
<text text-anchor="start" x="145.5" y="-18.5" font-family="Helvetica,sans-Serif" font-size="10.00">flow_state::valid_features</text>
<text text-anchor="middle" x="201.5" y="-7.5" font-family="Helvetica,sans-Serif" font-size="10.00">_count</text>
</a>
</g>
</g>
<!-- Node1&#45;&gt;Node28 -->
<g id="edge30" class="edge"><title>Node1&#45;&gt;Node28</title>
<path fill="none" stroke="midnightblue" d="M52.2987,-231.972C57.1327,-200.112 76.9526,-96.1135 136,-39.5 137.105,-38.4405 138.261,-37.427 139.46,-36.4575"/>
<polygon fill="midnightblue" stroke="midnightblue" points="141.636,-39.2098 147.916,-30.6766 137.685,-33.4312 141.636,-39.2098"/>
</g>
<!-- Node29 -->
<g id="node29" class="node"><title>Node29</title>
<g id="a_node29"><a xlink:href="cg__optical__flow__cors_8cc.html#a70ffcab7e1297f10267d7faa691a68d4" target="_top" xlink:title="do_horizontal_optical_flow">
<polygon fill="white" stroke="black" points="136,-434 136,-453 267,-453 267,-434 136,-434"/>
<text text-anchor="middle" x="201.5" y="-441" font-family="Helvetica,sans-Serif" font-size="10.00">do_horizontal_optical_flow</text>
</a>
</g>
</g>
<!-- Node1&#45;&gt;Node29 -->
<g id="edge31" class="edge"><title>Node1&#45;&gt;Node29</title>
<path fill="none" stroke="midnightblue" d="M58.2107,-251.243C81.794,-283.108 156.867,-384.545 187.398,-425.797"/>
<polygon fill="midnightblue" stroke="midnightblue" points="184.599,-427.899 193.362,-433.855 190.226,-423.735 184.599,-427.899"/>
</g>
<!-- Node6 -->
<g id="node6" class="node"><title>Node6</title>
<g id="a_node6"><a xlink:href="classtlz_1_1dataset__group.html#aa0c9157fd56b01adebcecdcdd98f9e3f" target="_top" xlink:title="tlz::dataset_group\l::view">
<polygon fill="white" stroke="black" points="755,-333.5 755,-363.5 850,-363.5 850,-333.5 755,-333.5"/>
<text text-anchor="start" x="763" y="-351.5" font-family="Helvetica,sans-Serif" font-size="10.00">tlz::dataset_group</text>
<text text-anchor="middle" x="802.5" y="-340.5" font-family="Helvetica,sans-Serif" font-size="10.00">::view</text>
</a>
</g>
</g>
<!-- Node5&#45;&gt;Node6 -->
<g id="edge5" class="edge"><title>Node5&#45;&gt;Node6</title>
<path fill="none" stroke="midnightblue" d="M537.668,-267.102C544.101,-269.862 550.55,-273.295 556,-277.5 577.396,-294.007 568.56,-313.052 592,-326.5 638.498,-353.178 700.433,-356.518 744.883,-354.499"/>
<polygon fill="midnightblue" stroke="midnightblue" points="745.147,-357.99 754.936,-353.939 744.757,-351.001 745.147,-357.99"/>
</g>
<!-- Node12 -->
<g id="node12" class="node"><title>Node12</title>
<g id="a_node12"><a xlink:href="classtlz_1_1dataset__view.html#af3c734eaed33af07993255db63d3fc54" target="_top" xlink:title="tlz::dataset_view::\limage_filename">
<polygon fill="white" stroke="black" points="603,-286.5 603,-316.5 700,-316.5 700,-286.5 603,-286.5"/>
<text text-anchor="start" x="611" y="-304.5" font-family="Helvetica,sans-Serif" font-size="10.00">tlz::dataset_view::</text>
<text text-anchor="middle" x="651.5" y="-293.5" font-family="Helvetica,sans-Serif" font-size="10.00">image_filename</text>
</a>
</g>
</g>
<!-- Node5&#45;&gt;Node12 -->
<g id="edge11" class="edge"><title>Node5&#45;&gt;Node12</title>
<path fill="none" stroke="midnightblue" d="M536.963,-267.047C553.347,-272.019 573.901,-278.256 593.002,-284.052"/>
<polygon fill="midnightblue" stroke="midnightblue" points="592.243,-287.48 602.829,-287.034 594.276,-280.781 592.243,-287.48"/>
</g>
<!-- Node16 -->
<g id="node16" class="node"><title>Node16</title>
<g id="a_node16"><a xlink:href="namespacetlz.html#abb019466ea9f56c0dab27e893d891837" target="_top" xlink:title="tlz::file_exists">
<polygon fill="white" stroke="black" points="613,-248 613,-267 690,-267 690,-248 613,-248"/>
<text text-anchor="middle" x="651.5" y="-255" font-family="Helvetica,sans-Serif" font-size="10.00">tlz::file_exists</text>
</a>
</g>
</g>
<!-- Node5&#45;&gt;Node16 -->
<g id="edge17" class="edge"><title>Node5&#45;&gt;Node16</title>
<path fill="none" stroke="midnightblue" d="M537.68,-257.5C556.753,-257.5 581.284,-257.5 602.597,-257.5"/>
<polygon fill="midnightblue" stroke="midnightblue" points="602.764,-261 612.764,-257.5 602.764,-254 602.764,-261"/>
</g>
<!-- Node17 -->
<g id="node17" class="node"><title>Node17</title>
<g id="a_node17"><a xlink:href="namespacetlz.html#afbf92393383d3dde6ffd98700ea014f1" target="_top" xlink:title="tlz::load_texture">
<polygon fill="white" stroke="black" points="608.5,-210 608.5,-229 694.5,-229 694.5,-210 608.5,-210"/>
<text text-anchor="middle" x="651.5" y="-217" font-family="Helvetica,sans-Serif" font-size="10.00">tlz::load_texture</text>
</a>
</g>
</g>
<!-- Node5&#45;&gt;Node17 -->
<g id="edge18" class="edge"><title>Node5&#45;&gt;Node17</title>
<path fill="none" stroke="midnightblue" d="M537.68,-249.067C557.288,-243.928 582.665,-237.278 604.384,-231.586"/>
<polygon fill="midnightblue" stroke="midnightblue" points="605.285,-234.968 614.071,-229.047 603.511,-228.196 605.285,-234.968"/>
</g>
<!-- Node18 -->
<g id="node18" class="node"><title>Node18</title>
<g id="a_node18"><a xlink:href="namespacetlz.html#aadab29bdc80bc1d0ad6d3784dd427992" target="_top" xlink:title="tlz::encode_view_index">
<polygon fill="white" stroke="black" points="592,-172 592,-191 711,-191 711,-172 592,-172"/>
<text text-anchor="middle" x="651.5" y="-179" font-family="Helvetica,sans-Serif" font-size="10.00">tlz::encode_view_index</text>
</a>
</g>
</g>
<!-- Node5&#45;&gt;Node18 -->
<g id="edge19" class="edge"><title>Node5&#45;&gt;Node18</title>
<path fill="none" stroke="midnightblue" d="M517.759,-247.877C533.973,-235.523 563.799,-214.065 592,-200.5 596.574,-198.3 601.466,-196.262 606.401,-194.401"/>
<polygon fill="midnightblue" stroke="midnightblue" points="607.612,-197.685 615.87,-191.047 605.275,-191.087 607.612,-197.685"/>
</g>
<!-- Node7 -->
<g id="node7" class="node"><title>Node7</title>
<g id="a_node7"><a xlink:href="classtlz_1_1dataset.html#acbdb309b8dd22f687fff41f6e9ac6ed4" target="_top" xlink:title="tlz::dataset::view">
<polygon fill="white" stroke="black" points="896.5,-381 896.5,-400 988.5,-400 988.5,-381 896.5,-381"/>
<text text-anchor="middle" x="942.5" y="-388" font-family="Helvetica,sans-Serif" font-size="10.00">tlz::dataset::view</text>
</a>
</g>
</g>
<!-- Node6&#45;&gt;Node7 -->
<g id="edge6" class="edge"><title>Node6&#45;&gt;Node7</title>
<path fill="none" stroke="midnightblue" d="M850.221,-362.719C866.384,-367.639 884.376,-373.114 900.084,-377.895"/>
<polygon fill="midnightblue" stroke="midnightblue" points="899.449,-381.36 910.035,-380.924 901.487,-374.664 899.449,-381.36"/>
</g>
<!-- Node8 -->
<g id="node8" class="node"><title>Node8</title>
<g id="a_node8"><a xlink:href="classtlz_1_1dataset__view.html#a1ec7ba844d313cddc558874fe85246a8" target="_top" xlink:title="tlz::dataset_view::\lgroup_view">
<polygon fill="white" stroke="black" points="894,-331.5 894,-361.5 991,-361.5 991,-331.5 894,-331.5"/>
<text text-anchor="start" x="902" y="-349.5" font-family="Helvetica,sans-Serif" font-size="10.00">tlz::dataset_view::</text>
<text text-anchor="middle" x="942.5" y="-338.5" font-family="Helvetica,sans-Serif" font-size="10.00">group_view</text>
</a>
</g>
</g>
<!-- Node6&#45;&gt;Node8 -->
<g id="edge7" class="edge"><title>Node6&#45;&gt;Node8</title>
<path fill="none" stroke="midnightblue" d="M850.221,-347.823C860.996,-347.667 872.585,-347.499 883.767,-347.337"/>
<polygon fill="midnightblue" stroke="midnightblue" points="883.939,-350.835 893.887,-347.19 883.838,-343.835 883.939,-350.835"/>
</g>
<!-- Node9 -->
<g id="node9" class="node"><title>Node9</title>
<g id="a_node9"><a xlink:href="classtlz_1_1dataset__view.html#a31a73cf70078f270c9045bc0babadee2" target="_top" xlink:title="tlz::dataset_view::\ldataset_view">
<polygon fill="white" stroke="black" points="1038.5,-331.5 1038.5,-361.5 1135.5,-361.5 1135.5,-331.5 1038.5,-331.5"/>
<text text-anchor="start" x="1046.5" y="-349.5" font-family="Helvetica,sans-Serif" font-size="10.00">tlz::dataset_view::</text>
<text text-anchor="middle" x="1087" y="-338.5" font-family="Helvetica,sans-Serif" font-size="10.00">dataset_view</text>
</a>
</g>
</g>
<!-- Node8&#45;&gt;Node9 -->
<g id="edge8" class="edge"><title>Node8&#45;&gt;Node9</title>
<path fill="none" stroke="midnightblue" d="M991.347,-346.5C1003.1,-346.5 1015.8,-346.5 1027.97,-346.5"/>
<polygon fill="midnightblue" stroke="midnightblue" points="1028.04,-350 1038.04,-346.5 1028.04,-343 1028.04,-350"/>
</g>
<!-- Node10 -->
<g id="node10" class="node"><title>Node10</title>
<g id="a_node10"><a xlink:href="namespacetlz.html#a252af14b9b4ac6502d3e9c5dd8dc90b8" target="_top" xlink:title="tlz::has">
<polygon fill="white" stroke="black" points="1062.5,-293 1062.5,-312 1111.5,-312 1111.5,-293 1062.5,-293"/>
<text text-anchor="middle" x="1087" y="-300" font-family="Helvetica,sans-Serif" font-size="10.00">tlz::has</text>
</a>
</g>
</g>
<!-- Node8&#45;&gt;Node10 -->
<g id="edge9" class="edge"><title>Node8&#45;&gt;Node10</title>
<path fill="none" stroke="midnightblue" d="M991.347,-331.726C1011.54,-325.491 1034.56,-318.385 1052.83,-312.741"/>
<polygon fill="midnightblue" stroke="midnightblue" points="1053.93,-316.065 1062.45,-309.77 1051.87,-309.376 1053.93,-316.065"/>
</g>
<!-- Node11 -->
<g id="node11" class="node"><title>Node11</title>
<g id="a_node11"><a xlink:href="classtlz_1_1dataset.html#ab14f5b1f18c0ab423c18270b7ca46bd2" target="_top" xlink:title="tlz::dataset::parameters">
<polygon fill="white" stroke="black" points="1027,-252 1027,-271 1147,-271 1147,-252 1027,-252"/>
<text text-anchor="middle" x="1087" y="-259" font-family="Helvetica,sans-Serif" font-size="10.00">tlz::dataset::parameters</text>
</a>
</g>
</g>
<!-- Node8&#45;&gt;Node11 -->
<g id="edge10" class="edge"><title>Node8&#45;&gt;Node11</title>
<path fill="none" stroke="midnightblue" d="M975.557,-331.485C980.901,-328.466 986.246,-325.102 991,-321.5 1009.54,-307.449 1007.6,-296.34 1027,-283.5 1031.91,-280.253 1037.36,-277.399 1042.9,-274.917"/>
<polygon fill="midnightblue" stroke="midnightblue" points="1044.33,-278.114 1052.26,-271.085 1041.68,-271.637 1044.33,-278.114"/>
</g>
<!-- Node13 -->
<g id="node13" class="node"><title>Node13</title>
<g id="a_node13"><a xlink:href="classtlz_1_1dataset__view.html#a327a842dc304656596d65b9bbf52fb1c" target="_top" xlink:title="tlz::dataset_view::\llocal_filename">
<polygon fill="white" stroke="black" points="754,-284.5 754,-314.5 851,-314.5 851,-284.5 754,-284.5"/>
<text text-anchor="start" x="762" y="-302.5" font-family="Helvetica,sans-Serif" font-size="10.00">tlz::dataset_view::</text>
<text text-anchor="middle" x="802.5" y="-291.5" font-family="Helvetica,sans-Serif" font-size="10.00">local_filename</text>
</a>
</g>
</g>
<!-- Node12&#45;&gt;Node13 -->
<g id="edge12" class="edge"><title>Node12&#45;&gt;Node13</title>
<path fill="none" stroke="midnightblue" d="M700.054,-300.862C713.898,-300.676 729.176,-300.471 743.583,-300.277"/>
<polygon fill="midnightblue" stroke="midnightblue" points="743.934,-303.773 753.887,-300.139 743.84,-296.774 743.934,-303.773"/>
</g>
<!-- Node14 -->
<g id="node14" class="node"><title>Node14</title>
<g id="a_node14"><a xlink:href="namespacetlz.html#add846dc50c32dfb356cb1a7ac11d37ac" target="_top" xlink:title="tlz::get_or">
<polygon fill="white" stroke="black" points="912.5,-293 912.5,-312 972.5,-312 972.5,-293 912.5,-293"/>
<text text-anchor="middle" x="942.5" y="-300" font-family="Helvetica,sans-Serif" font-size="10.00">tlz::get_or</text>
</a>
</g>
</g>
<!-- Node13&#45;&gt;Node14 -->
<g id="edge13" class="edge"><title>Node13&#45;&gt;Node14</title>
<path fill="none" stroke="midnightblue" d="M851.378,-300.541C867.824,-300.898 886.04,-301.294 901.767,-301.636"/>
<polygon fill="midnightblue" stroke="midnightblue" points="902.131,-305.145 912.205,-301.863 902.283,-298.147 902.131,-305.145"/>
</g>
<!-- Node15 -->
<g id="node15" class="node"><title>Node15</title>
<g id="a_node15"><a xlink:href="classtlz_1_1dataset__view.html#a4951a6300847e0fed4fecf79d8753b58" target="_top" xlink:title="tlz::dataset_view::\llocal_parameters">
<polygon fill="white" stroke="black" points="894,-243.5 894,-273.5 991,-273.5 991,-243.5 894,-243.5"/>
<text text-anchor="start" x="902" y="-261.5" font-family="Helvetica,sans-Serif" font-size="10.00">tlz::dataset_view::</text>
<text text-anchor="middle" x="942.5" y="-250.5" font-family="Helvetica,sans-Serif" font-size="10.00">local_parameters</text>
</a>
</g>
</g>
<!-- Node13&#45;&gt;Node15 -->
<g id="edge15" class="edge"><title>Node13&#45;&gt;Node15</title>
<path fill="none" stroke="midnightblue" d="M851.378,-285.275C861.868,-282.159 873.079,-278.828 883.904,-275.612"/>
<polygon fill="midnightblue" stroke="midnightblue" points="885.117,-278.903 893.706,-272.7 883.124,-272.193 885.117,-278.903"/>
</g>
<!-- Node14&#45;&gt;Node10 -->
<g id="edge14" class="edge"><title>Node14&#45;&gt;Node10</title>
<path fill="none" stroke="midnightblue" d="M972.681,-302.5C995.662,-302.5 1027.74,-302.5 1051.9,-302.5"/>
<polygon fill="midnightblue" stroke="midnightblue" points="1052.06,-306 1062.06,-302.5 1052.06,-299 1052.06,-306"/>
</g>
<!-- Node15&#45;&gt;Node11 -->
<g id="edge16" class="edge"><title>Node15&#45;&gt;Node11</title>
<path fill="none" stroke="midnightblue" d="M991.347,-259.507C999.541,-259.68 1008.2,-259.862 1016.82,-260.044"/>
<polygon fill="midnightblue" stroke="midnightblue" points="1016.81,-263.544 1026.89,-260.256 1016.96,-256.546 1016.81,-263.544"/>
</g>
<!-- Node19 -->
<g id="node19" class="node"><title>Node19</title>
<g id="a_node19"><a xlink:href="namespacetlz.html#a8e4f8c8c2927bc4350de13bfa0f8f9e1" target="_top" xlink:title="tlz::to_string">
<polygon fill="white" stroke="black" points="767,-191 767,-210 838,-210 838,-191 767,-191"/>
<text text-anchor="middle" x="802.5" y="-198" font-family="Helvetica,sans-Serif" font-size="10.00">tlz::to_string</text>
</a>
</g>
</g>
<!-- Node18&#45;&gt;Node19 -->
<g id="edge20" class="edge"><title>Node18&#45;&gt;Node19</title>
<path fill="none" stroke="midnightblue" d="M711.389,-189.009C726.444,-190.929 742.389,-192.962 756.614,-194.776"/>
<polygon fill="midnightblue" stroke="midnightblue" points="756.268,-198.26 766.631,-196.054 757.154,-191.317 756.268,-198.26"/>
</g>
<!-- Node20 -->
<g id="node20" class="node"><title>Node20</title>
<g id="a_node20"><a xlink:href="structtlz_1_1view__index.html#a20518c30015d833cdb2a69b524886b96" target="_top" xlink:title="tlz::view_index::is_2d">
<polygon fill="white" stroke="black" points="747,-153 747,-172 858,-172 858,-153 747,-153"/>
<text text-anchor="middle" x="802.5" y="-160" font-family="Helvetica,sans-Serif" font-size="10.00">tlz::view_index::is_2d</text>
</a>
</g>
</g>
<!-- Node18&#45;&gt;Node20 -->
<g id="edge21" class="edge"><title>Node18&#45;&gt;Node20</title>
<path fill="none" stroke="midnightblue" d="M711.389,-173.991C719.716,-172.929 728.316,-171.832 736.747,-170.757"/>
<polygon fill="midnightblue" stroke="midnightblue" points="737.44,-174.197 746.917,-169.46 736.554,-167.253 737.44,-174.197"/>
</g>
<!-- Node25&#45;&gt;Node5 -->
<g id="edge28" class="edge"><title>Node25&#45;&gt;Node5</title>
<path fill="none" stroke="midnightblue" d="M384.212,-291.821C405.099,-285.812 436.296,-276.836 461.547,-269.571"/>
<polygon fill="midnightblue" stroke="midnightblue" points="462.608,-272.907 471.251,-266.779 460.673,-266.18 462.608,-272.907"/>
</g>
<!-- Node26 -->
<g id="node26" class="node"><title>Node26</title>
<g id="a_node26"><a xlink:href="structflow__state.html#a04a62f8006f54b559ef6fcc25b87e66b" target="_top" xlink:title="flow_state::features\l_count">
<polygon fill="white" stroke="black" points="453,-286.5 453,-316.5 556,-316.5 556,-286.5 453,-286.5"/>
<text text-anchor="start" x="461" y="-304.5" font-family="Helvetica,sans-Serif" font-size="10.00">flow_state::features</text>
<text text-anchor="middle" x="504.5" y="-293.5" font-family="Helvetica,sans-Serif" font-size="10.00">_count</text>
</a>
</g>
</g>
<!-- Node25&#45;&gt;Node26 -->
<g id="edge27" class="edge"><title>Node25&#45;&gt;Node26</title>
<path fill="none" stroke="midnightblue" d="M384.212,-298.989C400.139,-299.324 422.061,-299.785 442.77,-300.221"/>
<polygon fill="midnightblue" stroke="midnightblue" points="442.736,-303.721 452.808,-300.433 442.884,-296.723 442.736,-303.721"/>
</g>
<!-- Node29&#45;&gt;Node2 -->
<g id="edge32" class="edge"><title>Node29&#45;&gt;Node2</title>
<path fill="none" stroke="midnightblue" d="M206.279,-453.29C217.113,-480.089 250.89,-555.32 303,-595.5 305.442,-597.383 308.081,-599.085 310.838,-600.624"/>
<polygon fill="midnightblue" stroke="midnightblue" points="309.418,-603.824 319.947,-605 312.449,-597.515 309.418,-603.824"/>
</g>
<!-- Node29&#45;&gt;Node21 -->
<g id="edge41" class="edge"><title>Node29&#45;&gt;Node21</title>
<path fill="none" stroke="midnightblue" d="M208.519,-453.279C222.446,-475.12 259.084,-528.243 303,-557.5 305.952,-559.466 309.127,-561.248 312.411,-562.859"/>
<polygon fill="midnightblue" stroke="midnightblue" points="311.293,-566.19 321.86,-566.959 314.08,-559.768 311.293,-566.19"/>
</g>
<!-- Node29&#45;&gt;Node24 -->
<g id="edge36" class="edge"><title>Node29&#45;&gt;Node24</title>
<path fill="none" stroke="midnightblue" d="M218.347,-453.105C231.7,-461.422 251.114,-474.044 267,-486.5 284.08,-499.893 284.323,-508.443 303,-519.5 306.578,-521.618 310.425,-523.542 314.368,-525.279"/>
<polygon fill="midnightblue" stroke="midnightblue" points="313.071,-528.53 323.655,-528.999 315.674,-522.032 313.071,-528.53"/>
</g>
<!-- Node29&#45;&gt;Node25 -->
<g id="edge37" class="edge"><title>Node29&#45;&gt;Node25</title>
<path fill="none" stroke="midnightblue" d="M207.662,-433.732C220.559,-410.247 256.518,-350.147 303,-317.5 309.929,-312.634 318.205,-308.931 326.241,-306.147"/>
<polygon fill="midnightblue" stroke="midnightblue" points="327.295,-309.485 335.818,-303.191 325.23,-302.796 327.295,-309.485"/>
</g>
<!-- Node30 -->
<g id="node30" class="node"><title>Node30</title>
<g id="a_node30"><a xlink:href="classtlz_1_1dataset.html#a15180d3b04937d9f1c69041a220b943b" target="_top" xlink:title="tlz::dataset::x_min">
<polygon fill="white" stroke="black" points="311,-491 311,-510 409,-510 409,-491 311,-491"/>
<text text-anchor="middle" x="360" y="-498" font-family="Helvetica,sans-Serif" font-size="10.00">tlz::dataset::x_min</text>
</a>
</g>
</g>
<!-- Node29&#45;&gt;Node30 -->
<g id="edge33" class="edge"><title>Node29&#45;&gt;Node30</title>
<path fill="none" stroke="midnightblue" d="M227.193,-453.108C247.483,-460.937 277.013,-472.182 303,-481.5 308.634,-483.52 314.606,-485.606 320.47,-487.622"/>
<polygon fill="midnightblue" stroke="midnightblue" points="319.563,-491.01 330.158,-490.926 321.823,-484.385 319.563,-491.01"/>
</g>
<!-- Node31 -->
<g id="node31" class="node"><title>Node31</title>
<g id="a_node31"><a xlink:href="classtlz_1_1dataset.html#a280e3ae6c4b37e1e18fabf00b70be20a" target="_top" xlink:title="tlz::dataset::x_max">
<polygon fill="white" stroke="black" points="309.5,-453 309.5,-472 410.5,-472 410.5,-453 309.5,-453"/>
<text text-anchor="middle" x="360" y="-460" font-family="Helvetica,sans-Serif" font-size="10.00">tlz::dataset::x_max</text>
</a>
</g>
</g>
<!-- Node29&#45;&gt;Node31 -->
<g id="edge34" class="edge"><title>Node29&#45;&gt;Node31</title>
<path fill="none" stroke="midnightblue" d="M267.058,-451.338C277.778,-452.639 288.851,-453.984 299.439,-455.269"/>
<polygon fill="midnightblue" stroke="midnightblue" points="299.066,-458.749 309.415,-456.48 299.91,-451.8 299.066,-458.749"/>
</g>
<!-- Node32 -->
<g id="node32" class="node"><title>Node32</title>
<g id="a_node32"><a xlink:href="classtlz_1_1dataset.html#a7efef5473f244709a47ff506267652b1" target="_top" xlink:title="tlz::dataset::x_step">
<polygon fill="white" stroke="black" points="309.5,-415 309.5,-434 410.5,-434 410.5,-415 309.5,-415"/>
<text text-anchor="middle" x="360" y="-422" font-family="Helvetica,sans-Serif" font-size="10.00">tlz::dataset::x_step</text>
</a>
</g>
</g>
<!-- Node29&#45;&gt;Node32 -->
<g id="edge35" class="edge"><title>Node29&#45;&gt;Node32</title>
<path fill="none" stroke="midnightblue" d="M267.058,-435.662C277.778,-434.361 288.851,-433.016 299.439,-431.731"/>
<polygon fill="midnightblue" stroke="midnightblue" points="299.91,-435.2 309.415,-430.52 299.066,-428.251 299.91,-435.2"/>
</g>
<!-- Node33 -->
<g id="node33" class="node"><title>Node33</title>
<g id="a_node33"><a xlink:href="cg__optical__flow__cors_8cc.html#a492b5585cab19e8dac1679b4b44a1e87" target="_top" xlink:title="horizontal_optical\l_flow_window_size">
<polygon fill="white" stroke="black" points="309.5,-365.5 309.5,-395.5 410.5,-395.5 410.5,-365.5 309.5,-365.5"/>
<text text-anchor="start" x="317.5" y="-383.5" font-family="Helvetica,sans-Serif" font-size="10.00">horizontal_optical</text>
<text text-anchor="middle" x="360" y="-372.5" font-family="Helvetica,sans-Serif" font-size="10.00">_flow_window_size</text>
</a>
</g>
</g>
<!-- Node29&#45;&gt;Node33 -->
<g id="edge38" class="edge"><title>Node29&#45;&gt;Node33</title>
<path fill="none" stroke="midnightblue" d="M226.269,-433.932C249.009,-424.778 283.935,-410.718 312.253,-399.318"/>
<polygon fill="midnightblue" stroke="midnightblue" points="313.607,-402.546 321.577,-395.565 310.993,-396.053 313.607,-402.546"/>
</g>
<!-- Node34 -->
<g id="node34" class="node"><title>Node34</title>
<g id="a_node34"><a xlink:href="structflow__state.html#ac8be37941073fba44d3bd34de142a9e4" target="_top" xlink:title="flow_state::is_valid">
<polygon fill="white" stroke="black" points="309.5,-327 309.5,-346 410.5,-346 410.5,-327 309.5,-327"/>
<text text-anchor="middle" x="360" y="-334" font-family="Helvetica,sans-Serif" font-size="10.00">flow_state::is_valid</text>
</a>
</g>
</g>
<!-- Node29&#45;&gt;Node34 -->
<g id="edge39" class="edge"><title>Node29&#45;&gt;Node34</title>
<path fill="none" stroke="midnightblue" d="M211.284,-433.819C227.724,-416.211 264.931,-378.717 303,-356.5 307.182,-354.059 311.712,-351.841 316.321,-349.847"/>
<polygon fill="midnightblue" stroke="midnightblue" points="317.815,-353.019 325.809,-346.066 315.224,-346.517 317.815,-353.019"/>
</g>
<!-- Node35 -->
<g id="node35" class="node"><title>Node35</title>
<g id="a_node35"><a xlink:href="structtlz_1_1view__index.html#a795d2e69452fa9cf92a8bf776bb6e209" target="_top" xlink:title="tlz::view_index::is\l_valid">
<polygon fill="white" stroke="black" points="457,-335.5 457,-365.5 552,-365.5 552,-335.5 457,-335.5"/>
<text text-anchor="start" x="465" y="-353.5" font-family="Helvetica,sans-Serif" font-size="10.00">tlz::view_index::is</text>
<text text-anchor="middle" x="504.5" y="-342.5" font-family="Helvetica,sans-Serif" font-size="10.00">_valid</text>
</a>
</g>
</g>
<!-- Node34&#45;&gt;Node35 -->
<g id="edge40" class="edge"><title>Node34&#45;&gt;Node35</title>
<path fill="none" stroke="midnightblue" d="M410.84,-341.397C422.386,-342.531 434.759,-343.746 446.582,-344.908"/>
<polygon fill="midnightblue" stroke="midnightblue" points="446.503,-348.417 456.797,-345.912 447.187,-341.451 446.503,-348.417"/>
</g>
</g>
</svg>
