<?xml version="1.0" encoding="UTF-8" standalone="no"?>
<!DOCTYPE svg PUBLIC "-//W3C//DTD SVG 1.1//EN"
 "http://www.w3.org/Graphics/SVG/1.1/DTD/svg11.dtd">
<!-- Generated by graphviz version 2.38.0 (20140413.2041)
 -->
<!-- Title: flow_to Pages: 1 -->
<svg width="786pt" height="256pt"
 viewBox="0.00 0.00 786.00 256.00" xmlns="http://www.w3.org/2000/svg" xmlns:xlink="http://www.w3.org/1999/xlink">
<g id="graph0" class="graph" transform="scale(1 1) rotate(0) translate(4 252)">
<title>flow_to</title>
<polygon fill="white" stroke="none" points="-4,4 -4,-252 782,-252 782,4 -4,4"/>
<!-- Node1 -->
<g id="node1" class="node"><title>Node1</title>
<polygon fill="#bfbfbf" stroke="black" points="0,-117.5 0,-136.5 48,-136.5 48,-117.5 0,-117.5"/>
<text text-anchor="middle" x="24" y="-124.5" font-family="Helvetica,sans-Serif" font-size="10.00">flow_to</text>
</g>
<!-- Node2 -->
<g id="node2" class="node"><title>Node2</title>
<g id="a_node2"><a xlink:href="structflow__state.html#a04a62f8006f54b559ef6fcc25b87e66b" target="_top" xlink:title="flow_state::features\l_count">
<polygon fill="white" stroke="black" points="84,-134 84,-164 187,-164 187,-134 84,-134"/>
<text text-anchor="start" x="92" y="-152" font-family="Helvetica,sans-Serif" font-size="10.00">flow_state::features</text>
<text text-anchor="middle" x="135.5" y="-141" font-family="Helvetica,sans-Serif" font-size="10.00">_count</text>
</a>
</g>
</g>
<!-- Node1&#45;&gt;Node2 -->
<g id="edge1" class="edge"><title>Node1&#45;&gt;Node2</title>
<path fill="none" stroke="midnightblue" d="M48.2221,-131.666C55.8753,-133.203 64.7751,-134.991 73.8942,-136.824"/>
<polygon fill="midnightblue" stroke="midnightblue" points="73.3333,-140.281 83.8268,-138.819 74.7122,-133.418 73.3333,-140.281"/>
</g>
<!-- Node3 -->
<g id="node3" class="node"><title>Node3</title>
<g id="a_node3"><a xlink:href="cg__optical__flow__cors_8cc.html#a1a3ce6b4daa6a5b861ab2085a6c3642c" target="_top" xlink:title="load_image">
<polygon fill="white" stroke="black" points="102.5,-95.5 102.5,-114.5 168.5,-114.5 168.5,-95.5 102.5,-95.5"/>
<text text-anchor="middle" x="135.5" y="-102.5" font-family="Helvetica,sans-Serif" font-size="10.00">load_image</text>
</a>
</g>
</g>
<!-- Node1&#45;&gt;Node3 -->
<g id="edge2" class="edge"><title>Node1&#45;&gt;Node3</title>
<path fill="none" stroke="midnightblue" d="M48.2221,-122.334C60.9741,-119.772 77.1875,-116.515 92.1087,-113.517"/>
<polygon fill="midnightblue" stroke="midnightblue" points="93.0594,-116.896 102.174,-111.495 91.6805,-110.033 93.0594,-116.896"/>
</g>
<!-- Node4 -->
<g id="node4" class="node"><title>Node4</title>
<g id="a_node4"><a xlink:href="classtlz_1_1dataset__group.html#aa0c9157fd56b01adebcecdcdd98f9e3f" target="_top" xlink:title="tlz::dataset_group\l::view">
<polygon fill="white" stroke="black" points="386,-181 386,-211 481,-211 481,-181 386,-181"/>
<text text-anchor="start" x="394" y="-199" font-family="Helvetica,sans-Serif" font-size="10.00">tlz::dataset_group</text>
<text text-anchor="middle" x="433.5" y="-188" font-family="Helvetica,sans-Serif" font-size="10.00">::view</text>
</a>
</g>
</g>
<!-- Node3&#45;&gt;Node4 -->
<g id="edge3" class="edge"><title>Node3&#45;&gt;Node4</title>
<path fill="none" stroke="midnightblue" d="M168.668,-113.915C175.102,-116.55 181.55,-119.87 187,-124 208.537,-140.322 199.592,-159.496 223,-173 269.458,-199.801 331.399,-203.451 375.861,-201.675"/>
<polygon fill="midnightblue" stroke="midnightblue" points="376.106,-205.167 385.917,-201.17 375.754,-198.176 376.106,-205.167"/>
</g>
<!-- Node10 -->
<g id="node10" class="node"><title>Node10</title>
<g id="a_node10"><a xlink:href="classtlz_1_1dataset__view.html#af3c734eaed33af07993255db63d3fc54" target="_top" xlink:title="tlz::dataset_view::\limage_filename">
<polygon fill="white" stroke="black" points="234,-134 234,-164 331,-164 331,-134 234,-134"/>
<text text-anchor="start" x="242" y="-152" font-family="Helvetica,sans-Serif" font-size="10.00">tlz::dataset_view::</text>
<text text-anchor="middle" x="282.5" y="-141" font-family="Helvetica,sans-Serif" font-size="10.00">image_filename</text>
</a>
</g>
</g>
<!-- Node3&#45;&gt;Node10 -->
<g id="edge9" class="edge"><title>Node3&#45;&gt;Node10</title>
<path fill="none" stroke="midnightblue" d="M167.963,-114.547C184.347,-119.519 204.901,-125.756 224.002,-131.552"/>
<polygon fill="midnightblue" stroke="midnightblue" points="223.243,-134.98 233.829,-134.534 225.276,-128.281 223.243,-134.98"/>
</g>
<!-- Node14 -->
<g id="node14" class="node"><title>Node14</title>
<g id="a_node14"><a xlink:href="namespacetlz.html#abb019466ea9f56c0dab27e893d891837" target="_top" xlink:title="tlz::file_exists">
<polygon fill="white" stroke="black" points="244,-95.5 244,-114.5 321,-114.5 321,-95.5 244,-95.5"/>
<text text-anchor="middle" x="282.5" y="-102.5" font-family="Helvetica,sans-Serif" font-size="10.00">tlz::file_exists</text>
</a>
</g>
</g>
<!-- Node3&#45;&gt;Node14 -->
<g id="edge15" class="edge"><title>Node3&#45;&gt;Node14</title>
<path fill="none" stroke="midnightblue" d="M168.68,-105C187.753,-105 212.284,-105 233.597,-105"/>
<polygon fill="midnightblue" stroke="midnightblue" points="233.764,-108.5 243.764,-105 233.764,-101.5 233.764,-108.5"/>
</g>
<!-- Node15 -->
<g id="node15" class="node"><title>Node15</title>
<g id="a_node15"><a xlink:href="namespacetlz.html#afbf92393383d3dde6ffd98700ea014f1" target="_top" xlink:title="tlz::load_texture">
<polygon fill="white" stroke="black" points="239.5,-57.5 239.5,-76.5 325.5,-76.5 325.5,-57.5 239.5,-57.5"/>
<text text-anchor="middle" x="282.5" y="-64.5" font-family="Helvetica,sans-Serif" font-size="10.00">tlz::load_texture</text>
</a>
</g>
</g>
<!-- Node3&#45;&gt;Node15 -->
<g id="edge16" class="edge"><title>Node3&#45;&gt;Node15</title>
<path fill="none" stroke="midnightblue" d="M168.68,-96.5666C188.288,-91.428 213.665,-84.7775 235.384,-79.0857"/>
<polygon fill="midnightblue" stroke="midnightblue" points="236.285,-82.4677 245.071,-76.5468 234.511,-75.6963 236.285,-82.4677"/>
</g>
<!-- Node16 -->
<g id="node16" class="node"><title>Node16</title>
<g id="a_node16"><a xlink:href="namespacetlz.html#aadab29bdc80bc1d0ad6d3784dd427992" target="_top" xlink:title="tlz::encode_view_index">
<polygon fill="white" stroke="black" points="223,-19.5 223,-38.5 342,-38.5 342,-19.5 223,-19.5"/>
<text text-anchor="middle" x="282.5" y="-26.5" font-family="Helvetica,sans-Serif" font-size="10.00">tlz::encode_view_index</text>
</a>
</g>
</g>
<!-- Node3&#45;&gt;Node16 -->
<g id="edge17" class="edge"><title>Node3&#45;&gt;Node16</title>
<path fill="none" stroke="midnightblue" d="M148.759,-95.3771C164.973,-83.0225 194.799,-61.5648 223,-48 227.574,-45.7999 232.466,-43.7617 237.401,-41.9013"/>
<polygon fill="midnightblue" stroke="midnightblue" points="238.612,-45.1852 246.87,-38.5467 236.275,-38.587 238.612,-45.1852"/>
</g>
<!-- Node5 -->
<g id="node5" class="node"><title>Node5</title>
<g id="a_node5"><a xlink:href="classtlz_1_1dataset.html#acbdb309b8dd22f687fff41f6e9ac6ed4" target="_top" xlink:title="tlz::dataset::view">
<polygon fill="white" stroke="black" points="527.5,-228.5 527.5,-247.5 619.5,-247.5 619.5,-228.5 527.5,-228.5"/>
<text text-anchor="middle" x="573.5" y="-235.5" font-family="Helvetica,sans-Serif" font-size="10.00">tlz::dataset::view</text>
</a>
</g>
</g>
<!-- Node4&#45;&gt;Node5 -->
<g id="edge4" class="edge"><title>Node4&#45;&gt;Node5</title>
<path fill="none" stroke="midnightblue" d="M481.221,-210.219C497.384,-215.139 515.376,-220.614 531.084,-225.395"/>
<polygon fill="midnightblue" stroke="midnightblue" points="530.449,-228.86 541.035,-228.424 532.487,-222.164 530.449,-228.86"/>
</g>
<!-- Node6 -->
<g id="node6" class="node"><title>Node6</title>
<g id="a_node6"><a xlink:href="classtlz_1_1dataset__view.html#a1ec7ba844d313cddc558874fe85246a8" target="_top" xlink:title="tlz::dataset_view::\lgroup_view">
<polygon fill="white" stroke="black" points="525,-179 525,-209 622,-209 622,-179 525,-179"/>
<text text-anchor="start" x="533" y="-197" font-family="Helvetica,sans-Serif" font-size="10.00">tlz::dataset_view::</text>
<text text-anchor="middle" x="573.5" y="-186" font-family="Helvetica,sans-Serif" font-size="10.00">group_view</text>
</a>
</g>
</g>
<!-- Node4&#45;&gt;Node6 -->
<g id="edge5" class="edge"><title>Node4&#45;&gt;Node6</title>
<path fill="none" stroke="midnightblue" d="M481.221,-195.323C491.996,-195.167 503.585,-194.999 514.767,-194.837"/>
<polygon fill="midnightblue" stroke="midnightblue" points="514.939,-198.335 524.887,-194.69 514.838,-191.335 514.939,-198.335"/>
</g>
<!-- Node7 -->
<g id="node7" class="node"><title>Node7</title>
<g id="a_node7"><a xlink:href="classtlz_1_1dataset__view.html#a31a73cf70078f270c9045bc0babadee2" target="_top" xlink:title="tlz::dataset_view::\ldataset_view">
<polygon fill="white" stroke="black" points="669.5,-179 669.5,-209 766.5,-209 766.5,-179 669.5,-179"/>
<text text-anchor="start" x="677.5" y="-197" font-family="Helvetica,sans-Serif" font-size="10.00">tlz::dataset_view::</text>
<text text-anchor="middle" x="718" y="-186" font-family="Helvetica,sans-Serif" font-size="10.00">dataset_view</text>
</a>
</g>
</g>
<!-- Node6&#45;&gt;Node7 -->
<g id="edge6" class="edge"><title>Node6&#45;&gt;Node7</title>
<path fill="none" stroke="midnightblue" d="M622.347,-194C634.096,-194 646.8,-194 658.971,-194"/>
<polygon fill="midnightblue" stroke="midnightblue" points="659.037,-197.5 669.037,-194 659.037,-190.5 659.037,-197.5"/>
</g>
<!-- Node8 -->
<g id="node8" class="node"><title>Node8</title>
<g id="a_node8"><a xlink:href="namespacetlz.html#a252af14b9b4ac6502d3e9c5dd8dc90b8" target="_top" xlink:title="tlz::has">
<polygon fill="white" stroke="black" points="693.5,-140.5 693.5,-159.5 742.5,-159.5 742.5,-140.5 693.5,-140.5"/>
<text text-anchor="middle" x="718" y="-147.5" font-family="Helvetica,sans-Serif" font-size="10.00">tlz::has</text>
</a>
</g>
</g>
<!-- Node6&#45;&gt;Node8 -->
<g id="edge7" class="edge"><title>Node6&#45;&gt;Node8</title>
<path fill="none" stroke="midnightblue" d="M622.347,-179.226C642.54,-172.991 665.555,-165.885 683.834,-160.241"/>
<polygon fill="midnightblue" stroke="midnightblue" points="684.932,-163.565 693.454,-157.27 682.867,-156.876 684.932,-163.565"/>
</g>
<!-- Node9 -->
<g id="node9" class="node"><title>Node9</title>
<g id="a_node9"><a xlink:href="classtlz_1_1dataset.html#ab14f5b1f18c0ab423c18270b7ca46bd2" target="_top" xlink:title="tlz::dataset::parameters">
<polygon fill="white" stroke="black" points="658,-99.5 658,-118.5 778,-118.5 778,-99.5 658,-99.5"/>
<text text-anchor="middle" x="718" y="-106.5" font-family="Helvetica,sans-Serif" font-size="10.00">tlz::dataset::parameters</text>
</a>
</g>
</g>
<!-- Node6&#45;&gt;Node9 -->
<g id="edge8" class="edge"><title>Node6&#45;&gt;Node9</title>
<path fill="none" stroke="midnightblue" d="M606.557,-178.985C611.901,-175.966 617.246,-172.602 622,-169 640.542,-154.949 638.6,-143.84 658,-131 662.906,-127.753 668.356,-124.899 673.905,-122.417"/>
<polygon fill="midnightblue" stroke="midnightblue" points="675.332,-125.614 683.258,-118.585 672.678,-119.137 675.332,-125.614"/>
</g>
<!-- Node11 -->
<g id="node11" class="node"><title>Node11</title>
<g id="a_node11"><a xlink:href="classtlz_1_1dataset__view.html#a327a842dc304656596d65b9bbf52fb1c" target="_top" xlink:title="tlz::dataset_view::\llocal_filename">
<polygon fill="white" stroke="black" points="385,-132 385,-162 482,-162 482,-132 385,-132"/>
<text text-anchor="start" x="393" y="-150" font-family="Helvetica,sans-Serif" font-size="10.00">tlz::dataset_view::</text>
<text text-anchor="middle" x="433.5" y="-139" font-family="Helvetica,sans-Serif" font-size="10.00">local_filename</text>
</a>
</g>
</g>
<!-- Node10&#45;&gt;Node11 -->
<g id="edge10" class="edge"><title>Node10&#45;&gt;Node11</title>
<path fill="none" stroke="midnightblue" d="M331.054,-148.362C344.898,-148.176 360.176,-147.971 374.583,-147.777"/>
<polygon fill="midnightblue" stroke="midnightblue" points="374.934,-151.273 384.887,-147.639 374.84,-144.274 374.934,-151.273"/>
</g>
<!-- Node12 -->
<g id="node12" class="node"><title>Node12</title>
<g id="a_node12"><a xlink:href="namespacetlz.html#add846dc50c32dfb356cb1a7ac11d37ac" target="_top" xlink:title="tlz::get_or">
<polygon fill="white" stroke="black" points="543.5,-140.5 543.5,-159.5 603.5,-159.5 603.5,-140.5 543.5,-140.5"/>
<text text-anchor="middle" x="573.5" y="-147.5" font-family="Helvetica,sans-Serif" font-size="10.00">tlz::get_or</text>
</a>
</g>
</g>
<!-- Node11&#45;&gt;Node12 -->
<g id="edge11" class="edge"><title>Node11&#45;&gt;Node12</title>
<path fill="none" stroke="midnightblue" d="M482.378,-148.041C498.824,-148.398 517.04,-148.794 532.767,-149.136"/>
<polygon fill="midnightblue" stroke="midnightblue" points="533.131,-152.645 543.205,-149.363 533.283,-145.647 533.131,-152.645"/>
</g>
<!-- Node13 -->
<g id="node13" class="node"><title>Node13</title>
<g id="a_node13"><a xlink:href="classtlz_1_1dataset__view.html#a4951a6300847e0fed4fecf79d8753b58" target="_top" xlink:title="tlz::dataset_view::\llocal_parameters">
<polygon fill="white" stroke="black" points="525,-91 525,-121 622,-121 622,-91 525,-91"/>
<text text-anchor="start" x="533" y="-109" font-family="Helvetica,sans-Serif" font-size="10.00">tlz::dataset_view::</text>
<text text-anchor="middle" x="573.5" y="-98" font-family="Helvetica,sans-Serif" font-size="10.00">local_parameters</text>
</a>
</g>
</g>
<!-- Node11&#45;&gt;Node13 -->
<g id="edge13" class="edge"><title>Node11&#45;&gt;Node13</title>
<path fill="none" stroke="midnightblue" d="M482.378,-132.775C492.868,-129.659 504.079,-126.328 514.904,-123.112"/>
<polygon fill="midnightblue" stroke="midnightblue" points="516.117,-126.403 524.706,-120.2 514.124,-119.693 516.117,-126.403"/>
</g>
<!-- Node12&#45;&gt;Node8 -->
<g id="edge12" class="edge"><title>Node12&#45;&gt;Node8</title>
<path fill="none" stroke="midnightblue" d="M603.681,-150C626.662,-150 658.741,-150 682.904,-150"/>
<polygon fill="midnightblue" stroke="midnightblue" points="683.056,-153.5 693.056,-150 683.056,-146.5 683.056,-153.5"/>
</g>
<!-- Node13&#45;&gt;Node9 -->
<g id="edge14" class="edge"><title>Node13&#45;&gt;Node9</title>
<path fill="none" stroke="midnightblue" d="M622.347,-107.007C630.541,-107.18 639.2,-107.362 647.818,-107.544"/>
<polygon fill="midnightblue" stroke="midnightblue" points="647.815,-111.044 657.886,-107.756 647.962,-104.046 647.815,-111.044"/>
</g>
<!-- Node17 -->
<g id="node17" class="node"><title>Node17</title>
<g id="a_node17"><a xlink:href="namespacetlz.html#a8e4f8c8c2927bc4350de13bfa0f8f9e1" target="_top" xlink:title="tlz::to_string">
<polygon fill="white" stroke="black" points="398,-38.5 398,-57.5 469,-57.5 469,-38.5 398,-38.5"/>
<text text-anchor="middle" x="433.5" y="-45.5" font-family="Helvetica,sans-Serif" font-size="10.00">tlz::to_string</text>
</a>
</g>
</g>
<!-- Node16&#45;&gt;Node17 -->
<g id="edge18" class="edge"><title>Node16&#45;&gt;Node17</title>
<path fill="none" stroke="midnightblue" d="M342.389,-36.5093C357.444,-38.4291 373.389,-40.4624 387.614,-42.2763"/>
<polygon fill="midnightblue" stroke="midnightblue" points="387.268,-45.7605 397.631,-43.5536 388.154,-38.8167 387.268,-45.7605"/>
</g>
<!-- Node18 -->
<g id="node18" class="node"><title>Node18</title>
<g id="a_node18"><a xlink:href="structtlz_1_1view__index.html#a20518c30015d833cdb2a69b524886b96" target="_top" xlink:title="tlz::view_index::is_2d">
<polygon fill="white" stroke="black" points="378,-0.5 378,-19.5 489,-19.5 489,-0.5 378,-0.5"/>
<text text-anchor="middle" x="433.5" y="-7.5" font-family="Helvetica,sans-Serif" font-size="10.00">tlz::view_index::is_2d</text>
</a>
</g>
</g>
<!-- Node16&#45;&gt;Node18 -->
<g id="edge19" class="edge"><title>Node16&#45;&gt;Node18</title>
<path fill="none" stroke="midnightblue" d="M342.389,-21.4907C350.716,-20.4288 359.316,-19.3321 367.747,-18.2571"/>
<polygon fill="midnightblue" stroke="midnightblue" points="368.44,-21.6972 377.917,-16.9603 367.554,-14.7534 368.44,-21.6972"/>
</g>
</g>
</svg>
