<?xml version="1.0" encoding="UTF-8" standalone="no"?>
<!DOCTYPE svg PUBLIC "-//W3C//DTD SVG 1.1//EN"
 "http://www.w3.org/Graphics/SVG/1.1/DTD/svg11.dtd">
<!-- Generated by graphviz version 2.38.0 (20140413.2041)
 -->
<!-- Title: main Pages: 1 -->
<svg width="979pt" height="1153pt"
 viewBox="0.00 0.00 979.00 1152.54" xmlns="http://www.w3.org/2000/svg" xmlns:xlink="http://www.w3.org/1999/xlink">
<g id="graph0" class="graph" transform="scale(1 1) rotate(0) translate(4 1148.54)">
<title>main</title>
<polygon fill="white" stroke="none" points="-4,4 -4,-1148.54 975,-1148.54 975,4 -4,4"/>
<!-- Node1 -->
<g id="node1" class="node"><title>Node1</title>
<polygon fill="#bfbfbf" stroke="black" points="0,-435.5 0,-454.5 38,-454.5 38,-435.5 0,-435.5"/>
<text text-anchor="middle" x="19" y="-442.5" font-family="Helvetica,sans-Serif" font-size="10.00">main</text>
</g>
<!-- Node2 -->
<g id="node2" class="node"><title>Node2</title>
<g id="a_node2"><a xlink:href="namespacetlz.html#a3c03f5d9d6261ec2909938822fc47f8a" target="_top" xlink:title="tlz::get_args">
<polygon fill="white" stroke="black" points="117.5,-1071.5 117.5,-1090.5 188.5,-1090.5 188.5,-1071.5 117.5,-1071.5"/>
<text text-anchor="middle" x="153" y="-1078.5" font-family="Helvetica,sans-Serif" font-size="10.00">tlz::get_args</text>
</a>
</g>
</g>
<!-- Node1&#45;&gt;Node2 -->
<g id="edge1" class="edge"><title>Node1&#45;&gt;Node2</title>
<path fill="none" stroke="midnightblue" d="M20.1804,-454.828C21.6496,-530.12 32.6671,-1013.87 74,-1062 82.3832,-1071.76 94.864,-1076.95 107.397,-1079.6"/>
<polygon fill="midnightblue" stroke="midnightblue" points="106.951,-1083.08 117.382,-1081.22 108.07,-1076.17 106.951,-1083.08"/>
</g>
<!-- Node3 -->
<g id="node3" class="node"><title>Node3</title>
<g id="a_node3"><a xlink:href="namespacetlz.html#a91f1aec7120c97452c495ee447e56b57" target="_top" xlink:title="tlz::dataset_arg">
<polygon fill="white" stroke="black" points="111,-938.5 111,-957.5 195,-957.5 195,-938.5 111,-938.5"/>
<text text-anchor="middle" x="153" y="-945.5" font-family="Helvetica,sans-Serif" font-size="10.00">tlz::dataset_arg</text>
</a>
</g>
</g>
<!-- Node1&#45;&gt;Node3 -->
<g id="edge2" class="edge"><title>Node1&#45;&gt;Node3</title>
<path fill="none" stroke="midnightblue" d="M20.2642,-454.81C21.9468,-512.1 32.4617,-803.529 74,-881 85.8527,-903.106 108.192,-921.129 125.935,-932.892"/>
<polygon fill="midnightblue" stroke="midnightblue" points="124.396,-936.06 134.715,-938.461 128.146,-930.149 124.396,-936.06"/>
</g>
<!-- Node10 -->
<g id="node10" class="node"><title>Node10</title>
<g id="a_node10"><a xlink:href="namespacetlz.html#a11d8bb3ca89f4957bfde1cd0d5429a16" target="_top" xlink:title="tlz::image_correspondences_arg">
<polygon fill="white" stroke="black" points="74,-852.5 74,-871.5 232,-871.5 232,-852.5 74,-852.5"/>
<text text-anchor="middle" x="153" y="-859.5" font-family="Helvetica,sans-Serif" font-size="10.00">tlz::image_correspondences_arg</text>
</a>
</g>
</g>
<!-- Node1&#45;&gt;Node10 -->
<g id="edge11" class="edge"><title>Node1&#45;&gt;Node10</title>
<path fill="none" stroke="midnightblue" d="M20.6202,-454.672C23.2365,-491.598 35.099,-626.801 74,-730 90.4844,-773.731 121.045,-819.565 138.622,-844.048"/>
<polygon fill="midnightblue" stroke="midnightblue" points="135.946,-846.32 144.666,-852.338 141.602,-842.195 135.946,-846.32"/>
</g>
<!-- Node17 -->
<g id="node17" class="node"><title>Node17</title>
<g id="a_node17"><a xlink:href="namespacetlz.html#a8d3380a8873e542207e21a4384957425" target="_top" xlink:title="tlz::string_opt_arg">
<polygon fill="white" stroke="black" points="105.5,-1033.5 105.5,-1052.5 200.5,-1052.5 200.5,-1033.5 105.5,-1033.5"/>
<text text-anchor="middle" x="153" y="-1040.5" font-family="Helvetica,sans-Serif" font-size="10.00">tlz::string_opt_arg</text>
</a>
</g>
</g>
<!-- Node1&#45;&gt;Node17 -->
<g id="edge19" class="edge"><title>Node1&#45;&gt;Node17</title>
<path fill="none" stroke="midnightblue" d="M20.1096,-454.57C20.9589,-517.416 27.762,-871.459 74,-967 86.2451,-992.302 110.575,-1013.85 128.823,-1027.47"/>
<polygon fill="midnightblue" stroke="midnightblue" points="127.05,-1030.5 137.213,-1033.5 131.135,-1024.82 127.05,-1030.5"/>
</g>
<!-- Node19 -->
<g id="node19" class="node"><title>Node19</title>
<g id="a_node19"><a xlink:href="classtlz_1_1dataset.html#ad7d438f87e20fd0a734aabff2e6d52a9" target="_top" xlink:title="tlz::dataset::group">
<polygon fill="white" stroke="black" points="105.5,-701.5 105.5,-720.5 200.5,-720.5 200.5,-701.5 105.5,-701.5"/>
<text text-anchor="middle" x="153" y="-708.5" font-family="Helvetica,sans-Serif" font-size="10.00">tlz::dataset::group</text>
</a>
</g>
</g>
<!-- Node1&#45;&gt;Node19 -->
<g id="edge24" class="edge"><title>Node1&#45;&gt;Node19</title>
<path fill="none" stroke="midnightblue" d="M20.9385,-454.665C25.0282,-494.921 42.5158,-648.81 74,-684 79.9704,-690.673 87.6731,-695.697 95.9068,-699.48"/>
<polygon fill="midnightblue" stroke="midnightblue" points="94.7791,-702.798 105.365,-703.244 97.368,-696.294 94.7791,-702.798"/>
</g>
<!-- Node21 -->
<g id="node21" class="node"><title>Node21</title>
<g id="a_node21"><a xlink:href="classtlz_1_1dataset__group.html#a782b8049db0faa9ecfd0f7b0d6f31766" target="_top" xlink:title="tlz::dataset_group\l::image_size_with_border">
<polygon fill="white" stroke="black" points="89,-523 89,-553 217,-553 217,-523 89,-523"/>
<text text-anchor="start" x="97" y="-541" font-family="Helvetica,sans-Serif" font-size="10.00">tlz::dataset_group</text>
<text text-anchor="middle" x="153" y="-530" font-family="Helvetica,sans-Serif" font-size="10.00">::image_size_with_border</text>
</a>
</g>
</g>
<!-- Node1&#45;&gt;Node21 -->
<g id="edge27" class="edge"><title>Node1&#45;&gt;Node21</title>
<path fill="none" stroke="midnightblue" d="M25.2705,-454.85C33.6594,-469.61 51.4317,-497.397 74,-513 76.895,-515.002 79.9593,-516.85 83.133,-518.555"/>
<polygon fill="midnightblue" stroke="midnightblue" points="81.791,-521.794 92.3176,-522.995 84.8372,-515.492 81.791,-521.794"/>
</g>
<!-- Node23 -->
<g id="node23" class="node"><title>Node23</title>
<g id="a_node23"><a xlink:href="classtlz_1_1dataset__group.html#a1b2ebd9009b660773532e42691dc301e" target="_top" xlink:title="tlz::dataset_group\l::image_border">
<polygon fill="white" stroke="black" points="306,-523 306,-553 401,-553 401,-523 306,-523"/>
<text text-anchor="start" x="314" y="-541" font-family="Helvetica,sans-Serif" font-size="10.00">tlz::dataset_group</text>
<text text-anchor="middle" x="353.5" y="-530" font-family="Helvetica,sans-Serif" font-size="10.00">::image_border</text>
</a>
</g>
</g>
<!-- Node1&#45;&gt;Node23 -->
<g id="edge63" class="edge"><title>Node1&#45;&gt;Node23</title>
<path fill="none" stroke="midnightblue" d="M21.0663,-454.821C24.2052,-478.296 35.7459,-537.524 74,-562 146.069,-608.112 250.959,-579.329 309.283,-556.938"/>
<polygon fill="midnightblue" stroke="midnightblue" points="310.907,-560.06 318.923,-553.132 308.336,-553.549 310.907,-560.06"/>
</g>
<!-- Node29 -->
<g id="node29" class="node"><title>Node29</title>
<g id="a_node29"><a xlink:href="classtlz_1_1viewer.html#a2bf9d63d7a1a5ec4d5bdabc13d9ab688" target="_top" xlink:title="tlz::viewer::add_int\l_slider">
<polygon fill="white" stroke="black" points="103.5,-474 103.5,-504 202.5,-504 202.5,-474 103.5,-474"/>
<text text-anchor="start" x="111.5" y="-492" font-family="Helvetica,sans-Serif" font-size="10.00">tlz::viewer::add_int</text>
<text text-anchor="middle" x="153" y="-481" font-family="Helvetica,sans-Serif" font-size="10.00">_slider</text>
</a>
</g>
</g>
<!-- Node1&#45;&gt;Node29 -->
<g id="edge37" class="edge"><title>Node1&#45;&gt;Node29</title>
<path fill="none" stroke="midnightblue" d="M38.45,-451.636C48.8633,-455.345 62.1302,-460.01 74,-464 80.5206,-466.192 87.362,-468.448 94.1703,-470.665"/>
<polygon fill="midnightblue" stroke="midnightblue" points="93.4882,-474.124 104.08,-473.876 95.6454,-467.464 93.4882,-474.124"/>
</g>
<!-- Node30 -->
<g id="node30" class="node"><title>Node30</title>
<g id="a_node30"><a xlink:href="classtlz_1_1dataset.html#acff1e030f5c941654ea16f8061f49346" target="_top" xlink:title="tlz::dataset::x_mid">
<polygon fill="white" stroke="black" points="104,-435.5 104,-454.5 202,-454.5 202,-435.5 104,-435.5"/>
<text text-anchor="middle" x="153" y="-442.5" font-family="Helvetica,sans-Serif" font-size="10.00">tlz::dataset::x_mid</text>
</a>
</g>
</g>
<!-- Node1&#45;&gt;Node30 -->
<g id="edge38" class="edge"><title>Node1&#45;&gt;Node30</title>
<path fill="none" stroke="midnightblue" d="M38.0773,-445C52.5136,-445 73.5869,-445 93.6943,-445"/>
<polygon fill="midnightblue" stroke="midnightblue" points="93.7664,-448.5 103.766,-445 93.7664,-441.5 93.7664,-448.5"/>
</g>
<!-- Node31 -->
<g id="node31" class="node"><title>Node31</title>
<g id="a_node31"><a xlink:href="classtlz_1_1dataset.html#a15180d3b04937d9f1c69041a220b943b" target="_top" xlink:title="tlz::dataset::x_min">
<polygon fill="white" stroke="black" points="104,-397.5 104,-416.5 202,-416.5 202,-397.5 104,-397.5"/>
<text text-anchor="middle" x="153" y="-404.5" font-family="Helvetica,sans-Serif" font-size="10.00">tlz::dataset::x_min</text>
</a>
</g>
</g>
<!-- Node1&#45;&gt;Node31 -->
<g id="edge39" class="edge"><title>Node1&#45;&gt;Node31</title>
<path fill="none" stroke="midnightblue" d="M38.3459,-438.035C48.7266,-434.223 61.9956,-429.564 74,-426 82.1628,-423.576 90.8718,-421.227 99.4015,-419.055"/>
<polygon fill="midnightblue" stroke="midnightblue" points="100.431,-422.406 109.289,-416.593 98.7393,-415.613 100.431,-422.406"/>
</g>
<!-- Node32 -->
<g id="node32" class="node"><title>Node32</title>
<g id="a_node32"><a xlink:href="classtlz_1_1dataset.html#a280e3ae6c4b37e1e18fabf00b70be20a" target="_top" xlink:title="tlz::dataset::x_max">
<polygon fill="white" stroke="black" points="102.5,-359.5 102.5,-378.5 203.5,-378.5 203.5,-359.5 102.5,-359.5"/>
<text text-anchor="middle" x="153" y="-366.5" font-family="Helvetica,sans-Serif" font-size="10.00">tlz::dataset::x_max</text>
</a>
</g>
</g>
<!-- Node1&#45;&gt;Node32 -->
<g id="edge40" class="edge"><title>Node1&#45;&gt;Node32</title>
<path fill="none" stroke="midnightblue" d="M26.4447,-435.307C35.5064,-422.466 53.2478,-400.039 74,-388 79.832,-384.617 86.2451,-381.834 92.8115,-379.545"/>
<polygon fill="midnightblue" stroke="midnightblue" points="93.9834,-382.846 102.492,-376.532 91.9034,-376.162 93.9834,-382.846"/>
</g>
<!-- Node33 -->
<g id="node33" class="node"><title>Node33</title>
<g id="a_node33"><a xlink:href="classtlz_1_1dataset.html#a7efef5473f244709a47ff506267652b1" target="_top" xlink:title="tlz::dataset::x_step">
<polygon fill="white" stroke="black" points="102.5,-321.5 102.5,-340.5 203.5,-340.5 203.5,-321.5 102.5,-321.5"/>
<text text-anchor="middle" x="153" y="-328.5" font-family="Helvetica,sans-Serif" font-size="10.00">tlz::dataset::x_step</text>
</a>
</g>
</g>
<!-- Node1&#45;&gt;Node33 -->
<g id="edge41" class="edge"><title>Node1&#45;&gt;Node33</title>
<path fill="none" stroke="midnightblue" d="M22.6171,-435.482C28.4329,-416.186 44.3184,-372.397 74,-350 79.5315,-345.826 85.8565,-342.557 92.4581,-339.998"/>
<polygon fill="midnightblue" stroke="midnightblue" points="93.8838,-343.212 102.268,-336.735 91.6745,-336.57 93.8838,-343.212"/>
</g>
<!-- Node34 -->
<g id="node34" class="node"><title>Node34</title>
<g id="a_node34"><a xlink:href="classtlz_1_1dataset.html#a1183ab5dd7eab8ff6478d9105dc5da19" target="_top" xlink:title="tlz::dataset::y_mid">
<polygon fill="white" stroke="black" points="104,-283.5 104,-302.5 202,-302.5 202,-283.5 104,-283.5"/>
<text text-anchor="middle" x="153" y="-290.5" font-family="Helvetica,sans-Serif" font-size="10.00">tlz::dataset::y_mid</text>
</a>
</g>
</g>
<!-- Node1&#45;&gt;Node34 -->
<g id="edge42" class="edge"><title>Node1&#45;&gt;Node34</title>
<path fill="none" stroke="midnightblue" d="M20.9707,-435.242C23.9627,-410.586 35.3245,-345.379 74,-312 79.7307,-307.054 86.5406,-303.352 93.7139,-300.588"/>
<polygon fill="midnightblue" stroke="midnightblue" points="95.2168,-303.78 103.654,-297.371 93.0618,-297.12 95.2168,-303.78"/>
</g>
<!-- Node35 -->
<g id="node35" class="node"><title>Node35</title>
<g id="a_node35"><a xlink:href="classtlz_1_1dataset.html#a3a77e1219653f07bef6ec7b08cbf7dcf" target="_top" xlink:title="tlz::dataset::y_min">
<polygon fill="white" stroke="black" points="104,-245.5 104,-264.5 202,-264.5 202,-245.5 104,-245.5"/>
<text text-anchor="middle" x="153" y="-252.5" font-family="Helvetica,sans-Serif" font-size="10.00">tlz::dataset::y_min</text>
</a>
</g>
</g>
<!-- Node1&#45;&gt;Node35 -->
<g id="edge43" class="edge"><title>Node1&#45;&gt;Node35</title>
<path fill="none" stroke="midnightblue" d="M19.9716,-435.166C20.4485,-405.941 26.0219,-318.869 74,-274 79.7261,-268.645 86.7016,-264.726 94.1011,-261.87"/>
<polygon fill="midnightblue" stroke="midnightblue" points="95.1957,-265.195 103.638,-258.794 93.0468,-258.533 95.1957,-265.195"/>
</g>
<!-- Node36 -->
<g id="node36" class="node"><title>Node36</title>
<g id="a_node36"><a xlink:href="classtlz_1_1dataset.html#a6900b6a88a2ac1e23d1a51da20f650e4" target="_top" xlink:title="tlz::dataset::y_max">
<polygon fill="white" stroke="black" points="102.5,-207.5 102.5,-226.5 203.5,-226.5 203.5,-207.5 102.5,-207.5"/>
<text text-anchor="middle" x="153" y="-214.5" font-family="Helvetica,sans-Serif" font-size="10.00">tlz::dataset::y_max</text>
</a>
</g>
</g>
<!-- Node1&#45;&gt;Node36 -->
<g id="edge44" class="edge"><title>Node1&#45;&gt;Node36</title>
<path fill="none" stroke="midnightblue" d="M21.162,-435.481C25.8645,-398.493 44.6483,-264.946 74,-236 79.2534,-230.819 85.6694,-226.969 92.5427,-224.12"/>
<polygon fill="midnightblue" stroke="midnightblue" points="93.8125,-227.384 102.132,-220.825 91.5377,-220.764 93.8125,-227.384"/>
</g>
<!-- Node37 -->
<g id="node37" class="node"><title>Node37</title>
<g id="a_node37"><a xlink:href="classtlz_1_1dataset.html#a95703f1285ba42a810d46644128daf9a" target="_top" xlink:title="tlz::dataset::y_step">
<polygon fill="white" stroke="black" points="102.5,-169.5 102.5,-188.5 203.5,-188.5 203.5,-169.5 102.5,-169.5"/>
<text text-anchor="middle" x="153" y="-176.5" font-family="Helvetica,sans-Serif" font-size="10.00">tlz::dataset::y_step</text>
</a>
</g>
</g>
<!-- Node1&#45;&gt;Node37 -->
<g id="edge45" class="edge"><title>Node1&#45;&gt;Node37</title>
<path fill="none" stroke="midnightblue" d="M20.7559,-435.491C24.2086,-394.452 39.8048,-233.015 74,-198 79.222,-192.653 85.6788,-188.712 92.6239,-185.823"/>
<polygon fill="midnightblue" stroke="midnightblue" points="93.9991,-189.052 102.327,-182.503 91.7326,-182.429 93.9991,-189.052"/>
</g>
<!-- Node38 -->
<g id="node38" class="node"><title>Node38</title>
<g id="a_node38"><a xlink:href="classtlz_1_1dataset.html#acef78cfe5bb77142cbd71e420f36e48b" target="_top" xlink:title="tlz::dataset::valid">
<polygon fill="white" stroke="black" points="107,-131.5 107,-150.5 199,-150.5 199,-131.5 107,-131.5"/>
<text text-anchor="middle" x="153" y="-138.5" font-family="Helvetica,sans-Serif" font-size="10.00">tlz::dataset::valid</text>
</a>
</g>
</g>
<!-- Node1&#45;&gt;Node38 -->
<g id="edge46" class="edge"><title>Node1&#45;&gt;Node38</title>
<path fill="none" stroke="midnightblue" d="M20.4676,-435.282C22.838,-390.105 34.9877,-201.082 74,-160 80.2061,-153.465 88.2537,-149.018 96.8164,-146.023"/>
<polygon fill="midnightblue" stroke="midnightblue" points="97.9755,-149.332 106.632,-143.224 96.0557,-142.601 97.9755,-149.332"/>
</g>
<!-- Node39 -->
<g id="node39" class="node"><title>Node39</title>
<g id="a_node39"><a xlink:href="classtlz_1_1dataset__group.html#aa0c9157fd56b01adebcecdcdd98f9e3f" target="_top" xlink:title="tlz::dataset_group\l::view">
<polygon fill="white" stroke="black" points="306,-647 306,-677 401,-677 401,-647 306,-647"/>
<text text-anchor="start" x="314" y="-665" font-family="Helvetica,sans-Serif" font-size="10.00">tlz::dataset_group</text>
<text text-anchor="middle" x="353.5" y="-654" font-family="Helvetica,sans-Serif" font-size="10.00">::view</text>
</a>
</g>
</g>
<!-- Node1&#45;&gt;Node39 -->
<g id="edge47" class="edge"><title>Node1&#45;&gt;Node39</title>
<path fill="none" stroke="midnightblue" d="M21.0226,-454.564C25.2037,-491.699 42.2988,-625.524 74,-651 136.347,-701.104 234.293,-691.091 295.871,-677.705"/>
<polygon fill="midnightblue" stroke="midnightblue" points="296.829,-681.077 305.805,-675.448 295.278,-674.251 296.829,-681.077"/>
</g>
<!-- Node43 -->
<g id="node43" class="node"><title>Node43</title>
<g id="a_node43"><a xlink:href="classtlz_1_1dataset__view.html#af3c734eaed33af07993255db63d3fc54" target="_top" xlink:title="tlz::dataset_view::\limage_filename">
<polygon fill="white" stroke="black" points="104.5,-611 104.5,-641 201.5,-641 201.5,-611 104.5,-611"/>
<text text-anchor="start" x="112.5" y="-629" font-family="Helvetica,sans-Serif" font-size="10.00">tlz::dataset_view::</text>
<text text-anchor="middle" x="153" y="-618" font-family="Helvetica,sans-Serif" font-size="10.00">image_filename</text>
</a>
</g>
</g>
<!-- Node1&#45;&gt;Node43 -->
<g id="edge53" class="edge"><title>Node1&#45;&gt;Node43</title>
<path fill="none" stroke="midnightblue" d="M20.7162,-454.565C23.1792,-480.78 33.5404,-554.569 74,-596 79.9744,-602.118 87.3321,-607.009 95.1196,-610.914"/>
<polygon fill="midnightblue" stroke="midnightblue" points="93.8436,-614.177 104.402,-615.059 96.698,-607.785 93.8436,-614.177"/>
</g>
<!-- Node46 -->
<g id="node46" class="node"><title>Node46</title>
<g id="a_node46"><a xlink:href="namespacetlz.html#abab56a7d5e8f6eba9520c66a15fafa6d" target="_top" xlink:title="tlz::feature_points\l_for_view">
<polygon fill="white" stroke="black" points="105.5,-82 105.5,-112 200.5,-112 200.5,-82 105.5,-82"/>
<text text-anchor="start" x="113.5" y="-100" font-family="Helvetica,sans-Serif" font-size="10.00">tlz::feature_points</text>
<text text-anchor="middle" x="153" y="-89" font-family="Helvetica,sans-Serif" font-size="10.00">_for_view</text>
</a>
</g>
</g>
<!-- Node1&#45;&gt;Node46 -->
<g id="edge58" class="edge"><title>Node1&#45;&gt;Node46</title>
<path fill="none" stroke="midnightblue" d="M20.2966,-435.383C21.9768,-387.023 31.7837,-170.805 74,-122 79.8805,-115.202 87.6126,-110.236 95.9233,-106.613"/>
<polygon fill="midnightblue" stroke="midnightblue" points="97.3257,-109.826 105.484,-103.067 94.8913,-103.263 97.3257,-109.826"/>
</g>
<!-- Node47 -->
<g id="node47" class="node"><title>Node47</title>
<g id="a_node47"><a xlink:href="namespacetlz.html#a4f0806fc3ebaf4a594e02c8a01792197" target="_top" xlink:title="tlz::visualize_feature\l_points">
<polygon fill="white" stroke="black" points="99.5,-33 99.5,-63 206.5,-63 206.5,-33 99.5,-33"/>
<text text-anchor="start" x="107.5" y="-51" font-family="Helvetica,sans-Serif" font-size="10.00">tlz::visualize_feature</text>
<text text-anchor="middle" x="153" y="-40" font-family="Helvetica,sans-Serif" font-size="10.00">_points</text>
</a>
</g>
</g>
<!-- Node1&#45;&gt;Node47 -->
<g id="edge59" class="edge"><title>Node1&#45;&gt;Node47</title>
<path fill="none" stroke="midnightblue" d="M20.0494,-435.327C20.5123,-382.474 25.2765,-128.912 74,-72 78.4574,-66.7935 84.0154,-62.6977 90.0989,-59.4788"/>
<polygon fill="midnightblue" stroke="midnightblue" points="91.6156,-62.6347 99.3209,-55.3628 88.7626,-56.2424 91.6156,-62.6347"/>
</g>
<!-- Node4 -->
<g id="node4" class="node"><title>Node4</title>
<g id="a_node4"><a xlink:href="namespacetlz.html#a634de7ca11e100e4a118dffe80376a75" target="_top" xlink:title="tlz::in_filename_arg">
<polygon fill="white" stroke="black" points="303,-985.5 303,-1004.5 404,-1004.5 404,-985.5 303,-985.5"/>
<text text-anchor="middle" x="353.5" y="-992.5" font-family="Helvetica,sans-Serif" font-size="10.00">tlz::in_filename_arg</text>
</a>
</g>
</g>
<!-- Node3&#45;&gt;Node4 -->
<g id="edge3" class="edge"><title>Node3&#45;&gt;Node4</title>
<path fill="none" stroke="midnightblue" d="M194.169,-957.511C225.277,-964.877 268.559,-975.125 302.009,-983.045"/>
<polygon fill="midnightblue" stroke="midnightblue" points="301.513,-986.524 312.05,-985.422 303.126,-979.712 301.513,-986.524"/>
</g>
<!-- Node5 -->
<g id="node5" class="node"><title>Node5</title>
<g id="a_node5"><a xlink:href="namespacetlz.html#a0621d598fb83b13bf028f3e6293d04f8" target="_top" xlink:title="tlz::string_arg">
<polygon fill="white" stroke="black" points="501,-1099.5 501,-1118.5 577,-1118.5 577,-1099.5 501,-1099.5"/>
<text text-anchor="middle" x="539" y="-1106.5" font-family="Helvetica,sans-Serif" font-size="10.00">tlz::string_arg</text>
</a>
</g>
</g>
<!-- Node4&#45;&gt;Node5 -->
<g id="edge4" class="edge"><title>Node4&#45;&gt;Node5</title>
<path fill="none" stroke="midnightblue" d="M369.829,-1004.52C401.672,-1024.31 475.201,-1069.99 513.621,-1093.85"/>
<polygon fill="midnightblue" stroke="midnightblue" points="512.244,-1097.12 522.585,-1099.42 515.938,-1091.17 512.244,-1097.12"/>
</g>
<!-- Node6 -->
<g id="node6" class="node"><title>Node6</title>
<g id="a_node6"><a xlink:href="namespacetlz.html#a780431daab8d2595372eacb43143b52d" target="_top" xlink:title="tlz::args">
<polygon fill="white" stroke="black" points="701,-1061.5 701,-1080.5 753,-1080.5 753,-1061.5 701,-1061.5"/>
<text text-anchor="middle" x="727" y="-1068.5" font-family="Helvetica,sans-Serif" font-size="10.00">tlz::args</text>
</a>
</g>
</g>
<!-- Node4&#45;&gt;Node6 -->
<g id="edge9" class="edge"><title>Node4&#45;&gt;Node6</title>
<path fill="none" stroke="midnightblue" d="M404.391,-993.643C455.186,-993.455 535.802,-996.474 603,-1014 638.787,-1023.33 676.985,-1042.69 701.149,-1056.24"/>
<polygon fill="midnightblue" stroke="midnightblue" points="699.573,-1059.37 709.992,-1061.29 703.047,-1053.29 699.573,-1059.37"/>
</g>
<!-- Node8 -->
<g id="node8" class="node"><title>Node8</title>
<g id="a_node8"><a xlink:href="classtlz_1_1args__list.html#a38ad21acd64a4af98ffdf4a47837cdbe" target="_top" xlink:title="tlz::args_list::usage_fail">
<polygon fill="white" stroke="black" points="851,-1023.5 851,-1042.5 971,-1042.5 971,-1023.5 851,-1023.5"/>
<text text-anchor="middle" x="911" y="-1030.5" font-family="Helvetica,sans-Serif" font-size="10.00">tlz::args_list::usage_fail</text>
</a>
</g>
</g>
<!-- Node4&#45;&gt;Node8 -->
<g id="edge10" class="edge"><title>Node4&#45;&gt;Node8</title>
<path fill="none" stroke="midnightblue" d="M404.031,-992.986C425.797,-992.196 451.664,-991.387 475,-991 531.881,-990.056 546.243,-987.136 603,-991 687.777,-996.772 784.814,-1011.41 846.707,-1021.78"/>
<polygon fill="midnightblue" stroke="midnightblue" points="846.265,-1025.25 856.709,-1023.47 847.431,-1018.35 846.265,-1025.25"/>
</g>
<!-- Node9 -->
<g id="node9" class="node"><title>Node9</title>
<g id="a_node9"><a xlink:href="namespacetlz.html#abb019466ea9f56c0dab27e893d891837" target="_top" xlink:title="tlz::file_exists">
<polygon fill="white" stroke="black" points="500.5,-1023.5 500.5,-1042.5 577.5,-1042.5 577.5,-1023.5 500.5,-1023.5"/>
<text text-anchor="middle" x="539" y="-1030.5" font-family="Helvetica,sans-Serif" font-size="10.00">tlz::file_exists</text>
</a>
</g>
</g>
<!-- Node4&#45;&gt;Node9 -->
<g id="edge8" class="edge"><title>Node4&#45;&gt;Node9</title>
<path fill="none" stroke="midnightblue" d="M400.805,-1004.59C428.227,-1010.27 462.896,-1017.45 490.521,-1023.17"/>
<polygon fill="midnightblue" stroke="midnightblue" points="489.852,-1026.6 500.354,-1025.2 491.271,-1019.75 489.852,-1026.6"/>
</g>
<!-- Node5&#45;&gt;Node6 -->
<g id="edge5" class="edge"><title>Node5&#45;&gt;Node6</title>
<path fill="none" stroke="midnightblue" d="M577.193,-1101.4C610.292,-1094.64 658.357,-1084.82 690.828,-1078.19"/>
<polygon fill="midnightblue" stroke="midnightblue" points="691.687,-1081.58 700.784,-1076.15 690.285,-1074.72 691.687,-1081.58"/>
</g>
<!-- Node7 -->
<g id="node7" class="node"><title>Node7</title>
<g id="a_node7"><a xlink:href="classtlz_1_1args__list.html#a73d99bc75998dc14607a3a372d28dc6d" target="_top" xlink:title="tlz::args_list::next_arg">
<polygon fill="white" stroke="red" points="670.5,-1099.5 670.5,-1118.5 783.5,-1118.5 783.5,-1099.5 670.5,-1099.5"/>
<text text-anchor="middle" x="727" y="-1106.5" font-family="Helvetica,sans-Serif" font-size="10.00">tlz::args_list::next_arg</text>
</a>
</g>
</g>
<!-- Node5&#45;&gt;Node7 -->
<g id="edge6" class="edge"><title>Node5&#45;&gt;Node7</title>
<path fill="none" stroke="midnightblue" d="M577.193,-1109C600.892,-1109 632.264,-1109 660.091,-1109"/>
<polygon fill="midnightblue" stroke="midnightblue" points="660.161,-1112.5 670.161,-1109 660.161,-1105.5 660.161,-1112.5"/>
</g>
<!-- Node7&#45;&gt;Node8 -->
<g id="edge7" class="edge"><title>Node7&#45;&gt;Node8</title>
<path fill="none" stroke="midnightblue" d="M783.574,-1099.69C794.194,-1097.13 805.084,-1093.93 815,-1090 842.041,-1079.27 870.291,-1061.32 888.882,-1048.43"/>
<polygon fill="midnightblue" stroke="midnightblue" points="891.039,-1051.19 897.185,-1042.56 886.998,-1045.48 891.039,-1051.19"/>
</g>
<!-- Node10&#45;&gt;Node4 -->
<g id="edge18" class="edge"><title>Node10&#45;&gt;Node4</title>
<path fill="none" stroke="midnightblue" d="M168.276,-871.565C202.314,-894.372 288.476,-952.102 329.762,-979.765"/>
<polygon fill="midnightblue" stroke="midnightblue" points="327.831,-982.684 338.087,-985.343 331.728,-976.869 327.831,-982.684"/>
</g>
<!-- Node11 -->
<g id="node11" class="node"><title>Node11</title>
<g id="a_node11"><a xlink:href="namespacetlz.html#ad75d99f2e1623434fbadee66f3ff29a1" target="_top" xlink:title="tlz::import_image_correspondences">
<polygon fill="white" stroke="black" points="268,-852.5 268,-871.5 439,-871.5 439,-852.5 268,-852.5"/>
<text text-anchor="middle" x="353.5" y="-859.5" font-family="Helvetica,sans-Serif" font-size="10.00">tlz::import_image_correspondences</text>
</a>
</g>
</g>
<!-- Node10&#45;&gt;Node11 -->
<g id="edge12" class="edge"><title>Node10&#45;&gt;Node11</title>
<path fill="none" stroke="midnightblue" d="M232.168,-862C240.589,-862 249.223,-862 257.812,-862"/>
<polygon fill="midnightblue" stroke="midnightblue" points="257.857,-865.5 267.857,-862 257.857,-858.5 257.857,-865.5"/>
</g>
<!-- Node12 -->
<g id="node12" class="node"><title>Node12</title>
<g id="a_node12"><a xlink:href="namespacetlz.html#ae11c827ac9e581f9d2f98c39aab3750d" target="_top" xlink:title="tlz::file_name_extension">
<polygon fill="white" stroke="black" points="478,-909.5 478,-928.5 600,-928.5 600,-909.5 478,-909.5"/>
<text text-anchor="middle" x="539" y="-916.5" font-family="Helvetica,sans-Serif" font-size="10.00">tlz::file_name_extension</text>
</a>
</g>
</g>
<!-- Node11&#45;&gt;Node12 -->
<g id="edge13" class="edge"><title>Node11&#45;&gt;Node12</title>
<path fill="none" stroke="midnightblue" d="M385.214,-871.541C416.044,-881.117 463.7,-895.921 497.584,-906.446"/>
<polygon fill="midnightblue" stroke="midnightblue" points="496.598,-909.804 507.186,-909.428 498.674,-903.119 496.598,-909.804"/>
</g>
<!-- Node13 -->
<g id="node13" class="node"><title>Node13</title>
<g id="a_node13"><a xlink:href="namespacetlz.html#a24915249769d936c24ceb34f50b06104" target="_top" xlink:title="tlz::decode_image_correspondences">
<polygon fill="white" stroke="red" points="639,-827.5 639,-846.5 815,-846.5 815,-827.5 639,-827.5"/>
<text text-anchor="middle" x="727" y="-834.5" font-family="Helvetica,sans-Serif" font-size="10.00">tlz::decode_image_correspondences</text>
</a>
</g>
</g>
<!-- Node11&#45;&gt;Node13 -->
<g id="edge14" class="edge"><title>Node11&#45;&gt;Node13</title>
<path fill="none" stroke="midnightblue" d="M439.248,-866.193C487.385,-867.527 548.699,-867.463 603,-862 628.497,-859.435 656.524,-853.951 679.376,-848.771"/>
<polygon fill="midnightblue" stroke="midnightblue" points="680.207,-852.172 689.157,-846.502 678.625,-845.353 680.207,-852.172"/>
</g>
<!-- Node15 -->
<g id="node15" class="node"><title>Node15</title>
<g id="a_node15"><a xlink:href="namespacetlz.html#aa1be9362f548fcf9378e1fc9074089c4" target="_top" xlink:title="tlz::import_json_file">
<polygon fill="white" stroke="black" points="488.5,-833.5 488.5,-852.5 589.5,-852.5 589.5,-833.5 488.5,-833.5"/>
<text text-anchor="middle" x="539" y="-840.5" font-family="Helvetica,sans-Serif" font-size="10.00">tlz::import_json_file</text>
</a>
</g>
</g>
<!-- Node11&#45;&gt;Node15 -->
<g id="edge16" class="edge"><title>Node11&#45;&gt;Node15</title>
<path fill="none" stroke="midnightblue" d="M439.267,-853.223C452.4,-851.863 465.724,-850.484 478.155,-849.196"/>
<polygon fill="midnightblue" stroke="midnightblue" points="478.778,-852.651 488.364,-848.139 478.057,-845.688 478.778,-852.651"/>
</g>
<!-- Node16 -->
<g id="node16" class="node"><title>Node16</title>
<g id="a_node16"><a xlink:href="namespacetlz.html#a2ec439452fda5eeb03f60715e50fa96a" target="_top" xlink:title="tlz::import_binary\l_image_correspondences">
<polygon fill="white" stroke="black" points="475,-784 475,-814 603,-814 603,-784 475,-784"/>
<text text-anchor="start" x="483" y="-802" font-family="Helvetica,sans-Serif" font-size="10.00">tlz::import_binary</text>
<text text-anchor="middle" x="539" y="-791" font-family="Helvetica,sans-Serif" font-size="10.00">_image_correspondences</text>
</a>
</g>
</g>
<!-- Node11&#45;&gt;Node16 -->
<g id="edge17" class="edge"><title>Node11&#45;&gt;Node16</title>
<path fill="none" stroke="midnightblue" d="M382.37,-852.432C409.381,-843.158 451.055,-828.85 484.484,-817.373"/>
<polygon fill="midnightblue" stroke="midnightblue" points="485.799,-820.623 494.12,-814.065 483.525,-814.002 485.799,-820.623"/>
</g>
<!-- Node14 -->
<g id="node14" class="node"><title>Node14</title>
<g id="a_node14"><a xlink:href="namespacetlz.html#a252af14b9b4ac6502d3e9c5dd8dc90b8" target="_top" xlink:title="tlz::has">
<polygon fill="white" stroke="black" points="886.5,-704.5 886.5,-723.5 935.5,-723.5 935.5,-704.5 886.5,-704.5"/>
<text text-anchor="middle" x="911" y="-711.5" font-family="Helvetica,sans-Serif" font-size="10.00">tlz::has</text>
</a>
</g>
</g>
<!-- Node13&#45;&gt;Node14 -->
<g id="edge15" class="edge"><title>Node13&#45;&gt;Node14</title>
<path fill="none" stroke="midnightblue" d="M742.281,-827.348C773.778,-806.062 849.418,-754.943 887.415,-729.264"/>
<polygon fill="midnightblue" stroke="midnightblue" points="889.46,-732.106 895.785,-723.607 885.54,-726.306 889.46,-732.106"/>
</g>
<!-- Node17&#45;&gt;Node4 -->
<g id="edge23" class="edge"><title>Node17&#45;&gt;Node4</title>
<path fill="none" stroke="midnightblue" d="M193.692,-1033.4C225.067,-1025.81 269.043,-1015.18 302.765,-1007.03"/>
<polygon fill="midnightblue" stroke="midnightblue" points="303.979,-1010.33 312.876,-1004.58 302.334,-1003.53 303.979,-1010.33"/>
</g>
<!-- Node17&#45;&gt;Node5 -->
<g id="edge22" class="edge"><title>Node17&#45;&gt;Node5</title>
<path fill="none" stroke="midnightblue" d="M200.735,-1048.16C211.728,-1050.99 222.884,-1055.34 232,-1062 256.804,-1080.12 241.213,-1105.96 268,-1121 342.727,-1162.94 448.25,-1138.93 502.595,-1121.73"/>
<polygon fill="midnightblue" stroke="midnightblue" points="503.711,-1125.04 512.128,-1118.61 501.536,-1118.39 503.711,-1125.04"/>
</g>
<!-- Node17&#45;&gt;Node6 -->
<g id="edge20" class="edge"><title>Node17&#45;&gt;Node6</title>
<path fill="none" stroke="midnightblue" d="M200.809,-1045.29C312.408,-1050.75 592.159,-1064.45 690.855,-1069.28"/>
<polygon fill="midnightblue" stroke="midnightblue" points="690.746,-1072.78 700.905,-1069.77 691.089,-1065.79 690.746,-1072.78"/>
</g>
<!-- Node18 -->
<g id="node18" class="node"><title>Node18</title>
<g id="a_node18"><a xlink:href="classtlz_1_1args__list.html#a4aee93f4b0d9b5b4e7a5d13cb637337c" target="_top" xlink:title="tlz::args_list::has\l_next_arg">
<polygon fill="white" stroke="black" points="307.5,-1081 307.5,-1111 399.5,-1111 399.5,-1081 307.5,-1081"/>
<text text-anchor="start" x="315.5" y="-1099" font-family="Helvetica,sans-Serif" font-size="10.00">tlz::args_list::has</text>
<text text-anchor="middle" x="353.5" y="-1088" font-family="Helvetica,sans-Serif" font-size="10.00">_next_arg</text>
</a>
</g>
</g>
<!-- Node17&#45;&gt;Node18 -->
<g id="edge21" class="edge"><title>Node17&#45;&gt;Node18</title>
<path fill="none" stroke="midnightblue" d="M194.554,-1052.58C206.626,-1055.52 219.868,-1058.81 232,-1062 253.499,-1067.65 277.051,-1074.21 297.585,-1080.05"/>
<polygon fill="midnightblue" stroke="midnightblue" points="296.824,-1083.48 307.401,-1082.86 298.746,-1076.75 296.824,-1083.48"/>
</g>
<!-- Node19&#45;&gt;Node14 -->
<g id="edge26" class="edge"><title>Node19&#45;&gt;Node14</title>
<path fill="none" stroke="midnightblue" d="M188.103,-720.501C210.59,-726.262 240.806,-733.053 268,-736 509.737,-762.195 572.755,-746.98 815,-726 835.352,-724.237 858.055,-721.402 876.162,-718.93"/>
<polygon fill="midnightblue" stroke="midnightblue" points="876.818,-722.372 886.24,-717.527 875.853,-715.439 876.818,-722.372"/>
</g>
<!-- Node20 -->
<g id="node20" class="node"><title>Node20</title>
<g id="a_node20"><a xlink:href="classtlz_1_1dataset__group.html#acad4f6300bfc455279aaeb975d5e61de" target="_top" xlink:title="tlz::dataset_group\l::dataset_group">
<polygon fill="white" stroke="black" points="306,-696 306,-726 401,-726 401,-696 306,-696"/>
<text text-anchor="start" x="314" y="-714" font-family="Helvetica,sans-Serif" font-size="10.00">tlz::dataset_group</text>
<text text-anchor="middle" x="353.5" y="-703" font-family="Helvetica,sans-Serif" font-size="10.00">::dataset_group</text>
</a>
</g>
</g>
<!-- Node19&#45;&gt;Node20 -->
<g id="edge25" class="edge"><title>Node19&#45;&gt;Node20</title>
<path fill="none" stroke="midnightblue" d="M200.539,-711C228.933,-711 265.436,-711 295.548,-711"/>
<polygon fill="midnightblue" stroke="midnightblue" points="295.909,-714.5 305.909,-711 295.909,-707.5 295.909,-714.5"/>
</g>
<!-- Node22 -->
<g id="node22" class="node"><title>Node22</title>
<g id="a_node22"><a xlink:href="namespacetlz.html#a0b91e1131356fee9a4c7a72c3b398186" target="_top" xlink:title="tlz::add_border">
<polygon fill="white" stroke="black" points="313,-484.5 313,-503.5 394,-503.5 394,-484.5 313,-484.5"/>
<text text-anchor="middle" x="353.5" y="-491.5" font-family="Helvetica,sans-Serif" font-size="10.00">tlz::add_border</text>
</a>
</g>
</g>
<!-- Node21&#45;&gt;Node22 -->
<g id="edge28" class="edge"><title>Node21&#45;&gt;Node22</title>
<path fill="none" stroke="midnightblue" d="M217.079,-524.018C244.84,-517.864 276.975,-510.741 302.972,-504.978"/>
<polygon fill="midnightblue" stroke="midnightblue" points="303.971,-508.342 312.976,-502.761 302.456,-501.508 303.971,-508.342"/>
</g>
<!-- Node21&#45;&gt;Node23 -->
<g id="edge29" class="edge"><title>Node21&#45;&gt;Node23</title>
<path fill="none" stroke="midnightblue" d="M217.079,-538C242.31,-538 271.153,-538 295.718,-538"/>
<polygon fill="midnightblue" stroke="midnightblue" points="295.962,-541.5 305.962,-538 295.962,-534.5 295.962,-541.5"/>
</g>
<!-- Node28 -->
<g id="node28" class="node"><title>Node28</title>
<g id="a_node28"><a xlink:href="classtlz_1_1dataset.html#a7aecc40555a69a401c3d3b9c53025fcd" target="_top" xlink:title="tlz::dataset::image_size">
<polygon fill="white" stroke="black" points="293,-446.5 293,-465.5 414,-465.5 414,-446.5 293,-446.5"/>
<text text-anchor="middle" x="353.5" y="-453.5" font-family="Helvetica,sans-Serif" font-size="10.00">tlz::dataset::image_size</text>
</a>
</g>
</g>
<!-- Node21&#45;&gt;Node28 -->
<g id="edge36" class="edge"><title>Node21&#45;&gt;Node28</title>
<path fill="none" stroke="midnightblue" d="M212.543,-522.84C219.337,-520.044 225.981,-516.785 232,-513 251.695,-500.617 247.774,-486.495 268,-475 272.739,-472.307 277.83,-469.995 283.079,-468.012"/>
<polygon fill="midnightblue" stroke="midnightblue" points="284.297,-471.295 292.654,-464.783 282.06,-464.662 284.297,-471.295"/>
</g>
<!-- Node23&#45;&gt;Node14 -->
<g id="edge30" class="edge"><title>Node23&#45;&gt;Node14</title>
<path fill="none" stroke="midnightblue" d="M401.256,-529.202C414.129,-525.474 427.658,-520.253 439,-513 459.43,-499.936 452.909,-482.001 475,-472 526.825,-448.537 547.208,-460.881 603,-472 703.049,-491.94 737.352,-493.831 815,-560 859.682,-598.076 889.753,-662.625 902.734,-694.708"/>
<polygon fill="midnightblue" stroke="midnightblue" points="899.57,-696.225 906.478,-704.258 906.087,-693.67 899.57,-696.225"/>
</g>
<!-- Node24 -->
<g id="node24" class="node"><title>Node24</title>
<g id="a_node24"><a xlink:href="classtlz_1_1dataset__group.html#ac89fe02ba32a12258eadf8d91ef1fa37" target="_top" xlink:title="tlz::dataset_group\l::parameters">
<polygon fill="white" stroke="black" points="491.5,-520 491.5,-550 586.5,-550 586.5,-520 491.5,-520"/>
<text text-anchor="start" x="499.5" y="-538" font-family="Helvetica,sans-Serif" font-size="10.00">tlz::dataset_group</text>
<text text-anchor="middle" x="539" y="-527" font-family="Helvetica,sans-Serif" font-size="10.00">::parameters</text>
</a>
</g>
</g>
<!-- Node23&#45;&gt;Node24 -->
<g id="edge31" class="edge"><title>Node23&#45;&gt;Node24</title>
<path fill="none" stroke="midnightblue" d="M401.28,-537.235C425.544,-536.839 455.384,-536.351 480.989,-535.932"/>
<polygon fill="midnightblue" stroke="midnightblue" points="481.364,-539.426 491.306,-535.763 481.25,-532.427 481.364,-539.426"/>
</g>
<!-- Node26 -->
<g id="node26" class="node"><title>Node26</title>
<g id="a_node26"><a xlink:href="namespacetlz.html#a9517e892e5486b965a722d5589dc58c4" target="_top" xlink:title="tlz::decode_border">
<polygon fill="white" stroke="black" points="490.5,-481.5 490.5,-500.5 587.5,-500.5 587.5,-481.5 490.5,-481.5"/>
<text text-anchor="middle" x="539" y="-488.5" font-family="Helvetica,sans-Serif" font-size="10.00">tlz::decode_border</text>
</a>
</g>
</g>
<!-- Node23&#45;&gt;Node26 -->
<g id="edge33" class="edge"><title>Node23&#45;&gt;Node26</title>
<path fill="none" stroke="midnightblue" d="M401.28,-526.018C428.8,-518.97 463.491,-510.084 491.042,-503.027"/>
<polygon fill="midnightblue" stroke="midnightblue" points="492.024,-506.389 500.843,-500.517 490.287,-499.608 492.024,-506.389"/>
</g>
<!-- Node25 -->
<g id="node25" class="node"><title>Node25</title>
<g id="a_node25"><a xlink:href="classtlz_1_1dataset.html#ab14f5b1f18c0ab423c18270b7ca46bd2" target="_top" xlink:title="tlz::dataset::parameters">
<polygon fill="white" stroke="black" points="667,-613.5 667,-632.5 787,-632.5 787,-613.5 667,-613.5"/>
<text text-anchor="middle" x="727" y="-620.5" font-family="Helvetica,sans-Serif" font-size="10.00">tlz::dataset::parameters</text>
</a>
</g>
</g>
<!-- Node24&#45;&gt;Node25 -->
<g id="edge32" class="edge"><title>Node24&#45;&gt;Node25</title>
<path fill="none" stroke="midnightblue" d="M559.882,-550.084C579.21,-564.144 609.838,-584.862 639,-598 649.97,-602.942 662.16,-607.164 673.859,-610.655"/>
<polygon fill="midnightblue" stroke="midnightblue" points="672.957,-614.037 683.534,-613.415 674.878,-607.306 672.957,-614.037"/>
</g>
<!-- Node27 -->
<g id="node27" class="node"><title>Node27</title>
<g id="a_node27"><a xlink:href="namespacetlz.html#add846dc50c32dfb356cb1a7ac11d37ac" target="_top" xlink:title="tlz::get_or">
<polygon fill="white" stroke="black" points="697,-569.5 697,-588.5 757,-588.5 757,-569.5 697,-569.5"/>
<text text-anchor="middle" x="727" y="-576.5" font-family="Helvetica,sans-Serif" font-size="10.00">tlz::get_or</text>
</a>
</g>
</g>
<!-- Node26&#45;&gt;Node27 -->
<g id="edge34" class="edge"><title>Node26&#45;&gt;Node27</title>
<path fill="none" stroke="midnightblue" d="M576.462,-500.522C585.283,-503.227 594.59,-506.424 603,-510 639.363,-525.463 678.76,-548.851 702.915,-564.027"/>
<polygon fill="midnightblue" stroke="midnightblue" points="701.071,-567.002 711.389,-569.408 704.823,-561.093 701.071,-567.002"/>
</g>
<!-- Node27&#45;&gt;Node14 -->
<g id="edge35" class="edge"><title>Node27&#45;&gt;Node14</title>
<path fill="none" stroke="midnightblue" d="M757.162,-583.046C774.941,-586.524 797.526,-592.821 815,-604 852.53,-628.009 883.481,-671.225 899.076,-695.734"/>
<polygon fill="midnightblue" stroke="midnightblue" points="896.213,-697.758 904.454,-704.416 902.163,-694.072 896.213,-697.758"/>
</g>
<!-- Node40 -->
<g id="node40" class="node"><title>Node40</title>
<g id="a_node40"><a xlink:href="classtlz_1_1dataset.html#acbdb309b8dd22f687fff41f6e9ac6ed4" target="_top" xlink:title="tlz::dataset::view">
<polygon fill="white" stroke="black" points="493,-657.5 493,-676.5 585,-676.5 585,-657.5 493,-657.5"/>
<text text-anchor="middle" x="539" y="-664.5" font-family="Helvetica,sans-Serif" font-size="10.00">tlz::dataset::view</text>
</a>
</g>
</g>
<!-- Node39&#45;&gt;Node40 -->
<g id="edge48" class="edge"><title>Node39&#45;&gt;Node40</title>
<path fill="none" stroke="midnightblue" d="M401.28,-663.275C426.121,-663.952 456.806,-664.788 482.807,-665.496"/>
<polygon fill="midnightblue" stroke="midnightblue" points="482.798,-668.997 492.89,-665.771 482.989,-662 482.798,-668.997"/>
</g>
<!-- Node41 -->
<g id="node41" class="node"><title>Node41</title>
<g id="a_node41"><a xlink:href="classtlz_1_1dataset__view.html#a1ec7ba844d313cddc558874fe85246a8" target="_top" xlink:title="tlz::dataset_view::\lgroup_view">
<polygon fill="white" stroke="black" points="490.5,-696 490.5,-726 587.5,-726 587.5,-696 490.5,-696"/>
<text text-anchor="start" x="498.5" y="-714" font-family="Helvetica,sans-Serif" font-size="10.00">tlz::dataset_view::</text>
<text text-anchor="middle" x="539" y="-703" font-family="Helvetica,sans-Serif" font-size="10.00">group_view</text>
</a>
</g>
</g>
<!-- Node39&#45;&gt;Node41 -->
<g id="edge49" class="edge"><title>Node39&#45;&gt;Node41</title>
<path fill="none" stroke="midnightblue" d="M401.28,-674.492C425.371,-680.925 454.958,-688.825 480.44,-695.63"/>
<polygon fill="midnightblue" stroke="midnightblue" points="479.783,-699.077 490.348,-698.275 481.589,-692.314 479.783,-699.077"/>
</g>
<!-- Node41&#45;&gt;Node14 -->
<g id="edge51" class="edge"><title>Node41&#45;&gt;Node14</title>
<path fill="none" stroke="midnightblue" d="M587.614,-711.386C663.417,-712.001 809.72,-713.187 875.95,-713.724"/>
<polygon fill="midnightblue" stroke="midnightblue" points="876.213,-717.226 886.241,-713.807 876.27,-710.226 876.213,-717.226"/>
</g>
<!-- Node41&#45;&gt;Node25 -->
<g id="edge52" class="edge"><title>Node41&#45;&gt;Node25</title>
<path fill="none" stroke="midnightblue" d="M585.37,-695.957C591.533,-693.077 597.591,-689.763 603,-686 622.633,-672.34 618.587,-658.465 639,-646 645.656,-641.935 653.025,-638.581 660.575,-635.815"/>
<polygon fill="midnightblue" stroke="midnightblue" points="661.811,-639.093 670.196,-632.617 659.602,-632.45 661.811,-639.093"/>
</g>
<!-- Node42 -->
<g id="node42" class="node"><title>Node42</title>
<g id="a_node42"><a xlink:href="classtlz_1_1dataset__view.html#a31a73cf70078f270c9045bc0babadee2" target="_top" xlink:title="tlz::dataset_view::\ldataset_view">
<polygon fill="white" stroke="black" points="678.5,-655 678.5,-685 775.5,-685 775.5,-655 678.5,-655"/>
<text text-anchor="start" x="686.5" y="-673" font-family="Helvetica,sans-Serif" font-size="10.00">tlz::dataset_view::</text>
<text text-anchor="middle" x="727" y="-662" font-family="Helvetica,sans-Serif" font-size="10.00">dataset_view</text>
</a>
</g>
</g>
<!-- Node41&#45;&gt;Node42 -->
<g id="edge50" class="edge"><title>Node41&#45;&gt;Node42</title>
<path fill="none" stroke="midnightblue" d="M587.9,-700.441C612.416,-695.037 642.449,-688.417 668.239,-682.732"/>
<polygon fill="midnightblue" stroke="midnightblue" points="669.251,-686.093 678.263,-680.523 667.744,-679.257 669.251,-686.093"/>
</g>
<!-- Node44 -->
<g id="node44" class="node"><title>Node44</title>
<g id="a_node44"><a xlink:href="classtlz_1_1dataset__view.html#a327a842dc304656596d65b9bbf52fb1c" target="_top" xlink:title="tlz::dataset_view::\llocal_filename">
<polygon fill="white" stroke="black" points="305,-598 305,-628 402,-628 402,-598 305,-598"/>
<text text-anchor="start" x="313" y="-616" font-family="Helvetica,sans-Serif" font-size="10.00">tlz::dataset_view::</text>
<text text-anchor="middle" x="353.5" y="-605" font-family="Helvetica,sans-Serif" font-size="10.00">local_filename</text>
</a>
</g>
</g>
<!-- Node43&#45;&gt;Node44 -->
<g id="edge54" class="edge"><title>Node43&#45;&gt;Node44</title>
<path fill="none" stroke="midnightblue" d="M201.546,-622.886C229.555,-621.052 265.187,-618.718 294.798,-616.779"/>
<polygon fill="midnightblue" stroke="midnightblue" points="295.249,-620.257 304.999,-616.111 294.791,-613.272 295.249,-620.257"/>
</g>
<!-- Node44&#45;&gt;Node27 -->
<g id="edge55" class="edge"><title>Node44&#45;&gt;Node27</title>
<path fill="none" stroke="midnightblue" d="M402.249,-607.05C424.363,-604.398 451,-601.35 475,-599 549.782,-591.679 637.299,-585.173 686.736,-581.687"/>
<polygon fill="midnightblue" stroke="midnightblue" points="687.252,-585.16 696.983,-580.97 686.763,-578.177 687.252,-585.16"/>
</g>
<!-- Node45 -->
<g id="node45" class="node"><title>Node45</title>
<g id="a_node45"><a xlink:href="classtlz_1_1dataset__view.html#a4951a6300847e0fed4fecf79d8753b58" target="_top" xlink:title="tlz::dataset_view::\llocal_parameters">
<polygon fill="white" stroke="black" points="490.5,-608 490.5,-638 587.5,-638 587.5,-608 490.5,-608"/>
<text text-anchor="start" x="498.5" y="-626" font-family="Helvetica,sans-Serif" font-size="10.00">tlz::dataset_view::</text>
<text text-anchor="middle" x="539" y="-615" font-family="Helvetica,sans-Serif" font-size="10.00">local_parameters</text>
</a>
</g>
</g>
<!-- Node44&#45;&gt;Node45 -->
<g id="edge56" class="edge"><title>Node44&#45;&gt;Node45</title>
<path fill="none" stroke="midnightblue" d="M402.233,-615.601C426.033,-616.898 455.012,-618.477 480.075,-619.843"/>
<polygon fill="midnightblue" stroke="midnightblue" points="480.011,-623.345 490.187,-620.394 480.392,-616.355 480.011,-623.345"/>
</g>
<!-- Node45&#45;&gt;Node25 -->
<g id="edge57" class="edge"><title>Node45&#45;&gt;Node25</title>
<path fill="none" stroke="midnightblue" d="M587.9,-623C608.902,-623 633.954,-623 656.919,-623"/>
<polygon fill="midnightblue" stroke="midnightblue" points="656.957,-626.5 666.957,-623 656.957,-619.5 656.957,-626.5"/>
</g>
<!-- Node48 -->
<g id="node48" class="node"><title>Node48</title>
<g id="a_node48"><a xlink:href="namespacetlz.html#ac822758bd15e79a45a9529097026c9bc" target="_top" xlink:title="tlz::random_color">
<polygon fill="white" stroke="black" points="307.5,-76.5 307.5,-95.5 399.5,-95.5 399.5,-76.5 307.5,-76.5"/>
<text text-anchor="middle" x="353.5" y="-83.5" font-family="Helvetica,sans-Serif" font-size="10.00">tlz::random_color</text>
</a>
</g>
</g>
<!-- Node47&#45;&gt;Node48 -->
<g id="edge60" class="edge"><title>Node47&#45;&gt;Node48</title>
<path fill="none" stroke="midnightblue" d="M206.673,-58.0835C234.6,-63.4296 268.888,-69.9938 297.199,-75.4134"/>
<polygon fill="midnightblue" stroke="midnightblue" points="296.856,-78.9113 307.336,-77.354 298.173,-72.0361 296.856,-78.9113"/>
</g>
<!-- Node49 -->
<g id="node49" class="node"><title>Node49</title>
<g id="a_node49"><a xlink:href="namespacetlz.html#ae5932564ec9a5798fa5dbfdd1ed411a1" target="_top" xlink:title="tlz::string_hash">
<polygon fill="white" stroke="black" points="312,-38.5 312,-57.5 395,-57.5 395,-38.5 312,-38.5"/>
<text text-anchor="middle" x="353.5" y="-45.5" font-family="Helvetica,sans-Serif" font-size="10.00">tlz::string_hash</text>
</a>
</g>
</g>
<!-- Node47&#45;&gt;Node49 -->
<g id="edge61" class="edge"><title>Node47&#45;&gt;Node49</title>
<path fill="none" stroke="midnightblue" d="M206.673,-48C236.032,-48 272.422,-48 301.506,-48"/>
<polygon fill="midnightblue" stroke="midnightblue" points="301.864,-51.5001 311.864,-48 301.864,-44.5001 301.864,-51.5001"/>
</g>
<!-- Node50 -->
<g id="node50" class="node"><title>Node50</title>
<g id="a_node50"><a xlink:href="namespacetlz.html#a6c23bd1f5f2f91d3c3af2c32bfe32065" target="_top" xlink:title="tlz::cv_aa_circle">
<polygon fill="white" stroke="black" points="309.5,-0.5 309.5,-19.5 397.5,-19.5 397.5,-0.5 309.5,-0.5"/>
<text text-anchor="middle" x="353.5" y="-7.5" font-family="Helvetica,sans-Serif" font-size="10.00">tlz::cv_aa_circle</text>
</a>
</g>
</g>
<!-- Node47&#45;&gt;Node50 -->
<g id="edge62" class="edge"><title>Node47&#45;&gt;Node50</title>
<path fill="none" stroke="midnightblue" d="M206.673,-37.9165C235.338,-32.4289 270.707,-25.658 299.434,-20.1588"/>
<polygon fill="midnightblue" stroke="midnightblue" points="300.132,-23.5887 309.296,-18.2709 298.816,-16.7136 300.132,-23.5887"/>
</g>
</g>
</svg>
