<?xml version="1.0" encoding="UTF-8" standalone="no"?>
<!DOCTYPE svg PUBLIC "-//W3C//DTD SVG 1.1//EN"
 "http://www.w3.org/Graphics/SVG/1.1/DTD/svg11.dtd">
<!-- Generated by graphviz version 2.38.0 (20140413.2041)
 -->
<!-- Title: load_image Pages: 1 -->
<svg width="665pt" height="256pt"
 viewBox="0.00 0.00 665.00 256.00" xmlns="http://www.w3.org/2000/svg" xmlns:xlink="http://www.w3.org/1999/xlink">
<g id="graph0" class="graph" transform="scale(1 1) rotate(0) translate(4 252)">
<title>load_image</title>
<polygon fill="white" stroke="none" points="-4,4 -4,-252 661,-252 661,4 -4,4"/>
<!-- Node1 -->
<g id="node1" class="node"><title>Node1</title>
<polygon fill="#bfbfbf" stroke="black" points="0,-95.5 0,-114.5 66,-114.5 66,-95.5 0,-95.5"/>
<text text-anchor="middle" x="33" y="-102.5" font-family="Helvetica,sans-Serif" font-size="10.00">load_image</text>
</g>
<!-- Node2 -->
<g id="node2" class="node"><title>Node2</title>
<g id="a_node2"><a xlink:href="classtlz_1_1dataset__group.html#aa0c9157fd56b01adebcecdcdd98f9e3f" target="_top" xlink:title="tlz::dataset_group\l::view">
<polygon fill="white" stroke="black" points="265,-181 265,-211 360,-211 360,-181 265,-181"/>
<text text-anchor="start" x="273" y="-199" font-family="Helvetica,sans-Serif" font-size="10.00">tlz::dataset_group</text>
<text text-anchor="middle" x="312.5" y="-188" font-family="Helvetica,sans-Serif" font-size="10.00">::view</text>
</a>
</g>
</g>
<!-- Node1&#45;&gt;Node2 -->
<g id="edge1" class="edge"><title>Node1&#45;&gt;Node2</title>
<path fill="none" stroke="midnightblue" d="M40.5385,-114.957C51.2917,-130.396 74.3034,-159.711 102,-173 149.949,-196.007 210.984,-200.303 254.789,-199.718"/>
<polygon fill="midnightblue" stroke="midnightblue" points="255.057,-203.213 264.977,-199.491 254.901,-196.215 255.057,-203.213"/>
</g>
<!-- Node8 -->
<g id="node8" class="node"><title>Node8</title>
<g id="a_node8"><a xlink:href="classtlz_1_1dataset__view.html#af3c734eaed33af07993255db63d3fc54" target="_top" xlink:title="tlz::dataset_view::\limage_filename">
<polygon fill="white" stroke="black" points="113,-134 113,-164 210,-164 210,-134 113,-134"/>
<text text-anchor="start" x="121" y="-152" font-family="Helvetica,sans-Serif" font-size="10.00">tlz::dataset_view::</text>
<text text-anchor="middle" x="161.5" y="-141" font-family="Helvetica,sans-Serif" font-size="10.00">image_filename</text>
</a>
</g>
</g>
<!-- Node1&#45;&gt;Node8 -->
<g id="edge7" class="edge"><title>Node1&#45;&gt;Node8</title>
<path fill="none" stroke="midnightblue" d="M61.4486,-114.547C74.928,-119.236 91.6421,-125.049 107.478,-130.557"/>
<polygon fill="midnightblue" stroke="midnightblue" points="106.592,-133.955 117.187,-133.935 108.892,-127.344 106.592,-133.955"/>
</g>
<!-- Node12 -->
<g id="node12" class="node"><title>Node12</title>
<g id="a_node12"><a xlink:href="namespacetlz.html#abb019466ea9f56c0dab27e893d891837" target="_top" xlink:title="tlz::file_exists">
<polygon fill="white" stroke="black" points="123,-95.5 123,-114.5 200,-114.5 200,-95.5 123,-95.5"/>
<text text-anchor="middle" x="161.5" y="-102.5" font-family="Helvetica,sans-Serif" font-size="10.00">tlz::file_exists</text>
</a>
</g>
</g>
<!-- Node1&#45;&gt;Node12 -->
<g id="edge13" class="edge"><title>Node1&#45;&gt;Node12</title>
<path fill="none" stroke="midnightblue" d="M66.2486,-105C80.2848,-105 97.0272,-105 112.48,-105"/>
<polygon fill="midnightblue" stroke="midnightblue" points="112.923,-108.5 122.923,-105 112.923,-101.5 112.923,-108.5"/>
</g>
<!-- Node13 -->
<g id="node13" class="node"><title>Node13</title>
<g id="a_node13"><a xlink:href="namespacetlz.html#afbf92393383d3dde6ffd98700ea014f1" target="_top" xlink:title="tlz::load_texture">
<polygon fill="white" stroke="black" points="118.5,-57.5 118.5,-76.5 204.5,-76.5 204.5,-57.5 118.5,-57.5"/>
<text text-anchor="middle" x="161.5" y="-64.5" font-family="Helvetica,sans-Serif" font-size="10.00">tlz::load_texture</text>
</a>
</g>
</g>
<!-- Node1&#45;&gt;Node13 -->
<g id="edge14" class="edge"><title>Node1&#45;&gt;Node13</title>
<path fill="none" stroke="midnightblue" d="M65.9213,-95.411C81.9516,-90.5956 101.574,-84.7012 118.782,-79.532"/>
<polygon fill="midnightblue" stroke="midnightblue" points="120.019,-82.815 128.589,-76.5859 118.005,-76.1109 120.019,-82.815"/>
</g>
<!-- Node14 -->
<g id="node14" class="node"><title>Node14</title>
<g id="a_node14"><a xlink:href="namespacetlz.html#aadab29bdc80bc1d0ad6d3784dd427992" target="_top" xlink:title="tlz::encode_view_index">
<polygon fill="white" stroke="black" points="102,-19.5 102,-38.5 221,-38.5 221,-19.5 102,-19.5"/>
<text text-anchor="middle" x="161.5" y="-26.5" font-family="Helvetica,sans-Serif" font-size="10.00">tlz::encode_view_index</text>
</a>
</g>
</g>
<!-- Node1&#45;&gt;Node14 -->
<g id="edge15" class="edge"><title>Node1&#45;&gt;Node14</title>
<path fill="none" stroke="midnightblue" d="M43.2438,-95.1994C55.5648,-82.6526 78.5528,-60.9874 102,-48 105.888,-45.8463 110.059,-43.8906 114.317,-42.1255"/>
<polygon fill="midnightblue" stroke="midnightblue" points="115.596,-45.3839 123.703,-38.563 113.112,-38.8394 115.596,-45.3839"/>
</g>
<!-- Node3 -->
<g id="node3" class="node"><title>Node3</title>
<g id="a_node3"><a xlink:href="classtlz_1_1dataset.html#acbdb309b8dd22f687fff41f6e9ac6ed4" target="_top" xlink:title="tlz::dataset::view">
<polygon fill="white" stroke="black" points="406.5,-228.5 406.5,-247.5 498.5,-247.5 498.5,-228.5 406.5,-228.5"/>
<text text-anchor="middle" x="452.5" y="-235.5" font-family="Helvetica,sans-Serif" font-size="10.00">tlz::dataset::view</text>
</a>
</g>
</g>
<!-- Node2&#45;&gt;Node3 -->
<g id="edge2" class="edge"><title>Node2&#45;&gt;Node3</title>
<path fill="none" stroke="midnightblue" d="M360.221,-210.219C376.384,-215.139 394.376,-220.614 410.084,-225.395"/>
<polygon fill="midnightblue" stroke="midnightblue" points="409.449,-228.86 420.035,-228.424 411.487,-222.164 409.449,-228.86"/>
</g>
<!-- Node4 -->
<g id="node4" class="node"><title>Node4</title>
<g id="a_node4"><a xlink:href="classtlz_1_1dataset__view.html#a1ec7ba844d313cddc558874fe85246a8" target="_top" xlink:title="tlz::dataset_view::\lgroup_view">
<polygon fill="white" stroke="black" points="404,-179 404,-209 501,-209 501,-179 404,-179"/>
<text text-anchor="start" x="412" y="-197" font-family="Helvetica,sans-Serif" font-size="10.00">tlz::dataset_view::</text>
<text text-anchor="middle" x="452.5" y="-186" font-family="Helvetica,sans-Serif" font-size="10.00">group_view</text>
</a>
</g>
</g>
<!-- Node2&#45;&gt;Node4 -->
<g id="edge3" class="edge"><title>Node2&#45;&gt;Node4</title>
<path fill="none" stroke="midnightblue" d="M360.221,-195.323C370.996,-195.167 382.585,-194.999 393.767,-194.837"/>
<polygon fill="midnightblue" stroke="midnightblue" points="393.939,-198.335 403.887,-194.69 393.838,-191.335 393.939,-198.335"/>
</g>
<!-- Node5 -->
<g id="node5" class="node"><title>Node5</title>
<g id="a_node5"><a xlink:href="classtlz_1_1dataset__view.html#a31a73cf70078f270c9045bc0babadee2" target="_top" xlink:title="tlz::dataset_view::\ldataset_view">
<polygon fill="white" stroke="black" points="548.5,-179 548.5,-209 645.5,-209 645.5,-179 548.5,-179"/>
<text text-anchor="start" x="556.5" y="-197" font-family="Helvetica,sans-Serif" font-size="10.00">tlz::dataset_view::</text>
<text text-anchor="middle" x="597" y="-186" font-family="Helvetica,sans-Serif" font-size="10.00">dataset_view</text>
</a>
</g>
</g>
<!-- Node4&#45;&gt;Node5 -->
<g id="edge4" class="edge"><title>Node4&#45;&gt;Node5</title>
<path fill="none" stroke="midnightblue" d="M501.347,-194C513.096,-194 525.8,-194 537.971,-194"/>
<polygon fill="midnightblue" stroke="midnightblue" points="538.037,-197.5 548.037,-194 538.037,-190.5 538.037,-197.5"/>
</g>
<!-- Node6 -->
<g id="node6" class="node"><title>Node6</title>
<g id="a_node6"><a xlink:href="namespacetlz.html#a252af14b9b4ac6502d3e9c5dd8dc90b8" target="_top" xlink:title="tlz::has">
<polygon fill="white" stroke="black" points="572.5,-140.5 572.5,-159.5 621.5,-159.5 621.5,-140.5 572.5,-140.5"/>
<text text-anchor="middle" x="597" y="-147.5" font-family="Helvetica,sans-Serif" font-size="10.00">tlz::has</text>
</a>
</g>
</g>
<!-- Node4&#45;&gt;Node6 -->
<g id="edge5" class="edge"><title>Node4&#45;&gt;Node6</title>
<path fill="none" stroke="midnightblue" d="M501.347,-179.226C521.54,-172.991 544.555,-165.885 562.834,-160.241"/>
<polygon fill="midnightblue" stroke="midnightblue" points="563.932,-163.565 572.454,-157.27 561.867,-156.876 563.932,-163.565"/>
</g>
<!-- Node7 -->
<g id="node7" class="node"><title>Node7</title>
<g id="a_node7"><a xlink:href="classtlz_1_1dataset.html#ab14f5b1f18c0ab423c18270b7ca46bd2" target="_top" xlink:title="tlz::dataset::parameters">
<polygon fill="white" stroke="black" points="537,-99.5 537,-118.5 657,-118.5 657,-99.5 537,-99.5"/>
<text text-anchor="middle" x="597" y="-106.5" font-family="Helvetica,sans-Serif" font-size="10.00">tlz::dataset::parameters</text>
</a>
</g>
</g>
<!-- Node4&#45;&gt;Node7 -->
<g id="edge6" class="edge"><title>Node4&#45;&gt;Node7</title>
<path fill="none" stroke="midnightblue" d="M485.557,-178.985C490.901,-175.966 496.246,-172.602 501,-169 519.542,-154.949 517.6,-143.84 537,-131 541.906,-127.753 547.356,-124.899 552.905,-122.417"/>
<polygon fill="midnightblue" stroke="midnightblue" points="554.332,-125.614 562.258,-118.585 551.678,-119.137 554.332,-125.614"/>
</g>
<!-- Node9 -->
<g id="node9" class="node"><title>Node9</title>
<g id="a_node9"><a xlink:href="classtlz_1_1dataset__view.html#a327a842dc304656596d65b9bbf52fb1c" target="_top" xlink:title="tlz::dataset_view::\llocal_filename">
<polygon fill="white" stroke="black" points="264,-132 264,-162 361,-162 361,-132 264,-132"/>
<text text-anchor="start" x="272" y="-150" font-family="Helvetica,sans-Serif" font-size="10.00">tlz::dataset_view::</text>
<text text-anchor="middle" x="312.5" y="-139" font-family="Helvetica,sans-Serif" font-size="10.00">local_filename</text>
</a>
</g>
</g>
<!-- Node8&#45;&gt;Node9 -->
<g id="edge8" class="edge"><title>Node8&#45;&gt;Node9</title>
<path fill="none" stroke="midnightblue" d="M210.054,-148.362C223.898,-148.176 239.176,-147.971 253.583,-147.777"/>
<polygon fill="midnightblue" stroke="midnightblue" points="253.934,-151.273 263.887,-147.639 253.84,-144.274 253.934,-151.273"/>
</g>
<!-- Node10 -->
<g id="node10" class="node"><title>Node10</title>
<g id="a_node10"><a xlink:href="namespacetlz.html#add846dc50c32dfb356cb1a7ac11d37ac" target="_top" xlink:title="tlz::get_or">
<polygon fill="white" stroke="black" points="422.5,-140.5 422.5,-159.5 482.5,-159.5 482.5,-140.5 422.5,-140.5"/>
<text text-anchor="middle" x="452.5" y="-147.5" font-family="Helvetica,sans-Serif" font-size="10.00">tlz::get_or</text>
</a>
</g>
</g>
<!-- Node9&#45;&gt;Node10 -->
<g id="edge9" class="edge"><title>Node9&#45;&gt;Node10</title>
<path fill="none" stroke="midnightblue" d="M361.378,-148.041C377.824,-148.398 396.04,-148.794 411.767,-149.136"/>
<polygon fill="midnightblue" stroke="midnightblue" points="412.131,-152.645 422.205,-149.363 412.283,-145.647 412.131,-152.645"/>
</g>
<!-- Node11 -->
<g id="node11" class="node"><title>Node11</title>
<g id="a_node11"><a xlink:href="classtlz_1_1dataset__view.html#a4951a6300847e0fed4fecf79d8753b58" target="_top" xlink:title="tlz::dataset_view::\llocal_parameters">
<polygon fill="white" stroke="black" points="404,-91 404,-121 501,-121 501,-91 404,-91"/>
<text text-anchor="start" x="412" y="-109" font-family="Helvetica,sans-Serif" font-size="10.00">tlz::dataset_view::</text>
<text text-anchor="middle" x="452.5" y="-98" font-family="Helvetica,sans-Serif" font-size="10.00">local_parameters</text>
</a>
</g>
</g>
<!-- Node9&#45;&gt;Node11 -->
<g id="edge11" class="edge"><title>Node9&#45;&gt;Node11</title>
<path fill="none" stroke="midnightblue" d="M361.378,-132.775C371.868,-129.659 383.079,-126.328 393.904,-123.112"/>
<polygon fill="midnightblue" stroke="midnightblue" points="395.117,-126.403 403.706,-120.2 393.124,-119.693 395.117,-126.403"/>
</g>
<!-- Node10&#45;&gt;Node6 -->
<g id="edge10" class="edge"><title>Node10&#45;&gt;Node6</title>
<path fill="none" stroke="midnightblue" d="M482.681,-150C505.662,-150 537.741,-150 561.904,-150"/>
<polygon fill="midnightblue" stroke="midnightblue" points="562.056,-153.5 572.056,-150 562.056,-146.5 562.056,-153.5"/>
</g>
<!-- Node11&#45;&gt;Node7 -->
<g id="edge12" class="edge"><title>Node11&#45;&gt;Node7</title>
<path fill="none" stroke="midnightblue" d="M501.347,-107.007C509.541,-107.18 518.2,-107.362 526.818,-107.544"/>
<polygon fill="midnightblue" stroke="midnightblue" points="526.815,-111.044 536.886,-107.756 526.962,-104.046 526.815,-111.044"/>
</g>
<!-- Node15 -->
<g id="node15" class="node"><title>Node15</title>
<g id="a_node15"><a xlink:href="namespacetlz.html#a8e4f8c8c2927bc4350de13bfa0f8f9e1" target="_top" xlink:title="tlz::to_string">
<polygon fill="white" stroke="black" points="277,-38.5 277,-57.5 348,-57.5 348,-38.5 277,-38.5"/>
<text text-anchor="middle" x="312.5" y="-45.5" font-family="Helvetica,sans-Serif" font-size="10.00">tlz::to_string</text>
</a>
</g>
</g>
<!-- Node14&#45;&gt;Node15 -->
<g id="edge16" class="edge"><title>Node14&#45;&gt;Node15</title>
<path fill="none" stroke="midnightblue" d="M221.389,-36.5093C236.444,-38.4291 252.389,-40.4624 266.614,-42.2763"/>
<polygon fill="midnightblue" stroke="midnightblue" points="266.268,-45.7605 276.631,-43.5536 267.154,-38.8167 266.268,-45.7605"/>
</g>
<!-- Node16 -->
<g id="node16" class="node"><title>Node16</title>
<g id="a_node16"><a xlink:href="structtlz_1_1view__index.html#a20518c30015d833cdb2a69b524886b96" target="_top" xlink:title="tlz::view_index::is_2d">
<polygon fill="white" stroke="black" points="257,-0.5 257,-19.5 368,-19.5 368,-0.5 257,-0.5"/>
<text text-anchor="middle" x="312.5" y="-7.5" font-family="Helvetica,sans-Serif" font-size="10.00">tlz::view_index::is_2d</text>
</a>
</g>
</g>
<!-- Node14&#45;&gt;Node16 -->
<g id="edge17" class="edge"><title>Node14&#45;&gt;Node16</title>
<path fill="none" stroke="midnightblue" d="M221.389,-21.4907C229.716,-20.4288 238.316,-19.3321 246.747,-18.2571"/>
<polygon fill="midnightblue" stroke="midnightblue" points="247.44,-21.6972 256.917,-16.9603 246.554,-14.7534 247.44,-21.6972"/>
</g>
</g>
</svg>
