<?xml version="1.0" encoding="UTF-8" standalone="no"?>
<!DOCTYPE svg PUBLIC "-//W3C//DTD SVG 1.1//EN"
 "http://www.w3.org/Graphics/SVG/1.1/DTD/svg11.dtd">
<!-- Generated by graphviz version 2.38.0 (20140413.2041)
 -->
<!-- Title: main Pages: 1 -->
<svg width="1261pt" height="589pt"
 viewBox="0.00 0.00 1261.00 589.00" xmlns="http://www.w3.org/2000/svg" xmlns:xlink="http://www.w3.org/1999/xlink">
<g id="graph0" class="graph" transform="scale(1 1) rotate(0) translate(4 585)">
<title>main</title>
<polygon fill="white" stroke="none" points="-4,4 -4,-585 1257,-585 1257,4 -4,4"/>
<!-- Node1 -->
<g id="node1" class="node"><title>Node1</title>
<polygon fill="#bfbfbf" stroke="black" points="0,-194.5 0,-213.5 38,-213.5 38,-194.5 0,-194.5"/>
<text text-anchor="middle" x="19" y="-201.5" font-family="Helvetica,sans-Serif" font-size="10.00">main</text>
</g>
<!-- Node2 -->
<g id="node2" class="node"><title>Node2</title>
<g id="a_node2"><a xlink:href="namespacetlz.html#a3c03f5d9d6261ec2909938822fc47f8a" target="_top" xlink:title="tlz::get_args">
<polygon fill="white" stroke="black" points="117.5,-384.5 117.5,-403.5 188.5,-403.5 188.5,-384.5 117.5,-384.5"/>
<text text-anchor="middle" x="153" y="-391.5" font-family="Helvetica,sans-Serif" font-size="10.00">tlz::get_args</text>
</a>
</g>
</g>
<!-- Node1&#45;&gt;Node2 -->
<g id="edge1" class="edge"><title>Node1&#45;&gt;Node2</title>
<path fill="none" stroke="midnightblue" d="M20.2102,-213.829C21.3612,-242.254 28.6393,-325.36 74,-370 82.9938,-378.851 95.1704,-384.448 107.227,-387.985"/>
<polygon fill="midnightblue" stroke="midnightblue" points="106.702,-391.461 117.253,-390.496 108.403,-384.671 106.702,-391.461"/>
</g>
<!-- Node3 -->
<g id="node3" class="node"><title>Node3</title>
<g id="a_node3"><a xlink:href="namespacetlz.html#a11d8bb3ca89f4957bfde1cd0d5429a16" target="_top" xlink:title="tlz::image_correspondences_arg">
<polygon fill="white" stroke="black" points="74,-270.5 74,-289.5 232,-289.5 232,-270.5 74,-270.5"/>
<text text-anchor="middle" x="153" y="-277.5" font-family="Helvetica,sans-Serif" font-size="10.00">tlz::image_correspondences_arg</text>
</a>
</g>
</g>
<!-- Node1&#45;&gt;Node3 -->
<g id="edge2" class="edge"><title>Node1&#45;&gt;Node3</title>
<path fill="none" stroke="midnightblue" d="M27.7342,-213.859C37.3799,-225.522 54.9381,-244.767 74,-256 81.6271,-260.495 90.1778,-264.225 98.7468,-267.296"/>
<polygon fill="midnightblue" stroke="midnightblue" points="97.7877,-270.666 108.381,-270.49 99.9901,-264.021 97.7877,-270.666"/>
</g>
<!-- Node21 -->
<g id="node21" class="node"><title>Node21</title>
<g id="a_node21"><a xlink:href="namespacetlz.html#a170805c7a8ede64a93e0ee23196e5b7c" target="_top" xlink:title="tlz::intrinsics_arg">
<polygon fill="white" stroke="black" points="107.5,-308.5 107.5,-327.5 198.5,-327.5 198.5,-308.5 107.5,-308.5"/>
<text text-anchor="middle" x="153" y="-315.5" font-family="Helvetica,sans-Serif" font-size="10.00">tlz::intrinsics_arg</text>
</a>
</g>
</g>
<!-- Node1&#45;&gt;Node21 -->
<g id="edge24" class="edge"><title>Node1&#45;&gt;Node21</title>
<path fill="none" stroke="midnightblue" d="M22.6171,-213.518C28.4329,-232.814 44.3184,-276.603 74,-299 80.877,-304.189 88.9805,-307.98 97.3172,-310.746"/>
<polygon fill="midnightblue" stroke="midnightblue" points="96.5754,-314.174 107.151,-313.543 98.4908,-307.441 96.5754,-314.174"/>
</g>
<!-- Node25 -->
<g id="node25" class="node"><title>Node25</title>
<g id="a_node25"><a xlink:href="namespacetlz.html#a65770a2c1ff57c5ae6542d4465a3d3f4" target="_top" xlink:title="tlz::out_filename_arg">
<polygon fill="white" stroke="black" points="509.5,-232.5 509.5,-251.5 616.5,-251.5 616.5,-232.5 509.5,-232.5"/>
<text text-anchor="middle" x="563" y="-239.5" font-family="Helvetica,sans-Serif" font-size="10.00">tlz::out_filename_arg</text>
</a>
</g>
</g>
<!-- Node1&#45;&gt;Node25 -->
<g id="edge32" class="edge"><title>Node1&#45;&gt;Node25</title>
<path fill="none" stroke="midnightblue" d="M38.117,-211.906C48.4261,-216.013 61.6997,-220.652 74,-223 224.513,-251.731 405.722,-249.365 499.275,-245.49"/>
<polygon fill="midnightblue" stroke="midnightblue" points="499.581,-248.98 509.42,-245.05 499.277,-241.987 499.581,-248.98"/>
</g>
<!-- Node26 -->
<g id="node26" class="node"><title>Node26</title>
<g id="a_node26"><a xlink:href="cg__rotation__from__depths_8cc.html#a0912195dab0b58960e0b7c70a3272965" target="_top" xlink:title="estimate_xy_rotation">
<polygon fill="white" stroke="black" points="99.5,-194.5 99.5,-213.5 206.5,-213.5 206.5,-194.5 99.5,-194.5"/>
<text text-anchor="middle" x="153" y="-201.5" font-family="Helvetica,sans-Serif" font-size="10.00">estimate_xy_rotation</text>
</a>
</g>
</g>
<!-- Node1&#45;&gt;Node26 -->
<g id="edge34" class="edge"><title>Node1&#45;&gt;Node26</title>
<path fill="none" stroke="midnightblue" d="M38.0773,-204C51.484,-204 70.6147,-204 89.3801,-204"/>
<polygon fill="midnightblue" stroke="midnightblue" points="89.4271,-207.5 99.4271,-204 89.4271,-200.5 89.4271,-207.5"/>
</g>
<!-- Node28 -->
<g id="node28" class="node"><title>Node28</title>
<g id="a_node28"><a xlink:href="cg__rotation__from__depths_8cc.html#a5b57319a2fb3750b839043a88dfee1c5" target="_top" xlink:title="null_vec3">
<polygon fill="white" stroke="black" points="324.5,-156.5 324.5,-175.5 382.5,-175.5 382.5,-156.5 324.5,-156.5"/>
<text text-anchor="middle" x="353.5" y="-163.5" font-family="Helvetica,sans-Serif" font-size="10.00">null_vec3</text>
</a>
</g>
</g>
<!-- Node1&#45;&gt;Node28 -->
<g id="edge37" class="edge"><title>Node1&#45;&gt;Node28</title>
<path fill="none" stroke="midnightblue" d="M38.1446,-196.233C48.4623,-192.17 61.7353,-187.527 74,-185 158.548,-167.578 260.272,-165.202 314.336,-165.368"/>
<polygon fill="midnightblue" stroke="midnightblue" points="314.473,-168.869 324.494,-165.432 314.517,-161.869 314.473,-168.869"/>
</g>
<!-- Node29 -->
<g id="node29" class="node"><title>Node29</title>
<g id="a_node29"><a xlink:href="cg__rotation__from__depths_8cc.html#a49cc238fbfcdca86fd6d95ab89203f77" target="_top" xlink:title="xy_rotation_matrix">
<polygon fill="white" stroke="black" points="104.5,-118.5 104.5,-137.5 201.5,-137.5 201.5,-118.5 104.5,-118.5"/>
<text text-anchor="middle" x="153" y="-125.5" font-family="Helvetica,sans-Serif" font-size="10.00">xy_rotation_matrix</text>
</a>
</g>
</g>
<!-- Node1&#45;&gt;Node29 -->
<g id="edge38" class="edge"><title>Node1&#45;&gt;Node29</title>
<path fill="none" stroke="midnightblue" d="M27.7342,-194.141C37.3799,-182.478 54.9381,-163.233 74,-152 81.6271,-147.505 90.1778,-143.775 98.7468,-140.704"/>
<polygon fill="midnightblue" stroke="midnightblue" points="99.9901,-143.979 108.381,-137.51 97.7877,-137.334 99.9901,-143.979"/>
</g>
<!-- Node30 -->
<g id="node30" class="node"><title>Node30</title>
<g id="a_node30"><a xlink:href="cg__rotation__from__depths_8cc.html#a3a7ae08da1a13219a928f046ead06a1e" target="_top" xlink:title="additional_z_rotation">
<polygon fill="white" stroke="black" points="100,-80.5 100,-99.5 206,-99.5 206,-80.5 100,-80.5"/>
<text text-anchor="middle" x="153" y="-87.5" font-family="Helvetica,sans-Serif" font-size="10.00">additional_z_rotation</text>
</a>
</g>
</g>
<!-- Node1&#45;&gt;Node30 -->
<g id="edge39" class="edge"><title>Node1&#45;&gt;Node30</title>
<path fill="none" stroke="midnightblue" d="M22.6171,-194.482C28.4329,-175.186 44.3184,-131.397 74,-109 78.8466,-105.343 84.3023,-102.38 90.0196,-99.9815"/>
<polygon fill="midnightblue" stroke="midnightblue" points="91.6014,-103.132 99.8268,-96.4542 89.2323,-96.5452 91.6014,-103.132"/>
</g>
<!-- Node31 -->
<g id="node31" class="node"><title>Node31</title>
<g id="a_node31"><a xlink:href="namespacetlz.html#ad15709c59127deda12dbfd6bc4518a07" target="_top" xlink:title="tlz::to_euler">
<polygon fill="white" stroke="black" points="119,-42.5 119,-61.5 187,-61.5 187,-42.5 119,-42.5"/>
<text text-anchor="middle" x="153" y="-49.5" font-family="Helvetica,sans-Serif" font-size="10.00">tlz::to_euler</text>
</a>
</g>
</g>
<!-- Node1&#45;&gt;Node31 -->
<g id="edge40" class="edge"><title>Node1&#45;&gt;Node31</title>
<path fill="none" stroke="midnightblue" d="M20.9707,-194.242C23.9627,-169.586 35.3245,-104.379 74,-71 83.6446,-62.6762 96.346,-57.8742 108.692,-55.1403"/>
<polygon fill="midnightblue" stroke="midnightblue" points="109.684,-58.5179 118.904,-53.2983 108.441,-51.6291 109.684,-58.5179"/>
</g>
<!-- Node33 -->
<g id="node33" class="node"><title>Node33</title>
<g id="a_node33"><a xlink:href="namespacetlz.html#ab98de0b10e3e079dee189f81adc638a0" target="_top" xlink:title="tlz::export_json_file">
<polygon fill="white" stroke="black" points="303,-510.5 303,-529.5 404,-529.5 404,-510.5 303,-510.5"/>
<text text-anchor="middle" x="353.5" y="-517.5" font-family="Helvetica,sans-Serif" font-size="10.00">tlz::export_json_file</text>
</a>
</g>
</g>
<!-- Node1&#45;&gt;Node33 -->
<g id="edge42" class="edge"><title>Node1&#45;&gt;Node33</title>
<path fill="none" stroke="midnightblue" d="M20.9649,-213.765C23.9433,-238.437 35.2759,-303.677 74,-337 128.746,-384.11 179.59,-325.305 232,-375 272.714,-413.606 228.08,-456.574 268,-496 275.08,-502.992 284.04,-507.979 293.463,-511.529"/>
<polygon fill="midnightblue" stroke="midnightblue" points="292.394,-514.862 302.986,-514.621 294.556,-508.204 292.394,-514.862"/>
</g>
<!-- Node34 -->
<g id="node34" class="node"><title>Node34</title>
<g id="a_node34"><a xlink:href="namespacetlz.html#acf7ca4ee1b750cf31a40170bea887d46" target="_top" xlink:title="tlz::encode_mat">
<polygon fill="white" stroke="black" points="110,-3.5 110,-22.5 196,-22.5 196,-3.5 110,-3.5"/>
<text text-anchor="middle" x="153" y="-10.5" font-family="Helvetica,sans-Serif" font-size="10.00">tlz::encode_mat</text>
</a>
</g>
</g>
<!-- Node1&#45;&gt;Node34 -->
<g id="edge44" class="edge"><title>Node1&#45;&gt;Node34</title>
<path fill="none" stroke="midnightblue" d="M19.9968,-194.192C20.544,-165.042 26.2935,-78.1579 74,-33 81.1584,-26.224 90.2905,-21.6634 99.7661,-18.6118"/>
<polygon fill="midnightblue" stroke="midnightblue" points="100.945,-21.9195 109.697,-15.9484 99.1313,-15.1585 100.945,-21.9195"/>
</g>
<!-- Node4 -->
<g id="node4" class="node"><title>Node4</title>
<g id="a_node4"><a xlink:href="namespacetlz.html#ad75d99f2e1623434fbadee66f3ff29a1" target="_top" xlink:title="tlz::import_image_correspondences">
<polygon fill="white" stroke="black" points="268,-352.5 268,-371.5 439,-371.5 439,-352.5 268,-352.5"/>
<text text-anchor="middle" x="353.5" y="-359.5" font-family="Helvetica,sans-Serif" font-size="10.00">tlz::import_image_correspondences</text>
</a>
</g>
</g>
<!-- Node3&#45;&gt;Node4 -->
<g id="edge3" class="edge"><title>Node3&#45;&gt;Node4</title>
<path fill="none" stroke="midnightblue" d="M210.483,-289.632C217.987,-292.083 225.369,-295.153 232,-299 252.123,-310.674 248.167,-324.839 268,-337 276.131,-341.986 285.313,-346.026 294.552,-349.285"/>
<polygon fill="midnightblue" stroke="midnightblue" points="293.567,-352.645 304.159,-352.406 295.73,-345.987 293.567,-352.645"/>
</g>
<!-- Node14 -->
<g id="node14" class="node"><title>Node14</title>
<g id="a_node14"><a xlink:href="namespacetlz.html#a634de7ca11e100e4a118dffe80376a75" target="_top" xlink:title="tlz::in_filename_arg">
<polygon fill="white" stroke="black" points="512.5,-270.5 512.5,-289.5 613.5,-289.5 613.5,-270.5 512.5,-270.5"/>
<text text-anchor="middle" x="563" y="-277.5" font-family="Helvetica,sans-Serif" font-size="10.00">tlz::in_filename_arg</text>
</a>
</g>
</g>
<!-- Node3&#45;&gt;Node14 -->
<g id="edge15" class="edge"><title>Node3&#45;&gt;Node14</title>
<path fill="none" stroke="midnightblue" d="M232.184,-280C310.916,-280 430.67,-280 502.147,-280"/>
<polygon fill="midnightblue" stroke="midnightblue" points="502.332,-283.5 512.332,-280 502.332,-276.5 502.332,-283.5"/>
</g>
<!-- Node5 -->
<g id="node5" class="node"><title>Node5</title>
<g id="a_node5"><a xlink:href="namespacetlz.html#ae11c827ac9e581f9d2f98c39aab3750d" target="_top" xlink:title="tlz::file_name_extension">
<polygon fill="white" stroke="black" points="502,-434.5 502,-453.5 624,-453.5 624,-434.5 502,-434.5"/>
<text text-anchor="middle" x="563" y="-441.5" font-family="Helvetica,sans-Serif" font-size="10.00">tlz::file_name_extension</text>
</a>
</g>
</g>
<!-- Node4&#45;&gt;Node5 -->
<g id="edge4" class="edge"><title>Node4&#45;&gt;Node5</title>
<path fill="none" stroke="midnightblue" d="M369.495,-371.525C391.712,-385.241 435.06,-410.494 475,-425 482.254,-427.635 489.988,-429.964 497.738,-432.008"/>
<polygon fill="midnightblue" stroke="midnightblue" points="496.979,-435.426 507.528,-434.444 498.669,-428.633 496.979,-435.426"/>
</g>
<!-- Node6 -->
<g id="node6" class="node"><title>Node6</title>
<g id="a_node6"><a xlink:href="namespacetlz.html#a24915249769d936c24ceb34f50b06104" target="_top" xlink:title="tlz::decode_image_correspondences">
<polygon fill="white" stroke="black" points="475,-396.5 475,-415.5 651,-415.5 651,-396.5 475,-396.5"/>
<text text-anchor="middle" x="563" y="-403.5" font-family="Helvetica,sans-Serif" font-size="10.00">tlz::decode_image_correspondences</text>
</a>
</g>
</g>
<!-- Node4&#45;&gt;Node6 -->
<g id="edge5" class="edge"><title>Node4&#45;&gt;Node6</title>
<path fill="none" stroke="midnightblue" d="M399.524,-371.547C431.066,-378.236 473.406,-387.214 506.955,-394.328"/>
<polygon fill="midnightblue" stroke="midnightblue" points="506.555,-397.821 517.063,-396.471 508.007,-390.973 506.555,-397.821"/>
</g>
<!-- Node12 -->
<g id="node12" class="node"><title>Node12</title>
<g id="a_node12"><a xlink:href="namespacetlz.html#aa1be9362f548fcf9378e1fc9074089c4" target="_top" xlink:title="tlz::import_json_file">
<polygon fill="white" stroke="black" points="512.5,-308.5 512.5,-327.5 613.5,-327.5 613.5,-308.5 512.5,-308.5"/>
<text text-anchor="middle" x="563" y="-315.5" font-family="Helvetica,sans-Serif" font-size="10.00">tlz::import_json_file</text>
</a>
</g>
</g>
<!-- Node4&#45;&gt;Node12 -->
<g id="edge13" class="edge"><title>Node4&#45;&gt;Node12</title>
<path fill="none" stroke="midnightblue" d="M399.524,-352.453C431.066,-345.764 473.406,-336.786 506.955,-329.672"/>
<polygon fill="midnightblue" stroke="midnightblue" points="508.007,-333.027 517.063,-327.529 506.555,-326.179 508.007,-333.027"/>
</g>
<!-- Node13 -->
<g id="node13" class="node"><title>Node13</title>
<g id="a_node13"><a xlink:href="namespacetlz.html#a2ec439452fda5eeb03f60715e50fa96a" target="_top" xlink:title="tlz::import_binary\l_image_correspondences">
<polygon fill="white" stroke="black" points="499,-347 499,-377 627,-377 627,-347 499,-347"/>
<text text-anchor="start" x="507" y="-365" font-family="Helvetica,sans-Serif" font-size="10.00">tlz::import_binary</text>
<text text-anchor="middle" x="563" y="-354" font-family="Helvetica,sans-Serif" font-size="10.00">_image_correspondences</text>
</a>
</g>
</g>
<!-- Node4&#45;&gt;Node13 -->
<g id="edge14" class="edge"><title>Node4&#45;&gt;Node13</title>
<path fill="none" stroke="midnightblue" d="M439.197,-362C455.56,-362 472.578,-362 488.546,-362"/>
<polygon fill="midnightblue" stroke="midnightblue" points="488.87,-365.5 498.87,-362 488.87,-358.5 488.87,-365.5"/>
</g>
<!-- Node7 -->
<g id="node7" class="node"><title>Node7</title>
<g id="a_node7"><a xlink:href="namespacetlz.html#a252af14b9b4ac6502d3e9c5dd8dc90b8" target="_top" xlink:title="tlz::has">
<polygon fill="white" stroke="black" points="1204,-464.5 1204,-483.5 1253,-483.5 1253,-464.5 1204,-464.5"/>
<text text-anchor="middle" x="1228.5" y="-471.5" font-family="Helvetica,sans-Serif" font-size="10.00">tlz::has</text>
</a>
</g>
</g>
<!-- Node6&#45;&gt;Node7 -->
<g id="edge6" class="edge"><title>Node6&#45;&gt;Node7</title>
<path fill="none" stroke="midnightblue" d="M637.51,-396.463C726.734,-386.736 881.459,-375.816 1012,-397 1081.74,-408.318 1158.58,-441.069 1199,-460.014"/>
<polygon fill="midnightblue" stroke="midnightblue" points="1197.7,-463.27 1208.23,-464.399 1200.7,-456.947 1197.7,-463.27"/>
</g>
<!-- Node8 -->
<g id="node8" class="node"><title>Node8</title>
<g id="a_node8"><a xlink:href="namespacetlz.html#ab83b0eb933afca1abe8ccd3470207691" target="_top" xlink:title="tlz::decode_image_correspondence\l_feature">
<polygon fill="white" stroke="black" points="687,-407 687,-437 857,-437 857,-407 687,-407"/>
<text text-anchor="start" x="695" y="-425" font-family="Helvetica,sans-Serif" font-size="10.00">tlz::decode_image_correspondence</text>
<text text-anchor="middle" x="772" y="-414" font-family="Helvetica,sans-Serif" font-size="10.00">_feature</text>
</a>
</g>
</g>
<!-- Node6&#45;&gt;Node8 -->
<g id="edge7" class="edge"><title>Node6&#45;&gt;Node8</title>
<path fill="none" stroke="midnightblue" d="M651.187,-412.739C659.684,-413.396 668.332,-414.064 676.894,-414.726"/>
<polygon fill="midnightblue" stroke="midnightblue" points="676.65,-418.218 686.89,-415.499 677.19,-411.238 676.65,-418.218"/>
</g>
<!-- Node8&#45;&gt;Node7 -->
<g id="edge8" class="edge"><title>Node8&#45;&gt;Node7</title>
<path fill="none" stroke="midnightblue" d="M857.157,-431.629C958.205,-443.19 1122.89,-462.031 1193.55,-470.116"/>
<polygon fill="midnightblue" stroke="midnightblue" points="1193.33,-473.614 1203.67,-471.273 1194.13,-466.659 1193.33,-473.614"/>
</g>
<!-- Node9 -->
<g id="node9" class="node"><title>Node9</title>
<g id="a_node9"><a xlink:href="namespacetlz.html#a74e8454f97dace7cffb1afdb6d3ca87b" target="_top" xlink:title="tlz::decode_view_index">
<polygon fill="white" stroke="black" points="893,-406.5 893,-425.5 1012,-425.5 1012,-406.5 893,-406.5"/>
<text text-anchor="middle" x="952.5" y="-413.5" font-family="Helvetica,sans-Serif" font-size="10.00">tlz::decode_view_index</text>
</a>
</g>
</g>
<!-- Node8&#45;&gt;Node9 -->
<g id="edge9" class="edge"><title>Node8&#45;&gt;Node9</title>
<path fill="none" stroke="midnightblue" d="M857.023,-419.176C865.638,-418.886 874.317,-418.594 882.739,-418.311"/>
<polygon fill="midnightblue" stroke="midnightblue" points="882.986,-421.805 892.863,-417.971 882.751,-414.809 882.986,-421.805"/>
</g>
<!-- Node10 -->
<g id="node10" class="node"><title>Node10</title>
<g id="a_node10"><a xlink:href="namespacetlz.html#ae8f9175a86bbe49ac0f4485d5db3080b" target="_top" xlink:title="tlz::decode_feature\l_point">
<polygon fill="white" stroke="black" points="902.5,-483 902.5,-513 1002.5,-513 1002.5,-483 902.5,-483"/>
<text text-anchor="start" x="910.5" y="-501" font-family="Helvetica,sans-Serif" font-size="10.00">tlz::decode_feature</text>
<text text-anchor="middle" x="952.5" y="-490" font-family="Helvetica,sans-Serif" font-size="10.00">_point</text>
</a>
</g>
</g>
<!-- Node8&#45;&gt;Node10 -->
<g id="edge10" class="edge"><title>Node8&#45;&gt;Node10</title>
<path fill="none" stroke="midnightblue" d="M808.266,-437.015C836.412,-448.999 876.031,-465.868 906.469,-478.827"/>
<polygon fill="midnightblue" stroke="midnightblue" points="905.43,-482.189 916.002,-482.886 908.173,-475.748 905.43,-482.189"/>
</g>
<!-- Node11 -->
<g id="node11" class="node"><title>Node11</title>
<g id="a_node11"><a xlink:href="namespacetlz.html#add846dc50c32dfb356cb1a7ac11d37ac" target="_top" xlink:title="tlz::get_or">
<polygon fill="white" stroke="black" points="1078,-485.5 1078,-504.5 1138,-504.5 1138,-485.5 1078,-485.5"/>
<text text-anchor="middle" x="1108" y="-492.5" font-family="Helvetica,sans-Serif" font-size="10.00">tlz::get_or</text>
</a>
</g>
</g>
<!-- Node10&#45;&gt;Node11 -->
<g id="edge11" class="edge"><title>Node10&#45;&gt;Node11</title>
<path fill="none" stroke="midnightblue" d="M1002.91,-497.034C1023.86,-496.625 1047.94,-496.154 1067.66,-495.769"/>
<polygon fill="midnightblue" stroke="midnightblue" points="1067.89,-499.265 1077.82,-495.57 1067.75,-492.266 1067.89,-499.265"/>
</g>
<!-- Node11&#45;&gt;Node7 -->
<g id="edge12" class="edge"><title>Node11&#45;&gt;Node7</title>
<path fill="none" stroke="midnightblue" d="M1138.29,-489.809C1154.98,-486.852 1175.97,-483.132 1193.39,-480.044"/>
<polygon fill="midnightblue" stroke="midnightblue" points="1194.48,-483.407 1203.71,-478.215 1193.26,-476.514 1194.48,-483.407"/>
</g>
<!-- Node15 -->
<g id="node15" class="node"><title>Node15</title>
<g id="a_node15"><a xlink:href="namespacetlz.html#a0621d598fb83b13bf028f3e6293d04f8" target="_top" xlink:title="tlz::string_arg">
<polygon fill="white" stroke="black" points="734,-216.5 734,-235.5 810,-235.5 810,-216.5 734,-216.5"/>
<text text-anchor="middle" x="772" y="-223.5" font-family="Helvetica,sans-Serif" font-size="10.00">tlz::string_arg</text>
</a>
</g>
</g>
<!-- Node14&#45;&gt;Node15 -->
<g id="edge16" class="edge"><title>Node14&#45;&gt;Node15</title>
<path fill="none" stroke="midnightblue" d="M611.125,-270.442C624.098,-267.612 638.137,-264.364 651,-261 667.186,-256.767 670.956,-254.743 687,-250 700.097,-246.128 714.373,-242.011 727.379,-238.3"/>
<polygon fill="midnightblue" stroke="midnightblue" points="728.376,-241.655 737.036,-235.552 726.46,-234.922 728.376,-241.655"/>
</g>
<!-- Node16 -->
<g id="node16" class="node"><title>Node16</title>
<g id="a_node16"><a xlink:href="namespacetlz.html#a780431daab8d2595372eacb43143b52d" target="_top" xlink:title="tlz::args">
<polygon fill="white" stroke="black" points="926.5,-254.5 926.5,-273.5 978.5,-273.5 978.5,-254.5 926.5,-254.5"/>
<text text-anchor="middle" x="952.5" y="-261.5" font-family="Helvetica,sans-Serif" font-size="10.00">tlz::args</text>
</a>
</g>
</g>
<!-- Node14&#45;&gt;Node16 -->
<g id="edge22" class="edge"><title>Node14&#45;&gt;Node16</title>
<path fill="none" stroke="midnightblue" d="M613.866,-277.941C693.223,-274.664 846.36,-268.341 915.76,-265.476"/>
<polygon fill="midnightblue" stroke="midnightblue" points="916.309,-268.956 926.156,-265.046 916.02,-261.962 916.309,-268.956"/>
</g>
<!-- Node18 -->
<g id="node18" class="node"><title>Node18</title>
<g id="a_node18"><a xlink:href="classtlz_1_1args__list.html#a38ad21acd64a4af98ffdf4a47837cdbe" target="_top" xlink:title="tlz::args_list::usage_fail">
<polygon fill="white" stroke="black" points="1048,-292.5 1048,-311.5 1168,-311.5 1168,-292.5 1048,-292.5"/>
<text text-anchor="middle" x="1108" y="-299.5" font-family="Helvetica,sans-Serif" font-size="10.00">tlz::args_list::usage_fail</text>
</a>
</g>
</g>
<!-- Node14&#45;&gt;Node18 -->
<g id="edge23" class="edge"><title>Node14&#45;&gt;Node18</title>
<path fill="none" stroke="midnightblue" d="M613.635,-287.855C626.081,-290.63 639.235,-294.277 651,-299 668.401,-305.986 668.95,-315.921 687,-321 817.453,-357.705 979.599,-331.176 1058.85,-313.827"/>
<polygon fill="midnightblue" stroke="midnightblue" points="1060.02,-317.152 1069.01,-311.552 1058.49,-310.321 1060.02,-317.152"/>
</g>
<!-- Node20 -->
<g id="node20" class="node"><title>Node20</title>
<g id="a_node20"><a xlink:href="namespacetlz.html#abb019466ea9f56c0dab27e893d891837" target="_top" xlink:title="tlz::file_exists">
<polygon fill="white" stroke="black" points="733.5,-292.5 733.5,-311.5 810.5,-311.5 810.5,-292.5 733.5,-292.5"/>
<text text-anchor="middle" x="772" y="-299.5" font-family="Helvetica,sans-Serif" font-size="10.00">tlz::file_exists</text>
</a>
</g>
</g>
<!-- Node14&#45;&gt;Node20 -->
<g id="edge21" class="edge"><title>Node14&#45;&gt;Node20</title>
<path fill="none" stroke="midnightblue" d="M613.582,-285.27C646.823,-288.802 690.36,-293.43 723.22,-296.922"/>
<polygon fill="midnightblue" stroke="midnightblue" points="723.174,-300.437 733.488,-298.013 723.914,-293.476 723.174,-300.437"/>
</g>
<!-- Node15&#45;&gt;Node16 -->
<g id="edge17" class="edge"><title>Node15&#45;&gt;Node16</title>
<path fill="none" stroke="midnightblue" d="M810.419,-233.966C841.739,-240.634 886.091,-250.075 916.665,-256.584"/>
<polygon fill="midnightblue" stroke="midnightblue" points="915.957,-260.012 926.467,-258.671 917.415,-253.165 915.957,-260.012"/>
</g>
<!-- Node17 -->
<g id="node17" class="node"><title>Node17</title>
<g id="a_node17"><a xlink:href="classtlz_1_1args__list.html#a73d99bc75998dc14607a3a372d28dc6d" target="_top" xlink:title="tlz::args_list::next_arg">
<polygon fill="white" stroke="black" points="896,-216.5 896,-235.5 1009,-235.5 1009,-216.5 896,-216.5"/>
<text text-anchor="middle" x="952.5" y="-223.5" font-family="Helvetica,sans-Serif" font-size="10.00">tlz::args_list::next_arg</text>
</a>
</g>
</g>
<!-- Node15&#45;&gt;Node17 -->
<g id="edge18" class="edge"><title>Node15&#45;&gt;Node17</title>
<path fill="none" stroke="midnightblue" d="M810.419,-226C832.163,-226 860.188,-226 885.524,-226"/>
<polygon fill="midnightblue" stroke="midnightblue" points="885.819,-229.5 895.819,-226 885.819,-222.5 885.819,-229.5"/>
</g>
<!-- Node17&#45;&gt;Node18 -->
<g id="edge19" class="edge"><title>Node17&#45;&gt;Node18</title>
<path fill="none" stroke="midnightblue" d="M987.407,-235.574C995.597,-238.277 1004.23,-241.46 1012,-245 1038.18,-256.917 1066.18,-274.36 1084.95,-286.807"/>
<polygon fill="midnightblue" stroke="midnightblue" points="1083.13,-289.796 1093.38,-292.47 1087.03,-283.986 1083.13,-289.796"/>
</g>
<!-- Node19 -->
<g id="node19" class="node"><title>Node19</title>
<g id="a_node19"><a xlink:href="namespacetlz.html#a8e4f8c8c2927bc4350de13bfa0f8f9e1" target="_top" xlink:title="tlz::to_string">
<polygon fill="white" stroke="black" points="1072.5,-216.5 1072.5,-235.5 1143.5,-235.5 1143.5,-216.5 1072.5,-216.5"/>
<text text-anchor="middle" x="1108" y="-223.5" font-family="Helvetica,sans-Serif" font-size="10.00">tlz::to_string</text>
</a>
</g>
</g>
<!-- Node17&#45;&gt;Node19 -->
<g id="edge20" class="edge"><title>Node17&#45;&gt;Node19</title>
<path fill="none" stroke="midnightblue" d="M1009.35,-226C1026.65,-226 1045.48,-226 1061.95,-226"/>
<polygon fill="midnightblue" stroke="midnightblue" points="1062.39,-229.5 1072.39,-226 1062.39,-222.5 1062.39,-229.5"/>
</g>
<!-- Node22 -->
<g id="node22" class="node"><title>Node22</title>
<g id="a_node22"><a xlink:href="namespacetlz.html#a8cba4853d0d796a01c72f59f36f2a492" target="_top" xlink:title="tlz::decode_intrinsics">
<polygon fill="white" stroke="black" points="898,-532.5 898,-551.5 1007,-551.5 1007,-532.5 898,-532.5"/>
<text text-anchor="middle" x="952.5" y="-539.5" font-family="Helvetica,sans-Serif" font-size="10.00">tlz::decode_intrinsics</text>
</a>
</g>
</g>
<!-- Node21&#45;&gt;Node22 -->
<g id="edge25" class="edge"><title>Node21&#45;&gt;Node22</title>
<path fill="none" stroke="midnightblue" d="M198.609,-320.821C210.122,-323.047 222.061,-326.787 232,-333 254.613,-347.134 246.807,-364.814 268,-381 457.842,-525.989 757.497,-543.348 887.644,-543.514"/>
<polygon fill="midnightblue" stroke="midnightblue" points="887.847,-547.013 897.839,-543.492 887.831,-540.014 887.847,-547.013"/>
</g>
<!-- Node24 -->
<g id="node24" class="node"><title>Node24</title>
<g id="a_node24"><a xlink:href="namespacetlz.html#a35f9e03fa4fd9cec699f5fa27962400f" target="_top" xlink:title="tlz::json_arg">
<polygon fill="white" stroke="black" points="318.5,-308.5 318.5,-327.5 388.5,-327.5 388.5,-308.5 318.5,-308.5"/>
<text text-anchor="middle" x="353.5" y="-315.5" font-family="Helvetica,sans-Serif" font-size="10.00">tlz::json_arg</text>
</a>
</g>
</g>
<!-- Node21&#45;&gt;Node24 -->
<g id="edge29" class="edge"><title>Node21&#45;&gt;Node24</title>
<path fill="none" stroke="midnightblue" d="M198.547,-318C231.244,-318 275.458,-318 308.116,-318"/>
<polygon fill="midnightblue" stroke="midnightblue" points="308.284,-321.5 318.284,-318 308.284,-314.5 308.284,-321.5"/>
</g>
<!-- Node22&#45;&gt;Node7 -->
<g id="edge27" class="edge"><title>Node22&#45;&gt;Node7</title>
<path fill="none" stroke="midnightblue" d="M1007.15,-541.769C1051.57,-540 1115.65,-533.756 1168,-514 1182.7,-508.452 1197.37,-498.648 1208.47,-490.134"/>
<polygon fill="midnightblue" stroke="midnightblue" points="1210.91,-492.667 1216.53,-483.69 1206.54,-487.199 1210.91,-492.667"/>
</g>
<!-- Node22&#45;&gt;Node11 -->
<g id="edge28" class="edge"><title>Node22&#45;&gt;Node11</title>
<path fill="none" stroke="midnightblue" d="M984.563,-532.489C1008.62,-525.124 1042.08,-514.878 1067.94,-506.958"/>
<polygon fill="midnightblue" stroke="midnightblue" points="1069.27,-510.214 1077.8,-503.94 1067.22,-503.521 1069.27,-510.214"/>
</g>
<!-- Node23 -->
<g id="node23" class="node"><title>Node23</title>
<g id="a_node23"><a xlink:href="namespacetlz.html#a066563a26e2de02f215b179f3d3a53da" target="_top" xlink:title="tlz::decode_mat">
<polygon fill="white" stroke="black" points="1065,-561.5 1065,-580.5 1151,-580.5 1151,-561.5 1065,-561.5"/>
<text text-anchor="middle" x="1108" y="-568.5" font-family="Helvetica,sans-Serif" font-size="10.00">tlz::decode_mat</text>
</a>
</g>
</g>
<!-- Node22&#45;&gt;Node23 -->
<g id="edge26" class="edge"><title>Node22&#45;&gt;Node23</title>
<path fill="none" stroke="midnightblue" d="M1004.19,-551.576C1020.39,-554.636 1038.34,-558.029 1054.66,-561.111"/>
<polygon fill="midnightblue" stroke="midnightblue" points="1054.1,-564.567 1064.57,-562.984 1055.4,-557.689 1054.1,-564.567"/>
</g>
<!-- Node24&#45;&gt;Node12 -->
<g id="edge30" class="edge"><title>Node24&#45;&gt;Node12</title>
<path fill="none" stroke="midnightblue" d="M388.764,-318C419.488,-318 465.256,-318 502.035,-318"/>
<polygon fill="midnightblue" stroke="midnightblue" points="502.15,-321.5 512.15,-318 502.15,-314.5 502.15,-321.5"/>
</g>
<!-- Node24&#45;&gt;Node14 -->
<g id="edge31" class="edge"><title>Node24&#45;&gt;Node14</title>
<path fill="none" stroke="midnightblue" d="M388.764,-311.725C419.488,-306.099 465.256,-297.717 502.035,-290.982"/>
<polygon fill="midnightblue" stroke="midnightblue" points="502.944,-294.373 512.15,-289.129 501.683,-287.488 502.944,-294.373"/>
</g>
<!-- Node25&#45;&gt;Node15 -->
<g id="edge33" class="edge"><title>Node25&#45;&gt;Node15</title>
<path fill="none" stroke="midnightblue" d="M616.502,-237.942C649.575,-235.386 691.909,-232.113 723.897,-229.641"/>
<polygon fill="midnightblue" stroke="midnightblue" points="724.194,-233.128 733.895,-228.868 723.655,-226.149 724.194,-233.128"/>
</g>
<!-- Node27 -->
<g id="node27" class="node"><title>Node27</title>
<g id="a_node27"><a xlink:href="namespacetlz.html#ade8defb32aafaf166c303f8a816c482c" target="_top" xlink:title="tlz::to_eigen_mat">
<polygon fill="white" stroke="black" points="307.5,-194.5 307.5,-213.5 399.5,-213.5 399.5,-194.5 307.5,-194.5"/>
<text text-anchor="middle" x="353.5" y="-201.5" font-family="Helvetica,sans-Serif" font-size="10.00">tlz::to_eigen_mat</text>
</a>
</g>
</g>
<!-- Node26&#45;&gt;Node27 -->
<g id="edge35" class="edge"><title>Node26&#45;&gt;Node27</title>
<path fill="none" stroke="midnightblue" d="M206.673,-204C234.6,-204 268.888,-204 297.199,-204"/>
<polygon fill="midnightblue" stroke="midnightblue" points="297.336,-207.5 307.336,-204 297.336,-200.5 297.336,-207.5"/>
</g>
<!-- Node26&#45;&gt;Node28 -->
<g id="edge36" class="edge"><title>Node26&#45;&gt;Node28</title>
<path fill="none" stroke="midnightblue" d="M203.834,-194.46C238.089,-187.902 282.889,-179.326 314.321,-173.309"/>
<polygon fill="midnightblue" stroke="midnightblue" points="315.27,-176.691 324.433,-171.373 313.953,-169.816 315.27,-176.691"/>
</g>
<!-- Node32 -->
<g id="node32" class="node"><title>Node32</title>
<g id="a_node32"><a xlink:href="namespacetlz.html#a6eb3653f0e3dd7efcb6a620f9643492a" target="_top" xlink:title="tlz::is_orthogonal\l_matrix">
<polygon fill="white" stroke="black" points="308,-39 308,-69 399,-69 399,-39 308,-39"/>
<text text-anchor="start" x="316" y="-57" font-family="Helvetica,sans-Serif" font-size="10.00">tlz::is_orthogonal</text>
<text text-anchor="middle" x="353.5" y="-46" font-family="Helvetica,sans-Serif" font-size="10.00">_matrix</text>
</a>
</g>
</g>
<!-- Node31&#45;&gt;Node32 -->
<g id="edge41" class="edge"><title>Node31&#45;&gt;Node32</title>
<path fill="none" stroke="midnightblue" d="M187.224,-52.3348C217.36,-52.6384 262.358,-53.0918 297.796,-53.4488"/>
<polygon fill="midnightblue" stroke="midnightblue" points="297.953,-56.9505 307.987,-53.5515 298.023,-49.9508 297.953,-56.9505"/>
</g>
<!-- Node33&#45;&gt;Node5 -->
<g id="edge43" class="edge"><title>Node33&#45;&gt;Node5</title>
<path fill="none" stroke="midnightblue" d="M380.78,-510.375C417.731,-496.841 485.143,-472.15 526.514,-456.997"/>
<polygon fill="midnightblue" stroke="midnightblue" points="527.747,-460.273 535.933,-453.547 525.34,-453.7 527.747,-460.273"/>
</g>
<!-- Node35 -->
<g id="node35" class="node"><title>Node35</title>
<g id="a_node35"><a xlink:href="namespacetlz.html#a7b27ca69fad329b4a00aceee41d2962b" target="_top" xlink:title="tlz::encode_mat_">
<polygon fill="white" stroke="black" points="307.5,-0.5 307.5,-19.5 399.5,-19.5 399.5,-0.5 307.5,-0.5"/>
<text text-anchor="middle" x="353.5" y="-7.5" font-family="Helvetica,sans-Serif" font-size="10.00">tlz::encode_mat_</text>
</a>
</g>
</g>
<!-- Node34&#45;&gt;Node35 -->
<g id="edge45" class="edge"><title>Node34&#45;&gt;Node35</title>
<path fill="none" stroke="midnightblue" d="M196.097,-12.3638C225.569,-11.9184 265.241,-11.3188 297.254,-10.8349"/>
<polygon fill="midnightblue" stroke="midnightblue" points="297.41,-14.3331 307.356,-10.6823 297.305,-7.33388 297.41,-14.3331"/>
</g>
</g>
</svg>
