<?xml version="1.0" encoding="UTF-8" standalone="no"?>
<!DOCTYPE svg PUBLIC "-//W3C//DTD SVG 1.1//EN"
 "http://www.w3.org/Graphics/SVG/1.1/DTD/svg11.dtd">
<!-- Generated by graphviz version 2.38.0 (20140413.2041)
 -->
<!-- Title: do_horizontal_optical_flow Pages: 1 -->
<svg width="1019pt" height="344pt"
 viewBox="0.00 0.00 1019.00 344.00" xmlns="http://www.w3.org/2000/svg" xmlns:xlink="http://www.w3.org/1999/xlink">
<g id="graph0" class="graph" transform="scale(1 1) rotate(0) translate(4 340)">
<title>do_horizontal_optical_flow</title>
<polygon fill="white" stroke="none" points="-4,4 -4,-340 1015,-340 1015,4 -4,4"/>
<!-- Node1 -->
<g id="node1" class="node"><title>Node1</title>
<polygon fill="#bfbfbf" stroke="black" points="0,-164.5 0,-183.5 131,-183.5 131,-164.5 0,-164.5"/>
<text text-anchor="middle" x="65.5" y="-171.5" font-family="Helvetica,sans-Serif" font-size="10.00">do_horizontal_optical_flow</text>
</g>
<!-- Node2 -->
<g id="node2" class="node"><title>Node2</title>
<g id="a_node2"><a xlink:href="classtlz_1_1dataset__group.html#a4cc740eed6929b9f06a2157120740a7f" target="_top" xlink:title="tlz::dataset_group::set">
<polygon fill="white" stroke="black" points="167,-316.5 167,-335.5 281,-335.5 281,-316.5 167,-316.5"/>
<text text-anchor="middle" x="224" y="-323.5" font-family="Helvetica,sans-Serif" font-size="10.00">tlz::dataset_group::set</text>
</a>
</g>
</g>
<!-- Node1&#45;&gt;Node2 -->
<g id="edge1" class="edge"><title>Node1&#45;&gt;Node2</title>
<path fill="none" stroke="midnightblue" d="M71.1497,-183.597C83.3894,-207.875 118.9,-272.267 167,-307 169.663,-308.923 172.536,-310.663 175.524,-312.234"/>
<polygon fill="midnightblue" stroke="midnightblue" points="174.191,-315.473 184.739,-316.46 177.108,-309.11 174.191,-315.473"/>
</g>
<!-- Node3 -->
<g id="node3" class="node"><title>Node3</title>
<g id="a_node3"><a xlink:href="classtlz_1_1dataset.html#a15180d3b04937d9f1c69041a220b943b" target="_top" xlink:title="tlz::dataset::x_min">
<polygon fill="white" stroke="black" points="175,-278.5 175,-297.5 273,-297.5 273,-278.5 175,-278.5"/>
<text text-anchor="middle" x="224" y="-285.5" font-family="Helvetica,sans-Serif" font-size="10.00">tlz::dataset::x_min</text>
</a>
</g>
</g>
<!-- Node1&#45;&gt;Node3 -->
<g id="edge2" class="edge"><title>Node1&#45;&gt;Node3</title>
<path fill="none" stroke="midnightblue" d="M74.3085,-183.788C89.9592,-202.802 127.102,-244.965 167,-269 170.415,-271.057 174.082,-272.927 177.846,-274.62"/>
<polygon fill="midnightblue" stroke="midnightblue" points="176.733,-277.945 187.315,-278.467 179.368,-271.46 176.733,-277.945"/>
</g>
<!-- Node4 -->
<g id="node4" class="node"><title>Node4</title>
<g id="a_node4"><a xlink:href="classtlz_1_1dataset.html#a280e3ae6c4b37e1e18fabf00b70be20a" target="_top" xlink:title="tlz::dataset::x_max">
<polygon fill="white" stroke="black" points="173.5,-240.5 173.5,-259.5 274.5,-259.5 274.5,-240.5 173.5,-240.5"/>
<text text-anchor="middle" x="224" y="-247.5" font-family="Helvetica,sans-Serif" font-size="10.00">tlz::dataset::x_max</text>
</a>
</g>
</g>
<!-- Node1&#45;&gt;Node4 -->
<g id="edge3" class="edge"><title>Node1&#45;&gt;Node4</title>
<path fill="none" stroke="midnightblue" d="M81.3572,-183.613C100.571,-195.763 135.336,-216.802 167,-231 171.738,-233.125 176.79,-235.151 181.847,-237.036"/>
<polygon fill="midnightblue" stroke="midnightblue" points="180.901,-240.414 191.495,-240.473 183.25,-233.82 180.901,-240.414"/>
</g>
<!-- Node5 -->
<g id="node5" class="node"><title>Node5</title>
<g id="a_node5"><a xlink:href="classtlz_1_1dataset.html#a7efef5473f244709a47ff506267652b1" target="_top" xlink:title="tlz::dataset::x_step">
<polygon fill="white" stroke="black" points="173.5,-202.5 173.5,-221.5 274.5,-221.5 274.5,-202.5 173.5,-202.5"/>
<text text-anchor="middle" x="224" y="-209.5" font-family="Helvetica,sans-Serif" font-size="10.00">tlz::dataset::x_step</text>
</a>
</g>
</g>
<!-- Node1&#45;&gt;Node5 -->
<g id="edge4" class="edge"><title>Node1&#45;&gt;Node5</title>
<path fill="none" stroke="midnightblue" d="M105.992,-183.589C126.643,-188.604 152.114,-194.788 174.012,-200.105"/>
<polygon fill="midnightblue" stroke="midnightblue" points="173.249,-203.521 183.792,-202.48 174.901,-196.719 173.249,-203.521"/>
</g>
<!-- Node6 -->
<g id="node6" class="node"><title>Node6</title>
<g id="a_node6"><a xlink:href="cg__optical__flow__cors_8cc.html#aa5dfbbc67079c854cb58b99bb003aab9" target="_top" xlink:title="print_flow_indicator">
<polygon fill="white" stroke="black" points="173.5,-164.5 173.5,-183.5 274.5,-183.5 274.5,-164.5 173.5,-164.5"/>
<text text-anchor="middle" x="224" y="-171.5" font-family="Helvetica,sans-Serif" font-size="10.00">print_flow_indicator</text>
</a>
</g>
</g>
<!-- Node1&#45;&gt;Node6 -->
<g id="edge5" class="edge"><title>Node1&#45;&gt;Node6</title>
<path fill="none" stroke="midnightblue" d="M131.058,-174C141.667,-174 152.623,-174 163.112,-174"/>
<polygon fill="midnightblue" stroke="midnightblue" points="163.415,-177.5 173.415,-174 163.415,-170.5 163.415,-177.5"/>
</g>
<!-- Node7 -->
<g id="node7" class="node"><title>Node7</title>
<g id="a_node7"><a xlink:href="cg__optical__flow__cors_8cc.html#afb40806f0de30fe623408f5cf1f47465" target="_top" xlink:title="flow_to">
<polygon fill="white" stroke="black" points="200,-126.5 200,-145.5 248,-145.5 248,-126.5 200,-126.5"/>
<text text-anchor="middle" x="224" y="-133.5" font-family="Helvetica,sans-Serif" font-size="10.00">flow_to</text>
</a>
</g>
</g>
<!-- Node1&#45;&gt;Node7 -->
<g id="edge6" class="edge"><title>Node1&#45;&gt;Node7</title>
<path fill="none" stroke="midnightblue" d="M105.992,-164.411C131.821,-158.139 165.188,-150.037 189.677,-144.091"/>
<polygon fill="midnightblue" stroke="midnightblue" points="190.689,-147.447 199.581,-141.686 189.037,-140.645 190.689,-147.447"/>
</g>
<!-- Node25 -->
<g id="node25" class="node"><title>Node25</title>
<g id="a_node25"><a xlink:href="cg__optical__flow__cors_8cc.html#a492b5585cab19e8dac1679b4b44a1e87" target="_top" xlink:title="horizontal_optical\l_flow_window_size">
<polygon fill="white" stroke="black" points="173.5,-77 173.5,-107 274.5,-107 274.5,-77 173.5,-77"/>
<text text-anchor="start" x="181.5" y="-95" font-family="Helvetica,sans-Serif" font-size="10.00">horizontal_optical</text>
<text text-anchor="middle" x="224" y="-84" font-family="Helvetica,sans-Serif" font-size="10.00">_flow_window_size</text>
</a>
</g>
</g>
<!-- Node1&#45;&gt;Node25 -->
<g id="edge26" class="edge"><title>Node1&#45;&gt;Node25</title>
<path fill="none" stroke="midnightblue" d="M82.2562,-164.438C101.829,-152.706 136.386,-132.47 167,-117 170.742,-115.109 174.657,-113.209 178.604,-111.346"/>
<polygon fill="midnightblue" stroke="midnightblue" points="180.198,-114.465 187.806,-107.091 177.26,-108.112 180.198,-114.465"/>
</g>
<!-- Node26 -->
<g id="node26" class="node"><title>Node26</title>
<g id="a_node26"><a xlink:href="structflow__state.html#ac8be37941073fba44d3bd34de142a9e4" target="_top" xlink:title="flow_state::is_valid">
<polygon fill="white" stroke="black" points="173.5,-38.5 173.5,-57.5 274.5,-57.5 274.5,-38.5 173.5,-38.5"/>
<text text-anchor="middle" x="224" y="-45.5" font-family="Helvetica,sans-Serif" font-size="10.00">flow_state::is_valid</text>
</a>
</g>
</g>
<!-- Node1&#45;&gt;Node26 -->
<g id="edge27" class="edge"><title>Node1&#45;&gt;Node26</title>
<path fill="none" stroke="midnightblue" d="M73.1045,-164.217C87.6536,-143.384 124.569,-94.3115 167,-67 170.119,-64.9927 173.472,-63.1735 176.932,-61.5294"/>
<polygon fill="midnightblue" stroke="midnightblue" points="178.412,-64.7036 186.252,-57.5771 175.679,-58.2591 178.412,-64.7036"/>
</g>
<!-- Node28 -->
<g id="node28" class="node"><title>Node28</title>
<g id="a_node28"><a xlink:href="cg__optical__flow__cors_8cc.html#a89184ca9fefae735b0f1f9824fb57543" target="_top" xlink:title="add_correspondences">
<polygon fill="white" stroke="black" points="168,-0.5 168,-19.5 280,-19.5 280,-0.5 168,-0.5"/>
<text text-anchor="middle" x="224" y="-7.5" font-family="Helvetica,sans-Serif" font-size="10.00">add_correspondences</text>
</a>
</g>
</g>
<!-- Node1&#45;&gt;Node28 -->
<g id="edge29" class="edge"><title>Node1&#45;&gt;Node28</title>
<path fill="none" stroke="midnightblue" d="M70.5717,-164.291C81.9089,-138.414 116.37,-67.1632 167,-29 169.462,-27.1442 172.117,-25.4623 174.886,-23.9391"/>
<polygon fill="midnightblue" stroke="midnightblue" points="176.492,-27.0509 184.02,-19.5956 173.486,-20.7292 176.492,-27.0509"/>
</g>
<!-- Node8 -->
<g id="node8" class="node"><title>Node8</title>
<g id="a_node8"><a xlink:href="structflow__state.html#a04a62f8006f54b559ef6fcc25b87e66b" target="_top" xlink:title="flow_state::features\l_count">
<polygon fill="white" stroke="black" points="317,-101 317,-131 420,-131 420,-101 317,-101"/>
<text text-anchor="start" x="325" y="-119" font-family="Helvetica,sans-Serif" font-size="10.00">flow_state::features</text>
<text text-anchor="middle" x="368.5" y="-108" font-family="Helvetica,sans-Serif" font-size="10.00">_count</text>
</a>
</g>
</g>
<!-- Node7&#45;&gt;Node8 -->
<g id="edge7" class="edge"><title>Node7&#45;&gt;Node8</title>
<path fill="none" stroke="midnightblue" d="M248.212,-132.742C264.139,-130.507 286.061,-127.43 306.77,-124.523"/>
<polygon fill="midnightblue" stroke="midnightblue" points="307.391,-127.971 316.808,-123.115 306.418,-121.039 307.391,-127.971"/>
</g>
<!-- Node9 -->
<g id="node9" class="node"><title>Node9</title>
<g id="a_node9"><a xlink:href="cg__optical__flow__cors_8cc.html#a1a3ce6b4daa6a5b861ab2085a6c3642c" target="_top" xlink:title="load_image">
<polygon fill="white" stroke="black" points="335.5,-150.5 335.5,-169.5 401.5,-169.5 401.5,-150.5 335.5,-150.5"/>
<text text-anchor="middle" x="368.5" y="-157.5" font-family="Helvetica,sans-Serif" font-size="10.00">load_image</text>
</a>
</g>
</g>
<!-- Node7&#45;&gt;Node9 -->
<g id="edge8" class="edge"><title>Node7&#45;&gt;Node9</title>
<path fill="none" stroke="midnightblue" d="M248.212,-139.909C269.007,-143.412 300.02,-148.635 325.212,-152.878"/>
<polygon fill="midnightblue" stroke="midnightblue" points="324.808,-156.359 335.251,-154.569 325.971,-149.456 324.808,-156.359"/>
</g>
<!-- Node10 -->
<g id="node10" class="node"><title>Node10</title>
<g id="a_node10"><a xlink:href="classtlz_1_1dataset__group.html#aa0c9157fd56b01adebcecdcdd98f9e3f" target="_top" xlink:title="tlz::dataset_group\l::view">
<polygon fill="white" stroke="black" points="619,-236 619,-266 714,-266 714,-236 619,-236"/>
<text text-anchor="start" x="627" y="-254" font-family="Helvetica,sans-Serif" font-size="10.00">tlz::dataset_group</text>
<text text-anchor="middle" x="666.5" y="-243" font-family="Helvetica,sans-Serif" font-size="10.00">::view</text>
</a>
</g>
</g>
<!-- Node9&#45;&gt;Node10 -->
<g id="edge9" class="edge"><title>Node9&#45;&gt;Node10</title>
<path fill="none" stroke="midnightblue" d="M378.457,-169.957C393.011,-185.395 423.462,-214.709 456,-228 504.92,-247.982 565.32,-252.739 608.678,-253.089"/>
<polygon fill="midnightblue" stroke="midnightblue" points="608.76,-256.589 618.762,-253.094 608.764,-249.589 608.76,-256.589"/>
</g>
<!-- Node16 -->
<g id="node16" class="node"><title>Node16</title>
<g id="a_node16"><a xlink:href="classtlz_1_1dataset__view.html#af3c734eaed33af07993255db63d3fc54" target="_top" xlink:title="tlz::dataset_view::\limage_filename">
<polygon fill="white" stroke="black" points="467,-189 467,-219 564,-219 564,-189 467,-189"/>
<text text-anchor="start" x="475" y="-207" font-family="Helvetica,sans-Serif" font-size="10.00">tlz::dataset_view::</text>
<text text-anchor="middle" x="515.5" y="-196" font-family="Helvetica,sans-Serif" font-size="10.00">image_filename</text>
</a>
</g>
</g>
<!-- Node9&#45;&gt;Node16 -->
<g id="edge15" class="edge"><title>Node9&#45;&gt;Node16</title>
<path fill="none" stroke="midnightblue" d="M400.963,-169.547C417.347,-174.519 437.901,-180.756 457.002,-186.552"/>
<polygon fill="midnightblue" stroke="midnightblue" points="456.243,-189.98 466.829,-189.534 458.276,-183.281 456.243,-189.98"/>
</g>
<!-- Node20 -->
<g id="node20" class="node"><title>Node20</title>
<g id="a_node20"><a xlink:href="namespacetlz.html#abb019466ea9f56c0dab27e893d891837" target="_top" xlink:title="tlz::file_exists">
<polygon fill="white" stroke="black" points="477,-150.5 477,-169.5 554,-169.5 554,-150.5 477,-150.5"/>
<text text-anchor="middle" x="515.5" y="-157.5" font-family="Helvetica,sans-Serif" font-size="10.00">tlz::file_exists</text>
</a>
</g>
</g>
<!-- Node9&#45;&gt;Node20 -->
<g id="edge21" class="edge"><title>Node9&#45;&gt;Node20</title>
<path fill="none" stroke="midnightblue" d="M401.68,-160C420.753,-160 445.284,-160 466.597,-160"/>
<polygon fill="midnightblue" stroke="midnightblue" points="466.764,-163.5 476.764,-160 466.764,-156.5 466.764,-163.5"/>
</g>
<!-- Node21 -->
<g id="node21" class="node"><title>Node21</title>
<g id="a_node21"><a xlink:href="namespacetlz.html#afbf92393383d3dde6ffd98700ea014f1" target="_top" xlink:title="tlz::load_texture">
<polygon fill="white" stroke="black" points="472.5,-112.5 472.5,-131.5 558.5,-131.5 558.5,-112.5 472.5,-112.5"/>
<text text-anchor="middle" x="515.5" y="-119.5" font-family="Helvetica,sans-Serif" font-size="10.00">tlz::load_texture</text>
</a>
</g>
</g>
<!-- Node9&#45;&gt;Node21 -->
<g id="edge22" class="edge"><title>Node9&#45;&gt;Node21</title>
<path fill="none" stroke="midnightblue" d="M401.68,-151.567C421.288,-146.428 446.665,-139.778 468.384,-134.086"/>
<polygon fill="midnightblue" stroke="midnightblue" points="469.285,-137.468 478.071,-131.547 467.511,-130.696 469.285,-137.468"/>
</g>
<!-- Node22 -->
<g id="node22" class="node"><title>Node22</title>
<g id="a_node22"><a xlink:href="namespacetlz.html#aadab29bdc80bc1d0ad6d3784dd427992" target="_top" xlink:title="tlz::encode_view_index">
<polygon fill="white" stroke="black" points="456,-74.5 456,-93.5 575,-93.5 575,-74.5 456,-74.5"/>
<text text-anchor="middle" x="515.5" y="-81.5" font-family="Helvetica,sans-Serif" font-size="10.00">tlz::encode_view_index</text>
</a>
</g>
</g>
<!-- Node9&#45;&gt;Node22 -->
<g id="edge23" class="edge"><title>Node9&#45;&gt;Node22</title>
<path fill="none" stroke="midnightblue" d="M399.652,-150.465C406.62,-147.62 413.802,-144.133 420,-140 439.089,-127.271 436.519,-115.121 456,-103 459.322,-100.933 462.892,-99.0685 466.57,-97.3909"/>
<polygon fill="midnightblue" stroke="midnightblue" points="467.924,-100.619 475.857,-93.5966 465.276,-94.1386 467.924,-100.619"/>
</g>
<!-- Node11 -->
<g id="node11" class="node"><title>Node11</title>
<g id="a_node11"><a xlink:href="classtlz_1_1dataset.html#acbdb309b8dd22f687fff41f6e9ac6ed4" target="_top" xlink:title="tlz::dataset::view">
<polygon fill="white" stroke="black" points="760.5,-283.5 760.5,-302.5 852.5,-302.5 852.5,-283.5 760.5,-283.5"/>
<text text-anchor="middle" x="806.5" y="-290.5" font-family="Helvetica,sans-Serif" font-size="10.00">tlz::dataset::view</text>
</a>
</g>
</g>
<!-- Node10&#45;&gt;Node11 -->
<g id="edge10" class="edge"><title>Node10&#45;&gt;Node11</title>
<path fill="none" stroke="midnightblue" d="M714.221,-265.219C730.384,-270.139 748.376,-275.614 764.084,-280.395"/>
<polygon fill="midnightblue" stroke="midnightblue" points="763.449,-283.86 774.035,-283.424 765.487,-277.164 763.449,-283.86"/>
</g>
<!-- Node12 -->
<g id="node12" class="node"><title>Node12</title>
<g id="a_node12"><a xlink:href="classtlz_1_1dataset__view.html#a1ec7ba844d313cddc558874fe85246a8" target="_top" xlink:title="tlz::dataset_view::\lgroup_view">
<polygon fill="white" stroke="black" points="758,-234 758,-264 855,-264 855,-234 758,-234"/>
<text text-anchor="start" x="766" y="-252" font-family="Helvetica,sans-Serif" font-size="10.00">tlz::dataset_view::</text>
<text text-anchor="middle" x="806.5" y="-241" font-family="Helvetica,sans-Serif" font-size="10.00">group_view</text>
</a>
</g>
</g>
<!-- Node10&#45;&gt;Node12 -->
<g id="edge11" class="edge"><title>Node10&#45;&gt;Node12</title>
<path fill="none" stroke="midnightblue" d="M714.221,-250.323C724.996,-250.167 736.585,-249.999 747.767,-249.837"/>
<polygon fill="midnightblue" stroke="midnightblue" points="747.939,-253.335 757.887,-249.69 747.838,-246.335 747.939,-253.335"/>
</g>
<!-- Node13 -->
<g id="node13" class="node"><title>Node13</title>
<g id="a_node13"><a xlink:href="classtlz_1_1dataset__view.html#a31a73cf70078f270c9045bc0babadee2" target="_top" xlink:title="tlz::dataset_view::\ldataset_view">
<polygon fill="white" stroke="black" points="902.5,-234 902.5,-264 999.5,-264 999.5,-234 902.5,-234"/>
<text text-anchor="start" x="910.5" y="-252" font-family="Helvetica,sans-Serif" font-size="10.00">tlz::dataset_view::</text>
<text text-anchor="middle" x="951" y="-241" font-family="Helvetica,sans-Serif" font-size="10.00">dataset_view</text>
</a>
</g>
</g>
<!-- Node12&#45;&gt;Node13 -->
<g id="edge12" class="edge"><title>Node12&#45;&gt;Node13</title>
<path fill="none" stroke="midnightblue" d="M855.347,-249C867.096,-249 879.8,-249 891.971,-249"/>
<polygon fill="midnightblue" stroke="midnightblue" points="892.037,-252.5 902.037,-249 892.037,-245.5 892.037,-252.5"/>
</g>
<!-- Node14 -->
<g id="node14" class="node"><title>Node14</title>
<g id="a_node14"><a xlink:href="namespacetlz.html#a252af14b9b4ac6502d3e9c5dd8dc90b8" target="_top" xlink:title="tlz::has">
<polygon fill="white" stroke="black" points="926.5,-195.5 926.5,-214.5 975.5,-214.5 975.5,-195.5 926.5,-195.5"/>
<text text-anchor="middle" x="951" y="-202.5" font-family="Helvetica,sans-Serif" font-size="10.00">tlz::has</text>
</a>
</g>
</g>
<!-- Node12&#45;&gt;Node14 -->
<g id="edge13" class="edge"><title>Node12&#45;&gt;Node14</title>
<path fill="none" stroke="midnightblue" d="M855.347,-234.226C875.54,-227.991 898.555,-220.885 916.834,-215.241"/>
<polygon fill="midnightblue" stroke="midnightblue" points="917.932,-218.565 926.454,-212.27 915.867,-211.876 917.932,-218.565"/>
</g>
<!-- Node15 -->
<g id="node15" class="node"><title>Node15</title>
<g id="a_node15"><a xlink:href="classtlz_1_1dataset.html#ab14f5b1f18c0ab423c18270b7ca46bd2" target="_top" xlink:title="tlz::dataset::parameters">
<polygon fill="white" stroke="black" points="891,-154.5 891,-173.5 1011,-173.5 1011,-154.5 891,-154.5"/>
<text text-anchor="middle" x="951" y="-161.5" font-family="Helvetica,sans-Serif" font-size="10.00">tlz::dataset::parameters</text>
</a>
</g>
</g>
<!-- Node12&#45;&gt;Node15 -->
<g id="edge14" class="edge"><title>Node12&#45;&gt;Node15</title>
<path fill="none" stroke="midnightblue" d="M839.557,-233.985C844.901,-230.966 850.246,-227.602 855,-224 873.542,-209.949 871.6,-198.84 891,-186 895.906,-182.753 901.356,-179.899 906.905,-177.417"/>
<polygon fill="midnightblue" stroke="midnightblue" points="908.332,-180.614 916.258,-173.585 905.678,-174.137 908.332,-180.614"/>
</g>
<!-- Node17 -->
<g id="node17" class="node"><title>Node17</title>
<g id="a_node17"><a xlink:href="classtlz_1_1dataset__view.html#a327a842dc304656596d65b9bbf52fb1c" target="_top" xlink:title="tlz::dataset_view::\llocal_filename">
<polygon fill="white" stroke="black" points="618,-187 618,-217 715,-217 715,-187 618,-187"/>
<text text-anchor="start" x="626" y="-205" font-family="Helvetica,sans-Serif" font-size="10.00">tlz::dataset_view::</text>
<text text-anchor="middle" x="666.5" y="-194" font-family="Helvetica,sans-Serif" font-size="10.00">local_filename</text>
</a>
</g>
</g>
<!-- Node16&#45;&gt;Node17 -->
<g id="edge16" class="edge"><title>Node16&#45;&gt;Node17</title>
<path fill="none" stroke="midnightblue" d="M564.054,-203.362C577.898,-203.176 593.176,-202.971 607.583,-202.777"/>
<polygon fill="midnightblue" stroke="midnightblue" points="607.934,-206.273 617.887,-202.639 607.84,-199.274 607.934,-206.273"/>
</g>
<!-- Node18 -->
<g id="node18" class="node"><title>Node18</title>
<g id="a_node18"><a xlink:href="namespacetlz.html#add846dc50c32dfb356cb1a7ac11d37ac" target="_top" xlink:title="tlz::get_or">
<polygon fill="white" stroke="black" points="776.5,-195.5 776.5,-214.5 836.5,-214.5 836.5,-195.5 776.5,-195.5"/>
<text text-anchor="middle" x="806.5" y="-202.5" font-family="Helvetica,sans-Serif" font-size="10.00">tlz::get_or</text>
</a>
</g>
</g>
<!-- Node17&#45;&gt;Node18 -->
<g id="edge17" class="edge"><title>Node17&#45;&gt;Node18</title>
<path fill="none" stroke="midnightblue" d="M715.378,-203.041C731.824,-203.398 750.04,-203.794 765.767,-204.136"/>
<polygon fill="midnightblue" stroke="midnightblue" points="766.131,-207.645 776.205,-204.363 766.283,-200.647 766.131,-207.645"/>
</g>
<!-- Node19 -->
<g id="node19" class="node"><title>Node19</title>
<g id="a_node19"><a xlink:href="classtlz_1_1dataset__view.html#a4951a6300847e0fed4fecf79d8753b58" target="_top" xlink:title="tlz::dataset_view::\llocal_parameters">
<polygon fill="white" stroke="black" points="758,-146 758,-176 855,-176 855,-146 758,-146"/>
<text text-anchor="start" x="766" y="-164" font-family="Helvetica,sans-Serif" font-size="10.00">tlz::dataset_view::</text>
<text text-anchor="middle" x="806.5" y="-153" font-family="Helvetica,sans-Serif" font-size="10.00">local_parameters</text>
</a>
</g>
</g>
<!-- Node17&#45;&gt;Node19 -->
<g id="edge19" class="edge"><title>Node17&#45;&gt;Node19</title>
<path fill="none" stroke="midnightblue" d="M715.378,-187.775C725.868,-184.659 737.079,-181.328 747.904,-178.112"/>
<polygon fill="midnightblue" stroke="midnightblue" points="749.117,-181.403 757.706,-175.2 747.124,-174.693 749.117,-181.403"/>
</g>
<!-- Node18&#45;&gt;Node14 -->
<g id="edge18" class="edge"><title>Node18&#45;&gt;Node14</title>
<path fill="none" stroke="midnightblue" d="M836.681,-205C859.662,-205 891.741,-205 915.904,-205"/>
<polygon fill="midnightblue" stroke="midnightblue" points="916.056,-208.5 926.056,-205 916.056,-201.5 916.056,-208.5"/>
</g>
<!-- Node19&#45;&gt;Node15 -->
<g id="edge20" class="edge"><title>Node19&#45;&gt;Node15</title>
<path fill="none" stroke="midnightblue" d="M855.347,-162.007C863.541,-162.18 872.2,-162.362 880.818,-162.544"/>
<polygon fill="midnightblue" stroke="midnightblue" points="880.815,-166.044 890.886,-162.756 880.962,-159.046 880.815,-166.044"/>
</g>
<!-- Node23 -->
<g id="node23" class="node"><title>Node23</title>
<g id="a_node23"><a xlink:href="namespacetlz.html#a8e4f8c8c2927bc4350de13bfa0f8f9e1" target="_top" xlink:title="tlz::to_string">
<polygon fill="white" stroke="black" points="631,-93.5 631,-112.5 702,-112.5 702,-93.5 631,-93.5"/>
<text text-anchor="middle" x="666.5" y="-100.5" font-family="Helvetica,sans-Serif" font-size="10.00">tlz::to_string</text>
</a>
</g>
</g>
<!-- Node22&#45;&gt;Node23 -->
<g id="edge24" class="edge"><title>Node22&#45;&gt;Node23</title>
<path fill="none" stroke="midnightblue" d="M575.389,-91.5093C590.444,-93.4291 606.389,-95.4624 620.614,-97.2763"/>
<polygon fill="midnightblue" stroke="midnightblue" points="620.268,-100.76 630.631,-98.5536 621.154,-93.8167 620.268,-100.76"/>
</g>
<!-- Node24 -->
<g id="node24" class="node"><title>Node24</title>
<g id="a_node24"><a xlink:href="structtlz_1_1view__index.html#a20518c30015d833cdb2a69b524886b96" target="_top" xlink:title="tlz::view_index::is_2d">
<polygon fill="white" stroke="black" points="611,-55.5 611,-74.5 722,-74.5 722,-55.5 611,-55.5"/>
<text text-anchor="middle" x="666.5" y="-62.5" font-family="Helvetica,sans-Serif" font-size="10.00">tlz::view_index::is_2d</text>
</a>
</g>
</g>
<!-- Node22&#45;&gt;Node24 -->
<g id="edge25" class="edge"><title>Node22&#45;&gt;Node24</title>
<path fill="none" stroke="midnightblue" d="M575.389,-76.4907C583.716,-75.4288 592.316,-74.3321 600.747,-73.2571"/>
<polygon fill="midnightblue" stroke="midnightblue" points="601.44,-76.6972 610.917,-71.9603 600.554,-69.7534 601.44,-76.6972"/>
</g>
<!-- Node27 -->
<g id="node27" class="node"><title>Node27</title>
<g id="a_node27"><a xlink:href="structtlz_1_1view__index.html#a795d2e69452fa9cf92a8bf776bb6e209" target="_top" xlink:title="tlz::view_index::is\l_valid">
<polygon fill="white" stroke="black" points="321,-33 321,-63 416,-63 416,-33 321,-33"/>
<text text-anchor="start" x="329" y="-51" font-family="Helvetica,sans-Serif" font-size="10.00">tlz::view_index::is</text>
<text text-anchor="middle" x="368.5" y="-40" font-family="Helvetica,sans-Serif" font-size="10.00">_valid</text>
</a>
</g>
</g>
<!-- Node26&#45;&gt;Node27 -->
<g id="edge28" class="edge"><title>Node26&#45;&gt;Node27</title>
<path fill="none" stroke="midnightblue" d="M274.84,-48C286.386,-48 298.759,-48 310.582,-48"/>
<polygon fill="midnightblue" stroke="midnightblue" points="310.797,-51.5001 320.797,-48 310.797,-44.5001 310.797,-51.5001"/>
</g>
</g>
</svg>
