<?xml version="1.0" encoding="UTF-8" standalone="no"?>
<!DOCTYPE svg PUBLIC "-//W3C//DTD SVG 1.1//EN"
 "http://www.w3.org/Graphics/SVG/1.1/DTD/svg11.dtd">
<!-- Generated by graphviz version 2.38.0 (20140413.2041)
 -->
<!-- Title: main Pages: 1 -->
<svg width="1261pt" height="712pt"
 viewBox="0.00 0.00 1261.00 711.50" xmlns="http://www.w3.org/2000/svg" xmlns:xlink="http://www.w3.org/1999/xlink">
<g id="graph0" class="graph" transform="scale(1 1) rotate(0) translate(4 707.5)">
<title>main</title>
<polygon fill="white" stroke="none" points="-4,4 -4,-707.5 1257,-707.5 1257,4 -4,4"/>
<!-- Node1 -->
<g id="node1" class="node"><title>Node1</title>
<polygon fill="#bfbfbf" stroke="black" points="0,-307 0,-326 38,-326 38,-307 0,-307"/>
<text text-anchor="middle" x="19" y="-314" font-family="Helvetica,sans-Serif" font-size="10.00">main</text>
</g>
<!-- Node2 -->
<g id="node2" class="node"><title>Node2</title>
<g id="a_node2"><a xlink:href="namespacetlz.html#a3c03f5d9d6261ec2909938822fc47f8a" target="_top" xlink:title="tlz::get_args">
<polygon fill="white" stroke="black" points="117.5,-563 117.5,-582 188.5,-582 188.5,-563 117.5,-563"/>
<text text-anchor="middle" x="153" y="-570" font-family="Helvetica,sans-Serif" font-size="10.00">tlz::get_args</text>
</a>
</g>
</g>
<!-- Node1&#45;&gt;Node2 -->
<g id="edge1" class="edge"><title>Node1&#45;&gt;Node2</title>
<path fill="none" stroke="midnightblue" d="M20.976,-326.18C25.155,-365.789 42.7644,-515.004 74,-548.5 82.7681,-557.903 95.1205,-563.655 107.414,-567.163"/>
<polygon fill="midnightblue" stroke="midnightblue" points="106.65,-570.579 117.192,-569.523 108.292,-563.775 106.65,-570.579"/>
</g>
<!-- Node3 -->
<g id="node3" class="node"><title>Node3</title>
<g id="a_node3"><a xlink:href="namespacetlz.html#a91f1aec7120c97452c495ee447e56b57" target="_top" xlink:title="tlz::dataset_arg">
<polygon fill="white" stroke="black" points="311.5,-371 311.5,-390 395.5,-390 395.5,-371 311.5,-371"/>
<text text-anchor="middle" x="353.5" y="-378" font-family="Helvetica,sans-Serif" font-size="10.00">tlz::dataset_arg</text>
</a>
</g>
</g>
<!-- Node1&#45;&gt;Node3 -->
<g id="edge2" class="edge"><title>Node1&#45;&gt;Node3</title>
<path fill="none" stroke="midnightblue" d="M24.2818,-326.099C31.7853,-341.573 48.933,-371.508 74,-383.5 149.919,-419.819 251.34,-405.366 308.493,-392.391"/>
<polygon fill="midnightblue" stroke="midnightblue" points="309.364,-395.782 318.294,-390.081 307.758,-388.968 309.364,-395.782"/>
</g>
<!-- Node11 -->
<g id="node11" class="node"><title>Node11</title>
<g id="a_node11"><a xlink:href="namespacetlz.html#a11d8bb3ca89f4957bfde1cd0d5429a16" target="_top" xlink:title="tlz::image_correspondences_arg">
<polygon fill="white" stroke="black" points="74,-449 74,-468 232,-468 232,-449 74,-449"/>
<text text-anchor="middle" x="153" y="-456" font-family="Helvetica,sans-Serif" font-size="10.00">tlz::image_correspondences_arg</text>
</a>
</g>
</g>
<!-- Node1&#45;&gt;Node11 -->
<g id="edge12" class="edge"><title>Node1&#45;&gt;Node11</title>
<path fill="none" stroke="midnightblue" d="M21.6277,-326.03C25.9452,-348.37 39.7876,-404.49 74,-434.5 78.7531,-438.669 84.2192,-442.114 90.0054,-444.961"/>
<polygon fill="midnightblue" stroke="midnightblue" points="88.7355,-448.225 99.3048,-448.959 91.5007,-441.794 88.7355,-448.225"/>
</g>
<!-- Node22 -->
<g id="node22" class="node"><title>Node22</title>
<g id="a_node22"><a xlink:href="namespacetlz.html#a170805c7a8ede64a93e0ee23196e5b7c" target="_top" xlink:title="tlz::intrinsics_arg">
<polygon fill="white" stroke="black" points="107.5,-487 107.5,-506 198.5,-506 198.5,-487 107.5,-487"/>
<text text-anchor="middle" x="153" y="-494" font-family="Helvetica,sans-Serif" font-size="10.00">tlz::intrinsics_arg</text>
</a>
</g>
</g>
<!-- Node1&#45;&gt;Node22 -->
<g id="edge26" class="edge"><title>Node1&#45;&gt;Node22</title>
<path fill="none" stroke="midnightblue" d="M20.1879,-326.17C21.2782,-354.108 28.4082,-435.614 74,-477.5 80.6369,-483.597 88.8976,-487.827 97.5384,-490.743"/>
<polygon fill="midnightblue" stroke="midnightblue" points="96.8155,-494.175 107.389,-493.507 98.7064,-487.435 96.8155,-494.175"/>
</g>
<!-- Node26 -->
<g id="node26" class="node"><title>Node26</title>
<g id="a_node26"><a xlink:href="namespacetlz.html#a65770a2c1ff57c5ae6542d4465a3d3f4" target="_top" xlink:title="tlz::out_filename_arg">
<polygon fill="white" stroke="black" points="300,-311 300,-330 407,-330 407,-311 300,-311"/>
<text text-anchor="middle" x="353.5" y="-318" font-family="Helvetica,sans-Serif" font-size="10.00">tlz::out_filename_arg</text>
</a>
</g>
</g>
<!-- Node1&#45;&gt;Node26 -->
<g id="edge34" class="edge"><title>Node1&#45;&gt;Node26</title>
<path fill="none" stroke="midnightblue" d="M27.5362,-326.137C36.987,-337.355 54.3532,-355.266 74,-362.5 160.862,-394.482 271.544,-356.2 323.324,-334.081"/>
<polygon fill="midnightblue" stroke="midnightblue" points="324.822,-337.246 332.579,-330.029 322.015,-330.833 324.822,-337.246"/>
</g>
<!-- Node27 -->
<g id="node27" class="node"><title>Node27</title>
<g id="a_node27"><a xlink:href="namespacetlz.html#ae9eeca909bec8ca797356b56d3cfbb90" target="_top" xlink:title="tlz::undistort">
<polygon fill="white" stroke="black" points="318,-97 318,-116 389,-116 389,-97 318,-97"/>
<text text-anchor="middle" x="353.5" y="-104" font-family="Helvetica,sans-Serif" font-size="10.00">tlz::undistort</text>
</a>
</g>
</g>
<!-- Node1&#45;&gt;Node27 -->
<g id="edge36" class="edge"><title>Node1&#45;&gt;Node27</title>
<path fill="none" stroke="midnightblue" d="M20.6399,-306.851C23.568,-265.984 37.1663,-107.913 74,-78.5 148.152,-19.2875 271.225,-66.7009 325.44,-92.526"/>
<polygon fill="midnightblue" stroke="midnightblue" points="323.914,-95.6755 334.436,-96.9165 326.984,-89.3848 323.914,-95.6755"/>
</g>
<!-- Node31 -->
<g id="node31" class="node"><title>Node31</title>
<g id="a_node31"><a xlink:href="cg__measure__optical__flow__slopes_8cc.html#abc02b9097f27f76d89782ec983b4551d" target="_top" xlink:title="measure_horizontal\l_slope">
<polygon fill="white" stroke="black" points="102.5,-323.5 102.5,-353.5 203.5,-353.5 203.5,-323.5 102.5,-323.5"/>
<text text-anchor="start" x="110.5" y="-341.5" font-family="Helvetica,sans-Serif" font-size="10.00">measure_horizontal</text>
<text text-anchor="middle" x="153" y="-330.5" font-family="Helvetica,sans-Serif" font-size="10.00">_slope</text>
</a>
</g>
</g>
<!-- Node1&#45;&gt;Node31 -->
<g id="edge40" class="edge"><title>Node1&#45;&gt;Node31</title>
<path fill="none" stroke="midnightblue" d="M38.0773,-319.513C52.2116,-321.869 72.7081,-325.285 92.4312,-328.572"/>
<polygon fill="midnightblue" stroke="midnightblue" points="91.8878,-332.029 102.327,-330.221 93.0386,-325.125 91.8878,-332.029"/>
</g>
<!-- Node32 -->
<g id="node32" class="node"><title>Node32</title>
<g id="a_node32"><a xlink:href="cg__measure__optical__flow__slopes_8cc.html#aba93af81344796db1ca7ecabdf992baa" target="_top" xlink:title="measure_vertical_slope">
<polygon fill="white" stroke="black" points="93.5,-285 93.5,-304 212.5,-304 212.5,-285 93.5,-285"/>
<text text-anchor="middle" x="153" y="-292" font-family="Helvetica,sans-Serif" font-size="10.00">measure_vertical_slope</text>
</a>
</g>
</g>
<!-- Node1&#45;&gt;Node32 -->
<g id="edge41" class="edge"><title>Node1&#45;&gt;Node32</title>
<path fill="none" stroke="midnightblue" d="M38.0773,-313.487C50.3543,-311.441 67.4312,-308.595 84.6321,-305.728"/>
<polygon fill="midnightblue" stroke="midnightblue" points="85.4502,-309.14 94.7387,-304.044 84.2994,-302.235 85.4502,-309.14"/>
</g>
<!-- Node33 -->
<g id="node33" class="node"><title>Node33</title>
<g id="a_node33"><a xlink:href="namespacetlz.html#a4c8ba0cd4f8d2e01c0aa3c58056bd648" target="_top" xlink:title="tlz::get_reference\l_views">
<polygon fill="white" stroke="black" points="107,-235.5 107,-265.5 199,-265.5 199,-235.5 107,-235.5"/>
<text text-anchor="start" x="115" y="-253.5" font-family="Helvetica,sans-Serif" font-size="10.00">tlz::get_reference</text>
<text text-anchor="middle" x="153" y="-242.5" font-family="Helvetica,sans-Serif" font-size="10.00">_views</text>
</a>
</g>
</g>
<!-- Node1&#45;&gt;Node33 -->
<g id="edge42" class="edge"><title>Node1&#45;&gt;Node33</title>
<path fill="none" stroke="midnightblue" d="M30.4283,-306.849C40.7987,-297.69 57.5016,-284.085 74,-275.5 81.2643,-271.72 89.2073,-268.376 97.156,-265.462"/>
<polygon fill="midnightblue" stroke="midnightblue" points="98.5038,-268.7 106.809,-262.122 96.2146,-262.084 98.5038,-268.7"/>
</g>
<!-- Node34 -->
<g id="node34" class="node"><title>Node34</title>
<g id="a_node34"><a xlink:href="namespacetlz.html#ae26f7675ecb867cba4f721a2533bceb6" target="_top" xlink:title="tlz::image_correspondences\l_with_reference">
<polygon fill="white" stroke="black" points="83.5,-186.5 83.5,-216.5 222.5,-216.5 222.5,-186.5 83.5,-186.5"/>
<text text-anchor="start" x="91.5" y="-204.5" font-family="Helvetica,sans-Serif" font-size="10.00">tlz::image_correspondences</text>
<text text-anchor="middle" x="153" y="-193.5" font-family="Helvetica,sans-Serif" font-size="10.00">_with_reference</text>
</a>
</g>
</g>
<!-- Node1&#45;&gt;Node34 -->
<g id="edge43" class="edge"><title>Node1&#45;&gt;Node34</title>
<path fill="none" stroke="midnightblue" d="M23.0402,-306.952C29.4244,-288.437 45.9959,-247.544 74,-225.5 75.7639,-224.112 77.6082,-222.803 79.5162,-221.57"/>
<polygon fill="midnightblue" stroke="midnightblue" points="81.2607,-224.604 88.2383,-216.632 77.8118,-218.513 81.2607,-224.604"/>
</g>
<!-- Node35 -->
<g id="node35" class="node"><title>Node35</title>
<g id="a_node35"><a xlink:href="namespacetlz.html#aff19d91ea9462be84d8e7db9015686bf" target="_top" xlink:title="tlz::undistorted_feature\l_points_for_view">
<polygon fill="white" stroke="black" points="95,-137.5 95,-167.5 211,-167.5 211,-137.5 95,-137.5"/>
<text text-anchor="start" x="103" y="-155.5" font-family="Helvetica,sans-Serif" font-size="10.00">tlz::undistorted_feature</text>
<text text-anchor="middle" x="153" y="-144.5" font-family="Helvetica,sans-Serif" font-size="10.00">_points_for_view</text>
</a>
</g>
</g>
<!-- Node1&#45;&gt;Node35 -->
<g id="edge44" class="edge"><title>Node1&#45;&gt;Node35</title>
<path fill="none" stroke="midnightblue" d="M20.8839,-306.753C23.7038,-281.451 34.7553,-213.103 74,-176.5 77.5681,-173.172 81.5877,-170.305 85.8728,-167.836"/>
<polygon fill="midnightblue" stroke="midnightblue" points="87.5876,-170.892 94.9818,-163.304 84.4696,-164.625 87.5876,-170.892"/>
</g>
<!-- Node37 -->
<g id="node37" class="node"><title>Node37</title>
<g id="a_node37"><a xlink:href="namespacetlz.html#a0469df7eb30e593fb04a10aed9fbfec2" target="_top" xlink:title="tlz::merge_multiview\l_feature_slopes">
<polygon fill="white" stroke="black" points="99.5,-88.5 99.5,-118.5 206.5,-118.5 206.5,-88.5 99.5,-88.5"/>
<text text-anchor="start" x="107.5" y="-106.5" font-family="Helvetica,sans-Serif" font-size="10.00">tlz::merge_multiview</text>
<text text-anchor="middle" x="153" y="-95.5" font-family="Helvetica,sans-Serif" font-size="10.00">_feature_slopes</text>
</a>
</g>
</g>
<!-- Node1&#45;&gt;Node37 -->
<g id="edge47" class="edge"><title>Node1&#45;&gt;Node37</title>
<path fill="none" stroke="midnightblue" d="M19.7526,-306.688C19.5259,-275.78 23.124,-179.414 74,-127.5 78.5555,-122.852 83.9877,-119.099 89.8352,-116.069"/>
<polygon fill="midnightblue" stroke="midnightblue" points="91.5721,-119.128 99.2999,-111.88 88.7389,-112.727 91.5721,-119.128"/>
</g>
<!-- Node38 -->
<g id="node38" class="node"><title>Node38</title>
<g id="a_node38"><a xlink:href="namespacetlz.html#ab98de0b10e3e079dee189f81adc638a0" target="_top" xlink:title="tlz::export_json_file">
<polygon fill="white" stroke="black" points="303,-646 303,-665 404,-665 404,-646 303,-646"/>
<text text-anchor="middle" x="353.5" y="-653" font-family="Helvetica,sans-Serif" font-size="10.00">tlz::export_json_file</text>
</a>
</g>
</g>
<!-- Node1&#45;&gt;Node38 -->
<g id="edge48" class="edge"><title>Node1&#45;&gt;Node38</title>
<path fill="none" stroke="midnightblue" d="M19.4636,-326.051C18.2289,-357.96 18.7949,-461.871 74,-515.5 125.804,-565.826 176.169,-507.682 232,-553.5 261.515,-577.721 238.985,-606.683 268,-631.5 275.311,-637.753 284.151,-642.382 293.321,-645.807"/>
<polygon fill="midnightblue" stroke="midnightblue" points="292.354,-649.174 302.947,-648.959 294.532,-642.521 292.354,-649.174"/>
</g>
<!-- Node39 -->
<g id="node39" class="node"><title>Node39</title>
<g id="a_node39"><a xlink:href="namespacetlz.html#a96def3742b2e93e5d1da90d6083d670c" target="_top" xlink:title="tlz::encode_feature\l_slopes">
<polygon fill="white" stroke="black" points="103,-0.5 103,-30.5 203,-30.5 203,-0.5 103,-0.5"/>
<text text-anchor="start" x="111" y="-18.5" font-family="Helvetica,sans-Serif" font-size="10.00">tlz::encode_feature</text>
<text text-anchor="middle" x="153" y="-7.5" font-family="Helvetica,sans-Serif" font-size="10.00">_slopes</text>
</a>
</g>
</g>
<!-- Node1&#45;&gt;Node39 -->
<g id="edge50" class="edge"><title>Node1&#45;&gt;Node39</title>
<path fill="none" stroke="midnightblue" d="M20.6975,-306.782C24.0011,-263.257 39.3796,-86.5899 74,-45.5 79.2585,-39.2588 85.972,-34.3119 93.2472,-30.3919"/>
<polygon fill="midnightblue" stroke="midnightblue" points="95.1312,-33.3739 102.696,-25.9556 92.1561,-27.0376 95.1312,-33.3739"/>
</g>
<!-- Node4 -->
<g id="node4" class="node"><title>Node4</title>
<g id="a_node4"><a xlink:href="namespacetlz.html#a634de7ca11e100e4a118dffe80376a75" target="_top" xlink:title="tlz::in_filename_arg">
<polygon fill="white" stroke="black" points="512.5,-371 512.5,-390 613.5,-390 613.5,-371 512.5,-371"/>
<text text-anchor="middle" x="563" y="-378" font-family="Helvetica,sans-Serif" font-size="10.00">tlz::in_filename_arg</text>
</a>
</g>
</g>
<!-- Node3&#45;&gt;Node4 -->
<g id="edge3" class="edge"><title>Node3&#45;&gt;Node4</title>
<path fill="none" stroke="midnightblue" d="M395.992,-380.5C426.324,-380.5 467.923,-380.5 501.89,-380.5"/>
<polygon fill="midnightblue" stroke="midnightblue" points="502.166,-384 512.166,-380.5 502.166,-377 502.166,-384"/>
</g>
<!-- Node5 -->
<g id="node5" class="node"><title>Node5</title>
<g id="a_node5"><a xlink:href="namespacetlz.html#a0621d598fb83b13bf028f3e6293d04f8" target="_top" xlink:title="tlz::string_arg">
<polygon fill="white" stroke="black" points="734,-292 734,-311 810,-311 810,-292 734,-292"/>
<text text-anchor="middle" x="772" y="-299" font-family="Helvetica,sans-Serif" font-size="10.00">tlz::string_arg</text>
</a>
</g>
</g>
<!-- Node4&#45;&gt;Node5 -->
<g id="edge4" class="edge"><title>Node4&#45;&gt;Node5</title>
<path fill="none" stroke="midnightblue" d="M583.245,-370.865C607.162,-359.133 649.417,-339.193 687,-325.5 698.801,-321.2 711.757,-317.171 723.886,-313.687"/>
<polygon fill="midnightblue" stroke="midnightblue" points="725.154,-316.967 733.837,-310.895 723.263,-310.227 725.154,-316.967"/>
</g>
<!-- Node6 -->
<g id="node6" class="node"><title>Node6</title>
<g id="a_node6"><a xlink:href="namespacetlz.html#a780431daab8d2595372eacb43143b52d" target="_top" xlink:title="tlz::args">
<polygon fill="white" stroke="black" points="926.5,-330 926.5,-349 978.5,-349 978.5,-330 926.5,-330"/>
<text text-anchor="middle" x="952.5" y="-337" font-family="Helvetica,sans-Serif" font-size="10.00">tlz::args</text>
</a>
</g>
</g>
<!-- Node4&#45;&gt;Node6 -->
<g id="edge10" class="edge"><title>Node4&#45;&gt;Node6</title>
<path fill="none" stroke="midnightblue" d="M610.549,-370.981C633.482,-366.597 661.6,-361.675 687,-358.5 768.673,-348.291 865.273,-343.075 916.116,-340.857"/>
<polygon fill="midnightblue" stroke="midnightblue" points="916.406,-344.348 926.25,-340.428 916.111,-337.354 916.406,-344.348"/>
</g>
<!-- Node8 -->
<g id="node8" class="node"><title>Node8</title>
<g id="a_node8"><a xlink:href="classtlz_1_1args__list.html#a38ad21acd64a4af98ffdf4a47837cdbe" target="_top" xlink:title="tlz::args_list::usage_fail">
<polygon fill="white" stroke="black" points="1048,-349 1048,-368 1168,-368 1168,-349 1048,-349"/>
<text text-anchor="middle" x="1108" y="-356" font-family="Helvetica,sans-Serif" font-size="10.00">tlz::args_list::usage_fail</text>
</a>
</g>
</g>
<!-- Node4&#45;&gt;Node8 -->
<g id="edge11" class="edge"><title>Node4&#45;&gt;Node8</title>
<path fill="none" stroke="midnightblue" d="M613.531,-388.428C635.906,-391.626 662.717,-394.927 687,-396.5 762.398,-401.383 781.659,-402.193 857,-396.5 923.142,-391.502 998.294,-379.167 1048.78,-369.896"/>
<polygon fill="midnightblue" stroke="midnightblue" points="1049.66,-373.293 1058.85,-368.027 1048.38,-366.411 1049.66,-373.293"/>
</g>
<!-- Node10 -->
<g id="node10" class="node"><title>Node10</title>
<g id="a_node10"><a xlink:href="namespacetlz.html#abb019466ea9f56c0dab27e893d891837" target="_top" xlink:title="tlz::file_exists">
<polygon fill="white" stroke="black" points="733.5,-368 733.5,-387 810.5,-387 810.5,-368 733.5,-368"/>
<text text-anchor="middle" x="772" y="-375" font-family="Helvetica,sans-Serif" font-size="10.00">tlz::file_exists</text>
</a>
</g>
</g>
<!-- Node4&#45;&gt;Node10 -->
<g id="edge9" class="edge"><title>Node4&#45;&gt;Node10</title>
<path fill="none" stroke="midnightblue" d="M613.582,-379.781C646.823,-379.3 690.36,-378.669 723.22,-378.192"/>
<polygon fill="midnightblue" stroke="midnightblue" points="723.539,-381.688 733.488,-378.044 723.438,-374.689 723.539,-381.688"/>
</g>
<!-- Node5&#45;&gt;Node6 -->
<g id="edge5" class="edge"><title>Node5&#45;&gt;Node6</title>
<path fill="none" stroke="midnightblue" d="M810.419,-309.466C841.739,-316.134 886.091,-325.575 916.665,-332.084"/>
<polygon fill="midnightblue" stroke="midnightblue" points="915.957,-335.512 926.467,-334.171 917.415,-328.665 915.957,-335.512"/>
</g>
<!-- Node7 -->
<g id="node7" class="node"><title>Node7</title>
<g id="a_node7"><a xlink:href="classtlz_1_1args__list.html#a73d99bc75998dc14607a3a372d28dc6d" target="_top" xlink:title="tlz::args_list::next_arg">
<polygon fill="white" stroke="black" points="896,-292 896,-311 1009,-311 1009,-292 896,-292"/>
<text text-anchor="middle" x="952.5" y="-299" font-family="Helvetica,sans-Serif" font-size="10.00">tlz::args_list::next_arg</text>
</a>
</g>
</g>
<!-- Node5&#45;&gt;Node7 -->
<g id="edge6" class="edge"><title>Node5&#45;&gt;Node7</title>
<path fill="none" stroke="midnightblue" d="M810.419,-301.5C832.163,-301.5 860.188,-301.5 885.524,-301.5"/>
<polygon fill="midnightblue" stroke="midnightblue" points="885.819,-305 895.819,-301.5 885.819,-298 885.819,-305"/>
</g>
<!-- Node7&#45;&gt;Node8 -->
<g id="edge7" class="edge"><title>Node7&#45;&gt;Node8</title>
<path fill="none" stroke="midnightblue" d="M984.296,-311.078C993.27,-313.984 1003.06,-317.266 1012,-320.5 1033.1,-328.136 1056.5,-337.486 1074.8,-345.001"/>
<polygon fill="midnightblue" stroke="midnightblue" points="1073.55,-348.272 1084.13,-348.855 1076.22,-341.802 1073.55,-348.272"/>
</g>
<!-- Node9 -->
<g id="node9" class="node"><title>Node9</title>
<g id="a_node9"><a xlink:href="namespacetlz.html#a8e4f8c8c2927bc4350de13bfa0f8f9e1" target="_top" xlink:title="tlz::to_string">
<polygon fill="white" stroke="black" points="1072.5,-150 1072.5,-169 1143.5,-169 1143.5,-150 1072.5,-150"/>
<text text-anchor="middle" x="1108" y="-157" font-family="Helvetica,sans-Serif" font-size="10.00">tlz::to_string</text>
</a>
</g>
</g>
<!-- Node7&#45;&gt;Node9 -->
<g id="edge8" class="edge"><title>Node7&#45;&gt;Node9</title>
<path fill="none" stroke="midnightblue" d="M964.051,-291.74C989.902,-267.825 1056.64,-206.084 1088.95,-176.198"/>
<polygon fill="midnightblue" stroke="midnightblue" points="1091.41,-178.689 1096.38,-169.329 1086.66,-173.55 1091.41,-178.689"/>
</g>
<!-- Node11&#45;&gt;Node4 -->
<g id="edge25" class="edge"><title>Node11&#45;&gt;Node4</title>
<path fill="none" stroke="midnightblue" d="M204.029,-448.936C279.327,-434.54 421.537,-407.353 502.199,-391.933"/>
<polygon fill="midnightblue" stroke="midnightblue" points="503.036,-395.336 512.201,-390.02 501.721,-388.461 503.036,-395.336"/>
</g>
<!-- Node12 -->
<g id="node12" class="node"><title>Node12</title>
<g id="a_node12"><a xlink:href="namespacetlz.html#ad75d99f2e1623434fbadee66f3ff29a1" target="_top" xlink:title="tlz::import_image_correspondences">
<polygon fill="white" stroke="black" points="268,-488 268,-507 439,-507 439,-488 268,-488"/>
<text text-anchor="middle" x="353.5" y="-495" font-family="Helvetica,sans-Serif" font-size="10.00">tlz::import_image_correspondences</text>
</a>
</g>
</g>
<!-- Node11&#45;&gt;Node12 -->
<g id="edge13" class="edge"><title>Node11&#45;&gt;Node12</title>
<path fill="none" stroke="midnightblue" d="M202.559,-468.04C230.177,-473.467 264.954,-480.3 294.061,-486.018"/>
<polygon fill="midnightblue" stroke="midnightblue" points="293.612,-489.497 304.099,-487.991 294.962,-482.628 293.612,-489.497"/>
</g>
<!-- Node13 -->
<g id="node13" class="node"><title>Node13</title>
<g id="a_node13"><a xlink:href="namespacetlz.html#ae11c827ac9e581f9d2f98c39aab3750d" target="_top" xlink:title="tlz::file_name_extension">
<polygon fill="white" stroke="black" points="502,-570 502,-589 624,-589 624,-570 502,-570"/>
<text text-anchor="middle" x="563" y="-577" font-family="Helvetica,sans-Serif" font-size="10.00">tlz::file_name_extension</text>
</a>
</g>
</g>
<!-- Node12&#45;&gt;Node13 -->
<g id="edge14" class="edge"><title>Node12&#45;&gt;Node13</title>
<path fill="none" stroke="midnightblue" d="M369.495,-507.025C391.712,-520.741 435.06,-545.994 475,-560.5 482.254,-563.135 489.988,-565.464 497.738,-567.508"/>
<polygon fill="midnightblue" stroke="midnightblue" points="496.979,-570.926 507.528,-569.944 498.669,-564.133 496.979,-570.926"/>
</g>
<!-- Node14 -->
<g id="node14" class="node"><title>Node14</title>
<g id="a_node14"><a xlink:href="namespacetlz.html#a24915249769d936c24ceb34f50b06104" target="_top" xlink:title="tlz::decode_image_correspondences">
<polygon fill="white" stroke="black" points="475,-532 475,-551 651,-551 651,-532 475,-532"/>
<text text-anchor="middle" x="563" y="-539" font-family="Helvetica,sans-Serif" font-size="10.00">tlz::decode_image_correspondences</text>
</a>
</g>
</g>
<!-- Node12&#45;&gt;Node14 -->
<g id="edge15" class="edge"><title>Node12&#45;&gt;Node14</title>
<path fill="none" stroke="midnightblue" d="M399.524,-507.047C431.066,-513.736 473.406,-522.714 506.955,-529.828"/>
<polygon fill="midnightblue" stroke="midnightblue" points="506.555,-533.321 517.063,-531.971 508.007,-526.473 506.555,-533.321"/>
</g>
<!-- Node20 -->
<g id="node20" class="node"><title>Node20</title>
<g id="a_node20"><a xlink:href="namespacetlz.html#aa1be9362f548fcf9378e1fc9074089c4" target="_top" xlink:title="tlz::import_json_file">
<polygon fill="white" stroke="black" points="512.5,-444 512.5,-463 613.5,-463 613.5,-444 512.5,-444"/>
<text text-anchor="middle" x="563" y="-451" font-family="Helvetica,sans-Serif" font-size="10.00">tlz::import_json_file</text>
</a>
</g>
</g>
<!-- Node12&#45;&gt;Node20 -->
<g id="edge23" class="edge"><title>Node12&#45;&gt;Node20</title>
<path fill="none" stroke="midnightblue" d="M399.524,-487.953C431.066,-481.264 473.406,-472.286 506.955,-465.172"/>
<polygon fill="midnightblue" stroke="midnightblue" points="508.007,-468.527 517.063,-463.029 506.555,-461.679 508.007,-468.527"/>
</g>
<!-- Node21 -->
<g id="node21" class="node"><title>Node21</title>
<g id="a_node21"><a xlink:href="namespacetlz.html#a2ec439452fda5eeb03f60715e50fa96a" target="_top" xlink:title="tlz::import_binary\l_image_correspondences">
<polygon fill="white" stroke="black" points="499,-482.5 499,-512.5 627,-512.5 627,-482.5 499,-482.5"/>
<text text-anchor="start" x="507" y="-500.5" font-family="Helvetica,sans-Serif" font-size="10.00">tlz::import_binary</text>
<text text-anchor="middle" x="563" y="-489.5" font-family="Helvetica,sans-Serif" font-size="10.00">_image_correspondences</text>
</a>
</g>
</g>
<!-- Node12&#45;&gt;Node21 -->
<g id="edge24" class="edge"><title>Node12&#45;&gt;Node21</title>
<path fill="none" stroke="midnightblue" d="M439.197,-497.5C455.56,-497.5 472.578,-497.5 488.546,-497.5"/>
<polygon fill="midnightblue" stroke="midnightblue" points="488.87,-501 498.87,-497.5 488.87,-494 488.87,-501"/>
</g>
<!-- Node15 -->
<g id="node15" class="node"><title>Node15</title>
<g id="a_node15"><a xlink:href="namespacetlz.html#a252af14b9b4ac6502d3e9c5dd8dc90b8" target="_top" xlink:title="tlz::has">
<polygon fill="white" stroke="black" points="1204,-589 1204,-608 1253,-608 1253,-589 1204,-589"/>
<text text-anchor="middle" x="1228.5" y="-596" font-family="Helvetica,sans-Serif" font-size="10.00">tlz::has</text>
</a>
</g>
</g>
<!-- Node14&#45;&gt;Node15 -->
<g id="edge16" class="edge"><title>Node14&#45;&gt;Node15</title>
<path fill="none" stroke="midnightblue" d="M651.082,-548.981C799.322,-561.716 1094.32,-587.058 1193.83,-595.607"/>
<polygon fill="midnightblue" stroke="midnightblue" points="1193.65,-599.104 1203.91,-596.473 1194.24,-592.13 1193.65,-599.104"/>
</g>
<!-- Node16 -->
<g id="node16" class="node"><title>Node16</title>
<g id="a_node16"><a xlink:href="namespacetlz.html#ab83b0eb933afca1abe8ccd3470207691" target="_top" xlink:title="tlz::decode_image_correspondence\l_feature">
<polygon fill="white" stroke="black" points="687,-498.5 687,-528.5 857,-528.5 857,-498.5 687,-498.5"/>
<text text-anchor="start" x="695" y="-516.5" font-family="Helvetica,sans-Serif" font-size="10.00">tlz::decode_image_correspondence</text>
<text text-anchor="middle" x="772" y="-505.5" font-family="Helvetica,sans-Serif" font-size="10.00">_feature</text>
</a>
</g>
</g>
<!-- Node14&#45;&gt;Node16 -->
<g id="edge17" class="edge"><title>Node14&#45;&gt;Node16</title>
<path fill="none" stroke="midnightblue" d="M634.37,-531.981C647.951,-530.144 662.383,-528.192 676.585,-526.271"/>
<polygon fill="midnightblue" stroke="midnightblue" points="677.43,-529.689 686.87,-524.88 676.492,-522.752 677.43,-529.689"/>
</g>
<!-- Node16&#45;&gt;Node15 -->
<g id="edge18" class="edge"><title>Node16&#45;&gt;Node15</title>
<path fill="none" stroke="midnightblue" d="M857.245,-511.919C869.246,-511.745 881.436,-511.596 893,-511.5 945.887,-511.059 959.844,-502.728 1012,-511.5 1084.35,-523.669 1101,-535.595 1168,-565.5 1179.93,-570.825 1192.66,-577.708 1203.27,-583.81"/>
<polygon fill="midnightblue" stroke="midnightblue" points="1201.57,-586.875 1211.97,-588.911 1205.11,-580.835 1201.57,-586.875"/>
</g>
<!-- Node17 -->
<g id="node17" class="node"><title>Node17</title>
<g id="a_node17"><a xlink:href="namespacetlz.html#a74e8454f97dace7cffb1afdb6d3ca87b" target="_top" xlink:title="tlz::decode_view_index">
<polygon fill="white" stroke="black" points="893,-444 893,-463 1012,-463 1012,-444 893,-444"/>
<text text-anchor="middle" x="952.5" y="-451" font-family="Helvetica,sans-Serif" font-size="10.00">tlz::decode_view_index</text>
</a>
</g>
</g>
<!-- Node16&#45;&gt;Node17 -->
<g id="edge19" class="edge"><title>Node16&#45;&gt;Node17</title>
<path fill="none" stroke="midnightblue" d="M818.043,-498.359C847.478,-488.465 885.495,-475.687 913.419,-466.3"/>
<polygon fill="midnightblue" stroke="midnightblue" points="914.852,-469.511 923.216,-463.007 912.622,-462.876 914.852,-469.511"/>
</g>
<!-- Node18 -->
<g id="node18" class="node"><title>Node18</title>
<g id="a_node18"><a xlink:href="namespacetlz.html#ae8f9175a86bbe49ac0f4485d5db3080b" target="_top" xlink:title="tlz::decode_feature\l_point">
<polygon fill="white" stroke="black" points="902.5,-520.5 902.5,-550.5 1002.5,-550.5 1002.5,-520.5 902.5,-520.5"/>
<text text-anchor="start" x="910.5" y="-538.5" font-family="Helvetica,sans-Serif" font-size="10.00">tlz::decode_feature</text>
<text text-anchor="middle" x="952.5" y="-527.5" font-family="Helvetica,sans-Serif" font-size="10.00">_point</text>
</a>
</g>
</g>
<!-- Node16&#45;&gt;Node18 -->
<g id="edge20" class="edge"><title>Node16&#45;&gt;Node18</title>
<path fill="none" stroke="midnightblue" d="M857.023,-523.856C868.931,-525.323 880.963,-526.806 892.268,-528.2"/>
<polygon fill="midnightblue" stroke="midnightblue" points="892.068,-531.702 902.422,-529.451 892.925,-524.754 892.068,-531.702"/>
</g>
<!-- Node19 -->
<g id="node19" class="node"><title>Node19</title>
<g id="a_node19"><a xlink:href="namespacetlz.html#add846dc50c32dfb356cb1a7ac11d37ac" target="_top" xlink:title="tlz::get_or">
<polygon fill="white" stroke="black" points="1078,-608 1078,-627 1138,-627 1138,-608 1078,-608"/>
<text text-anchor="middle" x="1108" y="-615" font-family="Helvetica,sans-Serif" font-size="10.00">tlz::get_or</text>
</a>
</g>
</g>
<!-- Node18&#45;&gt;Node19 -->
<g id="edge21" class="edge"><title>Node18&#45;&gt;Node19</title>
<path fill="none" stroke="midnightblue" d="M981.654,-550.54C1009.68,-565.512 1052.4,-588.33 1080.01,-603.081"/>
<polygon fill="midnightblue" stroke="midnightblue" points="1078.63,-606.311 1089.1,-607.936 1081.92,-600.137 1078.63,-606.311"/>
</g>
<!-- Node19&#45;&gt;Node15 -->
<g id="edge22" class="edge"><title>Node19&#45;&gt;Node15</title>
<path fill="none" stroke="midnightblue" d="M1138.29,-612.803C1154.98,-610.128 1175.97,-606.763 1193.39,-603.968"/>
<polygon fill="midnightblue" stroke="midnightblue" points="1194.39,-607.353 1203.71,-602.314 1193.29,-600.441 1194.39,-607.353"/>
</g>
<!-- Node23 -->
<g id="node23" class="node"><title>Node23</title>
<g id="a_node23"><a xlink:href="namespacetlz.html#a8cba4853d0d796a01c72f59f36f2a492" target="_top" xlink:title="tlz::decode_intrinsics">
<polygon fill="white" stroke="black" points="898,-627 898,-646 1007,-646 1007,-627 898,-627"/>
<text text-anchor="middle" x="952.5" y="-634" font-family="Helvetica,sans-Serif" font-size="10.00">tlz::decode_intrinsics</text>
</a>
</g>
</g>
<!-- Node22&#45;&gt;Node23 -->
<g id="edge27" class="edge"><title>Node22&#45;&gt;Node23</title>
<path fill="none" stroke="midnightblue" d="M198.82,-503.895C209.751,-506.035 221.359,-508.59 232,-511.5 342.652,-541.754 362.848,-574.397 475,-598.5 620.312,-629.729 795.522,-635.861 887.675,-636.727"/>
<polygon fill="midnightblue" stroke="midnightblue" points="887.927,-640.229 897.953,-636.805 887.98,-633.229 887.927,-640.229"/>
</g>
<!-- Node25 -->
<g id="node25" class="node"><title>Node25</title>
<g id="a_node25"><a xlink:href="namespacetlz.html#a35f9e03fa4fd9cec699f5fa27962400f" target="_top" xlink:title="tlz::json_arg">
<polygon fill="white" stroke="black" points="318.5,-447 318.5,-466 388.5,-466 388.5,-447 318.5,-447"/>
<text text-anchor="middle" x="353.5" y="-454" font-family="Helvetica,sans-Serif" font-size="10.00">tlz::json_arg</text>
</a>
</g>
</g>
<!-- Node22&#45;&gt;Node25 -->
<g id="edge31" class="edge"><title>Node22&#45;&gt;Node25</title>
<path fill="none" stroke="midnightblue" d="M198.547,-487.523C231.244,-480.935 275.458,-472.025 308.116,-465.444"/>
<polygon fill="midnightblue" stroke="midnightblue" points="309.172,-468.801 318.284,-463.395 307.79,-461.939 309.172,-468.801"/>
</g>
<!-- Node23&#45;&gt;Node15 -->
<g id="edge29" class="edge"><title>Node23&#45;&gt;Node15</title>
<path fill="none" stroke="midnightblue" d="M1007.12,-644.702C1051.24,-649.522 1114.92,-652.005 1168,-636.5 1182.85,-632.161 1197.53,-622.86 1208.59,-614.546"/>
<polygon fill="midnightblue" stroke="midnightblue" points="1210.94,-617.149 1216.62,-608.204 1206.6,-611.656 1210.94,-617.149"/>
</g>
<!-- Node23&#45;&gt;Node19 -->
<g id="edge30" class="edge"><title>Node23&#45;&gt;Node19</title>
<path fill="none" stroke="midnightblue" d="M1007.19,-629.855C1027.08,-627.392 1049.26,-624.648 1067.64,-622.372"/>
<polygon fill="midnightblue" stroke="midnightblue" points="1068.21,-625.828 1077.7,-621.126 1067.35,-618.881 1068.21,-625.828"/>
</g>
<!-- Node24 -->
<g id="node24" class="node"><title>Node24</title>
<g id="a_node24"><a xlink:href="namespacetlz.html#a066563a26e2de02f215b179f3d3a53da" target="_top" xlink:title="tlz::decode_mat">
<polygon fill="white" stroke="black" points="1065,-684 1065,-703 1151,-703 1151,-684 1065,-684"/>
<text text-anchor="middle" x="1108" y="-691" font-family="Helvetica,sans-Serif" font-size="10.00">tlz::decode_mat</text>
</a>
</g>
</g>
<!-- Node23&#45;&gt;Node24 -->
<g id="edge28" class="edge"><title>Node23&#45;&gt;Node24</title>
<path fill="none" stroke="midnightblue" d="M979.192,-646.041C1004.54,-655.453 1043.48,-669.914 1071.72,-680.4"/>
<polygon fill="midnightblue" stroke="midnightblue" points="1070.63,-683.728 1081.22,-683.928 1073.07,-677.166 1070.63,-683.728"/>
</g>
<!-- Node25&#45;&gt;Node4 -->
<g id="edge33" class="edge"><title>Node25&#45;&gt;Node4</title>
<path fill="none" stroke="midnightblue" d="M388.516,-447.866C404.05,-443.661 422.6,-438.271 439,-432.5 471.435,-421.086 507.572,-405.444 532.235,-394.304"/>
<polygon fill="midnightblue" stroke="midnightblue" points="533.762,-397.454 541.414,-390.126 530.863,-391.083 533.762,-397.454"/>
</g>
<!-- Node25&#45;&gt;Node20 -->
<g id="edge32" class="edge"><title>Node25&#45;&gt;Node20</title>
<path fill="none" stroke="midnightblue" d="M388.764,-456.005C419.488,-455.56 465.256,-454.899 502.035,-454.367"/>
<polygon fill="midnightblue" stroke="midnightblue" points="502.202,-457.865 512.15,-454.221 502.101,-450.866 502.202,-457.865"/>
</g>
<!-- Node26&#45;&gt;Node5 -->
<g id="edge35" class="edge"><title>Node26&#45;&gt;Node5</title>
<path fill="none" stroke="midnightblue" d="M407.25,-318.094C489.16,-314.357 645.639,-307.219 723.936,-303.647"/>
<polygon fill="midnightblue" stroke="midnightblue" points="724.165,-307.14 733.996,-303.188 723.846,-300.148 724.165,-307.14"/>
</g>
<!-- Node28 -->
<g id="node28" class="node"><title>Node28</title>
<g id="a_node28"><a xlink:href="namespacetlz.html#a8b5e4acbb884887859e414ffe06a09f8" target="_top" xlink:title="tlz::undistort_points">
<polygon fill="white" stroke="black" points="512,-97 512,-116 614,-116 614,-97 512,-97"/>
<text text-anchor="middle" x="563" y="-104" font-family="Helvetica,sans-Serif" font-size="10.00">tlz::undistort_points</text>
</a>
</g>
</g>
<!-- Node27&#45;&gt;Node28 -->
<g id="edge37" class="edge"><title>Node27&#45;&gt;Node28</title>
<path fill="none" stroke="midnightblue" d="M389.231,-106.5C419.919,-106.5 465.351,-106.5 501.925,-106.5"/>
<polygon fill="midnightblue" stroke="midnightblue" points="501.986,-110 511.986,-106.5 501.986,-103 501.986,-110"/>
</g>
<!-- Node29 -->
<g id="node29" class="node"><title>Node29</title>
<g id="a_node29"><a xlink:href="structtlz_1_1distortion__parameters.html#a307fee036b04519d633fb8456899850c" target="_top" xlink:title="tlz::distortion_parameters\l::is_none">
<polygon fill="white" stroke="black" points="708.5,-87.5 708.5,-117.5 835.5,-117.5 835.5,-87.5 708.5,-87.5"/>
<text text-anchor="start" x="716.5" y="-105.5" font-family="Helvetica,sans-Serif" font-size="10.00">tlz::distortion_parameters</text>
<text text-anchor="middle" x="772" y="-94.5" font-family="Helvetica,sans-Serif" font-size="10.00">::is_none</text>
</a>
</g>
</g>
<!-- Node28&#45;&gt;Node29 -->
<g id="edge38" class="edge"><title>Node28&#45;&gt;Node29</title>
<path fill="none" stroke="midnightblue" d="M614.109,-105.532C639.365,-105.044 670.462,-104.443 698.292,-103.905"/>
<polygon fill="midnightblue" stroke="midnightblue" points="698.449,-107.403 708.38,-103.71 698.314,-100.404 698.449,-107.403"/>
</g>
<!-- Node30 -->
<g id="node30" class="node"><title>Node30</title>
<g id="a_node30"><a xlink:href="structtlz_1_1distortion__parameters.html#a96312c5d7baa4b7b1f2a76e9396037f8" target="_top" xlink:title="tlz::distortion_parameters\l::cv_coeffs">
<polygon fill="white" stroke="black" points="708.5,-136.5 708.5,-166.5 835.5,-166.5 835.5,-136.5 708.5,-136.5"/>
<text text-anchor="start" x="716.5" y="-154.5" font-family="Helvetica,sans-Serif" font-size="10.00">tlz::distortion_parameters</text>
<text text-anchor="middle" x="772" y="-143.5" font-family="Helvetica,sans-Serif" font-size="10.00">::cv_coeffs</text>
</a>
</g>
</g>
<!-- Node28&#45;&gt;Node30 -->
<g id="edge39" class="edge"><title>Node28&#45;&gt;Node30</title>
<path fill="none" stroke="midnightblue" d="M607.899,-116.043C634.129,-121.745 668.106,-129.132 698.253,-135.686"/>
<polygon fill="midnightblue" stroke="midnightblue" points="697.799,-139.168 708.314,-137.873 699.286,-132.328 697.799,-139.168"/>
</g>
<!-- Node35&#45;&gt;Node27 -->
<g id="edge46" class="edge"><title>Node35&#45;&gt;Node27</title>
<path fill="none" stroke="midnightblue" d="M211.148,-139.257C241.852,-132.141 279.154,-123.497 307.728,-116.875"/>
<polygon fill="midnightblue" stroke="midnightblue" points="308.88,-120.201 317.832,-114.534 307.3,-113.382 308.88,-120.201"/>
</g>
<!-- Node36 -->
<g id="node36" class="node"><title>Node36</title>
<g id="a_node36"><a xlink:href="namespacetlz.html#abab56a7d5e8f6eba9520c66a15fafa6d" target="_top" xlink:title="tlz::feature_points\l_for_view">
<polygon fill="white" stroke="black" points="306,-137.5 306,-167.5 401,-167.5 401,-137.5 306,-137.5"/>
<text text-anchor="start" x="314" y="-155.5" font-family="Helvetica,sans-Serif" font-size="10.00">tlz::feature_points</text>
<text text-anchor="middle" x="353.5" y="-144.5" font-family="Helvetica,sans-Serif" font-size="10.00">_for_view</text>
</a>
</g>
</g>
<!-- Node35&#45;&gt;Node36 -->
<g id="edge45" class="edge"><title>Node35&#45;&gt;Node36</title>
<path fill="none" stroke="midnightblue" d="M211.148,-152.5C237.639,-152.5 269.043,-152.5 295.514,-152.5"/>
<polygon fill="midnightblue" stroke="midnightblue" points="295.771,-156 305.771,-152.5 295.771,-149 295.771,-156"/>
</g>
<!-- Node38&#45;&gt;Node13 -->
<g id="edge49" class="edge"><title>Node38&#45;&gt;Node13</title>
<path fill="none" stroke="midnightblue" d="M380.78,-645.875C417.731,-632.341 485.143,-607.65 526.514,-592.497"/>
<polygon fill="midnightblue" stroke="midnightblue" points="527.747,-595.773 535.933,-589.047 525.34,-589.2 527.747,-595.773"/>
</g>
<!-- Node40 -->
<g id="node40" class="node"><title>Node40</title>
<g id="a_node40"><a xlink:href="namespacetlz.html#a0b42822a3802ba98cfb8d42223b3149d" target="_top" xlink:title="tlz::encode_feature\l_points">
<polygon fill="white" stroke="black" points="303.5,-1.5 303.5,-31.5 403.5,-31.5 403.5,-1.5 303.5,-1.5"/>
<text text-anchor="start" x="311.5" y="-19.5" font-family="Helvetica,sans-Serif" font-size="10.00">tlz::encode_feature</text>
<text text-anchor="middle" x="353.5" y="-8.5" font-family="Helvetica,sans-Serif" font-size="10.00">_points</text>
</a>
</g>
</g>
<!-- Node39&#45;&gt;Node40 -->
<g id="edge51" class="edge"><title>Node39&#45;&gt;Node40</title>
<path fill="none" stroke="midnightblue" d="M203.067,-15.7472C230.266,-15.8842 264.288,-16.0556 292.996,-16.2002"/>
<polygon fill="midnightblue" stroke="midnightblue" points="293.292,-19.7017 303.309,-16.2522 293.327,-12.7018 293.292,-19.7017"/>
</g>
<!-- Node41 -->
<g id="node41" class="node"><title>Node41</title>
<g id="a_node41"><a xlink:href="namespacetlz.html#a8f6c31dc4b1dffe7950bcb1f4ff85cbc" target="_top" xlink:title="tlz::encode_feature\l_point">
<polygon fill="white" stroke="black" points="513,-45.5 513,-75.5 613,-75.5 613,-45.5 513,-45.5"/>
<text text-anchor="start" x="521" y="-63.5" font-family="Helvetica,sans-Serif" font-size="10.00">tlz::encode_feature</text>
<text text-anchor="middle" x="563" y="-52.5" font-family="Helvetica,sans-Serif" font-size="10.00">_point</text>
</a>
</g>
</g>
<!-- Node40&#45;&gt;Node41 -->
<g id="edge52" class="edge"><title>Node40&#45;&gt;Node41</title>
<path fill="none" stroke="midnightblue" d="M403.675,-26.9274C433.413,-33.2335 471.515,-41.3129 502.889,-47.9656"/>
<polygon fill="midnightblue" stroke="midnightblue" points="502.311,-51.4207 512.819,-50.0713 503.763,-44.573 502.311,-51.4207"/>
</g>
<!-- Node42 -->
<g id="node42" class="node"><title>Node42</title>
<g id="a_node42"><a xlink:href="namespacetlz.html#aadab29bdc80bc1d0ad6d3784dd427992" target="_top" xlink:title="tlz::encode_view_index">
<polygon fill="white" stroke="black" points="503.5,-7 503.5,-26 622.5,-26 622.5,-7 503.5,-7"/>
<text text-anchor="middle" x="563" y="-14" font-family="Helvetica,sans-Serif" font-size="10.00">tlz::encode_view_index</text>
</a>
</g>
</g>
<!-- Node40&#45;&gt;Node42 -->
<g id="edge53" class="edge"><title>Node40&#45;&gt;Node42</title>
<path fill="none" stroke="midnightblue" d="M403.675,-16.5C430.369,-16.5 463.801,-16.5 493.057,-16.5"/>
<polygon fill="midnightblue" stroke="midnightblue" points="493.213,-20.0001 503.213,-16.5 493.213,-13.0001 493.213,-20.0001"/>
</g>
<!-- Node42&#45;&gt;Node9 -->
<g id="edge54" class="edge"><title>Node42&#45;&gt;Node9</title>
<path fill="none" stroke="midnightblue" d="M622.637,-13.5993C682.585,-12.1794 777.867,-14.2285 857,-35.5 946.576,-59.5785 1041.99,-116.995 1084.42,-144.418"/>
<polygon fill="midnightblue" stroke="midnightblue" points="1082.59,-147.405 1092.88,-149.945 1086.42,-141.545 1082.59,-147.405"/>
</g>
<!-- Node43 -->
<g id="node43" class="node"><title>Node43</title>
<g id="a_node43"><a xlink:href="structtlz_1_1view__index.html#a20518c30015d833cdb2a69b524886b96" target="_top" xlink:title="tlz::view_index::is_2d">
<polygon fill="white" stroke="black" points="716.5,-45 716.5,-64 827.5,-64 827.5,-45 716.5,-45"/>
<text text-anchor="middle" x="772" y="-52" font-family="Helvetica,sans-Serif" font-size="10.00">tlz::view_index::is_2d</text>
</a>
</g>
</g>
<!-- Node42&#45;&gt;Node43 -->
<g id="edge55" class="edge"><title>Node42&#45;&gt;Node43</title>
<path fill="none" stroke="midnightblue" d="M615.968,-26.04C644.266,-31.2348 679.464,-37.6963 709.167,-43.1489"/>
<polygon fill="midnightblue" stroke="midnightblue" points="708.543,-46.5929 719.011,-44.9561 709.807,-39.708 708.543,-46.5929"/>
</g>
</g>
</svg>
