<?xml version="1.0" encoding="UTF-8" standalone="no"?>
<!DOCTYPE svg PUBLIC "-//W3C//DTD SVG 1.1//EN"
 "http://www.w3.org/Graphics/SVG/1.1/DTD/svg11.dtd">
<!-- Generated by graphviz version 2.38.0 (20140413.2041)
 -->
<!-- Title: main Pages: 1 -->
<svg width="1220pt" height="888pt"
 viewBox="0.00 0.00 1220.00 888.00" xmlns="http://www.w3.org/2000/svg" xmlns:xlink="http://www.w3.org/1999/xlink">
<g id="graph0" class="graph" transform="scale(1 1) rotate(0) translate(4 884)">
<title>main</title>
<polygon fill="white" stroke="none" points="-4,4 -4,-884 1216,-884 1216,4 -4,4"/>
<!-- Node1 -->
<g id="node1" class="node"><title>Node1</title>
<polygon fill="#bfbfbf" stroke="black" points="0,-323.5 0,-342.5 38,-342.5 38,-323.5 0,-323.5"/>
<text text-anchor="middle" x="19" y="-330.5" font-family="Helvetica,sans-Serif" font-size="10.00">main</text>
</g>
<!-- Node2 -->
<g id="node2" class="node"><title>Node2</title>
<g id="a_node2"><a xlink:href="namespacetlz.html#a3c03f5d9d6261ec2909938822fc47f8a" target="_top" xlink:title="tlz::get_args">
<polygon fill="white" stroke="black" points="124,-690.5 124,-709.5 195,-709.5 195,-690.5 124,-690.5"/>
<text text-anchor="middle" x="159.5" y="-697.5" font-family="Helvetica,sans-Serif" font-size="10.00">tlz::get_args</text>
</a>
</g>
</g>
<!-- Node1&#45;&gt;Node2 -->
<g id="edge1" class="edge"><title>Node1&#45;&gt;Node2</title>
<path fill="none" stroke="midnightblue" d="M20.0884,-342.751C20.7539,-393.825 26.3994,-630.087 74,-681 84.0813,-691.783 98.8571,-697.09 113.244,-699.535"/>
<polygon fill="midnightblue" stroke="midnightblue" points="113.218,-703.06 123.579,-700.847 114.1,-696.115 113.218,-703.06"/>
</g>
<!-- Node3 -->
<g id="node3" class="node"><title>Node3</title>
<g id="a_node3"><a xlink:href="namespacetlz.html#a91f1aec7120c97452c495ee447e56b57" target="_top" xlink:title="tlz::dataset_arg">
<polygon fill="white" stroke="black" points="117.5,-609.5 117.5,-628.5 201.5,-628.5 201.5,-609.5 117.5,-609.5"/>
<text text-anchor="middle" x="159.5" y="-616.5" font-family="Helvetica,sans-Serif" font-size="10.00">tlz::dataset_arg</text>
</a>
</g>
</g>
<!-- Node1&#45;&gt;Node3 -->
<g id="edge2" class="edge"><title>Node1&#45;&gt;Node3</title>
<path fill="none" stroke="midnightblue" d="M20.874,-342.534C24.8191,-383.699 42.1729,-545.828 74,-584 82.7514,-594.496 95.1687,-601.89 107.798,-607.082"/>
<polygon fill="midnightblue" stroke="midnightblue" points="106.846,-610.462 117.44,-610.639 109.269,-603.894 106.846,-610.462"/>
</g>
<!-- Node11 -->
<g id="node11" class="node"><title>Node11</title>
<g id="a_node11"><a xlink:href="namespacetlz.html#a11d8bb3ca89f4957bfde1cd0d5429a16" target="_top" xlink:title="tlz::image_correspondences_arg">
<polygon fill="white" stroke="black" points="80.5,-652.5 80.5,-671.5 238.5,-671.5 238.5,-652.5 80.5,-652.5"/>
<text text-anchor="middle" x="159.5" y="-659.5" font-family="Helvetica,sans-Serif" font-size="10.00">tlz::image_correspondences_arg</text>
</a>
</g>
</g>
<!-- Node1&#45;&gt;Node11 -->
<g id="edge12" class="edge"><title>Node1&#45;&gt;Node11</title>
<path fill="none" stroke="midnightblue" d="M20.3728,-342.726C22.3679,-389.727 33.2673,-592.908 74,-638 77.3384,-641.696 81.2,-644.839 85.3972,-647.511"/>
<polygon fill="midnightblue" stroke="midnightblue" points="83.9575,-650.71 94.4234,-652.359 87.2697,-644.544 83.9575,-650.71"/>
</g>
<!-- Node22 -->
<g id="node22" class="node"><title>Node22</title>
<g id="a_node22"><a xlink:href="namespacetlz.html#a65770a2c1ff57c5ae6542d4465a3d3f4" target="_top" xlink:title="tlz::out_filename_arg">
<polygon fill="white" stroke="black" points="315.5,-620.5 315.5,-639.5 422.5,-639.5 422.5,-620.5 315.5,-620.5"/>
<text text-anchor="middle" x="369" y="-627.5" font-family="Helvetica,sans-Serif" font-size="10.00">tlz::out_filename_arg</text>
</a>
</g>
</g>
<!-- Node1&#45;&gt;Node22 -->
<g id="edge26" class="edge"><title>Node1&#45;&gt;Node22</title>
<path fill="none" stroke="midnightblue" d="M19.8106,-342.556C19.7147,-373.589 23.5602,-472.777 74,-529 90.5203,-547.414 257.338,-603.782 281,-611 289.488,-613.589 298.543,-615.973 307.485,-618.112"/>
<polygon fill="midnightblue" stroke="midnightblue" points="306.964,-621.584 317.495,-620.422 308.538,-614.763 306.964,-621.584"/>
</g>
<!-- Node23 -->
<g id="node23" class="node"><title>Node23</title>
<g id="a_node23"><a xlink:href="namespacetlz.html#af0d1e8ba5b9f2dbc2b589afab3a21fc8" target="_top" xlink:title="tlz::int_arg">
<polygon fill="white" stroke="black" points="550,-468.5 550,-487.5 612,-487.5 612,-468.5 550,-468.5"/>
<text text-anchor="middle" x="581" y="-475.5" font-family="Helvetica,sans-Serif" font-size="10.00">tlz::int_arg</text>
</a>
</g>
</g>
<!-- Node1&#45;&gt;Node23 -->
<g id="edge28" class="edge"><title>Node1&#45;&gt;Node23</title>
<path fill="none" stroke="midnightblue" d="M23.7825,-342.637C30.868,-359.284 47.8291,-393.16 74,-409 152.372,-456.436 433.94,-472.25 539.58,-476.585"/>
<polygon fill="midnightblue" stroke="midnightblue" points="539.695,-480.092 549.826,-476.991 539.973,-473.097 539.695,-480.092"/>
</g>
<!-- Node24 -->
<g id="node24" class="node"><title>Node24</title>
<g id="a_node24"><a xlink:href="namespacetlz.html#a5186c46291b525427b48828632f7adec" target="_top" xlink:title="tlz::bool_opt_arg">
<polygon fill="white" stroke="black" points="115,-500.5 115,-519.5 204,-519.5 204,-500.5 115,-500.5"/>
<text text-anchor="middle" x="159.5" y="-507.5" font-family="Helvetica,sans-Serif" font-size="10.00">tlz::bool_opt_arg</text>
</a>
</g>
</g>
<!-- Node1&#45;&gt;Node24 -->
<g id="edge32" class="edge"><title>Node1&#45;&gt;Node24</title>
<path fill="none" stroke="midnightblue" d="M23.1318,-342.531C30.0154,-362.5 47.951,-409.561 74,-442 91.1234,-463.324 116.015,-482.339 134.349,-494.802"/>
<polygon fill="midnightblue" stroke="midnightblue" points="132.49,-497.769 142.759,-500.375 136.356,-491.933 132.49,-497.769"/>
</g>
<!-- Node28 -->
<g id="node28" class="node"><title>Node28</title>
<g id="a_node28"><a xlink:href="classtlz_1_1dataset.html#ad7d438f87e20fd0a734aabff2e6d52a9" target="_top" xlink:title="tlz::dataset::group">
<polygon fill="white" stroke="black" points="112,-342.5 112,-361.5 207,-361.5 207,-342.5 112,-342.5"/>
<text text-anchor="middle" x="159.5" y="-349.5" font-family="Helvetica,sans-Serif" font-size="10.00">tlz::dataset::group</text>
</a>
</g>
</g>
<!-- Node1&#45;&gt;Node28 -->
<g id="edge40" class="edge"><title>Node1&#45;&gt;Node28</title>
<path fill="none" stroke="midnightblue" d="M38.1065,-335.484C54.33,-337.71 79.0151,-341.096 101.819,-344.224"/>
<polygon fill="midnightblue" stroke="midnightblue" points="101.402,-347.7 111.785,-345.591 102.354,-340.765 101.402,-347.7"/>
</g>
<!-- Node30 -->
<g id="node30" class="node"><title>Node30</title>
<g id="a_node30"><a xlink:href="classtlz_1_1dataset.html#a15180d3b04937d9f1c69041a220b943b" target="_top" xlink:title="tlz::dataset::x_min">
<polygon fill="white" stroke="black" points="110.5,-304.5 110.5,-323.5 208.5,-323.5 208.5,-304.5 110.5,-304.5"/>
<text text-anchor="middle" x="159.5" y="-311.5" font-family="Helvetica,sans-Serif" font-size="10.00">tlz::dataset::x_min</text>
</a>
</g>
</g>
<!-- Node1&#45;&gt;Node30 -->
<g id="edge43" class="edge"><title>Node1&#45;&gt;Node30</title>
<path fill="none" stroke="midnightblue" d="M38.1065,-330.516C53.9394,-328.344 77.8311,-325.066 100.168,-322.002"/>
<polygon fill="midnightblue" stroke="midnightblue" points="100.856,-325.441 110.287,-320.614 99.9043,-318.506 100.856,-325.441"/>
</g>
<!-- Node31 -->
<g id="node31" class="node"><title>Node31</title>
<g id="a_node31"><a xlink:href="classtlz_1_1dataset.html#a280e3ae6c4b37e1e18fabf00b70be20a" target="_top" xlink:title="tlz::dataset::x_max">
<polygon fill="white" stroke="black" points="109,-266.5 109,-285.5 210,-285.5 210,-266.5 109,-266.5"/>
<text text-anchor="middle" x="159.5" y="-273.5" font-family="Helvetica,sans-Serif" font-size="10.00">tlz::dataset::x_max</text>
</a>
</g>
</g>
<!-- Node1&#45;&gt;Node31 -->
<g id="edge44" class="edge"><title>Node1&#45;&gt;Node31</title>
<path fill="none" stroke="midnightblue" d="M30.7978,-323.452C41.1748,-314.772 57.6506,-302.246 74,-295 81.8056,-291.541 90.3056,-288.681 98.8081,-286.325"/>
<polygon fill="midnightblue" stroke="midnightblue" points="99.9264,-289.652 108.749,-283.786 98.1937,-282.87 99.9264,-289.652"/>
</g>
<!-- Node32 -->
<g id="node32" class="node"><title>Node32</title>
<g id="a_node32"><a xlink:href="classtlz_1_1dataset.html#a7efef5473f244709a47ff506267652b1" target="_top" xlink:title="tlz::dataset::x_step">
<polygon fill="white" stroke="black" points="109,-228.5 109,-247.5 210,-247.5 210,-228.5 109,-228.5"/>
<text text-anchor="middle" x="159.5" y="-235.5" font-family="Helvetica,sans-Serif" font-size="10.00">tlz::dataset::x_step</text>
</a>
</g>
</g>
<!-- Node1&#45;&gt;Node32 -->
<g id="edge45" class="edge"><title>Node1&#45;&gt;Node32</title>
<path fill="none" stroke="midnightblue" d="M24.0436,-323.33C31.4188,-306.942 48.666,-273.857 74,-257 81.4583,-252.037 90.0218,-248.356 98.7721,-245.627"/>
<polygon fill="midnightblue" stroke="midnightblue" points="99.9496,-248.934 108.682,-242.935 98.114,-242.179 99.9496,-248.934"/>
</g>
<!-- Node33 -->
<g id="node33" class="node"><title>Node33</title>
<g id="a_node33"><a xlink:href="classtlz_1_1dataset.html#a3a77e1219653f07bef6ec7b08cbf7dcf" target="_top" xlink:title="tlz::dataset::y_min">
<polygon fill="white" stroke="black" points="110.5,-190.5 110.5,-209.5 208.5,-209.5 208.5,-190.5 110.5,-190.5"/>
<text text-anchor="middle" x="159.5" y="-197.5" font-family="Helvetica,sans-Serif" font-size="10.00">tlz::dataset::y_min</text>
</a>
</g>
</g>
<!-- Node1&#45;&gt;Node33 -->
<g id="edge46" class="edge"><title>Node1&#45;&gt;Node33</title>
<path fill="none" stroke="midnightblue" d="M21.6471,-323.283C25.9417,-301.094 39.6288,-246.5 74,-219 81.6683,-212.865 90.9239,-208.623 100.458,-205.709"/>
<polygon fill="midnightblue" stroke="midnightblue" points="101.633,-209.02 110.439,-203.128 99.8811,-202.243 101.633,-209.02"/>
</g>
<!-- Node34 -->
<g id="node34" class="node"><title>Node34</title>
<g id="a_node34"><a xlink:href="classtlz_1_1dataset.html#a6900b6a88a2ac1e23d1a51da20f650e4" target="_top" xlink:title="tlz::dataset::y_max">
<polygon fill="white" stroke="black" points="109,-152.5 109,-171.5 210,-171.5 210,-152.5 109,-152.5"/>
<text text-anchor="middle" x="159.5" y="-159.5" font-family="Helvetica,sans-Serif" font-size="10.00">tlz::dataset::y_max</text>
</a>
</g>
</g>
<!-- Node1&#45;&gt;Node34 -->
<g id="edge47" class="edge"><title>Node1&#45;&gt;Node34</title>
<path fill="none" stroke="midnightblue" d="M20.3633,-323.437C21.926,-296.568 30.2024,-219.827 74,-181 81.0235,-174.774 89.6459,-170.454 98.6698,-167.482"/>
<polygon fill="midnightblue" stroke="midnightblue" points="99.8502,-170.787 108.563,-164.758 97.9923,-164.038 99.8502,-170.787"/>
</g>
<!-- Node35 -->
<g id="node35" class="node"><title>Node35</title>
<g id="a_node35"><a xlink:href="classtlz_1_1dataset.html#a95703f1285ba42a810d46644128daf9a" target="_top" xlink:title="tlz::dataset::y_step">
<polygon fill="white" stroke="black" points="109,-114.5 109,-133.5 210,-133.5 210,-114.5 109,-114.5"/>
<text text-anchor="middle" x="159.5" y="-121.5" font-family="Helvetica,sans-Serif" font-size="10.00">tlz::dataset::y_step</text>
</a>
</g>
</g>
<!-- Node1&#45;&gt;Node35 -->
<g id="edge48" class="edge"><title>Node1&#45;&gt;Node35</title>
<path fill="none" stroke="midnightblue" d="M19.5782,-323.408C18.7705,-292.316 20.6826,-193.426 74,-143 80.9729,-136.405 89.7216,-131.918 98.9272,-128.897"/>
<polygon fill="midnightblue" stroke="midnightblue" points="99.9024,-132.259 108.63,-126.253 98.062,-125.505 99.9024,-132.259"/>
</g>
<!-- Node36 -->
<g id="node36" class="node"><title>Node36</title>
<g id="a_node36"><a xlink:href="cg__filter__features_8cc.html#ae42a503e67a74591c70a625c6864a111" target="_top" xlink:title="avg_lattice_vector">
<polygon fill="white" stroke="black" points="111.5,-76.5 111.5,-95.5 207.5,-95.5 207.5,-76.5 111.5,-76.5"/>
<text text-anchor="middle" x="159.5" y="-83.5" font-family="Helvetica,sans-Serif" font-size="10.00">avg_lattice_vector</text>
</a>
</g>
</g>
<!-- Node1&#45;&gt;Node36 -->
<g id="edge49" class="edge"><title>Node1&#45;&gt;Node36</title>
<path fill="none" stroke="midnightblue" d="M20.9323,-323.419C24.939,-284.225 41.9631,-136.674 74,-105 81.5358,-97.5495 91.3267,-92.7612 101.56,-89.734"/>
<polygon fill="midnightblue" stroke="midnightblue" points="102.551,-93.0953 111.447,-87.3418 100.905,-86.2916 102.551,-93.0953"/>
</g>
<!-- Node37 -->
<g id="node37" class="node"><title>Node37</title>
<g id="a_node37"><a xlink:href="namespacetlz.html#a318f0ec11ecbe39c32ad870473ea9c35" target="_top" xlink:title="Compute square of a number. ">
<polygon fill="white" stroke="black" points="137.5,-38.5 137.5,-57.5 181.5,-57.5 181.5,-38.5 137.5,-38.5"/>
<text text-anchor="middle" x="159.5" y="-45.5" font-family="Helvetica,sans-Serif" font-size="10.00">tlz::sq</text>
</a>
</g>
</g>
<!-- Node1&#45;&gt;Node37 -->
<g id="edge50" class="edge"><title>Node1&#45;&gt;Node37</title>
<path fill="none" stroke="midnightblue" d="M20.5893,-323.338C23.4244,-280.083 37.0726,-104.707 74,-67 87.7197,-52.9907 109.388,-48.3238 127.348,-47.1165"/>
<polygon fill="midnightblue" stroke="midnightblue" points="127.535,-50.6122 137.405,-46.761 127.288,-43.6165 127.535,-50.6122"/>
</g>
<!-- Node41 -->
<g id="node41" class="node"><title>Node41</title>
<g id="a_node41"><a xlink:href="namespacetlz.html#a703280f6c42435c957e976f0ab000b30" target="_top" xlink:title="tlz::export_image_corresponcences">
<polygon fill="white" stroke="black" points="74,-380.5 74,-399.5 245,-399.5 245,-380.5 74,-380.5"/>
<text text-anchor="middle" x="159.5" y="-387.5" font-family="Helvetica,sans-Serif" font-size="10.00">tlz::export_image_corresponcences</text>
</a>
</g>
</g>
<!-- Node1&#45;&gt;Node41 -->
<g id="edge54" class="edge"><title>Node1&#45;&gt;Node41</title>
<path fill="none" stroke="midnightblue" d="M30.7978,-342.548C41.1748,-351.228 57.6506,-363.754 74,-371 79.6834,-373.519 85.735,-375.72 91.8877,-377.64"/>
<polygon fill="midnightblue" stroke="midnightblue" points="91.0232,-381.033 101.601,-380.431 92.9563,-374.305 91.0232,-381.033"/>
</g>
<!-- Node4 -->
<g id="node4" class="node"><title>Node4</title>
<g id="a_node4"><a xlink:href="namespacetlz.html#a634de7ca11e100e4a118dffe80376a75" target="_top" xlink:title="tlz::in_filename_arg">
<polygon fill="white" stroke="black" points="318.5,-658.5 318.5,-677.5 419.5,-677.5 419.5,-658.5 318.5,-658.5"/>
<text text-anchor="middle" x="369" y="-665.5" font-family="Helvetica,sans-Serif" font-size="10.00">tlz::in_filename_arg</text>
</a>
</g>
</g>
<!-- Node3&#45;&gt;Node4 -->
<g id="edge3" class="edge"><title>Node3&#45;&gt;Node4</title>
<path fill="none" stroke="midnightblue" d="M197.617,-628.536C221.409,-634.575 252.974,-642.452 281,-649 291.382,-651.425 302.484,-653.923 313.164,-656.278"/>
<polygon fill="midnightblue" stroke="midnightblue" points="312.72,-659.763 323.238,-658.484 314.218,-652.925 312.72,-659.763"/>
</g>
<!-- Node5 -->
<g id="node5" class="node"><title>Node5</title>
<g id="a_node5"><a xlink:href="namespacetlz.html#a0621d598fb83b13bf028f3e6293d04f8" target="_top" xlink:title="tlz::string_arg">
<polygon fill="white" stroke="black" points="543,-582.5 543,-601.5 619,-601.5 619,-582.5 543,-582.5"/>
<text text-anchor="middle" x="581" y="-589.5" font-family="Helvetica,sans-Serif" font-size="10.00">tlz::string_arg</text>
</a>
</g>
</g>
<!-- Node4&#45;&gt;Node5 -->
<g id="edge4" class="edge"><title>Node4&#45;&gt;Node5</title>
<path fill="none" stroke="midnightblue" d="M419.888,-661.791C432.459,-658.983 445.609,-654.908 457,-649 476.268,-639.006 474.01,-626.512 493,-616 505.235,-609.228 519.513,-604.26 532.923,-600.663"/>
<polygon fill="midnightblue" stroke="midnightblue" points="534.098,-603.977 542.96,-598.171 532.411,-597.183 534.098,-603.977"/>
</g>
<!-- Node6 -->
<g id="node6" class="node"><title>Node6</title>
<g id="a_node6"><a xlink:href="namespacetlz.html#a780431daab8d2595372eacb43143b52d" target="_top" xlink:title="tlz::args">
<polygon fill="white" stroke="black" points="764,-544.5 764,-563.5 816,-563.5 816,-544.5 764,-544.5"/>
<text text-anchor="middle" x="790" y="-551.5" font-family="Helvetica,sans-Serif" font-size="10.00">tlz::args</text>
</a>
</g>
</g>
<!-- Node4&#45;&gt;Node6 -->
<g id="edge10" class="edge"><title>Node4&#45;&gt;Node6</title>
<path fill="none" stroke="midnightblue" d="M419.649,-662.473C479.776,-654.888 583.61,-638.91 669,-611 702.912,-599.916 739.655,-581.415 763.427,-568.508"/>
<polygon fill="midnightblue" stroke="midnightblue" points="765.401,-571.416 772.472,-563.525 762.024,-565.285 765.401,-571.416"/>
</g>
<!-- Node8 -->
<g id="node8" class="node"><title>Node8</title>
<g id="a_node8"><a xlink:href="classtlz_1_1args__list.html#a38ad21acd64a4af98ffdf4a47837cdbe" target="_top" xlink:title="tlz::args_list::usage_fail">
<polygon fill="white" stroke="black" points="911,-506.5 911,-525.5 1031,-525.5 1031,-506.5 911,-506.5"/>
<text text-anchor="middle" x="971" y="-513.5" font-family="Helvetica,sans-Serif" font-size="10.00">tlz::args_list::usage_fail</text>
</a>
</g>
</g>
<!-- Node4&#45;&gt;Node8 -->
<g id="edge11" class="edge"><title>Node4&#45;&gt;Node8</title>
<path fill="none" stroke="midnightblue" d="M419.504,-668.375C479.27,-667.909 582.531,-664.159 669,-646 764.061,-626.036 787.138,-614.416 875,-573 900.866,-560.807 928.729,-543.552 947.546,-531.227"/>
<polygon fill="midnightblue" stroke="midnightblue" points="949.608,-534.059 956.009,-525.616 945.74,-528.225 949.608,-534.059"/>
</g>
<!-- Node10 -->
<g id="node10" class="node"><title>Node10</title>
<g id="a_node10"><a xlink:href="namespacetlz.html#abb019466ea9f56c0dab27e893d891837" target="_top" xlink:title="tlz::file_exists">
<polygon fill="white" stroke="black" points="542.5,-696.5 542.5,-715.5 619.5,-715.5 619.5,-696.5 542.5,-696.5"/>
<text text-anchor="middle" x="581" y="-703.5" font-family="Helvetica,sans-Serif" font-size="10.00">tlz::file_exists</text>
</a>
</g>
</g>
<!-- Node4&#45;&gt;Node10 -->
<g id="edge9" class="edge"><title>Node4&#45;&gt;Node10</title>
<path fill="none" stroke="midnightblue" d="M419.501,-676.957C453.568,-683.122 498.572,-691.265 532.254,-697.36"/>
<polygon fill="midnightblue" stroke="midnightblue" points="531.855,-700.845 542.319,-699.182 533.102,-693.957 531.855,-700.845"/>
</g>
<!-- Node5&#45;&gt;Node6 -->
<g id="edge5" class="edge"><title>Node5&#45;&gt;Node6</title>
<path fill="none" stroke="midnightblue" d="M619.007,-585.206C657.168,-578.201 716.241,-567.357 753.746,-560.472"/>
<polygon fill="midnightblue" stroke="midnightblue" points="754.513,-563.89 763.716,-558.641 753.249,-557.005 754.513,-563.89"/>
</g>
<!-- Node7 -->
<g id="node7" class="node"><title>Node7</title>
<g id="a_node7"><a xlink:href="classtlz_1_1args__list.html#a73d99bc75998dc14607a3a372d28dc6d" target="_top" xlink:title="tlz::args_list::next_arg">
<polygon fill="white" stroke="black" points="733.5,-506.5 733.5,-525.5 846.5,-525.5 846.5,-506.5 733.5,-506.5"/>
<text text-anchor="middle" x="790" y="-513.5" font-family="Helvetica,sans-Serif" font-size="10.00">tlz::args_list::next_arg</text>
</a>
</g>
</g>
<!-- Node5&#45;&gt;Node7 -->
<g id="edge6" class="edge"><title>Node5&#45;&gt;Node7</title>
<path fill="none" stroke="midnightblue" d="M599.439,-582.479C622.849,-570.038 666.011,-548.276 705,-535 712.647,-532.396 720.809,-530.045 728.926,-527.956"/>
<polygon fill="midnightblue" stroke="midnightblue" points="729.892,-531.323 738.768,-525.538 728.222,-524.525 729.892,-531.323"/>
</g>
<!-- Node7&#45;&gt;Node8 -->
<g id="edge7" class="edge"><title>Node7&#45;&gt;Node8</title>
<path fill="none" stroke="midnightblue" d="M846.656,-516C863.808,-516 882.905,-516 900.849,-516"/>
<polygon fill="midnightblue" stroke="midnightblue" points="900.968,-519.5 910.968,-516 900.968,-512.5 900.968,-519.5"/>
</g>
<!-- Node9 -->
<g id="node9" class="node"><title>Node9</title>
<g id="a_node9"><a xlink:href="namespacetlz.html#a8e4f8c8c2927bc4350de13bfa0f8f9e1" target="_top" xlink:title="tlz::to_string">
<polygon fill="white" stroke="black" points="935.5,-468.5 935.5,-487.5 1006.5,-487.5 1006.5,-468.5 935.5,-468.5"/>
<text text-anchor="middle" x="971" y="-475.5" font-family="Helvetica,sans-Serif" font-size="10.00">tlz::to_string</text>
</a>
</g>
</g>
<!-- Node7&#45;&gt;Node9 -->
<g id="edge8" class="edge"><title>Node7&#45;&gt;Node9</title>
<path fill="none" stroke="midnightblue" d="M836.169,-506.411C863.445,-500.621 898.069,-493.27 925.266,-487.497"/>
<polygon fill="midnightblue" stroke="midnightblue" points="926.24,-490.868 935.295,-485.368 924.786,-484.021 926.24,-490.868"/>
</g>
<!-- Node11&#45;&gt;Node4 -->
<g id="edge25" class="edge"><title>Node11&#45;&gt;Node4</title>
<path fill="none" stroke="midnightblue" d="M238.651,-664.26C261.759,-664.928 286.674,-665.648 308.41,-666.277"/>
<polygon fill="midnightblue" stroke="midnightblue" points="308.381,-669.777 318.478,-666.568 308.584,-662.78 308.381,-669.777"/>
</g>
<!-- Node12 -->
<g id="node12" class="node"><title>Node12</title>
<g id="a_node12"><a xlink:href="namespacetlz.html#ad75d99f2e1623434fbadee66f3ff29a1" target="_top" xlink:title="tlz::import_image_correspondences">
<polygon fill="white" stroke="black" points="283.5,-734.5 283.5,-753.5 454.5,-753.5 454.5,-734.5 283.5,-734.5"/>
<text text-anchor="middle" x="369" y="-741.5" font-family="Helvetica,sans-Serif" font-size="10.00">tlz::import_image_correspondences</text>
</a>
</g>
</g>
<!-- Node11&#45;&gt;Node12 -->
<g id="edge13" class="edge"><title>Node11&#45;&gt;Node12</title>
<path fill="none" stroke="midnightblue" d="M212.483,-671.519C223.373,-674.114 234.679,-677.264 245,-681 280.65,-693.903 319.155,-714.882 343.407,-729.05"/>
<polygon fill="midnightblue" stroke="midnightblue" points="341.883,-732.215 352.271,-734.297 345.449,-726.191 341.883,-732.215"/>
</g>
<!-- Node13 -->
<g id="node13" class="node"><title>Node13</title>
<g id="a_node13"><a xlink:href="namespacetlz.html#ae11c827ac9e581f9d2f98c39aab3750d" target="_top" xlink:title="tlz::file_name_extension">
<polygon fill="white" stroke="black" points="520,-342.5 520,-361.5 642,-361.5 642,-342.5 520,-342.5"/>
<text text-anchor="middle" x="581" y="-349.5" font-family="Helvetica,sans-Serif" font-size="10.00">tlz::file_name_extension</text>
</a>
</g>
</g>
<!-- Node12&#45;&gt;Node13 -->
<g id="edge14" class="edge"><title>Node12&#45;&gt;Node13</title>
<path fill="none" stroke="midnightblue" d="M395.495,-734.456C415.732,-725.459 442.888,-709.908 457,-687 531.138,-566.65 398.252,-475.897 493,-371 497.804,-365.681 503.721,-361.666 510.191,-358.656"/>
<polygon fill="midnightblue" stroke="midnightblue" points="511.894,-361.753 520,-354.931 509.409,-355.209 511.894,-361.753"/>
</g>
<!-- Node14 -->
<g id="node14" class="node"><title>Node14</title>
<g id="a_node14"><a xlink:href="namespacetlz.html#a24915249769d936c24ceb34f50b06104" target="_top" xlink:title="tlz::decode_image_correspondences">
<polygon fill="white" stroke="black" points="493,-822.5 493,-841.5 669,-841.5 669,-822.5 493,-822.5"/>
<text text-anchor="middle" x="581" y="-829.5" font-family="Helvetica,sans-Serif" font-size="10.00">tlz::decode_image_correspondences</text>
</a>
</g>
</g>
<!-- Node12&#45;&gt;Node14 -->
<g id="edge15" class="edge"><title>Node12&#45;&gt;Node14</title>
<path fill="none" stroke="midnightblue" d="M383.722,-753.506C405.769,-768.353 450.886,-796.998 493,-813 499.934,-815.635 507.324,-817.949 514.756,-819.971"/>
<polygon fill="midnightblue" stroke="midnightblue" points="513.961,-823.38 524.516,-822.462 515.693,-816.597 513.961,-823.38"/>
</g>
<!-- Node20 -->
<g id="node20" class="node"><title>Node20</title>
<g id="a_node20"><a xlink:href="namespacetlz.html#aa1be9362f548fcf9378e1fc9074089c4" target="_top" xlink:title="tlz::import_json_file">
<polygon fill="white" stroke="black" points="530.5,-734.5 530.5,-753.5 631.5,-753.5 631.5,-734.5 530.5,-734.5"/>
<text text-anchor="middle" x="581" y="-741.5" font-family="Helvetica,sans-Serif" font-size="10.00">tlz::import_json_file</text>
</a>
</g>
</g>
<!-- Node12&#45;&gt;Node20 -->
<g id="edge23" class="edge"><title>Node12&#45;&gt;Node20</title>
<path fill="none" stroke="midnightblue" d="M454.507,-744C476.542,-744 499.83,-744 520.282,-744"/>
<polygon fill="midnightblue" stroke="midnightblue" points="520.386,-747.5 530.386,-744 520.386,-740.5 520.386,-747.5"/>
</g>
<!-- Node21 -->
<g id="node21" class="node"><title>Node21</title>
<g id="a_node21"><a xlink:href="namespacetlz.html#a2ec439452fda5eeb03f60715e50fa96a" target="_top" xlink:title="tlz::import_binary\l_image_correspondences">
<polygon fill="white" stroke="black" points="517,-773 517,-803 645,-803 645,-773 517,-773"/>
<text text-anchor="start" x="525" y="-791" font-family="Helvetica,sans-Serif" font-size="10.00">tlz::import_binary</text>
<text text-anchor="middle" x="581" y="-780" font-family="Helvetica,sans-Serif" font-size="10.00">_image_correspondences</text>
</a>
</g>
</g>
<!-- Node12&#45;&gt;Node21 -->
<g id="edge24" class="edge"><title>Node12&#45;&gt;Node21</title>
<path fill="none" stroke="midnightblue" d="M415.567,-753.547C442.228,-759.133 476.512,-766.317 506.87,-772.677"/>
<polygon fill="midnightblue" stroke="midnightblue" points="506.492,-776.174 516.998,-774.799 507.928,-769.323 506.492,-776.174"/>
</g>
<!-- Node15 -->
<g id="node15" class="node"><title>Node15</title>
<g id="a_node15"><a xlink:href="namespacetlz.html#a252af14b9b4ac6502d3e9c5dd8dc90b8" target="_top" xlink:title="tlz::has">
<polygon fill="white" stroke="black" points="1163,-754.5 1163,-773.5 1212,-773.5 1212,-754.5 1163,-754.5"/>
<text text-anchor="middle" x="1187.5" y="-761.5" font-family="Helvetica,sans-Serif" font-size="10.00">tlz::has</text>
</a>
</g>
</g>
<!-- Node14&#45;&gt;Node15 -->
<g id="edge16" class="edge"><title>Node14&#45;&gt;Node15</title>
<path fill="none" stroke="midnightblue" d="M625.593,-822.473C708.431,-804.445 882.859,-766.878 911,-764 997.804,-755.123 1100.8,-758.898 1152.83,-761.801"/>
<polygon fill="midnightblue" stroke="midnightblue" points="1152.65,-765.296 1162.83,-762.384 1153.05,-758.308 1152.65,-765.296"/>
</g>
<!-- Node16 -->
<g id="node16" class="node"><title>Node16</title>
<g id="a_node16"><a xlink:href="namespacetlz.html#ab83b0eb933afca1abe8ccd3470207691" target="_top" xlink:title="tlz::decode_image_correspondence\l_feature">
<polygon fill="white" stroke="black" points="705,-817 705,-847 875,-847 875,-817 705,-817"/>
<text text-anchor="start" x="713" y="-835" font-family="Helvetica,sans-Serif" font-size="10.00">tlz::decode_image_correspondence</text>
<text text-anchor="middle" x="790" y="-824" font-family="Helvetica,sans-Serif" font-size="10.00">_feature</text>
</a>
</g>
</g>
<!-- Node14&#45;&gt;Node16 -->
<g id="edge17" class="edge"><title>Node14&#45;&gt;Node16</title>
<path fill="none" stroke="midnightblue" d="M669.187,-832C677.592,-832 686.144,-832 694.614,-832"/>
<polygon fill="midnightblue" stroke="midnightblue" points="694.89,-835.5 704.89,-832 694.89,-828.5 694.89,-835.5"/>
</g>
<!-- Node16&#45;&gt;Node15 -->
<g id="edge18" class="edge"><title>Node16&#45;&gt;Node15</title>
<path fill="none" stroke="midnightblue" d="M875.325,-836.779C944.843,-837.967 1044.99,-833.257 1127,-804 1141.8,-798.72 1156.47,-788.919 1167.55,-780.341"/>
<polygon fill="midnightblue" stroke="midnightblue" points="1170.02,-782.845 1175.59,-773.833 1165.61,-777.404 1170.02,-782.845"/>
</g>
<!-- Node17 -->
<g id="node17" class="node"><title>Node17</title>
<g id="a_node17"><a xlink:href="namespacetlz.html#a74e8454f97dace7cffb1afdb6d3ca87b" target="_top" xlink:title="tlz::decode_view_index">
<polygon fill="white" stroke="black" points="911.5,-860.5 911.5,-879.5 1030.5,-879.5 1030.5,-860.5 911.5,-860.5"/>
<text text-anchor="middle" x="971" y="-867.5" font-family="Helvetica,sans-Serif" font-size="10.00">tlz::decode_view_index</text>
</a>
</g>
</g>
<!-- Node16&#45;&gt;Node17 -->
<g id="edge19" class="edge"><title>Node16&#45;&gt;Node17</title>
<path fill="none" stroke="midnightblue" d="M861.746,-847.019C879.468,-850.781 898.218,-854.761 915.044,-858.333"/>
<polygon fill="midnightblue" stroke="midnightblue" points="914.737,-861.846 925.246,-860.499 916.19,-854.999 914.737,-861.846"/>
</g>
<!-- Node18 -->
<g id="node18" class="node"><title>Node18</title>
<g id="a_node18"><a xlink:href="namespacetlz.html#ae8f9175a86bbe49ac0f4485d5db3080b" target="_top" xlink:title="tlz::decode_feature\l_point">
<polygon fill="white" stroke="black" points="921,-773 921,-803 1021,-803 1021,-773 921,-773"/>
<text text-anchor="start" x="929" y="-791" font-family="Helvetica,sans-Serif" font-size="10.00">tlz::decode_feature</text>
<text text-anchor="middle" x="971" y="-780" font-family="Helvetica,sans-Serif" font-size="10.00">_point</text>
</a>
</g>
</g>
<!-- Node16&#45;&gt;Node18 -->
<g id="edge20" class="edge"><title>Node16&#45;&gt;Node18</title>
<path fill="none" stroke="midnightblue" d="M852.101,-816.981C871.074,-812.317 891.946,-807.186 910.788,-802.555"/>
<polygon fill="midnightblue" stroke="midnightblue" points="911.852,-805.898 920.728,-800.112 910.181,-799.1 911.852,-805.898"/>
</g>
<!-- Node19 -->
<g id="node19" class="node"><title>Node19</title>
<g id="a_node19"><a xlink:href="namespacetlz.html#add846dc50c32dfb356cb1a7ac11d37ac" target="_top" xlink:title="tlz::get_or">
<polygon fill="white" stroke="black" points="1067,-775.5 1067,-794.5 1127,-794.5 1127,-775.5 1067,-775.5"/>
<text text-anchor="middle" x="1097" y="-782.5" font-family="Helvetica,sans-Serif" font-size="10.00">tlz::get_or</text>
</a>
</g>
</g>
<!-- Node18&#45;&gt;Node19 -->
<g id="edge21" class="edge"><title>Node18&#45;&gt;Node19</title>
<path fill="none" stroke="midnightblue" d="M1021.01,-786.814C1032.93,-786.526 1045.52,-786.221 1056.91,-785.946"/>
<polygon fill="midnightblue" stroke="midnightblue" points="1057.07,-789.443 1066.98,-785.702 1056.9,-782.445 1057.07,-789.443"/>
</g>
<!-- Node19&#45;&gt;Node15 -->
<g id="edge22" class="edge"><title>Node19&#45;&gt;Node15</title>
<path fill="none" stroke="midnightblue" d="M1127.47,-778.007C1135.62,-776.073 1144.53,-773.96 1152.89,-771.975"/>
<polygon fill="midnightblue" stroke="midnightblue" points="1153.82,-775.351 1162.74,-769.637 1152.21,-768.541 1153.82,-775.351"/>
</g>
<!-- Node22&#45;&gt;Node5 -->
<g id="edge27" class="edge"><title>Node22&#45;&gt;Node5</title>
<path fill="none" stroke="midnightblue" d="M422.721,-620.46C456.487,-614.35 499.938,-606.487 532.61,-600.575"/>
<polygon fill="midnightblue" stroke="midnightblue" points="533.596,-603.954 542.813,-598.729 532.35,-597.066 533.596,-603.954"/>
</g>
<!-- Node23&#45;&gt;Node6 -->
<g id="edge29" class="edge"><title>Node23&#45;&gt;Node6</title>
<path fill="none" stroke="midnightblue" d="M612.166,-480.153C629.675,-482.451 651.631,-487.199 669,-497 689.262,-508.433 684.781,-523.492 705,-535 719.817,-543.433 738.099,-548.123 753.82,-550.732"/>
<polygon fill="midnightblue" stroke="midnightblue" points="753.321,-554.196 763.719,-552.164 754.323,-547.268 753.321,-554.196"/>
</g>
<!-- Node23&#45;&gt;Node7 -->
<g id="edge30" class="edge"><title>Node23&#45;&gt;Node7</title>
<path fill="none" stroke="midnightblue" d="M612.1,-483.526C642.156,-489.043 689.227,-497.684 727.259,-504.666"/>
<polygon fill="midnightblue" stroke="midnightblue" points="726.752,-508.131 737.22,-506.494 728.016,-501.246 726.752,-508.131"/>
</g>
<!-- Node23&#45;&gt;Node8 -->
<g id="edge31" class="edge"><title>Node23&#45;&gt;Node8</title>
<path fill="none" stroke="midnightblue" d="M612.076,-478.636C665.301,-480.053 779.484,-484.408 875,-497 889.224,-498.875 904.515,-501.61 918.584,-504.424"/>
<polygon fill="midnightblue" stroke="midnightblue" points="918.081,-507.893 928.58,-506.475 919.488,-501.036 918.081,-507.893"/>
</g>
<!-- Node24&#45;&gt;Node6 -->
<g id="edge33" class="edge"><title>Node24&#45;&gt;Node6</title>
<path fill="none" stroke="midnightblue" d="M204.034,-517.133C217.23,-519.456 231.74,-522.169 245,-525 261.129,-528.443 264.674,-531.663 281,-534 457.196,-559.219 671.029,-557.117 753.868,-555.088"/>
<polygon fill="midnightblue" stroke="midnightblue" points="754.086,-558.584 763.992,-554.824 753.904,-551.586 754.086,-558.584"/>
</g>
<!-- Node25 -->
<g id="node25" class="node"><title>Node25</title>
<g id="a_node25"><a xlink:href="classtlz_1_1args__list.html#a4aee93f4b0d9b5b4e7a5d13cb637337c" target="_top" xlink:title="tlz::args_list::has\l_next_arg">
<polygon fill="white" stroke="black" points="323,-495 323,-525 415,-525 415,-495 323,-495"/>
<text text-anchor="start" x="331" y="-513" font-family="Helvetica,sans-Serif" font-size="10.00">tlz::args_list::has</text>
<text text-anchor="middle" x="369" y="-502" font-family="Helvetica,sans-Serif" font-size="10.00">_next_arg</text>
</a>
</g>
</g>
<!-- Node24&#45;&gt;Node25 -->
<g id="edge34" class="edge"><title>Node24&#45;&gt;Node25</title>
<path fill="none" stroke="midnightblue" d="M204.252,-510C235.824,-510 278.691,-510 312.645,-510"/>
<polygon fill="midnightblue" stroke="midnightblue" points="312.874,-513.5 322.874,-510 312.874,-506.5 312.874,-513.5"/>
</g>
<!-- Node26 -->
<g id="node26" class="node"><title>Node26</title>
<g id="a_node26"><a xlink:href="namespacetlz.html#ac18630fe66cc71c8cc5eb6acce057f5f" target="_top" xlink:title="tlz::bool_arg">
<polygon fill="white" stroke="black" points="546,-506.5 546,-525.5 616,-525.5 616,-506.5 546,-506.5"/>
<text text-anchor="middle" x="581" y="-513.5" font-family="Helvetica,sans-Serif" font-size="10.00">tlz::bool_arg</text>
</a>
</g>
</g>
<!-- Node24&#45;&gt;Node26 -->
<g id="edge35" class="edge"><title>Node24&#45;&gt;Node26</title>
<path fill="none" stroke="midnightblue" d="M196.582,-500.498C220.366,-494.736 252.307,-487.945 281,-485 358.813,-477.013 379.788,-472.47 457,-485 473.648,-487.702 476.738,-492.528 493,-497 506.914,-500.827 522.249,-504.389 536.117,-507.371"/>
<polygon fill="midnightblue" stroke="midnightblue" points="535.408,-510.798 545.915,-509.435 536.851,-503.948 535.408,-510.798"/>
</g>
<!-- Node27 -->
<g id="node27" class="node"><title>Node27</title>
<g id="a_node27"><a xlink:href="namespacetlz.html#abea9308e4287a82deb9e44e7cc9782a0" target="_top" xlink:title="tlz::view_index_arg">
<polygon fill="white" stroke="black" points="318.5,-582.5 318.5,-601.5 419.5,-601.5 419.5,-582.5 318.5,-582.5"/>
<text text-anchor="middle" x="369" y="-589.5" font-family="Helvetica,sans-Serif" font-size="10.00">tlz::view_index_arg</text>
</a>
</g>
</g>
<!-- Node24&#45;&gt;Node27 -->
<g id="edge38" class="edge"><title>Node24&#45;&gt;Node27</title>
<path fill="none" stroke="midnightblue" d="M178.027,-519.673C201.101,-532.116 243.176,-553.811 281,-568 292.69,-572.385 305.532,-576.366 317.677,-579.769"/>
<polygon fill="midnightblue" stroke="midnightblue" points="317.105,-583.241 327.673,-582.488 318.942,-576.486 317.105,-583.241"/>
</g>
<!-- Node26&#45;&gt;Node6 -->
<g id="edge36" class="edge"><title>Node26&#45;&gt;Node6</title>
<path fill="none" stroke="midnightblue" d="M616.182,-522.275C654.179,-529.25 715.243,-540.46 753.69,-547.518"/>
<polygon fill="midnightblue" stroke="midnightblue" points="753.428,-551.028 763.896,-549.391 754.692,-544.143 753.428,-551.028"/>
</g>
<!-- Node26&#45;&gt;Node7 -->
<g id="edge37" class="edge"><title>Node26&#45;&gt;Node7</title>
<path fill="none" stroke="midnightblue" d="M616.182,-516C645.132,-516 687.475,-516 723,-516"/>
<polygon fill="midnightblue" stroke="midnightblue" points="723.302,-519.5 733.302,-516 723.302,-512.5 723.302,-519.5"/>
</g>
<!-- Node27&#45;&gt;Node5 -->
<g id="edge39" class="edge"><title>Node27&#45;&gt;Node5</title>
<path fill="none" stroke="midnightblue" d="M419.501,-592C453.787,-592 499.153,-592 532.904,-592"/>
<polygon fill="midnightblue" stroke="midnightblue" points="532.981,-595.5 542.981,-592 532.981,-588.5 532.981,-595.5"/>
</g>
<!-- Node28&#45;&gt;Node15 -->
<g id="edge42" class="edge"><title>Node28&#45;&gt;Node15</title>
<path fill="none" stroke="midnightblue" d="M207.244,-349.149C220.55,-346.42 234.316,-341.548 245,-333 274.184,-309.65 250.491,-278.591 281,-257 390.055,-179.823 446.399,-226 580,-226 580,-226 580,-226 972,-226 1085.89,-226 1166.18,-647.266 1183.15,-744.254"/>
<polygon fill="midnightblue" stroke="midnightblue" points="1179.72,-744.944 1184.87,-754.203 1186.62,-743.753 1179.72,-744.944"/>
</g>
<!-- Node29 -->
<g id="node29" class="node"><title>Node29</title>
<g id="a_node29"><a xlink:href="classtlz_1_1dataset__group.html#acad4f6300bfc455279aaeb975d5e61de" target="_top" xlink:title="tlz::dataset_group\l::dataset_group">
<polygon fill="white" stroke="black" points="321.5,-167 321.5,-197 416.5,-197 416.5,-167 321.5,-167"/>
<text text-anchor="start" x="329.5" y="-185" font-family="Helvetica,sans-Serif" font-size="10.00">tlz::dataset_group</text>
<text text-anchor="middle" x="369" y="-174" font-family="Helvetica,sans-Serif" font-size="10.00">::dataset_group</text>
</a>
</g>
</g>
<!-- Node28&#45;&gt;Node29 -->
<g id="edge41" class="edge"><title>Node28&#45;&gt;Node29</title>
<path fill="none" stroke="midnightblue" d="M207.219,-350.311C220.836,-347.664 234.781,-342.546 245,-333 286,-294.698 242.186,-252.515 281,-212 289.376,-203.257 300.416,-197.062 311.81,-192.671"/>
<polygon fill="midnightblue" stroke="midnightblue" points="313.081,-195.936 321.413,-189.392 310.819,-189.311 313.081,-195.936"/>
</g>
<!-- Node38 -->
<g id="node38" class="node"><title>Node38</title>
<g id="a_node38"><a xlink:href="namespacetlz.html#a643b2d03bd805fe78dcd684ef45e52fb" target="_top" xlink:title="Clamp value between minimum and maximum value. ">
<polygon fill="white" stroke="black" points="339.5,-38.5 339.5,-57.5 398.5,-57.5 398.5,-38.5 339.5,-38.5"/>
<text text-anchor="middle" x="369" y="-45.5" font-family="Helvetica,sans-Serif" font-size="10.00">tlz::clamp</text>
</a>
</g>
</g>
<!-- Node37&#45;&gt;Node38 -->
<g id="edge51" class="edge"><title>Node37&#45;&gt;Node38</title>
<path fill="none" stroke="midnightblue" d="M181.538,-48C216.09,-48 285.372,-48 329.067,-48"/>
<polygon fill="midnightblue" stroke="midnightblue" points="329.319,-51.5001 339.319,-48 329.319,-44.5001 329.319,-51.5001"/>
</g>
<!-- Node39 -->
<g id="node39" class="node"><title>Node39</title>
<g id="a_node39"><a xlink:href="namespacetlz.html#a4fe5757a830e199f84d229eee11f616e" target="_top" xlink:title="Compute greatest common divisor of a and b. ">
<polygon fill="white" stroke="black" points="344.5,-0.5 344.5,-19.5 393.5,-19.5 393.5,-0.5 344.5,-0.5"/>
<text text-anchor="middle" x="369" y="-7.5" font-family="Helvetica,sans-Serif" font-size="10.00">tlz::gcd</text>
</a>
</g>
</g>
<!-- Node37&#45;&gt;Node39 -->
<g id="edge52" class="edge"><title>Node37&#45;&gt;Node39</title>
<path fill="none" stroke="midnightblue" d="M181.538,-44.1472C217.518,-37.5582 291.157,-24.0724 334.348,-16.1628"/>
<polygon fill="midnightblue" stroke="midnightblue" points="335.166,-19.5712 344.372,-14.327 333.905,-12.6857 335.166,-19.5712"/>
</g>
<!-- Node40 -->
<g id="node40" class="node"><title>Node40</title>
<g id="a_node40"><a xlink:href="namespacetlz.html#aec6e2158ce198aa20a8493fde3d3b552" target="_top" xlink:title="Compute least common multiple of a and b. ">
<polygon fill="white" stroke="black" points="344.5,-76.5 344.5,-95.5 393.5,-95.5 393.5,-76.5 344.5,-76.5"/>
<text text-anchor="middle" x="369" y="-83.5" font-family="Helvetica,sans-Serif" font-size="10.00">tlz::lcm</text>
</a>
</g>
</g>
<!-- Node37&#45;&gt;Node40 -->
<g id="edge53" class="edge"><title>Node37&#45;&gt;Node40</title>
<path fill="none" stroke="midnightblue" d="M181.538,-51.8528C217.518,-58.4418 291.157,-71.9276 334.348,-79.8372"/>
<polygon fill="midnightblue" stroke="midnightblue" points="333.905,-83.3143 344.372,-81.673 335.166,-76.4288 333.905,-83.3143"/>
</g>
<!-- Node41&#45;&gt;Node13 -->
<g id="edge55" class="edge"><title>Node41&#45;&gt;Node13</title>
<path fill="none" stroke="midnightblue" d="M230.061,-380.35C235.447,-377.859 240.522,-374.786 245,-371 277.27,-343.718 245.916,-306.554 281,-283 370.71,-222.773 505.952,-301.29 558.268,-336.509"/>
<polygon fill="midnightblue" stroke="midnightblue" points="556.541,-339.569 566.766,-342.345 560.504,-333.799 556.541,-339.569"/>
</g>
<!-- Node42 -->
<g id="node42" class="node"><title>Node42</title>
<g id="a_node42"><a xlink:href="namespacetlz.html#ab98de0b10e3e079dee189f81adc638a0" target="_top" xlink:title="tlz::export_json_file">
<polygon fill="white" stroke="black" points="318.5,-342.5 318.5,-361.5 419.5,-361.5 419.5,-342.5 318.5,-342.5"/>
<text text-anchor="middle" x="369" y="-349.5" font-family="Helvetica,sans-Serif" font-size="10.00">tlz::export_json_file</text>
</a>
</g>
</g>
<!-- Node41&#45;&gt;Node42 -->
<g id="edge56" class="edge"><title>Node41&#45;&gt;Node42</title>
<path fill="none" stroke="midnightblue" d="M212.593,-380.46C241.715,-375.127 278.126,-368.459 308.383,-362.918"/>
<polygon fill="midnightblue" stroke="midnightblue" points="309.182,-366.33 318.388,-361.086 307.921,-359.444 309.182,-366.33"/>
</g>
<!-- Node43 -->
<g id="node43" class="node"><title>Node43</title>
<g id="a_node43"><a xlink:href="namespacetlz.html#a5425610b090d56218f8a7272ba402bfb" target="_top" xlink:title="tlz::encode_image_correspondences">
<polygon fill="white" stroke="black" points="281,-380.5 281,-399.5 457,-399.5 457,-380.5 281,-380.5"/>
<text text-anchor="middle" x="369" y="-387.5" font-family="Helvetica,sans-Serif" font-size="10.00">tlz::encode_image_correspondences</text>
</a>
</g>
</g>
<!-- Node41&#45;&gt;Node43 -->
<g id="edge58" class="edge"><title>Node41&#45;&gt;Node43</title>
<path fill="none" stroke="midnightblue" d="M245.197,-390C253.655,-390 262.287,-390 270.859,-390"/>
<polygon fill="midnightblue" stroke="midnightblue" points="270.879,-393.5 280.879,-390 270.879,-386.5 270.879,-393.5"/>
</g>
<!-- Node48 -->
<g id="node48" class="node"><title>Node48</title>
<g id="a_node48"><a xlink:href="namespacetlz.html#a24bb23db2319f38046e6de526a0cb20e" target="_top" xlink:title="tlz::export_binary\l_image_correspondences">
<polygon fill="white" stroke="black" points="305,-293 305,-323 433,-323 433,-293 305,-293"/>
<text text-anchor="start" x="313" y="-311" font-family="Helvetica,sans-Serif" font-size="10.00">tlz::export_binary</text>
<text text-anchor="middle" x="369" y="-300" font-family="Helvetica,sans-Serif" font-size="10.00">_image_correspondences</text>
</a>
</g>
</g>
<!-- Node41&#45;&gt;Node48 -->
<g id="edge64" class="edge"><title>Node41&#45;&gt;Node48</title>
<path fill="none" stroke="midnightblue" d="M223.007,-380.393C230.679,-377.941 238.202,-374.863 245,-371 265.226,-359.505 261.119,-345.083 281,-333 285.616,-330.194 290.562,-327.691 295.664,-325.46"/>
<polygon fill="midnightblue" stroke="midnightblue" points="296.998,-328.696 304.982,-321.732 294.397,-322.197 296.998,-328.696"/>
</g>
<!-- Node42&#45;&gt;Node13 -->
<g id="edge57" class="edge"><title>Node42&#45;&gt;Node13</title>
<path fill="none" stroke="midnightblue" d="M419.501,-352C446.402,-352 480.123,-352 509.704,-352"/>
<polygon fill="midnightblue" stroke="midnightblue" points="509.976,-355.5 519.976,-352 509.976,-348.5 509.976,-355.5"/>
</g>
<!-- Node44 -->
<g id="node44" class="node"><title>Node44</title>
<g id="a_node44"><a xlink:href="namespacetlz.html#aa875dcb2a47f0a406887a14c6f515bfd" target="_top" xlink:title="tlz::encode_image_correspondence\l_feature">
<polygon fill="white" stroke="black" points="496,-381 496,-411 666,-411 666,-381 496,-381"/>
<text text-anchor="start" x="504" y="-399" font-family="Helvetica,sans-Serif" font-size="10.00">tlz::encode_image_correspondence</text>
<text text-anchor="middle" x="581" y="-388" font-family="Helvetica,sans-Serif" font-size="10.00">_feature</text>
</a>
</g>
</g>
<!-- Node43&#45;&gt;Node44 -->
<g id="edge59" class="edge"><title>Node43&#45;&gt;Node44</title>
<path fill="none" stroke="midnightblue" d="M457.235,-392.492C466.586,-392.76 476.131,-393.032 485.561,-393.302"/>
<polygon fill="midnightblue" stroke="midnightblue" points="485.639,-396.805 495.735,-393.592 485.839,-389.808 485.639,-396.805"/>
</g>
<!-- Node45 -->
<g id="node45" class="node"><title>Node45</title>
<g id="a_node45"><a xlink:href="namespacetlz.html#aadab29bdc80bc1d0ad6d3784dd427992" target="_top" xlink:title="tlz::encode_view_index">
<polygon fill="white" stroke="black" points="730.5,-430.5 730.5,-449.5 849.5,-449.5 849.5,-430.5 730.5,-430.5"/>
<text text-anchor="middle" x="790" y="-437.5" font-family="Helvetica,sans-Serif" font-size="10.00">tlz::encode_view_index</text>
</a>
</g>
</g>
<!-- Node44&#45;&gt;Node45 -->
<g id="edge60" class="edge"><title>Node44&#45;&gt;Node45</title>
<path fill="none" stroke="midnightblue" d="M652.659,-411.019C679.32,-416.686 709.225,-423.043 734.219,-428.356"/>
<polygon fill="midnightblue" stroke="midnightblue" points="733.739,-431.832 744.248,-430.488 735.195,-424.985 733.739,-431.832"/>
</g>
<!-- Node47 -->
<g id="node47" class="node"><title>Node47</title>
<g id="a_node47"><a xlink:href="namespacetlz.html#a8f6c31dc4b1dffe7950bcb1f4ff85cbc" target="_top" xlink:title="tlz::encode_feature\l_point">
<polygon fill="white" stroke="black" points="740,-381 740,-411 840,-411 840,-381 740,-381"/>
<text text-anchor="start" x="748" y="-399" font-family="Helvetica,sans-Serif" font-size="10.00">tlz::encode_feature</text>
<text text-anchor="middle" x="790" y="-388" font-family="Helvetica,sans-Serif" font-size="10.00">_point</text>
</a>
</g>
</g>
<!-- Node44&#45;&gt;Node47 -->
<g id="edge63" class="edge"><title>Node44&#45;&gt;Node47</title>
<path fill="none" stroke="midnightblue" d="M666.195,-396C687.546,-396 710.033,-396 729.847,-396"/>
<polygon fill="midnightblue" stroke="midnightblue" points="729.944,-399.5 739.944,-396 729.944,-392.5 729.944,-399.5"/>
</g>
<!-- Node45&#45;&gt;Node9 -->
<g id="edge61" class="edge"><title>Node45&#45;&gt;Node9</title>
<path fill="none" stroke="midnightblue" d="M836.169,-449.589C863.445,-455.379 898.069,-462.73 925.266,-468.503"/>
<polygon fill="midnightblue" stroke="midnightblue" points="924.786,-471.979 935.295,-470.632 926.24,-465.132 924.786,-471.979"/>
</g>
<!-- Node46 -->
<g id="node46" class="node"><title>Node46</title>
<g id="a_node46"><a xlink:href="structtlz_1_1view__index.html#a20518c30015d833cdb2a69b524886b96" target="_top" xlink:title="tlz::view_index::is_2d">
<polygon fill="white" stroke="black" points="915.5,-430.5 915.5,-449.5 1026.5,-449.5 1026.5,-430.5 915.5,-430.5"/>
<text text-anchor="middle" x="971" y="-437.5" font-family="Helvetica,sans-Serif" font-size="10.00">tlz::view_index::is_2d</text>
</a>
</g>
</g>
<!-- Node45&#45;&gt;Node46 -->
<g id="edge62" class="edge"><title>Node45&#45;&gt;Node46</title>
<path fill="none" stroke="midnightblue" d="M849.611,-440C867.337,-440 886.905,-440 905.021,-440"/>
<polygon fill="midnightblue" stroke="midnightblue" points="905.203,-443.5 915.203,-440 905.203,-436.5 905.203,-443.5"/>
</g>
</g>
</svg>
