<?xml version="1.0" encoding="UTF-8" standalone="no"?>
<!DOCTYPE svg PUBLIC "-//W3C//DTD SVG 1.1//EN"
 "http://www.w3.org/Graphics/SVG/1.1/DTD/svg11.dtd">
<!-- Generated by graphviz version 2.38.0 (20140413.2041)
 -->
<!-- Title: main Pages: 1 -->
<svg width="1073pt" height="1096pt"
 viewBox="0.00 0.00 1073.00 1095.87" xmlns="http://www.w3.org/2000/svg" xmlns:xlink="http://www.w3.org/1999/xlink">
<g id="graph0" class="graph" transform="scale(1 1) rotate(0) translate(4 1091.87)">
<title>main</title>
<polygon fill="white" stroke="none" points="-4,4 -4,-1091.87 1069,-1091.87 1069,4 -4,4"/>
<!-- Node1 -->
<g id="node1" class="node"><title>Node1</title>
<polygon fill="#bfbfbf" stroke="black" points="0,-761 0,-780 38,-780 38,-761 0,-761"/>
<text text-anchor="middle" x="19" y="-768" font-family="Helvetica,sans-Serif" font-size="10.00">main</text>
</g>
<!-- Node2 -->
<g id="node2" class="node"><title>Node2</title>
<g id="a_node2"><a xlink:href="namespacetlz.html#a3c03f5d9d6261ec2909938822fc47f8a" target="_top" xlink:title="tlz::get_args">
<polygon fill="white" stroke="black" points="124,-941 124,-960 195,-960 195,-941 124,-941"/>
<text text-anchor="middle" x="159.5" y="-948" font-family="Helvetica,sans-Serif" font-size="10.00">tlz::get_args</text>
</a>
</g>
</g>
<!-- Node1&#45;&gt;Node2 -->
<g id="edge1" class="edge"><title>Node1&#45;&gt;Node2</title>
<path fill="none" stroke="midnightblue" d="M20.152,-780.209C21.1451,-808.254 28.038,-890.021 74,-931.5 84.779,-941.228 99.4489,-946.32 113.541,-948.89"/>
<polygon fill="midnightblue" stroke="midnightblue" points="113.239,-952.383 123.636,-950.346 114.238,-945.454 113.239,-952.383"/>
</g>
<!-- Node3 -->
<g id="node3" class="node"><title>Node3</title>
<g id="a_node3"><a xlink:href="namespacetlz.html#a91f1aec7120c97452c495ee447e56b57" target="_top" xlink:title="tlz::dataset_arg">
<polygon fill="white" stroke="black" points="117.5,-799 117.5,-818 201.5,-818 201.5,-799 117.5,-799"/>
<text text-anchor="middle" x="159.5" y="-806" font-family="Helvetica,sans-Serif" font-size="10.00">tlz::dataset_arg</text>
</a>
</g>
</g>
<!-- Node1&#45;&gt;Node3 -->
<g id="edge2" class="edge"><title>Node1&#45;&gt;Node3</title>
<path fill="none" stroke="midnightblue" d="M38.1065,-775.468C57.2023,-780.707 88.0209,-789.163 113.696,-796.207"/>
<polygon fill="midnightblue" stroke="midnightblue" points="113.04,-799.656 123.609,-798.927 114.892,-792.906 113.04,-799.656"/>
</g>
<!-- Node11 -->
<g id="node11" class="node"><title>Node11</title>
<g id="a_node11"><a xlink:href="namespacetlz.html#accab66b2847b4c4ea3170487b64903c1" target="_top" xlink:title="tlz::feature_points_arg">
<polygon fill="white" stroke="black" points="103,-903 103,-922 216,-922 216,-903 103,-903"/>
<text text-anchor="middle" x="159.5" y="-910" font-family="Helvetica,sans-Serif" font-size="10.00">tlz::feature_points_arg</text>
</a>
</g>
</g>
<!-- Node1&#45;&gt;Node11 -->
<g id="edge12" class="edge"><title>Node1&#45;&gt;Node11</title>
<path fill="none" stroke="midnightblue" d="M22.879,-780.092C29.1778,-799.634 45.9074,-844.489 74,-871.5 86.3416,-883.367 102.775,-892.396 117.866,-898.92"/>
<polygon fill="midnightblue" stroke="midnightblue" points="116.952,-902.326 127.534,-902.849 119.588,-895.841 116.952,-902.326"/>
</g>
<!-- Node19 -->
<g id="node19" class="node"><title>Node19</title>
<g id="a_node19"><a xlink:href="namespacetlz.html#af0d1e8ba5b9f2dbc2b589afab3a21fc8" target="_top" xlink:title="tlz::int_arg">
<polygon fill="white" stroke="black" points="671.5,-697 671.5,-716 733.5,-716 733.5,-697 671.5,-697"/>
<text text-anchor="middle" x="702.5" y="-704" font-family="Helvetica,sans-Serif" font-size="10.00">tlz::int_arg</text>
</a>
</g>
</g>
<!-- Node1&#45;&gt;Node19 -->
<g id="edge23" class="edge"><title>Node1&#45;&gt;Node19</title>
<path fill="none" stroke="midnightblue" d="M23.1481,-760.948C29.52,-743.381 45.7901,-706.388 74,-691.5 274.092,-585.901 562.364,-661.453 664.175,-693.781"/>
<polygon fill="midnightblue" stroke="midnightblue" points="663.403,-697.209 673.994,-696.949 665.553,-690.547 663.403,-697.209"/>
</g>
<!-- Node20 -->
<g id="node20" class="node"><title>Node20</title>
<g id="a_node20"><a xlink:href="namespacetlz.html#a65770a2c1ff57c5ae6542d4465a3d3f4" target="_top" xlink:title="tlz::out_filename_arg">
<polygon fill="white" stroke="black" points="106,-701 106,-720 213,-720 213,-701 106,-701"/>
<text text-anchor="middle" x="159.5" y="-708" font-family="Helvetica,sans-Serif" font-size="10.00">tlz::out_filename_arg</text>
</a>
</g>
</g>
<!-- Node1&#45;&gt;Node20 -->
<g id="edge27" class="edge"><title>Node1&#45;&gt;Node20</title>
<path fill="none" stroke="midnightblue" d="M38.1065,-762.656C60.6697,-752.881 99.5995,-736.016 127.073,-724.115"/>
<polygon fill="midnightblue" stroke="midnightblue" points="128.482,-727.319 136.267,-720.132 125.7,-720.895 128.482,-727.319"/>
</g>
<!-- Node21 -->
<g id="node21" class="node"><title>Node21</title>
<g id="a_node21"><a xlink:href="namespacetlz.html#a8d3380a8873e542207e21a4384957425" target="_top" xlink:title="tlz::string_opt_arg">
<polygon fill="white" stroke="black" points="321.5,-761 321.5,-780 416.5,-780 416.5,-761 321.5,-761"/>
<text text-anchor="middle" x="369" y="-768" font-family="Helvetica,sans-Serif" font-size="10.00">tlz::string_opt_arg</text>
</a>
</g>
</g>
<!-- Node1&#45;&gt;Node21 -->
<g id="edge29" class="edge"><title>Node1&#45;&gt;Node21</title>
<path fill="none" stroke="midnightblue" d="M38.22,-770.5C88.4775,-770.5 230.649,-770.5 310.949,-770.5"/>
<polygon fill="midnightblue" stroke="midnightblue" points="311.377,-774 321.377,-770.5 311.377,-767 311.377,-774"/>
</g>
<!-- Node23 -->
<g id="node23" class="node"><title>Node23</title>
<g id="a_node23"><a xlink:href="classtlz_1_1dataset.html#ad7d438f87e20fd0a734aabff2e6d52a9" target="_top" xlink:title="tlz::dataset::group">
<polygon fill="white" stroke="black" points="112,-843 112,-862 207,-862 207,-843 112,-843"/>
<text text-anchor="middle" x="159.5" y="-850" font-family="Helvetica,sans-Serif" font-size="10.00">tlz::dataset::group</text>
</a>
</g>
</g>
<!-- Node1&#45;&gt;Node23 -->
<g id="edge34" class="edge"><title>Node1&#45;&gt;Node23</title>
<path fill="none" stroke="midnightblue" d="M26.5324,-780.046C35.6935,-792.721 53.5471,-814.959 74,-827.5 82.6079,-832.778 92.3938,-836.996 102.178,-840.35"/>
<polygon fill="midnightblue" stroke="midnightblue" points="101.329,-843.752 111.918,-843.423 103.435,-837.077 101.329,-843.752"/>
</g>
<!-- Node25 -->
<g id="node25" class="node"><title>Node25</title>
<g id="a_node25"><a xlink:href="cg__optical__flow__cors_8cc.html#a9475b79389eb81383d9aba46c336ae42" target="_top" xlink:title="do_2d_optical_flow">
<polygon fill="white" stroke="black" points="109.5,-404 109.5,-423 209.5,-423 209.5,-404 109.5,-404"/>
<text text-anchor="middle" x="159.5" y="-411" font-family="Helvetica,sans-Serif" font-size="10.00">do_2d_optical_flow</text>
</a>
</g>
</g>
<!-- Node1&#45;&gt;Node25 -->
<g id="edge37" class="edge"><title>Node1&#45;&gt;Node25</title>
<path fill="none" stroke="midnightblue" d="M23.7045,-760.951C42.2865,-713.054 125.457,-498.673 151.009,-432.81"/>
<polygon fill="midnightblue" stroke="midnightblue" points="154.365,-433.835 154.719,-423.246 147.839,-431.303 154.365,-433.835"/>
</g>
<!-- Node46 -->
<g id="node46" class="node"><title>Node46</title>
<g id="a_node46"><a xlink:href="namespacetlz.html#a703280f6c42435c957e976f0ab000b30" target="_top" xlink:title="tlz::export_image_corresponcences">
<polygon fill="white" stroke="black" points="74,-88 74,-107 245,-107 245,-88 74,-88"/>
<text text-anchor="middle" x="159.5" y="-95" font-family="Helvetica,sans-Serif" font-size="10.00">tlz::export_image_corresponcences</text>
</a>
</g>
</g>
<!-- Node1&#45;&gt;Node46 -->
<g id="edge65" class="edge"><title>Node1&#45;&gt;Node46</title>
<path fill="none" stroke="midnightblue" d="M20.905,-760.829C25.0423,-717.694 43.2868,-538.657 74,-394.5 96.6962,-287.972 136.591,-163.462 152.09,-116.612"/>
<polygon fill="midnightblue" stroke="midnightblue" points="155.411,-117.717 155.248,-107.123 148.769,-115.506 155.411,-117.717"/>
</g>
<!-- Node4 -->
<g id="node4" class="node"><title>Node4</title>
<g id="a_node4"><a xlink:href="namespacetlz.html#a634de7ca11e100e4a118dffe80376a75" target="_top" xlink:title="tlz::in_filename_arg">
<polygon fill="white" stroke="black" points="503.5,-846 503.5,-865 604.5,-865 604.5,-846 503.5,-846"/>
<text text-anchor="middle" x="554" y="-853" font-family="Helvetica,sans-Serif" font-size="10.00">tlz::in_filename_arg</text>
</a>
</g>
</g>
<!-- Node3&#45;&gt;Node4 -->
<g id="edge3" class="edge"><title>Node3&#45;&gt;Node4</title>
<path fill="none" stroke="midnightblue" d="M201.584,-808.599C259.113,-809.341 366.755,-812.938 457,-828.5 476.397,-831.845 497.499,-837.544 514.966,-842.846"/>
<polygon fill="midnightblue" stroke="midnightblue" points="514.201,-846.274 524.79,-845.901 516.28,-839.589 514.201,-846.274"/>
</g>
<!-- Node5 -->
<g id="node5" class="node"><title>Node5</title>
<g id="a_node5"><a xlink:href="namespacetlz.html#a0621d598fb83b13bf028f3e6293d04f8" target="_top" xlink:title="tlz::string_arg">
<polygon fill="white" stroke="black" points="664.5,-735 664.5,-754 740.5,-754 740.5,-735 664.5,-735"/>
<text text-anchor="middle" x="702.5" y="-742" font-family="Helvetica,sans-Serif" font-size="10.00">tlz::string_arg</text>
</a>
</g>
</g>
<!-- Node4&#45;&gt;Node5 -->
<g id="edge4" class="edge"><title>Node4&#45;&gt;Node5</title>
<path fill="none" stroke="midnightblue" d="M567.745,-845.844C592.962,-826.737 649.449,-783.938 680.337,-760.535"/>
<polygon fill="midnightblue" stroke="midnightblue" points="682.824,-763.042 688.681,-754.213 678.596,-757.463 682.824,-763.042"/>
</g>
<!-- Node6 -->
<g id="node6" class="node"><title>Node6</title>
<g id="a_node6"><a xlink:href="namespacetlz.html#a780431daab8d2595372eacb43143b52d" target="_top" xlink:title="tlz::args">
<polygon fill="white" stroke="black" points="823.5,-773 823.5,-792 875.5,-792 875.5,-773 823.5,-773"/>
<text text-anchor="middle" x="849.5" y="-780" font-family="Helvetica,sans-Serif" font-size="10.00">tlz::args</text>
</a>
</g>
</g>
<!-- Node4&#45;&gt;Node6 -->
<g id="edge10" class="edge"><title>Node4&#45;&gt;Node6</title>
<path fill="none" stroke="midnightblue" d="M593.37,-845.957C650.739,-831.688 758.035,-805.001 813.422,-791.225"/>
<polygon fill="midnightblue" stroke="midnightblue" points="814.597,-794.539 823.457,-788.729 812.907,-787.746 814.597,-794.539"/>
</g>
<!-- Node8 -->
<g id="node8" class="node"><title>Node8</title>
<g id="a_node8"><a xlink:href="classtlz_1_1args__list.html#a38ad21acd64a4af98ffdf4a47837cdbe" target="_top" xlink:title="tlz::args_list::usage_fail">
<polygon fill="white" stroke="black" points="945,-735 945,-754 1065,-754 1065,-735 945,-735"/>
<text text-anchor="middle" x="1005" y="-742" font-family="Helvetica,sans-Serif" font-size="10.00">tlz::args_list::usage_fail</text>
</a>
</g>
</g>
<!-- Node4&#45;&gt;Node8 -->
<g id="edge11" class="edge"><title>Node4&#45;&gt;Node8</title>
<path fill="none" stroke="midnightblue" d="M604.784,-854.54C674.883,-851.728 805.66,-841.083 909,-801.5 936.167,-791.094 964.394,-773.087 982.945,-760.094"/>
<polygon fill="midnightblue" stroke="midnightblue" points="985.128,-762.835 991.228,-754.173 981.057,-757.141 985.128,-762.835"/>
</g>
<!-- Node10 -->
<g id="node10" class="node"><title>Node10</title>
<g id="a_node10"><a xlink:href="namespacetlz.html#abb019466ea9f56c0dab27e893d891837" target="_top" xlink:title="tlz::file_exists">
<polygon fill="white" stroke="black" points="811,-659 811,-678 888,-678 888,-659 811,-659"/>
<text text-anchor="middle" x="849.5" y="-666" font-family="Helvetica,sans-Serif" font-size="10.00">tlz::file_exists</text>
</a>
</g>
</g>
<!-- Node4&#45;&gt;Node10 -->
<g id="edge9" class="edge"><title>Node4&#45;&gt;Node10</title>
<path fill="none" stroke="midnightblue" d="M568.814,-845.67C582.37,-835.352 602.744,-817.949 615,-798.5 642.651,-754.623 610.56,-719.971 651,-687.5 692.899,-653.857 757.069,-654.16 800.811,-659.531"/>
<polygon fill="midnightblue" stroke="midnightblue" points="800.535,-663.025 810.916,-660.905 801.479,-656.089 800.535,-663.025"/>
</g>
<!-- Node5&#45;&gt;Node6 -->
<g id="edge5" class="edge"><title>Node5&#45;&gt;Node6</title>
<path fill="none" stroke="midnightblue" d="M740.09,-754.089C762.643,-760 791.4,-767.536 813.628,-773.361"/>
<polygon fill="midnightblue" stroke="midnightblue" points="812.775,-776.756 823.336,-775.905 814.55,-769.984 812.775,-776.756"/>
</g>
<!-- Node7 -->
<g id="node7" class="node"><title>Node7</title>
<g id="a_node7"><a xlink:href="classtlz_1_1args__list.html#a73d99bc75998dc14607a3a372d28dc6d" target="_top" xlink:title="tlz::args_list::next_arg">
<polygon fill="white" stroke="black" points="793,-697 793,-716 906,-716 906,-697 793,-697"/>
<text text-anchor="middle" x="849.5" y="-704" font-family="Helvetica,sans-Serif" font-size="10.00">tlz::args_list::next_arg</text>
</a>
</g>
</g>
<!-- Node5&#45;&gt;Node7 -->
<g id="edge6" class="edge"><title>Node5&#45;&gt;Node7</title>
<path fill="none" stroke="midnightblue" d="M740.09,-734.911C758.965,-729.964 782.186,-723.879 802.288,-718.611"/>
<polygon fill="midnightblue" stroke="midnightblue" points="803.387,-721.941 812.173,-716.02 801.613,-715.17 803.387,-721.941"/>
</g>
<!-- Node7&#45;&gt;Node8 -->
<g id="edge7" class="edge"><title>Node7&#45;&gt;Node8</title>
<path fill="none" stroke="midnightblue" d="M889.235,-716.089C909.399,-721.081 934.248,-727.232 955.661,-732.533"/>
<polygon fill="midnightblue" stroke="midnightblue" points="954.996,-735.974 965.544,-734.98 956.678,-729.179 954.996,-735.974"/>
</g>
<!-- Node9 -->
<g id="node9" class="node"><title>Node9</title>
<g id="a_node9"><a xlink:href="namespacetlz.html#a8e4f8c8c2927bc4350de13bfa0f8f9e1" target="_top" xlink:title="tlz::to_string">
<polygon fill="white" stroke="black" points="969.5,-591 969.5,-610 1040.5,-610 1040.5,-591 969.5,-591"/>
<text text-anchor="middle" x="1005" y="-598" font-family="Helvetica,sans-Serif" font-size="10.00">tlz::to_string</text>
</a>
</g>
</g>
<!-- Node7&#45;&gt;Node9 -->
<g id="edge8" class="edge"><title>Node7&#45;&gt;Node9</title>
<path fill="none" stroke="midnightblue" d="M888.043,-696.946C895.242,-694.391 902.542,-691.264 909,-687.5 941.315,-668.663 971.954,-637.306 989.315,-617.827"/>
<polygon fill="midnightblue" stroke="midnightblue" points="992.173,-619.875 996.112,-610.039 986.899,-615.272 992.173,-619.875"/>
</g>
<!-- Node12 -->
<g id="node12" class="node"><title>Node12</title>
<g id="a_node12"><a xlink:href="namespacetlz.html#abc92401653ee5627160c4f3c48a11311" target="_top" xlink:title="tlz::decode_feature\l_points">
<polygon fill="white" stroke="black" points="319,-995.5 319,-1025.5 419,-1025.5 419,-995.5 319,-995.5"/>
<text text-anchor="start" x="327" y="-1013.5" font-family="Helvetica,sans-Serif" font-size="10.00">tlz::decode_feature</text>
<text text-anchor="middle" x="369" y="-1002.5" font-family="Helvetica,sans-Serif" font-size="10.00">_points</text>
</a>
</g>
</g>
<!-- Node11&#45;&gt;Node12 -->
<g id="edge13" class="edge"><title>Node11&#45;&gt;Node12</title>
<path fill="none" stroke="midnightblue" d="M215.916,-922.036C225.793,-924.554 235.844,-927.672 245,-931.5 249.938,-933.565 301.784,-967.216 336.569,-989.926"/>
<polygon fill="midnightblue" stroke="midnightblue" points="334.72,-992.899 345.006,-995.438 338.548,-987.039 334.72,-992.899"/>
</g>
<!-- Node17 -->
<g id="node17" class="node"><title>Node17</title>
<g id="a_node17"><a xlink:href="namespacetlz.html#a35f9e03fa4fd9cec699f5fa27962400f" target="_top" xlink:title="tlz::json_arg">
<polygon fill="white" stroke="black" points="334,-925 334,-944 404,-944 404,-925 334,-925"/>
<text text-anchor="middle" x="369" y="-932" font-family="Helvetica,sans-Serif" font-size="10.00">tlz::json_arg</text>
</a>
</g>
</g>
<!-- Node11&#45;&gt;Node17 -->
<g id="edge20" class="edge"><title>Node11&#45;&gt;Node17</title>
<path fill="none" stroke="midnightblue" d="M216.106,-918.396C249.757,-921.963 292.09,-926.452 323.512,-929.783"/>
<polygon fill="midnightblue" stroke="midnightblue" points="323.408,-933.292 333.721,-930.866 324.146,-926.331 323.408,-933.292"/>
</g>
<!-- Node13 -->
<g id="node13" class="node"><title>Node13</title>
<g id="a_node13"><a xlink:href="namespacetlz.html#a252af14b9b4ac6502d3e9c5dd8dc90b8" target="_top" xlink:title="tlz::has">
<polygon fill="white" stroke="black" points="825,-963 825,-982 874,-982 874,-963 825,-963"/>
<text text-anchor="middle" x="849.5" y="-970" font-family="Helvetica,sans-Serif" font-size="10.00">tlz::has</text>
</a>
</g>
</g>
<!-- Node12&#45;&gt;Node13 -->
<g id="edge14" class="edge"><title>Node12&#45;&gt;Node13</title>
<path fill="none" stroke="midnightblue" d="M419.23,-1001.74C441.665,-998.051 468.606,-994.03 493,-991.5 610.683,-979.297 751.144,-974.72 814.517,-973.187"/>
<polygon fill="midnightblue" stroke="midnightblue" points="814.806,-976.682 824.722,-972.951 814.644,-969.684 814.806,-976.682"/>
</g>
<!-- Node14 -->
<g id="node14" class="node"><title>Node14</title>
<g id="a_node14"><a xlink:href="namespacetlz.html#a74e8454f97dace7cffb1afdb6d3ca87b" target="_top" xlink:title="tlz::decode_view_index">
<polygon fill="white" stroke="black" points="494.5,-1001 494.5,-1020 613.5,-1020 613.5,-1001 494.5,-1001"/>
<text text-anchor="middle" x="554" y="-1008" font-family="Helvetica,sans-Serif" font-size="10.00">tlz::decode_view_index</text>
</a>
</g>
</g>
<!-- Node12&#45;&gt;Node14 -->
<g id="edge15" class="edge"><title>Node12&#45;&gt;Node14</title>
<path fill="none" stroke="midnightblue" d="M419.041,-1010.5C439.057,-1010.5 462.556,-1010.5 484.237,-1010.5"/>
<polygon fill="midnightblue" stroke="midnightblue" points="484.38,-1014 494.38,-1010.5 484.38,-1007 484.38,-1014"/>
</g>
<!-- Node15 -->
<g id="node15" class="node"><title>Node15</title>
<g id="a_node15"><a xlink:href="namespacetlz.html#add846dc50c32dfb356cb1a7ac11d37ac" target="_top" xlink:title="tlz::get_or">
<polygon fill="white" stroke="black" points="672.5,-1045 672.5,-1064 732.5,-1064 732.5,-1045 672.5,-1045"/>
<text text-anchor="middle" x="702.5" y="-1052" font-family="Helvetica,sans-Serif" font-size="10.00">tlz::get_or</text>
</a>
</g>
</g>
<!-- Node12&#45;&gt;Node15 -->
<g id="edge16" class="edge"><title>Node12&#45;&gt;Node15</title>
<path fill="none" stroke="midnightblue" d="M389.502,-1025.67C412.667,-1042.63 453.202,-1069.1 493,-1079.5 545.46,-1093.21 561.313,-1087.1 615,-1079.5 632.013,-1077.09 650.364,-1072.14 665.767,-1067.28"/>
<polygon fill="midnightblue" stroke="midnightblue" points="667.003,-1070.56 675.42,-1064.12 664.827,-1063.9 667.003,-1070.56"/>
</g>
<!-- Node16 -->
<g id="node16" class="node"><title>Node16</title>
<g id="a_node16"><a xlink:href="namespacetlz.html#ae8f9175a86bbe49ac0f4485d5db3080b" target="_top" xlink:title="tlz::decode_feature\l_point">
<polygon fill="white" stroke="black" points="504,-1039.5 504,-1069.5 604,-1069.5 604,-1039.5 504,-1039.5"/>
<text text-anchor="start" x="512" y="-1057.5" font-family="Helvetica,sans-Serif" font-size="10.00">tlz::decode_feature</text>
<text text-anchor="middle" x="554" y="-1046.5" font-family="Helvetica,sans-Serif" font-size="10.00">_point</text>
</a>
</g>
</g>
<!-- Node12&#45;&gt;Node16 -->
<g id="edge18" class="edge"><title>Node12&#45;&gt;Node16</title>
<path fill="none" stroke="midnightblue" d="M419.041,-1022.29C442.118,-1027.84 469.824,-1034.5 494.037,-1040.32"/>
<polygon fill="midnightblue" stroke="midnightblue" points="493.283,-1043.74 503.824,-1042.68 494.919,-1036.94 493.283,-1043.74"/>
</g>
<!-- Node15&#45;&gt;Node13 -->
<g id="edge17" class="edge"><title>Node15&#45;&gt;Node13</title>
<path fill="none" stroke="midnightblue" d="M720.417,-1044.93C745.629,-1030.68 793.251,-1003.74 822.788,-987.041"/>
<polygon fill="midnightblue" stroke="midnightblue" points="824.709,-989.975 831.691,-982.006 821.263,-983.882 824.709,-989.975"/>
</g>
<!-- Node16&#45;&gt;Node15 -->
<g id="edge19" class="edge"><title>Node16&#45;&gt;Node15</title>
<path fill="none" stroke="midnightblue" d="M604.19,-1054.5C623.09,-1054.5 644.395,-1054.5 662.241,-1054.5"/>
<polygon fill="midnightblue" stroke="midnightblue" points="662.304,-1058 672.304,-1054.5 662.304,-1051 662.304,-1058"/>
</g>
<!-- Node17&#45;&gt;Node4 -->
<g id="edge22" class="edge"><title>Node17&#45;&gt;Node4</title>
<path fill="none" stroke="midnightblue" d="M392.074,-924.971C424.362,-911.032 484.63,-885.015 521.547,-869.078"/>
<polygon fill="midnightblue" stroke="midnightblue" points="523.054,-872.24 530.848,-865.063 520.279,-865.813 523.054,-872.24"/>
</g>
<!-- Node18 -->
<g id="node18" class="node"><title>Node18</title>
<g id="a_node18"><a xlink:href="namespacetlz.html#aa1be9362f548fcf9378e1fc9074089c4" target="_top" xlink:title="tlz::import_json_file">
<polygon fill="white" stroke="black" points="503.5,-925 503.5,-944 604.5,-944 604.5,-925 503.5,-925"/>
<text text-anchor="middle" x="554" y="-932" font-family="Helvetica,sans-Serif" font-size="10.00">tlz::import_json_file</text>
</a>
</g>
</g>
<!-- Node17&#45;&gt;Node18 -->
<g id="edge21" class="edge"><title>Node17&#45;&gt;Node18</title>
<path fill="none" stroke="midnightblue" d="M404.421,-934.5C429.335,-934.5 463.649,-934.5 493.024,-934.5"/>
<polygon fill="midnightblue" stroke="midnightblue" points="493.185,-938 503.185,-934.5 493.185,-931 493.185,-938"/>
</g>
<!-- Node19&#45;&gt;Node6 -->
<g id="edge24" class="edge"><title>Node19&#45;&gt;Node6</title>
<path fill="none" stroke="midnightblue" d="M733.763,-715.736C740.654,-718.417 747.774,-721.675 754,-725.5 772.494,-736.862 771.675,-746.867 790,-758.5 797.394,-763.194 805.861,-767.293 814.014,-770.712"/>
<polygon fill="midnightblue" stroke="midnightblue" points="812.772,-773.985 823.358,-774.409 815.347,-767.476 812.772,-773.985"/>
</g>
<!-- Node19&#45;&gt;Node7 -->
<g id="edge25" class="edge"><title>Node19&#45;&gt;Node7</title>
<path fill="none" stroke="midnightblue" d="M733.544,-706.5C747.829,-706.5 765.508,-706.5 782.683,-706.5"/>
<polygon fill="midnightblue" stroke="midnightblue" points="782.708,-710 792.708,-706.5 782.708,-703 782.708,-710"/>
</g>
<!-- Node19&#45;&gt;Node8 -->
<g id="edge26" class="edge"><title>Node19&#45;&gt;Node8</title>
<path fill="none" stroke="midnightblue" d="M733.746,-714.137C750.272,-718.058 771.155,-722.606 790,-725.5 838.022,-732.875 892.58,-737.664 934.59,-740.589"/>
<polygon fill="midnightblue" stroke="midnightblue" points="934.501,-744.091 944.714,-741.275 934.974,-737.107 934.501,-744.091"/>
</g>
<!-- Node20&#45;&gt;Node5 -->
<g id="edge28" class="edge"><title>Node20&#45;&gt;Node5</title>
<path fill="none" stroke="midnightblue" d="M213.358,-713.822C318.771,-720.447 553.632,-735.207 654.255,-741.531"/>
<polygon fill="midnightblue" stroke="midnightblue" points="654.222,-745.036 664.422,-742.17 654.661,-738.049 654.222,-745.036"/>
</g>
<!-- Node21&#45;&gt;Node4 -->
<g id="edge33" class="edge"><title>Node21&#45;&gt;Node4</title>
<path fill="none" stroke="midnightblue" d="M416.542,-778.512C430.187,-782.11 444.728,-787.241 457,-794.5 476.748,-806.181 473.932,-818.739 493,-831.5 499.09,-835.576 505.977,-839.134 512.859,-842.173"/>
<polygon fill="midnightblue" stroke="midnightblue" points="511.586,-845.434 522.165,-845.996 514.246,-838.959 511.586,-845.434"/>
</g>
<!-- Node21&#45;&gt;Node5 -->
<g id="edge32" class="edge"><title>Node21&#45;&gt;Node5</title>
<path fill="none" stroke="midnightblue" d="M416.22,-760.975C439.197,-756.658 467.449,-751.974 493,-749.5 548.269,-744.148 612.142,-743.414 654.477,-743.686"/>
<polygon fill="midnightblue" stroke="midnightblue" points="654.463,-747.185 664.493,-743.771 654.523,-740.186 654.463,-747.185"/>
</g>
<!-- Node21&#45;&gt;Node6 -->
<g id="edge30" class="edge"><title>Node21&#45;&gt;Node6</title>
<path fill="none" stroke="midnightblue" d="M402.548,-780.006C427.146,-786.676 461.878,-795.002 493,-798.5 554.275,-805.386 736.132,-791.806 813.273,-785.489"/>
<polygon fill="midnightblue" stroke="midnightblue" points="813.762,-788.961 823.439,-784.649 813.185,-781.985 813.762,-788.961"/>
</g>
<!-- Node22 -->
<g id="node22" class="node"><title>Node22</title>
<g id="a_node22"><a xlink:href="classtlz_1_1args__list.html#a4aee93f4b0d9b5b4e7a5d13cb637337c" target="_top" xlink:title="tlz::args_list::has\l_next_arg">
<polygon fill="white" stroke="black" points="508,-758.5 508,-788.5 600,-788.5 600,-758.5 508,-758.5"/>
<text text-anchor="start" x="516" y="-776.5" font-family="Helvetica,sans-Serif" font-size="10.00">tlz::args_list::has</text>
<text text-anchor="middle" x="554" y="-765.5" font-family="Helvetica,sans-Serif" font-size="10.00">_next_arg</text>
</a>
</g>
</g>
<!-- Node21&#45;&gt;Node22 -->
<g id="edge31" class="edge"><title>Node21&#45;&gt;Node22</title>
<path fill="none" stroke="midnightblue" d="M416.652,-771.265C441.332,-771.669 471.796,-772.169 497.664,-772.593"/>
<polygon fill="midnightblue" stroke="midnightblue" points="497.642,-776.093 507.698,-772.757 497.757,-769.094 497.642,-776.093"/>
</g>
<!-- Node23&#45;&gt;Node13 -->
<g id="edge36" class="edge"><title>Node23&#45;&gt;Node13</title>
<path fill="none" stroke="midnightblue" d="M201.875,-862.058C225.047,-867.165 254.524,-873.256 281,-877.5 428.519,-901.144 467.915,-889.288 615,-915.5 687.033,-928.337 769.932,-950.329 815.02,-962.913"/>
<polygon fill="midnightblue" stroke="midnightblue" points="814.271,-966.338 824.845,-965.674 816.165,-959.599 814.271,-966.338"/>
</g>
<!-- Node24 -->
<g id="node24" class="node"><title>Node24</title>
<g id="a_node24"><a xlink:href="classtlz_1_1dataset__group.html#acad4f6300bfc455279aaeb975d5e61de" target="_top" xlink:title="tlz::dataset_group\l::dataset_group">
<polygon fill="white" stroke="black" points="321.5,-837.5 321.5,-867.5 416.5,-867.5 416.5,-837.5 321.5,-837.5"/>
<text text-anchor="start" x="329.5" y="-855.5" font-family="Helvetica,sans-Serif" font-size="10.00">tlz::dataset_group</text>
<text text-anchor="middle" x="369" y="-844.5" font-family="Helvetica,sans-Serif" font-size="10.00">::dataset_group</text>
</a>
</g>
</g>
<!-- Node23&#45;&gt;Node24 -->
<g id="edge35" class="edge"><title>Node23&#45;&gt;Node24</title>
<path fill="none" stroke="midnightblue" d="M207.067,-852.5C237.796,-852.5 278.257,-852.5 310.921,-852.5"/>
<polygon fill="midnightblue" stroke="midnightblue" points="311.23,-856 321.23,-852.5 311.23,-849 311.23,-856"/>
</g>
<!-- Node26 -->
<g id="node26" class="node"><title>Node26</title>
<g id="a_node26"><a xlink:href="classtlz_1_1dataset__group.html#a4cc740eed6929b9f06a2157120740a7f" target="_top" xlink:title="tlz::dataset_group::set">
<polygon fill="white" stroke="black" points="497,-568 497,-587 611,-587 611,-568 497,-568"/>
<text text-anchor="middle" x="554" y="-575" font-family="Helvetica,sans-Serif" font-size="10.00">tlz::dataset_group::set</text>
</a>
</g>
</g>
<!-- Node25&#45;&gt;Node26 -->
<g id="edge38" class="edge"><title>Node25&#45;&gt;Node26</title>
<path fill="none" stroke="midnightblue" d="M165.721,-423.099C180.157,-448.568 223.38,-517.932 281,-547.5 345.297,-580.495 429.22,-584.871 486.744,-582.989"/>
<polygon fill="midnightblue" stroke="midnightblue" points="486.958,-586.483 496.81,-582.587 486.679,-579.489 486.958,-586.483"/>
</g>
<!-- Node27 -->
<g id="node27" class="node"><title>Node27</title>
<g id="a_node27"><a xlink:href="classtlz_1_1dataset.html#a3a77e1219653f07bef6ec7b08cbf7dcf" target="_top" xlink:title="tlz::dataset::y_min">
<polygon fill="white" stroke="black" points="320,-404 320,-423 418,-423 418,-404 320,-404"/>
<text text-anchor="middle" x="369" y="-411" font-family="Helvetica,sans-Serif" font-size="10.00">tlz::dataset::y_min</text>
</a>
</g>
</g>
<!-- Node25&#45;&gt;Node27 -->
<g id="edge39" class="edge"><title>Node25&#45;&gt;Node27</title>
<path fill="none" stroke="midnightblue" d="M209.675,-413.5C239.608,-413.5 278.014,-413.5 309.503,-413.5"/>
<polygon fill="midnightblue" stroke="midnightblue" points="309.894,-417 319.894,-413.5 309.894,-410 309.894,-417"/>
</g>
<!-- Node28 -->
<g id="node28" class="node"><title>Node28</title>
<g id="a_node28"><a xlink:href="classtlz_1_1dataset.html#a6900b6a88a2ac1e23d1a51da20f650e4" target="_top" xlink:title="tlz::dataset::y_max">
<polygon fill="white" stroke="black" points="318.5,-366 318.5,-385 419.5,-385 419.5,-366 318.5,-366"/>
<text text-anchor="middle" x="369" y="-373" font-family="Helvetica,sans-Serif" font-size="10.00">tlz::dataset::y_max</text>
</a>
</g>
</g>
<!-- Node25&#45;&gt;Node28 -->
<g id="edge40" class="edge"><title>Node25&#45;&gt;Node28</title>
<path fill="none" stroke="midnightblue" d="M209.675,-404.495C239.305,-399.068 277.238,-392.121 308.546,-386.388"/>
<polygon fill="midnightblue" stroke="midnightblue" points="309.253,-389.817 318.459,-384.573 307.992,-382.931 309.253,-389.817"/>
</g>
<!-- Node29 -->
<g id="node29" class="node"><title>Node29</title>
<g id="a_node29"><a xlink:href="cg__optical__flow__cors_8cc.html#a1a3ce6b4daa6a5b861ab2085a6c3642c" target="_top" xlink:title="load_image">
<polygon fill="white" stroke="black" points="669.5,-564 669.5,-583 735.5,-583 735.5,-564 669.5,-564"/>
<text text-anchor="middle" x="702.5" y="-571" font-family="Helvetica,sans-Serif" font-size="10.00">load_image</text>
</a>
</g>
</g>
<!-- Node25&#45;&gt;Node29 -->
<g id="edge41" class="edge"><title>Node25&#45;&gt;Node29</title>
<path fill="none" stroke="midnightblue" d="M162.542,-403.546C170.368,-368.317 202.067,-249.212 281,-203.5 348.69,-164.299 380.78,-185.916 457,-203.5 533.118,-221.061 564.544,-220.863 615,-280.5 685.545,-363.881 698.568,-502.706 700.963,-553.825"/>
<polygon fill="midnightblue" stroke="midnightblue" points="697.467,-553.997 701.345,-563.857 704.462,-553.731 697.467,-553.997"/>
</g>
<!-- Node34 -->
<g id="node34" class="node"><title>Node34</title>
<g id="a_node34"><a xlink:href="cg__optical__flow__cors_8cc.html#a89184ca9fefae735b0f1f9824fb57543" target="_top" xlink:title="add_correspondences">
<polygon fill="white" stroke="black" points="498,-530 498,-549 610,-549 610,-530 498,-530"/>
<text text-anchor="middle" x="554" y="-537" font-family="Helvetica,sans-Serif" font-size="10.00">add_correspondences</text>
</a>
</g>
</g>
<!-- Node25&#45;&gt;Node34 -->
<g id="edge48" class="edge"><title>Node25&#45;&gt;Node34</title>
<path fill="none" stroke="midnightblue" d="M167.618,-423.177C184.44,-445.174 229.159,-498.708 281,-520.5 347.347,-548.389 430.825,-549.854 487.685,-546.443"/>
<polygon fill="midnightblue" stroke="midnightblue" points="488.238,-549.914 497.982,-545.755 487.771,-542.93 488.238,-549.914"/>
</g>
<!-- Node35 -->
<g id="node35" class="node"><title>Node35</title>
<g id="a_node35"><a xlink:href="classtlz_1_1dataset.html#a3623ef5d2922b36ca94b4982ba17e9fe" target="_top" xlink:title="tlz::dataset::is_2d">
<polygon fill="white" stroke="black" points="321.5,-328 321.5,-347 416.5,-347 416.5,-328 321.5,-328"/>
<text text-anchor="middle" x="369" y="-335" font-family="Helvetica,sans-Serif" font-size="10.00">tlz::dataset::is_2d</text>
</a>
</g>
</g>
<!-- Node25&#45;&gt;Node35 -->
<g id="edge49" class="edge"><title>Node25&#45;&gt;Node35</title>
<path fill="none" stroke="midnightblue" d="M177.543,-403.915C200.432,-391.403 242.665,-369.563 281,-356.5 290.759,-353.174 301.337,-350.292 311.646,-347.848"/>
<polygon fill="midnightblue" stroke="midnightblue" points="312.43,-351.259 321.411,-345.638 310.885,-344.432 312.43,-351.259"/>
</g>
<!-- Node36 -->
<g id="node36" class="node"><title>Node36</title>
<g id="a_node36"><a xlink:href="classtlz_1_1dataset.html#a95703f1285ba42a810d46644128daf9a" target="_top" xlink:title="tlz::dataset::y_step">
<polygon fill="white" stroke="black" points="318.5,-290 318.5,-309 419.5,-309 419.5,-290 318.5,-290"/>
<text text-anchor="middle" x="369" y="-297" font-family="Helvetica,sans-Serif" font-size="10.00">tlz::dataset::y_step</text>
</a>
</g>
</g>
<!-- Node25&#45;&gt;Node36 -->
<g id="edge50" class="edge"><title>Node25&#45;&gt;Node36</title>
<path fill="none" stroke="midnightblue" d="M169.475,-403.966C188.235,-384.641 233.789,-340.802 281,-318.5 289.611,-314.432 299.116,-311.222 308.585,-308.692"/>
<polygon fill="midnightblue" stroke="midnightblue" points="309.518,-312.067 318.402,-306.294 307.857,-305.267 309.518,-312.067"/>
</g>
<!-- Node37 -->
<g id="node37" class="node"><title>Node37</title>
<g id="a_node37"><a xlink:href="cg__optical__flow__cors_8cc.html#aa5dfbbc67079c854cb58b99bb003aab9" target="_top" xlink:title="print_flow_indicator">
<polygon fill="white" stroke="black" points="503.5,-290 503.5,-309 604.5,-309 604.5,-290 503.5,-290"/>
<text text-anchor="middle" x="554" y="-297" font-family="Helvetica,sans-Serif" font-size="10.00">print_flow_indicator</text>
</a>
</g>
</g>
<!-- Node25&#45;&gt;Node37 -->
<g id="edge51" class="edge"><title>Node25&#45;&gt;Node37</title>
<path fill="none" stroke="midnightblue" d="M163.242,-403.907C172.945,-372.004 209.002,-269.297 281,-230.5 349.861,-193.394 382.545,-206.519 457,-230.5 488.851,-240.759 519.068,-265.935 536.815,-282.868"/>
<polygon fill="midnightblue" stroke="midnightblue" points="534.468,-285.469 544.052,-289.985 539.376,-280.478 534.468,-285.469"/>
</g>
<!-- Node38 -->
<g id="node38" class="node"><title>Node38</title>
<g id="a_node38"><a xlink:href="cg__optical__flow__cors_8cc.html#afb40806f0de30fe623408f5cf1f47465" target="_top" xlink:title="flow_to">
<polygon fill="white" stroke="black" points="530,-606 530,-625 578,-625 578,-606 530,-606"/>
<text text-anchor="middle" x="554" y="-613" font-family="Helvetica,sans-Serif" font-size="10.00">flow_to</text>
</a>
</g>
</g>
<!-- Node25&#45;&gt;Node38 -->
<g id="edge52" class="edge"><title>Node25&#45;&gt;Node38</title>
<path fill="none" stroke="midnightblue" d="M164.231,-423.035C176.159,-452.107 216.408,-539.991 281,-578.5 356.984,-623.801 465.785,-622.86 519.862,-618.919"/>
<polygon fill="midnightblue" stroke="midnightblue" points="520.237,-622.4 529.922,-618.104 519.672,-615.423 520.237,-622.4"/>
</g>
<!-- Node40 -->
<g id="node40" class="node"><title>Node40</title>
<g id="a_node40"><a xlink:href="cg__optical__flow__cors_8cc.html#aa3aa33a3711a66a8f1c2b008580a75cb" target="_top" xlink:title="vertical_optical_flow\l_window_size">
<polygon fill="white" stroke="black" points="316.5,-240.5 316.5,-270.5 421.5,-270.5 421.5,-240.5 316.5,-240.5"/>
<text text-anchor="start" x="324.5" y="-258.5" font-family="Helvetica,sans-Serif" font-size="10.00">vertical_optical_flow</text>
<text text-anchor="middle" x="369" y="-247.5" font-family="Helvetica,sans-Serif" font-size="10.00">_window_size</text>
</a>
</g>
</g>
<!-- Node25&#45;&gt;Node40 -->
<g id="edge55" class="edge"><title>Node25&#45;&gt;Node40</title>
<path fill="none" stroke="midnightblue" d="M166.487,-403.79C182.13,-379.245 226.789,-314.279 281,-280.5 288.836,-275.617 297.657,-271.659 306.599,-268.458"/>
<polygon fill="midnightblue" stroke="midnightblue" points="307.897,-271.716 316.308,-265.274 305.716,-265.064 307.897,-271.716"/>
</g>
<!-- Node41 -->
<g id="node41" class="node"><title>Node41</title>
<g id="a_node41"><a xlink:href="structflow__state.html#a70ebb1f3987cbd90e1fd2666a0b68cf5" target="_top" xlink:title="flow_state::valid_features\l_count">
<polygon fill="white" stroke="black" points="305,-442.5 305,-472.5 433,-472.5 433,-442.5 305,-442.5"/>
<text text-anchor="start" x="313" y="-460.5" font-family="Helvetica,sans-Serif" font-size="10.00">flow_state::valid_features</text>
<text text-anchor="middle" x="369" y="-449.5" font-family="Helvetica,sans-Serif" font-size="10.00">_count</text>
</a>
</g>
</g>
<!-- Node25&#45;&gt;Node41 -->
<g id="edge56" class="edge"><title>Node25&#45;&gt;Node41</title>
<path fill="none" stroke="midnightblue" d="M205.524,-423.047C231.654,-428.588 265.194,-435.7 295.008,-442.022"/>
<polygon fill="midnightblue" stroke="midnightblue" points="294.451,-445.482 304.96,-444.132 295.903,-438.634 294.451,-445.482"/>
</g>
<!-- Node42 -->
<g id="node42" class="node"><title>Node42</title>
<g id="a_node42"><a xlink:href="cg__optical__flow__cors_8cc.html#a70ffcab7e1297f10267d7faa691a68d4" target="_top" xlink:title="do_horizontal_optical_flow">
<polygon fill="white" stroke="red" points="303.5,-492 303.5,-511 434.5,-511 434.5,-492 303.5,-492"/>
<text text-anchor="middle" x="369" y="-499" font-family="Helvetica,sans-Serif" font-size="10.00">do_horizontal_optical_flow</text>
</a>
</g>
</g>
<!-- Node25&#45;&gt;Node42 -->
<g id="edge57" class="edge"><title>Node25&#45;&gt;Node42</title>
<path fill="none" stroke="midnightblue" d="M173.91,-423.022C195.465,-437.889 239.605,-466.562 281,-482.5 287.745,-485.097 294.928,-487.379 302.164,-489.375"/>
<polygon fill="midnightblue" stroke="midnightblue" points="301.47,-492.81 312.027,-491.921 303.22,-486.032 301.47,-492.81"/>
</g>
<!-- Node29&#45;&gt;Node10 -->
<g id="edge44" class="edge"><title>Node29&#45;&gt;Node10</title>
<path fill="none" stroke="midnightblue" d="M735.608,-582.732C742.117,-585.526 748.61,-589.067 754,-593.5 776.852,-612.295 766.567,-631.435 790,-649.5 793.425,-652.14 797.231,-654.421 801.211,-656.389"/>
<polygon fill="midnightblue" stroke="midnightblue" points="800.145,-659.74 810.716,-660.438 802.888,-653.3 800.145,-659.74"/>
</g>
<!-- Node30 -->
<g id="node30" class="node"><title>Node30</title>
<g id="a_node30"><a xlink:href="classtlz_1_1dataset__group.html#aa0c9157fd56b01adebcecdcdd98f9e3f" target="_top" xlink:title="tlz::dataset_group\l::view">
<polygon fill="white" stroke="red" points="802,-609.5 802,-639.5 897,-639.5 897,-609.5 802,-609.5"/>
<text text-anchor="start" x="810" y="-627.5" font-family="Helvetica,sans-Serif" font-size="10.00">tlz::dataset_group</text>
<text text-anchor="middle" x="849.5" y="-616.5" font-family="Helvetica,sans-Serif" font-size="10.00">::view</text>
</a>
</g>
</g>
<!-- Node29&#45;&gt;Node30 -->
<g id="edge42" class="edge"><title>Node29&#45;&gt;Node30</title>
<path fill="none" stroke="midnightblue" d="M730.773,-583.093C749.139,-589.552 773.952,-598.28 796.062,-606.056"/>
<polygon fill="midnightblue" stroke="midnightblue" points="795.076,-609.42 805.671,-609.436 797.399,-602.816 795.076,-609.42"/>
</g>
<!-- Node31 -->
<g id="node31" class="node"><title>Node31</title>
<g id="a_node31"><a xlink:href="classtlz_1_1dataset__view.html#af3c734eaed33af07993255db63d3fc54" target="_top" xlink:title="tlz::dataset_view::\limage_filename">
<polygon fill="white" stroke="red" points="801,-560.5 801,-590.5 898,-590.5 898,-560.5 801,-560.5"/>
<text text-anchor="start" x="809" y="-578.5" font-family="Helvetica,sans-Serif" font-size="10.00">tlz::dataset_view::</text>
<text text-anchor="middle" x="849.5" y="-567.5" font-family="Helvetica,sans-Serif" font-size="10.00">image_filename</text>
</a>
</g>
</g>
<!-- Node29&#45;&gt;Node31 -->
<g id="edge43" class="edge"><title>Node29&#45;&gt;Node31</title>
<path fill="none" stroke="midnightblue" d="M735.68,-573.944C751.872,-574.167 771.997,-574.445 790.748,-574.703"/>
<polygon fill="midnightblue" stroke="midnightblue" points="790.943,-578.206 800.99,-574.845 791.039,-571.207 790.943,-578.206"/>
</g>
<!-- Node32 -->
<g id="node32" class="node"><title>Node32</title>
<g id="a_node32"><a xlink:href="namespacetlz.html#afbf92393383d3dde6ffd98700ea014f1" target="_top" xlink:title="tlz::load_texture">
<polygon fill="white" stroke="black" points="806.5,-522 806.5,-541 892.5,-541 892.5,-522 806.5,-522"/>
<text text-anchor="middle" x="849.5" y="-529" font-family="Helvetica,sans-Serif" font-size="10.00">tlz::load_texture</text>
</a>
</g>
</g>
<!-- Node29&#45;&gt;Node32 -->
<g id="edge45" class="edge"><title>Node29&#45;&gt;Node32</title>
<path fill="none" stroke="midnightblue" d="M735.68,-564.179C756.394,-558.179 783.545,-550.314 806.022,-543.804"/>
<polygon fill="midnightblue" stroke="midnightblue" points="807.025,-547.157 815.657,-541.013 805.078,-540.434 807.025,-547.157"/>
</g>
<!-- Node33 -->
<g id="node33" class="node"><title>Node33</title>
<g id="a_node33"><a xlink:href="namespacetlz.html#aadab29bdc80bc1d0ad6d3784dd427992" target="_top" xlink:title="tlz::encode_view_index">
<polygon fill="white" stroke="red" points="790,-484 790,-503 909,-503 909,-484 790,-484"/>
<text text-anchor="middle" x="849.5" y="-491" font-family="Helvetica,sans-Serif" font-size="10.00">tlz::encode_view_index</text>
</a>
</g>
</g>
<!-- Node29&#45;&gt;Node33 -->
<g id="edge46" class="edge"><title>Node29&#45;&gt;Node33</title>
<path fill="none" stroke="midnightblue" d="M714.819,-563.818C730.699,-550.647 760.915,-527.06 790,-512.5 794.309,-510.343 798.916,-508.356 803.583,-506.546"/>
<polygon fill="midnightblue" stroke="midnightblue" points="804.954,-509.772 813.17,-503.082 802.575,-503.189 804.954,-509.772"/>
</g>
<!-- Node33&#45;&gt;Node9 -->
<g id="edge47" class="edge"><title>Node33&#45;&gt;Node9</title>
<path fill="none" stroke="midnightblue" d="M888.06,-503.024C895.258,-505.583 902.553,-508.717 909,-512.5 941.576,-531.613 972.309,-563.539 989.589,-583.229"/>
<polygon fill="midnightblue" stroke="midnightblue" points="986.964,-585.544 996.137,-590.846 992.272,-580.981 986.964,-585.544"/>
</g>
<!-- Node38&#45;&gt;Node29 -->
<g id="edge54" class="edge"><title>Node38&#45;&gt;Node29</title>
<path fill="none" stroke="midnightblue" d="M578.213,-608.845C600.034,-602.589 633.201,-593.081 659.64,-585.501"/>
<polygon fill="midnightblue" stroke="midnightblue" points="660.758,-588.821 669.406,-582.701 658.829,-582.093 660.758,-588.821"/>
</g>
<!-- Node39 -->
<g id="node39" class="node"><title>Node39</title>
<g id="a_node39"><a xlink:href="structflow__state.html#a04a62f8006f54b559ef6fcc25b87e66b" target="_top" xlink:title="flow_state::features\l_count">
<polygon fill="white" stroke="black" points="651,-602.5 651,-632.5 754,-632.5 754,-602.5 651,-602.5"/>
<text text-anchor="start" x="659" y="-620.5" font-family="Helvetica,sans-Serif" font-size="10.00">flow_state::features</text>
<text text-anchor="middle" x="702.5" y="-609.5" font-family="Helvetica,sans-Serif" font-size="10.00">_count</text>
</a>
</g>
</g>
<!-- Node38&#45;&gt;Node39 -->
<g id="edge53" class="edge"><title>Node38&#45;&gt;Node39</title>
<path fill="none" stroke="midnightblue" d="M578.213,-615.817C595.075,-616.047 618.713,-616.37 640.786,-616.671"/>
<polygon fill="midnightblue" stroke="midnightblue" points="640.74,-620.171 650.787,-616.808 640.836,-613.171 640.74,-620.171"/>
</g>
<!-- Node42&#45;&gt;Node26 -->
<g id="edge58" class="edge"><title>Node42&#45;&gt;Node26</title>
<path fill="none" stroke="midnightblue" d="M388.849,-511.151C412.711,-523.155 455.263,-543.849 493,-558.5 498.612,-560.679 504.587,-562.8 510.509,-564.787"/>
<polygon fill="midnightblue" stroke="midnightblue" points="509.761,-568.224 520.353,-567.991 511.928,-561.567 509.761,-568.224"/>
</g>
<!-- Node42&#45;&gt;Node34 -->
<g id="edge64" class="edge"><title>Node42&#45;&gt;Node34</title>
<path fill="none" stroke="midnightblue" d="M416.179,-511.089C440.763,-516.194 471.186,-522.511 497.097,-527.892"/>
<polygon fill="midnightblue" stroke="midnightblue" points="496.651,-531.374 507.153,-529.98 498.074,-524.52 496.651,-531.374"/>
</g>
<!-- Node42&#45;&gt;Node37 -->
<g id="edge62" class="edge"><title>Node42&#45;&gt;Node37</title>
<path fill="none" stroke="midnightblue" d="M434.814,-494.384C442.816,-491.545 450.465,-487.696 457,-482.5 486.256,-459.24 475.85,-439.709 493,-406.5 509.283,-374.972 529.786,-339.159 542.119,-317.994"/>
<polygon fill="midnightblue" stroke="midnightblue" points="545.284,-319.514 547.314,-309.116 539.243,-315.979 545.284,-319.514"/>
</g>
<!-- Node42&#45;&gt;Node38 -->
<g id="edge63" class="edge"><title>Node42&#45;&gt;Node38</title>
<path fill="none" stroke="midnightblue" d="M379.988,-511.247C399.9,-530.187 446.623,-572.228 493,-596.5 501.37,-600.881 510.93,-604.47 519.922,-607.302"/>
<polygon fill="midnightblue" stroke="midnightblue" points="519.158,-610.725 529.739,-610.18 521.128,-604.008 519.158,-610.725"/>
</g>
<!-- Node43 -->
<g id="node43" class="node"><title>Node43</title>
<g id="a_node43"><a xlink:href="classtlz_1_1dataset.html#a15180d3b04937d9f1c69041a220b943b" target="_top" xlink:title="tlz::dataset::x_min">
<polygon fill="white" stroke="black" points="505,-416 505,-435 603,-435 603,-416 505,-416"/>
<text text-anchor="middle" x="554" y="-423" font-family="Helvetica,sans-Serif" font-size="10.00">tlz::dataset::x_min</text>
</a>
</g>
</g>
<!-- Node42&#45;&gt;Node43 -->
<g id="edge59" class="edge"><title>Node42&#45;&gt;Node43</title>
<path fill="none" stroke="midnightblue" d="M434.807,-491.916C442.549,-489.46 450.133,-486.375 457,-482.5 477.262,-471.067 473.283,-456.849 493,-444.5 496.342,-442.407 499.935,-440.526 503.641,-438.839"/>
<polygon fill="midnightblue" stroke="midnightblue" points="505.058,-442.041 513.008,-435.037 502.425,-435.555 505.058,-442.041"/>
</g>
<!-- Node44 -->
<g id="node44" class="node"><title>Node44</title>
<g id="a_node44"><a xlink:href="classtlz_1_1dataset.html#a280e3ae6c4b37e1e18fabf00b70be20a" target="_top" xlink:title="tlz::dataset::x_max">
<polygon fill="white" stroke="black" points="503.5,-492 503.5,-511 604.5,-511 604.5,-492 503.5,-492"/>
<text text-anchor="middle" x="554" y="-499" font-family="Helvetica,sans-Serif" font-size="10.00">tlz::dataset::x_max</text>
</a>
</g>
</g>
<!-- Node42&#45;&gt;Node44 -->
<g id="edge60" class="edge"><title>Node42&#45;&gt;Node44</title>
<path fill="none" stroke="midnightblue" d="M434.519,-501.5C453.62,-501.5 474.445,-501.5 493.232,-501.5"/>
<polygon fill="midnightblue" stroke="midnightblue" points="493.436,-505 503.436,-501.5 493.436,-498 493.436,-505"/>
</g>
<!-- Node45 -->
<g id="node45" class="node"><title>Node45</title>
<g id="a_node45"><a xlink:href="classtlz_1_1dataset.html#a7efef5473f244709a47ff506267652b1" target="_top" xlink:title="tlz::dataset::x_step">
<polygon fill="white" stroke="black" points="503.5,-454 503.5,-473 604.5,-473 604.5,-454 503.5,-454"/>
<text text-anchor="middle" x="554" y="-461" font-family="Helvetica,sans-Serif" font-size="10.00">tlz::dataset::x_step</text>
</a>
</g>
</g>
<!-- Node42&#45;&gt;Node45 -->
<g id="edge61" class="edge"><title>Node42&#45;&gt;Node45</title>
<path fill="none" stroke="midnightblue" d="M416.179,-491.911C440.763,-486.806 471.186,-480.489 497.097,-475.108"/>
<polygon fill="midnightblue" stroke="midnightblue" points="498.074,-478.48 507.153,-473.02 496.651,-471.626 498.074,-478.48"/>
</g>
<!-- Node47 -->
<g id="node47" class="node"><title>Node47</title>
<g id="a_node47"><a xlink:href="namespacetlz.html#ae11c827ac9e581f9d2f98c39aab3750d" target="_top" xlink:title="tlz::file_name_extension">
<polygon fill="white" stroke="black" points="493,-107 493,-126 615,-126 615,-107 493,-107"/>
<text text-anchor="middle" x="554" y="-114" font-family="Helvetica,sans-Serif" font-size="10.00">tlz::file_name_extension</text>
</a>
</g>
</g>
<!-- Node46&#45;&gt;Node47 -->
<g id="edge66" class="edge"><title>Node46&#45;&gt;Node47</title>
<path fill="none" stroke="midnightblue" d="M209.541,-107.013C231.332,-110.779 257.352,-114.647 281,-116.5 349.331,-121.854 427.616,-121.137 482.601,-119.512"/>
<polygon fill="midnightblue" stroke="midnightblue" points="483.048,-123 492.933,-119.188 482.828,-116.003 483.048,-123"/>
</g>
<!-- Node48 -->
<g id="node48" class="node"><title>Node48</title>
<g id="a_node48"><a xlink:href="namespacetlz.html#ab98de0b10e3e079dee189f81adc638a0" target="_top" xlink:title="tlz::export_json_file">
<polygon fill="white" stroke="black" points="318.5,-88 318.5,-107 419.5,-107 419.5,-88 318.5,-88"/>
<text text-anchor="middle" x="369" y="-95" font-family="Helvetica,sans-Serif" font-size="10.00">tlz::export_json_file</text>
</a>
</g>
</g>
<!-- Node46&#45;&gt;Node48 -->
<g id="edge67" class="edge"><title>Node46&#45;&gt;Node48</title>
<path fill="none" stroke="midnightblue" d="M245.197,-97.5C266.383,-97.5 288.665,-97.5 308.347,-97.5"/>
<polygon fill="midnightblue" stroke="midnightblue" points="308.382,-101 318.382,-97.5 308.382,-94.0001 308.382,-101"/>
</g>
<!-- Node49 -->
<g id="node49" class="node"><title>Node49</title>
<g id="a_node49"><a xlink:href="namespacetlz.html#a5425610b090d56218f8a7272ba402bfb" target="_top" xlink:title="tlz::encode_image_correspondences">
<polygon fill="white" stroke="red" points="281,-50 281,-69 457,-69 457,-50 281,-50"/>
<text text-anchor="middle" x="369" y="-57" font-family="Helvetica,sans-Serif" font-size="10.00">tlz::encode_image_correspondences</text>
</a>
</g>
</g>
<!-- Node46&#45;&gt;Node49 -->
<g id="edge69" class="edge"><title>Node46&#45;&gt;Node49</title>
<path fill="none" stroke="midnightblue" d="M212.593,-87.96C240.96,-82.7652 276.243,-76.3037 306.017,-70.8511"/>
<polygon fill="midnightblue" stroke="midnightblue" points="306.679,-74.2881 315.885,-69.0439 305.418,-67.4026 306.679,-74.2881"/>
</g>
<!-- Node50 -->
<g id="node50" class="node"><title>Node50</title>
<g id="a_node50"><a xlink:href="namespacetlz.html#a24bb23db2319f38046e6de526a0cb20e" target="_top" xlink:title="tlz::export_binary\l_image_correspondences">
<polygon fill="white" stroke="black" points="305,-0.5 305,-30.5 433,-30.5 433,-0.5 305,-0.5"/>
<text text-anchor="start" x="313" y="-18.5" font-family="Helvetica,sans-Serif" font-size="10.00">tlz::export_binary</text>
<text text-anchor="middle" x="369" y="-7.5" font-family="Helvetica,sans-Serif" font-size="10.00">_image_correspondences</text>
</a>
</g>
</g>
<!-- Node46&#45;&gt;Node50 -->
<g id="edge70" class="edge"><title>Node46&#45;&gt;Node50</title>
<path fill="none" stroke="midnightblue" d="M178.474,-87.8676C201.681,-75.6964 243.541,-54.6349 281,-40.5 287.322,-38.1142 293.976,-35.8246 300.67,-33.6661"/>
<polygon fill="midnightblue" stroke="midnightblue" points="301.973,-36.9258 310.473,-30.6016 299.885,-30.2446 301.973,-36.9258"/>
</g>
<!-- Node48&#45;&gt;Node47 -->
<g id="edge68" class="edge"><title>Node48&#45;&gt;Node47</title>
<path fill="none" stroke="midnightblue" d="M419.522,-102.642C438.898,-104.653 461.48,-106.998 482.5,-109.18"/>
<polygon fill="midnightblue" stroke="midnightblue" points="482.364,-112.685 492.672,-110.236 483.087,-105.722 482.364,-112.685"/>
</g>
</g>
</svg>
