<?xml version="1.0" encoding="UTF-8" standalone="no"?>
<!DOCTYPE svg PUBLIC "-//W3C//DTD SVG 1.1//EN"
 "http://www.w3.org/Graphics/SVG/1.1/DTD/svg11.dtd">
<!-- Generated by graphviz version 2.38.0 (20140413.2041)
 -->
<!-- Title: main Pages: 1 -->
<svg width="944pt" height="1139pt"
 viewBox="0.00 0.00 944.00 1139.00" xmlns="http://www.w3.org/2000/svg" xmlns:xlink="http://www.w3.org/1999/xlink">
<g id="graph0" class="graph" transform="scale(1 1) rotate(0) translate(4 1135)">
<title>main</title>
<polygon fill="white" stroke="none" points="-4,4 -4,-1135 940,-1135 940,4 -4,4"/>
<!-- Node1 -->
<g id="node1" class="node"><title>Node1</title>
<polygon fill="#bfbfbf" stroke="black" points="0,-513.5 0,-532.5 38,-532.5 38,-513.5 0,-513.5"/>
<text text-anchor="middle" x="19" y="-520.5" font-family="Helvetica,sans-Serif" font-size="10.00">main</text>
</g>
<!-- Node2 -->
<g id="node2" class="node"><title>Node2</title>
<g id="a_node2"><a xlink:href="namespacetlz.html#a3c03f5d9d6261ec2909938822fc47f8a" target="_top" xlink:title="tlz::get_args">
<polygon fill="white" stroke="black" points="106.5,-1111.5 106.5,-1130.5 177.5,-1130.5 177.5,-1111.5 106.5,-1111.5"/>
<text text-anchor="middle" x="142" y="-1118.5" font-family="Helvetica,sans-Serif" font-size="10.00">tlz::get_args</text>
</a>
</g>
</g>
<!-- Node1&#45;&gt;Node2 -->
<g id="edge1" class="edge"><title>Node1&#45;&gt;Node2</title>
<path fill="none" stroke="midnightblue" d="M20.288,-532.557C22.5133,-603.795 37.8546,-1050.46 74,-1097 79.7325,-1104.38 87.9267,-1109.5 96.6274,-1113.04"/>
<polygon fill="midnightblue" stroke="midnightblue" points="95.5805,-1116.38 106.175,-1116.3 97.8428,-1109.76 95.5805,-1116.38"/>
</g>
<!-- Node3 -->
<g id="node3" class="node"><title>Node3</title>
<g id="a_node3"><a xlink:href="namespacetlz.html#af0d1e8ba5b9f2dbc2b589afab3a21fc8" target="_top" xlink:title="tlz::int_arg">
<polygon fill="white" stroke="black" points="561.5,-1073.5 561.5,-1092.5 623.5,-1092.5 623.5,-1073.5 561.5,-1073.5"/>
<text text-anchor="middle" x="592.5" y="-1080.5" font-family="Helvetica,sans-Serif" font-size="10.00">tlz::int_arg</text>
</a>
</g>
</g>
<!-- Node1&#45;&gt;Node3 -->
<g id="edge2" class="edge"><title>Node1&#45;&gt;Node3</title>
<path fill="none" stroke="midnightblue" d="M19.8974,-532.585C19.4504,-591.148 19.7128,-900.62 74,-974 185.941,-1125.31 450.438,-1104.19 551.389,-1089.76"/>
<polygon fill="midnightblue" stroke="midnightblue" points="552.101,-1093.2 561.479,-1088.26 551.073,-1086.27 552.101,-1093.2"/>
</g>
<!-- Node7 -->
<g id="node7" class="node"><title>Node7</title>
<g id="a_node7"><a xlink:href="namespacetlz.html#a8e4f8c8c2927bc4350de13bfa0f8f9e1" target="_top" xlink:title="tlz::to_string">
<polygon fill="white" stroke="black" points="840.5,-883.5 840.5,-902.5 911.5,-902.5 911.5,-883.5 840.5,-883.5"/>
<text text-anchor="middle" x="876" y="-890.5" font-family="Helvetica,sans-Serif" font-size="10.00">tlz::to_string</text>
</a>
</g>
</g>
<!-- Node1&#45;&gt;Node7 -->
<g id="edge65" class="edge"><title>Node1&#45;&gt;Node7</title>
<path fill="none" stroke="midnightblue" d="M20.145,-532.612C21.0778,-579.953 27.788,-787.633 74,-827 85.7796,-837.035 615.642,-834.104 631,-836 703.552,-844.956 785.994,-866.716 834.078,-880.61"/>
<polygon fill="midnightblue" stroke="midnightblue" points="833.221,-884.006 843.802,-883.448 835.183,-877.286 833.221,-884.006"/>
</g>
<!-- Node8 -->
<g id="node8" class="node"><title>Node8</title>
<g id="a_node8"><a xlink:href="namespacetlz.html#a63246890b0c946b5f62a1d3e2bea6103" target="_top" xlink:title="tlz::real_arg">
<polygon fill="white" stroke="black" points="558.5,-1035.5 558.5,-1054.5 626.5,-1054.5 626.5,-1035.5 558.5,-1035.5"/>
<text text-anchor="middle" x="592.5" y="-1042.5" font-family="Helvetica,sans-Serif" font-size="10.00">tlz::real_arg</text>
</a>
</g>
</g>
<!-- Node1&#45;&gt;Node8 -->
<g id="edge8" class="edge"><title>Node1&#45;&gt;Node8</title>
<path fill="none" stroke="midnightblue" d="M20.1014,-532.634C20.8456,-586.436 26.8794,-849.542 74,-912 187.292,-1062.17 445.817,-1057.88 548.4,-1049.61"/>
<polygon fill="midnightblue" stroke="midnightblue" points="548.741,-1053.1 558.405,-1048.75 548.142,-1046.12 548.741,-1053.1"/>
</g>
<!-- Node9 -->
<g id="node9" class="node"><title>Node9</title>
<g id="a_node9"><a xlink:href="namespacetlz.html#a170805c7a8ede64a93e0ee23196e5b7c" target="_top" xlink:title="tlz::intrinsics_arg">
<polygon fill="white" stroke="black" points="96.5,-883.5 96.5,-902.5 187.5,-902.5 187.5,-883.5 96.5,-883.5"/>
<text text-anchor="middle" x="142" y="-890.5" font-family="Helvetica,sans-Serif" font-size="10.00">tlz::intrinsics_arg</text>
</a>
</g>
</g>
<!-- Node1&#45;&gt;Node9 -->
<g id="edge12" class="edge"><title>Node1&#45;&gt;Node9</title>
<path fill="none" stroke="midnightblue" d="M20.3702,-532.584C22.44,-581.786 33.9646,-805.778 74,-860 80.0075,-868.136 88.5741,-874.378 97.5826,-879.124"/>
<polygon fill="midnightblue" stroke="midnightblue" points="96.1206,-882.304 106.66,-883.387 99.0961,-875.968 96.1206,-882.304"/>
</g>
<!-- Node19 -->
<g id="node19" class="node"><title>Node19</title>
<g id="a_node19"><a xlink:href="classtlz_1_1viewer.html#a2bf9d63d7a1a5ec4d5bdabc13d9ab688" target="_top" xlink:title="tlz::viewer::add_int\l_slider">
<polygon fill="white" stroke="black" points="92.5,-787 92.5,-817 191.5,-817 191.5,-787 92.5,-787"/>
<text text-anchor="start" x="100.5" y="-805" font-family="Helvetica,sans-Serif" font-size="10.00">tlz::viewer::add_int</text>
<text text-anchor="middle" x="142" y="-794" font-family="Helvetica,sans-Serif" font-size="10.00">_slider</text>
</a>
</g>
</g>
<!-- Node1&#45;&gt;Node19 -->
<g id="edge27" class="edge"><title>Node1&#45;&gt;Node19</title>
<path fill="none" stroke="midnightblue" d="M20.8242,-532.676C24.5617,-574.449 41.1742,-738.931 74,-777 76.7819,-780.226 80.0217,-783.037 83.5467,-785.485"/>
<polygon fill="midnightblue" stroke="midnightblue" points="81.8115,-788.525 92.208,-790.565 85.3532,-782.487 81.8115,-788.525"/>
</g>
<!-- Node20 -->
<g id="node20" class="node"><title>Node20</title>
<g id="a_node20"><a xlink:href="classtlz_1_1grabber.html#a14d256bd7ef0af5be70f2bd7713a7e54" target="_top" xlink:title="tlz::grabber::grab">
<polygon fill="white" stroke="black" points="97,-748.5 97,-767.5 187,-767.5 187,-748.5 97,-748.5"/>
<text text-anchor="middle" x="142" y="-755.5" font-family="Helvetica,sans-Serif" font-size="10.00">tlz::grabber::grab</text>
</a>
</g>
</g>
<!-- Node1&#45;&gt;Node20 -->
<g id="edge28" class="edge"><title>Node1&#45;&gt;Node20</title>
<path fill="none" stroke="midnightblue" d="M21.1163,-532.544C25.7126,-570.265 44.3418,-708.397 74,-739 77.8916,-743.016 82.5639,-746.2 87.6078,-748.723"/>
<polygon fill="midnightblue" stroke="midnightblue" points="86.4202,-752.019 96.9998,-752.587 89.0833,-745.546 86.4202,-752.019"/>
</g>
<!-- Node21 -->
<g id="node21" class="node"><title>Node21</title>
<g id="a_node21"><a xlink:href="classtlz_1_1viewer.html#a0ad9ee28b8127c63b2886b04fb36e3dc" target="_top" xlink:title="tlz::viewer::clear">
<polygon fill="white" stroke="black" points="97.5,-672.5 97.5,-691.5 186.5,-691.5 186.5,-672.5 97.5,-672.5"/>
<text text-anchor="middle" x="142" y="-679.5" font-family="Helvetica,sans-Serif" font-size="10.00">tlz::viewer::clear</text>
</a>
</g>
</g>
<!-- Node1&#45;&gt;Node21 -->
<g id="edge29" class="edge"><title>Node1&#45;&gt;Node21</title>
<path fill="none" stroke="midnightblue" d="M20.8378,-532.797C23.5463,-558.22 34.3519,-626.834 74,-663 78.0755,-666.718 82.8265,-669.714 87.8827,-672.127"/>
<polygon fill="midnightblue" stroke="midnightblue" points="86.6491,-675.403 97.2335,-675.872 89.2518,-668.905 86.6491,-675.403"/>
</g>
<!-- Node24 -->
<g id="node24" class="node"><title>Node24</title>
<g id="a_node24"><a xlink:href="classtlz_1_1grabber.html#a22caa426aef0275c5cdf9bfebe352940" target="_top" xlink:title="tlz::grabber::get_depth\l_frame">
<polygon fill="white" stroke="black" points="85,-623 85,-653 199,-653 199,-623 85,-623"/>
<text text-anchor="start" x="93" y="-641" font-family="Helvetica,sans-Serif" font-size="10.00">tlz::grabber::get_depth</text>
<text text-anchor="middle" x="142" y="-630" font-family="Helvetica,sans-Serif" font-size="10.00">_frame</text>
</a>
</g>
</g>
<!-- Node1&#45;&gt;Node24 -->
<g id="edge32" class="edge"><title>Node1&#45;&gt;Node24</title>
<path fill="none" stroke="midnightblue" d="M23.2316,-532.722C29.8445,-551.175 46.646,-591.442 74,-614 75.5728,-615.297 77.2213,-616.527 78.929,-617.692"/>
<polygon fill="midnightblue" stroke="midnightblue" points="77.4991,-620.913 87.8865,-622.999 81.0674,-614.891 77.4991,-620.913"/>
</g>
<!-- Node25 -->
<g id="node25" class="node"><title>Node25</title>
<g id="a_node25"><a xlink:href="classtlz_1_1grabber.html#ab0a7ab9197c8d2676a072c3f9eadd96d" target="_top" xlink:title="tlz::grabber::get_ir\l_frame">
<polygon fill="white" stroke="black" points="94.5,-574 94.5,-604 189.5,-604 189.5,-574 94.5,-574"/>
<text text-anchor="start" x="102.5" y="-592" font-family="Helvetica,sans-Serif" font-size="10.00">tlz::grabber::get_ir</text>
<text text-anchor="middle" x="142" y="-581" font-family="Helvetica,sans-Serif" font-size="10.00">_frame</text>
</a>
</g>
</g>
<!-- Node1&#45;&gt;Node25 -->
<g id="edge33" class="edge"><title>Node1&#45;&gt;Node25</title>
<path fill="none" stroke="midnightblue" d="M30.9183,-532.827C41.3805,-541.856 57.914,-555.144 74,-564 77.7318,-566.055 81.6669,-568.007 85.6837,-569.849"/>
<polygon fill="midnightblue" stroke="midnightblue" points="84.5796,-573.185 95.1475,-573.94 87.3569,-566.759 84.5796,-573.185"/>
</g>
<!-- Node26 -->
<g id="node26" class="node"><title>Node26</title>
<g id="a_node26"><a xlink:href="namespacetlz.html#abc33c7b74cbbd686b06228c1fdad9214" target="_top" xlink:title="tlz::detect_ir_checkerboard">
<polygon fill="white" stroke="black" points="75,-535.5 75,-554.5 209,-554.5 209,-535.5 75,-535.5"/>
<text text-anchor="middle" x="142" y="-542.5" font-family="Helvetica,sans-Serif" font-size="10.00">tlz::detect_ir_checkerboard</text>
</a>
</g>
</g>
<!-- Node1&#45;&gt;Node26 -->
<g id="edge34" class="edge"><title>Node1&#45;&gt;Node26</title>
<path fill="none" stroke="midnightblue" d="M38.1149,-526.294C49.0424,-528.28 63.6773,-530.941 78.474,-533.632"/>
<polygon fill="midnightblue" stroke="midnightblue" points="78.2352,-537.146 88.7001,-535.491 79.4875,-530.258 78.2352,-537.146"/>
</g>
<!-- Node29 -->
<g id="node29" class="node"><title>Node29</title>
<g id="a_node29"><a xlink:href="namespacetlz.html#a48aea98fe42d152179154953ece9b366" target="_top" xlink:title="tlz::checkerboard_pixel\l_depth_samples">
<polygon fill="white" stroke="black" points="255,-360 255,-390 372,-390 372,-360 255,-360"/>
<text text-anchor="start" x="263" y="-378" font-family="Helvetica,sans-Serif" font-size="10.00">tlz::checkerboard_pixel</text>
<text text-anchor="middle" x="313.5" y="-367" font-family="Helvetica,sans-Serif" font-size="10.00">_depth_samples</text>
</a>
</g>
</g>
<!-- Node1&#45;&gt;Node29 -->
<g id="edge37" class="edge"><title>Node1&#45;&gt;Node29</title>
<path fill="none" stroke="midnightblue" d="M20.8444,-513.324C23.54,-488.941 34.2636,-424.869 74,-396 122.867,-360.498 193.102,-358.534 244.702,-363.472"/>
<polygon fill="midnightblue" stroke="midnightblue" points="244.448,-366.965 254.762,-364.544 245.189,-360.004 244.448,-366.965"/>
</g>
<!-- Node31 -->
<g id="node31" class="node"><title>Node31</title>
<g id="a_node31"><a xlink:href="namespacetlz.html#ac176ab31932290f05fb3c647f8ecdd85" target="_top" xlink:title="tlz::estimate_checkerboard\l_extrinsics">
<polygon fill="white" stroke="black" points="75,-311 75,-341 209,-341 209,-311 75,-311"/>
<text text-anchor="start" x="83" y="-329" font-family="Helvetica,sans-Serif" font-size="10.00">tlz::estimate_checkerboard</text>
<text text-anchor="middle" x="142" y="-318" font-family="Helvetica,sans-Serif" font-size="10.00">_extrinsics</text>
</a>
</g>
</g>
<!-- Node1&#45;&gt;Node31 -->
<g id="edge39" class="edge"><title>Node1&#45;&gt;Node31</title>
<path fill="none" stroke="midnightblue" d="M20.4647,-513.375C22.3055,-485.493 31.2668,-403.629 74,-356 77.2342,-352.395 80.9846,-349.2 85.0265,-346.371"/>
<polygon fill="midnightblue" stroke="midnightblue" points="86.9719,-349.284 93.6608,-341.067 83.308,-343.319 86.9719,-349.284"/>
</g>
<!-- Node36 -->
<g id="node36" class="node"><title>Node36</title>
<g id="a_node36"><a xlink:href="namespacetlz.html#a14afc7fea76a0b1ef43be4abfcdb97e4" target="_top" xlink:title="tlz::calculate_checkerboard\l_pixel_depths">
<polygon fill="white" stroke="black" points="74,-262 74,-292 210,-292 210,-262 74,-262"/>
<text text-anchor="start" x="82" y="-280" font-family="Helvetica,sans-Serif" font-size="10.00">tlz::calculate_checkerboard</text>
<text text-anchor="middle" x="142" y="-269" font-family="Helvetica,sans-Serif" font-size="10.00">_pixel_depths</text>
</a>
</g>
</g>
<!-- Node1&#45;&gt;Node36 -->
<g id="edge45" class="edge"><title>Node1&#45;&gt;Node36</title>
<path fill="none" stroke="midnightblue" d="M21.1583,-513.307C25.9145,-474.983 45.0697,-334.546 74,-302 75.1909,-300.66 76.4605,-299.392 77.7962,-298.192"/>
<polygon fill="midnightblue" stroke="midnightblue" points="80.1445,-300.807 86.081,-292.032 75.9678,-295.19 80.1445,-300.807"/>
</g>
<!-- Node37 -->
<g id="node37" class="node"><title>Node37</title>
<g id="a_node37"><a xlink:href="namespacetlz.html#a492777e414b1a5103f074696c2385c9e" target="_top" xlink:title="tlz::checkerboard_parallel\l_measures">
<polygon fill="white" stroke="black" points="78,-437 78,-467 206,-467 206,-437 78,-437"/>
<text text-anchor="start" x="86" y="-455" font-family="Helvetica,sans-Serif" font-size="10.00">tlz::checkerboard_parallel</text>
<text text-anchor="middle" x="142" y="-444" font-family="Helvetica,sans-Serif" font-size="10.00">_measures</text>
</a>
</g>
</g>
<!-- Node1&#45;&gt;Node37 -->
<g id="edge47" class="edge"><title>Node1&#45;&gt;Node37</title>
<path fill="none" stroke="midnightblue" d="M29.1632,-513.412C39.3231,-503.234 56.5875,-487.234 74,-477 77.4536,-474.97 81.1009,-473.055 84.8383,-471.258"/>
<polygon fill="midnightblue" stroke="midnightblue" points="86.5626,-474.32 94.2549,-467.035 83.6982,-467.933 86.5626,-474.32"/>
</g>
<!-- Node42 -->
<g id="node42" class="node"><title>Node42</title>
<g id="a_node42"><a xlink:href="namespacetlz.html#a53bbde5568ab51896f6c4c2730d91256" target="_top" xlink:title="tlz::calculate_parallel\l_checkerboard_depth">
<polygon fill="white" stroke="black" points="87,-486 87,-516 197,-516 197,-486 87,-486"/>
<text text-anchor="start" x="95" y="-504" font-family="Helvetica,sans-Serif" font-size="10.00">tlz::calculate_parallel</text>
<text text-anchor="middle" x="142" y="-493" font-family="Helvetica,sans-Serif" font-size="10.00">_checkerboard_depth</text>
</a>
</g>
</g>
<!-- Node1&#45;&gt;Node42 -->
<g id="edge53" class="edge"><title>Node1&#45;&gt;Node42</title>
<path fill="none" stroke="midnightblue" d="M38.1149,-519.706C48.6675,-517.788 62.6773,-515.24 76.9515,-512.645"/>
<polygon fill="midnightblue" stroke="midnightblue" points="77.624,-516.08 86.8366,-510.848 76.3718,-509.193 77.624,-516.08"/>
</g>
<!-- Node43 -->
<g id="node43" class="node"><title>Node43</title>
<g id="a_node43"><a xlink:href="classtlz_1_1viewer.html#a5f0412cff89a343ad52431689502389d" target="_top" xlink:title="tlz::viewer::draw">
<polygon fill="white" stroke="black" points="97.5,-710.5 97.5,-729.5 186.5,-729.5 186.5,-710.5 97.5,-710.5"/>
<text text-anchor="middle" x="142" y="-717.5" font-family="Helvetica,sans-Serif" font-size="10.00">tlz::viewer::draw</text>
</a>
</g>
</g>
<!-- Node1&#45;&gt;Node43 -->
<g id="edge56" class="edge"><title>Node1&#45;&gt;Node43</title>
<path fill="none" stroke="midnightblue" d="M19.9081,-532.716C20.1754,-562.44 25.1509,-653.033 74,-701 77.9899,-704.918 82.725,-708.04 87.8058,-710.527"/>
<polygon fill="midnightblue" stroke="midnightblue" points="86.6559,-713.837 97.2383,-714.35 89.2855,-707.35 86.6559,-713.837"/>
</g>
<!-- Node44 -->
<g id="node44" class="node"><title>Node44</title>
<g id="a_node44"><a xlink:href="namespacetlz.html#a0ae3b183b2bd5a5074615f7eb2b7677d" target="_top" xlink:title="tlz::visualize_checkerboard">
<polygon fill="white" stroke="black" points="246,-409.5 246,-428.5 381,-428.5 381,-409.5 246,-409.5"/>
<text text-anchor="middle" x="313.5" y="-416.5" font-family="Helvetica,sans-Serif" font-size="10.00">tlz::visualize_checkerboard</text>
</a>
</g>
</g>
<!-- Node1&#45;&gt;Node44 -->
<g id="edge59" class="edge"><title>Node1&#45;&gt;Node44</title>
<path fill="none" stroke="midnightblue" d="M22.1926,-513.279C27.2985,-493.2 42.0568,-447.401 74,-428 131.439,-393.113 211.827,-398.819 263.03,-407.685"/>
<polygon fill="midnightblue" stroke="midnightblue" points="262.399,-411.128 272.866,-409.49 263.662,-404.243 262.399,-411.128"/>
</g>
<!-- Node45 -->
<g id="node45" class="node"><title>Node45</title>
<g id="a_node45"><a xlink:href="classtlz_1_1viewer.html#ac882ef84c24e8c209c13e2308c5c8c0c" target="_top" xlink:title="tlz::viewer::draw_2d\l_arrow_indicator">
<polygon fill="white" stroke="black" points="90,-213 90,-243 194,-243 194,-213 90,-213"/>
<text text-anchor="start" x="98" y="-231" font-family="Helvetica,sans-Serif" font-size="10.00">tlz::viewer::draw_2d</text>
<text text-anchor="middle" x="142" y="-220" font-family="Helvetica,sans-Serif" font-size="10.00">_arrow_indicator</text>
</a>
</g>
</g>
<!-- Node1&#45;&gt;Node45 -->
<g id="edge61" class="edge"><title>Node1&#45;&gt;Node45</title>
<path fill="none" stroke="midnightblue" d="M20.6929,-513.309C23.977,-469.908 39.2829,-293.758 74,-253 76.1736,-250.448 78.6341,-248.156 81.2966,-246.098"/>
<polygon fill="midnightblue" stroke="midnightblue" points="83.307,-248.967 89.8059,-240.599 79.5074,-243.087 83.307,-248.967"/>
</g>
<!-- Node46 -->
<g id="node46" class="node"><title>Node46</title>
<g id="a_node46"><a xlink:href="namespacetlz.html#ab1a9db5eb0f9631c1d0b88d38dee54c7" target="_top" xlink:title="tlz::visualize_checkerboard\l_pixel_samples">
<polygon fill="white" stroke="black" points="74.5,-164 74.5,-194 209.5,-194 209.5,-164 74.5,-164"/>
<text text-anchor="start" x="82.5" y="-182" font-family="Helvetica,sans-Serif" font-size="10.00">tlz::visualize_checkerboard</text>
<text text-anchor="middle" x="142" y="-171" font-family="Helvetica,sans-Serif" font-size="10.00">_pixel_samples</text>
</a>
</g>
</g>
<!-- Node1&#45;&gt;Node46 -->
<g id="edge62" class="edge"><title>Node1&#45;&gt;Node46</title>
<path fill="none" stroke="midnightblue" d="M20.3716,-513.222C22.3886,-465.017 33.4752,-253.033 74,-204 74.9887,-202.804 76.0405,-201.665 77.147,-200.58"/>
<polygon fill="midnightblue" stroke="midnightblue" points="79.5247,-203.16 85.1529,-194.184 75.1555,-197.691 79.5247,-203.16"/>
</g>
<!-- Node47 -->
<g id="node47" class="node"><title>Node47</title>
<g id="a_node47"><a xlink:href="classtlz_1_1viewer.html#a6a59617413dc76948b6802399ddf555b" target="_top" xlink:title="tlz::viewer::visualize\l_depth">
<polygon fill="white" stroke="black" points="89,-115 89,-145 195,-145 195,-115 89,-115"/>
<text text-anchor="start" x="97" y="-133" font-family="Helvetica,sans-Serif" font-size="10.00">tlz::viewer::visualize</text>
<text text-anchor="middle" x="142" y="-122" font-family="Helvetica,sans-Serif" font-size="10.00">_depth</text>
</a>
</g>
</g>
<!-- Node1&#45;&gt;Node47 -->
<g id="edge63" class="edge"><title>Node1&#45;&gt;Node47</title>
<path fill="none" stroke="midnightblue" d="M20.1302,-513.159C21.016,-460.512 27.6293,-212.38 74,-155 75.9021,-152.646 78.0494,-150.514 80.378,-148.583"/>
<polygon fill="midnightblue" stroke="midnightblue" points="82.6188,-151.291 88.9005,-142.759 78.6694,-145.511 82.6188,-151.291"/>
</g>
<!-- Node48 -->
<g id="node48" class="node"><title>Node48</title>
<g id="a_node48"><a xlink:href="classtlz_1_1viewer.html#ad4fda702b7c5af2cb0bb9bc3842113f3" target="_top" xlink:title="tlz::viewer::draw_text">
<polygon fill="white" stroke="black" points="87,-76.5 87,-95.5 197,-95.5 197,-76.5 87,-76.5"/>
<text text-anchor="middle" x="142" y="-83.5" font-family="Helvetica,sans-Serif" font-size="10.00">tlz::viewer::draw_text</text>
</a>
</g>
</g>
<!-- Node1&#45;&gt;Node48 -->
<g id="edge64" class="edge"><title>Node1&#45;&gt;Node48</title>
<path fill="none" stroke="midnightblue" d="M19.8782,-513.32C19.3637,-456.831 19.4954,-170.09 74,-106 75.5016,-104.234 77.1519,-102.621 78.9204,-101.147"/>
<polygon fill="midnightblue" stroke="midnightblue" points="80.9583,-103.994 87.3365,-95.5346 77.0748,-98.1704 80.9583,-103.994"/>
</g>
<!-- Node49 -->
<g id="node49" class="node"><title>Node49</title>
<g id="a_node49"><a xlink:href="classtlz_1_1grabber.html#a412843d3f5dbbcb179e5ae4709577b91" target="_top" xlink:title="tlz::grabber::release">
<polygon fill="white" stroke="black" points="90.5,-38.5 90.5,-57.5 193.5,-57.5 193.5,-38.5 90.5,-38.5"/>
<text text-anchor="middle" x="142" y="-45.5" font-family="Helvetica,sans-Serif" font-size="10.00">tlz::grabber::release</text>
</a>
</g>
</g>
<!-- Node1&#45;&gt;Node49 -->
<g id="edge66" class="edge"><title>Node1&#45;&gt;Node49</title>
<path fill="none" stroke="midnightblue" d="M19.7438,-513.199C18.3799,-453.334 14.12,-137.208 74,-67 76.1969,-64.4242 78.7147,-62.1846 81.4569,-60.2384"/>
<polygon fill="midnightblue" stroke="midnightblue" points="83.2943,-63.22 90.2606,-55.2375 79.8368,-57.1335 83.2943,-63.22"/>
</g>
<!-- Node50 -->
<g id="node50" class="node"><title>Node50</title>
<g id="a_node50"><a xlink:href="classtlz_1_1viewer.html#aabb3cdde75783ed1a41801fb236bc50e" target="_top" xlink:title="tlz::viewer::show">
<polygon fill="white" stroke="black" points="96.5,-0.5 96.5,-19.5 187.5,-19.5 187.5,-0.5 96.5,-0.5"/>
<text text-anchor="middle" x="142" y="-7.5" font-family="Helvetica,sans-Serif" font-size="10.00">tlz::viewer::show</text>
</a>
</g>
</g>
<!-- Node1&#45;&gt;Node50 -->
<g id="edge67" class="edge"><title>Node1&#45;&gt;Node50</title>
<path fill="none" stroke="midnightblue" d="M20.4247,-513.114C23.3606,-446.742 41.4909,-67.4653 74,-29 77.6096,-24.7291 82.1017,-21.3813 87.0398,-18.7623"/>
<polygon fill="midnightblue" stroke="midnightblue" points="88.4985,-21.9452 96.3155,-14.7936 85.7449,-15.5095 88.4985,-21.9452"/>
</g>
<!-- Node4 -->
<g id="node4" class="node"><title>Node4</title>
<g id="a_node4"><a xlink:href="namespacetlz.html#a780431daab8d2595372eacb43143b52d" target="_top" xlink:title="tlz::args">
<polygon fill="white" stroke="black" points="697.5,-959.5 697.5,-978.5 749.5,-978.5 749.5,-959.5 697.5,-959.5"/>
<text text-anchor="middle" x="723.5" y="-966.5" font-family="Helvetica,sans-Serif" font-size="10.00">tlz::args</text>
</a>
</g>
</g>
<!-- Node3&#45;&gt;Node4 -->
<g id="edge3" class="edge"><title>Node3&#45;&gt;Node4</title>
<path fill="none" stroke="midnightblue" d="M618.088,-1073.5C622.764,-1070.91 627.334,-1067.76 631,-1064 657.075,-1037.22 639.127,-1012.9 667,-988 672.862,-982.763 680.234,-978.957 687.672,-976.195"/>
<polygon fill="midnightblue" stroke="midnightblue" points="688.887,-979.482 697.368,-973.133 686.778,-972.807 688.887,-979.482"/>
</g>
<!-- Node5 -->
<g id="node5" class="node"><title>Node5</title>
<g id="a_node5"><a xlink:href="classtlz_1_1args__list.html#a73d99bc75998dc14607a3a372d28dc6d" target="_top" xlink:title="tlz::args_list::next_arg">
<polygon fill="white" stroke="black" points="667,-997.5 667,-1016.5 780,-1016.5 780,-997.5 667,-997.5"/>
<text text-anchor="middle" x="723.5" y="-1004.5" font-family="Helvetica,sans-Serif" font-size="10.00">tlz::args_list::next_arg</text>
</a>
</g>
</g>
<!-- Node3&#45;&gt;Node5 -->
<g id="edge4" class="edge"><title>Node3&#45;&gt;Node5</title>
<path fill="none" stroke="midnightblue" d="M613.135,-1073.46C618.943,-1070.53 625.277,-1067.22 631,-1064 654.714,-1050.64 681.014,-1034.06 699.308,-1022.24"/>
<polygon fill="midnightblue" stroke="midnightblue" points="701.368,-1025.07 707.844,-1016.69 697.553,-1019.2 701.368,-1025.07"/>
</g>
<!-- Node6 -->
<g id="node6" class="node"><title>Node6</title>
<g id="a_node6"><a xlink:href="classtlz_1_1args__list.html#a38ad21acd64a4af98ffdf4a47837cdbe" target="_top" xlink:title="tlz::args_list::usage_fail">
<polygon fill="white" stroke="black" points="816,-1016.5 816,-1035.5 936,-1035.5 936,-1016.5 816,-1016.5"/>
<text text-anchor="middle" x="876" y="-1023.5" font-family="Helvetica,sans-Serif" font-size="10.00">tlz::args_list::usage_fail</text>
</a>
</g>
</g>
<!-- Node3&#45;&gt;Node6 -->
<g id="edge7" class="edge"><title>Node3&#45;&gt;Node6</title>
<path fill="none" stroke="midnightblue" d="M623.67,-1078.35C660.658,-1072.49 725.184,-1061.76 780,-1050 796.237,-1046.52 813.904,-1042.2 829.55,-1038.19"/>
<polygon fill="midnightblue" stroke="midnightblue" points="830.701,-1041.51 839.504,-1035.62 828.946,-1034.73 830.701,-1041.51"/>
</g>
<!-- Node5&#45;&gt;Node6 -->
<g id="edge5" class="edge"><title>Node5&#45;&gt;Node6</title>
<path fill="none" stroke="midnightblue" d="M780.113,-1014.02C788.479,-1015.08 797.192,-1016.18 805.8,-1017.26"/>
<polygon fill="midnightblue" stroke="midnightblue" points="805.468,-1020.75 815.828,-1018.53 806.345,-1013.8 805.468,-1020.75"/>
</g>
<!-- Node5&#45;&gt;Node7 -->
<g id="edge6" class="edge"><title>Node5&#45;&gt;Node7</title>
<path fill="none" stroke="midnightblue" d="M760.241,-997.459C767.06,-994.902 773.951,-991.772 780,-988 813.769,-966.94 844.725,-931.752 861.617,-910.624"/>
<polygon fill="midnightblue" stroke="midnightblue" points="864.558,-912.545 867.963,-902.512 859.045,-908.232 864.558,-912.545"/>
</g>
<!-- Node8&#45;&gt;Node4 -->
<g id="edge9" class="edge"><title>Node8&#45;&gt;Node4</title>
<path fill="none" stroke="midnightblue" d="M615.665,-1035.36C620.902,-1032.65 626.319,-1029.49 631,-1026 649.651,-1012.09 647.428,-1000.58 667,-988 673.303,-983.95 680.566,-980.659 687.718,-978.025"/>
<polygon fill="midnightblue" stroke="midnightblue" points="688.92,-981.313 697.299,-974.83 686.706,-974.673 688.92,-981.313"/>
</g>
<!-- Node8&#45;&gt;Node5 -->
<g id="edge10" class="edge"><title>Node8&#45;&gt;Node5</title>
<path fill="none" stroke="midnightblue" d="M626.052,-1035.41C642.399,-1030.6 662.409,-1024.7 679.957,-1019.53"/>
<polygon fill="midnightblue" stroke="midnightblue" points="681.355,-1022.77 689.958,-1016.59 679.377,-1016.05 681.355,-1022.77"/>
</g>
<!-- Node8&#45;&gt;Node6 -->
<g id="edge11" class="edge"><title>Node8&#45;&gt;Node6</title>
<path fill="none" stroke="midnightblue" d="M626.619,-1042.76C670.424,-1039.81 748.73,-1034.52 805.736,-1030.68"/>
<polygon fill="midnightblue" stroke="midnightblue" points="806.02,-1034.16 815.761,-1030 805.548,-1027.18 806.02,-1034.16"/>
</g>
<!-- Node10 -->
<g id="node10" class="node"><title>Node10</title>
<g id="a_node10"><a xlink:href="namespacetlz.html#a8cba4853d0d796a01c72f59f36f2a492" target="_top" xlink:title="tlz::decode_intrinsics">
<polygon fill="white" stroke="black" points="259,-883.5 259,-902.5 368,-902.5 368,-883.5 259,-883.5"/>
<text text-anchor="middle" x="313.5" y="-890.5" font-family="Helvetica,sans-Serif" font-size="10.00">tlz::decode_intrinsics</text>
</a>
</g>
</g>
<!-- Node9&#45;&gt;Node10 -->
<g id="edge13" class="edge"><title>Node9&#45;&gt;Node10</title>
<path fill="none" stroke="midnightblue" d="M187.534,-893C206.246,-893 228.363,-893 248.749,-893"/>
<polygon fill="midnightblue" stroke="midnightblue" points="248.909,-896.5 258.909,-893 248.909,-889.5 248.909,-896.5"/>
</g>
<!-- Node14 -->
<g id="node14" class="node"><title>Node14</title>
<g id="a_node14"><a xlink:href="namespacetlz.html#a35f9e03fa4fd9cec699f5fa27962400f" target="_top" xlink:title="tlz::json_arg">
<polygon fill="white" stroke="black" points="278.5,-959.5 278.5,-978.5 348.5,-978.5 348.5,-959.5 278.5,-959.5"/>
<text text-anchor="middle" x="313.5" y="-966.5" font-family="Helvetica,sans-Serif" font-size="10.00">tlz::json_arg</text>
</a>
</g>
</g>
<!-- Node9&#45;&gt;Node14 -->
<g id="edge18" class="edge"><title>Node9&#45;&gt;Node14</title>
<path fill="none" stroke="midnightblue" d="M164.467,-902.625C194.142,-915.931 247.866,-940.02 281.784,-955.228"/>
<polygon fill="midnightblue" stroke="midnightblue" points="280.65,-958.555 291.207,-959.453 283.514,-952.168 280.65,-958.555"/>
</g>
<!-- Node11 -->
<g id="node11" class="node"><title>Node11</title>
<g id="a_node11"><a xlink:href="namespacetlz.html#a066563a26e2de02f215b179f3d3a53da" target="_top" xlink:title="tlz::decode_mat">
<polygon fill="white" stroke="black" points="424.5,-921.5 424.5,-940.5 510.5,-940.5 510.5,-921.5 424.5,-921.5"/>
<text text-anchor="middle" x="467.5" y="-928.5" font-family="Helvetica,sans-Serif" font-size="10.00">tlz::decode_mat</text>
</a>
</g>
</g>
<!-- Node10&#45;&gt;Node11 -->
<g id="edge14" class="edge"><title>Node10&#45;&gt;Node11</title>
<path fill="none" stroke="midnightblue" d="M352.856,-902.589C372.824,-907.581 397.43,-913.732 418.633,-919.033"/>
<polygon fill="midnightblue" stroke="midnightblue" points="417.869,-922.45 428.42,-921.48 419.567,-915.659 417.869,-922.45"/>
</g>
<!-- Node12 -->
<g id="node12" class="node"><title>Node12</title>
<g id="a_node12"><a xlink:href="namespacetlz.html#a252af14b9b4ac6502d3e9c5dd8dc90b8" target="_top" xlink:title="tlz::has">
<polygon fill="white" stroke="black" points="568,-845.5 568,-864.5 617,-864.5 617,-845.5 568,-845.5"/>
<text text-anchor="middle" x="592.5" y="-852.5" font-family="Helvetica,sans-Serif" font-size="10.00">tlz::has</text>
</a>
</g>
</g>
<!-- Node10&#45;&gt;Node12 -->
<g id="edge15" class="edge"><title>Node10&#45;&gt;Node12</title>
<path fill="none" stroke="midnightblue" d="M368.369,-890.323C409.57,-887.709 467.667,-882.797 518,-874 531.186,-871.695 545.478,-868.229 557.923,-864.885"/>
<polygon fill="midnightblue" stroke="midnightblue" points="559.171,-868.171 567.877,-862.134 557.306,-861.424 559.171,-868.171"/>
</g>
<!-- Node13 -->
<g id="node13" class="node"><title>Node13</title>
<g id="a_node13"><a xlink:href="namespacetlz.html#add846dc50c32dfb356cb1a7ac11d37ac" target="_top" xlink:title="tlz::get_or">
<polygon fill="white" stroke="black" points="437.5,-845.5 437.5,-864.5 497.5,-864.5 497.5,-845.5 437.5,-845.5"/>
<text text-anchor="middle" x="467.5" y="-852.5" font-family="Helvetica,sans-Serif" font-size="10.00">tlz::get_or</text>
</a>
</g>
</g>
<!-- Node10&#45;&gt;Node13 -->
<g id="edge16" class="edge"><title>Node10&#45;&gt;Node13</title>
<path fill="none" stroke="midnightblue" d="M352.856,-883.411C375.686,-877.704 404.578,-870.48 427.518,-864.746"/>
<polygon fill="midnightblue" stroke="midnightblue" points="428.419,-868.128 437.272,-862.307 426.721,-861.337 428.419,-868.128"/>
</g>
<!-- Node13&#45;&gt;Node12 -->
<g id="edge17" class="edge"><title>Node13&#45;&gt;Node12</title>
<path fill="none" stroke="midnightblue" d="M497.649,-855C515.667,-855 538.865,-855 557.689,-855"/>
<polygon fill="midnightblue" stroke="midnightblue" points="557.914,-858.5 567.914,-855 557.914,-851.5 557.914,-858.5"/>
</g>
<!-- Node15 -->
<g id="node15" class="node"><title>Node15</title>
<g id="a_node15"><a xlink:href="namespacetlz.html#aa1be9362f548fcf9378e1fc9074089c4" target="_top" xlink:title="tlz::import_json_file">
<polygon fill="white" stroke="black" points="417,-959.5 417,-978.5 518,-978.5 518,-959.5 417,-959.5"/>
<text text-anchor="middle" x="467.5" y="-966.5" font-family="Helvetica,sans-Serif" font-size="10.00">tlz::import_json_file</text>
</a>
</g>
</g>
<!-- Node14&#45;&gt;Node15 -->
<g id="edge19" class="edge"><title>Node14&#45;&gt;Node15</title>
<path fill="none" stroke="midnightblue" d="M348.612,-969C365.755,-969 387.034,-969 406.775,-969"/>
<polygon fill="midnightblue" stroke="midnightblue" points="406.928,-972.5 416.928,-969 406.928,-965.5 406.928,-972.5"/>
</g>
<!-- Node16 -->
<g id="node16" class="node"><title>Node16</title>
<g id="a_node16"><a xlink:href="namespacetlz.html#a634de7ca11e100e4a118dffe80376a75" target="_top" xlink:title="tlz::in_filename_arg">
<polygon fill="white" stroke="black" points="417,-997.5 417,-1016.5 518,-1016.5 518,-997.5 417,-997.5"/>
<text text-anchor="middle" x="467.5" y="-1004.5" font-family="Helvetica,sans-Serif" font-size="10.00">tlz::in_filename_arg</text>
</a>
</g>
</g>
<!-- Node14&#45;&gt;Node16 -->
<g id="edge20" class="edge"><title>Node14&#45;&gt;Node16</title>
<path fill="none" stroke="midnightblue" d="M348.612,-977.528C369.274,-982.694 395.944,-989.361 418.689,-995.047"/>
<polygon fill="midnightblue" stroke="midnightblue" points="417.947,-998.469 428.497,-997.499 419.645,-991.678 417.947,-998.469"/>
</g>
<!-- Node16&#45;&gt;Node4 -->
<g id="edge25" class="edge"><title>Node16&#45;&gt;Node4</title>
<path fill="none" stroke="midnightblue" d="M507.488,-997.419C522.021,-994.09 538.702,-990.555 554,-988 599.787,-980.353 653.099,-974.918 687.293,-971.871"/>
<polygon fill="midnightblue" stroke="midnightblue" points="687.604,-975.357 697.262,-971.002 686.996,-968.384 687.604,-975.357"/>
</g>
<!-- Node16&#45;&gt;Node6 -->
<g id="edge26" class="edge"><title>Node16&#45;&gt;Node6</title>
<path fill="none" stroke="midnightblue" d="M493.736,-997.472C501.533,-994.485 510.137,-991.146 518,-988 534.093,-981.56 537.43,-978.086 554,-973 650.519,-943.376 684.728,-916.58 780,-950 813.161,-961.632 843.345,-990.246 860.415,-1008.86"/>
<polygon fill="midnightblue" stroke="midnightblue" points="857.839,-1011.22 867.099,-1016.37 863.07,-1006.57 857.839,-1011.22"/>
</g>
<!-- Node17 -->
<g id="node17" class="node"><title>Node17</title>
<g id="a_node17"><a xlink:href="namespacetlz.html#a0621d598fb83b13bf028f3e6293d04f8" target="_top" xlink:title="tlz::string_arg">
<polygon fill="white" stroke="black" points="554.5,-997.5 554.5,-1016.5 630.5,-1016.5 630.5,-997.5 554.5,-997.5"/>
<text text-anchor="middle" x="592.5" y="-1004.5" font-family="Helvetica,sans-Serif" font-size="10.00">tlz::string_arg</text>
</a>
</g>
</g>
<!-- Node16&#45;&gt;Node17 -->
<g id="edge21" class="edge"><title>Node16&#45;&gt;Node17</title>
<path fill="none" stroke="midnightblue" d="M518.174,-1007C526.706,-1007 535.554,-1007 544.027,-1007"/>
<polygon fill="midnightblue" stroke="midnightblue" points="544.129,-1010.5 554.129,-1007 544.129,-1003.5 544.129,-1010.5"/>
</g>
<!-- Node18 -->
<g id="node18" class="node"><title>Node18</title>
<g id="a_node18"><a xlink:href="namespacetlz.html#abb019466ea9f56c0dab27e893d891837" target="_top" xlink:title="tlz::file_exists">
<polygon fill="white" stroke="black" points="554,-883.5 554,-902.5 631,-902.5 631,-883.5 554,-883.5"/>
<text text-anchor="middle" x="592.5" y="-890.5" font-family="Helvetica,sans-Serif" font-size="10.00">tlz::file_exists</text>
</a>
</g>
</g>
<!-- Node16&#45;&gt;Node18 -->
<g id="edge24" class="edge"><title>Node16&#45;&gt;Node18</title>
<path fill="none" stroke="midnightblue" d="M503.396,-997.39C508.674,-994.909 513.762,-991.823 518,-988 544.269,-964.3 530.265,-943.237 554,-917 556.859,-913.84 560.225,-910.928 563.748,-908.304"/>
<polygon fill="midnightblue" stroke="midnightblue" points="565.723,-911.193 572.086,-902.722 561.829,-905.377 565.723,-911.193"/>
</g>
<!-- Node17&#45;&gt;Node4 -->
<g id="edge22" class="edge"><title>Node17&#45;&gt;Node4</title>
<path fill="none" stroke="midnightblue" d="M626.052,-997.411C644.78,-991.894 668.314,-984.962 687.447,-979.326"/>
<polygon fill="midnightblue" stroke="midnightblue" points="688.679,-982.611 697.283,-976.428 686.701,-975.897 688.679,-982.611"/>
</g>
<!-- Node17&#45;&gt;Node5 -->
<g id="edge23" class="edge"><title>Node17&#45;&gt;Node5</title>
<path fill="none" stroke="midnightblue" d="M630.812,-1007C638.835,-1007 647.544,-1007 656.295,-1007"/>
<polygon fill="midnightblue" stroke="midnightblue" points="656.549,-1010.5 666.549,-1007 656.549,-1003.5 656.549,-1010.5"/>
</g>
<!-- Node22 -->
<g id="node22" class="node"><title>Node22</title>
<g id="a_node22"><a xlink:href="classtlz_1_1viewer.html#af74a8aef9dde68eeff6b1e2561b39014" target="_top" xlink:title="tlz::viewer::height">
<polygon fill="white" stroke="black" points="266.5,-672.5 266.5,-691.5 360.5,-691.5 360.5,-672.5 266.5,-672.5"/>
<text text-anchor="middle" x="313.5" y="-679.5" font-family="Helvetica,sans-Serif" font-size="10.00">tlz::viewer::height</text>
</a>
</g>
</g>
<!-- Node21&#45;&gt;Node22 -->
<g id="edge30" class="edge"><title>Node21&#45;&gt;Node22</title>
<path fill="none" stroke="midnightblue" d="M186.65,-682C207.831,-682 233.53,-682 256.169,-682"/>
<polygon fill="midnightblue" stroke="midnightblue" points="256.329,-685.5 266.329,-682 256.329,-678.5 256.329,-685.5"/>
</g>
<!-- Node23 -->
<g id="node23" class="node"><title>Node23</title>
<g id="a_node23"><a xlink:href="classtlz_1_1viewer.html#acc43bf1dd1d0c3cdc35a948d4c194769" target="_top" xlink:title="tlz::viewer::width">
<polygon fill="white" stroke="black" points="268,-710.5 268,-729.5 359,-729.5 359,-710.5 268,-710.5"/>
<text text-anchor="middle" x="313.5" y="-717.5" font-family="Helvetica,sans-Serif" font-size="10.00">tlz::viewer::width</text>
</a>
</g>
</g>
<!-- Node21&#45;&gt;Node23 -->
<g id="edge31" class="edge"><title>Node21&#45;&gt;Node23</title>
<path fill="none" stroke="midnightblue" d="M185.772,-691.589C208.341,-696.649 236.223,-702.9 260.083,-708.249"/>
<polygon fill="midnightblue" stroke="midnightblue" points="259.512,-711.708 270.036,-710.48 261.043,-704.877 259.512,-711.708"/>
</g>
<!-- Node27 -->
<g id="node27" class="node"><title>Node27</title>
<g id="a_node27"><a xlink:href="structtlz_1_1checkerboard.html#a44b150a25091e74cfaec42635d392369" target="_top" xlink:title="tlz::checkerboard::\lcheckerboard">
<polygon fill="white" stroke="black" points="264.5,-535 264.5,-565 362.5,-565 362.5,-535 264.5,-535"/>
<text text-anchor="start" x="272.5" y="-553" font-family="Helvetica,sans-Serif" font-size="10.00">tlz::checkerboard::</text>
<text text-anchor="middle" x="313.5" y="-542" font-family="Helvetica,sans-Serif" font-size="10.00">checkerboard</text>
</a>
</g>
</g>
<!-- Node26&#45;&gt;Node27 -->
<g id="edge35" class="edge"><title>Node26&#45;&gt;Node27</title>
<path fill="none" stroke="midnightblue" d="M209.018,-546.947C223.829,-547.384 239.442,-547.845 253.925,-548.272"/>
<polygon fill="midnightblue" stroke="midnightblue" points="254.145,-551.78 264.243,-548.577 254.351,-544.783 254.145,-551.78"/>
</g>
<!-- Node28 -->
<g id="node28" class="node"><title>Node28</title>
<g id="a_node28"><a xlink:href="structtlz_1_1checkerboard.html#aa0961b41552bc73fc4f75d2dca128637" target="_top" xlink:title="tlz::checkerboard::\lcorner">
<polygon fill="white" stroke="black" points="264.5,-486 264.5,-516 362.5,-516 362.5,-486 264.5,-486"/>
<text text-anchor="start" x="272.5" y="-504" font-family="Helvetica,sans-Serif" font-size="10.00">tlz::checkerboard::</text>
<text text-anchor="middle" x="313.5" y="-493" font-family="Helvetica,sans-Serif" font-size="10.00">corner</text>
</a>
</g>
</g>
<!-- Node26&#45;&gt;Node28 -->
<g id="edge36" class="edge"><title>Node26&#45;&gt;Node28</title>
<path fill="none" stroke="midnightblue" d="M179.779,-535.453C201.515,-529.81 229.529,-522.538 254.213,-516.131"/>
<polygon fill="midnightblue" stroke="midnightblue" points="255.401,-519.438 264.201,-513.538 253.642,-512.663 255.401,-519.438"/>
</g>
<!-- Node30 -->
<g id="node30" class="node"><title>Node30</title>
<g id="a_node30"><a xlink:href="structtlz_1_1checkerboard.html#a2684fe6c45bc112b0a5c3d6e833ba22e" target="_top" xlink:title="tlz::checkerboard::\louter_corners_i">
<polygon fill="white" stroke="black" points="418.5,-360 418.5,-390 516.5,-390 516.5,-360 418.5,-360"/>
<text text-anchor="start" x="426.5" y="-378" font-family="Helvetica,sans-Serif" font-size="10.00">tlz::checkerboard::</text>
<text text-anchor="middle" x="467.5" y="-367" font-family="Helvetica,sans-Serif" font-size="10.00">outer_corners_i</text>
</a>
</g>
</g>
<!-- Node29&#45;&gt;Node30 -->
<g id="edge38" class="edge"><title>Node29&#45;&gt;Node30</title>
<path fill="none" stroke="midnightblue" d="M372.398,-375C384.078,-375 396.364,-375 408.062,-375"/>
<polygon fill="midnightblue" stroke="midnightblue" points="408.162,-378.5 418.161,-375 408.161,-371.5 408.162,-378.5"/>
</g>
<!-- Node32 -->
<g id="node32" class="node"><title>Node32</title>
<g id="a_node32"><a xlink:href="namespacetlz.html#acc37da60bde41595da4139110c2d36e6" target="_top" xlink:title="tlz::checkerboard_world\l_corners">
<polygon fill="white" stroke="black" points="253.5,-262 253.5,-292 373.5,-292 373.5,-262 253.5,-262"/>
<text text-anchor="start" x="261.5" y="-280" font-family="Helvetica,sans-Serif" font-size="10.00">tlz::checkerboard_world</text>
<text text-anchor="middle" x="313.5" y="-269" font-family="Helvetica,sans-Serif" font-size="10.00">_corners</text>
</a>
</g>
</g>
<!-- Node31&#45;&gt;Node32 -->
<g id="edge40" class="edge"><title>Node31&#45;&gt;Node32</title>
<path fill="none" stroke="midnightblue" d="M195.239,-310.899C212.801,-305.821 232.559,-300.11 250.78,-294.842"/>
<polygon fill="midnightblue" stroke="midnightblue" points="251.799,-298.191 260.434,-292.052 249.855,-291.466 251.799,-298.191"/>
</g>
<!-- Node33 -->
<g id="node33" class="node"><title>Node33</title>
<g id="a_node33"><a xlink:href="namespacetlz.html#a6693dca816d6f48429d1c607ced26f3b" target="_top" xlink:title="tlz::checkerboard_image\l_corners">
<polygon fill="white" stroke="black" points="252,-311 252,-341 375,-341 375,-311 252,-311"/>
<text text-anchor="start" x="260" y="-329" font-family="Helvetica,sans-Serif" font-size="10.00">tlz::checkerboard_image</text>
<text text-anchor="middle" x="313.5" y="-318" font-family="Helvetica,sans-Serif" font-size="10.00">_corners</text>
</a>
</g>
</g>
<!-- Node31&#45;&gt;Node33 -->
<g id="edge41" class="edge"><title>Node31&#45;&gt;Node33</title>
<path fill="none" stroke="midnightblue" d="M209.018,-326C219.726,-326 230.853,-326 241.669,-326"/>
<polygon fill="midnightblue" stroke="midnightblue" points="241.92,-329.5 251.92,-326 241.92,-322.5 241.92,-329.5"/>
</g>
<!-- Node34 -->
<g id="node34" class="node"><title>Node34</title>
<g id="a_node34"><a xlink:href="structtlz_1_1checkerboard.html#aefd2234a4be7f364920076cdd8a977f1" target="_top" xlink:title="tlz::checkerboard::\lcorners_count">
<polygon fill="white" stroke="black" points="264.5,-213 264.5,-243 362.5,-243 362.5,-213 264.5,-213"/>
<text text-anchor="start" x="272.5" y="-231" font-family="Helvetica,sans-Serif" font-size="10.00">tlz::checkerboard::</text>
<text text-anchor="middle" x="313.5" y="-220" font-family="Helvetica,sans-Serif" font-size="10.00">corners_count</text>
</a>
</g>
</g>
<!-- Node31&#45;&gt;Node34 -->
<g id="edge42" class="edge"><title>Node31&#45;&gt;Node34</title>
<path fill="none" stroke="midnightblue" d="M195.088,-310.904C200.361,-308.348 205.443,-305.397 210,-302 231.666,-285.849 224.461,-269.319 246,-253 248.925,-250.784 252.068,-248.746 255.339,-246.873"/>
<polygon fill="midnightblue" stroke="midnightblue" points="256.943,-249.984 264.235,-242.297 253.741,-243.759 256.943,-249.984"/>
</g>
<!-- Node35 -->
<g id="node35" class="node"><title>Node35</title>
<g id="a_node35"><a xlink:href="structtlz_1_1distortion__parameters.html#a96312c5d7baa4b7b1f2a76e9396037f8" target="_top" xlink:title="tlz::distortion_parameters\l::cv_coeffs">
<polygon fill="white" stroke="black" points="250,-164 250,-194 377,-194 377,-164 250,-164"/>
<text text-anchor="start" x="258" y="-182" font-family="Helvetica,sans-Serif" font-size="10.00">tlz::distortion_parameters</text>
<text text-anchor="middle" x="313.5" y="-171" font-family="Helvetica,sans-Serif" font-size="10.00">::cv_coeffs</text>
</a>
</g>
</g>
<!-- Node31&#45;&gt;Node35 -->
<g id="edge44" class="edge"><title>Node31&#45;&gt;Node35</title>
<path fill="none" stroke="midnightblue" d="M198.434,-310.816C202.645,-308.31 206.579,-305.394 210,-302 242.943,-269.322 213.313,-236.934 246,-204 247.434,-202.556 248.959,-201.193 250.557,-199.909"/>
<polygon fill="midnightblue" stroke="midnightblue" points="252.781,-202.63 259.083,-194.113 248.846,-196.841 252.781,-202.63"/>
</g>
<!-- Node34&#45;&gt;Node30 -->
<g id="edge43" class="edge"><title>Node34&#45;&gt;Node30</title>
<path fill="none" stroke="midnightblue" d="M362.506,-242.024C369.066,-245.063 375.444,-248.692 381,-253 415.041,-279.395 440.977,-323.083 454.947,-350.391"/>
<polygon fill="midnightblue" stroke="midnightblue" points="451.961,-352.249 459.544,-359.648 458.231,-349.135 451.961,-352.249"/>
</g>
<!-- Node36&#45;&gt;Node35 -->
<g id="edge46" class="edge"><title>Node36&#45;&gt;Node35</title>
<path fill="none" stroke="midnightblue" d="M195.088,-261.904C200.361,-259.348 205.443,-256.397 210,-253 231.666,-236.849 224.461,-220.319 246,-204 248.429,-202.16 251.008,-200.442 253.686,-198.84"/>
<polygon fill="midnightblue" stroke="midnightblue" points="255.35,-201.919 262.512,-194.111 252.044,-195.749 255.35,-201.919"/>
</g>
<!-- Node37&#45;&gt;Node28 -->
<g id="edge52" class="edge"><title>Node37&#45;&gt;Node28</title>
<path fill="none" stroke="midnightblue" d="M195.239,-467.101C214.042,-472.537 235.361,-478.7 254.617,-484.267"/>
<polygon fill="midnightblue" stroke="midnightblue" points="253.896,-487.702 264.474,-487.116 255.84,-480.977 253.896,-487.702"/>
</g>
<!-- Node38 -->
<g id="node38" class="node"><title>Node38</title>
<g id="a_node38"><a xlink:href="namespacetlz.html#a318f0ec11ecbe39c32ad870473ea9c35" target="_top" xlink:title="Compute square of a number. ">
<polygon fill="white" stroke="black" points="291.5,-447.5 291.5,-466.5 335.5,-466.5 335.5,-447.5 291.5,-447.5"/>
<text text-anchor="middle" x="313.5" y="-454.5" font-family="Helvetica,sans-Serif" font-size="10.00">tlz::sq</text>
</a>
</g>
</g>
<!-- Node37&#45;&gt;Node38 -->
<g id="edge48" class="edge"><title>Node37&#45;&gt;Node38</title>
<path fill="none" stroke="midnightblue" d="M206.116,-453.862C231.604,-454.614 259.89,-455.448 280.885,-456.067"/>
<polygon fill="midnightblue" stroke="midnightblue" points="281.047,-459.574 291.145,-456.37 281.253,-452.577 281.047,-459.574"/>
</g>
<!-- Node39 -->
<g id="node39" class="node"><title>Node39</title>
<g id="a_node39"><a xlink:href="namespacetlz.html#a643b2d03bd805fe78dcd684ef45e52fb" target="_top" xlink:title="Clamp value between minimum and maximum value. ">
<polygon fill="white" stroke="black" points="438,-485.5 438,-504.5 497,-504.5 497,-485.5 438,-485.5"/>
<text text-anchor="middle" x="467.5" y="-492.5" font-family="Helvetica,sans-Serif" font-size="10.00">tlz::clamp</text>
</a>
</g>
</g>
<!-- Node38&#45;&gt;Node39 -->
<g id="edge49" class="edge"><title>Node38&#45;&gt;Node39</title>
<path fill="none" stroke="midnightblue" d="M335.635,-462.284C359.423,-468.231 398.567,-478.017 427.857,-485.339"/>
<polygon fill="midnightblue" stroke="midnightblue" points="427.214,-488.786 437.765,-487.816 428.912,-481.995 427.214,-488.786"/>
</g>
<!-- Node40 -->
<g id="node40" class="node"><title>Node40</title>
<g id="a_node40"><a xlink:href="namespacetlz.html#a4fe5757a830e199f84d229eee11f616e" target="_top" xlink:title="Compute greatest common divisor of a and b. ">
<polygon fill="white" stroke="black" points="443,-447.5 443,-466.5 492,-466.5 492,-447.5 443,-447.5"/>
<text text-anchor="middle" x="467.5" y="-454.5" font-family="Helvetica,sans-Serif" font-size="10.00">tlz::gcd</text>
</a>
</g>
</g>
<!-- Node38&#45;&gt;Node40 -->
<g id="edge50" class="edge"><title>Node38&#45;&gt;Node40</title>
<path fill="none" stroke="midnightblue" d="M335.635,-457C360.7,-457 402.812,-457 432.483,-457"/>
<polygon fill="midnightblue" stroke="midnightblue" points="432.797,-460.5 442.797,-457 432.797,-453.5 432.797,-460.5"/>
</g>
<!-- Node41 -->
<g id="node41" class="node"><title>Node41</title>
<g id="a_node41"><a xlink:href="namespacetlz.html#aec6e2158ce198aa20a8493fde3d3b552" target="_top" xlink:title="Compute least common multiple of a and b. ">
<polygon fill="white" stroke="black" points="443,-409.5 443,-428.5 492,-428.5 492,-409.5 443,-409.5"/>
<text text-anchor="middle" x="467.5" y="-416.5" font-family="Helvetica,sans-Serif" font-size="10.00">tlz::lcm</text>
</a>
</g>
</g>
<!-- Node38&#45;&gt;Node41 -->
<g id="edge51" class="edge"><title>Node38&#45;&gt;Node41</title>
<path fill="none" stroke="midnightblue" d="M335.635,-451.716C360.809,-445.423 403.182,-434.83 432.873,-427.407"/>
<polygon fill="midnightblue" stroke="midnightblue" points="433.944,-430.747 442.797,-424.926 432.247,-423.956 433.944,-430.747"/>
</g>
<!-- Node42&#45;&gt;Node28 -->
<g id="edge54" class="edge"><title>Node42&#45;&gt;Node28</title>
<path fill="none" stroke="midnightblue" d="M197.097,-501C215.326,-501 235.743,-501 254.277,-501"/>
<polygon fill="midnightblue" stroke="midnightblue" points="254.354,-504.5 264.354,-501 254.354,-497.5 254.354,-504.5"/>
</g>
<!-- Node42&#45;&gt;Node38 -->
<g id="edge55" class="edge"><title>Node42&#45;&gt;Node38</title>
<path fill="none" stroke="midnightblue" d="M197.097,-486.957C224.948,-479.727 257.903,-471.173 281.451,-465.06"/>
<polygon fill="midnightblue" stroke="midnightblue" points="282.441,-468.419 291.24,-462.519 280.682,-461.644 282.441,-468.419"/>
</g>
<!-- Node43&#45;&gt;Node22 -->
<g id="edge58" class="edge"><title>Node43&#45;&gt;Node22</title>
<path fill="none" stroke="midnightblue" d="M185.772,-710.411C208.341,-705.351 236.223,-699.1 260.083,-693.751"/>
<polygon fill="midnightblue" stroke="midnightblue" points="261.043,-697.123 270.036,-691.52 259.512,-690.292 261.043,-697.123"/>
</g>
<!-- Node43&#45;&gt;Node23 -->
<g id="edge57" class="edge"><title>Node43&#45;&gt;Node23</title>
<path fill="none" stroke="midnightblue" d="M186.65,-720C208.256,-720 234.564,-720 257.529,-720"/>
<polygon fill="midnightblue" stroke="midnightblue" points="257.817,-723.5 267.817,-720 257.817,-716.5 257.817,-723.5"/>
</g>
<!-- Node44&#45;&gt;Node30 -->
<g id="edge60" class="edge"><title>Node44&#45;&gt;Node30</title>
<path fill="none" stroke="midnightblue" d="M348.001,-409.472C358.563,-406.456 370.273,-403.101 381,-400 389.838,-397.445 399.185,-394.728 408.327,-392.062"/>
<polygon fill="midnightblue" stroke="midnightblue" points="409.515,-395.361 418.133,-389.199 407.553,-388.642 409.515,-395.361"/>
</g>
</g>
</svg>
