<?xml version="1.0" encoding="UTF-8" standalone="no"?>
<!DOCTYPE svg PUBLIC "-//W3C//DTD SVG 1.1//EN"
 "http://www.w3.org/Graphics/SVG/1.1/DTD/svg11.dtd">
<!-- Generated by graphviz version 2.38.0 (20140413.2041)
 -->
<!-- Title: main Pages: 1 -->
<svg width="680pt" height="858pt"
 viewBox="0.00 0.00 680.00 858.00" xmlns="http://www.w3.org/2000/svg" xmlns:xlink="http://www.w3.org/1999/xlink">
<g id="graph0" class="graph" transform="scale(1 1) rotate(0) translate(4 854)">
<title>main</title>
<polygon fill="white" stroke="none" points="-4,4 -4,-854 676,-854 676,4 -4,4"/>
<!-- Node1 -->
<g id="node1" class="node"><title>Node1</title>
<polygon fill="#bfbfbf" stroke="black" points="0,-432.5 0,-451.5 38,-451.5 38,-432.5 0,-432.5"/>
<text text-anchor="middle" x="19" y="-439.5" font-family="Helvetica,sans-Serif" font-size="10.00">main</text>
</g>
<!-- Node2 -->
<g id="node2" class="node"><title>Node2</title>
<g id="a_node2"><a xlink:href="namespacetlz.html#a3c03f5d9d6261ec2909938822fc47f8a" target="_top" xlink:title="tlz::get_args">
<polygon fill="white" stroke="black" points="106,-830.5 106,-849.5 177,-849.5 177,-830.5 106,-830.5"/>
<text text-anchor="middle" x="141.5" y="-837.5" font-family="Helvetica,sans-Serif" font-size="10.00">tlz::get_args</text>
</a>
</g>
</g>
<!-- Node1&#45;&gt;Node2 -->
<g id="edge1" class="edge"><title>Node1&#45;&gt;Node2</title>
<path fill="none" stroke="midnightblue" d="M20.0915,-451.66C20.7786,-504.449 26.5388,-757.777 74,-816 79.7473,-823.05 87.74,-828.03 96.1964,-831.547"/>
<polygon fill="midnightblue" stroke="midnightblue" points="95.2513,-834.925 105.846,-834.929 97.5664,-828.319 95.2513,-834.925"/>
</g>
<!-- Node3 -->
<g id="node3" class="node"><title>Node3</title>
<g id="a_node3"><a xlink:href="namespacetlz.html#af0d1e8ba5b9f2dbc2b589afab3a21fc8" target="_top" xlink:title="tlz::int_arg">
<polygon fill="white" stroke="black" points="275,-792.5 275,-811.5 337,-811.5 337,-792.5 275,-792.5"/>
<text text-anchor="middle" x="306" y="-799.5" font-family="Helvetica,sans-Serif" font-size="10.00">tlz::int_arg</text>
</a>
</g>
</g>
<!-- Node1&#45;&gt;Node3 -->
<g id="edge2" class="edge"><title>Node1&#45;&gt;Node3</title>
<path fill="none" stroke="midnightblue" d="M19.9989,-451.678C20.2084,-502.349 23.9058,-736.528 74,-783 125.334,-830.622 213.612,-822.282 264.891,-812.056"/>
<polygon fill="midnightblue" stroke="midnightblue" points="265.878,-815.424 274.939,-809.933 264.431,-808.576 265.878,-815.424"/>
</g>
<!-- Node7 -->
<g id="node7" class="node"><title>Node7</title>
<g id="a_node7"><a xlink:href="namespacetlz.html#a8e4f8c8c2927bc4350de13bfa0f8f9e1" target="_top" xlink:title="tlz::to_string">
<polygon fill="white" stroke="black" points="576.5,-735.5 576.5,-754.5 647.5,-754.5 647.5,-735.5 576.5,-735.5"/>
<text text-anchor="middle" x="612" y="-742.5" font-family="Helvetica,sans-Serif" font-size="10.00">tlz::to_string</text>
</a>
</g>
</g>
<!-- Node1&#45;&gt;Node7 -->
<g id="edge36" class="edge"><title>Node1&#45;&gt;Node7</title>
<path fill="none" stroke="midnightblue" d="M20.4675,-451.761C22.7743,-495.439 34.4723,-672.317 74,-707 110.606,-739.12 443.561,-744.127 566.048,-744.879"/>
<polygon fill="midnightblue" stroke="midnightblue" points="566.19,-748.379 576.209,-744.934 566.229,-741.379 566.19,-748.379"/>
</g>
<!-- Node8 -->
<g id="node8" class="node"><title>Node8</title>
<g id="a_node8"><a xlink:href="namespacetlz.html#a65770a2c1ff57c5ae6542d4465a3d3f4" target="_top" xlink:title="tlz::out_filename_arg">
<polygon fill="white" stroke="black" points="88,-754.5 88,-773.5 195,-773.5 195,-754.5 88,-754.5"/>
<text text-anchor="middle" x="141.5" y="-761.5" font-family="Helvetica,sans-Serif" font-size="10.00">tlz::out_filename_arg</text>
</a>
</g>
</g>
<!-- Node1&#45;&gt;Node8 -->
<g id="edge8" class="edge"><title>Node1&#45;&gt;Node8</title>
<path fill="none" stroke="midnightblue" d="M20.487,-451.754C22.9805,-497.991 35.7253,-694.729 74,-740 77.1995,-743.784 81.0439,-746.972 85.2502,-749.657"/>
<polygon fill="midnightblue" stroke="midnightblue" points="83.8324,-752.868 94.3018,-754.493 87.1308,-746.693 83.8324,-752.868"/>
</g>
<!-- Node10 -->
<g id="node10" class="node"><title>Node10</title>
<g id="a_node10"><a xlink:href="classtlz_1_1viewer.html#a2bf9d63d7a1a5ec4d5bdabc13d9ab688" target="_top" xlink:title="tlz::viewer::add_int\l_slider">
<polygon fill="white" stroke="black" points="92,-667 92,-697 191,-697 191,-667 92,-667"/>
<text text-anchor="start" x="100" y="-685" font-family="Helvetica,sans-Serif" font-size="10.00">tlz::viewer::add_int</text>
<text text-anchor="middle" x="141.5" y="-674" font-family="Helvetica,sans-Serif" font-size="10.00">_slider</text>
</a>
</g>
</g>
<!-- Node1&#45;&gt;Node10 -->
<g id="edge12" class="edge"><title>Node1&#45;&gt;Node10</title>
<path fill="none" stroke="midnightblue" d="M19.489,-451.564C18.2592,-484.557 18.6482,-594.979 74,-657 76.6948,-660.019 79.7913,-662.676 83.1422,-665.012"/>
<polygon fill="midnightblue" stroke="midnightblue" points="81.5206,-668.119 91.9119,-670.186 85.0774,-662.09 81.5206,-668.119"/>
</g>
<!-- Node11 -->
<g id="node11" class="node"><title>Node11</title>
<g id="a_node11"><a xlink:href="classtlz_1_1grabber.html#a14d256bd7ef0af5be70f2bd7713a7e54" target="_top" xlink:title="tlz::grabber::grab">
<polygon fill="white" stroke="black" points="96.5,-628.5 96.5,-647.5 186.5,-647.5 186.5,-628.5 96.5,-628.5"/>
<text text-anchor="middle" x="141.5" y="-635.5" font-family="Helvetica,sans-Serif" font-size="10.00">tlz::grabber::grab</text>
</a>
</g>
</g>
<!-- Node1&#45;&gt;Node11 -->
<g id="edge13" class="edge"><title>Node1&#45;&gt;Node11</title>
<path fill="none" stroke="midnightblue" d="M20.1826,-451.657C21.2486,-480.395 28.2976,-566.33 74,-614 77.8224,-617.987 82.3558,-621.314 87.2321,-624.09"/>
<polygon fill="midnightblue" stroke="midnightblue" points="85.7781,-627.275 96.3002,-628.514 88.8476,-620.983 85.7781,-627.275"/>
</g>
<!-- Node12 -->
<g id="node12" class="node"><title>Node12</title>
<g id="a_node12"><a xlink:href="classtlz_1_1viewer.html#a0ad9ee28b8127c63b2886b04fb36e3dc" target="_top" xlink:title="tlz::viewer::clear">
<polygon fill="white" stroke="black" points="261.5,-590.5 261.5,-609.5 350.5,-609.5 350.5,-590.5 261.5,-590.5"/>
<text text-anchor="middle" x="306" y="-597.5" font-family="Helvetica,sans-Serif" font-size="10.00">tlz::viewer::clear</text>
</a>
</g>
</g>
<!-- Node1&#45;&gt;Node12 -->
<g id="edge14" class="edge"><title>Node1&#45;&gt;Node12</title>
<path fill="none" stroke="midnightblue" d="M20.8227,-451.818C23.4675,-476.575 34.0815,-541.725 74,-572 124.741,-610.482 200.583,-612.188 251.373,-607.819"/>
<polygon fill="midnightblue" stroke="midnightblue" points="251.88,-611.286 261.497,-606.839 251.206,-604.319 251.88,-611.286"/>
</g>
<!-- Node15 -->
<g id="node15" class="node"><title>Node15</title>
<g id="a_node15"><a xlink:href="classtlz_1_1grabber.html#a22caa426aef0275c5cdf9bfebe352940" target="_top" xlink:title="tlz::grabber::get_depth\l_frame">
<polygon fill="white" stroke="black" points="84.5,-427 84.5,-457 198.5,-457 198.5,-427 84.5,-427"/>
<text text-anchor="start" x="92.5" y="-445" font-family="Helvetica,sans-Serif" font-size="10.00">tlz::grabber::get_depth</text>
<text text-anchor="middle" x="141.5" y="-434" font-family="Helvetica,sans-Serif" font-size="10.00">_frame</text>
</a>
</g>
</g>
<!-- Node1&#45;&gt;Node15 -->
<g id="edge17" class="edge"><title>Node1&#45;&gt;Node15</title>
<path fill="none" stroke="midnightblue" d="M38.0401,-442C47.9284,-442 60.865,-442 74.201,-442"/>
<polygon fill="midnightblue" stroke="midnightblue" points="74.433,-445.5 84.433,-442 74.433,-438.5 74.433,-445.5"/>
</g>
<!-- Node16 -->
<g id="node16" class="node"><title>Node16</title>
<g id="a_node16"><a xlink:href="classtlz_1_1grabber.html#ab0a7ab9197c8d2676a072c3f9eadd96d" target="_top" xlink:title="tlz::grabber::get_ir\l_frame">
<polygon fill="white" stroke="black" points="94,-378 94,-408 189,-408 189,-378 94,-378"/>
<text text-anchor="start" x="102" y="-396" font-family="Helvetica,sans-Serif" font-size="10.00">tlz::grabber::get_ir</text>
<text text-anchor="middle" x="141.5" y="-385" font-family="Helvetica,sans-Serif" font-size="10.00">_frame</text>
</a>
</g>
</g>
<!-- Node1&#45;&gt;Node16 -->
<g id="edge18" class="edge"><title>Node1&#45;&gt;Node16</title>
<path fill="none" stroke="midnightblue" d="M38.3792,-433.511C48.7704,-428.792 62.0387,-422.902 74,-418 79.0645,-415.925 84.3713,-413.818 89.6844,-411.752"/>
<polygon fill="midnightblue" stroke="midnightblue" points="91.1237,-414.949 99.2034,-408.095 88.6134,-408.414 91.1237,-414.949"/>
</g>
<!-- Node17 -->
<g id="node17" class="node"><title>Node17</title>
<g id="a_node17"><a xlink:href="namespacetlz.html#abc33c7b74cbbd686b06228c1fdad9214" target="_top" xlink:title="tlz::detect_ir_checkerboard">
<polygon fill="white" stroke="black" points="74.5,-339.5 74.5,-358.5 208.5,-358.5 208.5,-339.5 74.5,-339.5"/>
<text text-anchor="middle" x="141.5" y="-346.5" font-family="Helvetica,sans-Serif" font-size="10.00">tlz::detect_ir_checkerboard</text>
</a>
</g>
</g>
<!-- Node1&#45;&gt;Node17 -->
<g id="edge19" class="edge"><title>Node1&#45;&gt;Node17</title>
<path fill="none" stroke="midnightblue" d="M24.339,-432.48C32.0397,-416.661 49.6119,-385.022 74,-368 76.8431,-366.016 79.8908,-364.237 83.0609,-362.644"/>
<polygon fill="midnightblue" stroke="midnightblue" points="84.4913,-365.838 92.2503,-358.624 81.6858,-359.425 84.4913,-365.838"/>
</g>
<!-- Node20 -->
<g id="node20" class="node"><title>Node20</title>
<g id="a_node20"><a xlink:href="namespacetlz.html#a6693dca816d6f48429d1c607ced26f3b" target="_top" xlink:title="tlz::checkerboard_image\l_corners">
<polygon fill="white" stroke="black" points="80,-290 80,-320 203,-320 203,-290 80,-290"/>
<text text-anchor="start" x="88" y="-308" font-family="Helvetica,sans-Serif" font-size="10.00">tlz::checkerboard_image</text>
<text text-anchor="middle" x="141.5" y="-297" font-family="Helvetica,sans-Serif" font-size="10.00">_corners</text>
</a>
</g>
</g>
<!-- Node1&#45;&gt;Node20 -->
<g id="edge22" class="edge"><title>Node1&#45;&gt;Node20</title>
<path fill="none" stroke="midnightblue" d="M22.047,-432.448C27.0999,-411.103 42.1346,-359.129 74,-330 75.7012,-328.445 77.5085,-326.984 79.3971,-325.611"/>
<polygon fill="midnightblue" stroke="midnightblue" points="81.5094,-328.417 88.1235,-320.141 77.7916,-322.486 81.5094,-328.417"/>
</g>
<!-- Node21 -->
<g id="node21" class="node"><title>Node21</title>
<g id="a_node21"><a xlink:href="namespacetlz.html#a48aea98fe42d152179154953ece9b366" target="_top" xlink:title="tlz::checkerboard_pixel\l_depth_samples">
<polygon fill="white" stroke="black" points="83,-202 83,-232 200,-232 200,-202 83,-202"/>
<text text-anchor="start" x="91" y="-220" font-family="Helvetica,sans-Serif" font-size="10.00">tlz::checkerboard_pixel</text>
<text text-anchor="middle" x="141.5" y="-209" font-family="Helvetica,sans-Serif" font-size="10.00">_depth_samples</text>
</a>
</g>
</g>
<!-- Node1&#45;&gt;Node21 -->
<g id="edge23" class="edge"><title>Node1&#45;&gt;Node21</title>
<path fill="none" stroke="midnightblue" d="M19.7045,-432.217C19.2839,-400.451 22.2472,-298.969 74,-242 75.1974,-240.682 76.4712,-239.433 77.809,-238.25"/>
<polygon fill="midnightblue" stroke="midnightblue" points="80.1021,-240.908 86.0848,-232.164 75.955,-235.269 80.1021,-240.908"/>
</g>
<!-- Node23 -->
<g id="node23" class="node"><title>Node23</title>
<g id="a_node23"><a xlink:href="classtlz_1_1viewer.html#a5f0412cff89a343ad52431689502389d" target="_top" xlink:title="tlz::viewer::draw">
<polygon fill="white" stroke="black" points="261.5,-552.5 261.5,-571.5 350.5,-571.5 350.5,-552.5 261.5,-552.5"/>
<text text-anchor="middle" x="306" y="-559.5" font-family="Helvetica,sans-Serif" font-size="10.00">tlz::viewer::draw</text>
</a>
</g>
</g>
<!-- Node1&#45;&gt;Node23 -->
<g id="edge25" class="edge"><title>Node1&#45;&gt;Node23</title>
<path fill="none" stroke="midnightblue" d="M21.9197,-451.562C26.6402,-472.299 40.9229,-521.285 74,-543 126.712,-577.606 201.447,-576.965 251.491,-571.261"/>
<polygon fill="midnightblue" stroke="midnightblue" points="251.976,-574.728 261.468,-570.02 251.112,-567.782 251.976,-574.728"/>
</g>
<!-- Node24 -->
<g id="node24" class="node"><title>Node24</title>
<g id="a_node24"><a xlink:href="namespacetlz.html#a0ae3b183b2bd5a5074615f7eb2b7677d" target="_top" xlink:title="tlz::visualize_checkerboard">
<polygon fill="white" stroke="black" points="74,-251.5 74,-270.5 209,-270.5 209,-251.5 74,-251.5"/>
<text text-anchor="middle" x="141.5" y="-258.5" font-family="Helvetica,sans-Serif" font-size="10.00">tlz::visualize_checkerboard</text>
</a>
</g>
</g>
<!-- Node1&#45;&gt;Node24 -->
<g id="edge28" class="edge"><title>Node1&#45;&gt;Node24</title>
<path fill="none" stroke="midnightblue" d="M20.2482,-432.358C21.5022,-404.485 29.0315,-323.056 74,-280 75.656,-278.414 77.4348,-276.96 79.3091,-275.625"/>
<polygon fill="midnightblue" stroke="midnightblue" points="81.1882,-278.581 88.052,-270.51 77.6533,-272.539 81.1882,-278.581"/>
</g>
<!-- Node25 -->
<g id="node25" class="node"><title>Node25</title>
<g id="a_node25"><a xlink:href="namespacetlz.html#ab1a9db5eb0f9631c1d0b88d38dee54c7" target="_top" xlink:title="tlz::visualize_checkerboard\l_pixel_samples">
<polygon fill="white" stroke="black" points="74,-153 74,-183 209,-183 209,-153 74,-153"/>
<text text-anchor="start" x="82" y="-171" font-family="Helvetica,sans-Serif" font-size="10.00">tlz::visualize_checkerboard</text>
<text text-anchor="middle" x="141.5" y="-160" font-family="Helvetica,sans-Serif" font-size="10.00">_pixel_samples</text>
</a>
</g>
</g>
<!-- Node1&#45;&gt;Node25 -->
<g id="edge30" class="edge"><title>Node1&#45;&gt;Node25</title>
<path fill="none" stroke="midnightblue" d="M20.8358,-432.466C24.6215,-391.309 41.4064,-229.268 74,-192 74.7474,-191.145 75.5277,-190.321 76.3373,-189.526"/>
<polygon fill="midnightblue" stroke="midnightblue" points="78.7052,-192.114 84.3297,-183.136 74.3337,-186.647 78.7052,-192.114"/>
</g>
<!-- Node26 -->
<g id="node26" class="node"><title>Node26</title>
<g id="a_node26"><a xlink:href="classtlz_1_1viewer.html#a6a59617413dc76948b6802399ddf555b" target="_top" xlink:title="tlz::viewer::visualize\l_depth">
<polygon fill="white" stroke="black" points="253,-487 253,-517 359,-517 359,-487 253,-487"/>
<text text-anchor="start" x="261" y="-505" font-family="Helvetica,sans-Serif" font-size="10.00">tlz::viewer::visualize</text>
<text text-anchor="middle" x="306" y="-494" font-family="Helvetica,sans-Serif" font-size="10.00">_depth</text>
</a>
</g>
</g>
<!-- Node1&#45;&gt;Node26 -->
<g id="edge31" class="edge"><title>Node1&#45;&gt;Node26</title>
<path fill="none" stroke="midnightblue" d="M37.502,-451.645C47.836,-456.944 61.336,-463.194 74,-467 129.732,-483.751 195.551,-492.72 242.645,-497.367"/>
<polygon fill="midnightblue" stroke="midnightblue" points="242.412,-500.861 252.698,-498.322 243.074,-493.892 242.412,-500.861"/>
</g>
<!-- Node27 -->
<g id="node27" class="node"><title>Node27</title>
<g id="a_node27"><a xlink:href="classtlz_1_1viewer.html#a7f8bb5582e18ad278881cc065d7c21fa" target="_top" xlink:title="tlz::viewer::draw_depth">
<polygon fill="white" stroke="black" points="82.5,-514.5 82.5,-533.5 200.5,-533.5 200.5,-514.5 82.5,-514.5"/>
<text text-anchor="middle" x="141.5" y="-521.5" font-family="Helvetica,sans-Serif" font-size="10.00">tlz::viewer::draw_depth</text>
</a>
</g>
</g>
<!-- Node1&#45;&gt;Node27 -->
<g id="edge32" class="edge"><title>Node1&#45;&gt;Node27</title>
<path fill="none" stroke="midnightblue" d="M26.6051,-451.542C35.8486,-464.245 53.7953,-486.655 74,-500 80.337,-504.186 87.4955,-507.75 94.7083,-510.749"/>
<polygon fill="midnightblue" stroke="midnightblue" points="93.9148,-514.192 104.505,-514.493 96.4137,-507.654 93.9148,-514.192"/>
</g>
<!-- Node28 -->
<g id="node28" class="node"><title>Node28</title>
<g id="a_node28"><a xlink:href="classtlz_1_1viewer.html#ad4fda702b7c5af2cb0bb9bc3842113f3" target="_top" xlink:title="tlz::viewer::draw_text">
<polygon fill="white" stroke="black" points="86.5,-114.5 86.5,-133.5 196.5,-133.5 196.5,-114.5 86.5,-114.5"/>
<text text-anchor="middle" x="141.5" y="-121.5" font-family="Helvetica,sans-Serif" font-size="10.00">tlz::viewer::draw_text</text>
</a>
</g>
</g>
<!-- Node1&#45;&gt;Node28 -->
<g id="edge35" class="edge"><title>Node1&#45;&gt;Node28</title>
<path fill="none" stroke="midnightblue" d="M20.4031,-432.465C22.5402,-386.386 34.0024,-187.195 74,-143 75.1909,-141.684 76.466,-140.457 77.8116,-139.312"/>
<polygon fill="midnightblue" stroke="midnightblue" points="79.8861,-142.134 86.1935,-133.622 75.9541,-136.343 79.8861,-142.134"/>
</g>
<!-- Node29 -->
<g id="node29" class="node"><title>Node29</title>
<g id="a_node29"><a xlink:href="classtlz_1_1grabber.html#a412843d3f5dbbcb179e5ae4709577b91" target="_top" xlink:title="tlz::grabber::release">
<polygon fill="white" stroke="black" points="90,-76.5 90,-95.5 193,-95.5 193,-76.5 90,-76.5"/>
<text text-anchor="middle" x="141.5" y="-83.5" font-family="Helvetica,sans-Serif" font-size="10.00">tlz::grabber::release</text>
</a>
</g>
</g>
<!-- Node1&#45;&gt;Node29 -->
<g id="edge37" class="edge"><title>Node1&#45;&gt;Node29</title>
<path fill="none" stroke="midnightblue" d="M20.1956,-432.274C21.3946,-382.368 29.2694,-155.418 74,-105 76.0544,-102.684 78.3695,-100.642 80.8718,-98.8426"/>
<polygon fill="midnightblue" stroke="midnightblue" points="83.062,-101.621 89.995,-93.6097 79.5792,-95.5492 83.062,-101.621"/>
</g>
<!-- Node30 -->
<g id="node30" class="node"><title>Node30</title>
<g id="a_node30"><a xlink:href="classtlz_1_1viewer.html#aabb3cdde75783ed1a41801fb236bc50e" target="_top" xlink:title="tlz::viewer::show">
<polygon fill="white" stroke="black" points="96,-38.5 96,-57.5 187,-57.5 187,-38.5 96,-38.5"/>
<text text-anchor="middle" x="141.5" y="-45.5" font-family="Helvetica,sans-Serif" font-size="10.00">tlz::viewer::show</text>
</a>
</g>
</g>
<!-- Node1&#45;&gt;Node30 -->
<g id="edge38" class="edge"><title>Node1&#45;&gt;Node30</title>
<path fill="none" stroke="midnightblue" d="M20.0224,-432.259C20.3415,-379.037 24.4668,-123.732 74,-67 77.513,-62.9765 81.813,-59.7776 86.5205,-57.2382"/>
<polygon fill="midnightblue" stroke="midnightblue" points="88.2025,-60.3234 95.9758,-53.1243 85.4097,-53.9046 88.2025,-60.3234"/>
</g>
<!-- Node31 -->
<g id="node31" class="node"><title>Node31</title>
<g id="a_node31"><a xlink:href="namespacetlz.html#ab98de0b10e3e079dee189f81adc638a0" target="_top" xlink:title="tlz::export_json_file">
<polygon fill="white" stroke="black" points="91,-0.5 91,-19.5 192,-19.5 192,-0.5 91,-0.5"/>
<text text-anchor="middle" x="141.5" y="-7.5" font-family="Helvetica,sans-Serif" font-size="10.00">tlz::export_json_file</text>
</a>
</g>
</g>
<!-- Node1&#45;&gt;Node31 -->
<g id="edge39" class="edge"><title>Node1&#45;&gt;Node31</title>
<path fill="none" stroke="midnightblue" d="M19.8813,-432.402C19.384,-376.398 19.5974,-92.1331 74,-29 76.3441,-26.2798 79.048,-23.9358 81.9957,-21.9173"/>
<polygon fill="midnightblue" stroke="midnightblue" points="83.7753,-24.933 90.8522,-17.0483 80.403,-18.7989 83.7753,-24.933"/>
</g>
<!-- Node4 -->
<g id="node4" class="node"><title>Node4</title>
<g id="a_node4"><a xlink:href="namespacetlz.html#a780431daab8d2595372eacb43143b52d" target="_top" xlink:title="tlz::args">
<polygon fill="white" stroke="black" points="433.5,-792.5 433.5,-811.5 485.5,-811.5 485.5,-792.5 433.5,-792.5"/>
<text text-anchor="middle" x="459.5" y="-799.5" font-family="Helvetica,sans-Serif" font-size="10.00">tlz::args</text>
</a>
</g>
</g>
<!-- Node3&#45;&gt;Node4 -->
<g id="edge3" class="edge"><title>Node3&#45;&gt;Node4</title>
<path fill="none" stroke="midnightblue" d="M337.294,-802C362.036,-802 397.044,-802 423.079,-802"/>
<polygon fill="midnightblue" stroke="midnightblue" points="423.28,-805.5 433.28,-802 423.279,-798.5 423.28,-805.5"/>
</g>
<!-- Node5 -->
<g id="node5" class="node"><title>Node5</title>
<g id="a_node5"><a xlink:href="classtlz_1_1args__list.html#a73d99bc75998dc14607a3a372d28dc6d" target="_top" xlink:title="tlz::args_list::next_arg">
<polygon fill="white" stroke="black" points="403,-754.5 403,-773.5 516,-773.5 516,-754.5 403,-754.5"/>
<text text-anchor="middle" x="459.5" y="-761.5" font-family="Helvetica,sans-Serif" font-size="10.00">tlz::args_list::next_arg</text>
</a>
</g>
</g>
<!-- Node3&#45;&gt;Node5 -->
<g id="edge4" class="edge"><title>Node3&#45;&gt;Node5</title>
<path fill="none" stroke="midnightblue" d="M337.294,-794.401C358.223,-789.152 386.499,-782.06 410.476,-776.046"/>
<polygon fill="midnightblue" stroke="midnightblue" points="411.606,-779.371 420.454,-773.543 409.903,-772.581 411.606,-779.371"/>
</g>
<!-- Node6 -->
<g id="node6" class="node"><title>Node6</title>
<g id="a_node6"><a xlink:href="classtlz_1_1args__list.html#a38ad21acd64a4af98ffdf4a47837cdbe" target="_top" xlink:title="tlz::args_list::usage_fail">
<polygon fill="white" stroke="black" points="552,-773.5 552,-792.5 672,-792.5 672,-773.5 552,-773.5"/>
<text text-anchor="middle" x="612" y="-780.5" font-family="Helvetica,sans-Serif" font-size="10.00">tlz::args_list::usage_fail</text>
</a>
</g>
</g>
<!-- Node3&#45;&gt;Node6 -->
<g id="edge7" class="edge"><title>Node3&#45;&gt;Node6</title>
<path fill="none" stroke="midnightblue" d="M337.027,-809.959C377.86,-819.599 453.033,-833.126 516,-821 539.915,-816.394 565.462,-805.823 584.034,-796.996"/>
<polygon fill="midnightblue" stroke="midnightblue" points="585.618,-800.118 593.064,-792.581 582.543,-793.829 585.618,-800.118"/>
</g>
<!-- Node5&#45;&gt;Node6 -->
<g id="edge5" class="edge"><title>Node5&#45;&gt;Node6</title>
<path fill="none" stroke="midnightblue" d="M516.113,-771.021C524.479,-772.077 533.192,-773.177 541.8,-774.264"/>
<polygon fill="midnightblue" stroke="midnightblue" points="541.468,-777.75 551.828,-775.53 542.345,-770.805 541.468,-777.75"/>
</g>
<!-- Node5&#45;&gt;Node7 -->
<g id="edge6" class="edge"><title>Node5&#45;&gt;Node7</title>
<path fill="none" stroke="midnightblue" d="M516.113,-756.979C532.598,-754.898 550.435,-752.646 566.147,-750.662"/>
<polygon fill="midnightblue" stroke="midnightblue" points="566.647,-754.127 576.13,-749.402 565.77,-747.182 566.647,-754.127"/>
</g>
<!-- Node9 -->
<g id="node9" class="node"><title>Node9</title>
<g id="a_node9"><a xlink:href="namespacetlz.html#a0621d598fb83b13bf028f3e6293d04f8" target="_top" xlink:title="tlz::string_arg">
<polygon fill="white" stroke="black" points="268,-754.5 268,-773.5 344,-773.5 344,-754.5 268,-754.5"/>
<text text-anchor="middle" x="306" y="-761.5" font-family="Helvetica,sans-Serif" font-size="10.00">tlz::string_arg</text>
</a>
</g>
</g>
<!-- Node8&#45;&gt;Node9 -->
<g id="edge9" class="edge"><title>Node8&#45;&gt;Node9</title>
<path fill="none" stroke="midnightblue" d="M195.259,-764C215.369,-764 238.146,-764 257.716,-764"/>
<polygon fill="midnightblue" stroke="midnightblue" points="257.923,-767.5 267.923,-764 257.923,-760.5 257.923,-767.5"/>
</g>
<!-- Node9&#45;&gt;Node4 -->
<g id="edge10" class="edge"><title>Node9&#45;&gt;Node4</title>
<path fill="none" stroke="midnightblue" d="M344.061,-773.296C368.174,-779.344 399.438,-787.186 423.193,-793.144"/>
<polygon fill="midnightblue" stroke="midnightblue" points="422.647,-796.616 433.198,-795.654 424.35,-789.826 422.647,-796.616"/>
</g>
<!-- Node9&#45;&gt;Node5 -->
<g id="edge11" class="edge"><title>Node9&#45;&gt;Node5</title>
<path fill="none" stroke="midnightblue" d="M344.061,-764C358.715,-764 376.009,-764 392.655,-764"/>
<polygon fill="midnightblue" stroke="midnightblue" points="392.905,-767.5 402.905,-764 392.905,-760.5 392.905,-767.5"/>
</g>
<!-- Node13 -->
<g id="node13" class="node"><title>Node13</title>
<g id="a_node13"><a xlink:href="classtlz_1_1viewer.html#af74a8aef9dde68eeff6b1e2561b39014" target="_top" xlink:title="tlz::viewer::height">
<polygon fill="white" stroke="black" points="412.5,-590.5 412.5,-609.5 506.5,-609.5 506.5,-590.5 412.5,-590.5"/>
<text text-anchor="middle" x="459.5" y="-597.5" font-family="Helvetica,sans-Serif" font-size="10.00">tlz::viewer::height</text>
</a>
</g>
</g>
<!-- Node12&#45;&gt;Node13 -->
<g id="edge15" class="edge"><title>Node12&#45;&gt;Node13</title>
<path fill="none" stroke="midnightblue" d="M350.82,-600C366.814,-600 385.132,-600 402.069,-600"/>
<polygon fill="midnightblue" stroke="midnightblue" points="402.404,-603.5 412.404,-600 402.404,-596.5 402.404,-603.5"/>
</g>
<!-- Node14 -->
<g id="node14" class="node"><title>Node14</title>
<g id="a_node14"><a xlink:href="classtlz_1_1viewer.html#acc43bf1dd1d0c3cdc35a948d4c194769" target="_top" xlink:title="tlz::viewer::width">
<polygon fill="white" stroke="black" points="414,-552.5 414,-571.5 505,-571.5 505,-552.5 414,-552.5"/>
<text text-anchor="middle" x="459.5" y="-559.5" font-family="Helvetica,sans-Serif" font-size="10.00">tlz::viewer::width</text>
</a>
</g>
</g>
<!-- Node12&#45;&gt;Node14 -->
<g id="edge16" class="edge"><title>Node12&#45;&gt;Node14</title>
<path fill="none" stroke="midnightblue" d="M345.23,-590.411C365.132,-585.419 389.657,-579.268 410.791,-573.967"/>
<polygon fill="midnightblue" stroke="midnightblue" points="411.697,-577.348 420.545,-571.52 409.994,-570.558 411.697,-577.348"/>
</g>
<!-- Node18 -->
<g id="node18" class="node"><title>Node18</title>
<g id="a_node18"><a xlink:href="structtlz_1_1checkerboard.html#a44b150a25091e74cfaec42635d392369" target="_top" xlink:title="tlz::checkerboard::\lcheckerboard">
<polygon fill="white" stroke="black" points="257,-358 257,-388 355,-388 355,-358 257,-358"/>
<text text-anchor="start" x="265" y="-376" font-family="Helvetica,sans-Serif" font-size="10.00">tlz::checkerboard::</text>
<text text-anchor="middle" x="306" y="-365" font-family="Helvetica,sans-Serif" font-size="10.00">checkerboard</text>
</a>
</g>
</g>
<!-- Node17&#45;&gt;Node18 -->
<g id="edge20" class="edge"><title>Node17&#45;&gt;Node18</title>
<path fill="none" stroke="midnightblue" d="M207.191,-358.554C220.181,-360.473 233.761,-362.479 246.525,-364.364"/>
<polygon fill="midnightblue" stroke="midnightblue" points="246.155,-367.847 256.559,-365.846 247.178,-360.922 246.155,-367.847"/>
</g>
<!-- Node19 -->
<g id="node19" class="node"><title>Node19</title>
<g id="a_node19"><a xlink:href="structtlz_1_1checkerboard.html#aa0961b41552bc73fc4f75d2dca128637" target="_top" xlink:title="tlz::checkerboard::\lcorner">
<polygon fill="white" stroke="black" points="257,-309 257,-339 355,-339 355,-309 257,-309"/>
<text text-anchor="start" x="265" y="-327" font-family="Helvetica,sans-Serif" font-size="10.00">tlz::checkerboard::</text>
<text text-anchor="middle" x="306" y="-316" font-family="Helvetica,sans-Serif" font-size="10.00">corner</text>
</a>
</g>
</g>
<!-- Node17&#45;&gt;Node19 -->
<g id="edge21" class="edge"><title>Node17&#45;&gt;Node19</title>
<path fill="none" stroke="midnightblue" d="M204.398,-339.477C218.264,-337.344 232.928,-335.088 246.644,-332.978"/>
<polygon fill="midnightblue" stroke="midnightblue" points="247.568,-336.377 256.92,-331.397 246.504,-329.458 247.568,-336.377"/>
</g>
<!-- Node22 -->
<g id="node22" class="node"><title>Node22</title>
<g id="a_node22"><a xlink:href="structtlz_1_1checkerboard.html#a2684fe6c45bc112b0a5c3d6e833ba22e" target="_top" xlink:title="tlz::checkerboard::\louter_corners_i">
<polygon fill="white" stroke="black" points="257,-224 257,-254 355,-254 355,-224 257,-224"/>
<text text-anchor="start" x="265" y="-242" font-family="Helvetica,sans-Serif" font-size="10.00">tlz::checkerboard::</text>
<text text-anchor="middle" x="306" y="-231" font-family="Helvetica,sans-Serif" font-size="10.00">outer_corners_i</text>
</a>
</g>
</g>
<!-- Node21&#45;&gt;Node22 -->
<g id="edge24" class="edge"><title>Node21&#45;&gt;Node22</title>
<path fill="none" stroke="midnightblue" d="M200.249,-224.818C215.295,-226.855 231.518,-229.052 246.598,-231.093"/>
<polygon fill="midnightblue" stroke="midnightblue" points="246.448,-234.605 256.827,-232.478 247.387,-227.668 246.448,-234.605"/>
</g>
<!-- Node23&#45;&gt;Node13 -->
<g id="edge27" class="edge"><title>Node23&#45;&gt;Node13</title>
<path fill="none" stroke="midnightblue" d="M345.23,-571.589C365.132,-576.581 389.657,-582.732 410.791,-588.033"/>
<polygon fill="midnightblue" stroke="midnightblue" points="409.994,-591.442 420.545,-590.48 411.697,-584.652 409.994,-591.442"/>
</g>
<!-- Node23&#45;&gt;Node14 -->
<g id="edge26" class="edge"><title>Node23&#45;&gt;Node14</title>
<path fill="none" stroke="midnightblue" d="M350.82,-562C367.403,-562 386.485,-562 403.936,-562"/>
<polygon fill="midnightblue" stroke="midnightblue" points="403.991,-565.5 413.991,-562 403.99,-558.5 403.991,-565.5"/>
</g>
<!-- Node24&#45;&gt;Node22 -->
<g id="edge29" class="edge"><title>Node24&#45;&gt;Node22</title>
<path fill="none" stroke="midnightblue" d="M209.064,-251.988C221.527,-250.301 234.466,-248.549 246.656,-246.899"/>
<polygon fill="midnightblue" stroke="midnightblue" points="247.253,-250.35 256.693,-245.54 246.314,-243.413 247.253,-250.35"/>
</g>
<!-- Node27&#45;&gt;Node23 -->
<g id="edge34" class="edge"><title>Node27&#45;&gt;Node23</title>
<path fill="none" stroke="midnightblue" d="M183.506,-533.589C205.046,-538.626 231.635,-544.844 254.441,-550.177"/>
<polygon fill="midnightblue" stroke="midnightblue" points="253.755,-553.611 264.289,-552.48 255.349,-546.795 253.755,-553.611"/>
</g>
<!-- Node27&#45;&gt;Node26 -->
<g id="edge33" class="edge"><title>Node27&#45;&gt;Node26</title>
<path fill="none" stroke="midnightblue" d="M200.707,-516.12C214.411,-514.264 229.068,-512.28 242.935,-510.403"/>
<polygon fill="midnightblue" stroke="midnightblue" points="243.427,-513.868 252.867,-509.058 242.488,-506.931 243.427,-513.868"/>
</g>
<!-- Node32 -->
<g id="node32" class="node"><title>Node32</title>
<g id="a_node32"><a xlink:href="namespacetlz.html#ae11c827ac9e581f9d2f98c39aab3750d" target="_top" xlink:title="tlz::file_name_extension">
<polygon fill="white" stroke="black" points="245,-0.5 245,-19.5 367,-19.5 367,-0.5 245,-0.5"/>
<text text-anchor="middle" x="306" y="-7.5" font-family="Helvetica,sans-Serif" font-size="10.00">tlz::file_name_extension</text>
</a>
</g>
</g>
<!-- Node31&#45;&gt;Node32 -->
<g id="edge40" class="edge"><title>Node31&#45;&gt;Node32</title>
<path fill="none" stroke="midnightblue" d="M192.138,-10C205.507,-10 220.229,-10 234.5,-10"/>
<polygon fill="midnightblue" stroke="midnightblue" points="234.787,-13.5001 244.787,-10 234.787,-6.5001 234.787,-13.5001"/>
</g>
</g>
</svg>
