<?xml version="1.0" encoding="UTF-8" standalone="no"?>
<!DOCTYPE svg PUBLIC "-//W3C//DTD SVG 1.1//EN"
 "http://www.w3.org/Graphics/SVG/1.1/DTD/svg11.dtd">
<!-- Generated by graphviz version 2.38.0 (20140413.2041)
 -->
<!-- Title: main Pages: 1 -->
<svg width="944pt" height="1030pt"
 viewBox="0.00 0.00 944.00 1030.00" xmlns="http://www.w3.org/2000/svg" xmlns:xlink="http://www.w3.org/1999/xlink">
<g id="graph0" class="graph" transform="scale(1 1) rotate(0) translate(4 1026)">
<title>main</title>
<polygon fill="white" stroke="none" points="-4,4 -4,-1026 940,-1026 940,4 -4,4"/>
<!-- Node1 -->
<g id="node1" class="node"><title>Node1</title>
<polygon fill="#bfbfbf" stroke="black" points="0,-448.5 0,-467.5 38,-467.5 38,-448.5 0,-448.5"/>
<text text-anchor="middle" x="19" y="-455.5" font-family="Helvetica,sans-Serif" font-size="10.00">main</text>
</g>
<!-- Node2 -->
<g id="node2" class="node"><title>Node2</title>
<g id="a_node2"><a xlink:href="namespacetlz.html#a3c03f5d9d6261ec2909938822fc47f8a" target="_top" xlink:title="tlz::get_args">
<polygon fill="white" stroke="black" points="106.5,-1002.5 106.5,-1021.5 177.5,-1021.5 177.5,-1002.5 106.5,-1002.5"/>
<text text-anchor="middle" x="142" y="-1009.5" font-family="Helvetica,sans-Serif" font-size="10.00">tlz::get_args</text>
</a>
</g>
</g>
<!-- Node1&#45;&gt;Node2 -->
<g id="edge1" class="edge"><title>Node1&#45;&gt;Node2</title>
<path fill="none" stroke="midnightblue" d="M20.3714,-467.684C23.0753,-536.114 40.5765,-945.304 74,-988 79.761,-995.359 87.9669,-1000.46 96.6699,-1004.01"/>
<polygon fill="midnightblue" stroke="midnightblue" points="95.622,-1007.35 106.217,-1007.27 97.885,-1000.72 95.622,-1007.35"/>
</g>
<!-- Node3 -->
<g id="node3" class="node"><title>Node3</title>
<g id="a_node3"><a xlink:href="namespacetlz.html#af0d1e8ba5b9f2dbc2b589afab3a21fc8" target="_top" xlink:title="tlz::int_arg">
<polygon fill="white" stroke="black" points="561.5,-964.5 561.5,-983.5 623.5,-983.5 623.5,-964.5 561.5,-964.5"/>
<text text-anchor="middle" x="592.5" y="-971.5" font-family="Helvetica,sans-Serif" font-size="10.00">tlz::int_arg</text>
</a>
</g>
</g>
<!-- Node1&#45;&gt;Node3 -->
<g id="edge2" class="edge"><title>Node1&#45;&gt;Node3</title>
<path fill="none" stroke="midnightblue" d="M20.0446,-467.685C20.4782,-522.968 25.0966,-798.462 74,-864 186.472,-1014.73 450.08,-994.715 551.112,-980.661"/>
<polygon fill="midnightblue" stroke="midnightblue" points="551.817,-984.096 561.213,-979.199 550.815,-977.168 551.817,-984.096"/>
</g>
<!-- Node7 -->
<g id="node7" class="node"><title>Node7</title>
<g id="a_node7"><a xlink:href="namespacetlz.html#a8e4f8c8c2927bc4350de13bfa0f8f9e1" target="_top" xlink:title="tlz::to_string">
<polygon fill="white" stroke="black" points="840.5,-774.5 840.5,-793.5 911.5,-793.5 911.5,-774.5 840.5,-774.5"/>
<text text-anchor="middle" x="876" y="-781.5" font-family="Helvetica,sans-Serif" font-size="10.00">tlz::to_string</text>
</a>
</g>
</g>
<!-- Node1&#45;&gt;Node7 -->
<g id="edge59" class="edge"><title>Node1&#45;&gt;Node7</title>
<path fill="none" stroke="midnightblue" d="M20.4553,-467.629C22.7095,-510.71 34.2129,-685.09 74,-718 85.9237,-727.863 615.642,-725.104 631,-727 703.552,-735.956 785.994,-757.716 834.078,-771.61"/>
<polygon fill="midnightblue" stroke="midnightblue" points="833.221,-775.006 843.802,-774.448 835.183,-768.286 833.221,-775.006"/>
</g>
<!-- Node8 -->
<g id="node8" class="node"><title>Node8</title>
<g id="a_node8"><a xlink:href="namespacetlz.html#a63246890b0c946b5f62a1d3e2bea6103" target="_top" xlink:title="tlz::real_arg">
<polygon fill="white" stroke="black" points="558.5,-926.5 558.5,-945.5 626.5,-945.5 626.5,-926.5 558.5,-926.5"/>
<text text-anchor="middle" x="592.5" y="-933.5" font-family="Helvetica,sans-Serif" font-size="10.00">tlz::real_arg</text>
</a>
</g>
</g>
<!-- Node1&#45;&gt;Node8 -->
<g id="edge8" class="edge"><title>Node1&#45;&gt;Node8</title>
<path fill="none" stroke="midnightblue" d="M20.2857,-467.512C21.957,-517.352 31.8996,-748.19 74,-803 188.453,-952.004 445.742,-948.483 548.202,-940.515"/>
<polygon fill="midnightblue" stroke="midnightblue" points="548.522,-944.001 558.198,-939.685 547.943,-937.025 548.522,-944.001"/>
</g>
<!-- Node9 -->
<g id="node9" class="node"><title>Node9</title>
<g id="a_node9"><a xlink:href="namespacetlz.html#a170805c7a8ede64a93e0ee23196e5b7c" target="_top" xlink:title="tlz::intrinsics_arg">
<polygon fill="white" stroke="black" points="96.5,-774.5 96.5,-793.5 187.5,-793.5 187.5,-774.5 96.5,-774.5"/>
<text text-anchor="middle" x="142" y="-781.5" font-family="Helvetica,sans-Serif" font-size="10.00">tlz::intrinsics_arg</text>
</a>
</g>
</g>
<!-- Node1&#45;&gt;Node9 -->
<g id="edge12" class="edge"><title>Node1&#45;&gt;Node9</title>
<path fill="none" stroke="midnightblue" d="M20.6185,-467.505C23.7162,-512.575 38.8128,-704.491 74,-751 80.1608,-759.143 88.8714,-765.399 97.98,-770.158"/>
<polygon fill="midnightblue" stroke="midnightblue" points="96.5996,-773.376 107.142,-774.433 99.5595,-767.033 96.5996,-773.376"/>
</g>
<!-- Node19 -->
<g id="node19" class="node"><title>Node19</title>
<g id="a_node19"><a xlink:href="classtlz_1_1viewer.html#a2bf9d63d7a1a5ec4d5bdabc13d9ab688" target="_top" xlink:title="tlz::viewer::add_int\l_slider">
<polygon fill="white" stroke="black" points="92.5,-678 92.5,-708 191.5,-708 191.5,-678 92.5,-678"/>
<text text-anchor="start" x="100.5" y="-696" font-family="Helvetica,sans-Serif" font-size="10.00">tlz::viewer::add_int</text>
<text text-anchor="middle" x="142" y="-685" font-family="Helvetica,sans-Serif" font-size="10.00">_slider</text>
</a>
</g>
</g>
<!-- Node1&#45;&gt;Node19 -->
<g id="edge27" class="edge"><title>Node1&#45;&gt;Node19</title>
<path fill="none" stroke="midnightblue" d="M19.546,-467.804C18.5718,-500.607 19.8654,-607.834 74,-668 76.8494,-671.167 80.1385,-673.934 83.6985,-676.351"/>
<polygon fill="midnightblue" stroke="midnightblue" points="82.0059,-679.416 92.4167,-681.382 85.5042,-673.352 82.0059,-679.416"/>
</g>
<!-- Node20 -->
<g id="node20" class="node"><title>Node20</title>
<g id="a_node20"><a xlink:href="classtlz_1_1grabber.html#a14d256bd7ef0af5be70f2bd7713a7e54" target="_top" xlink:title="tlz::grabber::grab">
<polygon fill="white" stroke="black" points="97,-639.5 97,-658.5 187,-658.5 187,-639.5 97,-639.5"/>
<text text-anchor="middle" x="142" y="-646.5" font-family="Helvetica,sans-Serif" font-size="10.00">tlz::grabber::grab</text>
</a>
</g>
</g>
<!-- Node1&#45;&gt;Node20 -->
<g id="edge28" class="edge"><title>Node1&#45;&gt;Node20</title>
<path fill="none" stroke="midnightblue" d="M20.0305,-467.808C20.6717,-496.968 26.6568,-583.959 74,-630 77.9546,-633.846 82.6278,-636.924 87.6378,-639.387"/>
<polygon fill="midnightblue" stroke="midnightblue" points="86.3561,-642.644 96.937,-643.187 89.0041,-636.164 86.3561,-642.644"/>
</g>
<!-- Node21 -->
<g id="node21" class="node"><title>Node21</title>
<g id="a_node21"><a xlink:href="classtlz_1_1viewer.html#a0ad9ee28b8127c63b2886b04fb36e3dc" target="_top" xlink:title="tlz::viewer::clear">
<polygon fill="white" stroke="black" points="97.5,-601.5 97.5,-620.5 186.5,-620.5 186.5,-601.5 97.5,-601.5"/>
<text text-anchor="middle" x="142" y="-608.5" font-family="Helvetica,sans-Serif" font-size="10.00">tlz::viewer::clear</text>
</a>
</g>
</g>
<!-- Node1&#45;&gt;Node21 -->
<g id="edge29" class="edge"><title>Node1&#45;&gt;Node21</title>
<path fill="none" stroke="midnightblue" d="M21.0219,-467.744C24.1339,-492.38 35.7542,-557.634 74,-592 78.1032,-595.687 82.872,-598.663 87.9387,-601.065"/>
<polygon fill="midnightblue" stroke="midnightblue" points="86.7162,-604.346 97.3014,-604.797 89.3082,-597.843 86.7162,-604.346"/>
</g>
<!-- Node24 -->
<g id="node24" class="node"><title>Node24</title>
<g id="a_node24"><a xlink:href="classtlz_1_1grabber.html#a22caa426aef0275c5cdf9bfebe352940" target="_top" xlink:title="tlz::grabber::get_depth\l_frame">
<polygon fill="white" stroke="black" points="85,-514 85,-544 199,-544 199,-514 85,-514"/>
<text text-anchor="start" x="93" y="-532" font-family="Helvetica,sans-Serif" font-size="10.00">tlz::grabber::get_depth</text>
<text text-anchor="middle" x="142" y="-521" font-family="Helvetica,sans-Serif" font-size="10.00">_frame</text>
</a>
</g>
</g>
<!-- Node1&#45;&gt;Node24 -->
<g id="edge32" class="edge"><title>Node1&#45;&gt;Node24</title>
<path fill="none" stroke="midnightblue" d="M29.0961,-467.854C39.1986,-478.304 56.4143,-494.694 74,-505 76.8249,-506.655 79.7829,-508.225 82.8162,-509.71"/>
<polygon fill="midnightblue" stroke="midnightblue" points="81.5306,-512.97 92.084,-513.906 84.4179,-506.593 81.5306,-512.97"/>
</g>
<!-- Node25 -->
<g id="node25" class="node"><title>Node25</title>
<g id="a_node25"><a xlink:href="classtlz_1_1grabber.html#ab0a7ab9197c8d2676a072c3f9eadd96d" target="_top" xlink:title="tlz::grabber::get_ir\l_frame">
<polygon fill="white" stroke="black" points="94.5,-465 94.5,-495 189.5,-495 189.5,-465 94.5,-465"/>
<text text-anchor="start" x="102.5" y="-483" font-family="Helvetica,sans-Serif" font-size="10.00">tlz::grabber::get_ir</text>
<text text-anchor="middle" x="142" y="-472" font-family="Helvetica,sans-Serif" font-size="10.00">_frame</text>
</a>
</g>
</g>
<!-- Node1&#45;&gt;Node25 -->
<g id="edge33" class="edge"><title>Node1&#45;&gt;Node25</title>
<path fill="none" stroke="midnightblue" d="M38.1149,-461.294C50.3991,-463.527 67.3683,-466.612 83.9857,-469.634"/>
<polygon fill="midnightblue" stroke="midnightblue" points="83.7771,-473.153 94.2419,-471.499 85.0293,-466.266 83.7771,-473.153"/>
</g>
<!-- Node26 -->
<g id="node26" class="node"><title>Node26</title>
<g id="a_node26"><a xlink:href="namespacetlz.html#abc33c7b74cbbd686b06228c1fdad9214" target="_top" xlink:title="tlz::detect_ir_checkerboard">
<polygon fill="white" stroke="black" points="75,-426.5 75,-445.5 209,-445.5 209,-426.5 75,-426.5"/>
<text text-anchor="middle" x="142" y="-433.5" font-family="Helvetica,sans-Serif" font-size="10.00">tlz::detect_ir_checkerboard</text>
</a>
</g>
</g>
<!-- Node1&#45;&gt;Node26 -->
<g id="edge34" class="edge"><title>Node1&#45;&gt;Node26</title>
<path fill="none" stroke="midnightblue" d="M38.1149,-454.706C49.0424,-452.72 63.6773,-450.059 78.474,-447.368"/>
<polygon fill="midnightblue" stroke="midnightblue" points="79.4875,-450.742 88.7001,-445.509 78.2352,-443.854 79.4875,-450.742"/>
</g>
<!-- Node29 -->
<g id="node29" class="node"><title>Node29</title>
<g id="a_node29"><a xlink:href="namespacetlz.html#a48aea98fe42d152179154953ece9b366" target="_top" xlink:title="tlz::checkerboard_pixel\l_depth_samples">
<polygon fill="white" stroke="black" points="255,-427 255,-457 372,-457 372,-427 255,-427"/>
<text text-anchor="start" x="263" y="-445" font-family="Helvetica,sans-Serif" font-size="10.00">tlz::checkerboard_pixel</text>
<text text-anchor="middle" x="313.5" y="-434" font-family="Helvetica,sans-Serif" font-size="10.00">_depth_samples</text>
</a>
</g>
</g>
<!-- Node1&#45;&gt;Node29 -->
<g id="edge37" class="edge"><title>Node1&#45;&gt;Node29</title>
<path fill="none" stroke="midnightblue" d="M28.821,-448.307C38.6883,-438.253 55.7042,-423.159 74,-417 135.647,-396.249 210.881,-410.138 260.156,-424.115"/>
<polygon fill="midnightblue" stroke="midnightblue" points="259.376,-427.534 269.957,-426.993 261.349,-420.817 259.376,-427.534"/>
</g>
<!-- Node31 -->
<g id="node31" class="node"><title>Node31</title>
<g id="a_node31"><a xlink:href="namespacetlz.html#ac176ab31932290f05fb3c647f8ecdd85" target="_top" xlink:title="tlz::estimate_checkerboard\l_extrinsics">
<polygon fill="white" stroke="black" points="75,-301 75,-331 209,-331 209,-301 75,-301"/>
<text text-anchor="start" x="83" y="-319" font-family="Helvetica,sans-Serif" font-size="10.00">tlz::estimate_checkerboard</text>
<text text-anchor="middle" x="142" y="-308" font-family="Helvetica,sans-Serif" font-size="10.00">_extrinsics</text>
</a>
</g>
</g>
<!-- Node1&#45;&gt;Node31 -->
<g id="edge39" class="edge"><title>Node1&#45;&gt;Node31</title>
<path fill="none" stroke="midnightblue" d="M22.2581,-448.268C27.6535,-427.011 43.1984,-375.943 74,-346 77.7867,-342.319 82.103,-339.043 86.6782,-336.139"/>
<polygon fill="midnightblue" stroke="midnightblue" points="88.7576,-338.983 95.7244,-331.001 85.3005,-332.896 88.7576,-338.983"/>
</g>
<!-- Node36 -->
<g id="node36" class="node"><title>Node36</title>
<g id="a_node36"><a xlink:href="namespacetlz.html#a14afc7fea76a0b1ef43be4abfcdb97e4" target="_top" xlink:title="tlz::calculate_checkerboard\l_pixel_depths">
<polygon fill="white" stroke="black" points="74,-252 74,-282 210,-282 210,-252 74,-252"/>
<text text-anchor="start" x="82" y="-270" font-family="Helvetica,sans-Serif" font-size="10.00">tlz::calculate_checkerboard</text>
<text text-anchor="middle" x="142" y="-259" font-family="Helvetica,sans-Serif" font-size="10.00">_pixel_depths</text>
</a>
</g>
</g>
<!-- Node1&#45;&gt;Node36 -->
<g id="edge45" class="edge"><title>Node1&#45;&gt;Node36</title>
<path fill="none" stroke="midnightblue" d="M20.3389,-448.298C21.8385,-420.217 29.9673,-337.951 74,-292 75.3851,-290.555 76.8616,-289.192 78.4123,-287.908"/>
<polygon fill="midnightblue" stroke="midnightblue" points="80.5118,-290.711 86.7069,-282.116 76.5042,-284.971 80.5118,-290.711"/>
</g>
<!-- Node37 -->
<g id="node37" class="node"><title>Node37</title>
<g id="a_node37"><a xlink:href="namespacetlz.html#a318f0ec11ecbe39c32ad870473ea9c35" target="_top" xlink:title="Compute square of a number. ">
<polygon fill="white" stroke="black" points="120,-213.5 120,-232.5 164,-232.5 164,-213.5 120,-213.5"/>
<text text-anchor="middle" x="142" y="-220.5" font-family="Helvetica,sans-Serif" font-size="10.00">tlz::sq</text>
</a>
</g>
</g>
<!-- Node1&#45;&gt;Node37 -->
<g id="edge47" class="edge"><title>Node1&#45;&gt;Node37</title>
<path fill="none" stroke="midnightblue" d="M21.1669,-448.255C25.8878,-410.385 44.7311,-273.586 74,-243 83.2451,-233.339 96.9394,-228.289 109.542,-225.671"/>
<polygon fill="midnightblue" stroke="midnightblue" points="110.449,-229.069 119.75,-223.995 109.315,-222.161 110.449,-229.069"/>
</g>
<!-- Node41 -->
<g id="node41" class="node"><title>Node41</title>
<g id="a_node41"><a xlink:href="classtlz_1_1viewer.html#a5f0412cff89a343ad52431689502389d" target="_top" xlink:title="tlz::viewer::draw">
<polygon fill="white" stroke="black" points="97.5,-563.5 97.5,-582.5 186.5,-582.5 186.5,-563.5 97.5,-563.5"/>
<text text-anchor="middle" x="142" y="-570.5" font-family="Helvetica,sans-Serif" font-size="10.00">tlz::viewer::draw</text>
</a>
</g>
</g>
<!-- Node1&#45;&gt;Node41 -->
<g id="edge51" class="edge"><title>Node1&#45;&gt;Node41</title>
<path fill="none" stroke="midnightblue" d="M22.6571,-467.526C28.5467,-486.853 44.5612,-530.803 74,-554 78.1088,-557.238 82.7425,-559.924 87.6063,-562.152"/>
<polygon fill="midnightblue" stroke="midnightblue" points="86.5781,-565.508 97.1658,-565.898 89.132,-558.991 86.5781,-565.508"/>
</g>
<!-- Node42 -->
<g id="node42" class="node"><title>Node42</title>
<g id="a_node42"><a xlink:href="namespacetlz.html#a0ae3b183b2bd5a5074615f7eb2b7677d" target="_top" xlink:title="tlz::visualize_checkerboard">
<polygon fill="white" stroke="black" points="246,-388.5 246,-407.5 381,-407.5 381,-388.5 246,-388.5"/>
<text text-anchor="middle" x="313.5" y="-395.5" font-family="Helvetica,sans-Serif" font-size="10.00">tlz::visualize_checkerboard</text>
</a>
</g>
</g>
<!-- Node1&#45;&gt;Node42 -->
<g id="edge54" class="edge"><title>Node1&#45;&gt;Node42</title>
<path fill="none" stroke="midnightblue" d="M25.8443,-448.242C34.4586,-434.916 51.9534,-411.587 74,-402 131.735,-376.895 205.008,-380.196 255.003,-387.02"/>
<polygon fill="midnightblue" stroke="midnightblue" points="254.592,-390.497 264.992,-388.472 255.599,-383.57 254.592,-390.497"/>
</g>
<!-- Node43 -->
<g id="node43" class="node"><title>Node43</title>
<g id="a_node43"><a xlink:href="namespacetlz.html#ab1a9db5eb0f9631c1d0b88d38dee54c7" target="_top" xlink:title="tlz::visualize_checkerboard\l_pixel_samples">
<polygon fill="white" stroke="black" points="74.5,-164 74.5,-194 209.5,-194 209.5,-164 74.5,-164"/>
<text text-anchor="start" x="82.5" y="-182" font-family="Helvetica,sans-Serif" font-size="10.00">tlz::visualize_checkerboard</text>
<text text-anchor="middle" x="142" y="-171" font-family="Helvetica,sans-Serif" font-size="10.00">_pixel_samples</text>
</a>
</g>
</g>
<!-- Node1&#45;&gt;Node43 -->
<g id="edge56" class="edge"><title>Node1&#45;&gt;Node43</title>
<path fill="none" stroke="midnightblue" d="M20.8242,-448.324C24.5617,-406.551 41.1742,-242.069 74,-204 75.1427,-202.675 76.3626,-201.42 77.6478,-200.231"/>
<polygon fill="midnightblue" stroke="midnightblue" points="79.8186,-202.977 85.639,-194.124 75.5682,-197.415 79.8186,-202.977"/>
</g>
<!-- Node44 -->
<g id="node44" class="node"><title>Node44</title>
<g id="a_node44"><a xlink:href="classtlz_1_1viewer.html#a6a59617413dc76948b6802399ddf555b" target="_top" xlink:title="tlz::viewer::visualize\l_depth">
<polygon fill="white" stroke="black" points="89,-115 89,-145 195,-145 195,-115 89,-115"/>
<text text-anchor="start" x="97" y="-133" font-family="Helvetica,sans-Serif" font-size="10.00">tlz::viewer::visualize</text>
<text text-anchor="middle" x="142" y="-122" font-family="Helvetica,sans-Serif" font-size="10.00">_depth</text>
</a>
</g>
</g>
<!-- Node1&#45;&gt;Node44 -->
<g id="edge57" class="edge"><title>Node1&#45;&gt;Node44</title>
<path fill="none" stroke="midnightblue" d="M20.4579,-448.403C22.8522,-402.014 35.3333,-201.374 74,-155 75.9007,-152.72 78.0307,-150.649 80.3306,-148.766"/>
<polygon fill="midnightblue" stroke="midnightblue" points="82.4162,-151.58 88.7184,-143.063 78.4807,-145.791 82.4162,-151.58"/>
</g>
<!-- Node45 -->
<g id="node45" class="node"><title>Node45</title>
<g id="a_node45"><a xlink:href="classtlz_1_1viewer.html#ad4fda702b7c5af2cb0bb9bc3842113f3" target="_top" xlink:title="tlz::viewer::draw_text">
<polygon fill="white" stroke="black" points="87,-76.5 87,-95.5 197,-95.5 197,-76.5 87,-76.5"/>
<text text-anchor="middle" x="142" y="-83.5" font-family="Helvetica,sans-Serif" font-size="10.00">tlz::viewer::draw_text</text>
</a>
</g>
</g>
<!-- Node1&#45;&gt;Node45 -->
<g id="edge58" class="edge"><title>Node1&#45;&gt;Node45</title>
<path fill="none" stroke="midnightblue" d="M20.1355,-448.196C21.0412,-396.838 27.713,-159.152 74,-106 75.5222,-104.252 77.19,-102.654 78.9733,-101.192"/>
<polygon fill="midnightblue" stroke="midnightblue" points="81.0083,-104.043 87.4379,-95.6218 77.1603,-98.1953 81.0083,-104.043"/>
</g>
<!-- Node46 -->
<g id="node46" class="node"><title>Node46</title>
<g id="a_node46"><a xlink:href="classtlz_1_1grabber.html#a412843d3f5dbbcb179e5ae4709577b91" target="_top" xlink:title="tlz::grabber::release">
<polygon fill="white" stroke="black" points="90.5,-38.5 90.5,-57.5 193.5,-57.5 193.5,-38.5 90.5,-38.5"/>
<text text-anchor="middle" x="142" y="-45.5" font-family="Helvetica,sans-Serif" font-size="10.00">tlz::grabber::release</text>
</a>
</g>
</g>
<!-- Node1&#45;&gt;Node46 -->
<g id="edge60" class="edge"><title>Node1&#45;&gt;Node46</title>
<path fill="none" stroke="midnightblue" d="M19.9572,-448.205C19.9173,-393.524 22.3956,-126.332 74,-67 76.2217,-64.4456 78.7589,-62.2227 81.516,-60.2893"/>
<polygon fill="midnightblue" stroke="midnightblue" points="83.3542,-63.2711 90.3516,-55.3158 79.9205,-57.1711 83.3542,-63.2711"/>
</g>
<!-- Node47 -->
<g id="node47" class="node"><title>Node47</title>
<g id="a_node47"><a xlink:href="classtlz_1_1viewer.html#aabb3cdde75783ed1a41801fb236bc50e" target="_top" xlink:title="tlz::viewer::show">
<polygon fill="white" stroke="black" points="96.5,-0.5 96.5,-19.5 187.5,-19.5 187.5,-0.5 96.5,-0.5"/>
<text text-anchor="middle" x="142" y="-7.5" font-family="Helvetica,sans-Serif" font-size="10.00">tlz::viewer::show</text>
</a>
</g>
</g>
<!-- Node1&#45;&gt;Node47 -->
<g id="edge61" class="edge"><title>Node1&#45;&gt;Node47</title>
<path fill="none" stroke="midnightblue" d="M19.8277,-448.407C18.9957,-391.146 17.4949,-94.7606 74,-29 77.6443,-24.7587 82.1587,-21.4298 87.1098,-18.822"/>
<polygon fill="midnightblue" stroke="midnightblue" points="88.5709,-22.004 96.3999,-14.8654 85.8281,-15.5637 88.5709,-22.004"/>
</g>
<!-- Node4 -->
<g id="node4" class="node"><title>Node4</title>
<g id="a_node4"><a xlink:href="namespacetlz.html#a780431daab8d2595372eacb43143b52d" target="_top" xlink:title="tlz::args">
<polygon fill="white" stroke="black" points="697.5,-850.5 697.5,-869.5 749.5,-869.5 749.5,-850.5 697.5,-850.5"/>
<text text-anchor="middle" x="723.5" y="-857.5" font-family="Helvetica,sans-Serif" font-size="10.00">tlz::args</text>
</a>
</g>
</g>
<!-- Node3&#45;&gt;Node4 -->
<g id="edge3" class="edge"><title>Node3&#45;&gt;Node4</title>
<path fill="none" stroke="midnightblue" d="M618.088,-964.498C622.764,-961.915 627.334,-958.765 631,-955 657.075,-928.222 639.127,-903.9 667,-879 672.862,-873.763 680.234,-869.957 687.672,-867.195"/>
<polygon fill="midnightblue" stroke="midnightblue" points="688.887,-870.482 697.368,-864.133 686.778,-863.807 688.887,-870.482"/>
</g>
<!-- Node5 -->
<g id="node5" class="node"><title>Node5</title>
<g id="a_node5"><a xlink:href="classtlz_1_1args__list.html#a73d99bc75998dc14607a3a372d28dc6d" target="_top" xlink:title="tlz::args_list::next_arg">
<polygon fill="white" stroke="black" points="667,-888.5 667,-907.5 780,-907.5 780,-888.5 667,-888.5"/>
<text text-anchor="middle" x="723.5" y="-895.5" font-family="Helvetica,sans-Serif" font-size="10.00">tlz::args_list::next_arg</text>
</a>
</g>
</g>
<!-- Node3&#45;&gt;Node5 -->
<g id="edge4" class="edge"><title>Node3&#45;&gt;Node5</title>
<path fill="none" stroke="midnightblue" d="M613.135,-964.461C618.943,-961.53 625.277,-958.224 631,-955 654.714,-941.64 681.014,-925.065 699.308,-913.238"/>
<polygon fill="midnightblue" stroke="midnightblue" points="701.368,-916.074 707.844,-907.689 697.553,-910.205 701.368,-916.074"/>
</g>
<!-- Node6 -->
<g id="node6" class="node"><title>Node6</title>
<g id="a_node6"><a xlink:href="classtlz_1_1args__list.html#a38ad21acd64a4af98ffdf4a47837cdbe" target="_top" xlink:title="tlz::args_list::usage_fail">
<polygon fill="white" stroke="black" points="816,-907.5 816,-926.5 936,-926.5 936,-907.5 816,-907.5"/>
<text text-anchor="middle" x="876" y="-914.5" font-family="Helvetica,sans-Serif" font-size="10.00">tlz::args_list::usage_fail</text>
</a>
</g>
</g>
<!-- Node3&#45;&gt;Node6 -->
<g id="edge7" class="edge"><title>Node3&#45;&gt;Node6</title>
<path fill="none" stroke="midnightblue" d="M623.67,-969.35C660.658,-963.492 725.184,-952.758 780,-941 796.237,-937.517 813.904,-933.201 829.55,-929.193"/>
<polygon fill="midnightblue" stroke="midnightblue" points="830.701,-932.511 839.504,-926.616 828.946,-925.734 830.701,-932.511"/>
</g>
<!-- Node5&#45;&gt;Node6 -->
<g id="edge5" class="edge"><title>Node5&#45;&gt;Node6</title>
<path fill="none" stroke="midnightblue" d="M780.113,-905.021C788.479,-906.077 797.192,-907.177 805.8,-908.264"/>
<polygon fill="midnightblue" stroke="midnightblue" points="805.468,-911.75 815.828,-909.53 806.345,-904.805 805.468,-911.75"/>
</g>
<!-- Node5&#45;&gt;Node7 -->
<g id="edge6" class="edge"><title>Node5&#45;&gt;Node7</title>
<path fill="none" stroke="midnightblue" d="M760.241,-888.459C767.06,-885.902 773.951,-882.772 780,-879 813.769,-857.94 844.725,-822.752 861.617,-801.624"/>
<polygon fill="midnightblue" stroke="midnightblue" points="864.558,-803.545 867.963,-793.512 859.045,-799.232 864.558,-803.545"/>
</g>
<!-- Node8&#45;&gt;Node4 -->
<g id="edge9" class="edge"><title>Node8&#45;&gt;Node4</title>
<path fill="none" stroke="midnightblue" d="M615.665,-926.356C620.902,-923.654 626.319,-920.49 631,-917 649.651,-903.094 647.428,-891.576 667,-879 673.303,-874.95 680.566,-871.659 687.718,-869.025"/>
<polygon fill="midnightblue" stroke="midnightblue" points="688.92,-872.313 697.299,-865.83 686.706,-865.673 688.92,-872.313"/>
</g>
<!-- Node8&#45;&gt;Node5 -->
<g id="edge10" class="edge"><title>Node8&#45;&gt;Node5</title>
<path fill="none" stroke="midnightblue" d="M626.052,-926.411C642.399,-921.596 662.409,-915.701 679.957,-910.532"/>
<polygon fill="midnightblue" stroke="midnightblue" points="681.355,-913.769 689.958,-907.586 679.377,-907.054 681.355,-913.769"/>
</g>
<!-- Node8&#45;&gt;Node6 -->
<g id="edge11" class="edge"><title>Node8&#45;&gt;Node6</title>
<path fill="none" stroke="midnightblue" d="M626.619,-933.765C670.424,-930.808 748.73,-925.523 805.736,-921.675"/>
<polygon fill="midnightblue" stroke="midnightblue" points="806.02,-925.164 815.761,-920.998 805.548,-918.18 806.02,-925.164"/>
</g>
<!-- Node10 -->
<g id="node10" class="node"><title>Node10</title>
<g id="a_node10"><a xlink:href="namespacetlz.html#a8cba4853d0d796a01c72f59f36f2a492" target="_top" xlink:title="tlz::decode_intrinsics">
<polygon fill="white" stroke="black" points="259,-774.5 259,-793.5 368,-793.5 368,-774.5 259,-774.5"/>
<text text-anchor="middle" x="313.5" y="-781.5" font-family="Helvetica,sans-Serif" font-size="10.00">tlz::decode_intrinsics</text>
</a>
</g>
</g>
<!-- Node9&#45;&gt;Node10 -->
<g id="edge13" class="edge"><title>Node9&#45;&gt;Node10</title>
<path fill="none" stroke="midnightblue" d="M187.534,-784C206.246,-784 228.363,-784 248.749,-784"/>
<polygon fill="midnightblue" stroke="midnightblue" points="248.909,-787.5 258.909,-784 248.909,-780.5 248.909,-787.5"/>
</g>
<!-- Node14 -->
<g id="node14" class="node"><title>Node14</title>
<g id="a_node14"><a xlink:href="namespacetlz.html#a35f9e03fa4fd9cec699f5fa27962400f" target="_top" xlink:title="tlz::json_arg">
<polygon fill="white" stroke="black" points="278.5,-850.5 278.5,-869.5 348.5,-869.5 348.5,-850.5 278.5,-850.5"/>
<text text-anchor="middle" x="313.5" y="-857.5" font-family="Helvetica,sans-Serif" font-size="10.00">tlz::json_arg</text>
</a>
</g>
</g>
<!-- Node9&#45;&gt;Node14 -->
<g id="edge18" class="edge"><title>Node9&#45;&gt;Node14</title>
<path fill="none" stroke="midnightblue" d="M164.467,-793.625C194.142,-806.931 247.866,-831.02 281.784,-846.228"/>
<polygon fill="midnightblue" stroke="midnightblue" points="280.65,-849.555 291.207,-850.453 283.514,-843.168 280.65,-849.555"/>
</g>
<!-- Node11 -->
<g id="node11" class="node"><title>Node11</title>
<g id="a_node11"><a xlink:href="namespacetlz.html#a066563a26e2de02f215b179f3d3a53da" target="_top" xlink:title="tlz::decode_mat">
<polygon fill="white" stroke="black" points="424.5,-812.5 424.5,-831.5 510.5,-831.5 510.5,-812.5 424.5,-812.5"/>
<text text-anchor="middle" x="467.5" y="-819.5" font-family="Helvetica,sans-Serif" font-size="10.00">tlz::decode_mat</text>
</a>
</g>
</g>
<!-- Node10&#45;&gt;Node11 -->
<g id="edge14" class="edge"><title>Node10&#45;&gt;Node11</title>
<path fill="none" stroke="midnightblue" d="M352.856,-793.589C372.824,-798.581 397.43,-804.732 418.633,-810.033"/>
<polygon fill="midnightblue" stroke="midnightblue" points="417.869,-813.45 428.42,-812.48 419.567,-806.659 417.869,-813.45"/>
</g>
<!-- Node12 -->
<g id="node12" class="node"><title>Node12</title>
<g id="a_node12"><a xlink:href="namespacetlz.html#a252af14b9b4ac6502d3e9c5dd8dc90b8" target="_top" xlink:title="tlz::has">
<polygon fill="white" stroke="black" points="568,-736.5 568,-755.5 617,-755.5 617,-736.5 568,-736.5"/>
<text text-anchor="middle" x="592.5" y="-743.5" font-family="Helvetica,sans-Serif" font-size="10.00">tlz::has</text>
</a>
</g>
</g>
<!-- Node10&#45;&gt;Node12 -->
<g id="edge15" class="edge"><title>Node10&#45;&gt;Node12</title>
<path fill="none" stroke="midnightblue" d="M368.369,-781.323C409.57,-778.709 467.667,-773.797 518,-765 531.186,-762.695 545.478,-759.229 557.923,-755.885"/>
<polygon fill="midnightblue" stroke="midnightblue" points="559.171,-759.171 567.877,-753.134 557.306,-752.424 559.171,-759.171"/>
</g>
<!-- Node13 -->
<g id="node13" class="node"><title>Node13</title>
<g id="a_node13"><a xlink:href="namespacetlz.html#add846dc50c32dfb356cb1a7ac11d37ac" target="_top" xlink:title="tlz::get_or">
<polygon fill="white" stroke="black" points="437.5,-736.5 437.5,-755.5 497.5,-755.5 497.5,-736.5 437.5,-736.5"/>
<text text-anchor="middle" x="467.5" y="-743.5" font-family="Helvetica,sans-Serif" font-size="10.00">tlz::get_or</text>
</a>
</g>
</g>
<!-- Node10&#45;&gt;Node13 -->
<g id="edge16" class="edge"><title>Node10&#45;&gt;Node13</title>
<path fill="none" stroke="midnightblue" d="M352.856,-774.411C375.686,-768.704 404.578,-761.48 427.518,-755.746"/>
<polygon fill="midnightblue" stroke="midnightblue" points="428.419,-759.128 437.272,-753.307 426.721,-752.337 428.419,-759.128"/>
</g>
<!-- Node13&#45;&gt;Node12 -->
<g id="edge17" class="edge"><title>Node13&#45;&gt;Node12</title>
<path fill="none" stroke="midnightblue" d="M497.649,-746C515.667,-746 538.865,-746 557.689,-746"/>
<polygon fill="midnightblue" stroke="midnightblue" points="557.914,-749.5 567.914,-746 557.914,-742.5 557.914,-749.5"/>
</g>
<!-- Node15 -->
<g id="node15" class="node"><title>Node15</title>
<g id="a_node15"><a xlink:href="namespacetlz.html#aa1be9362f548fcf9378e1fc9074089c4" target="_top" xlink:title="tlz::import_json_file">
<polygon fill="white" stroke="black" points="417,-850.5 417,-869.5 518,-869.5 518,-850.5 417,-850.5"/>
<text text-anchor="middle" x="467.5" y="-857.5" font-family="Helvetica,sans-Serif" font-size="10.00">tlz::import_json_file</text>
</a>
</g>
</g>
<!-- Node14&#45;&gt;Node15 -->
<g id="edge19" class="edge"><title>Node14&#45;&gt;Node15</title>
<path fill="none" stroke="midnightblue" d="M348.612,-860C365.755,-860 387.034,-860 406.775,-860"/>
<polygon fill="midnightblue" stroke="midnightblue" points="406.928,-863.5 416.928,-860 406.928,-856.5 406.928,-863.5"/>
</g>
<!-- Node16 -->
<g id="node16" class="node"><title>Node16</title>
<g id="a_node16"><a xlink:href="namespacetlz.html#a634de7ca11e100e4a118dffe80376a75" target="_top" xlink:title="tlz::in_filename_arg">
<polygon fill="white" stroke="black" points="417,-888.5 417,-907.5 518,-907.5 518,-888.5 417,-888.5"/>
<text text-anchor="middle" x="467.5" y="-895.5" font-family="Helvetica,sans-Serif" font-size="10.00">tlz::in_filename_arg</text>
</a>
</g>
</g>
<!-- Node14&#45;&gt;Node16 -->
<g id="edge20" class="edge"><title>Node14&#45;&gt;Node16</title>
<path fill="none" stroke="midnightblue" d="M348.612,-868.528C369.274,-873.694 395.944,-880.361 418.689,-886.047"/>
<polygon fill="midnightblue" stroke="midnightblue" points="417.947,-889.469 428.497,-888.499 419.645,-882.678 417.947,-889.469"/>
</g>
<!-- Node16&#45;&gt;Node4 -->
<g id="edge25" class="edge"><title>Node16&#45;&gt;Node4</title>
<path fill="none" stroke="midnightblue" d="M507.488,-888.419C522.021,-885.09 538.702,-881.555 554,-879 599.787,-871.353 653.099,-865.918 687.293,-862.871"/>
<polygon fill="midnightblue" stroke="midnightblue" points="687.604,-866.357 697.262,-862.002 686.996,-859.384 687.604,-866.357"/>
</g>
<!-- Node16&#45;&gt;Node6 -->
<g id="edge26" class="edge"><title>Node16&#45;&gt;Node6</title>
<path fill="none" stroke="midnightblue" d="M493.736,-888.472C501.533,-885.485 510.137,-882.146 518,-879 534.093,-872.56 537.43,-869.086 554,-864 650.519,-834.376 684.728,-807.58 780,-841 813.161,-852.632 843.345,-881.246 860.415,-899.855"/>
<polygon fill="midnightblue" stroke="midnightblue" points="857.839,-902.225 867.099,-907.372 863.07,-897.573 857.839,-902.225"/>
</g>
<!-- Node17 -->
<g id="node17" class="node"><title>Node17</title>
<g id="a_node17"><a xlink:href="namespacetlz.html#a0621d598fb83b13bf028f3e6293d04f8" target="_top" xlink:title="tlz::string_arg">
<polygon fill="white" stroke="black" points="554.5,-888.5 554.5,-907.5 630.5,-907.5 630.5,-888.5 554.5,-888.5"/>
<text text-anchor="middle" x="592.5" y="-895.5" font-family="Helvetica,sans-Serif" font-size="10.00">tlz::string_arg</text>
</a>
</g>
</g>
<!-- Node16&#45;&gt;Node17 -->
<g id="edge21" class="edge"><title>Node16&#45;&gt;Node17</title>
<path fill="none" stroke="midnightblue" d="M518.174,-898C526.706,-898 535.554,-898 544.027,-898"/>
<polygon fill="midnightblue" stroke="midnightblue" points="544.129,-901.5 554.129,-898 544.129,-894.5 544.129,-901.5"/>
</g>
<!-- Node18 -->
<g id="node18" class="node"><title>Node18</title>
<g id="a_node18"><a xlink:href="namespacetlz.html#abb019466ea9f56c0dab27e893d891837" target="_top" xlink:title="tlz::file_exists">
<polygon fill="white" stroke="black" points="554,-774.5 554,-793.5 631,-793.5 631,-774.5 554,-774.5"/>
<text text-anchor="middle" x="592.5" y="-781.5" font-family="Helvetica,sans-Serif" font-size="10.00">tlz::file_exists</text>
</a>
</g>
</g>
<!-- Node16&#45;&gt;Node18 -->
<g id="edge24" class="edge"><title>Node16&#45;&gt;Node18</title>
<path fill="none" stroke="midnightblue" d="M503.396,-888.39C508.674,-885.909 513.762,-882.823 518,-879 544.269,-855.3 530.265,-834.237 554,-808 556.859,-804.84 560.225,-801.928 563.748,-799.304"/>
<polygon fill="midnightblue" stroke="midnightblue" points="565.723,-802.193 572.086,-793.722 561.829,-796.377 565.723,-802.193"/>
</g>
<!-- Node17&#45;&gt;Node4 -->
<g id="edge22" class="edge"><title>Node17&#45;&gt;Node4</title>
<path fill="none" stroke="midnightblue" d="M626.052,-888.411C644.78,-882.894 668.314,-875.962 687.447,-870.326"/>
<polygon fill="midnightblue" stroke="midnightblue" points="688.679,-873.611 697.283,-867.428 686.701,-866.897 688.679,-873.611"/>
</g>
<!-- Node17&#45;&gt;Node5 -->
<g id="edge23" class="edge"><title>Node17&#45;&gt;Node5</title>
<path fill="none" stroke="midnightblue" d="M630.812,-898C638.835,-898 647.544,-898 656.295,-898"/>
<polygon fill="midnightblue" stroke="midnightblue" points="656.549,-901.5 666.549,-898 656.549,-894.5 656.549,-901.5"/>
</g>
<!-- Node22 -->
<g id="node22" class="node"><title>Node22</title>
<g id="a_node22"><a xlink:href="classtlz_1_1viewer.html#af74a8aef9dde68eeff6b1e2561b39014" target="_top" xlink:title="tlz::viewer::height">
<polygon fill="white" stroke="black" points="266.5,-612.5 266.5,-631.5 360.5,-631.5 360.5,-612.5 266.5,-612.5"/>
<text text-anchor="middle" x="313.5" y="-619.5" font-family="Helvetica,sans-Serif" font-size="10.00">tlz::viewer::height</text>
</a>
</g>
</g>
<!-- Node21&#45;&gt;Node22 -->
<g id="edge30" class="edge"><title>Node21&#45;&gt;Node22</title>
<path fill="none" stroke="midnightblue" d="M186.65,-613.833C207.831,-615.207 233.53,-616.875 256.169,-618.344"/>
<polygon fill="midnightblue" stroke="midnightblue" points="256.123,-621.849 266.329,-619.004 256.576,-614.863 256.123,-621.849"/>
</g>
<!-- Node23 -->
<g id="node23" class="node"><title>Node23</title>
<g id="a_node23"><a xlink:href="classtlz_1_1viewer.html#acc43bf1dd1d0c3cdc35a948d4c194769" target="_top" xlink:title="tlz::viewer::width">
<polygon fill="white" stroke="black" points="268,-574.5 268,-593.5 359,-593.5 359,-574.5 268,-574.5"/>
<text text-anchor="middle" x="313.5" y="-581.5" font-family="Helvetica,sans-Serif" font-size="10.00">tlz::viewer::width</text>
</a>
</g>
</g>
<!-- Node21&#45;&gt;Node23 -->
<g id="edge31" class="edge"><title>Node21&#45;&gt;Node23</title>
<path fill="none" stroke="midnightblue" d="M186.65,-604.047C208.353,-600.59 234.801,-596.377 257.839,-592.707"/>
<polygon fill="midnightblue" stroke="midnightblue" points="258.492,-596.147 267.817,-591.118 257.391,-589.234 258.492,-596.147"/>
</g>
<!-- Node27 -->
<g id="node27" class="node"><title>Node27</title>
<g id="a_node27"><a xlink:href="structtlz_1_1checkerboard.html#a44b150a25091e74cfaec42635d392369" target="_top" xlink:title="tlz::checkerboard::\lcheckerboard">
<polygon fill="white" stroke="black" points="264.5,-525 264.5,-555 362.5,-555 362.5,-525 264.5,-525"/>
<text text-anchor="start" x="272.5" y="-543" font-family="Helvetica,sans-Serif" font-size="10.00">tlz::checkerboard::</text>
<text text-anchor="middle" x="313.5" y="-532" font-family="Helvetica,sans-Serif" font-size="10.00">checkerboard</text>
</a>
</g>
</g>
<!-- Node26&#45;&gt;Node27 -->
<g id="edge35" class="edge"><title>Node26&#45;&gt;Node27</title>
<path fill="none" stroke="midnightblue" d="M191.261,-445.636C197.959,-448.294 204.439,-451.682 210,-456 234.563,-475.073 221.983,-496.244 246,-516 248.87,-518.361 251.992,-520.5 255.266,-522.435"/>
<polygon fill="midnightblue" stroke="midnightblue" points="253.731,-525.582 264.217,-527.097 256.964,-519.373 253.731,-525.582"/>
</g>
<!-- Node28 -->
<g id="node28" class="node"><title>Node28</title>
<g id="a_node28"><a xlink:href="structtlz_1_1checkerboard.html#aa0961b41552bc73fc4f75d2dca128637" target="_top" xlink:title="tlz::checkerboard::\lcorner">
<polygon fill="white" stroke="black" points="264.5,-476 264.5,-506 362.5,-506 362.5,-476 264.5,-476"/>
<text text-anchor="start" x="272.5" y="-494" font-family="Helvetica,sans-Serif" font-size="10.00">tlz::checkerboard::</text>
<text text-anchor="middle" x="313.5" y="-483" font-family="Helvetica,sans-Serif" font-size="10.00">corner</text>
</a>
</g>
</g>
<!-- Node26&#45;&gt;Node28 -->
<g id="edge36" class="edge"><title>Node26&#45;&gt;Node28</title>
<path fill="none" stroke="midnightblue" d="M175.793,-445.511C186.704,-448.75 198.9,-452.45 210,-456 226.315,-461.218 243.998,-467.155 260.009,-472.637"/>
<polygon fill="midnightblue" stroke="midnightblue" points="259.14,-476.04 269.734,-475.982 261.416,-469.42 259.14,-476.04"/>
</g>
<!-- Node30 -->
<g id="node30" class="node"><title>Node30</title>
<g id="a_node30"><a xlink:href="structtlz_1_1checkerboard.html#a2684fe6c45bc112b0a5c3d6e833ba22e" target="_top" xlink:title="tlz::checkerboard::\louter_corners_i">
<polygon fill="white" stroke="black" points="418.5,-383 418.5,-413 516.5,-413 516.5,-383 418.5,-383"/>
<text text-anchor="start" x="426.5" y="-401" font-family="Helvetica,sans-Serif" font-size="10.00">tlz::checkerboard::</text>
<text text-anchor="middle" x="467.5" y="-390" font-family="Helvetica,sans-Serif" font-size="10.00">outer_corners_i</text>
</a>
</g>
</g>
<!-- Node29&#45;&gt;Node30 -->
<g id="edge38" class="edge"><title>Node29&#45;&gt;Node30</title>
<path fill="none" stroke="midnightblue" d="M366.385,-426.981C379.949,-423.054 394.656,-418.797 408.516,-414.785"/>
<polygon fill="midnightblue" stroke="midnightblue" points="409.797,-418.058 418.429,-411.915 407.85,-411.334 409.797,-418.058"/>
</g>
<!-- Node32 -->
<g id="node32" class="node"><title>Node32</title>
<g id="a_node32"><a xlink:href="namespacetlz.html#acc37da60bde41595da4139110c2d36e6" target="_top" xlink:title="tlz::checkerboard_world\l_corners">
<polygon fill="white" stroke="black" points="253.5,-290 253.5,-320 373.5,-320 373.5,-290 253.5,-290"/>
<text text-anchor="start" x="261.5" y="-308" font-family="Helvetica,sans-Serif" font-size="10.00">tlz::checkerboard_world</text>
<text text-anchor="middle" x="313.5" y="-297" font-family="Helvetica,sans-Serif" font-size="10.00">_corners</text>
</a>
</g>
</g>
<!-- Node31&#45;&gt;Node32 -->
<g id="edge40" class="edge"><title>Node31&#45;&gt;Node32</title>
<path fill="none" stroke="midnightblue" d="M209.018,-311.716C220.192,-310.99 231.823,-310.236 243.08,-309.505"/>
<polygon fill="midnightblue" stroke="midnightblue" points="243.537,-312.983 253.29,-308.843 243.084,-305.998 243.537,-312.983"/>
</g>
<!-- Node33 -->
<g id="node33" class="node"><title>Node33</title>
<g id="a_node33"><a xlink:href="namespacetlz.html#a6693dca816d6f48429d1c607ced26f3b" target="_top" xlink:title="tlz::checkerboard_image\l_corners">
<polygon fill="white" stroke="black" points="252,-241 252,-271 375,-271 375,-241 252,-241"/>
<text text-anchor="start" x="260" y="-259" font-family="Helvetica,sans-Serif" font-size="10.00">tlz::checkerboard_image</text>
<text text-anchor="middle" x="313.5" y="-248" font-family="Helvetica,sans-Serif" font-size="10.00">_corners</text>
</a>
</g>
</g>
<!-- Node31&#45;&gt;Node33 -->
<g id="edge41" class="edge"><title>Node31&#45;&gt;Node33</title>
<path fill="none" stroke="midnightblue" d="M185.772,-300.859C208.442,-292.835 236.472,-282.912 260.403,-274.442"/>
<polygon fill="midnightblue" stroke="midnightblue" points="261.777,-277.668 270.036,-271.032 259.441,-271.069 261.777,-277.668"/>
</g>
<!-- Node34 -->
<g id="node34" class="node"><title>Node34</title>
<g id="a_node34"><a xlink:href="structtlz_1_1checkerboard.html#aefd2234a4be7f364920076cdd8a977f1" target="_top" xlink:title="tlz::checkerboard::\lcorners_count">
<polygon fill="white" stroke="black" points="264.5,-339 264.5,-369 362.5,-369 362.5,-339 264.5,-339"/>
<text text-anchor="start" x="272.5" y="-357" font-family="Helvetica,sans-Serif" font-size="10.00">tlz::checkerboard::</text>
<text text-anchor="middle" x="313.5" y="-346" font-family="Helvetica,sans-Serif" font-size="10.00">corners_count</text>
</a>
</g>
</g>
<!-- Node31&#45;&gt;Node34 -->
<g id="edge42" class="edge"><title>Node31&#45;&gt;Node34</title>
<path fill="none" stroke="midnightblue" d="M209.018,-330.801C223.973,-334.153 239.746,-337.689 254.347,-340.963"/>
<polygon fill="midnightblue" stroke="midnightblue" points="253.72,-344.409 264.243,-343.181 255.251,-337.579 253.72,-344.409"/>
</g>
<!-- Node35 -->
<g id="node35" class="node"><title>Node35</title>
<g id="a_node35"><a xlink:href="structtlz_1_1distortion__parameters.html#a96312c5d7baa4b7b1f2a76e9396037f8" target="_top" xlink:title="tlz::distortion_parameters\l::cv_coeffs">
<polygon fill="white" stroke="black" points="250,-192 250,-222 377,-222 377,-192 250,-192"/>
<text text-anchor="start" x="258" y="-210" font-family="Helvetica,sans-Serif" font-size="10.00">tlz::distortion_parameters</text>
<text text-anchor="middle" x="313.5" y="-199" font-family="Helvetica,sans-Serif" font-size="10.00">::cv_coeffs</text>
</a>
</g>
</g>
<!-- Node31&#45;&gt;Node35 -->
<g id="edge44" class="edge"><title>Node31&#45;&gt;Node35</title>
<path fill="none" stroke="midnightblue" d="M196.096,-300.978C201.06,-298.421 205.797,-295.449 210,-292 234.04,-272.273 222.114,-251.915 246,-232 248.031,-230.307 250.188,-228.722 252.436,-227.239"/>
<polygon fill="midnightblue" stroke="midnightblue" points="254.574,-230.046 261.481,-222.012 251.072,-223.985 254.574,-230.046"/>
</g>
<!-- Node34&#45;&gt;Node30 -->
<g id="edge43" class="edge"><title>Node34&#45;&gt;Node30</title>
<path fill="none" stroke="midnightblue" d="M362.594,-367.922C377.22,-372.156 393.447,-376.853 408.646,-381.253"/>
<polygon fill="midnightblue" stroke="midnightblue" points="407.88,-384.675 418.458,-384.093 409.826,-377.951 407.88,-384.675"/>
</g>
<!-- Node36&#45;&gt;Node35 -->
<g id="edge46" class="edge"><title>Node36&#45;&gt;Node35</title>
<path fill="none" stroke="midnightblue" d="M185.772,-251.859C208.442,-243.835 236.472,-233.912 260.403,-225.442"/>
<polygon fill="midnightblue" stroke="midnightblue" points="261.777,-228.668 270.036,-222.032 259.441,-222.069 261.777,-228.668"/>
</g>
<!-- Node38 -->
<g id="node38" class="node"><title>Node38</title>
<g id="a_node38"><a xlink:href="namespacetlz.html#a643b2d03bd805fe78dcd684ef45e52fb" target="_top" xlink:title="Clamp value between minimum and maximum value. ">
<polygon fill="white" stroke="black" points="284,-153.5 284,-172.5 343,-172.5 343,-153.5 284,-153.5"/>
<text text-anchor="middle" x="313.5" y="-160.5" font-family="Helvetica,sans-Serif" font-size="10.00">tlz::clamp</text>
</a>
</g>
</g>
<!-- Node37&#45;&gt;Node38 -->
<g id="edge48" class="edge"><title>Node37&#45;&gt;Node38</title>
<path fill="none" stroke="midnightblue" d="M164.29,-218.416C177.697,-215.177 195.203,-210.295 210,-204 227.045,-196.749 229.013,-190.385 246,-183 254.85,-179.152 264.668,-175.755 273.982,-172.904"/>
<polygon fill="midnightblue" stroke="midnightblue" points="275.206,-176.192 283.822,-170.027 273.242,-169.474 275.206,-176.192"/>
</g>
<!-- Node39 -->
<g id="node39" class="node"><title>Node39</title>
<g id="a_node39"><a xlink:href="namespacetlz.html#a4fe5757a830e199f84d229eee11f616e" target="_top" xlink:title="Compute greatest common divisor of a and b. ">
<polygon fill="white" stroke="black" points="289,-115.5 289,-134.5 338,-134.5 338,-115.5 289,-115.5"/>
<text text-anchor="middle" x="313.5" y="-122.5" font-family="Helvetica,sans-Serif" font-size="10.00">tlz::gcd</text>
</a>
</g>
</g>
<!-- Node37&#45;&gt;Node39 -->
<g id="edge49" class="edge"><title>Node37&#45;&gt;Node39</title>
<path fill="none" stroke="midnightblue" d="M164.138,-221.075C178.317,-218.871 196.751,-214.142 210,-204 234.694,-185.097 221.325,-162.928 246,-144 255.409,-136.782 267.457,-132.306 278.706,-129.53"/>
<polygon fill="midnightblue" stroke="midnightblue" points="279.646,-132.909 288.714,-127.428 278.208,-126.058 279.646,-132.909"/>
</g>
<!-- Node40 -->
<g id="node40" class="node"><title>Node40</title>
<g id="a_node40"><a xlink:href="namespacetlz.html#aec6e2158ce198aa20a8493fde3d3b552" target="_top" xlink:title="Compute least common multiple of a and b. ">
<polygon fill="white" stroke="black" points="289,-77.5 289,-96.5 338,-96.5 338,-77.5 289,-77.5"/>
<text text-anchor="middle" x="313.5" y="-84.5" font-family="Helvetica,sans-Serif" font-size="10.00">tlz::lcm</text>
</a>
</g>
</g>
<!-- Node37&#45;&gt;Node40 -->
<g id="edge50" class="edge"><title>Node37&#45;&gt;Node40</title>
<path fill="none" stroke="midnightblue" d="M164.157,-221.92C178.712,-220.111 197.586,-215.507 210,-204 244.029,-172.455 212.002,-137.579 246,-106 254.982,-97.6573 267.376,-92.947 279.032,-90.2987"/>
<polygon fill="midnightblue" stroke="midnightblue" points="279.783,-93.7194 288.982,-88.4627 278.513,-86.8356 279.783,-93.7194"/>
</g>
<!-- Node41&#45;&gt;Node22 -->
<g id="edge53" class="edge"><title>Node41&#45;&gt;Node22</title>
<path fill="none" stroke="midnightblue" d="M177.123,-582.533C187.676,-585.519 199.33,-588.857 210,-592 226.049,-596.727 229.956,-598.257 246,-603 253.366,-605.177 261.203,-607.453 268.815,-609.642"/>
<polygon fill="midnightblue" stroke="midnightblue" points="268.058,-613.065 278.635,-612.453 269.985,-606.336 268.058,-613.065"/>
</g>
<!-- Node41&#45;&gt;Node23 -->
<g id="edge52" class="edge"><title>Node41&#45;&gt;Node23</title>
<path fill="none" stroke="midnightblue" d="M186.65,-575.833C208.256,-577.235 234.564,-578.942 257.529,-580.433"/>
<polygon fill="midnightblue" stroke="midnightblue" points="257.611,-583.945 267.817,-581.1 258.065,-576.96 257.611,-583.945"/>
</g>
<!-- Node42&#45;&gt;Node30 -->
<g id="edge55" class="edge"><title>Node42&#45;&gt;Node30</title>
<path fill="none" stroke="midnightblue" d="M381.169,-398C390.113,-398 399.232,-398 408.02,-398"/>
<polygon fill="midnightblue" stroke="midnightblue" points="408.155,-401.5 418.155,-398 408.155,-394.5 408.155,-401.5"/>
</g>
</g>
</svg>
