<?xml version="1.0" encoding="UTF-8" standalone="no"?>
<!DOCTYPE svg PUBLIC "-//W3C//DTD SVG 1.1//EN"
 "http://www.w3.org/Graphics/SVG/1.1/DTD/svg11.dtd">
<!-- Generated by graphviz version 2.38.0 (20140413.2041)
 -->
<!-- Title: save_correspondences_set Pages: 1 -->
<svg width="461pt" height="194pt"
 viewBox="0.00 0.00 461.00 194.34" xmlns="http://www.w3.org/2000/svg" xmlns:xlink="http://www.w3.org/1999/xlink">
<g id="graph0" class="graph" transform="scale(1 1) rotate(0) translate(4 190.342)">
<title>save_correspondences_set</title>
<polygon fill="white" stroke="none" points="-4,4 -4,-190.342 457,-190.342 457,4 -4,4"/>
<!-- Node1 -->
<g id="node1" class="node"><title>Node1</title>
<polygon fill="#bfbfbf" stroke="black" points="0,-93.5 0,-112.5 136,-112.5 136,-93.5 0,-93.5"/>
<text text-anchor="middle" x="68" y="-100.5" font-family="Helvetica,sans-Serif" font-size="10.00">save_correspondences_set</text>
</g>
<!-- Node2 -->
<g id="node2" class="node"><title>Node2</title>
<g id="a_node2"><a xlink:href="namespacetlz.html#acc37da60bde41595da4139110c2d36e6" target="_top" xlink:title="tlz::checkerboard_world\l_corners">
<polygon fill="white" stroke="black" points="331.5,-137 331.5,-167 451.5,-167 451.5,-137 331.5,-137"/>
<text text-anchor="start" x="339.5" y="-155" font-family="Helvetica,sans-Serif" font-size="10.00">tlz::checkerboard_world</text>
<text text-anchor="middle" x="391.5" y="-144" font-family="Helvetica,sans-Serif" font-size="10.00">_corners</text>
</a>
</g>
</g>
<!-- Node1&#45;&gt;Node2 -->
<g id="edge1" class="edge"><title>Node1&#45;&gt;Node2</title>
<path fill="none" stroke="midnightblue" d="M78.0678,-112.663C94.7301,-129.626 132.178,-164.178 172,-177 227.075,-194.733 293.51,-182.712 338.558,-169.949"/>
<polygon fill="midnightblue" stroke="midnightblue" points="339.793,-173.234 348.397,-167.053 337.816,-166.519 339.793,-173.234"/>
</g>
<!-- Node3 -->
<g id="node3" class="node"><title>Node3</title>
<g id="a_node3"><a xlink:href="namespacetlz.html#ac4a9d8aef6e9eed327aedbb69975cfb9" target="_top" xlink:title="tlz::checkerboard_obj\l_img_correspondences">
<polygon fill="white" stroke="black" points="174.5,-88 174.5,-118 291.5,-118 291.5,-88 174.5,-88"/>
<text text-anchor="start" x="182.5" y="-106" font-family="Helvetica,sans-Serif" font-size="10.00">tlz::checkerboard_obj</text>
<text text-anchor="middle" x="233" y="-95" font-family="Helvetica,sans-Serif" font-size="10.00">_img_correspondences</text>
</a>
</g>
</g>
<!-- Node1&#45;&gt;Node3 -->
<g id="edge2" class="edge"><title>Node1&#45;&gt;Node3</title>
<path fill="none" stroke="midnightblue" d="M136.239,-103C145.415,-103 154.839,-103 164.027,-103"/>
<polygon fill="midnightblue" stroke="midnightblue" points="164.274,-106.5 174.274,-103 164.274,-99.5001 164.274,-106.5"/>
</g>
<!-- Node5 -->
<g id="node5" class="node"><title>Node5</title>
<g id="a_node5"><a xlink:href="namespacetlz.html#ad1dd4f34c6ed90450cf085bc95f0a393" target="_top" xlink:title="tlz::encode_obj_img\l_correspondences_set">
<polygon fill="white" stroke="black" points="175.5,-39 175.5,-69 290.5,-69 290.5,-39 175.5,-39"/>
<text text-anchor="start" x="183.5" y="-57" font-family="Helvetica,sans-Serif" font-size="10.00">tlz::encode_obj_img</text>
<text text-anchor="middle" x="233" y="-46" font-family="Helvetica,sans-Serif" font-size="10.00">_correspondences_set</text>
</a>
</g>
</g>
<!-- Node1&#45;&gt;Node5 -->
<g id="edge5" class="edge"><title>Node1&#45;&gt;Node5</title>
<path fill="none" stroke="midnightblue" d="M100.815,-93.436C121.091,-87.3408 148.001,-79.2512 172.17,-71.9857"/>
<polygon fill="midnightblue" stroke="midnightblue" points="173.41,-75.2677 181.979,-69.037 171.395,-68.5641 173.41,-75.2677"/>
</g>
<!-- Node6 -->
<g id="node6" class="node"><title>Node6</title>
<g id="a_node6"><a xlink:href="namespacetlz.html#a37c58db2fc50f660edd9245c26e1c097" target="_top" xlink:title="tlz::checkerboard_obj\l_2img_correspondences">
<polygon fill="white" stroke="black" points="172,-137 172,-167 294,-167 294,-137 172,-137"/>
<text text-anchor="start" x="180" y="-155" font-family="Helvetica,sans-Serif" font-size="10.00">tlz::checkerboard_obj</text>
<text text-anchor="middle" x="233" y="-144" font-family="Helvetica,sans-Serif" font-size="10.00">_2img_correspondences</text>
</a>
</g>
</g>
<!-- Node1&#45;&gt;Node6 -->
<g id="edge6" class="edge"><title>Node1&#45;&gt;Node6</title>
<path fill="none" stroke="midnightblue" d="M100.815,-112.564C121.091,-118.659 148.001,-126.749 172.17,-134.014"/>
<polygon fill="midnightblue" stroke="midnightblue" points="171.395,-137.436 181.979,-136.963 173.41,-130.732 171.395,-137.436"/>
</g>
<!-- Node7 -->
<g id="node7" class="node"><title>Node7</title>
<g id="a_node7"><a xlink:href="namespacetlz.html#ab98de0b10e3e079dee189f81adc638a0" target="_top" xlink:title="tlz::export_json_file">
<polygon fill="white" stroke="black" points="182.5,-0.5 182.5,-19.5 283.5,-19.5 283.5,-0.5 182.5,-0.5"/>
<text text-anchor="middle" x="233" y="-7.5" font-family="Helvetica,sans-Serif" font-size="10.00">tlz::export_json_file</text>
</a>
</g>
</g>
<!-- Node1&#45;&gt;Node7 -->
<g id="edge9" class="edge"><title>Node1&#45;&gt;Node7</title>
<path fill="none" stroke="midnightblue" d="M79.9711,-93.2949C98.0128,-77.7739 135.588,-47.2603 172,-29 176.349,-26.8188 181.001,-24.8216 185.719,-23.0102"/>
<polygon fill="midnightblue" stroke="midnightblue" points="187.173,-26.2077 195.418,-19.554 184.823,-19.6138 187.173,-26.2077"/>
</g>
<!-- Node3&#45;&gt;Node2 -->
<g id="edge3" class="edge"><title>Node3&#45;&gt;Node2</title>
<path fill="none" stroke="midnightblue" d="M282.232,-118.101C298.223,-123.108 316.186,-128.732 332.815,-133.939"/>
<polygon fill="midnightblue" stroke="midnightblue" points="331.838,-137.301 342.427,-136.948 333.93,-130.62 331.838,-137.301"/>
</g>
<!-- Node4 -->
<g id="node4" class="node"><title>Node4</title>
<g id="a_node4"><a xlink:href="namespacetlz.html#a6693dca816d6f48429d1c607ced26f3b" target="_top" xlink:title="tlz::checkerboard_image\l_corners">
<polygon fill="white" stroke="black" points="330,-88 330,-118 453,-118 453,-88 330,-88"/>
<text text-anchor="start" x="338" y="-106" font-family="Helvetica,sans-Serif" font-size="10.00">tlz::checkerboard_image</text>
<text text-anchor="middle" x="391.5" y="-95" font-family="Helvetica,sans-Serif" font-size="10.00">_corners</text>
</a>
</g>
</g>
<!-- Node3&#45;&gt;Node4 -->
<g id="edge4" class="edge"><title>Node3&#45;&gt;Node4</title>
<path fill="none" stroke="midnightblue" d="M291.83,-103C300.91,-103 310.385,-103 319.716,-103"/>
<polygon fill="midnightblue" stroke="midnightblue" points="319.76,-106.5 329.76,-103 319.76,-99.5001 319.76,-106.5"/>
</g>
<!-- Node6&#45;&gt;Node2 -->
<g id="edge7" class="edge"><title>Node6&#45;&gt;Node2</title>
<path fill="none" stroke="midnightblue" d="M294.059,-152C302.953,-152 312.178,-152 321.24,-152"/>
<polygon fill="midnightblue" stroke="midnightblue" points="321.376,-155.5 331.376,-152 321.376,-148.5 321.376,-155.5"/>
</g>
<!-- Node6&#45;&gt;Node4 -->
<g id="edge8" class="edge"><title>Node6&#45;&gt;Node4</title>
<path fill="none" stroke="midnightblue" d="M282.232,-136.899C298.223,-131.892 316.186,-126.268 332.815,-121.061"/>
<polygon fill="midnightblue" stroke="midnightblue" points="333.93,-124.38 342.427,-118.052 331.838,-117.699 333.93,-124.38"/>
</g>
<!-- Node8 -->
<g id="node8" class="node"><title>Node8</title>
<g id="a_node8"><a xlink:href="namespacetlz.html#ae11c827ac9e581f9d2f98c39aab3750d" target="_top" xlink:title="tlz::file_name_extension">
<polygon fill="white" stroke="black" points="330.5,-0.5 330.5,-19.5 452.5,-19.5 452.5,-0.5 330.5,-0.5"/>
<text text-anchor="middle" x="391.5" y="-7.5" font-family="Helvetica,sans-Serif" font-size="10.00">tlz::file_name_extension</text>
</a>
</g>
</g>
<!-- Node7&#45;&gt;Node8 -->
<g id="edge10" class="edge"><title>Node7&#45;&gt;Node8</title>
<path fill="none" stroke="midnightblue" d="M283.518,-10C295.131,-10 307.725,-10 320.058,-10"/>
<polygon fill="midnightblue" stroke="midnightblue" points="320.329,-13.5001 330.329,-10 320.329,-6.5001 320.329,-13.5001"/>
</g>
</g>
</svg>
