<?xml version="1.0" encoding="UTF-8" standalone="no"?>
<!DOCTYPE svg PUBLIC "-//W3C//DTD SVG 1.1//EN"
 "http://www.w3.org/Graphics/SVG/1.1/DTD/svg11.dtd">
<!-- Generated by graphviz version 2.38.0 (20140413.2041)
 -->
<!-- Title: main Pages: 1 -->
<svg width="947pt" height="537pt"
 viewBox="0.00 0.00 947.00 537.00" xmlns="http://www.w3.org/2000/svg" xmlns:xlink="http://www.w3.org/1999/xlink">
<g id="graph0" class="graph" transform="scale(1 1) rotate(0) translate(4 533)">
<title>main</title>
<polygon fill="white" stroke="none" points="-4,4 -4,-533 943,-533 943,4 -4,4"/>
<!-- Node1 -->
<g id="node1" class="node"><title>Node1</title>
<polygon fill="#bfbfbf" stroke="black" points="0,-262.5 0,-281.5 38,-281.5 38,-262.5 0,-262.5"/>
<text text-anchor="middle" x="19" y="-269.5" font-family="Helvetica,sans-Serif" font-size="10.00">main</text>
</g>
<!-- Node2 -->
<g id="node2" class="node"><title>Node2</title>
<g id="a_node2"><a xlink:href="namespacetlz.html#a3c03f5d9d6261ec2909938822fc47f8a" target="_top" xlink:title="tlz::get_args">
<polygon fill="white" stroke="black" points="112,-509.5 112,-528.5 183,-528.5 183,-509.5 112,-509.5"/>
<text text-anchor="middle" x="147.5" y="-516.5" font-family="Helvetica,sans-Serif" font-size="10.00">tlz::get_args</text>
</a>
</g>
</g>
<!-- Node1&#45;&gt;Node2 -->
<g id="edge1" class="edge"><title>Node1&#45;&gt;Node2</title>
<path fill="none" stroke="midnightblue" d="M21.0799,-281.55C25.6021,-319.956 44.179,-462.624 74,-495 81.4962,-503.138 91.8096,-508.521 102.307,-512.08"/>
<polygon fill="midnightblue" stroke="midnightblue" points="101.344,-515.445 111.923,-514.862 103.29,-508.721 101.344,-515.445"/>
</g>
<!-- Node3 -->
<g id="node3" class="node"><title>Node3</title>
<g id="a_node3"><a xlink:href="namespacetlz.html#a634de7ca11e100e4a118dffe80376a75" target="_top" xlink:title="tlz::in_filename_arg">
<polygon fill="white" stroke="black" points="420,-357.5 420,-376.5 521,-376.5 521,-357.5 420,-357.5"/>
<text text-anchor="middle" x="470.5" y="-364.5" font-family="Helvetica,sans-Serif" font-size="10.00">tlz::in_filename_arg</text>
</a>
</g>
</g>
<!-- Node1&#45;&gt;Node3 -->
<g id="edge2" class="edge"><title>Node1&#45;&gt;Node3</title>
<path fill="none" stroke="midnightblue" d="M38.1824,-281.314C48.5119,-286.377 61.7842,-292.504 74,-297 153.236,-326.165 173.939,-332.844 257,-348 307.998,-357.306 366.75,-362.115 409.533,-364.564"/>
<polygon fill="midnightblue" stroke="midnightblue" points="409.601,-368.072 419.777,-365.122 409.983,-361.083 409.601,-368.072"/>
</g>
<!-- Node10 -->
<g id="node10" class="node"><title>Node10</title>
<g id="a_node10"><a xlink:href="namespacetlz.html#af0d1e8ba5b9f2dbc2b589afab3a21fc8" target="_top" xlink:title="tlz::int_arg">
<polygon fill="white" stroke="black" points="564.5,-395.5 564.5,-414.5 626.5,-414.5 626.5,-395.5 564.5,-395.5"/>
<text text-anchor="middle" x="595.5" y="-402.5" font-family="Helvetica,sans-Serif" font-size="10.00">tlz::int_arg</text>
</a>
</g>
</g>
<!-- Node1&#45;&gt;Node10 -->
<g id="edge11" class="edge"><title>Node1&#45;&gt;Node10</title>
<path fill="none" stroke="midnightblue" d="M25.6199,-281.575C34.2066,-295.294 51.9425,-320.287 74,-333 232.678,-424.453 462.592,-416.747 554.421,-409.164"/>
<polygon fill="midnightblue" stroke="midnightblue" points="554.753,-412.648 564.411,-408.293 554.145,-405.675 554.753,-412.648"/>
</g>
<!-- Node11 -->
<g id="node11" class="node"><title>Node11</title>
<g id="a_node11"><a xlink:href="namespacetlz.html#a63246890b0c946b5f62a1d3e2bea6103" target="_top" xlink:title="tlz::real_arg">
<polygon fill="white" stroke="black" points="561.5,-471.5 561.5,-490.5 629.5,-490.5 629.5,-471.5 561.5,-471.5"/>
<text text-anchor="middle" x="595.5" y="-478.5" font-family="Helvetica,sans-Serif" font-size="10.00">tlz::real_arg</text>
</a>
</g>
</g>
<!-- Node1&#45;&gt;Node11 -->
<g id="edge15" class="edge"><title>Node1&#45;&gt;Node11</title>
<path fill="none" stroke="midnightblue" d="M21.2722,-281.791C26.1104,-317.371 44.5903,-438.93 74,-462 147.317,-519.513 439.949,-496.736 551.241,-485.671"/>
<polygon fill="midnightblue" stroke="midnightblue" points="551.834,-489.129 561.431,-484.64 551.13,-482.164 551.834,-489.129"/>
</g>
<!-- Node12 -->
<g id="node12" class="node"><title>Node12</title>
<g id="a_node12"><a xlink:href="namespacetlz.html#a170805c7a8ede64a93e0ee23196e5b7c" target="_top" xlink:title="tlz::intrinsics_arg">
<polygon fill="white" stroke="black" points="102,-243.5 102,-262.5 193,-262.5 193,-243.5 102,-243.5"/>
<text text-anchor="middle" x="147.5" y="-250.5" font-family="Helvetica,sans-Serif" font-size="10.00">tlz::intrinsics_arg</text>
</a>
</g>
</g>
<!-- Node1&#45;&gt;Node12 -->
<g id="edge19" class="edge"><title>Node1&#45;&gt;Node12</title>
<path fill="none" stroke="midnightblue" d="M38.1244,-269.278C52.2612,-267.154 72.6736,-264.089 91.9797,-261.189"/>
<polygon fill="midnightblue" stroke="midnightblue" points="92.5664,-264.64 101.936,-259.693 91.5266,-257.718 92.5664,-264.64"/>
</g>
<!-- Node18 -->
<g id="node18" class="node"><title>Node18</title>
<g id="a_node18"><a xlink:href="namespacetlz.html#aa1be9362f548fcf9378e1fc9074089c4" target="_top" xlink:title="tlz::import_json_file">
<polygon fill="white" stroke="black" points="420,-319.5 420,-338.5 521,-338.5 521,-319.5 420,-319.5"/>
<text text-anchor="middle" x="470.5" y="-326.5" font-family="Helvetica,sans-Serif" font-size="10.00">tlz::import_json_file</text>
</a>
</g>
</g>
<!-- Node1&#45;&gt;Node18 -->
<g id="edge30" class="edge"><title>Node1&#45;&gt;Node18</title>
<path fill="none" stroke="midnightblue" d="M38.2779,-273.164C91.7314,-276.726 252.303,-288.565 384,-310 396.077,-311.966 409.009,-314.573 421.066,-317.224"/>
<polygon fill="midnightblue" stroke="midnightblue" points="420.425,-320.667 430.95,-319.448 421.962,-313.838 420.425,-320.667"/>
</g>
<!-- Node19 -->
<g id="node19" class="node"><title>Node19</title>
<g id="a_node19"><a xlink:href="namespacetlz.html#a65770a2c1ff57c5ae6542d4465a3d3f4" target="_top" xlink:title="tlz::out_filename_arg">
<polygon fill="white" stroke="black" points="94,-433.5 94,-452.5 201,-452.5 201,-433.5 94,-433.5"/>
<text text-anchor="middle" x="147.5" y="-440.5" font-family="Helvetica,sans-Serif" font-size="10.00">tlz::out_filename_arg</text>
</a>
</g>
</g>
<!-- Node1&#45;&gt;Node19 -->
<g id="edge28" class="edge"><title>Node1&#45;&gt;Node19</title>
<path fill="none" stroke="midnightblue" d="M20.7336,-281.792C23.2147,-307.902 33.5654,-379.853 74,-419 78.2106,-423.077 83.1287,-426.461 88.3844,-429.27"/>
<polygon fill="midnightblue" stroke="midnightblue" points="86.9372,-432.457 97.4828,-433.477 89.8748,-426.103 86.9372,-432.457"/>
</g>
<!-- Node20 -->
<g id="node20" class="node"><title>Node20</title>
<g id="a_node20"><a xlink:href="namespacetlz.html#acc37da60bde41595da4139110c2d36e6" target="_top" xlink:title="tlz::checkerboard_world\l_corners">
<polygon fill="white" stroke="black" points="260.5,-194 260.5,-224 380.5,-224 380.5,-194 260.5,-194"/>
<text text-anchor="start" x="268.5" y="-212" font-family="Helvetica,sans-Serif" font-size="10.00">tlz::checkerboard_world</text>
<text text-anchor="middle" x="320.5" y="-201" font-family="Helvetica,sans-Serif" font-size="10.00">_corners</text>
</a>
</g>
</g>
<!-- Node1&#45;&gt;Node20 -->
<g id="edge31" class="edge"><title>Node1&#45;&gt;Node20</title>
<path fill="none" stroke="midnightblue" d="M30.2217,-262.343C40.439,-253.326 57.0317,-240.336 74,-234 130.792,-212.795 199.807,-207.394 250.182,-206.804"/>
<polygon fill="midnightblue" stroke="midnightblue" points="250.338,-210.303 260.318,-206.747 250.298,-203.303 250.338,-210.303"/>
</g>
<!-- Node21 -->
<g id="node21" class="node"><title>Node21</title>
<g id="a_node21"><a xlink:href="namespacetlz.html#ac176ab31932290f05fb3c647f8ecdd85" target="_top" xlink:title="tlz::estimate_checkerboard\l_extrinsics">
<polygon fill="white" stroke="black" points="80.5,-145 80.5,-175 214.5,-175 214.5,-145 80.5,-145"/>
<text text-anchor="start" x="88.5" y="-163" font-family="Helvetica,sans-Serif" font-size="10.00">tlz::estimate_checkerboard</text>
<text text-anchor="middle" x="147.5" y="-152" font-family="Helvetica,sans-Serif" font-size="10.00">_extrinsics</text>
</a>
</g>
</g>
<!-- Node1&#45;&gt;Node21 -->
<g id="edge32" class="edge"><title>Node1&#45;&gt;Node21</title>
<path fill="none" stroke="midnightblue" d="M25.1526,-262.267C33.6373,-246.978 51.8378,-217.11 74,-198 81.9927,-191.108 91.4495,-185.017 100.848,-179.842"/>
<polygon fill="midnightblue" stroke="midnightblue" points="102.553,-182.9 109.792,-175.164 99.3087,-176.697 102.553,-182.9"/>
</g>
<!-- Node25 -->
<g id="node25" class="node"><title>Node25</title>
<g id="a_node25"><a xlink:href="structtlz_1_1distortion__parameters.html#a96312c5d7baa4b7b1f2a76e9396037f8" target="_top" xlink:title="tlz::distortion_parameters\l::cv_coeffs">
<polygon fill="white" stroke="black" points="257,-8 257,-38 384,-38 384,-8 257,-8"/>
<text text-anchor="start" x="265" y="-26" font-family="Helvetica,sans-Serif" font-size="10.00">tlz::distortion_parameters</text>
<text text-anchor="middle" x="320.5" y="-15" font-family="Helvetica,sans-Serif" font-size="10.00">::cv_coeffs</text>
</a>
</g>
</g>
<!-- Node1&#45;&gt;Node25 -->
<g id="edge49" class="edge"><title>Node1&#45;&gt;Node25</title>
<path fill="none" stroke="midnightblue" d="M19.7056,-262.239C19.3393,-231.508 22.5683,-135.844 74,-86 77.2301,-82.8696 176.543,-58.0234 247.846,-40.4875"/>
<polygon fill="midnightblue" stroke="midnightblue" points="248.832,-43.8493 257.708,-38.0646 247.162,-37.0515 248.832,-43.8493"/>
</g>
<!-- Node26 -->
<g id="node26" class="node"><title>Node26</title>
<g id="a_node26"><a xlink:href="namespacetlz.html#a14afc7fea76a0b1ef43be4abfcdb97e4" target="_top" xlink:title="tlz::calculate_checkerboard\l_pixel_depths">
<polygon fill="white" stroke="black" points="79.5,-8 79.5,-38 215.5,-38 215.5,-8 79.5,-8"/>
<text text-anchor="start" x="87.5" y="-26" font-family="Helvetica,sans-Serif" font-size="10.00">tlz::calculate_checkerboard</text>
<text text-anchor="middle" x="147.5" y="-15" font-family="Helvetica,sans-Serif" font-size="10.00">_pixel_depths</text>
</a>
</g>
</g>
<!-- Node1&#45;&gt;Node26 -->
<g id="edge38" class="edge"><title>Node1&#45;&gt;Node26</title>
<path fill="none" stroke="midnightblue" d="M19.5044,-262.329C18.3248,-228.953 18.8581,-117.14 74,-53 77.029,-49.4767 80.5379,-46.3597 84.3451,-43.6033"/>
<polygon fill="midnightblue" stroke="midnightblue" points="86.4696,-46.4025 93.0856,-38.1273 82.7531,-40.4706 86.4696,-46.4025"/>
</g>
<!-- Node27 -->
<g id="node27" class="node"><title>Node27</title>
<g id="a_node27"><a xlink:href="namespacetlz.html#a5e1056b3850f12627a759922716bee56" target="_top" xlink:title="tlz::checkerboard_reprojection\l_error">
<polygon fill="white" stroke="black" points="74,-96 74,-126 221,-126 221,-96 74,-96"/>
<text text-anchor="start" x="82" y="-114" font-family="Helvetica,sans-Serif" font-size="10.00">tlz::checkerboard_reprojection</text>
<text text-anchor="middle" x="147.5" y="-103" font-family="Helvetica,sans-Serif" font-size="10.00">_error</text>
</a>
</g>
</g>
<!-- Node1&#45;&gt;Node27 -->
<g id="edge40" class="edge"><title>Node1&#45;&gt;Node27</title>
<path fill="none" stroke="midnightblue" d="M21.0418,-262.142C24.2007,-237.2 35.9217,-171.011 74,-135 75.2583,-133.81 76.577,-132.679 77.9465,-131.604"/>
<polygon fill="midnightblue" stroke="midnightblue" points="79.908,-134.503 86.2815,-126.039 76.0212,-128.681 79.908,-134.503"/>
</g>
<!-- Node4 -->
<g id="node4" class="node"><title>Node4</title>
<g id="a_node4"><a xlink:href="namespacetlz.html#a0621d598fb83b13bf028f3e6293d04f8" target="_top" xlink:title="tlz::string_arg">
<polygon fill="white" stroke="black" points="557.5,-433.5 557.5,-452.5 633.5,-452.5 633.5,-433.5 557.5,-433.5"/>
<text text-anchor="middle" x="595.5" y="-440.5" font-family="Helvetica,sans-Serif" font-size="10.00">tlz::string_arg</text>
</a>
</g>
</g>
<!-- Node3&#45;&gt;Node4 -->
<g id="edge3" class="edge"><title>Node3&#45;&gt;Node4</title>
<path fill="none" stroke="midnightblue" d="M484.805,-376.592C501.357,-388.353 530.656,-408.618 557,-424 559.687,-425.569 562.518,-427.142 565.372,-428.674"/>
<polygon fill="midnightblue" stroke="midnightblue" points="563.926,-431.867 574.413,-433.376 567.156,-425.657 563.926,-431.867"/>
</g>
<!-- Node5 -->
<g id="node5" class="node"><title>Node5</title>
<g id="a_node5"><a xlink:href="namespacetlz.html#a780431daab8d2595372eacb43143b52d" target="_top" xlink:title="tlz::args">
<polygon fill="white" stroke="black" points="700.5,-395.5 700.5,-414.5 752.5,-414.5 752.5,-395.5 700.5,-395.5"/>
<text text-anchor="middle" x="726.5" y="-402.5" font-family="Helvetica,sans-Serif" font-size="10.00">tlz::args</text>
</a>
</g>
</g>
<!-- Node3&#45;&gt;Node5 -->
<g id="edge9" class="edge"><title>Node3&#45;&gt;Node5</title>
<path fill="none" stroke="midnightblue" d="M498.766,-357.424C531.481,-347.383 587.711,-334.761 634,-348 661.582,-355.888 688.937,-374.765 706.45,-388.644"/>
<polygon fill="midnightblue" stroke="midnightblue" points="704.703,-391.737 714.659,-395.361 709.136,-386.32 704.703,-391.737"/>
</g>
<!-- Node7 -->
<g id="node7" class="node"><title>Node7</title>
<g id="a_node7"><a xlink:href="classtlz_1_1args__list.html#a38ad21acd64a4af98ffdf4a47837cdbe" target="_top" xlink:title="tlz::args_list::usage_fail">
<polygon fill="white" stroke="black" points="819,-376.5 819,-395.5 939,-395.5 939,-376.5 819,-376.5"/>
<text text-anchor="middle" x="879" y="-383.5" font-family="Helvetica,sans-Serif" font-size="10.00">tlz::args_list::usage_fail</text>
</a>
</g>
</g>
<!-- Node3&#45;&gt;Node7 -->
<g id="edge10" class="edge"><title>Node3&#45;&gt;Node7</title>
<path fill="none" stroke="midnightblue" d="M497.801,-357.375C518.43,-350.018 545.509,-340.834 557,-339 659.79,-322.597 781.46,-354.371 841.181,-373.312"/>
<polygon fill="midnightblue" stroke="midnightblue" points="840.317,-376.711 850.908,-376.458 842.471,-370.051 840.317,-376.711"/>
</g>
<!-- Node9 -->
<g id="node9" class="node"><title>Node9</title>
<g id="a_node9"><a xlink:href="namespacetlz.html#abb019466ea9f56c0dab27e893d891837" target="_top" xlink:title="tlz::file_exists">
<polygon fill="white" stroke="black" points="557,-357.5 557,-376.5 634,-376.5 634,-357.5 557,-357.5"/>
<text text-anchor="middle" x="595.5" y="-364.5" font-family="Helvetica,sans-Serif" font-size="10.00">tlz::file_exists</text>
</a>
</g>
</g>
<!-- Node3&#45;&gt;Node9 -->
<g id="edge8" class="edge"><title>Node3&#45;&gt;Node9</title>
<path fill="none" stroke="midnightblue" d="M521.174,-367C529.612,-367 538.358,-367 546.744,-367"/>
<polygon fill="midnightblue" stroke="midnightblue" points="546.751,-370.5 556.751,-367 546.751,-363.5 546.751,-370.5"/>
</g>
<!-- Node4&#45;&gt;Node5 -->
<g id="edge4" class="edge"><title>Node4&#45;&gt;Node5</title>
<path fill="none" stroke="midnightblue" d="M629.052,-433.411C647.78,-427.894 671.314,-420.962 690.447,-415.326"/>
<polygon fill="midnightblue" stroke="midnightblue" points="691.679,-418.611 700.283,-412.428 689.701,-411.897 691.679,-418.611"/>
</g>
<!-- Node6 -->
<g id="node6" class="node"><title>Node6</title>
<g id="a_node6"><a xlink:href="classtlz_1_1args__list.html#a73d99bc75998dc14607a3a372d28dc6d" target="_top" xlink:title="tlz::args_list::next_arg">
<polygon fill="white" stroke="black" points="670,-433.5 670,-452.5 783,-452.5 783,-433.5 670,-433.5"/>
<text text-anchor="middle" x="726.5" y="-440.5" font-family="Helvetica,sans-Serif" font-size="10.00">tlz::args_list::next_arg</text>
</a>
</g>
</g>
<!-- Node4&#45;&gt;Node6 -->
<g id="edge5" class="edge"><title>Node4&#45;&gt;Node6</title>
<path fill="none" stroke="midnightblue" d="M633.812,-443C641.835,-443 650.544,-443 659.295,-443"/>
<polygon fill="midnightblue" stroke="midnightblue" points="659.549,-446.5 669.549,-443 659.549,-439.5 659.549,-446.5"/>
</g>
<!-- Node6&#45;&gt;Node7 -->
<g id="edge6" class="edge"><title>Node6&#45;&gt;Node7</title>
<path fill="none" stroke="midnightblue" d="M756.404,-433.415C764.995,-430.482 774.406,-427.187 783,-424 804.035,-416.198 827.438,-406.845 845.752,-399.37"/>
<polygon fill="midnightblue" stroke="midnightblue" points="847.165,-402.574 855.09,-395.542 844.51,-396.097 847.165,-402.574"/>
</g>
<!-- Node8 -->
<g id="node8" class="node"><title>Node8</title>
<g id="a_node8"><a xlink:href="namespacetlz.html#a8e4f8c8c2927bc4350de13bfa0f8f9e1" target="_top" xlink:title="tlz::to_string">
<polygon fill="white" stroke="black" points="843.5,-433.5 843.5,-452.5 914.5,-452.5 914.5,-433.5 843.5,-433.5"/>
<text text-anchor="middle" x="879" y="-440.5" font-family="Helvetica,sans-Serif" font-size="10.00">tlz::to_string</text>
</a>
</g>
</g>
<!-- Node6&#45;&gt;Node8 -->
<g id="edge7" class="edge"><title>Node6&#45;&gt;Node8</title>
<path fill="none" stroke="midnightblue" d="M783.113,-443C799.441,-443 817.096,-443 832.698,-443"/>
<polygon fill="midnightblue" stroke="midnightblue" points="833.13,-446.5 843.13,-443 833.129,-439.5 833.13,-446.5"/>
</g>
<!-- Node10&#45;&gt;Node5 -->
<g id="edge12" class="edge"><title>Node10&#45;&gt;Node5</title>
<path fill="none" stroke="midnightblue" d="M626.745,-405C645.682,-405 670.17,-405 690.022,-405"/>
<polygon fill="midnightblue" stroke="midnightblue" points="690.218,-408.5 700.218,-405 690.218,-401.5 690.218,-408.5"/>
</g>
<!-- Node10&#45;&gt;Node6 -->
<g id="edge13" class="edge"><title>Node10&#45;&gt;Node6</title>
<path fill="none" stroke="midnightblue" d="M626.745,-413.909C643.662,-418.893 665.009,-425.181 683.524,-430.635"/>
<polygon fill="midnightblue" stroke="midnightblue" points="682.608,-434.014 693.19,-433.482 684.586,-427.299 682.608,-434.014"/>
</g>
<!-- Node10&#45;&gt;Node7 -->
<g id="edge14" class="edge"><title>Node10&#45;&gt;Node7</title>
<path fill="none" stroke="midnightblue" d="M626.205,-395.496C639.458,-391.732 655.356,-387.862 670,-386 715.903,-380.163 767.967,-380.169 808.523,-381.632"/>
<polygon fill="midnightblue" stroke="midnightblue" points="808.444,-385.131 818.575,-382.032 808.723,-378.137 808.444,-385.131"/>
</g>
<!-- Node11&#45;&gt;Node5 -->
<g id="edge16" class="edge"><title>Node11&#45;&gt;Node5</title>
<path fill="none" stroke="midnightblue" d="M618.665,-471.356C623.902,-468.654 629.319,-465.49 634,-462 652.651,-448.094 650.428,-436.576 670,-424 676.303,-419.95 683.566,-416.659 690.718,-414.025"/>
<polygon fill="midnightblue" stroke="midnightblue" points="691.92,-417.313 700.299,-410.83 689.706,-410.673 691.92,-417.313"/>
</g>
<!-- Node11&#45;&gt;Node6 -->
<g id="edge17" class="edge"><title>Node11&#45;&gt;Node6</title>
<path fill="none" stroke="midnightblue" d="M629.052,-471.411C645.399,-466.596 665.409,-460.701 682.957,-455.532"/>
<polygon fill="midnightblue" stroke="midnightblue" points="684.355,-458.769 692.958,-452.586 682.377,-452.054 684.355,-458.769"/>
</g>
<!-- Node11&#45;&gt;Node7 -->
<g id="edge18" class="edge"><title>Node11&#45;&gt;Node7</title>
<path fill="none" stroke="midnightblue" d="M629.722,-484.339C668.561,-486.773 733.787,-486.197 783,-462 803.877,-451.735 801.092,-438.85 819,-424 829.155,-415.579 841.275,-407.483 851.881,-400.944"/>
<polygon fill="midnightblue" stroke="midnightblue" points="853.956,-403.781 860.724,-395.629 850.35,-397.781 853.956,-403.781"/>
</g>
<!-- Node13 -->
<g id="node13" class="node"><title>Node13</title>
<g id="a_node13"><a xlink:href="namespacetlz.html#a8cba4853d0d796a01c72f59f36f2a492" target="_top" xlink:title="tlz::decode_intrinsics">
<polygon fill="white" stroke="black" points="266,-243.5 266,-262.5 375,-262.5 375,-243.5 266,-243.5"/>
<text text-anchor="middle" x="320.5" y="-250.5" font-family="Helvetica,sans-Serif" font-size="10.00">tlz::decode_intrinsics</text>
</a>
</g>
</g>
<!-- Node12&#45;&gt;Node13 -->
<g id="edge20" class="edge"><title>Node12&#45;&gt;Node13</title>
<path fill="none" stroke="midnightblue" d="M193.428,-253C212.477,-253 235.023,-253 255.744,-253"/>
<polygon fill="midnightblue" stroke="midnightblue" points="255.747,-256.5 265.747,-253 255.746,-249.5 255.747,-256.5"/>
</g>
<!-- Node17 -->
<g id="node17" class="node"><title>Node17</title>
<g id="a_node17"><a xlink:href="namespacetlz.html#a35f9e03fa4fd9cec699f5fa27962400f" target="_top" xlink:title="tlz::json_arg">
<polygon fill="white" stroke="black" points="285.5,-319.5 285.5,-338.5 355.5,-338.5 355.5,-319.5 285.5,-319.5"/>
<text text-anchor="middle" x="320.5" y="-326.5" font-family="Helvetica,sans-Serif" font-size="10.00">tlz::json_arg</text>
</a>
</g>
</g>
<!-- Node12&#45;&gt;Node17 -->
<g id="edge25" class="edge"><title>Node12&#45;&gt;Node17</title>
<path fill="none" stroke="midnightblue" d="M170.157,-262.625C200.095,-275.931 254.294,-300.02 288.512,-315.228"/>
<polygon fill="midnightblue" stroke="midnightblue" points="287.459,-318.59 298.019,-319.453 290.302,-312.193 287.459,-318.59"/>
</g>
<!-- Node14 -->
<g id="node14" class="node"><title>Node14</title>
<g id="a_node14"><a xlink:href="namespacetlz.html#a066563a26e2de02f215b179f3d3a53da" target="_top" xlink:title="tlz::decode_mat">
<polygon fill="white" stroke="black" points="427.5,-281.5 427.5,-300.5 513.5,-300.5 513.5,-281.5 427.5,-281.5"/>
<text text-anchor="middle" x="470.5" y="-288.5" font-family="Helvetica,sans-Serif" font-size="10.00">tlz::decode_mat</text>
</a>
</g>
</g>
<!-- Node13&#45;&gt;Node14 -->
<g id="edge21" class="edge"><title>Node13&#45;&gt;Node14</title>
<path fill="none" stroke="midnightblue" d="M358.847,-262.589C378.201,-267.558 402.03,-273.677 422.613,-278.961"/>
<polygon fill="midnightblue" stroke="midnightblue" points="421.866,-282.383 432.422,-281.48 423.607,-275.603 421.866,-282.383"/>
</g>
<!-- Node15 -->
<g id="node15" class="node"><title>Node15</title>
<g id="a_node15"><a xlink:href="namespacetlz.html#a252af14b9b4ac6502d3e9c5dd8dc90b8" target="_top" xlink:title="tlz::has">
<polygon fill="white" stroke="black" points="571,-224.5 571,-243.5 620,-243.5 620,-224.5 571,-224.5"/>
<text text-anchor="middle" x="595.5" y="-231.5" font-family="Helvetica,sans-Serif" font-size="10.00">tlz::has</text>
</a>
</g>
</g>
<!-- Node13&#45;&gt;Node15 -->
<g id="edge22" class="edge"><title>Node13&#45;&gt;Node15</title>
<path fill="none" stroke="midnightblue" d="M361.505,-243.489C379.302,-239.724 400.583,-235.856 420,-234 468.648,-229.351 525.274,-230.561 560.508,-232.092"/>
<polygon fill="midnightblue" stroke="midnightblue" points="560.57,-235.599 570.723,-232.571 560.898,-228.606 560.57,-235.599"/>
</g>
<!-- Node16 -->
<g id="node16" class="node"><title>Node16</title>
<g id="a_node16"><a xlink:href="namespacetlz.html#add846dc50c32dfb356cb1a7ac11d37ac" target="_top" xlink:title="tlz::get_or">
<polygon fill="white" stroke="black" points="440.5,-243.5 440.5,-262.5 500.5,-262.5 500.5,-243.5 440.5,-243.5"/>
<text text-anchor="middle" x="470.5" y="-250.5" font-family="Helvetica,sans-Serif" font-size="10.00">tlz::get_or</text>
</a>
</g>
</g>
<!-- Node13&#45;&gt;Node16 -->
<g id="edge23" class="edge"><title>Node13&#45;&gt;Node16</title>
<path fill="none" stroke="midnightblue" d="M375.35,-253C393.556,-253 413.524,-253 430.368,-253"/>
<polygon fill="midnightblue" stroke="midnightblue" points="430.408,-256.5 440.408,-253 430.408,-249.5 430.408,-256.5"/>
</g>
<!-- Node16&#45;&gt;Node15 -->
<g id="edge24" class="edge"><title>Node16&#45;&gt;Node15</title>
<path fill="none" stroke="midnightblue" d="M500.649,-248.497C518.751,-245.701 542.081,-242.097 560.951,-239.182"/>
<polygon fill="midnightblue" stroke="midnightblue" points="561.566,-242.629 570.914,-237.643 560.497,-235.711 561.566,-242.629"/>
</g>
<!-- Node17&#45;&gt;Node3 -->
<g id="edge27" class="edge"><title>Node17&#45;&gt;Node3</title>
<path fill="none" stroke="midnightblue" d="M355.826,-337.813C375.582,-342.886 400.695,-349.334 422.289,-354.878"/>
<polygon fill="midnightblue" stroke="midnightblue" points="421.693,-358.339 432.249,-357.436 423.434,-351.559 421.693,-358.339"/>
</g>
<!-- Node17&#45;&gt;Node18 -->
<g id="edge26" class="edge"><title>Node17&#45;&gt;Node18</title>
<path fill="none" stroke="midnightblue" d="M355.826,-329C371.893,-329 391.503,-329 409.882,-329"/>
<polygon fill="midnightblue" stroke="midnightblue" points="409.935,-332.5 419.935,-329 409.935,-325.5 409.935,-332.5"/>
</g>
<!-- Node19&#45;&gt;Node4 -->
<g id="edge29" class="edge"><title>Node19&#45;&gt;Node4</title>
<path fill="none" stroke="midnightblue" d="M201.413,-443C289.151,-443 463.371,-443 547.231,-443"/>
<polygon fill="midnightblue" stroke="midnightblue" points="547.481,-446.5 557.481,-443 547.481,-439.5 547.481,-446.5"/>
</g>
<!-- Node21&#45;&gt;Node20 -->
<g id="edge33" class="edge"><title>Node21&#45;&gt;Node20</title>
<path fill="none" stroke="midnightblue" d="M201.201,-175.101C218.919,-180.179 238.852,-185.89 257.234,-191.158"/>
<polygon fill="midnightblue" stroke="midnightblue" points="256.396,-194.558 266.973,-193.948 258.324,-187.829 256.396,-194.558"/>
</g>
<!-- Node22 -->
<g id="node22" class="node"><title>Node22</title>
<g id="a_node22"><a xlink:href="namespacetlz.html#a6693dca816d6f48429d1c607ced26f3b" target="_top" xlink:title="tlz::checkerboard_image\l_corners">
<polygon fill="white" stroke="black" points="259,-145 259,-175 382,-175 382,-145 259,-145"/>
<text text-anchor="start" x="267" y="-163" font-family="Helvetica,sans-Serif" font-size="10.00">tlz::checkerboard_image</text>
<text text-anchor="middle" x="320.5" y="-152" font-family="Helvetica,sans-Serif" font-size="10.00">_corners</text>
</a>
</g>
</g>
<!-- Node21&#45;&gt;Node22 -->
<g id="edge34" class="edge"><title>Node21&#45;&gt;Node22</title>
<path fill="none" stroke="midnightblue" d="M214.613,-160C225.766,-160 237.384,-160 248.652,-160"/>
<polygon fill="midnightblue" stroke="midnightblue" points="248.878,-163.5 258.878,-160 248.878,-156.5 248.878,-163.5"/>
</g>
<!-- Node23 -->
<g id="node23" class="node"><title>Node23</title>
<g id="a_node23"><a xlink:href="structtlz_1_1checkerboard.html#aefd2234a4be7f364920076cdd8a977f1" target="_top" xlink:title="tlz::checkerboard::\lcorners_count">
<polygon fill="white" stroke="black" points="271.5,-96 271.5,-126 369.5,-126 369.5,-96 271.5,-96"/>
<text text-anchor="start" x="279.5" y="-114" font-family="Helvetica,sans-Serif" font-size="10.00">tlz::checkerboard::</text>
<text text-anchor="middle" x="320.5" y="-103" font-family="Helvetica,sans-Serif" font-size="10.00">corners_count</text>
</a>
</g>
</g>
<!-- Node21&#45;&gt;Node23 -->
<g id="edge35" class="edge"><title>Node21&#45;&gt;Node23</title>
<path fill="none" stroke="midnightblue" d="M201.201,-144.899C220.341,-139.414 242.067,-133.188 261.63,-127.583"/>
<polygon fill="midnightblue" stroke="midnightblue" points="262.688,-130.92 271.337,-124.801 260.76,-124.191 262.688,-130.92"/>
</g>
<!-- Node21&#45;&gt;Node25 -->
<g id="edge37" class="edge"><title>Node21&#45;&gt;Node25</title>
<path fill="none" stroke="midnightblue" d="M207.251,-144.834C212.242,-142.081 216.929,-138.833 221,-135 251.468,-106.315 227.236,-77.4142 257,-48 258.465,-46.5522 260.025,-45.1852 261.659,-43.8948"/>
<polygon fill="midnightblue" stroke="midnightblue" points="264.002,-46.5377 270.358,-38.0614 260.103,-40.7237 264.002,-46.5377"/>
</g>
<!-- Node24 -->
<g id="node24" class="node"><title>Node24</title>
<g id="a_node24"><a xlink:href="structtlz_1_1checkerboard.html#a2684fe6c45bc112b0a5c3d6e833ba22e" target="_top" xlink:title="tlz::checkerboard::\louter_corners_i">
<polygon fill="white" stroke="black" points="421.5,-115 421.5,-145 519.5,-145 519.5,-115 421.5,-115"/>
<text text-anchor="start" x="429.5" y="-133" font-family="Helvetica,sans-Serif" font-size="10.00">tlz::checkerboard::</text>
<text text-anchor="middle" x="470.5" y="-122" font-family="Helvetica,sans-Serif" font-size="10.00">outer_corners_i</text>
</a>
</g>
</g>
<!-- Node23&#45;&gt;Node24 -->
<g id="edge36" class="edge"><title>Node23&#45;&gt;Node24</title>
<path fill="none" stroke="midnightblue" d="M369.551,-117.169C382.931,-118.886 397.607,-120.771 411.494,-122.553"/>
<polygon fill="midnightblue" stroke="midnightblue" points="411.072,-126.028 421.437,-123.83 411.964,-119.085 411.072,-126.028"/>
</g>
<!-- Node26&#45;&gt;Node25 -->
<g id="edge39" class="edge"><title>Node26&#45;&gt;Node25</title>
<path fill="none" stroke="midnightblue" d="M215.593,-23C225.768,-23 236.309,-23 246.601,-23"/>
<polygon fill="midnightblue" stroke="midnightblue" points="246.787,-26.5001 256.786,-23 246.786,-19.5001 246.787,-26.5001"/>
</g>
<!-- Node27&#45;&gt;Node20 -->
<g id="edge41" class="edge"><title>Node27&#45;&gt;Node20</title>
<path fill="none" stroke="midnightblue" d="M205.602,-126.061C211.042,-128.611 216.281,-131.571 221,-135 242.861,-150.886 235.632,-167.456 257,-184 259.296,-185.777 261.734,-187.445 264.267,-189.008"/>
<polygon fill="midnightblue" stroke="midnightblue" points="262.72,-192.152 273.166,-193.924 266.105,-186.025 262.72,-192.152"/>
</g>
<!-- Node27&#45;&gt;Node22 -->
<g id="edge42" class="edge"><title>Node27&#45;&gt;Node22</title>
<path fill="none" stroke="midnightblue" d="M201.201,-126.101C218.919,-131.179 238.852,-136.89 257.234,-142.158"/>
<polygon fill="midnightblue" stroke="midnightblue" points="256.396,-145.558 266.973,-144.948 258.324,-138.829 256.396,-145.558"/>
</g>
<!-- Node27&#45;&gt;Node23 -->
<g id="edge44" class="edge"><title>Node27&#45;&gt;Node23</title>
<path fill="none" stroke="midnightblue" d="M221.019,-111C234.451,-111 248.32,-111 261.259,-111"/>
<polygon fill="midnightblue" stroke="midnightblue" points="261.41,-114.5 271.41,-111 261.41,-107.5 261.41,-114.5"/>
</g>
<!-- Node27&#45;&gt;Node25 -->
<g id="edge43" class="edge"><title>Node27&#45;&gt;Node25</title>
<path fill="none" stroke="midnightblue" d="M191.912,-95.9368C201.807,-91.7228 212.038,-86.708 221,-81 239.307,-69.3395 238.624,-59.552 257,-48 260.101,-46.0505 263.38,-44.2035 266.746,-42.4633"/>
<polygon fill="midnightblue" stroke="midnightblue" points="268.305,-45.5976 275.799,-38.109 265.27,-39.2893 268.305,-45.5976"/>
</g>
<!-- Node28 -->
<g id="node28" class="node"><title>Node28</title>
<g id="a_node28"><a xlink:href="namespacetlz.html#a318f0ec11ecbe39c32ad870473ea9c35" target="_top" xlink:title="Compute square of a number. ">
<polygon fill="white" stroke="black" points="298.5,-57.5 298.5,-76.5 342.5,-76.5 342.5,-57.5 298.5,-57.5"/>
<text text-anchor="middle" x="320.5" y="-64.5" font-family="Helvetica,sans-Serif" font-size="10.00">tlz::sq</text>
</a>
</g>
</g>
<!-- Node27&#45;&gt;Node28 -->
<g id="edge45" class="edge"><title>Node27&#45;&gt;Node28</title>
<path fill="none" stroke="midnightblue" d="M206.87,-95.9808C234.223,-88.9427 265.707,-80.8414 288.422,-74.9966"/>
<polygon fill="midnightblue" stroke="midnightblue" points="289.383,-78.3635 298.195,-72.4819 287.638,-71.5843 289.383,-78.3635"/>
</g>
<!-- Node29 -->
<g id="node29" class="node"><title>Node29</title>
<g id="a_node29"><a xlink:href="namespacetlz.html#a643b2d03bd805fe78dcd684ef45e52fb" target="_top" xlink:title="Clamp value between minimum and maximum value. ">
<polygon fill="white" stroke="black" points="441,-76.5 441,-95.5 500,-95.5 500,-76.5 441,-76.5"/>
<text text-anchor="middle" x="470.5" y="-83.5" font-family="Helvetica,sans-Serif" font-size="10.00">tlz::clamp</text>
</a>
</g>
</g>
<!-- Node28&#45;&gt;Node29 -->
<g id="edge46" class="edge"><title>Node28&#45;&gt;Node29</title>
<path fill="none" stroke="midnightblue" d="M342.705,-69.7222C365.698,-72.6741 402.881,-77.4475 431.049,-81.0638"/>
<polygon fill="midnightblue" stroke="midnightblue" points="430.612,-84.5363 440.976,-82.3382 431.504,-77.5933 430.612,-84.5363"/>
</g>
<!-- Node30 -->
<g id="node30" class="node"><title>Node30</title>
<g id="a_node30"><a xlink:href="namespacetlz.html#a4fe5757a830e199f84d229eee11f616e" target="_top" xlink:title="Compute greatest common divisor of a and b. ">
<polygon fill="white" stroke="black" points="446,-38.5 446,-57.5 495,-57.5 495,-38.5 446,-38.5"/>
<text text-anchor="middle" x="470.5" y="-45.5" font-family="Helvetica,sans-Serif" font-size="10.00">tlz::gcd</text>
</a>
</g>
</g>
<!-- Node28&#45;&gt;Node30 -->
<g id="edge47" class="edge"><title>Node28&#45;&gt;Node30</title>
<path fill="none" stroke="midnightblue" d="M342.705,-64.2778C367.05,-61.1523 407.304,-55.9846 435.922,-52.3107"/>
<polygon fill="midnightblue" stroke="midnightblue" points="436.415,-55.7762 445.888,-51.0313 435.524,-48.8332 436.415,-55.7762"/>
</g>
<!-- Node31 -->
<g id="node31" class="node"><title>Node31</title>
<g id="a_node31"><a xlink:href="namespacetlz.html#aec6e2158ce198aa20a8493fde3d3b552" target="_top" xlink:title="Compute least common multiple of a and b. ">
<polygon fill="white" stroke="black" points="446,-0.5 446,-19.5 495,-19.5 495,-0.5 446,-0.5"/>
<text text-anchor="middle" x="470.5" y="-7.5" font-family="Helvetica,sans-Serif" font-size="10.00">tlz::lcm</text>
</a>
</g>
</g>
<!-- Node28&#45;&gt;Node31 -->
<g id="edge48" class="edge"><title>Node28&#45;&gt;Node31</title>
<path fill="none" stroke="midnightblue" d="M342.62,-61.1245C354.869,-57.4993 370.494,-52.4993 384,-47 400.568,-40.254 403.63,-36.2137 420,-29 425.212,-26.7032 430.796,-24.4067 436.268,-22.2446"/>
<polygon fill="midnightblue" stroke="midnightblue" points="437.825,-25.3952 445.892,-18.5268 435.303,-18.8655 437.825,-25.3952"/>
</g>
</g>
</svg>
