<?xml version="1.0" encoding="UTF-8" standalone="no"?>
<!DOCTYPE svg PUBLIC "-//W3C//DTD SVG 1.1//EN"
 "http://www.w3.org/Graphics/SVG/1.1/DTD/svg11.dtd">
<!-- Generated by graphviz version 2.38.0 (20140413.2041)
 -->
<!-- Title: main Pages: 1 -->
<svg width="854pt" height="1126pt"
 viewBox="0.00 0.00 854.00 1126.00" xmlns="http://www.w3.org/2000/svg" xmlns:xlink="http://www.w3.org/1999/xlink">
<g id="graph0" class="graph" transform="scale(1 1) rotate(0) translate(4 1122)">
<title>main</title>
<polygon fill="white" stroke="none" points="-4,4 -4,-1122 850,-1122 850,4 -4,4"/>
<!-- Node1 -->
<g id="node1" class="node"><title>Node1</title>
<polygon fill="#bfbfbf" stroke="black" points="0,-442.5 0,-461.5 38,-461.5 38,-442.5 0,-442.5"/>
<text text-anchor="middle" x="19" y="-449.5" font-family="Helvetica,sans-Serif" font-size="10.00">main</text>
</g>
<!-- Node2 -->
<g id="node2" class="node"><title>Node2</title>
<g id="a_node2"><a xlink:href="namespacetlz.html#a3c03f5d9d6261ec2909938822fc47f8a" target="_top" xlink:title="tlz::get_args">
<polygon fill="white" stroke="black" points="113.5,-1098.5 113.5,-1117.5 184.5,-1117.5 184.5,-1098.5 113.5,-1098.5"/>
<text text-anchor="middle" x="149" y="-1105.5" font-family="Helvetica,sans-Serif" font-size="10.00">tlz::get_args</text>
</a>
</g>
</g>
<!-- Node1&#45;&gt;Node2 -->
<g id="edge1" class="edge"><title>Node1&#45;&gt;Node2</title>
<path fill="none" stroke="midnightblue" d="M20.1874,-461.555C21.7443,-536.847 33.5063,-1033.01 74,-1084 81.3413,-1093.24 92.295,-1098.97 103.539,-1102.51"/>
<polygon fill="midnightblue" stroke="midnightblue" points="102.851,-1105.95 113.411,-1105.09 104.619,-1099.17 102.851,-1105.95"/>
</g>
<!-- Node3 -->
<g id="node3" class="node"><title>Node3</title>
<g id="a_node3"><a xlink:href="namespacetlz.html#aea648783e0ac6c50afae30a01cfc260d" target="_top" xlink:title="tlz::enum_arg">
<polygon fill="white" stroke="black" points="441.5,-1060.5 441.5,-1079.5 517.5,-1079.5 517.5,-1060.5 441.5,-1060.5"/>
<text text-anchor="middle" x="479.5" y="-1067.5" font-family="Helvetica,sans-Serif" font-size="10.00">tlz::enum_arg</text>
</a>
</g>
</g>
<!-- Node1&#45;&gt;Node3 -->
<g id="edge2" class="edge"><title>Node1&#45;&gt;Node3</title>
<path fill="none" stroke="midnightblue" d="M20.2794,-461.756C22.3922,-532.533 36.7958,-965.713 74,-1009 162.632,-1112.12 344.955,-1095.11 431.243,-1079.98"/>
<polygon fill="midnightblue" stroke="midnightblue" points="432.066,-1083.39 441.277,-1078.16 430.812,-1076.51 432.066,-1083.39"/>
</g>
<!-- Node7 -->
<g id="node7" class="node"><title>Node7</title>
<g id="a_node7"><a xlink:href="namespacetlz.html#a8e4f8c8c2927bc4350de13bfa0f8f9e1" target="_top" xlink:title="tlz::to_string">
<polygon fill="white" stroke="black" points="750.5,-750.5 750.5,-769.5 821.5,-769.5 821.5,-750.5 750.5,-750.5"/>
<text text-anchor="middle" x="786" y="-757.5" font-family="Helvetica,sans-Serif" font-size="10.00">tlz::to_string</text>
</a>
</g>
</g>
<!-- Node1&#45;&gt;Node7 -->
<g id="edge37" class="edge"><title>Node1&#45;&gt;Node7</title>
<path fill="none" stroke="midnightblue" d="M21.0658,-461.593C24.2407,-485.162 35.923,-546.02 74,-574 162.673,-639.159 209.961,-602 320,-602 320,-602 320,-602 480.5,-602 602.167,-602 723.558,-702.612 767.637,-743.262"/>
<polygon fill="midnightblue" stroke="midnightblue" points="765.261,-745.832 774.951,-750.116 770.048,-740.724 765.261,-745.832"/>
</g>
<!-- Node8 -->
<g id="node8" class="node"><title>Node8</title>
<g id="a_node8"><a xlink:href="namespacetlz.html#af0d1e8ba5b9f2dbc2b589afab3a21fc8" target="_top" xlink:title="tlz::int_arg">
<polygon fill="white" stroke="black" points="448.5,-1022.5 448.5,-1041.5 510.5,-1041.5 510.5,-1022.5 448.5,-1022.5"/>
<text text-anchor="middle" x="479.5" y="-1029.5" font-family="Helvetica,sans-Serif" font-size="10.00">tlz::int_arg</text>
</a>
</g>
</g>
<!-- Node1&#45;&gt;Node8 -->
<g id="edge8" class="edge"><title>Node1&#45;&gt;Node8</title>
<path fill="none" stroke="midnightblue" d="M20.3988,-461.632C23.2265,-527.956 41.0927,-915.542 74,-955 164.23,-1063.19 355.25,-1050.44 438.41,-1038.84"/>
<polygon fill="midnightblue" stroke="midnightblue" points="439.085,-1042.28 448.472,-1037.36 438.071,-1035.35 439.085,-1042.28"/>
</g>
<!-- Node9 -->
<g id="node9" class="node"><title>Node9</title>
<g id="a_node9"><a xlink:href="namespacetlz.html#a63246890b0c946b5f62a1d3e2bea6103" target="_top" xlink:title="tlz::real_arg">
<polygon fill="white" stroke="black" points="445.5,-984.5 445.5,-1003.5 513.5,-1003.5 513.5,-984.5 445.5,-984.5"/>
<text text-anchor="middle" x="479.5" y="-991.5" font-family="Helvetica,sans-Serif" font-size="10.00">tlz::real_arg</text>
</a>
</g>
</g>
<!-- Node1&#45;&gt;Node9 -->
<g id="edge12" class="edge"><title>Node1&#45;&gt;Node9</title>
<path fill="none" stroke="midnightblue" d="M19.7888,-461.596C18.6939,-520.211 15.7605,-829.756 74,-899 164.372,-1006.45 351.14,-1005.43 435.49,-998.763"/>
<polygon fill="midnightblue" stroke="midnightblue" points="435.831,-1002.25 445.496,-997.908 435.234,-995.273 435.831,-1002.25"/>
</g>
<!-- Node10 -->
<g id="node10" class="node"><title>Node10</title>
<g id="a_node10"><a xlink:href="namespacetlz.html#a65770a2c1ff57c5ae6542d4465a3d3f4" target="_top" xlink:title="tlz::out_filename_arg">
<polygon fill="white" stroke="black" points="267.5,-832.5 267.5,-851.5 374.5,-851.5 374.5,-832.5 267.5,-832.5"/>
<text text-anchor="middle" x="321" y="-839.5" font-family="Helvetica,sans-Serif" font-size="10.00">tlz::out_filename_arg</text>
</a>
</g>
</g>
<!-- Node1&#45;&gt;Node10 -->
<g id="edge16" class="edge"><title>Node1&#45;&gt;Node10</title>
<path fill="none" stroke="midnightblue" d="M20.9105,-461.635C25.0712,-504.014 43.4005,-673.611 74,-716 120.234,-780.046 208.727,-813.825 266.013,-829.779"/>
<polygon fill="midnightblue" stroke="midnightblue" points="265.413,-833.242 275.979,-832.463 267.233,-826.483 265.413,-833.242"/>
</g>
<!-- Node12 -->
<g id="node12" class="node"><title>Node12</title>
<g id="a_node12"><a xlink:href="namespacetlz.html#a401e3de191fb11547a91972b97244c3a" target="_top" xlink:title="tlz::out_dirname_opt_arg">
<polygon fill="white" stroke="black" points="87,-687.5 87,-706.5 211,-706.5 211,-687.5 87,-687.5"/>
<text text-anchor="middle" x="149" y="-694.5" font-family="Helvetica,sans-Serif" font-size="10.00">tlz::out_dirname_opt_arg</text>
</a>
</g>
</g>
<!-- Node1&#45;&gt;Node12 -->
<g id="edge20" class="edge"><title>Node1&#45;&gt;Node12</title>
<path fill="none" stroke="midnightblue" d="M21.7349,-461.838C26.7021,-488.268 42.6756,-562.437 74,-616 88.7915,-641.293 112.526,-665.436 129.115,-680.678"/>
<polygon fill="midnightblue" stroke="midnightblue" points="126.836,-683.335 136.615,-687.412 131.512,-678.127 126.836,-683.335"/>
</g>
<!-- Node16 -->
<g id="node16" class="node"><title>Node16</title>
<g id="a_node16"><a xlink:href="namespacetlz.html#a5186c46291b525427b48828632f7adec" target="_top" xlink:title="tlz::bool_opt_arg">
<polygon fill="white" stroke="black" points="104.5,-870.5 104.5,-889.5 193.5,-889.5 193.5,-870.5 104.5,-870.5"/>
<text text-anchor="middle" x="149" y="-877.5" font-family="Helvetica,sans-Serif" font-size="10.00">tlz::bool_opt_arg</text>
</a>
</g>
</g>
<!-- Node1&#45;&gt;Node16 -->
<g id="edge29" class="edge"><title>Node1&#45;&gt;Node16</title>
<path fill="none" stroke="midnightblue" d="M19.6702,-461.765C18.6278,-503.694 18.2902,-671.829 74,-793 86.884,-821.023 111.431,-847.111 128.711,-863.27"/>
<polygon fill="midnightblue" stroke="midnightblue" points="126.772,-866.237 136.528,-870.37 131.479,-861.056 126.772,-866.237"/>
</g>
<!-- Node19 -->
<g id="node19" class="node"><title>Node19</title>
<g id="a_node19"><a xlink:href="namespacetlz.html#addbb2acf9d24eda4bf25536c55ae84d8" target="_top" xlink:title="tlz::detect_color_checkerboard">
<polygon fill="white" stroke="black" points="74,-545.5 74,-564.5 224,-564.5 224,-545.5 74,-545.5"/>
<text text-anchor="middle" x="149" y="-552.5" font-family="Helvetica,sans-Serif" font-size="10.00">tlz::detect_color_checkerboard</text>
</a>
</g>
</g>
<!-- Node1&#45;&gt;Node19 -->
<g id="edge38" class="edge"><title>Node1&#45;&gt;Node19</title>
<path fill="none" stroke="midnightblue" d="M23.9944,-461.536C31.4077,-478.093 48.8603,-512.188 74,-531 79.7988,-535.339 86.4153,-538.914 93.2524,-541.853"/>
<polygon fill="midnightblue" stroke="midnightblue" points="92.0668,-545.147 102.656,-545.481 94.586,-538.616 92.0668,-545.147"/>
</g>
<!-- Node21 -->
<g id="node21" class="node"><title>Node21</title>
<g id="a_node21"><a xlink:href="namespacetlz.html#abc33c7b74cbbd686b06228c1fdad9214" target="_top" xlink:title="tlz::detect_ir_checkerboard">
<polygon fill="white" stroke="black" points="82,-502.5 82,-521.5 216,-521.5 216,-502.5 82,-502.5"/>
<text text-anchor="middle" x="149" y="-509.5" font-family="Helvetica,sans-Serif" font-size="10.00">tlz::detect_ir_checkerboard</text>
</a>
</g>
</g>
<!-- Node1&#45;&gt;Node21 -->
<g id="edge40" class="edge"><title>Node1&#45;&gt;Node21</title>
<path fill="none" stroke="midnightblue" d="M29.9327,-461.514C40.1895,-470.836 57.0443,-484.802 74,-493 78.9258,-495.382 84.1855,-497.489 89.5436,-499.349"/>
<polygon fill="midnightblue" stroke="midnightblue" points="88.6532,-502.738 99.2437,-502.435 90.7753,-496.068 88.6532,-502.738"/>
</g>
<!-- Node23 -->
<g id="node23" class="node"><title>Node23</title>
<g id="a_node23"><a xlink:href="checkerboard__samples_8cc.html#ac3a4ee4eb7269085bc81245b4df5860f" target="_top" xlink:title="save_correspondences_set">
<polygon fill="white" stroke="black" points="81,-464.5 81,-483.5 217,-483.5 217,-464.5 81,-464.5"/>
<text text-anchor="middle" x="149" y="-471.5" font-family="Helvetica,sans-Serif" font-size="10.00">save_correspondences_set</text>
</a>
</g>
</g>
<!-- Node1&#45;&gt;Node23 -->
<g id="edge43" class="edge"><title>Node1&#45;&gt;Node23</title>
<path fill="none" stroke="midnightblue" d="M38.0678,-455.105C49.8809,-457.136 66.1068,-459.925 82.4664,-462.736"/>
<polygon fill="midnightblue" stroke="midnightblue" points="82.1832,-466.239 92.6316,-464.484 83.369,-459.34 82.1832,-466.239"/>
</g>
<!-- Node31 -->
<g id="node31" class="node"><title>Node31</title>
<g id="a_node31"><a xlink:href="classtlz_1_1viewer.html#a2bf9d63d7a1a5ec4d5bdabc13d9ab688" target="_top" xlink:title="tlz::viewer::add_int\l_slider">
<polygon fill="white" stroke="black" points="99.5,-415 99.5,-445 198.5,-445 198.5,-415 99.5,-415"/>
<text text-anchor="start" x="107.5" y="-433" font-family="Helvetica,sans-Serif" font-size="10.00">tlz::viewer::add_int</text>
<text text-anchor="middle" x="149" y="-422" font-family="Helvetica,sans-Serif" font-size="10.00">_slider</text>
</a>
</g>
</g>
<!-- Node1&#45;&gt;Node31 -->
<g id="edge54" class="edge"><title>Node1&#45;&gt;Node31</title>
<path fill="none" stroke="midnightblue" d="M38.0678,-448.895C51.5615,-446.575 70.8128,-443.267 89.4442,-440.064"/>
<polygon fill="midnightblue" stroke="midnightblue" points="90.1301,-443.498 99.3927,-438.354 88.9443,-436.599 90.1301,-443.498"/>
</g>
<!-- Node32 -->
<g id="node32" class="node"><title>Node32</title>
<g id="a_node32"><a xlink:href="classtlz_1_1grabber.html#a14d256bd7ef0af5be70f2bd7713a7e54" target="_top" xlink:title="tlz::grabber::grab">
<polygon fill="white" stroke="black" points="104,-376.5 104,-395.5 194,-395.5 194,-376.5 104,-376.5"/>
<text text-anchor="middle" x="149" y="-383.5" font-family="Helvetica,sans-Serif" font-size="10.00">tlz::grabber::grab</text>
</a>
</g>
</g>
<!-- Node1&#45;&gt;Node32 -->
<g id="edge55" class="edge"><title>Node1&#45;&gt;Node32</title>
<path fill="none" stroke="midnightblue" d="M28.6229,-442.474C38.5764,-432.04 55.9119,-415.527 74,-406 80.1708,-402.75 86.9162,-399.992 93.7424,-397.662"/>
<polygon fill="midnightblue" stroke="midnightblue" points="95.2378,-400.862 103.744,-394.545 93.1553,-394.179 95.2378,-400.862"/>
</g>
<!-- Node33 -->
<g id="node33" class="node"><title>Node33</title>
<g id="a_node33"><a xlink:href="classtlz_1_1viewer.html#a0ad9ee28b8127c63b2886b04fb36e3dc" target="_top" xlink:title="tlz::viewer::clear">
<polygon fill="white" stroke="black" points="104.5,-300.5 104.5,-319.5 193.5,-319.5 193.5,-300.5 104.5,-300.5"/>
<text text-anchor="middle" x="149" y="-307.5" font-family="Helvetica,sans-Serif" font-size="10.00">tlz::viewer::clear</text>
</a>
</g>
</g>
<!-- Node1&#45;&gt;Node33 -->
<g id="edge56" class="edge"><title>Node1&#45;&gt;Node33</title>
<path fill="none" stroke="midnightblue" d="M21.3458,-442.308C25.1052,-419.034 37.9193,-359.651 74,-329 79.9704,-323.928 87.1249,-320.185 94.5992,-317.428"/>
<polygon fill="midnightblue" stroke="midnightblue" points="95.6715,-320.76 104.173,-314.437 93.5839,-314.078 95.6715,-320.76"/>
</g>
<!-- Node36 -->
<g id="node36" class="node"><title>Node36</title>
<g id="a_node36"><a xlink:href="classtlz_1_1grabber.html#a64e9af7d0c0e982539c7465f4c8c2755" target="_top" xlink:title="tlz::grabber::get_color\l_frame">
<polygon fill="white" stroke="black" points="93.5,-251 93.5,-281 204.5,-281 204.5,-251 93.5,-251"/>
<text text-anchor="start" x="101.5" y="-269" font-family="Helvetica,sans-Serif" font-size="10.00">tlz::grabber::get_color</text>
<text text-anchor="middle" x="149" y="-258" font-family="Helvetica,sans-Serif" font-size="10.00">_frame</text>
</a>
</g>
</g>
<!-- Node1&#45;&gt;Node36 -->
<g id="edge59" class="edge"><title>Node1&#45;&gt;Node36</title>
<path fill="none" stroke="midnightblue" d="M20.3912,-442.123C22.0272,-414.325 30.478,-334.617 74,-291 77.071,-287.922 80.5336,-285.223 84.2414,-282.856"/>
<polygon fill="midnightblue" stroke="midnightblue" points="86.1779,-285.787 93.2693,-277.915 82.8169,-279.646 86.1779,-285.787"/>
</g>
<!-- Node37 -->
<g id="node37" class="node"><title>Node37</title>
<g id="a_node37"><a xlink:href="classtlz_1_1grabber.html#ab0a7ab9197c8d2676a072c3f9eadd96d" target="_top" xlink:title="tlz::grabber::get_ir\l_frame">
<polygon fill="white" stroke="black" points="101.5,-202 101.5,-232 196.5,-232 196.5,-202 101.5,-202"/>
<text text-anchor="start" x="109.5" y="-220" font-family="Helvetica,sans-Serif" font-size="10.00">tlz::grabber::get_ir</text>
<text text-anchor="middle" x="149" y="-209" font-family="Helvetica,sans-Serif" font-size="10.00">_frame</text>
</a>
</g>
</g>
<!-- Node1&#45;&gt;Node37 -->
<g id="edge60" class="edge"><title>Node1&#45;&gt;Node37</title>
<path fill="none" stroke="midnightblue" d="M19.474,-442.13C18.272,-409.119 18.9294,-301.311 74,-242 79.0114,-236.603 85.2272,-232.37 91.9108,-229.051"/>
<polygon fill="midnightblue" stroke="midnightblue" points="93.4215,-232.212 101.246,-225.068 90.6742,-225.774 93.4215,-232.212"/>
</g>
<!-- Node38 -->
<g id="node38" class="node"><title>Node38</title>
<g id="a_node38"><a xlink:href="classtlz_1_1grabber.html#ac0436df6301b3b5773d06c499d946fbb" target="_top" xlink:title="tlz::grabber::get_original\l_ir_frame">
<polygon fill="white" stroke="black" points="88.5,-153 88.5,-183 209.5,-183 209.5,-153 88.5,-153"/>
<text text-anchor="start" x="96.5" y="-171" font-family="Helvetica,sans-Serif" font-size="10.00">tlz::grabber::get_original</text>
<text text-anchor="middle" x="149" y="-160" font-family="Helvetica,sans-Serif" font-size="10.00">_ir_frame</text>
</a>
</g>
</g>
<!-- Node1&#45;&gt;Node38 -->
<g id="edge61" class="edge"><title>Node1&#45;&gt;Node38</title>
<path fill="none" stroke="midnightblue" d="M20.727,-442.347C24.1077,-399.914 39.6059,-230.357 74,-192 75.7751,-190.02 77.7149,-188.203 79.7835,-186.535"/>
<polygon fill="midnightblue" stroke="midnightblue" points="81.9643,-189.287 88.3249,-180.814 78.0687,-183.471 81.9643,-189.287"/>
</g>
<!-- Node39 -->
<g id="node39" class="node"><title>Node39</title>
<g id="a_node39"><a xlink:href="classtlz_1_1viewer.html#a5f0412cff89a343ad52431689502389d" target="_top" xlink:title="tlz::viewer::draw">
<polygon fill="white" stroke="black" points="104.5,-338.5 104.5,-357.5 193.5,-357.5 193.5,-338.5 104.5,-338.5"/>
<text text-anchor="middle" x="149" y="-345.5" font-family="Helvetica,sans-Serif" font-size="10.00">tlz::viewer::draw</text>
</a>
</g>
</g>
<!-- Node1&#45;&gt;Node39 -->
<g id="edge62" class="edge"><title>Node1&#45;&gt;Node39</title>
<path fill="none" stroke="midnightblue" d="M23.3447,-442.417C30.0443,-424.674 46.8386,-386.724 74,-367 80.1243,-362.553 87.195,-359.144 94.486,-356.532"/>
<polygon fill="midnightblue" stroke="midnightblue" points="95.9743,-359.735 104.497,-353.441 93.9091,-353.047 95.9743,-359.735"/>
</g>
<!-- Node40 -->
<g id="node40" class="node"><title>Node40</title>
<g id="a_node40"><a xlink:href="namespacetlz.html#a0ae3b183b2bd5a5074615f7eb2b7677d" target="_top" xlink:title="tlz::visualize_checkerboard">
<polygon fill="white" stroke="black" points="81.5,-114.5 81.5,-133.5 216.5,-133.5 216.5,-114.5 81.5,-114.5"/>
<text text-anchor="middle" x="149" y="-121.5" font-family="Helvetica,sans-Serif" font-size="10.00">tlz::visualize_checkerboard</text>
</a>
</g>
</g>
<!-- Node1&#45;&gt;Node40 -->
<g id="edge65" class="edge"><title>Node1&#45;&gt;Node40</title>
<path fill="none" stroke="midnightblue" d="M20.318,-442.44C22.0786,-395.325 32.1302,-188.284 74,-143 75.2072,-141.694 76.4909,-140.473 77.8397,-139.332"/>
<polygon fill="midnightblue" stroke="midnightblue" points="79.914,-142.154 86.199,-133.624 75.9668,-136.373 79.914,-142.154"/>
</g>
<!-- Node42 -->
<g id="node42" class="node"><title>Node42</title>
<g id="a_node42"><a xlink:href="classtlz_1_1grabber.html#a412843d3f5dbbcb179e5ae4709577b91" target="_top" xlink:title="tlz::grabber::release">
<polygon fill="white" stroke="black" points="97.5,-76.5 97.5,-95.5 200.5,-95.5 200.5,-76.5 97.5,-76.5"/>
<text text-anchor="middle" x="149" y="-83.5" font-family="Helvetica,sans-Serif" font-size="10.00">tlz::grabber::release</text>
</a>
</g>
</g>
<!-- Node1&#45;&gt;Node42 -->
<g id="edge67" class="edge"><title>Node1&#45;&gt;Node42</title>
<path fill="none" stroke="midnightblue" d="M20.1204,-442.302C20.9492,-391.504 27.2925,-156.47 74,-105 77.9972,-100.595 82.8646,-97.1506 88.1749,-94.465"/>
<polygon fill="midnightblue" stroke="midnightblue" points="89.5516,-97.6832 97.4541,-90.6262 86.8756,-91.2148 89.5516,-97.6832"/>
</g>
<!-- Node43 -->
<g id="node43" class="node"><title>Node43</title>
<g id="a_node43"><a xlink:href="classtlz_1_1viewer.html#ad4fda702b7c5af2cb0bb9bc3842113f3" target="_top" xlink:title="tlz::viewer::draw_text">
<polygon fill="white" stroke="black" points="94,-38.5 94,-57.5 204,-57.5 204,-38.5 94,-38.5"/>
<text text-anchor="middle" x="149" y="-45.5" font-family="Helvetica,sans-Serif" font-size="10.00">tlz::viewer::draw_text</text>
</a>
</g>
</g>
<!-- Node1&#45;&gt;Node43 -->
<g id="edge68" class="edge"><title>Node1&#45;&gt;Node43</title>
<path fill="none" stroke="midnightblue" d="M19.9569,-442.334C19.9151,-388.373 22.385,-124.744 74,-67 77.1173,-63.5125 80.78,-60.6253 84.7787,-58.2392"/>
<polygon fill="midnightblue" stroke="midnightblue" points="86.5147,-61.2874 93.9881,-53.7775 83.4626,-54.9878 86.5147,-61.2874"/>
</g>
<!-- Node44 -->
<g id="node44" class="node"><title>Node44</title>
<g id="a_node44"><a xlink:href="classtlz_1_1viewer.html#aabb3cdde75783ed1a41801fb236bc50e" target="_top" xlink:title="tlz::viewer::show">
<polygon fill="white" stroke="black" points="103.5,-0.5 103.5,-19.5 194.5,-19.5 194.5,-0.5 103.5,-0.5"/>
<text text-anchor="middle" x="149" y="-7.5" font-family="Helvetica,sans-Serif" font-size="10.00">tlz::viewer::show</text>
</a>
</g>
</g>
<!-- Node1&#45;&gt;Node44 -->
<g id="edge69" class="edge"><title>Node1&#45;&gt;Node44</title>
<path fill="none" stroke="midnightblue" d="M19.8198,-442.149C18.9727,-384.671 17.5326,-92.9652 74,-29 79.308,-22.9872 86.2372,-18.7548 93.7254,-15.7973"/>
<polygon fill="midnightblue" stroke="midnightblue" points="94.9705,-19.0738 103.43,-12.6948 92.8388,-12.4063 94.9705,-19.0738"/>
</g>
<!-- Node4 -->
<g id="node4" class="node"><title>Node4</title>
<g id="a_node4"><a xlink:href="namespacetlz.html#a780431daab8d2595372eacb43143b52d" target="_top" xlink:title="tlz::args">
<polygon fill="white" stroke="black" points="607.5,-908.5 607.5,-927.5 659.5,-927.5 659.5,-908.5 607.5,-908.5"/>
<text text-anchor="middle" x="633.5" y="-915.5" font-family="Helvetica,sans-Serif" font-size="10.00">tlz::args</text>
</a>
</g>
</g>
<!-- Node3&#45;&gt;Node4 -->
<g id="edge3" class="edge"><title>Node3&#45;&gt;Node4</title>
<path fill="none" stroke="midnightblue" d="M517.501,-1064.44C526.108,-1061.62 534.611,-1057.38 541,-1051 578.6,-1013.46 539.882,-975.018 577,-937 582.653,-931.21 590.143,-927.184 597.785,-924.384"/>
<polygon fill="midnightblue" stroke="midnightblue" points="598.871,-927.713 607.42,-921.454 596.834,-921.015 598.871,-927.713"/>
</g>
<!-- Node5 -->
<g id="node5" class="node"><title>Node5</title>
<g id="a_node5"><a xlink:href="classtlz_1_1args__list.html#a73d99bc75998dc14607a3a372d28dc6d" target="_top" xlink:title="tlz::args_list::next_arg">
<polygon fill="white" stroke="black" points="577,-946.5 577,-965.5 690,-965.5 690,-946.5 577,-946.5"/>
<text text-anchor="middle" x="633.5" y="-953.5" font-family="Helvetica,sans-Serif" font-size="10.00">tlz::args_list::next_arg</text>
</a>
</g>
</g>
<!-- Node3&#45;&gt;Node5 -->
<g id="edge4" class="edge"><title>Node3&#45;&gt;Node5</title>
<path fill="none" stroke="midnightblue" d="M517.618,-1061.56C525.663,-1058.87 533.885,-1055.4 541,-1051 574.223,-1030.44 603.806,-995.083 619.843,-973.789"/>
<polygon fill="midnightblue" stroke="midnightblue" points="622.754,-975.738 625.858,-965.608 617.114,-971.592 622.754,-975.738"/>
</g>
<!-- Node6 -->
<g id="node6" class="node"><title>Node6</title>
<g id="a_node6"><a xlink:href="classtlz_1_1args__list.html#a38ad21acd64a4af98ffdf4a47837cdbe" target="_top" xlink:title="tlz::args_list::usage_fail">
<polygon fill="white" stroke="black" points="726,-984.5 726,-1003.5 846,-1003.5 846,-984.5 726,-984.5"/>
<text text-anchor="middle" x="786" y="-991.5" font-family="Helvetica,sans-Serif" font-size="10.00">tlz::args_list::usage_fail</text>
</a>
</g>
</g>
<!-- Node3&#45;&gt;Node6 -->
<g id="edge7" class="edge"><title>Node3&#45;&gt;Node6</title>
<path fill="none" stroke="midnightblue" d="M517.593,-1064.25C559.767,-1057.32 630.487,-1044.52 690,-1028 710.793,-1022.23 733.573,-1014.14 751.612,-1007.3"/>
<polygon fill="midnightblue" stroke="midnightblue" points="753.026,-1010.5 761.103,-1003.65 750.514,-1003.97 753.026,-1010.5"/>
</g>
<!-- Node5&#45;&gt;Node6 -->
<g id="edge5" class="edge"><title>Node5&#45;&gt;Node6</title>
<path fill="none" stroke="midnightblue" d="M672.478,-965.589C692.159,-970.558 716.391,-976.677 737.321,-981.961"/>
<polygon fill="midnightblue" stroke="midnightblue" points="736.743,-985.425 747.296,-984.48 738.457,-978.638 736.743,-985.425"/>
</g>
<!-- Node5&#45;&gt;Node7 -->
<g id="edge6" class="edge"><title>Node5&#45;&gt;Node7</title>
<path fill="none" stroke="midnightblue" d="M674.378,-946.472C680.003,-943.995 685.42,-940.889 690,-937 741.074,-893.629 768.994,-815.665 779.747,-779.459"/>
<polygon fill="midnightblue" stroke="midnightblue" points="783.169,-780.224 782.54,-769.648 776.436,-778.307 783.169,-780.224"/>
</g>
<!-- Node8&#45;&gt;Node4 -->
<g id="edge9" class="edge"><title>Node8&#45;&gt;Node4</title>
<path fill="none" stroke="midnightblue" d="M510.646,-1027.65C521.206,-1024.89 532.531,-1020.37 541,-1013 569.189,-988.458 549.127,-961.9 577,-937 582.862,-931.763 590.234,-927.957 597.672,-925.195"/>
<polygon fill="midnightblue" stroke="midnightblue" points="598.887,-928.482 607.368,-922.133 596.778,-921.807 598.887,-928.482"/>
</g>
<!-- Node8&#45;&gt;Node5 -->
<g id="edge10" class="edge"><title>Node8&#45;&gt;Node5</title>
<path fill="none" stroke="midnightblue" d="M510.603,-1024.18C520.488,-1021.19 531.396,-1017.41 541,-1013 566.199,-1001.42 592.88,-984.151 610.887,-971.656"/>
<polygon fill="midnightblue" stroke="midnightblue" points="613.302,-974.236 619.459,-965.613 609.269,-968.515 613.302,-974.236"/>
</g>
<!-- Node8&#45;&gt;Node6 -->
<g id="edge11" class="edge"><title>Node8&#45;&gt;Node6</title>
<path fill="none" stroke="midnightblue" d="M510.721,-1028.85C551.475,-1024.53 626.294,-1016.34 690,-1008 698.317,-1006.91 707.034,-1005.71 715.673,-1004.48"/>
<polygon fill="midnightblue" stroke="midnightblue" points="716.349,-1007.92 725.749,-1003.03 715.353,-1000.99 716.349,-1007.92"/>
</g>
<!-- Node9&#45;&gt;Node4 -->
<g id="edge13" class="edge"><title>Node9&#45;&gt;Node4</title>
<path fill="none" stroke="midnightblue" d="M513.538,-986.92C522.846,-984.069 532.69,-980.191 541,-975 560.731,-962.675 557.428,-949.576 577,-937 583.303,-932.95 590.566,-929.659 597.718,-927.025"/>
<polygon fill="midnightblue" stroke="midnightblue" points="598.92,-930.313 607.299,-923.83 596.706,-923.673 598.92,-930.313"/>
</g>
<!-- Node9&#45;&gt;Node5 -->
<g id="edge14" class="edge"><title>Node9&#45;&gt;Node5</title>
<path fill="none" stroke="midnightblue" d="M513.857,-985.661C534.563,-980.484 561.513,-973.747 584.493,-968.002"/>
<polygon fill="midnightblue" stroke="midnightblue" points="585.549,-971.346 594.401,-965.525 583.851,-964.555 585.549,-971.346"/>
</g>
<!-- Node9&#45;&gt;Node6 -->
<g id="edge15" class="edge"><title>Node9&#45;&gt;Node6</title>
<path fill="none" stroke="midnightblue" d="M513.666,-994C561.85,-994 652.34,-994 715.516,-994"/>
<polygon fill="midnightblue" stroke="midnightblue" points="715.801,-997.5 725.801,-994 715.801,-990.5 715.801,-997.5"/>
</g>
<!-- Node11 -->
<g id="node11" class="node"><title>Node11</title>
<g id="a_node11"><a xlink:href="namespacetlz.html#a0621d598fb83b13bf028f3e6293d04f8" target="_top" xlink:title="tlz::string_arg">
<polygon fill="white" stroke="black" points="441.5,-870.5 441.5,-889.5 517.5,-889.5 517.5,-870.5 441.5,-870.5"/>
<text text-anchor="middle" x="479.5" y="-877.5" font-family="Helvetica,sans-Serif" font-size="10.00">tlz::string_arg</text>
</a>
</g>
</g>
<!-- Node10&#45;&gt;Node11 -->
<g id="edge17" class="edge"><title>Node10&#45;&gt;Node11</title>
<path fill="none" stroke="midnightblue" d="M361.492,-851.589C382.772,-856.756 409.168,-863.165 431.501,-868.588"/>
<polygon fill="midnightblue" stroke="midnightblue" points="430.899,-872.044 441.443,-871.002 432.551,-865.241 430.899,-872.044"/>
</g>
<!-- Node11&#45;&gt;Node4 -->
<g id="edge18" class="edge"><title>Node11&#45;&gt;Node4</title>
<path fill="none" stroke="midnightblue" d="M517.683,-889.296C541.985,-895.371 573.524,-903.256 597.397,-909.224"/>
<polygon fill="midnightblue" stroke="midnightblue" points="596.564,-912.624 607.115,-911.654 598.262,-905.833 596.564,-912.624"/>
</g>
<!-- Node11&#45;&gt;Node5 -->
<g id="edge19" class="edge"><title>Node11&#45;&gt;Node5</title>
<path fill="none" stroke="midnightblue" d="M494.712,-889.648C513.105,-901.836 546.426,-922.916 577,-937 581.622,-939.129 586.554,-941.151 591.5,-943.027"/>
<polygon fill="midnightblue" stroke="midnightblue" points="590.353,-946.334 600.947,-946.442 592.733,-939.751 590.353,-946.334"/>
</g>
<!-- Node12&#45;&gt;Node4 -->
<g id="edge21" class="edge"><title>Node12&#45;&gt;Node4</title>
<path fill="none" stroke="midnightblue" d="M211.125,-689.901C307.403,-680.003 488.8,-666.94 541,-702 543.204,-703.48 602.585,-846.003 624.486,-898.7"/>
<polygon fill="midnightblue" stroke="midnightblue" points="621.379,-900.345 628.448,-908.237 627.844,-897.659 621.379,-900.345"/>
</g>
<!-- Node12&#45;&gt;Node5 -->
<g id="edge26" class="edge"><title>Node12&#45;&gt;Node5</title>
<path fill="none" stroke="midnightblue" d="M211.01,-698.64C259.239,-701.874 327.312,-710.824 382,-735 464.467,-771.456 484.901,-790.412 541,-861 564.254,-890.26 549.127,-912.1 577,-937 578.759,-938.571 580.653,-940.014 582.645,-941.338"/>
<polygon fill="midnightblue" stroke="midnightblue" points="581.428,-944.663 591.877,-946.417 584.803,-938.53 581.428,-944.663"/>
</g>
<!-- Node13 -->
<g id="node13" class="node"><title>Node13</title>
<g id="a_node13"><a xlink:href="classtlz_1_1args__list.html#a4aee93f4b0d9b5b4e7a5d13cb637337c" target="_top" xlink:title="tlz::args_list::has\l_next_arg">
<polygon fill="white" stroke="black" points="275,-783 275,-813 367,-813 367,-783 275,-783"/>
<text text-anchor="start" x="283" y="-801" font-family="Helvetica,sans-Serif" font-size="10.00">tlz::args_list::has</text>
<text text-anchor="middle" x="321" y="-790" font-family="Helvetica,sans-Serif" font-size="10.00">_next_arg</text>
</a>
</g>
</g>
<!-- Node12&#45;&gt;Node13 -->
<g id="edge22" class="edge"><title>Node12&#45;&gt;Node13</title>
<path fill="none" stroke="midnightblue" d="M161.992,-706.547C181.647,-721.897 222.308,-752.424 260,-773 263.521,-774.922 267.221,-776.792 270.982,-778.588"/>
<polygon fill="midnightblue" stroke="midnightblue" points="269.841,-781.915 280.392,-782.886 272.75,-775.548 269.841,-781.915"/>
</g>
<!-- Node14 -->
<g id="node14" class="node"><title>Node14</title>
<g id="a_node14"><a xlink:href="classtlz_1_1args__list.html#ae7c07d1c8f24c2aa4fe0ba68ec45d353" target="_top" xlink:title="tlz::args_list::next\l_arg_is">
<polygon fill="white" stroke="black" points="586,-745 586,-775 681,-775 681,-745 586,-745"/>
<text text-anchor="start" x="594" y="-763" font-family="Helvetica,sans-Serif" font-size="10.00">tlz::args_list::next</text>
<text text-anchor="middle" x="633.5" y="-752" font-family="Helvetica,sans-Serif" font-size="10.00">_arg_is</text>
</a>
</g>
</g>
<!-- Node12&#45;&gt;Node14 -->
<g id="edge23" class="edge"><title>Node12&#45;&gt;Node14</title>
<path fill="none" stroke="midnightblue" d="M174.157,-687.392C237.429,-663.784 412.002,-608.745 541,-664 575.005,-678.566 602.369,-712.664 618.032,-736.038"/>
<polygon fill="midnightblue" stroke="midnightblue" points="615.27,-738.212 623.639,-744.709 621.148,-734.411 615.27,-738.212"/>
</g>
<!-- Node15 -->
<g id="node15" class="node"><title>Node15</title>
<g id="a_node15"><a xlink:href="namespacetlz.html#a0783a9e66143c507b2680fc68834657c" target="_top" xlink:title="tlz::out_dirname_arg">
<polygon fill="white" stroke="black" points="268.5,-744.5 268.5,-763.5 373.5,-763.5 373.5,-744.5 268.5,-744.5"/>
<text text-anchor="middle" x="321" y="-751.5" font-family="Helvetica,sans-Serif" font-size="10.00">tlz::out_dirname_arg</text>
</a>
</g>
</g>
<!-- Node12&#45;&gt;Node15 -->
<g id="edge27" class="edge"><title>Node12&#45;&gt;Node15</title>
<path fill="none" stroke="midnightblue" d="M178.454,-706.541C206.771,-716.035 250.41,-730.667 281.746,-741.174"/>
<polygon fill="midnightblue" stroke="midnightblue" points="280.859,-744.568 291.453,-744.428 283.084,-737.931 280.859,-744.568"/>
</g>
<!-- Node14&#45;&gt;Node6 -->
<g id="edge24" class="edge"><title>Node14&#45;&gt;Node6</title>
<path fill="none" stroke="midnightblue" d="M644.375,-775.353C671.06,-816.844 744.533,-931.082 773.266,-975.755"/>
<polygon fill="midnightblue" stroke="midnightblue" points="770.478,-977.892 778.831,-984.409 776.366,-974.105 770.478,-977.892"/>
</g>
<!-- Node14&#45;&gt;Node7 -->
<g id="edge25" class="edge"><title>Node14&#45;&gt;Node7</title>
<path fill="none" stroke="midnightblue" d="M681.294,-760C699.991,-760 721.437,-760 739.956,-760"/>
<polygon fill="midnightblue" stroke="midnightblue" points="740.192,-763.5 750.192,-760 740.192,-756.5 740.192,-763.5"/>
</g>
<!-- Node15&#45;&gt;Node11 -->
<g id="edge28" class="edge"><title>Node15&#45;&gt;Node11</title>
<path fill="none" stroke="midnightblue" d="M360.478,-763.575C367.942,-766.315 375.466,-769.747 382,-774 418.458,-797.731 450.119,-838.474 466.536,-861.933"/>
<polygon fill="midnightblue" stroke="midnightblue" points="463.711,-864.002 472.244,-870.282 469.489,-860.051 463.711,-864.002"/>
</g>
<!-- Node16&#45;&gt;Node4 -->
<g id="edge30" class="edge"><title>Node16&#45;&gt;Node4</title>
<path fill="none" stroke="midnightblue" d="M193.72,-888.793C213.828,-892.517 238.043,-896.553 260,-899 383.143,-912.725 530.309,-916.548 596.788,-917.603"/>
<polygon fill="midnightblue" stroke="midnightblue" points="597.072,-921.107 607.122,-917.755 597.175,-914.108 597.072,-921.107"/>
</g>
<!-- Node16&#45;&gt;Node13 -->
<g id="edge31" class="edge"><title>Node16&#45;&gt;Node13</title>
<path fill="none" stroke="midnightblue" d="M167.304,-870.463C188.785,-858.757 226.668,-838.548 260,-823 264.139,-821.07 268.468,-819.125 272.825,-817.218"/>
<polygon fill="midnightblue" stroke="midnightblue" points="274.538,-820.292 282.342,-813.126 271.773,-813.861 274.538,-820.292"/>
</g>
<!-- Node17 -->
<g id="node17" class="node"><title>Node17</title>
<g id="a_node17"><a xlink:href="namespacetlz.html#ac18630fe66cc71c8cc5eb6acce057f5f" target="_top" xlink:title="tlz::bool_arg">
<polygon fill="white" stroke="black" points="444.5,-946.5 444.5,-965.5 514.5,-965.5 514.5,-946.5 444.5,-946.5"/>
<text text-anchor="middle" x="479.5" y="-953.5" font-family="Helvetica,sans-Serif" font-size="10.00">tlz::bool_arg</text>
</a>
</g>
</g>
<!-- Node16&#45;&gt;Node17 -->
<g id="edge32" class="edge"><title>Node16&#45;&gt;Node17</title>
<path fill="none" stroke="midnightblue" d="M165.741,-889.51C186.524,-901.572 224.631,-922.002 260,-932 318.646,-948.578 389.152,-953.812 433.899,-955.404"/>
<polygon fill="midnightblue" stroke="midnightblue" points="434.042,-958.91 444.145,-955.721 434.258,-951.914 434.042,-958.91"/>
</g>
<!-- Node18 -->
<g id="node18" class="node"><title>Node18</title>
<g id="a_node18"><a xlink:href="namespacetlz.html#abea9308e4287a82deb9e44e7cc9782a0" target="_top" xlink:title="tlz::view_index_arg">
<polygon fill="white" stroke="black" points="270.5,-870.5 270.5,-889.5 371.5,-889.5 371.5,-870.5 270.5,-870.5"/>
<text text-anchor="middle" x="321" y="-877.5" font-family="Helvetica,sans-Serif" font-size="10.00">tlz::view_index_arg</text>
</a>
</g>
</g>
<!-- Node16&#45;&gt;Node18 -->
<g id="edge35" class="edge"><title>Node16&#45;&gt;Node18</title>
<path fill="none" stroke="midnightblue" d="M193.779,-880C213.992,-880 238.308,-880 260.18,-880"/>
<polygon fill="midnightblue" stroke="midnightblue" points="260.361,-883.5 270.361,-880 260.361,-876.5 260.361,-883.5"/>
</g>
<!-- Node17&#45;&gt;Node4 -->
<g id="edge33" class="edge"><title>Node17&#45;&gt;Node4</title>
<path fill="none" stroke="midnightblue" d="M514.612,-947.472C539.383,-941.279 572.788,-932.928 597.714,-926.696"/>
<polygon fill="midnightblue" stroke="midnightblue" points="598.637,-930.074 607.489,-924.253 596.939,-923.283 598.637,-930.074"/>
</g>
<!-- Node17&#45;&gt;Node5 -->
<g id="edge34" class="edge"><title>Node17&#45;&gt;Node5</title>
<path fill="none" stroke="midnightblue" d="M514.612,-956C529.975,-956 548.66,-956 566.584,-956"/>
<polygon fill="midnightblue" stroke="midnightblue" points="566.726,-959.5 576.726,-956 566.726,-952.5 566.726,-959.5"/>
</g>
<!-- Node18&#45;&gt;Node11 -->
<g id="edge36" class="edge"><title>Node18&#45;&gt;Node11</title>
<path fill="none" stroke="midnightblue" d="M371.518,-880C390.558,-880 412.234,-880 431.074,-880"/>
<polygon fill="midnightblue" stroke="midnightblue" points="431.213,-883.5 441.213,-880 431.213,-876.5 431.213,-883.5"/>
</g>
<!-- Node20 -->
<g id="node20" class="node"><title>Node20</title>
<g id="a_node20"><a xlink:href="structtlz_1_1checkerboard.html#a44b150a25091e74cfaec42635d392369" target="_top" xlink:title="tlz::checkerboard::\lcheckerboard">
<polygon fill="white" stroke="black" points="272,-543 272,-573 370,-573 370,-543 272,-543"/>
<text text-anchor="start" x="280" y="-561" font-family="Helvetica,sans-Serif" font-size="10.00">tlz::checkerboard::</text>
<text text-anchor="middle" x="321" y="-550" font-family="Helvetica,sans-Serif" font-size="10.00">checkerboard</text>
</a>
</g>
</g>
<!-- Node19&#45;&gt;Node20 -->
<g id="edge39" class="edge"><title>Node19&#45;&gt;Node20</title>
<path fill="none" stroke="midnightblue" d="M224.07,-556.307C236.527,-556.527 249.302,-556.752 261.301,-556.964"/>
<polygon fill="midnightblue" stroke="midnightblue" points="261.559,-560.469 271.619,-557.146 261.682,-553.47 261.559,-560.469"/>
</g>
<!-- Node21&#45;&gt;Node20 -->
<g id="edge41" class="edge"><title>Node21&#45;&gt;Node20</title>
<path fill="none" stroke="midnightblue" d="M185.224,-521.531C207.375,-527.525 236.49,-535.403 261.989,-542.303"/>
<polygon fill="midnightblue" stroke="midnightblue" points="261.36,-545.759 271.927,-544.992 263.189,-539.002 261.36,-545.759"/>
</g>
<!-- Node22 -->
<g id="node22" class="node"><title>Node22</title>
<g id="a_node22"><a xlink:href="structtlz_1_1checkerboard.html#aa0961b41552bc73fc4f75d2dca128637" target="_top" xlink:title="tlz::checkerboard::\lcorner">
<polygon fill="white" stroke="black" points="272,-494 272,-524 370,-524 370,-494 272,-494"/>
<text text-anchor="start" x="280" y="-512" font-family="Helvetica,sans-Serif" font-size="10.00">tlz::checkerboard::</text>
<text text-anchor="middle" x="321" y="-501" font-family="Helvetica,sans-Serif" font-size="10.00">corner</text>
</a>
</g>
</g>
<!-- Node21&#45;&gt;Node22 -->
<g id="edge42" class="edge"><title>Node21&#45;&gt;Node22</title>
<path fill="none" stroke="midnightblue" d="M216.213,-510.832C231.142,-510.568 246.885,-510.29 261.472,-510.033"/>
<polygon fill="midnightblue" stroke="midnightblue" points="261.925,-513.525 271.862,-509.849 261.802,-506.527 261.925,-513.525"/>
</g>
<!-- Node24 -->
<g id="node24" class="node"><title>Node24</title>
<g id="a_node24"><a xlink:href="namespacetlz.html#acc37da60bde41595da4139110c2d36e6" target="_top" xlink:title="tlz::checkerboard_world\l_corners">
<polygon fill="white" stroke="black" points="419.5,-347 419.5,-377 539.5,-377 539.5,-347 419.5,-347"/>
<text text-anchor="start" x="427.5" y="-365" font-family="Helvetica,sans-Serif" font-size="10.00">tlz::checkerboard_world</text>
<text text-anchor="middle" x="479.5" y="-354" font-family="Helvetica,sans-Serif" font-size="10.00">_corners</text>
</a>
</g>
</g>
<!-- Node23&#45;&gt;Node24 -->
<g id="edge44" class="edge"><title>Node23&#45;&gt;Node24</title>
<path fill="none" stroke="midnightblue" d="M210.228,-464.427C215.269,-461.94 219.969,-458.845 224,-455 263.367,-417.447 216.236,-370.323 260,-338 312.412,-299.29 392.104,-322.89 439.374,-342.905"/>
<polygon fill="midnightblue" stroke="midnightblue" points="438.098,-346.167 448.663,-346.969 440.904,-339.754 438.098,-346.167"/>
</g>
<!-- Node25 -->
<g id="node25" class="node"><title>Node25</title>
<g id="a_node25"><a xlink:href="namespacetlz.html#ac4a9d8aef6e9eed327aedbb69975cfb9" target="_top" xlink:title="tlz::checkerboard_obj\l_img_correspondences">
<polygon fill="white" stroke="black" points="262.5,-347 262.5,-377 379.5,-377 379.5,-347 262.5,-347"/>
<text text-anchor="start" x="270.5" y="-365" font-family="Helvetica,sans-Serif" font-size="10.00">tlz::checkerboard_obj</text>
<text text-anchor="middle" x="321" y="-354" font-family="Helvetica,sans-Serif" font-size="10.00">_img_correspondences</text>
</a>
</g>
</g>
<!-- Node23&#45;&gt;Node25 -->
<g id="edge45" class="edge"><title>Node23&#45;&gt;Node25</title>
<path fill="none" stroke="midnightblue" d="M207.644,-464.404C213.512,-461.942 219.104,-458.86 224,-455 250.854,-433.829 234.732,-410.042 260,-387 261.694,-385.456 263.496,-383.999 265.38,-382.625"/>
<polygon fill="midnightblue" stroke="midnightblue" points="267.492,-385.431 274.071,-377.126 263.749,-379.515 267.492,-385.431"/>
</g>
<!-- Node27 -->
<g id="node27" class="node"><title>Node27</title>
<g id="a_node27"><a xlink:href="namespacetlz.html#ad1dd4f34c6ed90450cf085bc95f0a393" target="_top" xlink:title="tlz::encode_obj_img\l_correspondences_set">
<polygon fill="white" stroke="black" points="263.5,-445 263.5,-475 378.5,-475 378.5,-445 263.5,-445"/>
<text text-anchor="start" x="271.5" y="-463" font-family="Helvetica,sans-Serif" font-size="10.00">tlz::encode_obj_img</text>
<text text-anchor="middle" x="321" y="-452" font-family="Helvetica,sans-Serif" font-size="10.00">_correspondences_set</text>
</a>
</g>
</g>
<!-- Node23&#45;&gt;Node27 -->
<g id="edge48" class="edge"><title>Node23&#45;&gt;Node27</title>
<path fill="none" stroke="midnightblue" d="M217.189,-468.467C229.032,-467.491 241.359,-466.476 253.193,-465.502"/>
<polygon fill="midnightblue" stroke="midnightblue" points="253.761,-468.967 263.44,-464.658 253.187,-461.99 253.761,-468.967"/>
</g>
<!-- Node28 -->
<g id="node28" class="node"><title>Node28</title>
<g id="a_node28"><a xlink:href="namespacetlz.html#a37c58db2fc50f660edd9245c26e1c097" target="_top" xlink:title="tlz::checkerboard_obj\l_2img_correspondences">
<polygon fill="white" stroke="black" points="260,-396 260,-426 382,-426 382,-396 260,-396"/>
<text text-anchor="start" x="268" y="-414" font-family="Helvetica,sans-Serif" font-size="10.00">tlz::checkerboard_obj</text>
<text text-anchor="middle" x="321" y="-403" font-family="Helvetica,sans-Serif" font-size="10.00">_2img_correspondences</text>
</a>
</g>
</g>
<!-- Node23&#45;&gt;Node28 -->
<g id="edge49" class="edge"><title>Node23&#45;&gt;Node28</title>
<path fill="none" stroke="midnightblue" d="M194.359,-464.415C204.254,-461.781 214.596,-458.631 224,-455 240.877,-448.484 243.633,-443.709 260,-436 264.131,-434.054 268.456,-432.098 272.809,-430.185"/>
<polygon fill="midnightblue" stroke="midnightblue" points="274.525,-433.257 282.322,-426.084 271.754,-426.829 274.525,-433.257"/>
</g>
<!-- Node29 -->
<g id="node29" class="node"><title>Node29</title>
<g id="a_node29"><a xlink:href="namespacetlz.html#ab98de0b10e3e079dee189f81adc638a0" target="_top" xlink:title="tlz::export_json_file">
<polygon fill="white" stroke="black" points="270.5,-270.5 270.5,-289.5 371.5,-289.5 371.5,-270.5 270.5,-270.5"/>
<text text-anchor="middle" x="321" y="-277.5" font-family="Helvetica,sans-Serif" font-size="10.00">tlz::export_json_file</text>
</a>
</g>
</g>
<!-- Node23&#45;&gt;Node29 -->
<g id="edge52" class="edge"><title>Node23&#45;&gt;Node29</title>
<path fill="none" stroke="midnightblue" d="M211.202,-464.328C215.917,-461.849 220.281,-458.784 224,-455 272.361,-405.795 214.915,-356.223 260,-304 263.221,-300.269 267.104,-297.111 271.327,-294.441"/>
<polygon fill="midnightblue" stroke="midnightblue" points="273.194,-297.411 280.368,-289.614 269.898,-291.236 273.194,-297.411"/>
</g>
<!-- Node25&#45;&gt;Node24 -->
<g id="edge46" class="edge"><title>Node25&#45;&gt;Node24</title>
<path fill="none" stroke="midnightblue" d="M379.83,-362C389.395,-362 399.396,-362 409.208,-362"/>
<polygon fill="midnightblue" stroke="midnightblue" points="409.338,-365.5 419.338,-362 409.338,-358.5 409.338,-365.5"/>
</g>
<!-- Node26 -->
<g id="node26" class="node"><title>Node26</title>
<g id="a_node26"><a xlink:href="namespacetlz.html#a6693dca816d6f48429d1c607ced26f3b" target="_top" xlink:title="tlz::checkerboard_image\l_corners">
<polygon fill="white" stroke="black" points="418,-396 418,-426 541,-426 541,-396 418,-396"/>
<text text-anchor="start" x="426" y="-414" font-family="Helvetica,sans-Serif" font-size="10.00">tlz::checkerboard_image</text>
<text text-anchor="middle" x="479.5" y="-403" font-family="Helvetica,sans-Serif" font-size="10.00">_corners</text>
</a>
</g>
</g>
<!-- Node25&#45;&gt;Node26 -->
<g id="edge47" class="edge"><title>Node25&#45;&gt;Node26</title>
<path fill="none" stroke="midnightblue" d="M370.232,-377.101C386.223,-382.108 404.186,-387.732 420.815,-392.939"/>
<polygon fill="midnightblue" stroke="midnightblue" points="419.838,-396.301 430.427,-395.948 421.93,-389.62 419.838,-396.301"/>
</g>
<!-- Node28&#45;&gt;Node24 -->
<g id="edge50" class="edge"><title>Node28&#45;&gt;Node24</title>
<path fill="none" stroke="midnightblue" d="M370.232,-395.899C386.223,-390.892 404.186,-385.268 420.815,-380.061"/>
<polygon fill="midnightblue" stroke="midnightblue" points="421.93,-383.38 430.427,-377.052 419.838,-376.699 421.93,-383.38"/>
</g>
<!-- Node28&#45;&gt;Node26 -->
<g id="edge51" class="edge"><title>Node28&#45;&gt;Node26</title>
<path fill="none" stroke="midnightblue" d="M382.059,-411C390.485,-411 399.209,-411 407.81,-411"/>
<polygon fill="midnightblue" stroke="midnightblue" points="407.825,-414.5 417.825,-411 407.825,-407.5 407.825,-414.5"/>
</g>
<!-- Node30 -->
<g id="node30" class="node"><title>Node30</title>
<g id="a_node30"><a xlink:href="namespacetlz.html#ae11c827ac9e581f9d2f98c39aab3750d" target="_top" xlink:title="tlz::file_name_extension">
<polygon fill="white" stroke="black" points="418.5,-270.5 418.5,-289.5 540.5,-289.5 540.5,-270.5 418.5,-270.5"/>
<text text-anchor="middle" x="479.5" y="-277.5" font-family="Helvetica,sans-Serif" font-size="10.00">tlz::file_name_extension</text>
</a>
</g>
</g>
<!-- Node29&#45;&gt;Node30 -->
<g id="edge53" class="edge"><title>Node29&#45;&gt;Node30</title>
<path fill="none" stroke="midnightblue" d="M371.518,-280C383.131,-280 395.725,-280 408.058,-280"/>
<polygon fill="midnightblue" stroke="midnightblue" points="408.329,-283.5 418.329,-280 408.329,-276.5 408.329,-283.5"/>
</g>
<!-- Node34 -->
<g id="node34" class="node"><title>Node34</title>
<g id="a_node34"><a xlink:href="classtlz_1_1viewer.html#af74a8aef9dde68eeff6b1e2561b39014" target="_top" xlink:title="tlz::viewer::height">
<polygon fill="white" stroke="black" points="274,-194.5 274,-213.5 368,-213.5 368,-194.5 274,-194.5"/>
<text text-anchor="middle" x="321" y="-201.5" font-family="Helvetica,sans-Serif" font-size="10.00">tlz::viewer::height</text>
</a>
</g>
</g>
<!-- Node33&#45;&gt;Node34 -->
<g id="edge57" class="edge"><title>Node33&#45;&gt;Node34</title>
<path fill="none" stroke="midnightblue" d="M193.863,-305.035C204.536,-302.209 215.355,-297.816 224,-291 250.854,-269.829 233.742,-244.906 260,-223 262.019,-221.316 264.188,-219.78 266.462,-218.38"/>
<polygon fill="midnightblue" stroke="midnightblue" points="268.379,-221.33 275.653,-213.626 265.163,-215.112 268.379,-221.33"/>
</g>
<!-- Node35 -->
<g id="node35" class="node"><title>Node35</title>
<g id="a_node35"><a xlink:href="classtlz_1_1viewer.html#acc43bf1dd1d0c3cdc35a948d4c194769" target="_top" xlink:title="tlz::viewer::width">
<polygon fill="white" stroke="black" points="275.5,-232.5 275.5,-251.5 366.5,-251.5 366.5,-232.5 275.5,-232.5"/>
<text text-anchor="middle" x="321" y="-239.5" font-family="Helvetica,sans-Serif" font-size="10.00">tlz::viewer::width</text>
</a>
</g>
</g>
<!-- Node33&#45;&gt;Node35 -->
<g id="edge58" class="edge"><title>Node33&#45;&gt;Node35</title>
<path fill="none" stroke="midnightblue" d="M193.831,-302.158C204.054,-299.411 214.672,-295.774 224,-291 242.54,-281.511 241.729,-270.998 260,-261 263.934,-258.847 268.15,-256.896 272.455,-255.137"/>
<polygon fill="midnightblue" stroke="midnightblue" points="273.804,-258.37 281.948,-251.592 271.355,-251.812 273.804,-258.37"/>
</g>
<!-- Node39&#45;&gt;Node34 -->
<g id="edge64" class="edge"><title>Node39&#45;&gt;Node34</title>
<path fill="none" stroke="midnightblue" d="M193.874,-344.151C204.794,-341.332 215.73,-336.663 224,-329 260.494,-295.182 224.456,-257.815 260,-223 261.617,-221.416 263.366,-219.964 265.214,-218.633"/>
<polygon fill="midnightblue" stroke="midnightblue" points="267.018,-221.632 273.853,-213.537 263.462,-215.602 267.018,-221.632"/>
</g>
<!-- Node39&#45;&gt;Node35 -->
<g id="edge63" class="edge"><title>Node39&#45;&gt;Node35</title>
<path fill="none" stroke="midnightblue" d="M193.863,-343.035C204.536,-340.209 215.355,-335.816 224,-329 250.854,-307.829 233.742,-282.906 260,-261 262.019,-259.316 264.188,-257.78 266.462,-256.38"/>
<polygon fill="midnightblue" stroke="midnightblue" points="268.379,-259.33 275.653,-251.626 265.163,-253.112 268.379,-259.33"/>
</g>
<!-- Node41 -->
<g id="node41" class="node"><title>Node41</title>
<g id="a_node41"><a xlink:href="structtlz_1_1checkerboard.html#a2684fe6c45bc112b0a5c3d6e833ba22e" target="_top" xlink:title="tlz::checkerboard::\louter_corners_i">
<polygon fill="white" stroke="black" points="272,-109 272,-139 370,-139 370,-109 272,-109"/>
<text text-anchor="start" x="280" y="-127" font-family="Helvetica,sans-Serif" font-size="10.00">tlz::checkerboard::</text>
<text text-anchor="middle" x="321" y="-116" font-family="Helvetica,sans-Serif" font-size="10.00">outer_corners_i</text>
</a>
</g>
</g>
<!-- Node40&#45;&gt;Node41 -->
<g id="edge66" class="edge"><title>Node40&#45;&gt;Node41</title>
<path fill="none" stroke="midnightblue" d="M216.701,-124C231.521,-124 247.121,-124 261.58,-124"/>
<polygon fill="midnightblue" stroke="midnightblue" points="261.88,-127.5 271.88,-124 261.88,-120.5 261.88,-127.5"/>
</g>
</g>
</svg>
