<?xml version="1.0" encoding="UTF-8" standalone="no"?>
<!DOCTYPE svg PUBLIC "-//W3C//DTD SVG 1.1//EN"
 "http://www.w3.org/Graphics/SVG/1.1/DTD/svg11.dtd">
<!-- Generated by graphviz version 2.38.0 (20140413.2041)
 -->
<!-- Title: tlz::dataset::operator[] Pages: 1 -->
<svg width="834pt" height="461pt"
 viewBox="0.00 0.00 834.00 460.50" xmlns="http://www.w3.org/2000/svg" xmlns:xlink="http://www.w3.org/1999/xlink">
<g id="graph0" class="graph" transform="scale(1 1) rotate(0) translate(4 456.5)">
<title>tlz::dataset::operator[]</title>
<polygon fill="white" stroke="none" points="-4,4 -4,-456.5 830,-456.5 830,4 -4,4"/>
<!-- Node1 -->
<g id="node1" class="node"><title>Node1</title>
<polygon fill="#bfbfbf" stroke="black" points="0,-188.5 0,-207.5 113,-207.5 113,-188.5 0,-188.5"/>
<text text-anchor="middle" x="56.5" y="-195.5" font-family="Helvetica,sans-Serif" font-size="10.00">tlz::dataset::operator[]</text>
</g>
<!-- Node2 -->
<g id="node2" class="node"><title>Node2</title>
<g id="a_node2"><a xlink:href="classtlz_1_1dataset__view.html#a00864b19071f222dc4c425c4bf2251ae" target="_top" xlink:title="tlz::dataset_view::x">
<polygon fill="white" stroke="black" points="149,-264.5 149,-283.5 251,-283.5 251,-264.5 149,-264.5"/>
<text text-anchor="middle" x="200" y="-271.5" font-family="Helvetica,sans-Serif" font-size="10.00">tlz::dataset_view::x</text>
</a>
</g>
</g>
<!-- Node1&#45;&gt;Node2 -->
<g id="edge1" class="edge"><title>Node1&#45;&gt;Node2</title>
<path fill="none" stroke="midnightblue" d="M70.9694,-207.556C88.4023,-219.646 119.99,-240.622 149,-255 153.041,-257.003 157.347,-258.929 161.674,-260.736"/>
<polygon fill="midnightblue" stroke="midnightblue" points="160.497,-264.035 171.082,-264.485 163.088,-257.532 160.497,-264.035"/>
</g>
<!-- Node3 -->
<g id="node3" class="node"><title>Node3</title>
<g id="a_node3"><a xlink:href="classtlz_1_1dataset__view.html#a78add0e028ef4b1bea46c9a68409dbe8" target="_top" xlink:title="tlz::dataset_view::y">
<polygon fill="white" stroke="black" points="149,-226.5 149,-245.5 251,-245.5 251,-226.5 149,-226.5"/>
<text text-anchor="middle" x="200" y="-233.5" font-family="Helvetica,sans-Serif" font-size="10.00">tlz::dataset_view::y</text>
</a>
</g>
</g>
<!-- Node1&#45;&gt;Node3 -->
<g id="edge2" class="edge"><title>Node1&#45;&gt;Node3</title>
<path fill="none" stroke="midnightblue" d="M93.2064,-207.589C111.473,-212.494 133.908,-218.52 153.411,-223.757"/>
<polygon fill="midnightblue" stroke="midnightblue" points="152.739,-227.201 163.305,-226.414 154.555,-220.44 152.739,-227.201"/>
</g>
<!-- Node13 -->
<g id="node13" class="node"><title>Node13</title>
<g id="a_node13"><a xlink:href="classtlz_1_1dataset__view.html#a3bd68edab92df988a6b0c13d65b6bfca" target="_top" xlink:title="tlz::dataset_view::\lgroup">
<polygon fill="white" stroke="black" points="289,-109 289,-139 386,-139 386,-109 289,-109"/>
<text text-anchor="start" x="297" y="-127" font-family="Helvetica,sans-Serif" font-size="10.00">tlz::dataset_view::</text>
<text text-anchor="middle" x="337.5" y="-116" font-family="Helvetica,sans-Serif" font-size="10.00">group</text>
</a>
</g>
</g>
<!-- Node1&#45;&gt;Node13 -->
<g id="edge22" class="edge"><title>Node1&#45;&gt;Node13</title>
<path fill="none" stroke="midnightblue" d="M93.4032,-188.477C140.331,-176.031 223.09,-154.08 278.852,-139.29"/>
<polygon fill="midnightblue" stroke="midnightblue" points="279.822,-142.654 288.59,-136.707 278.027,-135.888 279.822,-142.654"/>
</g>
<!-- Node16 -->
<g id="node16" class="node"><title>Node16</title>
<g id="a_node16"><a xlink:href="namespacetlz.html#a91f1aec7120c97452c495ee447e56b57" target="_top" xlink:title="tlz::dataset_arg">
<polygon fill="white" stroke="black" points="158,-110.5 158,-129.5 242,-129.5 242,-110.5 158,-110.5"/>
<text text-anchor="middle" x="200" y="-117.5" font-family="Helvetica,sans-Serif" font-size="10.00">tlz::dataset_arg</text>
</a>
</g>
</g>
<!-- Node1&#45;&gt;Node16 -->
<g id="edge23" class="edge"><title>Node1&#45;&gt;Node16</title>
<path fill="none" stroke="midnightblue" d="M74.6634,-188.344C93.0223,-178.036 123.011,-161.259 149,-147 156.419,-142.929 164.48,-138.555 171.92,-134.538"/>
<polygon fill="midnightblue" stroke="midnightblue" points="173.774,-137.515 180.917,-129.69 170.453,-131.353 173.774,-137.515"/>
</g>
<!-- Node4 -->
<g id="node4" class="node"><title>Node4</title>
<g id="a_node4"><a xlink:href="classtlz_1_1dataset__view.html#a4951a6300847e0fed4fecf79d8753b58" target="_top" xlink:title="tlz::dataset_view::\llocal_parameters">
<polygon fill="white" stroke="black" points="565,-356 565,-386 662,-386 662,-356 565,-356"/>
<text text-anchor="start" x="573" y="-374" font-family="Helvetica,sans-Serif" font-size="10.00">tlz::dataset_view::</text>
<text text-anchor="middle" x="613.5" y="-363" font-family="Helvetica,sans-Serif" font-size="10.00">local_parameters</text>
</a>
</g>
</g>
<!-- Node3&#45;&gt;Node4 -->
<g id="edge3" class="edge"><title>Node3&#45;&gt;Node4</title>
<path fill="none" stroke="midnightblue" d="M238.122,-245.577C242.908,-248.041 247.389,-251.13 251,-255 288.693,-295.404 242.63,-341.067 287,-374 327.948,-404.393 472.93,-390.443 554.914,-379.566"/>
<polygon fill="midnightblue" stroke="midnightblue" points="555.391,-383.033 564.831,-378.224 554.452,-376.096 555.391,-383.033"/>
</g>
<!-- Node6 -->
<g id="node6" class="node"><title>Node6</title>
<g id="a_node6"><a xlink:href="classtlz_1_1dataset__view.html#a327a842dc304656596d65b9bbf52fb1c" target="_top" xlink:title="tlz::dataset_view::\llocal_filename">
<polygon fill="white" stroke="black" points="424,-290 424,-320 521,-320 521,-290 424,-290"/>
<text text-anchor="start" x="432" y="-308" font-family="Helvetica,sans-Serif" font-size="10.00">tlz::dataset_view::</text>
<text text-anchor="middle" x="472.5" y="-297" font-family="Helvetica,sans-Serif" font-size="10.00">local_filename</text>
</a>
</g>
</g>
<!-- Node3&#45;&gt;Node6 -->
<g id="edge5" class="edge"><title>Node3&#45;&gt;Node6</title>
<path fill="none" stroke="midnightblue" d="M231.096,-245.585C237.844,-248.235 244.827,-251.392 251,-255 268.981,-265.51 267.828,-276.863 287,-285 326.987,-301.97 376.029,-306.613 413.498,-307.206"/>
<polygon fill="midnightblue" stroke="midnightblue" points="413.719,-310.707 423.742,-307.272 413.765,-303.707 413.719,-310.707"/>
</g>
<!-- Node9 -->
<g id="node9" class="node"><title>Node9</title>
<g id="a_node9"><a xlink:href="classtlz_1_1dataset__view.html#a38cfd9cd54168855c54c607d01184c17" target="_top" xlink:title="tlz::dataset_view::\lcamera_name">
<polygon fill="white" stroke="black" points="424,-422 424,-452 521,-452 521,-422 424,-422"/>
<text text-anchor="start" x="432" y="-440" font-family="Helvetica,sans-Serif" font-size="10.00">tlz::dataset_view::</text>
<text text-anchor="middle" x="472.5" y="-429" font-family="Helvetica,sans-Serif" font-size="10.00">camera_name</text>
</a>
</g>
</g>
<!-- Node3&#45;&gt;Node9 -->
<g id="edge9" class="edge"><title>Node3&#45;&gt;Node9</title>
<path fill="none" stroke="midnightblue" d="M238.59,-245.512C243.249,-247.983 247.571,-251.091 251,-255 296.783,-307.189 236.189,-359.692 287,-407 320.61,-438.293 373.437,-444.157 413.966,-443.143"/>
<polygon fill="midnightblue" stroke="midnightblue" points="414.132,-446.639 423.986,-442.748 413.856,-439.645 414.132,-446.639"/>
</g>
<!-- Node10 -->
<g id="node10" class="node"><title>Node10</title>
<g id="a_node10"><a xlink:href="classtlz_1_1dataset__view.html#af3c734eaed33af07993255db63d3fc54" target="_top" xlink:title="tlz::dataset_view::\limage_filename">
<polygon fill="white" stroke="black" points="289,-246 289,-276 386,-276 386,-246 289,-246"/>
<text text-anchor="start" x="297" y="-264" font-family="Helvetica,sans-Serif" font-size="10.00">tlz::dataset_view::</text>
<text text-anchor="middle" x="337.5" y="-253" font-family="Helvetica,sans-Serif" font-size="10.00">image_filename</text>
</a>
</g>
</g>
<!-- Node3&#45;&gt;Node10 -->
<g id="edge11" class="edge"><title>Node3&#45;&gt;Node10</title>
<path fill="none" stroke="midnightblue" d="M251.07,-245.238C260.15,-246.913 269.685,-248.672 278.959,-250.384"/>
<polygon fill="midnightblue" stroke="midnightblue" points="278.416,-253.842 288.886,-252.215 279.687,-246.959 278.416,-253.842"/>
</g>
<!-- Node11 -->
<g id="node11" class="node"><title>Node11</title>
<g id="a_node11"><a xlink:href="classtlz_1_1dataset__view.html#a63238745feff55e3d0bea101589895c1" target="_top" xlink:title="tlz::dataset_view::\ldepth_filename">
<polygon fill="white" stroke="black" points="289,-197 289,-227 386,-227 386,-197 289,-197"/>
<text text-anchor="start" x="297" y="-215" font-family="Helvetica,sans-Serif" font-size="10.00">tlz::dataset_view::</text>
<text text-anchor="middle" x="337.5" y="-204" font-family="Helvetica,sans-Serif" font-size="10.00">depth_filename</text>
</a>
</g>
</g>
<!-- Node3&#45;&gt;Node11 -->
<g id="edge13" class="edge"><title>Node3&#45;&gt;Node11</title>
<path fill="none" stroke="midnightblue" d="M251.07,-227.131C260.15,-225.523 269.685,-223.834 278.959,-222.192"/>
<polygon fill="midnightblue" stroke="midnightblue" points="279.649,-225.624 288.886,-220.434 278.428,-218.731 279.649,-225.624"/>
</g>
<!-- Node12 -->
<g id="node12" class="node"><title>Node12</title>
<g id="a_node12"><a xlink:href="classtlz_1_1dataset__view.html#adcb6370e1971f53a5dc49bbafed33725" target="_top" xlink:title="tlz::dataset_view::\lmask_filename">
<polygon fill="white" stroke="black" points="289,-334 289,-364 386,-364 386,-334 289,-334"/>
<text text-anchor="start" x="297" y="-352" font-family="Helvetica,sans-Serif" font-size="10.00">tlz::dataset_view::</text>
<text text-anchor="middle" x="337.5" y="-341" font-family="Helvetica,sans-Serif" font-size="10.00">mask_filename</text>
</a>
</g>
</g>
<!-- Node3&#45;&gt;Node12 -->
<g id="edge15" class="edge"><title>Node3&#45;&gt;Node12</title>
<path fill="none" stroke="midnightblue" d="M235.846,-245.606C241.287,-248.094 246.566,-251.183 251,-255 275.733,-276.292 264.301,-295.551 287,-319 290.192,-322.298 293.821,-325.373 297.629,-328.202"/>
<polygon fill="midnightblue" stroke="midnightblue" points="295.912,-331.266 306.151,-333.987 299.843,-325.475 295.912,-331.266"/>
</g>
<!-- Node3&#45;&gt;Node13 -->
<g id="edge17" class="edge"><title>Node3&#45;&gt;Node13</title>
<path fill="none" stroke="midnightblue" d="M209.698,-226.45C224.597,-210.393 256.364,-177.446 287,-154 291.339,-150.679 296.068,-147.416 300.826,-144.335"/>
<polygon fill="midnightblue" stroke="midnightblue" points="302.716,-147.281 309.342,-139.014 299.007,-141.344 302.716,-147.281"/>
</g>
<!-- Node14 -->
<g id="node14" class="node"><title>Node14</title>
<g id="a_node14"><a xlink:href="classtlz_1_1dataset__view.html#a1ec7ba844d313cddc558874fe85246a8" target="_top" xlink:title="tlz::dataset_view::\lgroup_view">
<polygon fill="white" stroke="black" points="565,-246 565,-276 662,-276 662,-246 565,-246"/>
<text text-anchor="start" x="573" y="-264" font-family="Helvetica,sans-Serif" font-size="10.00">tlz::dataset_view::</text>
<text text-anchor="middle" x="613.5" y="-253" font-family="Helvetica,sans-Serif" font-size="10.00">group_view</text>
</a>
</g>
</g>
<!-- Node3&#45;&gt;Node14 -->
<g id="edge18" class="edge"><title>Node3&#45;&gt;Node14</title>
<path fill="none" stroke="midnightblue" d="M212.922,-226.495C228.754,-214.542 258.097,-194.656 287,-187 391.224,-159.392 515.875,-210.996 576.216,-241.259"/>
<polygon fill="midnightblue" stroke="midnightblue" points="574.837,-244.485 585.335,-245.918 578.022,-238.251 574.837,-244.485"/>
</g>
<!-- Node5 -->
<g id="node5" class="node"><title>Node5</title>
<g id="a_node5"><a xlink:href="classtlz_1_1dataset.html#ab14f5b1f18c0ab423c18270b7ca46bd2" target="_top" xlink:title="tlz::dataset::parameters">
<polygon fill="white" stroke="black" points="706,-361.5 706,-380.5 826,-380.5 826,-361.5 706,-361.5"/>
<text text-anchor="middle" x="766" y="-368.5" font-family="Helvetica,sans-Serif" font-size="10.00">tlz::dataset::parameters</text>
</a>
</g>
</g>
<!-- Node4&#45;&gt;Node5 -->
<g id="edge4" class="edge"><title>Node4&#45;&gt;Node5</title>
<path fill="none" stroke="midnightblue" d="M662.119,-371C672.734,-371 684.202,-371 695.495,-371"/>
<polygon fill="midnightblue" stroke="midnightblue" points="695.788,-374.5 705.788,-371 695.788,-367.5 695.788,-374.5"/>
</g>
<!-- Node6&#45;&gt;Node4 -->
<g id="edge8" class="edge"><title>Node6&#45;&gt;Node4</title>
<path fill="none" stroke="midnightblue" d="M505.389,-320.142C525.078,-329.491 550.531,-341.576 571.683,-351.619"/>
<polygon fill="midnightblue" stroke="midnightblue" points="570.224,-354.801 580.759,-355.929 573.227,-348.478 570.224,-354.801"/>
</g>
<!-- Node7 -->
<g id="node7" class="node"><title>Node7</title>
<g id="a_node7"><a xlink:href="namespacetlz.html#add846dc50c32dfb356cb1a7ac11d37ac" target="_top" xlink:title="tlz::get_or">
<polygon fill="white" stroke="black" points="583.5,-295.5 583.5,-314.5 643.5,-314.5 643.5,-295.5 583.5,-295.5"/>
<text text-anchor="middle" x="613.5" y="-302.5" font-family="Helvetica,sans-Serif" font-size="10.00">tlz::get_or</text>
</a>
</g>
</g>
<!-- Node6&#45;&gt;Node7 -->
<g id="edge6" class="edge"><title>Node6&#45;&gt;Node7</title>
<path fill="none" stroke="midnightblue" d="M521.336,-305C538.214,-305 556.986,-305 573.088,-305"/>
<polygon fill="midnightblue" stroke="midnightblue" points="573.237,-308.5 583.237,-305 573.237,-301.5 573.237,-308.5"/>
</g>
<!-- Node8 -->
<g id="node8" class="node"><title>Node8</title>
<g id="a_node8"><a xlink:href="namespacetlz.html#a252af14b9b4ac6502d3e9c5dd8dc90b8" target="_top" xlink:title="tlz::has">
<polygon fill="white" stroke="black" points="741.5,-295.5 741.5,-314.5 790.5,-314.5 790.5,-295.5 741.5,-295.5"/>
<text text-anchor="middle" x="766" y="-302.5" font-family="Helvetica,sans-Serif" font-size="10.00">tlz::has</text>
</a>
</g>
</g>
<!-- Node7&#45;&gt;Node8 -->
<g id="edge7" class="edge"><title>Node7&#45;&gt;Node8</title>
<path fill="none" stroke="midnightblue" d="M643.518,-305C668.442,-305 704.415,-305 730.747,-305"/>
<polygon fill="midnightblue" stroke="midnightblue" points="731.028,-308.5 741.028,-305 731.028,-301.5 731.028,-308.5"/>
</g>
<!-- Node9&#45;&gt;Node5 -->
<g id="edge10" class="edge"><title>Node9&#45;&gt;Node5</title>
<path fill="none" stroke="midnightblue" d="M521.3,-427.744C561.185,-419.849 619.46,-407.914 670,-396 686.476,-392.116 704.458,-387.485 720.3,-383.271"/>
<polygon fill="midnightblue" stroke="midnightblue" points="721.611,-386.543 730.364,-380.574 719.799,-379.782 721.611,-386.543"/>
</g>
<!-- Node10&#45;&gt;Node6 -->
<g id="edge12" class="edge"><title>Node10&#45;&gt;Node6</title>
<path fill="none" stroke="midnightblue" d="M383.899,-276.019C394.27,-279.45 405.404,-283.134 416.14,-286.685"/>
<polygon fill="midnightblue" stroke="midnightblue" points="415.261,-290.081 425.854,-289.899 417.459,-283.435 415.261,-290.081"/>
</g>
<!-- Node11&#45;&gt;Node6 -->
<g id="edge14" class="edge"><title>Node11&#45;&gt;Node6</title>
<path fill="none" stroke="midnightblue" d="M372.376,-227.08C377.722,-229.84 383.098,-232.851 388,-236 409.423,-249.762 431.542,-268.269 447.629,-282.651"/>
<polygon fill="midnightblue" stroke="midnightblue" points="445.697,-285.624 455.456,-289.749 450.4,-280.438 445.697,-285.624"/>
</g>
<!-- Node12&#45;&gt;Node6 -->
<g id="edge16" class="edge"><title>Node12&#45;&gt;Node6</title>
<path fill="none" stroke="midnightblue" d="M383.899,-333.981C394.27,-330.55 405.404,-326.866 416.14,-323.315"/>
<polygon fill="midnightblue" stroke="midnightblue" points="417.459,-326.565 425.854,-320.101 415.261,-319.919 417.459,-326.565"/>
</g>
<!-- Node14&#45;&gt;Node5 -->
<g id="edge21" class="edge"><title>Node14&#45;&gt;Node5</title>
<path fill="none" stroke="midnightblue" d="M653.194,-276.065C659.037,-279.003 664.831,-282.327 670,-286 688.964,-299.476 688.86,-308.269 706,-324 717.994,-335.008 732.252,-346.408 743.747,-355.223"/>
<polygon fill="midnightblue" stroke="midnightblue" points="741.831,-358.163 751.915,-361.411 746.058,-352.583 741.831,-358.163"/>
</g>
<!-- Node14&#45;&gt;Node8 -->
<g id="edge20" class="edge"><title>Node14&#45;&gt;Node8</title>
<path fill="none" stroke="midnightblue" d="M662.119,-274.922C684.662,-281.513 711.047,-289.226 731.453,-295.192"/>
<polygon fill="midnightblue" stroke="midnightblue" points="730.655,-298.606 741.236,-298.052 732.62,-291.887 730.655,-298.606"/>
</g>
<!-- Node15 -->
<g id="node15" class="node"><title>Node15</title>
<g id="a_node15"><a xlink:href="classtlz_1_1dataset__view.html#a31a73cf70078f270c9045bc0babadee2" target="_top" xlink:title="tlz::dataset_view::\ldataset_view">
<polygon fill="white" stroke="black" points="717.5,-246 717.5,-276 814.5,-276 814.5,-246 717.5,-246"/>
<text text-anchor="start" x="725.5" y="-264" font-family="Helvetica,sans-Serif" font-size="10.00">tlz::dataset_view::</text>
<text text-anchor="middle" x="766" y="-253" font-family="Helvetica,sans-Serif" font-size="10.00">dataset_view</text>
</a>
</g>
</g>
<!-- Node14&#45;&gt;Node15 -->
<g id="edge19" class="edge"><title>Node14&#45;&gt;Node15</title>
<path fill="none" stroke="midnightblue" d="M662.119,-261C676.463,-261 692.362,-261 707.287,-261"/>
<polygon fill="midnightblue" stroke="midnightblue" points="707.433,-264.5 717.433,-261 707.432,-257.5 707.433,-264.5"/>
</g>
<!-- Node17 -->
<g id="node17" class="node"><title>Node17</title>
<g id="a_node17"><a xlink:href="namespacetlz.html#a634de7ca11e100e4a118dffe80376a75" target="_top" xlink:title="tlz::in_filename_arg">
<polygon fill="white" stroke="black" points="287,-70.5 287,-89.5 388,-89.5 388,-70.5 287,-70.5"/>
<text text-anchor="middle" x="337.5" y="-77.5" font-family="Helvetica,sans-Serif" font-size="10.00">tlz::in_filename_arg</text>
</a>
</g>
</g>
<!-- Node16&#45;&gt;Node17 -->
<g id="edge24" class="edge"><title>Node16&#45;&gt;Node17</title>
<path fill="none" stroke="midnightblue" d="M233.456,-110.419C251.808,-105.001 274.953,-98.1688 294.657,-92.3522"/>
<polygon fill="midnightblue" stroke="midnightblue" points="295.709,-95.6909 304.309,-89.5028 293.727,-88.9773 295.709,-95.6909"/>
</g>
<!-- Node18 -->
<g id="node18" class="node"><title>Node18</title>
<g id="a_node18"><a xlink:href="namespacetlz.html#a0621d598fb83b13bf028f3e6293d04f8" target="_top" xlink:title="tlz::string_arg">
<polygon fill="white" stroke="black" points="434.5,-76.5 434.5,-95.5 510.5,-95.5 510.5,-76.5 434.5,-76.5"/>
<text text-anchor="middle" x="472.5" y="-83.5" font-family="Helvetica,sans-Serif" font-size="10.00">tlz::string_arg</text>
</a>
</g>
</g>
<!-- Node17&#45;&gt;Node18 -->
<g id="edge25" class="edge"><title>Node17&#45;&gt;Node18</title>
<path fill="none" stroke="midnightblue" d="M388.024,-82.2342C399.906,-82.7702 412.562,-83.3411 424.333,-83.8722"/>
<polygon fill="midnightblue" stroke="midnightblue" points="424.26,-87.3724 434.408,-84.3267 424.576,-80.3795 424.26,-87.3724"/>
</g>
<!-- Node19 -->
<g id="node19" class="node"><title>Node19</title>
<g id="a_node19"><a xlink:href="namespacetlz.html#a780431daab8d2595372eacb43143b52d" target="_top" xlink:title="tlz::args">
<polygon fill="white" stroke="black" points="587.5,-114.5 587.5,-133.5 639.5,-133.5 639.5,-114.5 587.5,-114.5"/>
<text text-anchor="middle" x="613.5" y="-121.5" font-family="Helvetica,sans-Serif" font-size="10.00">tlz::args</text>
</a>
</g>
</g>
<!-- Node17&#45;&gt;Node19 -->
<g id="edge31" class="edge"><title>Node17&#45;&gt;Node19</title>
<path fill="none" stroke="midnightblue" d="M366.291,-89.5361C382.861,-94.8658 404.418,-101.184 424,-105 476.823,-115.294 539.124,-120.191 577.21,-122.384"/>
<polygon fill="midnightblue" stroke="midnightblue" points="577.107,-125.884 587.283,-122.934 577.488,-118.894 577.107,-125.884"/>
</g>
<!-- Node21 -->
<g id="node21" class="node"><title>Node21</title>
<g id="a_node21"><a xlink:href="classtlz_1_1args__list.html#a38ad21acd64a4af98ffdf4a47837cdbe" target="_top" xlink:title="tlz::args_list::usage_fail">
<polygon fill="white" stroke="black" points="706,-38.5 706,-57.5 826,-57.5 826,-38.5 706,-38.5"/>
<text text-anchor="middle" x="766" y="-45.5" font-family="Helvetica,sans-Serif" font-size="10.00">tlz::args_list::usage_fail</text>
</a>
</g>
</g>
<!-- Node17&#45;&gt;Node21 -->
<g id="edge32" class="edge"><title>Node17&#45;&gt;Node21</title>
<path fill="none" stroke="midnightblue" d="M388.13,-71.6362C399.864,-69.8858 412.351,-68.2073 424,-67 517.683,-57.2903 626.395,-52.315 695.417,-49.9371"/>
<polygon fill="midnightblue" stroke="midnightblue" points="695.848,-53.4247 705.725,-49.5911 695.613,-46.4286 695.848,-53.4247"/>
</g>
<!-- Node23 -->
<g id="node23" class="node"><title>Node23</title>
<g id="a_node23"><a xlink:href="namespacetlz.html#abb019466ea9f56c0dab27e893d891837" target="_top" xlink:title="tlz::file_exists">
<polygon fill="white" stroke="black" points="434,-0.5 434,-19.5 511,-19.5 511,-0.5 434,-0.5"/>
<text text-anchor="middle" x="472.5" y="-7.5" font-family="Helvetica,sans-Serif" font-size="10.00">tlz::file_exists</text>
</a>
</g>
</g>
<!-- Node17&#45;&gt;Node23 -->
<g id="edge30" class="edge"><title>Node17&#45;&gt;Node23</title>
<path fill="none" stroke="midnightblue" d="M356.115,-70.3521C373.352,-60.9511 400.386,-46.3151 424,-34 430.021,-30.8597 436.501,-27.5443 442.678,-24.4132"/>
<polygon fill="midnightblue" stroke="midnightblue" points="444.677,-27.3249 452.029,-19.6961 441.525,-21.0751 444.677,-27.3249"/>
</g>
<!-- Node18&#45;&gt;Node19 -->
<g id="edge26" class="edge"><title>Node18&#45;&gt;Node19</title>
<path fill="none" stroke="midnightblue" d="M508.576,-95.589C529.587,-101.333 556.213,-108.612 577.255,-114.365"/>
<polygon fill="midnightblue" stroke="midnightblue" points="576.517,-117.791 587.086,-117.052 578.363,-111.039 576.517,-117.791"/>
</g>
<!-- Node20 -->
<g id="node20" class="node"><title>Node20</title>
<g id="a_node20"><a xlink:href="classtlz_1_1args__list.html#a73d99bc75998dc14607a3a372d28dc6d" target="_top" xlink:title="tlz::args_list::next_arg">
<polygon fill="white" stroke="black" points="557,-76.5 557,-95.5 670,-95.5 670,-76.5 557,-76.5"/>
<text text-anchor="middle" x="613.5" y="-83.5" font-family="Helvetica,sans-Serif" font-size="10.00">tlz::args_list::next_arg</text>
</a>
</g>
</g>
<!-- Node18&#45;&gt;Node20 -->
<g id="edge27" class="edge"><title>Node18&#45;&gt;Node20</title>
<path fill="none" stroke="midnightblue" d="M510.749,-86C521.807,-86 534.264,-86 546.571,-86"/>
<polygon fill="midnightblue" stroke="midnightblue" points="546.839,-89.5001 556.839,-86 546.839,-82.5001 546.839,-89.5001"/>
</g>
<!-- Node20&#45;&gt;Node21 -->
<g id="edge28" class="edge"><title>Node20&#45;&gt;Node21</title>
<path fill="none" stroke="midnightblue" d="M652.478,-76.411C672.159,-71.4417 696.391,-65.3233 717.321,-60.0387"/>
<polygon fill="midnightblue" stroke="midnightblue" points="718.457,-63.3617 727.296,-57.5201 716.743,-56.5747 718.457,-63.3617"/>
</g>
<!-- Node22 -->
<g id="node22" class="node"><title>Node22</title>
<g id="a_node22"><a xlink:href="namespacetlz.html#a8e4f8c8c2927bc4350de13bfa0f8f9e1" target="_top" xlink:title="tlz::to_string">
<polygon fill="white" stroke="black" points="730.5,-76.5 730.5,-95.5 801.5,-95.5 801.5,-76.5 730.5,-76.5"/>
<text text-anchor="middle" x="766" y="-83.5" font-family="Helvetica,sans-Serif" font-size="10.00">tlz::to_string</text>
</a>
</g>
</g>
<!-- Node20&#45;&gt;Node22 -->
<g id="edge29" class="edge"><title>Node20&#45;&gt;Node22</title>
<path fill="none" stroke="midnightblue" d="M670.113,-86C686.441,-86 704.096,-86 719.698,-86"/>
<polygon fill="midnightblue" stroke="midnightblue" points="720.13,-89.5001 730.13,-86 720.129,-82.5001 720.13,-89.5001"/>
</g>
</g>
</svg>
