<?xml version="1.0" encoding="UTF-8" standalone="no"?>
<!DOCTYPE svg PUBLIC "-//W3C//DTD SVG 1.1//EN"
 "http://www.w3.org/Graphics/SVG/1.1/DTD/svg11.dtd">
<!-- Generated by graphviz version 2.38.0 (20140413.2041)
 -->
<!-- Title: tlz::kinect_reprojection::reproject_points_ir_to_color Pages: 1 -->
<svg width="1396pt" height="455pt"
 viewBox="0.00 0.00 1396.00 455.00" xmlns="http://www.w3.org/2000/svg" xmlns:xlink="http://www.w3.org/1999/xlink">
<g id="graph0" class="graph" transform="scale(1 1) rotate(0) translate(4 451)">
<title>tlz::kinect_reprojection::reproject_points_ir_to_color</title>
<polygon fill="white" stroke="none" points="-4,4 -4,-451 1392,-451 1392,4 -4,4"/>
<!-- Node1 -->
<g id="node1" class="node"><title>Node1</title>
<polygon fill="#bfbfbf" stroke="black" points="0,-394 0,-424 142,-424 142,-394 0,-394"/>
<text text-anchor="start" x="8" y="-412" font-family="Helvetica,sans-Serif" font-size="10.00">tlz::kinect_reprojection</text>
<text text-anchor="middle" x="71" y="-401" font-family="Helvetica,sans-Serif" font-size="10.00">::reproject_points_ir_to_color</text>
</g>
<!-- Node2 -->
<g id="node2" class="node"><title>Node2</title>
<g id="a_node2"><a xlink:href="structtlz_1_1distortion__parameters.html#a96312c5d7baa4b7b1f2a76e9396037f8" target="_top" xlink:title="tlz::distortion_parameters\l::cv_coeffs">
<polygon fill="white" stroke="black" points="843,-380 843,-410 970,-410 970,-380 843,-380"/>
<text text-anchor="start" x="851" y="-398" font-family="Helvetica,sans-Serif" font-size="10.00">tlz::distortion_parameters</text>
<text text-anchor="middle" x="906.5" y="-387" font-family="Helvetica,sans-Serif" font-size="10.00">::cv_coeffs</text>
</a>
</g>
</g>
<!-- Node1&#45;&gt;Node2 -->
<g id="edge1" class="edge"><title>Node1&#45;&gt;Node2</title>
<path fill="none" stroke="midnightblue" d="M141.967,-424.019C197.542,-434.64 277.382,-447 348,-447 348,-447 348,-447 608.5,-447 697.365,-447 719.883,-440.536 807,-423 820.604,-420.262 835.069,-416.59 848.606,-412.809"/>
<polygon fill="midnightblue" stroke="midnightblue" points="849.618,-416.16 858.273,-410.048 847.696,-409.429 849.618,-416.16"/>
</g>
<!-- Node3 -->
<g id="node3" class="node"><title>Node3</title>
<g id="a_node3"><a xlink:href="structtlz_1_1distortion__parameters.html#a307fee036b04519d633fb8456899850c" target="_top" xlink:title="tlz::distortion_parameters\l::is_none">
<polygon fill="white" stroke="black" points="843,-299 843,-329 970,-329 970,-299 843,-299"/>
<text text-anchor="start" x="851" y="-317" font-family="Helvetica,sans-Serif" font-size="10.00">tlz::distortion_parameters</text>
<text text-anchor="middle" x="906.5" y="-306" font-family="Helvetica,sans-Serif" font-size="10.00">::is_none</text>
</a>
</g>
</g>
<!-- Node1&#45;&gt;Node3 -->
<g id="edge2" class="edge"><title>Node1&#45;&gt;Node3</title>
<path fill="none" stroke="midnightblue" d="M142.047,-409C197.835,-409 277.922,-409 348,-409 348,-409 348,-409 608.5,-409 698.496,-409 722.586,-400.201 807,-369 830.682,-360.247 855.489,-346.363 874.284,-334.736"/>
<polygon fill="midnightblue" stroke="midnightblue" points="876.405,-337.536 882.996,-329.241 872.67,-331.615 876.405,-337.536"/>
</g>
<!-- Node4 -->
<g id="node4" class="node"><title>Node4</title>
<g id="a_node4"><a xlink:href="namespacetlz.html#ab01b1e8009a6b2ae9fe0fd559de7dd20" target="_top" xlink:title="tlz::distort_points">
<polygon fill="white" stroke="black" points="178,-304.5 178,-323.5 270,-323.5 270,-304.5 178,-304.5"/>
<text text-anchor="middle" x="224" y="-311.5" font-family="Helvetica,sans-Serif" font-size="10.00">tlz::distort_points</text>
</a>
</g>
</g>
<!-- Node1&#45;&gt;Node4 -->
<g id="edge3" class="edge"><title>Node1&#45;&gt;Node4</title>
<path fill="none" stroke="midnightblue" d="M95.9264,-393.947C124.141,-376.196 170.762,-346.865 199.006,-329.095"/>
<polygon fill="midnightblue" stroke="midnightblue" points="200.884,-332.049 207.484,-323.762 197.156,-326.124 200.884,-332.049"/>
</g>
<!-- Node4&#45;&gt;Node3 -->
<g id="edge4" class="edge"><title>Node4&#45;&gt;Node3</title>
<path fill="none" stroke="midnightblue" d="M249.409,-323.541C293.187,-339.767 388.263,-371 471.5,-371 471.5,-371 471.5,-371 608.5,-371 692.751,-371 788.074,-348.604 847.487,-331.889"/>
<polygon fill="midnightblue" stroke="midnightblue" points="848.773,-335.162 857.428,-329.051 846.851,-328.431 848.773,-335.162"/>
</g>
<!-- Node5 -->
<g id="node5" class="node"><title>Node5</title>
<g id="a_node5"><a xlink:href="namespacetlz.html#aa0b38daa346fbb57c8f6668de69ea2d1" target="_top" xlink:title="tlz::distort_point">
<polygon fill="white" stroke="black" points="306,-247.5 306,-266.5 392,-266.5 392,-247.5 306,-247.5"/>
<text text-anchor="middle" x="349" y="-254.5" font-family="Helvetica,sans-Serif" font-size="10.00">tlz::distort_point</text>
</a>
</g>
</g>
<!-- Node4&#45;&gt;Node5 -->
<g id="edge5" class="edge"><title>Node4&#45;&gt;Node5</title>
<path fill="none" stroke="midnightblue" d="M245.587,-304.459C265.454,-295.253 295.746,-281.215 318.237,-270.793"/>
<polygon fill="midnightblue" stroke="midnightblue" points="319.744,-273.952 327.345,-266.572 316.801,-267.601 319.744,-273.952"/>
</g>
<!-- Node5&#45;&gt;Node3 -->
<g id="edge6" class="edge"><title>Node5&#45;&gt;Node3</title>
<path fill="none" stroke="midnightblue" d="M381.563,-247.494C395.634,-243.73 412.501,-239.86 428,-238 467.274,-233.286 477.629,-234.185 517,-238 577.204,-243.833 738.288,-277.575 833.063,-298.089"/>
<polygon fill="midnightblue" stroke="midnightblue" points="832.354,-301.517 842.869,-300.215 833.838,-294.676 832.354,-301.517"/>
</g>
<!-- Node6 -->
<g id="node6" class="node"><title>Node6</title>
<g id="a_node6"><a xlink:href="structtlz_1_1intrinsics.html#acc9b666adbc970c279c56a4549cc90d5" target="_top" xlink:title="tlz::intrinsics::cx">
<polygon fill="white" stroke="black" points="428,-323.5 428,-342.5 517,-342.5 517,-323.5 428,-323.5"/>
<text text-anchor="middle" x="472.5" y="-330.5" font-family="Helvetica,sans-Serif" font-size="10.00">tlz::intrinsics::cx</text>
</a>
</g>
</g>
<!-- Node5&#45;&gt;Node6 -->
<g id="edge7" class="edge"><title>Node5&#45;&gt;Node6</title>
<path fill="none" stroke="midnightblue" d="M361.347,-266.532C376.064,-278.597 402.84,-299.546 428,-314 431.095,-315.778 434.388,-317.498 437.723,-319.129"/>
<polygon fill="midnightblue" stroke="midnightblue" points="436.56,-322.447 447.106,-323.464 439.496,-316.093 436.56,-322.447"/>
</g>
<!-- Node7 -->
<g id="node7" class="node"><title>Node7</title>
<g id="a_node7"><a xlink:href="structtlz_1_1intrinsics.html#ad5875d6c77076468aebce0d88ef61c20" target="_top" xlink:title="tlz::intrinsics::fx">
<polygon fill="white" stroke="black" points="429.5,-285.5 429.5,-304.5 515.5,-304.5 515.5,-285.5 429.5,-285.5"/>
<text text-anchor="middle" x="472.5" y="-292.5" font-family="Helvetica,sans-Serif" font-size="10.00">tlz::intrinsics::fx</text>
</a>
</g>
</g>
<!-- Node5&#45;&gt;Node7 -->
<g id="edge8" class="edge"><title>Node5&#45;&gt;Node7</title>
<path fill="none" stroke="midnightblue" d="M380.66,-266.589C395.912,-271.359 414.551,-277.189 430.967,-282.323"/>
<polygon fill="midnightblue" stroke="midnightblue" points="430.261,-285.769 440.85,-285.414 432.351,-279.089 430.261,-285.769"/>
</g>
<!-- Node8 -->
<g id="node8" class="node"><title>Node8</title>
<g id="a_node8"><a xlink:href="structtlz_1_1intrinsics.html#af7acb0b51e36fbb45d73bc10efef7d25" target="_top" xlink:title="tlz::intrinsics::cy">
<polygon fill="white" stroke="black" points="428,-171.5 428,-190.5 517,-190.5 517,-171.5 428,-171.5"/>
<text text-anchor="middle" x="472.5" y="-178.5" font-family="Helvetica,sans-Serif" font-size="10.00">tlz::intrinsics::cy</text>
</a>
</g>
</g>
<!-- Node5&#45;&gt;Node8 -->
<g id="edge9" class="edge"><title>Node5&#45;&gt;Node8</title>
<path fill="none" stroke="midnightblue" d="M356.761,-247.129C370.137,-233.805 401.018,-212.398 428,-196 428.092,-195.944 428.184,-195.888 428.277,-195.832"/>
<polygon fill="midnightblue" stroke="midnightblue" points="430.292,-198.708 437.151,-190.633 426.754,-192.668 430.292,-198.708"/>
</g>
<!-- Node28 -->
<g id="node28" class="node"><title>Node28</title>
<g id="a_node28"><a xlink:href="structtlz_1_1intrinsics.html#a52e02ae0e8bbea245fcced1c38964f29" target="_top" xlink:title="tlz::intrinsics::fy">
<polygon fill="white" stroke="black" points="429.5,-247.5 429.5,-266.5 515.5,-266.5 515.5,-247.5 429.5,-247.5"/>
<text text-anchor="middle" x="472.5" y="-254.5" font-family="Helvetica,sans-Serif" font-size="10.00">tlz::intrinsics::fy</text>
</a>
</g>
</g>
<!-- Node5&#45;&gt;Node28 -->
<g id="edge38" class="edge"><title>Node5&#45;&gt;Node28</title>
<path fill="none" stroke="midnightblue" d="M392.154,-257C400.918,-257 410.254,-257 419.33,-257"/>
<polygon fill="midnightblue" stroke="midnightblue" points="419.421,-260.5 429.421,-257 419.421,-253.5 419.421,-260.5"/>
</g>
<!-- Node8&#45;&gt;Node4 -->
<g id="edge24" class="edge"><title>Node8&#45;&gt;Node4</title>
<path fill="none" stroke="midnightblue" d="M428.199,-190.564C393.479,-199.457 344.385,-214.854 306,-238 279.462,-254.002 254.323,-279.863 239.284,-296.899"/>
<polygon fill="midnightblue" stroke="midnightblue" points="236.634,-294.613 232.751,-304.471 241.934,-299.186 236.634,-294.613"/>
</g>
<!-- Node8&#45;&gt;Node5 -->
<g id="edge23" class="edge"><title>Node8&#45;&gt;Node5</title>
<path fill="none" stroke="midnightblue" d="M464.917,-190.585C456.312,-197.919 440.825,-206.206 428,-214 413.168,-223.014 397.158,-233.541 383.525,-242.107"/>
<polygon fill="midnightblue" stroke="midnightblue" points="381.607,-239.177 374.946,-247.416 385.291,-245.13 381.607,-239.177"/>
</g>
<!-- Node9 -->
<g id="node9" class="node"><title>Node9</title>
<g id="a_node9"><a xlink:href="namespacetlz.html#a8cba4853d0d796a01c72f59f36f2a492" target="_top" xlink:title="tlz::decode_intrinsics">
<polygon fill="white" stroke="black" points="698,-76.5 698,-95.5 807,-95.5 807,-76.5 698,-76.5"/>
<text text-anchor="middle" x="752.5" y="-83.5" font-family="Helvetica,sans-Serif" font-size="10.00">tlz::decode_intrinsics</text>
</a>
</g>
</g>
<!-- Node8&#45;&gt;Node9 -->
<g id="edge10" class="edge"><title>Node8&#45;&gt;Node9</title>
<path fill="none" stroke="midnightblue" d="M480.05,-171.46C492.198,-154.648 520.011,-120.096 553,-105 594.991,-85.7849 647.114,-81.4355 687.411,-81.677"/>
<polygon fill="midnightblue" stroke="midnightblue" points="687.597,-85.1802 697.651,-81.8376 687.707,-78.1811 687.597,-85.1802"/>
</g>
<!-- Node13 -->
<g id="node13" class="node"><title>Node13</title>
<g id="a_node13"><a xlink:href="namespacetlz.html#a46c3e46d56bc36cf6b1236522563bc4a" target="_top" xlink:title="tlz::encode_intrinsics">
<polygon fill="white" stroke="black" points="553,-152.5 553,-171.5 662,-171.5 662,-152.5 553,-152.5"/>
<text text-anchor="middle" x="607.5" y="-159.5" font-family="Helvetica,sans-Serif" font-size="10.00">tlz::encode_intrinsics</text>
</a>
</g>
</g>
<!-- Node8&#45;&gt;Node13 -->
<g id="edge15" class="edge"><title>Node8&#45;&gt;Node13</title>
<path fill="none" stroke="midnightblue" d="M517.049,-174.779C525.217,-173.612 533.911,-172.37 542.548,-171.136"/>
<polygon fill="midnightblue" stroke="midnightblue" points="543.221,-174.575 552.625,-169.696 542.231,-167.646 543.221,-174.575"/>
</g>
<!-- Node16 -->
<g id="node16" class="node"><title>Node16</title>
<g id="a_node16"><a xlink:href="namespacetlz.html#a67f7411515a0538e3a39b9d0602ed854" target="_top" xlink:title="tlz::undistort_point">
<polygon fill="white" stroke="black" points="559,-190.5 559,-209.5 656,-209.5 656,-190.5 559,-190.5"/>
<text text-anchor="middle" x="607.5" y="-197.5" font-family="Helvetica,sans-Serif" font-size="10.00">tlz::undistort_point</text>
</a>
</g>
</g>
<!-- Node8&#45;&gt;Node16 -->
<g id="edge18" class="edge"><title>Node8&#45;&gt;Node16</title>
<path fill="none" stroke="midnightblue" d="M517.049,-187.221C527.153,-188.665 538.064,-190.223 548.674,-191.739"/>
<polygon fill="midnightblue" stroke="midnightblue" points="548.324,-195.225 558.719,-193.174 549.314,-188.295 548.324,-195.225"/>
</g>
<!-- Node17 -->
<g id="node17" class="node"><title>Node17</title>
<g id="a_node17"><a xlink:href="namespacetlz.html#a8b5e4acbb884887859e414ffe06a09f8" target="_top" xlink:title="tlz::undistort_points">
<polygon fill="white" stroke="black" points="701.5,-228.5 701.5,-247.5 803.5,-247.5 803.5,-228.5 701.5,-228.5"/>
<text text-anchor="middle" x="752.5" y="-235.5" font-family="Helvetica,sans-Serif" font-size="10.00">tlz::undistort_points</text>
</a>
</g>
</g>
<!-- Node8&#45;&gt;Node17 -->
<g id="edge22" class="edge"><title>Node8&#45;&gt;Node17</title>
<path fill="none" stroke="midnightblue" d="M491.532,-190.529C510.97,-200.635 540.765,-215.605 553,-219 598.264,-231.559 651.311,-236.143 691.174,-237.677"/>
<polygon fill="midnightblue" stroke="midnightblue" points="691.16,-241.178 701.271,-238.011 691.392,-234.182 691.16,-241.178"/>
</g>
<!-- Node18 -->
<g id="node18" class="node"><title>Node18</title>
<g id="a_node18"><a xlink:href="namespacetlz.html#a170805c7a8ede64a93e0ee23196e5b7c" target="_top" xlink:title="tlz::intrinsics_arg">
<polygon fill="white" stroke="black" points="562,-114.5 562,-133.5 653,-133.5 653,-114.5 562,-114.5"/>
<text text-anchor="middle" x="607.5" y="-121.5" font-family="Helvetica,sans-Serif" font-size="10.00">tlz::intrinsics_arg</text>
</a>
</g>
</g>
<!-- Node8&#45;&gt;Node18 -->
<g id="edge25" class="edge"><title>Node8&#45;&gt;Node18</title>
<path fill="none" stroke="midnightblue" d="M492.203,-171.376C508.156,-163.333 531.808,-151.8 553,-143 557.881,-140.973 563.065,-138.962 568.211,-137.048"/>
<polygon fill="midnightblue" stroke="midnightblue" points="569.76,-140.209 577.969,-133.511 567.375,-133.628 569.76,-140.209"/>
</g>
<!-- Node10 -->
<g id="node10" class="node"><title>Node10</title>
<g id="a_node10"><a xlink:href="namespacetlz.html#a066563a26e2de02f215b179f3d3a53da" target="_top" xlink:title="tlz::decode_mat">
<polygon fill="white" stroke="black" points="863.5,-0.5 863.5,-19.5 949.5,-19.5 949.5,-0.5 863.5,-0.5"/>
<text text-anchor="middle" x="906.5" y="-7.5" font-family="Helvetica,sans-Serif" font-size="10.00">tlz::decode_mat</text>
</a>
</g>
</g>
<!-- Node9&#45;&gt;Node10 -->
<g id="edge11" class="edge"><title>Node9&#45;&gt;Node10</title>
<path fill="none" stroke="midnightblue" d="M766.202,-76.3247C782.998,-63.9135 813.879,-42.3946 843,-29 847.958,-26.7193 853.261,-24.6246 858.604,-22.7266"/>
<polygon fill="midnightblue" stroke="midnightblue" points="859.82,-26.0107 868.198,-19.525 857.604,-19.3706 859.82,-26.0107"/>
</g>
<!-- Node11 -->
<g id="node11" class="node"><title>Node11</title>
<g id="a_node11"><a xlink:href="namespacetlz.html#a252af14b9b4ac6502d3e9c5dd8dc90b8" target="_top" xlink:title="tlz::has">
<polygon fill="white" stroke="black" points="1020,-38.5 1020,-57.5 1069,-57.5 1069,-38.5 1020,-38.5"/>
<text text-anchor="middle" x="1044.5" y="-45.5" font-family="Helvetica,sans-Serif" font-size="10.00">tlz::has</text>
</a>
</g>
</g>
<!-- Node9&#45;&gt;Node11 -->
<g id="edge12" class="edge"><title>Node9&#45;&gt;Node11</title>
<path fill="none" stroke="midnightblue" d="M807.2,-83.7602C851.204,-81.3333 914.965,-76.4613 970,-67 983.192,-64.7321 997.485,-61.2731 1009.93,-57.9252"/>
<polygon fill="midnightblue" stroke="midnightblue" points="1011.18,-61.2106 1019.88,-55.1676 1009.31,-54.4647 1011.18,-61.2106"/>
</g>
<!-- Node12 -->
<g id="node12" class="node"><title>Node12</title>
<g id="a_node12"><a xlink:href="namespacetlz.html#add846dc50c32dfb356cb1a7ac11d37ac" target="_top" xlink:title="tlz::get_or">
<polygon fill="white" stroke="black" points="876.5,-38.5 876.5,-57.5 936.5,-57.5 936.5,-38.5 876.5,-38.5"/>
<text text-anchor="middle" x="906.5" y="-45.5" font-family="Helvetica,sans-Serif" font-size="10.00">tlz::get_or</text>
</a>
</g>
</g>
<!-- Node9&#45;&gt;Node12 -->
<g id="edge13" class="edge"><title>Node9&#45;&gt;Node12</title>
<path fill="none" stroke="midnightblue" d="M791.856,-76.411C814.686,-70.7036 843.578,-63.4804 866.518,-57.7455"/>
<polygon fill="midnightblue" stroke="midnightblue" points="867.419,-61.128 876.272,-55.3071 865.721,-54.337 867.419,-61.128"/>
</g>
<!-- Node12&#45;&gt;Node11 -->
<g id="edge14" class="edge"><title>Node12&#45;&gt;Node11</title>
<path fill="none" stroke="midnightblue" d="M936.675,-48C958.102,-48 987.262,-48 1009.7,-48"/>
<polygon fill="midnightblue" stroke="midnightblue" points="1009.8,-51.5001 1019.8,-48 1009.8,-44.5001 1009.8,-51.5001"/>
</g>
<!-- Node14 -->
<g id="node14" class="node"><title>Node14</title>
<g id="a_node14"><a xlink:href="namespacetlz.html#acf7ca4ee1b750cf31a40170bea887d46" target="_top" xlink:title="tlz::encode_mat">
<polygon fill="white" stroke="black" points="709.5,-171.5 709.5,-190.5 795.5,-190.5 795.5,-171.5 709.5,-171.5"/>
<text text-anchor="middle" x="752.5" y="-178.5" font-family="Helvetica,sans-Serif" font-size="10.00">tlz::encode_mat</text>
</a>
</g>
</g>
<!-- Node13&#45;&gt;Node14 -->
<g id="edge16" class="edge"><title>Node13&#45;&gt;Node14</title>
<path fill="none" stroke="midnightblue" d="M662.155,-169.129C674.29,-170.741 687.158,-172.451 699.235,-174.056"/>
<polygon fill="midnightblue" stroke="midnightblue" points="698.787,-177.527 709.161,-175.374 699.709,-170.588 698.787,-177.527"/>
</g>
<!-- Node15 -->
<g id="node15" class="node"><title>Node15</title>
<g id="a_node15"><a xlink:href="namespacetlz.html#a7b27ca69fad329b4a00aceee41d2962b" target="_top" xlink:title="tlz::encode_mat_">
<polygon fill="white" stroke="black" points="860.5,-190.5 860.5,-209.5 952.5,-209.5 952.5,-190.5 860.5,-190.5"/>
<text text-anchor="middle" x="906.5" y="-197.5" font-family="Helvetica,sans-Serif" font-size="10.00">tlz::encode_mat_</text>
</a>
</g>
</g>
<!-- Node14&#45;&gt;Node15 -->
<g id="edge17" class="edge"><title>Node14&#45;&gt;Node15</title>
<path fill="none" stroke="midnightblue" d="M795.84,-186.293C812.735,-188.404 832.41,-190.864 850.393,-193.112"/>
<polygon fill="midnightblue" stroke="midnightblue" points="850.108,-196.603 860.465,-194.371 850.977,-189.657 850.108,-196.603"/>
</g>
<!-- Node16&#45;&gt;Node17 -->
<g id="edge19" class="edge"><title>Node16&#45;&gt;Node17</title>
<path fill="none" stroke="midnightblue" d="M644.585,-209.589C663.13,-214.517 685.926,-220.575 705.699,-225.829"/>
<polygon fill="midnightblue" stroke="midnightblue" points="704.863,-229.228 715.427,-228.414 706.661,-222.463 704.863,-229.228"/>
</g>
<!-- Node17&#45;&gt;Node2 -->
<g id="edge21" class="edge"><title>Node17&#45;&gt;Node2</title>
<path fill="none" stroke="midnightblue" d="M761.581,-247.666C776.915,-265.86 811.517,-306.221 843,-338 854.925,-350.037 868.796,-362.802 880.436,-373.193"/>
<polygon fill="midnightblue" stroke="midnightblue" points="878.281,-375.96 888.088,-379.97 882.922,-370.72 878.281,-375.96"/>
</g>
<!-- Node17&#45;&gt;Node3 -->
<g id="edge20" class="edge"><title>Node17&#45;&gt;Node3</title>
<path fill="none" stroke="midnightblue" d="M775.773,-247.61C785.436,-251.877 796.843,-257.047 807,-262 827.816,-272.151 850.714,-284.185 869.19,-294.119"/>
<polygon fill="midnightblue" stroke="midnightblue" points="867.682,-297.282 878.144,-298.955 871.008,-291.123 867.682,-297.282"/>
</g>
<!-- Node18&#45;&gt;Node9 -->
<g id="edge26" class="edge"><title>Node18&#45;&gt;Node9</title>
<path fill="none" stroke="midnightblue" d="M644.585,-114.411C663.13,-109.483 685.926,-103.425 705.699,-98.1709"/>
<polygon fill="midnightblue" stroke="midnightblue" points="706.661,-101.537 715.427,-95.5859 704.863,-94.7716 706.661,-101.537"/>
</g>
<!-- Node19 -->
<g id="node19" class="node"><title>Node19</title>
<g id="a_node19"><a xlink:href="namespacetlz.html#a35f9e03fa4fd9cec699f5fa27962400f" target="_top" xlink:title="tlz::json_arg">
<polygon fill="white" stroke="black" points="717.5,-114.5 717.5,-133.5 787.5,-133.5 787.5,-114.5 717.5,-114.5"/>
<text text-anchor="middle" x="752.5" y="-121.5" font-family="Helvetica,sans-Serif" font-size="10.00">tlz::json_arg</text>
</a>
</g>
</g>
<!-- Node18&#45;&gt;Node19 -->
<g id="edge27" class="edge"><title>Node18&#45;&gt;Node19</title>
<path fill="none" stroke="midnightblue" d="M653.354,-124C670.447,-124 689.911,-124 706.974,-124"/>
<polygon fill="midnightblue" stroke="midnightblue" points="707.245,-127.5 717.245,-124 707.245,-120.5 707.245,-127.5"/>
</g>
<!-- Node20 -->
<g id="node20" class="node"><title>Node20</title>
<g id="a_node20"><a xlink:href="namespacetlz.html#aa1be9362f548fcf9378e1fc9074089c4" target="_top" xlink:title="tlz::import_json_file">
<polygon fill="white" stroke="black" points="856,-152.5 856,-171.5 957,-171.5 957,-152.5 856,-152.5"/>
<text text-anchor="middle" x="906.5" y="-159.5" font-family="Helvetica,sans-Serif" font-size="10.00">tlz::import_json_file</text>
</a>
</g>
</g>
<!-- Node19&#45;&gt;Node20 -->
<g id="edge28" class="edge"><title>Node19&#45;&gt;Node20</title>
<path fill="none" stroke="midnightblue" d="M787.612,-132.528C808.274,-137.694 834.944,-144.361 857.689,-150.047"/>
<polygon fill="midnightblue" stroke="midnightblue" points="856.947,-153.469 867.497,-152.499 858.645,-146.678 856.947,-153.469"/>
</g>
<!-- Node21 -->
<g id="node21" class="node"><title>Node21</title>
<g id="a_node21"><a xlink:href="namespacetlz.html#a634de7ca11e100e4a118dffe80376a75" target="_top" xlink:title="tlz::in_filename_arg">
<polygon fill="white" stroke="black" points="856,-114.5 856,-133.5 957,-133.5 957,-114.5 856,-114.5"/>
<text text-anchor="middle" x="906.5" y="-121.5" font-family="Helvetica,sans-Serif" font-size="10.00">tlz::in_filename_arg</text>
</a>
</g>
</g>
<!-- Node19&#45;&gt;Node21 -->
<g id="edge29" class="edge"><title>Node19&#45;&gt;Node21</title>
<path fill="none" stroke="midnightblue" d="M787.612,-124C804.755,-124 826.034,-124 845.775,-124"/>
<polygon fill="midnightblue" stroke="midnightblue" points="845.928,-127.5 855.928,-124 845.928,-120.5 845.928,-127.5"/>
</g>
<!-- Node22 -->
<g id="node22" class="node"><title>Node22</title>
<g id="a_node22"><a xlink:href="namespacetlz.html#a0621d598fb83b13bf028f3e6293d04f8" target="_top" xlink:title="tlz::string_arg">
<polygon fill="white" stroke="black" points="1006.5,-114.5 1006.5,-133.5 1082.5,-133.5 1082.5,-114.5 1006.5,-114.5"/>
<text text-anchor="middle" x="1044.5" y="-121.5" font-family="Helvetica,sans-Serif" font-size="10.00">tlz::string_arg</text>
</a>
</g>
</g>
<!-- Node21&#45;&gt;Node22 -->
<g id="edge30" class="edge"><title>Node21&#45;&gt;Node22</title>
<path fill="none" stroke="midnightblue" d="M957.369,-124C970.043,-124 983.624,-124 996.168,-124"/>
<polygon fill="midnightblue" stroke="midnightblue" points="996.419,-127.5 1006.42,-124 996.419,-120.5 996.419,-127.5"/>
</g>
<!-- Node23 -->
<g id="node23" class="node"><title>Node23</title>
<g id="a_node23"><a xlink:href="namespacetlz.html#a780431daab8d2595372eacb43143b52d" target="_top" xlink:title="tlz::args">
<polygon fill="white" stroke="black" points="1149.5,-152.5 1149.5,-171.5 1201.5,-171.5 1201.5,-152.5 1149.5,-152.5"/>
<text text-anchor="middle" x="1175.5" y="-159.5" font-family="Helvetica,sans-Serif" font-size="10.00">tlz::args</text>
</a>
</g>
</g>
<!-- Node21&#45;&gt;Node23 -->
<g id="edge36" class="edge"><title>Node21&#45;&gt;Node23</title>
<path fill="none" stroke="midnightblue" d="M952.978,-133.543C969.611,-136.83 988.611,-140.347 1006,-143 1051.89,-150.002 1105.18,-155.587 1139.34,-158.844"/>
<polygon fill="midnightblue" stroke="midnightblue" points="1139.01,-162.329 1149.3,-159.779 1139.67,-155.359 1139.01,-162.329"/>
</g>
<!-- Node25 -->
<g id="node25" class="node"><title>Node25</title>
<g id="a_node25"><a xlink:href="classtlz_1_1args__list.html#a38ad21acd64a4af98ffdf4a47837cdbe" target="_top" xlink:title="tlz::args_list::usage_fail">
<polygon fill="white" stroke="black" points="1268,-76.5 1268,-95.5 1388,-95.5 1388,-76.5 1268,-76.5"/>
<text text-anchor="middle" x="1328" y="-83.5" font-family="Helvetica,sans-Serif" font-size="10.00">tlz::args_list::usage_fail</text>
</a>
</g>
</g>
<!-- Node21&#45;&gt;Node25 -->
<g id="edge37" class="edge"><title>Node21&#45;&gt;Node25</title>
<path fill="none" stroke="midnightblue" d="M950.456,-114.442C967.647,-110.951 987.683,-107.299 1006,-105 1092.36,-94.1625 1192.59,-89.4783 1257.77,-87.4721"/>
<polygon fill="midnightblue" stroke="midnightblue" points="1258.03,-90.9661 1267.92,-87.1726 1257.82,-83.9692 1258.03,-90.9661"/>
</g>
<!-- Node27 -->
<g id="node27" class="node"><title>Node27</title>
<g id="a_node27"><a xlink:href="namespacetlz.html#abb019466ea9f56c0dab27e893d891837" target="_top" xlink:title="tlz::file_exists">
<polygon fill="white" stroke="black" points="1006,-190.5 1006,-209.5 1083,-209.5 1083,-190.5 1006,-190.5"/>
<text text-anchor="middle" x="1044.5" y="-197.5" font-family="Helvetica,sans-Serif" font-size="10.00">tlz::file_exists</text>
</a>
</g>
</g>
<!-- Node21&#45;&gt;Node27 -->
<g id="edge35" class="edge"><title>Node21&#45;&gt;Node27</title>
<path fill="none" stroke="midnightblue" d="M948.276,-133.507C955.752,-136.046 963.302,-139.178 970,-143 988.852,-153.757 988.795,-162.767 1006,-176 1009.93,-179.022 1014.24,-182.036 1018.5,-184.856"/>
<polygon fill="midnightblue" stroke="midnightblue" points="1016.72,-187.869 1027.03,-190.313 1020.49,-181.974 1016.72,-187.869"/>
</g>
<!-- Node22&#45;&gt;Node23 -->
<g id="edge31" class="edge"><title>Node22&#45;&gt;Node23</title>
<path fill="none" stroke="midnightblue" d="M1078.05,-133.589C1096.78,-139.106 1120.31,-146.038 1139.45,-151.674"/>
<polygon fill="midnightblue" stroke="midnightblue" points="1138.7,-155.103 1149.28,-154.572 1140.68,-148.389 1138.7,-155.103"/>
</g>
<!-- Node24 -->
<g id="node24" class="node"><title>Node24</title>
<g id="a_node24"><a xlink:href="classtlz_1_1args__list.html#a73d99bc75998dc14607a3a372d28dc6d" target="_top" xlink:title="tlz::args_list::next_arg">
<polygon fill="white" stroke="black" points="1119,-114.5 1119,-133.5 1232,-133.5 1232,-114.5 1119,-114.5"/>
<text text-anchor="middle" x="1175.5" y="-121.5" font-family="Helvetica,sans-Serif" font-size="10.00">tlz::args_list::next_arg</text>
</a>
</g>
</g>
<!-- Node22&#45;&gt;Node24 -->
<g id="edge32" class="edge"><title>Node22&#45;&gt;Node24</title>
<path fill="none" stroke="midnightblue" d="M1082.81,-124C1090.83,-124 1099.54,-124 1108.3,-124"/>
<polygon fill="midnightblue" stroke="midnightblue" points="1108.55,-127.5 1118.55,-124 1108.55,-120.5 1108.55,-127.5"/>
</g>
<!-- Node24&#45;&gt;Node25 -->
<g id="edge33" class="edge"><title>Node24&#45;&gt;Node25</title>
<path fill="none" stroke="midnightblue" d="M1214.48,-114.411C1234.16,-109.442 1258.39,-103.323 1279.32,-98.0387"/>
<polygon fill="midnightblue" stroke="midnightblue" points="1280.46,-101.362 1289.3,-95.5201 1278.74,-94.5747 1280.46,-101.362"/>
</g>
<!-- Node26 -->
<g id="node26" class="node"><title>Node26</title>
<g id="a_node26"><a xlink:href="namespacetlz.html#a8e4f8c8c2927bc4350de13bfa0f8f9e1" target="_top" xlink:title="tlz::to_string">
<polygon fill="white" stroke="black" points="1292.5,-114.5 1292.5,-133.5 1363.5,-133.5 1363.5,-114.5 1292.5,-114.5"/>
<text text-anchor="middle" x="1328" y="-121.5" font-family="Helvetica,sans-Serif" font-size="10.00">tlz::to_string</text>
</a>
</g>
</g>
<!-- Node24&#45;&gt;Node26 -->
<g id="edge34" class="edge"><title>Node24&#45;&gt;Node26</title>
<path fill="none" stroke="midnightblue" d="M1232.11,-124C1248.44,-124 1266.1,-124 1281.7,-124"/>
<polygon fill="midnightblue" stroke="midnightblue" points="1282.13,-127.5 1292.13,-124 1282.13,-120.5 1282.13,-127.5"/>
</g>
</g>
</svg>
