<?xml version="1.0" encoding="UTF-8" standalone="no"?>
<!DOCTYPE svg PUBLIC "-//W3C//DTD SVG 1.1//EN"
 "http://www.w3.org/Graphics/SVG/1.1/DTD/svg11.dtd">
<!-- Generated by graphviz version 2.38.0 (20140413.2041)
 -->
<!-- Title: tlz::dataset_group::operator[] Pages: 1 -->
<svg width="796pt" height="351pt"
 viewBox="0.00 0.00 796.00 351.00" xmlns="http://www.w3.org/2000/svg" xmlns:xlink="http://www.w3.org/1999/xlink">
<g id="graph0" class="graph" transform="scale(1 1) rotate(0) translate(4 347)">
<title>tlz::dataset_group::operator[]</title>
<polygon fill="white" stroke="none" points="-4,4 -4,-347 792,-347 792,4 -4,4"/>
<!-- Node1 -->
<g id="node1" class="node"><title>Node1</title>
<polygon fill="#bfbfbf" stroke="black" points="0,-169.5 0,-199.5 95,-199.5 95,-169.5 0,-169.5"/>
<text text-anchor="start" x="8" y="-187.5" font-family="Helvetica,sans-Serif" font-size="10.00">tlz::dataset_group</text>
<text text-anchor="middle" x="47.5" y="-176.5" font-family="Helvetica,sans-Serif" font-size="10.00">::operator[]</text>
</g>
<!-- Node2 -->
<g id="node2" class="node"><title>Node2</title>
<g id="a_node2"><a xlink:href="classtlz_1_1dataset__view.html#a00864b19071f222dc4c425c4bf2251ae" target="_top" xlink:title="tlz::dataset_view::x">
<polygon fill="white" stroke="black" points="131,-194 131,-213 233,-213 233,-194 131,-194"/>
<text text-anchor="middle" x="182" y="-201" font-family="Helvetica,sans-Serif" font-size="10.00">tlz::dataset_view::x</text>
</a>
</g>
</g>
<!-- Node1&#45;&gt;Node2 -->
<g id="edge1" class="edge"><title>Node1&#45;&gt;Node2</title>
<path fill="none" stroke="midnightblue" d="M95.2145,-191.199C103.462,-192.381 112.152,-193.627 120.709,-194.854"/>
<polygon fill="midnightblue" stroke="midnightblue" points="120.262,-198.326 130.658,-196.281 121.256,-191.397 120.262,-198.326"/>
</g>
<!-- Node3 -->
<g id="node3" class="node"><title>Node3</title>
<g id="a_node3"><a xlink:href="classtlz_1_1dataset__view.html#a78add0e028ef4b1bea46c9a68409dbe8" target="_top" xlink:title="tlz::dataset_view::y">
<polygon fill="white" stroke="black" points="131,-156 131,-175 233,-175 233,-156 131,-156"/>
<text text-anchor="middle" x="182" y="-163" font-family="Helvetica,sans-Serif" font-size="10.00">tlz::dataset_view::y</text>
</a>
</g>
</g>
<!-- Node1&#45;&gt;Node3 -->
<g id="edge2" class="edge"><title>Node1&#45;&gt;Node3</title>
<path fill="none" stroke="midnightblue" d="M95.2145,-177.801C103.462,-176.619 112.152,-175.373 120.709,-174.146"/>
<polygon fill="midnightblue" stroke="midnightblue" points="121.256,-177.603 130.658,-172.719 120.262,-170.674 121.256,-177.603"/>
</g>
<!-- Node4 -->
<g id="node4" class="node"><title>Node4</title>
<g id="a_node4"><a xlink:href="classtlz_1_1dataset__view.html#a4951a6300847e0fed4fecf79d8753b58" target="_top" xlink:title="tlz::dataset_view::\llocal_parameters">
<polygon fill="white" stroke="black" points="535,-231.5 535,-261.5 632,-261.5 632,-231.5 535,-231.5"/>
<text text-anchor="start" x="543" y="-249.5" font-family="Helvetica,sans-Serif" font-size="10.00">tlz::dataset_view::</text>
<text text-anchor="middle" x="583.5" y="-238.5" font-family="Helvetica,sans-Serif" font-size="10.00">local_parameters</text>
</a>
</g>
</g>
<!-- Node3&#45;&gt;Node4 -->
<g id="edge3" class="edge"><title>Node3&#45;&gt;Node4</title>
<path fill="none" stroke="midnightblue" d="M218.659,-175.017C223.88,-177.504 228.877,-180.616 233,-184.5 261.381,-211.235 236.258,-243.33 269,-264.5 350.756,-317.362 471.006,-287.713 536.26,-264.946"/>
<polygon fill="midnightblue" stroke="midnightblue" points="537.628,-268.174 545.861,-261.506 535.267,-261.584 537.628,-268.174"/>
</g>
<!-- Node6 -->
<g id="node6" class="node"><title>Node6</title>
<g id="a_node6"><a xlink:href="classtlz_1_1dataset__view.html#a327a842dc304656596d65b9bbf52fb1c" target="_top" xlink:title="tlz::dataset_view::\llocal_filename">
<polygon fill="white" stroke="black" points="402,-175.5 402,-205.5 499,-205.5 499,-175.5 402,-175.5"/>
<text text-anchor="start" x="410" y="-193.5" font-family="Helvetica,sans-Serif" font-size="10.00">tlz::dataset_view::</text>
<text text-anchor="middle" x="450.5" y="-182.5" font-family="Helvetica,sans-Serif" font-size="10.00">local_filename</text>
</a>
</g>
</g>
<!-- Node3&#45;&gt;Node6 -->
<g id="edge5" class="edge"><title>Node3&#45;&gt;Node6</title>
<path fill="none" stroke="midnightblue" d="M194.922,-155.995C210.754,-144.042 240.097,-124.156 269,-116.5 310.674,-105.461 325.692,-101.209 366,-116.5 392.614,-126.596 416.188,-149.485 431.442,-167.154"/>
<polygon fill="midnightblue" stroke="midnightblue" points="429.155,-169.877 438.239,-175.329 434.537,-165.402 429.155,-169.877"/>
</g>
<!-- Node9 -->
<g id="node9" class="node"><title>Node9</title>
<g id="a_node9"><a xlink:href="classtlz_1_1dataset__view.html#a38cfd9cd54168855c54c607d01184c17" target="_top" xlink:title="tlz::dataset_view::\lcamera_name">
<polygon fill="white" stroke="black" points="402,-312.5 402,-342.5 499,-342.5 499,-312.5 402,-312.5"/>
<text text-anchor="start" x="410" y="-330.5" font-family="Helvetica,sans-Serif" font-size="10.00">tlz::dataset_view::</text>
<text text-anchor="middle" x="450.5" y="-319.5" font-family="Helvetica,sans-Serif" font-size="10.00">camera_name</text>
</a>
</g>
</g>
<!-- Node3&#45;&gt;Node9 -->
<g id="edge9" class="edge"><title>Node3&#45;&gt;Node9</title>
<path fill="none" stroke="midnightblue" d="M220.071,-175.126C224.864,-177.582 229.361,-180.656 233,-184.5 269.237,-222.777 229.149,-263.001 269,-297.5 302.291,-326.32 352.449,-332.726 391.448,-332.541"/>
<polygon fill="midnightblue" stroke="midnightblue" points="391.686,-336.037 401.616,-332.344 391.551,-329.038 391.686,-336.037"/>
</g>
<!-- Node10 -->
<g id="node10" class="node"><title>Node10</title>
<g id="a_node10"><a xlink:href="classtlz_1_1dataset__view.html#af3c734eaed33af07993255db63d3fc54" target="_top" xlink:title="tlz::dataset_view::\limage_filename">
<polygon fill="white" stroke="black" points="269,-224.5 269,-254.5 366,-254.5 366,-224.5 269,-224.5"/>
<text text-anchor="start" x="277" y="-242.5" font-family="Helvetica,sans-Serif" font-size="10.00">tlz::dataset_view::</text>
<text text-anchor="middle" x="317.5" y="-231.5" font-family="Helvetica,sans-Serif" font-size="10.00">image_filename</text>
</a>
</g>
</g>
<!-- Node3&#45;&gt;Node10 -->
<g id="edge11" class="edge"><title>Node3&#45;&gt;Node10</title>
<path fill="none" stroke="midnightblue" d="M213.139,-175.012C219.885,-177.666 226.856,-180.842 233,-184.5 251.142,-195.302 251.448,-203.764 269,-215.5 270.903,-216.773 272.883,-218.024 274.907,-219.246"/>
<polygon fill="midnightblue" stroke="midnightblue" points="273.537,-222.493 283.961,-224.392 276.996,-216.407 273.537,-222.493"/>
</g>
<!-- Node11 -->
<g id="node11" class="node"><title>Node11</title>
<g id="a_node11"><a xlink:href="classtlz_1_1dataset__view.html#a63238745feff55e3d0bea101589895c1" target="_top" xlink:title="tlz::dataset_view::\ldepth_filename">
<polygon fill="white" stroke="black" points="269,-175.5 269,-205.5 366,-205.5 366,-175.5 269,-175.5"/>
<text text-anchor="start" x="277" y="-193.5" font-family="Helvetica,sans-Serif" font-size="10.00">tlz::dataset_view::</text>
<text text-anchor="middle" x="317.5" y="-182.5" font-family="Helvetica,sans-Serif" font-size="10.00">depth_filename</text>
</a>
</g>
</g>
<!-- Node3&#45;&gt;Node11 -->
<g id="edge13" class="edge"><title>Node3&#45;&gt;Node11</title>
<path fill="none" stroke="midnightblue" d="M233.09,-174.88C241.492,-176.454 250.271,-178.098 258.845,-179.703"/>
<polygon fill="midnightblue" stroke="midnightblue" points="258.309,-183.164 268.782,-181.564 259.597,-176.283 258.309,-183.164"/>
</g>
<!-- Node12 -->
<g id="node12" class="node"><title>Node12</title>
<g id="a_node12"><a xlink:href="classtlz_1_1dataset__view.html#adcb6370e1971f53a5dc49bbafed33725" target="_top" xlink:title="tlz::dataset_view::\lmask_filename">
<polygon fill="white" stroke="black" points="269,-126.5 269,-156.5 366,-156.5 366,-126.5 269,-126.5"/>
<text text-anchor="start" x="277" y="-144.5" font-family="Helvetica,sans-Serif" font-size="10.00">tlz::dataset_view::</text>
<text text-anchor="middle" x="317.5" y="-133.5" font-family="Helvetica,sans-Serif" font-size="10.00">mask_filename</text>
</a>
</g>
</g>
<!-- Node3&#45;&gt;Node12 -->
<g id="edge15" class="edge"><title>Node3&#45;&gt;Node12</title>
<path fill="none" stroke="midnightblue" d="M233.09,-156.495C241.492,-154.985 250.271,-153.406 258.845,-151.865"/>
<polygon fill="midnightblue" stroke="midnightblue" points="259.559,-155.293 268.782,-150.079 258.321,-148.403 259.559,-155.293"/>
</g>
<!-- Node13 -->
<g id="node13" class="node"><title>Node13</title>
<g id="a_node13"><a xlink:href="classtlz_1_1dataset__view.html#a3bd68edab92df988a6b0c13d65b6bfca" target="_top" xlink:title="tlz::dataset_view::\lgroup">
<polygon fill="white" stroke="black" points="269,-0.5 269,-30.5 366,-30.5 366,-0.5 269,-0.5"/>
<text text-anchor="start" x="277" y="-18.5" font-family="Helvetica,sans-Serif" font-size="10.00">tlz::dataset_view::</text>
<text text-anchor="middle" x="317.5" y="-7.5" font-family="Helvetica,sans-Serif" font-size="10.00">group</text>
</a>
</g>
</g>
<!-- Node3&#45;&gt;Node13 -->
<g id="edge17" class="edge"><title>Node3&#45;&gt;Node13</title>
<path fill="none" stroke="midnightblue" d="M188.192,-155.835C200.194,-134.13 231.708,-80.672 269,-45.5 272.364,-42.3275 276.111,-39.3012 279.983,-36.4758"/>
<polygon fill="midnightblue" stroke="midnightblue" points="282.268,-39.1547 288.562,-30.6325 278.327,-33.3692 282.268,-39.1547"/>
</g>
<!-- Node14 -->
<g id="node14" class="node"><title>Node14</title>
<g id="a_node14"><a xlink:href="classtlz_1_1dataset__view.html#a1ec7ba844d313cddc558874fe85246a8" target="_top" xlink:title="tlz::dataset_view::\lgroup_view">
<polygon fill="white" stroke="black" points="535,-131.5 535,-161.5 632,-161.5 632,-131.5 535,-131.5"/>
<text text-anchor="start" x="543" y="-149.5" font-family="Helvetica,sans-Serif" font-size="10.00">tlz::dataset_view::</text>
<text text-anchor="middle" x="583.5" y="-138.5" font-family="Helvetica,sans-Serif" font-size="10.00">group_view</text>
</a>
</g>
</g>
<!-- Node3&#45;&gt;Node14 -->
<g id="edge18" class="edge"><title>Node3&#45;&gt;Node14</title>
<path fill="none" stroke="midnightblue" d="M192.412,-155.534C207.103,-140.787 237.122,-113.793 269,-103.5 361.053,-73.7775 474.788,-105.285 536.83,-127.854"/>
<polygon fill="midnightblue" stroke="midnightblue" points="535.739,-131.182 546.332,-131.389 538.18,-124.622 535.739,-131.182"/>
</g>
<!-- Node5 -->
<g id="node5" class="node"><title>Node5</title>
<g id="a_node5"><a xlink:href="classtlz_1_1dataset.html#ab14f5b1f18c0ab423c18270b7ca46bd2" target="_top" xlink:title="tlz::dataset::parameters">
<polygon fill="white" stroke="black" points="668,-237 668,-256 788,-256 788,-237 668,-237"/>
<text text-anchor="middle" x="728" y="-244" font-family="Helvetica,sans-Serif" font-size="10.00">tlz::dataset::parameters</text>
</a>
</g>
</g>
<!-- Node4&#45;&gt;Node5 -->
<g id="edge4" class="edge"><title>Node4&#45;&gt;Node5</title>
<path fill="none" stroke="midnightblue" d="M632.347,-246.5C640.541,-246.5 649.2,-246.5 657.818,-246.5"/>
<polygon fill="midnightblue" stroke="midnightblue" points="657.886,-250 667.886,-246.5 657.886,-243 657.886,-250"/>
</g>
<!-- Node6&#45;&gt;Node4 -->
<g id="edge8" class="edge"><title>Node6&#45;&gt;Node4</title>
<path fill="none" stroke="midnightblue" d="M486.606,-205.507C502.318,-212.224 521.028,-220.222 537.732,-227.362"/>
<polygon fill="midnightblue" stroke="midnightblue" points="536.727,-230.739 547.298,-231.452 539.478,-224.303 536.727,-230.739"/>
</g>
<!-- Node7 -->
<g id="node7" class="node"><title>Node7</title>
<g id="a_node7"><a xlink:href="namespacetlz.html#add846dc50c32dfb356cb1a7ac11d37ac" target="_top" xlink:title="tlz::get_or">
<polygon fill="white" stroke="black" points="553.5,-181 553.5,-200 613.5,-200 613.5,-181 553.5,-181"/>
<text text-anchor="middle" x="583.5" y="-188" font-family="Helvetica,sans-Serif" font-size="10.00">tlz::get_or</text>
</a>
</g>
</g>
<!-- Node6&#45;&gt;Node7 -->
<g id="edge6" class="edge"><title>Node6&#45;&gt;Node7</title>
<path fill="none" stroke="midnightblue" d="M499.165,-190.5C513.622,-190.5 529.335,-190.5 543.179,-190.5"/>
<polygon fill="midnightblue" stroke="midnightblue" points="543.351,-194 553.351,-190.5 543.351,-187 543.351,-194"/>
</g>
<!-- Node8 -->
<g id="node8" class="node"><title>Node8</title>
<g id="a_node8"><a xlink:href="namespacetlz.html#a252af14b9b4ac6502d3e9c5dd8dc90b8" target="_top" xlink:title="tlz::has">
<polygon fill="white" stroke="black" points="703.5,-181 703.5,-200 752.5,-200 752.5,-181 703.5,-181"/>
<text text-anchor="middle" x="728" y="-188" font-family="Helvetica,sans-Serif" font-size="10.00">tlz::has</text>
</a>
</g>
</g>
<!-- Node7&#45;&gt;Node8 -->
<g id="edge7" class="edge"><title>Node7&#45;&gt;Node8</title>
<path fill="none" stroke="midnightblue" d="M613.681,-190.5C636.662,-190.5 668.741,-190.5 692.904,-190.5"/>
<polygon fill="midnightblue" stroke="midnightblue" points="693.056,-194 703.056,-190.5 693.056,-187 693.056,-194"/>
</g>
<!-- Node9&#45;&gt;Node5 -->
<g id="edge10" class="edge"><title>Node9&#45;&gt;Node5</title>
<path fill="none" stroke="midnightblue" d="M499.174,-313.483C551.475,-298.106 634.627,-273.659 684.694,-258.938"/>
<polygon fill="midnightblue" stroke="midnightblue" points="685.943,-262.219 694.55,-256.041 683.969,-255.504 685.943,-262.219"/>
</g>
<!-- Node10&#45;&gt;Node6 -->
<g id="edge12" class="edge"><title>Node10&#45;&gt;Node6</title>
<path fill="none" stroke="midnightblue" d="M358.873,-224.399C371.698,-219.601 386.038,-214.238 399.459,-209.218"/>
<polygon fill="midnightblue" stroke="midnightblue" points="400.895,-212.418 409.035,-205.636 398.442,-205.861 400.895,-212.418"/>
</g>
<!-- Node11&#45;&gt;Node6 -->
<g id="edge14" class="edge"><title>Node11&#45;&gt;Node6</title>
<path fill="none" stroke="midnightblue" d="M366.165,-190.5C374.382,-190.5 383.005,-190.5 391.46,-190.5"/>
<polygon fill="midnightblue" stroke="midnightblue" points="391.651,-194 401.651,-190.5 391.651,-187 391.651,-194"/>
</g>
<!-- Node12&#45;&gt;Node6 -->
<g id="edge16" class="edge"><title>Node12&#45;&gt;Node6</title>
<path fill="none" stroke="midnightblue" d="M358.873,-156.601C371.698,-161.399 386.038,-166.762 399.459,-171.782"/>
<polygon fill="midnightblue" stroke="midnightblue" points="398.442,-175.139 409.035,-175.364 400.895,-168.582 398.442,-175.139"/>
</g>
<!-- Node14&#45;&gt;Node5 -->
<g id="edge21" class="edge"><title>Node14&#45;&gt;Node5</title>
<path fill="none" stroke="midnightblue" d="M616.557,-161.515C621.901,-164.534 627.246,-167.898 632,-171.5 650.542,-185.551 650.002,-194.758 668,-209.5 677.983,-217.677 689.898,-225.468 700.398,-231.772"/>
<polygon fill="midnightblue" stroke="midnightblue" points="698.778,-234.879 709.177,-236.902 702.309,-228.835 698.778,-234.879"/>
</g>
<!-- Node14&#45;&gt;Node8 -->
<g id="edge20" class="edge"><title>Node14&#45;&gt;Node8</title>
<path fill="none" stroke="midnightblue" d="M632.347,-161.274C652.54,-167.509 675.555,-174.615 693.834,-180.259"/>
<polygon fill="midnightblue" stroke="midnightblue" points="692.867,-183.624 703.454,-183.23 694.932,-176.935 692.867,-183.624"/>
</g>
<!-- Node15 -->
<g id="node15" class="node"><title>Node15</title>
<g id="a_node15"><a xlink:href="classtlz_1_1dataset__view.html#a31a73cf70078f270c9045bc0babadee2" target="_top" xlink:title="tlz::dataset_view::\ldataset_view">
<polygon fill="white" stroke="black" points="679.5,-131.5 679.5,-161.5 776.5,-161.5 776.5,-131.5 679.5,-131.5"/>
<text text-anchor="start" x="687.5" y="-149.5" font-family="Helvetica,sans-Serif" font-size="10.00">tlz::dataset_view::</text>
<text text-anchor="middle" x="728" y="-138.5" font-family="Helvetica,sans-Serif" font-size="10.00">dataset_view</text>
</a>
</g>
</g>
<!-- Node14&#45;&gt;Node15 -->
<g id="edge19" class="edge"><title>Node14&#45;&gt;Node15</title>
<path fill="none" stroke="midnightblue" d="M632.347,-146.5C644.096,-146.5 656.8,-146.5 668.971,-146.5"/>
<polygon fill="midnightblue" stroke="midnightblue" points="669.037,-150 679.037,-146.5 669.037,-143 669.037,-150"/>
</g>
</g>
</svg>
