<?xml version="1.0" encoding="UTF-8" standalone="no"?>
<!DOCTYPE svg PUBLIC "-//W3C//DTD SVG 1.1//EN"
 "http://www.w3.org/Graphics/SVG/1.1/DTD/svg11.dtd">
<!-- Generated by graphviz version 2.38.0 (20140413.2041)
 -->
<!-- Title: tlz::viewer::draw Pages: 1 -->
<svg width="523pt" height="97pt"
 viewBox="0.00 0.00 523.00 96.50" xmlns="http://www.w3.org/2000/svg" xmlns:xlink="http://www.w3.org/1999/xlink">
<g id="graph0" class="graph" transform="scale(1 1) rotate(0) translate(4 92.5)">
<title>tlz::viewer::draw</title>
<polygon fill="white" stroke="none" points="-4,4 -4,-92.5 519,-92.5 519,4 -4,4"/>
<!-- Node1 -->
<g id="node1" class="node"><title>Node1</title>
<polygon fill="#bfbfbf" stroke="black" points="0,-31 0,-50 89,-50 89,-31 0,-31"/>
<text text-anchor="middle" x="44.5" y="-38" font-family="Helvetica,sans-Serif" font-size="10.00">tlz::viewer::draw</text>
</g>
<!-- Node2 -->
<g id="node2" class="node"><title>Node2</title>
<g id="a_node2"><a xlink:href="classtlz_1_1viewer.html#a5f0412cff89a343ad52431689502389d" target="_top" xlink:title="tlz::viewer::draw">
<polygon fill="white" stroke="black" points="287.5,-50 287.5,-69 376.5,-69 376.5,-50 287.5,-50"/>
<text text-anchor="middle" x="332" y="-57" font-family="Helvetica,sans-Serif" font-size="10.00">tlz::viewer::draw</text>
</a>
</g>
</g>
<!-- Node1&#45;&gt;Node2 -->
<g id="edge1" class="edge"><title>Node1&#45;&gt;Node2</title>
<path fill="none" stroke="midnightblue" d="M89.1721,-43.4064C139.653,-46.7659 222.753,-52.2962 277.183,-55.9185"/>
<polygon fill="midnightblue" stroke="midnightblue" points="277.122,-59.4221 287.333,-56.594 277.587,-52.4376 277.122,-59.4221"/>
</g>
<!-- Node5 -->
<g id="node5" class="node"><title>Node5</title>
<g id="a_node5"><a xlink:href="classtlz_1_1viewer.html#a7f8bb5582e18ad278881cc065d7c21fa" target="_top" xlink:title="tlz::viewer::draw_depth">
<polygon fill="white" stroke="black" points="125,-12 125,-31 243,-31 243,-12 125,-12"/>
<text text-anchor="middle" x="184" y="-19" font-family="Helvetica,sans-Serif" font-size="10.00">tlz::viewer::draw_depth</text>
</a>
</g>
</g>
<!-- Node1&#45;&gt;Node5 -->
<g id="edge4" class="edge"><title>Node1&#45;&gt;Node5</title>
<path fill="none" stroke="midnightblue" d="M89.0059,-34.4883C97.149,-33.363 105.841,-32.162 114.527,-30.9617"/>
<polygon fill="midnightblue" stroke="midnightblue" points="115.261,-34.3937 124.688,-29.5577 114.303,-27.4595 115.261,-34.3937"/>
</g>
<!-- Node3 -->
<g id="node3" class="node"><title>Node3</title>
<g id="a_node3"><a xlink:href="classtlz_1_1viewer.html#acc43bf1dd1d0c3cdc35a948d4c194769" target="_top" xlink:title="tlz::viewer::width">
<polygon fill="white" stroke="black" points="422.5,-69 422.5,-88 513.5,-88 513.5,-69 422.5,-69"/>
<text text-anchor="middle" x="468" y="-76" font-family="Helvetica,sans-Serif" font-size="10.00">tlz::viewer::width</text>
</a>
</g>
</g>
<!-- Node2&#45;&gt;Node3 -->
<g id="edge2" class="edge"><title>Node2&#45;&gt;Node3</title>
<path fill="none" stroke="midnightblue" d="M376.506,-65.6688C387.854,-67.2779 400.232,-69.033 412.088,-70.714"/>
<polygon fill="midnightblue" stroke="midnightblue" points="411.941,-74.2281 422.333,-72.1667 412.924,-67.2974 411.941,-74.2281"/>
</g>
<!-- Node4 -->
<g id="node4" class="node"><title>Node4</title>
<g id="a_node4"><a xlink:href="classtlz_1_1viewer.html#af74a8aef9dde68eeff6b1e2561b39014" target="_top" xlink:title="tlz::viewer::height">
<polygon fill="white" stroke="black" points="421,-31 421,-50 515,-50 515,-31 421,-31"/>
<text text-anchor="middle" x="468" y="-38" font-family="Helvetica,sans-Serif" font-size="10.00">tlz::viewer::height</text>
</a>
</g>
</g>
<!-- Node2&#45;&gt;Node4 -->
<g id="edge3" class="edge"><title>Node2&#45;&gt;Node4</title>
<path fill="none" stroke="midnightblue" d="M376.506,-53.3312C387.5,-51.7724 399.46,-50.0766 410.975,-48.4438"/>
<polygon fill="midnightblue" stroke="midnightblue" points="411.535,-51.8995 420.945,-47.0302 410.553,-44.9688 411.535,-51.8995"/>
</g>
<!-- Node5&#45;&gt;Node2 -->
<g id="edge6" class="edge"><title>Node5&#45;&gt;Node2</title>
<path fill="none" stroke="midnightblue" d="M221.842,-31.089C240.848,-36.0358 264.229,-42.1211 284.469,-47.3892"/>
<polygon fill="midnightblue" stroke="midnightblue" points="283.864,-50.8482 294.423,-49.9799 285.627,-44.0739 283.864,-50.8482"/>
</g>
<!-- Node6 -->
<g id="node6" class="node"><title>Node6</title>
<g id="a_node6"><a xlink:href="classtlz_1_1viewer.html#a6a59617413dc76948b6802399ddf555b" target="_top" xlink:title="tlz::viewer::visualize\l_depth">
<polygon fill="white" stroke="black" points="279,-0.5 279,-30.5 385,-30.5 385,-0.5 279,-0.5"/>
<text text-anchor="start" x="287" y="-18.5" font-family="Helvetica,sans-Serif" font-size="10.00">tlz::viewer::visualize</text>
<text text-anchor="middle" x="332" y="-7.5" font-family="Helvetica,sans-Serif" font-size="10.00">_depth</text>
</a>
</g>
</g>
<!-- Node5&#45;&gt;Node6 -->
<g id="edge5" class="edge"><title>Node5&#45;&gt;Node6</title>
<path fill="none" stroke="midnightblue" d="M243.123,-19.1114C251.49,-18.7675 260.129,-18.4125 268.576,-18.0654"/>
<polygon fill="midnightblue" stroke="midnightblue" points="268.903,-21.555 278.751,-17.6472 268.616,-14.5609 268.903,-21.555"/>
</g>
</g>
</svg>
