<?xml version="1.0" encoding="UTF-8" standalone="no"?>
<!DOCTYPE svg PUBLIC "-//W3C//DTD SVG 1.1//EN"
 "http://www.w3.org/Graphics/SVG/1.1/DTD/svg11.dtd">
<!-- Generated by graphviz version 2.38.0 (20140413.2041)
 -->
<!-- Title: tlz::viewer::viewer Pages: 1 -->
<svg width="379pt" height="341pt"
 viewBox="0.00 0.00 379.00 341.34" xmlns="http://www.w3.org/2000/svg" xmlns:xlink="http://www.w3.org/1999/xlink">
<g id="graph0" class="graph" transform="scale(1 1) rotate(0) translate(4 337.337)">
<title>tlz::viewer::viewer</title>
<polygon fill="white" stroke="none" points="-4,4 -4,-337.337 375,-337.337 375,4 -4,4"/>
<!-- Node1 -->
<g id="node1" class="node"><title>Node1</title>
<polygon fill="#bfbfbf" stroke="black" points="0,-144.837 0,-163.837 96,-163.837 96,-144.837 0,-144.837"/>
<text text-anchor="middle" x="48" y="-151.837" font-family="Helvetica,sans-Serif" font-size="10.00">tlz::viewer::viewer</text>
</g>
<!-- Node2 -->
<g id="node2" class="node"><title>Node2</title>
<g id="a_node2"><a xlink:href="classtlz_1_1viewer.html#ab840cedc6c257c4270c43d59705842cc" target="_top" xlink:title="tlz::viewer::viewer">
<polygon fill="white" stroke="black" points="138.5,-313.837 138.5,-332.837 234.5,-332.837 234.5,-313.837 138.5,-313.837"/>
<text text-anchor="middle" x="186.5" y="-320.837" font-family="Helvetica,sans-Serif" font-size="10.00">tlz::viewer::viewer</text>
</a>
</g>
</g>
<!-- Node1&#45;&gt;Node2 -->
<g id="edge1" class="edge"><title>Node1&#45;&gt;Node2</title>
<path fill="none" stroke="midnightblue" d="M51.6799,-163.957C59.5012,-190.3 84.7844,-264.299 132,-304.337 134.006,-306.039 136.176,-307.592 138.452,-309.009"/>
<polygon fill="midnightblue" stroke="midnightblue" points="137.165,-312.286 147.647,-313.828 140.415,-306.086 137.165,-312.286"/>
</g>
<!-- Node3 -->
<g id="node3" class="node"><title>Node3</title>
<g id="a_node3"><a xlink:href="classtlz_1_1viewer.html#a2db3e67ba1350a8be839d1725bd7ebc2" target="_top" xlink:title="tlz::viewer::~viewer">
<polygon fill="white" stroke="black" points="135.5,-275.837 135.5,-294.837 237.5,-294.837 237.5,-275.837 135.5,-275.837"/>
<text text-anchor="middle" x="186.5" y="-282.837" font-family="Helvetica,sans-Serif" font-size="10.00">tlz::viewer::~viewer</text>
</a>
</g>
</g>
<!-- Node1&#45;&gt;Node3 -->
<g id="edge2" class="edge"><title>Node1&#45;&gt;Node3</title>
<path fill="none" stroke="midnightblue" d="M53.5922,-163.937C64.3191,-185.38 93.0932,-237.542 132,-266.337 134.494,-268.183 137.184,-269.863 139.984,-271.389"/>
<polygon fill="midnightblue" stroke="midnightblue" points="138.66,-274.634 149.196,-275.755 141.659,-268.309 138.66,-274.634"/>
</g>
<!-- Node4 -->
<g id="node4" class="node"><title>Node4</title>
<g id="a_node4"><a xlink:href="classtlz_1_1viewer.html#af41f88c9e47de049a1a7ff895c5fb5a1" target="_top" xlink:title="tlz::viewer::operator=">
<polygon fill="white" stroke="black" points="132,-237.837 132,-256.837 241,-256.837 241,-237.837 132,-237.837"/>
<text text-anchor="middle" x="186.5" y="-244.837" font-family="Helvetica,sans-Serif" font-size="10.00">tlz::viewer::operator=</text>
</a>
</g>
</g>
<!-- Node1&#45;&gt;Node4 -->
<g id="edge3" class="edge"><title>Node1&#45;&gt;Node4</title>
<path fill="none" stroke="midnightblue" d="M57.7503,-164.31C71.93,-179.927 101.436,-210.236 132,-228.337 135.432,-230.37 139.116,-232.235 142.886,-233.934"/>
<polygon fill="midnightblue" stroke="midnightblue" points="141.763,-237.256 152.343,-237.818 144.422,-230.781 141.763,-237.256"/>
</g>
<!-- Node5 -->
<g id="node5" class="node"><title>Node5</title>
<g id="a_node5"><a xlink:href="classtlz_1_1viewer.html#a2bf9d63d7a1a5ec4d5bdabc13d9ab688" target="_top" xlink:title="tlz::viewer::add_int\l_slider">
<polygon fill="white" stroke="black" points="137,-188.337 137,-218.337 236,-218.337 236,-188.337 137,-188.337"/>
<text text-anchor="start" x="145" y="-206.337" font-family="Helvetica,sans-Serif" font-size="10.00">tlz::viewer::add_int</text>
<text text-anchor="middle" x="186.5" y="-195.337" font-family="Helvetica,sans-Serif" font-size="10.00">_slider</text>
</a>
</g>
</g>
<!-- Node1&#45;&gt;Node5 -->
<g id="edge4" class="edge"><title>Node1&#45;&gt;Node5</title>
<path fill="none" stroke="midnightblue" d="M75.6426,-163.901C92.2448,-169.861 114.159,-177.728 134.044,-184.866"/>
<polygon fill="midnightblue" stroke="midnightblue" points="133.017,-188.216 143.611,-188.3 135.382,-181.627 133.017,-188.216"/>
</g>
<!-- Node6 -->
<g id="node6" class="node"><title>Node6</title>
<g id="a_node6"><a xlink:href="classtlz_1_1viewer.html#a4be73d43a59e54ac622a45ecb042e351" target="_top" xlink:title="tlz::viewer::add_real\l_slider">
<polygon fill="white" stroke="black" points="134.5,-139.337 134.5,-169.337 238.5,-169.337 238.5,-139.337 134.5,-139.337"/>
<text text-anchor="start" x="142.5" y="-157.337" font-family="Helvetica,sans-Serif" font-size="10.00">tlz::viewer::add_real</text>
<text text-anchor="middle" x="186.5" y="-146.337" font-family="Helvetica,sans-Serif" font-size="10.00">_slider</text>
</a>
</g>
</g>
<!-- Node1&#45;&gt;Node6 -->
<g id="edge5" class="edge"><title>Node1&#45;&gt;Node6</title>
<path fill="none" stroke="midnightblue" d="M96.358,-154.337C105.197,-154.337 114.554,-154.337 123.752,-154.337"/>
<polygon fill="midnightblue" stroke="midnightblue" points="124.034,-157.837 134.033,-154.337 124.033,-150.837 124.034,-157.837"/>
</g>
<!-- Node7 -->
<g id="node7" class="node"><title>Node7</title>
<g id="a_node7"><a xlink:href="classtlz_1_1viewer.html#acc43bf1dd1d0c3cdc35a948d4c194769" target="_top" xlink:title="tlz::viewer::width">
<polygon fill="white" stroke="black" points="278.5,-81.8373 278.5,-100.837 369.5,-100.837 369.5,-81.8373 278.5,-81.8373"/>
<text text-anchor="middle" x="324" y="-88.8373" font-family="Helvetica,sans-Serif" font-size="10.00">tlz::viewer::width</text>
</a>
</g>
</g>
<!-- Node1&#45;&gt;Node7 -->
<g id="edge6" class="edge"><title>Node1&#45;&gt;Node7</title>
<path fill="none" stroke="midnightblue" d="M79.9783,-144.741C95.5144,-140.091 114.668,-134.605 132,-130.337 177.702,-119.083 230.117,-108.547 268.464,-101.27"/>
<polygon fill="midnightblue" stroke="midnightblue" points="269.213,-104.69 278.392,-99.3989 267.917,-97.8114 269.213,-104.69"/>
</g>
<!-- Node8 -->
<g id="node8" class="node"><title>Node8</title>
<g id="a_node8"><a xlink:href="classtlz_1_1viewer.html#af74a8aef9dde68eeff6b1e2561b39014" target="_top" xlink:title="tlz::viewer::height">
<polygon fill="white" stroke="black" points="277,-24.8373 277,-43.8373 371,-43.8373 371,-24.8373 277,-24.8373"/>
<text text-anchor="middle" x="324" y="-31.8373" font-family="Helvetica,sans-Serif" font-size="10.00">tlz::viewer::height</text>
</a>
</g>
</g>
<!-- Node1&#45;&gt;Node8 -->
<g id="edge7" class="edge"><title>Node1&#45;&gt;Node8</title>
<path fill="none" stroke="midnightblue" d="M51.2973,-144.553C58.1408,-117.921 81.1568,-44.1954 132,-15.3373 182.494,13.3227 252.73,-5.83068 292.446,-20.9895"/>
<polygon fill="midnightblue" stroke="midnightblue" points="291.269,-24.2879 301.855,-24.7258 293.853,-17.7821 291.269,-24.2879"/>
</g>
<!-- Node9 -->
<g id="node9" class="node"><title>Node9</title>
<g id="a_node9"><a xlink:href="classtlz_1_1viewer.html#a2a8d3e239c7f75ea8cc0ddd953276289" target="_top" xlink:title="tlz::viewer::clear">
<polygon fill="white" stroke="black" points="142,-24.8373 142,-43.8373 231,-43.8373 231,-24.8373 142,-24.8373"/>
<text text-anchor="middle" x="186.5" y="-31.8373" font-family="Helvetica,sans-Serif" font-size="10.00">tlz::viewer::clear</text>
</a>
</g>
</g>
<!-- Node1&#45;&gt;Node9 -->
<g id="edge8" class="edge"><title>Node1&#45;&gt;Node9</title>
<path fill="none" stroke="midnightblue" d="M54.3626,-144.81C65.9817,-124.989 95.406,-79.027 132,-53.3373 134.702,-51.4401 137.614,-49.7141 140.633,-48.1469"/>
<polygon fill="midnightblue" stroke="midnightblue" points="142.271,-51.2469 149.914,-43.9097 139.363,-44.8792 142.271,-51.2469"/>
</g>
<!-- Node10 -->
<g id="node10" class="node"><title>Node10</title>
<g id="a_node10"><a xlink:href="classtlz_1_1viewer.html#a5f0412cff89a343ad52431689502389d" target="_top" xlink:title="tlz::viewer::draw">
<polygon fill="white" stroke="black" points="142,-62.8373 142,-81.8373 231,-81.8373 231,-62.8373 142,-62.8373"/>
<text text-anchor="middle" x="186.5" y="-69.8373" font-family="Helvetica,sans-Serif" font-size="10.00">tlz::viewer::draw</text>
</a>
</g>
</g>
<!-- Node1&#45;&gt;Node10 -->
<g id="edge9" class="edge"><title>Node1&#45;&gt;Node10</title>
<path fill="none" stroke="midnightblue" d="M61.174,-144.731C76.9408,-132.552 105.544,-111.338 132,-96.3373 138.453,-92.6782 145.568,-89.1575 152.445,-85.9929"/>
<polygon fill="midnightblue" stroke="midnightblue" points="153.879,-89.1854 161.59,-81.9187 151.031,-82.7912 153.879,-89.1854"/>
</g>
<!-- Node10&#45;&gt;Node7 -->
<g id="edge10" class="edge"><title>Node10&#45;&gt;Node7</title>
<path fill="none" stroke="midnightblue" d="M231.119,-78.4536C242.845,-80.0978 255.68,-81.8975 267.94,-83.6167"/>
<polygon fill="midnightblue" stroke="midnightblue" points="267.677,-87.1139 278.066,-85.0366 268.649,-80.1818 267.677,-87.1139"/>
</g>
<!-- Node10&#45;&gt;Node8 -->
<g id="edge11" class="edge"><title>Node10&#45;&gt;Node8</title>
<path fill="none" stroke="midnightblue" d="M221.692,-62.7483C239.104,-57.8654 260.471,-51.873 279.087,-46.6524"/>
<polygon fill="midnightblue" stroke="midnightblue" points="280.135,-49.9936 288.819,-43.9233 278.245,-43.2536 280.135,-49.9936"/>
</g>
</g>
</svg>
