<?xml version="1.0" encoding="UTF-8" standalone="no"?>
<!DOCTYPE svg PUBLIC "-//W3C//DTD SVG 1.1//EN"
 "http://www.w3.org/Graphics/SVG/1.1/DTD/svg11.dtd">
<!-- Generated by graphviz version 2.38.0 (20140413.2041)
 -->
<!-- Title: tlz::dataset::group Pages: 1 -->
<svg width="234pt" height="78pt"
 viewBox="0.00 0.00 234.00 77.50" xmlns="http://www.w3.org/2000/svg" xmlns:xlink="http://www.w3.org/1999/xlink">
<g id="graph0" class="graph" transform="scale(1 1) rotate(0) translate(4 73.5)">
<title>tlz::dataset::group</title>
<polygon fill="white" stroke="none" points="-4,4 -4,-73.5 230,-73.5 230,4 -4,4"/>
<!-- Node1 -->
<g id="node1" class="node"><title>Node1</title>
<polygon fill="#bfbfbf" stroke="black" points="0,-22.5 0,-41.5 95,-41.5 95,-22.5 0,-22.5"/>
<text text-anchor="middle" x="47.5" y="-29.5" font-family="Helvetica,sans-Serif" font-size="10.00">tlz::dataset::group</text>
</g>
<!-- Node2 -->
<g id="node2" class="node"><title>Node2</title>
<g id="a_node2"><a xlink:href="classtlz_1_1dataset__group.html#acad4f6300bfc455279aaeb975d5e61de" target="_top" xlink:title="tlz::dataset_group\l::dataset_group">
<polygon fill="white" stroke="black" points="131,-39 131,-69 226,-69 226,-39 131,-39"/>
<text text-anchor="start" x="139" y="-57" font-family="Helvetica,sans-Serif" font-size="10.00">tlz::dataset_group</text>
<text text-anchor="middle" x="178.5" y="-46" font-family="Helvetica,sans-Serif" font-size="10.00">::dataset_group</text>
</a>
</g>
</g>
<!-- Node1&#45;&gt;Node2 -->
<g id="edge1" class="edge"><title>Node1&#45;&gt;Node2</title>
<path fill="none" stroke="midnightblue" d="M95.072,-39.9425C103.475,-41.3756 112.319,-42.8839 120.969,-44.3591"/>
<polygon fill="midnightblue" stroke="midnightblue" points="120.55,-47.8381 130.996,-46.0692 121.727,-40.9377 120.55,-47.8381"/>
</g>
<!-- Node3 -->
<g id="node3" class="node"><title>Node3</title>
<g id="a_node3"><a xlink:href="namespacetlz.html#a252af14b9b4ac6502d3e9c5dd8dc90b8" target="_top" xlink:title="tlz::has">
<polygon fill="white" stroke="black" points="154,-0.5 154,-19.5 203,-19.5 203,-0.5 154,-0.5"/>
<text text-anchor="middle" x="178.5" y="-7.5" font-family="Helvetica,sans-Serif" font-size="10.00">tlz::has</text>
</a>
</g>
</g>
<!-- Node1&#45;&gt;Node3 -->
<g id="edge2" class="edge"><title>Node1&#45;&gt;Node3</title>
<path fill="none" stroke="midnightblue" d="M95.072,-24.0575C111.1,-21.324 128.733,-18.3169 143.562,-15.7878"/>
<polygon fill="midnightblue" stroke="midnightblue" points="144.533,-19.173 153.802,-14.0415 143.356,-12.2726 144.533,-19.173"/>
</g>
</g>
</svg>
