<?xml version="1.0" encoding="UTF-8" standalone="no"?>
<!DOCTYPE svg PUBLIC "-//W3C//DTD SVG 1.1//EN"
 "http://www.w3.org/Graphics/SVG/1.1/DTD/svg11.dtd">
<!-- Generated by graphviz version 2.38.0 (20140413.2041)
 -->
<!-- Title: tlz::depth_densify_splat Pages: 1 -->
<svg width="128pt" height="95pt"
 viewBox="0.00 0.00 128.00 95.00" xmlns="http://www.w3.org/2000/svg" xmlns:xlink="http://www.w3.org/1999/xlink">
<g id="graph0" class="graph" transform="scale(1 1) rotate(0) translate(4 91)">
<title>tlz::depth_densify_splat</title>
<polygon fill="white" stroke="none" points="-4,4 -4,-91 124,-91 124,4 -4,4"/>
<!-- Node1 -->
<g id="node1" class="node"><title>Node1</title>
<polygon fill="#bfbfbf" stroke="black" points="13,-0.5 13,-30.5 107,-30.5 107,-0.5 13,-0.5"/>
<text text-anchor="start" x="21" y="-18.5" font-family="Helvetica,sans-Serif" font-size="10.00">tlz::depth_densify</text>
<text text-anchor="middle" x="60" y="-7.5" font-family="Helvetica,sans-Serif" font-size="10.00">_splat</text>
</g>
<!-- Node2 -->
<g id="node2" class="node"><title>Node2</title>
<g id="a_node2"><a xlink:href="classtlz_1_1depth__densify__base.html" target="_top" xlink:title="tlz::depth_densify_base">
<polygon fill="white" stroke="black" points="-7.10543e-15,-67.5 -7.10543e-15,-86.5 120,-86.5 120,-67.5 -7.10543e-15,-67.5"/>
<text text-anchor="middle" x="60" y="-74.5" font-family="Helvetica,sans-Serif" font-size="10.00">tlz::depth_densify_base</text>
</a>
</g>
</g>
<!-- Node2&#45;&gt;Node1 -->
<g id="edge1" class="edge"><title>Node2&#45;&gt;Node1</title>
<path fill="none" stroke="midnightblue" d="M60,-57.2349C60,-48.5864 60,-38.4969 60,-30.523"/>
<polygon fill="midnightblue" stroke="midnightblue" points="56.5001,-57.4751 60,-67.4751 63.5001,-57.4751 56.5001,-57.4751"/>
</g>
</g>
</svg>
