<?xml version="1.0" encoding="UTF-8" standalone="no"?>
<!DOCTYPE svg PUBLIC "-//W3C//DTD SVG 1.1//EN"
 "http://www.w3.org/Graphics/SVG/1.1/DTD/svg11.dtd">
<!-- Generated by graphviz version 2.38.0 (20140413.2041)
 -->
<!-- Title: tlz::ply_exporter::close Pages: 1 -->
<svg width="315pt" height="53pt"
 viewBox="0.00 0.00 315.00 52.50" xmlns="http://www.w3.org/2000/svg" xmlns:xlink="http://www.w3.org/1999/xlink">
<g id="graph0" class="graph" transform="scale(1 1) rotate(0) translate(4 48.5)">
<title>tlz::ply_exporter::close</title>
<polygon fill="white" stroke="none" points="-4,4 -4,-48.5 311,-48.5 311,4 -4,4"/>
<!-- Node1 -->
<g id="node1" class="node"><title>Node1</title>
<polygon fill="#bfbfbf" stroke="black" points="0,-0.5 0,-30.5 92,-30.5 92,-0.5 0,-0.5"/>
<text text-anchor="start" x="8" y="-18.5" font-family="Helvetica,sans-Serif" font-size="10.00">tlz::ply_exporter::</text>
<text text-anchor="middle" x="46" y="-7.5" font-family="Helvetica,sans-Serif" font-size="10.00">close</text>
</g>
<!-- Node2 -->
<g id="node2" class="node"><title>Node2</title>
<g id="a_node2"><a xlink:href="namespacetlz.html#a4e9cdc9ca668d5050a9dfbfd7d60437d" target="_top" xlink:title="tlz::write_line">
<polygon fill="white" stroke="black" points="128,-25 128,-44 202,-44 202,-25 128,-25"/>
<text text-anchor="middle" x="165" y="-32" font-family="Helvetica,sans-Serif" font-size="10.00">tlz::write_line</text>
</a>
</g>
</g>
<!-- Node1&#45;&gt;Node2 -->
<g id="edge1" class="edge"><title>Node1&#45;&gt;Node2</title>
<path fill="none" stroke="midnightblue" d="M92.2353,-22.8459C100.647,-24.2119 109.445,-25.6407 117.883,-27.0109"/>
<polygon fill="midnightblue" stroke="midnightblue" points="117.515,-30.4969 127.946,-28.6451 118.637,-23.5874 117.515,-30.4969"/>
</g>
<!-- Node3 -->
<g id="node3" class="node"><title>Node3</title>
<g id="a_node3"><a xlink:href="namespacetlz.html#ab1d9ef738ca24791409c5af520dff3e6" target="_top" xlink:title="tlz::end_line">
<polygon fill="white" stroke="black" points="238,-6 238,-25 307,-25 307,-6 238,-6"/>
<text text-anchor="middle" x="272.5" y="-13" font-family="Helvetica,sans-Serif" font-size="10.00">tlz::end_line</text>
</a>
</g>
</g>
<!-- Node1&#45;&gt;Node3 -->
<g id="edge3" class="edge"><title>Node1&#45;&gt;Node3</title>
<path fill="none" stroke="midnightblue" d="M92.1609,-15.5C131.654,-15.5 188.648,-15.5 227.724,-15.5"/>
<polygon fill="midnightblue" stroke="midnightblue" points="227.746,-19.0001 237.746,-15.5 227.746,-12.0001 227.746,-19.0001"/>
</g>
<!-- Node2&#45;&gt;Node3 -->
<g id="edge2" class="edge"><title>Node2&#45;&gt;Node3</title>
<path fill="none" stroke="midnightblue" d="M202.012,-28.0144C210.335,-26.5154 219.279,-24.9047 227.888,-23.3543"/>
<polygon fill="midnightblue" stroke="midnightblue" points="228.561,-26.7894 237.783,-21.5723 227.321,-19.9003 228.561,-26.7894"/>
</g>
</g>
</svg>
