<?xml version="1.0" encoding="UTF-8" standalone="no"?>
<!DOCTYPE svg PUBLIC "-//W3C//DTD SVG 1.1//EN"
 "http://www.w3.org/Graphics/SVG/1.1/DTD/svg11.dtd">
<!-- Generated by graphviz version 2.38.0 (20140413.2041)
 -->
<!-- Title: tlz::viewer::viewer Pages: 1 -->
<svg width="236pt" height="104pt"
 viewBox="0.00 0.00 236.00 104.00" xmlns="http://www.w3.org/2000/svg" xmlns:xlink="http://www.w3.org/1999/xlink">
<g id="graph0" class="graph" transform="scale(1 1) rotate(0) translate(4 100)">
<title>tlz::viewer::viewer</title>
<polygon fill="white" stroke="none" points="-4,4 -4,-100 232,-100 232,4 -4,4"/>
<!-- Node1 -->
<g id="node1" class="node"><title>Node1</title>
<polygon fill="#bfbfbf" stroke="black" points="0,-38.5 0,-57.5 96,-57.5 96,-38.5 0,-38.5"/>
<text text-anchor="middle" x="48" y="-45.5" font-family="Helvetica,sans-Serif" font-size="10.00">tlz::viewer::viewer</text>
</g>
<!-- Node2 -->
<g id="node2" class="node"><title>Node2</title>
<g id="a_node2"><a xlink:href="classtlz_1_1viewer.html#ab840cedc6c257c4270c43d59705842cc" target="_top" xlink:title="tlz::viewer::viewer">
<polygon fill="white" stroke="black" points="132,-76.5 132,-95.5 228,-95.5 228,-76.5 132,-76.5"/>
<text text-anchor="middle" x="180" y="-83.5" font-family="Helvetica,sans-Serif" font-size="10.00">tlz::viewer::viewer</text>
</a>
</g>
</g>
<!-- Node1&#45;&gt;Node2 -->
<g id="edge1" class="edge"><title>Node1&#45;&gt;Node2</title>
<path fill="none" stroke="midnightblue" d="M81.8045,-57.589C98.2783,-62.4044 118.443,-68.2988 136.127,-73.468"/>
<polygon fill="midnightblue" stroke="midnightblue" points="135.626,-76.9677 146.206,-76.4141 137.59,-70.2489 135.626,-76.9677"/>
</g>
<!-- Node3 -->
<g id="node3" class="node"><title>Node3</title>
<g id="a_node3"><a xlink:href="classtlz_1_1viewer.html#acc43bf1dd1d0c3cdc35a948d4c194769" target="_top" xlink:title="tlz::viewer::width">
<polygon fill="white" stroke="black" points="134.5,-38.5 134.5,-57.5 225.5,-57.5 225.5,-38.5 134.5,-38.5"/>
<text text-anchor="middle" x="180" y="-45.5" font-family="Helvetica,sans-Serif" font-size="10.00">tlz::viewer::width</text>
</a>
</g>
</g>
<!-- Node1&#45;&gt;Node3 -->
<g id="edge2" class="edge"><title>Node1&#45;&gt;Node3</title>
<path fill="none" stroke="midnightblue" d="M96.3007,-48C105.268,-48 114.721,-48 123.905,-48"/>
<polygon fill="midnightblue" stroke="midnightblue" points="124.118,-51.5001 134.118,-48 124.118,-44.5001 124.118,-51.5001"/>
</g>
<!-- Node4 -->
<g id="node4" class="node"><title>Node4</title>
<g id="a_node4"><a xlink:href="classtlz_1_1viewer.html#af74a8aef9dde68eeff6b1e2561b39014" target="_top" xlink:title="tlz::viewer::height">
<polygon fill="white" stroke="black" points="133,-0.5 133,-19.5 227,-19.5 227,-0.5 133,-0.5"/>
<text text-anchor="middle" x="180" y="-7.5" font-family="Helvetica,sans-Serif" font-size="10.00">tlz::viewer::height</text>
</a>
</g>
</g>
<!-- Node1&#45;&gt;Node4 -->
<g id="edge3" class="edge"><title>Node1&#45;&gt;Node4</title>
<path fill="none" stroke="midnightblue" d="M81.8045,-38.411C98.2783,-33.5956 118.443,-27.7012 136.127,-22.532"/>
<polygon fill="midnightblue" stroke="midnightblue" points="137.59,-25.7511 146.206,-19.5859 135.626,-19.0323 137.59,-25.7511"/>
</g>
</g>
</svg>
