<?xml version="1.0" encoding="UTF-8" standalone="no"?>
<!DOCTYPE svg PUBLIC "-//W3C//DTD SVG 1.1//EN"
 "http://www.w3.org/Graphics/SVG/1.1/DTD/svg11.dtd">
<!-- Generated by graphviz version 2.38.0 (20140413.2041)
 -->
<!-- Title: tlz::dataset_view::group_view Pages: 1 -->
<svg width="261pt" height="116pt"
 viewBox="0.00 0.00 261.00 115.50" xmlns="http://www.w3.org/2000/svg" xmlns:xlink="http://www.w3.org/1999/xlink">
<g id="graph0" class="graph" transform="scale(1 1) rotate(0) translate(4 111.5)">
<title>tlz::dataset_view::group_view</title>
<polygon fill="white" stroke="none" points="-4,4 -4,-111.5 257,-111.5 257,4 -4,4"/>
<!-- Node1 -->
<g id="node1" class="node"><title>Node1</title>
<polygon fill="#bfbfbf" stroke="black" points="0,-33 0,-63 97,-63 97,-33 0,-33"/>
<text text-anchor="start" x="8" y="-51" font-family="Helvetica,sans-Serif" font-size="10.00">tlz::dataset_view::</text>
<text text-anchor="middle" x="48.5" y="-40" font-family="Helvetica,sans-Serif" font-size="10.00">group_view</text>
</g>
<!-- Node2 -->
<g id="node2" class="node"><title>Node2</title>
<g id="a_node2"><a xlink:href="classtlz_1_1dataset__view.html#a31a73cf70078f270c9045bc0babadee2" target="_top" xlink:title="tlz::dataset_view::\ldataset_view">
<polygon fill="white" stroke="black" points="144.5,-77 144.5,-107 241.5,-107 241.5,-77 144.5,-77"/>
<text text-anchor="start" x="152.5" y="-95" font-family="Helvetica,sans-Serif" font-size="10.00">tlz::dataset_view::</text>
<text text-anchor="middle" x="193" y="-84" font-family="Helvetica,sans-Serif" font-size="10.00">dataset_view</text>
</a>
</g>
</g>
<!-- Node1&#45;&gt;Node2 -->
<g id="edge1" class="edge"><title>Node1&#45;&gt;Node2</title>
<path fill="none" stroke="midnightblue" d="M97.3469,-62.7738C109.214,-66.4379 122.055,-70.4028 134.336,-74.1951"/>
<polygon fill="midnightblue" stroke="midnightblue" points="133.449,-77.5842 144.037,-77.1903 135.515,-70.8958 133.449,-77.5842"/>
</g>
<!-- Node3 -->
<g id="node3" class="node"><title>Node3</title>
<g id="a_node3"><a xlink:href="namespacetlz.html#a252af14b9b4ac6502d3e9c5dd8dc90b8" target="_top" xlink:title="tlz::has">
<polygon fill="white" stroke="black" points="168.5,-38.5 168.5,-57.5 217.5,-57.5 217.5,-38.5 168.5,-38.5"/>
<text text-anchor="middle" x="193" y="-45.5" font-family="Helvetica,sans-Serif" font-size="10.00">tlz::has</text>
</a>
</g>
</g>
<!-- Node1&#45;&gt;Node3 -->
<g id="edge2" class="edge"><title>Node1&#45;&gt;Node3</title>
<path fill="none" stroke="midnightblue" d="M97.3469,-48C117.353,-48 140.129,-48 158.325,-48"/>
<polygon fill="midnightblue" stroke="midnightblue" points="158.454,-51.5001 168.454,-48 158.454,-44.5001 158.454,-51.5001"/>
</g>
<!-- Node4 -->
<g id="node4" class="node"><title>Node4</title>
<g id="a_node4"><a xlink:href="classtlz_1_1dataset.html#ab14f5b1f18c0ab423c18270b7ca46bd2" target="_top" xlink:title="tlz::dataset::parameters">
<polygon fill="white" stroke="black" points="133,-0.5 133,-19.5 253,-19.5 253,-0.5 133,-0.5"/>
<text text-anchor="middle" x="193" y="-7.5" font-family="Helvetica,sans-Serif" font-size="10.00">tlz::dataset::parameters</text>
</a>
</g>
</g>
<!-- Node1&#45;&gt;Node4 -->
<g id="edge3" class="edge"><title>Node1&#45;&gt;Node4</title>
<path fill="none" stroke="midnightblue" d="M97.3469,-35.2408C113.133,-31.0313 130.642,-26.362 146.266,-22.1957"/>
<polygon fill="midnightblue" stroke="midnightblue" points="147.463,-25.4989 156.224,-19.5403 145.66,-18.7352 147.463,-25.4989"/>
</g>
</g>
</svg>
