<?xml version="1.0" encoding="UTF-8" standalone="no"?>
<!DOCTYPE svg PUBLIC "-//W3C//DTD SVG 1.1//EN"
 "http://www.w3.org/Graphics/SVG/1.1/DTD/svg11.dtd">
<!-- Generated by graphviz version 2.38.0 (20140413.2041)
 -->
<!-- Title: tlz::viewer::draw_depth Pages: 1 -->
<svg width="398pt" height="97pt"
 viewBox="0.00 0.00 398.00 96.50" xmlns="http://www.w3.org/2000/svg" xmlns:xlink="http://www.w3.org/1999/xlink">
<g id="graph0" class="graph" transform="scale(1 1) rotate(0) translate(4 92.5)">
<title>tlz::viewer::draw_depth</title>
<polygon fill="white" stroke="none" points="-4,4 -4,-92.5 394,-92.5 394,4 -4,4"/>
<!-- Node1 -->
<g id="node1" class="node"><title>Node1</title>
<polygon fill="#bfbfbf" stroke="black" points="0,-41.5 0,-60.5 118,-60.5 118,-41.5 0,-41.5"/>
<text text-anchor="middle" x="59" y="-48.5" font-family="Helvetica,sans-Serif" font-size="10.00">tlz::viewer::draw_depth</text>
</g>
<!-- Node2 -->
<g id="node2" class="node"><title>Node2</title>
<g id="a_node2"><a xlink:href="classtlz_1_1viewer.html#a6a59617413dc76948b6802399ddf555b" target="_top" xlink:title="tlz::viewer::visualize\l_depth">
<polygon fill="white" stroke="black" points="154,-58 154,-88 260,-88 260,-58 154,-58"/>
<text text-anchor="start" x="162" y="-76" font-family="Helvetica,sans-Serif" font-size="10.00">tlz::viewer::visualize</text>
<text text-anchor="middle" x="207" y="-65" font-family="Helvetica,sans-Serif" font-size="10.00">_depth</text>
</a>
</g>
</g>
<!-- Node1&#45;&gt;Node2 -->
<g id="edge1" class="edge"><title>Node1&#45;&gt;Node2</title>
<path fill="none" stroke="midnightblue" d="M118.123,-59.7582C126.582,-61.0328 135.319,-62.3494 143.854,-63.6355"/>
<polygon fill="midnightblue" stroke="midnightblue" points="143.341,-67.0977 153.751,-65.1269 144.384,-60.1759 143.341,-67.0977"/>
</g>
<!-- Node3 -->
<g id="node3" class="node"><title>Node3</title>
<g id="a_node3"><a xlink:href="classtlz_1_1viewer.html#a5f0412cff89a343ad52431689502389d" target="_top" xlink:title="tlz::viewer::draw">
<polygon fill="white" stroke="black" points="162.5,-19.5 162.5,-38.5 251.5,-38.5 251.5,-19.5 162.5,-19.5"/>
<text text-anchor="middle" x="207" y="-26.5" font-family="Helvetica,sans-Serif" font-size="10.00">tlz::viewer::draw</text>
</a>
</g>
</g>
<!-- Node1&#45;&gt;Node3 -->
<g id="edge2" class="edge"><title>Node1&#45;&gt;Node3</title>
<path fill="none" stroke="midnightblue" d="M118.123,-42.2418C129.447,-40.5354 141.27,-38.7538 152.438,-37.0709"/>
<polygon fill="midnightblue" stroke="midnightblue" points="153.111,-40.5092 162.478,-35.5581 152.068,-33.5873 153.111,-40.5092"/>
</g>
<!-- Node4 -->
<g id="node4" class="node"><title>Node4</title>
<g id="a_node4"><a xlink:href="classtlz_1_1viewer.html#acc43bf1dd1d0c3cdc35a948d4c194769" target="_top" xlink:title="tlz::viewer::width">
<polygon fill="white" stroke="black" points="297.5,-38.5 297.5,-57.5 388.5,-57.5 388.5,-38.5 297.5,-38.5"/>
<text text-anchor="middle" x="343" y="-45.5" font-family="Helvetica,sans-Serif" font-size="10.00">tlz::viewer::width</text>
</a>
</g>
</g>
<!-- Node3&#45;&gt;Node4 -->
<g id="edge3" class="edge"><title>Node3&#45;&gt;Node4</title>
<path fill="none" stroke="midnightblue" d="M251.506,-35.1688C262.854,-36.7779 275.232,-38.533 287.088,-40.214"/>
<polygon fill="midnightblue" stroke="midnightblue" points="286.941,-43.7281 297.333,-41.6667 287.924,-36.7974 286.941,-43.7281"/>
</g>
<!-- Node5 -->
<g id="node5" class="node"><title>Node5</title>
<g id="a_node5"><a xlink:href="classtlz_1_1viewer.html#af74a8aef9dde68eeff6b1e2561b39014" target="_top" xlink:title="tlz::viewer::height">
<polygon fill="white" stroke="black" points="296,-0.5 296,-19.5 390,-19.5 390,-0.5 296,-0.5"/>
<text text-anchor="middle" x="343" y="-7.5" font-family="Helvetica,sans-Serif" font-size="10.00">tlz::viewer::height</text>
</a>
</g>
</g>
<!-- Node3&#45;&gt;Node5 -->
<g id="edge4" class="edge"><title>Node3&#45;&gt;Node5</title>
<path fill="none" stroke="midnightblue" d="M251.506,-22.8312C262.5,-21.2724 274.46,-19.5766 285.975,-17.9438"/>
<polygon fill="midnightblue" stroke="midnightblue" points="286.535,-21.3995 295.945,-16.5302 285.553,-14.4688 286.535,-21.3995"/>
</g>
</g>
</svg>
