<?xml version="1.0" encoding="UTF-8" standalone="no"?>
<!DOCTYPE svg PUBLIC "-//W3C//DTD SVG 1.1//EN"
 "http://www.w3.org/Graphics/SVG/1.1/DTD/svg11.dtd">
<!-- Generated by graphviz version 2.38.0 (20140413.2041)
 -->
<!-- Title: tlz::dataset_view::image_filename Pages: 1 -->
<svg width="527pt" height="78pt"
 viewBox="0.00 0.00 527.00 77.50" xmlns="http://www.w3.org/2000/svg" xmlns:xlink="http://www.w3.org/1999/xlink">
<g id="graph0" class="graph" transform="scale(1 1) rotate(0) translate(4 73.5)">
<title>tlz::dataset_view::image_filename</title>
<polygon fill="white" stroke="none" points="-4,4 -4,-73.5 523,-73.5 523,4 -4,4"/>
<!-- Node1 -->
<g id="node1" class="node"><title>Node1</title>
<polygon fill="#bfbfbf" stroke="black" points="0,-22.5 0,-52.5 97,-52.5 97,-22.5 0,-22.5"/>
<text text-anchor="start" x="8" y="-40.5" font-family="Helvetica,sans-Serif" font-size="10.00">tlz::dataset_view::</text>
<text text-anchor="middle" x="48.5" y="-29.5" font-family="Helvetica,sans-Serif" font-size="10.00">image_filename</text>
</g>
<!-- Node2 -->
<g id="node2" class="node"><title>Node2</title>
<g id="a_node2"><a xlink:href="classtlz_1_1dataset__view.html#a327a842dc304656596d65b9bbf52fb1c" target="_top" xlink:title="tlz::dataset_view::\llocal_filename">
<polygon fill="white" stroke="black" points="133,-22.5 133,-52.5 230,-52.5 230,-22.5 133,-22.5"/>
<text text-anchor="start" x="141" y="-40.5" font-family="Helvetica,sans-Serif" font-size="10.00">tlz::dataset_view::</text>
<text text-anchor="middle" x="181.5" y="-29.5" font-family="Helvetica,sans-Serif" font-size="10.00">local_filename</text>
</a>
</g>
</g>
<!-- Node1&#45;&gt;Node2 -->
<g id="edge1" class="edge"><title>Node1&#45;&gt;Node2</title>
<path fill="none" stroke="midnightblue" d="M97.1646,-37.5C105.382,-37.5 114.005,-37.5 122.46,-37.5"/>
<polygon fill="midnightblue" stroke="midnightblue" points="122.651,-41.0001 132.651,-37.5 122.651,-34.0001 122.651,-41.0001"/>
</g>
<!-- Node3 -->
<g id="node3" class="node"><title>Node3</title>
<g id="a_node3"><a xlink:href="namespacetlz.html#add846dc50c32dfb356cb1a7ac11d37ac" target="_top" xlink:title="tlz::get_or">
<polygon fill="white" stroke="black" points="284.5,-50 284.5,-69 344.5,-69 344.5,-50 284.5,-50"/>
<text text-anchor="middle" x="314.5" y="-57" font-family="Helvetica,sans-Serif" font-size="10.00">tlz::get_or</text>
</a>
</g>
</g>
<!-- Node2&#45;&gt;Node3 -->
<g id="edge2" class="edge"><title>Node2&#45;&gt;Node3</title>
<path fill="none" stroke="midnightblue" d="M230.165,-45.5047C244.622,-47.9327 260.335,-50.5715 274.179,-52.8965"/>
<polygon fill="midnightblue" stroke="midnightblue" points="273.909,-56.4001 284.351,-54.6047 275.068,-49.4967 273.909,-56.4001"/>
</g>
<!-- Node5 -->
<g id="node5" class="node"><title>Node5</title>
<g id="a_node5"><a xlink:href="classtlz_1_1dataset__view.html#a4951a6300847e0fed4fecf79d8753b58" target="_top" xlink:title="tlz::dataset_view::\llocal_parameters">
<polygon fill="white" stroke="black" points="266,-0.5 266,-30.5 363,-30.5 363,-0.5 266,-0.5"/>
<text text-anchor="start" x="274" y="-18.5" font-family="Helvetica,sans-Serif" font-size="10.00">tlz::dataset_view::</text>
<text text-anchor="middle" x="314.5" y="-7.5" font-family="Helvetica,sans-Serif" font-size="10.00">local_parameters</text>
</a>
</g>
</g>
<!-- Node2&#45;&gt;Node5 -->
<g id="edge4" class="edge"><title>Node2&#45;&gt;Node5</title>
<path fill="none" stroke="midnightblue" d="M230.165,-29.4953C238.472,-28.1001 247.195,-26.6353 255.739,-25.2004"/>
<polygon fill="midnightblue" stroke="midnightblue" points="256.369,-28.6436 265.651,-23.5356 255.21,-21.7403 256.369,-28.6436"/>
</g>
<!-- Node4 -->
<g id="node4" class="node"><title>Node4</title>
<g id="a_node4"><a xlink:href="namespacetlz.html#a252af14b9b4ac6502d3e9c5dd8dc90b8" target="_top" xlink:title="tlz::has">
<polygon fill="white" stroke="black" points="434.5,-50 434.5,-69 483.5,-69 483.5,-50 434.5,-50"/>
<text text-anchor="middle" x="459" y="-57" font-family="Helvetica,sans-Serif" font-size="10.00">tlz::has</text>
</a>
</g>
</g>
<!-- Node3&#45;&gt;Node4 -->
<g id="edge3" class="edge"><title>Node3&#45;&gt;Node4</title>
<path fill="none" stroke="midnightblue" d="M344.681,-59.5C367.662,-59.5 399.741,-59.5 423.904,-59.5"/>
<polygon fill="midnightblue" stroke="midnightblue" points="424.056,-63.0001 434.056,-59.5 424.056,-56.0001 424.056,-63.0001"/>
</g>
<!-- Node6 -->
<g id="node6" class="node"><title>Node6</title>
<g id="a_node6"><a xlink:href="classtlz_1_1dataset.html#ab14f5b1f18c0ab423c18270b7ca46bd2" target="_top" xlink:title="tlz::dataset::parameters">
<polygon fill="white" stroke="black" points="399,-6 399,-25 519,-25 519,-6 399,-6"/>
<text text-anchor="middle" x="459" y="-13" font-family="Helvetica,sans-Serif" font-size="10.00">tlz::dataset::parameters</text>
</a>
</g>
</g>
<!-- Node5&#45;&gt;Node6 -->
<g id="edge5" class="edge"><title>Node5&#45;&gt;Node6</title>
<path fill="none" stroke="midnightblue" d="M363.347,-15.5C371.541,-15.5 380.2,-15.5 388.818,-15.5"/>
<polygon fill="midnightblue" stroke="midnightblue" points="388.886,-19.0001 398.886,-15.5 388.886,-12.0001 388.886,-19.0001"/>
</g>
</g>
</svg>
