<?xml version="1.0" encoding="UTF-8" standalone="no"?>
<!DOCTYPE svg PUBLIC "-//W3C//DTD SVG 1.1//EN"
 "http://www.w3.org/Graphics/SVG/1.1/DTD/svg11.dtd">
<!-- Generated by graphviz version 2.38.0 (20140413.2041)
 -->
<!-- Title: tlz::dataset_group::image_border Pages: 1 -->
<svg width="477pt" height="88pt"
 viewBox="0.00 0.00 477.00 87.82" xmlns="http://www.w3.org/2000/svg" xmlns:xlink="http://www.w3.org/1999/xlink">
<g id="graph0" class="graph" transform="scale(1 1) rotate(0) translate(4 83.8244)">
<title>tlz::dataset_group::image_border</title>
<polygon fill="white" stroke="none" points="-4,4 -4,-83.8244 473,-83.8244 473,4 -4,4"/>
<!-- Node1 -->
<g id="node1" class="node"><title>Node1</title>
<polygon fill="#bfbfbf" stroke="black" points="0,-39 0,-69 95,-69 95,-39 0,-39"/>
<text text-anchor="start" x="8" y="-57" font-family="Helvetica,sans-Serif" font-size="10.00">tlz::dataset_group</text>
<text text-anchor="middle" x="47.5" y="-46" font-family="Helvetica,sans-Serif" font-size="10.00">::image_border</text>
</g>
<!-- Node2 -->
<g id="node2" class="node"><title>Node2</title>
<g id="a_node2"><a xlink:href="namespacetlz.html#a252af14b9b4ac6502d3e9c5dd8dc90b8" target="_top" xlink:title="tlz::has">
<polygon fill="white" stroke="black" points="420,-47.5 420,-66.5 469,-66.5 469,-47.5 420,-47.5"/>
<text text-anchor="middle" x="444.5" y="-54.5" font-family="Helvetica,sans-Serif" font-size="10.00">tlz::has</text>
</a>
</g>
</g>
<!-- Node1&#45;&gt;Node2 -->
<g id="edge1" class="edge"><title>Node1&#45;&gt;Node2</title>
<path fill="none" stroke="midnightblue" d="M91.6666,-69.0493C104.195,-72.7335 118.005,-76.1481 131,-78 169.954,-83.551 378.043,-73.8843 384,-73 392.5,-71.7382 401.525,-69.6927 409.908,-67.4796"/>
<polygon fill="midnightblue" stroke="midnightblue" points="411.044,-70.7963 419.737,-64.7384 409.164,-64.0536 411.044,-70.7963"/>
</g>
<!-- Node3 -->
<g id="node3" class="node"><title>Node3</title>
<g id="a_node3"><a xlink:href="classtlz_1_1dataset__group.html#ac89fe02ba32a12258eadf8d91ef1fa37" target="_top" xlink:title="tlz::dataset_group\l::parameters">
<polygon fill="white" stroke="black" points="132,-39 132,-69 227,-69 227,-39 132,-39"/>
<text text-anchor="start" x="140" y="-57" font-family="Helvetica,sans-Serif" font-size="10.00">tlz::dataset_group</text>
<text text-anchor="middle" x="179.5" y="-46" font-family="Helvetica,sans-Serif" font-size="10.00">::parameters</text>
</a>
</g>
</g>
<!-- Node1&#45;&gt;Node3 -->
<g id="edge2" class="edge"><title>Node1&#45;&gt;Node3</title>
<path fill="none" stroke="midnightblue" d="M95.0658,-54C103.654,-54 112.71,-54 121.563,-54"/>
<polygon fill="midnightblue" stroke="midnightblue" points="121.822,-57.5001 131.822,-54 121.822,-50.5001 121.822,-57.5001"/>
</g>
<!-- Node5 -->
<g id="node5" class="node"><title>Node5</title>
<g id="a_node5"><a xlink:href="namespacetlz.html#a9517e892e5486b965a722d5589dc58c4" target="_top" xlink:title="tlz::decode_border">
<polygon fill="white" stroke="black" points="131,-0.5 131,-19.5 228,-19.5 228,-0.5 131,-0.5"/>
<text text-anchor="middle" x="179.5" y="-7.5" font-family="Helvetica,sans-Serif" font-size="10.00">tlz::decode_border</text>
</a>
</g>
</g>
<!-- Node1&#45;&gt;Node5 -->
<g id="edge4" class="edge"><title>Node1&#45;&gt;Node5</title>
<path fill="none" stroke="midnightblue" d="M92.875,-38.9808C108.294,-33.7621 125.44,-27.9587 140.315,-22.9242"/>
<polygon fill="midnightblue" stroke="midnightblue" points="141.85,-26.0996 150.201,-19.5783 139.606,-19.4691 141.85,-26.0996"/>
</g>
<!-- Node4 -->
<g id="node4" class="node"><title>Node4</title>
<g id="a_node4"><a xlink:href="classtlz_1_1dataset.html#ab14f5b1f18c0ab423c18270b7ca46bd2" target="_top" xlink:title="tlz::dataset::parameters">
<polygon fill="white" stroke="black" points="264,-44.5 264,-63.5 384,-63.5 384,-44.5 264,-44.5"/>
<text text-anchor="middle" x="324" y="-51.5" font-family="Helvetica,sans-Serif" font-size="10.00">tlz::dataset::parameters</text>
</a>
</g>
</g>
<!-- Node3&#45;&gt;Node4 -->
<g id="edge3" class="edge"><title>Node3&#45;&gt;Node4</title>
<path fill="none" stroke="midnightblue" d="M227.16,-54C235.652,-54 244.676,-54 253.659,-54"/>
<polygon fill="midnightblue" stroke="midnightblue" points="253.754,-57.5001 263.754,-54 253.754,-50.5001 253.754,-57.5001"/>
</g>
<!-- Node6 -->
<g id="node6" class="node"><title>Node6</title>
<g id="a_node6"><a xlink:href="namespacetlz.html#add846dc50c32dfb356cb1a7ac11d37ac" target="_top" xlink:title="tlz::get_or">
<polygon fill="white" stroke="black" points="294,-3.5 294,-22.5 354,-22.5 354,-3.5 294,-3.5"/>
<text text-anchor="middle" x="324" y="-10.5" font-family="Helvetica,sans-Serif" font-size="10.00">tlz::get_or</text>
</a>
</g>
</g>
<!-- Node5&#45;&gt;Node6 -->
<g id="edge5" class="edge"><title>Node5&#45;&gt;Node6</title>
<path fill="none" stroke="midnightblue" d="M228.347,-11.0073C246.292,-11.3851 266.464,-11.8098 283.562,-12.1697"/>
<polygon fill="midnightblue" stroke="midnightblue" points="283.691,-15.6731 293.763,-12.3845 283.839,-8.67468 283.691,-15.6731"/>
</g>
<!-- Node6&#45;&gt;Node2 -->
<g id="edge6" class="edge"><title>Node6&#45;&gt;Node2</title>
<path fill="none" stroke="midnightblue" d="M350.713,-22.5473C368.218,-29.0473 391.548,-37.7098 410.434,-44.7224"/>
<polygon fill="midnightblue" stroke="midnightblue" points="409.258,-48.0192 419.851,-48.219 411.695,-41.4569 409.258,-48.0192"/>
</g>
</g>
</svg>
