<?xml version="1.0" encoding="UTF-8" standalone="no"?>
<!DOCTYPE svg PUBLIC "-//W3C//DTD SVG 1.1//EN"
 "http://www.w3.org/Graphics/SVG/1.1/DTD/svg11.dtd">
<!-- Generated by graphviz version 2.38.0 (20140413.2041)
 -->
<!-- Title: tlz::dataset_group::image_size_with_border Pages: 1 -->
<svg width="667pt" height="116pt"
 viewBox="0.00 0.00 667.00 116.00" xmlns="http://www.w3.org/2000/svg" xmlns:xlink="http://www.w3.org/1999/xlink">
<g id="graph0" class="graph" transform="scale(1 1) rotate(0) translate(4 112)">
<title>tlz::dataset_group::image_size_with_border</title>
<polygon fill="white" stroke="none" points="-4,4 -4,-112 663,-112 663,4 -4,4"/>
<!-- Node1 -->
<g id="node1" class="node"><title>Node1</title>
<polygon fill="#bfbfbf" stroke="black" points="0,-39 0,-69 128,-69 128,-39 0,-39"/>
<text text-anchor="start" x="8" y="-57" font-family="Helvetica,sans-Serif" font-size="10.00">tlz::dataset_group</text>
<text text-anchor="middle" x="64" y="-46" font-family="Helvetica,sans-Serif" font-size="10.00">::image_size_with_border</text>
</g>
<!-- Node2 -->
<g id="node2" class="node"><title>Node2</title>
<g id="a_node2"><a xlink:href="namespacetlz.html#a0b91e1131356fee9a4c7a72c3b398186" target="_top" xlink:title="tlz::add_border">
<polygon fill="white" stroke="black" points="184,-88.5 184,-107.5 265,-107.5 265,-88.5 184,-88.5"/>
<text text-anchor="middle" x="224.5" y="-95.5" font-family="Helvetica,sans-Serif" font-size="10.00">tlz::add_border</text>
</a>
</g>
</g>
<!-- Node1&#45;&gt;Node2 -->
<g id="edge1" class="edge"><title>Node1&#45;&gt;Node2</title>
<path fill="none" stroke="midnightblue" d="M119.103,-69.0192C138.716,-74.4638 160.621,-80.5446 179.282,-85.7249"/>
<polygon fill="midnightblue" stroke="midnightblue" points="178.425,-89.1192 188.996,-88.4217 180.297,-82.3743 178.425,-89.1192"/>
</g>
<!-- Node3 -->
<g id="node3" class="node"><title>Node3</title>
<g id="a_node3"><a xlink:href="classtlz_1_1dataset__group.html#a1b2ebd9009b660773532e42691dc301e" target="_top" xlink:title="tlz::dataset_group\l::image_border">
<polygon fill="white" stroke="black" points="177,-39 177,-69 272,-69 272,-39 177,-39"/>
<text text-anchor="start" x="185" y="-57" font-family="Helvetica,sans-Serif" font-size="10.00">tlz::dataset_group</text>
<text text-anchor="middle" x="224.5" y="-46" font-family="Helvetica,sans-Serif" font-size="10.00">::image_border</text>
</a>
</g>
</g>
<!-- Node1&#45;&gt;Node3 -->
<g id="edge2" class="edge"><title>Node1&#45;&gt;Node3</title>
<path fill="none" stroke="midnightblue" d="M128.099,-54C140.778,-54 154.034,-54 166.492,-54"/>
<polygon fill="midnightblue" stroke="midnightblue" points="166.739,-57.5001 176.739,-54 166.739,-50.5001 166.739,-57.5001"/>
</g>
<!-- Node9 -->
<g id="node9" class="node"><title>Node9</title>
<g id="a_node9"><a xlink:href="classtlz_1_1dataset.html#a7aecc40555a69a401c3d3b9c53025fcd" target="_top" xlink:title="tlz::dataset::image_size">
<polygon fill="white" stroke="black" points="164,-0.5 164,-19.5 285,-19.5 285,-0.5 164,-0.5"/>
<text text-anchor="middle" x="224.5" y="-7.5" font-family="Helvetica,sans-Serif" font-size="10.00">tlz::dataset::image_size</text>
</a>
</g>
</g>
<!-- Node1&#45;&gt;Node9 -->
<g id="edge9" class="edge"><title>Node1&#45;&gt;Node9</title>
<path fill="none" stroke="midnightblue" d="M119.103,-38.9808C138.716,-33.5362 160.621,-27.4554 179.282,-22.2751"/>
<polygon fill="midnightblue" stroke="midnightblue" points="180.297,-25.6257 188.996,-19.5783 178.425,-18.8808 180.297,-25.6257"/>
</g>
<!-- Node4 -->
<g id="node4" class="node"><title>Node4</title>
<g id="a_node4"><a xlink:href="namespacetlz.html#a252af14b9b4ac6502d3e9c5dd8dc90b8" target="_top" xlink:title="tlz::has">
<polygon fill="white" stroke="black" points="610,-47.5 610,-66.5 659,-66.5 659,-47.5 610,-47.5"/>
<text text-anchor="middle" x="634.5" y="-54.5" font-family="Helvetica,sans-Serif" font-size="10.00">tlz::has</text>
</a>
</g>
</g>
<!-- Node3&#45;&gt;Node4 -->
<g id="edge3" class="edge"><title>Node3&#45;&gt;Node4</title>
<path fill="none" stroke="midnightblue" d="M272.146,-68.7604C287.537,-72.9427 304.852,-76.9214 321,-79 432.556,-93.3596 462.796,-89.8714 574,-73 582.496,-71.711 591.519,-69.6553 599.902,-67.4412"/>
<polygon fill="midnightblue" stroke="midnightblue" points="601.038,-70.7582 609.731,-64.7026 599.159,-64.0151 601.038,-70.7582"/>
</g>
<!-- Node5 -->
<g id="node5" class="node"><title>Node5</title>
<g id="a_node5"><a xlink:href="classtlz_1_1dataset__group.html#ac89fe02ba32a12258eadf8d91ef1fa37" target="_top" xlink:title="tlz::dataset_group\l::parameters">
<polygon fill="white" stroke="black" points="322,-39 322,-69 417,-69 417,-39 322,-39"/>
<text text-anchor="start" x="330" y="-57" font-family="Helvetica,sans-Serif" font-size="10.00">tlz::dataset_group</text>
<text text-anchor="middle" x="369.5" y="-46" font-family="Helvetica,sans-Serif" font-size="10.00">::parameters</text>
</a>
</g>
</g>
<!-- Node3&#45;&gt;Node5 -->
<g id="edge4" class="edge"><title>Node3&#45;&gt;Node5</title>
<path fill="none" stroke="midnightblue" d="M272.324,-54C284.792,-54 298.403,-54 311.357,-54"/>
<polygon fill="midnightblue" stroke="midnightblue" points="311.571,-57.5001 321.571,-54 311.571,-50.5001 311.571,-57.5001"/>
</g>
<!-- Node7 -->
<g id="node7" class="node"><title>Node7</title>
<g id="a_node7"><a xlink:href="namespacetlz.html#a9517e892e5486b965a722d5589dc58c4" target="_top" xlink:title="tlz::decode_border">
<polygon fill="white" stroke="black" points="321,-0.5 321,-19.5 418,-19.5 418,-0.5 321,-0.5"/>
<text text-anchor="middle" x="369.5" y="-7.5" font-family="Helvetica,sans-Serif" font-size="10.00">tlz::decode_border</text>
</a>
</g>
</g>
<!-- Node3&#45;&gt;Node7 -->
<g id="edge6" class="edge"><title>Node3&#45;&gt;Node7</title>
<path fill="none" stroke="midnightblue" d="M272.324,-39.5928C290.163,-34.1036 310.339,-27.8956 327.588,-22.5882"/>
<polygon fill="midnightblue" stroke="midnightblue" points="328.838,-25.8657 337.366,-19.5796 326.779,-19.1753 328.838,-25.8657"/>
</g>
<!-- Node6 -->
<g id="node6" class="node"><title>Node6</title>
<g id="a_node6"><a xlink:href="classtlz_1_1dataset.html#ab14f5b1f18c0ab423c18270b7ca46bd2" target="_top" xlink:title="tlz::dataset::parameters">
<polygon fill="white" stroke="black" points="454,-44.5 454,-63.5 574,-63.5 574,-44.5 454,-44.5"/>
<text text-anchor="middle" x="514" y="-51.5" font-family="Helvetica,sans-Serif" font-size="10.00">tlz::dataset::parameters</text>
</a>
</g>
</g>
<!-- Node5&#45;&gt;Node6 -->
<g id="edge5" class="edge"><title>Node5&#45;&gt;Node6</title>
<path fill="none" stroke="midnightblue" d="M417.16,-54C425.652,-54 434.676,-54 443.659,-54"/>
<polygon fill="midnightblue" stroke="midnightblue" points="443.754,-57.5001 453.754,-54 443.754,-50.5001 443.754,-57.5001"/>
</g>
<!-- Node8 -->
<g id="node8" class="node"><title>Node8</title>
<g id="a_node8"><a xlink:href="namespacetlz.html#add846dc50c32dfb356cb1a7ac11d37ac" target="_top" xlink:title="tlz::get_or">
<polygon fill="white" stroke="black" points="484,-3.5 484,-22.5 544,-22.5 544,-3.5 484,-3.5"/>
<text text-anchor="middle" x="514" y="-10.5" font-family="Helvetica,sans-Serif" font-size="10.00">tlz::get_or</text>
</a>
</g>
</g>
<!-- Node7&#45;&gt;Node8 -->
<g id="edge7" class="edge"><title>Node7&#45;&gt;Node8</title>
<path fill="none" stroke="midnightblue" d="M418.347,-11.0073C436.292,-11.3851 456.464,-11.8098 473.562,-12.1697"/>
<polygon fill="midnightblue" stroke="midnightblue" points="473.691,-15.6731 483.763,-12.3845 473.839,-8.67468 473.691,-15.6731"/>
</g>
<!-- Node8&#45;&gt;Node4 -->
<g id="edge8" class="edge"><title>Node8&#45;&gt;Node4</title>
<path fill="none" stroke="midnightblue" d="M540.713,-22.5473C558.218,-29.0473 581.548,-37.7098 600.434,-44.7224"/>
<polygon fill="midnightblue" stroke="midnightblue" points="599.258,-48.0192 609.851,-48.219 601.695,-41.4569 599.258,-48.0192"/>
</g>
</g>
</svg>
