<?xml version="1.0" encoding="UTF-8" standalone="no"?>
<!DOCTYPE svg PUBLIC "-//W3C//DTD SVG 1.1//EN"
 "http://www.w3.org/Graphics/SVG/1.1/DTD/svg11.dtd">
<!-- Generated by graphviz version 2.38.0 (20140413.2041)
 -->
<!-- Title: tlz::depth_densify_base::densify Pages: 1 -->
<svg width="232pt" height="39pt"
 viewBox="0.00 0.00 232.00 39.00" xmlns="http://www.w3.org/2000/svg" xmlns:xlink="http://www.w3.org/1999/xlink">
<g id="graph0" class="graph" transform="scale(1 1) rotate(0) translate(4 35)">
<title>tlz::depth_densify_base::densify</title>
<polygon fill="white" stroke="none" points="-4,4 -4,-35 228,-35 228,4 -4,4"/>
<!-- Node1 -->
<g id="node1" class="node"><title>Node1</title>
<polygon fill="#bfbfbf" stroke="black" points="0,-0.5 0,-30.5 94,-30.5 94,-0.5 0,-0.5"/>
<text text-anchor="start" x="8" y="-18.5" font-family="Helvetica,sans-Serif" font-size="10.00">tlz::depth_densify</text>
<text text-anchor="middle" x="47" y="-7.5" font-family="Helvetica,sans-Serif" font-size="10.00">_base::densify</text>
</g>
<!-- Node2 -->
<g id="node2" class="node"><title>Node2</title>
<g id="a_node2"><a xlink:href="classtlz_1_1depth__densify__base.html#a97115be0d43315586af401293ec3c6df" target="_top" xlink:title="tlz::depth_densify\l_base::densify">
<polygon fill="white" stroke="black" points="130,-0.5 130,-30.5 224,-30.5 224,-0.5 130,-0.5"/>
<text text-anchor="start" x="138" y="-18.5" font-family="Helvetica,sans-Serif" font-size="10.00">tlz::depth_densify</text>
<text text-anchor="middle" x="177" y="-7.5" font-family="Helvetica,sans-Serif" font-size="10.00">_base::densify</text>
</a>
</g>
</g>
<!-- Node1&#45;&gt;Node2 -->
<g id="edge1" class="edge"><title>Node1&#45;&gt;Node2</title>
<path fill="none" stroke="midnightblue" d="M94.2109,-15.5C102.458,-15.5 111.134,-15.5 119.628,-15.5"/>
<polygon fill="midnightblue" stroke="midnightblue" points="119.857,-19.0001 129.857,-15.5 119.857,-12.0001 119.857,-19.0001"/>
</g>
</g>
</svg>
