<?xml version="1.0" encoding="UTF-8" standalone="no"?>
<!DOCTYPE svg PUBLIC "-//W3C//DTD SVG 1.1//EN"
 "http://www.w3.org/Graphics/SVG/1.1/DTD/svg11.dtd">
<!-- Generated by graphviz version 2.38.0 (20140413.2041)
 -->
<!-- Title: tlz::depth_densify_base Pages: 1 -->
<svg width="374pt" height="95pt"
 viewBox="0.00 0.00 374.00 95.00" xmlns="http://www.w3.org/2000/svg" xmlns:xlink="http://www.w3.org/1999/xlink">
<g id="graph0" class="graph" transform="scale(1 1) rotate(0) translate(4 91)">
<title>tlz::depth_densify_base</title>
<polygon fill="white" stroke="none" points="-4,4 -4,-91 370,-91 370,4 -4,4"/>
<!-- Node1 -->
<g id="node1" class="node"><title>Node1</title>
<polygon fill="#bfbfbf" stroke="black" points="134,-67.5 134,-86.5 254,-86.5 254,-67.5 134,-67.5"/>
<text text-anchor="middle" x="194" y="-74.5" font-family="Helvetica,sans-Serif" font-size="10.00">tlz::depth_densify_base</text>
</g>
<!-- Node2 -->
<g id="node2" class="node"><title>Node2</title>
<g id="a_node2"><a xlink:href="classtlz_1_1depth__densify__fast.html" target="_top" xlink:title="tlz::depth_densify_fast">
<polygon fill="white" stroke="black" points="0,-6 0,-25 116,-25 116,-6 0,-6"/>
<text text-anchor="middle" x="58" y="-13" font-family="Helvetica,sans-Serif" font-size="10.00">tlz::depth_densify_fast</text>
</a>
</g>
</g>
<!-- Node1&#45;&gt;Node2 -->
<g id="edge1" class="edge"><title>Node1&#45;&gt;Node2</title>
<path fill="none" stroke="midnightblue" d="M165.034,-63.3272C138.631,-51.7761 100.358,-35.0316 77.4493,-25.0091"/>
<polygon fill="midnightblue" stroke="midnightblue" points="163.95,-66.6734 174.515,-67.4751 166.756,-60.2603 163.95,-66.6734"/>
</g>
<!-- Node3 -->
<g id="node3" class="node"><title>Node3</title>
<g id="a_node3"><a xlink:href="classtlz_1_1depth__densify__mine.html" target="_top" xlink:title="tlz::depth_densify_mine">
<polygon fill="white" stroke="black" points="134,-6 134,-25 254,-25 254,-6 134,-6"/>
<text text-anchor="middle" x="194" y="-13" font-family="Helvetica,sans-Serif" font-size="10.00">tlz::depth_densify_mine</text>
</a>
</g>
</g>
<!-- Node1&#45;&gt;Node3 -->
<g id="edge2" class="edge"><title>Node1&#45;&gt;Node3</title>
<path fill="none" stroke="midnightblue" d="M194,-57.3165C194,-46.4962 194,-33.398 194,-25.0091"/>
<polygon fill="midnightblue" stroke="midnightblue" points="190.5,-57.4751 194,-67.4751 197.5,-57.4751 190.5,-57.4751"/>
</g>
<!-- Node4 -->
<g id="node4" class="node"><title>Node4</title>
<g id="a_node4"><a xlink:href="classtlz_1_1depth__densify__splat.html" target="_top" xlink:title="tlz::depth_densify\l_splat">
<polygon fill="white" stroke="black" points="272,-0.5 272,-30.5 366,-30.5 366,-0.5 272,-0.5"/>
<text text-anchor="start" x="280" y="-18.5" font-family="Helvetica,sans-Serif" font-size="10.00">tlz::depth_densify</text>
<text text-anchor="middle" x="319" y="-7.5" font-family="Helvetica,sans-Serif" font-size="10.00">_splat</text>
</a>
</g>
</g>
<!-- Node1&#45;&gt;Node4 -->
<g id="edge3" class="edge"><title>Node1&#45;&gt;Node4</title>
<path fill="none" stroke="midnightblue" d="M221.165,-63.0696C241.341,-53.4655 268.835,-40.3784 289.54,-30.523"/>
<polygon fill="midnightblue" stroke="midnightblue" points="219.434,-60.0169 211.909,-67.4751 222.443,-66.3374 219.434,-60.0169"/>
</g>
</g>
</svg>
