<?xml version="1.0" encoding="UTF-8" standalone="no"?>
<!DOCTYPE svg PUBLIC "-//W3C//DTD SVG 1.1//EN"
 "http://www.w3.org/Graphics/SVG/1.1/DTD/svg11.dtd">
<!-- Generated by graphviz version 2.38.0 (20140413.2041)
 -->
<!-- Title: tlz::dataset_group::view Pages: 1 -->
<svg width="392pt" height="116pt"
 viewBox="0.00 0.00 392.00 115.50" xmlns="http://www.w3.org/2000/svg" xmlns:xlink="http://www.w3.org/1999/xlink">
<g id="graph0" class="graph" transform="scale(1 1) rotate(0) translate(4 111.5)">
<title>tlz::dataset_group::view</title>
<polygon fill="white" stroke="none" points="-4,4 -4,-111.5 388,-111.5 388,4 -4,4"/>
<!-- Node1 -->
<g id="node1" class="node"><title>Node1</title>
<polygon fill="#bfbfbf" stroke="black" points="0,-55 0,-85 95,-85 95,-55 0,-55"/>
<text text-anchor="start" x="8" y="-73" font-family="Helvetica,sans-Serif" font-size="10.00">tlz::dataset_group</text>
<text text-anchor="middle" x="47.5" y="-62" font-family="Helvetica,sans-Serif" font-size="10.00">::view</text>
</g>
<!-- Node2 -->
<g id="node2" class="node"><title>Node2</title>
<g id="a_node2"><a xlink:href="classtlz_1_1dataset.html#acbdb309b8dd22f687fff41f6e9ac6ed4" target="_top" xlink:title="tlz::dataset::view">
<polygon fill="white" stroke="black" points="133.5,-82.5 133.5,-101.5 225.5,-101.5 225.5,-82.5 133.5,-82.5"/>
<text text-anchor="middle" x="179.5" y="-89.5" font-family="Helvetica,sans-Serif" font-size="10.00">tlz::dataset::view</text>
</a>
</g>
</g>
<!-- Node1&#45;&gt;Node2 -->
<g id="edge1" class="edge"><title>Node1&#45;&gt;Node2</title>
<path fill="none" stroke="midnightblue" d="M95.0658,-77.8804C104.161,-79.4196 113.782,-81.0477 123.131,-82.6298"/>
<polygon fill="midnightblue" stroke="midnightblue" points="122.687,-86.1044 133.131,-84.3221 123.855,-79.2025 122.687,-86.1044"/>
</g>
<!-- Node3 -->
<g id="node3" class="node"><title>Node3</title>
<g id="a_node3"><a xlink:href="classtlz_1_1dataset__view.html#a1ec7ba844d313cddc558874fe85246a8" target="_top" xlink:title="tlz::dataset_view::\lgroup_view">
<polygon fill="white" stroke="black" points="131,-33 131,-63 228,-63 228,-33 131,-33"/>
<text text-anchor="start" x="139" y="-51" font-family="Helvetica,sans-Serif" font-size="10.00">tlz::dataset_view::</text>
<text text-anchor="middle" x="179.5" y="-40" font-family="Helvetica,sans-Serif" font-size="10.00">group_view</text>
</a>
</g>
</g>
<!-- Node1&#45;&gt;Node3 -->
<g id="edge2" class="edge"><title>Node1&#45;&gt;Node3</title>
<path fill="none" stroke="midnightblue" d="M95.0658,-62.1196C103.444,-60.7018 112.268,-59.2085 120.915,-57.7452"/>
<polygon fill="midnightblue" stroke="midnightblue" points="121.67,-61.1672 130.946,-56.0476 120.502,-54.2653 121.67,-61.1672"/>
</g>
<!-- Node4 -->
<g id="node4" class="node"><title>Node4</title>
<g id="a_node4"><a xlink:href="classtlz_1_1dataset__view.html#a31a73cf70078f270c9045bc0babadee2" target="_top" xlink:title="tlz::dataset_view::\ldataset_view">
<polygon fill="white" stroke="black" points="275.5,-77 275.5,-107 372.5,-107 372.5,-77 275.5,-77"/>
<text text-anchor="start" x="283.5" y="-95" font-family="Helvetica,sans-Serif" font-size="10.00">tlz::dataset_view::</text>
<text text-anchor="middle" x="324" y="-84" font-family="Helvetica,sans-Serif" font-size="10.00">dataset_view</text>
</a>
</g>
</g>
<!-- Node3&#45;&gt;Node4 -->
<g id="edge3" class="edge"><title>Node3&#45;&gt;Node4</title>
<path fill="none" stroke="midnightblue" d="M228.347,-62.7738C240.214,-66.4379 253.055,-70.4028 265.336,-74.1951"/>
<polygon fill="midnightblue" stroke="midnightblue" points="264.449,-77.5842 275.037,-77.1903 266.515,-70.8958 264.449,-77.5842"/>
</g>
<!-- Node5 -->
<g id="node5" class="node"><title>Node5</title>
<g id="a_node5"><a xlink:href="namespacetlz.html#a252af14b9b4ac6502d3e9c5dd8dc90b8" target="_top" xlink:title="tlz::has">
<polygon fill="white" stroke="black" points="299.5,-38.5 299.5,-57.5 348.5,-57.5 348.5,-38.5 299.5,-38.5"/>
<text text-anchor="middle" x="324" y="-45.5" font-family="Helvetica,sans-Serif" font-size="10.00">tlz::has</text>
</a>
</g>
</g>
<!-- Node3&#45;&gt;Node5 -->
<g id="edge4" class="edge"><title>Node3&#45;&gt;Node5</title>
<path fill="none" stroke="midnightblue" d="M228.347,-48C248.353,-48 271.129,-48 289.325,-48"/>
<polygon fill="midnightblue" stroke="midnightblue" points="289.454,-51.5001 299.454,-48 289.454,-44.5001 289.454,-51.5001"/>
</g>
<!-- Node6 -->
<g id="node6" class="node"><title>Node6</title>
<g id="a_node6"><a xlink:href="classtlz_1_1dataset.html#ab14f5b1f18c0ab423c18270b7ca46bd2" target="_top" xlink:title="tlz::dataset::parameters">
<polygon fill="white" stroke="black" points="264,-0.5 264,-19.5 384,-19.5 384,-0.5 264,-0.5"/>
<text text-anchor="middle" x="324" y="-7.5" font-family="Helvetica,sans-Serif" font-size="10.00">tlz::dataset::parameters</text>
</a>
</g>
</g>
<!-- Node3&#45;&gt;Node6 -->
<g id="edge5" class="edge"><title>Node3&#45;&gt;Node6</title>
<path fill="none" stroke="midnightblue" d="M228.347,-35.2408C244.133,-31.0313 261.642,-26.362 277.266,-22.1957"/>
<polygon fill="midnightblue" stroke="midnightblue" points="278.463,-25.4989 287.224,-19.5403 276.66,-18.7352 278.463,-25.4989"/>
</g>
</g>
</svg>
