<?xml version="1.0" encoding="UTF-8" standalone="no"?>
<!DOCTYPE svg PUBLIC "-//W3C//DTD SVG 1.1//EN"
 "http://www.w3.org/Graphics/SVG/1.1/DTD/svg11.dtd">
<!-- Generated by graphviz version 2.38.0 (20140413.2041)
 -->
<!-- Title: tlz::dataset_view::y Pages: 1 -->
<svg width="665pt" height="351pt"
 viewBox="0.00 0.00 665.00 351.00" xmlns="http://www.w3.org/2000/svg" xmlns:xlink="http://www.w3.org/1999/xlink">
<g id="graph0" class="graph" transform="scale(1 1) rotate(0) translate(4 347)">
<title>tlz::dataset_view::y</title>
<polygon fill="white" stroke="none" points="-4,4 -4,-347 661,-347 661,4 -4,4"/>
<!-- Node1 -->
<g id="node1" class="node"><title>Node1</title>
<polygon fill="#bfbfbf" stroke="black" points="0,-156 0,-175 102,-175 102,-156 0,-156"/>
<text text-anchor="middle" x="51" y="-163" font-family="Helvetica,sans-Serif" font-size="10.00">tlz::dataset_view::y</text>
</g>
<!-- Node2 -->
<g id="node2" class="node"><title>Node2</title>
<g id="a_node2"><a xlink:href="classtlz_1_1dataset__view.html#a4951a6300847e0fed4fecf79d8753b58" target="_top" xlink:title="tlz::dataset_view::\llocal_parameters">
<polygon fill="white" stroke="black" points="404,-231.5 404,-261.5 501,-261.5 501,-231.5 404,-231.5"/>
<text text-anchor="start" x="412" y="-249.5" font-family="Helvetica,sans-Serif" font-size="10.00">tlz::dataset_view::</text>
<text text-anchor="middle" x="452.5" y="-238.5" font-family="Helvetica,sans-Serif" font-size="10.00">local_parameters</text>
</a>
</g>
</g>
<!-- Node1&#45;&gt;Node2 -->
<g id="edge1" class="edge"><title>Node1&#45;&gt;Node2</title>
<path fill="none" stroke="midnightblue" d="M56.7609,-175.243C67.676,-196.308 96.7764,-245.705 138,-264.5 222.22,-302.899 332.624,-282.446 397.435,-264.315"/>
<polygon fill="midnightblue" stroke="midnightblue" points="398.404,-267.679 407.046,-261.55 396.468,-260.952 398.404,-267.679"/>
</g>
<!-- Node4 -->
<g id="node4" class="node"><title>Node4</title>
<g id="a_node4"><a xlink:href="classtlz_1_1dataset__view.html#a327a842dc304656596d65b9bbf52fb1c" target="_top" xlink:title="tlz::dataset_view::\llocal_filename">
<polygon fill="white" stroke="black" points="271,-175.5 271,-205.5 368,-205.5 368,-175.5 271,-175.5"/>
<text text-anchor="start" x="279" y="-193.5" font-family="Helvetica,sans-Serif" font-size="10.00">tlz::dataset_view::</text>
<text text-anchor="middle" x="319.5" y="-182.5" font-family="Helvetica,sans-Serif" font-size="10.00">local_filename</text>
</a>
</g>
</g>
<!-- Node1&#45;&gt;Node4 -->
<g id="edge3" class="edge"><title>Node1&#45;&gt;Node4</title>
<path fill="none" stroke="midnightblue" d="M63.9218,-155.995C79.754,-144.042 109.097,-124.156 138,-116.5 179.674,-105.461 194.692,-101.209 235,-116.5 261.614,-126.596 285.188,-149.485 300.442,-167.154"/>
<polygon fill="midnightblue" stroke="midnightblue" points="298.155,-169.877 307.239,-175.329 303.537,-165.402 298.155,-169.877"/>
</g>
<!-- Node7 -->
<g id="node7" class="node"><title>Node7</title>
<g id="a_node7"><a xlink:href="classtlz_1_1dataset__view.html#a38cfd9cd54168855c54c607d01184c17" target="_top" xlink:title="tlz::dataset_view::\lcamera_name">
<polygon fill="white" stroke="black" points="271,-312.5 271,-342.5 368,-342.5 368,-312.5 271,-312.5"/>
<text text-anchor="start" x="279" y="-330.5" font-family="Helvetica,sans-Serif" font-size="10.00">tlz::dataset_view::</text>
<text text-anchor="middle" x="319.5" y="-319.5" font-family="Helvetica,sans-Serif" font-size="10.00">camera_name</text>
</a>
</g>
</g>
<!-- Node1&#45;&gt;Node7 -->
<g id="edge7" class="edge"><title>Node1&#45;&gt;Node7</title>
<path fill="none" stroke="midnightblue" d="M55.1635,-175.111C63.8915,-199.983 90.8406,-266.668 138,-297.5 174.091,-321.095 222.655,-328.103 260.318,-329.48"/>
<polygon fill="midnightblue" stroke="midnightblue" points="260.552,-332.987 270.633,-329.728 260.72,-325.989 260.552,-332.987"/>
</g>
<!-- Node8 -->
<g id="node8" class="node"><title>Node8</title>
<g id="a_node8"><a xlink:href="classtlz_1_1dataset__view.html#af3c734eaed33af07993255db63d3fc54" target="_top" xlink:title="tlz::dataset_view::\limage_filename">
<polygon fill="white" stroke="black" points="138,-224.5 138,-254.5 235,-254.5 235,-224.5 138,-224.5"/>
<text text-anchor="start" x="146" y="-242.5" font-family="Helvetica,sans-Serif" font-size="10.00">tlz::dataset_view::</text>
<text text-anchor="middle" x="186.5" y="-231.5" font-family="Helvetica,sans-Serif" font-size="10.00">image_filename</text>
</a>
</g>
</g>
<!-- Node1&#45;&gt;Node8 -->
<g id="edge9" class="edge"><title>Node1&#45;&gt;Node8</title>
<path fill="none" stroke="midnightblue" d="M68.007,-175.185C85.158,-185.473 113.258,-202.072 138,-215.5 140.55,-216.884 143.19,-218.29 145.858,-219.691"/>
<polygon fill="midnightblue" stroke="midnightblue" points="144.465,-222.911 154.954,-224.4 147.683,-216.694 144.465,-222.911"/>
</g>
<!-- Node9 -->
<g id="node9" class="node"><title>Node9</title>
<g id="a_node9"><a xlink:href="classtlz_1_1dataset__view.html#a63238745feff55e3d0bea101589895c1" target="_top" xlink:title="tlz::dataset_view::\ldepth_filename">
<polygon fill="white" stroke="black" points="138,-175.5 138,-205.5 235,-205.5 235,-175.5 138,-175.5"/>
<text text-anchor="start" x="146" y="-193.5" font-family="Helvetica,sans-Serif" font-size="10.00">tlz::dataset_view::</text>
<text text-anchor="middle" x="186.5" y="-182.5" font-family="Helvetica,sans-Serif" font-size="10.00">depth_filename</text>
</a>
</g>
</g>
<!-- Node1&#45;&gt;Node9 -->
<g id="edge11" class="edge"><title>Node1&#45;&gt;Node9</title>
<path fill="none" stroke="midnightblue" d="M102.09,-174.88C110.492,-176.454 119.271,-178.098 127.845,-179.703"/>
<polygon fill="midnightblue" stroke="midnightblue" points="127.309,-183.164 137.782,-181.564 128.597,-176.283 127.309,-183.164"/>
</g>
<!-- Node10 -->
<g id="node10" class="node"><title>Node10</title>
<g id="a_node10"><a xlink:href="classtlz_1_1dataset__view.html#adcb6370e1971f53a5dc49bbafed33725" target="_top" xlink:title="tlz::dataset_view::\lmask_filename">
<polygon fill="white" stroke="black" points="138,-126.5 138,-156.5 235,-156.5 235,-126.5 138,-126.5"/>
<text text-anchor="start" x="146" y="-144.5" font-family="Helvetica,sans-Serif" font-size="10.00">tlz::dataset_view::</text>
<text text-anchor="middle" x="186.5" y="-133.5" font-family="Helvetica,sans-Serif" font-size="10.00">mask_filename</text>
</a>
</g>
</g>
<!-- Node1&#45;&gt;Node10 -->
<g id="edge13" class="edge"><title>Node1&#45;&gt;Node10</title>
<path fill="none" stroke="midnightblue" d="M102.09,-156.495C110.492,-154.985 119.271,-153.406 127.845,-151.865"/>
<polygon fill="midnightblue" stroke="midnightblue" points="128.559,-155.293 137.782,-150.079 127.321,-148.403 128.559,-155.293"/>
</g>
<!-- Node11 -->
<g id="node11" class="node"><title>Node11</title>
<g id="a_node11"><a xlink:href="classtlz_1_1dataset__view.html#a3bd68edab92df988a6b0c13d65b6bfca" target="_top" xlink:title="tlz::dataset_view::\lgroup">
<polygon fill="white" stroke="black" points="138,-0.5 138,-30.5 235,-30.5 235,-0.5 138,-0.5"/>
<text text-anchor="start" x="146" y="-18.5" font-family="Helvetica,sans-Serif" font-size="10.00">tlz::dataset_view::</text>
<text text-anchor="middle" x="186.5" y="-7.5" font-family="Helvetica,sans-Serif" font-size="10.00">group</text>
</a>
</g>
</g>
<!-- Node1&#45;&gt;Node11 -->
<g id="edge15" class="edge"><title>Node1&#45;&gt;Node11</title>
<path fill="none" stroke="midnightblue" d="M57.1918,-155.835C69.1943,-134.13 100.708,-80.672 138,-45.5 141.364,-42.3275 145.111,-39.3012 148.983,-36.4758"/>
<polygon fill="midnightblue" stroke="midnightblue" points="151.268,-39.1547 157.562,-30.6325 147.327,-33.3692 151.268,-39.1547"/>
</g>
<!-- Node12 -->
<g id="node12" class="node"><title>Node12</title>
<g id="a_node12"><a xlink:href="classtlz_1_1dataset__view.html#a1ec7ba844d313cddc558874fe85246a8" target="_top" xlink:title="tlz::dataset_view::\lgroup_view">
<polygon fill="white" stroke="black" points="404,-131.5 404,-161.5 501,-161.5 501,-131.5 404,-131.5"/>
<text text-anchor="start" x="412" y="-149.5" font-family="Helvetica,sans-Serif" font-size="10.00">tlz::dataset_view::</text>
<text text-anchor="middle" x="452.5" y="-138.5" font-family="Helvetica,sans-Serif" font-size="10.00">group_view</text>
</a>
</g>
</g>
<!-- Node1&#45;&gt;Node12 -->
<g id="edge16" class="edge"><title>Node1&#45;&gt;Node12</title>
<path fill="none" stroke="midnightblue" d="M61.4124,-155.534C76.1031,-140.787 106.122,-113.793 138,-103.5 230.053,-73.7775 343.788,-105.285 405.83,-127.854"/>
<polygon fill="midnightblue" stroke="midnightblue" points="404.739,-131.182 415.332,-131.389 407.18,-124.622 404.739,-131.182"/>
</g>
<!-- Node3 -->
<g id="node3" class="node"><title>Node3</title>
<g id="a_node3"><a xlink:href="classtlz_1_1dataset.html#ab14f5b1f18c0ab423c18270b7ca46bd2" target="_top" xlink:title="tlz::dataset::parameters">
<polygon fill="white" stroke="black" points="537,-237 537,-256 657,-256 657,-237 537,-237"/>
<text text-anchor="middle" x="597" y="-244" font-family="Helvetica,sans-Serif" font-size="10.00">tlz::dataset::parameters</text>
</a>
</g>
</g>
<!-- Node2&#45;&gt;Node3 -->
<g id="edge2" class="edge"><title>Node2&#45;&gt;Node3</title>
<path fill="none" stroke="midnightblue" d="M501.347,-246.5C509.541,-246.5 518.2,-246.5 526.818,-246.5"/>
<polygon fill="midnightblue" stroke="midnightblue" points="526.886,-250 536.886,-246.5 526.886,-243 526.886,-250"/>
</g>
<!-- Node4&#45;&gt;Node2 -->
<g id="edge6" class="edge"><title>Node4&#45;&gt;Node2</title>
<path fill="none" stroke="midnightblue" d="M355.606,-205.507C371.318,-212.224 390.028,-220.222 406.732,-227.362"/>
<polygon fill="midnightblue" stroke="midnightblue" points="405.727,-230.739 416.298,-231.452 408.478,-224.303 405.727,-230.739"/>
</g>
<!-- Node5 -->
<g id="node5" class="node"><title>Node5</title>
<g id="a_node5"><a xlink:href="namespacetlz.html#add846dc50c32dfb356cb1a7ac11d37ac" target="_top" xlink:title="tlz::get_or">
<polygon fill="white" stroke="black" points="422.5,-181 422.5,-200 482.5,-200 482.5,-181 422.5,-181"/>
<text text-anchor="middle" x="452.5" y="-188" font-family="Helvetica,sans-Serif" font-size="10.00">tlz::get_or</text>
</a>
</g>
</g>
<!-- Node4&#45;&gt;Node5 -->
<g id="edge4" class="edge"><title>Node4&#45;&gt;Node5</title>
<path fill="none" stroke="midnightblue" d="M368.165,-190.5C382.622,-190.5 398.335,-190.5 412.179,-190.5"/>
<polygon fill="midnightblue" stroke="midnightblue" points="412.351,-194 422.351,-190.5 412.351,-187 412.351,-194"/>
</g>
<!-- Node6 -->
<g id="node6" class="node"><title>Node6</title>
<g id="a_node6"><a xlink:href="namespacetlz.html#a252af14b9b4ac6502d3e9c5dd8dc90b8" target="_top" xlink:title="tlz::has">
<polygon fill="white" stroke="black" points="572.5,-181 572.5,-200 621.5,-200 621.5,-181 572.5,-181"/>
<text text-anchor="middle" x="597" y="-188" font-family="Helvetica,sans-Serif" font-size="10.00">tlz::has</text>
</a>
</g>
</g>
<!-- Node5&#45;&gt;Node6 -->
<g id="edge5" class="edge"><title>Node5&#45;&gt;Node6</title>
<path fill="none" stroke="midnightblue" d="M482.681,-190.5C505.662,-190.5 537.741,-190.5 561.904,-190.5"/>
<polygon fill="midnightblue" stroke="midnightblue" points="562.056,-194 572.056,-190.5 562.056,-187 562.056,-194"/>
</g>
<!-- Node7&#45;&gt;Node3 -->
<g id="edge8" class="edge"><title>Node7&#45;&gt;Node3</title>
<path fill="none" stroke="midnightblue" d="M368.174,-313.483C420.475,-298.106 503.627,-273.659 553.694,-258.938"/>
<polygon fill="midnightblue" stroke="midnightblue" points="554.943,-262.219 563.55,-256.041 552.969,-255.504 554.943,-262.219"/>
</g>
<!-- Node8&#45;&gt;Node4 -->
<g id="edge10" class="edge"><title>Node8&#45;&gt;Node4</title>
<path fill="none" stroke="midnightblue" d="M227.873,-224.399C240.698,-219.601 255.038,-214.238 268.459,-209.218"/>
<polygon fill="midnightblue" stroke="midnightblue" points="269.895,-212.418 278.035,-205.636 267.442,-205.861 269.895,-212.418"/>
</g>
<!-- Node9&#45;&gt;Node4 -->
<g id="edge12" class="edge"><title>Node9&#45;&gt;Node4</title>
<path fill="none" stroke="midnightblue" d="M235.165,-190.5C243.382,-190.5 252.005,-190.5 260.46,-190.5"/>
<polygon fill="midnightblue" stroke="midnightblue" points="260.651,-194 270.651,-190.5 260.651,-187 260.651,-194"/>
</g>
<!-- Node10&#45;&gt;Node4 -->
<g id="edge14" class="edge"><title>Node10&#45;&gt;Node4</title>
<path fill="none" stroke="midnightblue" d="M227.873,-156.601C240.698,-161.399 255.038,-166.762 268.459,-171.782"/>
<polygon fill="midnightblue" stroke="midnightblue" points="267.442,-175.139 278.035,-175.364 269.895,-168.582 267.442,-175.139"/>
</g>
<!-- Node12&#45;&gt;Node3 -->
<g id="edge19" class="edge"><title>Node12&#45;&gt;Node3</title>
<path fill="none" stroke="midnightblue" d="M485.557,-161.515C490.901,-164.534 496.246,-167.898 501,-171.5 519.542,-185.551 519.002,-194.758 537,-209.5 546.983,-217.677 558.898,-225.468 569.398,-231.772"/>
<polygon fill="midnightblue" stroke="midnightblue" points="567.778,-234.879 578.177,-236.902 571.309,-228.835 567.778,-234.879"/>
</g>
<!-- Node12&#45;&gt;Node6 -->
<g id="edge18" class="edge"><title>Node12&#45;&gt;Node6</title>
<path fill="none" stroke="midnightblue" d="M501.347,-161.274C521.54,-167.509 544.555,-174.615 562.834,-180.259"/>
<polygon fill="midnightblue" stroke="midnightblue" points="561.867,-183.624 572.454,-183.23 563.932,-176.935 561.867,-183.624"/>
</g>
<!-- Node13 -->
<g id="node13" class="node"><title>Node13</title>
<g id="a_node13"><a xlink:href="classtlz_1_1dataset__view.html#a31a73cf70078f270c9045bc0babadee2" target="_top" xlink:title="tlz::dataset_view::\ldataset_view">
<polygon fill="white" stroke="black" points="548.5,-131.5 548.5,-161.5 645.5,-161.5 645.5,-131.5 548.5,-131.5"/>
<text text-anchor="start" x="556.5" y="-149.5" font-family="Helvetica,sans-Serif" font-size="10.00">tlz::dataset_view::</text>
<text text-anchor="middle" x="597" y="-138.5" font-family="Helvetica,sans-Serif" font-size="10.00">dataset_view</text>
</a>
</g>
</g>
<!-- Node12&#45;&gt;Node13 -->
<g id="edge17" class="edge"><title>Node12&#45;&gt;Node13</title>
<path fill="none" stroke="midnightblue" d="M501.347,-146.5C513.096,-146.5 525.8,-146.5 537.971,-146.5"/>
<polygon fill="midnightblue" stroke="midnightblue" points="538.037,-150 548.037,-146.5 538.037,-143 538.037,-150"/>
</g>
</g>
</svg>
