<?xml version="1.0" encoding="UTF-8" standalone="no"?>
<!DOCTYPE svg PUBLIC "-//W3C//DTD SVG 1.1//EN"
 "http://www.w3.org/Graphics/SVG/1.1/DTD/svg11.dtd">
<!-- Generated by graphviz version 2.38.0 (20140413.2041)
 -->
<!-- Title: tlz::viewer::draw Pages: 1 -->
<svg width="352pt" height="66pt"
 viewBox="0.00 0.00 352.00 66.00" xmlns="http://www.w3.org/2000/svg" xmlns:xlink="http://www.w3.org/1999/xlink">
<g id="graph0" class="graph" transform="scale(1 1) rotate(0) translate(4 62)">
<title>tlz::viewer::draw</title>
<polygon fill="white" stroke="none" points="-4,4 -4,-62 348,-62 348,4 -4,4"/>
<!-- Node1 -->
<g id="node1" class="node"><title>Node1</title>
<polygon fill="#bfbfbf" stroke="black" points="0,-19.5 0,-38.5 89,-38.5 89,-19.5 0,-19.5"/>
<text text-anchor="middle" x="44.5" y="-26.5" font-family="Helvetica,sans-Serif" font-size="10.00">tlz::viewer::draw</text>
</g>
<!-- Node2 -->
<g id="node2" class="node"><title>Node2</title>
<g id="a_node2"><a xlink:href="classtlz_1_1viewer.html#a5f0412cff89a343ad52431689502389d" target="_top" xlink:title="tlz::viewer::draw">
<polygon fill="white" stroke="black" points="125,-19.5 125,-38.5 214,-38.5 214,-19.5 125,-19.5"/>
<text text-anchor="middle" x="169.5" y="-26.5" font-family="Helvetica,sans-Serif" font-size="10.00">tlz::viewer::draw</text>
</a>
</g>
</g>
<!-- Node1&#45;&gt;Node2 -->
<g id="edge1" class="edge"><title>Node1&#45;&gt;Node2</title>
<path fill="none" stroke="midnightblue" d="M89.2115,-29C97.4587,-29 106.173,-29 114.687,-29"/>
<polygon fill="midnightblue" stroke="midnightblue" points="114.929,-32.5001 124.929,-29 114.929,-25.5001 114.929,-32.5001"/>
</g>
<!-- Node3 -->
<g id="node3" class="node"><title>Node3</title>
<g id="a_node3"><a xlink:href="classtlz_1_1viewer.html#acc43bf1dd1d0c3cdc35a948d4c194769" target="_top" xlink:title="tlz::viewer::width">
<polygon fill="white" stroke="black" points="251.5,-38.5 251.5,-57.5 342.5,-57.5 342.5,-38.5 251.5,-38.5"/>
<text text-anchor="middle" x="297" y="-45.5" font-family="Helvetica,sans-Serif" font-size="10.00">tlz::viewer::width</text>
</a>
</g>
</g>
<!-- Node2&#45;&gt;Node3 -->
<g id="edge2" class="edge"><title>Node2&#45;&gt;Node3</title>
<path fill="none" stroke="midnightblue" d="M214.042,-35.592C222.786,-36.9158 232.081,-38.323 241.152,-39.6964"/>
<polygon fill="midnightblue" stroke="midnightblue" points="240.846,-43.1899 251.258,-41.2263 241.894,-36.2687 240.846,-43.1899"/>
</g>
<!-- Node4 -->
<g id="node4" class="node"><title>Node4</title>
<g id="a_node4"><a xlink:href="classtlz_1_1viewer.html#af74a8aef9dde68eeff6b1e2561b39014" target="_top" xlink:title="tlz::viewer::height">
<polygon fill="white" stroke="black" points="250,-0.5 250,-19.5 344,-19.5 344,-0.5 250,-0.5"/>
<text text-anchor="middle" x="297" y="-7.5" font-family="Helvetica,sans-Serif" font-size="10.00">tlz::viewer::height</text>
</a>
</g>
</g>
<!-- Node2&#45;&gt;Node4 -->
<g id="edge3" class="edge"><title>Node2&#45;&gt;Node4</title>
<path fill="none" stroke="midnightblue" d="M214.042,-22.408C222.387,-21.1447 231.233,-19.8053 239.908,-18.492"/>
<polygon fill="midnightblue" stroke="midnightblue" points="240.609,-21.9258 249.973,-16.9683 239.561,-15.0047 240.609,-21.9258"/>
</g>
</g>
</svg>
