<?xml version="1.0" encoding="UTF-8" standalone="no"?>
<!DOCTYPE svg PUBLIC "-//W3C//DTD SVG 1.1//EN"
 "http://www.w3.org/Graphics/SVG/1.1/DTD/svg11.dtd">
<!-- Generated by graphviz version 2.38.0 (20140413.2041)
 -->
<!-- Title: tlz::grabber::registration Pages: 1 -->
<svg width="296pt" height="333pt"
 viewBox="0.00 0.00 296.00 333.00" xmlns="http://www.w3.org/2000/svg" xmlns:xlink="http://www.w3.org/1999/xlink">
<g id="graph0" class="graph" transform="scale(1 1) rotate(0) translate(4 329)">
<title>tlz::grabber::registration</title>
<polygon fill="white" stroke="none" points="-4,4 -4,-329 292,-329 292,4 -4,4"/>
<!-- Node1 -->
<g id="node1" class="node"><title>Node1</title>
<polygon fill="#bfbfbf" stroke="black" points="0,-153 0,-172 119,-172 119,-153 0,-153"/>
<text text-anchor="middle" x="59.5" y="-160" font-family="Helvetica,sans-Serif" font-size="10.00">tlz::grabber::registration</text>
</g>
<!-- Node2 -->
<g id="node2" class="node"><title>Node2</title>
<g id="a_node2"><a xlink:href="classtlz_1_1grabber.html#a22479c42efb500428a6178391d3e9611" target="_top" xlink:title="tlz::grabber::internal\l_parameters">
<polygon fill="white" stroke="black" points="170,-294.5 170,-324.5 273,-324.5 273,-294.5 170,-294.5"/>
<text text-anchor="start" x="178" y="-312.5" font-family="Helvetica,sans-Serif" font-size="10.00">tlz::grabber::internal</text>
<text text-anchor="middle" x="221.5" y="-301.5" font-family="Helvetica,sans-Serif" font-size="10.00">_parameters</text>
</a>
</g>
</g>
<!-- Node1&#45;&gt;Node2 -->
<g id="edge1" class="edge"><title>Node1&#45;&gt;Node2</title>
<path fill="none" stroke="midnightblue" d="M65.488,-172.312C77.6663,-195.334 111.157,-253.301 155,-285.5 156.864,-286.869 158.814,-288.167 160.827,-289.397"/>
<polygon fill="midnightblue" stroke="midnightblue" points="159.527,-292.674 169.986,-294.367 162.866,-286.521 159.527,-292.674"/>
</g>
<!-- Node3 -->
<g id="node3" class="node"><title>Node3</title>
<g id="a_node3"><a xlink:href="classtlz_1_1grabber.html#a64e9af7d0c0e982539c7465f4c8c2755" target="_top" xlink:title="tlz::grabber::get_color\l_frame">
<polygon fill="white" stroke="black" points="166,-245.5 166,-275.5 277,-275.5 277,-245.5 166,-245.5"/>
<text text-anchor="start" x="174" y="-263.5" font-family="Helvetica,sans-Serif" font-size="10.00">tlz::grabber::get_color</text>
<text text-anchor="middle" x="221.5" y="-252.5" font-family="Helvetica,sans-Serif" font-size="10.00">_frame</text>
</a>
</g>
</g>
<!-- Node1&#45;&gt;Node3 -->
<g id="edge2" class="edge"><title>Node1&#45;&gt;Node3</title>
<path fill="none" stroke="midnightblue" d="M70.5014,-172.093C86.9638,-187.458 121.314,-217.756 155,-236.5 158.056,-238.2 161.256,-239.822 164.528,-241.362"/>
<polygon fill="midnightblue" stroke="midnightblue" points="163.321,-244.655 173.883,-245.481 166.141,-238.248 163.321,-244.655"/>
</g>
<!-- Node4 -->
<g id="node4" class="node"><title>Node4</title>
<g id="a_node4"><a xlink:href="classtlz_1_1grabber.html#a5b829552bf72ef9996dcb7d3a40f42d2" target="_top" xlink:title="tlz::grabber::get_registered\l_color_frame">
<polygon fill="white" stroke="black" points="155,-196.5 155,-226.5 288,-226.5 288,-196.5 155,-196.5"/>
<text text-anchor="start" x="163" y="-214.5" font-family="Helvetica,sans-Serif" font-size="10.00">tlz::grabber::get_registered</text>
<text text-anchor="middle" x="221.5" y="-203.5" font-family="Helvetica,sans-Serif" font-size="10.00">_color_frame</text>
</a>
</g>
</g>
<!-- Node1&#45;&gt;Node4 -->
<g id="edge3" class="edge"><title>Node1&#45;&gt;Node4</title>
<path fill="none" stroke="midnightblue" d="M91.7294,-172.064C111.632,-178.159 138.047,-186.249 161.771,-193.514"/>
<polygon fill="midnightblue" stroke="midnightblue" points="160.813,-196.881 171.4,-196.463 162.863,-190.188 160.813,-196.881"/>
</g>
<!-- Node5 -->
<g id="node5" class="node"><title>Node5</title>
<g id="a_node5"><a xlink:href="classtlz_1_1grabber.html#ab0a7ab9197c8d2676a072c3f9eadd96d" target="_top" xlink:title="tlz::grabber::get_ir\l_frame">
<polygon fill="white" stroke="black" points="174,-147.5 174,-177.5 269,-177.5 269,-147.5 174,-147.5"/>
<text text-anchor="start" x="182" y="-165.5" font-family="Helvetica,sans-Serif" font-size="10.00">tlz::grabber::get_ir</text>
<text text-anchor="middle" x="221.5" y="-154.5" font-family="Helvetica,sans-Serif" font-size="10.00">_frame</text>
</a>
</g>
</g>
<!-- Node1&#45;&gt;Node5 -->
<g id="edge4" class="edge"><title>Node1&#45;&gt;Node5</title>
<path fill="none" stroke="midnightblue" d="M119.17,-162.5C133.667,-162.5 149.172,-162.5 163.584,-162.5"/>
<polygon fill="midnightblue" stroke="midnightblue" points="163.855,-166 173.855,-162.5 163.855,-159 163.855,-166"/>
</g>
<!-- Node6 -->
<g id="node6" class="node"><title>Node6</title>
<g id="a_node6"><a xlink:href="classtlz_1_1grabber.html#ac0436df6301b3b5773d06c499d946fbb" target="_top" xlink:title="tlz::grabber::get_original\l_ir_frame">
<polygon fill="white" stroke="black" points="161,-98.5 161,-128.5 282,-128.5 282,-98.5 161,-98.5"/>
<text text-anchor="start" x="169" y="-116.5" font-family="Helvetica,sans-Serif" font-size="10.00">tlz::grabber::get_original</text>
<text text-anchor="middle" x="221.5" y="-105.5" font-family="Helvetica,sans-Serif" font-size="10.00">_ir_frame</text>
</a>
</g>
</g>
<!-- Node1&#45;&gt;Node6 -->
<g id="edge5" class="edge"><title>Node1&#45;&gt;Node6</title>
<path fill="none" stroke="midnightblue" d="M91.7294,-152.936C111.632,-146.841 138.047,-138.751 161.771,-131.486"/>
<polygon fill="midnightblue" stroke="midnightblue" points="162.863,-134.812 171.4,-128.537 160.813,-128.119 162.863,-134.812"/>
</g>
<!-- Node7 -->
<g id="node7" class="node"><title>Node7</title>
<g id="a_node7"><a xlink:href="classtlz_1_1grabber.html#a22caa426aef0275c5cdf9bfebe352940" target="_top" xlink:title="tlz::grabber::get_depth\l_frame">
<polygon fill="white" stroke="black" points="164.5,-49.5 164.5,-79.5 278.5,-79.5 278.5,-49.5 164.5,-49.5"/>
<text text-anchor="start" x="172.5" y="-67.5" font-family="Helvetica,sans-Serif" font-size="10.00">tlz::grabber::get_depth</text>
<text text-anchor="middle" x="221.5" y="-56.5" font-family="Helvetica,sans-Serif" font-size="10.00">_frame</text>
</a>
</g>
</g>
<!-- Node1&#45;&gt;Node7 -->
<g id="edge6" class="edge"><title>Node1&#45;&gt;Node7</title>
<path fill="none" stroke="midnightblue" d="M70.8256,-152.853C87.4671,-137.709 121.731,-108.161 155,-89.5 158.643,-87.4569 162.485,-85.5123 166.409,-83.6767"/>
<polygon fill="midnightblue" stroke="midnightblue" points="167.921,-86.8353 175.656,-79.5957 165.094,-80.4313 167.921,-86.8353"/>
</g>
<!-- Node8 -->
<g id="node8" class="node"><title>Node8</title>
<g id="a_node8"><a xlink:href="classtlz_1_1grabber.html#a0b1242b05d42416c5558bf31e5494dc2" target="_top" xlink:title="tlz::grabber::get_bigdepth\l_frame">
<polygon fill="white" stroke="black" points="158,-0.5 158,-30.5 285,-30.5 285,-0.5 158,-0.5"/>
<text text-anchor="start" x="166" y="-18.5" font-family="Helvetica,sans-Serif" font-size="10.00">tlz::grabber::get_bigdepth</text>
<text text-anchor="middle" x="221.5" y="-7.5" font-family="Helvetica,sans-Serif" font-size="10.00">_frame</text>
</a>
</g>
</g>
<!-- Node1&#45;&gt;Node8 -->
<g id="edge7" class="edge"><title>Node1&#45;&gt;Node8</title>
<path fill="none" stroke="midnightblue" d="M65.5382,-152.809C77.8247,-130.061 111.533,-72.7403 155,-40.5 157.462,-38.6736 160.074,-36.9647 162.782,-35.3676"/>
<polygon fill="midnightblue" stroke="midnightblue" points="164.499,-38.4189 171.694,-30.6415 161.22,-32.2347 164.499,-38.4189"/>
</g>
</g>
</svg>
