<?xml version="1.0" encoding="UTF-8" standalone="no"?>
<!DOCTYPE svg PUBLIC "-//W3C//DTD SVG 1.1//EN"
 "http://www.w3.org/Graphics/SVG/1.1/DTD/svg11.dtd">
<!-- Generated by graphviz version 2.38.0 (20140413.2041)
 -->
<!-- Title: tlz::viewer::draw_depth Pages: 1 -->
<svg width="556pt" height="411pt"
 viewBox="0.00 0.00 556.00 410.50" xmlns="http://www.w3.org/2000/svg" xmlns:xlink="http://www.w3.org/1999/xlink">
<g id="graph0" class="graph" transform="scale(1 1) rotate(0) translate(4 406.5)">
<title>tlz::viewer::draw_depth</title>
<polygon fill="white" stroke="none" points="-4,4 -4,-406.5 552,-406.5 552,4 -4,4"/>
<!-- Node1 -->
<g id="node1" class="node"><title>Node1</title>
<polygon fill="#bfbfbf" stroke="black" points="0,-186.5 0,-205.5 118,-205.5 118,-186.5 0,-186.5"/>
<text text-anchor="middle" x="59" y="-193.5" font-family="Helvetica,sans-Serif" font-size="10.00">tlz::viewer::draw_depth</text>
</g>
<!-- Node2 -->
<g id="node2" class="node"><title>Node2</title>
<g id="a_node2"><a xlink:href="classtlz_1_1viewer.html#a7f8bb5582e18ad278881cc065d7c21fa" target="_top" xlink:title="tlz::viewer::draw_depth">
<polygon fill="white" stroke="black" points="156,-339.5 156,-358.5 274,-358.5 274,-339.5 156,-339.5"/>
<text text-anchor="middle" x="215" y="-346.5" font-family="Helvetica,sans-Serif" font-size="10.00">tlz::viewer::draw_depth</text>
</a>
</g>
</g>
<!-- Node1&#45;&gt;Node2 -->
<g id="edge1" class="edge"><title>Node1&#45;&gt;Node2</title>
<path fill="none" stroke="midnightblue" d="M64.1128,-205.733C75.0067,-230.344 107.027,-295.544 154,-330 156.643,-331.939 159.491,-333.684 162.459,-335.255"/>
<polygon fill="midnightblue" stroke="midnightblue" points="161.09,-338.477 171.639,-339.461 164.005,-332.113 161.09,-338.477"/>
</g>
<!-- Node3 -->
<g id="node3" class="node"><title>Node3</title>
<g id="a_node3"><a xlink:href="classtlz_1_1viewer.html#a6a59617413dc76948b6802399ddf555b" target="_top" xlink:title="tlz::viewer::visualize\l_depth">
<polygon fill="white" stroke="black" points="312,-372 312,-402 418,-402 418,-372 312,-372"/>
<text text-anchor="start" x="320" y="-390" font-family="Helvetica,sans-Serif" font-size="10.00">tlz::viewer::visualize</text>
<text text-anchor="middle" x="365" y="-379" font-family="Helvetica,sans-Serif" font-size="10.00">_depth</text>
</a>
</g>
</g>
<!-- Node1&#45;&gt;Node3 -->
<g id="edge14" class="edge"><title>Node1&#45;&gt;Node3</title>
<path fill="none" stroke="midnightblue" d="M61.935,-205.564C68.5642,-235.575 93.3879,-328.251 154,-368 197.31,-396.402 256.888,-399.214 301.526,-396.046"/>
<polygon fill="midnightblue" stroke="midnightblue" points="301.993,-399.52 311.67,-395.206 301.416,-392.544 301.993,-399.52"/>
</g>
<!-- Node7 -->
<g id="node7" class="node"><title>Node7</title>
<g id="a_node7"><a xlink:href="classtlz_1_1viewer.html#ad4fda702b7c5af2cb0bb9bc3842113f3" target="_top" xlink:title="tlz::viewer::draw_text">
<polygon fill="white" stroke="black" points="160,-301.5 160,-320.5 270,-320.5 270,-301.5 160,-301.5"/>
<text text-anchor="middle" x="215" y="-308.5" font-family="Helvetica,sans-Serif" font-size="10.00">tlz::viewer::draw_text</text>
</a>
</g>
</g>
<!-- Node1&#45;&gt;Node7 -->
<g id="edge6" class="edge"><title>Node1&#45;&gt;Node7</title>
<path fill="none" stroke="midnightblue" d="M66.868,-205.696C80.9945,-224.945 115.253,-268.175 154,-292 157.41,-294.097 161.074,-295.983 164.848,-297.675"/>
<polygon fill="midnightblue" stroke="midnightblue" points="163.791,-301.022 174.375,-301.493 166.395,-294.525 163.791,-301.022"/>
</g>
<!-- Node8 -->
<g id="node8" class="node"><title>Node8</title>
<g id="a_node8"><a xlink:href="classtlz_1_1viewer.html#a09c3c6e9c5a5341576cea9210a6d8246" target="_top" xlink:title="tlz::viewer::draw_2d\l_cross_indicator">
<polygon fill="white" stroke="black" points="163,-252 163,-282 267,-282 267,-252 163,-252"/>
<text text-anchor="start" x="171" y="-270" font-family="Helvetica,sans-Serif" font-size="10.00">tlz::viewer::draw_2d</text>
<text text-anchor="middle" x="215" y="-259" font-family="Helvetica,sans-Serif" font-size="10.00">_cross_indicator</text>
</a>
</g>
</g>
<!-- Node1&#45;&gt;Node8 -->
<g id="edge7" class="edge"><title>Node1&#45;&gt;Node8</title>
<path fill="none" stroke="midnightblue" d="M78.156,-205.642C96.932,-215.479 127.202,-230.966 154,-243 157.8,-244.706 161.759,-246.422 165.752,-248.11"/>
<polygon fill="midnightblue" stroke="midnightblue" points="164.492,-251.376 175.07,-251.976 167.175,-244.911 164.492,-251.376"/>
</g>
<!-- Node9 -->
<g id="node9" class="node"><title>Node9</title>
<g id="a_node9"><a xlink:href="classtlz_1_1viewer.html#ac882ef84c24e8c209c13e2308c5c8c0c" target="_top" xlink:title="tlz::viewer::draw_2d\l_arrow_indicator">
<polygon fill="white" stroke="black" points="163,-203 163,-233 267,-233 267,-203 163,-203"/>
<text text-anchor="start" x="171" y="-221" font-family="Helvetica,sans-Serif" font-size="10.00">tlz::viewer::draw_2d</text>
<text text-anchor="middle" x="215" y="-210" font-family="Helvetica,sans-Serif" font-size="10.00">_arrow_indicator</text>
</a>
</g>
</g>
<!-- Node1&#45;&gt;Node9 -->
<g id="edge8" class="edge"><title>Node1&#45;&gt;Node9</title>
<path fill="none" stroke="midnightblue" d="M118.221,-204.317C129.437,-205.92 141.22,-207.603 152.536,-209.219"/>
<polygon fill="midnightblue" stroke="midnightblue" points="152.373,-212.732 162.767,-210.681 153.363,-205.802 152.373,-212.732"/>
</g>
<!-- Node10 -->
<g id="node10" class="node"><title>Node10</title>
<g id="a_node10"><a xlink:href="classtlz_1_1viewer.html#a96ab5d3d95f438355c6a221658199184" target="_top" xlink:title="tlz::viewer::show">
<polygon fill="white" stroke="black" points="169.5,-164.5 169.5,-183.5 260.5,-183.5 260.5,-164.5 169.5,-164.5"/>
<text text-anchor="middle" x="215" y="-171.5" font-family="Helvetica,sans-Serif" font-size="10.00">tlz::viewer::show</text>
</a>
</g>
</g>
<!-- Node1&#45;&gt;Node10 -->
<g id="edge9" class="edge"><title>Node1&#45;&gt;Node10</title>
<path fill="none" stroke="midnightblue" d="M118.221,-187.683C131.66,-185.763 145.912,-183.727 159.2,-181.829"/>
<polygon fill="midnightblue" stroke="midnightblue" points="159.739,-185.287 169.143,-180.408 158.749,-178.358 159.739,-185.287"/>
</g>
<!-- Node11 -->
<g id="node11" class="node"><title>Node11</title>
<g id="a_node11"><a xlink:href="classtlz_1_1viewer.html#a4ccb30b02c81909ba1af97745375385a" target="_top" xlink:title="tlz::viewer::show_modal">
<polygon fill="white" stroke="black" points="154,-126.5 154,-145.5 276,-145.5 276,-126.5 154,-126.5"/>
<text text-anchor="middle" x="215" y="-133.5" font-family="Helvetica,sans-Serif" font-size="10.00">tlz::viewer::show_modal</text>
</a>
</g>
</g>
<!-- Node1&#45;&gt;Node11 -->
<g id="edge10" class="edge"><title>Node1&#45;&gt;Node11</title>
<path fill="none" stroke="midnightblue" d="M80.2843,-186.418C99.153,-177.681 128.163,-164.695 154,-155 159.702,-152.861 165.765,-150.752 171.761,-148.762"/>
<polygon fill="midnightblue" stroke="midnightblue" points="173.278,-151.95 181.715,-145.542 171.123,-145.29 173.278,-151.95"/>
</g>
<!-- Node12 -->
<g id="node12" class="node"><title>Node12</title>
<g id="a_node12"><a xlink:href="classtlz_1_1viewer.html#a39742c89e09f32e2d2c9162882dc158c" target="_top" xlink:title="tlz::viewer::update\l_modal">
<polygon fill="white" stroke="black" points="316.5,-102 316.5,-132 413.5,-132 413.5,-102 316.5,-102"/>
<text text-anchor="start" x="324.5" y="-120" font-family="Helvetica,sans-Serif" font-size="10.00">tlz::viewer::update</text>
<text text-anchor="middle" x="365" y="-109" font-family="Helvetica,sans-Serif" font-size="10.00">_modal</text>
</a>
</g>
</g>
<!-- Node1&#45;&gt;Node12 -->
<g id="edge12" class="edge"><title>Node1&#45;&gt;Node12</title>
<path fill="none" stroke="midnightblue" d="M67.4771,-186.284C81.8972,-168.444 115.544,-131.014 154,-117 202.996,-99.1454 262.797,-101.242 306.035,-106.57"/>
<polygon fill="midnightblue" stroke="midnightblue" points="305.727,-110.06 316.1,-107.905 306.647,-103.12 305.727,-110.06"/>
</g>
<!-- Node13 -->
<g id="node13" class="node"><title>Node13</title>
<g id="a_node13"><a xlink:href="classtlz_1_1viewer.html#ae84f2b4938b897ac7cef4940056a1949" target="_top" xlink:title="tlz::viewer::close\l_modal">
<polygon fill="white" stroke="black" points="169.5,-39 169.5,-69 260.5,-69 260.5,-39 169.5,-39"/>
<text text-anchor="start" x="177.5" y="-57" font-family="Helvetica,sans-Serif" font-size="10.00">tlz::viewer::close</text>
<text text-anchor="middle" x="215" y="-46" font-family="Helvetica,sans-Serif" font-size="10.00">_modal</text>
</a>
</g>
</g>
<!-- Node1&#45;&gt;Node13 -->
<g id="edge13" class="edge"><title>Node1&#45;&gt;Node13</title>
<path fill="none" stroke="midnightblue" d="M66.0073,-186.47C79.5402,-165.613 114.344,-115.295 154,-84 158.627,-80.3486 163.769,-76.9685 169.043,-73.8951"/>
<polygon fill="midnightblue" stroke="midnightblue" points="170.874,-76.8831 177.973,-69.0185 167.519,-70.7394 170.874,-76.8831"/>
</g>
<!-- Node14 -->
<g id="node14" class="node"><title>Node14</title>
<g id="a_node14"><a xlink:href="classtlz_1_1viewer.html#adef64a6ebf1391fd02c1231b9fde281f" target="_top" xlink:title="tlz::viewer::visualize_ir">
<polygon fill="white" stroke="black" points="157,-0.5 157,-19.5 273,-19.5 273,-0.5 157,-0.5"/>
<text text-anchor="middle" x="215" y="-7.5" font-family="Helvetica,sans-Serif" font-size="10.00">tlz::viewer::visualize_ir</text>
</a>
</g>
</g>
<!-- Node1&#45;&gt;Node14 -->
<g id="edge15" class="edge"><title>Node1&#45;&gt;Node14</title>
<path fill="none" stroke="midnightblue" d="M62.8128,-186.128C71.4477,-157.588 100.3,-74.199 154,-30 156.71,-27.7693 159.679,-25.7838 162.8,-24.0171"/>
<polygon fill="midnightblue" stroke="midnightblue" points="164.441,-27.1111 171.909,-19.5955 161.384,-20.8139 164.441,-27.1111"/>
</g>
<!-- Node2&#45;&gt;Node3 -->
<g id="edge2" class="edge"><title>Node2&#45;&gt;Node3</title>
<path fill="none" stroke="midnightblue" d="M253.347,-358.589C268.026,-362.358 285.28,-366.788 301.738,-371.014"/>
<polygon fill="midnightblue" stroke="midnightblue" points="301.297,-374.514 311.853,-373.611 303.038,-367.734 301.297,-374.514"/>
</g>
<!-- Node4 -->
<g id="node4" class="node"><title>Node4</title>
<g id="a_node4"><a xlink:href="classtlz_1_1viewer.html#a5f0412cff89a343ad52431689502389d" target="_top" xlink:title="tlz::viewer::draw">
<polygon fill="white" stroke="black" points="320.5,-333.5 320.5,-352.5 409.5,-352.5 409.5,-333.5 320.5,-333.5"/>
<text text-anchor="middle" x="365" y="-340.5" font-family="Helvetica,sans-Serif" font-size="10.00">tlz::viewer::draw</text>
</a>
</g>
</g>
<!-- Node2&#45;&gt;Node4 -->
<g id="edge3" class="edge"><title>Node2&#45;&gt;Node4</title>
<path fill="none" stroke="midnightblue" d="M274.069,-346.646C285.969,-346.163 298.447,-345.658 310.19,-345.181"/>
<polygon fill="midnightblue" stroke="midnightblue" points="310.438,-348.674 320.288,-344.772 310.154,-341.68 310.438,-348.674"/>
</g>
<!-- Node5 -->
<g id="node5" class="node"><title>Node5</title>
<g id="a_node5"><a xlink:href="classtlz_1_1viewer.html#acc43bf1dd1d0c3cdc35a948d4c194769" target="_top" xlink:title="tlz::viewer::width">
<polygon fill="white" stroke="black" points="455.5,-352.5 455.5,-371.5 546.5,-371.5 546.5,-352.5 455.5,-352.5"/>
<text text-anchor="middle" x="501" y="-359.5" font-family="Helvetica,sans-Serif" font-size="10.00">tlz::viewer::width</text>
</a>
</g>
</g>
<!-- Node4&#45;&gt;Node5 -->
<g id="edge4" class="edge"><title>Node4&#45;&gt;Node5</title>
<path fill="none" stroke="midnightblue" d="M409.506,-349.169C420.854,-350.778 433.232,-352.533 445.088,-354.214"/>
<polygon fill="midnightblue" stroke="midnightblue" points="444.941,-357.728 455.333,-355.667 445.924,-350.797 444.941,-357.728"/>
</g>
<!-- Node6 -->
<g id="node6" class="node"><title>Node6</title>
<g id="a_node6"><a xlink:href="classtlz_1_1viewer.html#af74a8aef9dde68eeff6b1e2561b39014" target="_top" xlink:title="tlz::viewer::height">
<polygon fill="white" stroke="black" points="454,-314.5 454,-333.5 548,-333.5 548,-314.5 454,-314.5"/>
<text text-anchor="middle" x="501" y="-321.5" font-family="Helvetica,sans-Serif" font-size="10.00">tlz::viewer::height</text>
</a>
</g>
</g>
<!-- Node4&#45;&gt;Node6 -->
<g id="edge5" class="edge"><title>Node4&#45;&gt;Node6</title>
<path fill="none" stroke="midnightblue" d="M409.506,-336.831C420.5,-335.272 432.46,-333.577 443.975,-331.944"/>
<polygon fill="midnightblue" stroke="midnightblue" points="444.535,-335.399 453.945,-330.53 443.553,-328.469 444.535,-335.399"/>
</g>
<!-- Node11&#45;&gt;Node12 -->
<g id="edge11" class="edge"><title>Node11&#45;&gt;Node12</title>
<path fill="none" stroke="midnightblue" d="M276.197,-128.272C286.057,-127.006 296.256,-125.697 306.059,-124.438"/>
<polygon fill="midnightblue" stroke="midnightblue" points="306.629,-127.894 316.102,-123.149 305.738,-120.951 306.629,-127.894"/>
</g>
</g>
</svg>
