<?xml version="1.0" encoding="UTF-8" standalone="no"?>
<!DOCTYPE svg PUBLIC "-//W3C//DTD SVG 1.1//EN"
 "http://www.w3.org/Graphics/SVG/1.1/DTD/svg11.dtd">
<!-- Generated by graphviz version 2.38.0 (20140413.2041)
 -->
<!-- Title: tlz::viewer::draw Pages: 1 -->
<svg width="352pt" height="75pt"
 viewBox="0.00 0.00 352.00 75.00" xmlns="http://www.w3.org/2000/svg" xmlns:xlink="http://www.w3.org/1999/xlink">
<g id="graph0" class="graph" transform="scale(1 1) rotate(0) translate(4 71)">
<title>tlz::viewer::draw</title>
<polygon fill="white" stroke="none" points="-4,4 -4,-71 348,-71 348,4 -4,4"/>
<!-- Node1 -->
<g id="node1" class="node"><title>Node1</title>
<polygon fill="#bfbfbf" stroke="black" points="0,-28.5 0,-47.5 89,-47.5 89,-28.5 0,-28.5"/>
<text text-anchor="middle" x="44.5" y="-35.5" font-family="Helvetica,sans-Serif" font-size="10.00">tlz::viewer::draw</text>
</g>
<!-- Node2 -->
<g id="node2" class="node"><title>Node2</title>
<g id="a_node2"><a xlink:href="classtlz_1_1viewer.html#a5f0412cff89a343ad52431689502389d" target="_top" xlink:title="tlz::viewer::draw">
<polygon fill="white" stroke="black" points="125,-28.5 125,-47.5 214,-47.5 214,-28.5 125,-28.5"/>
<text text-anchor="middle" x="169.5" y="-35.5" font-family="Helvetica,sans-Serif" font-size="10.00">tlz::viewer::draw</text>
</a>
</g>
</g>
<!-- Node1&#45;&gt;Node2 -->
<g id="edge1" class="edge"><title>Node1&#45;&gt;Node2</title>
<path fill="none" stroke="midnightblue" d="M89.2115,-38C97.4587,-38 106.173,-38 114.687,-38"/>
<polygon fill="midnightblue" stroke="midnightblue" points="114.929,-41.5001 124.929,-38 114.929,-34.5001 114.929,-41.5001"/>
</g>
<!-- Node3 -->
<g id="node3" class="node"><title>Node3</title>
<g id="a_node3"><a xlink:href="classtlz_1_1viewer.html#acc43bf1dd1d0c3cdc35a948d4c194769" target="_top" xlink:title="tlz::viewer::width">
<polygon fill="white" stroke="black" points="251.5,-47.5 251.5,-66.5 342.5,-66.5 342.5,-47.5 251.5,-47.5"/>
<text text-anchor="middle" x="297" y="-54.5" font-family="Helvetica,sans-Serif" font-size="10.00">tlz::viewer::width</text>
</a>
</g>
</g>
<!-- Node1&#45;&gt;Node3 -->
<g id="edge4" class="edge"><title>Node1&#45;&gt;Node3</title>
<path fill="none" stroke="midnightblue" d="M77.6814,-47.5064C92.0257,-51.2708 109.216,-55.14 125,-57 163.61,-61.5497 207.464,-61.4447 241.095,-60.2566"/>
<polygon fill="midnightblue" stroke="midnightblue" points="241.333,-63.75 251.187,-59.8571 241.056,-56.7555 241.333,-63.75"/>
</g>
<!-- Node4 -->
<g id="node4" class="node"><title>Node4</title>
<g id="a_node4"><a xlink:href="classtlz_1_1viewer.html#af74a8aef9dde68eeff6b1e2561b39014" target="_top" xlink:title="tlz::viewer::height">
<polygon fill="white" stroke="black" points="250,-0.5 250,-19.5 344,-19.5 344,-0.5 250,-0.5"/>
<text text-anchor="middle" x="297" y="-7.5" font-family="Helvetica,sans-Serif" font-size="10.00">tlz::viewer::height</text>
</a>
</g>
</g>
<!-- Node1&#45;&gt;Node4 -->
<g id="edge5" class="edge"><title>Node1&#45;&gt;Node4</title>
<path fill="none" stroke="midnightblue" d="M79.2815,-28.4905C93.3123,-24.9173 109.832,-21.1931 125,-19 162.997,-13.5063 206.173,-11.265 239.635,-10.3927"/>
<polygon fill="midnightblue" stroke="midnightblue" points="239.773,-13.8906 249.691,-10.1639 239.614,-6.89237 239.773,-13.8906"/>
</g>
<!-- Node2&#45;&gt;Node3 -->
<g id="edge2" class="edge"><title>Node2&#45;&gt;Node3</title>
<path fill="none" stroke="midnightblue" d="M214.042,-44.592C222.786,-45.9158 232.081,-47.323 241.152,-48.6964"/>
<polygon fill="midnightblue" stroke="midnightblue" points="240.846,-52.1899 251.258,-50.2263 241.894,-45.2687 240.846,-52.1899"/>
</g>
<!-- Node2&#45;&gt;Node4 -->
<g id="edge3" class="edge"><title>Node2&#45;&gt;Node4</title>
<path fill="none" stroke="midnightblue" d="M213.339,-28.4423C223.032,-26.2798 233.431,-23.9595 243.472,-21.7193"/>
<polygon fill="midnightblue" stroke="midnightblue" points="244.356,-25.1083 253.354,-19.5146 242.832,-18.2762 244.356,-25.1083"/>
</g>
</g>
</svg>
