<?xml version="1.0" encoding="UTF-8" standalone="no"?>
<!DOCTYPE svg PUBLIC "-//W3C//DTD SVG 1.1//EN"
 "http://www.w3.org/Graphics/SVG/1.1/DTD/svg11.dtd">
<!-- Generated by graphviz version 2.38.0 (20140413.2041)
 -->
<!-- Title: tlz::ply_exporter::~ply_exporter Pages: 1 -->
<svg width="443pt" height="53pt"
 viewBox="0.00 0.00 443.00 52.50" xmlns="http://www.w3.org/2000/svg" xmlns:xlink="http://www.w3.org/1999/xlink">
<g id="graph0" class="graph" transform="scale(1 1) rotate(0) translate(4 48.5)">
<title>tlz::ply_exporter::~ply_exporter</title>
<polygon fill="white" stroke="none" points="-4,4 -4,-48.5 439,-48.5 439,4 -4,4"/>
<!-- Node1 -->
<g id="node1" class="node"><title>Node1</title>
<polygon fill="#bfbfbf" stroke="black" points="0,-0.5 0,-30.5 92,-30.5 92,-0.5 0,-0.5"/>
<text text-anchor="start" x="8" y="-18.5" font-family="Helvetica,sans-Serif" font-size="10.00">tlz::ply_exporter::</text>
<text text-anchor="middle" x="46" y="-7.5" font-family="Helvetica,sans-Serif" font-size="10.00">~ply_exporter</text>
</g>
<!-- Node2 -->
<g id="node2" class="node"><title>Node2</title>
<g id="a_node2"><a xlink:href="classtlz_1_1ply__exporter.html#a50d9d05ee04c68020969f73ed1a7ccd3" target="_top" xlink:title="tlz::ply_exporter::\lclose">
<polygon fill="white" stroke="black" points="128,-0.5 128,-30.5 220,-30.5 220,-0.5 128,-0.5"/>
<text text-anchor="start" x="136" y="-18.5" font-family="Helvetica,sans-Serif" font-size="10.00">tlz::ply_exporter::</text>
<text text-anchor="middle" x="174" y="-7.5" font-family="Helvetica,sans-Serif" font-size="10.00">close</text>
</a>
</g>
</g>
<!-- Node1&#45;&gt;Node2 -->
<g id="edge1" class="edge"><title>Node1&#45;&gt;Node2</title>
<path fill="none" stroke="midnightblue" d="M92.133,-15.5C100.366,-15.5 109.043,-15.5 117.535,-15.5"/>
<polygon fill="midnightblue" stroke="midnightblue" points="117.759,-19.0001 127.759,-15.5 117.759,-12.0001 117.759,-19.0001"/>
</g>
<!-- Node3 -->
<g id="node3" class="node"><title>Node3</title>
<g id="a_node3"><a xlink:href="namespacetlz.html#a4e9cdc9ca668d5050a9dfbfd7d60437d" target="_top" xlink:title="tlz::write_line">
<polygon fill="white" stroke="black" points="256,-25 256,-44 330,-44 330,-25 256,-25"/>
<text text-anchor="middle" x="293" y="-32" font-family="Helvetica,sans-Serif" font-size="10.00">tlz::write_line</text>
</a>
</g>
</g>
<!-- Node2&#45;&gt;Node3 -->
<g id="edge2" class="edge"><title>Node2&#45;&gt;Node3</title>
<path fill="none" stroke="midnightblue" d="M220.235,-22.8459C228.647,-24.2119 237.445,-25.6407 245.883,-27.0109"/>
<polygon fill="midnightblue" stroke="midnightblue" points="245.515,-30.4969 255.946,-28.6451 246.637,-23.5874 245.515,-30.4969"/>
</g>
<!-- Node4 -->
<g id="node4" class="node"><title>Node4</title>
<g id="a_node4"><a xlink:href="namespacetlz.html#ab1d9ef738ca24791409c5af520dff3e6" target="_top" xlink:title="tlz::end_line">
<polygon fill="white" stroke="black" points="366,-6 366,-25 435,-25 435,-6 366,-6"/>
<text text-anchor="middle" x="400.5" y="-13" font-family="Helvetica,sans-Serif" font-size="10.00">tlz::end_line</text>
</a>
</g>
</g>
<!-- Node2&#45;&gt;Node4 -->
<g id="edge4" class="edge"><title>Node2&#45;&gt;Node4</title>
<path fill="none" stroke="midnightblue" d="M220.161,-15.5C259.654,-15.5 316.648,-15.5 355.724,-15.5"/>
<polygon fill="midnightblue" stroke="midnightblue" points="355.746,-19.0001 365.746,-15.5 355.746,-12.0001 355.746,-19.0001"/>
</g>
<!-- Node3&#45;&gt;Node4 -->
<g id="edge3" class="edge"><title>Node3&#45;&gt;Node4</title>
<path fill="none" stroke="midnightblue" d="M330.012,-28.0144C338.335,-26.5154 347.279,-24.9047 355.888,-23.3543"/>
<polygon fill="midnightblue" stroke="midnightblue" points="356.561,-26.7894 365.783,-21.5723 355.321,-19.9003 356.561,-26.7894"/>
</g>
</g>
</svg>
