<?xml version="1.0" encoding="UTF-8" standalone="no"?>
<!DOCTYPE svg PUBLIC "-//W3C//DTD SVG 1.1//EN"
 "http://www.w3.org/Graphics/SVG/1.1/DTD/svg11.dtd">
<!-- Generated by graphviz version 2.38.0 (20140413.2041)
 -->
<!-- Title: tlz::viewer::draw Pages: 1 -->
<svg width="227pt" height="66pt"
 viewBox="0.00 0.00 227.00 66.00" xmlns="http://www.w3.org/2000/svg" xmlns:xlink="http://www.w3.org/1999/xlink">
<g id="graph0" class="graph" transform="scale(1 1) rotate(0) translate(4 62)">
<title>tlz::viewer::draw</title>
<polygon fill="white" stroke="none" points="-4,4 -4,-62 223,-62 223,4 -4,4"/>
<!-- Node1 -->
<g id="node1" class="node"><title>Node1</title>
<polygon fill="#bfbfbf" stroke="black" points="0,-19.5 0,-38.5 89,-38.5 89,-19.5 0,-19.5"/>
<text text-anchor="middle" x="44.5" y="-26.5" font-family="Helvetica,sans-Serif" font-size="10.00">tlz::viewer::draw</text>
</g>
<!-- Node2 -->
<g id="node2" class="node"><title>Node2</title>
<g id="a_node2"><a xlink:href="classtlz_1_1viewer.html#acc43bf1dd1d0c3cdc35a948d4c194769" target="_top" xlink:title="tlz::viewer::width">
<polygon fill="white" stroke="black" points="126.5,-38.5 126.5,-57.5 217.5,-57.5 217.5,-38.5 126.5,-38.5"/>
<text text-anchor="middle" x="172" y="-45.5" font-family="Helvetica,sans-Serif" font-size="10.00">tlz::viewer::width</text>
</a>
</g>
</g>
<!-- Node1&#45;&gt;Node2 -->
<g id="edge1" class="edge"><title>Node1&#45;&gt;Node2</title>
<path fill="none" stroke="midnightblue" d="M89.0416,-35.592C97.786,-36.9158 107.081,-38.323 116.152,-39.6964"/>
<polygon fill="midnightblue" stroke="midnightblue" points="115.846,-43.1899 126.258,-41.2263 116.894,-36.2687 115.846,-43.1899"/>
</g>
<!-- Node3 -->
<g id="node3" class="node"><title>Node3</title>
<g id="a_node3"><a xlink:href="classtlz_1_1viewer.html#af74a8aef9dde68eeff6b1e2561b39014" target="_top" xlink:title="tlz::viewer::height">
<polygon fill="white" stroke="black" points="125,-0.5 125,-19.5 219,-19.5 219,-0.5 125,-0.5"/>
<text text-anchor="middle" x="172" y="-7.5" font-family="Helvetica,sans-Serif" font-size="10.00">tlz::viewer::height</text>
</a>
</g>
</g>
<!-- Node1&#45;&gt;Node3 -->
<g id="edge2" class="edge"><title>Node1&#45;&gt;Node3</title>
<path fill="none" stroke="midnightblue" d="M89.0416,-22.408C97.3866,-21.1447 106.233,-19.8053 114.908,-18.492"/>
<polygon fill="midnightblue" stroke="midnightblue" points="115.609,-21.9258 124.973,-16.9683 114.561,-15.0047 115.609,-21.9258"/>
</g>
</g>
</svg>
