<?xml version="1.0" encoding="UTF-8" standalone="no"?>
<!DOCTYPE svg PUBLIC "-//W3C//DTD SVG 1.1//EN"
 "http://www.w3.org/Graphics/SVG/1.1/DTD/svg11.dtd">
<!-- Generated by graphviz version 2.38.0 (20140413.2041)
 -->
<!-- Title: tlz::viewer::slider_base Pages: 1 -->
<svg width="245pt" height="84pt"
 viewBox="0.00 0.00 244.50 84.00" xmlns="http://www.w3.org/2000/svg" xmlns:xlink="http://www.w3.org/1999/xlink">
<g id="graph0" class="graph" transform="scale(1 1) rotate(0) translate(4 80)">
<title>tlz::viewer::slider_base</title>
<polygon fill="white" stroke="none" points="-4,4 -4,-80 240.5,-80 240.5,4 -4,4"/>
<!-- Node1 -->
<g id="node1" class="node"><title>Node1</title>
<polygon fill="#bfbfbf" stroke="black" points="58,-56.5 58,-75.5 175,-75.5 175,-56.5 58,-56.5"/>
<text text-anchor="middle" x="116.5" y="-63.5" font-family="Helvetica,sans-Serif" font-size="10.00">tlz::viewer::slider_base</text>
</g>
<!-- Node2 -->
<g id="node2" class="node"><title>Node2</title>
<g id="a_node2"><a xlink:href="classtlz_1_1viewer_1_1int__slider.html" target="_top" xlink:title="tlz::viewer::int_slider">
<polygon fill="white" stroke="black" points="0,-0.5 0,-19.5 107,-19.5 107,-0.5 0,-0.5"/>
<text text-anchor="middle" x="53.5" y="-7.5" font-family="Helvetica,sans-Serif" font-size="10.00">tlz::viewer::int_slider</text>
</a>
</g>
</g>
<!-- Node1&#45;&gt;Node2 -->
<g id="edge1" class="edge"><title>Node1&#45;&gt;Node2</title>
<path fill="none" stroke="midnightblue" d="M98.4601,-49.5372C87.2269,-39.9087 73.1809,-27.8694 63.8062,-19.8339"/>
<polygon fill="midnightblue" stroke="midnightblue" points="96.5076,-52.4734 106.378,-56.324 101.063,-47.1586 96.5076,-52.4734"/>
</g>
<!-- Node3 -->
<g id="node3" class="node"><title>Node3</title>
<g id="a_node3"><a xlink:href="classtlz_1_1viewer_1_1real__slider.html" target="_top" xlink:title="tlz::viewer::real_slider">
<polygon fill="white" stroke="black" points="124.5,-0.5 124.5,-19.5 236.5,-19.5 236.5,-0.5 124.5,-0.5"/>
<text text-anchor="middle" x="180.5" y="-7.5" font-family="Helvetica,sans-Serif" font-size="10.00">tlz::viewer::real_slider</text>
</a>
</g>
</g>
<!-- Node1&#45;&gt;Node3 -->
<g id="edge2" class="edge"><title>Node1&#45;&gt;Node3</title>
<path fill="none" stroke="midnightblue" d="M134.491,-49.8197C145.958,-40.1452 160.413,-27.9481 170.03,-19.8339"/>
<polygon fill="midnightblue" stroke="midnightblue" points="132.169,-47.2002 126.783,-56.324 136.683,-52.5502 132.169,-47.2002"/>
</g>
</g>
</svg>
