<?xml version="1.0" encoding="UTF-8" standalone="no"?>
<!DOCTYPE svg PUBLIC "-//W3C//DTD SVG 1.1//EN"
 "http://www.w3.org/Graphics/SVG/1.1/DTD/svg11.dtd">
<!-- Generated by graphviz version 2.38.0 (20140413.2041)
 -->
<!-- Title: tlz::kinect_reprojection::parameters Pages: 1 -->
<svg width="1547pt" height="455pt"
 viewBox="0.00 0.00 1547.00 455.00" xmlns="http://www.w3.org/2000/svg" xmlns:xlink="http://www.w3.org/1999/xlink">
<g id="graph0" class="graph" transform="scale(1 1) rotate(0) translate(4 451)">
<title>tlz::kinect_reprojection::parameters</title>
<polygon fill="white" stroke="none" points="-4,4 -4,-451 1543,-451 1543,4 -4,4"/>
<!-- Node1 -->
<g id="node1" class="node"><title>Node1</title>
<polygon fill="#bfbfbf" stroke="black" points="0,-394 0,-424 115,-424 115,-394 0,-394"/>
<text text-anchor="start" x="8" y="-412" font-family="Helvetica,sans-Serif" font-size="10.00">tlz::kinect_reprojection</text>
<text text-anchor="middle" x="57.5" y="-401" font-family="Helvetica,sans-Serif" font-size="10.00">::parameters</text>
</g>
<!-- Node2 -->
<g id="node2" class="node"><title>Node2</title>
<g id="a_node2"><a xlink:href="classtlz_1_1kinect__reprojection.html#a15890a47741e1be6217d2870ecbe3f5a" target="_top" xlink:title="tlz::kinect_reprojection\l::reproject_points_ir_to_color">
<polygon fill="white" stroke="black" points="151,-394 151,-424 293,-424 293,-394 151,-394"/>
<text text-anchor="start" x="159" y="-412" font-family="Helvetica,sans-Serif" font-size="10.00">tlz::kinect_reprojection</text>
<text text-anchor="middle" x="222" y="-401" font-family="Helvetica,sans-Serif" font-size="10.00">::reproject_points_ir_to_color</text>
</a>
</g>
</g>
<!-- Node1&#45;&gt;Node2 -->
<g id="edge1" class="edge"><title>Node1&#45;&gt;Node2</title>
<path fill="none" stroke="midnightblue" d="M115.335,-409C123.557,-409 132.148,-409 140.724,-409"/>
<polygon fill="midnightblue" stroke="midnightblue" points="140.763,-412.5 150.762,-409 140.762,-405.5 140.763,-412.5"/>
</g>
<!-- Node3 -->
<g id="node3" class="node"><title>Node3</title>
<g id="a_node3"><a xlink:href="structtlz_1_1distortion__parameters.html#a96312c5d7baa4b7b1f2a76e9396037f8" target="_top" xlink:title="tlz::distortion_parameters\l::cv_coeffs">
<polygon fill="white" stroke="black" points="994,-380 994,-410 1121,-410 1121,-380 994,-380"/>
<text text-anchor="start" x="1002" y="-398" font-family="Helvetica,sans-Serif" font-size="10.00">tlz::distortion_parameters</text>
<text text-anchor="middle" x="1057.5" y="-387" font-family="Helvetica,sans-Serif" font-size="10.00">::cv_coeffs</text>
</a>
</g>
</g>
<!-- Node2&#45;&gt;Node3 -->
<g id="edge2" class="edge"><title>Node2&#45;&gt;Node3</title>
<path fill="none" stroke="midnightblue" d="M292.967,-424.019C348.542,-434.64 428.382,-447 499,-447 499,-447 499,-447 759.5,-447 848.365,-447 870.883,-440.536 958,-423 971.604,-420.262 986.069,-416.59 999.606,-412.809"/>
<polygon fill="midnightblue" stroke="midnightblue" points="1000.62,-416.16 1009.27,-410.048 998.696,-409.429 1000.62,-416.16"/>
</g>
<!-- Node4 -->
<g id="node4" class="node"><title>Node4</title>
<g id="a_node4"><a xlink:href="structtlz_1_1distortion__parameters.html#a307fee036b04519d633fb8456899850c" target="_top" xlink:title="tlz::distortion_parameters\l::is_none">
<polygon fill="white" stroke="black" points="994,-299 994,-329 1121,-329 1121,-299 994,-299"/>
<text text-anchor="start" x="1002" y="-317" font-family="Helvetica,sans-Serif" font-size="10.00">tlz::distortion_parameters</text>
<text text-anchor="middle" x="1057.5" y="-306" font-family="Helvetica,sans-Serif" font-size="10.00">::is_none</text>
</a>
</g>
</g>
<!-- Node2&#45;&gt;Node4 -->
<g id="edge3" class="edge"><title>Node2&#45;&gt;Node4</title>
<path fill="none" stroke="midnightblue" d="M293.047,-409C348.835,-409 428.922,-409 499,-409 499,-409 499,-409 759.5,-409 849.496,-409 873.586,-400.201 958,-369 981.682,-360.247 1006.49,-346.363 1025.28,-334.736"/>
<polygon fill="midnightblue" stroke="midnightblue" points="1027.4,-337.536 1034,-329.241 1023.67,-331.615 1027.4,-337.536"/>
</g>
<!-- Node5 -->
<g id="node5" class="node"><title>Node5</title>
<g id="a_node5"><a xlink:href="namespacetlz.html#ab01b1e8009a6b2ae9fe0fd559de7dd20" target="_top" xlink:title="tlz::distort_points">
<polygon fill="white" stroke="black" points="329,-304.5 329,-323.5 421,-323.5 421,-304.5 329,-304.5"/>
<text text-anchor="middle" x="375" y="-311.5" font-family="Helvetica,sans-Serif" font-size="10.00">tlz::distort_points</text>
</a>
</g>
</g>
<!-- Node2&#45;&gt;Node5 -->
<g id="edge4" class="edge"><title>Node2&#45;&gt;Node5</title>
<path fill="none" stroke="midnightblue" d="M246.926,-393.947C275.141,-376.196 321.762,-346.865 350.006,-329.095"/>
<polygon fill="midnightblue" stroke="midnightblue" points="351.884,-332.049 358.484,-323.762 348.156,-326.124 351.884,-332.049"/>
</g>
<!-- Node5&#45;&gt;Node4 -->
<g id="edge5" class="edge"><title>Node5&#45;&gt;Node4</title>
<path fill="none" stroke="midnightblue" d="M400.409,-323.541C444.187,-339.767 539.263,-371 622.5,-371 622.5,-371 622.5,-371 759.5,-371 843.751,-371 939.074,-348.604 998.487,-331.889"/>
<polygon fill="midnightblue" stroke="midnightblue" points="999.773,-335.162 1008.43,-329.051 997.851,-328.431 999.773,-335.162"/>
</g>
<!-- Node6 -->
<g id="node6" class="node"><title>Node6</title>
<g id="a_node6"><a xlink:href="namespacetlz.html#aa0b38daa346fbb57c8f6668de69ea2d1" target="_top" xlink:title="tlz::distort_point">
<polygon fill="white" stroke="black" points="457,-247.5 457,-266.5 543,-266.5 543,-247.5 457,-247.5"/>
<text text-anchor="middle" x="500" y="-254.5" font-family="Helvetica,sans-Serif" font-size="10.00">tlz::distort_point</text>
</a>
</g>
</g>
<!-- Node5&#45;&gt;Node6 -->
<g id="edge6" class="edge"><title>Node5&#45;&gt;Node6</title>
<path fill="none" stroke="midnightblue" d="M396.587,-304.459C416.454,-295.253 446.746,-281.215 469.237,-270.793"/>
<polygon fill="midnightblue" stroke="midnightblue" points="470.744,-273.952 478.345,-266.572 467.801,-267.601 470.744,-273.952"/>
</g>
<!-- Node6&#45;&gt;Node4 -->
<g id="edge7" class="edge"><title>Node6&#45;&gt;Node4</title>
<path fill="none" stroke="midnightblue" d="M532.563,-247.494C546.634,-243.73 563.501,-239.86 579,-238 618.274,-233.286 628.629,-234.185 668,-238 728.204,-243.833 889.288,-277.575 984.063,-298.089"/>
<polygon fill="midnightblue" stroke="midnightblue" points="983.354,-301.517 993.869,-300.215 984.838,-294.676 983.354,-301.517"/>
</g>
<!-- Node7 -->
<g id="node7" class="node"><title>Node7</title>
<g id="a_node7"><a xlink:href="structtlz_1_1intrinsics.html#acc9b666adbc970c279c56a4549cc90d5" target="_top" xlink:title="tlz::intrinsics::cx">
<polygon fill="white" stroke="black" points="579,-323.5 579,-342.5 668,-342.5 668,-323.5 579,-323.5"/>
<text text-anchor="middle" x="623.5" y="-330.5" font-family="Helvetica,sans-Serif" font-size="10.00">tlz::intrinsics::cx</text>
</a>
</g>
</g>
<!-- Node6&#45;&gt;Node7 -->
<g id="edge8" class="edge"><title>Node6&#45;&gt;Node7</title>
<path fill="none" stroke="midnightblue" d="M512.347,-266.532C527.064,-278.597 553.84,-299.546 579,-314 582.095,-315.778 585.388,-317.498 588.723,-319.129"/>
<polygon fill="midnightblue" stroke="midnightblue" points="587.56,-322.447 598.106,-323.464 590.496,-316.093 587.56,-322.447"/>
</g>
<!-- Node8 -->
<g id="node8" class="node"><title>Node8</title>
<g id="a_node8"><a xlink:href="structtlz_1_1intrinsics.html#ad5875d6c77076468aebce0d88ef61c20" target="_top" xlink:title="tlz::intrinsics::fx">
<polygon fill="white" stroke="black" points="580.5,-285.5 580.5,-304.5 666.5,-304.5 666.5,-285.5 580.5,-285.5"/>
<text text-anchor="middle" x="623.5" y="-292.5" font-family="Helvetica,sans-Serif" font-size="10.00">tlz::intrinsics::fx</text>
</a>
</g>
</g>
<!-- Node6&#45;&gt;Node8 -->
<g id="edge9" class="edge"><title>Node6&#45;&gt;Node8</title>
<path fill="none" stroke="midnightblue" d="M531.66,-266.589C546.912,-271.359 565.551,-277.189 581.967,-282.323"/>
<polygon fill="midnightblue" stroke="midnightblue" points="581.261,-285.769 591.85,-285.414 583.351,-279.089 581.261,-285.769"/>
</g>
<!-- Node9 -->
<g id="node9" class="node"><title>Node9</title>
<g id="a_node9"><a xlink:href="structtlz_1_1intrinsics.html#af7acb0b51e36fbb45d73bc10efef7d25" target="_top" xlink:title="tlz::intrinsics::cy">
<polygon fill="white" stroke="black" points="579,-171.5 579,-190.5 668,-190.5 668,-171.5 579,-171.5"/>
<text text-anchor="middle" x="623.5" y="-178.5" font-family="Helvetica,sans-Serif" font-size="10.00">tlz::intrinsics::cy</text>
</a>
</g>
</g>
<!-- Node6&#45;&gt;Node9 -->
<g id="edge10" class="edge"><title>Node6&#45;&gt;Node9</title>
<path fill="none" stroke="midnightblue" d="M507.761,-247.129C521.137,-233.805 552.018,-212.398 579,-196 579.092,-195.944 579.184,-195.888 579.277,-195.832"/>
<polygon fill="midnightblue" stroke="midnightblue" points="581.292,-198.708 588.151,-190.633 577.754,-192.668 581.292,-198.708"/>
</g>
<!-- Node29 -->
<g id="node29" class="node"><title>Node29</title>
<g id="a_node29"><a xlink:href="structtlz_1_1intrinsics.html#a52e02ae0e8bbea245fcced1c38964f29" target="_top" xlink:title="tlz::intrinsics::fy">
<polygon fill="white" stroke="black" points="580.5,-247.5 580.5,-266.5 666.5,-266.5 666.5,-247.5 580.5,-247.5"/>
<text text-anchor="middle" x="623.5" y="-254.5" font-family="Helvetica,sans-Serif" font-size="10.00">tlz::intrinsics::fy</text>
</a>
</g>
</g>
<!-- Node6&#45;&gt;Node29 -->
<g id="edge39" class="edge"><title>Node6&#45;&gt;Node29</title>
<path fill="none" stroke="midnightblue" d="M543.154,-257C551.918,-257 561.254,-257 570.33,-257"/>
<polygon fill="midnightblue" stroke="midnightblue" points="570.421,-260.5 580.421,-257 570.421,-253.5 570.421,-260.5"/>
</g>
<!-- Node9&#45;&gt;Node5 -->
<g id="edge25" class="edge"><title>Node9&#45;&gt;Node5</title>
<path fill="none" stroke="midnightblue" d="M579.199,-190.564C544.479,-199.457 495.385,-214.854 457,-238 430.462,-254.002 405.323,-279.863 390.284,-296.899"/>
<polygon fill="midnightblue" stroke="midnightblue" points="387.634,-294.613 383.751,-304.471 392.934,-299.186 387.634,-294.613"/>
</g>
<!-- Node9&#45;&gt;Node6 -->
<g id="edge24" class="edge"><title>Node9&#45;&gt;Node6</title>
<path fill="none" stroke="midnightblue" d="M615.917,-190.585C607.312,-197.919 591.825,-206.206 579,-214 564.168,-223.014 548.158,-233.541 534.525,-242.107"/>
<polygon fill="midnightblue" stroke="midnightblue" points="532.607,-239.177 525.946,-247.416 536.291,-245.13 532.607,-239.177"/>
</g>
<!-- Node10 -->
<g id="node10" class="node"><title>Node10</title>
<g id="a_node10"><a xlink:href="namespacetlz.html#a8cba4853d0d796a01c72f59f36f2a492" target="_top" xlink:title="tlz::decode_intrinsics">
<polygon fill="white" stroke="black" points="849,-76.5 849,-95.5 958,-95.5 958,-76.5 849,-76.5"/>
<text text-anchor="middle" x="903.5" y="-83.5" font-family="Helvetica,sans-Serif" font-size="10.00">tlz::decode_intrinsics</text>
</a>
</g>
</g>
<!-- Node9&#45;&gt;Node10 -->
<g id="edge11" class="edge"><title>Node9&#45;&gt;Node10</title>
<path fill="none" stroke="midnightblue" d="M631.05,-171.46C643.198,-154.648 671.011,-120.096 704,-105 745.991,-85.7849 798.114,-81.4355 838.411,-81.677"/>
<polygon fill="midnightblue" stroke="midnightblue" points="838.597,-85.1802 848.651,-81.8376 838.707,-78.1811 838.597,-85.1802"/>
</g>
<!-- Node14 -->
<g id="node14" class="node"><title>Node14</title>
<g id="a_node14"><a xlink:href="namespacetlz.html#a46c3e46d56bc36cf6b1236522563bc4a" target="_top" xlink:title="tlz::encode_intrinsics">
<polygon fill="white" stroke="black" points="704,-152.5 704,-171.5 813,-171.5 813,-152.5 704,-152.5"/>
<text text-anchor="middle" x="758.5" y="-159.5" font-family="Helvetica,sans-Serif" font-size="10.00">tlz::encode_intrinsics</text>
</a>
</g>
</g>
<!-- Node9&#45;&gt;Node14 -->
<g id="edge16" class="edge"><title>Node9&#45;&gt;Node14</title>
<path fill="none" stroke="midnightblue" d="M668.049,-174.779C676.217,-173.612 684.911,-172.37 693.548,-171.136"/>
<polygon fill="midnightblue" stroke="midnightblue" points="694.221,-174.575 703.625,-169.696 693.231,-167.646 694.221,-174.575"/>
</g>
<!-- Node17 -->
<g id="node17" class="node"><title>Node17</title>
<g id="a_node17"><a xlink:href="namespacetlz.html#a67f7411515a0538e3a39b9d0602ed854" target="_top" xlink:title="tlz::undistort_point">
<polygon fill="white" stroke="black" points="710,-190.5 710,-209.5 807,-209.5 807,-190.5 710,-190.5"/>
<text text-anchor="middle" x="758.5" y="-197.5" font-family="Helvetica,sans-Serif" font-size="10.00">tlz::undistort_point</text>
</a>
</g>
</g>
<!-- Node9&#45;&gt;Node17 -->
<g id="edge19" class="edge"><title>Node9&#45;&gt;Node17</title>
<path fill="none" stroke="midnightblue" d="M668.049,-187.221C678.153,-188.665 689.064,-190.223 699.674,-191.739"/>
<polygon fill="midnightblue" stroke="midnightblue" points="699.324,-195.225 709.719,-193.174 700.314,-188.295 699.324,-195.225"/>
</g>
<!-- Node18 -->
<g id="node18" class="node"><title>Node18</title>
<g id="a_node18"><a xlink:href="namespacetlz.html#a8b5e4acbb884887859e414ffe06a09f8" target="_top" xlink:title="tlz::undistort_points">
<polygon fill="white" stroke="black" points="852.5,-228.5 852.5,-247.5 954.5,-247.5 954.5,-228.5 852.5,-228.5"/>
<text text-anchor="middle" x="903.5" y="-235.5" font-family="Helvetica,sans-Serif" font-size="10.00">tlz::undistort_points</text>
</a>
</g>
</g>
<!-- Node9&#45;&gt;Node18 -->
<g id="edge23" class="edge"><title>Node9&#45;&gt;Node18</title>
<path fill="none" stroke="midnightblue" d="M642.532,-190.529C661.97,-200.635 691.765,-215.605 704,-219 749.264,-231.559 802.311,-236.143 842.174,-237.677"/>
<polygon fill="midnightblue" stroke="midnightblue" points="842.16,-241.178 852.271,-238.011 842.392,-234.182 842.16,-241.178"/>
</g>
<!-- Node19 -->
<g id="node19" class="node"><title>Node19</title>
<g id="a_node19"><a xlink:href="namespacetlz.html#a170805c7a8ede64a93e0ee23196e5b7c" target="_top" xlink:title="tlz::intrinsics_arg">
<polygon fill="white" stroke="black" points="713,-114.5 713,-133.5 804,-133.5 804,-114.5 713,-114.5"/>
<text text-anchor="middle" x="758.5" y="-121.5" font-family="Helvetica,sans-Serif" font-size="10.00">tlz::intrinsics_arg</text>
</a>
</g>
</g>
<!-- Node9&#45;&gt;Node19 -->
<g id="edge26" class="edge"><title>Node9&#45;&gt;Node19</title>
<path fill="none" stroke="midnightblue" d="M643.203,-171.376C659.156,-163.333 682.808,-151.8 704,-143 708.881,-140.973 714.065,-138.962 719.211,-137.048"/>
<polygon fill="midnightblue" stroke="midnightblue" points="720.76,-140.209 728.969,-133.511 718.375,-133.628 720.76,-140.209"/>
</g>
<!-- Node11 -->
<g id="node11" class="node"><title>Node11</title>
<g id="a_node11"><a xlink:href="namespacetlz.html#a066563a26e2de02f215b179f3d3a53da" target="_top" xlink:title="tlz::decode_mat">
<polygon fill="white" stroke="black" points="1014.5,-0.5 1014.5,-19.5 1100.5,-19.5 1100.5,-0.5 1014.5,-0.5"/>
<text text-anchor="middle" x="1057.5" y="-7.5" font-family="Helvetica,sans-Serif" font-size="10.00">tlz::decode_mat</text>
</a>
</g>
</g>
<!-- Node10&#45;&gt;Node11 -->
<g id="edge12" class="edge"><title>Node10&#45;&gt;Node11</title>
<path fill="none" stroke="midnightblue" d="M917.202,-76.3247C933.998,-63.9135 964.879,-42.3946 994,-29 998.958,-26.7193 1004.26,-24.6246 1009.6,-22.7266"/>
<polygon fill="midnightblue" stroke="midnightblue" points="1010.82,-26.0107 1019.2,-19.525 1008.6,-19.3706 1010.82,-26.0107"/>
</g>
<!-- Node12 -->
<g id="node12" class="node"><title>Node12</title>
<g id="a_node12"><a xlink:href="namespacetlz.html#a252af14b9b4ac6502d3e9c5dd8dc90b8" target="_top" xlink:title="tlz::has">
<polygon fill="white" stroke="black" points="1171,-38.5 1171,-57.5 1220,-57.5 1220,-38.5 1171,-38.5"/>
<text text-anchor="middle" x="1195.5" y="-45.5" font-family="Helvetica,sans-Serif" font-size="10.00">tlz::has</text>
</a>
</g>
</g>
<!-- Node10&#45;&gt;Node12 -->
<g id="edge13" class="edge"><title>Node10&#45;&gt;Node12</title>
<path fill="none" stroke="midnightblue" d="M958.2,-83.7602C1002.2,-81.3333 1065.97,-76.4613 1121,-67 1134.19,-64.7321 1148.49,-61.2731 1160.93,-57.9252"/>
<polygon fill="midnightblue" stroke="midnightblue" points="1162.18,-61.2106 1170.88,-55.1676 1160.31,-54.4647 1162.18,-61.2106"/>
</g>
<!-- Node13 -->
<g id="node13" class="node"><title>Node13</title>
<g id="a_node13"><a xlink:href="namespacetlz.html#add846dc50c32dfb356cb1a7ac11d37ac" target="_top" xlink:title="tlz::get_or">
<polygon fill="white" stroke="black" points="1027.5,-38.5 1027.5,-57.5 1087.5,-57.5 1087.5,-38.5 1027.5,-38.5"/>
<text text-anchor="middle" x="1057.5" y="-45.5" font-family="Helvetica,sans-Serif" font-size="10.00">tlz::get_or</text>
</a>
</g>
</g>
<!-- Node10&#45;&gt;Node13 -->
<g id="edge14" class="edge"><title>Node10&#45;&gt;Node13</title>
<path fill="none" stroke="midnightblue" d="M942.856,-76.411C965.686,-70.7036 994.578,-63.4804 1017.52,-57.7455"/>
<polygon fill="midnightblue" stroke="midnightblue" points="1018.42,-61.128 1027.27,-55.3071 1016.72,-54.337 1018.42,-61.128"/>
</g>
<!-- Node13&#45;&gt;Node12 -->
<g id="edge15" class="edge"><title>Node13&#45;&gt;Node12</title>
<path fill="none" stroke="midnightblue" d="M1087.68,-48C1109.1,-48 1138.26,-48 1160.7,-48"/>
<polygon fill="midnightblue" stroke="midnightblue" points="1160.8,-51.5001 1170.8,-48 1160.8,-44.5001 1160.8,-51.5001"/>
</g>
<!-- Node15 -->
<g id="node15" class="node"><title>Node15</title>
<g id="a_node15"><a xlink:href="namespacetlz.html#acf7ca4ee1b750cf31a40170bea887d46" target="_top" xlink:title="tlz::encode_mat">
<polygon fill="white" stroke="black" points="860.5,-171.5 860.5,-190.5 946.5,-190.5 946.5,-171.5 860.5,-171.5"/>
<text text-anchor="middle" x="903.5" y="-178.5" font-family="Helvetica,sans-Serif" font-size="10.00">tlz::encode_mat</text>
</a>
</g>
</g>
<!-- Node14&#45;&gt;Node15 -->
<g id="edge17" class="edge"><title>Node14&#45;&gt;Node15</title>
<path fill="none" stroke="midnightblue" d="M813.155,-169.129C825.29,-170.741 838.158,-172.451 850.235,-174.056"/>
<polygon fill="midnightblue" stroke="midnightblue" points="849.787,-177.527 860.161,-175.374 850.709,-170.588 849.787,-177.527"/>
</g>
<!-- Node16 -->
<g id="node16" class="node"><title>Node16</title>
<g id="a_node16"><a xlink:href="namespacetlz.html#a7b27ca69fad329b4a00aceee41d2962b" target="_top" xlink:title="tlz::encode_mat_">
<polygon fill="white" stroke="black" points="1011.5,-190.5 1011.5,-209.5 1103.5,-209.5 1103.5,-190.5 1011.5,-190.5"/>
<text text-anchor="middle" x="1057.5" y="-197.5" font-family="Helvetica,sans-Serif" font-size="10.00">tlz::encode_mat_</text>
</a>
</g>
</g>
<!-- Node15&#45;&gt;Node16 -->
<g id="edge18" class="edge"><title>Node15&#45;&gt;Node16</title>
<path fill="none" stroke="midnightblue" d="M946.84,-186.293C963.735,-188.404 983.41,-190.864 1001.39,-193.112"/>
<polygon fill="midnightblue" stroke="midnightblue" points="1001.11,-196.603 1011.47,-194.371 1001.98,-189.657 1001.11,-196.603"/>
</g>
<!-- Node17&#45;&gt;Node18 -->
<g id="edge20" class="edge"><title>Node17&#45;&gt;Node18</title>
<path fill="none" stroke="midnightblue" d="M795.585,-209.589C814.13,-214.517 836.926,-220.575 856.699,-225.829"/>
<polygon fill="midnightblue" stroke="midnightblue" points="855.863,-229.228 866.427,-228.414 857.661,-222.463 855.863,-229.228"/>
</g>
<!-- Node18&#45;&gt;Node3 -->
<g id="edge22" class="edge"><title>Node18&#45;&gt;Node3</title>
<path fill="none" stroke="midnightblue" d="M912.581,-247.666C927.915,-265.86 962.517,-306.221 994,-338 1005.92,-350.037 1019.8,-362.802 1031.44,-373.193"/>
<polygon fill="midnightblue" stroke="midnightblue" points="1029.28,-375.96 1039.09,-379.97 1033.92,-370.72 1029.28,-375.96"/>
</g>
<!-- Node18&#45;&gt;Node4 -->
<g id="edge21" class="edge"><title>Node18&#45;&gt;Node4</title>
<path fill="none" stroke="midnightblue" d="M926.773,-247.61C936.436,-251.877 947.843,-257.047 958,-262 978.816,-272.151 1001.71,-284.185 1020.19,-294.119"/>
<polygon fill="midnightblue" stroke="midnightblue" points="1018.68,-297.282 1029.14,-298.955 1022.01,-291.123 1018.68,-297.282"/>
</g>
<!-- Node19&#45;&gt;Node10 -->
<g id="edge27" class="edge"><title>Node19&#45;&gt;Node10</title>
<path fill="none" stroke="midnightblue" d="M795.585,-114.411C814.13,-109.483 836.926,-103.425 856.699,-98.1709"/>
<polygon fill="midnightblue" stroke="midnightblue" points="857.661,-101.537 866.427,-95.5859 855.863,-94.7716 857.661,-101.537"/>
</g>
<!-- Node20 -->
<g id="node20" class="node"><title>Node20</title>
<g id="a_node20"><a xlink:href="namespacetlz.html#a35f9e03fa4fd9cec699f5fa27962400f" target="_top" xlink:title="tlz::json_arg">
<polygon fill="white" stroke="black" points="868.5,-114.5 868.5,-133.5 938.5,-133.5 938.5,-114.5 868.5,-114.5"/>
<text text-anchor="middle" x="903.5" y="-121.5" font-family="Helvetica,sans-Serif" font-size="10.00">tlz::json_arg</text>
</a>
</g>
</g>
<!-- Node19&#45;&gt;Node20 -->
<g id="edge28" class="edge"><title>Node19&#45;&gt;Node20</title>
<path fill="none" stroke="midnightblue" d="M804.354,-124C821.447,-124 840.911,-124 857.974,-124"/>
<polygon fill="midnightblue" stroke="midnightblue" points="858.245,-127.5 868.245,-124 858.245,-120.5 858.245,-127.5"/>
</g>
<!-- Node21 -->
<g id="node21" class="node"><title>Node21</title>
<g id="a_node21"><a xlink:href="namespacetlz.html#aa1be9362f548fcf9378e1fc9074089c4" target="_top" xlink:title="tlz::import_json_file">
<polygon fill="white" stroke="black" points="1007,-152.5 1007,-171.5 1108,-171.5 1108,-152.5 1007,-152.5"/>
<text text-anchor="middle" x="1057.5" y="-159.5" font-family="Helvetica,sans-Serif" font-size="10.00">tlz::import_json_file</text>
</a>
</g>
</g>
<!-- Node20&#45;&gt;Node21 -->
<g id="edge29" class="edge"><title>Node20&#45;&gt;Node21</title>
<path fill="none" stroke="midnightblue" d="M938.612,-132.528C959.274,-137.694 985.944,-144.361 1008.69,-150.047"/>
<polygon fill="midnightblue" stroke="midnightblue" points="1007.95,-153.469 1018.5,-152.499 1009.64,-146.678 1007.95,-153.469"/>
</g>
<!-- Node22 -->
<g id="node22" class="node"><title>Node22</title>
<g id="a_node22"><a xlink:href="namespacetlz.html#a634de7ca11e100e4a118dffe80376a75" target="_top" xlink:title="tlz::in_filename_arg">
<polygon fill="white" stroke="black" points="1007,-114.5 1007,-133.5 1108,-133.5 1108,-114.5 1007,-114.5"/>
<text text-anchor="middle" x="1057.5" y="-121.5" font-family="Helvetica,sans-Serif" font-size="10.00">tlz::in_filename_arg</text>
</a>
</g>
</g>
<!-- Node20&#45;&gt;Node22 -->
<g id="edge30" class="edge"><title>Node20&#45;&gt;Node22</title>
<path fill="none" stroke="midnightblue" d="M938.612,-124C955.755,-124 977.034,-124 996.775,-124"/>
<polygon fill="midnightblue" stroke="midnightblue" points="996.928,-127.5 1006.93,-124 996.928,-120.5 996.928,-127.5"/>
</g>
<!-- Node23 -->
<g id="node23" class="node"><title>Node23</title>
<g id="a_node23"><a xlink:href="namespacetlz.html#a0621d598fb83b13bf028f3e6293d04f8" target="_top" xlink:title="tlz::string_arg">
<polygon fill="white" stroke="black" points="1157.5,-114.5 1157.5,-133.5 1233.5,-133.5 1233.5,-114.5 1157.5,-114.5"/>
<text text-anchor="middle" x="1195.5" y="-121.5" font-family="Helvetica,sans-Serif" font-size="10.00">tlz::string_arg</text>
</a>
</g>
</g>
<!-- Node22&#45;&gt;Node23 -->
<g id="edge31" class="edge"><title>Node22&#45;&gt;Node23</title>
<path fill="none" stroke="midnightblue" d="M1108.37,-124C1121.04,-124 1134.62,-124 1147.17,-124"/>
<polygon fill="midnightblue" stroke="midnightblue" points="1147.42,-127.5 1157.42,-124 1147.42,-120.5 1147.42,-127.5"/>
</g>
<!-- Node24 -->
<g id="node24" class="node"><title>Node24</title>
<g id="a_node24"><a xlink:href="namespacetlz.html#a780431daab8d2595372eacb43143b52d" target="_top" xlink:title="tlz::args">
<polygon fill="white" stroke="black" points="1300.5,-152.5 1300.5,-171.5 1352.5,-171.5 1352.5,-152.5 1300.5,-152.5"/>
<text text-anchor="middle" x="1326.5" y="-159.5" font-family="Helvetica,sans-Serif" font-size="10.00">tlz::args</text>
</a>
</g>
</g>
<!-- Node22&#45;&gt;Node24 -->
<g id="edge37" class="edge"><title>Node22&#45;&gt;Node24</title>
<path fill="none" stroke="midnightblue" d="M1103.98,-133.543C1120.61,-136.83 1139.61,-140.347 1157,-143 1202.89,-150.002 1256.18,-155.587 1290.34,-158.844"/>
<polygon fill="midnightblue" stroke="midnightblue" points="1290.01,-162.329 1300.3,-159.779 1290.67,-155.359 1290.01,-162.329"/>
</g>
<!-- Node26 -->
<g id="node26" class="node"><title>Node26</title>
<g id="a_node26"><a xlink:href="classtlz_1_1args__list.html#a38ad21acd64a4af98ffdf4a47837cdbe" target="_top" xlink:title="tlz::args_list::usage_fail">
<polygon fill="white" stroke="black" points="1419,-76.5 1419,-95.5 1539,-95.5 1539,-76.5 1419,-76.5"/>
<text text-anchor="middle" x="1479" y="-83.5" font-family="Helvetica,sans-Serif" font-size="10.00">tlz::args_list::usage_fail</text>
</a>
</g>
</g>
<!-- Node22&#45;&gt;Node26 -->
<g id="edge38" class="edge"><title>Node22&#45;&gt;Node26</title>
<path fill="none" stroke="midnightblue" d="M1101.46,-114.442C1118.65,-110.951 1138.68,-107.299 1157,-105 1243.36,-94.1625 1343.59,-89.4783 1408.77,-87.4721"/>
<polygon fill="midnightblue" stroke="midnightblue" points="1409.03,-90.9661 1418.92,-87.1726 1408.82,-83.9692 1409.03,-90.9661"/>
</g>
<!-- Node28 -->
<g id="node28" class="node"><title>Node28</title>
<g id="a_node28"><a xlink:href="namespacetlz.html#abb019466ea9f56c0dab27e893d891837" target="_top" xlink:title="tlz::file_exists">
<polygon fill="white" stroke="black" points="1157,-190.5 1157,-209.5 1234,-209.5 1234,-190.5 1157,-190.5"/>
<text text-anchor="middle" x="1195.5" y="-197.5" font-family="Helvetica,sans-Serif" font-size="10.00">tlz::file_exists</text>
</a>
</g>
</g>
<!-- Node22&#45;&gt;Node28 -->
<g id="edge36" class="edge"><title>Node22&#45;&gt;Node28</title>
<path fill="none" stroke="midnightblue" d="M1099.28,-133.507C1106.75,-136.046 1114.3,-139.178 1121,-143 1139.85,-153.757 1139.8,-162.767 1157,-176 1160.93,-179.022 1165.24,-182.036 1169.5,-184.856"/>
<polygon fill="midnightblue" stroke="midnightblue" points="1167.72,-187.869 1178.03,-190.313 1171.49,-181.974 1167.72,-187.869"/>
</g>
<!-- Node23&#45;&gt;Node24 -->
<g id="edge32" class="edge"><title>Node23&#45;&gt;Node24</title>
<path fill="none" stroke="midnightblue" d="M1229.05,-133.589C1247.78,-139.106 1271.31,-146.038 1290.45,-151.674"/>
<polygon fill="midnightblue" stroke="midnightblue" points="1289.7,-155.103 1300.28,-154.572 1291.68,-148.389 1289.7,-155.103"/>
</g>
<!-- Node25 -->
<g id="node25" class="node"><title>Node25</title>
<g id="a_node25"><a xlink:href="classtlz_1_1args__list.html#a73d99bc75998dc14607a3a372d28dc6d" target="_top" xlink:title="tlz::args_list::next_arg">
<polygon fill="white" stroke="black" points="1270,-114.5 1270,-133.5 1383,-133.5 1383,-114.5 1270,-114.5"/>
<text text-anchor="middle" x="1326.5" y="-121.5" font-family="Helvetica,sans-Serif" font-size="10.00">tlz::args_list::next_arg</text>
</a>
</g>
</g>
<!-- Node23&#45;&gt;Node25 -->
<g id="edge33" class="edge"><title>Node23&#45;&gt;Node25</title>
<path fill="none" stroke="midnightblue" d="M1233.81,-124C1241.83,-124 1250.54,-124 1259.3,-124"/>
<polygon fill="midnightblue" stroke="midnightblue" points="1259.55,-127.5 1269.55,-124 1259.55,-120.5 1259.55,-127.5"/>
</g>
<!-- Node25&#45;&gt;Node26 -->
<g id="edge34" class="edge"><title>Node25&#45;&gt;Node26</title>
<path fill="none" stroke="midnightblue" d="M1365.48,-114.411C1385.16,-109.442 1409.39,-103.323 1430.32,-98.0387"/>
<polygon fill="midnightblue" stroke="midnightblue" points="1431.46,-101.362 1440.3,-95.5201 1429.74,-94.5747 1431.46,-101.362"/>
</g>
<!-- Node27 -->
<g id="node27" class="node"><title>Node27</title>
<g id="a_node27"><a xlink:href="namespacetlz.html#a8e4f8c8c2927bc4350de13bfa0f8f9e1" target="_top" xlink:title="tlz::to_string">
<polygon fill="white" stroke="black" points="1443.5,-114.5 1443.5,-133.5 1514.5,-133.5 1514.5,-114.5 1443.5,-114.5"/>
<text text-anchor="middle" x="1479" y="-121.5" font-family="Helvetica,sans-Serif" font-size="10.00">tlz::to_string</text>
</a>
</g>
</g>
<!-- Node25&#45;&gt;Node27 -->
<g id="edge35" class="edge"><title>Node25&#45;&gt;Node27</title>
<path fill="none" stroke="midnightblue" d="M1383.11,-124C1399.44,-124 1417.1,-124 1432.7,-124"/>
<polygon fill="midnightblue" stroke="midnightblue" points="1433.13,-127.5 1443.13,-124 1433.13,-120.5 1433.13,-127.5"/>
</g>
</g>
</svg>
