<?xml version="1.0" encoding="UTF-8" standalone="no"?>
<!DOCTYPE svg PUBLIC "-//W3C//DTD SVG 1.1//EN"
 "http://www.w3.org/Graphics/SVG/1.1/DTD/svg11.dtd">
<!-- Generated by graphviz version 2.38.0 (20140413.2041)
 -->
<!-- Title: tlz::dataset::view Pages: 1 -->
<svg width="536pt" height="132pt"
 viewBox="0.00 0.00 536.00 132.00" xmlns="http://www.w3.org/2000/svg" xmlns:xlink="http://www.w3.org/1999/xlink">
<g id="graph0" class="graph" transform="scale(1 1) rotate(0) translate(4 128)">
<title>tlz::dataset::view</title>
<polygon fill="white" stroke="none" points="-4,4 -4,-128 532,-128 532,4 -4,4"/>
<!-- Node1 -->
<g id="node1" class="node"><title>Node1</title>
<polygon fill="#bfbfbf" stroke="black" points="0,-82.5 0,-101.5 92,-101.5 92,-82.5 0,-82.5"/>
<text text-anchor="middle" x="46" y="-89.5" font-family="Helvetica,sans-Serif" font-size="10.00">tlz::dataset::view</text>
</g>
<!-- Node2 -->
<g id="node2" class="node"><title>Node2</title>
<g id="a_node2"><a xlink:href="structtlz_1_1view__index.html#a20518c30015d833cdb2a69b524886b96" target="_top" xlink:title="tlz::view_index::is_2d">
<polygon fill="white" stroke="black" points="128,-104.5 128,-123.5 239,-123.5 239,-104.5 128,-104.5"/>
<text text-anchor="middle" x="183.5" y="-111.5" font-family="Helvetica,sans-Serif" font-size="10.00">tlz::view_index::is_2d</text>
</a>
</g>
</g>
<!-- Node1&#45;&gt;Node2 -->
<g id="edge1" class="edge"><title>Node1&#45;&gt;Node2</title>
<path fill="none" stroke="midnightblue" d="M92.1195,-99.3257C100.309,-100.655 108.997,-102.066 117.622,-103.466"/>
<polygon fill="midnightblue" stroke="midnightblue" points="117.254,-106.952 127.686,-105.1 118.376,-100.043 117.254,-106.952"/>
</g>
<!-- Node3 -->
<g id="node3" class="node"><title>Node3</title>
<g id="a_node3"><a xlink:href="classtlz_1_1dataset__group.html#aa0c9157fd56b01adebcecdcdd98f9e3f" target="_top" xlink:title="tlz::dataset_group\l::view">
<polygon fill="white" stroke="black" points="136,-55 136,-85 231,-85 231,-55 136,-55"/>
<text text-anchor="start" x="144" y="-73" font-family="Helvetica,sans-Serif" font-size="10.00">tlz::dataset_group</text>
<text text-anchor="middle" x="183.5" y="-62" font-family="Helvetica,sans-Serif" font-size="10.00">::view</text>
</a>
</g>
</g>
<!-- Node1&#45;&gt;Node3 -->
<g id="edge2" class="edge"><title>Node1&#45;&gt;Node3</title>
<path fill="none" stroke="midnightblue" d="M92.1195,-84.6743C102.847,-82.9326 114.43,-81.052 125.608,-79.2371"/>
<polygon fill="midnightblue" stroke="midnightblue" points="126.414,-82.6522 135.723,-77.5947 125.292,-75.7427 126.414,-82.6522"/>
</g>
<!-- Node4 -->
<g id="node4" class="node"><title>Node4</title>
<g id="a_node4"><a xlink:href="classtlz_1_1dataset.html#acbdb309b8dd22f687fff41f6e9ac6ed4" target="_top" xlink:title="tlz::dataset::view">
<polygon fill="white" stroke="black" points="277.5,-82.5 277.5,-101.5 369.5,-101.5 369.5,-82.5 277.5,-82.5"/>
<text text-anchor="middle" x="323.5" y="-89.5" font-family="Helvetica,sans-Serif" font-size="10.00">tlz::dataset::view</text>
</a>
</g>
</g>
<!-- Node3&#45;&gt;Node4 -->
<g id="edge3" class="edge"><title>Node3&#45;&gt;Node4</title>
<path fill="none" stroke="midnightblue" d="M231.221,-77.4482C242.827,-79.2986 255.376,-81.2991 267.346,-83.2073"/>
<polygon fill="midnightblue" stroke="midnightblue" points="266.804,-86.665 277.23,-84.783 267.906,-79.7523 266.804,-86.665"/>
</g>
<!-- Node5 -->
<g id="node5" class="node"><title>Node5</title>
<g id="a_node5"><a xlink:href="classtlz_1_1dataset__view.html#a1ec7ba844d313cddc558874fe85246a8" target="_top" xlink:title="tlz::dataset_view::\lgroup_view">
<polygon fill="white" stroke="black" points="275,-33 275,-63 372,-63 372,-33 275,-33"/>
<text text-anchor="start" x="283" y="-51" font-family="Helvetica,sans-Serif" font-size="10.00">tlz::dataset_view::</text>
<text text-anchor="middle" x="323.5" y="-40" font-family="Helvetica,sans-Serif" font-size="10.00">group_view</text>
</a>
</g>
</g>
<!-- Node3&#45;&gt;Node5 -->
<g id="edge4" class="edge"><title>Node3&#45;&gt;Node5</title>
<path fill="none" stroke="midnightblue" d="M231.221,-62.5518C241.996,-60.8339 253.585,-58.9865 264.767,-57.2038"/>
<polygon fill="midnightblue" stroke="midnightblue" points="265.563,-60.6212 274.887,-55.5904 264.461,-53.7085 265.563,-60.6212"/>
</g>
<!-- Node6 -->
<g id="node6" class="node"><title>Node6</title>
<g id="a_node6"><a xlink:href="classtlz_1_1dataset__view.html#a31a73cf70078f270c9045bc0babadee2" target="_top" xlink:title="tlz::dataset_view::\ldataset_view">
<polygon fill="white" stroke="black" points="419.5,-77 419.5,-107 516.5,-107 516.5,-77 419.5,-77"/>
<text text-anchor="start" x="427.5" y="-95" font-family="Helvetica,sans-Serif" font-size="10.00">tlz::dataset_view::</text>
<text text-anchor="middle" x="468" y="-84" font-family="Helvetica,sans-Serif" font-size="10.00">dataset_view</text>
</a>
</g>
</g>
<!-- Node5&#45;&gt;Node6 -->
<g id="edge5" class="edge"><title>Node5&#45;&gt;Node6</title>
<path fill="none" stroke="midnightblue" d="M372.347,-62.7738C384.214,-66.4379 397.055,-70.4028 409.336,-74.1951"/>
<polygon fill="midnightblue" stroke="midnightblue" points="408.449,-77.5842 419.037,-77.1903 410.515,-70.8958 408.449,-77.5842"/>
</g>
<!-- Node7 -->
<g id="node7" class="node"><title>Node7</title>
<g id="a_node7"><a xlink:href="namespacetlz.html#a252af14b9b4ac6502d3e9c5dd8dc90b8" target="_top" xlink:title="tlz::has">
<polygon fill="white" stroke="black" points="443.5,-38.5 443.5,-57.5 492.5,-57.5 492.5,-38.5 443.5,-38.5"/>
<text text-anchor="middle" x="468" y="-45.5" font-family="Helvetica,sans-Serif" font-size="10.00">tlz::has</text>
</a>
</g>
</g>
<!-- Node5&#45;&gt;Node7 -->
<g id="edge6" class="edge"><title>Node5&#45;&gt;Node7</title>
<path fill="none" stroke="midnightblue" d="M372.347,-48C392.353,-48 415.129,-48 433.325,-48"/>
<polygon fill="midnightblue" stroke="midnightblue" points="433.454,-51.5001 443.454,-48 433.454,-44.5001 433.454,-51.5001"/>
</g>
<!-- Node8 -->
<g id="node8" class="node"><title>Node8</title>
<g id="a_node8"><a xlink:href="classtlz_1_1dataset.html#ab14f5b1f18c0ab423c18270b7ca46bd2" target="_top" xlink:title="tlz::dataset::parameters">
<polygon fill="white" stroke="black" points="408,-0.5 408,-19.5 528,-19.5 528,-0.5 408,-0.5"/>
<text text-anchor="middle" x="468" y="-7.5" font-family="Helvetica,sans-Serif" font-size="10.00">tlz::dataset::parameters</text>
</a>
</g>
</g>
<!-- Node5&#45;&gt;Node8 -->
<g id="edge7" class="edge"><title>Node5&#45;&gt;Node8</title>
<path fill="none" stroke="midnightblue" d="M372.347,-35.2408C388.133,-31.0313 405.642,-26.362 421.266,-22.1957"/>
<polygon fill="midnightblue" stroke="midnightblue" points="422.463,-25.4989 431.224,-19.5403 420.66,-18.7352 422.463,-25.4989"/>
</g>
</g>
</svg>
