<?xml version="1.0" encoding="UTF-8" standalone="no"?>
<!DOCTYPE svg PUBLIC "-//W3C//DTD SVG 1.1//EN"
 "http://www.w3.org/Graphics/SVG/1.1/DTD/svg11.dtd">
<!-- Generated by graphviz version 2.38.0 (20140413.2041)
 -->
<!-- Title: main Pages: 1 -->
<svg width="932pt" height="941pt"
 viewBox="0.00 0.00 932.00 941.00" xmlns="http://www.w3.org/2000/svg" xmlns:xlink="http://www.w3.org/1999/xlink">
<g id="graph0" class="graph" transform="scale(1 1) rotate(0) translate(4 937)">
<title>main</title>
<polygon fill="white" stroke="none" points="-4,4 -4,-937 928,-937 928,4 -4,4"/>
<!-- Node1 -->
<g id="node1" class="node"><title>Node1</title>
<polygon fill="#bfbfbf" stroke="black" points="0,-398.5 0,-417.5 38,-417.5 38,-398.5 0,-398.5"/>
<text text-anchor="middle" x="19" y="-405.5" font-family="Helvetica,sans-Serif" font-size="10.00">main</text>
</g>
<!-- Node2 -->
<g id="node2" class="node"><title>Node2</title>
<g id="a_node2"><a xlink:href="namespacetlz.html#a3c03f5d9d6261ec2909938822fc47f8a" target="_top" xlink:title="tlz::get_args">
<polygon fill="white" stroke="black" points="113.5,-913.5 113.5,-932.5 184.5,-932.5 184.5,-913.5 113.5,-913.5"/>
<text text-anchor="middle" x="149" y="-920.5" font-family="Helvetica,sans-Serif" font-size="10.00">tlz::get_args</text>
</a>
</g>
</g>
<!-- Node1&#45;&gt;Node2 -->
<g id="edge1" class="edge"><title>Node1&#45;&gt;Node2</title>
<path fill="none" stroke="midnightblue" d="M20.4456,-417.812C23.5189,-483.692 42.3917,-860.18 74,-899 81.3871,-908.073 92.248,-913.753 103.386,-917.299"/>
<polygon fill="midnightblue" stroke="midnightblue" points="102.601,-920.711 113.165,-919.896 104.398,-913.946 102.601,-920.711"/>
</g>
<!-- Node3 -->
<g id="node3" class="node"><title>Node3</title>
<g id="a_node3"><a xlink:href="namespacetlz.html#af0d1e8ba5b9f2dbc2b589afab3a21fc8" target="_top" xlink:title="tlz::int_arg">
<polygon fill="white" stroke="black" points="549.5,-875.5 549.5,-894.5 611.5,-894.5 611.5,-875.5 549.5,-875.5"/>
<text text-anchor="middle" x="580.5" y="-882.5" font-family="Helvetica,sans-Serif" font-size="10.00">tlz::int_arg</text>
</a>
</g>
</g>
<!-- Node1&#45;&gt;Node3 -->
<g id="edge2" class="edge"><title>Node1&#45;&gt;Node3</title>
<path fill="none" stroke="midnightblue" d="M20.2483,-417.687C21.7288,-468.445 30.8564,-703.513 74,-759 187.159,-904.532 440.568,-898.196 539.165,-889.568"/>
<polygon fill="midnightblue" stroke="midnightblue" points="539.68,-893.035 549.312,-888.623 539.031,-886.065 539.68,-893.035"/>
</g>
<!-- Node7 -->
<g id="node7" class="node"><title>Node7</title>
<g id="a_node7"><a xlink:href="namespacetlz.html#a8e4f8c8c2927bc4350de13bfa0f8f9e1" target="_top" xlink:title="tlz::to_string">
<polygon fill="white" stroke="black" points="828.5,-685.5 828.5,-704.5 899.5,-704.5 899.5,-685.5 828.5,-685.5"/>
<text text-anchor="middle" x="864" y="-692.5" font-family="Helvetica,sans-Serif" font-size="10.00">tlz::to_string</text>
</a>
</g>
</g>
<!-- Node1&#45;&gt;Node7 -->
<g id="edge48" class="edge"><title>Node1&#45;&gt;Node7</title>
<path fill="none" stroke="midnightblue" d="M20.9535,-417.54C24.9301,-455.214 41.5201,-592.866 74,-619 97.6041,-637.992 588.968,-634.007 619,-638 691.063,-647.58 773.018,-668.942 821.242,-682.622"/>
<polygon fill="midnightblue" stroke="midnightblue" points="820.428,-686.029 831.005,-685.417 822.355,-679.299 820.428,-686.029"/>
</g>
<!-- Node8 -->
<g id="node8" class="node"><title>Node8</title>
<g id="a_node8"><a xlink:href="namespacetlz.html#a63246890b0c946b5f62a1d3e2bea6103" target="_top" xlink:title="tlz::real_arg">
<polygon fill="white" stroke="black" points="546.5,-837.5 546.5,-856.5 614.5,-856.5 614.5,-837.5 546.5,-837.5"/>
<text text-anchor="middle" x="580.5" y="-844.5" font-family="Helvetica,sans-Serif" font-size="10.00">tlz::real_arg</text>
</a>
</g>
</g>
<!-- Node1&#45;&gt;Node8 -->
<g id="edge8" class="edge"><title>Node1&#45;&gt;Node8</title>
<path fill="none" stroke="midnightblue" d="M20.5974,-417.662C23.5526,-462.597 37.9383,-650.808 74,-695 190.675,-837.979 436.578,-850.071 536.21,-848.721"/>
<polygon fill="midnightblue" stroke="midnightblue" points="536.293,-852.221 546.226,-848.533 536.162,-845.222 536.293,-852.221"/>
</g>
<!-- Node9 -->
<g id="node9" class="node"><title>Node9</title>
<g id="a_node9"><a xlink:href="namespacetlz.html#a170805c7a8ede64a93e0ee23196e5b7c" target="_top" xlink:title="tlz::intrinsics_arg">
<polygon fill="white" stroke="black" points="103.5,-666.5 103.5,-685.5 194.5,-685.5 194.5,-666.5 103.5,-666.5"/>
<text text-anchor="middle" x="149" y="-673.5" font-family="Helvetica,sans-Serif" font-size="10.00">tlz::intrinsics_arg</text>
</a>
</g>
</g>
<!-- Node1&#45;&gt;Node9 -->
<g id="edge12" class="edge"><title>Node1&#45;&gt;Node9</title>
<path fill="none" stroke="midnightblue" d="M20.8647,-417.606C24.7137,-458.331 41.5437,-616.275 74,-652 79.4278,-657.975 86.3545,-662.468 93.7845,-665.845"/>
<polygon fill="midnightblue" stroke="midnightblue" points="92.8004,-669.217 103.39,-669.554 95.3221,-662.687 92.8004,-669.217"/>
</g>
<!-- Node19 -->
<g id="node19" class="node"><title>Node19</title>
<g id="a_node19"><a xlink:href="classtlz_1_1viewer.html#a2bf9d63d7a1a5ec4d5bdabc13d9ab688" target="_top" xlink:title="tlz::viewer::add_int\l_slider">
<polygon fill="white" stroke="black" points="99.5,-579 99.5,-609 198.5,-609 198.5,-579 99.5,-579"/>
<text text-anchor="start" x="107.5" y="-597" font-family="Helvetica,sans-Serif" font-size="10.00">tlz::viewer::add_int</text>
<text text-anchor="middle" x="149" y="-586" font-family="Helvetica,sans-Serif" font-size="10.00">_slider</text>
</a>
</g>
</g>
<!-- Node1&#45;&gt;Node19 -->
<g id="edge27" class="edge"><title>Node1&#45;&gt;Node19</title>
<path fill="none" stroke="midnightblue" d="M20.3912,-417.877C22.0272,-445.675 30.478,-525.383 74,-569 78.5886,-573.599 84.0512,-577.352 89.9001,-580.414"/>
<polygon fill="midnightblue" stroke="midnightblue" points="88.7851,-583.751 99.339,-584.682 91.6688,-577.373 88.7851,-583.751"/>
</g>
<!-- Node20 -->
<g id="node20" class="node"><title>Node20</title>
<g id="a_node20"><a xlink:href="classtlz_1_1grabber.html#a14d256bd7ef0af5be70f2bd7713a7e54" target="_top" xlink:title="tlz::grabber::grab">
<polygon fill="white" stroke="black" points="104,-540.5 104,-559.5 194,-559.5 194,-540.5 104,-540.5"/>
<text text-anchor="middle" x="149" y="-547.5" font-family="Helvetica,sans-Serif" font-size="10.00">tlz::grabber::grab</text>
</a>
</g>
</g>
<!-- Node1&#45;&gt;Node20 -->
<g id="edge28" class="edge"><title>Node1&#45;&gt;Node20</title>
<path fill="none" stroke="midnightblue" d="M21.3458,-417.692C25.1052,-440.966 37.9193,-500.349 74,-531 79.7683,-535.9 86.6417,-539.56 93.841,-542.289"/>
<polygon fill="midnightblue" stroke="midnightblue" points="93.1963,-545.757 103.787,-545.462 95.3239,-539.088 93.1963,-545.757"/>
</g>
<!-- Node21 -->
<g id="node21" class="node"><title>Node21</title>
<g id="a_node21"><a xlink:href="classtlz_1_1viewer.html#a0ad9ee28b8127c63b2886b04fb36e3dc" target="_top" xlink:title="tlz::viewer::clear">
<polygon fill="white" stroke="black" points="104.5,-502.5 104.5,-521.5 193.5,-521.5 193.5,-502.5 104.5,-502.5"/>
<text text-anchor="middle" x="149" y="-509.5" font-family="Helvetica,sans-Serif" font-size="10.00">tlz::viewer::clear</text>
</a>
</g>
</g>
<!-- Node1&#45;&gt;Node21 -->
<g id="edge29" class="edge"><title>Node1&#45;&gt;Node21</title>
<path fill="none" stroke="midnightblue" d="M23.3447,-417.583C30.0443,-435.326 46.8386,-473.276 74,-493 80.1243,-497.447 87.195,-500.856 94.486,-503.468"/>
<polygon fill="midnightblue" stroke="midnightblue" points="93.9091,-506.953 104.497,-506.559 95.9743,-500.265 93.9091,-506.953"/>
</g>
<!-- Node24 -->
<g id="node24" class="node"><title>Node24</title>
<g id="a_node24"><a xlink:href="classtlz_1_1grabber.html#a64e9af7d0c0e982539c7465f4c8c2755" target="_top" xlink:title="tlz::grabber::get_color\l_frame">
<polygon fill="white" stroke="black" points="93.5,-415 93.5,-445 204.5,-445 204.5,-415 93.5,-415"/>
<text text-anchor="start" x="101.5" y="-433" font-family="Helvetica,sans-Serif" font-size="10.00">tlz::grabber::get_color</text>
<text text-anchor="middle" x="149" y="-422" font-family="Helvetica,sans-Serif" font-size="10.00">_frame</text>
</a>
</g>
</g>
<!-- Node1&#45;&gt;Node24 -->
<g id="edge32" class="edge"><title>Node1&#45;&gt;Node24</title>
<path fill="none" stroke="midnightblue" d="M38.0678,-411.105C50.0521,-413.165 66.5781,-416.006 83.1778,-418.859"/>
<polygon fill="midnightblue" stroke="midnightblue" points="83.0346,-422.385 93.483,-420.63 84.2204,-415.486 83.0346,-422.385"/>
</g>
<!-- Node25 -->
<g id="node25" class="node"><title>Node25</title>
<g id="a_node25"><a xlink:href="namespacetlz.html#addbb2acf9d24eda4bf25536c55ae84d8" target="_top" xlink:title="tlz::detect_color_checkerboard">
<polygon fill="white" stroke="black" points="74,-376.5 74,-395.5 224,-395.5 224,-376.5 74,-376.5"/>
<text text-anchor="middle" x="149" y="-383.5" font-family="Helvetica,sans-Serif" font-size="10.00">tlz::detect_color_checkerboard</text>
</a>
</g>
</g>
<!-- Node1&#45;&gt;Node25 -->
<g id="edge33" class="edge"><title>Node1&#45;&gt;Node25</title>
<path fill="none" stroke="midnightblue" d="M38.0678,-404.895C49.8809,-402.864 66.1068,-400.075 82.4664,-397.264"/>
<polygon fill="midnightblue" stroke="midnightblue" points="83.369,-400.66 92.6316,-395.516 82.1832,-393.761 83.369,-400.66"/>
</g>
<!-- Node27 -->
<g id="node27" class="node"><title>Node27</title>
<g id="a_node27"><a xlink:href="namespacetlz.html#a6693dca816d6f48429d1c607ced26f3b" target="_top" xlink:title="tlz::checkerboard_image\l_corners">
<polygon fill="white" stroke="black" points="87.5,-327 87.5,-357 210.5,-357 210.5,-327 87.5,-327"/>
<text text-anchor="start" x="95.5" y="-345" font-family="Helvetica,sans-Serif" font-size="10.00">tlz::checkerboard_image</text>
<text text-anchor="middle" x="149" y="-334" font-family="Helvetica,sans-Serif" font-size="10.00">_corners</text>
</a>
</g>
</g>
<!-- Node1&#45;&gt;Node27 -->
<g id="edge35" class="edge"><title>Node1&#45;&gt;Node27</title>
<path fill="none" stroke="midnightblue" d="M30.458,-398.406C40.8505,-389.289 57.5692,-375.713 74,-367 78.0171,-364.87 82.2515,-362.869 86.5772,-360.999"/>
<polygon fill="midnightblue" stroke="midnightblue" points="88.193,-364.121 96.1442,-357.119 85.5619,-357.634 88.193,-364.121"/>
</g>
<!-- Node28 -->
<g id="node28" class="node"><title>Node28</title>
<g id="a_node28"><a xlink:href="namespacetlz.html#acc37da60bde41595da4139110c2d36e6" target="_top" xlink:title="tlz::checkerboard_world\l_corners">
<polygon fill="white" stroke="black" points="89,-278 89,-308 209,-308 209,-278 89,-278"/>
<text text-anchor="start" x="97" y="-296" font-family="Helvetica,sans-Serif" font-size="10.00">tlz::checkerboard_world</text>
<text text-anchor="middle" x="149" y="-285" font-family="Helvetica,sans-Serif" font-size="10.00">_corners</text>
</a>
</g>
</g>
<!-- Node1&#45;&gt;Node28 -->
<g id="edge36" class="edge"><title>Node1&#45;&gt;Node28</title>
<path fill="none" stroke="midnightblue" d="M23.2254,-398.339C29.8278,-380.012 46.6121,-340.061 74,-318 76.0791,-316.325 78.2761,-314.76 80.5605,-313.298"/>
<polygon fill="midnightblue" stroke="midnightblue" points="82.7288,-316.095 89.7409,-308.153 79.3064,-309.989 82.7288,-316.095"/>
</g>
<!-- Node29 -->
<g id="node29" class="node"><title>Node29</title>
<g id="a_node29"><a xlink:href="structtlz_1_1distortion__parameters.html#a96312c5d7baa4b7b1f2a76e9396037f8" target="_top" xlink:title="tlz::distortion_parameters\l::cv_coeffs">
<polygon fill="white" stroke="black" points="85.5,-229 85.5,-259 212.5,-259 212.5,-229 85.5,-229"/>
<text text-anchor="start" x="93.5" y="-247" font-family="Helvetica,sans-Serif" font-size="10.00">tlz::distortion_parameters</text>
<text text-anchor="middle" x="149" y="-236" font-family="Helvetica,sans-Serif" font-size="10.00">::cv_coeffs</text>
</a>
</g>
</g>
<!-- Node1&#45;&gt;Node29 -->
<g id="edge37" class="edge"><title>Node1&#45;&gt;Node29</title>
<path fill="none" stroke="midnightblue" d="M20.964,-398.382C23.9771,-373.403 35.4548,-305.858 74,-269 75.6325,-267.439 77.3658,-265.975 79.1798,-264.603"/>
<polygon fill="midnightblue" stroke="midnightblue" points="81.1023,-267.528 87.5892,-259.151 77.2943,-261.654 81.1023,-267.528"/>
</g>
<!-- Node30 -->
<g id="node30" class="node"><title>Node30</title>
<g id="a_node30"><a xlink:href="namespacetlz.html#a318f0ec11ecbe39c32ad870473ea9c35" target="_top" xlink:title="Compute square of a number. ">
<polygon fill="white" stroke="black" points="127,-190.5 127,-209.5 171,-209.5 171,-190.5 127,-190.5"/>
<text text-anchor="middle" x="149" y="-197.5" font-family="Helvetica,sans-Serif" font-size="10.00">tlz::sq</text>
</a>
</g>
</g>
<!-- Node1&#45;&gt;Node30 -->
<g id="edge38" class="edge"><title>Node1&#45;&gt;Node30</title>
<path fill="none" stroke="midnightblue" d="M19.6958,-398.164C19.3004,-367.194 22.4527,-270.742 74,-220 85.2186,-208.957 101.869,-203.849 116.537,-201.549"/>
<polygon fill="midnightblue" stroke="midnightblue" points="117.247,-204.989 126.76,-200.326 116.415,-198.038 117.247,-204.989"/>
</g>
<!-- Node34 -->
<g id="node34" class="node"><title>Node34</title>
<g id="a_node34"><a xlink:href="color__intrinsic__reprojection_8cc.html#a7c87895bc67d7f4acd7414dc88772fa2" target="_top" xlink:title="orig_color">
<polygon fill="white" stroke="black" points="119.5,-152.5 119.5,-171.5 178.5,-171.5 178.5,-152.5 119.5,-152.5"/>
<text text-anchor="middle" x="149" y="-159.5" font-family="Helvetica,sans-Serif" font-size="10.00">orig_color</text>
</a>
</g>
</g>
<!-- Node1&#45;&gt;Node34 -->
<g id="edge42" class="edge"><title>Node1&#45;&gt;Node34</title>
<path fill="none" stroke="midnightblue" d="M20.9648,-398.487C25.0998,-359.565 42.5595,-213.005 74,-181 83.2415,-171.593 96.4662,-166.627 109.186,-164.071"/>
<polygon fill="midnightblue" stroke="midnightblue" points="109.858,-167.509 119.194,-162.499 108.772,-160.593 109.858,-167.509"/>
</g>
<!-- Node35 -->
<g id="node35" class="node"><title>Node35</title>
<g id="a_node35"><a xlink:href="color__intrinsic__reprojection_8cc.html#a954d54d7632b9f17ffc41545566f0565" target="_top" xlink:title="reproj_color">
<polygon fill="white" stroke="black" points="115.5,-114.5 115.5,-133.5 182.5,-133.5 182.5,-114.5 115.5,-114.5"/>
<text text-anchor="middle" x="149" y="-121.5" font-family="Helvetica,sans-Serif" font-size="10.00">reproj_color</text>
</a>
</g>
</g>
<!-- Node1&#45;&gt;Node35 -->
<g id="edge43" class="edge"><title>Node1&#45;&gt;Node35</title>
<path fill="none" stroke="midnightblue" d="M20.6217,-398.4C23.5969,-355.418 37.7626,-181.108 74,-143 82.2004,-134.376 93.742,-129.464 105.276,-126.72"/>
<polygon fill="midnightblue" stroke="midnightblue" points="106.145,-130.118 115.325,-124.828 104.85,-123.238 106.145,-130.118"/>
</g>
<!-- Node36 -->
<g id="node36" class="node"><title>Node36</title>
<g id="a_node36"><a xlink:href="classtlz_1_1viewer.html#a5f0412cff89a343ad52431689502389d" target="_top" xlink:title="tlz::viewer::draw">
<polygon fill="white" stroke="black" points="104.5,-464.5 104.5,-483.5 193.5,-483.5 193.5,-464.5 104.5,-464.5"/>
<text text-anchor="middle" x="149" y="-471.5" font-family="Helvetica,sans-Serif" font-size="10.00">tlz::viewer::draw</text>
</a>
</g>
</g>
<!-- Node1&#45;&gt;Node36 -->
<g id="edge44" class="edge"><title>Node1&#45;&gt;Node36</title>
<path fill="none" stroke="midnightblue" d="M28.5577,-417.784C38.4526,-428.491 55.7359,-445.404 74,-455 80.458,-458.393 87.5568,-461.205 94.7229,-463.529"/>
<polygon fill="midnightblue" stroke="midnightblue" points="93.9013,-466.936 104.483,-466.405 95.8797,-460.221 93.9013,-466.936"/>
</g>
<!-- Node37 -->
<g id="node37" class="node"><title>Node37</title>
<g id="a_node37"><a xlink:href="classtlz_1_1viewer.html#ad4fda702b7c5af2cb0bb9bc3842113f3" target="_top" xlink:title="tlz::viewer::draw_text">
<polygon fill="white" stroke="black" points="94,-76.5 94,-95.5 204,-95.5 204,-76.5 94,-76.5"/>
<text text-anchor="middle" x="149" y="-83.5" font-family="Helvetica,sans-Serif" font-size="10.00">tlz::viewer::draw_text</text>
</a>
</g>
</g>
<!-- Node1&#45;&gt;Node37 -->
<g id="edge47" class="edge"><title>Node1&#45;&gt;Node37</title>
<path fill="none" stroke="midnightblue" d="M20.3591,-398.316C22.2901,-351.52 32.9352,-149.265 74,-105 77.1292,-101.627 80.7689,-98.8193 84.7235,-96.4855"/>
<polygon fill="midnightblue" stroke="midnightblue" points="86.325,-99.5989 93.8077,-92.0982 83.2807,-93.2956 86.325,-99.5989"/>
</g>
<!-- Node38 -->
<g id="node38" class="node"><title>Node38</title>
<g id="a_node38"><a xlink:href="classtlz_1_1grabber.html#a412843d3f5dbbcb179e5ae4709577b91" target="_top" xlink:title="tlz::grabber::release">
<polygon fill="white" stroke="black" points="97.5,-38.5 97.5,-57.5 200.5,-57.5 200.5,-38.5 97.5,-38.5"/>
<text text-anchor="middle" x="149" y="-45.5" font-family="Helvetica,sans-Serif" font-size="10.00">tlz::grabber::release</text>
</a>
</g>
</g>
<!-- Node1&#45;&gt;Node38 -->
<g id="edge49" class="edge"><title>Node1&#45;&gt;Node38</title>
<path fill="none" stroke="midnightblue" d="M20.1463,-398.468C21.1069,-348.541 28.0133,-117.54 74,-67 78.0031,-62.6006 82.8743,-59.1595 88.1869,-56.4759"/>
<polygon fill="midnightblue" stroke="midnightblue" points="89.564,-59.694 97.4686,-52.6394 86.89,-53.2248 89.564,-59.694"/>
</g>
<!-- Node39 -->
<g id="node39" class="node"><title>Node39</title>
<g id="a_node39"><a xlink:href="classtlz_1_1viewer.html#aabb3cdde75783ed1a41801fb236bc50e" target="_top" xlink:title="tlz::viewer::show">
<polygon fill="white" stroke="black" points="103.5,-0.5 103.5,-19.5 194.5,-19.5 194.5,-0.5 103.5,-0.5"/>
<text text-anchor="middle" x="149" y="-7.5" font-family="Helvetica,sans-Serif" font-size="10.00">tlz::viewer::show</text>
</a>
</g>
</g>
<!-- Node1&#45;&gt;Node39 -->
<g id="edge50" class="edge"><title>Node1&#45;&gt;Node39</title>
<path fill="none" stroke="midnightblue" d="M19.9802,-398.483C20.0656,-345.357 23.1119,-85.8065 74,-29 79.2894,-23.0954 86.1423,-18.9123 93.5404,-15.9685"/>
<polygon fill="midnightblue" stroke="midnightblue" points="94.6897,-19.2754 103.126,-12.8664 92.5345,-12.6154 94.6897,-19.2754"/>
</g>
<!-- Node4 -->
<g id="node4" class="node"><title>Node4</title>
<g id="a_node4"><a xlink:href="namespacetlz.html#a780431daab8d2595372eacb43143b52d" target="_top" xlink:title="tlz::args">
<polygon fill="white" stroke="black" points="685.5,-761.5 685.5,-780.5 737.5,-780.5 737.5,-761.5 685.5,-761.5"/>
<text text-anchor="middle" x="711.5" y="-768.5" font-family="Helvetica,sans-Serif" font-size="10.00">tlz::args</text>
</a>
</g>
</g>
<!-- Node3&#45;&gt;Node4 -->
<g id="edge3" class="edge"><title>Node3&#45;&gt;Node4</title>
<path fill="none" stroke="midnightblue" d="M606.088,-875.498C610.764,-872.915 615.334,-869.765 619,-866 645.075,-839.222 627.127,-814.9 655,-790 660.862,-784.763 668.234,-780.957 675.672,-778.195"/>
<polygon fill="midnightblue" stroke="midnightblue" points="676.887,-781.482 685.368,-775.133 674.778,-774.807 676.887,-781.482"/>
</g>
<!-- Node5 -->
<g id="node5" class="node"><title>Node5</title>
<g id="a_node5"><a xlink:href="classtlz_1_1args__list.html#a73d99bc75998dc14607a3a372d28dc6d" target="_top" xlink:title="tlz::args_list::next_arg">
<polygon fill="white" stroke="black" points="655,-799.5 655,-818.5 768,-818.5 768,-799.5 655,-799.5"/>
<text text-anchor="middle" x="711.5" y="-806.5" font-family="Helvetica,sans-Serif" font-size="10.00">tlz::args_list::next_arg</text>
</a>
</g>
</g>
<!-- Node3&#45;&gt;Node5 -->
<g id="edge4" class="edge"><title>Node3&#45;&gt;Node5</title>
<path fill="none" stroke="midnightblue" d="M601.135,-875.461C606.943,-872.53 613.277,-869.224 619,-866 642.714,-852.64 669.014,-836.065 687.308,-824.238"/>
<polygon fill="midnightblue" stroke="midnightblue" points="689.368,-827.074 695.844,-818.689 685.553,-821.205 689.368,-827.074"/>
</g>
<!-- Node6 -->
<g id="node6" class="node"><title>Node6</title>
<g id="a_node6"><a xlink:href="classtlz_1_1args__list.html#a38ad21acd64a4af98ffdf4a47837cdbe" target="_top" xlink:title="tlz::args_list::usage_fail">
<polygon fill="white" stroke="black" points="804,-818.5 804,-837.5 924,-837.5 924,-818.5 804,-818.5"/>
<text text-anchor="middle" x="864" y="-825.5" font-family="Helvetica,sans-Serif" font-size="10.00">tlz::args_list::usage_fail</text>
</a>
</g>
</g>
<!-- Node3&#45;&gt;Node6 -->
<g id="edge7" class="edge"><title>Node3&#45;&gt;Node6</title>
<path fill="none" stroke="midnightblue" d="M611.67,-880.35C648.658,-874.492 713.184,-863.758 768,-852 784.237,-848.517 801.904,-844.201 817.55,-840.193"/>
<polygon fill="midnightblue" stroke="midnightblue" points="818.701,-843.511 827.504,-837.616 816.946,-836.734 818.701,-843.511"/>
</g>
<!-- Node5&#45;&gt;Node6 -->
<g id="edge5" class="edge"><title>Node5&#45;&gt;Node6</title>
<path fill="none" stroke="midnightblue" d="M768.113,-816.021C776.479,-817.077 785.192,-818.177 793.8,-819.264"/>
<polygon fill="midnightblue" stroke="midnightblue" points="793.468,-822.75 803.828,-820.53 794.345,-815.805 793.468,-822.75"/>
</g>
<!-- Node5&#45;&gt;Node7 -->
<g id="edge6" class="edge"><title>Node5&#45;&gt;Node7</title>
<path fill="none" stroke="midnightblue" d="M748.241,-799.459C755.06,-796.902 761.951,-793.772 768,-790 801.769,-768.94 832.725,-733.752 849.617,-712.624"/>
<polygon fill="midnightblue" stroke="midnightblue" points="852.558,-714.545 855.963,-704.512 847.045,-710.232 852.558,-714.545"/>
</g>
<!-- Node8&#45;&gt;Node4 -->
<g id="edge9" class="edge"><title>Node8&#45;&gt;Node4</title>
<path fill="none" stroke="midnightblue" d="M603.665,-837.356C608.902,-834.654 614.319,-831.49 619,-828 637.651,-814.094 635.428,-802.576 655,-790 661.303,-785.95 668.566,-782.659 675.718,-780.025"/>
<polygon fill="midnightblue" stroke="midnightblue" points="676.92,-783.313 685.299,-776.83 674.706,-776.673 676.92,-783.313"/>
</g>
<!-- Node8&#45;&gt;Node5 -->
<g id="edge10" class="edge"><title>Node8&#45;&gt;Node5</title>
<path fill="none" stroke="midnightblue" d="M614.052,-837.411C630.399,-832.596 650.409,-826.701 667.957,-821.532"/>
<polygon fill="midnightblue" stroke="midnightblue" points="669.355,-824.769 677.958,-818.586 667.377,-818.054 669.355,-824.769"/>
</g>
<!-- Node8&#45;&gt;Node6 -->
<g id="edge11" class="edge"><title>Node8&#45;&gt;Node6</title>
<path fill="none" stroke="midnightblue" d="M614.619,-844.765C658.424,-841.808 736.73,-836.523 793.736,-832.675"/>
<polygon fill="midnightblue" stroke="midnightblue" points="794.02,-836.164 803.761,-831.998 793.548,-829.18 794.02,-836.164"/>
</g>
<!-- Node10 -->
<g id="node10" class="node"><title>Node10</title>
<g id="a_node10"><a xlink:href="namespacetlz.html#a8cba4853d0d796a01c72f59f36f2a492" target="_top" xlink:title="tlz::decode_intrinsics">
<polygon fill="white" stroke="black" points="260,-742.5 260,-761.5 369,-761.5 369,-742.5 260,-742.5"/>
<text text-anchor="middle" x="314.5" y="-749.5" font-family="Helvetica,sans-Serif" font-size="10.00">tlz::decode_intrinsics</text>
</a>
</g>
</g>
<!-- Node9&#45;&gt;Node10 -->
<g id="edge13" class="edge"><title>Node9&#45;&gt;Node10</title>
<path fill="none" stroke="midnightblue" d="M170.707,-685.625C199.332,-698.931 251.154,-723.02 283.871,-738.228"/>
<polygon fill="midnightblue" stroke="midnightblue" points="282.417,-741.411 292.961,-742.453 285.368,-735.064 282.417,-741.411"/>
</g>
<!-- Node14 -->
<g id="node14" class="node"><title>Node14</title>
<g id="a_node14"><a xlink:href="namespacetlz.html#a35f9e03fa4fd9cec699f5fa27962400f" target="_top" xlink:title="tlz::json_arg">
<polygon fill="white" stroke="black" points="279.5,-666.5 279.5,-685.5 349.5,-685.5 349.5,-666.5 279.5,-666.5"/>
<text text-anchor="middle" x="314.5" y="-673.5" font-family="Helvetica,sans-Serif" font-size="10.00">tlz::json_arg</text>
</a>
</g>
</g>
<!-- Node9&#45;&gt;Node14 -->
<g id="edge18" class="edge"><title>Node9&#45;&gt;Node14</title>
<path fill="none" stroke="midnightblue" d="M194.677,-676C217.799,-676 245.941,-676 269.032,-676"/>
<polygon fill="midnightblue" stroke="midnightblue" points="269.25,-679.5 279.25,-676 269.25,-672.5 269.25,-679.5"/>
</g>
<!-- Node11 -->
<g id="node11" class="node"><title>Node11</title>
<g id="a_node11"><a xlink:href="namespacetlz.html#a066563a26e2de02f215b179f3d3a53da" target="_top" xlink:title="tlz::decode_mat">
<polygon fill="white" stroke="black" points="412.5,-761.5 412.5,-780.5 498.5,-780.5 498.5,-761.5 412.5,-761.5"/>
<text text-anchor="middle" x="455.5" y="-768.5" font-family="Helvetica,sans-Serif" font-size="10.00">tlz::decode_mat</text>
</a>
</g>
</g>
<!-- Node10&#45;&gt;Node11 -->
<g id="edge14" class="edge"><title>Node10&#45;&gt;Node11</title>
<path fill="none" stroke="midnightblue" d="M369.241,-759.346C380.009,-760.818 391.31,-762.363 402.035,-763.828"/>
<polygon fill="midnightblue" stroke="midnightblue" points="401.722,-767.318 412.104,-765.205 402.67,-760.383 401.722,-767.318"/>
</g>
<!-- Node12 -->
<g id="node12" class="node"><title>Node12</title>
<g id="a_node12"><a xlink:href="namespacetlz.html#a252af14b9b4ac6502d3e9c5dd8dc90b8" target="_top" xlink:title="tlz::has">
<polygon fill="white" stroke="black" points="556,-799.5 556,-818.5 605,-818.5 605,-799.5 556,-799.5"/>
<text text-anchor="middle" x="580.5" y="-806.5" font-family="Helvetica,sans-Serif" font-size="10.00">tlz::has</text>
</a>
</g>
</g>
<!-- Node10&#45;&gt;Node12 -->
<g id="edge15" class="edge"><title>Node10&#45;&gt;Node12</title>
<path fill="none" stroke="midnightblue" d="M359.456,-742.478C399.392,-735.99 459.06,-731.81 506,-752 527.371,-761.192 523.349,-776.094 542,-790 544.048,-791.527 546.237,-792.991 548.49,-794.382"/>
<polygon fill="midnightblue" stroke="midnightblue" points="546.903,-797.505 557.335,-799.356 550.334,-791.404 546.903,-797.505"/>
</g>
<!-- Node13 -->
<g id="node13" class="node"><title>Node13</title>
<g id="a_node13"><a xlink:href="namespacetlz.html#add846dc50c32dfb356cb1a7ac11d37ac" target="_top" xlink:title="tlz::get_or">
<polygon fill="white" stroke="black" points="425.5,-799.5 425.5,-818.5 485.5,-818.5 485.5,-799.5 425.5,-799.5"/>
<text text-anchor="middle" x="455.5" y="-806.5" font-family="Helvetica,sans-Serif" font-size="10.00">tlz::get_or</text>
</a>
</g>
</g>
<!-- Node10&#45;&gt;Node13 -->
<g id="edge16" class="edge"><title>Node10&#45;&gt;Node13</title>
<path fill="none" stroke="midnightblue" d="M337.479,-761.586C355.542,-769.402 381.836,-780.64 405,-790 409.611,-791.863 414.481,-793.786 419.295,-795.661"/>
<polygon fill="midnightblue" stroke="midnightblue" points="418.407,-799.07 428.997,-799.407 420.928,-792.54 418.407,-799.07"/>
</g>
<!-- Node13&#45;&gt;Node12 -->
<g id="edge17" class="edge"><title>Node13&#45;&gt;Node12</title>
<path fill="none" stroke="midnightblue" d="M485.649,-809C503.667,-809 526.865,-809 545.689,-809"/>
<polygon fill="midnightblue" stroke="midnightblue" points="545.914,-812.5 555.914,-809 545.914,-805.5 545.914,-812.5"/>
</g>
<!-- Node15 -->
<g id="node15" class="node"><title>Node15</title>
<g id="a_node15"><a xlink:href="namespacetlz.html#aa1be9362f548fcf9378e1fc9074089c4" target="_top" xlink:title="tlz::import_json_file">
<polygon fill="white" stroke="black" points="405,-685.5 405,-704.5 506,-704.5 506,-685.5 405,-685.5"/>
<text text-anchor="middle" x="455.5" y="-692.5" font-family="Helvetica,sans-Serif" font-size="10.00">tlz::import_json_file</text>
</a>
</g>
</g>
<!-- Node14&#45;&gt;Node15 -->
<g id="edge19" class="edge"><title>Node14&#45;&gt;Node15</title>
<path fill="none" stroke="midnightblue" d="M349.503,-680.648C363.151,-682.513 379.295,-684.72 394.778,-686.837"/>
<polygon fill="midnightblue" stroke="midnightblue" points="394.443,-690.323 404.825,-688.21 395.391,-683.388 394.443,-690.323"/>
</g>
<!-- Node16 -->
<g id="node16" class="node"><title>Node16</title>
<g id="a_node16"><a xlink:href="namespacetlz.html#a634de7ca11e100e4a118dffe80376a75" target="_top" xlink:title="tlz::in_filename_arg">
<polygon fill="white" stroke="black" points="405,-647.5 405,-666.5 506,-666.5 506,-647.5 405,-647.5"/>
<text text-anchor="middle" x="455.5" y="-654.5" font-family="Helvetica,sans-Serif" font-size="10.00">tlz::in_filename_arg</text>
</a>
</g>
</g>
<!-- Node14&#45;&gt;Node16 -->
<g id="edge20" class="edge"><title>Node14&#45;&gt;Node16</title>
<path fill="none" stroke="midnightblue" d="M349.503,-671.352C363.151,-669.487 379.295,-667.28 394.778,-665.163"/>
<polygon fill="midnightblue" stroke="midnightblue" points="395.391,-668.612 404.825,-663.79 394.443,-661.677 395.391,-668.612"/>
</g>
<!-- Node16&#45;&gt;Node4 -->
<g id="edge25" class="edge"><title>Node16&#45;&gt;Node4</title>
<path fill="none" stroke="midnightblue" d="M486.68,-666.51C493.272,-669.148 500.051,-672.318 506,-676 524.456,-687.423 523.465,-697.706 542,-709 584.761,-735.056 640.206,-752.825 675.578,-762.447"/>
<polygon fill="midnightblue" stroke="midnightblue" points="674.872,-765.881 685.435,-765.059 676.665,-759.114 674.872,-765.881"/>
</g>
<!-- Node16&#45;&gt;Node6 -->
<g id="edge26" class="edge"><title>Node16&#45;&gt;Node6</title>
<path fill="none" stroke="midnightblue" d="M493.927,-666.515C565.616,-685.05 719.492,-726.413 768,-752 798.295,-767.98 828.329,-794.211 846.277,-811.293"/>
<polygon fill="midnightblue" stroke="midnightblue" points="844.016,-813.976 853.63,-818.429 848.891,-808.953 844.016,-813.976"/>
</g>
<!-- Node17 -->
<g id="node17" class="node"><title>Node17</title>
<g id="a_node17"><a xlink:href="namespacetlz.html#a0621d598fb83b13bf028f3e6293d04f8" target="_top" xlink:title="tlz::string_arg">
<polygon fill="white" stroke="black" points="542.5,-761.5 542.5,-780.5 618.5,-780.5 618.5,-761.5 542.5,-761.5"/>
<text text-anchor="middle" x="580.5" y="-768.5" font-family="Helvetica,sans-Serif" font-size="10.00">tlz::string_arg</text>
</a>
</g>
</g>
<!-- Node16&#45;&gt;Node17 -->
<g id="edge21" class="edge"><title>Node16&#45;&gt;Node17</title>
<path fill="none" stroke="midnightblue" d="M491.396,-666.61C496.674,-669.091 501.762,-672.177 506,-676 532.269,-699.7 518.265,-720.763 542,-747 544.859,-750.16 548.225,-753.072 551.748,-755.696"/>
<polygon fill="midnightblue" stroke="midnightblue" points="549.829,-758.623 560.086,-761.278 553.723,-752.807 549.829,-758.623"/>
</g>
<!-- Node18 -->
<g id="node18" class="node"><title>Node18</title>
<g id="a_node18"><a xlink:href="namespacetlz.html#abb019466ea9f56c0dab27e893d891837" target="_top" xlink:title="tlz::file_exists">
<polygon fill="white" stroke="black" points="542,-647.5 542,-666.5 619,-666.5 619,-647.5 542,-647.5"/>
<text text-anchor="middle" x="580.5" y="-654.5" font-family="Helvetica,sans-Serif" font-size="10.00">tlz::file_exists</text>
</a>
</g>
</g>
<!-- Node16&#45;&gt;Node18 -->
<g id="edge24" class="edge"><title>Node16&#45;&gt;Node18</title>
<path fill="none" stroke="midnightblue" d="M506.174,-657C514.612,-657 523.358,-657 531.744,-657"/>
<polygon fill="midnightblue" stroke="midnightblue" points="531.751,-660.5 541.751,-657 531.751,-653.5 531.751,-660.5"/>
</g>
<!-- Node17&#45;&gt;Node4 -->
<g id="edge22" class="edge"><title>Node17&#45;&gt;Node4</title>
<path fill="none" stroke="midnightblue" d="M618.812,-771C636.436,-771 657.375,-771 674.79,-771"/>
<polygon fill="midnightblue" stroke="midnightblue" points="675.117,-774.5 685.117,-771 675.117,-767.5 675.117,-774.5"/>
</g>
<!-- Node17&#45;&gt;Node5 -->
<g id="edge23" class="edge"><title>Node17&#45;&gt;Node5</title>
<path fill="none" stroke="midnightblue" d="M614.052,-780.589C630.399,-785.404 650.409,-791.299 667.957,-796.468"/>
<polygon fill="midnightblue" stroke="midnightblue" points="667.377,-799.946 677.958,-799.414 669.355,-793.231 667.377,-799.946"/>
</g>
<!-- Node22 -->
<g id="node22" class="node"><title>Node22</title>
<g id="a_node22"><a xlink:href="classtlz_1_1viewer.html#af74a8aef9dde68eeff6b1e2561b39014" target="_top" xlink:title="tlz::viewer::height">
<polygon fill="white" stroke="black" points="267.5,-464.5 267.5,-483.5 361.5,-483.5 361.5,-464.5 267.5,-464.5"/>
<text text-anchor="middle" x="314.5" y="-471.5" font-family="Helvetica,sans-Serif" font-size="10.00">tlz::viewer::height</text>
</a>
</g>
</g>
<!-- Node21&#45;&gt;Node22 -->
<g id="edge30" class="edge"><title>Node21&#45;&gt;Node22</title>
<path fill="none" stroke="midnightblue" d="M191.258,-502.411C212.931,-497.374 239.683,-491.156 262.63,-485.823"/>
<polygon fill="midnightblue" stroke="midnightblue" points="263.591,-489.193 272.539,-483.52 262.006,-482.375 263.591,-489.193"/>
</g>
<!-- Node23 -->
<g id="node23" class="node"><title>Node23</title>
<g id="a_node23"><a xlink:href="classtlz_1_1viewer.html#acc43bf1dd1d0c3cdc35a948d4c194769" target="_top" xlink:title="tlz::viewer::width">
<polygon fill="white" stroke="black" points="269,-502.5 269,-521.5 360,-521.5 360,-502.5 269,-502.5"/>
<text text-anchor="middle" x="314.5" y="-509.5" font-family="Helvetica,sans-Serif" font-size="10.00">tlz::viewer::width</text>
</a>
</g>
</g>
<!-- Node21&#45;&gt;Node23 -->
<g id="edge31" class="edge"><title>Node21&#45;&gt;Node23</title>
<path fill="none" stroke="midnightblue" d="M193.815,-512C213.812,-512 237.701,-512 258.857,-512"/>
<polygon fill="midnightblue" stroke="midnightblue" points="258.995,-515.5 268.995,-512 258.995,-508.5 258.995,-515.5"/>
</g>
<!-- Node26 -->
<g id="node26" class="node"><title>Node26</title>
<g id="a_node26"><a xlink:href="structtlz_1_1checkerboard.html#a44b150a25091e74cfaec42635d392369" target="_top" xlink:title="tlz::checkerboard::\lcheckerboard">
<polygon fill="white" stroke="black" points="265.5,-371 265.5,-401 363.5,-401 363.5,-371 265.5,-371"/>
<text text-anchor="start" x="273.5" y="-389" font-family="Helvetica,sans-Serif" font-size="10.00">tlz::checkerboard::</text>
<text text-anchor="middle" x="314.5" y="-378" font-family="Helvetica,sans-Serif" font-size="10.00">checkerboard</text>
</a>
</g>
</g>
<!-- Node25&#45;&gt;Node26 -->
<g id="edge34" class="edge"><title>Node25&#45;&gt;Node26</title>
<path fill="none" stroke="midnightblue" d="M224.096,-386C234.506,-386 245.082,-386 255.143,-386"/>
<polygon fill="midnightblue" stroke="midnightblue" points="255.412,-389.5 265.412,-386 255.412,-382.5 255.412,-389.5"/>
</g>
<!-- Node31 -->
<g id="node31" class="node"><title>Node31</title>
<g id="a_node31"><a xlink:href="namespacetlz.html#a643b2d03bd805fe78dcd684ef45e52fb" target="_top" xlink:title="Clamp value between minimum and maximum value. ">
<polygon fill="white" stroke="black" points="285,-228.5 285,-247.5 344,-247.5 344,-228.5 285,-228.5"/>
<text text-anchor="middle" x="314.5" y="-235.5" font-family="Helvetica,sans-Serif" font-size="10.00">tlz::clamp</text>
</a>
</g>
</g>
<!-- Node30&#45;&gt;Node31 -->
<g id="edge39" class="edge"><title>Node30&#45;&gt;Node31</title>
<path fill="none" stroke="midnightblue" d="M171.04,-204.89C197.189,-210.968 242.324,-221.458 274.79,-229.003"/>
<polygon fill="midnightblue" stroke="midnightblue" points="274.312,-232.485 284.845,-231.34 275.897,-225.667 274.312,-232.485"/>
</g>
<!-- Node32 -->
<g id="node32" class="node"><title>Node32</title>
<g id="a_node32"><a xlink:href="namespacetlz.html#a4fe5757a830e199f84d229eee11f616e" target="_top" xlink:title="Compute greatest common divisor of a and b. ">
<polygon fill="white" stroke="black" points="290,-190.5 290,-209.5 339,-209.5 339,-190.5 290,-190.5"/>
<text text-anchor="middle" x="314.5" y="-197.5" font-family="Helvetica,sans-Serif" font-size="10.00">tlz::gcd</text>
</a>
</g>
</g>
<!-- Node30&#45;&gt;Node32 -->
<g id="edge40" class="edge"><title>Node30&#45;&gt;Node32</title>
<path fill="none" stroke="midnightblue" d="M171.04,-200C198.59,-200 247.214,-200 279.893,-200"/>
<polygon fill="midnightblue" stroke="midnightblue" points="279.896,-203.5 289.896,-200 279.896,-196.5 279.896,-203.5"/>
</g>
<!-- Node33 -->
<g id="node33" class="node"><title>Node33</title>
<g id="a_node33"><a xlink:href="namespacetlz.html#aec6e2158ce198aa20a8493fde3d3b552" target="_top" xlink:title="Compute least common multiple of a and b. ">
<polygon fill="white" stroke="black" points="290,-152.5 290,-171.5 339,-171.5 339,-152.5 290,-152.5"/>
<text text-anchor="middle" x="314.5" y="-159.5" font-family="Helvetica,sans-Serif" font-size="10.00">tlz::lcm</text>
</a>
</g>
</g>
<!-- Node30&#45;&gt;Node33 -->
<g id="edge41" class="edge"><title>Node30&#45;&gt;Node33</title>
<path fill="none" stroke="midnightblue" d="M171.04,-195.11C198.59,-188.707 247.214,-177.406 279.893,-169.811"/>
<polygon fill="midnightblue" stroke="midnightblue" points="280.948,-173.159 289.896,-167.486 279.363,-166.341 280.948,-173.159"/>
</g>
<!-- Node36&#45;&gt;Node22 -->
<g id="edge46" class="edge"><title>Node36&#45;&gt;Node22</title>
<path fill="none" stroke="midnightblue" d="M193.815,-474C213.236,-474 236.327,-474 257.021,-474"/>
<polygon fill="midnightblue" stroke="midnightblue" points="257.276,-477.5 267.276,-474 257.276,-470.5 257.276,-477.5"/>
</g>
<!-- Node36&#45;&gt;Node23 -->
<g id="edge45" class="edge"><title>Node36&#45;&gt;Node23</title>
<path fill="none" stroke="midnightblue" d="M191.258,-483.589C212.931,-488.626 239.683,-494.844 262.63,-500.177"/>
<polygon fill="midnightblue" stroke="midnightblue" points="262.006,-503.625 272.539,-502.48 263.591,-496.807 262.006,-503.625"/>
</g>
</g>
</svg>
