<?xml version="1.0" encoding="UTF-8" standalone="no"?>
<!DOCTYPE svg PUBLIC "-//W3C//DTD SVG 1.1//EN"
 "http://www.w3.org/Graphics/SVG/1.1/DTD/svg11.dtd">
<!-- Generated by graphviz version 2.38.0 (20140413.2041)
 -->
<!-- Title: main Pages: 1 -->
<svg width="1220pt" height="382pt"
 viewBox="0.00 0.00 1220.00 382.00" xmlns="http://www.w3.org/2000/svg" xmlns:xlink="http://www.w3.org/1999/xlink">
<g id="graph0" class="graph" transform="scale(1 1) rotate(0) translate(4 378)">
<title>main</title>
<polygon fill="white" stroke="none" points="-4,4 -4,-378 1216,-378 1216,4 -4,4"/>
<!-- Node1 -->
<g id="node1" class="node"><title>Node1</title>
<polygon fill="#bfbfbf" stroke="black" points="0,-251.5 0,-270.5 38,-270.5 38,-251.5 0,-251.5"/>
<text text-anchor="middle" x="19" y="-258.5" font-family="Helvetica,sans-Serif" font-size="10.00">main</text>
</g>
<!-- Node2 -->
<g id="node2" class="node"><title>Node2</title>
<g id="a_node2"><a xlink:href="namespacetlz.html#a3c03f5d9d6261ec2909938822fc47f8a" target="_top" xlink:title="tlz::get_args">
<polygon fill="white" stroke="black" points="124,-308.5 124,-327.5 195,-327.5 195,-308.5 124,-308.5"/>
<text text-anchor="middle" x="159.5" y="-315.5" font-family="Helvetica,sans-Serif" font-size="10.00">tlz::get_args</text>
</a>
</g>
</g>
<!-- Node1&#45;&gt;Node2 -->
<g id="edge1" class="edge"><title>Node1&#45;&gt;Node2</title>
<path fill="none" stroke="midnightblue" d="M30.7978,-270.548C41.1748,-279.228 57.6506,-291.754 74,-299 86.4881,-304.535 100.754,-308.534 113.963,-311.391"/>
<polygon fill="midnightblue" stroke="midnightblue" points="113.319,-314.831 123.811,-313.359 114.691,-307.967 113.319,-314.831"/>
</g>
<!-- Node3 -->
<g id="node3" class="node"><title>Node3</title>
<g id="a_node3"><a xlink:href="namespacetlz.html#a11d8bb3ca89f4957bfde1cd0d5429a16" target="_top" xlink:title="tlz::image_correspondences_arg">
<polygon fill="white" stroke="black" points="80.5,-232.5 80.5,-251.5 238.5,-251.5 238.5,-232.5 80.5,-232.5"/>
<text text-anchor="middle" x="159.5" y="-239.5" font-family="Helvetica,sans-Serif" font-size="10.00">tlz::image_correspondences_arg</text>
</a>
</g>
</g>
<!-- Node1&#45;&gt;Node3 -->
<g id="edge2" class="edge"><title>Node1&#45;&gt;Node3</title>
<path fill="none" stroke="midnightblue" d="M38.1065,-258.516C48.9934,-257.023 63.6907,-255.006 79.0728,-252.896"/>
<polygon fill="midnightblue" stroke="midnightblue" points="79.8153,-256.327 89.2468,-251.5 78.8639,-249.392 79.8153,-256.327"/>
</g>
<!-- Node21 -->
<g id="node21" class="node"><title>Node21</title>
<g id="a_node21"><a xlink:href="namespacetlz.html#a65770a2c1ff57c5ae6542d4465a3d3f4" target="_top" xlink:title="tlz::out_filename_arg">
<polygon fill="white" stroke="black" points="106,-270.5 106,-289.5 213,-289.5 213,-270.5 106,-270.5"/>
<text text-anchor="middle" x="159.5" y="-277.5" font-family="Helvetica,sans-Serif" font-size="10.00">tlz::out_filename_arg</text>
</a>
</g>
</g>
<!-- Node1&#45;&gt;Node21 -->
<g id="edge24" class="edge"><title>Node1&#45;&gt;Node21</title>
<path fill="none" stroke="midnightblue" d="M38.1065,-263.484C52.8515,-265.507 74.5861,-268.488 95.5451,-271.364"/>
<polygon fill="midnightblue" stroke="midnightblue" points="95.3549,-274.87 105.738,-272.762 96.3063,-267.935 95.3549,-274.87"/>
</g>
<!-- Node22 -->
<g id="node22" class="node"><title>Node22</title>
<g id="a_node22"><a xlink:href="namespacetlz.html#a703280f6c42435c957e976f0ab000b30" target="_top" xlink:title="tlz::export_image_corresponcences">
<polygon fill="white" stroke="black" points="74,-98.5 74,-117.5 245,-117.5 245,-98.5 74,-98.5"/>
<text text-anchor="middle" x="159.5" y="-105.5" font-family="Helvetica,sans-Serif" font-size="10.00">tlz::export_image_corresponcences</text>
</a>
</g>
</g>
<!-- Node1&#45;&gt;Node22 -->
<g id="edge26" class="edge"><title>Node1&#45;&gt;Node22</title>
<path fill="none" stroke="midnightblue" d="M28.6638,-251.429C51.4962,-226.206 113.564,-157.64 142.831,-125.31"/>
<polygon fill="midnightblue" stroke="midnightblue" points="145.723,-127.33 149.839,-117.567 140.534,-122.632 145.723,-127.33"/>
</g>
<!-- Node4 -->
<g id="node4" class="node"><title>Node4</title>
<g id="a_node4"><a xlink:href="namespacetlz.html#ad75d99f2e1623434fbadee66f3ff29a1" target="_top" xlink:title="tlz::import_image_correspondences">
<polygon fill="white" stroke="black" points="283.5,-186.5 283.5,-205.5 454.5,-205.5 454.5,-186.5 283.5,-186.5"/>
<text text-anchor="middle" x="369" y="-193.5" font-family="Helvetica,sans-Serif" font-size="10.00">tlz::import_image_correspondences</text>
</a>
</g>
</g>
<!-- Node3&#45;&gt;Node4 -->
<g id="edge3" class="edge"><title>Node3&#45;&gt;Node4</title>
<path fill="none" stroke="midnightblue" d="M203.494,-232.469C235.907,-225.283 280.534,-215.39 315.13,-207.72"/>
<polygon fill="midnightblue" stroke="midnightblue" points="316.056,-211.1 325.061,-205.519 314.54,-204.266 316.056,-211.1"/>
</g>
<!-- Node14 -->
<g id="node14" class="node"><title>Node14</title>
<g id="a_node14"><a xlink:href="namespacetlz.html#a634de7ca11e100e4a118dffe80376a75" target="_top" xlink:title="tlz::in_filename_arg">
<polygon fill="white" stroke="black" points="318.5,-278.5 318.5,-297.5 419.5,-297.5 419.5,-278.5 318.5,-278.5"/>
<text text-anchor="middle" x="369" y="-285.5" font-family="Helvetica,sans-Serif" font-size="10.00">tlz::in_filename_arg</text>
</a>
</g>
</g>
<!-- Node3&#45;&gt;Node14 -->
<g id="edge15" class="edge"><title>Node3&#45;&gt;Node14</title>
<path fill="none" stroke="midnightblue" d="M203.494,-251.531C235.907,-258.717 280.534,-268.61 315.13,-276.28"/>
<polygon fill="midnightblue" stroke="midnightblue" points="314.54,-279.734 325.061,-278.481 316.056,-272.9 314.54,-279.734"/>
</g>
<!-- Node5 -->
<g id="node5" class="node"><title>Node5</title>
<g id="a_node5"><a xlink:href="namespacetlz.html#ae11c827ac9e581f9d2f98c39aab3750d" target="_top" xlink:title="tlz::file_name_extension">
<polygon fill="white" stroke="black" points="520,-76.5 520,-95.5 642,-95.5 642,-76.5 520,-76.5"/>
<text text-anchor="middle" x="581" y="-83.5" font-family="Helvetica,sans-Serif" font-size="10.00">tlz::file_name_extension</text>
</a>
</g>
</g>
<!-- Node4&#45;&gt;Node5 -->
<g id="edge4" class="edge"><title>Node4&#45;&gt;Node5</title>
<path fill="none" stroke="midnightblue" d="M438.685,-186.393C445.256,-183.701 451.507,-180.297 457,-176 484.869,-154.203 465.013,-126.644 493,-105 498.137,-101.028 503.929,-97.8475 510.025,-95.3062"/>
<polygon fill="midnightblue" stroke="midnightblue" points="511.56,-98.4746 519.802,-91.8168 509.207,-91.8818 511.56,-98.4746"/>
</g>
<!-- Node6 -->
<g id="node6" class="node"><title>Node6</title>
<g id="a_node6"><a xlink:href="namespacetlz.html#a24915249769d936c24ceb34f50b06104" target="_top" xlink:title="tlz::decode_image_correspondences">
<polygon fill="white" stroke="black" points="493,-114.5 493,-133.5 669,-133.5 669,-114.5 493,-114.5"/>
<text text-anchor="middle" x="581" y="-121.5" font-family="Helvetica,sans-Serif" font-size="10.00">tlz::decode_image_correspondences</text>
</a>
</g>
</g>
<!-- Node4&#45;&gt;Node6 -->
<g id="edge5" class="edge"><title>Node4&#45;&gt;Node6</title>
<path fill="none" stroke="midnightblue" d="M430.428,-186.389C439.617,-183.724 448.769,-180.327 457,-176 476.213,-165.901 473.732,-152.994 493,-143 497.6,-140.614 502.486,-138.528 507.505,-136.702"/>
<polygon fill="midnightblue" stroke="midnightblue" points="508.865,-139.94 517.281,-133.505 506.689,-133.287 508.865,-139.94"/>
</g>
<!-- Node12 -->
<g id="node12" class="node"><title>Node12</title>
<g id="a_node12"><a xlink:href="namespacetlz.html#aa1be9362f548fcf9378e1fc9074089c4" target="_top" xlink:title="tlz::import_json_file">
<polygon fill="white" stroke="black" points="530.5,-152.5 530.5,-171.5 631.5,-171.5 631.5,-152.5 530.5,-152.5"/>
<text text-anchor="middle" x="581" y="-159.5" font-family="Helvetica,sans-Serif" font-size="10.00">tlz::import_json_file</text>
</a>
</g>
</g>
<!-- Node4&#45;&gt;Node12 -->
<g id="edge13" class="edge"><title>Node4&#45;&gt;Node12</title>
<path fill="none" stroke="midnightblue" d="M428.776,-186.484C457.431,-181.845 491.824,-176.276 520.566,-171.623"/>
<polygon fill="midnightblue" stroke="midnightblue" points="521.166,-175.071 530.478,-170.018 520.047,-168.161 521.166,-175.071"/>
</g>
<!-- Node13 -->
<g id="node13" class="node"><title>Node13</title>
<g id="a_node13"><a xlink:href="namespacetlz.html#a2ec439452fda5eeb03f60715e50fa96a" target="_top" xlink:title="tlz::import_binary\l_image_correspondences">
<polygon fill="white" stroke="black" points="517,-191 517,-221 645,-221 645,-191 517,-191"/>
<text text-anchor="start" x="525" y="-209" font-family="Helvetica,sans-Serif" font-size="10.00">tlz::import_binary</text>
<text text-anchor="middle" x="581" y="-198" font-family="Helvetica,sans-Serif" font-size="10.00">_image_correspondences</text>
</a>
</g>
</g>
<!-- Node4&#45;&gt;Node13 -->
<g id="edge14" class="edge"><title>Node4&#45;&gt;Node13</title>
<path fill="none" stroke="midnightblue" d="M454.507,-200.024C471.779,-200.847 489.821,-201.706 506.664,-202.508"/>
<polygon fill="midnightblue" stroke="midnightblue" points="506.823,-206.019 516.978,-202.999 507.156,-199.027 506.823,-206.019"/>
</g>
<!-- Node7 -->
<g id="node7" class="node"><title>Node7</title>
<g id="a_node7"><a xlink:href="namespacetlz.html#a252af14b9b4ac6502d3e9c5dd8dc90b8" target="_top" xlink:title="tlz::has">
<polygon fill="white" stroke="black" points="1163,-82.5 1163,-101.5 1212,-101.5 1212,-82.5 1163,-82.5"/>
<text text-anchor="middle" x="1187.5" y="-89.5" font-family="Helvetica,sans-Serif" font-size="10.00">tlz::has</text>
</a>
</g>
</g>
<!-- Node6&#45;&gt;Node7 -->
<g id="edge6" class="edge"><title>Node6&#45;&gt;Node7</title>
<path fill="none" stroke="midnightblue" d="M626.395,-133.564C712.895,-152.165 896.832,-191.53 911,-193 964.049,-198.503 979.864,-208.149 1031,-193 1086.94,-176.426 1141.62,-132.693 1168.78,-108.566"/>
<polygon fill="midnightblue" stroke="midnightblue" points="1171.23,-111.066 1176.29,-101.759 1166.53,-105.877 1171.23,-111.066"/>
</g>
<!-- Node8 -->
<g id="node8" class="node"><title>Node8</title>
<g id="a_node8"><a xlink:href="namespacetlz.html#ab83b0eb933afca1abe8ccd3470207691" target="_top" xlink:title="tlz::decode_image_correspondence\l_feature">
<polygon fill="white" stroke="black" points="705,-104 705,-134 875,-134 875,-104 705,-104"/>
<text text-anchor="start" x="713" y="-122" font-family="Helvetica,sans-Serif" font-size="10.00">tlz::decode_image_correspondence</text>
<text text-anchor="middle" x="790" y="-111" font-family="Helvetica,sans-Serif" font-size="10.00">_feature</text>
</a>
</g>
</g>
<!-- Node6&#45;&gt;Node8 -->
<g id="edge7" class="edge"><title>Node6&#45;&gt;Node8</title>
<path fill="none" stroke="midnightblue" d="M669.187,-121.894C677.592,-121.691 686.144,-121.484 694.614,-121.28"/>
<polygon fill="midnightblue" stroke="midnightblue" points="694.978,-124.772 704.89,-121.032 694.809,-117.774 694.978,-124.772"/>
</g>
<!-- Node8&#45;&gt;Node7 -->
<g id="edge8" class="edge"><title>Node8&#45;&gt;Node7</title>
<path fill="none" stroke="midnightblue" d="M828.375,-103.862C842.984,-97.8316 859.84,-90.7336 875,-84 891.171,-76.8176 893.735,-70.8716 911,-67 1004.71,-45.9866 1032.62,-55.263 1127,-73 1135.66,-74.6266 1144.81,-77.1335 1153.27,-79.7984"/>
<polygon fill="midnightblue" stroke="midnightblue" points="1152.22,-83.1387 1162.82,-82.9561 1154.42,-76.4928 1152.22,-83.1387"/>
</g>
<!-- Node9 -->
<g id="node9" class="node"><title>Node9</title>
<g id="a_node9"><a xlink:href="namespacetlz.html#a74e8454f97dace7cffb1afdb6d3ca87b" target="_top" xlink:title="tlz::decode_view_index">
<polygon fill="white" stroke="black" points="911.5,-126.5 911.5,-145.5 1030.5,-145.5 1030.5,-126.5 911.5,-126.5"/>
<text text-anchor="middle" x="971" y="-133.5" font-family="Helvetica,sans-Serif" font-size="10.00">tlz::decode_view_index</text>
</a>
</g>
</g>
<!-- Node8&#45;&gt;Node9 -->
<g id="edge9" class="edge"><title>Node8&#45;&gt;Node9</title>
<path fill="none" stroke="midnightblue" d="M875.259,-127.002C883.961,-127.829 892.731,-128.662 901.236,-129.469"/>
<polygon fill="midnightblue" stroke="midnightblue" points="901.17,-132.979 911.456,-130.44 901.832,-126.01 901.17,-132.979"/>
</g>
<!-- Node10 -->
<g id="node10" class="node"><title>Node10</title>
<g id="a_node10"><a xlink:href="namespacetlz.html#ae8f9175a86bbe49ac0f4485d5db3080b" target="_top" xlink:title="tlz::decode_feature\l_point">
<polygon fill="white" stroke="black" points="921,-77 921,-107 1021,-107 1021,-77 921,-77"/>
<text text-anchor="start" x="929" y="-95" font-family="Helvetica,sans-Serif" font-size="10.00">tlz::decode_feature</text>
<text text-anchor="middle" x="971" y="-84" font-family="Helvetica,sans-Serif" font-size="10.00">_point</text>
</a>
</g>
</g>
<!-- Node8&#45;&gt;Node10 -->
<g id="edge10" class="edge"><title>Node8&#45;&gt;Node10</title>
<path fill="none" stroke="midnightblue" d="M875.259,-106.291C887.2,-104.489 899.266,-102.669 910.602,-100.959"/>
<polygon fill="midnightblue" stroke="midnightblue" points="911.418,-104.376 920.784,-99.4236 910.374,-97.4544 911.418,-104.376"/>
</g>
<!-- Node11 -->
<g id="node11" class="node"><title>Node11</title>
<g id="a_node11"><a xlink:href="namespacetlz.html#add846dc50c32dfb356cb1a7ac11d37ac" target="_top" xlink:title="tlz::get_or">
<polygon fill="white" stroke="black" points="1067,-82.5 1067,-101.5 1127,-101.5 1127,-82.5 1067,-82.5"/>
<text text-anchor="middle" x="1097" y="-89.5" font-family="Helvetica,sans-Serif" font-size="10.00">tlz::get_or</text>
</a>
</g>
</g>
<!-- Node10&#45;&gt;Node11 -->
<g id="edge11" class="edge"><title>Node10&#45;&gt;Node11</title>
<path fill="none" stroke="midnightblue" d="M1021.01,-92C1032.93,-92 1045.52,-92 1056.91,-92"/>
<polygon fill="midnightblue" stroke="midnightblue" points="1056.98,-95.5001 1066.98,-92 1056.98,-88.5001 1056.98,-95.5001"/>
</g>
<!-- Node11&#45;&gt;Node7 -->
<g id="edge12" class="edge"><title>Node11&#45;&gt;Node7</title>
<path fill="none" stroke="midnightblue" d="M1127.47,-92C1135.53,-92 1144.33,-92 1152.62,-92"/>
<polygon fill="midnightblue" stroke="midnightblue" points="1152.74,-95.5001 1162.74,-92 1152.74,-88.5001 1152.74,-95.5001"/>
</g>
<!-- Node15 -->
<g id="node15" class="node"><title>Node15</title>
<g id="a_node15"><a xlink:href="namespacetlz.html#a0621d598fb83b13bf028f3e6293d04f8" target="_top" xlink:title="tlz::string_arg">
<polygon fill="white" stroke="black" points="543,-354.5 543,-373.5 619,-373.5 619,-354.5 543,-354.5"/>
<text text-anchor="middle" x="581" y="-361.5" font-family="Helvetica,sans-Serif" font-size="10.00">tlz::string_arg</text>
</a>
</g>
</g>
<!-- Node14&#45;&gt;Node15 -->
<g id="edge16" class="edge"><title>Node14&#45;&gt;Node15</title>
<path fill="none" stroke="midnightblue" d="M390.569,-297.675C414.736,-308.813 456.21,-327.21 493,-340 505.855,-344.469 520.002,-348.668 533.085,-352.266"/>
<polygon fill="midnightblue" stroke="midnightblue" points="532.276,-355.673 542.843,-354.895 534.097,-348.914 532.276,-355.673"/>
</g>
<!-- Node16 -->
<g id="node16" class="node"><title>Node16</title>
<g id="a_node16"><a xlink:href="namespacetlz.html#a780431daab8d2595372eacb43143b52d" target="_top" xlink:title="tlz::args">
<polygon fill="white" stroke="black" points="764,-316.5 764,-335.5 816,-335.5 816,-316.5 764,-316.5"/>
<text text-anchor="middle" x="790" y="-323.5" font-family="Helvetica,sans-Serif" font-size="10.00">tlz::args</text>
</a>
</g>
</g>
<!-- Node14&#45;&gt;Node16 -->
<g id="edge22" class="edge"><title>Node14&#45;&gt;Node16</title>
<path fill="none" stroke="midnightblue" d="M419.54,-296.683C441.918,-300.339 468.728,-304.352 493,-307 587.019,-317.258 698.488,-322.577 753.975,-324.763"/>
<polygon fill="midnightblue" stroke="midnightblue" points="753.86,-328.261 763.987,-325.148 754.128,-321.267 753.86,-328.261"/>
</g>
<!-- Node18 -->
<g id="node18" class="node"><title>Node18</title>
<g id="a_node18"><a xlink:href="classtlz_1_1args__list.html#a38ad21acd64a4af98ffdf4a47837cdbe" target="_top" xlink:title="tlz::args_list::usage_fail">
<polygon fill="white" stroke="black" points="911,-297.5 911,-316.5 1031,-316.5 1031,-297.5 911,-297.5"/>
<text text-anchor="middle" x="971" y="-304.5" font-family="Helvetica,sans-Serif" font-size="10.00">tlz::args_list::usage_fail</text>
</a>
</g>
</g>
<!-- Node14&#45;&gt;Node18 -->
<g id="edge23" class="edge"><title>Node14&#45;&gt;Node18</title>
<path fill="none" stroke="midnightblue" d="M419.77,-278.537C442.074,-274.756 468.763,-270.861 493,-269 641.898,-257.568 816.882,-280.927 907.9,-295.855"/>
<polygon fill="midnightblue" stroke="midnightblue" points="907.338,-299.309 917.776,-297.496 908.485,-292.404 907.338,-299.309"/>
</g>
<!-- Node20 -->
<g id="node20" class="node"><title>Node20</title>
<g id="a_node20"><a xlink:href="namespacetlz.html#abb019466ea9f56c0dab27e893d891837" target="_top" xlink:title="tlz::file_exists">
<polygon fill="white" stroke="black" points="542.5,-278.5 542.5,-297.5 619.5,-297.5 619.5,-278.5 542.5,-278.5"/>
<text text-anchor="middle" x="581" y="-285.5" font-family="Helvetica,sans-Serif" font-size="10.00">tlz::file_exists</text>
</a>
</g>
</g>
<!-- Node14&#45;&gt;Node20 -->
<g id="edge21" class="edge"><title>Node14&#45;&gt;Node20</title>
<path fill="none" stroke="midnightblue" d="M419.501,-288C453.568,-288 498.572,-288 532.254,-288"/>
<polygon fill="midnightblue" stroke="midnightblue" points="532.319,-291.5 542.319,-288 532.319,-284.5 532.319,-291.5"/>
</g>
<!-- Node15&#45;&gt;Node16 -->
<g id="edge17" class="edge"><title>Node15&#45;&gt;Node16</title>
<path fill="none" stroke="midnightblue" d="M619.007,-357.206C657.168,-350.201 716.241,-339.357 753.746,-332.472"/>
<polygon fill="midnightblue" stroke="midnightblue" points="754.513,-335.89 763.716,-330.641 753.249,-329.005 754.513,-335.89"/>
</g>
<!-- Node17 -->
<g id="node17" class="node"><title>Node17</title>
<g id="a_node17"><a xlink:href="classtlz_1_1args__list.html#a73d99bc75998dc14607a3a372d28dc6d" target="_top" xlink:title="tlz::args_list::next_arg">
<polygon fill="white" stroke="black" points="733.5,-354.5 733.5,-373.5 846.5,-373.5 846.5,-354.5 733.5,-354.5"/>
<text text-anchor="middle" x="790" y="-361.5" font-family="Helvetica,sans-Serif" font-size="10.00">tlz::args_list::next_arg</text>
</a>
</g>
</g>
<!-- Node15&#45;&gt;Node17 -->
<g id="edge18" class="edge"><title>Node15&#45;&gt;Node17</title>
<path fill="none" stroke="midnightblue" d="M619.007,-364C647.778,-364 688.437,-364 722.777,-364"/>
<polygon fill="midnightblue" stroke="midnightblue" points="723.211,-367.5 733.211,-364 723.211,-360.5 723.211,-367.5"/>
</g>
<!-- Node17&#45;&gt;Node18 -->
<g id="edge19" class="edge"><title>Node17&#45;&gt;Node18</title>
<path fill="none" stroke="midnightblue" d="M839.322,-354.443C851.092,-351.739 863.578,-348.552 875,-345 896.999,-338.159 921.09,-328.497 939.507,-320.628"/>
<polygon fill="midnightblue" stroke="midnightblue" points="941.057,-323.771 948.843,-316.585 938.275,-317.347 941.057,-323.771"/>
</g>
<!-- Node19 -->
<g id="node19" class="node"><title>Node19</title>
<g id="a_node19"><a xlink:href="namespacetlz.html#a8e4f8c8c2927bc4350de13bfa0f8f9e1" target="_top" xlink:title="tlz::to_string">
<polygon fill="white" stroke="black" points="935.5,-164.5 935.5,-183.5 1006.5,-183.5 1006.5,-164.5 935.5,-164.5"/>
<text text-anchor="middle" x="971" y="-171.5" font-family="Helvetica,sans-Serif" font-size="10.00">tlz::to_string</text>
</a>
</g>
</g>
<!-- Node17&#45;&gt;Node19 -->
<g id="edge20" class="edge"><title>Node17&#45;&gt;Node19</title>
<path fill="none" stroke="midnightblue" d="M846.767,-358.3C856.836,-355.418 866.744,-351.186 875,-345 881.871,-339.852 937.178,-236.11 960.102,-192.771"/>
<polygon fill="midnightblue" stroke="midnightblue" points="963.255,-194.295 964.831,-183.818 957.066,-191.025 963.255,-194.295"/>
</g>
<!-- Node21&#45;&gt;Node15 -->
<g id="edge25" class="edge"><title>Node21&#45;&gt;Node15</title>
<path fill="none" stroke="midnightblue" d="M203.015,-289.56C236.098,-296.994 277.051,-306.181 281,-307 369.597,-325.366 473.433,-344.662 532.492,-355.429"/>
<polygon fill="midnightblue" stroke="midnightblue" points="532.168,-358.927 542.633,-357.274 533.421,-352.04 532.168,-358.927"/>
</g>
<!-- Node22&#45;&gt;Node5 -->
<g id="edge27" class="edge"><title>Node22&#45;&gt;Node5</title>
<path fill="none" stroke="midnightblue" d="M245.14,-103.561C322.973,-99.4794 437.026,-93.498 509.888,-89.6769"/>
<polygon fill="midnightblue" stroke="midnightblue" points="510.084,-93.1715 519.887,-89.1525 509.718,-86.1811 510.084,-93.1715"/>
</g>
<!-- Node23 -->
<g id="node23" class="node"><title>Node23</title>
<g id="a_node23"><a xlink:href="namespacetlz.html#ab98de0b10e3e079dee189f81adc638a0" target="_top" xlink:title="tlz::export_json_file">
<polygon fill="white" stroke="black" points="318.5,-60.5 318.5,-79.5 419.5,-79.5 419.5,-60.5 318.5,-60.5"/>
<text text-anchor="middle" x="369" y="-67.5" font-family="Helvetica,sans-Serif" font-size="10.00">tlz::export_json_file</text>
</a>
</g>
</g>
<!-- Node22&#45;&gt;Node23 -->
<g id="edge28" class="edge"><title>Node22&#45;&gt;Node23</title>
<path fill="none" stroke="midnightblue" d="M212.593,-98.46C241.715,-93.127 278.126,-86.4588 308.383,-80.9179"/>
<polygon fill="midnightblue" stroke="midnightblue" points="309.182,-84.3297 318.388,-79.0855 307.921,-77.4442 309.182,-84.3297"/>
</g>
<!-- Node24 -->
<g id="node24" class="node"><title>Node24</title>
<g id="a_node24"><a xlink:href="namespacetlz.html#a5425610b090d56218f8a7272ba402bfb" target="_top" xlink:title="tlz::encode_image_correspondences">
<polygon fill="white" stroke="black" points="281,-22.5 281,-41.5 457,-41.5 457,-22.5 281,-22.5"/>
<text text-anchor="middle" x="369" y="-29.5" font-family="Helvetica,sans-Serif" font-size="10.00">tlz::encode_image_correspondences</text>
</a>
</g>
</g>
<!-- Node22&#45;&gt;Node24 -->
<g id="edge30" class="edge"><title>Node22&#45;&gt;Node24</title>
<path fill="none" stroke="midnightblue" d="M177.543,-98.4152C200.432,-85.9027 242.665,-64.0633 281,-51 288.699,-48.3765 296.907,-46.0289 305.091,-43.9545"/>
<polygon fill="midnightblue" stroke="midnightblue" points="306.125,-47.3058 315.026,-41.5596 304.484,-40.5008 306.125,-47.3058"/>
</g>
<!-- Node29 -->
<g id="node29" class="node"><title>Node29</title>
<g id="a_node29"><a xlink:href="namespacetlz.html#a24bb23db2319f38046e6de526a0cb20e" target="_top" xlink:title="tlz::export_binary\l_image_correspondences">
<polygon fill="white" stroke="black" points="305,-137 305,-167 433,-167 433,-137 305,-137"/>
<text text-anchor="start" x="313" y="-155" font-family="Helvetica,sans-Serif" font-size="10.00">tlz::export_binary</text>
<text text-anchor="middle" x="369" y="-144" font-family="Helvetica,sans-Serif" font-size="10.00">_image_correspondences</text>
</a>
</g>
</g>
<!-- Node22&#45;&gt;Node29 -->
<g id="edge36" class="edge"><title>Node22&#45;&gt;Node29</title>
<path fill="none" stroke="midnightblue" d="M205.524,-117.547C231.654,-123.088 265.194,-130.2 295.008,-136.522"/>
<polygon fill="midnightblue" stroke="midnightblue" points="294.451,-139.982 304.96,-138.632 295.903,-133.134 294.451,-139.982"/>
</g>
<!-- Node23&#45;&gt;Node5 -->
<g id="edge29" class="edge"><title>Node23&#45;&gt;Node5</title>
<path fill="none" stroke="midnightblue" d="M419.501,-73.7715C446.402,-75.8211 480.123,-78.3903 509.704,-80.6441"/>
<polygon fill="midnightblue" stroke="midnightblue" points="509.739,-84.1568 519.976,-81.4268 510.271,-77.1771 509.739,-84.1568"/>
</g>
<!-- Node25 -->
<g id="node25" class="node"><title>Node25</title>
<g id="a_node25"><a xlink:href="namespacetlz.html#aa875dcb2a47f0a406887a14c6f515bfd" target="_top" xlink:title="tlz::encode_image_correspondence\l_feature">
<polygon fill="white" stroke="black" points="496,-17 496,-47 666,-47 666,-17 496,-17"/>
<text text-anchor="start" x="504" y="-35" font-family="Helvetica,sans-Serif" font-size="10.00">tlz::encode_image_correspondence</text>
<text text-anchor="middle" x="581" y="-24" font-family="Helvetica,sans-Serif" font-size="10.00">_feature</text>
</a>
</g>
</g>
<!-- Node24&#45;&gt;Node25 -->
<g id="edge31" class="edge"><title>Node24&#45;&gt;Node25</title>
<path fill="none" stroke="midnightblue" d="M457.235,-32C466.586,-32 476.131,-32 485.561,-32"/>
<polygon fill="midnightblue" stroke="midnightblue" points="485.735,-35.5001 495.735,-32 485.735,-28.5001 485.735,-35.5001"/>
</g>
<!-- Node26 -->
<g id="node26" class="node"><title>Node26</title>
<g id="a_node26"><a xlink:href="namespacetlz.html#aadab29bdc80bc1d0ad6d3784dd427992" target="_top" xlink:title="tlz::encode_view_index">
<polygon fill="white" stroke="black" points="730.5,-6.5 730.5,-25.5 849.5,-25.5 849.5,-6.5 730.5,-6.5"/>
<text text-anchor="middle" x="790" y="-13.5" font-family="Helvetica,sans-Serif" font-size="10.00">tlz::encode_view_index</text>
</a>
</g>
</g>
<!-- Node25&#45;&gt;Node26 -->
<g id="edge32" class="edge"><title>Node25&#45;&gt;Node26</title>
<path fill="none" stroke="midnightblue" d="M666.195,-25.4922C684.16,-24.1036 702.929,-22.6528 720.234,-21.3153"/>
<polygon fill="midnightblue" stroke="midnightblue" points="720.535,-24.8025 730.236,-20.5422 719.996,-17.8233 720.535,-24.8025"/>
</g>
<!-- Node28 -->
<g id="node28" class="node"><title>Node28</title>
<g id="a_node28"><a xlink:href="namespacetlz.html#a8f6c31dc4b1dffe7950bcb1f4ff85cbc" target="_top" xlink:title="tlz::encode_feature\l_point">
<polygon fill="white" stroke="black" points="740,-45 740,-75 840,-75 840,-45 740,-45"/>
<text text-anchor="start" x="748" y="-63" font-family="Helvetica,sans-Serif" font-size="10.00">tlz::encode_feature</text>
<text text-anchor="middle" x="790" y="-52" font-family="Helvetica,sans-Serif" font-size="10.00">_point</text>
</a>
</g>
</g>
<!-- Node25&#45;&gt;Node28 -->
<g id="edge35" class="edge"><title>Node25&#45;&gt;Node28</title>
<path fill="none" stroke="midnightblue" d="M666.195,-43.3887C687.546,-46.2767 710.033,-49.3185 729.847,-51.9986"/>
<polygon fill="midnightblue" stroke="midnightblue" points="729.565,-55.4923 739.944,-53.3644 730.503,-48.5554 729.565,-55.4923"/>
</g>
<!-- Node26&#45;&gt;Node19 -->
<g id="edge33" class="edge"><title>Node26&#45;&gt;Node19</title>
<path fill="none" stroke="midnightblue" d="M849.639,-20.8739C858.983,-23.8805 867.895,-28.3691 875,-35 915.708,-72.9911 872.025,-115.234 911,-155 915.198,-159.283 920.365,-162.602 925.879,-165.173"/>
<polygon fill="midnightblue" stroke="midnightblue" points="924.789,-168.504 935.379,-168.833 927.306,-161.972 924.789,-168.504"/>
</g>
<!-- Node27 -->
<g id="node27" class="node"><title>Node27</title>
<g id="a_node27"><a xlink:href="structtlz_1_1view__index.html#a20518c30015d833cdb2a69b524886b96" target="_top" xlink:title="tlz::view_index::is_2d">
<polygon fill="white" stroke="black" points="915.5,-0.5 915.5,-19.5 1026.5,-19.5 1026.5,-0.5 915.5,-0.5"/>
<text text-anchor="middle" x="971" y="-7.5" font-family="Helvetica,sans-Serif" font-size="10.00">tlz::view_index::is_2d</text>
</a>
</g>
</g>
<!-- Node26&#45;&gt;Node27 -->
<g id="edge34" class="edge"><title>Node26&#45;&gt;Node27</title>
<path fill="none" stroke="midnightblue" d="M849.611,-14.0354C867.337,-13.4412 886.905,-12.7853 905.021,-12.1781"/>
<polygon fill="midnightblue" stroke="midnightblue" points="905.326,-15.6699 915.203,-11.8368 905.092,-8.67382 905.326,-15.6699"/>
</g>
</g>
</svg>
