<?xml version="1.0" encoding="UTF-8" standalone="no"?>
<!DOCTYPE svg PUBLIC "-//W3C//DTD SVG 1.1//EN"
 "http://www.w3.org/Graphics/SVG/1.1/DTD/svg11.dtd">
<!-- Generated by graphviz version 2.38.0 (20140413.2041)
 -->
<!-- Title: main Pages: 1 -->
<svg width="652pt" height="208pt"
 viewBox="0.00 0.00 652.00 208.00" xmlns="http://www.w3.org/2000/svg" xmlns:xlink="http://www.w3.org/1999/xlink">
<g id="graph0" class="graph" transform="scale(1 1) rotate(0) translate(4 204)">
<title>main</title>
<polygon fill="white" stroke="none" points="-4,4 -4,-204 648,-204 648,4 -4,4"/>
<!-- Node1 -->
<g id="node1" class="node"><title>Node1</title>
<polygon fill="#bfbfbf" stroke="black" points="0,-104.5 0,-123.5 38,-123.5 38,-104.5 0,-104.5"/>
<text text-anchor="middle" x="19" y="-111.5" font-family="Helvetica,sans-Serif" font-size="10.00">main</text>
</g>
<!-- Node2 -->
<g id="node2" class="node"><title>Node2</title>
<g id="a_node2"><a xlink:href="namespacetlz.html#a3c03f5d9d6261ec2909938822fc47f8a" target="_top" xlink:title="tlz::get_args">
<polygon fill="white" stroke="black" points="92,-180.5 92,-199.5 163,-199.5 163,-180.5 92,-180.5"/>
<text text-anchor="middle" x="127.5" y="-187.5" font-family="Helvetica,sans-Serif" font-size="10.00">tlz::get_args</text>
</a>
</g>
</g>
<!-- Node1&#45;&gt;Node2 -->
<g id="edge1" class="edge"><title>Node1&#45;&gt;Node2</title>
<path fill="none" stroke="midnightblue" d="M26.9645,-123.798C36.342,-136.342 54.1579,-158.005 74,-171 76.9686,-172.944 80.1618,-174.721 83.4546,-176.338"/>
<polygon fill="midnightblue" stroke="midnightblue" points="82.3312,-179.667 92.8947,-180.481 85.1443,-173.257 82.3312,-179.667"/>
</g>
<!-- Node3 -->
<g id="node3" class="node"><title>Node3</title>
<g id="a_node3"><a xlink:href="namespacetlz.html#a634de7ca11e100e4a118dffe80376a75" target="_top" xlink:title="tlz::in_filename_arg">
<polygon fill="white" stroke="black" points="77,-104.5 77,-123.5 178,-123.5 178,-104.5 77,-104.5"/>
<text text-anchor="middle" x="127.5" y="-111.5" font-family="Helvetica,sans-Serif" font-size="10.00">tlz::in_filename_arg</text>
</a>
</g>
</g>
<!-- Node1&#45;&gt;Node3 -->
<g id="edge2" class="edge"><title>Node1&#45;&gt;Node3</title>
<path fill="none" stroke="midnightblue" d="M38.0663,-114C46.1614,-114 56.22,-114 66.6214,-114"/>
<polygon fill="midnightblue" stroke="midnightblue" points="66.646,-117.5 76.646,-114 66.6459,-110.5 66.646,-117.5"/>
</g>
<!-- Node10 -->
<g id="node10" class="node"><title>Node10</title>
<g id="a_node10"><a xlink:href="namespacetlz.html#a65770a2c1ff57c5ae6542d4465a3d3f4" target="_top" xlink:title="tlz::out_filename_arg">
<polygon fill="white" stroke="black" points="74,-142.5 74,-161.5 181,-161.5 181,-142.5 74,-142.5"/>
<text text-anchor="middle" x="127.5" y="-149.5" font-family="Helvetica,sans-Serif" font-size="10.00">tlz::out_filename_arg</text>
</a>
</g>
</g>
<!-- Node1&#45;&gt;Node10 -->
<g id="edge11" class="edge"><title>Node1&#45;&gt;Node10</title>
<path fill="none" stroke="midnightblue" d="M38.0663,-120.446C52.1553,-125.473 72.1921,-132.623 89.6317,-138.845"/>
<polygon fill="midnightblue" stroke="midnightblue" points="88.9406,-142.315 99.5352,-142.379 91.293,-135.722 88.9406,-142.315"/>
</g>
<!-- Node11 -->
<g id="node11" class="node"><title>Node11</title>
<g id="a_node11"><a xlink:href="namespacetlz.html#aa1be9362f548fcf9378e1fc9074089c4" target="_top" xlink:title="tlz::import_json_file">
<polygon fill="white" stroke="black" points="77,-66.5 77,-85.5 178,-85.5 178,-66.5 77,-66.5"/>
<text text-anchor="middle" x="127.5" y="-73.5" font-family="Helvetica,sans-Serif" font-size="10.00">tlz::import_json_file</text>
</a>
</g>
</g>
<!-- Node1&#45;&gt;Node11 -->
<g id="edge13" class="edge"><title>Node1&#45;&gt;Node11</title>
<path fill="none" stroke="midnightblue" d="M38.0663,-107.554C52.1553,-102.527 72.1921,-95.3775 89.6317,-89.1549"/>
<polygon fill="midnightblue" stroke="midnightblue" points="91.293,-92.2783 99.5352,-85.6212 88.9406,-85.6854 91.293,-92.2783"/>
</g>
<!-- Node12 -->
<g id="node12" class="node"><title>Node12</title>
<g id="a_node12"><a xlink:href="namespacetlz.html#ab98de0b10e3e079dee189f81adc638a0" target="_top" xlink:title="tlz::export_json_file">
<polygon fill="white" stroke="black" points="77,-19.5 77,-38.5 178,-38.5 178,-19.5 77,-19.5"/>
<text text-anchor="middle" x="127.5" y="-26.5" font-family="Helvetica,sans-Serif" font-size="10.00">tlz::export_json_file</text>
</a>
</g>
</g>
<!-- Node1&#45;&gt;Node12 -->
<g id="edge14" class="edge"><title>Node1&#45;&gt;Node12</title>
<path fill="none" stroke="midnightblue" d="M27.6031,-104.207C37.3856,-92.057 55.3517,-71.2115 74,-57 80.6434,-51.9372 88.3278,-47.2792 95.7327,-43.2754"/>
<polygon fill="midnightblue" stroke="midnightblue" points="97.5761,-46.263 104.864,-38.5725 94.3708,-40.0399 97.5761,-46.263"/>
</g>
<!-- Node4 -->
<g id="node4" class="node"><title>Node4</title>
<g id="a_node4"><a xlink:href="namespacetlz.html#a0621d598fb83b13bf028f3e6293d04f8" target="_top" xlink:title="tlz::string_arg">
<polygon fill="white" stroke="black" points="240,-152.5 240,-171.5 316,-171.5 316,-152.5 240,-152.5"/>
<text text-anchor="middle" x="278" y="-159.5" font-family="Helvetica,sans-Serif" font-size="10.00">tlz::string_arg</text>
</a>
</g>
</g>
<!-- Node3&#45;&gt;Node4 -->
<g id="edge3" class="edge"><title>Node3&#45;&gt;Node4</title>
<path fill="none" stroke="midnightblue" d="M158.194,-123.598C181.059,-130.989 212.869,-141.271 237.821,-149.336"/>
<polygon fill="midnightblue" stroke="midnightblue" points="236.765,-152.673 247.357,-152.418 238.918,-146.012 236.765,-152.673"/>
</g>
<!-- Node5 -->
<g id="node5" class="node"><title>Node5</title>
<g id="a_node5"><a xlink:href="namespacetlz.html#a780431daab8d2595372eacb43143b52d" target="_top" xlink:title="tlz::args">
<polygon fill="white" stroke="black" points="405.5,-114.5 405.5,-133.5 457.5,-133.5 457.5,-114.5 405.5,-114.5"/>
<text text-anchor="middle" x="431.5" y="-121.5" font-family="Helvetica,sans-Serif" font-size="10.00">tlz::args</text>
</a>
</g>
</g>
<!-- Node3&#45;&gt;Node5 -->
<g id="edge9" class="edge"><title>Node3&#45;&gt;Node5</title>
<path fill="none" stroke="midnightblue" d="M178.031,-115.64C239.214,-117.666 341.762,-121.062 395.396,-122.838"/>
<polygon fill="midnightblue" stroke="midnightblue" points="395.333,-126.337 405.444,-123.17 395.565,-119.341 395.333,-126.337"/>
</g>
<!-- Node7 -->
<g id="node7" class="node"><title>Node7</title>
<g id="a_node7"><a xlink:href="classtlz_1_1args__list.html#a38ad21acd64a4af98ffdf4a47837cdbe" target="_top" xlink:title="tlz::args_list::usage_fail">
<polygon fill="white" stroke="black" points="524,-95.5 524,-114.5 644,-114.5 644,-95.5 524,-95.5"/>
<text text-anchor="middle" x="584" y="-102.5" font-family="Helvetica,sans-Serif" font-size="10.00">tlz::args_list::usage_fail</text>
</a>
</g>
</g>
<!-- Node3&#45;&gt;Node7 -->
<g id="edge10" class="edge"><title>Node3&#45;&gt;Node7</title>
<path fill="none" stroke="midnightblue" d="M178.06,-111.659C227.826,-109.433 306.708,-106.246 375,-105 421.265,-104.156 473.329,-104.157 513.794,-104.368"/>
<polygon fill="midnightblue" stroke="midnightblue" points="513.801,-107.868 523.821,-104.426 513.842,-100.868 513.801,-107.868"/>
</g>
<!-- Node9 -->
<g id="node9" class="node"><title>Node9</title>
<g id="a_node9"><a xlink:href="namespacetlz.html#abb019466ea9f56c0dab27e893d891837" target="_top" xlink:title="tlz::file_exists">
<polygon fill="white" stroke="black" points="239.5,-38.5 239.5,-57.5 316.5,-57.5 316.5,-38.5 239.5,-38.5"/>
<text text-anchor="middle" x="278" y="-45.5" font-family="Helvetica,sans-Serif" font-size="10.00">tlz::file_exists</text>
</a>
</g>
</g>
<!-- Node3&#45;&gt;Node9 -->
<g id="edge8" class="edge"><title>Node3&#45;&gt;Node9</title>
<path fill="none" stroke="midnightblue" d="M158.41,-104.469C165.922,-101.726 173.87,-98.5136 181,-95 198.031,-86.6069 200.111,-80.6752 217,-72 224.45,-68.1735 232.656,-64.5378 240.545,-61.3072"/>
<polygon fill="midnightblue" stroke="midnightblue" points="241.933,-64.5221 249.938,-57.5817 239.352,-58.0152 241.933,-64.5221"/>
</g>
<!-- Node4&#45;&gt;Node5 -->
<g id="edge4" class="edge"><title>Node4&#45;&gt;Node5</title>
<path fill="none" stroke="midnightblue" d="M316.061,-152.704C340.174,-146.656 371.438,-138.814 395.193,-132.856"/>
<polygon fill="midnightblue" stroke="midnightblue" points="396.35,-136.174 405.198,-130.346 394.647,-129.384 396.35,-136.174"/>
</g>
<!-- Node6 -->
<g id="node6" class="node"><title>Node6</title>
<g id="a_node6"><a xlink:href="classtlz_1_1args__list.html#a73d99bc75998dc14607a3a372d28dc6d" target="_top" xlink:title="tlz::args_list::next_arg">
<polygon fill="white" stroke="black" points="375,-152.5 375,-171.5 488,-171.5 488,-152.5 375,-152.5"/>
<text text-anchor="middle" x="431.5" y="-159.5" font-family="Helvetica,sans-Serif" font-size="10.00">tlz::args_list::next_arg</text>
</a>
</g>
</g>
<!-- Node4&#45;&gt;Node6 -->
<g id="edge5" class="edge"><title>Node4&#45;&gt;Node6</title>
<path fill="none" stroke="midnightblue" d="M316.061,-162C330.715,-162 348.009,-162 364.655,-162"/>
<polygon fill="midnightblue" stroke="midnightblue" points="364.905,-165.5 374.905,-162 364.905,-158.5 364.905,-165.5"/>
</g>
<!-- Node6&#45;&gt;Node7 -->
<g id="edge6" class="edge"><title>Node6&#45;&gt;Node7</title>
<path fill="none" stroke="midnightblue" d="M461.404,-152.415C469.995,-149.482 479.406,-146.187 488,-143 509.035,-135.198 532.438,-125.845 550.752,-118.37"/>
<polygon fill="midnightblue" stroke="midnightblue" points="552.165,-121.574 560.09,-114.542 549.51,-115.097 552.165,-121.574"/>
</g>
<!-- Node8 -->
<g id="node8" class="node"><title>Node8</title>
<g id="a_node8"><a xlink:href="namespacetlz.html#a8e4f8c8c2927bc4350de13bfa0f8f9e1" target="_top" xlink:title="tlz::to_string">
<polygon fill="white" stroke="black" points="548.5,-152.5 548.5,-171.5 619.5,-171.5 619.5,-152.5 548.5,-152.5"/>
<text text-anchor="middle" x="584" y="-159.5" font-family="Helvetica,sans-Serif" font-size="10.00">tlz::to_string</text>
</a>
</g>
</g>
<!-- Node6&#45;&gt;Node8 -->
<g id="edge7" class="edge"><title>Node6&#45;&gt;Node8</title>
<path fill="none" stroke="midnightblue" d="M488.113,-162C504.441,-162 522.096,-162 537.698,-162"/>
<polygon fill="midnightblue" stroke="midnightblue" points="538.13,-165.5 548.13,-162 538.129,-158.5 538.13,-165.5"/>
</g>
<!-- Node10&#45;&gt;Node4 -->
<g id="edge12" class="edge"><title>Node10&#45;&gt;Node4</title>
<path fill="none" stroke="midnightblue" d="M181.274,-155.554C196.988,-156.612 214.107,-157.765 229.466,-158.799"/>
<polygon fill="midnightblue" stroke="midnightblue" points="229.566,-162.314 239.779,-159.494 230.036,-155.329 229.566,-162.314"/>
</g>
<!-- Node13 -->
<g id="node13" class="node"><title>Node13</title>
<g id="a_node13"><a xlink:href="namespacetlz.html#ae11c827ac9e581f9d2f98c39aab3750d" target="_top" xlink:title="tlz::file_name_extension">
<polygon fill="white" stroke="black" points="217,-0.5 217,-19.5 339,-19.5 339,-0.5 217,-0.5"/>
<text text-anchor="middle" x="278" y="-7.5" font-family="Helvetica,sans-Serif" font-size="10.00">tlz::file_name_extension</text>
</a>
</g>
</g>
<!-- Node12&#45;&gt;Node13 -->
<g id="edge15" class="edge"><title>Node12&#45;&gt;Node13</title>
<path fill="none" stroke="midnightblue" d="M178.361,-22.6204C187.554,-21.4442 197.308,-20.1963 206.967,-18.9605"/>
<polygon fill="midnightblue" stroke="midnightblue" points="207.495,-22.4215 216.97,-17.6806 206.606,-15.4781 207.495,-22.4215"/>
</g>
</g>
</svg>
