<?xml version="1.0" encoding="UTF-8" standalone="no"?>
<!DOCTYPE svg PUBLIC "-//W3C//DTD SVG 1.1//EN"
 "http://www.w3.org/Graphics/SVG/1.1/DTD/svg11.dtd">
<!-- Generated by graphviz version 2.38.0 (20140413.2041)
 -->
<!-- Title: main Pages: 1 -->
<svg width="1202pt" height="329pt"
 viewBox="0.00 0.00 1202.00 328.50" xmlns="http://www.w3.org/2000/svg" xmlns:xlink="http://www.w3.org/1999/xlink">
<g id="graph0" class="graph" transform="scale(1 1) rotate(0) translate(4 324.5)">
<title>main</title>
<polygon fill="white" stroke="none" points="-4,4 -4,-324.5 1198,-324.5 1198,4 -4,4"/>
<!-- Node1 -->
<g id="node1" class="node"><title>Node1</title>
<polygon fill="#bfbfbf" stroke="black" points="0,-143 0,-162 38,-162 38,-143 0,-143"/>
<text text-anchor="middle" x="19" y="-150" font-family="Helvetica,sans-Serif" font-size="10.00">main</text>
</g>
<!-- Node2 -->
<g id="node2" class="node"><title>Node2</title>
<g id="a_node2"><a xlink:href="namespacetlz.html#a3c03f5d9d6261ec2909938822fc47f8a" target="_top" xlink:title="tlz::get_args">
<polygon fill="white" stroke="black" points="117.5,-263 117.5,-282 188.5,-282 188.5,-263 117.5,-263"/>
<text text-anchor="middle" x="153" y="-270" font-family="Helvetica,sans-Serif" font-size="10.00">tlz::get_args</text>
</a>
</g>
</g>
<!-- Node1&#45;&gt;Node2 -->
<g id="edge1" class="edge"><title>Node1&#45;&gt;Node2</title>
<path fill="none" stroke="midnightblue" d="M22.3494,-162.297C27.752,-182.629 43.0404,-229.503 74,-253.5 83.5426,-260.896 95.5582,-265.463 107.281,-268.267"/>
<polygon fill="midnightblue" stroke="midnightblue" points="106.944,-271.77 117.437,-270.306 108.321,-264.906 106.944,-271.77"/>
</g>
<!-- Node3 -->
<g id="node3" class="node"><title>Node3</title>
<g id="a_node3"><a xlink:href="namespacetlz.html#a91f1aec7120c97452c495ee447e56b57" target="_top" xlink:title="tlz::dataset_arg">
<polygon fill="white" stroke="black" points="111,-225 111,-244 195,-244 195,-225 111,-225"/>
<text text-anchor="middle" x="153" y="-232" font-family="Helvetica,sans-Serif" font-size="10.00">tlz::dataset_arg</text>
</a>
</g>
</g>
<!-- Node1&#45;&gt;Node3 -->
<g id="edge2" class="edge"><title>Node1&#45;&gt;Node3</title>
<path fill="none" stroke="midnightblue" d="M25.6091,-162.274C34.1823,-176.299 51.9016,-201.935 74,-215.5 82.1987,-220.533 91.6466,-224.233 101.074,-226.953"/>
<polygon fill="midnightblue" stroke="midnightblue" points="100.283,-230.363 110.838,-229.448 102.016,-223.581 100.283,-230.363"/>
</g>
<!-- Node11 -->
<g id="node11" class="node"><title>Node11</title>
<g id="a_node11"><a xlink:href="namespacetlz.html#a11d8bb3ca89f4957bfde1cd0d5429a16" target="_top" xlink:title="tlz::image_correspondences_arg">
<polygon fill="white" stroke="black" points="74,-187 74,-206 232,-206 232,-187 74,-187"/>
<text text-anchor="middle" x="153" y="-194" font-family="Helvetica,sans-Serif" font-size="10.00">tlz::image_correspondences_arg</text>
</a>
</g>
</g>
<!-- Node1&#45;&gt;Node11 -->
<g id="edge12" class="edge"><title>Node1&#45;&gt;Node11</title>
<path fill="none" stroke="midnightblue" d="M38.1265,-161.97C48.4386,-167.082 61.712,-173.205 74,-177.5 81.1357,-179.994 88.7487,-182.284 96.3165,-184.345"/>
<polygon fill="midnightblue" stroke="midnightblue" points="95.6358,-187.784 106.195,-186.919 97.4011,-181.011 95.6358,-187.784"/>
</g>
<!-- Node22 -->
<g id="node22" class="node"><title>Node22</title>
<g id="a_node22"><a xlink:href="namespacetlz.html#a4c8ba0cd4f8d2e01c0aa3c58056bd648" target="_top" xlink:title="tlz::get_reference\l_views">
<polygon fill="white" stroke="black" points="107,-137.5 107,-167.5 199,-167.5 199,-137.5 107,-137.5"/>
<text text-anchor="start" x="115" y="-155.5" font-family="Helvetica,sans-Serif" font-size="10.00">tlz::get_reference</text>
<text text-anchor="middle" x="153" y="-144.5" font-family="Helvetica,sans-Serif" font-size="10.00">_views</text>
</a>
</g>
</g>
<!-- Node1&#45;&gt;Node22 -->
<g id="edge26" class="edge"><title>Node1&#45;&gt;Node22</title>
<path fill="none" stroke="midnightblue" d="M38.0773,-152.5C53.247,-152.5 75.7451,-152.5 96.7503,-152.5"/>
<polygon fill="midnightblue" stroke="midnightblue" points="96.9034,-156 106.903,-152.5 96.9033,-149 96.9034,-156"/>
</g>
<!-- Node23 -->
<g id="node23" class="node"><title>Node23</title>
<g id="a_node23"><a xlink:href="namespacetlz.html#ae26f7675ecb867cba4f721a2533bceb6" target="_top" xlink:title="tlz::image_correspondences\l_with_reference">
<polygon fill="white" stroke="black" points="83.5,-88.5 83.5,-118.5 222.5,-118.5 222.5,-88.5 83.5,-88.5"/>
<text text-anchor="start" x="91.5" y="-106.5" font-family="Helvetica,sans-Serif" font-size="10.00">tlz::image_correspondences</text>
<text text-anchor="middle" x="153" y="-95.5" font-family="Helvetica,sans-Serif" font-size="10.00">_with_reference</text>
</a>
</g>
</g>
<!-- Node1&#45;&gt;Node23 -->
<g id="edge27" class="edge"><title>Node1&#45;&gt;Node23</title>
<path fill="none" stroke="midnightblue" d="M38.2884,-143.781C48.6511,-138.99 61.9212,-133.104 74,-128.5 79.9296,-126.24 86.162,-124.008 92.4116,-121.863"/>
<polygon fill="midnightblue" stroke="midnightblue" points="93.8406,-125.075 102.205,-118.573 91.6113,-118.44 93.8406,-125.075"/>
</g>
<!-- Node24 -->
<g id="node24" class="node"><title>Node24</title>
<g id="a_node24"><a xlink:href="classtlz_1_1dataset.html#a8214662ec50b7214c1e5993185247a0a" target="_top" xlink:title="tlz::dataset::indices">
<polygon fill="white" stroke="black" points="102,-50 102,-69 204,-69 204,-50 102,-50"/>
<text text-anchor="middle" x="153" y="-57" font-family="Helvetica,sans-Serif" font-size="10.00">tlz::dataset::indices</text>
</a>
</g>
</g>
<!-- Node1&#45;&gt;Node24 -->
<g id="edge28" class="edge"><title>Node1&#45;&gt;Node24</title>
<path fill="none" stroke="midnightblue" d="M24.4484,-142.783C32.1914,-126.99 49.6757,-95.873 74,-79.5 79.6102,-75.7237 85.8853,-72.6605 92.3737,-70.1756"/>
<polygon fill="midnightblue" stroke="midnightblue" points="93.6246,-73.4475 101.98,-66.9331 91.3859,-66.8151 93.6246,-73.4475"/>
</g>
<!-- Node25 -->
<g id="node25" class="node"><title>Node25</title>
<g id="a_node25"><a xlink:href="namespacetlz.html#abab56a7d5e8f6eba9520c66a15fafa6d" target="_top" xlink:title="tlz::feature_points\l_for_view">
<polygon fill="white" stroke="black" points="105.5,-0.5 105.5,-30.5 200.5,-30.5 200.5,-0.5 105.5,-0.5"/>
<text text-anchor="start" x="113.5" y="-18.5" font-family="Helvetica,sans-Serif" font-size="10.00">tlz::feature_points</text>
<text text-anchor="middle" x="153" y="-7.5" font-family="Helvetica,sans-Serif" font-size="10.00">_for_view</text>
</a>
</g>
</g>
<!-- Node1&#45;&gt;Node25 -->
<g id="edge29" class="edge"><title>Node1&#45;&gt;Node25</title>
<path fill="none" stroke="midnightblue" d="M21.9451,-142.834C26.7892,-121.255 41.4245,-68.8327 74,-40.5 80.4009,-34.9328 88.0543,-30.6026 96.0288,-27.2353"/>
<polygon fill="midnightblue" stroke="midnightblue" points="97.3364,-30.4832 105.482,-23.7083 94.8893,-23.9249 97.3364,-30.4832"/>
</g>
<!-- Node4 -->
<g id="node4" class="node"><title>Node4</title>
<g id="a_node4"><a xlink:href="namespacetlz.html#a634de7ca11e100e4a118dffe80376a75" target="_top" xlink:title="tlz::in_filename_arg">
<polygon fill="white" stroke="black" points="303,-225 303,-244 404,-244 404,-225 303,-225"/>
<text text-anchor="middle" x="353.5" y="-232" font-family="Helvetica,sans-Serif" font-size="10.00">tlz::in_filename_arg</text>
</a>
</g>
</g>
<!-- Node3&#45;&gt;Node4 -->
<g id="edge3" class="edge"><title>Node3&#45;&gt;Node4</title>
<path fill="none" stroke="midnightblue" d="M195.129,-234.5C223.411,-234.5 261.413,-234.5 292.989,-234.5"/>
<polygon fill="midnightblue" stroke="midnightblue" points="292.994,-238 302.994,-234.5 292.994,-231 292.994,-238"/>
</g>
<!-- Node5 -->
<g id="node5" class="node"><title>Node5</title>
<g id="a_node5"><a xlink:href="namespacetlz.html#a0621d598fb83b13bf028f3e6293d04f8" target="_top" xlink:title="tlz::string_arg">
<polygon fill="white" stroke="black" points="525,-263 525,-282 601,-282 601,-263 525,-263"/>
<text text-anchor="middle" x="563" y="-270" font-family="Helvetica,sans-Serif" font-size="10.00">tlz::string_arg</text>
</a>
</g>
</g>
<!-- Node4&#45;&gt;Node5 -->
<g id="edge4" class="edge"><title>Node4&#45;&gt;Node5</title>
<path fill="none" stroke="midnightblue" d="M404.201,-243.602C437.776,-249.751 481.828,-257.818 514.853,-263.866"/>
<polygon fill="midnightblue" stroke="midnightblue" points="514.257,-267.315 524.724,-265.674 515.518,-260.429 514.257,-267.315"/>
</g>
<!-- Node6 -->
<g id="node6" class="node"><title>Node6</title>
<g id="a_node6"><a xlink:href="namespacetlz.html#a780431daab8d2595372eacb43143b52d" target="_top" xlink:title="tlz::args">
<polygon fill="white" stroke="black" points="746,-301 746,-320 798,-320 798,-301 746,-301"/>
<text text-anchor="middle" x="772" y="-308" font-family="Helvetica,sans-Serif" font-size="10.00">tlz::args</text>
</a>
</g>
</g>
<!-- Node4&#45;&gt;Node6 -->
<g id="edge10" class="edge"><title>Node4&#45;&gt;Node6</title>
<path fill="none" stroke="midnightblue" d="M369.761,-244.054C391.96,-257.395 434.893,-281.132 475,-291.5 566.801,-315.231 679.678,-314.654 735.819,-312.459"/>
<polygon fill="midnightblue" stroke="midnightblue" points="736.107,-315.95 745.946,-312.021 735.804,-308.957 736.107,-315.95"/>
</g>
<!-- Node8 -->
<g id="node8" class="node"><title>Node8</title>
<g id="a_node8"><a xlink:href="classtlz_1_1args__list.html#a38ad21acd64a4af98ffdf4a47837cdbe" target="_top" xlink:title="tlz::args_list::usage_fail">
<polygon fill="white" stroke="black" points="893,-225 893,-244 1013,-244 1013,-225 893,-225"/>
<text text-anchor="middle" x="953" y="-232" font-family="Helvetica,sans-Serif" font-size="10.00">tlz::args_list::usage_fail</text>
</a>
</g>
</g>
<!-- Node4&#45;&gt;Node8 -->
<g id="edge11" class="edge"><title>Node4&#45;&gt;Node8</title>
<path fill="none" stroke="midnightblue" d="M404.159,-234.5C510.417,-234.5 760.067,-234.5 882.215,-234.5"/>
<polygon fill="midnightblue" stroke="midnightblue" points="882.564,-238 892.564,-234.5 882.564,-231 882.564,-238"/>
</g>
<!-- Node10 -->
<g id="node10" class="node"><title>Node10</title>
<g id="a_node10"><a xlink:href="namespacetlz.html#abb019466ea9f56c0dab27e893d891837" target="_top" xlink:title="tlz::file_exists">
<polygon fill="white" stroke="black" points="524.5,-187 524.5,-206 601.5,-206 601.5,-187 524.5,-187"/>
<text text-anchor="middle" x="563" y="-194" font-family="Helvetica,sans-Serif" font-size="10.00">tlz::file_exists</text>
</a>
</g>
</g>
<!-- Node4&#45;&gt;Node10 -->
<g id="edge9" class="edge"><title>Node4&#45;&gt;Node10</title>
<path fill="none" stroke="midnightblue" d="M404.201,-225.398C437.668,-219.269 481.543,-211.234 514.532,-205.193"/>
<polygon fill="midnightblue" stroke="midnightblue" points="515.191,-208.631 524.397,-203.386 513.93,-201.745 515.191,-208.631"/>
</g>
<!-- Node5&#45;&gt;Node6 -->
<g id="edge5" class="edge"><title>Node5&#45;&gt;Node6</title>
<path fill="none" stroke="midnightblue" d="M601.007,-279.294C639.168,-286.299 698.241,-297.143 735.746,-304.028"/>
<polygon fill="midnightblue" stroke="midnightblue" points="735.249,-307.495 745.716,-305.859 736.513,-300.61 735.249,-307.495"/>
</g>
<!-- Node7 -->
<g id="node7" class="node"><title>Node7</title>
<g id="a_node7"><a xlink:href="classtlz_1_1args__list.html#a73d99bc75998dc14607a3a372d28dc6d" target="_top" xlink:title="tlz::args_list::next_arg">
<polygon fill="white" stroke="black" points="715.5,-263 715.5,-282 828.5,-282 828.5,-263 715.5,-263"/>
<text text-anchor="middle" x="772" y="-270" font-family="Helvetica,sans-Serif" font-size="10.00">tlz::args_list::next_arg</text>
</a>
</g>
</g>
<!-- Node5&#45;&gt;Node7 -->
<g id="edge6" class="edge"><title>Node5&#45;&gt;Node7</title>
<path fill="none" stroke="midnightblue" d="M601.007,-272.5C629.778,-272.5 670.437,-272.5 704.777,-272.5"/>
<polygon fill="midnightblue" stroke="midnightblue" points="705.211,-276 715.211,-272.5 705.211,-269 705.211,-276"/>
</g>
<!-- Node7&#45;&gt;Node8 -->
<g id="edge7" class="edge"><title>Node7&#45;&gt;Node8</title>
<path fill="none" stroke="midnightblue" d="M818.169,-262.911C842.216,-257.806 871.974,-251.489 897.319,-246.108"/>
<polygon fill="midnightblue" stroke="midnightblue" points="898.1,-249.52 907.156,-244.02 896.647,-242.673 898.1,-249.52"/>
</g>
<!-- Node9 -->
<g id="node9" class="node"><title>Node9</title>
<g id="a_node9"><a xlink:href="namespacetlz.html#a8e4f8c8c2927bc4350de13bfa0f8f9e1" target="_top" xlink:title="tlz::to_string">
<polygon fill="white" stroke="black" points="917.5,-263 917.5,-282 988.5,-282 988.5,-263 917.5,-263"/>
<text text-anchor="middle" x="953" y="-270" font-family="Helvetica,sans-Serif" font-size="10.00">tlz::to_string</text>
</a>
</g>
</g>
<!-- Node7&#45;&gt;Node9 -->
<g id="edge8" class="edge"><title>Node7&#45;&gt;Node9</title>
<path fill="none" stroke="midnightblue" d="M828.656,-272.5C853.955,-272.5 883.487,-272.5 907.31,-272.5"/>
<polygon fill="midnightblue" stroke="midnightblue" points="907.479,-276 917.479,-272.5 907.479,-269 907.479,-276"/>
</g>
<!-- Node11&#45;&gt;Node4 -->
<g id="edge25" class="edge"><title>Node11&#45;&gt;Node4</title>
<path fill="none" stroke="midnightblue" d="M203.834,-206.04C230.955,-211.232 264.685,-217.689 293.158,-223.14"/>
<polygon fill="midnightblue" stroke="midnightblue" points="292.51,-226.579 302.99,-225.022 293.826,-219.704 292.51,-226.579"/>
</g>
<!-- Node12 -->
<g id="node12" class="node"><title>Node12</title>
<g id="a_node12"><a xlink:href="namespacetlz.html#ad75d99f2e1623434fbadee66f3ff29a1" target="_top" xlink:title="tlz::import_image_correspondences">
<polygon fill="white" stroke="black" points="268,-111 268,-130 439,-130 439,-111 268,-111"/>
<text text-anchor="middle" x="353.5" y="-118" font-family="Helvetica,sans-Serif" font-size="10.00">tlz::import_image_correspondences</text>
</a>
</g>
</g>
<!-- Node11&#45;&gt;Node12 -->
<g id="edge13" class="edge"><title>Node11&#45;&gt;Node12</title>
<path fill="none" stroke="midnightblue" d="M199.826,-186.981C210.508,-184.311 221.752,-181.129 232,-177.5 265.51,-165.632 302.19,-147.484 326.172,-134.865"/>
<polygon fill="midnightblue" stroke="midnightblue" points="327.83,-137.948 335.014,-130.16 324.542,-131.768 327.83,-137.948"/>
</g>
<!-- Node13 -->
<g id="node13" class="node"><title>Node13</title>
<g id="a_node13"><a xlink:href="namespacetlz.html#ae11c827ac9e581f9d2f98c39aab3750d" target="_top" xlink:title="tlz::file_name_extension">
<polygon fill="white" stroke="black" points="502,-149 502,-168 624,-168 624,-149 502,-149"/>
<text text-anchor="middle" x="563" y="-156" font-family="Helvetica,sans-Serif" font-size="10.00">tlz::file_name_extension</text>
</a>
</g>
</g>
<!-- Node12&#45;&gt;Node13 -->
<g id="edge14" class="edge"><title>Node12&#45;&gt;Node13</title>
<path fill="none" stroke="midnightblue" d="M406.593,-130.04C434.96,-135.235 470.243,-141.696 500.017,-147.149"/>
<polygon fill="midnightblue" stroke="midnightblue" points="499.418,-150.597 509.885,-148.956 500.679,-143.712 499.418,-150.597"/>
</g>
<!-- Node14 -->
<g id="node14" class="node"><title>Node14</title>
<g id="a_node14"><a xlink:href="namespacetlz.html#a24915249769d936c24ceb34f50b06104" target="_top" xlink:title="tlz::decode_image_correspondences">
<polygon fill="white" stroke="black" points="475,-111 475,-130 651,-130 651,-111 475,-111"/>
<text text-anchor="middle" x="563" y="-118" font-family="Helvetica,sans-Serif" font-size="10.00">tlz::decode_image_correspondences</text>
</a>
</g>
</g>
<!-- Node12&#45;&gt;Node14 -->
<g id="edge15" class="edge"><title>Node12&#45;&gt;Node14</title>
<path fill="none" stroke="midnightblue" d="M439.197,-120.5C447.655,-120.5 456.287,-120.5 464.859,-120.5"/>
<polygon fill="midnightblue" stroke="midnightblue" points="464.879,-124 474.879,-120.5 464.879,-117 464.879,-124"/>
</g>
<!-- Node20 -->
<g id="node20" class="node"><title>Node20</title>
<g id="a_node20"><a xlink:href="namespacetlz.html#aa1be9362f548fcf9378e1fc9074089c4" target="_top" xlink:title="tlz::import_json_file">
<polygon fill="white" stroke="black" points="512.5,-73 512.5,-92 613.5,-92 613.5,-73 512.5,-73"/>
<text text-anchor="middle" x="563" y="-80" font-family="Helvetica,sans-Serif" font-size="10.00">tlz::import_json_file</text>
</a>
</g>
</g>
<!-- Node12&#45;&gt;Node20 -->
<g id="edge23" class="edge"><title>Node12&#45;&gt;Node20</title>
<path fill="none" stroke="midnightblue" d="M406.593,-110.96C435.715,-105.627 472.126,-98.9588 502.383,-93.4179"/>
<polygon fill="midnightblue" stroke="midnightblue" points="503.182,-96.8297 512.388,-91.5855 501.921,-89.9442 503.182,-96.8297"/>
</g>
<!-- Node21 -->
<g id="node21" class="node"><title>Node21</title>
<g id="a_node21"><a xlink:href="namespacetlz.html#a2ec439452fda5eeb03f60715e50fa96a" target="_top" xlink:title="tlz::import_binary\l_image_correspondences">
<polygon fill="white" stroke="black" points="499,-23.5 499,-53.5 627,-53.5 627,-23.5 499,-23.5"/>
<text text-anchor="start" x="507" y="-41.5" font-family="Helvetica,sans-Serif" font-size="10.00">tlz::import_binary</text>
<text text-anchor="middle" x="563" y="-30.5" font-family="Helvetica,sans-Serif" font-size="10.00">_image_correspondences</text>
</a>
</g>
</g>
<!-- Node12&#45;&gt;Node21 -->
<g id="edge24" class="edge"><title>Node12&#45;&gt;Node21</title>
<path fill="none" stroke="midnightblue" d="M372.474,-110.868C395.681,-98.6964 437.541,-77.6349 475,-63.5 481.322,-61.1142 487.976,-58.8246 494.67,-56.6661"/>
<polygon fill="midnightblue" stroke="midnightblue" points="495.973,-59.9258 504.473,-53.6016 493.885,-53.2446 495.973,-59.9258"/>
</g>
<!-- Node15 -->
<g id="node15" class="node"><title>Node15</title>
<g id="a_node15"><a xlink:href="namespacetlz.html#a252af14b9b4ac6502d3e9c5dd8dc90b8" target="_top" xlink:title="tlz::has">
<polygon fill="white" stroke="black" points="1145,-111 1145,-130 1194,-130 1194,-111 1145,-111"/>
<text text-anchor="middle" x="1169.5" y="-118" font-family="Helvetica,sans-Serif" font-size="10.00">tlz::has</text>
</a>
</g>
</g>
<!-- Node14&#45;&gt;Node15 -->
<g id="edge16" class="edge"><title>Node14&#45;&gt;Node15</title>
<path fill="none" stroke="midnightblue" d="M651.016,-122.737C663.102,-123.014 675.361,-123.278 687,-123.5 847.875,-126.573 888.1,-127.389 1049,-128.5 1075.67,-128.684 1082.39,-130.281 1109,-128.5 1117.43,-127.936 1126.48,-126.927 1134.92,-125.812"/>
<polygon fill="midnightblue" stroke="midnightblue" points="1135.42,-129.277 1144.83,-124.421 1134.44,-122.345 1135.42,-129.277"/>
</g>
<!-- Node16 -->
<g id="node16" class="node"><title>Node16</title>
<g id="a_node16"><a xlink:href="namespacetlz.html#ab83b0eb933afca1abe8ccd3470207691" target="_top" xlink:title="tlz::decode_image_correspondence\l_feature">
<polygon fill="white" stroke="black" points="687,-83.5 687,-113.5 857,-113.5 857,-83.5 687,-83.5"/>
<text text-anchor="start" x="695" y="-101.5" font-family="Helvetica,sans-Serif" font-size="10.00">tlz::decode_image_correspondence</text>
<text text-anchor="middle" x="772" y="-90.5" font-family="Helvetica,sans-Serif" font-size="10.00">_feature</text>
</a>
</g>
</g>
<!-- Node14&#45;&gt;Node16 -->
<g id="edge17" class="edge"><title>Node14&#45;&gt;Node16</title>
<path fill="none" stroke="midnightblue" d="M651.187,-111.234C659.684,-110.331 668.332,-109.412 676.894,-108.502"/>
<polygon fill="midnightblue" stroke="midnightblue" points="677.316,-111.977 686.89,-107.439 676.576,-105.016 677.316,-111.977"/>
</g>
<!-- Node16&#45;&gt;Node15 -->
<g id="edge18" class="edge"><title>Node16&#45;&gt;Node15</title>
<path fill="none" stroke="midnightblue" d="M857.36,-103.193C943.607,-107.99 1073.32,-115.205 1134.4,-118.603"/>
<polygon fill="midnightblue" stroke="midnightblue" points="1134.45,-122.111 1144.63,-119.172 1134.84,-115.122 1134.45,-122.111"/>
</g>
<!-- Node17 -->
<g id="node17" class="node"><title>Node17</title>
<g id="a_node17"><a xlink:href="namespacetlz.html#a74e8454f97dace7cffb1afdb6d3ca87b" target="_top" xlink:title="tlz::decode_view_index">
<polygon fill="white" stroke="black" points="893.5,-73 893.5,-92 1012.5,-92 1012.5,-73 893.5,-73"/>
<text text-anchor="middle" x="953" y="-80" font-family="Helvetica,sans-Serif" font-size="10.00">tlz::decode_view_index</text>
</a>
</g>
</g>
<!-- Node16&#45;&gt;Node17 -->
<g id="edge19" class="edge"><title>Node16&#45;&gt;Node17</title>
<path fill="none" stroke="midnightblue" d="M857.259,-90.9685C865.961,-90.1906 874.731,-89.4067 883.236,-88.6465"/>
<polygon fill="midnightblue" stroke="midnightblue" points="883.808,-92.1094 893.456,-87.7329 883.185,-85.1372 883.808,-92.1094"/>
</g>
<!-- Node18 -->
<g id="node18" class="node"><title>Node18</title>
<g id="a_node18"><a xlink:href="namespacetlz.html#ae8f9175a86bbe49ac0f4485d5db3080b" target="_top" xlink:title="tlz::decode_feature\l_point">
<polygon fill="white" stroke="black" points="903,-23.5 903,-53.5 1003,-53.5 1003,-23.5 903,-23.5"/>
<text text-anchor="start" x="911" y="-41.5" font-family="Helvetica,sans-Serif" font-size="10.00">tlz::decode_feature</text>
<text text-anchor="middle" x="953" y="-30.5" font-family="Helvetica,sans-Serif" font-size="10.00">_point</text>
</a>
</g>
</g>
<!-- Node16&#45;&gt;Node18 -->
<g id="edge20" class="edge"><title>Node16&#45;&gt;Node18</title>
<path fill="none" stroke="midnightblue" d="M818.169,-83.3595C842.322,-75.2635 872.238,-65.2359 897.656,-56.716"/>
<polygon fill="midnightblue" stroke="midnightblue" points="898.786,-60.0284 907.156,-53.5317 896.562,-53.3914 898.786,-60.0284"/>
</g>
<!-- Node19 -->
<g id="node19" class="node"><title>Node19</title>
<g id="a_node19"><a xlink:href="namespacetlz.html#add846dc50c32dfb356cb1a7ac11d37ac" target="_top" xlink:title="tlz::get_or">
<polygon fill="white" stroke="black" points="1049,-51 1049,-70 1109,-70 1109,-51 1049,-51"/>
<text text-anchor="middle" x="1079" y="-58" font-family="Helvetica,sans-Serif" font-size="10.00">tlz::get_or</text>
</a>
</g>
</g>
<!-- Node18&#45;&gt;Node19 -->
<g id="edge21" class="edge"><title>Node18&#45;&gt;Node19</title>
<path fill="none" stroke="midnightblue" d="M1003.01,-47.195C1014.93,-49.31 1027.52,-51.544 1038.91,-53.5649"/>
<polygon fill="midnightblue" stroke="midnightblue" points="1038.52,-57.0507 1048.98,-55.3515 1039.75,-50.1584 1038.52,-57.0507"/>
</g>
<!-- Node19&#45;&gt;Node15 -->
<g id="edge22" class="edge"><title>Node19&#45;&gt;Node15</title>
<path fill="none" stroke="midnightblue" d="M1094.22,-70.14C1108.15,-79.5872 1129.61,-94.1346 1145.89,-105.169"/>
<polygon fill="midnightblue" stroke="midnightblue" points="1144.08,-108.169 1154.32,-110.884 1148,-102.375 1144.08,-108.169"/>
</g>
</g>
</svg>
