<?xml version="1.0" encoding="UTF-8" standalone="no"?>
<!DOCTYPE svg PUBLIC "-//W3C//DTD SVG 1.1//EN"
 "http://www.w3.org/Graphics/SVG/1.1/DTD/svg11.dtd">
<!-- Generated by graphviz version 2.38.0 (20140413.2041)
 -->
<!-- Title: main Pages: 1 -->
<svg width="1202pt" height="441pt"
 viewBox="0.00 0.00 1202.00 440.50" xmlns="http://www.w3.org/2000/svg" xmlns:xlink="http://www.w3.org/1999/xlink">
<g id="graph0" class="graph" transform="scale(1 1) rotate(0) translate(4 436.5)">
<title>main</title>
<polygon fill="white" stroke="none" points="-4,4 -4,-436.5 1198,-436.5 1198,4 -4,4"/>
<!-- Node1 -->
<g id="node1" class="node"><title>Node1</title>
<polygon fill="#bfbfbf" stroke="black" points="0,-137 0,-156 38,-156 38,-137 0,-137"/>
<text text-anchor="middle" x="19" y="-144" font-family="Helvetica,sans-Serif" font-size="10.00">main</text>
</g>
<!-- Node2 -->
<g id="node2" class="node"><title>Node2</title>
<g id="a_node2"><a xlink:href="namespacetlz.html#a3c03f5d9d6261ec2909938822fc47f8a" target="_top" xlink:title="tlz::get_args">
<polygon fill="white" stroke="black" points="117.5,-251 117.5,-270 188.5,-270 188.5,-251 117.5,-251"/>
<text text-anchor="middle" x="153" y="-258" font-family="Helvetica,sans-Serif" font-size="10.00">tlz::get_args</text>
</a>
</g>
</g>
<!-- Node1&#45;&gt;Node2 -->
<g id="edge1" class="edge"><title>Node1&#45;&gt;Node2</title>
<path fill="none" stroke="midnightblue" d="M23.1712,-156.229C29.6809,-174.673 46.3136,-214.815 74,-236.5 83.6727,-244.076 95.7426,-249.273 107.476,-252.834"/>
<polygon fill="midnightblue" stroke="midnightblue" points="106.626,-256.23 117.192,-255.457 108.45,-249.472 106.626,-256.23"/>
</g>
<!-- Node3 -->
<g id="node3" class="node"><title>Node3</title>
<g id="a_node3"><a xlink:href="namespacetlz.html#a11d8bb3ca89f4957bfde1cd0d5429a16" target="_top" xlink:title="tlz::image_correspondences_arg">
<polygon fill="white" stroke="black" points="74,-175 74,-194 232,-194 232,-175 74,-175"/>
<text text-anchor="middle" x="153" y="-182" font-family="Helvetica,sans-Serif" font-size="10.00">tlz::image_correspondences_arg</text>
</a>
</g>
</g>
<!-- Node1&#45;&gt;Node3 -->
<g id="edge2" class="edge"><title>Node1&#45;&gt;Node3</title>
<path fill="none" stroke="midnightblue" d="M38.3459,-153.465C48.7266,-157.277 61.9956,-161.936 74,-165.5 82.1628,-167.924 90.8718,-170.273 99.4015,-172.445"/>
<polygon fill="midnightblue" stroke="midnightblue" points="98.7393,-175.887 109.289,-174.907 100.431,-169.094 98.7393,-175.887"/>
</g>
<!-- Node21 -->
<g id="node21" class="node"><title>Node21</title>
<g id="a_node21"><a xlink:href="namespacetlz.html#a65770a2c1ff57c5ae6542d4465a3d3f4" target="_top" xlink:title="tlz::out_filename_arg">
<polygon fill="white" stroke="black" points="99.5,-137 99.5,-156 206.5,-156 206.5,-137 99.5,-137"/>
<text text-anchor="middle" x="153" y="-144" font-family="Helvetica,sans-Serif" font-size="10.00">tlz::out_filename_arg</text>
</a>
</g>
</g>
<!-- Node1&#45;&gt;Node21 -->
<g id="edge24" class="edge"><title>Node1&#45;&gt;Node21</title>
<path fill="none" stroke="midnightblue" d="M38.0773,-146.5C51.484,-146.5 70.6147,-146.5 89.3801,-146.5"/>
<polygon fill="midnightblue" stroke="midnightblue" points="89.4271,-150 99.4271,-146.5 89.4271,-143 89.4271,-150"/>
</g>
<!-- Node22 -->
<g id="node22" class="node"><title>Node22</title>
<g id="a_node22"><a xlink:href="namespacetlz.html#af0d1e8ba5b9f2dbc2b589afab3a21fc8" target="_top" xlink:title="tlz::int_arg">
<polygon fill="white" stroke="black" points="532,-97 532,-116 594,-116 594,-97 532,-97"/>
<text text-anchor="middle" x="563" y="-104" font-family="Helvetica,sans-Serif" font-size="10.00">tlz::int_arg</text>
</a>
</g>
</g>
<!-- Node1&#45;&gt;Node22 -->
<g id="edge26" class="edge"><title>Node1&#45;&gt;Node22</title>
<path fill="none" stroke="midnightblue" d="M38.1208,-138.613C48.431,-134.513 61.7046,-129.873 74,-127.5 237.69,-95.9063 437.76,-100.452 521.802,-104.264"/>
<polygon fill="midnightblue" stroke="midnightblue" points="521.782,-107.766 531.937,-104.746 522.114,-100.774 521.782,-107.766"/>
</g>
<!-- Node23 -->
<g id="node23" class="node"><title>Node23</title>
<g id="a_node23"><a xlink:href="namespacetlz.html#abab56a7d5e8f6eba9520c66a15fafa6d" target="_top" xlink:title="tlz::feature_points\l_for_view">
<polygon fill="white" stroke="black" points="105.5,-0.5 105.5,-30.5 200.5,-30.5 200.5,-0.5 105.5,-0.5"/>
<text text-anchor="start" x="113.5" y="-18.5" font-family="Helvetica,sans-Serif" font-size="10.00">tlz::feature_points</text>
<text text-anchor="middle" x="153" y="-7.5" font-family="Helvetica,sans-Serif" font-size="10.00">_for_view</text>
</a>
</g>
</g>
<!-- Node1&#45;&gt;Node23 -->
<g id="edge30" class="edge"><title>Node1&#45;&gt;Node23</title>
<path fill="none" stroke="midnightblue" d="M22.2631,-136.723C27.5832,-115.916 42.8526,-66.9971 74,-40.5 80.3143,-35.1285 87.7976,-30.9069 95.5901,-27.5902"/>
<polygon fill="midnightblue" stroke="midnightblue" points="97.0647,-30.775 105.191,-23.9768 94.5989,-24.2236 97.0647,-30.775"/>
</g>
<!-- Node24 -->
<g id="node24" class="node"><title>Node24</title>
<g id="a_node24"><a xlink:href="namespacetlz.html#ab98de0b10e3e079dee189f81adc638a0" target="_top" xlink:title="tlz::export_json_file">
<polygon fill="white" stroke="black" points="303,-394 303,-413 404,-413 404,-394 303,-394"/>
<text text-anchor="middle" x="353.5" y="-401" font-family="Helvetica,sans-Serif" font-size="10.00">tlz::export_json_file</text>
</a>
</g>
</g>
<!-- Node1&#45;&gt;Node24 -->
<g id="edge31" class="edge"><title>Node1&#45;&gt;Node24</title>
<path fill="none" stroke="midnightblue" d="M26.4395,-156.202C35.4955,-169.053 53.2303,-191.491 74,-203.5 136.526,-239.651 179.755,-191.631 232,-241.5 273.512,-281.124 230.36,-322.182 268,-365.5 277.508,-376.443 290.795,-384.391 304.021,-390.096"/>
<polygon fill="midnightblue" stroke="midnightblue" points="302.999,-393.455 313.586,-393.864 305.565,-386.942 302.999,-393.455"/>
</g>
<!-- Node25 -->
<g id="node25" class="node"><title>Node25</title>
<g id="a_node25"><a xlink:href="namespacetlz.html#a0b42822a3802ba98cfb8d42223b3149d" target="_top" xlink:title="tlz::encode_feature\l_points">
<polygon fill="white" stroke="black" points="103,-49.5 103,-79.5 203,-79.5 203,-49.5 103,-49.5"/>
<text text-anchor="start" x="111" y="-67.5" font-family="Helvetica,sans-Serif" font-size="10.00">tlz::encode_feature</text>
<text text-anchor="middle" x="153" y="-56.5" font-family="Helvetica,sans-Serif" font-size="10.00">_points</text>
</a>
</g>
</g>
<!-- Node1&#45;&gt;Node25 -->
<g id="edge33" class="edge"><title>Node1&#45;&gt;Node25</title>
<path fill="none" stroke="midnightblue" d="M27.8686,-136.86C37.6466,-125.413 55.335,-106.381 74,-94.5 80.311,-90.4828 87.244,-86.8668 94.2926,-83.6534"/>
<polygon fill="midnightblue" stroke="midnightblue" points="96.1172,-86.6792 103.928,-79.5211 93.3581,-80.2459 96.1172,-86.6792"/>
</g>
<!-- Node4 -->
<g id="node4" class="node"><title>Node4</title>
<g id="a_node4"><a xlink:href="namespacetlz.html#ad75d99f2e1623434fbadee66f3ff29a1" target="_top" xlink:title="tlz::import_image_correspondences">
<polygon fill="white" stroke="black" points="268,-337 268,-356 439,-356 439,-337 268,-337"/>
<text text-anchor="middle" x="353.5" y="-344" font-family="Helvetica,sans-Serif" font-size="10.00">tlz::import_image_correspondences</text>
</a>
</g>
</g>
<!-- Node3&#45;&gt;Node4 -->
<g id="edge3" class="edge"><title>Node3&#45;&gt;Node4</title>
<path fill="none" stroke="midnightblue" d="M200.02,-194.053C211.03,-197.555 222.374,-202.252 232,-208.5 281.591,-240.69 322.697,-298.891 341.493,-328.358"/>
<polygon fill="midnightblue" stroke="midnightblue" points="338.529,-330.219 346.795,-336.846 344.466,-326.51 338.529,-330.219"/>
</g>
<!-- Node14 -->
<g id="node14" class="node"><title>Node14</title>
<g id="a_node14"><a xlink:href="namespacetlz.html#a634de7ca11e100e4a118dffe80376a75" target="_top" xlink:title="tlz::in_filename_arg">
<polygon fill="white" stroke="black" points="303,-175 303,-194 404,-194 404,-175 303,-175"/>
<text text-anchor="middle" x="353.5" y="-182" font-family="Helvetica,sans-Serif" font-size="10.00">tlz::in_filename_arg</text>
</a>
</g>
</g>
<!-- Node3&#45;&gt;Node14 -->
<g id="edge15" class="edge"><title>Node3&#45;&gt;Node14</title>
<path fill="none" stroke="midnightblue" d="M232.168,-184.5C252.308,-184.5 273.662,-184.5 292.702,-184.5"/>
<polygon fill="midnightblue" stroke="midnightblue" points="292.724,-188 302.724,-184.5 292.724,-181 292.724,-188"/>
</g>
<!-- Node5 -->
<g id="node5" class="node"><title>Node5</title>
<g id="a_node5"><a xlink:href="namespacetlz.html#ae11c827ac9e581f9d2f98c39aab3750d" target="_top" xlink:title="tlz::file_name_extension">
<polygon fill="white" stroke="black" points="502,-413 502,-432 624,-432 624,-413 502,-413"/>
<text text-anchor="middle" x="563" y="-420" font-family="Helvetica,sans-Serif" font-size="10.00">tlz::file_name_extension</text>
</a>
</g>
</g>
<!-- Node4&#45;&gt;Node5 -->
<g id="edge4" class="edge"><title>Node4&#45;&gt;Node5</title>
<path fill="none" stroke="midnightblue" d="M376.917,-356.122C394.05,-363.586 418.185,-374.339 439,-384.5 455.258,-392.436 458.007,-397.291 475,-403.5 482.249,-406.149 489.98,-408.487 497.728,-410.535"/>
<polygon fill="midnightblue" stroke="midnightblue" points="496.967,-413.953 507.517,-412.976 498.66,-407.16 496.967,-413.953"/>
</g>
<!-- Node6 -->
<g id="node6" class="node"><title>Node6</title>
<g id="a_node6"><a xlink:href="namespacetlz.html#a24915249769d936c24ceb34f50b06104" target="_top" xlink:title="tlz::decode_image_correspondences">
<polygon fill="white" stroke="black" points="475,-375 475,-394 651,-394 651,-375 475,-375"/>
<text text-anchor="middle" x="563" y="-382" font-family="Helvetica,sans-Serif" font-size="10.00">tlz::decode_image_correspondences</text>
</a>
</g>
</g>
<!-- Node4&#45;&gt;Node6 -->
<g id="edge5" class="edge"><title>Node4&#45;&gt;Node6</title>
<path fill="none" stroke="midnightblue" d="M406.593,-356.04C434.96,-361.235 470.243,-367.696 500.017,-373.149"/>
<polygon fill="midnightblue" stroke="midnightblue" points="499.418,-376.597 509.885,-374.956 500.679,-369.712 499.418,-376.597"/>
</g>
<!-- Node12 -->
<g id="node12" class="node"><title>Node12</title>
<g id="a_node12"><a xlink:href="namespacetlz.html#aa1be9362f548fcf9378e1fc9074089c4" target="_top" xlink:title="tlz::import_json_file">
<polygon fill="white" stroke="black" points="512.5,-337 512.5,-356 613.5,-356 613.5,-337 512.5,-337"/>
<text text-anchor="middle" x="563" y="-344" font-family="Helvetica,sans-Serif" font-size="10.00">tlz::import_json_file</text>
</a>
</g>
</g>
<!-- Node4&#45;&gt;Node12 -->
<g id="edge13" class="edge"><title>Node4&#45;&gt;Node12</title>
<path fill="none" stroke="midnightblue" d="M439.197,-346.5C460.383,-346.5 482.665,-346.5 502.347,-346.5"/>
<polygon fill="midnightblue" stroke="midnightblue" points="502.382,-350 512.382,-346.5 502.382,-343 502.382,-350"/>
</g>
<!-- Node13 -->
<g id="node13" class="node"><title>Node13</title>
<g id="a_node13"><a xlink:href="namespacetlz.html#a2ec439452fda5eeb03f60715e50fa96a" target="_top" xlink:title="tlz::import_binary\l_image_correspondences">
<polygon fill="white" stroke="black" points="499,-287.5 499,-317.5 627,-317.5 627,-287.5 499,-287.5"/>
<text text-anchor="start" x="507" y="-305.5" font-family="Helvetica,sans-Serif" font-size="10.00">tlz::import_binary</text>
<text text-anchor="middle" x="563" y="-294.5" font-family="Helvetica,sans-Serif" font-size="10.00">_image_correspondences</text>
</a>
</g>
</g>
<!-- Node4&#45;&gt;Node13 -->
<g id="edge14" class="edge"><title>Node4&#45;&gt;Node13</title>
<path fill="none" stroke="midnightblue" d="M399.524,-336.953C425.654,-331.412 459.194,-324.3 489.008,-317.978"/>
<polygon fill="midnightblue" stroke="midnightblue" points="489.903,-321.366 498.96,-315.868 488.451,-314.518 489.903,-321.366"/>
</g>
<!-- Node7 -->
<g id="node7" class="node"><title>Node7</title>
<g id="a_node7"><a xlink:href="namespacetlz.html#a252af14b9b4ac6502d3e9c5dd8dc90b8" target="_top" xlink:title="tlz::has">
<polygon fill="white" stroke="black" points="1145,-368 1145,-387 1194,-387 1194,-368 1145,-368"/>
<text text-anchor="middle" x="1169.5" y="-375" font-family="Helvetica,sans-Serif" font-size="10.00">tlz::has</text>
</a>
</g>
</g>
<!-- Node6&#45;&gt;Node7 -->
<g id="edge6" class="edge"><title>Node6&#45;&gt;Node7</title>
<path fill="none" stroke="midnightblue" d="M651.175,-384.734C748.26,-384.982 909.857,-385.357 1049,-385.5 1075.67,-385.527 1082.39,-387.281 1109,-385.5 1117.43,-384.936 1126.48,-383.927 1134.92,-382.812"/>
<polygon fill="midnightblue" stroke="midnightblue" points="1135.42,-386.277 1144.83,-381.421 1134.44,-379.345 1135.42,-386.277"/>
</g>
<!-- Node8 -->
<g id="node8" class="node"><title>Node8</title>
<g id="a_node8"><a xlink:href="namespacetlz.html#ab83b0eb933afca1abe8ccd3470207691" target="_top" xlink:title="tlz::decode_image_correspondence\l_feature">
<polygon fill="white" stroke="black" points="687,-337.5 687,-367.5 857,-367.5 857,-337.5 687,-337.5"/>
<text text-anchor="start" x="695" y="-355.5" font-family="Helvetica,sans-Serif" font-size="10.00">tlz::decode_image_correspondence</text>
<text text-anchor="middle" x="772" y="-344.5" font-family="Helvetica,sans-Serif" font-size="10.00">_feature</text>
</a>
</g>
</g>
<!-- Node6&#45;&gt;Node8 -->
<g id="edge7" class="edge"><title>Node6&#45;&gt;Node8</title>
<path fill="none" stroke="midnightblue" d="M625.546,-374.986C641.586,-372.506 659.243,-369.776 676.56,-367.099"/>
<polygon fill="midnightblue" stroke="midnightblue" points="677.354,-370.518 686.701,-365.532 676.284,-363.601 677.354,-370.518"/>
</g>
<!-- Node8&#45;&gt;Node7 -->
<g id="edge8" class="edge"><title>Node8&#45;&gt;Node7</title>
<path fill="none" stroke="midnightblue" d="M857.36,-357.832C943.607,-363.284 1073.32,-371.483 1134.4,-375.344"/>
<polygon fill="midnightblue" stroke="midnightblue" points="1134.43,-378.853 1144.63,-375.991 1134.87,-371.867 1134.43,-378.853"/>
</g>
<!-- Node9 -->
<g id="node9" class="node"><title>Node9</title>
<g id="a_node9"><a xlink:href="namespacetlz.html#a74e8454f97dace7cffb1afdb6d3ca87b" target="_top" xlink:title="tlz::decode_view_index">
<polygon fill="white" stroke="black" points="893.5,-280 893.5,-299 1012.5,-299 1012.5,-280 893.5,-280"/>
<text text-anchor="middle" x="953" y="-287" font-family="Helvetica,sans-Serif" font-size="10.00">tlz::decode_view_index</text>
</a>
</g>
</g>
<!-- Node8&#45;&gt;Node9 -->
<g id="edge9" class="edge"><title>Node8&#45;&gt;Node9</title>
<path fill="none" stroke="midnightblue" d="M814.312,-337.498C837.423,-329.156 866.774,-318.643 893,-309.5 899.656,-307.18 906.747,-304.744 913.619,-302.403"/>
<polygon fill="midnightblue" stroke="midnightblue" points="915.112,-305.593 923.457,-299.065 912.863,-298.964 915.112,-305.593"/>
</g>
<!-- Node10 -->
<g id="node10" class="node"><title>Node10</title>
<g id="a_node10"><a xlink:href="namespacetlz.html#ae8f9175a86bbe49ac0f4485d5db3080b" target="_top" xlink:title="tlz::decode_feature\l_point">
<polygon fill="white" stroke="black" points="903,-318.5 903,-348.5 1003,-348.5 1003,-318.5 903,-318.5"/>
<text text-anchor="start" x="911" y="-336.5" font-family="Helvetica,sans-Serif" font-size="10.00">tlz::decode_feature</text>
<text text-anchor="middle" x="953" y="-325.5" font-family="Helvetica,sans-Serif" font-size="10.00">_point</text>
</a>
</g>
</g>
<!-- Node8&#45;&gt;Node10 -->
<g id="edge10" class="edge"><title>Node8&#45;&gt;Node10</title>
<path fill="none" stroke="midnightblue" d="M857.259,-343.556C869.2,-342.289 881.266,-341.008 892.602,-339.805"/>
<polygon fill="midnightblue" stroke="midnightblue" points="893.209,-343.26 902.784,-338.724 892.47,-336.299 893.209,-343.26"/>
</g>
<!-- Node11 -->
<g id="node11" class="node"><title>Node11</title>
<g id="a_node11"><a xlink:href="namespacetlz.html#add846dc50c32dfb356cb1a7ac11d37ac" target="_top" xlink:title="tlz::get_or">
<polygon fill="white" stroke="black" points="1049,-327 1049,-346 1109,-346 1109,-327 1049,-327"/>
<text text-anchor="middle" x="1079" y="-334" font-family="Helvetica,sans-Serif" font-size="10.00">tlz::get_or</text>
</a>
</g>
</g>
<!-- Node10&#45;&gt;Node11 -->
<g id="edge11" class="edge"><title>Node10&#45;&gt;Node11</title>
<path fill="none" stroke="midnightblue" d="M1003.01,-334.686C1014.93,-334.974 1027.52,-335.279 1038.91,-335.554"/>
<polygon fill="midnightblue" stroke="midnightblue" points="1038.9,-339.055 1048.98,-335.798 1039.07,-332.057 1038.9,-339.055"/>
</g>
<!-- Node11&#45;&gt;Node7 -->
<g id="edge12" class="edge"><title>Node11&#45;&gt;Node7</title>
<path fill="none" stroke="midnightblue" d="M1100.53,-346.009C1111.84,-351.25 1126.09,-357.851 1138.61,-363.654"/>
<polygon fill="midnightblue" stroke="midnightblue" points="1137.23,-366.872 1147.78,-367.9 1140.18,-360.521 1137.23,-366.872"/>
</g>
<!-- Node15 -->
<g id="node15" class="node"><title>Node15</title>
<g id="a_node15"><a xlink:href="namespacetlz.html#a0621d598fb83b13bf028f3e6293d04f8" target="_top" xlink:title="tlz::string_arg">
<polygon fill="white" stroke="black" points="525,-135 525,-154 601,-154 601,-135 525,-135"/>
<text text-anchor="middle" x="563" y="-142" font-family="Helvetica,sans-Serif" font-size="10.00">tlz::string_arg</text>
</a>
</g>
</g>
<!-- Node14&#45;&gt;Node15 -->
<g id="edge16" class="edge"><title>Node14&#45;&gt;Node15</title>
<path fill="none" stroke="midnightblue" d="M403.938,-174.97C437.614,-168.478 481.923,-159.937 515.056,-153.549"/>
<polygon fill="midnightblue" stroke="midnightblue" points="515.8,-156.971 524.956,-151.641 514.475,-150.097 515.8,-156.971"/>
</g>
<!-- Node16 -->
<g id="node16" class="node"><title>Node16</title>
<g id="a_node16"><a xlink:href="namespacetlz.html#a780431daab8d2595372eacb43143b52d" target="_top" xlink:title="tlz::args">
<polygon fill="white" stroke="black" points="746,-173 746,-192 798,-192 798,-173 746,-173"/>
<text text-anchor="middle" x="772" y="-180" font-family="Helvetica,sans-Serif" font-size="10.00">tlz::args</text>
</a>
</g>
</g>
<!-- Node14&#45;&gt;Node16 -->
<g id="edge22" class="edge"><title>Node14&#45;&gt;Node16</title>
<path fill="none" stroke="midnightblue" d="M404.167,-193.103C425.845,-196.444 451.606,-199.858 475,-201.5 553.03,-206.977 573.019,-207.635 651,-201.5 679.758,-199.237 712.037,-193.97 735.868,-189.554"/>
<polygon fill="midnightblue" stroke="midnightblue" points="736.68,-192.962 745.854,-187.661 735.377,-186.084 736.68,-192.962"/>
</g>
<!-- Node18 -->
<g id="node18" class="node"><title>Node18</title>
<g id="a_node18"><a xlink:href="classtlz_1_1args__list.html#a38ad21acd64a4af98ffdf4a47837cdbe" target="_top" xlink:title="tlz::args_list::usage_fail">
<polygon fill="white" stroke="black" points="893,-135 893,-154 1013,-154 1013,-135 893,-135"/>
<text text-anchor="middle" x="953" y="-142" font-family="Helvetica,sans-Serif" font-size="10.00">tlz::args_list::usage_fail</text>
</a>
</g>
</g>
<!-- Node14&#45;&gt;Node18 -->
<g id="edge23" class="edge"><title>Node14&#45;&gt;Node18</title>
<path fill="none" stroke="midnightblue" d="M381.35,-194.08C405.492,-202.154 442.11,-213.078 475,-217.5 643.411,-240.144 695.12,-253.17 857,-201.5 885.186,-192.503 913.801,-173.738 932.151,-160.192"/>
<polygon fill="midnightblue" stroke="midnightblue" points="934.431,-162.855 940.288,-154.027 930.204,-157.276 934.431,-162.855"/>
</g>
<!-- Node20 -->
<g id="node20" class="node"><title>Node20</title>
<g id="a_node20"><a xlink:href="namespacetlz.html#abb019466ea9f56c0dab27e893d891837" target="_top" xlink:title="tlz::file_exists">
<polygon fill="white" stroke="black" points="524.5,-173 524.5,-192 601.5,-192 601.5,-173 524.5,-173"/>
<text text-anchor="middle" x="563" y="-180" font-family="Helvetica,sans-Serif" font-size="10.00">tlz::file_exists</text>
</a>
</g>
</g>
<!-- Node14&#45;&gt;Node20 -->
<g id="edge21" class="edge"><title>Node14&#45;&gt;Node20</title>
<path fill="none" stroke="midnightblue" d="M404.201,-184.021C437.523,-183.7 481.165,-183.279 514.105,-182.962"/>
<polygon fill="midnightblue" stroke="midnightblue" points="514.431,-186.459 524.397,-182.862 514.364,-179.459 514.431,-186.459"/>
</g>
<!-- Node15&#45;&gt;Node16 -->
<g id="edge17" class="edge"><title>Node15&#45;&gt;Node16</title>
<path fill="none" stroke="midnightblue" d="M601.007,-151.294C639.168,-158.299 698.241,-169.143 735.746,-176.028"/>
<polygon fill="midnightblue" stroke="midnightblue" points="735.249,-179.495 745.716,-177.859 736.513,-172.61 735.249,-179.495"/>
</g>
<!-- Node17 -->
<g id="node17" class="node"><title>Node17</title>
<g id="a_node17"><a xlink:href="classtlz_1_1args__list.html#a73d99bc75998dc14607a3a372d28dc6d" target="_top" xlink:title="tlz::args_list::next_arg">
<polygon fill="white" stroke="black" points="715.5,-135 715.5,-154 828.5,-154 828.5,-135 715.5,-135"/>
<text text-anchor="middle" x="772" y="-142" font-family="Helvetica,sans-Serif" font-size="10.00">tlz::args_list::next_arg</text>
</a>
</g>
</g>
<!-- Node15&#45;&gt;Node17 -->
<g id="edge18" class="edge"><title>Node15&#45;&gt;Node17</title>
<path fill="none" stroke="midnightblue" d="M601.007,-144.5C629.778,-144.5 670.437,-144.5 704.777,-144.5"/>
<polygon fill="midnightblue" stroke="midnightblue" points="705.211,-148 715.211,-144.5 705.211,-141 705.211,-148"/>
</g>
<!-- Node17&#45;&gt;Node18 -->
<g id="edge19" class="edge"><title>Node17&#45;&gt;Node18</title>
<path fill="none" stroke="midnightblue" d="M828.656,-144.5C845.808,-144.5 864.905,-144.5 882.849,-144.5"/>
<polygon fill="midnightblue" stroke="midnightblue" points="882.968,-148 892.968,-144.5 882.968,-141 882.968,-148"/>
</g>
<!-- Node19 -->
<g id="node19" class="node"><title>Node19</title>
<g id="a_node19"><a xlink:href="namespacetlz.html#a8e4f8c8c2927bc4350de13bfa0f8f9e1" target="_top" xlink:title="tlz::to_string">
<polygon fill="white" stroke="black" points="917.5,-78 917.5,-97 988.5,-97 988.5,-78 917.5,-78"/>
<text text-anchor="middle" x="953" y="-85" font-family="Helvetica,sans-Serif" font-size="10.00">tlz::to_string</text>
</a>
</g>
</g>
<!-- Node17&#45;&gt;Node19 -->
<g id="edge20" class="edge"><title>Node17&#45;&gt;Node19</title>
<path fill="none" stroke="midnightblue" d="M802.961,-134.959C832.905,-125.424 879.124,-110.706 912.149,-100.19"/>
<polygon fill="midnightblue" stroke="midnightblue" points="913.475,-103.441 921.942,-97.0716 911.351,-96.7709 913.475,-103.441"/>
</g>
<!-- Node21&#45;&gt;Node15 -->
<g id="edge25" class="edge"><title>Node21&#45;&gt;Node15</title>
<path fill="none" stroke="midnightblue" d="M206.504,-146.243C286.465,-145.851 437.566,-145.11 514.461,-144.733"/>
<polygon fill="midnightblue" stroke="midnightblue" points="514.82,-148.231 524.803,-144.682 514.786,-141.231 514.82,-148.231"/>
</g>
<!-- Node22&#45;&gt;Node16 -->
<g id="edge27" class="edge"><title>Node22&#45;&gt;Node16</title>
<path fill="none" stroke="midnightblue" d="M594.166,-108.653C611.675,-110.951 633.631,-115.699 651,-125.5 671.262,-136.933 666.781,-151.992 687,-163.5 701.817,-171.933 720.099,-176.623 735.82,-179.232"/>
<polygon fill="midnightblue" stroke="midnightblue" points="735.321,-182.696 745.719,-180.664 736.323,-175.768 735.321,-182.696"/>
</g>
<!-- Node22&#45;&gt;Node17 -->
<g id="edge28" class="edge"><title>Node22&#45;&gt;Node17</title>
<path fill="none" stroke="midnightblue" d="M594.1,-112.026C624.156,-117.543 671.227,-126.184 709.259,-133.166"/>
<polygon fill="midnightblue" stroke="midnightblue" points="708.752,-136.631 719.22,-134.994 710.016,-129.746 708.752,-136.631"/>
</g>
<!-- Node22&#45;&gt;Node18 -->
<g id="edge29" class="edge"><title>Node22&#45;&gt;Node18</title>
<path fill="none" stroke="midnightblue" d="M594.076,-107.136C647.301,-108.553 761.484,-112.908 857,-125.5 871.224,-127.375 886.515,-130.11 900.584,-132.924"/>
<polygon fill="midnightblue" stroke="midnightblue" points="900.081,-136.393 910.58,-134.975 901.488,-129.536 900.081,-136.393"/>
</g>
<!-- Node24&#45;&gt;Node5 -->
<g id="edge32" class="edge"><title>Node24&#45;&gt;Node5</title>
<path fill="none" stroke="midnightblue" d="M404.201,-408.051C430.478,-410.457 463.172,-413.451 491.975,-416.088"/>
<polygon fill="midnightblue" stroke="midnightblue" points="491.706,-419.578 501.983,-417.005 492.344,-412.607 491.706,-419.578"/>
</g>
<!-- Node26 -->
<g id="node26" class="node"><title>Node26</title>
<g id="a_node26"><a xlink:href="namespacetlz.html#a8f6c31dc4b1dffe7950bcb1f4ff85cbc" target="_top" xlink:title="tlz::encode_feature\l_point">
<polygon fill="white" stroke="black" points="303.5,-6.5 303.5,-36.5 403.5,-36.5 403.5,-6.5 303.5,-6.5"/>
<text text-anchor="start" x="311.5" y="-24.5" font-family="Helvetica,sans-Serif" font-size="10.00">tlz::encode_feature</text>
<text text-anchor="middle" x="353.5" y="-13.5" font-family="Helvetica,sans-Serif" font-size="10.00">_point</text>
</a>
</g>
</g>
<!-- Node25&#45;&gt;Node26 -->
<g id="edge34" class="edge"><title>Node25&#45;&gt;Node26</title>
<path fill="none" stroke="midnightblue" d="M203.067,-53.8708C230.385,-47.953 264.587,-40.5442 293.373,-34.3084"/>
<polygon fill="midnightblue" stroke="midnightblue" points="294.277,-37.6938 303.309,-32.156 292.795,-30.8525 294.277,-37.6938"/>
</g>
<!-- Node27 -->
<g id="node27" class="node"><title>Node27</title>
<g id="a_node27"><a xlink:href="namespacetlz.html#aadab29bdc80bc1d0ad6d3784dd427992" target="_top" xlink:title="tlz::encode_view_index">
<polygon fill="white" stroke="black" points="294,-56 294,-75 413,-75 413,-56 294,-56"/>
<text text-anchor="middle" x="353.5" y="-63" font-family="Helvetica,sans-Serif" font-size="10.00">tlz::encode_view_index</text>
</a>
</g>
</g>
<!-- Node25&#45;&gt;Node27 -->
<g id="edge35" class="edge"><title>Node25&#45;&gt;Node27</title>
<path fill="none" stroke="midnightblue" d="M203.067,-64.7472C227.398,-64.8698 257.189,-65.0198 283.751,-65.1537"/>
<polygon fill="midnightblue" stroke="midnightblue" points="283.738,-68.6535 293.755,-65.2041 283.773,-61.6536 283.738,-68.6535"/>
</g>
<!-- Node27&#45;&gt;Node19 -->
<g id="edge36" class="edge"><title>Node27&#45;&gt;Node19</title>
<path fill="none" stroke="midnightblue" d="M413.152,-67.6596C532.381,-72.0496 800.743,-81.9307 907.23,-85.8516"/>
<polygon fill="midnightblue" stroke="midnightblue" points="907.196,-89.3526 917.318,-86.223 907.453,-82.3573 907.196,-89.3526"/>
</g>
<!-- Node28 -->
<g id="node28" class="node"><title>Node28</title>
<g id="a_node28"><a xlink:href="structtlz_1_1view__index.html#a20518c30015d833cdb2a69b524886b96" target="_top" xlink:title="tlz::view_index::is_2d">
<polygon fill="white" stroke="black" points="507.5,-21 507.5,-40 618.5,-40 618.5,-21 507.5,-21"/>
<text text-anchor="middle" x="563" y="-28" font-family="Helvetica,sans-Serif" font-size="10.00">tlz::view_index::is_2d</text>
</a>
</g>
</g>
<!-- Node27&#45;&gt;Node28 -->
<g id="edge37" class="edge"><title>Node27&#45;&gt;Node28</title>
<path fill="none" stroke="midnightblue" d="M410.926,-55.9823C437.647,-51.4752 469.698,-46.069 497.39,-41.3981"/>
<polygon fill="midnightblue" stroke="midnightblue" points="498.098,-44.8281 507.377,-39.7135 496.934,-37.9256 498.098,-44.8281"/>
</g>
</g>
</svg>
