<?xml version="1.0" encoding="UTF-8" standalone="no"?>
<!DOCTYPE svg PUBLIC "-//W3C//DTD SVG 1.1//EN"
 "http://www.w3.org/Graphics/SVG/1.1/DTD/svg11.dtd">
<!-- Generated by graphviz version 2.38.0 (20140413.2041)
 -->
<!-- Title: main Pages: 1 -->
<svg width="804pt" height="508pt"
 viewBox="0.00 0.00 804.00 508.00" xmlns="http://www.w3.org/2000/svg" xmlns:xlink="http://www.w3.org/1999/xlink">
<g id="graph0" class="graph" transform="scale(1 1) rotate(0) translate(4 504)">
<title>main</title>
<polygon fill="white" stroke="none" points="-4,4 -4,-504 800,-504 800,4 -4,4"/>
<!-- Node1 -->
<g id="node1" class="node"><title>Node1</title>
<polygon fill="#bfbfbf" stroke="black" points="0,-186.5 0,-205.5 38,-205.5 38,-186.5 0,-186.5"/>
<text text-anchor="middle" x="19" y="-193.5" font-family="Helvetica,sans-Serif" font-size="10.00">main</text>
</g>
<!-- Node2 -->
<g id="node2" class="node"><title>Node2</title>
<g id="a_node2"><a xlink:href="namespacetlz.html#a3c03f5d9d6261ec2909938822fc47f8a" target="_top" xlink:title="tlz::get_args">
<polygon fill="white" stroke="black" points="101.5,-480.5 101.5,-499.5 172.5,-499.5 172.5,-480.5 101.5,-480.5"/>
<text text-anchor="middle" x="137" y="-487.5" font-family="Helvetica,sans-Serif" font-size="10.00">tlz::get_args</text>
</a>
</g>
</g>
<!-- Node1&#45;&gt;Node2 -->
<g id="edge1" class="edge"><title>Node1&#45;&gt;Node2</title>
<path fill="none" stroke="midnightblue" d="M20.7046,-205.681C24.0393,-249.039 39.5322,-425.031 74,-466 78.8021,-471.708 85.1307,-476.063 91.9091,-479.385"/>
<polygon fill="midnightblue" stroke="midnightblue" points="90.7529,-482.695 101.33,-483.305 93.4419,-476.232 90.7529,-482.695"/>
</g>
<!-- Node3 -->
<g id="node3" class="node"><title>Node3</title>
<g id="a_node3"><a xlink:href="namespacetlz.html#a634de7ca11e100e4a118dffe80376a75" target="_top" xlink:title="tlz::in_filename_arg">
<polygon fill="white" stroke="black" points="256.5,-442.5 256.5,-461.5 357.5,-461.5 357.5,-442.5 256.5,-442.5"/>
<text text-anchor="middle" x="307" y="-449.5" font-family="Helvetica,sans-Serif" font-size="10.00">tlz::in_filename_arg</text>
</a>
</g>
</g>
<!-- Node1&#45;&gt;Node3 -->
<g id="edge2" class="edge"><title>Node1&#45;&gt;Node3</title>
<path fill="none" stroke="midnightblue" d="M20.7825,-205.583C24.2453,-245.469 39.5682,-397.643 74,-428 121.553,-469.926 197.715,-469.547 249.707,-462.927"/>
<polygon fill="midnightblue" stroke="midnightblue" points="250.343,-466.372 259.767,-461.53 249.381,-459.439 250.343,-466.372"/>
</g>
<!-- Node4 -->
<g id="node4" class="node"><title>Node4</title>
<g id="a_node4"><a xlink:href="namespacetlz.html#a0621d598fb83b13bf028f3e6293d04f8" target="_top" xlink:title="tlz::string_arg">
<polygon fill="white" stroke="black" points="414.5,-366.5 414.5,-385.5 490.5,-385.5 490.5,-366.5 414.5,-366.5"/>
<text text-anchor="middle" x="452.5" y="-373.5" font-family="Helvetica,sans-Serif" font-size="10.00">tlz::string_arg</text>
</a>
</g>
</g>
<!-- Node1&#45;&gt;Node4 -->
<g id="edge20" class="edge"><title>Node1&#45;&gt;Node4</title>
<path fill="none" stroke="midnightblue" d="M21.8038,-205.608C26.5018,-228.19 41.107,-285.275 74,-319 129.53,-375.933 158.376,-377.697 236,-395 297.599,-408.731 315.393,-402.961 378,-395 389.211,-393.574 401.159,-390.972 412.091,-388.141"/>
<polygon fill="midnightblue" stroke="midnightblue" points="413.063,-391.504 421.795,-385.504 411.227,-384.749 413.063,-391.504"/>
</g>
<!-- Node10 -->
<g id="node10" class="node"><title>Node10</title>
<g id="a_node10"><a xlink:href="namespacetlz.html#a4791154460ea7bf2fa5984b1748bc9d1" target="_top" xlink:title="tlz::out_filename_opt_arg">
<polygon fill="white" stroke="black" points="74,-208.5 74,-227.5 200,-227.5 200,-208.5 74,-208.5"/>
<text text-anchor="middle" x="137" y="-215.5" font-family="Helvetica,sans-Serif" font-size="10.00">tlz::out_filename_opt_arg</text>
</a>
</g>
</g>
<!-- Node1&#45;&gt;Node10 -->
<g id="edge11" class="edge"><title>Node1&#45;&gt;Node10</title>
<path fill="none" stroke="midnightblue" d="M38.125,-199.438C48.4313,-201.392 61.9934,-203.964 75.7258,-206.569"/>
<polygon fill="midnightblue" stroke="midnightblue" points="75.234,-210.038 85.7111,-208.462 76.5384,-203.16 75.234,-210.038"/>
</g>
<!-- Node14 -->
<g id="node14" class="node"><title>Node14</title>
<g id="a_node14"><a xlink:href="namespacetlz.html#a5186c46291b525427b48828632f7adec" target="_top" xlink:title="tlz::bool_opt_arg">
<polygon fill="white" stroke="black" points="92.5,-290.5 92.5,-309.5 181.5,-309.5 181.5,-290.5 92.5,-290.5"/>
<text text-anchor="middle" x="137" y="-297.5" font-family="Helvetica,sans-Serif" font-size="10.00">tlz::bool_opt_arg</text>
</a>
</g>
</g>
<!-- Node1&#45;&gt;Node14 -->
<g id="edge21" class="edge"><title>Node1&#45;&gt;Node14</title>
<path fill="none" stroke="midnightblue" d="M30.7051,-205.598C50.5592,-223.398 93.291,-261.709 117.776,-283.661"/>
<polygon fill="midnightblue" stroke="midnightblue" points="115.539,-286.356 125.321,-290.426 120.211,-281.144 115.539,-286.356"/>
</g>
<!-- Node17 -->
<g id="node17" class="node"><title>Node17</title>
<g id="a_node17"><a xlink:href="namespacetlz.html#a23ae826b33c7d428c32ce1bf2e6b1630" target="_top" xlink:title="tlz::decode_kinect\l_internal_parameters">
<polygon fill="white" stroke="black" points="83.5,-159 83.5,-189 190.5,-189 190.5,-159 83.5,-159"/>
<text text-anchor="start" x="91.5" y="-177" font-family="Helvetica,sans-Serif" font-size="10.00">tlz::decode_kinect</text>
<text text-anchor="middle" x="137" y="-166" font-family="Helvetica,sans-Serif" font-size="10.00">_internal_parameters</text>
</a>
</g>
</g>
<!-- Node1&#45;&gt;Node17 -->
<g id="edge29" class="edge"><title>Node1&#45;&gt;Node17</title>
<path fill="none" stroke="midnightblue" d="M38.125,-192.562C47.8743,-190.714 60.5369,-188.312 73.5011,-185.853"/>
<polygon fill="midnightblue" stroke="midnightblue" points="74.2577,-189.272 83.4304,-183.97 72.9534,-182.395 74.2577,-189.272"/>
</g>
<!-- Node18 -->
<g id="node18" class="node"><title>Node18</title>
<g id="a_node18"><a xlink:href="namespacetlz.html#aa1be9362f548fcf9378e1fc9074089c4" target="_top" xlink:title="tlz::import_json_file">
<polygon fill="white" stroke="black" points="86.5,-120.5 86.5,-139.5 187.5,-139.5 187.5,-120.5 86.5,-120.5"/>
<text text-anchor="middle" x="137" y="-127.5" font-family="Helvetica,sans-Serif" font-size="10.00">tlz::import_json_file</text>
</a>
</g>
</g>
<!-- Node1&#45;&gt;Node18 -->
<g id="edge30" class="edge"><title>Node1&#45;&gt;Node18</title>
<path fill="none" stroke="midnightblue" d="M28.6414,-186.37C38.6113,-175.803 55.9616,-159.014 74,-149 77.9264,-146.82 82.1346,-144.859 86.4414,-143.1"/>
<polygon fill="midnightblue" stroke="midnightblue" points="87.7992,-146.329 95.9561,-139.568 85.3631,-139.767 87.7992,-146.329"/>
</g>
<!-- Node19 -->
<g id="node19" class="node"><title>Node19</title>
<g id="a_node19"><a xlink:href="namespacetlz.html#a55912f12ae3521ac51a3d4ab3d75183a" target="_top" xlink:title="tlz::load_depth">
<polygon fill="white" stroke="black" points="97,-82.5 97,-101.5 177,-101.5 177,-82.5 97,-82.5"/>
<text text-anchor="middle" x="137" y="-89.5" font-family="Helvetica,sans-Serif" font-size="10.00">tlz::load_depth</text>
</a>
</g>
</g>
<!-- Node1&#45;&gt;Node19 -->
<g id="edge31" class="edge"><title>Node1&#45;&gt;Node19</title>
<path fill="none" stroke="midnightblue" d="M23.539,-186.257C30.4525,-168.593 47.4388,-131.238 74,-111 78.0926,-107.882 82.7,-105.271 87.508,-103.087"/>
<polygon fill="midnightblue" stroke="midnightblue" points="88.8912,-106.304 96.9185,-99.3889 86.3312,-99.7886 88.8912,-106.304"/>
</g>
<!-- Node20 -->
<g id="node20" class="node"><title>Node20</title>
<g id="a_node20"><a xlink:href="depth__remapping_8cc.html#a63b909cef5838b26348dd48f01b99cd1" target="_top" xlink:title="do_depth_remapping">
<polygon fill="white" stroke="black" points="83.5,-44.5 83.5,-63.5 190.5,-63.5 190.5,-44.5 83.5,-44.5"/>
<text text-anchor="middle" x="137" y="-51.5" font-family="Helvetica,sans-Serif" font-size="10.00">do_depth_remapping</text>
</a>
</g>
</g>
<!-- Node1&#45;&gt;Node20 -->
<g id="edge32" class="edge"><title>Node1&#45;&gt;Node20</title>
<path fill="none" stroke="midnightblue" d="M21.4378,-186.414C25.4013,-163.374 38.6344,-104.474 74,-73 75.9132,-71.2973 77.9761,-69.7472 80.1468,-68.336"/>
<polygon fill="midnightblue" stroke="midnightblue" points="81.8445,-71.3969 88.966,-63.5525 78.507,-65.2437 81.8445,-71.3969"/>
</g>
<!-- Node23 -->
<g id="node23" class="node"><title>Node23</title>
<g id="a_node23"><a xlink:href="namespacetlz.html#a368c5ff91078bfc7c2584e90c147f953" target="_top" xlink:title="tlz::save_depth">
<polygon fill="white" stroke="black" points="95.5,-6.5 95.5,-25.5 178.5,-25.5 178.5,-6.5 95.5,-6.5"/>
<text text-anchor="middle" x="137" y="-13.5" font-family="Helvetica,sans-Serif" font-size="10.00">tlz::save_depth</text>
</a>
</g>
</g>
<!-- Node1&#45;&gt;Node23 -->
<g id="edge35" class="edge"><title>Node1&#45;&gt;Node23</title>
<path fill="none" stroke="midnightblue" d="M20.3083,-186.458C21.7249,-158.864 29.6512,-78.1998 74,-35 77.4954,-31.5952 81.5845,-28.7986 85.9661,-26.502"/>
<polygon fill="midnightblue" stroke="midnightblue" points="87.4987,-29.6522 95.274,-22.4552 84.7077,-23.2326 87.4987,-29.6522"/>
</g>
<!-- Node3&#45;&gt;Node4 -->
<g id="edge3" class="edge"><title>Node3&#45;&gt;Node4</title>
<path fill="none" stroke="midnightblue" d="M345.227,-442.384C356.199,-438.731 367.949,-433.972 378,-428 396.66,-416.913 396.153,-407.353 414,-395 416.23,-393.457 418.602,-391.961 421.029,-390.532"/>
<polygon fill="midnightblue" stroke="midnightblue" points="422.804,-393.55 429.898,-385.68 419.445,-387.409 422.804,-393.55"/>
</g>
<!-- Node5 -->
<g id="node5" class="node"><title>Node5</title>
<g id="a_node5"><a xlink:href="namespacetlz.html#a780431daab8d2595372eacb43143b52d" target="_top" xlink:title="tlz::args">
<polygon fill="white" stroke="black" points="557.5,-328.5 557.5,-347.5 609.5,-347.5 609.5,-328.5 557.5,-328.5"/>
<text text-anchor="middle" x="583.5" y="-335.5" font-family="Helvetica,sans-Serif" font-size="10.00">tlz::args</text>
</a>
</g>
</g>
<!-- Node3&#45;&gt;Node5 -->
<g id="edge9" class="edge"><title>Node3&#45;&gt;Node5</title>
<path fill="none" stroke="midnightblue" d="M357.505,-455.824C395.825,-456.726 449.229,-453.374 491,-433 526.477,-415.696 555.663,-378.623 570.945,-356.249"/>
<polygon fill="midnightblue" stroke="midnightblue" points="574.027,-357.933 576.621,-347.661 568.187,-354.074 574.027,-357.933"/>
</g>
<!-- Node7 -->
<g id="node7" class="node"><title>Node7</title>
<g id="a_node7"><a xlink:href="classtlz_1_1args__list.html#a38ad21acd64a4af98ffdf4a47837cdbe" target="_top" xlink:title="tlz::args_list::usage_fail">
<polygon fill="white" stroke="black" points="676,-290.5 676,-309.5 796,-309.5 796,-290.5 676,-290.5"/>
<text text-anchor="middle" x="736" y="-297.5" font-family="Helvetica,sans-Serif" font-size="10.00">tlz::args_list::usage_fail</text>
</a>
</g>
</g>
<!-- Node3&#45;&gt;Node7 -->
<g id="edge10" class="edge"><title>Node3&#45;&gt;Node7</title>
<path fill="none" stroke="midnightblue" d="M357.61,-461.499C395.041,-466.733 447.243,-469.861 491,-457 586.252,-429.003 679.465,-351.055 717.318,-316.665"/>
<polygon fill="midnightblue" stroke="midnightblue" points="719.95,-319 724.934,-309.651 715.207,-313.851 719.95,-319"/>
</g>
<!-- Node9 -->
<g id="node9" class="node"><title>Node9</title>
<g id="a_node9"><a xlink:href="namespacetlz.html#abb019466ea9f56c0dab27e893d891837" target="_top" xlink:title="tlz::file_exists">
<polygon fill="white" stroke="black" points="414,-404.5 414,-423.5 491,-423.5 491,-404.5 414,-404.5"/>
<text text-anchor="middle" x="452.5" y="-411.5" font-family="Helvetica,sans-Serif" font-size="10.00">tlz::file_exists</text>
</a>
</g>
</g>
<!-- Node3&#45;&gt;Node9 -->
<g id="edge8" class="edge"><title>Node3&#45;&gt;Node9</title>
<path fill="none" stroke="midnightblue" d="M344.211,-442.411C362.821,-437.483 385.697,-431.425 405.539,-426.171"/>
<polygon fill="midnightblue" stroke="midnightblue" points="406.53,-429.529 415.3,-423.586 404.738,-422.762 406.53,-429.529"/>
</g>
<!-- Node4&#45;&gt;Node5 -->
<g id="edge4" class="edge"><title>Node4&#45;&gt;Node5</title>
<path fill="none" stroke="midnightblue" d="M486.052,-366.411C504.78,-360.894 528.314,-353.962 547.447,-348.326"/>
<polygon fill="midnightblue" stroke="midnightblue" points="548.679,-351.611 557.283,-345.428 546.701,-344.897 548.679,-351.611"/>
</g>
<!-- Node6 -->
<g id="node6" class="node"><title>Node6</title>
<g id="a_node6"><a xlink:href="classtlz_1_1args__list.html#a73d99bc75998dc14607a3a372d28dc6d" target="_top" xlink:title="tlz::args_list::next_arg">
<polygon fill="white" stroke="black" points="527,-290.5 527,-309.5 640,-309.5 640,-290.5 527,-290.5"/>
<text text-anchor="middle" x="583.5" y="-297.5" font-family="Helvetica,sans-Serif" font-size="10.00">tlz::args_list::next_arg</text>
</a>
</g>
</g>
<!-- Node4&#45;&gt;Node6 -->
<g id="edge5" class="edge"><title>Node4&#45;&gt;Node6</title>
<path fill="none" stroke="midnightblue" d="M463.681,-366.308C477.203,-353.879 502.272,-332.341 527,-319 530.938,-316.875 535.159,-314.92 539.451,-313.139"/>
<polygon fill="midnightblue" stroke="midnightblue" points="540.793,-316.373 548.873,-309.52 538.283,-309.838 540.793,-316.373"/>
</g>
<!-- Node6&#45;&gt;Node7 -->
<g id="edge6" class="edge"><title>Node6&#45;&gt;Node7</title>
<path fill="none" stroke="midnightblue" d="M640.113,-300C648.479,-300 657.192,-300 665.8,-300"/>
<polygon fill="midnightblue" stroke="midnightblue" points="665.828,-303.5 675.828,-300 665.828,-296.5 665.828,-303.5"/>
</g>
<!-- Node8 -->
<g id="node8" class="node"><title>Node8</title>
<g id="a_node8"><a xlink:href="namespacetlz.html#a8e4f8c8c2927bc4350de13bfa0f8f9e1" target="_top" xlink:title="tlz::to_string">
<polygon fill="white" stroke="black" points="700.5,-249.5 700.5,-268.5 771.5,-268.5 771.5,-249.5 700.5,-249.5"/>
<text text-anchor="middle" x="736" y="-256.5" font-family="Helvetica,sans-Serif" font-size="10.00">tlz::to_string</text>
</a>
</g>
</g>
<!-- Node6&#45;&gt;Node8 -->
<g id="edge7" class="edge"><title>Node6&#45;&gt;Node8</title>
<path fill="none" stroke="midnightblue" d="M619.406,-290.491C640.585,-284.721 667.819,-277.302 690.531,-271.114"/>
<polygon fill="midnightblue" stroke="midnightblue" points="691.555,-274.463 700.283,-268.458 689.715,-267.709 691.555,-274.463"/>
</g>
<!-- Node10&#45;&gt;Node5 -->
<g id="edge12" class="edge"><title>Node10&#45;&gt;Node5</title>
<path fill="none" stroke="midnightblue" d="M167.651,-208.375C186.898,-202.643 212.654,-195.931 236,-193 298.62,-185.139 318.311,-172.5 378,-193 438.203,-213.677 443.866,-238.218 491,-281 508.226,-296.636 507.428,-306.424 527,-319 533.303,-323.05 540.566,-326.341 547.718,-328.975"/>
<polygon fill="midnightblue" stroke="midnightblue" points="546.706,-332.327 557.299,-332.17 548.92,-325.687 546.706,-332.327"/>
</g>
<!-- Node10&#45;&gt;Node6 -->
<g id="edge17" class="edge"><title>Node10&#45;&gt;Node6</title>
<path fill="none" stroke="midnightblue" d="M177.694,-208.468C185.411,-205.725 193.206,-202.281 200,-198 219.683,-185.598 214.629,-169.192 236,-160 340.111,-115.219 400.073,-92.3479 491,-160 535.673,-193.238 488.713,-239.571 527,-280 528.818,-281.92 530.833,-283.655 532.988,-285.225"/>
<polygon fill="midnightblue" stroke="midnightblue" points="531.48,-288.4 541.867,-290.492 535.052,-282.38 531.48,-288.4"/>
</g>
<!-- Node11 -->
<g id="node11" class="node"><title>Node11</title>
<g id="a_node11"><a xlink:href="classtlz_1_1args__list.html#a4aee93f4b0d9b5b4e7a5d13cb637337c" target="_top" xlink:title="tlz::args_list::has\l_next_arg">
<polygon fill="white" stroke="black" points="261,-241 261,-271 353,-271 353,-241 261,-241"/>
<text text-anchor="start" x="269" y="-259" font-family="Helvetica,sans-Serif" font-size="10.00">tlz::args_list::has</text>
<text text-anchor="middle" x="307" y="-248" font-family="Helvetica,sans-Serif" font-size="10.00">_next_arg</text>
</a>
</g>
</g>
<!-- Node10&#45;&gt;Node11 -->
<g id="edge13" class="edge"><title>Node10&#45;&gt;Node11</title>
<path fill="none" stroke="midnightblue" d="M180.393,-227.589C201.816,-232.435 228.069,-238.373 251.024,-243.565"/>
<polygon fill="midnightblue" stroke="midnightblue" points="250.446,-247.023 260.972,-245.815 251.991,-240.195 250.446,-247.023"/>
</g>
<!-- Node12 -->
<g id="node12" class="node"><title>Node12</title>
<g id="a_node12"><a xlink:href="classtlz_1_1args__list.html#ae7c07d1c8f24c2aa4fe0ba68ec45d353" target="_top" xlink:title="tlz::args_list::next\l_arg_is">
<polygon fill="white" stroke="black" points="536,-241 536,-271 631,-271 631,-241 536,-241"/>
<text text-anchor="start" x="544" y="-259" font-family="Helvetica,sans-Serif" font-size="10.00">tlz::args_list::next</text>
<text text-anchor="middle" x="583.5" y="-248" font-family="Helvetica,sans-Serif" font-size="10.00">_arg_is</text>
</a>
</g>
</g>
<!-- Node10&#45;&gt;Node12 -->
<g id="edge14" class="edge"><title>Node10&#45;&gt;Node12</title>
<path fill="none" stroke="midnightblue" d="M183.046,-208.379C189.19,-205.719 195.069,-202.327 200,-198 228.093,-173.349 204.417,-141.987 236,-122 331.768,-61.3951 390.781,-69.0787 491,-122 534.607,-145.027 561.361,-199.219 573.92,-231.188"/>
<polygon fill="midnightblue" stroke="midnightblue" points="570.708,-232.589 577.503,-240.718 577.26,-230.126 570.708,-232.589"/>
</g>
<!-- Node13 -->
<g id="node13" class="node"><title>Node13</title>
<g id="a_node13"><a xlink:href="namespacetlz.html#a65770a2c1ff57c5ae6542d4465a3d3f4" target="_top" xlink:title="tlz::out_filename_arg">
<polygon fill="white" stroke="black" points="253.5,-202.5 253.5,-221.5 360.5,-221.5 360.5,-202.5 253.5,-202.5"/>
<text text-anchor="middle" x="307" y="-209.5" font-family="Helvetica,sans-Serif" font-size="10.00">tlz::out_filename_arg</text>
</a>
</g>
</g>
<!-- Node10&#45;&gt;Node13 -->
<g id="edge18" class="edge"><title>Node10&#45;&gt;Node13</title>
<path fill="none" stroke="midnightblue" d="M200.08,-215.783C214.145,-215.281 229.092,-214.747 243.187,-214.243"/>
<polygon fill="midnightblue" stroke="midnightblue" points="243.406,-217.738 253.275,-213.883 243.156,-210.742 243.406,-217.738"/>
</g>
<!-- Node12&#45;&gt;Node7 -->
<g id="edge15" class="edge"><title>Node12&#45;&gt;Node7</title>
<path fill="none" stroke="midnightblue" d="M631.294,-269.681C650.84,-275.395 673.389,-281.988 692.459,-287.563"/>
<polygon fill="midnightblue" stroke="midnightblue" points="691.499,-290.929 702.08,-290.375 693.464,-284.21 691.499,-290.929"/>
</g>
<!-- Node12&#45;&gt;Node8 -->
<g id="edge16" class="edge"><title>Node12&#45;&gt;Node8</title>
<path fill="none" stroke="midnightblue" d="M631.294,-256.933C649.991,-257.305 671.437,-257.733 689.956,-258.102"/>
<polygon fill="midnightblue" stroke="midnightblue" points="690.124,-261.606 700.192,-258.306 690.263,-254.607 690.124,-261.606"/>
</g>
<!-- Node13&#45;&gt;Node4 -->
<g id="edge19" class="edge"><title>Node13&#45;&gt;Node4</title>
<path fill="none" stroke="midnightblue" d="M360.807,-220.557C367.068,-223.176 372.999,-226.58 378,-231 409.664,-258.983 394.295,-281.618 414,-319 421.163,-332.59 430.693,-347.039 438.353,-357.989"/>
<polygon fill="midnightblue" stroke="midnightblue" points="435.6,-360.157 444.254,-366.268 441.3,-356.094 435.6,-360.157"/>
</g>
<!-- Node14&#45;&gt;Node5 -->
<g id="edge22" class="edge"><title>Node14&#45;&gt;Node5</title>
<path fill="none" stroke="midnightblue" d="M181.821,-306.955C198.719,-309.454 218.225,-312.117 236,-314 349.371,-326.008 484.275,-333.37 547.072,-336.398"/>
<polygon fill="midnightblue" stroke="midnightblue" points="547.074,-339.902 557.229,-336.881 547.406,-332.91 547.074,-339.902"/>
</g>
<!-- Node14&#45;&gt;Node11 -->
<g id="edge23" class="edge"><title>Node14&#45;&gt;Node11</title>
<path fill="none" stroke="midnightblue" d="M174.453,-290.453C196.86,-284.584 225.996,-276.953 251.151,-270.365"/>
<polygon fill="midnightblue" stroke="midnightblue" points="252.146,-273.723 260.932,-267.803 250.372,-266.951 252.146,-273.723"/>
</g>
<!-- Node15 -->
<g id="node15" class="node"><title>Node15</title>
<g id="a_node15"><a xlink:href="namespacetlz.html#ac18630fe66cc71c8cc5eb6acce057f5f" target="_top" xlink:title="tlz::bool_arg">
<polygon fill="white" stroke="black" points="417.5,-290.5 417.5,-309.5 487.5,-309.5 487.5,-290.5 417.5,-290.5"/>
<text text-anchor="middle" x="452.5" y="-297.5" font-family="Helvetica,sans-Serif" font-size="10.00">tlz::bool_arg</text>
</a>
</g>
</g>
<!-- Node14&#45;&gt;Node15 -->
<g id="edge24" class="edge"><title>Node14&#45;&gt;Node15</title>
<path fill="none" stroke="midnightblue" d="M181.591,-300C241.109,-300 347.234,-300 407.147,-300"/>
<polygon fill="midnightblue" stroke="midnightblue" points="407.419,-303.5 417.419,-300 407.419,-296.5 407.419,-303.5"/>
</g>
<!-- Node16 -->
<g id="node16" class="node"><title>Node16</title>
<g id="a_node16"><a xlink:href="namespacetlz.html#abea9308e4287a82deb9e44e7cc9782a0" target="_top" xlink:title="tlz::view_index_arg">
<polygon fill="white" stroke="black" points="256.5,-366.5 256.5,-385.5 357.5,-385.5 357.5,-366.5 256.5,-366.5"/>
<text text-anchor="middle" x="307" y="-373.5" font-family="Helvetica,sans-Serif" font-size="10.00">tlz::view_index_arg</text>
</a>
</g>
</g>
<!-- Node14&#45;&gt;Node16 -->
<g id="edge27" class="edge"><title>Node14&#45;&gt;Node16</title>
<path fill="none" stroke="midnightblue" d="M154.255,-309.647C173.384,-320.757 206.312,-339.13 236,-352 245.186,-355.982 255.266,-359.764 264.844,-363.098"/>
<polygon fill="midnightblue" stroke="midnightblue" points="263.992,-366.505 274.586,-366.401 266.239,-359.875 263.992,-366.505"/>
</g>
<!-- Node15&#45;&gt;Node5 -->
<g id="edge25" class="edge"><title>Node15&#45;&gt;Node5</title>
<path fill="none" stroke="midnightblue" d="M486.052,-309.589C504.78,-315.106 528.314,-322.038 547.447,-327.674"/>
<polygon fill="midnightblue" stroke="midnightblue" points="546.701,-331.103 557.283,-330.572 548.679,-324.389 546.701,-331.103"/>
</g>
<!-- Node15&#45;&gt;Node6 -->
<g id="edge26" class="edge"><title>Node15&#45;&gt;Node6</title>
<path fill="none" stroke="midnightblue" d="M487.731,-300C496.595,-300 506.445,-300 516.347,-300"/>
<polygon fill="midnightblue" stroke="midnightblue" points="516.646,-303.5 526.646,-300 516.646,-296.5 516.646,-303.5"/>
</g>
<!-- Node16&#45;&gt;Node4 -->
<g id="edge28" class="edge"><title>Node16&#45;&gt;Node4</title>
<path fill="none" stroke="midnightblue" d="M357.787,-376C372.914,-376 389.483,-376 404.426,-376"/>
<polygon fill="midnightblue" stroke="midnightblue" points="404.474,-379.5 414.474,-376 404.474,-372.5 404.474,-379.5"/>
</g>
<!-- Node21 -->
<g id="node21" class="node"><title>Node21</title>
<g id="a_node21"><a xlink:href="classtlz_1_1kinect__remapping.html#ade5a57b1715a58352b9edc74b4a88f6b" target="_top" xlink:title="tlz::kinect_remapping\l::remap_ir_to_color_samples">
<polygon fill="white" stroke="black" points="236,-39 236,-69 378,-69 378,-39 236,-39"/>
<text text-anchor="start" x="244" y="-57" font-family="Helvetica,sans-Serif" font-size="10.00">tlz::kinect_remapping</text>
<text text-anchor="middle" x="307" y="-46" font-family="Helvetica,sans-Serif" font-size="10.00">::remap_ir_to_color_samples</text>
</a>
</g>
</g>
<!-- Node20&#45;&gt;Node21 -->
<g id="edge33" class="edge"><title>Node20&#45;&gt;Node21</title>
<path fill="none" stroke="midnightblue" d="M190.695,-54C201.897,-54 213.965,-54 225.927,-54"/>
<polygon fill="midnightblue" stroke="midnightblue" points="225.929,-57.5001 235.929,-54 225.929,-50.5001 225.929,-57.5001"/>
</g>
<!-- Node22 -->
<g id="node22" class="node"><title>Node22</title>
<g id="a_node22"><a xlink:href="namespacetlz.html#a91d341001d1d4c6e2e464c33493a646f" target="_top" xlink:title="tlz::make_depth_densify">
<polygon fill="white" stroke="black" points="245.5,-0.5 245.5,-19.5 368.5,-19.5 368.5,-0.5 245.5,-0.5"/>
<text text-anchor="middle" x="307" y="-7.5" font-family="Helvetica,sans-Serif" font-size="10.00">tlz::make_depth_densify</text>
</a>
</g>
</g>
<!-- Node20&#45;&gt;Node22 -->
<g id="edge34" class="edge"><title>Node20&#45;&gt;Node22</title>
<path fill="none" stroke="midnightblue" d="M174.453,-44.4527C199.441,-37.9084 232.797,-29.1722 259.668,-22.1346"/>
<polygon fill="midnightblue" stroke="midnightblue" points="260.831,-25.4482 269.618,-19.5287 259.057,-18.6766 260.831,-25.4482"/>
</g>
</g>
</svg>
