<?xml version="1.0" encoding="UTF-8" standalone="no"?>
<!DOCTYPE svg PUBLIC "-//W3C//DTD SVG 1.1//EN"
 "http://www.w3.org/Graphics/SVG/1.1/DTD/svg11.dtd">
<!-- Generated by graphviz version 2.38.0 (20140413.2041)
 -->
<!-- Title: do_depth_remapping Pages: 1 -->
<svg width="293pt" height="78pt"
 viewBox="0.00 0.00 293.00 77.50" xmlns="http://www.w3.org/2000/svg" xmlns:xlink="http://www.w3.org/1999/xlink">
<g id="graph0" class="graph" transform="scale(1 1) rotate(0) translate(4 73.5)">
<title>do_depth_remapping</title>
<polygon fill="white" stroke="none" points="-4,4 -4,-73.5 289,-73.5 289,4 -4,4"/>
<!-- Node1 -->
<g id="node1" class="node"><title>Node1</title>
<polygon fill="#bfbfbf" stroke="black" points="0,-22.5 0,-41.5 107,-41.5 107,-22.5 0,-22.5"/>
<text text-anchor="middle" x="53.5" y="-29.5" font-family="Helvetica,sans-Serif" font-size="10.00">do_depth_remapping</text>
</g>
<!-- Node2 -->
<g id="node2" class="node"><title>Node2</title>
<g id="a_node2"><a xlink:href="classtlz_1_1kinect__remapping.html#ade5a57b1715a58352b9edc74b4a88f6b" target="_top" xlink:title="tlz::kinect_remapping\l::remap_ir_to_color_samples">
<polygon fill="white" stroke="black" points="143,-39 143,-69 285,-69 285,-39 143,-39"/>
<text text-anchor="start" x="151" y="-57" font-family="Helvetica,sans-Serif" font-size="10.00">tlz::kinect_remapping</text>
<text text-anchor="middle" x="214" y="-46" font-family="Helvetica,sans-Serif" font-size="10.00">::remap_ir_to_color_samples</text>
</a>
</g>
</g>
<!-- Node1&#45;&gt;Node2 -->
<g id="edge1" class="edge"><title>Node1&#45;&gt;Node2</title>
<path fill="none" stroke="midnightblue" d="M107.278,-39.3257C115.498,-40.4667 124.148,-41.6672 132.813,-42.8699"/>
<polygon fill="midnightblue" stroke="midnightblue" points="132.58,-46.371 142.966,-44.2792 133.542,-39.4375 132.58,-46.371"/>
</g>
<!-- Node3 -->
<g id="node3" class="node"><title>Node3</title>
<g id="a_node3"><a xlink:href="namespacetlz.html#a91d341001d1d4c6e2e464c33493a646f" target="_top" xlink:title="tlz::make_depth_densify">
<polygon fill="white" stroke="black" points="152.5,-0.5 152.5,-19.5 275.5,-19.5 275.5,-0.5 152.5,-0.5"/>
<text text-anchor="middle" x="214" y="-7.5" font-family="Helvetica,sans-Serif" font-size="10.00">tlz::make_depth_densify</text>
</a>
</g>
</g>
<!-- Node1&#45;&gt;Node3 -->
<g id="edge2" class="edge"><title>Node1&#45;&gt;Node3</title>
<path fill="none" stroke="midnightblue" d="M107.278,-24.6743C118.422,-23.1275 130.356,-21.4711 142.045,-19.8486"/>
<polygon fill="midnightblue" stroke="midnightblue" points="142.806,-23.2767 152.23,-18.435 141.843,-16.3431 142.806,-23.2767"/>
</g>
</g>
</svg>
