<?xml version="1.0" encoding="UTF-8" standalone="no"?>
<!DOCTYPE svg PUBLIC "-//W3C//DTD SVG 1.1//EN"
 "http://www.w3.org/Graphics/SVG/1.1/DTD/svg11.dtd">
<!-- Generated by graphviz version 2.38.0 (20140413.2041)
 -->
<!-- Title: do_depth_reprojection Pages: 1 -->
<svg width="279pt" height="88pt"
 viewBox="0.00 0.00 279.00 88.00" xmlns="http://www.w3.org/2000/svg" xmlns:xlink="http://www.w3.org/1999/xlink">
<g id="graph0" class="graph" transform="scale(1 1) rotate(0) translate(4 84)">
<title>do_depth_reprojection</title>
<polygon fill="white" stroke="none" points="-4,4 -4,-84 275,-84 275,4 -4,4"/>
<!-- Node1 -->
<g id="node1" class="node"><title>Node1</title>
<polygon fill="#bfbfbf" stroke="black" points="0,-24.5 0,-43.5 112,-43.5 112,-24.5 0,-24.5"/>
<text text-anchor="middle" x="56" y="-31.5" font-family="Helvetica,sans-Serif" font-size="10.00">do_depth_reprojection</text>
</g>
<!-- Node2 -->
<g id="node2" class="node"><title>Node2</title>
<g id="a_node2"><a xlink:href="classtlz_1_1kinect__reprojection.html#a0e55570a8afb6c70598495ea716e1dfe" target="_top" xlink:title="tlz::kinect_reprojection\l::reproject_ir_to_color\l_samples">
<polygon fill="white" stroke="black" points="152,-38.5 152,-79.5 267,-79.5 267,-38.5 152,-38.5"/>
<text text-anchor="start" x="160" y="-67.5" font-family="Helvetica,sans-Serif" font-size="10.00">tlz::kinect_reprojection</text>
<text text-anchor="start" x="160" y="-56.5" font-family="Helvetica,sans-Serif" font-size="10.00">::reproject_ir_to_color</text>
<text text-anchor="middle" x="209.5" y="-45.5" font-family="Helvetica,sans-Serif" font-size="10.00">_samples</text>
</a>
</g>
</g>
<!-- Node1&#45;&gt;Node2 -->
<g id="edge1" class="edge"><title>Node1&#45;&gt;Node2</title>
<path fill="none" stroke="midnightblue" d="M112.124,-43.0963C121.832,-44.6983 132.03,-46.3811 142.01,-48.028"/>
<polygon fill="midnightblue" stroke="midnightblue" points="141.454,-51.4836 151.891,-49.6586 142.594,-44.577 141.454,-51.4836"/>
</g>
<!-- Node3 -->
<g id="node3" class="node"><title>Node3</title>
<g id="a_node3"><a xlink:href="namespacetlz.html#a91d341001d1d4c6e2e464c33493a646f" target="_top" xlink:title="tlz::make_depth_densify">
<polygon fill="white" stroke="black" points="148,-0.5 148,-19.5 271,-19.5 271,-0.5 148,-0.5"/>
<text text-anchor="middle" x="209.5" y="-7.5" font-family="Helvetica,sans-Serif" font-size="10.00">tlz::make_depth_densify</text>
</a>
</g>
</g>
<!-- Node1&#45;&gt;Node3 -->
<g id="edge2" class="edge"><title>Node1&#45;&gt;Node3</title>
<path fill="none" stroke="midnightblue" d="M112.124,-25.2676C120.668,-23.914 129.591,-22.5004 138.412,-21.1031"/>
<polygon fill="midnightblue" stroke="midnightblue" points="138.972,-24.5581 148.301,-19.5365 137.877,-17.6443 138.972,-24.5581"/>
</g>
</g>
</svg>
