<?xml version="1.0" encoding="UTF-8" standalone="no"?>
<!DOCTYPE svg PUBLIC "-//W3C//DTD SVG 1.1//EN"
 "http://www.w3.org/Graphics/SVG/1.1/DTD/svg11.dtd">
<!-- Generated by graphviz version 2.38.0 (20140413.2041)
 -->
<!-- Title: main Pages: 1 -->
<svg width="794pt" height="632pt"
 viewBox="0.00 0.00 794.00 632.00" xmlns="http://www.w3.org/2000/svg" xmlns:xlink="http://www.w3.org/1999/xlink">
<g id="graph0" class="graph" transform="scale(1 1) rotate(0) translate(4 628)">
<title>main</title>
<polygon fill="white" stroke="none" points="-4,4 -4,-628 790,-628 790,4 -4,4"/>
<!-- Node1 -->
<g id="node1" class="node"><title>Node1</title>
<polygon fill="#bfbfbf" stroke="black" points="0,-244.5 0,-263.5 38,-263.5 38,-244.5 0,-244.5"/>
<text text-anchor="middle" x="19" y="-251.5" font-family="Helvetica,sans-Serif" font-size="10.00">main</text>
</g>
<!-- Node2 -->
<g id="node2" class="node"><title>Node2</title>
<g id="a_node2"><a xlink:href="namespacetlz.html#a3c03f5d9d6261ec2909938822fc47f8a" target="_top" xlink:title="tlz::get_args">
<polygon fill="white" stroke="black" points="101.5,-604.5 101.5,-623.5 172.5,-623.5 172.5,-604.5 101.5,-604.5"/>
<text text-anchor="middle" x="137" y="-611.5" font-family="Helvetica,sans-Serif" font-size="10.00">tlz::get_args</text>
</a>
</g>
</g>
<!-- Node1&#45;&gt;Node2 -->
<g id="edge1" class="edge"><title>Node1&#45;&gt;Node2</title>
<path fill="none" stroke="midnightblue" d="M20.2868,-263.623C21.9403,-313.017 31.7203,-537.76 74,-590 78.7425,-595.86 85.1007,-600.292 91.9415,-603.643"/>
<polygon fill="midnightblue" stroke="midnightblue" points="90.8838,-606.993 101.463,-607.576 93.5562,-600.523 90.8838,-606.993"/>
</g>
<!-- Node3 -->
<g id="node3" class="node"><title>Node3</title>
<g id="a_node3"><a xlink:href="namespacetlz.html#a634de7ca11e100e4a118dffe80376a75" target="_top" xlink:title="tlz::in_filename_arg">
<polygon fill="white" stroke="black" points="247,-566.5 247,-585.5 348,-585.5 348,-566.5 247,-566.5"/>
<text text-anchor="middle" x="297.5" y="-573.5" font-family="Helvetica,sans-Serif" font-size="10.00">tlz::in_filename_arg</text>
</a>
</g>
</g>
<!-- Node1&#45;&gt;Node3 -->
<g id="edge2" class="edge"><title>Node1&#45;&gt;Node3</title>
<path fill="none" stroke="midnightblue" d="M20.2591,-263.65C21.721,-310.265 30.5069,-511.523 74,-552 118.037,-592.983 190.196,-593.171 240.352,-586.919"/>
<polygon fill="midnightblue" stroke="midnightblue" points="240.955,-590.369 250.388,-585.546 240.006,-583.434 240.955,-590.369"/>
</g>
<!-- Node4 -->
<g id="node4" class="node"><title>Node4</title>
<g id="a_node4"><a xlink:href="namespacetlz.html#a0621d598fb83b13bf028f3e6293d04f8" target="_top" xlink:title="tlz::string_arg">
<polygon fill="white" stroke="black" points="400,-490.5 400,-509.5 476,-509.5 476,-490.5 400,-490.5"/>
<text text-anchor="middle" x="438" y="-497.5" font-family="Helvetica,sans-Serif" font-size="10.00">tlz::string_arg</text>
</a>
</g>
</g>
<!-- Node1&#45;&gt;Node4 -->
<g id="edge20" class="edge"><title>Node1&#45;&gt;Node4</title>
<path fill="none" stroke="midnightblue" d="M20.0708,-263.521C20.789,-293.566 26.8839,-387.651 74,-443 158.975,-542.823 228.841,-534.624 359,-519 370.987,-517.561 383.793,-514.92 395.491,-512.056"/>
<polygon fill="midnightblue" stroke="midnightblue" points="396.62,-515.38 405.437,-509.506 394.881,-508.599 396.62,-515.38"/>
</g>
<!-- Node10 -->
<g id="node10" class="node"><title>Node10</title>
<g id="a_node10"><a xlink:href="namespacetlz.html#a4791154460ea7bf2fa5984b1748bc9d1" target="_top" xlink:title="tlz::out_filename_opt_arg">
<polygon fill="white" stroke="black" points="74,-269.5 74,-288.5 200,-288.5 200,-269.5 74,-269.5"/>
<text text-anchor="middle" x="137" y="-276.5" font-family="Helvetica,sans-Serif" font-size="10.00">tlz::out_filename_opt_arg</text>
</a>
</g>
</g>
<!-- Node1&#45;&gt;Node10 -->
<g id="edge11" class="edge"><title>Node1&#45;&gt;Node10</title>
<path fill="none" stroke="midnightblue" d="M38.125,-257.906C49.8337,-260.43 65.7444,-263.859 81.3331,-267.218"/>
<polygon fill="midnightblue" stroke="midnightblue" points="80.9702,-270.72 91.4831,-269.406 82.445,-263.878 80.9702,-270.72"/>
</g>
<!-- Node14 -->
<g id="node14" class="node"><title>Node14</title>
<g id="a_node14"><a xlink:href="namespacetlz.html#a5186c46291b525427b48828632f7adec" target="_top" xlink:title="tlz::bool_opt_arg">
<polygon fill="white" stroke="black" points="92.5,-414.5 92.5,-433.5 181.5,-433.5 181.5,-414.5 92.5,-414.5"/>
<text text-anchor="middle" x="137" y="-421.5" font-family="Helvetica,sans-Serif" font-size="10.00">tlz::bool_opt_arg</text>
</a>
</g>
</g>
<!-- Node1&#45;&gt;Node14 -->
<g id="edge21" class="edge"><title>Node1&#45;&gt;Node14</title>
<path fill="none" stroke="midnightblue" d="M26.569,-263.627C45.3114,-291.094 99.2612,-370.159 123.703,-405.979"/>
<polygon fill="midnightblue" stroke="midnightblue" points="120.976,-408.191 129.503,-414.479 126.758,-404.246 120.976,-408.191"/>
</g>
<!-- Node17 -->
<g id="node17" class="node"><title>Node17</title>
<g id="a_node17"><a xlink:href="namespacetlz.html#ad5e7c69f85c8a3b9aad1bd4aeb551148" target="_top" xlink:title="tlz::decode_kinect\l_reprojection_parameters">
<polygon fill="white" stroke="black" points="74,-214 74,-244 200,-244 200,-214 74,-214"/>
<text text-anchor="start" x="82" y="-232" font-family="Helvetica,sans-Serif" font-size="10.00">tlz::decode_kinect</text>
<text text-anchor="middle" x="137" y="-221" font-family="Helvetica,sans-Serif" font-size="10.00">_reprojection_parameters</text>
</a>
</g>
</g>
<!-- Node1&#45;&gt;Node17 -->
<g id="edge29" class="edge"><title>Node1&#45;&gt;Node17</title>
<path fill="none" stroke="midnightblue" d="M38.125,-250.094C45.4081,-248.524 54.317,-246.604 63.7629,-244.568"/>
<polygon fill="midnightblue" stroke="midnightblue" points="64.7172,-247.943 73.7553,-242.415 63.2424,-241.1 64.7172,-247.943"/>
</g>
<!-- Node22 -->
<g id="node22" class="node"><title>Node22</title>
<g id="a_node22"><a xlink:href="namespacetlz.html#aa1be9362f548fcf9378e1fc9074089c4" target="_top" xlink:title="tlz::import_json_file">
<polygon fill="white" stroke="black" points="86.5,-175.5 86.5,-194.5 187.5,-194.5 187.5,-175.5 86.5,-175.5"/>
<text text-anchor="middle" x="137" y="-182.5" font-family="Helvetica,sans-Serif" font-size="10.00">tlz::import_json_file</text>
</a>
</g>
</g>
<!-- Node1&#45;&gt;Node22 -->
<g id="edge37" class="edge"><title>Node1&#45;&gt;Node22</title>
<path fill="none" stroke="midnightblue" d="M28.1606,-244.132C37.9536,-232.893 55.3956,-214.706 74,-204 77.7324,-201.852 81.7335,-199.922 85.8398,-198.193"/>
<polygon fill="midnightblue" stroke="midnightblue" points="87.4276,-201.334 95.5349,-194.513 84.9437,-194.789 87.4276,-201.334"/>
</g>
<!-- Node23 -->
<g id="node23" class="node"><title>Node23</title>
<g id="a_node23"><a xlink:href="namespacetlz.html#a55912f12ae3521ac51a3d4ab3d75183a" target="_top" xlink:title="tlz::load_depth">
<polygon fill="white" stroke="black" points="97,-137.5 97,-156.5 177,-156.5 177,-137.5 97,-137.5"/>
<text text-anchor="middle" x="137" y="-144.5" font-family="Helvetica,sans-Serif" font-size="10.00">tlz::load_depth</text>
</a>
</g>
</g>
<!-- Node1&#45;&gt;Node23 -->
<g id="edge38" class="edge"><title>Node1&#45;&gt;Node23</title>
<path fill="none" stroke="midnightblue" d="M23.2317,-244.483C29.8448,-226.442 46.6466,-187.18 74,-166 78.0682,-162.85 82.6599,-160.219 87.4585,-158.022"/>
<polygon fill="midnightblue" stroke="midnightblue" points="88.8426,-161.239 96.8584,-154.311 86.2717,-154.728 88.8426,-161.239"/>
</g>
<!-- Node24 -->
<g id="node24" class="node"><title>Node24</title>
<g id="a_node24"><a xlink:href="depth__reprojection_8cc.html#a6dde206a715a5b5af069615e3cb882fd" target="_top" xlink:title="do_depth_reprojection">
<polygon fill="white" stroke="black" points="81,-86.5 81,-105.5 193,-105.5 193,-86.5 81,-86.5"/>
<text text-anchor="middle" x="137" y="-93.5" font-family="Helvetica,sans-Serif" font-size="10.00">do_depth_reprojection</text>
</a>
</g>
</g>
<!-- Node1&#45;&gt;Node24 -->
<g id="edge39" class="edge"><title>Node1&#45;&gt;Node24</title>
<path fill="none" stroke="midnightblue" d="M21.8221,-244.243C26.5597,-221.295 41.2442,-163.188 74,-128 80.8605,-120.63 89.8027,-114.672 98.7513,-109.987"/>
<polygon fill="midnightblue" stroke="midnightblue" points="100.487,-113.036 107.992,-105.559 97.4614,-106.724 100.487,-113.036"/>
</g>
<!-- Node27 -->
<g id="node27" class="node"><title>Node27</title>
<g id="a_node27"><a xlink:href="namespacetlz.html#a368c5ff91078bfc7c2584e90c147f953" target="_top" xlink:title="tlz::save_depth">
<polygon fill="white" stroke="black" points="95.5,-48.5 95.5,-67.5 178.5,-67.5 178.5,-48.5 95.5,-48.5"/>
<text text-anchor="middle" x="137" y="-55.5" font-family="Helvetica,sans-Serif" font-size="10.00">tlz::save_depth</text>
</a>
</g>
</g>
<!-- Node1&#45;&gt;Node27 -->
<g id="edge42" class="edge"><title>Node1&#45;&gt;Node27</title>
<path fill="none" stroke="midnightblue" d="M19.9718,-244.382C20.4222,-214.951 25.8689,-125.191 74,-77 77.4955,-73.5001 81.6175,-70.6419 86.0479,-68.3083"/>
<polygon fill="midnightblue" stroke="midnightblue" points="87.6937,-71.4095 95.4733,-64.2172 84.9065,-64.9882 87.6937,-71.4095"/>
</g>
<!-- Node3&#45;&gt;Node4 -->
<g id="edge3" class="edge"><title>Node3&#45;&gt;Node4</title>
<path fill="none" stroke="midnightblue" d="M327.283,-566.489C337.585,-562.595 349.092,-557.664 359,-552 376.597,-541.94 378.158,-535.279 395,-524 399.71,-520.846 404.856,-517.686 409.881,-514.744"/>
<polygon fill="midnightblue" stroke="midnightblue" points="411.722,-517.723 418.675,-509.729 408.254,-511.643 411.722,-517.723"/>
</g>
<!-- Node5 -->
<g id="node5" class="node"><title>Node5</title>
<g id="a_node5"><a xlink:href="namespacetlz.html#a780431daab8d2595372eacb43143b52d" target="_top" xlink:title="tlz::args">
<polygon fill="white" stroke="black" points="547.5,-452.5 547.5,-471.5 599.5,-471.5 599.5,-452.5 547.5,-452.5"/>
<text text-anchor="middle" x="573.5" y="-459.5" font-family="Helvetica,sans-Serif" font-size="10.00">tlz::args</text>
</a>
</g>
</g>
<!-- Node3&#45;&gt;Node5 -->
<g id="edge9" class="edge"><title>Node3&#45;&gt;Node5</title>
<path fill="none" stroke="midnightblue" d="M339.103,-566.49C376.826,-556.922 434.081,-540.514 481,-519 506.208,-507.441 532.888,-490.168 550.892,-477.667"/>
<polygon fill="midnightblue" stroke="midnightblue" points="553.309,-480.245 559.462,-471.62 549.273,-474.525 553.309,-480.245"/>
</g>
<!-- Node7 -->
<g id="node7" class="node"><title>Node7</title>
<g id="a_node7"><a xlink:href="classtlz_1_1args__list.html#a38ad21acd64a4af98ffdf4a47837cdbe" target="_top" xlink:title="tlz::args_list::usage_fail">
<polygon fill="white" stroke="black" points="666,-288.5 666,-307.5 786,-307.5 786,-288.5 666,-288.5"/>
<text text-anchor="middle" x="726" y="-295.5" font-family="Helvetica,sans-Serif" font-size="10.00">tlz::args_list::usage_fail</text>
</a>
</g>
</g>
<!-- Node3&#45;&gt;Node7 -->
<g id="edge10" class="edge"><title>Node3&#45;&gt;Node7</title>
<path fill="none" stroke="midnightblue" d="M348.151,-575.484C419.735,-572.05 551.893,-555.245 630,-481 679.848,-433.617 708.382,-354.283 719.518,-317.644"/>
<polygon fill="midnightblue" stroke="midnightblue" points="722.971,-318.307 722.42,-307.726 716.253,-316.341 722.971,-318.307"/>
</g>
<!-- Node9 -->
<g id="node9" class="node"><title>Node9</title>
<g id="a_node9"><a xlink:href="namespacetlz.html#abb019466ea9f56c0dab27e893d891837" target="_top" xlink:title="tlz::file_exists">
<polygon fill="white" stroke="black" points="399.5,-604.5 399.5,-623.5 476.5,-623.5 476.5,-604.5 399.5,-604.5"/>
<text text-anchor="middle" x="438" y="-611.5" font-family="Helvetica,sans-Serif" font-size="10.00">tlz::file_exists</text>
</a>
</g>
</g>
<!-- Node3&#45;&gt;Node9 -->
<g id="edge8" class="edge"><title>Node3&#45;&gt;Node9</title>
<path fill="none" stroke="midnightblue" d="M333.449,-585.589C351.328,-590.494 373.288,-596.52 392.378,-601.757"/>
<polygon fill="midnightblue" stroke="midnightblue" points="391.492,-605.143 402.062,-604.414 393.344,-598.393 391.492,-605.143"/>
</g>
<!-- Node4&#45;&gt;Node5 -->
<g id="edge4" class="edge"><title>Node4&#45;&gt;Node5</title>
<path fill="none" stroke="midnightblue" d="M472.688,-490.411C492.511,-484.768 517.54,-477.644 537.575,-471.941"/>
<polygon fill="midnightblue" stroke="midnightblue" points="538.593,-475.291 547.252,-469.187 536.676,-468.558 538.593,-475.291"/>
</g>
<!-- Node6 -->
<g id="node6" class="node"><title>Node6</title>
<g id="a_node6"><a xlink:href="classtlz_1_1args__list.html#a73d99bc75998dc14607a3a372d28dc6d" target="_top" xlink:title="tlz::args_list::next_arg">
<polygon fill="white" stroke="black" points="517,-288.5 517,-307.5 630,-307.5 630,-288.5 517,-288.5"/>
<text text-anchor="middle" x="573.5" y="-295.5" font-family="Helvetica,sans-Serif" font-size="10.00">tlz::args_list::next_arg</text>
</a>
</g>
</g>
<!-- Node4&#45;&gt;Node6 -->
<g id="edge5" class="edge"><title>Node4&#45;&gt;Node6</title>
<path fill="none" stroke="midnightblue" d="M445.439,-490.257C466.41,-458.526 532.975,-357.805 560.455,-316.225"/>
<polygon fill="midnightblue" stroke="midnightblue" points="563.532,-317.918 566.126,-307.645 557.692,-314.058 563.532,-317.918"/>
</g>
<!-- Node6&#45;&gt;Node7 -->
<g id="edge6" class="edge"><title>Node6&#45;&gt;Node7</title>
<path fill="none" stroke="midnightblue" d="M630.113,-298C638.479,-298 647.192,-298 655.8,-298"/>
<polygon fill="midnightblue" stroke="midnightblue" points="655.828,-301.5 665.828,-298 655.828,-294.5 655.828,-301.5"/>
</g>
<!-- Node8 -->
<g id="node8" class="node"><title>Node8</title>
<g id="a_node8"><a xlink:href="namespacetlz.html#a8e4f8c8c2927bc4350de13bfa0f8f9e1" target="_top" xlink:title="tlz::to_string">
<polygon fill="white" stroke="black" points="690.5,-247.5 690.5,-266.5 761.5,-266.5 761.5,-247.5 690.5,-247.5"/>
<text text-anchor="middle" x="726" y="-254.5" font-family="Helvetica,sans-Serif" font-size="10.00">tlz::to_string</text>
</a>
</g>
</g>
<!-- Node6&#45;&gt;Node8 -->
<g id="edge7" class="edge"><title>Node6&#45;&gt;Node8</title>
<path fill="none" stroke="midnightblue" d="M609.406,-288.491C630.585,-282.721 657.819,-275.302 680.531,-269.114"/>
<polygon fill="midnightblue" stroke="midnightblue" points="681.555,-272.463 690.283,-266.458 679.715,-265.709 681.555,-272.463"/>
</g>
<!-- Node10&#45;&gt;Node5 -->
<g id="edge12" class="edge"><title>Node10&#45;&gt;Node5</title>
<path fill="none" stroke="midnightblue" d="M200.424,-282.637C245.782,-286.955 307.913,-296.391 359,-317 439.015,-349.278 519.454,-415.038 554.407,-445.647"/>
<polygon fill="midnightblue" stroke="midnightblue" points="552.106,-448.285 561.913,-452.296 556.748,-443.045 552.106,-448.285"/>
</g>
<!-- Node10&#45;&gt;Node6 -->
<g id="edge17" class="edge"><title>Node10&#45;&gt;Node6</title>
<path fill="none" stroke="midnightblue" d="M200.159,-275.194C269.023,-271.862 383.259,-268.959 481,-279 495.546,-280.494 511.19,-283.291 525.357,-286.289"/>
<polygon fill="midnightblue" stroke="midnightblue" points="524.856,-289.762 535.375,-288.491 526.359,-282.925 524.856,-289.762"/>
</g>
<!-- Node11 -->
<g id="node11" class="node"><title>Node11</title>
<g id="a_node11"><a xlink:href="classtlz_1_1args__list.html#a4aee93f4b0d9b5b4e7a5d13cb637337c" target="_top" xlink:title="tlz::args_list::has\l_next_arg">
<polygon fill="white" stroke="black" points="251.5,-365 251.5,-395 343.5,-395 343.5,-365 251.5,-365"/>
<text text-anchor="start" x="259.5" y="-383" font-family="Helvetica,sans-Serif" font-size="10.00">tlz::args_list::has</text>
<text text-anchor="middle" x="297.5" y="-372" font-family="Helvetica,sans-Serif" font-size="10.00">_next_arg</text>
</a>
</g>
</g>
<!-- Node10&#45;&gt;Node11 -->
<g id="edge13" class="edge"><title>Node10&#45;&gt;Node11</title>
<path fill="none" stroke="midnightblue" d="M148.483,-288.682C165.711,-304.222 201.548,-335.01 236,-355 239.387,-356.965 242.958,-358.854 246.602,-360.652"/>
<polygon fill="midnightblue" stroke="midnightblue" points="245.207,-363.863 255.748,-364.924 248.169,-357.521 245.207,-363.863"/>
</g>
<!-- Node12 -->
<g id="node12" class="node"><title>Node12</title>
<g id="a_node12"><a xlink:href="classtlz_1_1args__list.html#ae7c07d1c8f24c2aa4fe0ba68ec45d353" target="_top" xlink:title="tlz::args_list::next\l_arg_is">
<polygon fill="white" stroke="black" points="526,-239 526,-269 621,-269 621,-239 526,-239"/>
<text text-anchor="start" x="534" y="-257" font-family="Helvetica,sans-Serif" font-size="10.00">tlz::args_list::next</text>
<text text-anchor="middle" x="573.5" y="-246" font-family="Helvetica,sans-Serif" font-size="10.00">_arg_is</text>
</a>
</g>
</g>
<!-- Node10&#45;&gt;Node12 -->
<g id="edge14" class="edge"><title>Node10&#45;&gt;Node12</title>
<path fill="none" stroke="midnightblue" d="M200.164,-272.116C212.05,-270.953 224.402,-269.85 236,-269 334.126,-261.812 448.619,-257.593 515.581,-255.546"/>
<polygon fill="midnightblue" stroke="midnightblue" points="516.02,-259.034 525.91,-255.235 515.809,-252.037 516.02,-259.034"/>
</g>
<!-- Node13 -->
<g id="node13" class="node"><title>Node13</title>
<g id="a_node13"><a xlink:href="namespacetlz.html#a65770a2c1ff57c5ae6542d4465a3d3f4" target="_top" xlink:title="tlz::out_filename_arg">
<polygon fill="white" stroke="black" points="244,-326.5 244,-345.5 351,-345.5 351,-326.5 244,-326.5"/>
<text text-anchor="middle" x="297.5" y="-333.5" font-family="Helvetica,sans-Serif" font-size="10.00">tlz::out_filename_arg</text>
</a>
</g>
</g>
<!-- Node10&#45;&gt;Node13 -->
<g id="edge18" class="edge"><title>Node10&#45;&gt;Node13</title>
<path fill="none" stroke="midnightblue" d="M164.529,-288.541C190.816,-297.994 231.265,-312.54 260.454,-323.037"/>
<polygon fill="midnightblue" stroke="midnightblue" points="259.29,-326.338 269.884,-326.428 261.659,-319.751 259.29,-326.338"/>
</g>
<!-- Node12&#45;&gt;Node7 -->
<g id="edge15" class="edge"><title>Node12&#45;&gt;Node7</title>
<path fill="none" stroke="midnightblue" d="M621.294,-267.681C640.84,-273.395 663.389,-279.988 682.459,-285.563"/>
<polygon fill="midnightblue" stroke="midnightblue" points="681.499,-288.929 692.08,-288.375 683.464,-282.21 681.499,-288.929"/>
</g>
<!-- Node12&#45;&gt;Node8 -->
<g id="edge16" class="edge"><title>Node12&#45;&gt;Node8</title>
<path fill="none" stroke="midnightblue" d="M621.294,-254.933C639.991,-255.305 661.437,-255.733 679.956,-256.102"/>
<polygon fill="midnightblue" stroke="midnightblue" points="680.124,-259.606 690.192,-256.306 680.263,-252.607 680.124,-259.606"/>
</g>
<!-- Node13&#45;&gt;Node4 -->
<g id="edge19" class="edge"><title>Node13&#45;&gt;Node4</title>
<path fill="none" stroke="midnightblue" d="M343.191,-345.611C348.879,-348.065 354.333,-351.142 359,-355 399.796,-388.724 422.383,-449.523 431.76,-480.586"/>
<polygon fill="midnightblue" stroke="midnightblue" points="428.408,-481.596 434.533,-490.24 435.136,-479.663 428.408,-481.596"/>
</g>
<!-- Node14&#45;&gt;Node5 -->
<g id="edge22" class="edge"><title>Node14&#45;&gt;Node5</title>
<path fill="none" stroke="midnightblue" d="M181.901,-428.085C198.809,-429.644 218.301,-431.425 236,-433 345.644,-442.759 475.434,-453.8 536.862,-458.995"/>
<polygon fill="midnightblue" stroke="midnightblue" points="536.909,-462.511 547.168,-459.866 537.499,-455.536 536.909,-462.511"/>
</g>
<!-- Node14&#45;&gt;Node11 -->
<g id="edge23" class="edge"><title>Node14&#45;&gt;Node11</title>
<path fill="none" stroke="midnightblue" d="M172.392,-414.453C192.627,-408.835 218.68,-401.603 241.688,-395.216"/>
<polygon fill="midnightblue" stroke="midnightblue" points="242.636,-398.585 251.335,-392.538 240.764,-391.84 242.636,-398.585"/>
</g>
<!-- Node15 -->
<g id="node15" class="node"><title>Node15</title>
<g id="a_node15"><a xlink:href="namespacetlz.html#ac18630fe66cc71c8cc5eb6acce057f5f" target="_top" xlink:title="tlz::bool_arg">
<polygon fill="white" stroke="black" points="403,-288.5 403,-307.5 473,-307.5 473,-288.5 403,-288.5"/>
<text text-anchor="middle" x="438" y="-295.5" font-family="Helvetica,sans-Serif" font-size="10.00">tlz::bool_arg</text>
</a>
</g>
</g>
<!-- Node14&#45;&gt;Node15 -->
<g id="edge24" class="edge"><title>Node14&#45;&gt;Node15</title>
<path fill="none" stroke="midnightblue" d="M181.788,-430.129C228.743,-434.509 303.962,-435.027 359,-404 393.831,-384.364 417.491,-342.04 428.976,-317.223"/>
<polygon fill="midnightblue" stroke="midnightblue" points="432.31,-318.338 433.15,-307.776 425.907,-315.509 432.31,-318.338"/>
</g>
<!-- Node16 -->
<g id="node16" class="node"><title>Node16</title>
<g id="a_node16"><a xlink:href="namespacetlz.html#abea9308e4287a82deb9e44e7cc9782a0" target="_top" xlink:title="tlz::view_index_arg">
<polygon fill="white" stroke="black" points="247,-490.5 247,-509.5 348,-509.5 348,-490.5 247,-490.5"/>
<text text-anchor="middle" x="297.5" y="-497.5" font-family="Helvetica,sans-Serif" font-size="10.00">tlz::view_index_arg</text>
</a>
</g>
</g>
<!-- Node14&#45;&gt;Node16 -->
<g id="edge27" class="edge"><title>Node14&#45;&gt;Node16</title>
<path fill="none" stroke="midnightblue" d="M154.711,-433.594C173.993,-444.492 206.8,-462.511 236,-476 244.037,-479.712 252.82,-483.4 261.141,-486.731"/>
<polygon fill="midnightblue" stroke="midnightblue" points="260.037,-490.058 270.624,-490.457 262.597,-483.543 260.037,-490.058"/>
</g>
<!-- Node15&#45;&gt;Node5 -->
<g id="edge25" class="edge"><title>Node15&#45;&gt;Node5</title>
<path fill="none" stroke="midnightblue" d="M460.402,-307.693C467.45,-311.517 475.009,-316.357 481,-322 519.589,-358.35 549.676,-414.062 563.76,-443.028"/>
<polygon fill="midnightblue" stroke="midnightblue" points="560.761,-444.871 568.211,-452.404 567.085,-441.87 560.761,-444.871"/>
</g>
<!-- Node15&#45;&gt;Node6 -->
<g id="edge26" class="edge"><title>Node15&#45;&gt;Node6</title>
<path fill="none" stroke="midnightblue" d="M473.033,-298C483.31,-298 494.961,-298 506.579,-298"/>
<polygon fill="midnightblue" stroke="midnightblue" points="506.745,-301.5 516.745,-298 506.745,-294.5 506.745,-301.5"/>
</g>
<!-- Node16&#45;&gt;Node4 -->
<g id="edge28" class="edge"><title>Node16&#45;&gt;Node4</title>
<path fill="none" stroke="midnightblue" d="M348.11,-500C361.718,-500 376.429,-500 389.892,-500"/>
<polygon fill="midnightblue" stroke="midnightblue" points="389.904,-503.5 399.904,-500 389.904,-496.5 389.904,-503.5"/>
</g>
<!-- Node18 -->
<g id="node18" class="node"><title>Node18</title>
<g id="a_node18"><a xlink:href="namespacetlz.html#a8cba4853d0d796a01c72f59f36f2a492" target="_top" xlink:title="tlz::decode_intrinsics">
<polygon fill="white" stroke="black" points="243,-98.5 243,-117.5 352,-117.5 352,-98.5 243,-98.5"/>
<text text-anchor="middle" x="297.5" y="-105.5" font-family="Helvetica,sans-Serif" font-size="10.00">tlz::decode_intrinsics</text>
</a>
</g>
</g>
<!-- Node17&#45;&gt;Node18 -->
<g id="edge30" class="edge"><title>Node17&#45;&gt;Node18</title>
<path fill="none" stroke="midnightblue" d="M185.857,-213.962C190.969,-211.153 195.82,-207.856 200,-204 226.294,-179.738 209.638,-156.187 236,-132 240.374,-127.987 245.5,-124.61 250.886,-121.778"/>
<polygon fill="midnightblue" stroke="midnightblue" points="252.503,-124.886 260.108,-117.509 249.563,-118.534 252.503,-124.886"/>
</g>
<!-- Node19 -->
<g id="node19" class="node"><title>Node19</title>
<g id="a_node19"><a xlink:href="namespacetlz.html#a066563a26e2de02f215b179f3d3a53da" target="_top" xlink:title="tlz::decode_mat">
<polygon fill="white" stroke="black" points="395,-136.5 395,-155.5 481,-155.5 481,-136.5 395,-136.5"/>
<text text-anchor="middle" x="438" y="-143.5" font-family="Helvetica,sans-Serif" font-size="10.00">tlz::decode_mat</text>
</a>
</g>
</g>
<!-- Node17&#45;&gt;Node19 -->
<g id="edge35" class="edge"><title>Node17&#45;&gt;Node19</title>
<path fill="none" stroke="midnightblue" d="M181.397,-213.937C187.835,-211.015 194.235,-207.695 200,-204 218.528,-192.123 216.068,-179.331 236,-170 283.047,-147.976 342.774,-143.383 384.855,-143.436"/>
<polygon fill="midnightblue" stroke="midnightblue" points="384.852,-146.936 394.887,-143.536 384.922,-139.936 384.852,-146.936"/>
</g>
<!-- Node20 -->
<g id="node20" class="node"><title>Node20</title>
<g id="a_node20"><a xlink:href="namespacetlz.html#a252af14b9b4ac6502d3e9c5dd8dc90b8" target="_top" xlink:title="tlz::has">
<polygon fill="white" stroke="black" points="549,-98.5 549,-117.5 598,-117.5 598,-98.5 549,-98.5"/>
<text text-anchor="middle" x="573.5" y="-105.5" font-family="Helvetica,sans-Serif" font-size="10.00">tlz::has</text>
</a>
</g>
</g>
<!-- Node17&#45;&gt;Node20 -->
<g id="edge36" class="edge"><title>Node17&#45;&gt;Node20</title>
<path fill="none" stroke="midnightblue" d="M200.304,-224.373C270.529,-217.579 387.136,-201.492 481,-165 507.292,-154.778 534.343,-136.834 552.145,-123.804"/>
<polygon fill="midnightblue" stroke="midnightblue" points="554.651,-126.3 560.558,-117.505 550.455,-120.696 554.651,-126.3"/>
</g>
<!-- Node18&#45;&gt;Node19 -->
<g id="edge31" class="edge"><title>Node18&#45;&gt;Node19</title>
<path fill="none" stroke="midnightblue" d="M333.449,-117.589C351.328,-122.494 373.288,-128.52 392.378,-133.757"/>
<polygon fill="midnightblue" stroke="midnightblue" points="391.492,-137.143 402.062,-136.414 393.344,-130.393 391.492,-137.143"/>
</g>
<!-- Node18&#45;&gt;Node20 -->
<g id="edge32" class="edge"><title>Node18&#45;&gt;Node20</title>
<path fill="none" stroke="midnightblue" d="M337.682,-98.4898C355.116,-94.7247 375.966,-90.856 395,-89 433.042,-85.2906 442.978,-85.094 481,-89 500.246,-90.9771 521.416,-95.2351 538.542,-99.2199"/>
<polygon fill="midnightblue" stroke="midnightblue" points="538.088,-102.71 548.629,-101.643 539.723,-95.904 538.088,-102.71"/>
</g>
<!-- Node21 -->
<g id="node21" class="node"><title>Node21</title>
<g id="a_node21"><a xlink:href="namespacetlz.html#add846dc50c32dfb356cb1a7ac11d37ac" target="_top" xlink:title="tlz::get_or">
<polygon fill="white" stroke="black" points="408,-98.5 408,-117.5 468,-117.5 468,-98.5 408,-98.5"/>
<text text-anchor="middle" x="438" y="-105.5" font-family="Helvetica,sans-Serif" font-size="10.00">tlz::get_or</text>
</a>
</g>
</g>
<!-- Node18&#45;&gt;Node21 -->
<g id="edge33" class="edge"><title>Node18&#45;&gt;Node21</title>
<path fill="none" stroke="midnightblue" d="M352.048,-108C367.212,-108 383.438,-108 397.602,-108"/>
<polygon fill="midnightblue" stroke="midnightblue" points="397.98,-111.5 407.98,-108 397.98,-104.5 397.98,-111.5"/>
</g>
<!-- Node21&#45;&gt;Node20 -->
<g id="edge34" class="edge"><title>Node21&#45;&gt;Node20</title>
<path fill="none" stroke="midnightblue" d="M468.297,-108C489.009,-108 516.833,-108 538.52,-108"/>
<polygon fill="midnightblue" stroke="midnightblue" points="538.615,-111.5 548.615,-108 538.615,-104.5 538.615,-111.5"/>
</g>
<!-- Node25 -->
<g id="node25" class="node"><title>Node25</title>
<g id="a_node25"><a xlink:href="classtlz_1_1kinect__reprojection.html#a0e55570a8afb6c70598495ea716e1dfe" target="_top" xlink:title="tlz::kinect_reprojection\l::reproject_ir_to_color\l_samples">
<polygon fill="white" stroke="black" points="240,-0.5 240,-41.5 355,-41.5 355,-0.5 240,-0.5"/>
<text text-anchor="start" x="248" y="-29.5" font-family="Helvetica,sans-Serif" font-size="10.00">tlz::kinect_reprojection</text>
<text text-anchor="start" x="248" y="-18.5" font-family="Helvetica,sans-Serif" font-size="10.00">::reproject_ir_to_color</text>
<text text-anchor="middle" x="297.5" y="-7.5" font-family="Helvetica,sans-Serif" font-size="10.00">_samples</text>
</a>
</g>
</g>
<!-- Node24&#45;&gt;Node25 -->
<g id="edge40" class="edge"><title>Node24&#45;&gt;Node25</title>
<path fill="none" stroke="midnightblue" d="M176.142,-86.4691C184.213,-83.8615 192.54,-80.7091 200,-77 217.672,-68.2128 219.101,-61.1965 236,-51 238.494,-49.4952 241.073,-48 243.699,-46.5266"/>
<polygon fill="midnightblue" stroke="midnightblue" points="245.622,-49.4651 252.742,-41.6192 242.283,-43.3127 245.622,-49.4651"/>
</g>
<!-- Node26 -->
<g id="node26" class="node"><title>Node26</title>
<g id="a_node26"><a xlink:href="namespacetlz.html#a91d341001d1d4c6e2e464c33493a646f" target="_top" xlink:title="tlz::make_depth_densify">
<polygon fill="white" stroke="black" points="236,-60.5 236,-79.5 359,-79.5 359,-60.5 236,-60.5"/>
<text text-anchor="middle" x="297.5" y="-67.5" font-family="Helvetica,sans-Serif" font-size="10.00">tlz::make_depth_densify</text>
</a>
</g>
</g>
<!-- Node24&#45;&gt;Node26 -->
<g id="edge41" class="edge"><title>Node24&#45;&gt;Node26</title>
<path fill="none" stroke="midnightblue" d="M193.436,-86.9065C204.69,-85.0603 216.651,-83.0983 228.288,-81.1894"/>
<polygon fill="midnightblue" stroke="midnightblue" points="229.104,-84.6024 238.405,-79.5298 227.97,-77.6948 229.104,-84.6024"/>
</g>
</g>
</svg>
