<?xml version="1.0" encoding="UTF-8" standalone="no"?>
<!DOCTYPE svg PUBLIC "-//W3C//DTD SVG 1.1//EN"
 "http://www.w3.org/Graphics/SVG/1.1/DTD/svg11.dtd">
<!-- Generated by graphviz version 2.38.0 (20140413.2041)
 -->
<!-- Title: src/calibration/lib Pages: 1 -->
<svg width="182pt" height="159pt"
 viewBox="0.00 0.00 182.00 159.00" xmlns="http://www.w3.org/2000/svg" xmlns:xlink="http://www.w3.org/1999/xlink">
<g id="graph0" class="graph" transform="scale(1 1) rotate(0) translate(4 155)">
<title>src/calibration/lib</title>
<polygon fill="white" stroke="none" points="-4,4 -4,-155 178,-155 178,4 -4,4"/>
<g id="clust1" class="cluster"><title>clusterdir_f1b881a94df93d2a183c4d8f47373448</title>
<g id="a_clust1"><a xlink:href="dir_f1b881a94df93d2a183c4d8f47373448.html" target="_top" xlink:title="calibration">
<polygon fill="#ddddee" stroke="black" points="8,-56 8,-143 166,-143 166,-56 8,-56"/>
<text text-anchor="middle" x="87" y="-131" font-family="Helvetica,sans-Serif" font-size="10.00">calibration</text>
</a>
</g>
</g>
<g id="clust2" class="cluster"><title>clusterdir_436198c1fa7916166d2cceeaa708b3a7</title>
<g id="a_clust2"><a xlink:href="dir_436198c1fa7916166d2cceeaa708b3a7.html" target="_top">
<polygon fill="#eeeeff" stroke="black" points="16,-64 16,-116 158,-116 158,-64 16,-64"/>
</a>
</g>
</g>
<!-- dir_436198c1fa7916166d2cceeaa708b3a7 -->
<g id="node1" class="node"><title>dir_436198c1fa7916166d2cceeaa708b3a7</title>
<text text-anchor="middle" x="123" y="-87.5" font-family="Helvetica,sans-Serif" font-size="10.00">lib</text>
</g>
<!-- dir_2997df0f69f43d9353eccd8baa2eab04 -->
<g id="node2" class="node"><title>dir_2997df0f69f43d9353eccd8baa2eab04</title>
<g id="a_node2"><a xlink:href="dir_2997df0f69f43d9353eccd8baa2eab04.html" target="_top" xlink:title="cg">
<polygon fill="white" stroke="black" points="78,-108 24,-108 24,-72 78,-72 78,-108"/>
<text text-anchor="middle" x="51" y="-87.5" font-family="Helvetica,sans-Serif" font-size="10.00">cg</text>
</a>
</g>
</g>
<!-- dir_c85d3e3c5052e9ad9ce18c6863244a25 -->
<g id="node3" class="node"><title>dir_c85d3e3c5052e9ad9ce18c6863244a25</title>
<g id="a_node3"><a xlink:href="dir_c85d3e3c5052e9ad9ce18c6863244a25.html" target="_top" xlink:title="lib">
<polygon fill="none" stroke="black" points="78,-36 24,-36 24,-0 78,-0 78,-36"/>
<text text-anchor="middle" x="51" y="-15.5" font-family="Helvetica,sans-Serif" font-size="10.00">lib</text>
</a>
</g>
</g>
<!-- dir_2997df0f69f43d9353eccd8baa2eab04&#45;&gt;dir_c85d3e3c5052e9ad9ce18c6863244a25 -->
<g id="edge1" class="edge"><title>dir_2997df0f69f43d9353eccd8baa2eab04&#45;&gt;dir_c85d3e3c5052e9ad9ce18c6863244a25</title>
<path fill="none" stroke="black" d="M51,-71.6966C51,-63.9827 51,-54.7125 51,-46.1124"/>
<polygon fill="black" stroke="black" points="54.5001,-46.1043 51,-36.1043 47.5001,-46.1044 54.5001,-46.1043"/>
<g id="a_edge1&#45;headlabel"><a xlink:href="dir_000003_000009.html" target="_top" xlink:title="14">
<text text-anchor="middle" x="57.3393" y="-47.199" font-family="Helvetica,sans-Serif" font-size="10.00">14</text>
</a>
</g>
</g>
</g>
</svg>
