<?xml version="1.0" encoding="UTF-8" standalone="no"?>
<!DOCTYPE svg PUBLIC "-//W3C//DTD SVG 1.1//EN"
 "http://www.w3.org/Graphics/SVG/1.1/DTD/svg11.dtd">
<!-- Generated by graphviz version 2.38.0 (20140413.2041)
 -->
<!-- Title: src/kinect Pages: 1 -->
<svg width="110pt" height="231pt"
 viewBox="0.00 0.00 110.00 231.00" xmlns="http://www.w3.org/2000/svg" xmlns:xlink="http://www.w3.org/1999/xlink">
<g id="graph0" class="graph" transform="scale(1 1) rotate(0) translate(4 227)">
<title>src/kinect</title>
<polygon fill="white" stroke="none" points="-4,4 -4,-227 106,-227 106,4 -4,4"/>
<g id="clust1" class="cluster"><title>clusterdir_68267d1309a1af8e8297ef4c3efbcdba</title>
<g id="a_clust1"><a xlink:href="dir_68267d1309a1af8e8297ef4c3efbcdba.html" target="_top" xlink:title="src">
<polygon fill="#ddddee" stroke="black" points="8,-56 8,-215 94,-215 94,-56 8,-56"/>
<text text-anchor="middle" x="51" y="-203" font-family="Helvetica,sans-Serif" font-size="10.00">src</text>
</a>
</g>
</g>
<g id="clust2" class="cluster"><title>clusterdir_2ec8ffb86d7250ab298285e670d30a70</title>
<g id="a_clust2"><a xlink:href="dir_2ec8ffb86d7250ab298285e670d30a70.html" target="_top">
<polygon fill="#eeeeff" stroke="black" points="16,-64 16,-188 86,-188 86,-64 16,-64"/>
</a>
</g>
</g>
<!-- dir_2ec8ffb86d7250ab298285e670d30a70 -->
<g id="node1" class="node"><title>dir_2ec8ffb86d7250ab298285e670d30a70</title>
<text text-anchor="middle" x="51" y="-159.5" font-family="Helvetica,sans-Serif" font-size="10.00">kinect</text>
</g>
<!-- dir_602a2c2f8ff1e05373f5d5c605244fde -->
<g id="node2" class="node"><title>dir_602a2c2f8ff1e05373f5d5c605244fde</title>
<g id="a_node2"><a xlink:href="dir_602a2c2f8ff1e05373f5d5c605244fde.html" target="_top" xlink:title="lib">
<polygon fill="white" stroke="red" points="78,-108 24,-108 24,-72 78,-72 78,-108"/>
<text text-anchor="middle" x="51" y="-87.5" font-family="Helvetica,sans-Serif" font-size="10.00">lib</text>
</a>
</g>
</g>
<!-- dir_2ec8ffb86d7250ab298285e670d30a70&#45;&gt;dir_602a2c2f8ff1e05373f5d5c605244fde -->
<g id="edge1" class="edge"><title>dir_2ec8ffb86d7250ab298285e670d30a70&#45;&gt;dir_602a2c2f8ff1e05373f5d5c605244fde</title>
<path fill="none" stroke="black" d="M51,-143.697C51,-135.983 51,-126.712 51,-118.112"/>
<polygon fill="black" stroke="black" points="54.5001,-118.104 51,-108.104 47.5001,-118.104 54.5001,-118.104"/>
<g id="a_edge1&#45;headlabel"><a xlink:href="dir_000007_000008.html" target="_top" xlink:title="48">
<text text-anchor="middle" x="57.3393" y="-119.199" font-family="Helvetica,sans-Serif" font-size="10.00">48</text>
</a>
</g>
</g>
<!-- dir_c85d3e3c5052e9ad9ce18c6863244a25 -->
<g id="node3" class="node"><title>dir_c85d3e3c5052e9ad9ce18c6863244a25</title>
<g id="a_node3"><a xlink:href="dir_c85d3e3c5052e9ad9ce18c6863244a25.html" target="_top" xlink:title="lib">
<polygon fill="none" stroke="black" points="78,-36 24,-36 24,-0 78,-0 78,-36"/>
<text text-anchor="middle" x="51" y="-15.5" font-family="Helvetica,sans-Serif" font-size="10.00">lib</text>
</a>
</g>
</g>
<!-- dir_602a2c2f8ff1e05373f5d5c605244fde&#45;&gt;dir_c85d3e3c5052e9ad9ce18c6863244a25 -->
<g id="edge2" class="edge"><title>dir_602a2c2f8ff1e05373f5d5c605244fde&#45;&gt;dir_c85d3e3c5052e9ad9ce18c6863244a25</title>
<path fill="none" stroke="black" d="M51,-71.6966C51,-63.9827 51,-54.7125 51,-46.1124"/>
<polygon fill="black" stroke="black" points="54.5001,-46.1043 51,-36.1043 47.5001,-46.1044 54.5001,-46.1043"/>
<g id="a_edge2&#45;headlabel"><a xlink:href="dir_000008_000009.html" target="_top" xlink:title="15">
<text text-anchor="middle" x="57.3393" y="-47.199" font-family="Helvetica,sans-Serif" font-size="10.00">15</text>
</a>
</g>
</g>
</g>
</svg>
