<?xml version="1.0" encoding="UTF-8" standalone="no"?>
<!DOCTYPE svg PUBLIC "-//W3C//DTD SVG 1.1//EN"
 "http://www.w3.org/Graphics/SVG/1.1/DTD/svg11.dtd">
<!-- Generated by graphviz version 2.38.0 (20140413.2041)
 -->
<!-- Title: src Pages: 1 -->
<svg width="534pt" height="148pt"
 viewBox="0.00 0.00 534.00 148.00" xmlns="http://www.w3.org/2000/svg" xmlns:xlink="http://www.w3.org/1999/xlink">
<g id="graph0" class="graph" transform="scale(1 1) rotate(0) translate(4 144)">
<title>src</title>
<polygon fill="white" stroke="none" points="-4,4 -4,-144 530,-144 530,4 -4,4"/>
<g id="clust1" class="cluster"><title>clusterdir_68267d1309a1af8e8297ef4c3efbcdba</title>
<g id="a_clust1"><a xlink:href="dir_68267d1309a1af8e8297ef4c3efbcdba.html" target="_top">
<polygon fill="#eeeeff" stroke="black" points="8,-8 8,-132 518,-132 518,-8 8,-8"/>
</a>
</g>
</g>
<!-- dir_68267d1309a1af8e8297ef4c3efbcdba -->
<g id="node1" class="node"><title>dir_68267d1309a1af8e8297ef4c3efbcdba</title>
<text text-anchor="middle" x="483" y="-103.5" font-family="Helvetica,sans-Serif" font-size="10.00">src</text>
</g>
<!-- dir_f1b881a94df93d2a183c4d8f47373448 -->
<g id="node2" class="node"><title>dir_f1b881a94df93d2a183c4d8f47373448</title>
<g id="a_node2"><a xlink:href="dir_f1b881a94df93d2a183c4d8f47373448.html" target="_top" xlink:title="calibration">
<polygon fill="white" stroke="red" points="437.5,-124 376.5,-124 376.5,-88 437.5,-88 437.5,-124"/>
<text text-anchor="middle" x="407" y="-103.5" font-family="Helvetica,sans-Serif" font-size="10.00">calibration</text>
</a>
</g>
</g>
<!-- dir_c85d3e3c5052e9ad9ce18c6863244a25 -->
<g id="node6" class="node"><title>dir_c85d3e3c5052e9ad9ce18c6863244a25</title>
<g id="a_node6"><a xlink:href="dir_c85d3e3c5052e9ad9ce18c6863244a25.html" target="_top" xlink:title="lib">
<polygon fill="white" stroke="black" points="250,-52 196,-52 196,-16 250,-16 250,-52"/>
<text text-anchor="middle" x="223" y="-31.5" font-family="Helvetica,sans-Serif" font-size="10.00">lib</text>
</a>
</g>
</g>
<!-- dir_f1b881a94df93d2a183c4d8f47373448&#45;&gt;dir_c85d3e3c5052e9ad9ce18c6863244a25 -->
<g id="edge4" class="edge"><title>dir_f1b881a94df93d2a183c4d8f47373448&#45;&gt;dir_c85d3e3c5052e9ad9ce18c6863244a25</title>
<path fill="none" stroke="black" d="M376.489,-91.8502C373.294,-90.5279 370.087,-89.2231 367,-88 330.889,-73.691 289.199,-58.4884 260,-48.052"/>
<polygon fill="black" stroke="black" points="260.817,-44.6277 250.222,-44.5686 258.467,-51.2217 260.817,-44.6277"/>
<g id="a_edge4&#45;headlabel"><a xlink:href="dir_000001_000009.html" target="_top" xlink:title="209">
<text text-anchor="middle" x="265.156" y="-40.6594" font-family="Helvetica,sans-Serif" font-size="10.00">209</text>
</a>
</g>
</g>
<!-- dir_34519bff5ae72130fe71a8620cbf1fc0 -->
<g id="node3" class="node"><title>dir_34519bff5ae72130fe71a8620cbf1fc0</title>
<g id="a_node3"><a xlink:href="dir_34519bff5ae72130fe71a8620cbf1fc0.html" target="_top" xlink:title="camera">
<polygon fill="white" stroke="red" points="358,-124 304,-124 304,-88 358,-88 358,-124"/>
<text text-anchor="middle" x="331" y="-103.5" font-family="Helvetica,sans-Serif" font-size="10.00">camera</text>
</a>
</g>
</g>
<!-- dir_34519bff5ae72130fe71a8620cbf1fc0&#45;&gt;dir_c85d3e3c5052e9ad9ce18c6863244a25 -->
<g id="edge5" class="edge"><title>dir_34519bff5ae72130fe71a8620cbf1fc0&#45;&gt;dir_c85d3e3c5052e9ad9ce18c6863244a25</title>
<path fill="none" stroke="black" d="M304.58,-87.8761C290.59,-78.8083 273.224,-67.5523 258.114,-57.7592"/>
<polygon fill="black" stroke="black" points="259.817,-54.6917 249.521,-52.1898 256.009,-60.5658 259.817,-54.6917"/>
<g id="a_edge5&#45;headlabel"><a xlink:href="dir_000004_000009.html" target="_top" xlink:title="17">
<text text-anchor="middle" x="264.377" y="-51.7642" font-family="Helvetica,sans-Serif" font-size="10.00">17</text>
</a>
</g>
</g>
<!-- dir_7abd1dea21c7c194bff775c6e6f63d65 -->
<g id="node4" class="node"><title>dir_7abd1dea21c7c194bff775c6e6f63d65</title>
<g id="a_node4"><a xlink:href="dir_7abd1dea21c7c194bff775c6e6f63d65.html" target="_top" xlink:title="dataset">
<polygon fill="white" stroke="black" points="286,-124 232,-124 232,-88 286,-88 286,-124"/>
<text text-anchor="middle" x="259" y="-103.5" font-family="Helvetica,sans-Serif" font-size="10.00">dataset</text>
</a>
</g>
</g>
<!-- dir_7abd1dea21c7c194bff775c6e6f63d65&#45;&gt;dir_c85d3e3c5052e9ad9ce18c6863244a25 -->
<g id="edge2" class="edge"><title>dir_7abd1dea21c7c194bff775c6e6f63d65&#45;&gt;dir_c85d3e3c5052e9ad9ce18c6863244a25</title>
<path fill="none" stroke="black" d="M250.101,-87.6966C246.003,-79.7284 241.051,-70.0995 236.507,-61.2641"/>
<polygon fill="black" stroke="black" points="239.483,-59.3965 231.797,-52.1043 233.258,-62.598 239.483,-59.3965"/>
<g id="a_edge2&#45;headlabel"><a xlink:href="dir_000006_000009.html" target="_top" xlink:title="12">
<text text-anchor="middle" x="243.651" y="-58.7946" font-family="Helvetica,sans-Serif" font-size="10.00">12</text>
</a>
</g>
</g>
<!-- dir_2ec8ffb86d7250ab298285e670d30a70 -->
<g id="node5" class="node"><title>dir_2ec8ffb86d7250ab298285e670d30a70</title>
<g id="a_node5"><a xlink:href="dir_2ec8ffb86d7250ab298285e670d30a70.html" target="_top" xlink:title="kinect">
<polygon fill="white" stroke="red" points="214,-124 160,-124 160,-88 214,-88 214,-124"/>
<text text-anchor="middle" x="187" y="-103.5" font-family="Helvetica,sans-Serif" font-size="10.00">kinect</text>
</a>
</g>
</g>
<!-- dir_2ec8ffb86d7250ab298285e670d30a70&#45;&gt;dir_c85d3e3c5052e9ad9ce18c6863244a25 -->
<g id="edge1" class="edge"><title>dir_2ec8ffb86d7250ab298285e670d30a70&#45;&gt;dir_c85d3e3c5052e9ad9ce18c6863244a25</title>
<path fill="none" stroke="black" d="M195.899,-87.6966C199.997,-79.7284 204.949,-70.0995 209.493,-61.2641"/>
<polygon fill="black" stroke="black" points="212.742,-62.598 214.203,-52.1043 206.517,-59.3965 212.742,-62.598"/>
<g id="a_edge1&#45;headlabel"><a xlink:href="dir_000007_000009.html" target="_top" xlink:title="118">
<text text-anchor="middle" x="213.623" y="-64.5931" font-family="Helvetica,sans-Serif" font-size="10.00">118</text>
</a>
</g>
</g>
<!-- dir_88826aa2a10e1882b573f502bc7f4b55 -->
<g id="node7" class="node"><title>dir_88826aa2a10e1882b573f502bc7f4b55</title>
<g id="a_node7"><a xlink:href="dir_88826aa2a10e1882b573f502bc7f4b55.html" target="_top" xlink:title="misc">
<polygon fill="white" stroke="black" points="142,-124 88,-124 88,-88 142,-88 142,-124"/>
<text text-anchor="middle" x="115" y="-103.5" font-family="Helvetica,sans-Serif" font-size="10.00">misc</text>
</a>
</g>
</g>
<!-- dir_88826aa2a10e1882b573f502bc7f4b55&#45;&gt;dir_c85d3e3c5052e9ad9ce18c6863244a25 -->
<g id="edge6" class="edge"><title>dir_88826aa2a10e1882b573f502bc7f4b55&#45;&gt;dir_c85d3e3c5052e9ad9ce18c6863244a25</title>
<path fill="none" stroke="black" d="M141.42,-87.8761C155.41,-78.8083 172.776,-67.5523 187.886,-57.7592"/>
<polygon fill="black" stroke="black" points="189.991,-60.5658 196.479,-52.1898 186.183,-54.6917 189.991,-60.5658"/>
<g id="a_edge6&#45;headlabel"><a xlink:href="dir_000012_000009.html" target="_top" xlink:title="49">
<text text-anchor="middle" x="188.519" y="-62.4034" font-family="Helvetica,sans-Serif" font-size="10.00">49</text>
</a>
</g>
</g>
<!-- dir_3ee55982923d30ac4849703cbf156012 -->
<g id="node8" class="node"><title>dir_3ee55982923d30ac4849703cbf156012</title>
<g id="a_node8"><a xlink:href="dir_3ee55982923d30ac4849703cbf156012.html" target="_top" xlink:title="vsrs">
<polygon fill="white" stroke="black" points="70,-124 16,-124 16,-88 70,-88 70,-124"/>
<text text-anchor="middle" x="43" y="-103.5" font-family="Helvetica,sans-Serif" font-size="10.00">vsrs</text>
</a>
</g>
</g>
<!-- dir_3ee55982923d30ac4849703cbf156012&#45;&gt;dir_c85d3e3c5052e9ad9ce18c6863244a25 -->
<g id="edge3" class="edge"><title>dir_3ee55982923d30ac4849703cbf156012&#45;&gt;dir_c85d3e3c5052e9ad9ce18c6863244a25</title>
<path fill="none" stroke="black" d="M70.0112,-91.9307C73.0269,-90.5654 76.0678,-89.2291 79,-88 114.933,-72.938 156.809,-57.7871 186.109,-47.5651"/>
<polygon fill="black" stroke="black" points="187.617,-50.7468 195.918,-44.1633 185.324,-44.1332 187.617,-50.7468"/>
<g id="a_edge3&#45;headlabel"><a xlink:href="dir_000013_000009.html" target="_top" xlink:title="2">
<text text-anchor="middle" x="185.151" y="-52.1071" font-family="Helvetica,sans-Serif" font-size="10.00">2</text>
</a>
</g>
</g>
</g>
</svg>
