<?xml version="1.0" encoding="UTF-8" standalone="no"?>
<!DOCTYPE svg PUBLIC "-//W3C//DTD SVG 1.1//EN"
 "http://www.w3.org/Graphics/SVG/1.1/DTD/svg11.dtd">
<!-- Generated by graphviz version 2.38.0 (20140413.2041)
 -->
<!-- Title: src/calibration Pages: 1 -->
<svg width="118pt" height="231pt"
 viewBox="0.00 0.00 118.00 231.00" xmlns="http://www.w3.org/2000/svg" xmlns:xlink="http://www.w3.org/1999/xlink">
<g id="graph0" class="graph" transform="scale(1 1) rotate(0) translate(4 227)">
<title>src/calibration</title>
<polygon fill="white" stroke="none" points="-4,4 -4,-227 114,-227 114,4 -4,4"/>
<g id="clust1" class="cluster"><title>clusterdir_68267d1309a1af8e8297ef4c3efbcdba</title>
<g id="a_clust1"><a xlink:href="dir_68267d1309a1af8e8297ef4c3efbcdba.html" target="_top" xlink:title="src">
<polygon fill="#ddddee" stroke="black" points="8,-56 8,-215 102,-215 102,-56 8,-56"/>
<text text-anchor="middle" x="55" y="-203" font-family="Helvetica,sans-Serif" font-size="10.00">src</text>
</a>
</g>
</g>
<g id="clust2" class="cluster"><title>clusterdir_f1b881a94df93d2a183c4d8f47373448</title>
<g id="a_clust2"><a xlink:href="dir_f1b881a94df93d2a183c4d8f47373448.html" target="_top">
<polygon fill="#eeeeff" stroke="black" points="16,-64 16,-188 94,-188 94,-64 16,-64"/>
</a>
</g>
</g>
<!-- dir_f1b881a94df93d2a183c4d8f47373448 -->
<g id="node1" class="node"><title>dir_f1b881a94df93d2a183c4d8f47373448</title>
<text text-anchor="middle" x="55" y="-159.5" font-family="Helvetica,sans-Serif" font-size="10.00">calibration</text>
</g>
<!-- dir_436198c1fa7916166d2cceeaa708b3a7 -->
<g id="node2" class="node"><title>dir_436198c1fa7916166d2cceeaa708b3a7</title>
<g id="a_node2"><a xlink:href="dir_436198c1fa7916166d2cceeaa708b3a7.html" target="_top" xlink:title="lib">
<polygon fill="white" stroke="red" points="80,-108 26,-108 26,-72 80,-72 80,-108"/>
<text text-anchor="middle" x="53" y="-87.5" font-family="Helvetica,sans-Serif" font-size="10.00">lib</text>
</a>
</g>
</g>
<!-- dir_f1b881a94df93d2a183c4d8f47373448&#45;&gt;dir_436198c1fa7916166d2cceeaa708b3a7 -->
<g id="edge2" class="edge"><title>dir_f1b881a94df93d2a183c4d8f47373448&#45;&gt;dir_436198c1fa7916166d2cceeaa708b3a7</title>
<path fill="none" stroke="black" d="M54.5056,-143.697C54.2852,-135.983 54.0204,-126.712 53.7746,-118.112"/>
<polygon fill="black" stroke="black" points="57.273,-118 53.4887,-108.104 50.2758,-118.2 57.273,-118"/>
<g id="a_edge2&#45;headlabel"><a xlink:href="dir_000001_000002.html" target="_top" xlink:title="48">
<text text-anchor="middle" x="60.2136" y="-119.012" font-family="Helvetica,sans-Serif" font-size="10.00">48</text>
</a>
</g>
</g>
<!-- dir_c85d3e3c5052e9ad9ce18c6863244a25 -->
<g id="node3" class="node"><title>dir_c85d3e3c5052e9ad9ce18c6863244a25</title>
<g id="a_node3"><a xlink:href="dir_c85d3e3c5052e9ad9ce18c6863244a25.html" target="_top" xlink:title="lib">
<polygon fill="none" stroke="black" points="107,-36 53,-36 53,-0 107,-0 107,-36"/>
<text text-anchor="middle" x="80" y="-15.5" font-family="Helvetica,sans-Serif" font-size="10.00">lib</text>
</a>
</g>
</g>
<!-- dir_f1b881a94df93d2a183c4d8f47373448&#45;&gt;dir_c85d3e3c5052e9ad9ce18c6863244a25 -->
<g id="edge3" class="edge"><title>dir_f1b881a94df93d2a183c4d8f47373448&#45;&gt;dir_c85d3e3c5052e9ad9ce18c6863244a25</title>
<path fill="none" stroke="black" d="M69.7547,-143.634C77.09,-133.849 85.1862,-121.008 89,-108 94.9535,-87.6936 92.0197,-63.7902 87.9727,-45.8716"/>
<polygon fill="black" stroke="black" points="91.3462,-44.9344 85.52,-36.0854 84.5562,-46.6363 91.3462,-44.9344"/>
<g id="a_edge3&#45;headlabel"><a xlink:href="dir_000001_000009.html" target="_top" xlink:title="209">
<text text-anchor="middle" x="94.9741" y="-45.231" font-family="Helvetica,sans-Serif" font-size="10.00">209</text>
</a>
</g>
</g>
<!-- dir_436198c1fa7916166d2cceeaa708b3a7&#45;&gt;dir_c85d3e3c5052e9ad9ce18c6863244a25 -->
<g id="edge1" class="edge"><title>dir_436198c1fa7916166d2cceeaa708b3a7&#45;&gt;dir_c85d3e3c5052e9ad9ce18c6863244a25</title>
<path fill="none" stroke="black" d="M59.6742,-71.6966C62.7149,-63.8132 66.3827,-54.3042 69.7607,-45.5464"/>
<polygon fill="black" stroke="black" points="73.0693,-46.6939 73.4026,-36.1043 66.5383,-44.1748 73.0693,-46.6939"/>
<g id="a_edge1&#45;headlabel"><a xlink:href="dir_000002_000009.html" target="_top" xlink:title="30">
<text text-anchor="middle" x="74.4248" y="-48.5695" font-family="Helvetica,sans-Serif" font-size="10.00">30</text>
</a>
</g>
</g>
</g>
</svg>
