<?xml version="1.0" encoding="UTF-8" standalone="no"?>
<!DOCTYPE svg PUBLIC "-//W3C//DTD SVG 1.1//EN"
 "http://www.w3.org/Graphics/SVG/1.1/DTD/svg11.dtd">
<!-- Generated by graphviz version 2.38.0 (20140413.2041)
 -->
<!-- Title: src/kinect/lib Pages: 1 -->
<svg width="254pt" height="159pt"
 viewBox="0.00 0.00 254.00 159.00" xmlns="http://www.w3.org/2000/svg" xmlns:xlink="http://www.w3.org/1999/xlink">
<g id="graph0" class="graph" transform="scale(1 1) rotate(0) translate(4 155)">
<title>src/kinect/lib</title>
<polygon fill="white" stroke="none" points="-4,4 -4,-155 250,-155 250,4 -4,4"/>
<g id="clust1" class="cluster"><title>clusterdir_2ec8ffb86d7250ab298285e670d30a70</title>
<g id="a_clust1"><a xlink:href="dir_2ec8ffb86d7250ab298285e670d30a70.html" target="_top" xlink:title="kinect">
<polygon fill="#ddddee" stroke="black" points="8,-56 8,-143 238,-143 238,-56 8,-56"/>
<text text-anchor="middle" x="123" y="-131" font-family="Helvetica,sans-Serif" font-size="10.00">kinect</text>
</a>
</g>
</g>
<g id="clust2" class="cluster"><title>clusterdir_602a2c2f8ff1e05373f5d5c605244fde</title>
<g id="a_clust2"><a xlink:href="dir_602a2c2f8ff1e05373f5d5c605244fde.html" target="_top">
<polygon fill="#eeeeff" stroke="black" points="16,-64 16,-116 230,-116 230,-64 16,-64"/>
</a>
</g>
</g>
<!-- dir_602a2c2f8ff1e05373f5d5c605244fde -->
<g id="node1" class="node"><title>dir_602a2c2f8ff1e05373f5d5c605244fde</title>
<text text-anchor="middle" x="195" y="-87.5" font-family="Helvetica,sans-Serif" font-size="10.00">lib</text>
</g>
<!-- dir_dc0bc01bb042d8756761b555eb2b8840 -->
<g id="node2" class="node"><title>dir_dc0bc01bb042d8756761b555eb2b8840</title>
<g id="a_node2"><a xlink:href="dir_dc0bc01bb042d8756761b555eb2b8840.html" target="_top" xlink:title="densify">
<polygon fill="white" stroke="black" points="150,-108 96,-108 96,-72 150,-72 150,-108"/>
<text text-anchor="middle" x="123" y="-87.5" font-family="Helvetica,sans-Serif" font-size="10.00">densify</text>
</a>
</g>
</g>
<!-- dir_c85d3e3c5052e9ad9ce18c6863244a25 -->
<g id="node4" class="node"><title>dir_c85d3e3c5052e9ad9ce18c6863244a25</title>
<g id="a_node4"><a xlink:href="dir_c85d3e3c5052e9ad9ce18c6863244a25.html" target="_top" xlink:title="lib">
<polygon fill="none" stroke="black" points="150,-36 96,-36 96,-0 150,-0 150,-36"/>
<text text-anchor="middle" x="123" y="-15.5" font-family="Helvetica,sans-Serif" font-size="10.00">lib</text>
</a>
</g>
</g>
<!-- dir_dc0bc01bb042d8756761b555eb2b8840&#45;&gt;dir_c85d3e3c5052e9ad9ce18c6863244a25 -->
<g id="edge1" class="edge"><title>dir_dc0bc01bb042d8756761b555eb2b8840&#45;&gt;dir_c85d3e3c5052e9ad9ce18c6863244a25</title>
<path fill="none" stroke="black" d="M123,-71.6966C123,-63.9827 123,-54.7125 123,-46.1124"/>
<polygon fill="black" stroke="black" points="126.5,-46.1043 123,-36.1043 119.5,-46.1044 126.5,-46.1043"/>
<g id="a_edge1&#45;headlabel"><a xlink:href="dir_000010_000009.html" target="_top" xlink:title="2">
<text text-anchor="middle" x="129.339" y="-47.199" font-family="Helvetica,sans-Serif" font-size="10.00">2</text>
</a>
</g>
</g>
<!-- dir_53234db7a6e3990487f66ad37328de63 -->
<g id="node3" class="node"><title>dir_53234db7a6e3990487f66ad37328de63</title>
<g id="a_node3"><a xlink:href="dir_53234db7a6e3990487f66ad37328de63.html" target="_top" xlink:title="live">
<polygon fill="white" stroke="black" points="78,-108 24,-108 24,-72 78,-72 78,-108"/>
<text text-anchor="middle" x="51" y="-87.5" font-family="Helvetica,sans-Serif" font-size="10.00">live</text>
</a>
</g>
</g>
</g>
</svg>
