<?xml version="1.0" encoding="UTF-8" standalone="no"?>
<!DOCTYPE svg PUBLIC "-//W3C//DTD SVG 1.1//EN"
 "http://www.w3.org/Graphics/SVG/1.1/DTD/svg11.dtd">
<!-- Generated by graphviz version 2.38.0 (20140413.2041)
 -->
<!-- Title: main Pages: 1 -->
<svg width="796pt" height="921pt"
 viewBox="0.00 0.00 796.00 921.00" xmlns="http://www.w3.org/2000/svg" xmlns:xlink="http://www.w3.org/1999/xlink">
<g id="graph0" class="graph" transform="scale(1 1) rotate(0) translate(4 917)">
<title>main</title>
<polygon fill="white" stroke="none" points="-4,4 -4,-917 792,-917 792,4 -4,4"/>
<!-- Node1 -->
<g id="node1" class="node"><title>Node1</title>
<polygon fill="#bfbfbf" stroke="black" points="0,-348.5 0,-367.5 38,-367.5 38,-348.5 0,-348.5"/>
<text text-anchor="middle" x="19" y="-355.5" font-family="Helvetica,sans-Serif" font-size="10.00">main</text>
</g>
<!-- Node2 -->
<g id="node2" class="node"><title>Node2</title>
<g id="a_node2"><a xlink:href="namespacetlz.html#a3c03f5d9d6261ec2909938822fc47f8a" target="_top" xlink:title="tlz::get_args">
<polygon fill="white" stroke="black" points="101.5,-893.5 101.5,-912.5 172.5,-912.5 172.5,-893.5 101.5,-893.5"/>
<text text-anchor="middle" x="137" y="-900.5" font-family="Helvetica,sans-Serif" font-size="10.00">tlz::get_args</text>
</a>
</g>
</g>
<!-- Node1&#45;&gt;Node2 -->
<g id="edge1" class="edge"><title>Node1&#45;&gt;Node2</title>
<path fill="none" stroke="midnightblue" d="M20.3939,-367.511C23.2533,-434.721 41.6363,-836.636 74,-879 78.6246,-885.054 84.9856,-889.581 91.8803,-892.967"/>
<polygon fill="midnightblue" stroke="midnightblue" points="90.9198,-896.356 101.5,-896.912 93.5761,-889.879 90.9198,-896.356"/>
</g>
<!-- Node3 -->
<g id="node3" class="node"><title>Node3</title>
<g id="a_node3"><a xlink:href="namespacetlz.html#a91f1aec7120c97452c495ee447e56b57" target="_top" xlink:title="tlz::dataset_arg">
<polygon fill="white" stroke="black" points="95,-760.5 95,-779.5 179,-779.5 179,-760.5 95,-760.5"/>
<text text-anchor="middle" x="137" y="-767.5" font-family="Helvetica,sans-Serif" font-size="10.00">tlz::dataset_arg</text>
</a>
</g>
</g>
<!-- Node1&#45;&gt;Node3 -->
<g id="edge2" class="edge"><title>Node1&#45;&gt;Node3</title>
<path fill="none" stroke="midnightblue" d="M20.297,-367.509C22.0779,-419.496 32.6982,-669.257 74,-732 80.6037,-742.032 90.8613,-749.855 101.145,-755.727"/>
<polygon fill="midnightblue" stroke="midnightblue" points="99.6123,-758.874 110.098,-760.39 102.846,-752.666 99.6123,-758.874"/>
</g>
<!-- Node10 -->
<g id="node10" class="node"><title>Node10</title>
<g id="a_node10"><a xlink:href="namespacetlz.html#abb019466ea9f56c0dab27e893d891837" target="_top" xlink:title="tlz::file_exists">
<polygon fill="white" stroke="black" points="389,-893.5 389,-912.5 466,-912.5 466,-893.5 389,-893.5"/>
<text text-anchor="middle" x="427.5" y="-900.5" font-family="Helvetica,sans-Serif" font-size="10.00">tlz::file_exists</text>
</a>
</g>
</g>
<!-- Node1&#45;&gt;Node10 -->
<g id="edge45" class="edge"><title>Node1&#45;&gt;Node10</title>
<path fill="none" stroke="midnightblue" d="M20.4419,-367.908C23.4245,-432.794 41.4837,-795.495 74,-831 114.437,-875.153 291.987,-893.554 378.619,-900.012"/>
<polygon fill="midnightblue" stroke="midnightblue" points="378.491,-903.512 388.718,-900.741 378.996,-896.53 378.491,-903.512"/>
</g>
<!-- Node11 -->
<g id="node11" class="node"><title>Node11</title>
<g id="a_node11"><a xlink:href="namespacetlz.html#aea648783e0ac6c50afae30a01cfc260d" target="_top" xlink:title="tlz::enum_arg">
<polygon fill="white" stroke="black" points="389.5,-817.5 389.5,-836.5 465.5,-836.5 465.5,-817.5 389.5,-817.5"/>
<text text-anchor="middle" x="427.5" y="-824.5" font-family="Helvetica,sans-Serif" font-size="10.00">tlz::enum_arg</text>
</a>
</g>
</g>
<!-- Node1&#45;&gt;Node11 -->
<g id="edge12" class="edge"><title>Node1&#45;&gt;Node11</title>
<path fill="none" stroke="midnightblue" d="M20.5161,-367.842C23.8286,-429.248 42.9504,-758.194 74,-789 154.961,-869.325 303.383,-853.282 379.202,-838.29"/>
<polygon fill="midnightblue" stroke="midnightblue" points="380.314,-841.635 389.404,-836.192 378.904,-834.779 380.314,-841.635"/>
</g>
<!-- Node12 -->
<g id="node12" class="node"><title>Node12</title>
<g id="a_node12"><a xlink:href="namespacetlz.html#a4791154460ea7bf2fa5984b1748bc9d1" target="_top" xlink:title="tlz::out_filename_opt_arg">
<polygon fill="white" stroke="black" points="74,-558.5 74,-577.5 200,-577.5 200,-558.5 74,-558.5"/>
<text text-anchor="middle" x="137" y="-565.5" font-family="Helvetica,sans-Serif" font-size="10.00">tlz::out_filename_opt_arg</text>
</a>
</g>
</g>
<!-- Node1&#45;&gt;Node12 -->
<g id="edge16" class="edge"><title>Node1&#45;&gt;Node12</title>
<path fill="none" stroke="midnightblue" d="M21.9091,-367.814C27.1031,-392.824 43.2063,-460.344 74,-508 84.9365,-524.925 101.501,-540.632 114.757,-551.726"/>
<polygon fill="midnightblue" stroke="midnightblue" points="112.924,-554.745 122.899,-558.317 117.329,-549.304 112.924,-554.745"/>
</g>
<!-- Node16 -->
<g id="node16" class="node"><title>Node16</title>
<g id="a_node16"><a xlink:href="namespacetlz.html#a8d3380a8873e542207e21a4384957425" target="_top" xlink:title="tlz::string_opt_arg">
<polygon fill="white" stroke="black" points="89.5,-703.5 89.5,-722.5 184.5,-722.5 184.5,-703.5 89.5,-703.5"/>
<text text-anchor="middle" x="137" y="-710.5" font-family="Helvetica,sans-Serif" font-size="10.00">tlz::string_opt_arg</text>
</a>
</g>
</g>
<!-- Node1&#45;&gt;Node16 -->
<g id="edge25" class="edge"><title>Node1&#45;&gt;Node16</title>
<path fill="none" stroke="midnightblue" d="M21.5002,-367.825C26.5804,-399.979 44.4842,-504.721 74,-587 88.2534,-626.733 111.588,-670.358 125.199,-694.434"/>
<polygon fill="midnightblue" stroke="midnightblue" points="122.218,-696.27 130.223,-703.211 128.293,-692.793 122.218,-696.27"/>
</g>
<!-- Node17 -->
<g id="node17" class="node"><title>Node17</title>
<g id="a_node17"><a xlink:href="classtlz_1_1dataset.html#ad7d438f87e20fd0a734aabff2e6d52a9" target="_top" xlink:title="tlz::dataset::group">
<polygon fill="white" stroke="black" points="89.5,-479.5 89.5,-498.5 184.5,-498.5 184.5,-479.5 89.5,-479.5"/>
<text text-anchor="middle" x="137" y="-486.5" font-family="Helvetica,sans-Serif" font-size="10.00">tlz::dataset::group</text>
</a>
</g>
</g>
<!-- Node1&#45;&gt;Node17 -->
<g id="edge30" class="edge"><title>Node1&#45;&gt;Node17</title>
<path fill="none" stroke="midnightblue" d="M22.3589,-367.727C27.8651,-388.454 43.4747,-437.33 74,-465 78.4375,-469.022 83.6235,-472.4 89.0721,-475.23"/>
<polygon fill="midnightblue" stroke="midnightblue" points="87.8535,-478.521 98.4039,-479.49 90.7608,-472.153 87.8535,-478.521"/>
</g>
<!-- Node20 -->
<g id="node20" class="node"><title>Node20</title>
<g id="a_node20"><a xlink:href="classtlz_1_1dataset__group.html#aa0c9157fd56b01adebcecdcdd98f9e3f" target="_top" xlink:title="tlz::dataset_group\l::view">
<polygon fill="white" stroke="black" points="242,-364 242,-394 337,-394 337,-364 242,-364"/>
<text text-anchor="start" x="250" y="-382" font-family="Helvetica,sans-Serif" font-size="10.00">tlz::dataset_group</text>
<text text-anchor="middle" x="289.5" y="-371" font-family="Helvetica,sans-Serif" font-size="10.00">::view</text>
</a>
</g>
</g>
<!-- Node1&#45;&gt;Node20 -->
<g id="edge33" class="edge"><title>Node1&#45;&gt;Node20</title>
<path fill="none" stroke="midnightblue" d="M23.6539,-367.755C30.5403,-384.537 47.2032,-418.381 74,-432 123.923,-457.371 146.247,-447.705 200,-432 218.225,-426.675 219.753,-418.824 236,-409 241.424,-405.721 247.209,-402.319 252.884,-399.036"/>
<polygon fill="midnightblue" stroke="midnightblue" points="254.713,-402.022 261.643,-394.009 251.228,-395.951 254.713,-402.022"/>
</g>
<!-- Node25 -->
<g id="node25" class="node"><title>Node25</title>
<g id="a_node25"><a xlink:href="classtlz_1_1dataset__view.html#af3c734eaed33af07993255db63d3fc54" target="_top" xlink:title="tlz::dataset_view::\limage_filename">
<polygon fill="white" stroke="black" points="88.5,-392 88.5,-422 185.5,-422 185.5,-392 88.5,-392"/>
<text text-anchor="start" x="96.5" y="-410" font-family="Helvetica,sans-Serif" font-size="10.00">tlz::dataset_view::</text>
<text text-anchor="middle" x="137" y="-399" font-family="Helvetica,sans-Serif" font-size="10.00">image_filename</text>
</a>
</g>
</g>
<!-- Node1&#45;&gt;Node25 -->
<g id="edge39" class="edge"><title>Node1&#45;&gt;Node25</title>
<path fill="none" stroke="midnightblue" d="M38.3632,-366.858C48.7493,-371.778 62.0179,-377.913 74,-383 78.0539,-384.721 82.2767,-386.462 86.528,-388.179"/>
<polygon fill="midnightblue" stroke="midnightblue" points="85.2405,-391.434 95.8258,-391.882 87.8307,-384.93 85.2405,-391.434"/>
</g>
<!-- Node29 -->
<g id="node29" class="node"><title>Node29</title>
<g id="a_node29"><a xlink:href="duplicates_8cc.html#aa7d89ad136a6791616cfe2bbe4f85e32" target="_top" xlink:title="files_are_equal">
<polygon fill="white" stroke="black" points="96,-304.5 96,-323.5 178,-323.5 178,-304.5 96,-304.5"/>
<text text-anchor="middle" x="137" y="-311.5" font-family="Helvetica,sans-Serif" font-size="10.00">files_are_equal</text>
</a>
</g>
</g>
<!-- Node1&#45;&gt;Node29 -->
<g id="edge46" class="edge"><title>Node1&#45;&gt;Node29</title>
<path fill="none" stroke="midnightblue" d="M38.2917,-349.29C48.6555,-344.502 61.9255,-338.616 74,-334 80.5302,-331.504 87.5215,-329.047 94.3705,-326.756"/>
<polygon fill="midnightblue" stroke="midnightblue" points="95.815,-329.966 104.233,-323.533 93.6406,-323.312 95.815,-329.966"/>
</g>
<!-- Node31 -->
<g id="node31" class="node"><title>Node31</title>
<g id="a_node31"><a xlink:href="classtlz_1_1dataset__view.html#a63238745feff55e3d0bea101589895c1" target="_top" xlink:title="tlz::dataset_view::\ldepth_filename">
<polygon fill="white" stroke="black" points="88.5,-343 88.5,-373 185.5,-373 185.5,-343 88.5,-343"/>
<text text-anchor="start" x="96.5" y="-361" font-family="Helvetica,sans-Serif" font-size="10.00">tlz::dataset_view::</text>
<text text-anchor="middle" x="137" y="-350" font-family="Helvetica,sans-Serif" font-size="10.00">depth_filename</text>
</a>
</g>
</g>
<!-- Node1&#45;&gt;Node31 -->
<g id="edge48" class="edge"><title>Node1&#45;&gt;Node31</title>
<path fill="none" stroke="midnightblue" d="M38.125,-358C49.1009,-358 63.7694,-358 78.4036,-358"/>
<polygon fill="midnightblue" stroke="midnightblue" points="78.4837,-361.5 88.4837,-358 78.4836,-354.5 78.4837,-361.5"/>
</g>
<!-- Node32 -->
<g id="node32" class="node"><title>Node32</title>
<g id="a_node32"><a xlink:href="classtlz_1_1dataset.html#a3a77e1219653f07bef6ec7b08cbf7dcf" target="_top" xlink:title="tlz::dataset::y_min">
<polygon fill="white" stroke="black" points="88,-266.5 88,-285.5 186,-285.5 186,-266.5 88,-266.5"/>
<text text-anchor="middle" x="137" y="-273.5" font-family="Helvetica,sans-Serif" font-size="10.00">tlz::dataset::y_min</text>
</a>
</g>
</g>
<!-- Node1&#45;&gt;Node32 -->
<g id="edge50" class="edge"><title>Node1&#45;&gt;Node32</title>
<path fill="none" stroke="midnightblue" d="M25.7164,-348.395C34.4232,-334.581 52.3072,-309.205 74,-295 77.1022,-292.969 80.4324,-291.145 83.8807,-289.51"/>
<polygon fill="midnightblue" stroke="midnightblue" points="85.3338,-292.697 93.2086,-285.609 82.6325,-286.239 85.3338,-292.697"/>
</g>
<!-- Node33 -->
<g id="node33" class="node"><title>Node33</title>
<g id="a_node33"><a xlink:href="classtlz_1_1dataset.html#a6900b6a88a2ac1e23d1a51da20f650e4" target="_top" xlink:title="tlz::dataset::y_max">
<polygon fill="white" stroke="black" points="86.5,-228.5 86.5,-247.5 187.5,-247.5 187.5,-228.5 86.5,-228.5"/>
<text text-anchor="middle" x="137" y="-235.5" font-family="Helvetica,sans-Serif" font-size="10.00">tlz::dataset::y_max</text>
</a>
</g>
</g>
<!-- Node1&#45;&gt;Node33 -->
<g id="edge51" class="edge"><title>Node1&#45;&gt;Node33</title>
<path fill="none" stroke="midnightblue" d="M22.4632,-348.345C28.0811,-328.283 43.7546,-281.891 74,-257 76.0537,-255.31 78.2563,-253.77 80.563,-252.367"/>
<polygon fill="midnightblue" stroke="midnightblue" points="82.5686,-255.272 89.8801,-247.605 79.3828,-249.039 82.5686,-255.272"/>
</g>
<!-- Node34 -->
<g id="node34" class="node"><title>Node34</title>
<g id="a_node34"><a xlink:href="classtlz_1_1dataset.html#a95703f1285ba42a810d46644128daf9a" target="_top" xlink:title="tlz::dataset::y_step">
<polygon fill="white" stroke="black" points="86.5,-190.5 86.5,-209.5 187.5,-209.5 187.5,-190.5 86.5,-190.5"/>
<text text-anchor="middle" x="137" y="-197.5" font-family="Helvetica,sans-Serif" font-size="10.00">tlz::dataset::y_step</text>
</a>
</g>
</g>
<!-- Node1&#45;&gt;Node34 -->
<g id="edge52" class="edge"><title>Node1&#45;&gt;Node34</title>
<path fill="none" stroke="midnightblue" d="M20.9045,-348.319C23.7739,-323.188 34.9347,-255.306 74,-219 75.7086,-217.412 77.5467,-215.957 79.4822,-214.623"/>
<polygon fill="midnightblue" stroke="midnightblue" points="81.5165,-217.493 88.4923,-209.519 78.0662,-211.403 81.5165,-217.493"/>
</g>
<!-- Node35 -->
<g id="node35" class="node"><title>Node35</title>
<g id="a_node35"><a xlink:href="classtlz_1_1dataset.html#a15180d3b04937d9f1c69041a220b943b" target="_top" xlink:title="tlz::dataset::x_min">
<polygon fill="white" stroke="black" points="88,-152.5 88,-171.5 186,-171.5 186,-152.5 88,-152.5"/>
<text text-anchor="middle" x="137" y="-159.5" font-family="Helvetica,sans-Serif" font-size="10.00">tlz::dataset::x_min</text>
</a>
</g>
</g>
<!-- Node1&#45;&gt;Node35 -->
<g id="edge53" class="edge"><title>Node1&#45;&gt;Node35</title>
<path fill="none" stroke="midnightblue" d="M19.9718,-348.382C20.4222,-318.951 25.8689,-229.191 74,-181 75.616,-179.382 77.3659,-177.901 79.2182,-176.546"/>
<polygon fill="midnightblue" stroke="midnightblue" points="81.1007,-179.498 87.8986,-171.372 77.5167,-173.485 81.1007,-179.498"/>
</g>
<!-- Node36 -->
<g id="node36" class="node"><title>Node36</title>
<g id="a_node36"><a xlink:href="classtlz_1_1dataset.html#a7efef5473f244709a47ff506267652b1" target="_top" xlink:title="tlz::dataset::x_step">
<polygon fill="white" stroke="black" points="86.5,-114.5 86.5,-133.5 187.5,-133.5 187.5,-114.5 86.5,-114.5"/>
<text text-anchor="middle" x="137" y="-121.5" font-family="Helvetica,sans-Serif" font-size="10.00">tlz::dataset::x_step</text>
</a>
</g>
</g>
<!-- Node1&#45;&gt;Node36 -->
<g id="edge54" class="edge"><title>Node1&#45;&gt;Node36</title>
<path fill="none" stroke="midnightblue" d="M21.1735,-348.262C25.9191,-310.415 44.8426,-173.693 74,-143 75.2527,-141.681 76.5943,-140.453 78.0085,-139.31"/>
<polygon fill="midnightblue" stroke="midnightblue" points="80.2849,-142.007 86.7891,-133.643 76.489,-136.125 80.2849,-142.007"/>
</g>
<!-- Node37 -->
<g id="node37" class="node"><title>Node37</title>
<g id="a_node37"><a xlink:href="classtlz_1_1dataset.html#a280e3ae6c4b37e1e18fabf00b70be20a" target="_top" xlink:title="tlz::dataset::x_max">
<polygon fill="white" stroke="black" points="86.5,-76.5 86.5,-95.5 187.5,-95.5 187.5,-76.5 86.5,-76.5"/>
<text text-anchor="middle" x="137" y="-83.5" font-family="Helvetica,sans-Serif" font-size="10.00">tlz::dataset::x_max</text>
</a>
</g>
</g>
<!-- Node1&#45;&gt;Node37 -->
<g id="edge55" class="edge"><title>Node1&#45;&gt;Node37</title>
<path fill="none" stroke="midnightblue" d="M20.7739,-348.312C24.3013,-306.495 40.1644,-141.918 74,-105 75.2289,-103.659 76.5497,-102.412 77.9458,-101.252"/>
<polygon fill="midnightblue" stroke="midnightblue" points="80.2273,-103.94 86.6507,-95.514 76.375,-98.095 80.2273,-103.94"/>
</g>
<!-- Node38 -->
<g id="node38" class="node"><title>Node38</title>
<g id="a_node38"><a xlink:href="classtlz_1_1dataset.html#a5cb3c59b94a7ef95ca960f1fd54ac073" target="_top" xlink:title="tlz::dataset::x_count">
<polygon fill="white" stroke="black" points="84,-38.5 84,-57.5 190,-57.5 190,-38.5 84,-38.5"/>
<text text-anchor="middle" x="137" y="-45.5" font-family="Helvetica,sans-Serif" font-size="10.00">tlz::dataset::x_count</text>
</a>
</g>
</g>
<!-- Node1&#45;&gt;Node38 -->
<g id="edge56" class="edge"><title>Node1&#45;&gt;Node38</title>
<path fill="none" stroke="midnightblue" d="M20.4745,-348.433C22.9106,-303.092 35.4318,-110.231 74,-67 75.1851,-65.6716 76.4603,-64.4349 77.81,-63.2835"/>
<polygon fill="midnightblue" stroke="midnightblue" points="79.9226,-66.0801 86.2458,-57.579 76.0014,-60.2814 79.9226,-66.0801"/>
</g>
<!-- Node39 -->
<g id="node39" class="node"><title>Node39</title>
<g id="a_node39"><a xlink:href="classtlz_1_1dataset.html#a38f70e46d98245e355797dc60ec5c970" target="_top" xlink:title="tlz::dataset::y_count">
<polygon fill="white" stroke="black" points="84,-0.5 84,-19.5 190,-19.5 190,-0.5 84,-0.5"/>
<text text-anchor="middle" x="137" y="-7.5" font-family="Helvetica,sans-Serif" font-size="10.00">tlz::dataset::y_count</text>
</a>
</g>
</g>
<!-- Node1&#45;&gt;Node39 -->
<g id="edge57" class="edge"><title>Node1&#45;&gt;Node39</title>
<path fill="none" stroke="midnightblue" d="M20.2579,-348.195C21.7487,-298.892 30.7768,-78.475 74,-29 75.1712,-27.6594 76.4343,-26.4119 77.7734,-25.2511"/>
<polygon fill="midnightblue" stroke="midnightblue" points="79.8896,-28.044 86.1643,-19.507 75.9354,-22.2678 79.8896,-28.044"/>
</g>
<!-- Node4 -->
<g id="node4" class="node"><title>Node4</title>
<g id="a_node4"><a xlink:href="namespacetlz.html#a634de7ca11e100e4a118dffe80376a75" target="_top" xlink:title="tlz::in_filename_arg">
<polygon fill="white" stroke="black" points="239,-779.5 239,-798.5 340,-798.5 340,-779.5 239,-779.5"/>
<text text-anchor="middle" x="289.5" y="-786.5" font-family="Helvetica,sans-Serif" font-size="10.00">tlz::in_filename_arg</text>
</a>
</g>
</g>
<!-- Node3&#45;&gt;Node4 -->
<g id="edge3" class="edge"><title>Node3&#45;&gt;Node4</title>
<path fill="none" stroke="midnightblue" d="M179.125,-775.192C194.404,-777.121 212.065,-779.35 228.678,-781.448"/>
<polygon fill="midnightblue" stroke="midnightblue" points="228.496,-784.952 238.856,-782.733 229.373,-778.008 228.496,-784.952"/>
</g>
<!-- Node5 -->
<g id="node5" class="node"><title>Node5</title>
<g id="a_node5"><a xlink:href="namespacetlz.html#a0621d598fb83b13bf028f3e6293d04f8" target="_top" xlink:title="tlz::string_arg">
<polygon fill="white" stroke="black" points="389.5,-703.5 389.5,-722.5 465.5,-722.5 465.5,-703.5 389.5,-703.5"/>
<text text-anchor="middle" x="427.5" y="-710.5" font-family="Helvetica,sans-Serif" font-size="10.00">tlz::string_arg</text>
</a>
</g>
</g>
<!-- Node4&#45;&gt;Node5 -->
<g id="edge4" class="edge"><title>Node4&#45;&gt;Node5</title>
<path fill="none" stroke="midnightblue" d="M307.724,-779.375C331.126,-766.297 373.166,-742.804 400.439,-727.563"/>
<polygon fill="midnightblue" stroke="midnightblue" points="402.393,-730.481 409.415,-722.547 398.979,-724.37 402.393,-730.481"/>
</g>
<!-- Node6 -->
<g id="node6" class="node"><title>Node6</title>
<g id="a_node6"><a xlink:href="namespacetlz.html#a780431daab8d2595372eacb43143b52d" target="_top" xlink:title="tlz::args">
<polygon fill="white" stroke="black" points="546,-741.5 546,-760.5 598,-760.5 598,-741.5 546,-741.5"/>
<text text-anchor="middle" x="572" y="-748.5" font-family="Helvetica,sans-Serif" font-size="10.00">tlz::args</text>
</a>
</g>
</g>
<!-- Node4&#45;&gt;Node6 -->
<g id="edge10" class="edge"><title>Node4&#45;&gt;Node6</title>
<path fill="none" stroke="midnightblue" d="M340.134,-782.82C377.511,-778.107 430.001,-771.365 476,-765 495.741,-762.269 517.759,-759.036 535.625,-756.365"/>
<polygon fill="midnightblue" stroke="midnightblue" points="536.245,-759.811 545.615,-754.865 535.206,-752.888 536.245,-759.811"/>
</g>
<!-- Node8 -->
<g id="node8" class="node"><title>Node8</title>
<g id="a_node8"><a xlink:href="classtlz_1_1args__list.html#a38ad21acd64a4af98ffdf4a47837cdbe" target="_top" xlink:title="tlz::args_list::usage_fail">
<polygon fill="white" stroke="black" points="668,-723.5 668,-742.5 788,-742.5 788,-723.5 668,-723.5"/>
<text text-anchor="middle" x="728" y="-730.5" font-family="Helvetica,sans-Serif" font-size="10.00">tlz::args_list::usage_fail</text>
</a>
</g>
</g>
<!-- Node4&#45;&gt;Node8 -->
<g id="edge11" class="edge"><title>Node4&#45;&gt;Node8</title>
<path fill="none" stroke="midnightblue" d="M300.924,-798.634C316.509,-812.308 347.441,-836.716 379,-846 420.359,-858.166 433.313,-852.034 476,-846 547.45,-835.901 567.056,-832.455 632,-801 660.551,-787.172 689.676,-764.858 708.016,-749.589"/>
<polygon fill="midnightblue" stroke="midnightblue" points="710.743,-751.866 716.103,-742.727 706.214,-746.528 710.743,-751.866"/>
</g>
<!-- Node4&#45;&gt;Node10 -->
<g id="edge9" class="edge"><title>Node4&#45;&gt;Node10</title>
<path fill="none" stroke="midnightblue" d="M298.182,-798.686C312.572,-816.365 345.2,-854.313 379,-879 383.875,-882.561 389.357,-885.868 394.817,-888.818"/>
<polygon fill="midnightblue" stroke="midnightblue" points="393.376,-892.012 403.875,-893.429 396.551,-885.773 393.376,-892.012"/>
</g>
<!-- Node5&#45;&gt;Node6 -->
<g id="edge5" class="edge"><title>Node5&#45;&gt;Node6</title>
<path fill="none" stroke="midnightblue" d="M464.459,-722.589C486.381,-728.435 514.268,-735.871 536.011,-741.67"/>
<polygon fill="midnightblue" stroke="midnightblue" points="535.267,-745.094 545.831,-744.288 537.071,-738.33 535.267,-745.094"/>
</g>
<!-- Node7 -->
<g id="node7" class="node"><title>Node7</title>
<g id="a_node7"><a xlink:href="classtlz_1_1args__list.html#a73d99bc75998dc14607a3a372d28dc6d" target="_top" xlink:title="tlz::args_list::next_arg">
<polygon fill="white" stroke="black" points="515.5,-703.5 515.5,-722.5 628.5,-722.5 628.5,-703.5 515.5,-703.5"/>
<text text-anchor="middle" x="572" y="-710.5" font-family="Helvetica,sans-Serif" font-size="10.00">tlz::args_list::next_arg</text>
</a>
</g>
</g>
<!-- Node5&#45;&gt;Node7 -->
<g id="edge6" class="edge"><title>Node5&#45;&gt;Node7</title>
<path fill="none" stroke="midnightblue" d="M465.568,-713C477.66,-713 491.472,-713 505.029,-713"/>
<polygon fill="midnightblue" stroke="midnightblue" points="505.313,-716.5 515.313,-713 505.313,-709.5 505.313,-716.5"/>
</g>
<!-- Node7&#45;&gt;Node8 -->
<g id="edge7" class="edge"><title>Node7&#45;&gt;Node8</title>
<path fill="none" stroke="midnightblue" d="M628.598,-720.22C638.061,-721.449 647.993,-722.739 657.757,-724.007"/>
<polygon fill="midnightblue" stroke="midnightblue" points="657.477,-727.5 667.845,-725.318 658.379,-720.559 657.477,-727.5"/>
</g>
<!-- Node9 -->
<g id="node9" class="node"><title>Node9</title>
<g id="a_node9"><a xlink:href="namespacetlz.html#a8e4f8c8c2927bc4350de13bfa0f8f9e1" target="_top" xlink:title="tlz::to_string">
<polygon fill="white" stroke="black" points="692.5,-682.5 692.5,-701.5 763.5,-701.5 763.5,-682.5 692.5,-682.5"/>
<text text-anchor="middle" x="728" y="-689.5" font-family="Helvetica,sans-Serif" font-size="10.00">tlz::to_string</text>
</a>
</g>
</g>
<!-- Node7&#45;&gt;Node9 -->
<g id="edge8" class="edge"><title>Node7&#45;&gt;Node9</title>
<path fill="none" stroke="midnightblue" d="M628.598,-705.419C646.149,-703.025 665.312,-700.412 682.025,-698.133"/>
<polygon fill="midnightblue" stroke="midnightblue" points="682.644,-701.581 692.079,-696.762 681.698,-694.645 682.644,-701.581"/>
</g>
<!-- Node11&#45;&gt;Node6 -->
<g id="edge13" class="edge"><title>Node11&#45;&gt;Node6</title>
<path fill="none" stroke="midnightblue" d="M447.987,-817.335C456.606,-813.014 466.842,-807.818 476,-803 499.487,-790.643 525.955,-776.104 544.977,-765.545"/>
<polygon fill="midnightblue" stroke="midnightblue" points="546.892,-768.485 553.93,-760.565 543.489,-762.368 546.892,-768.485"/>
</g>
<!-- Node11&#45;&gt;Node7 -->
<g id="edge14" class="edge"><title>Node11&#45;&gt;Node7</title>
<path fill="none" stroke="midnightblue" d="M434.365,-817.39C446.49,-798.314 476.199,-755.489 512,-732 515.107,-729.962 518.449,-728.127 521.907,-726.479"/>
<polygon fill="midnightblue" stroke="midnightblue" points="523.393,-729.651 531.246,-722.54 520.672,-723.202 523.393,-729.651"/>
</g>
<!-- Node11&#45;&gt;Node8 -->
<g id="edge15" class="edge"><title>Node11&#45;&gt;Node8</title>
<path fill="none" stroke="midnightblue" d="M465.594,-817.781C506.639,-807.309 574.578,-789.172 632,-770 653.204,-762.92 676.609,-753.82 694.882,-746.417"/>
<polygon fill="midnightblue" stroke="midnightblue" points="696.262,-749.634 704.195,-742.611 693.614,-743.154 696.262,-749.634"/>
</g>
<!-- Node12&#45;&gt;Node6 -->
<g id="edge17" class="edge"><title>Node12&#45;&gt;Node6</title>
<path fill="none" stroke="midnightblue" d="M200.358,-573.013C241.948,-577.92 297.188,-587.494 343,-606 408.719,-632.547 421.719,-648.422 476,-694 493.817,-708.96 492.314,-719.603 512,-732 519.396,-736.657 528.037,-740.272 536.39,-743.037"/>
<polygon fill="midnightblue" stroke="midnightblue" points="535.387,-746.39 545.97,-745.903 537.393,-739.683 535.387,-746.39"/>
</g>
<!-- Node12&#45;&gt;Node7 -->
<g id="edge22" class="edge"><title>Node12&#45;&gt;Node7</title>
<path fill="none" stroke="midnightblue" d="M200.336,-560.44C285.976,-551.45 434.187,-541.332 476,-573 520.727,-606.875 472.772,-653.885 512,-694 513.411,-695.443 514.931,-696.776 516.538,-698.008"/>
<polygon fill="midnightblue" stroke="midnightblue" points="514.837,-701.071 525.18,-703.364 518.524,-695.121 514.837,-701.071"/>
</g>
<!-- Node13 -->
<g id="node13" class="node"><title>Node13</title>
<g id="a_node13"><a xlink:href="classtlz_1_1args__list.html#a4aee93f4b0d9b5b4e7a5d13cb637337c" target="_top" xlink:title="tlz::args_list::has\l_next_arg">
<polygon fill="white" stroke="black" points="243.5,-654 243.5,-684 335.5,-684 335.5,-654 243.5,-654"/>
<text text-anchor="start" x="251.5" y="-672" font-family="Helvetica,sans-Serif" font-size="10.00">tlz::args_list::has</text>
<text text-anchor="middle" x="289.5" y="-661" font-family="Helvetica,sans-Serif" font-size="10.00">_next_arg</text>
</a>
</g>
</g>
<!-- Node12&#45;&gt;Node13 -->
<g id="edge18" class="edge"><title>Node12&#45;&gt;Node13</title>
<path fill="none" stroke="midnightblue" d="M148.891,-577.724C166.399,-593.052 202.268,-623.225 236,-644 238.925,-645.802 242,-647.566 245.134,-649.271"/>
<polygon fill="midnightblue" stroke="midnightblue" points="243.557,-652.396 254.044,-653.902 246.785,-646.185 243.557,-652.396"/>
</g>
<!-- Node14 -->
<g id="node14" class="node"><title>Node14</title>
<g id="a_node14"><a xlink:href="classtlz_1_1args__list.html#ae7c07d1c8f24c2aa4fe0ba68ec45d353" target="_top" xlink:title="tlz::args_list::next\l_arg_is">
<polygon fill="white" stroke="black" points="524.5,-654 524.5,-684 619.5,-684 619.5,-654 524.5,-654"/>
<text text-anchor="start" x="532.5" y="-672" font-family="Helvetica,sans-Serif" font-size="10.00">tlz::args_list::next</text>
<text text-anchor="middle" x="572" y="-661" font-family="Helvetica,sans-Serif" font-size="10.00">_arg_is</text>
</a>
</g>
</g>
<!-- Node12&#45;&gt;Node14 -->
<g id="edge19" class="edge"><title>Node12&#45;&gt;Node14</title>
<path fill="none" stroke="midnightblue" d="M159.297,-558.333C214.99,-534.584 368.103,-479.233 476,-535 520.347,-557.921 548.466,-612.152 561.814,-644.156"/>
<polygon fill="midnightblue" stroke="midnightblue" points="558.667,-645.713 565.631,-653.698 565.166,-643.113 558.667,-645.713"/>
</g>
<!-- Node15 -->
<g id="node15" class="node"><title>Node15</title>
<g id="a_node15"><a xlink:href="namespacetlz.html#a65770a2c1ff57c5ae6542d4465a3d3f4" target="_top" xlink:title="tlz::out_filename_arg">
<polygon fill="white" stroke="black" points="236,-615.5 236,-634.5 343,-634.5 343,-615.5 236,-615.5"/>
<text text-anchor="middle" x="289.5" y="-622.5" font-family="Helvetica,sans-Serif" font-size="10.00">tlz::out_filename_arg</text>
</a>
</g>
</g>
<!-- Node12&#45;&gt;Node15 -->
<g id="edge23" class="edge"><title>Node12&#45;&gt;Node15</title>
<path fill="none" stroke="midnightblue" d="M163.19,-577.541C187.933,-586.912 225.891,-601.288 253.548,-611.762"/>
<polygon fill="midnightblue" stroke="midnightblue" points="252.636,-615.16 263.228,-615.428 255.115,-608.613 252.636,-615.16"/>
</g>
<!-- Node14&#45;&gt;Node8 -->
<g id="edge20" class="edge"><title>Node14&#45;&gt;Node8</title>
<path fill="none" stroke="midnightblue" d="M609.295,-684.107C616.824,-687.317 624.69,-690.727 632,-694 648.149,-701.231 651.696,-704.125 668,-711 675.064,-713.979 682.685,-716.976 690.028,-719.759"/>
<polygon fill="midnightblue" stroke="midnightblue" points="689.197,-723.184 699.79,-723.398 691.642,-716.625 689.197,-723.184"/>
</g>
<!-- Node14&#45;&gt;Node9 -->
<g id="edge21" class="edge"><title>Node14&#45;&gt;Node9</title>
<path fill="none" stroke="midnightblue" d="M619.623,-675.963C639.525,-678.936 662.652,-682.39 682.334,-685.329"/>
<polygon fill="midnightblue" stroke="midnightblue" points="681.87,-688.799 692.277,-686.814 682.904,-681.875 681.87,-688.799"/>
</g>
<!-- Node15&#45;&gt;Node5 -->
<g id="edge24" class="edge"><title>Node15&#45;&gt;Node5</title>
<path fill="none" stroke="midnightblue" d="M320.418,-634.51C328.006,-637.426 335.99,-640.951 343,-645 367.816,-659.331 392.85,-680.879 408.944,-695.864"/>
<polygon fill="midnightblue" stroke="midnightblue" points="406.833,-698.686 416.497,-703.029 411.651,-693.607 406.833,-698.686"/>
</g>
<!-- Node16&#45;&gt;Node4 -->
<g id="edge29" class="edge"><title>Node16&#45;&gt;Node4</title>
<path fill="none" stroke="midnightblue" d="M155.189,-722.517C174.633,-733.189 207.327,-750.854 236,-765 242.92,-768.414 250.427,-771.946 257.542,-775.215"/>
<polygon fill="midnightblue" stroke="midnightblue" points="256.357,-778.521 266.909,-779.476 259.255,-772.149 256.357,-778.521"/>
</g>
<!-- Node16&#45;&gt;Node5 -->
<g id="edge28" class="edge"><title>Node16&#45;&gt;Node5</title>
<path fill="none" stroke="midnightblue" d="M184.673,-713C238.048,-713 324.976,-713 378.783,-713"/>
<polygon fill="midnightblue" stroke="midnightblue" points="379.083,-716.5 389.083,-713 379.083,-709.5 379.083,-716.5"/>
</g>
<!-- Node16&#45;&gt;Node6 -->
<g id="edge26" class="edge"><title>Node16&#45;&gt;Node6</title>
<path fill="none" stroke="midnightblue" d="M184.773,-720.366C200.966,-722.734 219.253,-725.206 236,-727 344.84,-738.658 474.198,-746.124 535.454,-749.277"/>
<polygon fill="midnightblue" stroke="midnightblue" points="535.567,-752.787 545.731,-749.798 535.922,-745.796 535.567,-752.787"/>
</g>
<!-- Node16&#45;&gt;Node13 -->
<g id="edge27" class="edge"><title>Node16&#45;&gt;Node13</title>
<path fill="none" stroke="midnightblue" d="M170.656,-703.453C189.016,-698.085 212.419,-691.243 233.523,-685.073"/>
<polygon fill="midnightblue" stroke="midnightblue" points="234.732,-688.366 243.348,-682.201 232.768,-681.647 234.732,-688.366"/>
</g>
<!-- Node18 -->
<g id="node18" class="node"><title>Node18</title>
<g id="a_node18"><a xlink:href="classtlz_1_1dataset__group.html#acad4f6300bfc455279aaeb975d5e61de" target="_top" xlink:title="tlz::dataset_group\l::dataset_group">
<polygon fill="white" stroke="black" points="242,-452 242,-482 337,-482 337,-452 242,-452"/>
<text text-anchor="start" x="250" y="-470" font-family="Helvetica,sans-Serif" font-size="10.00">tlz::dataset_group</text>
<text text-anchor="middle" x="289.5" y="-459" font-family="Helvetica,sans-Serif" font-size="10.00">::dataset_group</text>
</a>
</g>
</g>
<!-- Node17&#45;&gt;Node18 -->
<g id="edge31" class="edge"><title>Node17&#45;&gt;Node18</title>
<path fill="none" stroke="midnightblue" d="M184.794,-482.16C199.729,-479.976 216.419,-477.537 231.969,-475.264"/>
<polygon fill="midnightblue" stroke="midnightblue" points="232.605,-478.708 241.993,-473.798 231.592,-471.782 232.605,-478.708"/>
</g>
<!-- Node19 -->
<g id="node19" class="node"><title>Node19</title>
<g id="a_node19"><a xlink:href="namespacetlz.html#a252af14b9b4ac6502d3e9c5dd8dc90b8" target="_top" xlink:title="tlz::has">
<polygon fill="white" stroke="black" points="547.5,-337.5 547.5,-356.5 596.5,-356.5 596.5,-337.5 547.5,-337.5"/>
<text text-anchor="middle" x="572" y="-344.5" font-family="Helvetica,sans-Serif" font-size="10.00">tlz::has</text>
</a>
</g>
</g>
<!-- Node17&#45;&gt;Node19 -->
<g id="edge32" class="edge"><title>Node17&#45;&gt;Node19</title>
<path fill="none" stroke="midnightblue" d="M154.769,-479.36C173.836,-468.824 206.194,-452.219 236,-443 339.24,-411.067 374.514,-441.132 476,-404 503.475,-393.947 531.84,-375.717 550.337,-362.576"/>
<polygon fill="midnightblue" stroke="midnightblue" points="552.542,-365.3 558.577,-356.592 548.429,-359.636 552.542,-365.3"/>
</g>
<!-- Node21 -->
<g id="node21" class="node"><title>Node21</title>
<g id="a_node21"><a xlink:href="classtlz_1_1dataset.html#acbdb309b8dd22f687fff41f6e9ac6ed4" target="_top" xlink:title="tlz::dataset::view">
<polygon fill="white" stroke="black" points="381.5,-375.5 381.5,-394.5 473.5,-394.5 473.5,-375.5 381.5,-375.5"/>
<text text-anchor="middle" x="427.5" y="-382.5" font-family="Helvetica,sans-Serif" font-size="10.00">tlz::dataset::view</text>
</a>
</g>
</g>
<!-- Node20&#45;&gt;Node21 -->
<g id="edge34" class="edge"><title>Node20&#45;&gt;Node21</title>
<path fill="none" stroke="midnightblue" d="M337.303,-381.065C348.245,-381.548 360.001,-382.066 371.271,-382.563"/>
<polygon fill="midnightblue" stroke="midnightblue" points="371.303,-386.068 381.447,-383.012 371.611,-379.075 371.303,-386.068"/>
</g>
<!-- Node22 -->
<g id="node22" class="node"><title>Node22</title>
<g id="a_node22"><a xlink:href="classtlz_1_1dataset__view.html#a1ec7ba844d313cddc558874fe85246a8" target="_top" xlink:title="tlz::dataset_view::\lgroup_view">
<polygon fill="white" stroke="black" points="379,-288 379,-318 476,-318 476,-288 379,-288"/>
<text text-anchor="start" x="387" y="-306" font-family="Helvetica,sans-Serif" font-size="10.00">tlz::dataset_view::</text>
<text text-anchor="middle" x="427.5" y="-295" font-family="Helvetica,sans-Serif" font-size="10.00">group_view</text>
</a>
</g>
</g>
<!-- Node20&#45;&gt;Node22 -->
<g id="edge35" class="edge"><title>Node20&#45;&gt;Node22</title>
<path fill="none" stroke="midnightblue" d="M326.33,-363.874C332.013,-361.12 337.744,-358.123 343,-355 360.194,-344.784 362.097,-338.691 379,-328 381.717,-326.281 384.565,-324.572 387.458,-322.9"/>
<polygon fill="midnightblue" stroke="midnightblue" points="389.163,-325.957 396.191,-318.028 385.753,-319.844 389.163,-325.957"/>
</g>
<!-- Node22&#45;&gt;Node19 -->
<g id="edge37" class="edge"><title>Node22&#45;&gt;Node19</title>
<path fill="none" stroke="midnightblue" d="M476.347,-317.774C496.54,-324.009 519.555,-331.115 537.834,-336.759"/>
<polygon fill="midnightblue" stroke="midnightblue" points="536.867,-340.124 547.454,-339.73 538.932,-333.435 536.867,-340.124"/>
</g>
<!-- Node23 -->
<g id="node23" class="node"><title>Node23</title>
<g id="a_node23"><a xlink:href="classtlz_1_1dataset__view.html#a31a73cf70078f270c9045bc0babadee2" target="_top" xlink:title="tlz::dataset_view::\ldataset_view">
<polygon fill="white" stroke="black" points="523.5,-288 523.5,-318 620.5,-318 620.5,-288 523.5,-288"/>
<text text-anchor="start" x="531.5" y="-306" font-family="Helvetica,sans-Serif" font-size="10.00">tlz::dataset_view::</text>
<text text-anchor="middle" x="572" y="-295" font-family="Helvetica,sans-Serif" font-size="10.00">dataset_view</text>
</a>
</g>
</g>
<!-- Node22&#45;&gt;Node23 -->
<g id="edge36" class="edge"><title>Node22&#45;&gt;Node23</title>
<path fill="none" stroke="midnightblue" d="M476.347,-303C488.096,-303 500.8,-303 512.971,-303"/>
<polygon fill="midnightblue" stroke="midnightblue" points="513.037,-306.5 523.037,-303 513.037,-299.5 513.037,-306.5"/>
</g>
<!-- Node24 -->
<g id="node24" class="node"><title>Node24</title>
<g id="a_node24"><a xlink:href="classtlz_1_1dataset.html#ab14f5b1f18c0ab423c18270b7ca46bd2" target="_top" xlink:title="tlz::dataset::parameters">
<polygon fill="white" stroke="black" points="512,-247.5 512,-266.5 632,-266.5 632,-247.5 512,-247.5"/>
<text text-anchor="middle" x="572" y="-254.5" font-family="Helvetica,sans-Serif" font-size="10.00">tlz::dataset::parameters</text>
</a>
</g>
</g>
<!-- Node22&#45;&gt;Node24 -->
<g id="edge38" class="edge"><title>Node22&#45;&gt;Node24</title>
<path fill="none" stroke="midnightblue" d="M475.16,-287.938C493.344,-282.068 513.965,-275.411 531.408,-269.781"/>
<polygon fill="midnightblue" stroke="midnightblue" points="532.827,-273 541.268,-266.598 530.677,-266.339 532.827,-273"/>
</g>
<!-- Node26 -->
<g id="node26" class="node"><title>Node26</title>
<g id="a_node26"><a xlink:href="classtlz_1_1dataset__view.html#a327a842dc304656596d65b9bbf52fb1c" target="_top" xlink:title="tlz::dataset_view::\llocal_filename">
<polygon fill="white" stroke="black" points="241,-315 241,-345 338,-345 338,-315 241,-315"/>
<text text-anchor="start" x="249" y="-333" font-family="Helvetica,sans-Serif" font-size="10.00">tlz::dataset_view::</text>
<text text-anchor="middle" x="289.5" y="-322" font-family="Helvetica,sans-Serif" font-size="10.00">local_filename</text>
</a>
</g>
</g>
<!-- Node25&#45;&gt;Node26 -->
<g id="edge40" class="edge"><title>Node25&#45;&gt;Node26</title>
<path fill="none" stroke="midnightblue" d="M181.769,-391.916C188.026,-389.229 194.275,-386.241 200,-383 217.639,-373.013 218.749,-365.642 236,-355 238.924,-353.196 241.998,-351.43 245.131,-349.724"/>
<polygon fill="midnightblue" stroke="midnightblue" points="246.783,-352.81 254.04,-345.091 243.553,-346.6 246.783,-352.81"/>
</g>
<!-- Node27 -->
<g id="node27" class="node"><title>Node27</title>
<g id="a_node27"><a xlink:href="namespacetlz.html#add846dc50c32dfb356cb1a7ac11d37ac" target="_top" xlink:title="tlz::get_or">
<polygon fill="white" stroke="black" points="397.5,-337.5 397.5,-356.5 457.5,-356.5 457.5,-337.5 397.5,-337.5"/>
<text text-anchor="middle" x="427.5" y="-344.5" font-family="Helvetica,sans-Serif" font-size="10.00">tlz::get_or</text>
</a>
</g>
</g>
<!-- Node26&#45;&gt;Node27 -->
<g id="edge41" class="edge"><title>Node26&#45;&gt;Node27</title>
<path fill="none" stroke="midnightblue" d="M338.066,-335.946C354.123,-337.953 371.856,-340.169 387.201,-342.088"/>
<polygon fill="midnightblue" stroke="midnightblue" points="387.035,-345.594 397.392,-343.362 387.904,-338.648 387.035,-345.594"/>
</g>
<!-- Node28 -->
<g id="node28" class="node"><title>Node28</title>
<g id="a_node28"><a xlink:href="classtlz_1_1dataset__view.html#a4951a6300847e0fed4fecf79d8753b58" target="_top" xlink:title="tlz::dataset_view::\llocal_parameters">
<polygon fill="white" stroke="black" points="379,-239 379,-269 476,-269 476,-239 379,-239"/>
<text text-anchor="start" x="387" y="-257" font-family="Helvetica,sans-Serif" font-size="10.00">tlz::dataset_view::</text>
<text text-anchor="middle" x="427.5" y="-246" font-family="Helvetica,sans-Serif" font-size="10.00">local_parameters</text>
</a>
</g>
</g>
<!-- Node26&#45;&gt;Node28 -->
<g id="edge43" class="edge"><title>Node26&#45;&gt;Node28</title>
<path fill="none" stroke="midnightblue" d="M324.579,-314.879C330.812,-311.804 337.181,-308.448 343,-305 359.979,-294.938 362.226,-289.4 379,-279 381.732,-277.306 384.591,-275.614 387.492,-273.955"/>
<polygon fill="midnightblue" stroke="midnightblue" points="389.191,-277.016 396.24,-269.107 385.797,-270.894 389.191,-277.016"/>
</g>
<!-- Node27&#45;&gt;Node19 -->
<g id="edge42" class="edge"><title>Node27&#45;&gt;Node19</title>
<path fill="none" stroke="midnightblue" d="M457.681,-347C480.662,-347 512.741,-347 536.904,-347"/>
<polygon fill="midnightblue" stroke="midnightblue" points="537.056,-350.5 547.056,-347 537.056,-343.5 537.056,-350.5"/>
</g>
<!-- Node28&#45;&gt;Node24 -->
<g id="edge44" class="edge"><title>Node28&#45;&gt;Node24</title>
<path fill="none" stroke="midnightblue" d="M476.347,-255.007C484.541,-255.18 493.2,-255.362 501.818,-255.544"/>
<polygon fill="midnightblue" stroke="midnightblue" points="501.815,-259.044 511.886,-255.756 501.962,-252.046 501.815,-259.044"/>
</g>
<!-- Node30 -->
<g id="node30" class="node"><title>Node30</title>
<g id="a_node30"><a xlink:href="namespacetlz.html#ac3f712af6b4130b82c4f3a1638313369" target="_top" xlink:title="tlz::file_size">
<polygon fill="white" stroke="black" points="255,-276.5 255,-295.5 324,-295.5 324,-276.5 255,-276.5"/>
<text text-anchor="middle" x="289.5" y="-283.5" font-family="Helvetica,sans-Serif" font-size="10.00">tlz::file_size</text>
</a>
</g>
</g>
<!-- Node29&#45;&gt;Node30 -->
<g id="edge47" class="edge"><title>Node29&#45;&gt;Node30</title>
<path fill="none" stroke="midnightblue" d="M178.331,-306.497C198.834,-302.682 223.779,-298.041 244.745,-294.14"/>
<polygon fill="midnightblue" stroke="midnightblue" points="245.49,-297.562 254.681,-292.292 244.209,-290.68 245.49,-297.562"/>
</g>
<!-- Node31&#45;&gt;Node26 -->
<g id="edge49" class="edge"><title>Node31&#45;&gt;Node26</title>
<path fill="none" stroke="midnightblue" d="M185.619,-349.141C199.963,-346.472 215.862,-343.514 230.787,-340.737"/>
<polygon fill="midnightblue" stroke="midnightblue" points="231.741,-344.12 240.933,-338.85 230.461,-337.238 231.741,-344.12"/>
</g>
</g>
</svg>
