<?xml version="1.0" encoding="UTF-8" standalone="no"?>
<!DOCTYPE svg PUBLIC "-//W3C//DTD SVG 1.1//EN"
 "http://www.w3.org/Graphics/SVG/1.1/DTD/svg11.dtd">
<!-- Generated by graphviz version 2.38.0 (20140413.2041)
 -->
<!-- Title: main Pages: 1 -->
<svg width="1202pt" height="565pt"
 viewBox="0.00 0.00 1202.00 565.00" xmlns="http://www.w3.org/2000/svg" xmlns:xlink="http://www.w3.org/1999/xlink">
<g id="graph0" class="graph" transform="scale(1 1) rotate(0) translate(4 561)">
<title>main</title>
<polygon fill="white" stroke="none" points="-4,4 -4,-561 1198,-561 1198,4 -4,4"/>
<!-- Node1 -->
<g id="node1" class="node"><title>Node1</title>
<polygon fill="#bfbfbf" stroke="black" points="0,-164 0,-183 38,-183 38,-164 0,-164"/>
<text text-anchor="middle" x="19" y="-171" font-family="Helvetica,sans-Serif" font-size="10.00">main</text>
</g>
<!-- Node2 -->
<g id="node2" class="node"><title>Node2</title>
<g id="a_node2"><a xlink:href="namespacetlz.html#a3c03f5d9d6261ec2909938822fc47f8a" target="_top" xlink:title="tlz::get_args">
<polygon fill="white" stroke="black" points="117.5,-278 117.5,-297 188.5,-297 188.5,-278 117.5,-278"/>
<text text-anchor="middle" x="153" y="-285" font-family="Helvetica,sans-Serif" font-size="10.00">tlz::get_args</text>
</a>
</g>
</g>
<!-- Node1&#45;&gt;Node2 -->
<g id="edge1" class="edge"><title>Node1&#45;&gt;Node2</title>
<path fill="none" stroke="midnightblue" d="M22.6171,-183.018C28.4329,-202.314 44.3184,-246.103 74,-268.5 83.5515,-275.707 95.4689,-280.218 107.091,-283.029"/>
<polygon fill="midnightblue" stroke="midnightblue" points="106.663,-286.514 117.162,-285.087 108.065,-279.656 106.663,-286.514"/>
</g>
<!-- Node3 -->
<g id="node3" class="node"><title>Node3</title>
<g id="a_node3"><a xlink:href="namespacetlz.html#a91f1aec7120c97452c495ee447e56b57" target="_top" xlink:title="tlz::dataset_arg">
<polygon fill="white" stroke="black" points="111,-202 111,-221 195,-221 195,-202 111,-202"/>
<text text-anchor="middle" x="153" y="-209" font-family="Helvetica,sans-Serif" font-size="10.00">tlz::dataset_arg</text>
</a>
</g>
</g>
<!-- Node1&#45;&gt;Node3 -->
<g id="edge2" class="edge"><title>Node1&#45;&gt;Node3</title>
<path fill="none" stroke="midnightblue" d="M38.0773,-178.704C56.3224,-183.956 85.1683,-192.261 109.268,-199.198"/>
<polygon fill="midnightblue" stroke="midnightblue" points="108.34,-202.573 118.918,-201.977 110.277,-195.847 108.34,-202.573"/>
</g>
<!-- Node11 -->
<g id="node11" class="node"><title>Node11</title>
<g id="a_node11"><a xlink:href="namespacetlz.html#a11d8bb3ca89f4957bfde1cd0d5429a16" target="_top" xlink:title="tlz::image_correspondences_arg">
<polygon fill="white" stroke="black" points="74,-240 74,-259 232,-259 232,-240 74,-240"/>
<text text-anchor="middle" x="153" y="-247" font-family="Helvetica,sans-Serif" font-size="10.00">tlz::image_correspondences_arg</text>
</a>
</g>
</g>
<!-- Node1&#45;&gt;Node11 -->
<g id="edge12" class="edge"><title>Node1&#45;&gt;Node11</title>
<path fill="none" stroke="midnightblue" d="M26.4447,-183.193C35.5064,-196.034 53.2478,-218.461 74,-230.5 77.7298,-232.664 81.6972,-234.582 85.7904,-236.282"/>
<polygon fill="midnightblue" stroke="midnightblue" points="84.9234,-239.693 95.5168,-239.868 87.3448,-233.125 84.9234,-239.693"/>
</g>
<!-- Node22 -->
<g id="node22" class="node"><title>Node22</title>
<g id="a_node22"><a xlink:href="namespacetlz.html#a65770a2c1ff57c5ae6542d4465a3d3f4" target="_top" xlink:title="tlz::out_filename_arg">
<polygon fill="white" stroke="black" points="300,-164 300,-183 407,-183 407,-164 300,-164"/>
<text text-anchor="middle" x="353.5" y="-171" font-family="Helvetica,sans-Serif" font-size="10.00">tlz::out_filename_arg</text>
</a>
</g>
</g>
<!-- Node1&#45;&gt;Node22 -->
<g id="edge26" class="edge"><title>Node1&#45;&gt;Node22</title>
<path fill="none" stroke="midnightblue" d="M38.3503,-173.5C85.451,-173.5 212.337,-173.5 289.678,-173.5"/>
<polygon fill="midnightblue" stroke="midnightblue" points="289.784,-177 299.784,-173.5 289.784,-170 289.784,-177"/>
</g>
<!-- Node23 -->
<g id="node23" class="node"><title>Node23</title>
<g id="a_node23"><a xlink:href="namespacetlz.html#a59931291e2fb8d804edf4ea1b95c35d9" target="_top" xlink:title="tlz::int_opt_arg">
<polygon fill="white" stroke="black" points="313,-88 313,-107 394,-107 394,-88 313,-88"/>
<text text-anchor="middle" x="353.5" y="-95" font-family="Helvetica,sans-Serif" font-size="10.00">tlz::int_opt_arg</text>
</a>
</g>
</g>
<!-- Node1&#45;&gt;Node23 -->
<g id="edge28" class="edge"><title>Node1&#45;&gt;Node23</title>
<path fill="none" stroke="midnightblue" d="M38.3503,-169.306C88.2155,-157.908 227.506,-126.07 302.757,-108.87"/>
<polygon fill="midnightblue" stroke="midnightblue" points="303.966,-112.184 312.935,-106.544 302.406,-105.36 303.966,-112.184"/>
</g>
<!-- Node27 -->
<g id="node27" class="node"><title>Node27</title>
<g id="a_node27"><a xlink:href="classtlz_1_1dataset.html#a3623ef5d2922b36ca94b4982ba17e9fe" target="_top" xlink:title="tlz::dataset::is_2d">
<polygon fill="white" stroke="black" points="105.5,-88 105.5,-107 200.5,-107 200.5,-88 105.5,-88"/>
<text text-anchor="middle" x="153" y="-95" font-family="Helvetica,sans-Serif" font-size="10.00">tlz::dataset::is_2d</text>
</a>
</g>
</g>
<!-- Node1&#45;&gt;Node27 -->
<g id="edge39" class="edge"><title>Node1&#45;&gt;Node27</title>
<path fill="none" stroke="midnightblue" d="M27.7342,-163.641C37.3799,-151.978 54.9381,-132.733 74,-121.5 81.6271,-117.005 90.1778,-113.275 98.7468,-110.204"/>
<polygon fill="midnightblue" stroke="midnightblue" points="99.9901,-113.479 108.381,-107.01 97.7877,-106.834 99.9901,-113.479"/>
</g>
<!-- Node28 -->
<g id="node28" class="node"><title>Node28</title>
<g id="a_node28"><a xlink:href="classtlz_1_1dataset.html#a65be94a892ff59fd841da913a82e8473" target="_top" xlink:title="tlz::dataset::x_indices">
<polygon fill="white" stroke="black" points="96.5,-50 96.5,-69 209.5,-69 209.5,-50 96.5,-50"/>
<text text-anchor="middle" x="153" y="-57" font-family="Helvetica,sans-Serif" font-size="10.00">tlz::dataset::x_indices</text>
</a>
</g>
</g>
<!-- Node1&#45;&gt;Node28 -->
<g id="edge40" class="edge"><title>Node1&#45;&gt;Node28</title>
<path fill="none" stroke="midnightblue" d="M22.6171,-163.982C28.4329,-144.686 44.3184,-100.897 74,-78.5 77.8974,-75.5591 82.1888,-73.0672 86.6933,-70.9566"/>
<polygon fill="midnightblue" stroke="midnightblue" points="88.2108,-74.1188 96.1808,-67.1381 85.5971,-67.625 88.2108,-74.1188"/>
</g>
<!-- Node4 -->
<g id="node4" class="node"><title>Node4</title>
<g id="a_node4"><a xlink:href="namespacetlz.html#a634de7ca11e100e4a118dffe80376a75" target="_top" xlink:title="tlz::in_filename_arg">
<polygon fill="white" stroke="black" points="303,-221 303,-240 404,-240 404,-221 303,-221"/>
<text text-anchor="middle" x="353.5" y="-228" font-family="Helvetica,sans-Serif" font-size="10.00">tlz::in_filename_arg</text>
</a>
</g>
</g>
<!-- Node3&#45;&gt;Node4 -->
<g id="edge3" class="edge"><title>Node3&#45;&gt;Node4</title>
<path fill="none" stroke="midnightblue" d="M195.129,-215.437C223.411,-218.144 261.413,-221.781 292.989,-224.804"/>
<polygon fill="midnightblue" stroke="midnightblue" points="292.706,-228.293 302.994,-225.761 293.373,-221.324 292.706,-228.293"/>
</g>
<!-- Node5 -->
<g id="node5" class="node"><title>Node5</title>
<g id="a_node5"><a xlink:href="namespacetlz.html#a0621d598fb83b13bf028f3e6293d04f8" target="_top" xlink:title="tlz::string_arg">
<polygon fill="white" stroke="black" points="525,-164 525,-183 601,-183 601,-164 525,-164"/>
<text text-anchor="middle" x="563" y="-171" font-family="Helvetica,sans-Serif" font-size="10.00">tlz::string_arg</text>
</a>
</g>
</g>
<!-- Node4&#45;&gt;Node5 -->
<g id="edge4" class="edge"><title>Node4&#45;&gt;Node5</title>
<path fill="none" stroke="midnightblue" d="M389.231,-220.959C424.392,-211.301 478.909,-196.325 517.281,-185.784"/>
<polygon fill="midnightblue" stroke="midnightblue" points="518.44,-189.096 527.156,-183.072 516.586,-182.346 518.44,-189.096"/>
</g>
<!-- Node6 -->
<g id="node6" class="node"><title>Node6</title>
<g id="a_node6"><a xlink:href="namespacetlz.html#a780431daab8d2595372eacb43143b52d" target="_top" xlink:title="tlz::args">
<polygon fill="white" stroke="black" points="746,-164 746,-183 798,-183 798,-164 746,-164"/>
<text text-anchor="middle" x="772" y="-171" font-family="Helvetica,sans-Serif" font-size="10.00">tlz::args</text>
</a>
</g>
</g>
<!-- Node4&#45;&gt;Node6 -->
<g id="edge10" class="edge"><title>Node4&#45;&gt;Node6</title>
<path fill="none" stroke="midnightblue" d="M404.137,-224.593C463.073,-217.475 564.309,-204.916 651,-192.5 679.556,-188.41 711.849,-183.268 735.736,-179.364"/>
<polygon fill="midnightblue" stroke="midnightblue" points="736.448,-182.794 745.749,-177.72 735.314,-175.887 736.448,-182.794"/>
</g>
<!-- Node8 -->
<g id="node8" class="node"><title>Node8</title>
<g id="a_node8"><a xlink:href="classtlz_1_1args__list.html#a38ad21acd64a4af98ffdf4a47837cdbe" target="_top" xlink:title="tlz::args_list::usage_fail">
<polygon fill="white" stroke="black" points="893,-88 893,-107 1013,-107 1013,-88 893,-88"/>
<text text-anchor="middle" x="953" y="-95" font-family="Helvetica,sans-Serif" font-size="10.00">tlz::args_list::usage_fail</text>
</a>
</g>
</g>
<!-- Node4&#45;&gt;Node8 -->
<g id="edge11" class="edge"><title>Node4&#45;&gt;Node8</title>
<path fill="none" stroke="midnightblue" d="M377.546,-240.095C401.433,-249.482 440.095,-263.127 475,-268.5 552.312,-280.401 573.996,-282.252 651,-268.5 747.068,-251.344 784.996,-258.369 857,-192.5 884.577,-167.272 864.9,-141.144 893,-116.5 894.947,-114.793 897.049,-113.238 899.26,-111.823"/>
<polygon fill="midnightblue" stroke="midnightblue" points="901.06,-114.83 908.229,-107.028 897.76,-108.656 901.06,-114.83"/>
</g>
<!-- Node10 -->
<g id="node10" class="node"><title>Node10</title>
<g id="a_node10"><a xlink:href="namespacetlz.html#abb019466ea9f56c0dab27e893d891837" target="_top" xlink:title="tlz::file_exists">
<polygon fill="white" stroke="black" points="524.5,-240 524.5,-259 601.5,-259 601.5,-240 524.5,-240"/>
<text text-anchor="middle" x="563" y="-247" font-family="Helvetica,sans-Serif" font-size="10.00">tlz::file_exists</text>
</a>
</g>
</g>
<!-- Node4&#45;&gt;Node10 -->
<g id="edge9" class="edge"><title>Node4&#45;&gt;Node10</title>
<path fill="none" stroke="midnightblue" d="M404.201,-235.051C437.523,-238.102 481.165,-242.098 514.105,-245.114"/>
<polygon fill="midnightblue" stroke="midnightblue" points="514.119,-248.63 524.397,-246.057 514.758,-241.659 514.119,-248.63"/>
</g>
<!-- Node5&#45;&gt;Node6 -->
<g id="edge5" class="edge"><title>Node5&#45;&gt;Node6</title>
<path fill="none" stroke="midnightblue" d="M601.007,-173.5C639.005,-173.5 697.737,-173.5 735.264,-173.5"/>
<polygon fill="midnightblue" stroke="midnightblue" points="735.716,-177 745.716,-173.5 735.716,-170 735.716,-177"/>
</g>
<!-- Node7 -->
<g id="node7" class="node"><title>Node7</title>
<g id="a_node7"><a xlink:href="classtlz_1_1args__list.html#a73d99bc75998dc14607a3a372d28dc6d" target="_top" xlink:title="tlz::args_list::next_arg">
<polygon fill="white" stroke="black" points="715.5,-126 715.5,-145 828.5,-145 828.5,-126 715.5,-126"/>
<text text-anchor="middle" x="772" y="-133" font-family="Helvetica,sans-Serif" font-size="10.00">tlz::args_list::next_arg</text>
</a>
</g>
</g>
<!-- Node5&#45;&gt;Node7 -->
<g id="edge6" class="edge"><title>Node5&#45;&gt;Node7</title>
<path fill="none" stroke="midnightblue" d="M601.007,-166.706C630.961,-161.208 673.799,-153.344 708.977,-146.886"/>
<polygon fill="midnightblue" stroke="midnightblue" points="709.948,-150.266 719.151,-145.018 708.684,-143.381 709.948,-150.266"/>
</g>
<!-- Node7&#45;&gt;Node8 -->
<g id="edge7" class="edge"><title>Node7&#45;&gt;Node8</title>
<path fill="none" stroke="midnightblue" d="M818.169,-125.911C842.216,-120.806 871.974,-114.489 897.319,-109.108"/>
<polygon fill="midnightblue" stroke="midnightblue" points="898.1,-112.52 907.156,-107.02 896.647,-105.673 898.1,-112.52"/>
</g>
<!-- Node9 -->
<g id="node9" class="node"><title>Node9</title>
<g id="a_node9"><a xlink:href="namespacetlz.html#a8e4f8c8c2927bc4350de13bfa0f8f9e1" target="_top" xlink:title="tlz::to_string">
<polygon fill="white" stroke="black" points="917.5,-126 917.5,-145 988.5,-145 988.5,-126 917.5,-126"/>
<text text-anchor="middle" x="953" y="-133" font-family="Helvetica,sans-Serif" font-size="10.00">tlz::to_string</text>
</a>
</g>
</g>
<!-- Node7&#45;&gt;Node9 -->
<g id="edge8" class="edge"><title>Node7&#45;&gt;Node9</title>
<path fill="none" stroke="midnightblue" d="M828.656,-135.5C853.955,-135.5 883.487,-135.5 907.31,-135.5"/>
<polygon fill="midnightblue" stroke="midnightblue" points="907.479,-139 917.479,-135.5 907.479,-132 907.479,-139"/>
</g>
<!-- Node11&#45;&gt;Node4 -->
<g id="edge25" class="edge"><title>Node11&#45;&gt;Node4</title>
<path fill="none" stroke="midnightblue" d="M232.168,-242.018C252.308,-240.09 273.662,-238.046 292.702,-236.224"/>
<polygon fill="midnightblue" stroke="midnightblue" points="293.103,-239.701 302.724,-235.264 292.436,-232.733 293.103,-239.701"/>
</g>
<!-- Node12 -->
<g id="node12" class="node"><title>Node12</title>
<g id="a_node12"><a xlink:href="namespacetlz.html#ad75d99f2e1623434fbadee66f3ff29a1" target="_top" xlink:title="tlz::import_image_correspondences">
<polygon fill="white" stroke="black" points="268,-360 268,-379 439,-379 439,-360 268,-360"/>
<text text-anchor="middle" x="353.5" y="-367" font-family="Helvetica,sans-Serif" font-size="10.00">tlz::import_image_correspondences</text>
</a>
</g>
</g>
<!-- Node11&#45;&gt;Node12 -->
<g id="edge13" class="edge"><title>Node11&#45;&gt;Node12</title>
<path fill="none" stroke="midnightblue" d="M207.619,-259.098C216.013,-261.575 224.413,-264.663 232,-268.5 274.738,-290.116 315.495,-329.544 336.912,-352.216"/>
<polygon fill="midnightblue" stroke="midnightblue" points="334.529,-354.794 343.895,-359.746 339.662,-350.034 334.529,-354.794"/>
</g>
<!-- Node13 -->
<g id="node13" class="node"><title>Node13</title>
<g id="a_node13"><a xlink:href="namespacetlz.html#ae11c827ac9e581f9d2f98c39aab3750d" target="_top" xlink:title="tlz::file_name_extension">
<polygon fill="white" stroke="black" points="502,-316 502,-335 624,-335 624,-316 502,-316"/>
<text text-anchor="middle" x="563" y="-323" font-family="Helvetica,sans-Serif" font-size="10.00">tlz::file_name_extension</text>
</a>
</g>
</g>
<!-- Node12&#45;&gt;Node13 -->
<g id="edge14" class="edge"><title>Node12&#45;&gt;Node13</title>
<path fill="none" stroke="midnightblue" d="M399.524,-359.953C431.066,-353.264 473.406,-344.286 506.955,-337.172"/>
<polygon fill="midnightblue" stroke="midnightblue" points="508.007,-340.527 517.063,-335.029 506.555,-333.679 508.007,-340.527"/>
</g>
<!-- Node14 -->
<g id="node14" class="node"><title>Node14</title>
<g id="a_node14"><a xlink:href="namespacetlz.html#a24915249769d936c24ceb34f50b06104" target="_top" xlink:title="tlz::decode_image_correspondences">
<polygon fill="white" stroke="black" points="475,-442 475,-461 651,-461 651,-442 475,-442"/>
<text text-anchor="middle" x="563" y="-449" font-family="Helvetica,sans-Serif" font-size="10.00">tlz::decode_image_correspondences</text>
</a>
</g>
</g>
<!-- Node12&#45;&gt;Node14 -->
<g id="edge15" class="edge"><title>Node12&#45;&gt;Node14</title>
<path fill="none" stroke="midnightblue" d="M369.495,-379.025C391.712,-392.741 435.06,-417.994 475,-432.5 482.254,-435.135 489.988,-437.464 497.738,-439.508"/>
<polygon fill="midnightblue" stroke="midnightblue" points="496.979,-442.926 507.528,-441.944 498.669,-436.133 496.979,-442.926"/>
</g>
<!-- Node20 -->
<g id="node20" class="node"><title>Node20</title>
<g id="a_node20"><a xlink:href="namespacetlz.html#aa1be9362f548fcf9378e1fc9074089c4" target="_top" xlink:title="tlz::import_json_file">
<polygon fill="white" stroke="black" points="512.5,-404 512.5,-423 613.5,-423 613.5,-404 512.5,-404"/>
<text text-anchor="middle" x="563" y="-411" font-family="Helvetica,sans-Serif" font-size="10.00">tlz::import_json_file</text>
</a>
</g>
</g>
<!-- Node12&#45;&gt;Node20 -->
<g id="edge23" class="edge"><title>Node12&#45;&gt;Node20</title>
<path fill="none" stroke="midnightblue" d="M399.524,-379.047C431.066,-385.736 473.406,-394.714 506.955,-401.828"/>
<polygon fill="midnightblue" stroke="midnightblue" points="506.555,-405.321 517.063,-403.971 508.007,-398.473 506.555,-405.321"/>
</g>
<!-- Node21 -->
<g id="node21" class="node"><title>Node21</title>
<g id="a_node21"><a xlink:href="namespacetlz.html#a2ec439452fda5eeb03f60715e50fa96a" target="_top" xlink:title="tlz::import_binary\l_image_correspondences">
<polygon fill="white" stroke="black" points="499,-354.5 499,-384.5 627,-384.5 627,-354.5 499,-354.5"/>
<text text-anchor="start" x="507" y="-372.5" font-family="Helvetica,sans-Serif" font-size="10.00">tlz::import_binary</text>
<text text-anchor="middle" x="563" y="-361.5" font-family="Helvetica,sans-Serif" font-size="10.00">_image_correspondences</text>
</a>
</g>
</g>
<!-- Node12&#45;&gt;Node21 -->
<g id="edge24" class="edge"><title>Node12&#45;&gt;Node21</title>
<path fill="none" stroke="midnightblue" d="M439.197,-369.5C455.56,-369.5 472.578,-369.5 488.546,-369.5"/>
<polygon fill="midnightblue" stroke="midnightblue" points="488.87,-373 498.87,-369.5 488.87,-366 488.87,-373"/>
</g>
<!-- Node15 -->
<g id="node15" class="node"><title>Node15</title>
<g id="a_node15"><a xlink:href="namespacetlz.html#a252af14b9b4ac6502d3e9c5dd8dc90b8" target="_top" xlink:title="tlz::has">
<polygon fill="white" stroke="black" points="1145,-450 1145,-469 1194,-469 1194,-450 1145,-450"/>
<text text-anchor="middle" x="1169.5" y="-457" font-family="Helvetica,sans-Serif" font-size="10.00">tlz::has</text>
</a>
</g>
</g>
<!-- Node14&#45;&gt;Node15 -->
<g id="edge16" class="edge"><title>Node14&#45;&gt;Node15</title>
<path fill="none" stroke="midnightblue" d="M651.313,-452.515C758.942,-453.791 947.444,-456.105 1109,-458.5 1117.28,-458.623 1126.21,-458.767 1134.57,-458.906"/>
<polygon fill="midnightblue" stroke="midnightblue" points="1134.7,-462.409 1144.76,-459.079 1134.82,-455.41 1134.7,-462.409"/>
</g>
<!-- Node16 -->
<g id="node16" class="node"><title>Node16</title>
<g id="a_node16"><a xlink:href="namespacetlz.html#ab83b0eb933afca1abe8ccd3470207691" target="_top" xlink:title="tlz::decode_image_correspondence\l_feature">
<polygon fill="white" stroke="black" points="687,-466.5 687,-496.5 857,-496.5 857,-466.5 687,-466.5"/>
<text text-anchor="start" x="695" y="-484.5" font-family="Helvetica,sans-Serif" font-size="10.00">tlz::decode_image_correspondence</text>
<text text-anchor="middle" x="772" y="-473.5" font-family="Helvetica,sans-Serif" font-size="10.00">_feature</text>
</a>
</g>
</g>
<!-- Node14&#45;&gt;Node16 -->
<g id="edge17" class="edge"><title>Node14&#45;&gt;Node16</title>
<path fill="none" stroke="midnightblue" d="M629.781,-461.033C644.639,-463.187 660.698,-465.514 676.477,-467.801"/>
<polygon fill="midnightblue" stroke="midnightblue" points="676.392,-471.325 686.791,-469.296 677.396,-464.398 676.392,-471.325"/>
</g>
<!-- Node16&#45;&gt;Node15 -->
<g id="edge18" class="edge"><title>Node16&#45;&gt;Node15</title>
<path fill="none" stroke="midnightblue" d="M857.36,-476.807C943.607,-472.01 1073.32,-464.795 1134.4,-461.397"/>
<polygon fill="midnightblue" stroke="midnightblue" points="1134.84,-464.878 1144.63,-460.828 1134.45,-457.889 1134.84,-464.878"/>
</g>
<!-- Node17 -->
<g id="node17" class="node"><title>Node17</title>
<g id="a_node17"><a xlink:href="namespacetlz.html#a74e8454f97dace7cffb1afdb6d3ca87b" target="_top" xlink:title="tlz::decode_view_index">
<polygon fill="white" stroke="black" points="893.5,-488 893.5,-507 1012.5,-507 1012.5,-488 893.5,-488"/>
<text text-anchor="middle" x="953" y="-495" font-family="Helvetica,sans-Serif" font-size="10.00">tlz::decode_view_index</text>
</a>
</g>
</g>
<!-- Node16&#45;&gt;Node17 -->
<g id="edge19" class="edge"><title>Node16&#45;&gt;Node17</title>
<path fill="none" stroke="midnightblue" d="M857.259,-489.031C865.961,-489.809 874.731,-490.593 883.236,-491.353"/>
<polygon fill="midnightblue" stroke="midnightblue" points="883.185,-494.863 893.456,-492.267 883.808,-487.891 883.185,-494.863"/>
</g>
<!-- Node18 -->
<g id="node18" class="node"><title>Node18</title>
<g id="a_node18"><a xlink:href="namespacetlz.html#ae8f9175a86bbe49ac0f4485d5db3080b" target="_top" xlink:title="tlz::decode_feature\l_point">
<polygon fill="white" stroke="black" points="903,-526.5 903,-556.5 1003,-556.5 1003,-526.5 903,-526.5"/>
<text text-anchor="start" x="911" y="-544.5" font-family="Helvetica,sans-Serif" font-size="10.00">tlz::decode_feature</text>
<text text-anchor="middle" x="953" y="-533.5" font-family="Helvetica,sans-Serif" font-size="10.00">_point</text>
</a>
</g>
</g>
<!-- Node16&#45;&gt;Node18 -->
<g id="edge20" class="edge"><title>Node16&#45;&gt;Node18</title>
<path fill="none" stroke="midnightblue" d="M818.169,-496.641C842.322,-504.737 872.238,-514.764 897.656,-523.284"/>
<polygon fill="midnightblue" stroke="midnightblue" points="896.562,-526.609 907.156,-526.468 898.786,-519.972 896.562,-526.609"/>
</g>
<!-- Node19 -->
<g id="node19" class="node"><title>Node19</title>
<g id="a_node19"><a xlink:href="namespacetlz.html#add846dc50c32dfb356cb1a7ac11d37ac" target="_top" xlink:title="tlz::get_or">
<polygon fill="white" stroke="black" points="1049,-510 1049,-529 1109,-529 1109,-510 1049,-510"/>
<text text-anchor="middle" x="1079" y="-517" font-family="Helvetica,sans-Serif" font-size="10.00">tlz::get_or</text>
</a>
</g>
</g>
<!-- Node18&#45;&gt;Node19 -->
<g id="edge21" class="edge"><title>Node18&#45;&gt;Node19</title>
<path fill="none" stroke="midnightblue" d="M1003.01,-532.805C1014.93,-530.69 1027.52,-528.456 1038.91,-526.435"/>
<polygon fill="midnightblue" stroke="midnightblue" points="1039.75,-529.842 1048.98,-524.648 1038.52,-522.949 1039.75,-529.842"/>
</g>
<!-- Node19&#45;&gt;Node15 -->
<g id="edge22" class="edge"><title>Node19&#45;&gt;Node15</title>
<path fill="none" stroke="midnightblue" d="M1094.22,-509.86C1108.15,-500.413 1129.61,-485.865 1145.89,-474.831"/>
<polygon fill="midnightblue" stroke="midnightblue" points="1148,-477.625 1154.32,-469.116 1144.08,-471.831 1148,-477.625"/>
</g>
<!-- Node22&#45;&gt;Node5 -->
<g id="edge27" class="edge"><title>Node22&#45;&gt;Node5</title>
<path fill="none" stroke="midnightblue" d="M407.129,-173.5C440.282,-173.5 482.718,-173.5 514.784,-173.5"/>
<polygon fill="midnightblue" stroke="midnightblue" points="514.805,-177 524.805,-173.5 514.805,-170 514.805,-177"/>
</g>
<!-- Node23&#45;&gt;Node6 -->
<g id="edge29" class="edge"><title>Node23&#45;&gt;Node6</title>
<path fill="none" stroke="midnightblue" d="M394.059,-104.718C475.027,-119.493 658.505,-152.973 735.714,-167.061"/>
<polygon fill="midnightblue" stroke="midnightblue" points="735.415,-170.564 745.881,-168.917 736.672,-163.678 735.415,-170.564"/>
</g>
<!-- Node24 -->
<g id="node24" class="node"><title>Node24</title>
<g id="a_node24"><a xlink:href="classtlz_1_1args__list.html#a4aee93f4b0d9b5b4e7a5d13cb637337c" target="_top" xlink:title="tlz::args_list::has\l_next_arg">
<polygon fill="white" stroke="black" points="517,-0.5 517,-30.5 609,-30.5 609,-0.5 517,-0.5"/>
<text text-anchor="start" x="525" y="-18.5" font-family="Helvetica,sans-Serif" font-size="10.00">tlz::args_list::has</text>
<text text-anchor="middle" x="563" y="-7.5" font-family="Helvetica,sans-Serif" font-size="10.00">_next_arg</text>
</a>
</g>
</g>
<!-- Node23&#45;&gt;Node24 -->
<g id="edge30" class="edge"><title>Node23&#45;&gt;Node24</title>
<path fill="none" stroke="midnightblue" d="M372.474,-87.8676C395.681,-75.6964 437.541,-54.6349 475,-40.5 485.244,-36.6344 496.356,-33.0212 507.105,-29.8092"/>
<polygon fill="midnightblue" stroke="midnightblue" points="508.215,-33.1314 516.839,-26.9766 506.259,-26.4102 508.215,-33.1314"/>
</g>
<!-- Node25 -->
<g id="node25" class="node"><title>Node25</title>
<g id="a_node25"><a xlink:href="namespacetlz.html#af0d1e8ba5b9f2dbc2b589afab3a21fc8" target="_top" xlink:title="tlz::int_arg">
<polygon fill="white" stroke="black" points="532,-50 532,-69 594,-69 594,-50 532,-50"/>
<text text-anchor="middle" x="563" y="-57" font-family="Helvetica,sans-Serif" font-size="10.00">tlz::int_arg</text>
</a>
</g>
</g>
<!-- Node23&#45;&gt;Node25 -->
<g id="edge31" class="edge"><title>Node23&#45;&gt;Node25</title>
<path fill="none" stroke="midnightblue" d="M394.018,-90.263C430.669,-83.551 484.951,-73.6101 521.815,-66.8592"/>
<polygon fill="midnightblue" stroke="midnightblue" points="522.515,-70.2893 531.721,-65.0451 521.254,-63.4038 522.515,-70.2893"/>
</g>
<!-- Node26 -->
<g id="node26" class="node"><title>Node26</title>
<g id="a_node26"><a xlink:href="namespacetlz.html#a63246890b0c946b5f62a1d3e2bea6103" target="_top" xlink:title="tlz::real_arg">
<polygon fill="white" stroke="black" points="529,-88 529,-107 597,-107 597,-88 529,-88"/>
<text text-anchor="middle" x="563" y="-95" font-family="Helvetica,sans-Serif" font-size="10.00">tlz::real_arg</text>
</a>
</g>
</g>
<!-- Node23&#45;&gt;Node26 -->
<g id="edge35" class="edge"><title>Node23&#45;&gt;Node26</title>
<path fill="none" stroke="midnightblue" d="M394.018,-97.5C429.549,-97.5 481.651,-97.5 518.388,-97.5"/>
<polygon fill="midnightblue" stroke="midnightblue" points="518.787,-101 528.787,-97.5 518.787,-94.0001 518.787,-101"/>
</g>
<!-- Node25&#45;&gt;Node6 -->
<g id="edge32" class="edge"><title>Node25&#45;&gt;Node6</title>
<path fill="none" stroke="midnightblue" d="M594.218,-59.6157C612.395,-61.1452 635.026,-65.7998 651,-78.5 680.256,-101.76 657.831,-131.131 687,-154.5 700.592,-165.389 719.207,-170.303 735.459,-172.424"/>
<polygon fill="midnightblue" stroke="midnightblue" points="735.422,-175.938 745.721,-173.45 736.118,-168.973 735.422,-175.938"/>
</g>
<!-- Node25&#45;&gt;Node7 -->
<g id="edge33" class="edge"><title>Node25&#45;&gt;Node7</title>
<path fill="none" stroke="midnightblue" d="M594.259,-64.3503C611.203,-67.5007 632.566,-72.2019 651,-78.5 684.569,-89.9695 721.118,-108.233 744.948,-120.986"/>
<polygon fill="midnightblue" stroke="midnightblue" points="743.574,-124.222 754.033,-125.911 746.91,-118.068 743.574,-124.222"/>
</g>
<!-- Node25&#45;&gt;Node8 -->
<g id="edge34" class="edge"><title>Node25&#45;&gt;Node8</title>
<path fill="none" stroke="midnightblue" d="M594.123,-62.4502C655.632,-68.4743 797.061,-82.3256 882.561,-90.6993"/>
<polygon fill="midnightblue" stroke="midnightblue" points="882.408,-94.2009 892.701,-91.6924 883.09,-87.2342 882.408,-94.2009"/>
</g>
<!-- Node26&#45;&gt;Node6 -->
<g id="edge36" class="edge"><title>Node26&#45;&gt;Node6</title>
<path fill="none" stroke="midnightblue" d="M597.227,-102.823C614.07,-106.455 634.413,-112.318 651,-121.5 669.99,-132.012 667.77,-144.435 687,-154.5 701.961,-162.331 720.07,-166.95 735.637,-169.667"/>
<polygon fill="midnightblue" stroke="midnightblue" points="735.522,-173.191 745.939,-171.261 736.592,-166.273 735.522,-173.191"/>
</g>
<!-- Node26&#45;&gt;Node7 -->
<g id="edge37" class="edge"><title>Node26&#45;&gt;Node7</title>
<path fill="none" stroke="midnightblue" d="M597.258,-103.605C627.344,-109.128 672.422,-117.404 709.123,-124.141"/>
<polygon fill="midnightblue" stroke="midnightblue" points="708.765,-127.634 719.232,-125.997 710.029,-120.749 708.765,-127.634"/>
</g>
<!-- Node26&#45;&gt;Node8 -->
<g id="edge38" class="edge"><title>Node26&#45;&gt;Node8</title>
<path fill="none" stroke="midnightblue" d="M597.081,-97.5C660.061,-97.5 798.399,-97.5 882.556,-97.5"/>
<polygon fill="midnightblue" stroke="midnightblue" points="882.794,-101 892.794,-97.5 882.794,-94.0001 882.794,-101"/>
</g>
</g>
</svg>
