<?xml version="1.0" encoding="UTF-8" standalone="no"?>
<!DOCTYPE svg PUBLIC "-//W3C//DTD SVG 1.1//EN"
 "http://www.w3.org/Graphics/SVG/1.1/DTD/svg11.dtd">
<!-- Generated by graphviz version 2.38.0 (20140413.2041)
 -->
<!-- Title: main Pages: 1 -->
<svg width="901pt" height="306pt"
 viewBox="0.00 0.00 901.00 305.50" xmlns="http://www.w3.org/2000/svg" xmlns:xlink="http://www.w3.org/1999/xlink">
<g id="graph0" class="graph" transform="scale(1 1) rotate(0) translate(4 301.5)">
<title>main</title>
<polygon fill="white" stroke="none" points="-4,4 -4,-301.5 897,-301.5 897,4 -4,4"/>
<!-- Node1 -->
<g id="node1" class="node"><title>Node1</title>
<polygon fill="#bfbfbf" stroke="black" points="0,-164 0,-183 38,-183 38,-164 0,-164"/>
<text text-anchor="middle" x="19" y="-171" font-family="Helvetica,sans-Serif" font-size="10.00">main</text>
</g>
<!-- Node2 -->
<g id="node2" class="node"><title>Node2</title>
<g id="a_node2"><a xlink:href="namespacetlz.html#a3c03f5d9d6261ec2909938822fc47f8a" target="_top" xlink:title="tlz::get_args">
<polygon fill="white" stroke="black" points="99,-240 99,-259 170,-259 170,-240 99,-240"/>
<text text-anchor="middle" x="134.5" y="-247" font-family="Helvetica,sans-Serif" font-size="10.00">tlz::get_args</text>
</a>
</g>
</g>
<!-- Node1&#45;&gt;Node2 -->
<g id="edge1" class="edge"><title>Node1&#45;&gt;Node2</title>
<path fill="none" stroke="midnightblue" d="M26.8893,-183.415C36.1855,-196.086 53.9136,-217.886 74,-230.5 78.7063,-233.456 83.9129,-235.989 89.2309,-238.152"/>
<polygon fill="midnightblue" stroke="midnightblue" points="88.2455,-241.518 98.8395,-241.653 90.6424,-234.941 88.2455,-241.518"/>
</g>
<!-- Node3 -->
<g id="node3" class="node"><title>Node3</title>
<g id="a_node3"><a xlink:href="namespacetlz.html#aa5e0f8e51747ba6008a12ea8942ad9f7" target="_top" xlink:title="tlz::cameras_arg">
<polygon fill="white" stroke="black" points="90,-202 90,-221 179,-221 179,-202 90,-202"/>
<text text-anchor="middle" x="134.5" y="-209" font-family="Helvetica,sans-Serif" font-size="10.00">tlz::cameras_arg</text>
</a>
</g>
</g>
<!-- Node1&#45;&gt;Node3 -->
<g id="edge2" class="edge"><title>Node1&#45;&gt;Node3</title>
<path fill="none" stroke="midnightblue" d="M38.2357,-179.605C53.604,-184.751 76.1072,-192.285 95.3839,-198.739"/>
<polygon fill="midnightblue" stroke="midnightblue" points="94.5215,-202.141 105.115,-201.997 96.7439,-195.503 94.5215,-202.141"/>
</g>
<!-- Node15 -->
<g id="node15" class="node"><title>Node15</title>
<g id="a_node15"><a xlink:href="namespacetlz.html#a65770a2c1ff57c5ae6542d4465a3d3f4" target="_top" xlink:title="tlz::out_filename_arg">
<polygon fill="white" stroke="black" points="231,-164 231,-183 338,-183 338,-164 231,-164"/>
<text text-anchor="middle" x="284.5" y="-171" font-family="Helvetica,sans-Serif" font-size="10.00">tlz::out_filename_arg</text>
</a>
</g>
</g>
<!-- Node1&#45;&gt;Node15 -->
<g id="edge16" class="edge"><title>Node1&#45;&gt;Node15</title>
<path fill="none" stroke="midnightblue" d="M38.1114,-173.5C75.1528,-173.5 161.1,-173.5 220.753,-173.5"/>
<polygon fill="midnightblue" stroke="midnightblue" points="220.827,-177 230.827,-173.5 220.827,-170 220.827,-177"/>
</g>
<!-- Node16 -->
<g id="node16" class="node"><title>Node16</title>
<g id="a_node16"><a xlink:href="namespacetlz.html#a5186c46291b525427b48828632f7adec" target="_top" xlink:title="tlz::bool_opt_arg">
<polygon fill="white" stroke="black" points="240,-88 240,-107 329,-107 329,-88 240,-88"/>
<text text-anchor="middle" x="284.5" y="-95" font-family="Helvetica,sans-Serif" font-size="10.00">tlz::bool_opt_arg</text>
</a>
</g>
</g>
<!-- Node1&#45;&gt;Node16 -->
<g id="edge18" class="edge"><title>Node1&#45;&gt;Node16</title>
<path fill="none" stroke="midnightblue" d="M38.1114,-168.276C79.5494,-156.324 182.191,-126.72 240.757,-109.828"/>
<polygon fill="midnightblue" stroke="midnightblue" points="241.82,-113.164 250.459,-107.03 239.881,-106.438 241.82,-113.164"/>
</g>
<!-- Node20 -->
<g id="node20" class="node"><title>Node20</title>
<g id="a_node20"><a xlink:href="namespacetlz.html#a2c4e4f4fac6af7d8e52426e4ca546ffc" target="_top" xlink:title="tlz::write_camera_mpeg">
<polygon fill="white" stroke="black" points="74,-88 74,-107 195,-107 195,-88 74,-88"/>
<text text-anchor="middle" x="134.5" y="-95" font-family="Helvetica,sans-Serif" font-size="10.00">tlz::write_camera_mpeg</text>
</a>
</g>
</g>
<!-- Node1&#45;&gt;Node20 -->
<g id="edge26" class="edge"><title>Node1&#45;&gt;Node20</title>
<path fill="none" stroke="midnightblue" d="M27.9014,-163.911C37.7117,-152.515 55.432,-133.532 74,-121.5 80.1694,-117.502 87.1125,-113.971 94.0203,-110.93"/>
<polygon fill="midnightblue" stroke="midnightblue" points="95.4282,-114.136 103.342,-107.092 92.7628,-107.663 95.4282,-114.136"/>
</g>
<!-- Node4 -->
<g id="node4" class="node"><title>Node4</title>
<g id="a_node4"><a xlink:href="namespacetlz.html#a8d445609e681336909da63eb443186b4" target="_top" xlink:title="tlz::decode_cameras">
<polygon fill="white" stroke="black" points="231,-259 231,-278 338,-278 338,-259 231,-259"/>
<text text-anchor="middle" x="284.5" y="-266" font-family="Helvetica,sans-Serif" font-size="10.00">tlz::decode_cameras</text>
</a>
</g>
</g>
<!-- Node3&#45;&gt;Node4 -->
<g id="edge3" class="edge"><title>Node3&#45;&gt;Node4</title>
<path fill="none" stroke="midnightblue" d="M167.5,-221.094C176.459,-223.949 186.162,-227.2 195,-230.5 214.642,-237.834 236.275,-247.1 253.236,-254.646"/>
<polygon fill="midnightblue" stroke="midnightblue" points="252.075,-257.961 262.632,-258.863 254.941,-251.575 252.075,-257.961"/>
</g>
<!-- Node6 -->
<g id="node6" class="node"><title>Node6</title>
<g id="a_node6"><a xlink:href="namespacetlz.html#a35f9e03fa4fd9cec699f5fa27962400f" target="_top" xlink:title="tlz::json_arg">
<polygon fill="white" stroke="black" points="249.5,-202 249.5,-221 319.5,-221 319.5,-202 249.5,-202"/>
<text text-anchor="middle" x="284.5" y="-209" font-family="Helvetica,sans-Serif" font-size="10.00">tlz::json_arg</text>
</a>
</g>
</g>
<!-- Node3&#45;&gt;Node6 -->
<g id="edge5" class="edge"><title>Node3&#45;&gt;Node6</title>
<path fill="none" stroke="midnightblue" d="M179.104,-211.5C197.954,-211.5 219.987,-211.5 238.942,-211.5"/>
<polygon fill="midnightblue" stroke="midnightblue" points="239.116,-215 249.116,-211.5 239.116,-208 239.116,-215"/>
</g>
<!-- Node5 -->
<g id="node5" class="node"><title>Node5</title>
<g id="a_node5"><a xlink:href="namespacetlz.html#a066563a26e2de02f215b179f3d3a53da" target="_top" xlink:title="tlz::decode_mat">
<polygon fill="white" stroke="black" points="381.5,-278 381.5,-297 467.5,-297 467.5,-278 381.5,-278"/>
<text text-anchor="middle" x="424.5" y="-285" font-family="Helvetica,sans-Serif" font-size="10.00">tlz::decode_mat</text>
</a>
</g>
</g>
<!-- Node4&#45;&gt;Node5 -->
<g id="edge4" class="edge"><title>Node4&#45;&gt;Node5</title>
<path fill="none" stroke="midnightblue" d="M338.066,-275.737C348.917,-277.231 360.345,-278.805 371.188,-280.298"/>
<polygon fill="midnightblue" stroke="midnightblue" points="370.982,-283.802 381.366,-281.699 371.937,-276.868 370.982,-283.802"/>
</g>
<!-- Node7 -->
<g id="node7" class="node"><title>Node7</title>
<g id="a_node7"><a xlink:href="namespacetlz.html#aa1be9362f548fcf9378e1fc9074089c4" target="_top" xlink:title="tlz::import_json_file">
<polygon fill="white" stroke="black" points="374,-240 374,-259 475,-259 475,-240 374,-240"/>
<text text-anchor="middle" x="424.5" y="-247" font-family="Helvetica,sans-Serif" font-size="10.00">tlz::import_json_file</text>
</a>
</g>
</g>
<!-- Node6&#45;&gt;Node7 -->
<g id="edge6" class="edge"><title>Node6&#45;&gt;Node7</title>
<path fill="none" stroke="midnightblue" d="M319.612,-220.893C337.556,-225.834 359.771,-231.952 379.047,-237.259"/>
<polygon fill="midnightblue" stroke="midnightblue" points="378.251,-240.67 388.822,-239.951 380.11,-233.922 378.251,-240.67"/>
</g>
<!-- Node8 -->
<g id="node8" class="node"><title>Node8</title>
<g id="a_node8"><a xlink:href="namespacetlz.html#a634de7ca11e100e4a118dffe80376a75" target="_top" xlink:title="tlz::in_filename_arg">
<polygon fill="white" stroke="black" points="374,-202 374,-221 475,-221 475,-202 374,-202"/>
<text text-anchor="middle" x="424.5" y="-209" font-family="Helvetica,sans-Serif" font-size="10.00">tlz::in_filename_arg</text>
</a>
</g>
</g>
<!-- Node6&#45;&gt;Node8 -->
<g id="edge7" class="edge"><title>Node6&#45;&gt;Node8</title>
<path fill="none" stroke="midnightblue" d="M319.612,-211.5C332.907,-211.5 348.546,-211.5 363.597,-211.5"/>
<polygon fill="midnightblue" stroke="midnightblue" points="363.888,-215 373.888,-211.5 363.887,-208 363.888,-215"/>
</g>
<!-- Node9 -->
<g id="node9" class="node"><title>Node9</title>
<g id="a_node9"><a xlink:href="namespacetlz.html#a0621d598fb83b13bf028f3e6293d04f8" target="_top" xlink:title="tlz::string_arg">
<polygon fill="white" stroke="black" points="511.5,-126 511.5,-145 587.5,-145 587.5,-126 511.5,-126"/>
<text text-anchor="middle" x="549.5" y="-133" font-family="Helvetica,sans-Serif" font-size="10.00">tlz::string_arg</text>
</a>
</g>
</g>
<!-- Node8&#45;&gt;Node9 -->
<g id="edge8" class="edge"><title>Node8&#45;&gt;Node9</title>
<path fill="none" stroke="midnightblue" d="M448.689,-201.952C457.26,-197.992 466.863,-193.028 475,-187.5 492.954,-175.304 493.153,-166.853 511,-154.5 513.23,-152.957 515.602,-151.461 518.029,-150.032"/>
<polygon fill="midnightblue" stroke="midnightblue" points="519.804,-153.05 526.898,-145.18 516.445,-146.909 519.804,-153.05"/>
</g>
<!-- Node10 -->
<g id="node10" class="node"><title>Node10</title>
<g id="a_node10"><a xlink:href="namespacetlz.html#a780431daab8d2595372eacb43143b52d" target="_top" xlink:title="tlz::args">
<polygon fill="white" stroke="black" points="654.5,-126 654.5,-145 706.5,-145 706.5,-126 654.5,-126"/>
<text text-anchor="middle" x="680.5" y="-133" font-family="Helvetica,sans-Serif" font-size="10.00">tlz::args</text>
</a>
</g>
</g>
<!-- Node8&#45;&gt;Node10 -->
<g id="edge14" class="edge"><title>Node8&#45;&gt;Node10</title>
<path fill="none" stroke="midnightblue" d="M475.109,-211.303C507.957,-209.829 551.54,-205.264 588,-192.5 614.775,-183.126 641.922,-164.869 659.613,-151.535"/>
<polygon fill="midnightblue" stroke="midnightblue" points="662.183,-153.972 667.95,-145.084 657.899,-148.436 662.183,-153.972"/>
</g>
<!-- Node12 -->
<g id="node12" class="node"><title>Node12</title>
<g id="a_node12"><a xlink:href="classtlz_1_1args__list.html#a38ad21acd64a4af98ffdf4a47837cdbe" target="_top" xlink:title="tlz::args_list::usage_fail">
<polygon fill="white" stroke="black" points="773,-183 773,-202 893,-202 893,-183 773,-183"/>
<text text-anchor="middle" x="833" y="-190" font-family="Helvetica,sans-Serif" font-size="10.00">tlz::args_list::usage_fail</text>
</a>
</g>
</g>
<!-- Node8&#45;&gt;Node12 -->
<g id="edge15" class="edge"><title>Node8&#45;&gt;Node12</title>
<path fill="none" stroke="midnightblue" d="M475.229,-212.86C486.959,-213.126 499.419,-213.365 511,-213.5 545.22,-213.9 553.809,-214.969 588,-213.5 647.09,-210.962 714.007,-204.982 762.798,-200.049"/>
<polygon fill="midnightblue" stroke="midnightblue" points="763.333,-203.513 772.926,-199.014 762.621,-196.549 763.333,-203.513"/>
</g>
<!-- Node14 -->
<g id="node14" class="node"><title>Node14</title>
<g id="a_node14"><a xlink:href="namespacetlz.html#abb019466ea9f56c0dab27e893d891837" target="_top" xlink:title="tlz::file_exists">
<polygon fill="white" stroke="black" points="511,-164 511,-183 588,-183 588,-164 511,-164"/>
<text text-anchor="middle" x="549.5" y="-171" font-family="Helvetica,sans-Serif" font-size="10.00">tlz::file_exists</text>
</a>
</g>
</g>
<!-- Node8&#45;&gt;Node14 -->
<g id="edge13" class="edge"><title>Node8&#45;&gt;Node14</title>
<path fill="none" stroke="midnightblue" d="M456.538,-201.911C471.979,-197.141 490.848,-191.311 507.466,-186.177"/>
<polygon fill="midnightblue" stroke="midnightblue" points="508.951,-189.382 517.472,-183.086 506.884,-182.694 508.951,-189.382"/>
</g>
<!-- Node9&#45;&gt;Node10 -->
<g id="edge9" class="edge"><title>Node9&#45;&gt;Node10</title>
<path fill="none" stroke="midnightblue" d="M587.812,-135.5C605.436,-135.5 626.375,-135.5 643.79,-135.5"/>
<polygon fill="midnightblue" stroke="midnightblue" points="644.117,-139 654.117,-135.5 644.117,-132 644.117,-139"/>
</g>
<!-- Node11 -->
<g id="node11" class="node"><title>Node11</title>
<g id="a_node11"><a xlink:href="classtlz_1_1args__list.html#a73d99bc75998dc14607a3a372d28dc6d" target="_top" xlink:title="tlz::args_list::next_arg">
<polygon fill="white" stroke="black" points="624,-88 624,-107 737,-107 737,-88 624,-88"/>
<text text-anchor="middle" x="680.5" y="-95" font-family="Helvetica,sans-Serif" font-size="10.00">tlz::args_list::next_arg</text>
</a>
</g>
</g>
<!-- Node9&#45;&gt;Node11 -->
<g id="edge10" class="edge"><title>Node9&#45;&gt;Node11</title>
<path fill="none" stroke="midnightblue" d="M583.052,-125.911C599.399,-121.096 619.409,-115.201 636.957,-110.032"/>
<polygon fill="midnightblue" stroke="midnightblue" points="638.355,-113.269 646.958,-107.086 636.377,-106.554 638.355,-113.269"/>
</g>
<!-- Node11&#45;&gt;Node12 -->
<g id="edge11" class="edge"><title>Node11&#45;&gt;Node12</title>
<path fill="none" stroke="midnightblue" d="M715.46,-107.048C722.769,-109.669 730.305,-112.823 737,-116.5 766.86,-132.902 796.806,-158.806 814.876,-175.727"/>
<polygon fill="midnightblue" stroke="midnightblue" points="812.646,-178.437 822.299,-182.803 817.475,-173.37 812.646,-178.437"/>
</g>
<!-- Node13 -->
<g id="node13" class="node"><title>Node13</title>
<g id="a_node13"><a xlink:href="namespacetlz.html#a8e4f8c8c2927bc4350de13bfa0f8f9e1" target="_top" xlink:title="tlz::to_string">
<polygon fill="white" stroke="black" points="797.5,-88 797.5,-107 868.5,-107 868.5,-88 797.5,-88"/>
<text text-anchor="middle" x="833" y="-95" font-family="Helvetica,sans-Serif" font-size="10.00">tlz::to_string</text>
</a>
</g>
</g>
<!-- Node11&#45;&gt;Node13 -->
<g id="edge12" class="edge"><title>Node11&#45;&gt;Node13</title>
<path fill="none" stroke="midnightblue" d="M737.113,-97.5C753.441,-97.5 771.096,-97.5 786.698,-97.5"/>
<polygon fill="midnightblue" stroke="midnightblue" points="787.13,-101 797.13,-97.5 787.129,-94.0001 787.13,-101"/>
</g>
<!-- Node15&#45;&gt;Node9 -->
<g id="edge17" class="edge"><title>Node15&#45;&gt;Node9</title>
<path fill="none" stroke="midnightblue" d="M338.08,-170.397C376.278,-167.616 429.103,-162.683 475,-154.5 485.121,-152.695 495.897,-150.227 505.991,-147.666"/>
<polygon fill="midnightblue" stroke="midnightblue" points="507.02,-151.015 515.807,-145.096 505.246,-144.243 507.02,-151.015"/>
</g>
<!-- Node16&#45;&gt;Node10 -->
<g id="edge19" class="edge"><title>Node16&#45;&gt;Node10</title>
<path fill="none" stroke="midnightblue" d="M329.021,-98.2955C387.964,-99.814 496.345,-104.169 588,-116.5 606.775,-119.026 627.459,-123.2 644.404,-126.994"/>
<polygon fill="midnightblue" stroke="midnightblue" points="643.892,-130.467 654.421,-129.289 645.455,-123.644 643.892,-130.467"/>
</g>
<!-- Node17 -->
<g id="node17" class="node"><title>Node17</title>
<g id="a_node17"><a xlink:href="classtlz_1_1args__list.html#a4aee93f4b0d9b5b4e7a5d13cb637337c" target="_top" xlink:title="tlz::args_list::has\l_next_arg">
<polygon fill="white" stroke="black" points="378.5,-0.5 378.5,-30.5 470.5,-30.5 470.5,-0.5 378.5,-0.5"/>
<text text-anchor="start" x="386.5" y="-18.5" font-family="Helvetica,sans-Serif" font-size="10.00">tlz::args_list::has</text>
<text text-anchor="middle" x="424.5" y="-7.5" font-family="Helvetica,sans-Serif" font-size="10.00">_next_arg</text>
</a>
</g>
</g>
<!-- Node16&#45;&gt;Node17 -->
<g id="edge20" class="edge"><title>Node16&#45;&gt;Node17</title>
<path fill="none" stroke="midnightblue" d="M301.6,-87.9331C323.029,-75.2004 361.467,-52.3599 389.466,-35.7231"/>
<polygon fill="midnightblue" stroke="midnightblue" points="391.346,-38.6774 398.155,-30.5602 387.77,-32.6596 391.346,-38.6774"/>
</g>
<!-- Node18 -->
<g id="node18" class="node"><title>Node18</title>
<g id="a_node18"><a xlink:href="namespacetlz.html#ac18630fe66cc71c8cc5eb6acce057f5f" target="_top" xlink:title="tlz::bool_arg">
<polygon fill="white" stroke="black" points="514.5,-50 514.5,-69 584.5,-69 584.5,-50 514.5,-50"/>
<text text-anchor="middle" x="549.5" y="-57" font-family="Helvetica,sans-Serif" font-size="10.00">tlz::bool_arg</text>
</a>
</g>
</g>
<!-- Node16&#45;&gt;Node18 -->
<g id="edge21" class="edge"><title>Node16&#45;&gt;Node18</title>
<path fill="none" stroke="midnightblue" d="M329.137,-90.4176C343.425,-88.1466 359.381,-85.6614 374,-83.5 418.329,-76.946 469.084,-70.0316 504.384,-65.3167"/>
<polygon fill="midnightblue" stroke="midnightblue" points="504.915,-68.7771 514.365,-63.9873 503.991,-61.8383 504.915,-68.7771"/>
</g>
<!-- Node19 -->
<g id="node19" class="node"><title>Node19</title>
<g id="a_node19"><a xlink:href="namespacetlz.html#abea9308e4287a82deb9e44e7cc9782a0" target="_top" xlink:title="tlz::view_index_arg">
<polygon fill="white" stroke="black" points="374,-126 374,-145 475,-145 475,-126 374,-126"/>
<text text-anchor="middle" x="424.5" y="-133" font-family="Helvetica,sans-Serif" font-size="10.00">tlz::view_index_arg</text>
</a>
</g>
</g>
<!-- Node16&#45;&gt;Node19 -->
<g id="edge24" class="edge"><title>Node16&#45;&gt;Node19</title>
<path fill="none" stroke="midnightblue" d="M320.323,-107.089C338.138,-111.994 360.018,-118.02 379.039,-123.257"/>
<polygon fill="midnightblue" stroke="midnightblue" points="378.118,-126.634 388.688,-125.914 379.976,-119.885 378.118,-126.634"/>
</g>
<!-- Node18&#45;&gt;Node10 -->
<g id="edge22" class="edge"><title>Node18&#45;&gt;Node10</title>
<path fill="none" stroke="midnightblue" d="M566.974,-69.1865C573.675,-73.3439 581.383,-78.4106 588,-83.5 605.205,-96.7327 605.338,-105.417 624,-116.5 630.381,-120.29 637.627,-123.461 644.728,-126.06"/>
<polygon fill="midnightblue" stroke="midnightblue" points="643.632,-129.384 654.226,-129.252 645.863,-122.749 643.632,-129.384"/>
</g>
<!-- Node18&#45;&gt;Node11 -->
<g id="edge23" class="edge"><title>Node18&#45;&gt;Node11</title>
<path fill="none" stroke="midnightblue" d="M583.052,-69.089C599.399,-73.9044 619.409,-79.7988 636.957,-84.968"/>
<polygon fill="midnightblue" stroke="midnightblue" points="636.377,-88.4457 646.958,-87.9141 638.355,-81.7309 636.377,-88.4457"/>
</g>
<!-- Node19&#45;&gt;Node9 -->
<g id="edge25" class="edge"><title>Node19&#45;&gt;Node9</title>
<path fill="none" stroke="midnightblue" d="M475.174,-135.5C483.706,-135.5 492.554,-135.5 501.027,-135.5"/>
<polygon fill="midnightblue" stroke="midnightblue" points="501.129,-139 511.129,-135.5 501.129,-132 501.129,-139"/>
</g>
</g>
</svg>
