<?xml version="1.0" encoding="UTF-8" standalone="no"?>
<!DOCTYPE svg PUBLIC "-//W3C//DTD SVG 1.1//EN"
 "http://www.w3.org/Graphics/SVG/1.1/DTD/svg11.dtd">
<!-- Generated by graphviz version 2.38.0 (20140413.2041)
 -->
<!-- Title: main Pages: 1 -->
<svg width="674pt" height="192pt"
 viewBox="0.00 0.00 674.00 191.50" xmlns="http://www.w3.org/2000/svg" xmlns:xlink="http://www.w3.org/1999/xlink">
<g id="graph0" class="graph" transform="scale(1 1) rotate(0) translate(4 187.5)">
<title>main</title>
<polygon fill="white" stroke="none" points="-4,4 -4,-187.5 670,-187.5 670,4 -4,4"/>
<!-- Node1 -->
<g id="node1" class="node"><title>Node1</title>
<polygon fill="#bfbfbf" stroke="black" points="0,-88 0,-107 38,-107 38,-88 0,-88"/>
<text text-anchor="middle" x="19" y="-95" font-family="Helvetica,sans-Serif" font-size="10.00">main</text>
</g>
<!-- Node2 -->
<g id="node2" class="node"><title>Node2</title>
<g id="a_node2"><a xlink:href="namespacetlz.html#a3c03f5d9d6261ec2909938822fc47f8a" target="_top" xlink:title="tlz::get_args">
<polygon fill="white" stroke="black" points="103,-164 103,-183 174,-183 174,-164 103,-164"/>
<text text-anchor="middle" x="138.5" y="-171" font-family="Helvetica,sans-Serif" font-size="10.00">tlz::get_args</text>
</a>
</g>
</g>
<!-- Node1&#45;&gt;Node2 -->
<g id="edge1" class="edge"><title>Node1&#45;&gt;Node2</title>
<path fill="none" stroke="midnightblue" d="M26.538,-107.037C35.7056,-119.701 53.5665,-141.928 74,-154.5 79.8605,-158.106 86.4478,-161.064 93.1026,-163.48"/>
<polygon fill="midnightblue" stroke="midnightblue" points="92.2318,-166.877 102.824,-166.644 94.3984,-160.221 92.2318,-166.877"/>
</g>
<!-- Node3 -->
<g id="node3" class="node"><title>Node3</title>
<g id="a_node3"><a xlink:href="namespacetlz.html#a65770a2c1ff57c5ae6542d4465a3d3f4" target="_top" xlink:title="tlz::out_filename_arg">
<polygon fill="white" stroke="black" points="85,-126 85,-145 192,-145 192,-126 85,-126"/>
<text text-anchor="middle" x="138.5" y="-133" font-family="Helvetica,sans-Serif" font-size="10.00">tlz::out_filename_arg</text>
</a>
</g>
</g>
<!-- Node1&#45;&gt;Node3 -->
<g id="edge2" class="edge"><title>Node1&#45;&gt;Node3</title>
<path fill="none" stroke="midnightblue" d="M38.4205,-104.226C48.8245,-107.963 62.092,-112.626 74,-116.5 80.6169,-118.653 87.6508,-120.848 94.5355,-122.947"/>
<polygon fill="midnightblue" stroke="midnightblue" points="93.865,-126.4 104.45,-125.935 95.8853,-119.698 93.865,-126.4"/>
</g>
<!-- Node9 -->
<g id="node9" class="node"><title>Node9</title>
<g id="a_node9"><a xlink:href="fetch__internal__parameters_8cc.html#a9de0f71693f83a591b53d7363cdd5bf7" target="_top" xlink:title="fetch_internal_parameters">
<polygon fill="white" stroke="black" points="74,-88 74,-107 203,-107 203,-88 74,-88"/>
<text text-anchor="middle" x="138.5" y="-95" font-family="Helvetica,sans-Serif" font-size="10.00">fetch_internal_parameters</text>
</a>
</g>
</g>
<!-- Node1&#45;&gt;Node9 -->
<g id="edge8" class="edge"><title>Node1&#45;&gt;Node9</title>
<path fill="none" stroke="midnightblue" d="M38.1019,-97.5C45.4119,-97.5 54.3687,-97.5 63.8823,-97.5"/>
<polygon fill="midnightblue" stroke="midnightblue" points="63.9523,-101 73.9522,-97.5 63.9522,-94.0001 63.9523,-101"/>
</g>
<!-- Node11 -->
<g id="node11" class="node"><title>Node11</title>
<g id="a_node11"><a xlink:href="namespacetlz.html#ab98de0b10e3e079dee189f81adc638a0" target="_top" xlink:title="tlz::export_json_file">
<polygon fill="white" stroke="black" points="88,-50 88,-69 189,-69 189,-50 88,-50"/>
<text text-anchor="middle" x="138.5" y="-57" font-family="Helvetica,sans-Serif" font-size="10.00">tlz::export_json_file</text>
</a>
</g>
</g>
<!-- Node1&#45;&gt;Node11 -->
<g id="edge10" class="edge"><title>Node1&#45;&gt;Node11</title>
<path fill="none" stroke="midnightblue" d="M38.4205,-90.7744C48.8245,-87.0373 62.092,-82.374 74,-78.5 80.6169,-76.3473 87.6508,-74.1515 94.5355,-72.0531"/>
<polygon fill="midnightblue" stroke="midnightblue" points="95.8853,-75.3018 104.45,-69.0646 93.865,-68.5997 95.8853,-75.3018"/>
</g>
<!-- Node13 -->
<g id="node13" class="node"><title>Node13</title>
<g id="a_node13"><a xlink:href="namespacetlz.html#a411d4a181eea862f9d9a6c23174512bc" target="_top" xlink:title="tlz::encode_kinect\l_internal_parameters">
<polygon fill="white" stroke="black" points="85,-0.5 85,-30.5 192,-30.5 192,-0.5 85,-0.5"/>
<text text-anchor="start" x="93" y="-18.5" font-family="Helvetica,sans-Serif" font-size="10.00">tlz::encode_kinect</text>
<text text-anchor="middle" x="138.5" y="-7.5" font-family="Helvetica,sans-Serif" font-size="10.00">_internal_parameters</text>
</a>
</g>
</g>
<!-- Node1&#45;&gt;Node13 -->
<g id="edge12" class="edge"><title>Node1&#45;&gt;Node13</title>
<path fill="none" stroke="midnightblue" d="M27.0207,-87.7864C36.459,-75.3336 54.3406,-53.7699 74,-40.5 76.7497,-38.644 79.6575,-36.895 82.6559,-35.2516"/>
<polygon fill="midnightblue" stroke="midnightblue" points="84.4861,-38.2493 91.8559,-30.6377 81.348,-31.9921 84.4861,-38.2493"/>
</g>
<!-- Node4 -->
<g id="node4" class="node"><title>Node4</title>
<g id="a_node4"><a xlink:href="namespacetlz.html#a0621d598fb83b13bf028f3e6293d04f8" target="_top" xlink:title="tlz::string_arg">
<polygon fill="white" stroke="black" points="262,-126 262,-145 338,-145 338,-126 262,-126"/>
<text text-anchor="middle" x="300" y="-133" font-family="Helvetica,sans-Serif" font-size="10.00">tlz::string_arg</text>
</a>
</g>
</g>
<!-- Node3&#45;&gt;Node4 -->
<g id="edge3" class="edge"><title>Node3&#45;&gt;Node4</title>
<path fill="none" stroke="midnightblue" d="M192.168,-135.5C211.309,-135.5 232.811,-135.5 251.48,-135.5"/>
<polygon fill="midnightblue" stroke="midnightblue" points="251.527,-139 261.527,-135.5 251.527,-132 251.527,-139"/>
</g>
<!-- Node5 -->
<g id="node5" class="node"><title>Node5</title>
<g id="a_node5"><a xlink:href="namespacetlz.html#a780431daab8d2595372eacb43143b52d" target="_top" xlink:title="tlz::args">
<polygon fill="white" stroke="black" points="427.5,-145 427.5,-164 479.5,-164 479.5,-145 427.5,-145"/>
<text text-anchor="middle" x="453.5" y="-152" font-family="Helvetica,sans-Serif" font-size="10.00">tlz::args</text>
</a>
</g>
</g>
<!-- Node4&#45;&gt;Node5 -->
<g id="edge4" class="edge"><title>Node4&#45;&gt;Node5</title>
<path fill="none" stroke="midnightblue" d="M338.061,-140.148C362.174,-143.172 393.438,-147.093 417.193,-150.072"/>
<polygon fill="midnightblue" stroke="midnightblue" points="416.84,-153.555 427.198,-151.327 417.712,-146.61 416.84,-153.555"/>
</g>
<!-- Node6 -->
<g id="node6" class="node"><title>Node6</title>
<g id="a_node6"><a xlink:href="classtlz_1_1args__list.html#a73d99bc75998dc14607a3a372d28dc6d" target="_top" xlink:title="tlz::args_list::next_arg">
<polygon fill="white" stroke="black" points="397,-107 397,-126 510,-126 510,-107 397,-107"/>
<text text-anchor="middle" x="453.5" y="-114" font-family="Helvetica,sans-Serif" font-size="10.00">tlz::args_list::next_arg</text>
</a>
</g>
</g>
<!-- Node4&#45;&gt;Node6 -->
<g id="edge5" class="edge"><title>Node4&#45;&gt;Node6</title>
<path fill="none" stroke="midnightblue" d="M338.061,-130.852C352.715,-129.014 370.009,-126.845 386.655,-124.758"/>
<polygon fill="midnightblue" stroke="midnightblue" points="387.419,-128.19 396.905,-123.472 386.547,-121.244 387.419,-128.19"/>
</g>
<!-- Node7 -->
<g id="node7" class="node"><title>Node7</title>
<g id="a_node7"><a xlink:href="classtlz_1_1args__list.html#a38ad21acd64a4af98ffdf4a47837cdbe" target="_top" xlink:title="tlz::args_list::usage_fail">
<polygon fill="white" stroke="black" points="546,-126 546,-145 666,-145 666,-126 546,-126"/>
<text text-anchor="middle" x="606" y="-133" font-family="Helvetica,sans-Serif" font-size="10.00">tlz::args_list::usage_fail</text>
</a>
</g>
</g>
<!-- Node6&#45;&gt;Node7 -->
<g id="edge6" class="edge"><title>Node6&#45;&gt;Node7</title>
<path fill="none" stroke="midnightblue" d="M510.113,-123.521C518.479,-124.577 527.192,-125.677 535.8,-126.764"/>
<polygon fill="midnightblue" stroke="midnightblue" points="535.468,-130.25 545.828,-128.03 536.345,-123.305 535.468,-130.25"/>
</g>
<!-- Node8 -->
<g id="node8" class="node"><title>Node8</title>
<g id="a_node8"><a xlink:href="namespacetlz.html#a8e4f8c8c2927bc4350de13bfa0f8f9e1" target="_top" xlink:title="tlz::to_string">
<polygon fill="white" stroke="black" points="570.5,-88 570.5,-107 641.5,-107 641.5,-88 570.5,-88"/>
<text text-anchor="middle" x="606" y="-95" font-family="Helvetica,sans-Serif" font-size="10.00">tlz::to_string</text>
</a>
</g>
</g>
<!-- Node6&#45;&gt;Node8 -->
<g id="edge7" class="edge"><title>Node6&#45;&gt;Node8</title>
<path fill="none" stroke="midnightblue" d="M510.113,-109.479C526.598,-107.398 544.435,-105.146 560.147,-103.162"/>
<polygon fill="midnightblue" stroke="midnightblue" points="560.647,-106.627 570.13,-101.902 559.77,-99.6824 560.647,-106.627"/>
</g>
<!-- Node10 -->
<g id="node10" class="node"><title>Node10</title>
<g id="a_node10"><a xlink:href="namespacetlz.html#a0ede2d330085f92d43866ec94102f871" target="_top" xlink:title="tlz::from_freenect2">
<polygon fill="white" stroke="black" points="251,-88 251,-107 349,-107 349,-88 251,-88"/>
<text text-anchor="middle" x="300" y="-95" font-family="Helvetica,sans-Serif" font-size="10.00">tlz::from_freenect2</text>
</a>
</g>
</g>
<!-- Node9&#45;&gt;Node10 -->
<g id="edge9" class="edge"><title>Node9&#45;&gt;Node10</title>
<path fill="none" stroke="midnightblue" d="M203.456,-97.5C215.656,-97.5 228.369,-97.5 240.392,-97.5"/>
<polygon fill="midnightblue" stroke="midnightblue" points="240.749,-101 250.749,-97.5 240.749,-94.0001 240.749,-101"/>
</g>
<!-- Node12 -->
<g id="node12" class="node"><title>Node12</title>
<g id="a_node12"><a xlink:href="namespacetlz.html#ae11c827ac9e581f9d2f98c39aab3750d" target="_top" xlink:title="tlz::file_name_extension">
<polygon fill="white" stroke="black" points="239,-50 239,-69 361,-69 361,-50 239,-50"/>
<text text-anchor="middle" x="300" y="-57" font-family="Helvetica,sans-Serif" font-size="10.00">tlz::file_name_extension</text>
</a>
</g>
</g>
<!-- Node11&#45;&gt;Node12 -->
<g id="edge11" class="edge"><title>Node11&#45;&gt;Node12</title>
<path fill="none" stroke="midnightblue" d="M189.092,-59.5C201.627,-59.5 215.326,-59.5 228.669,-59.5"/>
<polygon fill="midnightblue" stroke="midnightblue" points="228.778,-63.0001 238.778,-59.5 228.778,-56.0001 228.778,-63.0001"/>
</g>
</g>
</svg>
