<?xml version="1.0" encoding="UTF-8" standalone="no"?>
<!DOCTYPE svg PUBLIC "-//W3C//DTD SVG 1.1//EN"
 "http://www.w3.org/Graphics/SVG/1.1/DTD/svg11.dtd">
<!-- Generated by graphviz version 2.38.0 (20140413.2041)
 -->
<!-- Title: main Pages: 1 -->
<svg width="861pt" height="370pt"
 viewBox="0.00 0.00 861.00 370.00" xmlns="http://www.w3.org/2000/svg" xmlns:xlink="http://www.w3.org/1999/xlink">
<g id="graph0" class="graph" transform="scale(1 1) rotate(0) translate(4 366)">
<title>main</title>
<polygon fill="white" stroke="none" points="-4,4 -4,-366 857,-366 857,4 -4,4"/>
<!-- Node1 -->
<g id="node1" class="node"><title>Node1</title>
<polygon fill="#bfbfbf" stroke="black" points="0,-171.5 0,-190.5 38,-190.5 38,-171.5 0,-171.5"/>
<text text-anchor="middle" x="19" y="-178.5" font-family="Helvetica,sans-Serif" font-size="10.00">main</text>
</g>
<!-- Node2 -->
<g id="node2" class="node"><title>Node2</title>
<g id="a_node2"><a xlink:href="namespacetlz.html#a3c03f5d9d6261ec2909938822fc47f8a" target="_top" xlink:title="tlz::get_args">
<polygon fill="white" stroke="black" points="116.5,-342.5 116.5,-361.5 187.5,-361.5 187.5,-342.5 116.5,-342.5"/>
<text text-anchor="middle" x="152" y="-349.5" font-family="Helvetica,sans-Serif" font-size="10.00">tlz::get_args</text>
</a>
</g>
</g>
<!-- Node1&#45;&gt;Node2 -->
<g id="edge1" class="edge"><title>Node1&#45;&gt;Node2</title>
<path fill="none" stroke="midnightblue" d="M20.4043,-190.517C22.0748,-217.266 30.6075,-293.721 74,-333 82.8427,-341.004 94.5175,-345.767 106.095,-348.566"/>
<polygon fill="midnightblue" stroke="midnightblue" points="105.683,-352.052 116.171,-350.552 107.037,-345.184 105.683,-352.052"/>
</g>
<!-- Node3 -->
<g id="node3" class="node"><title>Node3</title>
<g id="a_node3"><a xlink:href="namespacetlz.html#a35f9e03fa4fd9cec699f5fa27962400f" target="_top" xlink:title="tlz::json_arg">
<polygon fill="white" stroke="black" points="117,-304.5 117,-323.5 187,-323.5 187,-304.5 117,-304.5"/>
<text text-anchor="middle" x="152" y="-311.5" font-family="Helvetica,sans-Serif" font-size="10.00">tlz::json_arg</text>
</a>
</g>
</g>
<!-- Node1&#45;&gt;Node3 -->
<g id="edge2" class="edge"><title>Node1&#45;&gt;Node3</title>
<path fill="none" stroke="midnightblue" d="M22.0848,-190.747C27.1345,-211.986 42.033,-262.718 74,-290 83.3195,-297.954 95.2638,-303.274 106.95,-306.832"/>
<polygon fill="midnightblue" stroke="midnightblue" points="106.077,-310.222 116.642,-309.425 107.887,-303.459 106.077,-310.222"/>
</g>
<!-- Node12 -->
<g id="node12" class="node"><title>Node12</title>
<g id="a_node12"><a xlink:href="namespacetlz.html#af0d1e8ba5b9f2dbc2b589afab3a21fc8" target="_top" xlink:title="tlz::int_arg">
<polygon fill="white" stroke="black" points="468.5,-228.5 468.5,-247.5 530.5,-247.5 530.5,-228.5 468.5,-228.5"/>
<text text-anchor="middle" x="499.5" y="-235.5" font-family="Helvetica,sans-Serif" font-size="10.00">tlz::int_arg</text>
</a>
</g>
</g>
<!-- Node1&#45;&gt;Node12 -->
<g id="edge13" class="edge"><title>Node1&#45;&gt;Node12</title>
<path fill="none" stroke="midnightblue" d="M38.0353,-189.964C48.3188,-194.66 61.5941,-200.035 74,-203 212.243,-236.036 382.198,-239.194 458.313,-238.717"/>
<polygon fill="midnightblue" stroke="midnightblue" points="458.449,-242.216 468.418,-238.628 458.387,-235.216 458.449,-242.216"/>
</g>
<!-- Node13 -->
<g id="node13" class="node"><title>Node13</title>
<g id="a_node13"><a xlink:href="namespacetlz.html#a65770a2c1ff57c5ae6542d4465a3d3f4" target="_top" xlink:title="tlz::out_filename_arg">
<polygon fill="white" stroke="black" points="287,-266.5 287,-285.5 394,-285.5 394,-266.5 287,-266.5"/>
<text text-anchor="middle" x="340.5" y="-273.5" font-family="Helvetica,sans-Serif" font-size="10.00">tlz::out_filename_arg</text>
</a>
</g>
</g>
<!-- Node1&#45;&gt;Node13 -->
<g id="edge17" class="edge"><title>Node1&#45;&gt;Node13</title>
<path fill="none" stroke="midnightblue" d="M24.1315,-190.638C31.5267,-206.558 48.6603,-237.98 74,-252 136.427,-286.54 219.943,-288.185 276.514,-284.027"/>
<polygon fill="midnightblue" stroke="midnightblue" points="277.07,-287.493 286.752,-283.189 276.5,-280.516 277.07,-287.493"/>
</g>
<!-- Node14 -->
<g id="node14" class="node"><title>Node14</title>
<g id="a_node14"><a xlink:href="namespacetlz.html#a85a6b8de7967e1850e339011044322c5" target="_top" xlink:title="tlz::is_single_view\l_homography">
<polygon fill="white" stroke="black" points="451,-179 451,-209 548,-209 548,-179 451,-179"/>
<text text-anchor="start" x="459" y="-197" font-family="Helvetica,sans-Serif" font-size="10.00">tlz::is_single_view</text>
<text text-anchor="middle" x="499.5" y="-186" font-family="Helvetica,sans-Serif" font-size="10.00">_homography</text>
</a>
</g>
</g>
<!-- Node1&#45;&gt;Node14 -->
<g id="edge19" class="edge"><title>Node1&#45;&gt;Node14</title>
<path fill="none" stroke="midnightblue" d="M38.4695,-183.049C48.8888,-184.119 62.1553,-185.341 74,-186 204.923,-193.285 358.871,-194.308 440.625,-194.255"/>
<polygon fill="midnightblue" stroke="midnightblue" points="440.716,-197.755 450.711,-194.242 440.707,-190.755 440.716,-197.755"/>
</g>
<!-- Node16 -->
<g id="node16" class="node"><title>Node16</title>
<g id="a_node16"><a xlink:href="namespacetlz.html#acc042de1df74e590015a1efe234a338c" target="_top" xlink:title="tlz::decode_view_homography">
<polygon fill="white" stroke="black" points="266,-152.5 266,-171.5 415,-171.5 415,-152.5 266,-152.5"/>
<text text-anchor="middle" x="340.5" y="-159.5" font-family="Helvetica,sans-Serif" font-size="10.00">tlz::decode_view_homography</text>
</a>
</g>
</g>
<!-- Node1&#45;&gt;Node16 -->
<g id="edge21" class="edge"><title>Node1&#45;&gt;Node16</title>
<path fill="none" stroke="midnightblue" d="M38.0931,-179.924C79.1316,-177.484 181.454,-171.399 255.51,-166.995"/>
<polygon fill="midnightblue" stroke="midnightblue" points="255.988,-170.473 265.763,-166.385 255.573,-163.485 255.988,-170.473"/>
</g>
<!-- Node19 -->
<g id="node19" class="node"><title>Node19</title>
<g id="a_node19"><a xlink:href="namespacetlz.html#a55aaec653a81676fbd03d8eacef449f0" target="_top" xlink:title="tlz::maximal_border">
<polygon fill="white" stroke="black" points="101,-76.5 101,-95.5 203,-95.5 203,-76.5 101,-76.5"/>
<text text-anchor="middle" x="152" y="-83.5" font-family="Helvetica,sans-Serif" font-size="10.00">tlz::maximal_border</text>
</a>
</g>
</g>
<!-- Node1&#45;&gt;Node19 -->
<g id="edge25" class="edge"><title>Node1&#45;&gt;Node19</title>
<path fill="none" stroke="midnightblue" d="M24.0809,-171.385C31.5124,-155.081 48.8422,-122.118 74,-105 79.2293,-101.442 85.0613,-98.5487 91.1113,-96.1967"/>
<polygon fill="midnightblue" stroke="midnightblue" points="92.3978,-99.4562 100.743,-92.9282 90.1482,-92.8275 92.3978,-99.4562"/>
</g>
<!-- Node21 -->
<g id="node21" class="node"><title>Node21</title>
<g id="a_node21"><a xlink:href="namespacetlz.html#a2b9ca660faf3db42377043477bcee30b" target="_top" xlink:title="tlz::decode_view_homographies">
<polygon fill="white" stroke="black" points="74,-114.5 74,-133.5 230,-133.5 230,-114.5 74,-114.5"/>
<text text-anchor="middle" x="152" y="-121.5" font-family="Helvetica,sans-Serif" font-size="10.00">tlz::decode_view_homographies</text>
</a>
</g>
</g>
<!-- Node1&#45;&gt;Node21 -->
<g id="edge27" class="edge"><title>Node1&#45;&gt;Node21</title>
<path fill="none" stroke="midnightblue" d="M33.6885,-171.326C44.304,-164.154 59.5885,-154.528 74,-148 83.569,-143.665 94.1425,-139.81 104.31,-136.525"/>
<polygon fill="midnightblue" stroke="midnightblue" points="105.374,-139.86 113.888,-133.554 103.3,-133.174 105.374,-139.86"/>
</g>
<!-- Node23 -->
<g id="node23" class="node"><title>Node23</title>
<g id="a_node23"><a xlink:href="namespacetlz.html#ab98de0b10e3e079dee189f81adc638a0" target="_top" xlink:title="tlz::export_json_file">
<polygon fill="white" stroke="black" points="101.5,-38.5 101.5,-57.5 202.5,-57.5 202.5,-38.5 101.5,-38.5"/>
<text text-anchor="middle" x="152" y="-45.5" font-family="Helvetica,sans-Serif" font-size="10.00">tlz::export_json_file</text>
</a>
</g>
</g>
<!-- Node1&#45;&gt;Node23 -->
<g id="edge30" class="edge"><title>Node1&#45;&gt;Node23</title>
<path fill="none" stroke="midnightblue" d="M21.6868,-171.332C26.0651,-149.247 39.916,-94.8552 74,-67 79.2291,-62.7265 85.281,-59.3931 91.6483,-56.7964"/>
<polygon fill="midnightblue" stroke="midnightblue" points="92.8477,-60.085 101.144,-53.4954 90.5491,-53.4731 92.8477,-60.085"/>
</g>
<!-- Node25 -->
<g id="node25" class="node"><title>Node25</title>
<g id="a_node25"><a xlink:href="namespacetlz.html#a0f52424381098b5c19e34aef5da5232e" target="_top" xlink:title="tlz::encode_border">
<polygon fill="white" stroke="black" points="103.5,-0.5 103.5,-19.5 200.5,-19.5 200.5,-0.5 103.5,-0.5"/>
<text text-anchor="middle" x="152" y="-7.5" font-family="Helvetica,sans-Serif" font-size="10.00">tlz::encode_border</text>
</a>
</g>
</g>
<!-- Node1&#45;&gt;Node25 -->
<g id="edge32" class="edge"><title>Node1&#45;&gt;Node25</title>
<path fill="none" stroke="midnightblue" d="M20.4043,-171.483C22.0748,-144.734 30.6075,-68.2789 74,-29 79.6144,-23.9179 86.3705,-20.1424 93.5186,-17.3469"/>
<polygon fill="midnightblue" stroke="midnightblue" points="95.0168,-20.5397 103.439,-14.1113 92.8462,-13.8848 95.0168,-20.5397"/>
</g>
<!-- Node4 -->
<g id="node4" class="node"><title>Node4</title>
<g id="a_node4"><a xlink:href="namespacetlz.html#aa1be9362f548fcf9378e1fc9074089c4" target="_top" xlink:title="tlz::import_json_file">
<polygon fill="white" stroke="black" points="290,-342.5 290,-361.5 391,-361.5 391,-342.5 290,-342.5"/>
<text text-anchor="middle" x="340.5" y="-349.5" font-family="Helvetica,sans-Serif" font-size="10.00">tlz::import_json_file</text>
</a>
</g>
</g>
<!-- Node3&#45;&gt;Node4 -->
<g id="edge3" class="edge"><title>Node3&#45;&gt;Node4</title>
<path fill="none" stroke="midnightblue" d="M187.207,-320.97C213.966,-326.422 251.743,-334.119 282.978,-340.483"/>
<polygon fill="midnightblue" stroke="midnightblue" points="282.369,-343.931 292.867,-342.498 283.767,-337.072 282.369,-343.931"/>
</g>
<!-- Node5 -->
<g id="node5" class="node"><title>Node5</title>
<g id="a_node5"><a xlink:href="namespacetlz.html#a634de7ca11e100e4a118dffe80376a75" target="_top" xlink:title="tlz::in_filename_arg">
<polygon fill="white" stroke="black" points="290,-304.5 290,-323.5 391,-323.5 391,-304.5 290,-304.5"/>
<text text-anchor="middle" x="340.5" y="-311.5" font-family="Helvetica,sans-Serif" font-size="10.00">tlz::in_filename_arg</text>
</a>
</g>
</g>
<!-- Node3&#45;&gt;Node5 -->
<g id="edge4" class="edge"><title>Node3&#45;&gt;Node5</title>
<path fill="none" stroke="midnightblue" d="M187.207,-314C212.999,-314 249.03,-314 279.57,-314"/>
<polygon fill="midnightblue" stroke="midnightblue" points="279.694,-317.5 289.694,-314 279.694,-310.5 279.694,-317.5"/>
</g>
<!-- Node6 -->
<g id="node6" class="node"><title>Node6</title>
<g id="a_node6"><a xlink:href="namespacetlz.html#a0621d598fb83b13bf028f3e6293d04f8" target="_top" xlink:title="tlz::string_arg">
<polygon fill="white" stroke="black" points="461.5,-266.5 461.5,-285.5 537.5,-285.5 537.5,-266.5 461.5,-266.5"/>
<text text-anchor="middle" x="499.5" y="-273.5" font-family="Helvetica,sans-Serif" font-size="10.00">tlz::string_arg</text>
</a>
</g>
</g>
<!-- Node5&#45;&gt;Node6 -->
<g id="edge5" class="edge"><title>Node5&#45;&gt;Node6</title>
<path fill="none" stroke="midnightblue" d="M381.118,-304.411C402.466,-299.244 428.947,-292.835 451.351,-287.412"/>
<polygon fill="midnightblue" stroke="midnightblue" points="452.428,-290.752 461.324,-284.998 450.782,-283.949 452.428,-290.752"/>
</g>
<!-- Node7 -->
<g id="node7" class="node"><title>Node7</title>
<g id="a_node7"><a xlink:href="namespacetlz.html#a780431daab8d2595372eacb43143b52d" target="_top" xlink:title="tlz::args">
<polygon fill="white" stroke="black" points="614.5,-304.5 614.5,-323.5 666.5,-323.5 666.5,-304.5 614.5,-304.5"/>
<text text-anchor="middle" x="640.5" y="-311.5" font-family="Helvetica,sans-Serif" font-size="10.00">tlz::args</text>
</a>
</g>
</g>
<!-- Node5&#45;&gt;Node7 -->
<g id="edge11" class="edge"><title>Node5&#45;&gt;Node7</title>
<path fill="none" stroke="midnightblue" d="M386.025,-323.512C405.82,-327.277 429.47,-331.146 451,-333 493.952,-336.699 505.115,-337.406 548,-333 566.845,-331.064 587.535,-326.941 604.466,-323.029"/>
<polygon fill="midnightblue" stroke="midnightblue" points="605.557,-326.367 614.472,-320.642 603.933,-319.558 605.557,-326.367"/>
</g>
<!-- Node9 -->
<g id="node9" class="node"><title>Node9</title>
<g id="a_node9"><a xlink:href="classtlz_1_1args__list.html#a38ad21acd64a4af98ffdf4a47837cdbe" target="_top" xlink:title="tlz::args_list::usage_fail">
<polygon fill="white" stroke="black" points="733,-285.5 733,-304.5 853,-304.5 853,-285.5 733,-285.5"/>
<text text-anchor="middle" x="793" y="-292.5" font-family="Helvetica,sans-Serif" font-size="10.00">tlz::args_list::usage_fail</text>
</a>
</g>
</g>
<!-- Node5&#45;&gt;Node9 -->
<g id="edge12" class="edge"><title>Node5&#45;&gt;Node9</title>
<path fill="none" stroke="midnightblue" d="M383.45,-323.568C393.86,-326.291 404.92,-329.484 415,-333 431.532,-338.766 433.872,-345.365 451,-349 558.178,-371.745 590.674,-359.442 697,-333 719.941,-327.295 744.704,-317.252 763.194,-308.923"/>
<polygon fill="midnightblue" stroke="midnightblue" points="764.89,-311.996 772.509,-304.634 761.962,-305.638 764.89,-311.996"/>
</g>
<!-- Node11 -->
<g id="node11" class="node"><title>Node11</title>
<g id="a_node11"><a xlink:href="namespacetlz.html#abb019466ea9f56c0dab27e893d891837" target="_top" xlink:title="tlz::file_exists">
<polygon fill="white" stroke="black" points="461,-304.5 461,-323.5 538,-323.5 538,-304.5 461,-304.5"/>
<text text-anchor="middle" x="499.5" y="-311.5" font-family="Helvetica,sans-Serif" font-size="10.00">tlz::file_exists</text>
</a>
</g>
</g>
<!-- Node5&#45;&gt;Node11 -->
<g id="edge10" class="edge"><title>Node5&#45;&gt;Node11</title>
<path fill="none" stroke="midnightblue" d="M391.176,-314C410.126,-314 431.678,-314 450.472,-314"/>
<polygon fill="midnightblue" stroke="midnightblue" points="450.595,-317.5 460.595,-314 450.595,-310.5 450.595,-317.5"/>
</g>
<!-- Node6&#45;&gt;Node7 -->
<g id="edge6" class="edge"><title>Node6&#45;&gt;Node7</title>
<path fill="none" stroke="midnightblue" d="M535.576,-285.589C556.587,-291.333 583.213,-298.612 604.255,-304.365"/>
<polygon fill="midnightblue" stroke="midnightblue" points="603.517,-307.791 614.086,-307.052 605.363,-301.039 603.517,-307.791"/>
</g>
<!-- Node8 -->
<g id="node8" class="node"><title>Node8</title>
<g id="a_node8"><a xlink:href="classtlz_1_1args__list.html#a73d99bc75998dc14607a3a372d28dc6d" target="_top" xlink:title="tlz::args_list::next_arg">
<polygon fill="white" stroke="black" points="584,-266.5 584,-285.5 697,-285.5 697,-266.5 584,-266.5"/>
<text text-anchor="middle" x="640.5" y="-273.5" font-family="Helvetica,sans-Serif" font-size="10.00">tlz::args_list::next_arg</text>
</a>
</g>
</g>
<!-- Node6&#45;&gt;Node8 -->
<g id="edge7" class="edge"><title>Node6&#45;&gt;Node8</title>
<path fill="none" stroke="midnightblue" d="M537.749,-276C548.807,-276 561.264,-276 573.571,-276"/>
<polygon fill="midnightblue" stroke="midnightblue" points="573.839,-279.5 583.839,-276 573.839,-272.5 573.839,-279.5"/>
</g>
<!-- Node8&#45;&gt;Node9 -->
<g id="edge8" class="edge"><title>Node8&#45;&gt;Node9</title>
<path fill="none" stroke="midnightblue" d="M697.113,-283.021C705.479,-284.077 714.192,-285.177 722.8,-286.264"/>
<polygon fill="midnightblue" stroke="midnightblue" points="722.468,-289.75 732.828,-287.53 723.345,-282.805 722.468,-289.75"/>
</g>
<!-- Node10 -->
<g id="node10" class="node"><title>Node10</title>
<g id="a_node10"><a xlink:href="namespacetlz.html#a8e4f8c8c2927bc4350de13bfa0f8f9e1" target="_top" xlink:title="tlz::to_string">
<polygon fill="white" stroke="black" points="757.5,-247.5 757.5,-266.5 828.5,-266.5 828.5,-247.5 757.5,-247.5"/>
<text text-anchor="middle" x="793" y="-254.5" font-family="Helvetica,sans-Serif" font-size="10.00">tlz::to_string</text>
</a>
</g>
</g>
<!-- Node8&#45;&gt;Node10 -->
<g id="edge9" class="edge"><title>Node8&#45;&gt;Node10</title>
<path fill="none" stroke="midnightblue" d="M697.113,-268.979C713.598,-266.898 731.435,-264.646 747.147,-262.662"/>
<polygon fill="midnightblue" stroke="midnightblue" points="747.647,-266.127 757.13,-261.402 746.77,-259.182 747.647,-266.127"/>
</g>
<!-- Node12&#45;&gt;Node7 -->
<g id="edge14" class="edge"><title>Node12&#45;&gt;Node7</title>
<path fill="none" stroke="midnightblue" d="M530.143,-247.557C536.299,-250.163 542.562,-253.308 548,-257 567.247,-270.068 564.428,-282.424 584,-295 590.303,-299.05 597.566,-302.341 604.718,-304.975"/>
<polygon fill="midnightblue" stroke="midnightblue" points="603.706,-308.327 614.299,-308.17 605.92,-301.687 603.706,-308.327"/>
</g>
<!-- Node12&#45;&gt;Node8 -->
<g id="edge15" class="edge"><title>Node12&#45;&gt;Node8</title>
<path fill="none" stroke="midnightblue" d="M530.661,-246.245C549.41,-251.371 573.854,-258.054 594.825,-263.787"/>
<polygon fill="midnightblue" stroke="midnightblue" points="593.923,-267.168 604.492,-266.429 595.769,-260.416 593.923,-267.168"/>
</g>
<!-- Node12&#45;&gt;Node9 -->
<g id="edge16" class="edge"><title>Node12&#45;&gt;Node9</title>
<path fill="none" stroke="midnightblue" d="M530.821,-237.332C570.027,-237.276 640.035,-239.939 697,-257 714.331,-262.191 716.327,-268.978 733,-276 738.145,-278.167 743.627,-280.235 749.099,-282.157"/>
<polygon fill="midnightblue" stroke="midnightblue" points="748.268,-285.57 758.862,-285.446 750.503,-278.936 748.268,-285.57"/>
</g>
<!-- Node13&#45;&gt;Node6 -->
<g id="edge18" class="edge"><title>Node13&#45;&gt;Node6</title>
<path fill="none" stroke="midnightblue" d="M394.215,-276C412.534,-276 432.961,-276 450.847,-276"/>
<polygon fill="midnightblue" stroke="midnightblue" points="451.049,-279.5 461.049,-276 451.049,-272.5 451.049,-279.5"/>
</g>
<!-- Node15 -->
<g id="node15" class="node"><title>Node15</title>
<g id="a_node15"><a xlink:href="namespacetlz.html#a252af14b9b4ac6502d3e9c5dd8dc90b8" target="_top" xlink:title="tlz::has">
<polygon fill="white" stroke="black" points="616,-162.5 616,-181.5 665,-181.5 665,-162.5 616,-162.5"/>
<text text-anchor="middle" x="640.5" y="-169.5" font-family="Helvetica,sans-Serif" font-size="10.00">tlz::has</text>
</a>
</g>
</g>
<!-- Node14&#45;&gt;Node15 -->
<g id="edge20" class="edge"><title>Node14&#45;&gt;Node15</title>
<path fill="none" stroke="midnightblue" d="M548.336,-186.429C567.196,-183.444 588.42,-180.085 605.642,-177.359"/>
<polygon fill="midnightblue" stroke="midnightblue" points="606.46,-180.773 615.79,-175.753 605.366,-173.859 606.46,-180.773"/>
</g>
<!-- Node17 -->
<g id="node17" class="node"><title>Node17</title>
<g id="a_node17"><a xlink:href="namespacetlz.html#a066563a26e2de02f215b179f3d3a53da" target="_top" xlink:title="tlz::decode_mat">
<polygon fill="white" stroke="black" points="456.5,-102.5 456.5,-121.5 542.5,-121.5 542.5,-102.5 456.5,-102.5"/>
<text text-anchor="middle" x="499.5" y="-109.5" font-family="Helvetica,sans-Serif" font-size="10.00">tlz::decode_mat</text>
</a>
</g>
</g>
<!-- Node16&#45;&gt;Node17 -->
<g id="edge22" class="edge"><title>Node16&#45;&gt;Node17</title>
<path fill="none" stroke="midnightblue" d="M381.382,-152.484C392.343,-149.654 404.186,-146.395 415,-143 431.701,-137.756 449.959,-131.088 465.132,-125.281"/>
<polygon fill="midnightblue" stroke="midnightblue" points="466.547,-128.487 474.61,-121.613 464.02,-121.958 466.547,-128.487"/>
</g>
<!-- Node18 -->
<g id="node18" class="node"><title>Node18</title>
<g id="a_node18"><a xlink:href="namespacetlz.html#add846dc50c32dfb356cb1a7ac11d37ac" target="_top" xlink:title="tlz::get_or">
<polygon fill="white" stroke="black" points="469.5,-140.5 469.5,-159.5 529.5,-159.5 529.5,-140.5 469.5,-140.5"/>
<text text-anchor="middle" x="499.5" y="-147.5" font-family="Helvetica,sans-Serif" font-size="10.00">tlz::get_or</text>
</a>
</g>
</g>
<!-- Node16&#45;&gt;Node18 -->
<g id="edge23" class="edge"><title>Node16&#45;&gt;Node18</title>
<path fill="none" stroke="midnightblue" d="M415.403,-156.351C430.464,-155.2 445.752,-154.032 459.039,-153.016"/>
<polygon fill="midnightblue" stroke="midnightblue" points="459.518,-156.49 469.223,-152.238 458.985,-149.51 459.518,-156.49"/>
</g>
<!-- Node18&#45;&gt;Node15 -->
<g id="edge24" class="edge"><title>Node18&#45;&gt;Node15</title>
<path fill="none" stroke="midnightblue" d="M529.639,-154.612C551.868,-158.13 582.528,-162.983 605.81,-166.668"/>
<polygon fill="midnightblue" stroke="midnightblue" points="605.507,-170.163 615.932,-168.27 606.602,-163.249 605.507,-170.163"/>
</g>
<!-- Node20 -->
<g id="node20" class="node"><title>Node20</title>
<g id="a_node20"><a xlink:href="namespacetlz.html#ab111b1a9325e29c39936e5d7443ade4d" target="_top" xlink:title="tlz::quadrilateral">
<polygon fill="white" stroke="black" points="297.5,-76.5 297.5,-95.5 383.5,-95.5 383.5,-76.5 297.5,-76.5"/>
<text text-anchor="middle" x="340.5" y="-83.5" font-family="Helvetica,sans-Serif" font-size="10.00">tlz::quadrilateral</text>
</a>
</g>
</g>
<!-- Node19&#45;&gt;Node20 -->
<g id="edge26" class="edge"><title>Node19&#45;&gt;Node20</title>
<path fill="none" stroke="midnightblue" d="M203.47,-86C229.373,-86 260.9,-86 287.078,-86"/>
<polygon fill="midnightblue" stroke="midnightblue" points="287.195,-89.5001 297.195,-86 287.195,-82.5001 287.195,-89.5001"/>
</g>
<!-- Node21&#45;&gt;Node16 -->
<g id="edge29" class="edge"><title>Node21&#45;&gt;Node16</title>
<path fill="none" stroke="midnightblue" d="M200.062,-133.589C225.227,-138.716 256.396,-145.067 282.879,-150.463"/>
<polygon fill="midnightblue" stroke="midnightblue" points="282.279,-153.913 292.777,-152.48 283.677,-147.054 282.279,-153.913"/>
</g>
<!-- Node22 -->
<g id="node22" class="node"><title>Node22</title>
<g id="a_node22"><a xlink:href="namespacetlz.html#a74e8454f97dace7cffb1afdb6d3ca87b" target="_top" xlink:title="tlz::decode_view_index">
<polygon fill="white" stroke="black" points="281,-114.5 281,-133.5 400,-133.5 400,-114.5 281,-114.5"/>
<text text-anchor="middle" x="340.5" y="-121.5" font-family="Helvetica,sans-Serif" font-size="10.00">tlz::decode_view_index</text>
</a>
</g>
</g>
<!-- Node21&#45;&gt;Node22 -->
<g id="edge28" class="edge"><title>Node21&#45;&gt;Node22</title>
<path fill="none" stroke="midnightblue" d="M230.203,-124C243.566,-124 257.382,-124 270.51,-124"/>
<polygon fill="midnightblue" stroke="midnightblue" points="270.868,-127.5 280.868,-124 270.868,-120.5 270.868,-127.5"/>
</g>
<!-- Node24 -->
<g id="node24" class="node"><title>Node24</title>
<g id="a_node24"><a xlink:href="namespacetlz.html#ae11c827ac9e581f9d2f98c39aab3750d" target="_top" xlink:title="tlz::file_name_extension">
<polygon fill="white" stroke="black" points="279.5,-38.5 279.5,-57.5 401.5,-57.5 401.5,-38.5 279.5,-38.5"/>
<text text-anchor="middle" x="340.5" y="-45.5" font-family="Helvetica,sans-Serif" font-size="10.00">tlz::file_name_extension</text>
</a>
</g>
</g>
<!-- Node23&#45;&gt;Node24 -->
<g id="edge31" class="edge"><title>Node23&#45;&gt;Node24</title>
<path fill="none" stroke="midnightblue" d="M202.979,-48C223.376,-48 247.323,-48 269.418,-48"/>
<polygon fill="midnightblue" stroke="midnightblue" points="269.419,-51.5001 279.419,-48 269.419,-44.5001 269.419,-51.5001"/>
</g>
</g>
</svg>
