<?xml version="1.0" encoding="UTF-8" standalone="no"?>
<!DOCTYPE svg PUBLIC "-//W3C//DTD SVG 1.1//EN"
 "http://www.w3.org/Graphics/SVG/1.1/DTD/svg11.dtd">
<!-- Generated by graphviz version 2.38.0 (20140413.2041)
 -->
<!-- Title: main Pages: 1 -->
<svg width="764pt" height="249pt"
 viewBox="0.00 0.00 764.00 248.50" xmlns="http://www.w3.org/2000/svg" xmlns:xlink="http://www.w3.org/1999/xlink">
<g id="graph0" class="graph" transform="scale(1 1) rotate(0) translate(4 244.5)">
<title>main</title>
<polygon fill="white" stroke="none" points="-4,4 -4,-244.5 760,-244.5 760,4 -4,4"/>
<!-- Node1 -->
<g id="node1" class="node"><title>Node1</title>
<polygon fill="#bfbfbf" stroke="black" points="0,-126 0,-145 38,-145 38,-126 0,-126"/>
<text text-anchor="middle" x="19" y="-133" font-family="Helvetica,sans-Serif" font-size="10.00">main</text>
</g>
<!-- Node2 -->
<g id="node2" class="node"><title>Node2</title>
<g id="a_node2"><a xlink:href="namespacetlz.html#a3c03f5d9d6261ec2909938822fc47f8a" target="_top" xlink:title="tlz::get_args">
<polygon fill="white" stroke="black" points="99,-221 99,-240 170,-240 170,-221 99,-221"/>
<text text-anchor="middle" x="134.5" y="-228" font-family="Helvetica,sans-Serif" font-size="10.00">tlz::get_args</text>
</a>
</g>
</g>
<!-- Node1&#45;&gt;Node2 -->
<g id="edge1" class="edge"><title>Node1&#45;&gt;Node2</title>
<path fill="none" stroke="midnightblue" d="M25.0367,-145.087C33.3628,-160.096 51.3498,-189.21 74,-206.5 79.2293,-210.492 85.2127,-213.919 91.324,-216.83"/>
<polygon fill="midnightblue" stroke="midnightblue" points="90.3746,-220.232 100.943,-220.986 93.1512,-213.807 90.3746,-220.232"/>
</g>
<!-- Node3 -->
<g id="node3" class="node"><title>Node3</title>
<g id="a_node3"><a xlink:href="namespacetlz.html#a634de7ca11e100e4a118dffe80376a75" target="_top" xlink:title="tlz::in_filename_arg">
<polygon fill="white" stroke="black" points="234,-202 234,-221 335,-221 335,-202 234,-202"/>
<text text-anchor="middle" x="284.5" y="-209" font-family="Helvetica,sans-Serif" font-size="10.00">tlz::in_filename_arg</text>
</a>
</g>
</g>
<!-- Node1&#45;&gt;Node3 -->
<g id="edge2" class="edge"><title>Node1&#45;&gt;Node3</title>
<path fill="none" stroke="midnightblue" d="M34.564,-145.125C45.1233,-151.714 59.9566,-160.188 74,-165.5 122.851,-183.978 181.058,-196.016 223.706,-203.125"/>
<polygon fill="midnightblue" stroke="midnightblue" points="223.219,-206.591 233.651,-204.74 224.341,-199.682 223.219,-206.591"/>
</g>
<!-- Node10 -->
<g id="node10" class="node"><title>Node10</title>
<g id="a_node10"><a xlink:href="namespacetlz.html#a65770a2c1ff57c5ae6542d4465a3d3f4" target="_top" xlink:title="tlz::out_filename_arg">
<polygon fill="white" stroke="black" points="231,-164 231,-183 338,-183 338,-164 231,-164"/>
<text text-anchor="middle" x="284.5" y="-171" font-family="Helvetica,sans-Serif" font-size="10.00">tlz::out_filename_arg</text>
</a>
</g>
</g>
<!-- Node1&#45;&gt;Node10 -->
<g id="edge11" class="edge"><title>Node1&#45;&gt;Node10</title>
<path fill="none" stroke="midnightblue" d="M38.1114,-138.112C75.1528,-143.454 161.1,-155.848 220.753,-164.451"/>
<polygon fill="midnightblue" stroke="midnightblue" points="220.43,-167.941 230.827,-165.904 221.429,-161.012 220.43,-167.941"/>
</g>
<!-- Node11 -->
<g id="node11" class="node"><title>Node11</title>
<g id="a_node11"><a xlink:href="namespacetlz.html#a5186c46291b525427b48828632f7adec" target="_top" xlink:title="tlz::bool_opt_arg">
<polygon fill="white" stroke="black" points="90,-107 90,-126 179,-126 179,-107 90,-107"/>
<text text-anchor="middle" x="134.5" y="-114" font-family="Helvetica,sans-Serif" font-size="10.00">tlz::bool_opt_arg</text>
</a>
</g>
</g>
<!-- Node1&#45;&gt;Node11 -->
<g id="edge13" class="edge"><title>Node1&#45;&gt;Node11</title>
<path fill="none" stroke="midnightblue" d="M38.2357,-132.447C49.5387,-130.555 64.7011,-128.017 79.6008,-125.523"/>
<polygon fill="midnightblue" stroke="midnightblue" points="80.5385,-128.915 89.8234,-123.812 79.3827,-122.011 80.5385,-128.915"/>
</g>
<!-- Node15 -->
<g id="node15" class="node"><title>Node15</title>
<g id="a_node15"><a xlink:href="namespacetlz.html#a79d6cd7de20e9ff041c3ea29b9458d88" target="_top" xlink:title="tlz::read_camera_mpeg">
<polygon fill="white" stroke="black" points="75,-69 75,-88 194,-88 194,-69 75,-69"/>
<text text-anchor="middle" x="134.5" y="-76" font-family="Helvetica,sans-Serif" font-size="10.00">tlz::read_camera_mpeg</text>
</a>
</g>
</g>
<!-- Node1&#45;&gt;Node15 -->
<g id="edge21" class="edge"><title>Node1&#45;&gt;Node15</title>
<path fill="none" stroke="midnightblue" d="M31.357,-125.951C41.8602,-117.511 58.1902,-105.356 74,-97.5 78.3821,-95.3226 83.0681,-93.3225 87.8146,-91.5048"/>
<polygon fill="midnightblue" stroke="midnightblue" points="89.319,-94.6844 97.5647,-88.0316 86.97,-88.0903 89.319,-94.6844"/>
</g>
<!-- Node16 -->
<g id="node16" class="node"><title>Node16</title>
<g id="a_node16"><a xlink:href="namespacetlz.html#a445f7e177edcda36ece43a5fcd78615f" target="_top" xlink:title="tlz::export_cameras_file">
<polygon fill="white" stroke="black" points="74,-31 74,-50 195,-50 195,-31 74,-31"/>
<text text-anchor="middle" x="134.5" y="-38" font-family="Helvetica,sans-Serif" font-size="10.00">tlz::export_cameras_file</text>
</a>
</g>
</g>
<!-- Node1&#45;&gt;Node16 -->
<g id="edge22" class="edge"><title>Node1&#45;&gt;Node16</title>
<path fill="none" stroke="midnightblue" d="M24.3281,-125.805C32.0128,-109.679 49.5619,-77.3581 74,-59.5 76.6266,-57.5806 79.4546,-55.8502 82.4009,-54.2908"/>
<polygon fill="midnightblue" stroke="midnightblue" points="83.8839,-57.4612 91.5111,-50.1076 80.9628,-51.0998 83.8839,-57.4612"/>
</g>
<!-- Node4 -->
<g id="node4" class="node"><title>Node4</title>
<g id="a_node4"><a xlink:href="namespacetlz.html#a0621d598fb83b13bf028f3e6293d04f8" target="_top" xlink:title="tlz::string_arg">
<polygon fill="white" stroke="black" points="374.5,-126 374.5,-145 450.5,-145 450.5,-126 374.5,-126"/>
<text text-anchor="middle" x="412.5" y="-133" font-family="Helvetica,sans-Serif" font-size="10.00">tlz::string_arg</text>
</a>
</g>
</g>
<!-- Node3&#45;&gt;Node4 -->
<g id="edge3" class="edge"><title>Node3&#45;&gt;Node4</title>
<path fill="none" stroke="midnightblue" d="M318.073,-201.98C324.89,-199.371 331.865,-196.216 338,-192.5 356.565,-181.255 356.795,-172.733 374,-159.5 377.929,-156.478 382.242,-153.464 386.501,-150.644"/>
<polygon fill="midnightblue" stroke="midnightblue" points="388.491,-153.526 395.026,-145.187 384.717,-147.631 388.491,-153.526"/>
</g>
<!-- Node5 -->
<g id="node5" class="node"><title>Node5</title>
<g id="a_node5"><a xlink:href="namespacetlz.html#a780431daab8d2595372eacb43143b52d" target="_top" xlink:title="tlz::args">
<polygon fill="white" stroke="black" points="517.5,-126 517.5,-145 569.5,-145 569.5,-126 517.5,-126"/>
<text text-anchor="middle" x="543.5" y="-133" font-family="Helvetica,sans-Serif" font-size="10.00">tlz::args</text>
</a>
</g>
</g>
<!-- Node3&#45;&gt;Node5 -->
<g id="edge9" class="edge"><title>Node3&#45;&gt;Node5</title>
<path fill="none" stroke="midnightblue" d="M317.789,-201.952C366.347,-187.592 457.793,-160.549 507.754,-145.775"/>
<polygon fill="midnightblue" stroke="midnightblue" points="508.865,-149.096 517.462,-142.904 506.88,-142.384 508.865,-149.096"/>
</g>
<!-- Node7 -->
<g id="node7" class="node"><title>Node7</title>
<g id="a_node7"><a xlink:href="classtlz_1_1args__list.html#a38ad21acd64a4af98ffdf4a47837cdbe" target="_top" xlink:title="tlz::args_list::usage_fail">
<polygon fill="white" stroke="black" points="636,-183 636,-202 756,-202 756,-183 636,-183"/>
<text text-anchor="middle" x="696" y="-190" font-family="Helvetica,sans-Serif" font-size="10.00">tlz::args_list::usage_fail</text>
</a>
</g>
</g>
<!-- Node3&#45;&gt;Node7 -->
<g id="edge10" class="edge"><title>Node3&#45;&gt;Node7</title>
<path fill="none" stroke="midnightblue" d="M321.39,-221.009C337.371,-224.773 356.498,-228.642 374,-230.5 472.059,-240.908 586.74,-219.124 649.024,-204.438"/>
<polygon fill="midnightblue" stroke="midnightblue" points="650.022,-207.798 658.927,-202.058 648.386,-200.992 650.022,-207.798"/>
</g>
<!-- Node9 -->
<g id="node9" class="node"><title>Node9</title>
<g id="a_node9"><a xlink:href="namespacetlz.html#abb019466ea9f56c0dab27e893d891837" target="_top" xlink:title="tlz::file_exists">
<polygon fill="white" stroke="black" points="374,-202 374,-221 451,-221 451,-202 374,-202"/>
<text text-anchor="middle" x="412.5" y="-209" font-family="Helvetica,sans-Serif" font-size="10.00">tlz::file_exists</text>
</a>
</g>
</g>
<!-- Node3&#45;&gt;Node9 -->
<g id="edge8" class="edge"><title>Node3&#45;&gt;Node9</title>
<path fill="none" stroke="midnightblue" d="M335.299,-211.5C344.595,-211.5 354.292,-211.5 363.531,-211.5"/>
<polygon fill="midnightblue" stroke="midnightblue" points="363.723,-215 373.723,-211.5 363.722,-208 363.723,-215"/>
</g>
<!-- Node4&#45;&gt;Node5 -->
<g id="edge4" class="edge"><title>Node4&#45;&gt;Node5</title>
<path fill="none" stroke="midnightblue" d="M450.812,-135.5C468.436,-135.5 489.375,-135.5 506.79,-135.5"/>
<polygon fill="midnightblue" stroke="midnightblue" points="507.117,-139 517.117,-135.5 507.117,-132 507.117,-139"/>
</g>
<!-- Node6 -->
<g id="node6" class="node"><title>Node6</title>
<g id="a_node6"><a xlink:href="classtlz_1_1args__list.html#a73d99bc75998dc14607a3a372d28dc6d" target="_top" xlink:title="tlz::args_list::next_arg">
<polygon fill="white" stroke="black" points="487,-88 487,-107 600,-107 600,-88 487,-88"/>
<text text-anchor="middle" x="543.5" y="-95" font-family="Helvetica,sans-Serif" font-size="10.00">tlz::args_list::next_arg</text>
</a>
</g>
</g>
<!-- Node4&#45;&gt;Node6 -->
<g id="edge5" class="edge"><title>Node4&#45;&gt;Node6</title>
<path fill="none" stroke="midnightblue" d="M446.052,-125.911C462.399,-121.096 482.409,-115.201 499.957,-110.032"/>
<polygon fill="midnightblue" stroke="midnightblue" points="501.355,-113.269 509.958,-107.086 499.377,-106.554 501.355,-113.269"/>
</g>
<!-- Node6&#45;&gt;Node7 -->
<g id="edge6" class="edge"><title>Node6&#45;&gt;Node7</title>
<path fill="none" stroke="midnightblue" d="M578.46,-107.048C585.769,-109.669 593.305,-112.823 600,-116.5 629.86,-132.902 659.806,-158.806 677.876,-175.727"/>
<polygon fill="midnightblue" stroke="midnightblue" points="675.646,-178.437 685.299,-182.803 680.475,-173.37 675.646,-178.437"/>
</g>
<!-- Node8 -->
<g id="node8" class="node"><title>Node8</title>
<g id="a_node8"><a xlink:href="namespacetlz.html#a8e4f8c8c2927bc4350de13bfa0f8f9e1" target="_top" xlink:title="tlz::to_string">
<polygon fill="white" stroke="black" points="660.5,-88 660.5,-107 731.5,-107 731.5,-88 660.5,-88"/>
<text text-anchor="middle" x="696" y="-95" font-family="Helvetica,sans-Serif" font-size="10.00">tlz::to_string</text>
</a>
</g>
</g>
<!-- Node6&#45;&gt;Node8 -->
<g id="edge7" class="edge"><title>Node6&#45;&gt;Node8</title>
<path fill="none" stroke="midnightblue" d="M600.113,-97.5C616.441,-97.5 634.096,-97.5 649.698,-97.5"/>
<polygon fill="midnightblue" stroke="midnightblue" points="650.13,-101 660.13,-97.5 650.129,-94.0001 650.13,-101"/>
</g>
<!-- Node10&#45;&gt;Node4 -->
<g id="edge12" class="edge"><title>Node10&#45;&gt;Node4</title>
<path fill="none" stroke="midnightblue" d="M317.295,-163.911C333.262,-159.096 352.807,-153.201 369.947,-148.032"/>
<polygon fill="midnightblue" stroke="midnightblue" points="371.152,-151.324 379.715,-145.086 369.13,-144.622 371.152,-151.324"/>
</g>
<!-- Node11&#45;&gt;Node5 -->
<g id="edge14" class="edge"><title>Node11&#45;&gt;Node5</title>
<path fill="none" stroke="midnightblue" d="M179.022,-113.697C240.011,-110.407 354.285,-106.564 451,-116.5 469.845,-118.436 490.535,-122.559 507.466,-126.471"/>
<polygon fill="midnightblue" stroke="midnightblue" points="506.933,-129.942 517.472,-128.858 508.557,-123.133 506.933,-129.942"/>
</g>
<!-- Node12 -->
<g id="node12" class="node"><title>Node12</title>
<g id="a_node12"><a xlink:href="classtlz_1_1args__list.html#a4aee93f4b0d9b5b4e7a5d13cb637337c" target="_top" xlink:title="tlz::args_list::has\l_next_arg">
<polygon fill="white" stroke="black" points="238.5,-0.5 238.5,-30.5 330.5,-30.5 330.5,-0.5 238.5,-0.5"/>
<text text-anchor="start" x="246.5" y="-18.5" font-family="Helvetica,sans-Serif" font-size="10.00">tlz::args_list::has</text>
<text text-anchor="middle" x="284.5" y="-7.5" font-family="Helvetica,sans-Serif" font-size="10.00">_next_arg</text>
</a>
</g>
</g>
<!-- Node11&#45;&gt;Node12 -->
<g id="edge15" class="edge"><title>Node11&#45;&gt;Node12</title>
<path fill="none" stroke="midnightblue" d="M177.53,-106.949C183.724,-104.471 189.77,-101.371 195,-97.5 217.594,-80.7772 210.284,-64.4992 231,-45.5 234.629,-42.1718 238.691,-39.056 242.905,-36.1866"/>
<polygon fill="midnightblue" stroke="midnightblue" points="245.087,-38.9483 251.678,-30.6536 241.353,-33.0273 245.087,-38.9483"/>
</g>
<!-- Node13 -->
<g id="node13" class="node"><title>Node13</title>
<g id="a_node13"><a xlink:href="namespacetlz.html#ac18630fe66cc71c8cc5eb6acce057f5f" target="_top" xlink:title="tlz::bool_arg">
<polygon fill="white" stroke="black" points="377.5,-50 377.5,-69 447.5,-69 447.5,-50 377.5,-50"/>
<text text-anchor="middle" x="412.5" y="-57" font-family="Helvetica,sans-Serif" font-size="10.00">tlz::bool_arg</text>
</a>
</g>
</g>
<!-- Node11&#45;&gt;Node13 -->
<g id="edge16" class="edge"><title>Node11&#45;&gt;Node13</title>
<path fill="none" stroke="midnightblue" d="M166.503,-106.999C175.714,-104.069 185.799,-100.755 195,-97.5 211.185,-91.7751 214.373,-87.7729 231,-83.5 276.562,-71.7912 330.146,-65.5853 367.029,-62.4411"/>
<polygon fill="midnightblue" stroke="midnightblue" points="367.756,-65.8938 377.44,-61.5971 367.19,-58.9166 367.756,-65.8938"/>
</g>
<!-- Node14 -->
<g id="node14" class="node"><title>Node14</title>
<g id="a_node14"><a xlink:href="namespacetlz.html#abea9308e4287a82deb9e44e7cc9782a0" target="_top" xlink:title="tlz::view_index_arg">
<polygon fill="white" stroke="black" points="234,-126 234,-145 335,-145 335,-126 234,-126"/>
<text text-anchor="middle" x="284.5" y="-133" font-family="Helvetica,sans-Serif" font-size="10.00">tlz::view_index_arg</text>
</a>
</g>
</g>
<!-- Node11&#45;&gt;Node14 -->
<g id="edge19" class="edge"><title>Node11&#45;&gt;Node14</title>
<path fill="none" stroke="midnightblue" d="M179.104,-122.098C193.099,-123.894 208.848,-125.916 223.79,-127.835"/>
<polygon fill="midnightblue" stroke="midnightblue" points="223.609,-131.34 233.974,-129.142 224.501,-124.397 223.609,-131.34"/>
</g>
<!-- Node13&#45;&gt;Node5 -->
<g id="edge17" class="edge"><title>Node13&#45;&gt;Node5</title>
<path fill="none" stroke="midnightblue" d="M429.974,-69.1865C436.675,-73.3439 444.383,-78.4106 451,-83.5 468.205,-96.7327 468.338,-105.417 487,-116.5 493.381,-120.29 500.627,-123.461 507.728,-126.06"/>
<polygon fill="midnightblue" stroke="midnightblue" points="506.632,-129.384 517.226,-129.252 508.863,-122.749 506.632,-129.384"/>
</g>
<!-- Node13&#45;&gt;Node6 -->
<g id="edge18" class="edge"><title>Node13&#45;&gt;Node6</title>
<path fill="none" stroke="midnightblue" d="M446.052,-69.089C462.399,-73.9044 482.409,-79.7988 499.957,-84.968"/>
<polygon fill="midnightblue" stroke="midnightblue" points="499.377,-88.4457 509.958,-87.9141 501.355,-81.7309 499.377,-88.4457"/>
</g>
<!-- Node14&#45;&gt;Node4 -->
<g id="edge20" class="edge"><title>Node14&#45;&gt;Node4</title>
<path fill="none" stroke="midnightblue" d="M335.299,-135.5C344.897,-135.5 354.923,-135.5 364.43,-135.5"/>
<polygon fill="midnightblue" stroke="midnightblue" points="364.499,-139 374.499,-135.5 364.499,-132 364.499,-139"/>
</g>
</g>
</svg>
