<?xml version="1.0" encoding="UTF-8" standalone="no"?>
<!DOCTYPE svg PUBLIC "-//W3C//DTD SVG 1.1//EN"
 "http://www.w3.org/Graphics/SVG/1.1/DTD/svg11.dtd">
<!-- Generated by graphviz version 2.38.0 (20140413.2041)
 -->
<!-- Title: Graphical Class Hierarchy Pages: 1 -->
<svg width="284pt" height="116pt"
 viewBox="0.00 0.00 284.00 115.50" xmlns="http://www.w3.org/2000/svg" xmlns:xlink="http://www.w3.org/1999/xlink">
<g id="graph0" class="graph" transform="scale(1 1) rotate(0) translate(4 111.5)">
<title>Graphical Class Hierarchy</title>
<polygon fill="white" stroke="none" points="-4,4 -4,-111.5 280,-111.5 280,4 -4,4"/>
<!-- Node1 -->
<g id="node1" class="node"><title>Node1</title>
<g id="a_node1"><a xlink:href="classtlz_1_1depth__densify__base.html" target="_top" xlink:title="tlz::depth_densify_base">
<polygon fill="white" stroke="black" points="0,-50 0,-69 120,-69 120,-50 0,-50"/>
<text text-anchor="middle" x="60" y="-57" font-family="Helvetica,sans-Serif" font-size="10.00">tlz::depth_densify_base</text>
</a>
</g>
</g>
<!-- Node2 -->
<g id="node2" class="node"><title>Node2</title>
<g id="a_node2"><a xlink:href="classtlz_1_1depth__densify__fast.html" target="_top" xlink:title="tlz::depth_densify_fast">
<polygon fill="white" stroke="black" points="158,-88 158,-107 274,-107 274,-88 158,-88"/>
<text text-anchor="middle" x="216" y="-95" font-family="Helvetica,sans-Serif" font-size="10.00">tlz::depth_densify_fast</text>
</a>
</g>
</g>
<!-- Node1&#45;&gt;Node2 -->
<g id="edge1" class="edge"><title>Node1&#45;&gt;Node2</title>
<path fill="none" stroke="midnightblue" d="M109.794,-71.54C131.308,-76.8488 156.232,-82.9988 176.419,-87.9799"/>
<polygon fill="midnightblue" stroke="midnightblue" points="110.408,-68.0867 99.8607,-69.089 108.731,-74.8828 110.408,-68.0867"/>
</g>
<!-- Node3 -->
<g id="node3" class="node"><title>Node3</title>
<g id="a_node3"><a xlink:href="classtlz_1_1depth__densify__mine.html" target="_top" xlink:title="tlz::depth_densify_mine">
<polygon fill="white" stroke="black" points="156,-50 156,-69 276,-69 276,-50 156,-50"/>
<text text-anchor="middle" x="216" y="-57" font-family="Helvetica,sans-Serif" font-size="10.00">tlz::depth_densify_mine</text>
</a>
</g>
</g>
<!-- Node1&#45;&gt;Node3 -->
<g id="edge2" class="edge"><title>Node1&#45;&gt;Node3</title>
<path fill="none" stroke="midnightblue" d="M130.369,-59.5C138.862,-59.5 147.48,-59.5 155.804,-59.5"/>
<polygon fill="midnightblue" stroke="midnightblue" points="130.1,-56.0001 120.1,-59.5 130.1,-63.0001 130.1,-56.0001"/>
</g>
<!-- Node4 -->
<g id="node4" class="node"><title>Node4</title>
<g id="a_node4"><a xlink:href="classtlz_1_1depth__densify__splat.html" target="_top" xlink:title="tlz::depth_densify\l_splat">
<polygon fill="white" stroke="black" points="169,-0.5 169,-30.5 263,-30.5 263,-0.5 169,-0.5"/>
<text text-anchor="start" x="177" y="-18.5" font-family="Helvetica,sans-Serif" font-size="10.00">tlz::depth_densify</text>
<text text-anchor="middle" x="216" y="-7.5" font-family="Helvetica,sans-Serif" font-size="10.00">_splat</text>
</a>
</g>
</g>
<!-- Node1&#45;&gt;Node4 -->
<g id="edge3" class="edge"><title>Node1&#45;&gt;Node4</title>
<path fill="none" stroke="midnightblue" d="M104.25,-47.1428C124.37,-41.3942 148.324,-34.5504 168.798,-28.7005"/>
<polygon fill="midnightblue" stroke="midnightblue" points="103.069,-43.84 94.4157,-49.9527 104.992,-50.5707 103.069,-43.84"/>
</g>
</g>
</svg>
