<?xml version="1.0" encoding="UTF-8" standalone="no"?>
<!DOCTYPE svg PUBLIC "-//W3C//DTD SVG 1.1//EN"
 "http://www.w3.org/Graphics/SVG/1.1/DTD/svg11.dtd">
<!-- Generated by graphviz version 2.38.0 (20140413.2041)
 -->
<!-- Title: Graphical Class Hierarchy Pages: 1 -->
<svg width="273pt" height="66pt"
 viewBox="0.00 0.00 273.00 66.00" xmlns="http://www.w3.org/2000/svg" xmlns:xlink="http://www.w3.org/1999/xlink">
<g id="graph0" class="graph" transform="scale(1 1) rotate(0) translate(4 62)">
<title>Graphical Class Hierarchy</title>
<polygon fill="white" stroke="none" points="-4,4 -4,-62 269,-62 269,4 -4,4"/>
<!-- Node1 -->
<g id="node1" class="node"><title>Node1</title>
<g id="a_node1"><a xlink:href="classtlz_1_1viewer_1_1slider__base.html" target="_top" xlink:title="tlz::viewer::slider_base">
<polygon fill="white" stroke="black" points="0,-19.5 0,-38.5 117,-38.5 117,-19.5 0,-19.5"/>
<text text-anchor="middle" x="58.5" y="-26.5" font-family="Helvetica,sans-Serif" font-size="10.00">tlz::viewer::slider_base</text>
</a>
</g>
</g>
<!-- Node2 -->
<g id="node2" class="node"><title>Node2</title>
<g id="a_node2"><a xlink:href="classtlz_1_1viewer_1_1int__slider.html" target="_top" xlink:title="tlz::viewer::int_slider">
<polygon fill="white" stroke="black" points="155.5,-38.5 155.5,-57.5 262.5,-57.5 262.5,-38.5 155.5,-38.5"/>
<text text-anchor="middle" x="209" y="-45.5" font-family="Helvetica,sans-Serif" font-size="10.00">tlz::viewer::int_slider</text>
</a>
</g>
</g>
<!-- Node1&#45;&gt;Node2 -->
<g id="edge1" class="edge"><title>Node1&#45;&gt;Node2</title>
<path fill="none" stroke="midnightblue" d="M127.444,-37.6931C136.831,-38.8942 146.354,-40.1126 155.406,-41.2708"/>
<polygon fill="midnightblue" stroke="midnightblue" points="127.703,-34.1978 117.339,-36.4003 126.814,-41.1412 127.703,-34.1978"/>
</g>
<!-- Node3 -->
<g id="node3" class="node"><title>Node3</title>
<g id="a_node3"><a xlink:href="classtlz_1_1viewer_1_1real__slider.html" target="_top" xlink:title="tlz::viewer::real_slider">
<polygon fill="white" stroke="black" points="153,-0.5 153,-19.5 265,-19.5 265,-0.5 153,-0.5"/>
<text text-anchor="middle" x="209" y="-7.5" font-family="Helvetica,sans-Serif" font-size="10.00">tlz::viewer::real_slider</text>
</a>
</g>
</g>
<!-- Node1&#45;&gt;Node3 -->
<g id="edge2" class="edge"><title>Node1&#45;&gt;Node3</title>
<path fill="none" stroke="midnightblue" d="M127.343,-20.3198C135.933,-19.2207 144.638,-18.1069 152.994,-17.0378"/>
<polygon fill="midnightblue" stroke="midnightblue" points="126.814,-16.8588 117.339,-21.5997 127.703,-23.8022 126.814,-16.8588"/>
</g>
</g>
</svg>
