<?xml version="1.0" encoding="UTF-8" standalone="no"?>
<!DOCTYPE svg PUBLIC "-//W3C//DTD SVG 1.1//EN"
 "http://www.w3.org/Graphics/SVG/1.1/DTD/svg11.dtd">
<!-- Generated by graphviz version 2.38.0 (20140413.2041)
 -->
<!-- Title: Graphical Class Hierarchy Pages: 1 -->
<svg width="229pt" height="66pt"
 viewBox="0.00 0.00 229.00 66.00" xmlns="http://www.w3.org/2000/svg" xmlns:xlink="http://www.w3.org/1999/xlink">
<g id="graph0" class="graph" transform="scale(1 1) rotate(0) translate(4 62)">
<title>Graphical Class Hierarchy</title>
<polygon fill="white" stroke="none" points="-4,4 -4,-62 225,-62 225,4 -4,4"/>
<!-- Node1 -->
<g id="node1" class="node"><title>Node1</title>
<polygon fill="white" stroke="#bfbfbf" points="0,-19.5 0,-38.5 74,-38.5 74,-19.5 0,-19.5"/>
<text text-anchor="middle" x="37" y="-26.5" font-family="Helvetica,sans-Serif" font-size="10.00">runtime_error</text>
</g>
<!-- Node2 -->
<g id="node2" class="node"><title>Node2</title>
<g id="a_node2"><a xlink:href="classtlz_1_1failed__assertion.html" target="_top" xlink:title="tlz::failed_assertion">
<polygon fill="white" stroke="black" points="115,-38.5 115,-57.5 216,-57.5 216,-38.5 115,-38.5"/>
<text text-anchor="middle" x="165.5" y="-45.5" font-family="Helvetica,sans-Serif" font-size="10.00">tlz::failed_assertion</text>
</a>
</g>
</g>
<!-- Node1&#45;&gt;Node2 -->
<g id="edge1" class="edge"><title>Node1&#45;&gt;Node2</title>
<path fill="none" stroke="midnightblue" d="M84.2664,-35.9491C94.1276,-37.4302 104.584,-39.0007 114.575,-40.5014"/>
<polygon fill="midnightblue" stroke="midnightblue" points="84.6588,-32.4689 74.2498,-34.4446 83.619,-39.3912 84.6588,-32.4689"/>
</g>
<!-- Node3 -->
<g id="node3" class="node"><title>Node3</title>
<g id="a_node3"><a xlink:href="classtlz_1_1ply__importer__error.html" target="_top" xlink:title="tlz::ply_importer_error">
<polygon fill="white" stroke="black" points="110,-0.5 110,-19.5 221,-19.5 221,-0.5 110,-0.5"/>
<text text-anchor="middle" x="165.5" y="-7.5" font-family="Helvetica,sans-Serif" font-size="10.00">tlz::ply_importer_error</text>
</a>
</g>
</g>
<!-- Node1&#45;&gt;Node3 -->
<g id="edge2" class="edge"><title>Node1&#45;&gt;Node3</title>
<path fill="none" stroke="midnightblue" d="M84.1723,-22.065C92.5166,-20.8117 101.29,-19.494 109.849,-18.2085"/>
<polygon fill="midnightblue" stroke="midnightblue" points="83.619,-18.6088 74.2498,-23.5554 84.6588,-25.5311 83.619,-18.6088"/>
</g>
</g>
</svg>
