<?xml version="1.0" encoding="UTF-8" standalone="no"?>
<!DOCTYPE svg PUBLIC "-//W3C//DTD SVG 1.1//EN"
 "http://www.w3.org/Graphics/SVG/1.1/DTD/svg11.dtd">
<!-- Generated by graphviz version 2.38.0 (20140413.2041)
 -->
<!-- Title: main Pages: 1 -->
<svg width="654pt" height="268pt"
 viewBox="0.00 0.00 654.00 268.00" xmlns="http://www.w3.org/2000/svg" xmlns:xlink="http://www.w3.org/1999/xlink">
<g id="graph0" class="graph" transform="scale(1 1) rotate(0) translate(4 264)">
<title>main</title>
<polygon fill="white" stroke="none" points="-4,4 -4,-264 650,-264 650,4 -4,4"/>
<!-- Node1 -->
<g id="node1" class="node"><title>Node1</title>
<polygon fill="#bfbfbf" stroke="black" points="0,-120.5 0,-139.5 38,-139.5 38,-120.5 0,-120.5"/>
<text text-anchor="middle" x="19" y="-127.5" font-family="Helvetica,sans-Serif" font-size="10.00">main</text>
</g>
<!-- Node2 -->
<g id="node2" class="node"><title>Node2</title>
<g id="a_node2"><a xlink:href="namespacetlz.html#a3c03f5d9d6261ec2909938822fc47f8a" target="_top" xlink:title="tlz::get_args">
<polygon fill="white" stroke="black" points="93,-240.5 93,-259.5 164,-259.5 164,-240.5 93,-240.5"/>
<text text-anchor="middle" x="128.5" y="-247.5" font-family="Helvetica,sans-Serif" font-size="10.00">tlz::get_args</text>
</a>
</g>
</g>
<!-- Node1&#45;&gt;Node2 -->
<g id="edge1" class="edge"><title>Node1&#45;&gt;Node2</title>
<path fill="none" stroke="midnightblue" d="M22.5513,-139.55C28.3362,-159.414 44.308,-205.452 74,-231 76.8975,-233.493 80.1449,-235.667 83.5697,-237.561"/>
<polygon fill="midnightblue" stroke="midnightblue" points="82.3909,-240.874 92.9311,-241.948 85.3614,-234.535 82.3909,-240.874"/>
</g>
<!-- Node3 -->
<g id="node3" class="node"><title>Node3</title>
<g id="a_node3"><a xlink:href="namespacetlz.html#a634de7ca11e100e4a118dffe80376a75" target="_top" xlink:title="tlz::in_filename_arg">
<polygon fill="white" stroke="black" points="78,-164.5 78,-183.5 179,-183.5 179,-164.5 78,-164.5"/>
<text text-anchor="middle" x="128.5" y="-171.5" font-family="Helvetica,sans-Serif" font-size="10.00">tlz::in_filename_arg</text>
</a>
</g>
</g>
<!-- Node1&#45;&gt;Node3 -->
<g id="edge2" class="edge"><title>Node1&#45;&gt;Node3</title>
<path fill="none" stroke="midnightblue" d="M38.3757,-138.498C48.7658,-143.219 62.0342,-149.11 74,-154 79.5863,-156.283 85.5401,-158.611 91.371,-160.833"/>
<polygon fill="midnightblue" stroke="midnightblue" points="90.3893,-164.203 100.981,-164.447 92.8532,-157.651 90.3893,-164.203"/>
</g>
<!-- Node10 -->
<g id="node10" class="node"><title>Node10</title>
<g id="a_node10"><a xlink:href="namespacetlz.html#a65770a2c1ff57c5ae6542d4465a3d3f4" target="_top" xlink:title="tlz::out_filename_arg">
<polygon fill="white" stroke="black" points="75,-202.5 75,-221.5 182,-221.5 182,-202.5 75,-202.5"/>
<text text-anchor="middle" x="128.5" y="-209.5" font-family="Helvetica,sans-Serif" font-size="10.00">tlz::out_filename_arg</text>
</a>
</g>
</g>
<!-- Node1&#45;&gt;Node10 -->
<g id="edge11" class="edge"><title>Node1&#45;&gt;Node10</title>
<path fill="none" stroke="midnightblue" d="M26.0972,-139.939C35.012,-153.697 52.8616,-178.485 74,-193 76.849,-194.956 79.9211,-196.733 83.1019,-198.343"/>
<polygon fill="midnightblue" stroke="midnightblue" points="81.7017,-201.551 92.2585,-202.448 84.5653,-195.163 81.7017,-201.551"/>
</g>
<!-- Node11 -->
<g id="node11" class="node"><title>Node11</title>
<g id="a_node11"><a xlink:href="namespacetlz.html#a23ae826b33c7d428c32ce1bf2e6b1630" target="_top" xlink:title="tlz::decode_kinect\l_internal_parameters">
<polygon fill="white" stroke="black" points="75,-115 75,-145 182,-145 182,-115 75,-115"/>
<text text-anchor="start" x="83" y="-133" font-family="Helvetica,sans-Serif" font-size="10.00">tlz::decode_kinect</text>
<text text-anchor="middle" x="128.5" y="-122" font-family="Helvetica,sans-Serif" font-size="10.00">_internal_parameters</text>
</a>
</g>
</g>
<!-- Node1&#45;&gt;Node11 -->
<g id="edge13" class="edge"><title>Node1&#45;&gt;Node11</title>
<path fill="none" stroke="midnightblue" d="M38.2359,-130C45.794,-130 55.0477,-130 64.7025,-130"/>
<polygon fill="midnightblue" stroke="midnightblue" points="64.8547,-133.5 74.8547,-130 64.8547,-126.5 64.8547,-133.5"/>
</g>
<!-- Node12 -->
<g id="node12" class="node"><title>Node12</title>
<g id="a_node12"><a xlink:href="namespacetlz.html#aa1be9362f548fcf9378e1fc9074089c4" target="_top" xlink:title="tlz::import_json_file">
<polygon fill="white" stroke="black" points="78,-76.5 78,-95.5 179,-95.5 179,-76.5 78,-76.5"/>
<text text-anchor="middle" x="128.5" y="-83.5" font-family="Helvetica,sans-Serif" font-size="10.00">tlz::import_json_file</text>
</a>
</g>
</g>
<!-- Node1&#45;&gt;Node12 -->
<g id="edge14" class="edge"><title>Node1&#45;&gt;Node12</title>
<path fill="none" stroke="midnightblue" d="M38.3089,-121.012C48.678,-116.051 61.9477,-109.918 74,-105 78.8939,-103.003 84.085,-101.009 89.2341,-99.1045"/>
<polygon fill="midnightblue" stroke="midnightblue" points="90.7814,-102.267 98.995,-95.5744 88.4007,-95.684 90.7814,-102.267"/>
</g>
<!-- Node13 -->
<g id="node13" class="node"><title>Node13</title>
<g id="a_node13"><a xlink:href="namespacetlz.html#ab98de0b10e3e079dee189f81adc638a0" target="_top" xlink:title="tlz::export_json_file">
<polygon fill="white" stroke="black" points="78,-38.5 78,-57.5 179,-57.5 179,-38.5 78,-38.5"/>
<text text-anchor="middle" x="128.5" y="-45.5" font-family="Helvetica,sans-Serif" font-size="10.00">tlz::export_json_file</text>
</a>
</g>
</g>
<!-- Node1&#45;&gt;Node13 -->
<g id="edge15" class="edge"><title>Node1&#45;&gt;Node13</title>
<path fill="none" stroke="midnightblue" d="M26.0972,-120.061C35.012,-106.303 52.8616,-81.5146 74,-67 76.849,-65.0438 79.9211,-63.267 83.1019,-61.6571"/>
<polygon fill="midnightblue" stroke="midnightblue" points="84.5653,-64.8368 92.2585,-57.5522 81.7017,-58.4493 84.5653,-64.8368"/>
</g>
<!-- Node15 -->
<g id="node15" class="node"><title>Node15</title>
<g id="a_node15"><a xlink:href="namespacetlz.html#a46c3e46d56bc36cf6b1236522563bc4a" target="_top" xlink:title="tlz::encode_intrinsics">
<polygon fill="white" stroke="black" points="74,-0.5 74,-19.5 183,-19.5 183,-0.5 74,-0.5"/>
<text text-anchor="middle" x="128.5" y="-7.5" font-family="Helvetica,sans-Serif" font-size="10.00">tlz::encode_intrinsics</text>
</a>
</g>
</g>
<!-- Node1&#45;&gt;Node15 -->
<g id="edge17" class="edge"><title>Node1&#45;&gt;Node15</title>
<path fill="none" stroke="midnightblue" d="M22.5513,-120.45C28.3362,-100.586 44.308,-54.5485 74,-29 75.9612,-27.3124 78.0828,-25.7712 80.3112,-24.364"/>
<polygon fill="midnightblue" stroke="midnightblue" points="82.1344,-27.3587 89.3222,-19.575 78.8493,-21.1774 82.1344,-27.3587"/>
</g>
<!-- Node4 -->
<g id="node4" class="node"><title>Node4</title>
<g id="a_node4"><a xlink:href="namespacetlz.html#a0621d598fb83b13bf028f3e6293d04f8" target="_top" xlink:title="tlz::string_arg">
<polygon fill="white" stroke="black" points="242,-202.5 242,-221.5 318,-221.5 318,-202.5 242,-202.5"/>
<text text-anchor="middle" x="280" y="-209.5" font-family="Helvetica,sans-Serif" font-size="10.00">tlz::string_arg</text>
</a>
</g>
</g>
<!-- Node3&#45;&gt;Node4 -->
<g id="edge3" class="edge"><title>Node3&#45;&gt;Node4</title>
<path fill="none" stroke="midnightblue" d="M167.225,-183.589C186.85,-188.577 211.03,-194.723 231.874,-200.022"/>
<polygon fill="midnightblue" stroke="midnightblue" points="231.251,-203.474 241.805,-202.546 232.975,-196.69 231.251,-203.474"/>
</g>
<!-- Node5 -->
<g id="node5" class="node"><title>Node5</title>
<g id="a_node5"><a xlink:href="namespacetlz.html#a780431daab8d2595372eacb43143b52d" target="_top" xlink:title="tlz::args">
<polygon fill="white" stroke="black" points="407.5,-164.5 407.5,-183.5 459.5,-183.5 459.5,-164.5 407.5,-164.5"/>
<text text-anchor="middle" x="433.5" y="-171.5" font-family="Helvetica,sans-Serif" font-size="10.00">tlz::args</text>
</a>
</g>
</g>
<!-- Node3&#45;&gt;Node5 -->
<g id="edge9" class="edge"><title>Node3&#45;&gt;Node5</title>
<path fill="none" stroke="midnightblue" d="M179.195,-174C240.58,-174 343.468,-174 397.279,-174"/>
<polygon fill="midnightblue" stroke="midnightblue" points="397.361,-177.5 407.361,-174 397.361,-170.5 397.361,-177.5"/>
</g>
<!-- Node7 -->
<g id="node7" class="node"><title>Node7</title>
<g id="a_node7"><a xlink:href="classtlz_1_1args__list.html#a38ad21acd64a4af98ffdf4a47837cdbe" target="_top" xlink:title="tlz::args_list::usage_fail">
<polygon fill="white" stroke="black" points="526,-145.5 526,-164.5 646,-164.5 646,-145.5 526,-145.5"/>
<text text-anchor="middle" x="586" y="-152.5" font-family="Helvetica,sans-Serif" font-size="10.00">tlz::args_list::usage_fail</text>
</a>
</g>
</g>
<!-- Node3&#45;&gt;Node7 -->
<g id="edge10" class="edge"><title>Node3&#45;&gt;Node7</title>
<path fill="none" stroke="midnightblue" d="M179.211,-169.058C229.141,-164.36 308.314,-157.633 377,-155 423.239,-153.228 475.303,-153.23 515.775,-153.674"/>
<polygon fill="midnightblue" stroke="midnightblue" points="515.762,-157.174 525.804,-153.795 515.847,-150.174 515.762,-157.174"/>
</g>
<!-- Node9 -->
<g id="node9" class="node"><title>Node9</title>
<g id="a_node9"><a xlink:href="namespacetlz.html#abb019466ea9f56c0dab27e893d891837" target="_top" xlink:title="tlz::file_exists">
<polygon fill="white" stroke="black" points="241.5,-88.5 241.5,-107.5 318.5,-107.5 318.5,-88.5 241.5,-88.5"/>
<text text-anchor="middle" x="280" y="-95.5" font-family="Helvetica,sans-Serif" font-size="10.00">tlz::file_exists</text>
</a>
</g>
</g>
<!-- Node3&#45;&gt;Node9 -->
<g id="edge8" class="edge"><title>Node3&#45;&gt;Node9</title>
<path fill="none" stroke="midnightblue" d="M160.956,-164.443C168.432,-161.582 176.205,-158.093 183,-154 201.337,-142.953 200.79,-133.254 219,-122 225.43,-118.026 232.631,-114.482 239.753,-111.416"/>
<polygon fill="midnightblue" stroke="midnightblue" points="241.379,-114.533 249.334,-107.536 238.751,-108.045 241.379,-114.533"/>
</g>
<!-- Node4&#45;&gt;Node5 -->
<g id="edge4" class="edge"><title>Node4&#45;&gt;Node5</title>
<path fill="none" stroke="midnightblue" d="M318.061,-202.704C342.174,-196.656 373.438,-188.814 397.193,-182.856"/>
<polygon fill="midnightblue" stroke="midnightblue" points="398.35,-186.174 407.198,-180.346 396.647,-179.384 398.35,-186.174"/>
</g>
<!-- Node6 -->
<g id="node6" class="node"><title>Node6</title>
<g id="a_node6"><a xlink:href="classtlz_1_1args__list.html#a73d99bc75998dc14607a3a372d28dc6d" target="_top" xlink:title="tlz::args_list::next_arg">
<polygon fill="white" stroke="black" points="377,-202.5 377,-221.5 490,-221.5 490,-202.5 377,-202.5"/>
<text text-anchor="middle" x="433.5" y="-209.5" font-family="Helvetica,sans-Serif" font-size="10.00">tlz::args_list::next_arg</text>
</a>
</g>
</g>
<!-- Node4&#45;&gt;Node6 -->
<g id="edge5" class="edge"><title>Node4&#45;&gt;Node6</title>
<path fill="none" stroke="midnightblue" d="M318.061,-212C332.715,-212 350.009,-212 366.655,-212"/>
<polygon fill="midnightblue" stroke="midnightblue" points="366.905,-215.5 376.905,-212 366.905,-208.5 366.905,-215.5"/>
</g>
<!-- Node6&#45;&gt;Node7 -->
<g id="edge6" class="edge"><title>Node6&#45;&gt;Node7</title>
<path fill="none" stroke="midnightblue" d="M463.404,-202.415C471.995,-199.482 481.406,-196.187 490,-193 511.035,-185.198 534.438,-175.845 552.752,-168.37"/>
<polygon fill="midnightblue" stroke="midnightblue" points="554.165,-171.574 562.09,-164.542 551.51,-165.097 554.165,-171.574"/>
</g>
<!-- Node8 -->
<g id="node8" class="node"><title>Node8</title>
<g id="a_node8"><a xlink:href="namespacetlz.html#a8e4f8c8c2927bc4350de13bfa0f8f9e1" target="_top" xlink:title="tlz::to_string">
<polygon fill="white" stroke="black" points="550.5,-202.5 550.5,-221.5 621.5,-221.5 621.5,-202.5 550.5,-202.5"/>
<text text-anchor="middle" x="586" y="-209.5" font-family="Helvetica,sans-Serif" font-size="10.00">tlz::to_string</text>
</a>
</g>
</g>
<!-- Node6&#45;&gt;Node8 -->
<g id="edge7" class="edge"><title>Node6&#45;&gt;Node8</title>
<path fill="none" stroke="midnightblue" d="M490.113,-212C506.441,-212 524.096,-212 539.698,-212"/>
<polygon fill="midnightblue" stroke="midnightblue" points="540.13,-215.5 550.13,-212 540.129,-208.5 540.13,-215.5"/>
</g>
<!-- Node10&#45;&gt;Node4 -->
<g id="edge12" class="edge"><title>Node10&#45;&gt;Node4</title>
<path fill="none" stroke="midnightblue" d="M182.208,-212C198.345,-212 215.987,-212 231.737,-212"/>
<polygon fill="midnightblue" stroke="midnightblue" points="231.779,-215.5 241.779,-212 231.779,-208.5 231.779,-215.5"/>
</g>
<!-- Node14 -->
<g id="node14" class="node"><title>Node14</title>
<g id="a_node14"><a xlink:href="namespacetlz.html#ae11c827ac9e581f9d2f98c39aab3750d" target="_top" xlink:title="tlz::file_name_extension">
<polygon fill="white" stroke="black" points="219,-38.5 219,-57.5 341,-57.5 341,-38.5 219,-38.5"/>
<text text-anchor="middle" x="280" y="-45.5" font-family="Helvetica,sans-Serif" font-size="10.00">tlz::file_name_extension</text>
</a>
</g>
</g>
<!-- Node13&#45;&gt;Node14 -->
<g id="edge16" class="edge"><title>Node13&#45;&gt;Node14</title>
<path fill="none" stroke="midnightblue" d="M179.281,-48C188.675,-48 198.662,-48 208.549,-48"/>
<polygon fill="midnightblue" stroke="midnightblue" points="208.787,-51.5001 218.787,-48 208.787,-44.5001 208.787,-51.5001"/>
</g>
<!-- Node16 -->
<g id="node16" class="node"><title>Node16</title>
<g id="a_node16"><a xlink:href="namespacetlz.html#acf7ca4ee1b750cf31a40170bea887d46" target="_top" xlink:title="tlz::encode_mat">
<polygon fill="white" stroke="black" points="237,-0.5 237,-19.5 323,-19.5 323,-0.5 237,-0.5"/>
<text text-anchor="middle" x="280" y="-7.5" font-family="Helvetica,sans-Serif" font-size="10.00">tlz::encode_mat</text>
</a>
</g>
</g>
<!-- Node15&#45;&gt;Node16 -->
<g id="edge18" class="edge"><title>Node15&#45;&gt;Node16</title>
<path fill="none" stroke="midnightblue" d="M183.051,-10C197.209,-10 212.473,-10 226.571,-10"/>
<polygon fill="midnightblue" stroke="midnightblue" points="226.598,-13.5001 236.598,-10 226.598,-6.5001 226.598,-13.5001"/>
</g>
<!-- Node17 -->
<g id="node17" class="node"><title>Node17</title>
<g id="a_node17"><a xlink:href="namespacetlz.html#a7b27ca69fad329b4a00aceee41d2962b" target="_top" xlink:title="tlz::encode_mat_">
<polygon fill="white" stroke="black" points="387.5,-0.5 387.5,-19.5 479.5,-19.5 479.5,-0.5 387.5,-0.5"/>
<text text-anchor="middle" x="433.5" y="-7.5" font-family="Helvetica,sans-Serif" font-size="10.00">tlz::encode_mat_</text>
</a>
</g>
</g>
<!-- Node16&#45;&gt;Node17 -->
<g id="edge19" class="edge"><title>Node16&#45;&gt;Node17</title>
<path fill="none" stroke="midnightblue" d="M323.201,-10C339.888,-10 359.298,-10 377.09,-10"/>
<polygon fill="midnightblue" stroke="midnightblue" points="377.346,-13.5001 387.346,-10 377.346,-6.5001 377.346,-13.5001"/>
</g>
</g>
</svg>
