<?xml version="1.0" encoding="UTF-8" standalone="no"?>
<!DOCTYPE svg PUBLIC "-//W3C//DTD SVG 1.1//EN"
 "http://www.w3.org/Graphics/SVG/1.1/DTD/svg11.dtd">
<!-- Generated by graphviz version 2.38.0 (20140413.2041)
 -->
<!-- Title: main Pages: 1 -->
<svg width="508pt" height="731pt"
 viewBox="0.00 0.00 508.00 731.00" xmlns="http://www.w3.org/2000/svg" xmlns:xlink="http://www.w3.org/1999/xlink">
<g id="graph0" class="graph" transform="scale(1 1) rotate(0) translate(4 727)">
<title>main</title>
<polygon fill="white" stroke="none" points="-4,4 -4,-727 504,-727 504,4 -4,4"/>
<!-- Node1 -->
<g id="node1" class="node"><title>Node1</title>
<polygon fill="#bfbfbf" stroke="black" points="0,-357.5 0,-376.5 38,-376.5 38,-357.5 0,-357.5"/>
<text text-anchor="middle" x="19" y="-364.5" font-family="Helvetica,sans-Serif" font-size="10.00">main</text>
</g>
<!-- Node2 -->
<g id="node2" class="node"><title>Node2</title>
<g id="a_node2"><a xlink:href="namespacetlz.html#a3c03f5d9d6261ec2909938822fc47f8a" target="_top" xlink:title="tlz::get_args">
<polygon fill="white" stroke="black" points="95.5,-703.5 95.5,-722.5 166.5,-722.5 166.5,-703.5 95.5,-703.5"/>
<text text-anchor="middle" x="131" y="-710.5" font-family="Helvetica,sans-Serif" font-size="10.00">tlz::get_args</text>
</a>
</g>
</g>
<!-- Node1&#45;&gt;Node2 -->
<g id="edge1" class="edge"><title>Node1&#45;&gt;Node2</title>
<path fill="none" stroke="midnightblue" d="M20.2951,-376.721C21.9678,-425.608 31.7442,-644.205 74,-694 77.3598,-697.959 81.5779,-701.096 86.184,-703.58"/>
<polygon fill="midnightblue" stroke="midnightblue" points="84.831,-706.808 95.3964,-707.598 87.6297,-700.392 84.831,-706.808"/>
</g>
<!-- Node3 -->
<g id="node3" class="node"><title>Node3</title>
<g id="a_node3"><a xlink:href="namespacetlz.html#a0621d598fb83b13bf028f3e6293d04f8" target="_top" xlink:title="tlz::string_arg">
<polygon fill="white" stroke="black" points="93,-665.5 93,-684.5 169,-684.5 169,-665.5 93,-665.5"/>
<text text-anchor="middle" x="131" y="-672.5" font-family="Helvetica,sans-Serif" font-size="10.00">tlz::string_arg</text>
</a>
</g>
</g>
<!-- Node1&#45;&gt;Node3 -->
<g id="edge2" class="edge"><title>Node1&#45;&gt;Node3</title>
<path fill="none" stroke="midnightblue" d="M20.5291,-376.778C23.177,-422.246 36.3873,-612.611 74,-656 76.7992,-659.229 80.1686,-661.91 83.8489,-664.137"/>
<polygon fill="midnightblue" stroke="midnightblue" points="82.3568,-667.303 92.8781,-668.549 85.4304,-661.014 82.3568,-667.303"/>
</g>
<!-- Node8 -->
<g id="node8" class="node"><title>Node8</title>
<g id="a_node8"><a xlink:href="namespacetlz.html#aea648783e0ac6c50afae30a01cfc260d" target="_top" xlink:title="tlz::enum_arg">
<polygon fill="white" stroke="black" points="93,-627.5 93,-646.5 169,-646.5 169,-627.5 93,-627.5"/>
<text text-anchor="middle" x="131" y="-634.5" font-family="Helvetica,sans-Serif" font-size="10.00">tlz::enum_arg</text>
</a>
</g>
</g>
<!-- Node1&#45;&gt;Node8 -->
<g id="edge7" class="edge"><title>Node1&#45;&gt;Node8</title>
<path fill="none" stroke="midnightblue" d="M20.8125,-376.587C24.5009,-417.973 40.9384,-580.893 74,-618 76.8428,-621.191 80.2417,-623.846 83.9407,-626.056"/>
<polygon fill="midnightblue" stroke="midnightblue" points="82.4705,-629.233 92.9957,-630.446 85.5243,-622.934 82.4705,-629.233"/>
</g>
<!-- Node9 -->
<g id="node9" class="node"><title>Node9</title>
<g id="a_node9"><a xlink:href="classtlz_1_1viewer.html#a2bf9d63d7a1a5ec4d5bdabc13d9ab688" target="_top" xlink:title="tlz::viewer::add_int\l_slider">
<polygon fill="white" stroke="black" points="81.5,-578 81.5,-608 180.5,-608 180.5,-578 81.5,-578"/>
<text text-anchor="start" x="89.5" y="-596" font-family="Helvetica,sans-Serif" font-size="10.00">tlz::viewer::add_int</text>
<text text-anchor="middle" x="131" y="-585" font-family="Helvetica,sans-Serif" font-size="10.00">_slider</text>
</a>
</g>
</g>
<!-- Node1&#45;&gt;Node9 -->
<g id="edge11" class="edge"><title>Node1&#45;&gt;Node9</title>
<path fill="none" stroke="midnightblue" d="M19.7777,-376.785C19.5812,-408.573 23.1535,-510.268 74,-569 74.7443,-569.86 75.5247,-570.689 76.3371,-571.49"/>
<polygon fill="midnightblue" stroke="midnightblue" points="74.3997,-574.423 84.3918,-577.945 78.7773,-568.961 74.3997,-574.423"/>
</g>
<!-- Node10 -->
<g id="node10" class="node"><title>Node10</title>
<g id="a_node10"><a xlink:href="classtlz_1_1grabber.html#a22479c42efb500428a6178391d3e9611" target="_top" xlink:title="tlz::grabber::internal\l_parameters">
<polygon fill="white" stroke="black" points="79.5,-529 79.5,-559 182.5,-559 182.5,-529 79.5,-529"/>
<text text-anchor="start" x="87.5" y="-547" font-family="Helvetica,sans-Serif" font-size="10.00">tlz::grabber::internal</text>
<text text-anchor="middle" x="131" y="-536" font-family="Helvetica,sans-Serif" font-size="10.00">_parameters</text>
</a>
</g>
</g>
<!-- Node1&#45;&gt;Node10 -->
<g id="edge12" class="edge"><title>Node1&#45;&gt;Node10</title>
<path fill="none" stroke="midnightblue" d="M20.8131,-376.516C23.5239,-402.616 34.4597,-476.226 74,-519 75.2173,-520.317 76.5169,-521.569 77.8827,-522.758"/>
<polygon fill="midnightblue" stroke="midnightblue" points="76.1745,-525.845 86.3158,-528.911 80.3005,-520.19 76.1745,-525.845"/>
</g>
<!-- Node11 -->
<g id="node11" class="node"><title>Node11</title>
<g id="a_node11"><a xlink:href="namespacetlz.html#a8cba4853d0d796a01c72f59f36f2a492" target="_top" xlink:title="tlz::decode_intrinsics">
<polygon fill="white" stroke="black" points="76.5,-490.5 76.5,-509.5 185.5,-509.5 185.5,-490.5 76.5,-490.5"/>
<text text-anchor="middle" x="131" y="-497.5" font-family="Helvetica,sans-Serif" font-size="10.00">tlz::decode_intrinsics</text>
</a>
</g>
</g>
<!-- Node1&#45;&gt;Node11 -->
<g id="edge13" class="edge"><title>Node1&#45;&gt;Node11</title>
<path fill="none" stroke="midnightblue" d="M21.9267,-376.796C26.7332,-398.673 41.2963,-451.865 74,-481 75.9116,-482.703 77.9822,-484.255 80.1627,-485.668"/>
<polygon fill="midnightblue" stroke="midnightblue" points="78.5535,-488.777 89.0133,-490.463 81.888,-482.622 78.5535,-488.777"/>
</g>
<!-- Node15 -->
<g id="node15" class="node"><title>Node15</title>
<g id="a_node15"><a xlink:href="namespacetlz.html#aa1be9362f548fcf9378e1fc9074089c4" target="_top" xlink:title="tlz::import_json_file">
<polygon fill="white" stroke="black" points="80.5,-452.5 80.5,-471.5 181.5,-471.5 181.5,-452.5 80.5,-452.5"/>
<text text-anchor="middle" x="131" y="-459.5" font-family="Helvetica,sans-Serif" font-size="10.00">tlz::import_json_file</text>
</a>
</g>
</g>
<!-- Node1&#45;&gt;Node15 -->
<g id="edge18" class="edge"><title>Node1&#45;&gt;Node15</title>
<path fill="none" stroke="midnightblue" d="M25.0811,-376.529C33.468,-391.459 51.5369,-420.468 74,-438 79.0343,-441.929 84.8088,-445.34 90.6943,-448.258"/>
<polygon fill="midnightblue" stroke="midnightblue" points="89.3902,-451.51 99.9439,-452.443 92.2754,-445.132 89.3902,-451.51"/>
</g>
<!-- Node16 -->
<g id="node16" class="node"><title>Node16</title>
<g id="a_node16"><a xlink:href="structtlz_1_1distortion__parameters.html#a96312c5d7baa4b7b1f2a76e9396037f8" target="_top" xlink:title="tlz::distortion_parameters\l::cv_coeffs">
<polygon fill="white" stroke="black" points="373,-409 373,-439 500,-439 500,-409 373,-409"/>
<text text-anchor="start" x="381" y="-427" font-family="Helvetica,sans-Serif" font-size="10.00">tlz::distortion_parameters</text>
<text text-anchor="middle" x="436.5" y="-416" font-family="Helvetica,sans-Serif" font-size="10.00">::cv_coeffs</text>
</a>
</g>
</g>
<!-- Node1&#45;&gt;Node16 -->
<g id="edge19" class="edge"><title>Node1&#45;&gt;Node16</title>
<path fill="none" stroke="midnightblue" d="M30.1558,-376.841C40.3241,-385.994 56.8817,-399.082 74,-405 169.589,-438.047 287.855,-437.054 362.512,-431.758"/>
<polygon fill="midnightblue" stroke="midnightblue" points="363.042,-435.228 372.75,-430.985 362.515,-428.248 363.042,-435.228"/>
</g>
<!-- Node17 -->
<g id="node17" class="node"><title>Node17</title>
<g id="a_node17"><a xlink:href="classtlz_1_1grabber.html#a14d256bd7ef0af5be70f2bd7713a7e54" target="_top" xlink:title="tlz::grabber::grab">
<polygon fill="white" stroke="black" points="86,-338.5 86,-357.5 176,-357.5 176,-338.5 86,-338.5"/>
<text text-anchor="middle" x="131" y="-345.5" font-family="Helvetica,sans-Serif" font-size="10.00">tlz::grabber::grab</text>
</a>
</g>
</g>
<!-- Node1&#45;&gt;Node17 -->
<g id="edge20" class="edge"><title>Node1&#45;&gt;Node17</title>
<path fill="none" stroke="midnightblue" d="M38.1643,-363.863C48.4731,-362.082 61.9773,-359.749 75.4458,-357.423"/>
<polygon fill="midnightblue" stroke="midnightblue" points="76.4264,-360.806 85.6848,-355.654 75.2349,-353.908 76.4264,-360.806"/>
</g>
<!-- Node18 -->
<g id="node18" class="node"><title>Node18</title>
<g id="a_node18"><a xlink:href="classtlz_1_1viewer.html#a0ad9ee28b8127c63b2886b04fb36e3dc" target="_top" xlink:title="tlz::viewer::clear">
<polygon fill="white" stroke="black" points="86.5,-300.5 86.5,-319.5 175.5,-319.5 175.5,-300.5 86.5,-300.5"/>
<text text-anchor="middle" x="131" y="-307.5" font-family="Helvetica,sans-Serif" font-size="10.00">tlz::viewer::clear</text>
</a>
</g>
</g>
<!-- Node1&#45;&gt;Node18 -->
<g id="edge21" class="edge"><title>Node1&#45;&gt;Node18</title>
<path fill="none" stroke="midnightblue" d="M31.8041,-357.189C42.3415,-348.81 58.4659,-336.894 74,-329 78.2388,-326.846 82.7767,-324.85 87.3668,-323.024"/>
<polygon fill="midnightblue" stroke="midnightblue" points="88.6302,-326.288 96.7825,-319.522 86.1897,-319.728 88.6302,-326.288"/>
</g>
<!-- Node21 -->
<g id="node21" class="node"><title>Node21</title>
<g id="a_node21"><a xlink:href="classtlz_1_1viewer.html#a6a59617413dc76948b6802399ddf555b" target="_top" xlink:title="tlz::viewer::visualize\l_depth">
<polygon fill="white" stroke="black" points="78,-213 78,-243 184,-243 184,-213 78,-213"/>
<text text-anchor="start" x="86" y="-231" font-family="Helvetica,sans-Serif" font-size="10.00">tlz::viewer::visualize</text>
<text text-anchor="middle" x="131" y="-220" font-family="Helvetica,sans-Serif" font-size="10.00">_depth</text>
</a>
</g>
</g>
<!-- Node1&#45;&gt;Node21 -->
<g id="edge24" class="edge"><title>Node1&#45;&gt;Node21</title>
<path fill="none" stroke="midnightblue" d="M22.1257,-357.417C27.3397,-335.977 42.6827,-283.621 74,-253 75.4559,-251.576 77.0069,-250.226 78.6305,-248.946"/>
<polygon fill="midnightblue" stroke="midnightblue" points="80.9283,-251.617 87.2511,-243.116 77.0068,-245.819 80.9283,-251.617"/>
</g>
<!-- Node22 -->
<g id="node22" class="node"><title>Node22</title>
<g id="a_node22"><a xlink:href="classtlz_1_1grabber.html#a22caa426aef0275c5cdf9bfebe352940" target="_top" xlink:title="tlz::grabber::get_depth\l_frame">
<polygon fill="white" stroke="black" points="74,-164 74,-194 188,-194 188,-164 74,-164"/>
<text text-anchor="start" x="82" y="-182" font-family="Helvetica,sans-Serif" font-size="10.00">tlz::grabber::get_depth</text>
<text text-anchor="middle" x="131" y="-171" font-family="Helvetica,sans-Serif" font-size="10.00">_frame</text>
</a>
</g>
</g>
<!-- Node1&#45;&gt;Node22 -->
<g id="edge25" class="edge"><title>Node1&#45;&gt;Node22</title>
<path fill="none" stroke="midnightblue" d="M20.5653,-357.207C22.6595,-329.608 32.1999,-250.203 74,-204 75.2032,-202.67 76.4904,-201.407 77.8455,-200.208"/>
<polygon fill="midnightblue" stroke="midnightblue" points="80.2683,-202.77 86.2348,-194.014 76.1108,-197.138 80.2683,-202.77"/>
</g>
<!-- Node23 -->
<g id="node23" class="node"><title>Node23</title>
<g id="a_node23"><a xlink:href="classtlz_1_1grabber.html#ab0a7ab9197c8d2676a072c3f9eadd96d" target="_top" xlink:title="tlz::grabber::get_ir\l_frame">
<polygon fill="white" stroke="black" points="83.5,-115 83.5,-145 178.5,-145 178.5,-115 83.5,-115"/>
<text text-anchor="start" x="91.5" y="-133" font-family="Helvetica,sans-Serif" font-size="10.00">tlz::grabber::get_ir</text>
<text text-anchor="middle" x="131" y="-122" font-family="Helvetica,sans-Serif" font-size="10.00">_frame</text>
</a>
</g>
</g>
<!-- Node1&#45;&gt;Node23 -->
<g id="edge26" class="edge"><title>Node1&#45;&gt;Node23</title>
<path fill="none" stroke="midnightblue" d="M19.6628,-357.234C19.0581,-324.534 21.3837,-217.447 74,-155 75.0076,-153.804 76.0839,-152.663 77.2178,-151.575"/>
<polygon fill="midnightblue" stroke="midnightblue" points="79.7182,-154.061 85.4169,-145.129 75.3922,-148.558 79.7182,-154.061"/>
</g>
<!-- Node24 -->
<g id="node24" class="node"><title>Node24</title>
<g id="a_node24"><a xlink:href="classtlz_1_1grabber.html#a412843d3f5dbbcb179e5ae4709577b91" target="_top" xlink:title="tlz::grabber::release">
<polygon fill="white" stroke="black" points="79.5,-76.5 79.5,-95.5 182.5,-95.5 182.5,-76.5 79.5,-76.5"/>
<text text-anchor="middle" x="131" y="-83.5" font-family="Helvetica,sans-Serif" font-size="10.00">tlz::grabber::release</text>
</a>
</g>
</g>
<!-- Node1&#45;&gt;Node24 -->
<g id="edge27" class="edge"><title>Node1&#45;&gt;Node24</title>
<path fill="none" stroke="midnightblue" d="M20.7491,-357.335C24.224,-314.843 40.0636,-145.015 74,-106 75.5414,-104.228 77.2511,-102.613 79.087,-101.141"/>
<polygon fill="midnightblue" stroke="midnightblue" points="81.2747,-103.896 87.8141,-95.5606 77.5037,-97.999 81.2747,-103.896"/>
</g>
<!-- Node25 -->
<g id="node25" class="node"><title>Node25</title>
<g id="a_node25"><a xlink:href="namespacetlz.html#ae9eeca909bec8ca797356b56d3cfbb90" target="_top" xlink:title="tlz::undistort">
<polygon fill="white" stroke="black" points="95.5,-376.5 95.5,-395.5 166.5,-395.5 166.5,-376.5 95.5,-376.5"/>
<text text-anchor="middle" x="131" y="-383.5" font-family="Helvetica,sans-Serif" font-size="10.00">tlz::undistort</text>
</a>
</g>
</g>
<!-- Node1&#45;&gt;Node25 -->
<g id="edge28" class="edge"><title>Node1&#45;&gt;Node25</title>
<path fill="none" stroke="midnightblue" d="M38.1643,-370.137C50.9998,-372.355 68.7889,-375.427 85.2951,-378.278"/>
<polygon fill="midnightblue" stroke="midnightblue" points="84.9012,-381.762 95.351,-380.015 86.0927,-374.864 84.9012,-381.762"/>
</g>
<!-- Node28 -->
<g id="node28" class="node"><title>Node28</title>
<g id="a_node28"><a xlink:href="classtlz_1_1viewer.html#ad4fda702b7c5af2cb0bb9bc3842113f3" target="_top" xlink:title="tlz::viewer::draw_text">
<polygon fill="white" stroke="black" points="76,-38.5 76,-57.5 186,-57.5 186,-38.5 76,-38.5"/>
<text text-anchor="middle" x="131" y="-45.5" font-family="Helvetica,sans-Serif" font-size="10.00">tlz::viewer::draw_text</text>
</a>
</g>
</g>
<!-- Node1&#45;&gt;Node28 -->
<g id="edge32" class="edge"><title>Node1&#45;&gt;Node28</title>
<path fill="none" stroke="midnightblue" d="M20.4433,-357.473C22.7693,-311.428 34.9797,-112.315 74,-67 75.1514,-65.6629 76.4006,-64.4196 77.7293,-63.2637"/>
<polygon fill="midnightblue" stroke="midnightblue" points="79.8022,-66.0863 86.0809,-57.5524 75.8508,-60.3082 79.8022,-66.0863"/>
</g>
<!-- Node29 -->
<g id="node29" class="node"><title>Node29</title>
<g id="a_node29"><a xlink:href="classtlz_1_1viewer.html#a5f0412cff89a343ad52431689502389d" target="_top" xlink:title="tlz::viewer::draw">
<polygon fill="white" stroke="black" points="86.5,-262.5 86.5,-281.5 175.5,-281.5 175.5,-262.5 86.5,-262.5"/>
<text text-anchor="middle" x="131" y="-269.5" font-family="Helvetica,sans-Serif" font-size="10.00">tlz::viewer::draw</text>
</a>
</g>
</g>
<!-- Node1&#45;&gt;Node29 -->
<g id="edge33" class="edge"><title>Node1&#45;&gt;Node29</title>
<path fill="none" stroke="midnightblue" d="M24.3633,-357.353C32.1,-341.297 49.7237,-309.077 74,-291 76.5128,-289.129 79.2222,-287.434 82.0457,-285.9"/>
<polygon fill="midnightblue" stroke="midnightblue" points="83.7885,-288.948 91.3508,-281.527 80.8116,-282.612 83.7885,-288.948"/>
</g>
<!-- Node30 -->
<g id="node30" class="node"><title>Node30</title>
<g id="a_node30"><a xlink:href="classtlz_1_1viewer.html#aabb3cdde75783ed1a41801fb236bc50e" target="_top" xlink:title="tlz::viewer::show">
<polygon fill="white" stroke="black" points="85.5,-0.5 85.5,-19.5 176.5,-19.5 176.5,-0.5 85.5,-0.5"/>
<text text-anchor="middle" x="131" y="-7.5" font-family="Helvetica,sans-Serif" font-size="10.00">tlz::viewer::show</text>
</a>
</g>
</g>
<!-- Node1&#45;&gt;Node30 -->
<g id="edge36" class="edge"><title>Node1&#45;&gt;Node30</title>
<path fill="none" stroke="midnightblue" d="M20.2376,-357.286C21.6461,-307.432 30.3989,-80.6537 74,-29 75.014,-27.7987 76.1071,-26.6731 77.2661,-25.6185"/>
<polygon fill="midnightblue" stroke="midnightblue" points="79.5851,-28.2657 85.7343,-19.6379 75.5469,-22.5479 79.5851,-28.2657"/>
</g>
<!-- Node4 -->
<g id="node4" class="node"><title>Node4</title>
<g id="a_node4"><a xlink:href="namespacetlz.html#a780431daab8d2595372eacb43143b52d" target="_top" xlink:title="tlz::args">
<polygon fill="white" stroke="black" points="254.5,-665.5 254.5,-684.5 306.5,-684.5 306.5,-665.5 254.5,-665.5"/>
<text text-anchor="middle" x="280.5" y="-672.5" font-family="Helvetica,sans-Serif" font-size="10.00">tlz::args</text>
</a>
</g>
</g>
<!-- Node3&#45;&gt;Node4 -->
<g id="edge3" class="edge"><title>Node3&#45;&gt;Node4</title>
<path fill="none" stroke="midnightblue" d="M169.22,-675C192.207,-675 221.528,-675 244.157,-675"/>
<polygon fill="midnightblue" stroke="midnightblue" points="244.353,-678.5 254.353,-675 244.353,-671.5 244.353,-678.5"/>
</g>
<!-- Node5 -->
<g id="node5" class="node"><title>Node5</title>
<g id="a_node5"><a xlink:href="classtlz_1_1args__list.html#a73d99bc75998dc14607a3a372d28dc6d" target="_top" xlink:title="tlz::args_list::next_arg">
<polygon fill="white" stroke="black" points="224,-627.5 224,-646.5 337,-646.5 337,-627.5 224,-627.5"/>
<text text-anchor="middle" x="280.5" y="-634.5" font-family="Helvetica,sans-Serif" font-size="10.00">tlz::args_list::next_arg</text>
</a>
</g>
</g>
<!-- Node3&#45;&gt;Node5 -->
<g id="edge4" class="edge"><title>Node3&#45;&gt;Node5</title>
<path fill="none" stroke="midnightblue" d="M169.22,-665.411C188.509,-660.442 212.258,-654.323 232.771,-649.039"/>
<polygon fill="midnightblue" stroke="midnightblue" points="233.737,-652.404 242.547,-646.52 231.99,-645.626 233.737,-652.404"/>
</g>
<!-- Node6 -->
<g id="node6" class="node"><title>Node6</title>
<g id="a_node6"><a xlink:href="classtlz_1_1args__list.html#a38ad21acd64a4af98ffdf4a47837cdbe" target="_top" xlink:title="tlz::args_list::usage_fail">
<polygon fill="white" stroke="black" points="376.5,-589.5 376.5,-608.5 496.5,-608.5 496.5,-589.5 376.5,-589.5"/>
<text text-anchor="middle" x="436.5" y="-596.5" font-family="Helvetica,sans-Serif" font-size="10.00">tlz::args_list::usage_fail</text>
</a>
</g>
</g>
<!-- Node5&#45;&gt;Node6 -->
<g id="edge5" class="edge"><title>Node5&#45;&gt;Node6</title>
<path fill="none" stroke="midnightblue" d="M320.361,-627.411C340.591,-622.419 365.521,-616.268 387.004,-610.967"/>
<polygon fill="midnightblue" stroke="midnightblue" points="388.048,-614.314 396.919,-608.52 386.371,-607.518 388.048,-614.314"/>
</g>
<!-- Node7 -->
<g id="node7" class="node"><title>Node7</title>
<g id="a_node7"><a xlink:href="namespacetlz.html#a8e4f8c8c2927bc4350de13bfa0f8f9e1" target="_top" xlink:title="tlz::to_string">
<polygon fill="white" stroke="black" points="401,-627.5 401,-646.5 472,-646.5 472,-627.5 401,-627.5"/>
<text text-anchor="middle" x="436.5" y="-634.5" font-family="Helvetica,sans-Serif" font-size="10.00">tlz::to_string</text>
</a>
</g>
</g>
<!-- Node5&#45;&gt;Node7 -->
<g id="edge6" class="edge"><title>Node5&#45;&gt;Node7</title>
<path fill="none" stroke="midnightblue" d="M337.098,-637C354.649,-637 373.812,-637 390.525,-637"/>
<polygon fill="midnightblue" stroke="midnightblue" points="390.579,-640.5 400.579,-637 390.579,-633.5 390.579,-640.5"/>
</g>
<!-- Node8&#45;&gt;Node4 -->
<g id="edge8" class="edge"><title>Node8&#45;&gt;Node4</title>
<path fill="none" stroke="midnightblue" d="M169.22,-646.589C192.311,-652.538 221.793,-660.133 244.464,-665.974"/>
<polygon fill="midnightblue" stroke="midnightblue" points="243.796,-669.416 254.353,-668.522 245.543,-662.637 243.796,-669.416"/>
</g>
<!-- Node8&#45;&gt;Node5 -->
<g id="edge9" class="edge"><title>Node8&#45;&gt;Node5</title>
<path fill="none" stroke="midnightblue" d="M169.22,-637C182.673,-637 198.294,-637 213.474,-637"/>
<polygon fill="midnightblue" stroke="midnightblue" points="213.881,-640.5 223.881,-637 213.881,-633.5 213.881,-640.5"/>
</g>
<!-- Node8&#45;&gt;Node6 -->
<g id="edge10" class="edge"><title>Node8&#45;&gt;Node6</title>
<path fill="none" stroke="midnightblue" d="M169.427,-628.261C186.061,-624.639 205.93,-620.669 224,-618 271.339,-611.009 325.044,-606.223 366.491,-603.203"/>
<polygon fill="midnightblue" stroke="midnightblue" points="366.757,-606.693 376.483,-602.491 366.26,-599.71 366.757,-606.693"/>
</g>
<!-- Node12 -->
<g id="node12" class="node"><title>Node12</title>
<g id="a_node12"><a xlink:href="namespacetlz.html#a066563a26e2de02f215b179f3d3a53da" target="_top" xlink:title="tlz::decode_mat">
<polygon fill="white" stroke="black" points="237.5,-528.5 237.5,-547.5 323.5,-547.5 323.5,-528.5 237.5,-528.5"/>
<text text-anchor="middle" x="280.5" y="-535.5" font-family="Helvetica,sans-Serif" font-size="10.00">tlz::decode_mat</text>
</a>
</g>
</g>
<!-- Node11&#45;&gt;Node12 -->
<g id="edge14" class="edge"><title>Node11&#45;&gt;Node12</title>
<path fill="none" stroke="midnightblue" d="M169.22,-509.589C188.509,-514.558 212.258,-520.677 232.771,-525.961"/>
<polygon fill="midnightblue" stroke="midnightblue" points="231.99,-529.374 242.547,-528.48 233.737,-522.596 231.99,-529.374"/>
</g>
<!-- Node13 -->
<g id="node13" class="node"><title>Node13</title>
<g id="a_node13"><a xlink:href="namespacetlz.html#a252af14b9b4ac6502d3e9c5dd8dc90b8" target="_top" xlink:title="tlz::has">
<polygon fill="white" stroke="black" points="412,-474.5 412,-493.5 461,-493.5 461,-474.5 412,-474.5"/>
<text text-anchor="middle" x="436.5" y="-481.5" font-family="Helvetica,sans-Serif" font-size="10.00">tlz::has</text>
</a>
</g>
</g>
<!-- Node11&#45;&gt;Node13 -->
<g id="edge15" class="edge"><title>Node11&#45;&gt;Node13</title>
<path fill="none" stroke="midnightblue" d="M185.561,-497.176C247.97,-493.886 349.207,-488.549 401.629,-485.786"/>
<polygon fill="midnightblue" stroke="midnightblue" points="401.938,-489.274 411.74,-485.253 401.57,-482.284 401.938,-489.274"/>
</g>
<!-- Node14 -->
<g id="node14" class="node"><title>Node14</title>
<g id="a_node14"><a xlink:href="namespacetlz.html#add846dc50c32dfb356cb1a7ac11d37ac" target="_top" xlink:title="tlz::get_or">
<polygon fill="white" stroke="black" points="250.5,-452.5 250.5,-471.5 310.5,-471.5 310.5,-452.5 250.5,-452.5"/>
<text text-anchor="middle" x="280.5" y="-459.5" font-family="Helvetica,sans-Serif" font-size="10.00">tlz::get_or</text>
</a>
</g>
</g>
<!-- Node11&#45;&gt;Node14 -->
<g id="edge16" class="edge"><title>Node11&#45;&gt;Node14</title>
<path fill="none" stroke="midnightblue" d="M169.22,-490.411C190.979,-484.805 218.413,-477.738 240.475,-472.054"/>
<polygon fill="midnightblue" stroke="midnightblue" points="241.383,-475.434 250.193,-469.55 239.636,-468.656 241.383,-475.434"/>
</g>
<!-- Node14&#45;&gt;Node13 -->
<g id="edge17" class="edge"><title>Node14&#45;&gt;Node13</title>
<path fill="none" stroke="midnightblue" d="M310.829,-466.19C336.715,-469.888 374.452,-475.279 401.62,-479.16"/>
<polygon fill="midnightblue" stroke="midnightblue" points="401.433,-482.669 411.828,-480.618 402.423,-475.739 401.433,-482.669"/>
</g>
<!-- Node19 -->
<g id="node19" class="node"><title>Node19</title>
<g id="a_node19"><a xlink:href="classtlz_1_1viewer.html#af74a8aef9dde68eeff6b1e2561b39014" target="_top" xlink:title="tlz::viewer::height">
<polygon fill="white" stroke="black" points="233.5,-300.5 233.5,-319.5 327.5,-319.5 327.5,-300.5 233.5,-300.5"/>
<text text-anchor="middle" x="280.5" y="-307.5" font-family="Helvetica,sans-Serif" font-size="10.00">tlz::viewer::height</text>
</a>
</g>
</g>
<!-- Node18&#45;&gt;Node19 -->
<g id="edge22" class="edge"><title>Node18&#45;&gt;Node19</title>
<path fill="none" stroke="midnightblue" d="M175.856,-310C190.693,-310 207.474,-310 223.144,-310"/>
<polygon fill="midnightblue" stroke="midnightblue" points="223.25,-313.5 233.25,-310 223.25,-306.5 223.25,-313.5"/>
</g>
<!-- Node20 -->
<g id="node20" class="node"><title>Node20</title>
<g id="a_node20"><a xlink:href="classtlz_1_1viewer.html#acc43bf1dd1d0c3cdc35a948d4c194769" target="_top" xlink:title="tlz::viewer::width">
<polygon fill="white" stroke="black" points="235,-262.5 235,-281.5 326,-281.5 326,-262.5 235,-262.5"/>
<text text-anchor="middle" x="280.5" y="-269.5" font-family="Helvetica,sans-Serif" font-size="10.00">tlz::viewer::width</text>
</a>
</g>
</g>
<!-- Node18&#45;&gt;Node20 -->
<g id="edge23" class="edge"><title>Node18&#45;&gt;Node20</title>
<path fill="none" stroke="midnightblue" d="M169.22,-300.411C188.509,-295.442 212.258,-289.323 232.771,-284.039"/>
<polygon fill="midnightblue" stroke="midnightblue" points="233.737,-287.404 242.547,-281.52 231.99,-280.626 233.737,-287.404"/>
</g>
<!-- Node26 -->
<g id="node26" class="node"><title>Node26</title>
<g id="a_node26"><a xlink:href="namespacetlz.html#a8b5e4acbb884887859e414ffe06a09f8" target="_top" xlink:title="tlz::undistort_points">
<polygon fill="white" stroke="black" points="229.5,-376.5 229.5,-395.5 331.5,-395.5 331.5,-376.5 229.5,-376.5"/>
<text text-anchor="middle" x="280.5" y="-383.5" font-family="Helvetica,sans-Serif" font-size="10.00">tlz::undistort_points</text>
</a>
</g>
</g>
<!-- Node25&#45;&gt;Node26 -->
<g id="edge29" class="edge"><title>Node25&#45;&gt;Node26</title>
<path fill="none" stroke="midnightblue" d="M166.582,-386C182.315,-386 201.398,-386 219.364,-386"/>
<polygon fill="midnightblue" stroke="midnightblue" points="219.489,-389.5 229.489,-386 219.489,-382.5 219.489,-389.5"/>
</g>
<!-- Node26&#45;&gt;Node16 -->
<g id="edge31" class="edge"><title>Node26&#45;&gt;Node16</title>
<path fill="none" stroke="midnightblue" d="M320.361,-395.589C333.81,-398.908 349.336,-402.739 364.545,-406.492"/>
<polygon fill="midnightblue" stroke="midnightblue" points="363.922,-409.943 374.469,-408.94 365.599,-403.147 363.922,-409.943"/>
</g>
<!-- Node27 -->
<g id="node27" class="node"><title>Node27</title>
<g id="a_node27"><a xlink:href="structtlz_1_1distortion__parameters.html#a307fee036b04519d633fb8456899850c" target="_top" xlink:title="tlz::distortion_parameters\l::is_none">
<polygon fill="white" stroke="black" points="373,-360 373,-390 500,-390 500,-360 373,-360"/>
<text text-anchor="start" x="381" y="-378" font-family="Helvetica,sans-Serif" font-size="10.00">tlz::distortion_parameters</text>
<text text-anchor="middle" x="436.5" y="-367" font-family="Helvetica,sans-Serif" font-size="10.00">::is_none</text>
</a>
</g>
</g>
<!-- Node26&#45;&gt;Node27 -->
<g id="edge30" class="edge"><title>Node26&#45;&gt;Node27</title>
<path fill="none" stroke="midnightblue" d="M331.925,-382.398C341.83,-381.691 352.404,-380.935 362.869,-380.188"/>
<polygon fill="midnightblue" stroke="midnightblue" points="363.12,-383.679 372.845,-379.475 362.621,-376.697 363.12,-383.679"/>
</g>
<!-- Node29&#45;&gt;Node19 -->
<g id="edge35" class="edge"><title>Node29&#45;&gt;Node19</title>
<path fill="none" stroke="midnightblue" d="M169.22,-281.589C188.509,-286.558 212.258,-292.677 232.771,-297.961"/>
<polygon fill="midnightblue" stroke="midnightblue" points="231.99,-301.374 242.547,-300.48 233.737,-294.596 231.99,-301.374"/>
</g>
<!-- Node29&#45;&gt;Node20 -->
<g id="edge34" class="edge"><title>Node29&#45;&gt;Node20</title>
<path fill="none" stroke="midnightblue" d="M175.856,-272C191.111,-272 208.421,-272 224.466,-272"/>
<polygon fill="midnightblue" stroke="midnightblue" points="224.792,-275.5 234.792,-272 224.792,-268.5 224.792,-275.5"/>
</g>
</g>
</svg>
