<?xml version="1.0" encoding="UTF-8" standalone="no"?>
<!DOCTYPE svg PUBLIC "-//W3C//DTD SVG 1.1//EN"
 "http://www.w3.org/Graphics/SVG/1.1/DTD/svg11.dtd">
<!-- Generated by graphviz version 2.38.0 (20140413.2041)
 -->
<!-- Title: main Pages: 1 -->
<svg width="916pt" height="931pt"
 viewBox="0.00 0.00 916.00 931.00" xmlns="http://www.w3.org/2000/svg" xmlns:xlink="http://www.w3.org/1999/xlink">
<g id="graph0" class="graph" transform="scale(1 1) rotate(0) translate(4 927)">
<title>main</title>
<polygon fill="white" stroke="none" points="-4,4 -4,-927 912,-927 912,4 -4,4"/>
<!-- Node1 -->
<g id="node1" class="node"><title>Node1</title>
<polygon fill="#bfbfbf" stroke="black" points="0,-398.5 0,-417.5 38,-417.5 38,-398.5 0,-398.5"/>
<text text-anchor="middle" x="19" y="-405.5" font-family="Helvetica,sans-Serif" font-size="10.00">main</text>
</g>
<!-- Node2 -->
<g id="node2" class="node"><title>Node2</title>
<g id="a_node2"><a xlink:href="namespacetlz.html#a3c03f5d9d6261ec2909938822fc47f8a" target="_top" xlink:title="tlz::get_args">
<polygon fill="white" stroke="black" points="105.5,-903.5 105.5,-922.5 176.5,-922.5 176.5,-903.5 105.5,-903.5"/>
<text text-anchor="middle" x="141" y="-910.5" font-family="Helvetica,sans-Serif" font-size="10.00">tlz::get_args</text>
</a>
</g>
</g>
<!-- Node1&#45;&gt;Node2 -->
<g id="edge1" class="edge"><title>Node1&#45;&gt;Node2</title>
<path fill="none" stroke="midnightblue" d="M19.745,-417.87C18.345,-479.599 13.7047,-812.409 74,-889 79.5891,-896.1 87.4734,-901.1 95.8555,-904.622"/>
<polygon fill="midnightblue" stroke="midnightblue" points="94.8401,-907.975 105.435,-908.002 97.1697,-901.374 94.8401,-907.975"/>
</g>
<!-- Node3 -->
<g id="node3" class="node"><title>Node3</title>
<g id="a_node3"><a xlink:href="namespacetlz.html#af0d1e8ba5b9f2dbc2b589afab3a21fc8" target="_top" xlink:title="tlz::int_arg">
<polygon fill="white" stroke="black" points="533.5,-865.5 533.5,-884.5 595.5,-884.5 595.5,-865.5 533.5,-865.5"/>
<text text-anchor="middle" x="564.5" y="-872.5" font-family="Helvetica,sans-Serif" font-size="10.00">tlz::int_arg</text>
</a>
</g>
</g>
<!-- Node1&#45;&gt;Node3 -->
<g id="edge2" class="edge"><title>Node1&#45;&gt;Node3</title>
<path fill="none" stroke="midnightblue" d="M20.2152,-417.515C21.543,-468.426 30.0823,-708.43 74,-765 182.483,-904.737 426.934,-891.987 523.329,-880.751"/>
<polygon fill="midnightblue" stroke="midnightblue" points="523.762,-884.224 533.263,-879.536 522.912,-877.276 523.762,-884.224"/>
</g>
<!-- Node7 -->
<g id="node7" class="node"><title>Node7</title>
<g id="a_node7"><a xlink:href="namespacetlz.html#a8e4f8c8c2927bc4350de13bfa0f8f9e1" target="_top" xlink:title="tlz::to_string">
<polygon fill="white" stroke="black" points="812.5,-675.5 812.5,-694.5 883.5,-694.5 883.5,-675.5 812.5,-675.5"/>
<text text-anchor="middle" x="848" y="-682.5" font-family="Helvetica,sans-Serif" font-size="10.00">tlz::to_string</text>
</a>
</g>
</g>
<!-- Node1&#45;&gt;Node7 -->
<g id="edge49" class="edge"><title>Node1&#45;&gt;Node7</title>
<path fill="none" stroke="midnightblue" d="M20.9401,-417.556C24.8658,-455.295 41.2883,-593.157 74,-619 85.532,-628.111 588.415,-626.193 603,-628 675.549,-636.987 757.991,-658.737 806.077,-672.621"/>
<polygon fill="midnightblue" stroke="midnightblue" points="805.22,-676.017 815.8,-675.457 807.18,-669.297 805.22,-676.017"/>
</g>
<!-- Node8 -->
<g id="node8" class="node"><title>Node8</title>
<g id="a_node8"><a xlink:href="namespacetlz.html#a63246890b0c946b5f62a1d3e2bea6103" target="_top" xlink:title="tlz::real_arg">
<polygon fill="white" stroke="black" points="530.5,-827.5 530.5,-846.5 598.5,-846.5 598.5,-827.5 530.5,-827.5"/>
<text text-anchor="middle" x="564.5" y="-834.5" font-family="Helvetica,sans-Serif" font-size="10.00">tlz::real_arg</text>
</a>
</g>
</g>
<!-- Node1&#45;&gt;Node8 -->
<g id="edge8" class="edge"><title>Node1&#45;&gt;Node8</title>
<path fill="none" stroke="midnightblue" d="M20.5684,-417.631C23.4362,-463.29 37.6375,-657.668 74,-704 183.113,-843.028 421.975,-845.814 520.101,-840.527"/>
<polygon fill="midnightblue" stroke="midnightblue" points="520.479,-844.011 530.254,-839.923 520.064,-837.023 520.479,-844.011"/>
</g>
<!-- Node9 -->
<g id="node9" class="node"><title>Node9</title>
<g id="a_node9"><a xlink:href="namespacetlz.html#a170805c7a8ede64a93e0ee23196e5b7c" target="_top" xlink:title="tlz::intrinsics_arg">
<polygon fill="white" stroke="black" points="95.5,-675.5 95.5,-694.5 186.5,-694.5 186.5,-675.5 95.5,-675.5"/>
<text text-anchor="middle" x="141" y="-682.5" font-family="Helvetica,sans-Serif" font-size="10.00">tlz::intrinsics_arg</text>
</a>
</g>
</g>
<!-- Node1&#45;&gt;Node9 -->
<g id="edge12" class="edge"><title>Node1&#45;&gt;Node9</title>
<path fill="none" stroke="midnightblue" d="M21.0371,-417.759C25.5232,-458.422 44.3791,-614.028 74,-652 80.3233,-660.106 89.1679,-666.373 98.3316,-671.157"/>
<polygon fill="midnightblue" stroke="midnightblue" points="96.9796,-674.388 107.52,-675.46 99.9484,-668.049 96.9796,-674.388"/>
</g>
<!-- Node19 -->
<g id="node19" class="node"><title>Node19</title>
<g id="a_node19"><a xlink:href="classtlz_1_1viewer.html#a2bf9d63d7a1a5ec4d5bdabc13d9ab688" target="_top" xlink:title="tlz::viewer::add_int\l_slider">
<polygon fill="white" stroke="black" points="91.5,-579 91.5,-609 190.5,-609 190.5,-579 91.5,-579"/>
<text text-anchor="start" x="99.5" y="-597" font-family="Helvetica,sans-Serif" font-size="10.00">tlz::viewer::add_int</text>
<text text-anchor="middle" x="141" y="-586" font-family="Helvetica,sans-Serif" font-size="10.00">_slider</text>
</a>
</g>
</g>
<!-- Node1&#45;&gt;Node19 -->
<g id="edge27" class="edge"><title>Node1&#45;&gt;Node19</title>
<path fill="none" stroke="midnightblue" d="M20.4719,-417.798C22.3204,-445.387 31.2765,-524.6 74,-569 76.6178,-571.72 79.5615,-574.148 82.7148,-576.314"/>
<polygon fill="midnightblue" stroke="midnightblue" points="81.0763,-579.411 91.4714,-581.458 84.6219,-573.375 81.0763,-579.411"/>
</g>
<!-- Node20 -->
<g id="node20" class="node"><title>Node20</title>
<g id="a_node20"><a xlink:href="classtlz_1_1grabber.html#a14d256bd7ef0af5be70f2bd7713a7e54" target="_top" xlink:title="tlz::grabber::grab">
<polygon fill="white" stroke="black" points="96,-540.5 96,-559.5 186,-559.5 186,-540.5 96,-540.5"/>
<text text-anchor="middle" x="141" y="-547.5" font-family="Helvetica,sans-Serif" font-size="10.00">tlz::grabber::grab</text>
</a>
</g>
</g>
<!-- Node1&#45;&gt;Node20 -->
<g id="edge28" class="edge"><title>Node1&#45;&gt;Node20</title>
<path fill="none" stroke="midnightblue" d="M21.4034,-417.625C25.2906,-440.751 38.3671,-499.829 74,-531 77.6767,-534.216 81.867,-536.89 86.3122,-539.112"/>
<polygon fill="midnightblue" stroke="midnightblue" points="85.1373,-542.415 95.712,-543.068 87.8528,-535.963 85.1373,-542.415"/>
</g>
<!-- Node21 -->
<g id="node21" class="node"><title>Node21</title>
<g id="a_node21"><a xlink:href="classtlz_1_1viewer.html#a0ad9ee28b8127c63b2886b04fb36e3dc" target="_top" xlink:title="tlz::viewer::clear">
<polygon fill="white" stroke="black" points="96.5,-502.5 96.5,-521.5 185.5,-521.5 185.5,-502.5 96.5,-502.5"/>
<text text-anchor="middle" x="141" y="-509.5" font-family="Helvetica,sans-Serif" font-size="10.00">tlz::viewer::clear</text>
</a>
</g>
</g>
<!-- Node1&#45;&gt;Node21 -->
<g id="edge29" class="edge"><title>Node1&#45;&gt;Node21</title>
<path fill="none" stroke="midnightblue" d="M23.3988,-417.51C30.1886,-435.13 47.1271,-472.885 74,-493 77.9107,-495.927 82.2601,-498.404 86.8075,-500.5"/>
<polygon fill="midnightblue" stroke="midnightblue" points="85.7571,-503.849 96.3428,-504.289 88.342,-497.344 85.7571,-503.849"/>
</g>
<!-- Node24 -->
<g id="node24" class="node"><title>Node24</title>
<g id="a_node24"><a xlink:href="classtlz_1_1grabber.html#ab0a7ab9197c8d2676a072c3f9eadd96d" target="_top" xlink:title="tlz::grabber::get_ir\l_frame">
<polygon fill="white" stroke="black" points="93.5,-415 93.5,-445 188.5,-445 188.5,-415 93.5,-415"/>
<text text-anchor="start" x="101.5" y="-433" font-family="Helvetica,sans-Serif" font-size="10.00">tlz::grabber::get_ir</text>
<text text-anchor="middle" x="141" y="-422" font-family="Helvetica,sans-Serif" font-size="10.00">_frame</text>
</a>
</g>
</g>
<!-- Node1&#45;&gt;Node24 -->
<g id="edge32" class="edge"><title>Node1&#45;&gt;Node24</title>
<path fill="none" stroke="midnightblue" d="M38.2254,-411.341C50.3336,-413.561 66.9476,-416.607 83.2419,-419.594"/>
<polygon fill="midnightblue" stroke="midnightblue" points="82.8356,-423.078 93.3029,-421.439 84.098,-416.193 82.8356,-423.078"/>
</g>
<!-- Node25 -->
<g id="node25" class="node"><title>Node25</title>
<g id="a_node25"><a xlink:href="namespacetlz.html#abc33c7b74cbbd686b06228c1fdad9214" target="_top" xlink:title="tlz::detect_ir_checkerboard">
<polygon fill="white" stroke="black" points="74,-376.5 74,-395.5 208,-395.5 208,-376.5 74,-376.5"/>
<text text-anchor="middle" x="141" y="-383.5" font-family="Helvetica,sans-Serif" font-size="10.00">tlz::detect_ir_checkerboard</text>
</a>
</g>
</g>
<!-- Node1&#45;&gt;Node25 -->
<g id="edge33" class="edge"><title>Node1&#45;&gt;Node25</title>
<path fill="none" stroke="midnightblue" d="M38.2254,-404.659C49.0397,-402.676 63.4482,-400.034 78.0131,-397.364"/>
<polygon fill="midnightblue" stroke="midnightblue" points="78.8743,-400.765 88.0792,-395.519 77.6119,-393.88 78.8743,-400.765"/>
</g>
<!-- Node28 -->
<g id="node28" class="node"><title>Node28</title>
<g id="a_node28"><a xlink:href="namespacetlz.html#a6693dca816d6f48429d1c607ced26f3b" target="_top" xlink:title="tlz::checkerboard_image\l_corners">
<polygon fill="white" stroke="black" points="79.5,-327 79.5,-357 202.5,-357 202.5,-327 79.5,-327"/>
<text text-anchor="start" x="87.5" y="-345" font-family="Helvetica,sans-Serif" font-size="10.00">tlz::checkerboard_image</text>
<text text-anchor="middle" x="141" y="-334" font-family="Helvetica,sans-Serif" font-size="10.00">_corners</text>
</a>
</g>
</g>
<!-- Node1&#45;&gt;Node28 -->
<g id="edge36" class="edge"><title>Node1&#45;&gt;Node28</title>
<path fill="none" stroke="midnightblue" d="M30.9284,-398.192C41.3977,-389.175 57.9359,-375.896 74,-367 77.6779,-364.963 81.5556,-363.023 85.5134,-361.191"/>
<polygon fill="midnightblue" stroke="midnightblue" points="87.0764,-364.328 94.8375,-357.115 84.2728,-357.913 87.0764,-364.328"/>
</g>
<!-- Node29 -->
<g id="node29" class="node"><title>Node29</title>
<g id="a_node29"><a xlink:href="namespacetlz.html#acc37da60bde41595da4139110c2d36e6" target="_top" xlink:title="tlz::checkerboard_world\l_corners">
<polygon fill="white" stroke="black" points="81,-278 81,-308 201,-308 201,-278 81,-278"/>
<text text-anchor="start" x="89" y="-296" font-family="Helvetica,sans-Serif" font-size="10.00">tlz::checkerboard_world</text>
<text text-anchor="middle" x="141" y="-285" font-family="Helvetica,sans-Serif" font-size="10.00">_corners</text>
</a>
</g>
</g>
<!-- Node1&#45;&gt;Node29 -->
<g id="edge37" class="edge"><title>Node1&#45;&gt;Node29</title>
<path fill="none" stroke="midnightblue" d="M23.299,-398.429C30.027,-380.255 47.0169,-340.554 74,-318 76.0154,-316.315 78.156,-314.738 80.3868,-313.261"/>
<polygon fill="midnightblue" stroke="midnightblue" points="82.4721,-316.097 89.364,-308.05 78.9582,-310.043 82.4721,-316.097"/>
</g>
<!-- Node30 -->
<g id="node30" class="node"><title>Node30</title>
<g id="a_node30"><a xlink:href="structtlz_1_1distortion__parameters.html#a96312c5d7baa4b7b1f2a76e9396037f8" target="_top" xlink:title="tlz::distortion_parameters\l::cv_coeffs">
<polygon fill="white" stroke="black" points="77.5,-229 77.5,-259 204.5,-259 204.5,-229 77.5,-229"/>
<text text-anchor="start" x="85.5" y="-247" font-family="Helvetica,sans-Serif" font-size="10.00">tlz::distortion_parameters</text>
<text text-anchor="middle" x="141" y="-236" font-family="Helvetica,sans-Serif" font-size="10.00">::cv_coeffs</text>
</a>
</g>
</g>
<!-- Node1&#45;&gt;Node30 -->
<g id="edge38" class="edge"><title>Node1&#45;&gt;Node30</title>
<path fill="none" stroke="midnightblue" d="M21.0413,-398.461C24.2408,-373.674 36.1299,-306.551 74,-269 75.4682,-267.544 77.0297,-266.172 78.6657,-264.878"/>
<polygon fill="midnightblue" stroke="midnightblue" points="81.0187,-267.514 87.3804,-259.042 77.1239,-261.698 81.0187,-267.514"/>
</g>
<!-- Node31 -->
<g id="node31" class="node"><title>Node31</title>
<g id="a_node31"><a xlink:href="namespacetlz.html#a318f0ec11ecbe39c32ad870473ea9c35" target="_top" xlink:title="Compute square of a number. ">
<polygon fill="white" stroke="black" points="119,-190.5 119,-209.5 163,-209.5 163,-190.5 119,-190.5"/>
<text text-anchor="middle" x="141" y="-197.5" font-family="Helvetica,sans-Serif" font-size="10.00">tlz::sq</text>
</a>
</g>
</g>
<!-- Node1&#45;&gt;Node31 -->
<g id="edge39" class="edge"><title>Node1&#45;&gt;Node31</title>
<path fill="none" stroke="midnightblue" d="M19.7613,-398.23C19.5604,-367.454 23.2266,-271.517 74,-220 83.1923,-210.673 96.5774,-205.665 108.895,-202.988"/>
<polygon fill="midnightblue" stroke="midnightblue" points="109.626,-206.414 118.875,-201.244 108.421,-199.518 109.626,-206.414"/>
</g>
<!-- Node35 -->
<g id="node35" class="node"><title>Node35</title>
<g id="a_node35"><a xlink:href="ir__intrinsic__reprojection_8cc.html#a7c87895bc67d7f4acd7414dc88772fa2" target="_top" xlink:title="orig_color">
<polygon fill="white" stroke="black" points="111.5,-152.5 111.5,-171.5 170.5,-171.5 170.5,-152.5 111.5,-152.5"/>
<text text-anchor="middle" x="141" y="-159.5" font-family="Helvetica,sans-Serif" font-size="10.00">orig_color</text>
</a>
</g>
</g>
<!-- Node1&#45;&gt;Node35 -->
<g id="edge43" class="edge"><title>Node1&#45;&gt;Node35</title>
<path fill="none" stroke="midnightblue" d="M21.0192,-398.247C25.306,-359.028 43.0963,-213.383 74,-181 81.2235,-173.431 91.2496,-168.818 101.308,-166.025"/>
<polygon fill="midnightblue" stroke="midnightblue" points="102.28,-169.394 111.275,-163.795 100.752,-162.562 102.28,-169.394"/>
</g>
<!-- Node36 -->
<g id="node36" class="node"><title>Node36</title>
<g id="a_node36"><a xlink:href="ir__intrinsic__reprojection_8cc.html#a954d54d7632b9f17ffc41545566f0565" target="_top" xlink:title="reproj_color">
<polygon fill="white" stroke="black" points="107.5,-114.5 107.5,-133.5 174.5,-133.5 174.5,-114.5 107.5,-114.5"/>
<text text-anchor="middle" x="141" y="-121.5" font-family="Helvetica,sans-Serif" font-size="10.00">reproj_color</text>
</a>
</g>
</g>
<!-- Node1&#45;&gt;Node36 -->
<g id="edge44" class="edge"><title>Node1&#45;&gt;Node36</title>
<path fill="none" stroke="midnightblue" d="M20.6477,-398.424C23.7358,-355.548 38.3184,-181.629 74,-143 80.231,-136.254 88.6863,-131.848 97.4636,-128.984"/>
<polygon fill="midnightblue" stroke="midnightblue" points="98.6311,-132.295 107.409,-126.363 96.8472,-125.527 98.6311,-132.295"/>
</g>
<!-- Node37 -->
<g id="node37" class="node"><title>Node37</title>
<g id="a_node37"><a xlink:href="classtlz_1_1viewer.html#a5f0412cff89a343ad52431689502389d" target="_top" xlink:title="tlz::viewer::draw">
<polygon fill="white" stroke="black" points="96.5,-464.5 96.5,-483.5 185.5,-483.5 185.5,-464.5 96.5,-464.5"/>
<text text-anchor="middle" x="141" y="-471.5" font-family="Helvetica,sans-Serif" font-size="10.00">tlz::viewer::draw</text>
</a>
</g>
</g>
<!-- Node1&#45;&gt;Node37 -->
<g id="edge45" class="edge"><title>Node1&#45;&gt;Node37</title>
<path fill="none" stroke="midnightblue" d="M28.6099,-417.687C38.5517,-428.305 55.8768,-445.14 74,-455 78.1667,-457.267 82.6322,-459.288 87.2029,-461.085"/>
<polygon fill="midnightblue" stroke="midnightblue" points="86.0764,-464.399 96.671,-464.466 88.4304,-457.807 86.0764,-464.399"/>
</g>
<!-- Node38 -->
<g id="node38" class="node"><title>Node38</title>
<g id="a_node38"><a xlink:href="classtlz_1_1viewer.html#ad4fda702b7c5af2cb0bb9bc3842113f3" target="_top" xlink:title="tlz::viewer::draw_text">
<polygon fill="white" stroke="black" points="86,-76.5 86,-95.5 196,-95.5 196,-76.5 86,-76.5"/>
<text text-anchor="middle" x="141" y="-83.5" font-family="Helvetica,sans-Serif" font-size="10.00">tlz::viewer::draw_text</text>
</a>
</g>
</g>
<!-- Node1&#45;&gt;Node38 -->
<g id="edge48" class="edge"><title>Node1&#45;&gt;Node38</title>
<path fill="none" stroke="midnightblue" d="M20.3857,-398.34C22.4414,-351.658 33.5807,-149.855 74,-105 75.1798,-103.691 76.4435,-102.469 77.7773,-101.33"/>
<polygon fill="midnightblue" stroke="midnightblue" points="79.7993,-104.187 86.0889,-95.6615 75.8552,-98.4042 79.7993,-104.187"/>
</g>
<!-- Node39 -->
<g id="node39" class="node"><title>Node39</title>
<g id="a_node39"><a xlink:href="classtlz_1_1grabber.html#a412843d3f5dbbcb179e5ae4709577b91" target="_top" xlink:title="tlz::grabber::release">
<polygon fill="white" stroke="black" points="89.5,-38.5 89.5,-57.5 192.5,-57.5 192.5,-38.5 89.5,-38.5"/>
<text text-anchor="middle" x="141" y="-45.5" font-family="Helvetica,sans-Serif" font-size="10.00">tlz::grabber::release</text>
</a>
</g>
</g>
<!-- Node1&#45;&gt;Node39 -->
<g id="edge50" class="edge"><title>Node1&#45;&gt;Node39</title>
<path fill="none" stroke="midnightblue" d="M20.1727,-398.492C21.2681,-348.686 28.7503,-118.201 74,-67 75.9617,-64.7803 78.1642,-62.8125 80.5423,-61.0686"/>
<polygon fill="midnightblue" stroke="midnightblue" points="82.3711,-64.0535 89.2098,-55.9614 78.8174,-58.0227 82.3711,-64.0535"/>
</g>
<!-- Node40 -->
<g id="node40" class="node"><title>Node40</title>
<g id="a_node40"><a xlink:href="classtlz_1_1viewer.html#aabb3cdde75783ed1a41801fb236bc50e" target="_top" xlink:title="tlz::viewer::show">
<polygon fill="white" stroke="black" points="95.5,-0.5 95.5,-19.5 186.5,-19.5 186.5,-0.5 95.5,-0.5"/>
<text text-anchor="middle" x="141" y="-7.5" font-family="Helvetica,sans-Serif" font-size="10.00">tlz::viewer::show</text>
</a>
</g>
</g>
<!-- Node1&#45;&gt;Node40 -->
<g id="edge51" class="edge"><title>Node1&#45;&gt;Node40</title>
<path fill="none" stroke="midnightblue" d="M20.0084,-398.158C20.2534,-344.381 24.0492,-86.4123 74,-29 77.4339,-25.0532 81.6293,-21.9011 86.2245,-19.3874"/>
<polygon fill="midnightblue" stroke="midnightblue" points="87.7319,-22.5477 95.4587,-15.2988 84.8979,-16.1471 87.7319,-22.5477"/>
</g>
<!-- Node4 -->
<g id="node4" class="node"><title>Node4</title>
<g id="a_node4"><a xlink:href="namespacetlz.html#a780431daab8d2595372eacb43143b52d" target="_top" xlink:title="tlz::args">
<polygon fill="white" stroke="black" points="669.5,-751.5 669.5,-770.5 721.5,-770.5 721.5,-751.5 669.5,-751.5"/>
<text text-anchor="middle" x="695.5" y="-758.5" font-family="Helvetica,sans-Serif" font-size="10.00">tlz::args</text>
</a>
</g>
</g>
<!-- Node3&#45;&gt;Node4 -->
<g id="edge3" class="edge"><title>Node3&#45;&gt;Node4</title>
<path fill="none" stroke="midnightblue" d="M590.088,-865.498C594.764,-862.915 599.334,-859.765 603,-856 629.075,-829.222 611.127,-804.9 639,-780 644.862,-774.763 652.234,-770.957 659.672,-768.195"/>
<polygon fill="midnightblue" stroke="midnightblue" points="660.887,-771.482 669.368,-765.133 658.778,-764.807 660.887,-771.482"/>
</g>
<!-- Node5 -->
<g id="node5" class="node"><title>Node5</title>
<g id="a_node5"><a xlink:href="classtlz_1_1args__list.html#a73d99bc75998dc14607a3a372d28dc6d" target="_top" xlink:title="tlz::args_list::next_arg">
<polygon fill="white" stroke="black" points="639,-789.5 639,-808.5 752,-808.5 752,-789.5 639,-789.5"/>
<text text-anchor="middle" x="695.5" y="-796.5" font-family="Helvetica,sans-Serif" font-size="10.00">tlz::args_list::next_arg</text>
</a>
</g>
</g>
<!-- Node3&#45;&gt;Node5 -->
<g id="edge4" class="edge"><title>Node3&#45;&gt;Node5</title>
<path fill="none" stroke="midnightblue" d="M585.135,-865.461C590.943,-862.53 597.277,-859.224 603,-856 626.714,-842.64 653.014,-826.065 671.308,-814.238"/>
<polygon fill="midnightblue" stroke="midnightblue" points="673.368,-817.074 679.844,-808.689 669.553,-811.205 673.368,-817.074"/>
</g>
<!-- Node6 -->
<g id="node6" class="node"><title>Node6</title>
<g id="a_node6"><a xlink:href="classtlz_1_1args__list.html#a38ad21acd64a4af98ffdf4a47837cdbe" target="_top" xlink:title="tlz::args_list::usage_fail">
<polygon fill="white" stroke="black" points="788,-808.5 788,-827.5 908,-827.5 908,-808.5 788,-808.5"/>
<text text-anchor="middle" x="848" y="-815.5" font-family="Helvetica,sans-Serif" font-size="10.00">tlz::args_list::usage_fail</text>
</a>
</g>
</g>
<!-- Node3&#45;&gt;Node6 -->
<g id="edge7" class="edge"><title>Node3&#45;&gt;Node6</title>
<path fill="none" stroke="midnightblue" d="M595.67,-870.35C632.658,-864.492 697.184,-853.758 752,-842 768.237,-838.517 785.904,-834.201 801.55,-830.193"/>
<polygon fill="midnightblue" stroke="midnightblue" points="802.701,-833.511 811.504,-827.616 800.946,-826.734 802.701,-833.511"/>
</g>
<!-- Node5&#45;&gt;Node6 -->
<g id="edge5" class="edge"><title>Node5&#45;&gt;Node6</title>
<path fill="none" stroke="midnightblue" d="M752.113,-806.021C760.479,-807.077 769.192,-808.177 777.8,-809.264"/>
<polygon fill="midnightblue" stroke="midnightblue" points="777.468,-812.75 787.828,-810.53 778.345,-805.805 777.468,-812.75"/>
</g>
<!-- Node5&#45;&gt;Node7 -->
<g id="edge6" class="edge"><title>Node5&#45;&gt;Node7</title>
<path fill="none" stroke="midnightblue" d="M732.241,-789.459C739.06,-786.902 745.951,-783.772 752,-780 785.769,-758.94 816.725,-723.752 833.617,-702.624"/>
<polygon fill="midnightblue" stroke="midnightblue" points="836.558,-704.545 839.963,-694.512 831.045,-700.232 836.558,-704.545"/>
</g>
<!-- Node8&#45;&gt;Node4 -->
<g id="edge9" class="edge"><title>Node8&#45;&gt;Node4</title>
<path fill="none" stroke="midnightblue" d="M587.665,-827.356C592.902,-824.654 598.319,-821.49 603,-818 621.651,-804.094 619.428,-792.576 639,-780 645.303,-775.95 652.566,-772.659 659.718,-770.025"/>
<polygon fill="midnightblue" stroke="midnightblue" points="660.92,-773.313 669.299,-766.83 658.706,-766.673 660.92,-773.313"/>
</g>
<!-- Node8&#45;&gt;Node5 -->
<g id="edge10" class="edge"><title>Node8&#45;&gt;Node5</title>
<path fill="none" stroke="midnightblue" d="M598.052,-827.411C614.399,-822.596 634.409,-816.701 651.957,-811.532"/>
<polygon fill="midnightblue" stroke="midnightblue" points="653.355,-814.769 661.958,-808.586 651.377,-808.054 653.355,-814.769"/>
</g>
<!-- Node8&#45;&gt;Node6 -->
<g id="edge11" class="edge"><title>Node8&#45;&gt;Node6</title>
<path fill="none" stroke="midnightblue" d="M598.619,-834.765C642.424,-831.808 720.73,-826.523 777.736,-822.675"/>
<polygon fill="midnightblue" stroke="midnightblue" points="778.02,-826.164 787.761,-821.998 777.548,-819.18 778.02,-826.164"/>
</g>
<!-- Node10 -->
<g id="node10" class="node"><title>Node10</title>
<g id="a_node10"><a xlink:href="namespacetlz.html#a8cba4853d0d796a01c72f59f36f2a492" target="_top" xlink:title="tlz::decode_intrinsics">
<polygon fill="white" stroke="black" points="244,-675.5 244,-694.5 353,-694.5 353,-675.5 244,-675.5"/>
<text text-anchor="middle" x="298.5" y="-682.5" font-family="Helvetica,sans-Serif" font-size="10.00">tlz::decode_intrinsics</text>
</a>
</g>
</g>
<!-- Node9&#45;&gt;Node10 -->
<g id="edge13" class="edge"><title>Node9&#45;&gt;Node10</title>
<path fill="none" stroke="midnightblue" d="M186.56,-685C201.21,-685 217.796,-685 233.594,-685"/>
<polygon fill="midnightblue" stroke="midnightblue" points="233.834,-688.5 243.833,-685 233.833,-681.5 233.834,-688.5"/>
</g>
<!-- Node14 -->
<g id="node14" class="node"><title>Node14</title>
<g id="a_node14"><a xlink:href="namespacetlz.html#a35f9e03fa4fd9cec699f5fa27962400f" target="_top" xlink:title="tlz::json_arg">
<polygon fill="white" stroke="black" points="263.5,-751.5 263.5,-770.5 333.5,-770.5 333.5,-751.5 263.5,-751.5"/>
<text text-anchor="middle" x="298.5" y="-758.5" font-family="Helvetica,sans-Serif" font-size="10.00">tlz::json_arg</text>
</a>
</g>
</g>
<!-- Node9&#45;&gt;Node14 -->
<g id="edge18" class="edge"><title>Node9&#45;&gt;Node14</title>
<path fill="none" stroke="midnightblue" d="M161.694,-694.625C188.801,-707.874 237.782,-731.813 268.919,-747.031"/>
<polygon fill="midnightblue" stroke="midnightblue" points="267.444,-750.206 277.966,-751.453 270.518,-743.917 267.444,-750.206"/>
</g>
<!-- Node11 -->
<g id="node11" class="node"><title>Node11</title>
<g id="a_node11"><a xlink:href="namespacetlz.html#a066563a26e2de02f215b179f3d3a53da" target="_top" xlink:title="tlz::decode_mat">
<polygon fill="white" stroke="black" points="396.5,-713.5 396.5,-732.5 482.5,-732.5 482.5,-713.5 396.5,-713.5"/>
<text text-anchor="middle" x="439.5" y="-720.5" font-family="Helvetica,sans-Serif" font-size="10.00">tlz::decode_mat</text>
</a>
</g>
</g>
<!-- Node10&#45;&gt;Node11 -->
<g id="edge14" class="edge"><title>Node10&#45;&gt;Node11</title>
<path fill="none" stroke="midnightblue" d="M334.576,-694.589C352.519,-699.494 374.558,-705.52 393.717,-710.757"/>
<polygon fill="midnightblue" stroke="midnightblue" points="392.867,-714.153 403.436,-713.414 394.713,-707.401 392.867,-714.153"/>
</g>
<!-- Node12 -->
<g id="node12" class="node"><title>Node12</title>
<g id="a_node12"><a xlink:href="namespacetlz.html#a252af14b9b4ac6502d3e9c5dd8dc90b8" target="_top" xlink:title="tlz::has">
<polygon fill="white" stroke="black" points="540,-637.5 540,-656.5 589,-656.5 589,-637.5 540,-637.5"/>
<text text-anchor="middle" x="564.5" y="-644.5" font-family="Helvetica,sans-Serif" font-size="10.00">tlz::has</text>
</a>
</g>
</g>
<!-- Node10&#45;&gt;Node12 -->
<g id="edge15" class="edge"><title>Node10&#45;&gt;Node12</title>
<path fill="none" stroke="midnightblue" d="M353.176,-681.856C391.51,-679.074 444.189,-674.156 490,-666 503.179,-663.654 517.469,-660.179 529.915,-656.84"/>
<polygon fill="midnightblue" stroke="midnightblue" points="531.16,-660.127 539.87,-654.095 529.3,-653.379 531.16,-660.127"/>
</g>
<!-- Node13 -->
<g id="node13" class="node"><title>Node13</title>
<g id="a_node13"><a xlink:href="namespacetlz.html#add846dc50c32dfb356cb1a7ac11d37ac" target="_top" xlink:title="tlz::get_or">
<polygon fill="white" stroke="black" points="409.5,-637.5 409.5,-656.5 469.5,-656.5 469.5,-637.5 409.5,-637.5"/>
<text text-anchor="middle" x="439.5" y="-644.5" font-family="Helvetica,sans-Serif" font-size="10.00">tlz::get_or</text>
</a>
</g>
</g>
<!-- Node10&#45;&gt;Node13 -->
<g id="edge16" class="edge"><title>Node10&#45;&gt;Node13</title>
<path fill="none" stroke="midnightblue" d="M334.576,-675.411C354.253,-670.032 378.855,-663.306 399.182,-657.749"/>
<polygon fill="midnightblue" stroke="midnightblue" points="400.352,-661.058 409.075,-655.044 398.506,-654.305 400.352,-661.058"/>
</g>
<!-- Node13&#45;&gt;Node12 -->
<g id="edge17" class="edge"><title>Node13&#45;&gt;Node12</title>
<path fill="none" stroke="midnightblue" d="M469.649,-647C487.667,-647 510.865,-647 529.689,-647"/>
<polygon fill="midnightblue" stroke="midnightblue" points="529.914,-650.5 539.914,-647 529.914,-643.5 529.914,-650.5"/>
</g>
<!-- Node15 -->
<g id="node15" class="node"><title>Node15</title>
<g id="a_node15"><a xlink:href="namespacetlz.html#aa1be9362f548fcf9378e1fc9074089c4" target="_top" xlink:title="tlz::import_json_file">
<polygon fill="white" stroke="black" points="389,-751.5 389,-770.5 490,-770.5 490,-751.5 389,-751.5"/>
<text text-anchor="middle" x="439.5" y="-758.5" font-family="Helvetica,sans-Serif" font-size="10.00">tlz::import_json_file</text>
</a>
</g>
</g>
<!-- Node14&#45;&gt;Node15 -->
<g id="edge19" class="edge"><title>Node14&#45;&gt;Node15</title>
<path fill="none" stroke="midnightblue" d="M333.503,-761C347.151,-761 363.295,-761 378.778,-761"/>
<polygon fill="midnightblue" stroke="midnightblue" points="378.825,-764.5 388.825,-761 378.825,-757.5 378.825,-764.5"/>
</g>
<!-- Node16 -->
<g id="node16" class="node"><title>Node16</title>
<g id="a_node16"><a xlink:href="namespacetlz.html#a634de7ca11e100e4a118dffe80376a75" target="_top" xlink:title="tlz::in_filename_arg">
<polygon fill="white" stroke="black" points="389,-789.5 389,-808.5 490,-808.5 490,-789.5 389,-789.5"/>
<text text-anchor="middle" x="439.5" y="-796.5" font-family="Helvetica,sans-Serif" font-size="10.00">tlz::in_filename_arg</text>
</a>
</g>
</g>
<!-- Node14&#45;&gt;Node16 -->
<g id="edge20" class="edge"><title>Node14&#45;&gt;Node16</title>
<path fill="none" stroke="midnightblue" d="M333.503,-770.296C351.572,-775.236 374.016,-781.371 393.51,-786.701"/>
<polygon fill="midnightblue" stroke="midnightblue" points="392.827,-790.142 403.396,-789.403 394.673,-783.39 392.827,-790.142"/>
</g>
<!-- Node16&#45;&gt;Node4 -->
<g id="edge25" class="edge"><title>Node16&#45;&gt;Node4</title>
<path fill="none" stroke="midnightblue" d="M479.488,-789.419C494.021,-786.09 510.702,-782.555 526,-780 571.787,-772.353 625.099,-766.918 659.293,-763.871"/>
<polygon fill="midnightblue" stroke="midnightblue" points="659.604,-767.357 669.262,-763.002 658.996,-760.384 659.604,-767.357"/>
</g>
<!-- Node16&#45;&gt;Node6 -->
<g id="edge26" class="edge"><title>Node16&#45;&gt;Node6</title>
<path fill="none" stroke="midnightblue" d="M465.736,-789.472C473.533,-786.485 482.137,-783.146 490,-780 506.093,-773.56 509.43,-770.086 526,-765 622.519,-735.376 656.728,-708.58 752,-742 785.161,-753.632 815.345,-782.246 832.415,-800.855"/>
<polygon fill="midnightblue" stroke="midnightblue" points="829.839,-803.225 839.099,-808.372 835.07,-798.573 829.839,-803.225"/>
</g>
<!-- Node17 -->
<g id="node17" class="node"><title>Node17</title>
<g id="a_node17"><a xlink:href="namespacetlz.html#a0621d598fb83b13bf028f3e6293d04f8" target="_top" xlink:title="tlz::string_arg">
<polygon fill="white" stroke="black" points="526.5,-789.5 526.5,-808.5 602.5,-808.5 602.5,-789.5 526.5,-789.5"/>
<text text-anchor="middle" x="564.5" y="-796.5" font-family="Helvetica,sans-Serif" font-size="10.00">tlz::string_arg</text>
</a>
</g>
</g>
<!-- Node16&#45;&gt;Node17 -->
<g id="edge21" class="edge"><title>Node16&#45;&gt;Node17</title>
<path fill="none" stroke="midnightblue" d="M490.174,-799C498.706,-799 507.554,-799 516.027,-799"/>
<polygon fill="midnightblue" stroke="midnightblue" points="516.129,-802.5 526.129,-799 516.129,-795.5 516.129,-802.5"/>
</g>
<!-- Node18 -->
<g id="node18" class="node"><title>Node18</title>
<g id="a_node18"><a xlink:href="namespacetlz.html#abb019466ea9f56c0dab27e893d891837" target="_top" xlink:title="tlz::file_exists">
<polygon fill="white" stroke="black" points="526,-675.5 526,-694.5 603,-694.5 603,-675.5 526,-675.5"/>
<text text-anchor="middle" x="564.5" y="-682.5" font-family="Helvetica,sans-Serif" font-size="10.00">tlz::file_exists</text>
</a>
</g>
</g>
<!-- Node16&#45;&gt;Node18 -->
<g id="edge24" class="edge"><title>Node16&#45;&gt;Node18</title>
<path fill="none" stroke="midnightblue" d="M475.396,-789.39C480.674,-786.909 485.762,-783.823 490,-780 516.269,-756.3 502.265,-735.237 526,-709 528.859,-705.84 532.225,-702.928 535.748,-700.304"/>
<polygon fill="midnightblue" stroke="midnightblue" points="537.723,-703.193 544.086,-694.722 533.829,-697.377 537.723,-703.193"/>
</g>
<!-- Node17&#45;&gt;Node4 -->
<g id="edge22" class="edge"><title>Node17&#45;&gt;Node4</title>
<path fill="none" stroke="midnightblue" d="M598.052,-789.411C616.78,-783.894 640.314,-776.962 659.447,-771.326"/>
<polygon fill="midnightblue" stroke="midnightblue" points="660.679,-774.611 669.283,-768.428 658.701,-767.897 660.679,-774.611"/>
</g>
<!-- Node17&#45;&gt;Node5 -->
<g id="edge23" class="edge"><title>Node17&#45;&gt;Node5</title>
<path fill="none" stroke="midnightblue" d="M602.812,-799C610.835,-799 619.544,-799 628.295,-799"/>
<polygon fill="midnightblue" stroke="midnightblue" points="628.549,-802.5 638.549,-799 628.549,-795.5 628.549,-802.5"/>
</g>
<!-- Node22 -->
<g id="node22" class="node"><title>Node22</title>
<g id="a_node22"><a xlink:href="classtlz_1_1viewer.html#af74a8aef9dde68eeff6b1e2561b39014" target="_top" xlink:title="tlz::viewer::height">
<polygon fill="white" stroke="black" points="251.5,-502.5 251.5,-521.5 345.5,-521.5 345.5,-502.5 251.5,-502.5"/>
<text text-anchor="middle" x="298.5" y="-509.5" font-family="Helvetica,sans-Serif" font-size="10.00">tlz::viewer::height</text>
</a>
</g>
</g>
<!-- Node21&#45;&gt;Node22 -->
<g id="edge30" class="edge"><title>Node21&#45;&gt;Node22</title>
<path fill="none" stroke="midnightblue" d="M185.729,-512C202.93,-512 222.899,-512 241.159,-512"/>
<polygon fill="midnightblue" stroke="midnightblue" points="241.387,-515.5 251.387,-512 241.387,-508.5 241.387,-515.5"/>
</g>
<!-- Node23 -->
<g id="node23" class="node"><title>Node23</title>
<g id="a_node23"><a xlink:href="classtlz_1_1viewer.html#acc43bf1dd1d0c3cdc35a948d4c194769" target="_top" xlink:title="tlz::viewer::width">
<polygon fill="white" stroke="black" points="253,-464.5 253,-483.5 344,-483.5 344,-464.5 253,-464.5"/>
<text text-anchor="middle" x="298.5" y="-471.5" font-family="Helvetica,sans-Serif" font-size="10.00">tlz::viewer::width</text>
</a>
</g>
</g>
<!-- Node21&#45;&gt;Node23 -->
<g id="edge31" class="edge"><title>Node21&#45;&gt;Node23</title>
<path fill="none" stroke="midnightblue" d="M181.239,-502.411C201.759,-497.396 227.067,-491.212 248.825,-485.895"/>
<polygon fill="midnightblue" stroke="midnightblue" points="249.66,-489.294 258.543,-483.52 247.998,-482.494 249.66,-489.294"/>
</g>
<!-- Node26 -->
<g id="node26" class="node"><title>Node26</title>
<g id="a_node26"><a xlink:href="structtlz_1_1checkerboard.html#a44b150a25091e74cfaec42635d392369" target="_top" xlink:title="tlz::checkerboard::\lcheckerboard">
<polygon fill="white" stroke="black" points="249.5,-393 249.5,-423 347.5,-423 347.5,-393 249.5,-393"/>
<text text-anchor="start" x="257.5" y="-411" font-family="Helvetica,sans-Serif" font-size="10.00">tlz::checkerboard::</text>
<text text-anchor="middle" x="298.5" y="-400" font-family="Helvetica,sans-Serif" font-size="10.00">checkerboard</text>
</a>
</g>
</g>
<!-- Node25&#45;&gt;Node26 -->
<g id="edge34" class="edge"><title>Node25&#45;&gt;Node26</title>
<path fill="none" stroke="midnightblue" d="M208.397,-395.394C218.567,-396.833 229.002,-398.309 238.986,-399.721"/>
<polygon fill="midnightblue" stroke="midnightblue" points="238.804,-403.231 249.196,-401.166 239.785,-396.3 238.804,-403.231"/>
</g>
<!-- Node27 -->
<g id="node27" class="node"><title>Node27</title>
<g id="a_node27"><a xlink:href="structtlz_1_1checkerboard.html#aa0961b41552bc73fc4f75d2dca128637" target="_top" xlink:title="tlz::checkerboard::\lcorner">
<polygon fill="white" stroke="black" points="249.5,-344 249.5,-374 347.5,-374 347.5,-344 249.5,-344"/>
<text text-anchor="start" x="257.5" y="-362" font-family="Helvetica,sans-Serif" font-size="10.00">tlz::checkerboard::</text>
<text text-anchor="middle" x="298.5" y="-351" font-family="Helvetica,sans-Serif" font-size="10.00">corner</text>
</a>
</g>
</g>
<!-- Node25&#45;&gt;Node27 -->
<g id="edge35" class="edge"><title>Node25&#45;&gt;Node27</title>
<path fill="none" stroke="midnightblue" d="M196.823,-376.481C210.614,-374.086 225.462,-371.508 239.407,-369.087"/>
<polygon fill="midnightblue" stroke="midnightblue" points="240.12,-372.516 249.374,-367.356 238.922,-365.619 240.12,-372.516"/>
</g>
<!-- Node32 -->
<g id="node32" class="node"><title>Node32</title>
<g id="a_node32"><a xlink:href="namespacetlz.html#a643b2d03bd805fe78dcd684ef45e52fb" target="_top" xlink:title="Clamp value between minimum and maximum value. ">
<polygon fill="white" stroke="black" points="269,-228.5 269,-247.5 328,-247.5 328,-228.5 269,-228.5"/>
<text text-anchor="middle" x="298.5" y="-235.5" font-family="Helvetica,sans-Serif" font-size="10.00">tlz::clamp</text>
</a>
</g>
</g>
<!-- Node31&#45;&gt;Node32 -->
<g id="edge40" class="edge"><title>Node31&#45;&gt;Node32</title>
<path fill="none" stroke="midnightblue" d="M163.296,-205.204C187.882,-211.212 228.81,-221.214 259.016,-228.596"/>
<polygon fill="midnightblue" stroke="midnightblue" points="258.265,-232.015 268.81,-230.989 259.926,-225.215 258.265,-232.015"/>
</g>
<!-- Node33 -->
<g id="node33" class="node"><title>Node33</title>
<g id="a_node33"><a xlink:href="namespacetlz.html#a4fe5757a830e199f84d229eee11f616e" target="_top" xlink:title="Compute greatest common divisor of a and b. ">
<polygon fill="white" stroke="black" points="274,-190.5 274,-209.5 323,-209.5 323,-190.5 274,-190.5"/>
<text text-anchor="middle" x="298.5" y="-197.5" font-family="Helvetica,sans-Serif" font-size="10.00">tlz::gcd</text>
</a>
</g>
</g>
<!-- Node31&#45;&gt;Node33 -->
<g id="edge41" class="edge"><title>Node31&#45;&gt;Node33</title>
<path fill="none" stroke="midnightblue" d="M163.296,-200C189.189,-200 233.207,-200 263.738,-200"/>
<polygon fill="midnightblue" stroke="midnightblue" points="263.923,-203.5 273.923,-200 263.922,-196.5 263.923,-203.5"/>
</g>
<!-- Node34 -->
<g id="node34" class="node"><title>Node34</title>
<g id="a_node34"><a xlink:href="namespacetlz.html#aec6e2158ce198aa20a8493fde3d3b552" target="_top" xlink:title="Compute least common multiple of a and b. ">
<polygon fill="white" stroke="black" points="274,-152.5 274,-171.5 323,-171.5 323,-152.5 274,-152.5"/>
<text text-anchor="middle" x="298.5" y="-159.5" font-family="Helvetica,sans-Serif" font-size="10.00">tlz::lcm</text>
</a>
</g>
</g>
<!-- Node31&#45;&gt;Node34 -->
<g id="edge42" class="edge"><title>Node31&#45;&gt;Node34</title>
<path fill="none" stroke="midnightblue" d="M163.296,-194.796C189.302,-188.441 233.591,-177.618 264.137,-170.153"/>
<polygon fill="midnightblue" stroke="midnightblue" points="265.039,-173.536 273.923,-167.762 263.377,-166.736 265.039,-173.536"/>
</g>
<!-- Node37&#45;&gt;Node22 -->
<g id="edge47" class="edge"><title>Node37&#45;&gt;Node22</title>
<path fill="none" stroke="midnightblue" d="M181.239,-483.589C201.759,-488.604 227.067,-494.788 248.825,-500.105"/>
<polygon fill="midnightblue" stroke="midnightblue" points="247.998,-503.506 258.543,-502.48 249.66,-496.706 247.998,-503.506"/>
</g>
<!-- Node37&#45;&gt;Node23 -->
<g id="edge46" class="edge"><title>Node37&#45;&gt;Node23</title>
<path fill="none" stroke="midnightblue" d="M185.729,-474C203.389,-474 223.966,-474 242.616,-474"/>
<polygon fill="midnightblue" stroke="midnightblue" points="242.749,-477.5 252.749,-474 242.749,-470.5 242.749,-477.5"/>
</g>
</g>
</svg>
