<?xml version="1.0" encoding="UTF-8" standalone="no"?>
<!DOCTYPE svg PUBLIC "-//W3C//DTD SVG 1.1//EN"
 "http://www.w3.org/Graphics/SVG/1.1/DTD/svg11.dtd">
<!-- Generated by graphviz version 2.38.0 (20140413.2041)
 -->
<!-- Title: main Pages: 1 -->
<svg width="783pt" height="890pt"
 viewBox="0.00 0.00 783.00 889.84" xmlns="http://www.w3.org/2000/svg" xmlns:xlink="http://www.w3.org/1999/xlink">
<g id="graph0" class="graph" transform="scale(1 1) rotate(0) translate(4 885.836)">
<title>main</title>
<polygon fill="white" stroke="none" points="-4,4 -4,-885.836 779,-885.836 779,4 -4,4"/>
<!-- Node1 -->
<g id="node1" class="node"><title>Node1</title>
<polygon fill="#bfbfbf" stroke="black" points="0,-345.5 0,-364.5 38,-364.5 38,-345.5 0,-345.5"/>
<text text-anchor="middle" x="19" y="-352.5" font-family="Helvetica,sans-Serif" font-size="10.00">main</text>
</g>
<!-- Node2 -->
<g id="node2" class="node"><title>Node2</title>
<g id="a_node2"><a xlink:href="namespacetlz.html#a3c03f5d9d6261ec2909938822fc47f8a" target="_top" xlink:title="tlz::get_args">
<polygon fill="white" stroke="black" points="100.5,-746.5 100.5,-765.5 171.5,-765.5 171.5,-746.5 100.5,-746.5"/>
<text text-anchor="middle" x="136" y="-753.5" font-family="Helvetica,sans-Serif" font-size="10.00">tlz::get_args</text>
</a>
</g>
</g>
<!-- Node1&#45;&gt;Node2 -->
<g id="edge1" class="edge"><title>Node1&#45;&gt;Node2</title>
<path fill="none" stroke="midnightblue" d="M20.0157,-364.55C20.2939,-417.87 24.2145,-678.446 74,-737 78.4895,-742.28 84.4215,-746.115 90.8243,-748.895"/>
<polygon fill="midnightblue" stroke="midnightblue" points="89.8341,-752.256 100.429,-752.259 92.1481,-745.65 89.8341,-752.256"/>
</g>
<!-- Node3 -->
<g id="node3" class="node"><title>Node3</title>
<g id="a_node3"><a xlink:href="namespacetlz.html#a8d3380a8873e542207e21a4384957425" target="_top" xlink:title="tlz::string_opt_arg">
<polygon fill="white" stroke="black" points="88.5,-708.5 88.5,-727.5 183.5,-727.5 183.5,-708.5 88.5,-708.5"/>
<text text-anchor="middle" x="136" y="-715.5" font-family="Helvetica,sans-Serif" font-size="10.00">tlz::string_opt_arg</text>
</a>
</g>
</g>
<!-- Node1&#45;&gt;Node3 -->
<g id="edge2" class="edge"><title>Node1&#45;&gt;Node3</title>
<path fill="none" stroke="midnightblue" d="M20.0557,-364.544C20.6199,-402.159 26.001,-543.068 74,-645 84.2343,-666.734 102.531,-687.337 116.425,-701.077"/>
<polygon fill="midnightblue" stroke="midnightblue" points="114.358,-703.944 124.002,-708.331 119.199,-698.888 114.358,-703.944"/>
</g>
<!-- Node12 -->
<g id="node12" class="node"><title>Node12</title>
<g id="a_node12"><a xlink:href="namespacetlz.html#a401e3de191fb11547a91972b97244c3a" target="_top" xlink:title="tlz::out_dirname_opt_arg">
<polygon fill="white" stroke="black" points="74,-616.5 74,-635.5 198,-635.5 198,-616.5 74,-616.5"/>
<text text-anchor="middle" x="136" y="-623.5" font-family="Helvetica,sans-Serif" font-size="10.00">tlz::out_dirname_opt_arg</text>
</a>
</g>
</g>
<!-- Node1&#45;&gt;Node12 -->
<g id="edge15" class="edge"><title>Node1&#45;&gt;Node12</title>
<path fill="none" stroke="midnightblue" d="M20.7837,-364.646C24.3522,-406.283 40.3618,-570.158 74,-607 75.2083,-608.323 76.5071,-609.555 77.8801,-610.702"/>
<polygon fill="midnightblue" stroke="midnightblue" points="76.1745,-613.771 86.4421,-616.384 80.0452,-607.939 76.1745,-613.771"/>
</g>
<!-- Node15 -->
<g id="node15" class="node"><title>Node15</title>
<g id="a_node15"><a xlink:href="classtlz_1_1viewer.html#a2bf9d63d7a1a5ec4d5bdabc13d9ab688" target="_top" xlink:title="tlz::viewer::add_int\l_slider">
<polygon fill="white" stroke="black" points="86.5,-567 86.5,-597 185.5,-597 185.5,-567 86.5,-567"/>
<text text-anchor="start" x="94.5" y="-585" font-family="Helvetica,sans-Serif" font-size="10.00">tlz::viewer::add_int</text>
<text text-anchor="middle" x="136" y="-574" font-family="Helvetica,sans-Serif" font-size="10.00">_slider</text>
</a>
</g>
</g>
<!-- Node1&#45;&gt;Node15 -->
<g id="edge24" class="edge"><title>Node1&#45;&gt;Node15</title>
<path fill="none" stroke="midnightblue" d="M19.7401,-364.818C19.4282,-396.706 22.6871,-498.675 74,-557 75.1954,-558.359 76.4759,-559.645 77.8263,-560.863"/>
<polygon fill="midnightblue" stroke="midnightblue" points="76.1095,-563.948 86.2211,-567.111 80.2891,-558.333 76.1095,-563.948"/>
</g>
<!-- Node16 -->
<g id="node16" class="node"><title>Node16</title>
<g id="a_node16"><a xlink:href="classtlz_1_1grabber.html#a14d256bd7ef0af5be70f2bd7713a7e54" target="_top" xlink:title="tlz::grabber::grab">
<polygon fill="white" stroke="black" points="91,-528.5 91,-547.5 181,-547.5 181,-528.5 91,-528.5"/>
<text text-anchor="middle" x="136" y="-535.5" font-family="Helvetica,sans-Serif" font-size="10.00">tlz::grabber::grab</text>
</a>
</g>
</g>
<!-- Node1&#45;&gt;Node16 -->
<g id="edge25" class="edge"><title>Node1&#45;&gt;Node16</title>
<path fill="none" stroke="midnightblue" d="M20.5401,-364.651C22.5679,-391.833 31.9505,-469.907 74,-514 77.6374,-517.814 81.9552,-521.034 86.588,-523.749"/>
<polygon fill="midnightblue" stroke="midnightblue" points="85.2828,-527.01 95.7896,-528.373 88.4259,-520.756 85.2828,-527.01"/>
</g>
<!-- Node17 -->
<g id="node17" class="node"><title>Node17</title>
<g id="a_node17"><a xlink:href="classtlz_1_1viewer.html#a0ad9ee28b8127c63b2886b04fb36e3dc" target="_top" xlink:title="tlz::viewer::clear">
<polygon fill="white" stroke="black" points="242.5,-402.5 242.5,-421.5 331.5,-421.5 331.5,-402.5 242.5,-402.5"/>
<text text-anchor="middle" x="287" y="-409.5" font-family="Helvetica,sans-Serif" font-size="10.00">tlz::viewer::clear</text>
</a>
</g>
</g>
<!-- Node1&#45;&gt;Node17 -->
<g id="edge26" class="edge"><title>Node1&#45;&gt;Node17</title>
<path fill="none" stroke="midnightblue" d="M26.7429,-364.502C35.8807,-376.487 53.4379,-396.548 74,-405 124.717,-425.846 188.157,-424.81 232.362,-420.295"/>
<polygon fill="midnightblue" stroke="midnightblue" points="232.776,-423.771 242.327,-419.185 232.001,-416.814 232.776,-423.771"/>
</g>
<!-- Node20 -->
<g id="node20" class="node"><title>Node20</title>
<g id="a_node20"><a xlink:href="classtlz_1_1grabber.html#a64e9af7d0c0e982539c7465f4c8c2755" target="_top" xlink:title="tlz::grabber::get_color\l_frame">
<polygon fill="white" stroke="black" points="80.5,-365 80.5,-395 191.5,-395 191.5,-365 80.5,-365"/>
<text text-anchor="start" x="88.5" y="-383" font-family="Helvetica,sans-Serif" font-size="10.00">tlz::grabber::get_color</text>
<text text-anchor="middle" x="136" y="-372" font-family="Helvetica,sans-Serif" font-size="10.00">_frame</text>
</a>
</g>
</g>
<!-- Node1&#45;&gt;Node20 -->
<g id="edge29" class="edge"><title>Node1&#45;&gt;Node20</title>
<path fill="none" stroke="midnightblue" d="M38.2221,-358.961C47.1779,-360.908 58.5688,-363.385 70.3666,-365.949"/>
<polygon fill="midnightblue" stroke="midnightblue" points="69.8126,-369.411 80.3279,-368.115 71.2996,-362.57 69.8126,-369.411"/>
</g>
<!-- Node21 -->
<g id="node21" class="node"><title>Node21</title>
<g id="a_node21"><a xlink:href="classtlz_1_1grabber.html#ac0436df6301b3b5773d06c499d946fbb" target="_top" xlink:title="tlz::grabber::get_original\l_ir_frame">
<polygon fill="white" stroke="black" points="75.5,-316 75.5,-346 196.5,-346 196.5,-316 75.5,-316"/>
<text text-anchor="start" x="83.5" y="-334" font-family="Helvetica,sans-Serif" font-size="10.00">tlz::grabber::get_original</text>
<text text-anchor="middle" x="136" y="-323" font-family="Helvetica,sans-Serif" font-size="10.00">_ir_frame</text>
</a>
</g>
</g>
<!-- Node1&#45;&gt;Node21 -->
<g id="edge30" class="edge"><title>Node1&#45;&gt;Node21</title>
<path fill="none" stroke="midnightblue" d="M38.2221,-351.197C45.8696,-349.601 55.2928,-347.635 65.2288,-345.561"/>
<polygon fill="midnightblue" stroke="midnightblue" points="66.2148,-348.931 75.2888,-343.461 64.7847,-342.078 66.2148,-348.931"/>
</g>
<!-- Node22 -->
<g id="node22" class="node"><title>Node22</title>
<g id="a_node22"><a xlink:href="classtlz_1_1grabber.html#a22caa426aef0275c5cdf9bfebe352940" target="_top" xlink:title="tlz::grabber::get_depth\l_frame">
<polygon fill="white" stroke="black" points="79,-267 79,-297 193,-297 193,-267 79,-267"/>
<text text-anchor="start" x="87" y="-285" font-family="Helvetica,sans-Serif" font-size="10.00">tlz::grabber::get_depth</text>
<text text-anchor="middle" x="136" y="-274" font-family="Helvetica,sans-Serif" font-size="10.00">_frame</text>
</a>
</g>
</g>
<!-- Node1&#45;&gt;Node22 -->
<g id="edge31" class="edge"><title>Node1&#45;&gt;Node22</title>
<path fill="none" stroke="midnightblue" d="M28.7795,-345.46C38.8733,-334.932 56.3342,-318.021 74,-307 77.0952,-305.069 80.3653,-303.231 83.7187,-301.493"/>
<polygon fill="midnightblue" stroke="midnightblue" points="85.2521,-304.64 92.7274,-297.132 82.2016,-298.339 85.2521,-304.64"/>
</g>
<!-- Node23 -->
<g id="node23" class="node"><title>Node23</title>
<g id="a_node23"><a xlink:href="classtlz_1_1viewer.html#a5f0412cff89a343ad52431689502389d" target="_top" xlink:title="tlz::viewer::draw">
<polygon fill="white" stroke="black" points="242.5,-490.5 242.5,-509.5 331.5,-509.5 331.5,-490.5 242.5,-490.5"/>
<text text-anchor="middle" x="287" y="-497.5" font-family="Helvetica,sans-Serif" font-size="10.00">tlz::viewer::draw</text>
</a>
</g>
</g>
<!-- Node1&#45;&gt;Node23 -->
<g id="edge32" class="edge"><title>Node1&#45;&gt;Node23</title>
<path fill="none" stroke="midnightblue" d="M20.8737,-364.598C23.6381,-388.787 34.5099,-452.349 74,-481 119.465,-513.985 185.681,-514.498 231.977,-509.471"/>
<polygon fill="midnightblue" stroke="midnightblue" points="232.612,-512.92 242.121,-508.247 231.774,-505.971 232.612,-512.92"/>
</g>
<!-- Node24 -->
<g id="node24" class="node"><title>Node24</title>
<g id="a_node24"><a xlink:href="classtlz_1_1viewer.html#adef64a6ebf1391fd02c1231b9fde281f" target="_top" xlink:title="tlz::viewer::visualize_ir">
<polygon fill="white" stroke="black" points="78,-228.5 78,-247.5 194,-247.5 194,-228.5 78,-228.5"/>
<text text-anchor="middle" x="136" y="-235.5" font-family="Helvetica,sans-Serif" font-size="10.00">tlz::viewer::visualize_ir</text>
</a>
</g>
</g>
<!-- Node1&#45;&gt;Node24 -->
<g id="edge35" class="edge"><title>Node1&#45;&gt;Node24</title>
<path fill="none" stroke="midnightblue" d="M22.7064,-345.474C28.687,-326.129 44.8604,-282.041 74,-258 76.704,-255.769 79.6643,-253.785 82.7772,-252.019"/>
<polygon fill="midnightblue" stroke="midnightblue" points="84.4022,-255.121 91.8678,-247.604 81.3436,-248.825 84.4022,-255.121"/>
</g>
<!-- Node25 -->
<g id="node25" class="node"><title>Node25</title>
<g id="a_node25"><a xlink:href="classtlz_1_1viewer.html#a7f8bb5582e18ad278881cc065d7c21fa" target="_top" xlink:title="tlz::viewer::draw_depth">
<polygon fill="white" stroke="black" points="77,-452.5 77,-471.5 195,-471.5 195,-452.5 77,-452.5"/>
<text text-anchor="middle" x="136" y="-459.5" font-family="Helvetica,sans-Serif" font-size="10.00">tlz::viewer::draw_depth</text>
</a>
</g>
</g>
<!-- Node1&#45;&gt;Node25 -->
<g id="edge36" class="edge"><title>Node1&#45;&gt;Node25</title>
<path fill="none" stroke="midnightblue" d="M23.8708,-364.588C31.2057,-381.632 48.6932,-417.35 74,-438 78.9763,-442.061 84.7233,-445.497 90.6591,-448.388"/>
<polygon fill="midnightblue" stroke="midnightblue" points="89.4938,-451.698 100.059,-452.492 92.2946,-445.283 89.4938,-451.698"/>
</g>
<!-- Node27 -->
<g id="node27" class="node"><title>Node27</title>
<g id="a_node27"><a xlink:href="classtlz_1_1grabber.html#a412843d3f5dbbcb179e5ae4709577b91" target="_top" xlink:title="tlz::grabber::release">
<polygon fill="white" stroke="black" points="84.5,-190.5 84.5,-209.5 187.5,-209.5 187.5,-190.5 84.5,-190.5"/>
<text text-anchor="middle" x="136" y="-197.5" font-family="Helvetica,sans-Serif" font-size="10.00">tlz::grabber::release</text>
</a>
</g>
</g>
<!-- Node1&#45;&gt;Node27 -->
<g id="edge39" class="edge"><title>Node1&#45;&gt;Node27</title>
<path fill="none" stroke="midnightblue" d="M21.0275,-345.173C24.153,-320.314 35.8021,-254.399 74,-219 75.6856,-217.438 77.4979,-216.004 79.4054,-214.688"/>
<polygon fill="midnightblue" stroke="midnightblue" points="81.318,-217.627 88.2803,-209.641 77.8575,-211.542 81.318,-217.627"/>
</g>
<!-- Node28 -->
<g id="node28" class="node"><title>Node28</title>
<g id="a_node28"><a xlink:href="classtlz_1_1viewer.html#aabb3cdde75783ed1a41801fb236bc50e" target="_top" xlink:title="tlz::viewer::show">
<polygon fill="white" stroke="black" points="90.5,-152.5 90.5,-171.5 181.5,-171.5 181.5,-152.5 90.5,-152.5"/>
<text text-anchor="middle" x="136" y="-159.5" font-family="Helvetica,sans-Serif" font-size="10.00">tlz::viewer::show</text>
</a>
</g>
</g>
<!-- Node1&#45;&gt;Node28 -->
<g id="edge40" class="edge"><title>Node1&#45;&gt;Node28</title>
<path fill="none" stroke="midnightblue" d="M20.0468,-345.138C20.7337,-315.804 26.8331,-228.216 74,-181 76.2403,-178.757 78.7406,-176.779 81.415,-175.033"/>
<polygon fill="midnightblue" stroke="midnightblue" points="83.2706,-178.01 90.4435,-170.212 79.9736,-171.835 83.2706,-178.01"/>
</g>
<!-- Node29 -->
<g id="node29" class="node"><title>Node29</title>
<g id="a_node29"><a xlink:href="namespacetlz.html#a900203d2262fb0fc765dc70a2ac06a10" target="_top" xlink:title="tlz::filename_append">
<polygon fill="white" stroke="black" points="82.5,-114.5 82.5,-133.5 189.5,-133.5 189.5,-114.5 82.5,-114.5"/>
<text text-anchor="middle" x="136" y="-121.5" font-family="Helvetica,sans-Serif" font-size="10.00">tlz::filename_append</text>
</a>
</g>
</g>
<!-- Node1&#45;&gt;Node29 -->
<g id="edge41" class="edge"><title>Node1&#45;&gt;Node29</title>
<path fill="none" stroke="midnightblue" d="M21.1973,-345.4C26.032,-308.091 45.244,-173.308 74,-143 75.3742,-141.552 76.8568,-140.213 78.4256,-138.976"/>
<polygon fill="midnightblue" stroke="midnightblue" points="80.3253,-141.916 86.887,-133.597 76.5701,-136.008 80.3253,-141.916"/>
</g>
<!-- Node30 -->
<g id="node30" class="node"><title>Node30</title>
<g id="a_node30"><a xlink:href="namespacetlz.html#abef378599dee0140819b796094d46e0f" target="_top" xlink:title="tlz::save_texture">
<polygon fill="white" stroke="black" points="91.5,-76.5 91.5,-95.5 180.5,-95.5 180.5,-76.5 91.5,-76.5"/>
<text text-anchor="middle" x="136" y="-83.5" font-family="Helvetica,sans-Serif" font-size="10.00">tlz::save_texture</text>
</a>
</g>
</g>
<!-- Node1&#45;&gt;Node30 -->
<g id="edge42" class="edge"><title>Node1&#45;&gt;Node30</title>
<path fill="none" stroke="midnightblue" d="M20.7949,-345.43C24.4103,-304.12 40.5871,-141.535 74,-105 76.4317,-102.341 79.2285,-100.051 82.2585,-98.079"/>
<polygon fill="midnightblue" stroke="midnightblue" points="84.084,-101.074 91.306,-93.3215 80.8261,-94.8779 84.084,-101.074"/>
</g>
<!-- Node31 -->
<g id="node31" class="node"><title>Node31</title>
<g id="a_node31"><a xlink:href="namespacetlz.html#a368c5ff91078bfc7c2584e90c147f953" target="_top" xlink:title="tlz::save_depth">
<polygon fill="white" stroke="black" points="94.5,-38.5 94.5,-57.5 177.5,-57.5 177.5,-38.5 94.5,-38.5"/>
<text text-anchor="middle" x="136" y="-45.5" font-family="Helvetica,sans-Serif" font-size="10.00">tlz::save_depth</text>
</a>
</g>
</g>
<!-- Node1&#45;&gt;Node31 -->
<g id="edge43" class="edge"><title>Node1&#45;&gt;Node31</title>
<path fill="none" stroke="midnightblue" d="M20.5103,-345.234C23.0732,-299.828 35.9589,-109.757 74,-67 77.1116,-63.5026 80.8551,-60.642 84.9376,-58.3032"/>
<polygon fill="midnightblue" stroke="midnightblue" points="86.6954,-61.3466 94.3027,-53.9723 83.7571,-54.9931 86.6954,-61.3466"/>
</g>
<!-- Node32 -->
<g id="node32" class="node"><title>Node32</title>
<g id="a_node32"><a xlink:href="namespacetlz.html#a118330168f0a4fa1217373190a9e6018" target="_top" xlink:title="tlz::save_ir">
<polygon fill="white" stroke="black" points="103.5,-0.5 103.5,-19.5 168.5,-19.5 168.5,-0.5 103.5,-0.5"/>
<text text-anchor="middle" x="136" y="-7.5" font-family="Helvetica,sans-Serif" font-size="10.00">tlz::save_ir</text>
</a>
</g>
</g>
<!-- Node1&#45;&gt;Node32 -->
<g id="edge44" class="edge"><title>Node1&#45;&gt;Node32</title>
<path fill="none" stroke="midnightblue" d="M20.2756,-345.288C21.8529,-296.449 31.237,-78.1024 74,-29 79.2245,-23.001 86.3093,-18.872 93.802,-16.0361"/>
<polygon fill="midnightblue" stroke="midnightblue" points="94.8673,-19.3704 103.402,-13.0922 92.8148,-12.678 94.8673,-19.3704"/>
</g>
<!-- Node4 -->
<g id="node4" class="node"><title>Node4</title>
<g id="a_node4"><a xlink:href="namespacetlz.html#a780431daab8d2595372eacb43143b52d" target="_top" xlink:title="tlz::args">
<polygon fill="white" stroke="black" points="536.5,-749.5 536.5,-768.5 588.5,-768.5 588.5,-749.5 536.5,-749.5"/>
<text text-anchor="middle" x="562.5" y="-756.5" font-family="Helvetica,sans-Serif" font-size="10.00">tlz::args</text>
</a>
</g>
</g>
<!-- Node3&#45;&gt;Node4 -->
<g id="edge3" class="edge"><title>Node3&#45;&gt;Node4</title>
<path fill="none" stroke="midnightblue" d="M169.523,-727.598C188.237,-732.814 212.28,-738.998 234,-743 296.459,-754.509 312.589,-755.439 376,-759 428.092,-761.926 488.543,-761.148 525.911,-760.183"/>
<polygon fill="midnightblue" stroke="midnightblue" points="526.373,-763.672 536.272,-759.895 526.178,-756.674 526.373,-763.672"/>
</g>
<!-- Node5 -->
<g id="node5" class="node"><title>Node5</title>
<g id="a_node5"><a xlink:href="classtlz_1_1args__list.html#a4aee93f4b0d9b5b4e7a5d13cb637337c" target="_top" xlink:title="tlz::args_list::has\l_next_arg">
<polygon fill="white" stroke="black" points="241,-681 241,-711 333,-711 333,-681 241,-681"/>
<text text-anchor="start" x="249" y="-699" font-family="Helvetica,sans-Serif" font-size="10.00">tlz::args_list::has</text>
<text text-anchor="middle" x="287" y="-688" font-family="Helvetica,sans-Serif" font-size="10.00">_next_arg</text>
</a>
</g>
</g>
<!-- Node3&#45;&gt;Node5 -->
<g id="edge4" class="edge"><title>Node3&#45;&gt;Node5</title>
<path fill="none" stroke="midnightblue" d="M183.736,-711.099C198.718,-708.887 215.448,-706.417 230.966,-704.126"/>
<polygon fill="midnightblue" stroke="midnightblue" points="231.577,-707.574 240.959,-702.65 230.555,-700.649 231.577,-707.574"/>
</g>
<!-- Node6 -->
<g id="node6" class="node"><title>Node6</title>
<g id="a_node6"><a xlink:href="namespacetlz.html#a0621d598fb83b13bf028f3e6293d04f8" target="_top" xlink:title="tlz::string_arg">
<polygon fill="white" stroke="black" points="385,-730.5 385,-749.5 461,-749.5 461,-730.5 385,-730.5"/>
<text text-anchor="middle" x="423" y="-737.5" font-family="Helvetica,sans-Serif" font-size="10.00">tlz::string_arg</text>
</a>
</g>
</g>
<!-- Node3&#45;&gt;Node6 -->
<g id="edge5" class="edge"><title>Node3&#45;&gt;Node6</title>
<path fill="none" stroke="midnightblue" d="M183.743,-721.608C236.448,-725.677 321.68,-732.256 374.638,-736.344"/>
<polygon fill="midnightblue" stroke="midnightblue" points="374.54,-739.847 384.78,-737.127 375.079,-732.868 374.54,-739.847"/>
</g>
<!-- Node10 -->
<g id="node10" class="node"><title>Node10</title>
<g id="a_node10"><a xlink:href="namespacetlz.html#a634de7ca11e100e4a118dffe80376a75" target="_top" xlink:title="tlz::in_filename_arg">
<polygon fill="white" stroke="black" points="236.5,-806.5 236.5,-825.5 337.5,-825.5 337.5,-806.5 236.5,-806.5"/>
<text text-anchor="middle" x="287" y="-813.5" font-family="Helvetica,sans-Serif" font-size="10.00">tlz::in_filename_arg</text>
</a>
</g>
</g>
<!-- Node3&#45;&gt;Node10 -->
<g id="edge10" class="edge"><title>Node3&#45;&gt;Node10</title>
<path fill="none" stroke="midnightblue" d="M180.81,-727.56C186.926,-730.029 192.865,-733.124 198,-737 221.318,-754.601 211.879,-772.916 234,-792 238.329,-795.735 243.337,-799.002 248.5,-801.824"/>
<polygon fill="midnightblue" stroke="midnightblue" points="247.331,-805.15 257.848,-806.428 250.423,-798.87 247.331,-805.15"/>
</g>
<!-- Node6&#45;&gt;Node4 -->
<g id="edge6" class="edge"><title>Node6&#45;&gt;Node4</title>
<path fill="none" stroke="midnightblue" d="M461.209,-745.142C481.528,-747.949 506.539,-751.405 526.501,-754.164"/>
<polygon fill="midnightblue" stroke="midnightblue" points="526.043,-757.634 536.428,-755.535 527.001,-750.7 526.043,-757.634"/>
</g>
<!-- Node7 -->
<g id="node7" class="node"><title>Node7</title>
<g id="a_node7"><a xlink:href="classtlz_1_1args__list.html#a73d99bc75998dc14607a3a372d28dc6d" target="_top" xlink:title="tlz::args_list::next_arg">
<polygon fill="white" stroke="black" points="506,-651.5 506,-670.5 619,-670.5 619,-651.5 506,-651.5"/>
<text text-anchor="middle" x="562.5" y="-658.5" font-family="Helvetica,sans-Serif" font-size="10.00">tlz::args_list::next_arg</text>
</a>
</g>
</g>
<!-- Node6&#45;&gt;Node7 -->
<g id="edge7" class="edge"><title>Node6&#45;&gt;Node7</title>
<path fill="none" stroke="midnightblue" d="M440.586,-730.471C464.33,-716.829 508.212,-691.616 536.073,-675.609"/>
<polygon fill="midnightblue" stroke="midnightblue" points="537.928,-678.58 544.855,-670.563 534.441,-672.51 537.928,-678.58"/>
</g>
<!-- Node8 -->
<g id="node8" class="node"><title>Node8</title>
<g id="a_node8"><a xlink:href="classtlz_1_1args__list.html#a38ad21acd64a4af98ffdf4a47837cdbe" target="_top" xlink:title="tlz::args_list::usage_fail">
<polygon fill="white" stroke="black" points="655,-651.5 655,-670.5 775,-670.5 775,-651.5 655,-651.5"/>
<text text-anchor="middle" x="715" y="-658.5" font-family="Helvetica,sans-Serif" font-size="10.00">tlz::args_list::usage_fail</text>
</a>
</g>
</g>
<!-- Node7&#45;&gt;Node8 -->
<g id="edge8" class="edge"><title>Node7&#45;&gt;Node8</title>
<path fill="none" stroke="midnightblue" d="M619.113,-661C627.479,-661 636.192,-661 644.8,-661"/>
<polygon fill="midnightblue" stroke="midnightblue" points="644.828,-664.5 654.828,-661 644.828,-657.5 644.828,-664.5"/>
</g>
<!-- Node9 -->
<g id="node9" class="node"><title>Node9</title>
<g id="a_node9"><a xlink:href="namespacetlz.html#a8e4f8c8c2927bc4350de13bfa0f8f9e1" target="_top" xlink:title="tlz::to_string">
<polygon fill="white" stroke="black" points="679.5,-610.5 679.5,-629.5 750.5,-629.5 750.5,-610.5 679.5,-610.5"/>
<text text-anchor="middle" x="715" y="-617.5" font-family="Helvetica,sans-Serif" font-size="10.00">tlz::to_string</text>
</a>
</g>
</g>
<!-- Node7&#45;&gt;Node9 -->
<g id="edge9" class="edge"><title>Node7&#45;&gt;Node9</title>
<path fill="none" stroke="midnightblue" d="M598.406,-651.491C619.585,-645.721 646.819,-638.302 669.531,-632.114"/>
<polygon fill="midnightblue" stroke="midnightblue" points="670.555,-635.463 679.283,-629.458 668.715,-628.709 670.555,-635.463"/>
</g>
<!-- Node10&#45;&gt;Node4 -->
<g id="edge13" class="edge"><title>Node10&#45;&gt;Node4</title>
<path fill="none" stroke="midnightblue" d="M337.58,-812.361C374.478,-808.955 425.871,-802.735 470,-792 490.3,-787.062 512.35,-779.189 529.716,-772.372"/>
<polygon fill="midnightblue" stroke="midnightblue" points="531.372,-775.479 539.352,-768.51 528.767,-768.982 531.372,-775.479"/>
</g>
<!-- Node10&#45;&gt;Node6 -->
<g id="edge11" class="edge"><title>Node10&#45;&gt;Node6</title>
<path fill="none" stroke="midnightblue" d="M304.971,-806.375C328.028,-793.297 369.45,-769.804 396.322,-754.563"/>
<polygon fill="midnightblue" stroke="midnightblue" points="398.195,-757.525 405.167,-749.547 394.742,-751.436 398.195,-757.525"/>
</g>
<!-- Node10&#45;&gt;Node8 -->
<g id="edge14" class="edge"><title>Node10&#45;&gt;Node8</title>
<path fill="none" stroke="midnightblue" d="M298.355,-825.633C313.838,-839.306 344.579,-863.713 376,-873 416.064,-884.842 429.893,-884.698 470,-873 545.396,-851.009 560.382,-830.269 619,-778 653.46,-747.272 685.551,-703.317 702.165,-678.968"/>
<polygon fill="midnightblue" stroke="midnightblue" points="705.073,-680.916 707.748,-670.664 699.264,-677.01 705.073,-680.916"/>
</g>
<!-- Node11 -->
<g id="node11" class="node"><title>Node11</title>
<g id="a_node11"><a xlink:href="namespacetlz.html#abb019466ea9f56c0dab27e893d891837" target="_top" xlink:title="tlz::file_exists">
<polygon fill="white" stroke="black" points="384.5,-844.5 384.5,-863.5 461.5,-863.5 461.5,-844.5 384.5,-844.5"/>
<text text-anchor="middle" x="423" y="-851.5" font-family="Helvetica,sans-Serif" font-size="10.00">tlz::file_exists</text>
</a>
</g>
</g>
<!-- Node10&#45;&gt;Node11 -->
<g id="edge12" class="edge"><title>Node10&#45;&gt;Node11</title>
<path fill="none" stroke="midnightblue" d="M321.814,-825.589C339.033,-830.472 360.164,-836.464 378.573,-841.685"/>
<polygon fill="midnightblue" stroke="midnightblue" points="377.621,-845.053 388.197,-844.414 379.531,-838.319 377.621,-845.053"/>
</g>
<!-- Node12&#45;&gt;Node4 -->
<g id="edge16" class="edge"><title>Node12&#45;&gt;Node4</title>
<path fill="none" stroke="midnightblue" d="M198.128,-620.582C239.046,-618.771 293.684,-619.89 340,-633 421.184,-655.979 504.336,-714.647 541.469,-743.078"/>
<polygon fill="midnightblue" stroke="midnightblue" points="539.441,-745.934 549.487,-749.299 543.732,-740.404 539.441,-745.934"/>
</g>
<!-- Node12&#45;&gt;Node5 -->
<g id="edge17" class="edge"><title>Node12&#45;&gt;Node5</title>
<path fill="none" stroke="midnightblue" d="M157.405,-635.586C179.747,-646.082 216.17,-663.194 244.559,-676.531"/>
<polygon fill="midnightblue" stroke="midnightblue" points="243.308,-679.81 253.847,-680.895 246.284,-673.475 243.308,-679.81"/>
</g>
<!-- Node12&#45;&gt;Node7 -->
<g id="edge21" class="edge"><title>Node12&#45;&gt;Node7</title>
<path fill="none" stroke="midnightblue" d="M165.042,-616.391C184.204,-610.346 210.319,-603.119 234,-600 337.991,-586.305 374.707,-556.171 470,-600 492.336,-610.273 485.653,-628.199 506,-642 508.912,-643.975 512.048,-645.763 515.296,-647.378"/>
<polygon fill="midnightblue" stroke="midnightblue" points="514.085,-650.669 524.649,-651.486 516.901,-644.26 514.085,-650.669"/>
</g>
<!-- Node13 -->
<g id="node13" class="node"><title>Node13</title>
<g id="a_node13"><a xlink:href="classtlz_1_1args__list.html#ae7c07d1c8f24c2aa4fe0ba68ec45d353" target="_top" xlink:title="tlz::args_list::next\l_arg_is">
<polygon fill="white" stroke="black" points="515,-602 515,-632 610,-632 610,-602 515,-602"/>
<text text-anchor="start" x="523" y="-620" font-family="Helvetica,sans-Serif" font-size="10.00">tlz::args_list::next</text>
<text text-anchor="middle" x="562.5" y="-609" font-family="Helvetica,sans-Serif" font-size="10.00">_arg_is</text>
</a>
</g>
</g>
<!-- Node12&#45;&gt;Node13 -->
<g id="edge18" class="edge"><title>Node12&#45;&gt;Node13</title>
<path fill="none" stroke="midnightblue" d="M179.214,-616.484C185.814,-613.991 192.32,-610.877 198,-607 219.153,-592.559 210.915,-573.095 234,-562 328.537,-516.563 368.928,-533.961 470,-562 493.726,-568.582 517.467,-583.143 534.819,-595.63"/>
<polygon fill="midnightblue" stroke="midnightblue" points="533.163,-598.76 543.276,-601.918 537.339,-593.143 533.163,-598.76"/>
</g>
<!-- Node14 -->
<g id="node14" class="node"><title>Node14</title>
<g id="a_node14"><a xlink:href="namespacetlz.html#a0783a9e66143c507b2680fc68834657c" target="_top" xlink:title="tlz::out_dirname_arg">
<polygon fill="white" stroke="black" points="234.5,-642.5 234.5,-661.5 339.5,-661.5 339.5,-642.5 234.5,-642.5"/>
<text text-anchor="middle" x="287" y="-649.5" font-family="Helvetica,sans-Serif" font-size="10.00">tlz::out_dirname_arg</text>
</a>
</g>
</g>
<!-- Node12&#45;&gt;Node14 -->
<g id="edge22" class="edge"><title>Node12&#45;&gt;Node14</title>
<path fill="none" stroke="midnightblue" d="M191.636,-635.534C202.319,-637.398 213.59,-639.365 224.479,-641.265"/>
<polygon fill="midnightblue" stroke="midnightblue" points="223.892,-644.715 234.344,-642.986 225.095,-637.819 223.892,-644.715"/>
</g>
<!-- Node13&#45;&gt;Node8 -->
<g id="edge19" class="edge"><title>Node13&#45;&gt;Node8</title>
<path fill="none" stroke="midnightblue" d="M610.294,-630.681C629.84,-636.395 652.389,-642.988 671.459,-648.563"/>
<polygon fill="midnightblue" stroke="midnightblue" points="670.499,-651.929 681.08,-651.375 672.464,-645.21 670.499,-651.929"/>
</g>
<!-- Node13&#45;&gt;Node9 -->
<g id="edge20" class="edge"><title>Node13&#45;&gt;Node9</title>
<path fill="none" stroke="midnightblue" d="M610.294,-617.933C628.991,-618.305 650.437,-618.733 668.956,-619.102"/>
<polygon fill="midnightblue" stroke="midnightblue" points="669.124,-622.606 679.192,-619.306 669.263,-615.607 669.124,-622.606"/>
</g>
<!-- Node14&#45;&gt;Node6 -->
<g id="edge23" class="edge"><title>Node14&#45;&gt;Node6</title>
<path fill="none" stroke="midnightblue" d="M317.927,-661.604C325.361,-664.5 333.156,-667.992 340,-672 364.463,-686.325 389.029,-707.874 404.804,-722.861"/>
<polygon fill="midnightblue" stroke="midnightblue" points="402.586,-725.585 412.205,-730.027 407.456,-720.556 402.586,-725.585"/>
</g>
<!-- Node18 -->
<g id="node18" class="node"><title>Node18</title>
<g id="a_node18"><a xlink:href="classtlz_1_1viewer.html#af74a8aef9dde68eeff6b1e2561b39014" target="_top" xlink:title="tlz::viewer::height">
<polygon fill="white" stroke="black" points="376,-415.5 376,-434.5 470,-434.5 470,-415.5 376,-415.5"/>
<text text-anchor="middle" x="423" y="-422.5" font-family="Helvetica,sans-Serif" font-size="10.00">tlz::viewer::height</text>
</a>
</g>
</g>
<!-- Node17&#45;&gt;Node18 -->
<g id="edge27" class="edge"><title>Node17&#45;&gt;Node18</title>
<path fill="none" stroke="midnightblue" d="M331.506,-416.221C342.5,-417.287 354.46,-418.448 365.975,-419.565"/>
<polygon fill="midnightblue" stroke="midnightblue" points="365.654,-423.05 375.945,-420.532 366.33,-416.083 365.654,-423.05"/>
</g>
<!-- Node19 -->
<g id="node19" class="node"><title>Node19</title>
<g id="a_node19"><a xlink:href="classtlz_1_1viewer.html#acc43bf1dd1d0c3cdc35a948d4c194769" target="_top" xlink:title="tlz::viewer::width">
<polygon fill="white" stroke="black" points="377.5,-478.5 377.5,-497.5 468.5,-497.5 468.5,-478.5 377.5,-478.5"/>
<text text-anchor="middle" x="423" y="-485.5" font-family="Helvetica,sans-Serif" font-size="10.00">tlz::viewer::width</text>
</a>
</g>
</g>
<!-- Node17&#45;&gt;Node19 -->
<g id="edge28" class="edge"><title>Node17&#45;&gt;Node19</title>
<path fill="none" stroke="midnightblue" d="M316.322,-421.529C324.156,-424.528 332.548,-428.09 340,-432 362.154,-443.623 385.543,-460.065 401.646,-472.127"/>
<polygon fill="midnightblue" stroke="midnightblue" points="399.71,-475.051 409.789,-478.318 403.947,-469.479 399.71,-475.051"/>
</g>
<!-- Node23&#45;&gt;Node18 -->
<g id="edge34" class="edge"><title>Node23&#45;&gt;Node18</title>
<path fill="none" stroke="midnightblue" d="M317.969,-490.492C325.327,-487.768 333.076,-484.559 340,-481 362.381,-469.497 385.899,-452.906 401.98,-440.768"/>
<polygon fill="midnightblue" stroke="midnightblue" points="404.291,-443.407 410.095,-434.544 400.03,-437.853 404.291,-443.407"/>
</g>
<!-- Node23&#45;&gt;Node19 -->
<g id="edge33" class="edge"><title>Node23&#45;&gt;Node19</title>
<path fill="none" stroke="midnightblue" d="M331.506,-496.104C342.854,-495.088 355.232,-493.979 367.088,-492.917"/>
<polygon fill="midnightblue" stroke="midnightblue" points="367.685,-496.378 377.333,-492 367.061,-489.406 367.685,-496.378"/>
</g>
<!-- Node25&#45;&gt;Node23 -->
<g id="edge38" class="edge"><title>Node25&#45;&gt;Node23</title>
<path fill="none" stroke="midnightblue" d="M174.599,-471.589C194.084,-476.558 218.075,-482.677 238.796,-487.961"/>
<polygon fill="midnightblue" stroke="midnightblue" points="238.117,-491.4 248.671,-490.48 239.846,-484.617 238.117,-491.4"/>
</g>
<!-- Node26 -->
<g id="node26" class="node"><title>Node26</title>
<g id="a_node26"><a xlink:href="classtlz_1_1viewer.html#a6a59617413dc76948b6802399ddf555b" target="_top" xlink:title="tlz::viewer::visualize\l_depth">
<polygon fill="white" stroke="black" points="234,-441 234,-471 340,-471 340,-441 234,-441"/>
<text text-anchor="start" x="242" y="-459" font-family="Helvetica,sans-Serif" font-size="10.00">tlz::viewer::visualize</text>
<text text-anchor="middle" x="287" y="-448" font-family="Helvetica,sans-Serif" font-size="10.00">_depth</text>
</a>
</g>
</g>
<!-- Node25&#45;&gt;Node26 -->
<g id="edge37" class="edge"><title>Node25&#45;&gt;Node26</title>
<path fill="none" stroke="midnightblue" d="M195.034,-459.663C204.395,-459.286 214.121,-458.894 223.581,-458.514"/>
<polygon fill="midnightblue" stroke="midnightblue" points="223.859,-462.005 233.71,-458.106 223.578,-455.011 223.859,-462.005"/>
</g>
</g>
</svg>
