<?xml version="1.0" encoding="UTF-8" standalone="no"?>
<!DOCTYPE svg PUBLIC "-//W3C//DTD SVG 1.1//EN"
 "http://www.w3.org/Graphics/SVG/1.1/DTD/svg11.dtd">
<!-- Generated by graphviz version 2.38.0 (20140413.2041)
 -->
<!-- Title: main Pages: 1 -->
<svg width="907pt" height="370pt"
 viewBox="0.00 0.00 907.00 370.00" xmlns="http://www.w3.org/2000/svg" xmlns:xlink="http://www.w3.org/1999/xlink">
<g id="graph0" class="graph" transform="scale(1 1) rotate(0) translate(4 366)">
<title>main</title>
<polygon fill="white" stroke="none" points="-4,4 -4,-366 903,-366 903,4 -4,4"/>
<!-- Node1 -->
<g id="node1" class="node"><title>Node1</title>
<polygon fill="#bfbfbf" stroke="black" points="0,-152.5 0,-171.5 38,-171.5 38,-152.5 0,-152.5"/>
<text text-anchor="middle" x="19" y="-159.5" font-family="Helvetica,sans-Serif" font-size="10.00">main</text>
</g>
<!-- Node2 -->
<g id="node2" class="node"><title>Node2</title>
<g id="a_node2"><a xlink:href="namespacetlz.html#a3c03f5d9d6261ec2909938822fc47f8a" target="_top" xlink:title="tlz::get_args">
<polygon fill="white" stroke="black" points="102,-304.5 102,-323.5 173,-323.5 173,-304.5 102,-304.5"/>
<text text-anchor="middle" x="137.5" y="-311.5" font-family="Helvetica,sans-Serif" font-size="10.00">tlz::get_args</text>
</a>
</g>
</g>
<!-- Node1&#45;&gt;Node2 -->
<g id="edge1" class="edge"><title>Node1&#45;&gt;Node2</title>
<path fill="none" stroke="midnightblue" d="M21.0841,-171.63C24.3423,-195.987 36.2773,-260.548 74,-295 79.1762,-299.727 85.4966,-303.28 92.1068,-305.949"/>
<polygon fill="midnightblue" stroke="midnightblue" points="91.3051,-309.372 101.899,-309.261 93.548,-302.741 91.3051,-309.372"/>
</g>
<!-- Node3 -->
<g id="node3" class="node"><title>Node3</title>
<g id="a_node3"><a xlink:href="namespacetlz.html#aa5e0f8e51747ba6008a12ea8942ad9f7" target="_top" xlink:title="tlz::cameras_arg">
<polygon fill="white" stroke="black" points="93,-266.5 93,-285.5 182,-285.5 182,-266.5 93,-266.5"/>
<text text-anchor="middle" x="137.5" y="-273.5" font-family="Helvetica,sans-Serif" font-size="10.00">tlz::cameras_arg</text>
</a>
</g>
</g>
<!-- Node1&#45;&gt;Node3 -->
<g id="edge2" class="edge"><title>Node1&#45;&gt;Node3</title>
<path fill="none" stroke="midnightblue" d="M23.3083,-171.56C30.0523,-189.715 47.0683,-229.384 74,-252 78.8483,-256.071 84.4629,-259.497 90.2982,-262.367"/>
<polygon fill="midnightblue" stroke="midnightblue" points="89.0073,-265.622 99.5712,-266.432 91.8182,-259.211 89.0073,-265.622"/>
</g>
<!-- Node15 -->
<g id="node15" class="node"><title>Node15</title>
<g id="a_node15"><a xlink:href="namespacetlz.html#a65770a2c1ff57c5ae6542d4465a3d3f4" target="_top" xlink:title="tlz::out_filename_arg">
<polygon fill="white" stroke="black" points="237,-146.5 237,-165.5 344,-165.5 344,-146.5 237,-146.5"/>
<text text-anchor="middle" x="290.5" y="-153.5" font-family="Helvetica,sans-Serif" font-size="10.00">tlz::out_filename_arg</text>
</a>
</g>
</g>
<!-- Node1&#45;&gt;Node15 -->
<g id="edge16" class="edge"><title>Node1&#45;&gt;Node15</title>
<path fill="none" stroke="midnightblue" d="M38.0835,-170.092C48.3821,-174.256 61.6564,-178.892 74,-181 129.639,-190.503 145.09,-188.745 201,-181 218.384,-178.592 237.156,-173.642 252.919,-168.778"/>
<polygon fill="midnightblue" stroke="midnightblue" points="254.338,-171.999 262.798,-165.622 252.207,-165.331 254.338,-171.999"/>
</g>
<!-- Node16 -->
<g id="node16" class="node"><title>Node16</title>
<g id="a_node16"><a xlink:href="namespacetlz.html#a8d3380a8873e542207e21a4384957425" target="_top" xlink:title="tlz::string_opt_arg">
<polygon fill="white" stroke="black" points="243,-228.5 243,-247.5 338,-247.5 338,-228.5 243,-228.5"/>
<text text-anchor="middle" x="290.5" y="-235.5" font-family="Helvetica,sans-Serif" font-size="10.00">tlz::string_opt_arg</text>
</a>
</g>
</g>
<!-- Node1&#45;&gt;Node16 -->
<g id="edge18" class="edge"><title>Node1&#45;&gt;Node16</title>
<path fill="none" stroke="midnightblue" d="M31.6388,-171.806C42.0703,-180.073 58.1322,-191.556 74,-198 125.352,-218.855 188.03,-228.927 232.523,-233.735"/>
<polygon fill="midnightblue" stroke="midnightblue" points="232.271,-237.228 242.575,-234.766 232.984,-230.264 232.271,-237.228"/>
</g>
<!-- Node18 -->
<g id="node18" class="node"><title>Node18</title>
<g id="a_node18"><a xlink:href="namespacetlz.html#a5472d5ad8c55959e7d55be8551f53706" target="_top" xlink:title="tlz::cameras_map">
<polygon fill="white" stroke="black" points="90,-152.5 90,-171.5 185,-171.5 185,-152.5 90,-152.5"/>
<text text-anchor="middle" x="137.5" y="-159.5" font-family="Helvetica,sans-Serif" font-size="10.00">tlz::cameras_map</text>
</a>
</g>
</g>
<!-- Node1&#45;&gt;Node18 -->
<g id="edge23" class="edge"><title>Node1&#45;&gt;Node18</title>
<path fill="none" stroke="midnightblue" d="M38.2031,-162C49.4343,-162 64.5152,-162 79.4872,-162"/>
<polygon fill="midnightblue" stroke="midnightblue" points="79.7863,-165.5 89.7863,-162 79.7862,-158.5 79.7863,-165.5"/>
</g>
<!-- Node19 -->
<g id="node19" class="node"><title>Node19</title>
<g id="a_node19"><a xlink:href="structtlz_1_1camera.html#aace4b782f50c06158735709101fbdc86" target="_top" xlink:title="tlz::camera::extrinsic">
<polygon fill="white" stroke="black" points="83.5,-114.5 83.5,-133.5 191.5,-133.5 191.5,-114.5 83.5,-114.5"/>
<text text-anchor="middle" x="137.5" y="-121.5" font-family="Helvetica,sans-Serif" font-size="10.00">tlz::camera::extrinsic</text>
</a>
</g>
</g>
<!-- Node1&#45;&gt;Node19 -->
<g id="edge24" class="edge"><title>Node1&#45;&gt;Node19</title>
<path fill="none" stroke="midnightblue" d="M38.4271,-155.295C48.8331,-151.564 62.1005,-146.9 74,-143 80.5167,-140.864 87.4419,-138.677 94.219,-136.582"/>
<polygon fill="midnightblue" stroke="midnightblue" points="95.4395,-139.869 103.978,-133.596 93.3911,-133.176 95.4395,-139.869"/>
</g>
<!-- Node20 -->
<g id="node20" class="node"><title>Node20</title>
<g id="a_node20"><a xlink:href="structtlz_1_1camera.html#af623cd98390f6588c45ad59bbbe13355" target="_top" xlink:title="tlz::camera::extrinsic_inv">
<polygon fill="white" stroke="black" points="74.5,-76.5 74.5,-95.5 200.5,-95.5 200.5,-76.5 74.5,-76.5"/>
<text text-anchor="middle" x="137.5" y="-83.5" font-family="Helvetica,sans-Serif" font-size="10.00">tlz::camera::extrinsic_inv</text>
</a>
</g>
</g>
<!-- Node1&#45;&gt;Node20 -->
<g id="edge25" class="edge"><title>Node1&#45;&gt;Node20</title>
<path fill="none" stroke="midnightblue" d="M26.5461,-152.476C35.7229,-139.827 53.5941,-117.617 74,-105 77.3761,-102.913 80.9973,-101.041 84.7335,-99.3646"/>
<polygon fill="midnightblue" stroke="midnightblue" points="86.1951,-102.55 94.1834,-95.5899 83.5985,-96.0491 86.1951,-102.55"/>
</g>
<!-- Node21 -->
<g id="node21" class="node"><title>Node21</title>
<g id="a_node21"><a xlink:href="structtlz_1_1camera.html#ac170395ef972c44379a9dcce661b1847" target="_top" xlink:title="tlz::camera::set_extrinsic">
<polygon fill="white" stroke="black" points="74,-38.5 74,-57.5 201,-57.5 201,-38.5 74,-38.5"/>
<text text-anchor="middle" x="137.5" y="-45.5" font-family="Helvetica,sans-Serif" font-size="10.00">tlz::camera::set_extrinsic</text>
</a>
</g>
</g>
<!-- Node1&#45;&gt;Node21 -->
<g id="edge26" class="edge"><title>Node1&#45;&gt;Node21</title>
<path fill="none" stroke="midnightblue" d="M22.8155,-152.324C28.8992,-133.131 45.1074,-90.1037 74,-67 76.2835,-65.174 78.741,-63.5231 81.3143,-62.0305"/>
<polygon fill="midnightblue" stroke="midnightblue" points="83.0014,-65.1011 90.4245,-57.5415 79.9073,-58.8219 83.0014,-65.1011"/>
</g>
<!-- Node22 -->
<g id="node22" class="node"><title>Node22</title>
<g id="a_node22"><a xlink:href="namespacetlz.html#a445f7e177edcda36ece43a5fcd78615f" target="_top" xlink:title="tlz::export_cameras_file">
<polygon fill="white" stroke="black" points="77,-0.5 77,-19.5 198,-19.5 198,-0.5 77,-0.5"/>
<text text-anchor="middle" x="137.5" y="-7.5" font-family="Helvetica,sans-Serif" font-size="10.00">tlz::export_cameras_file</text>
</a>
</g>
</g>
<!-- Node1&#45;&gt;Node22 -->
<g id="edge27" class="edge"><title>Node1&#45;&gt;Node22</title>
<path fill="none" stroke="midnightblue" d="M21.0841,-152.37C24.3423,-128.013 36.2773,-63.4524 74,-29 75.735,-27.4154 77.5985,-25.9629 79.5585,-24.6314"/>
<polygon fill="midnightblue" stroke="midnightblue" points="81.6507,-27.4714 88.6691,-19.5346 78.2331,-21.3624 81.6507,-27.4714"/>
</g>
<!-- Node4 -->
<g id="node4" class="node"><title>Node4</title>
<g id="a_node4"><a xlink:href="namespacetlz.html#a8d445609e681336909da63eb443186b4" target="_top" xlink:title="tlz::decode_cameras">
<polygon fill="white" stroke="black" points="237,-323.5 237,-342.5 344,-342.5 344,-323.5 237,-323.5"/>
<text text-anchor="middle" x="290.5" y="-330.5" font-family="Helvetica,sans-Serif" font-size="10.00">tlz::decode_cameras</text>
</a>
</g>
</g>
<!-- Node3&#45;&gt;Node4 -->
<g id="edge3" class="edge"><title>Node3&#45;&gt;Node4</title>
<path fill="none" stroke="midnightblue" d="M172.46,-285.579C181.78,-288.41 191.839,-291.652 201,-295 220.824,-302.244 242.615,-311.583 259.613,-319.19"/>
<polygon fill="midnightblue" stroke="midnightblue" points="258.463,-322.511 269.017,-323.44 261.346,-316.132 258.463,-322.511"/>
</g>
<!-- Node6 -->
<g id="node6" class="node"><title>Node6</title>
<g id="a_node6"><a xlink:href="namespacetlz.html#a35f9e03fa4fd9cec699f5fa27962400f" target="_top" xlink:title="tlz::json_arg">
<polygon fill="white" stroke="black" points="255.5,-266.5 255.5,-285.5 325.5,-285.5 325.5,-266.5 255.5,-266.5"/>
<text text-anchor="middle" x="290.5" y="-273.5" font-family="Helvetica,sans-Serif" font-size="10.00">tlz::json_arg</text>
</a>
</g>
</g>
<!-- Node3&#45;&gt;Node6 -->
<g id="edge5" class="edge"><title>Node3&#45;&gt;Node6</title>
<path fill="none" stroke="midnightblue" d="M182.175,-276C201.905,-276 225.184,-276 245.01,-276"/>
<polygon fill="midnightblue" stroke="midnightblue" points="245.026,-279.5 255.026,-276 245.026,-272.5 245.026,-279.5"/>
</g>
<!-- Node5 -->
<g id="node5" class="node"><title>Node5</title>
<g id="a_node5"><a xlink:href="namespacetlz.html#a066563a26e2de02f215b179f3d3a53da" target="_top" xlink:title="tlz::decode_mat">
<polygon fill="white" stroke="black" points="387.5,-342.5 387.5,-361.5 473.5,-361.5 473.5,-342.5 387.5,-342.5"/>
<text text-anchor="middle" x="430.5" y="-349.5" font-family="Helvetica,sans-Serif" font-size="10.00">tlz::decode_mat</text>
</a>
</g>
</g>
<!-- Node4&#45;&gt;Node5 -->
<g id="edge4" class="edge"><title>Node4&#45;&gt;Node5</title>
<path fill="none" stroke="midnightblue" d="M344.066,-340.237C354.917,-341.731 366.345,-343.305 377.188,-344.798"/>
<polygon fill="midnightblue" stroke="midnightblue" points="376.982,-348.302 387.366,-346.199 377.937,-341.368 376.982,-348.302"/>
</g>
<!-- Node7 -->
<g id="node7" class="node"><title>Node7</title>
<g id="a_node7"><a xlink:href="namespacetlz.html#aa1be9362f548fcf9378e1fc9074089c4" target="_top" xlink:title="tlz::import_json_file">
<polygon fill="white" stroke="black" points="380,-304.5 380,-323.5 481,-323.5 481,-304.5 380,-304.5"/>
<text text-anchor="middle" x="430.5" y="-311.5" font-family="Helvetica,sans-Serif" font-size="10.00">tlz::import_json_file</text>
</a>
</g>
</g>
<!-- Node6&#45;&gt;Node7 -->
<g id="edge6" class="edge"><title>Node6&#45;&gt;Node7</title>
<path fill="none" stroke="midnightblue" d="M325.612,-285.393C343.556,-290.334 365.771,-296.452 385.047,-301.759"/>
<polygon fill="midnightblue" stroke="midnightblue" points="384.251,-305.17 394.822,-304.451 386.11,-298.422 384.251,-305.17"/>
</g>
<!-- Node8 -->
<g id="node8" class="node"><title>Node8</title>
<g id="a_node8"><a xlink:href="namespacetlz.html#a634de7ca11e100e4a118dffe80376a75" target="_top" xlink:title="tlz::in_filename_arg">
<polygon fill="white" stroke="black" points="380,-266.5 380,-285.5 481,-285.5 481,-266.5 380,-266.5"/>
<text text-anchor="middle" x="430.5" y="-273.5" font-family="Helvetica,sans-Serif" font-size="10.00">tlz::in_filename_arg</text>
</a>
</g>
</g>
<!-- Node6&#45;&gt;Node8 -->
<g id="edge7" class="edge"><title>Node6&#45;&gt;Node8</title>
<path fill="none" stroke="midnightblue" d="M325.612,-276C338.907,-276 354.546,-276 369.597,-276"/>
<polygon fill="midnightblue" stroke="midnightblue" points="369.888,-279.5 379.888,-276 369.887,-272.5 369.888,-279.5"/>
</g>
<!-- Node9 -->
<g id="node9" class="node"><title>Node9</title>
<g id="a_node9"><a xlink:href="namespacetlz.html#a0621d598fb83b13bf028f3e6293d04f8" target="_top" xlink:title="tlz::string_arg">
<polygon fill="white" stroke="black" points="517.5,-190.5 517.5,-209.5 593.5,-209.5 593.5,-190.5 517.5,-190.5"/>
<text text-anchor="middle" x="555.5" y="-197.5" font-family="Helvetica,sans-Serif" font-size="10.00">tlz::string_arg</text>
</a>
</g>
</g>
<!-- Node8&#45;&gt;Node9 -->
<g id="edge8" class="edge"><title>Node8&#45;&gt;Node9</title>
<path fill="none" stroke="midnightblue" d="M447.078,-266.375C468.057,-253.412 505.601,-230.214 530.281,-214.965"/>
<polygon fill="midnightblue" stroke="midnightblue" points="532.381,-217.781 539.048,-209.547 528.702,-211.826 532.381,-217.781"/>
</g>
<!-- Node10 -->
<g id="node10" class="node"><title>Node10</title>
<g id="a_node10"><a xlink:href="namespacetlz.html#a780431daab8d2595372eacb43143b52d" target="_top" xlink:title="tlz::args">
<polygon fill="white" stroke="black" points="660.5,-228.5 660.5,-247.5 712.5,-247.5 712.5,-228.5 660.5,-228.5"/>
<text text-anchor="middle" x="686.5" y="-235.5" font-family="Helvetica,sans-Serif" font-size="10.00">tlz::args</text>
</a>
</g>
</g>
<!-- Node8&#45;&gt;Node10 -->
<g id="edge14" class="edge"><title>Node8&#45;&gt;Node10</title>
<path fill="none" stroke="midnightblue" d="M481.294,-268.714C513.459,-263.991 556.211,-257.682 594,-252 612.556,-249.21 633.22,-246.053 650.21,-243.443"/>
<polygon fill="midnightblue" stroke="midnightblue" points="650.909,-246.877 660.261,-241.898 649.845,-239.958 650.909,-246.877"/>
</g>
<!-- Node12 -->
<g id="node12" class="node"><title>Node12</title>
<g id="a_node12"><a xlink:href="classtlz_1_1args__list.html#a38ad21acd64a4af98ffdf4a47837cdbe" target="_top" xlink:title="tlz::args_list::usage_fail">
<polygon fill="white" stroke="black" points="779,-285.5 779,-304.5 899,-304.5 899,-285.5 779,-285.5"/>
<text text-anchor="middle" x="839" y="-292.5" font-family="Helvetica,sans-Serif" font-size="10.00">tlz::args_list::usage_fail</text>
</a>
</g>
</g>
<!-- Node8&#45;&gt;Node12 -->
<g id="edge15" class="edge"><title>Node8&#45;&gt;Node12</title>
<path fill="none" stroke="midnightblue" d="M462.657,-285.52C468.989,-288.114 475.414,-291.264 481,-295 500.338,-307.933 495.629,-323.808 517,-333 616.658,-375.866 748.851,-332.323 807.613,-308.429"/>
<polygon fill="midnightblue" stroke="midnightblue" points="809.166,-311.574 817.054,-304.5 806.476,-305.111 809.166,-311.574"/>
</g>
<!-- Node14 -->
<g id="node14" class="node"><title>Node14</title>
<g id="a_node14"><a xlink:href="namespacetlz.html#abb019466ea9f56c0dab27e893d891837" target="_top" xlink:title="tlz::file_exists">
<polygon fill="white" stroke="black" points="517,-304.5 517,-323.5 594,-323.5 594,-304.5 517,-304.5"/>
<text text-anchor="middle" x="555.5" y="-311.5" font-family="Helvetica,sans-Serif" font-size="10.00">tlz::file_exists</text>
</a>
</g>
</g>
<!-- Node8&#45;&gt;Node14 -->
<g id="edge13" class="edge"><title>Node8&#45;&gt;Node14</title>
<path fill="none" stroke="midnightblue" d="M462.538,-285.589C477.979,-290.359 496.848,-296.189 513.466,-301.323"/>
<polygon fill="midnightblue" stroke="midnightblue" points="512.884,-304.806 523.472,-304.414 514.951,-298.118 512.884,-304.806"/>
</g>
<!-- Node9&#45;&gt;Node10 -->
<g id="edge9" class="edge"><title>Node9&#45;&gt;Node10</title>
<path fill="none" stroke="midnightblue" d="M589.052,-209.589C607.78,-215.106 631.314,-222.038 650.447,-227.674"/>
<polygon fill="midnightblue" stroke="midnightblue" points="649.701,-231.103 660.283,-230.572 651.679,-224.389 649.701,-231.103"/>
</g>
<!-- Node11 -->
<g id="node11" class="node"><title>Node11</title>
<g id="a_node11"><a xlink:href="classtlz_1_1args__list.html#a73d99bc75998dc14607a3a372d28dc6d" target="_top" xlink:title="tlz::args_list::next_arg">
<polygon fill="white" stroke="black" points="630,-190.5 630,-209.5 743,-209.5 743,-190.5 630,-190.5"/>
<text text-anchor="middle" x="686.5" y="-197.5" font-family="Helvetica,sans-Serif" font-size="10.00">tlz::args_list::next_arg</text>
</a>
</g>
</g>
<!-- Node9&#45;&gt;Node11 -->
<g id="edge10" class="edge"><title>Node9&#45;&gt;Node11</title>
<path fill="none" stroke="midnightblue" d="M593.812,-200C601.835,-200 610.544,-200 619.295,-200"/>
<polygon fill="midnightblue" stroke="midnightblue" points="619.549,-203.5 629.549,-200 619.549,-196.5 619.549,-203.5"/>
</g>
<!-- Node11&#45;&gt;Node12 -->
<g id="edge11" class="edge"><title>Node11&#45;&gt;Node12</title>
<path fill="none" stroke="midnightblue" d="M721.46,-209.548C728.769,-212.169 736.305,-215.323 743,-219 772.86,-235.402 802.806,-261.306 820.876,-278.227"/>
<polygon fill="midnightblue" stroke="midnightblue" points="818.646,-280.937 828.299,-285.303 823.475,-275.87 818.646,-280.937"/>
</g>
<!-- Node13 -->
<g id="node13" class="node"><title>Node13</title>
<g id="a_node13"><a xlink:href="namespacetlz.html#a8e4f8c8c2927bc4350de13bfa0f8f9e1" target="_top" xlink:title="tlz::to_string">
<polygon fill="white" stroke="black" points="803.5,-190.5 803.5,-209.5 874.5,-209.5 874.5,-190.5 803.5,-190.5"/>
<text text-anchor="middle" x="839" y="-197.5" font-family="Helvetica,sans-Serif" font-size="10.00">tlz::to_string</text>
</a>
</g>
</g>
<!-- Node11&#45;&gt;Node13 -->
<g id="edge12" class="edge"><title>Node11&#45;&gt;Node13</title>
<path fill="none" stroke="midnightblue" d="M743.113,-200C759.441,-200 777.096,-200 792.698,-200"/>
<polygon fill="midnightblue" stroke="midnightblue" points="793.13,-203.5 803.13,-200 793.129,-196.5 793.13,-203.5"/>
</g>
<!-- Node15&#45;&gt;Node9 -->
<g id="edge17" class="edge"><title>Node15&#45;&gt;Node9</title>
<path fill="none" stroke="midnightblue" d="M344.37,-149.042C382.941,-145.695 436.1,-144.704 481,-157 500.533,-162.349 520.208,-174.287 534.28,-184.23"/>
<polygon fill="midnightblue" stroke="midnightblue" points="532.529,-187.287 542.66,-190.387 536.674,-181.645 532.529,-187.287"/>
</g>
<!-- Node16&#45;&gt;Node8 -->
<g id="edge22" class="edge"><title>Node16&#45;&gt;Node8</title>
<path fill="none" stroke="midnightblue" d="M326.323,-247.589C344.138,-252.494 366.018,-258.52 385.039,-263.757"/>
<polygon fill="midnightblue" stroke="midnightblue" points="384.118,-267.134 394.688,-266.414 385.976,-260.385 384.118,-267.134"/>
</g>
<!-- Node16&#45;&gt;Node9 -->
<g id="edge21" class="edge"><title>Node16&#45;&gt;Node9</title>
<path fill="none" stroke="midnightblue" d="M299.845,-228.384C314.284,-212.568 345.693,-181.658 380,-170 422.502,-155.557 436.951,-161.357 481,-170 496.998,-173.139 513.904,-179.783 527.464,-186.021"/>
<polygon fill="midnightblue" stroke="midnightblue" points="526.154,-189.275 536.685,-190.437 529.178,-182.961 526.154,-189.275"/>
</g>
<!-- Node16&#45;&gt;Node10 -->
<g id="edge19" class="edge"><title>Node16&#45;&gt;Node10</title>
<path fill="none" stroke="midnightblue" d="M338.244,-238C417.932,-238 578.377,-238 649.8,-238"/>
<polygon fill="midnightblue" stroke="midnightblue" points="650.073,-241.5 660.073,-238 650.073,-234.5 650.073,-241.5"/>
</g>
<!-- Node17 -->
<g id="node17" class="node"><title>Node17</title>
<g id="a_node17"><a xlink:href="classtlz_1_1args__list.html#a4aee93f4b0d9b5b4e7a5d13cb637337c" target="_top" xlink:title="tlz::args_list::has\l_next_arg">
<polygon fill="white" stroke="black" points="384.5,-179 384.5,-209 476.5,-209 476.5,-179 384.5,-179"/>
<text text-anchor="start" x="392.5" y="-197" font-family="Helvetica,sans-Serif" font-size="10.00">tlz::args_list::has</text>
<text text-anchor="middle" x="430.5" y="-186" font-family="Helvetica,sans-Serif" font-size="10.00">_next_arg</text>
</a>
</g>
</g>
<!-- Node16&#45;&gt;Node17 -->
<g id="edge20" class="edge"><title>Node16&#45;&gt;Node17</title>
<path fill="none" stroke="midnightblue" d="M321.444,-228.453C337.033,-223.482 356.588,-217.247 374.763,-211.452"/>
<polygon fill="midnightblue" stroke="midnightblue" points="375.933,-214.753 384.397,-208.381 373.807,-208.084 375.933,-214.753"/>
</g>
</g>
</svg>
