<?xml version="1.0" encoding="UTF-8" standalone="no"?>
<!DOCTYPE svg PUBLIC "-//W3C//DTD SVG 1.1//EN"
 "http://www.w3.org/Graphics/SVG/1.1/DTD/svg11.dtd">
<!-- Generated by graphviz version 2.38.0 (20140413.2041)
 -->
<!-- Title: main Pages: 1 -->
<svg width="766pt" height="443pt"
 viewBox="0.00 0.00 766.00 442.50" xmlns="http://www.w3.org/2000/svg" xmlns:xlink="http://www.w3.org/1999/xlink">
<g id="graph0" class="graph" transform="scale(1 1) rotate(0) translate(4 438.5)">
<title>main</title>
<polygon fill="white" stroke="none" points="-4,4 -4,-438.5 762,-438.5 762,4 -4,4"/>
<!-- Node1 -->
<g id="node1" class="node"><title>Node1</title>
<polygon fill="#bfbfbf" stroke="black" points="0,-202 0,-221 38,-221 38,-202 0,-202"/>
<text text-anchor="middle" x="19" y="-209" font-family="Helvetica,sans-Serif" font-size="10.00">main</text>
</g>
<!-- Node2 -->
<g id="node2" class="node"><title>Node2</title>
<g id="a_node2"><a xlink:href="namespacetlz.html#a3c03f5d9d6261ec2909938822fc47f8a" target="_top" xlink:title="tlz::get_args">
<polygon fill="white" stroke="black" points="89.5,-415 89.5,-434 160.5,-434 160.5,-415 89.5,-415"/>
<text text-anchor="middle" x="125" y="-422" font-family="Helvetica,sans-Serif" font-size="10.00">tlz::get_args</text>
</a>
</g>
</g>
<!-- Node1&#45;&gt;Node2 -->
<g id="edge1" class="edge"><title>Node1&#45;&gt;Node2</title>
<path fill="none" stroke="midnightblue" d="M20.0917,-221.003C20.8716,-250.996 27.1297,-344.943 74,-400.5 77.0152,-404.074 80.6856,-407.156 84.6543,-409.803"/>
<polygon fill="midnightblue" stroke="midnightblue" points="83.2559,-413.034 93.6801,-414.928 86.7124,-406.947 83.2559,-413.034"/>
</g>
<!-- Node3 -->
<g id="node3" class="node"><title>Node3</title>
<g id="a_node3"><a xlink:href="namespacetlz.html#a91f1aec7120c97452c495ee447e56b57" target="_top" xlink:title="tlz::dataset_arg">
<polygon fill="white" stroke="black" points="83,-320 83,-339 167,-339 167,-320 83,-320"/>
<text text-anchor="middle" x="125" y="-327" font-family="Helvetica,sans-Serif" font-size="10.00">tlz::dataset_arg</text>
</a>
</g>
</g>
<!-- Node1&#45;&gt;Node3 -->
<g id="edge2" class="edge"><title>Node1&#45;&gt;Node3</title>
<path fill="none" stroke="midnightblue" d="M25.1017,-221.093C33.7841,-236.883 52.5881,-268.851 74,-291.5 81.8648,-299.819 91.6894,-307.706 100.543,-314.117"/>
<polygon fill="midnightblue" stroke="midnightblue" points="98.7615,-317.142 108.965,-319.996 102.769,-311.402 98.7615,-317.142"/>
</g>
<!-- Node10 -->
<g id="node10" class="node"><title>Node10</title>
<g id="a_node10"><a xlink:href="namespacetlz.html#abb019466ea9f56c0dab27e893d891837" target="_top" xlink:title="tlz::file_exists">
<polygon fill="white" stroke="black" points="359,-415 359,-434 436,-434 436,-415 359,-415"/>
<text text-anchor="middle" x="397.5" y="-422" font-family="Helvetica,sans-Serif" font-size="10.00">tlz::file_exists</text>
</a>
</g>
</g>
<!-- Node1&#45;&gt;Node10 -->
<g id="edge27" class="edge"><title>Node1&#45;&gt;Node10</title>
<path fill="none" stroke="midnightblue" d="M20.8178,-221.193C23.478,-246.327 34.1771,-314.036 74,-348.5 152.297,-416.261 279.939,-426.305 348.818,-426.298"/>
<polygon fill="midnightblue" stroke="midnightblue" points="348.972,-429.797 358.946,-426.224 348.921,-422.797 348.972,-429.797"/>
</g>
<!-- Node11 -->
<g id="node11" class="node"><title>Node11</title>
<g id="a_node11"><a xlink:href="namespacetlz.html#a8d3380a8873e542207e21a4384957425" target="_top" xlink:title="tlz::string_opt_arg">
<polygon fill="white" stroke="black" points="77.5,-263 77.5,-282 172.5,-282 172.5,-263 77.5,-263"/>
<text text-anchor="middle" x="125" y="-270" font-family="Helvetica,sans-Serif" font-size="10.00">tlz::string_opt_arg</text>
</a>
</g>
</g>
<!-- Node1&#45;&gt;Node11 -->
<g id="edge12" class="edge"><title>Node1&#45;&gt;Node11</title>
<path fill="none" stroke="midnightblue" d="M36.25,-221.031C53.0182,-230.866 79.3992,-246.34 98.8608,-257.755"/>
<polygon fill="midnightblue" stroke="midnightblue" points="97.1244,-260.794 107.521,-262.834 100.666,-254.756 97.1244,-260.794"/>
</g>
<!-- Node13 -->
<g id="node13" class="node"><title>Node13</title>
<g id="a_node13"><a xlink:href="classtlz_1_1dataset.html#ad7d438f87e20fd0a734aabff2e6d52a9" target="_top" xlink:title="tlz::dataset::group">
<polygon fill="white" stroke="black" points="77.5,-202 77.5,-221 172.5,-221 172.5,-202 77.5,-202"/>
<text text-anchor="middle" x="125" y="-209" font-family="Helvetica,sans-Serif" font-size="10.00">tlz::dataset::group</text>
</a>
</g>
</g>
<!-- Node1&#45;&gt;Node13 -->
<g id="edge17" class="edge"><title>Node1&#45;&gt;Node13</title>
<path fill="none" stroke="midnightblue" d="M38.1154,-211.5C46.4066,-211.5 56.7335,-211.5 67.3212,-211.5"/>
<polygon fill="midnightblue" stroke="midnightblue" points="67.4943,-215 77.4943,-211.5 67.4943,-208 67.4943,-215"/>
</g>
<!-- Node16 -->
<g id="node16" class="node"><title>Node16</title>
<g id="a_node16"><a xlink:href="classtlz_1_1dataset.html#a8214662ec50b7214c1e5993185247a0a" target="_top" xlink:title="tlz::dataset::indices">
<polygon fill="white" stroke="black" points="74,-164 74,-183 176,-183 176,-164 74,-164"/>
<text text-anchor="middle" x="125" y="-171" font-family="Helvetica,sans-Serif" font-size="10.00">tlz::dataset::indices</text>
</a>
</g>
</g>
<!-- Node1&#45;&gt;Node16 -->
<g id="edge20" class="edge"><title>Node1&#45;&gt;Node16</title>
<path fill="none" stroke="midnightblue" d="M38.1154,-204.881C51.9317,-199.833 71.4006,-192.719 88.3096,-186.541"/>
<polygon fill="midnightblue" stroke="midnightblue" points="89.716,-189.753 97.9074,-183.034 87.3136,-183.178 89.716,-189.753"/>
</g>
<!-- Node17 -->
<g id="node17" class="node"><title>Node17</title>
<g id="a_node17"><a xlink:href="classtlz_1_1dataset__group.html#aa0c9157fd56b01adebcecdcdd98f9e3f" target="_top" xlink:title="tlz::dataset_group\l::view">
<polygon fill="white" stroke="black" points="215,-76.5 215,-106.5 310,-106.5 310,-76.5 215,-76.5"/>
<text text-anchor="start" x="223" y="-94.5" font-family="Helvetica,sans-Serif" font-size="10.00">tlz::dataset_group</text>
<text text-anchor="middle" x="262.5" y="-83.5" font-family="Helvetica,sans-Serif" font-size="10.00">::view</text>
</a>
</g>
</g>
<!-- Node1&#45;&gt;Node17 -->
<g id="edge21" class="edge"><title>Node1&#45;&gt;Node17</title>
<path fill="none" stroke="midnightblue" d="M26.9187,-201.631C36.2467,-189.01 54.0092,-167.265 74,-154.5 96.0221,-140.438 158.117,-120.832 204.861,-107.243"/>
<polygon fill="midnightblue" stroke="midnightblue" points="205.945,-110.573 214.583,-104.439 204.005,-103.847 205.945,-110.573"/>
</g>
<!-- Node22 -->
<g id="node22" class="node"><title>Node22</title>
<g id="a_node22"><a xlink:href="classtlz_1_1dataset__view.html#af3c734eaed33af07993255db63d3fc54" target="_top" xlink:title="tlz::dataset_view::\limage_filename">
<polygon fill="white" stroke="black" points="76.5,-27.5 76.5,-57.5 173.5,-57.5 173.5,-27.5 76.5,-27.5"/>
<text text-anchor="start" x="84.5" y="-45.5" font-family="Helvetica,sans-Serif" font-size="10.00">tlz::dataset_view::</text>
<text text-anchor="middle" x="125" y="-34.5" font-family="Helvetica,sans-Serif" font-size="10.00">image_filename</text>
</a>
</g>
</g>
<!-- Node1&#45;&gt;Node22 -->
<g id="edge28" class="edge"><title>Node1&#45;&gt;Node22</title>
<path fill="none" stroke="midnightblue" d="M21.1055,-201.744C24.4602,-176.355 36.6914,-107.369 74,-66.5 74.8764,-65.54 75.7994,-64.6145 76.7617,-63.7225"/>
<polygon fill="midnightblue" stroke="midnightblue" points="79.0108,-66.4078 84.7855,-57.525 74.7318,-60.8679 79.0108,-66.4078"/>
</g>
<!-- Node26 -->
<g id="node26" class="node"><title>Node26</title>
<g id="a_node26"><a xlink:href="classtlz_1_1dataset__view.html#a63238745feff55e3d0bea101589895c1" target="_top" xlink:title="tlz::dataset_view::\ldepth_filename">
<polygon fill="white" stroke="black" points="76.5,-76.5 76.5,-106.5 173.5,-106.5 173.5,-76.5 76.5,-76.5"/>
<text text-anchor="start" x="84.5" y="-94.5" font-family="Helvetica,sans-Serif" font-size="10.00">tlz::dataset_view::</text>
<text text-anchor="middle" x="125" y="-83.5" font-family="Helvetica,sans-Serif" font-size="10.00">depth_filename</text>
</a>
</g>
</g>
<!-- Node1&#45;&gt;Node26 -->
<g id="edge34" class="edge"><title>Node1&#45;&gt;Node26</title>
<path fill="none" stroke="midnightblue" d="M23.9164,-201.8C31.4434,-184.096 49.3902,-146.11 74,-121.5 77.2693,-118.231 80.9635,-115.173 84.8269,-112.356"/>
<polygon fill="midnightblue" stroke="midnightblue" points="87.0906,-115.052 93.4557,-106.583 83.1981,-109.234 87.0906,-115.052"/>
</g>
<!-- Node4 -->
<g id="node4" class="node"><title>Node4</title>
<g id="a_node4"><a xlink:href="namespacetlz.html#a634de7ca11e100e4a118dffe80376a75" target="_top" xlink:title="tlz::in_filename_arg">
<polygon fill="white" stroke="black" points="212,-339 212,-358 313,-358 313,-339 212,-339"/>
<text text-anchor="middle" x="262.5" y="-346" font-family="Helvetica,sans-Serif" font-size="10.00">tlz::in_filename_arg</text>
</a>
</g>
</g>
<!-- Node3&#45;&gt;Node4 -->
<g id="edge3" class="edge"><title>Node3&#45;&gt;Node4</title>
<path fill="none" stroke="midnightblue" d="M167.022,-335.252C177.866,-336.773 189.798,-338.446 201.425,-340.076"/>
<polygon fill="midnightblue" stroke="midnightblue" points="201.14,-343.57 211.529,-341.493 202.112,-336.638 201.14,-343.57"/>
</g>
<!-- Node5 -->
<g id="node5" class="node"><title>Node5</title>
<g id="a_node5"><a xlink:href="namespacetlz.html#a0621d598fb83b13bf028f3e6293d04f8" target="_top" xlink:title="tlz::string_arg">
<polygon fill="white" stroke="black" points="359.5,-263 359.5,-282 435.5,-282 435.5,-263 359.5,-263"/>
<text text-anchor="middle" x="397.5" y="-270" font-family="Helvetica,sans-Serif" font-size="10.00">tlz::string_arg</text>
</a>
</g>
</g>
<!-- Node4&#45;&gt;Node5 -->
<g id="edge4" class="edge"><title>Node4&#45;&gt;Node5</title>
<path fill="none" stroke="midnightblue" d="M280.345,-338.875C303.229,-325.797 344.342,-302.304 371.014,-287.063"/>
<polygon fill="midnightblue" stroke="midnightblue" points="372.846,-290.048 379.792,-282.047 369.373,-283.97 372.846,-290.048"/>
</g>
<!-- Node6 -->
<g id="node6" class="node"><title>Node6</title>
<g id="a_node6"><a xlink:href="namespacetlz.html#a780431daab8d2595372eacb43143b52d" target="_top" xlink:title="tlz::args">
<polygon fill="white" stroke="black" points="516,-301 516,-320 568,-320 568,-301 516,-301"/>
<text text-anchor="middle" x="542" y="-308" font-family="Helvetica,sans-Serif" font-size="10.00">tlz::args</text>
</a>
</g>
</g>
<!-- Node4&#45;&gt;Node6 -->
<g id="edge10" class="edge"><title>Node4&#45;&gt;Node6</title>
<path fill="none" stroke="midnightblue" d="M313.101,-342.189C349.821,-337.465 401.056,-330.766 446,-324.5 465.738,-321.748 487.756,-318.514 505.622,-315.847"/>
<polygon fill="midnightblue" stroke="midnightblue" points="506.241,-319.294 515.613,-314.351 505.205,-312.371 506.241,-319.294"/>
</g>
<!-- Node8 -->
<g id="node8" class="node"><title>Node8</title>
<g id="a_node8"><a xlink:href="classtlz_1_1args__list.html#a38ad21acd64a4af98ffdf4a47837cdbe" target="_top" xlink:title="tlz::args_list::usage_fail">
<polygon fill="white" stroke="black" points="638,-339 638,-358 758,-358 758,-339 638,-339"/>
<text text-anchor="middle" x="698" y="-346" font-family="Helvetica,sans-Serif" font-size="10.00">tlz::args_list::usage_fail</text>
</a>
</g>
</g>
<!-- Node4&#45;&gt;Node8 -->
<g id="edge11" class="edge"><title>Node4&#45;&gt;Node8</title>
<path fill="none" stroke="midnightblue" d="M313.228,-348.5C390.562,-348.5 539.871,-348.5 627.718,-348.5"/>
<polygon fill="midnightblue" stroke="midnightblue" points="627.856,-352 637.855,-348.5 627.855,-345 627.856,-352"/>
</g>
<!-- Node4&#45;&gt;Node10 -->
<g id="edge9" class="edge"><title>Node4&#45;&gt;Node10</title>
<path fill="none" stroke="midnightblue" d="M285.713,-358.058C294.438,-362.121 304.403,-367.155 313,-372.5 330.214,-383.203 331.874,-389.657 349,-400.5 354.43,-403.938 360.417,-407.28 366.256,-410.324"/>
<polygon fill="midnightblue" stroke="midnightblue" points="364.704,-413.461 375.21,-414.833 367.853,-407.209 364.704,-413.461"/>
</g>
<!-- Node5&#45;&gt;Node6 -->
<g id="edge5" class="edge"><title>Node5&#45;&gt;Node6</title>
<path fill="none" stroke="midnightblue" d="M434.459,-282.089C456.381,-287.935 484.268,-295.371 506.011,-301.17"/>
<polygon fill="midnightblue" stroke="midnightblue" points="505.267,-304.594 515.831,-303.788 507.071,-297.83 505.267,-304.594"/>
</g>
<!-- Node7 -->
<g id="node7" class="node"><title>Node7</title>
<g id="a_node7"><a xlink:href="classtlz_1_1args__list.html#a73d99bc75998dc14607a3a372d28dc6d" target="_top" xlink:title="tlz::args_list::next_arg">
<polygon fill="white" stroke="black" points="485.5,-263 485.5,-282 598.5,-282 598.5,-263 485.5,-263"/>
<text text-anchor="middle" x="542" y="-270" font-family="Helvetica,sans-Serif" font-size="10.00">tlz::args_list::next_arg</text>
</a>
</g>
</g>
<!-- Node5&#45;&gt;Node7 -->
<g id="edge6" class="edge"><title>Node5&#45;&gt;Node7</title>
<path fill="none" stroke="midnightblue" d="M435.568,-272.5C447.66,-272.5 461.472,-272.5 475.029,-272.5"/>
<polygon fill="midnightblue" stroke="midnightblue" points="475.313,-276 485.313,-272.5 475.313,-269 475.313,-276"/>
</g>
<!-- Node7&#45;&gt;Node8 -->
<g id="edge7" class="edge"><title>Node7&#45;&gt;Node8</title>
<path fill="none" stroke="midnightblue" d="M577.2,-282.049C585.459,-284.753 594.16,-287.943 602,-291.5 628.191,-303.384 656.197,-320.833 674.963,-333.29"/>
<polygon fill="midnightblue" stroke="midnightblue" points="673.134,-336.278 683.384,-338.959 677.042,-330.471 673.134,-336.278"/>
</g>
<!-- Node9 -->
<g id="node9" class="node"><title>Node9</title>
<g id="a_node9"><a xlink:href="namespacetlz.html#a8e4f8c8c2927bc4350de13bfa0f8f9e1" target="_top" xlink:title="tlz::to_string">
<polygon fill="white" stroke="black" points="662.5,-263 662.5,-282 733.5,-282 733.5,-263 662.5,-263"/>
<text text-anchor="middle" x="698" y="-270" font-family="Helvetica,sans-Serif" font-size="10.00">tlz::to_string</text>
</a>
</g>
</g>
<!-- Node7&#45;&gt;Node9 -->
<g id="edge8" class="edge"><title>Node7&#45;&gt;Node9</title>
<path fill="none" stroke="midnightblue" d="M598.598,-272.5C616.149,-272.5 635.312,-272.5 652.025,-272.5"/>
<polygon fill="midnightblue" stroke="midnightblue" points="652.079,-276 662.079,-272.5 652.079,-269 652.079,-276"/>
</g>
<!-- Node11&#45;&gt;Node4 -->
<g id="edge16" class="edge"><title>Node11&#45;&gt;Node4</title>
<path fill="none" stroke="midnightblue" d="M140.977,-282.136C157.945,-292.914 186.55,-310.674 212,-324.5 218.202,-327.869 224.949,-331.294 231.409,-334.46"/>
<polygon fill="midnightblue" stroke="midnightblue" points="230.044,-337.688 240.571,-338.879 233.085,-331.382 230.044,-337.688"/>
</g>
<!-- Node11&#45;&gt;Node5 -->
<g id="edge15" class="edge"><title>Node11&#45;&gt;Node5</title>
<path fill="none" stroke="midnightblue" d="M172.501,-272.5C221.859,-272.5 299.451,-272.5 349.136,-272.5"/>
<polygon fill="midnightblue" stroke="midnightblue" points="349.294,-276 359.294,-272.5 349.294,-269 349.294,-276"/>
</g>
<!-- Node11&#45;&gt;Node6 -->
<g id="edge13" class="edge"><title>Node11&#45;&gt;Node6</title>
<path fill="none" stroke="midnightblue" d="M172.76,-280.884C185.459,-282.95 199.23,-284.998 212,-286.5 318.507,-299.029 445.232,-306.07 505.611,-308.948"/>
<polygon fill="midnightblue" stroke="midnightblue" points="505.598,-312.451 515.75,-309.422 505.924,-305.459 505.598,-312.451"/>
</g>
<!-- Node12 -->
<g id="node12" class="node"><title>Node12</title>
<g id="a_node12"><a xlink:href="classtlz_1_1args__list.html#a4aee93f4b0d9b5b4e7a5d13cb637337c" target="_top" xlink:title="tlz::args_list::has\l_next_arg">
<polygon fill="white" stroke="black" points="216.5,-213.5 216.5,-243.5 308.5,-243.5 308.5,-213.5 216.5,-213.5"/>
<text text-anchor="start" x="224.5" y="-231.5" font-family="Helvetica,sans-Serif" font-size="10.00">tlz::args_list::has</text>
<text text-anchor="middle" x="262.5" y="-220.5" font-family="Helvetica,sans-Serif" font-size="10.00">_next_arg</text>
</a>
</g>
</g>
<!-- Node11&#45;&gt;Node12 -->
<g id="edge14" class="edge"><title>Node11&#45;&gt;Node12</title>
<path fill="none" stroke="midnightblue" d="M155.401,-262.953C170.441,-258.069 189.239,-251.965 206.817,-246.257"/>
<polygon fill="midnightblue" stroke="midnightblue" points="207.996,-249.554 216.426,-243.137 205.834,-242.896 207.996,-249.554"/>
</g>
<!-- Node14 -->
<g id="node14" class="node"><title>Node14</title>
<g id="a_node14"><a xlink:href="classtlz_1_1dataset__group.html#acad4f6300bfc455279aaeb975d5e61de" target="_top" xlink:title="tlz::dataset_group\l::dataset_group">
<polygon fill="white" stroke="black" points="215,-125.5 215,-155.5 310,-155.5 310,-125.5 215,-125.5"/>
<text text-anchor="start" x="223" y="-143.5" font-family="Helvetica,sans-Serif" font-size="10.00">tlz::dataset_group</text>
<text text-anchor="middle" x="262.5" y="-132.5" font-family="Helvetica,sans-Serif" font-size="10.00">::dataset_group</text>
</a>
</g>
</g>
<!-- Node13&#45;&gt;Node14 -->
<g id="edge18" class="edge"><title>Node13&#45;&gt;Node14</title>
<path fill="none" stroke="midnightblue" d="M153.898,-201.945C161.205,-199.16 168.996,-195.934 176,-192.5 192.836,-184.245 195.982,-180.248 212,-170.5 217.114,-167.388 222.529,-164.099 227.828,-160.885"/>
<polygon fill="midnightblue" stroke="midnightblue" points="229.824,-163.767 236.561,-155.59 226.195,-157.781 229.824,-163.767"/>
</g>
<!-- Node15 -->
<g id="node15" class="node"><title>Node15</title>
<g id="a_node15"><a xlink:href="namespacetlz.html#a252af14b9b4ac6502d3e9c5dd8dc90b8" target="_top" xlink:title="tlz::has">
<polygon fill="white" stroke="black" points="517.5,-99 517.5,-118 566.5,-118 566.5,-99 517.5,-99"/>
<text text-anchor="middle" x="542" y="-106" font-family="Helvetica,sans-Serif" font-size="10.00">tlz::has</text>
</a>
</g>
</g>
<!-- Node13&#45;&gt;Node15 -->
<g id="edge19" class="edge"><title>Node13&#45;&gt;Node15</title>
<path fill="none" stroke="midnightblue" d="M172.739,-207.077C248.994,-199.478 396.62,-183.056 446,-165.5 473.566,-155.699 501.914,-137.422 520.381,-124.201"/>
<polygon fill="midnightblue" stroke="midnightblue" points="522.608,-126.909 528.607,-118.176 518.471,-121.261 522.608,-126.909"/>
</g>
<!-- Node18 -->
<g id="node18" class="node"><title>Node18</title>
<g id="a_node18"><a xlink:href="classtlz_1_1dataset.html#acbdb309b8dd22f687fff41f6e9ac6ed4" target="_top" xlink:title="tlz::dataset::view">
<polygon fill="white" stroke="black" points="351.5,-137 351.5,-156 443.5,-156 443.5,-137 351.5,-137"/>
<text text-anchor="middle" x="397.5" y="-144" font-family="Helvetica,sans-Serif" font-size="10.00">tlz::dataset::view</text>
</a>
</g>
</g>
<!-- Node17&#45;&gt;Node18 -->
<g id="edge22" class="edge"><title>Node17&#45;&gt;Node18</title>
<path fill="none" stroke="midnightblue" d="M298.799,-106.531C314.191,-113.041 332.462,-120.711 349,-127.5 353.488,-129.342 358.224,-131.264 362.897,-133.146"/>
<polygon fill="midnightblue" stroke="midnightblue" points="361.717,-136.444 372.302,-136.918 364.323,-129.947 361.717,-136.444"/>
</g>
<!-- Node19 -->
<g id="node19" class="node"><title>Node19</title>
<g id="a_node19"><a xlink:href="classtlz_1_1dataset__view.html#a1ec7ba844d313cddc558874fe85246a8" target="_top" xlink:title="tlz::dataset_view::\lgroup_view">
<polygon fill="white" stroke="black" points="349,-49.5 349,-79.5 446,-79.5 446,-49.5 349,-49.5"/>
<text text-anchor="start" x="357" y="-67.5" font-family="Helvetica,sans-Serif" font-size="10.00">tlz::dataset_view::</text>
<text text-anchor="middle" x="397.5" y="-56.5" font-family="Helvetica,sans-Serif" font-size="10.00">group_view</text>
</a>
</g>
</g>
<!-- Node17&#45;&gt;Node19 -->
<g id="edge23" class="edge"><title>Node17&#45;&gt;Node19</title>
<path fill="none" stroke="midnightblue" d="M310.017,-82.0567C319.357,-80.1606 329.277,-78.1467 338.941,-76.185"/>
<polygon fill="midnightblue" stroke="midnightblue" points="339.779,-79.5862 348.883,-74.1666 338.387,-72.7261 339.779,-79.5862"/>
</g>
<!-- Node19&#45;&gt;Node15 -->
<g id="edge25" class="edge"><title>Node19&#45;&gt;Node15</title>
<path fill="none" stroke="midnightblue" d="M446.347,-79.2738C466.54,-85.509 489.555,-92.6153 507.834,-98.2594"/>
<polygon fill="midnightblue" stroke="midnightblue" points="506.867,-101.624 517.454,-101.23 508.932,-94.9351 506.867,-101.624"/>
</g>
<!-- Node20 -->
<g id="node20" class="node"><title>Node20</title>
<g id="a_node20"><a xlink:href="classtlz_1_1dataset__view.html#a31a73cf70078f270c9045bc0babadee2" target="_top" xlink:title="tlz::dataset_view::\ldataset_view">
<polygon fill="white" stroke="black" points="493.5,-49.5 493.5,-79.5 590.5,-79.5 590.5,-49.5 493.5,-49.5"/>
<text text-anchor="start" x="501.5" y="-67.5" font-family="Helvetica,sans-Serif" font-size="10.00">tlz::dataset_view::</text>
<text text-anchor="middle" x="542" y="-56.5" font-family="Helvetica,sans-Serif" font-size="10.00">dataset_view</text>
</a>
</g>
</g>
<!-- Node19&#45;&gt;Node20 -->
<g id="edge24" class="edge"><title>Node19&#45;&gt;Node20</title>
<path fill="none" stroke="midnightblue" d="M446.347,-64.5C458.096,-64.5 470.8,-64.5 482.971,-64.5"/>
<polygon fill="midnightblue" stroke="midnightblue" points="483.037,-68.0001 493.037,-64.5 483.037,-61.0001 483.037,-68.0001"/>
</g>
<!-- Node21 -->
<g id="node21" class="node"><title>Node21</title>
<g id="a_node21"><a xlink:href="classtlz_1_1dataset.html#ab14f5b1f18c0ab423c18270b7ca46bd2" target="_top" xlink:title="tlz::dataset::parameters">
<polygon fill="white" stroke="black" points="482,-9 482,-28 602,-28 602,-9 482,-9"/>
<text text-anchor="middle" x="542" y="-16" font-family="Helvetica,sans-Serif" font-size="10.00">tlz::dataset::parameters</text>
</a>
</g>
</g>
<!-- Node19&#45;&gt;Node21 -->
<g id="edge26" class="edge"><title>Node19&#45;&gt;Node21</title>
<path fill="none" stroke="midnightblue" d="M445.16,-49.4379C463.344,-43.5678 483.965,-36.9114 501.408,-31.2807"/>
<polygon fill="midnightblue" stroke="midnightblue" points="502.827,-34.5004 511.268,-28.0976 500.677,-27.8389 502.827,-34.5004"/>
</g>
<!-- Node23 -->
<g id="node23" class="node"><title>Node23</title>
<g id="a_node23"><a xlink:href="classtlz_1_1dataset__view.html#a327a842dc304656596d65b9bbf52fb1c" target="_top" xlink:title="tlz::dataset_view::\llocal_filename">
<polygon fill="white" stroke="black" points="214,-27.5 214,-57.5 311,-57.5 311,-27.5 214,-27.5"/>
<text text-anchor="start" x="222" y="-45.5" font-family="Helvetica,sans-Serif" font-size="10.00">tlz::dataset_view::</text>
<text text-anchor="middle" x="262.5" y="-34.5" font-family="Helvetica,sans-Serif" font-size="10.00">local_filename</text>
</a>
</g>
</g>
<!-- Node22&#45;&gt;Node23 -->
<g id="edge29" class="edge"><title>Node22&#45;&gt;Node23</title>
<path fill="none" stroke="midnightblue" d="M173.772,-42.5C183.386,-42.5 193.589,-42.5 203.507,-42.5"/>
<polygon fill="midnightblue" stroke="midnightblue" points="203.702,-46.0001 213.702,-42.5 203.702,-39.0001 203.702,-46.0001"/>
</g>
<!-- Node24 -->
<g id="node24" class="node"><title>Node24</title>
<g id="a_node24"><a xlink:href="namespacetlz.html#add846dc50c32dfb356cb1a7ac11d37ac" target="_top" xlink:title="tlz::get_or">
<polygon fill="white" stroke="black" points="367.5,-99 367.5,-118 427.5,-118 427.5,-99 367.5,-99"/>
<text text-anchor="middle" x="397.5" y="-106" font-family="Helvetica,sans-Serif" font-size="10.00">tlz::get_or</text>
</a>
</g>
</g>
<!-- Node23&#45;&gt;Node24 -->
<g id="edge30" class="edge"><title>Node23&#45;&gt;Node24</title>
<path fill="none" stroke="midnightblue" d="M295.685,-57.5429C301.499,-60.419 307.468,-63.478 313,-66.5 329.456,-75.4898 332.312,-79.9488 349,-88.5 353.255,-90.6805 357.804,-92.8221 362.338,-94.8461"/>
<polygon fill="midnightblue" stroke="midnightblue" points="360.956,-98.062 371.525,-98.8102 363.73,-91.6348 360.956,-98.062"/>
</g>
<!-- Node25 -->
<g id="node25" class="node"><title>Node25</title>
<g id="a_node25"><a xlink:href="classtlz_1_1dataset__view.html#a4951a6300847e0fed4fecf79d8753b58" target="_top" xlink:title="tlz::dataset_view::\llocal_parameters">
<polygon fill="white" stroke="black" points="349,-0.5 349,-30.5 446,-30.5 446,-0.5 349,-0.5"/>
<text text-anchor="start" x="357" y="-18.5" font-family="Helvetica,sans-Serif" font-size="10.00">tlz::dataset_view::</text>
<text text-anchor="middle" x="397.5" y="-7.5" font-family="Helvetica,sans-Serif" font-size="10.00">local_parameters</text>
</a>
</g>
</g>
<!-- Node23&#45;&gt;Node25 -->
<g id="edge32" class="edge"><title>Node23&#45;&gt;Node25</title>
<path fill="none" stroke="midnightblue" d="M311.14,-32.8286C320.117,-31.0062 329.594,-29.0824 338.839,-27.2056"/>
<polygon fill="midnightblue" stroke="midnightblue" points="339.641,-30.6142 348.745,-25.1946 338.249,-23.7541 339.641,-30.6142"/>
</g>
<!-- Node24&#45;&gt;Node15 -->
<g id="edge31" class="edge"><title>Node24&#45;&gt;Node15</title>
<path fill="none" stroke="midnightblue" d="M427.681,-108.5C450.662,-108.5 482.741,-108.5 506.904,-108.5"/>
<polygon fill="midnightblue" stroke="midnightblue" points="507.056,-112 517.056,-108.5 507.056,-105 507.056,-112"/>
</g>
<!-- Node25&#45;&gt;Node21 -->
<g id="edge33" class="edge"><title>Node25&#45;&gt;Node21</title>
<path fill="none" stroke="midnightblue" d="M446.347,-16.5073C454.541,-16.6798 463.2,-16.8621 471.818,-17.0435"/>
<polygon fill="midnightblue" stroke="midnightblue" points="471.815,-20.5442 481.886,-17.2555 471.962,-13.5457 471.815,-20.5442"/>
</g>
<!-- Node26&#45;&gt;Node23 -->
<g id="edge35" class="edge"><title>Node26&#45;&gt;Node23</title>
<path fill="none" stroke="midnightblue" d="M167.76,-76.3986C181.154,-71.5549 196.146,-66.1336 210.144,-61.0715"/>
<polygon fill="midnightblue" stroke="midnightblue" points="211.431,-64.3281 219.645,-57.6359 209.05,-57.7453 211.431,-64.3281"/>
</g>
</g>
</svg>
