<?xml version="1.0" encoding="UTF-8" standalone="no"?>
<!DOCTYPE svg PUBLIC "-//W3C//DTD SVG 1.1//EN"
 "http://www.w3.org/Graphics/SVG/1.1/DTD/svg11.dtd">
<!-- Generated by graphviz version 2.38.0 (20140413.2041)
 -->
<!-- Title: tlz::feature_slopes_arg Pages: 1 -->
<svg width="857pt" height="294pt"
 viewBox="0.00 0.00 857.00 293.98" xmlns="http://www.w3.org/2000/svg" xmlns:xlink="http://www.w3.org/1999/xlink">
<g id="graph0" class="graph" transform="scale(1 1) rotate(0) translate(4 289.982)">
<title>tlz::feature_slopes_arg</title>
<polygon fill="white" stroke="none" points="-4,4 -4,-289.982 853,-289.982 853,4 -4,4"/>
<!-- Node1 -->
<g id="node1" class="node"><title>Node1</title>
<polygon fill="#bfbfbf" stroke="black" points="0,-163.5 0,-182.5 116,-182.5 116,-163.5 0,-163.5"/>
<text text-anchor="middle" x="58" y="-170.5" font-family="Helvetica,sans-Serif" font-size="10.00">tlz::feature_slopes_arg</text>
</g>
<!-- Node2 -->
<g id="node2" class="node"><title>Node2</title>
<g id="a_node2"><a xlink:href="namespacetlz.html#a3f97cf7f503f586ab7cfa5175b5a5bf2" target="_top" xlink:title="tlz::decode_feature\l_slopes">
<polygon fill="white" stroke="black" points="152,-186 152,-216 252,-216 252,-186 152,-186"/>
<text text-anchor="start" x="160" y="-204" font-family="Helvetica,sans-Serif" font-size="10.00">tlz::decode_feature</text>
<text text-anchor="middle" x="202" y="-193" font-family="Helvetica,sans-Serif" font-size="10.00">_slopes</text>
</a>
</g>
</g>
<!-- Node1&#45;&gt;Node2 -->
<g id="edge1" class="edge"><title>Node1&#45;&gt;Node2</title>
<path fill="none" stroke="midnightblue" d="M107.471,-182.558C118.532,-184.739 130.407,-187.08 141.859,-189.338"/>
<polygon fill="midnightblue" stroke="midnightblue" points="141.294,-192.794 151.782,-191.295 142.648,-185.927 141.294,-192.794"/>
</g>
<!-- Node8 -->
<g id="node8" class="node"><title>Node8</title>
<g id="a_node8"><a xlink:href="namespacetlz.html#a35f9e03fa4fd9cec699f5fa27962400f" target="_top" xlink:title="tlz::json_arg">
<polygon fill="white" stroke="black" points="167,-136.5 167,-155.5 237,-155.5 237,-136.5 167,-136.5"/>
<text text-anchor="middle" x="202" y="-143.5" font-family="Helvetica,sans-Serif" font-size="10.00">tlz::json_arg</text>
</a>
</g>
</g>
<!-- Node1&#45;&gt;Node8 -->
<g id="edge9" class="edge"><title>Node1&#45;&gt;Node8</title>
<path fill="none" stroke="midnightblue" d="M109.064,-163.481C124.634,-160.52 141.68,-157.279 156.819,-154.401"/>
<polygon fill="midnightblue" stroke="midnightblue" points="157.783,-157.78 166.954,-152.474 156.476,-150.903 157.783,-157.78"/>
</g>
<!-- Node3 -->
<g id="node3" class="node"><title>Node3</title>
<g id="a_node3"><a xlink:href="namespacetlz.html#abc92401653ee5627160c4f3c48a11311" target="_top" xlink:title="tlz::decode_feature\l_points">
<polygon fill="white" stroke="black" points="288.5,-197 288.5,-227 388.5,-227 388.5,-197 288.5,-197"/>
<text text-anchor="start" x="296.5" y="-215" font-family="Helvetica,sans-Serif" font-size="10.00">tlz::decode_feature</text>
<text text-anchor="middle" x="338.5" y="-204" font-family="Helvetica,sans-Serif" font-size="10.00">_points</text>
</a>
</g>
</g>
<!-- Node2&#45;&gt;Node3 -->
<g id="edge2" class="edge"><title>Node2&#45;&gt;Node3</title>
<path fill="none" stroke="midnightblue" d="M252.319,-205.034C260.725,-205.721 269.535,-206.442 278.168,-207.148"/>
<polygon fill="midnightblue" stroke="midnightblue" points="277.935,-210.64 288.187,-207.967 278.505,-203.663 277.935,-210.64"/>
</g>
<!-- Node4 -->
<g id="node4" class="node"><title>Node4</title>
<g id="a_node4"><a xlink:href="namespacetlz.html#a252af14b9b4ac6502d3e9c5dd8dc90b8" target="_top" xlink:title="tlz::has">
<polygon fill="white" stroke="black" points="764.5,-240.5 764.5,-259.5 813.5,-259.5 813.5,-240.5 764.5,-240.5"/>
<text text-anchor="middle" x="789" y="-247.5" font-family="Helvetica,sans-Serif" font-size="10.00">tlz::has</text>
</a>
</g>
</g>
<!-- Node3&#45;&gt;Node4 -->
<g id="edge3" class="edge"><title>Node3&#45;&gt;Node4</title>
<path fill="none" stroke="midnightblue" d="M355.636,-227.073C371.777,-241.034 398.022,-260.832 425,-269 541.958,-304.412 689.672,-275.381 754.695,-259.137"/>
<polygon fill="midnightblue" stroke="midnightblue" points="755.585,-262.522 764.404,-256.651 753.848,-255.741 755.585,-262.522"/>
</g>
<!-- Node5 -->
<g id="node5" class="node"><title>Node5</title>
<g id="a_node5"><a xlink:href="namespacetlz.html#a74e8454f97dace7cffb1afdb6d3ca87b" target="_top" xlink:title="tlz::decode_view_index">
<polygon fill="white" stroke="black" points="425,-240.5 425,-259.5 544,-259.5 544,-240.5 425,-240.5"/>
<text text-anchor="middle" x="484.5" y="-247.5" font-family="Helvetica,sans-Serif" font-size="10.00">tlz::decode_view_index</text>
</a>
</g>
</g>
<!-- Node3&#45;&gt;Node5 -->
<g id="edge4" class="edge"><title>Node3&#45;&gt;Node5</title>
<path fill="none" stroke="midnightblue" d="M388.654,-224.971C404.427,-229.134 421.832,-233.727 437.38,-237.83"/>
<polygon fill="midnightblue" stroke="midnightblue" points="436.731,-241.278 447.293,-240.445 438.517,-234.51 436.731,-241.278"/>
</g>
<!-- Node6 -->
<g id="node6" class="node"><title>Node6</title>
<g id="a_node6"><a xlink:href="namespacetlz.html#add846dc50c32dfb356cb1a7ac11d37ac" target="_top" xlink:title="tlz::get_or">
<polygon fill="white" stroke="black" points="606.5,-202.5 606.5,-221.5 666.5,-221.5 666.5,-202.5 606.5,-202.5"/>
<text text-anchor="middle" x="636.5" y="-209.5" font-family="Helvetica,sans-Serif" font-size="10.00">tlz::get_or</text>
</a>
</g>
</g>
<!-- Node3&#45;&gt;Node6 -->
<g id="edge5" class="edge"><title>Node3&#45;&gt;Node6</title>
<path fill="none" stroke="midnightblue" d="M388.711,-212C446.967,-212 542.806,-212 596.295,-212"/>
<polygon fill="midnightblue" stroke="midnightblue" points="596.405,-215.5 606.405,-212 596.405,-208.5 596.405,-215.5"/>
</g>
<!-- Node7 -->
<g id="node7" class="node"><title>Node7</title>
<g id="a_node7"><a xlink:href="namespacetlz.html#ae8f9175a86bbe49ac0f4485d5db3080b" target="_top" xlink:title="tlz::decode_feature\l_point">
<polygon fill="white" stroke="black" points="434.5,-153 434.5,-183 534.5,-183 534.5,-153 434.5,-153"/>
<text text-anchor="start" x="442.5" y="-171" font-family="Helvetica,sans-Serif" font-size="10.00">tlz::decode_feature</text>
<text text-anchor="middle" x="484.5" y="-160" font-family="Helvetica,sans-Serif" font-size="10.00">_point</text>
</a>
</g>
</g>
<!-- Node3&#45;&gt;Node7 -->
<g id="edge7" class="edge"><title>Node3&#45;&gt;Node7</title>
<path fill="none" stroke="midnightblue" d="M388.654,-196.981C400.111,-193.48 412.43,-189.716 424.272,-186.097"/>
<polygon fill="midnightblue" stroke="midnightblue" points="425.538,-189.37 434.079,-183.101 423.492,-182.676 425.538,-189.37"/>
</g>
<!-- Node6&#45;&gt;Node4 -->
<g id="edge6" class="edge"><title>Node6&#45;&gt;Node4</title>
<path fill="none" stroke="midnightblue" d="M666.518,-219.327C691.553,-225.648 727.735,-234.784 754.098,-241.44"/>
<polygon fill="midnightblue" stroke="midnightblue" points="753.475,-244.893 764.028,-243.947 755.189,-238.106 753.475,-244.893"/>
</g>
<!-- Node7&#45;&gt;Node6 -->
<g id="edge8" class="edge"><title>Node7&#45;&gt;Node6</title>
<path fill="none" stroke="midnightblue" d="M534.616,-182.407C554.75,-188.313 577.721,-195.051 596.652,-200.605"/>
<polygon fill="midnightblue" stroke="midnightblue" points="595.848,-204.016 606.428,-203.472 597.818,-197.299 595.848,-204.016"/>
</g>
<!-- Node9 -->
<g id="node9" class="node"><title>Node9</title>
<g id="a_node9"><a xlink:href="namespacetlz.html#aa1be9362f548fcf9378e1fc9074089c4" target="_top" xlink:title="tlz::import_json_file">
<polygon fill="white" stroke="black" points="288,-136.5 288,-155.5 389,-155.5 389,-136.5 288,-136.5"/>
<text text-anchor="middle" x="338.5" y="-143.5" font-family="Helvetica,sans-Serif" font-size="10.00">tlz::import_json_file</text>
</a>
</g>
</g>
<!-- Node8&#45;&gt;Node9 -->
<g id="edge10" class="edge"><title>Node8&#45;&gt;Node9</title>
<path fill="none" stroke="midnightblue" d="M237.288,-146C249.506,-146 263.653,-146 277.397,-146"/>
<polygon fill="midnightblue" stroke="midnightblue" points="277.79,-149.5 287.79,-146 277.79,-142.5 277.79,-149.5"/>
</g>
<!-- Node10 -->
<g id="node10" class="node"><title>Node10</title>
<g id="a_node10"><a xlink:href="namespacetlz.html#a634de7ca11e100e4a118dffe80376a75" target="_top" xlink:title="tlz::in_filename_arg">
<polygon fill="white" stroke="black" points="288,-76.5 288,-95.5 389,-95.5 389,-76.5 288,-76.5"/>
<text text-anchor="middle" x="338.5" y="-83.5" font-family="Helvetica,sans-Serif" font-size="10.00">tlz::in_filename_arg</text>
</a>
</g>
</g>
<!-- Node8&#45;&gt;Node10 -->
<g id="edge11" class="edge"><title>Node8&#45;&gt;Node10</title>
<path fill="none" stroke="midnightblue" d="M224.312,-136.493C246.512,-126.589 281.507,-110.978 306.71,-99.7354"/>
<polygon fill="midnightblue" stroke="midnightblue" points="308.136,-102.932 315.842,-95.6614 305.284,-96.539 308.136,-102.932"/>
</g>
<!-- Node11 -->
<g id="node11" class="node"><title>Node11</title>
<g id="a_node11"><a xlink:href="namespacetlz.html#a0621d598fb83b13bf028f3e6293d04f8" target="_top" xlink:title="tlz::string_arg">
<polygon fill="white" stroke="black" points="446.5,-76.5 446.5,-95.5 522.5,-95.5 522.5,-76.5 446.5,-76.5"/>
<text text-anchor="middle" x="484.5" y="-83.5" font-family="Helvetica,sans-Serif" font-size="10.00">tlz::string_arg</text>
</a>
</g>
</g>
<!-- Node10&#45;&gt;Node11 -->
<g id="edge12" class="edge"><title>Node10&#45;&gt;Node11</title>
<path fill="none" stroke="midnightblue" d="M389.057,-86C404.26,-86 420.947,-86 436.009,-86"/>
<polygon fill="midnightblue" stroke="midnightblue" points="436.138,-89.5001 446.138,-86 436.138,-82.5001 436.138,-89.5001"/>
</g>
<!-- Node12 -->
<g id="node12" class="node"><title>Node12</title>
<g id="a_node12"><a xlink:href="namespacetlz.html#a780431daab8d2595372eacb43143b52d" target="_top" xlink:title="tlz::args">
<polygon fill="white" stroke="black" points="610.5,-114.5 610.5,-133.5 662.5,-133.5 662.5,-114.5 610.5,-114.5"/>
<text text-anchor="middle" x="636.5" y="-121.5" font-family="Helvetica,sans-Serif" font-size="10.00">tlz::args</text>
</a>
</g>
</g>
<!-- Node10&#45;&gt;Node12 -->
<g id="edge18" class="edge"><title>Node10&#45;&gt;Node12</title>
<path fill="none" stroke="midnightblue" d="M377.606,-95.5694C392.333,-98.9773 409.374,-102.569 425,-105 486.205,-114.522 558.219,-119.748 600.176,-122.203"/>
<polygon fill="midnightblue" stroke="midnightblue" points="600.241,-125.712 610.422,-122.782 600.636,-118.723 600.241,-125.712"/>
</g>
<!-- Node14 -->
<g id="node14" class="node"><title>Node14</title>
<g id="a_node14"><a xlink:href="classtlz_1_1args__list.html#a38ad21acd64a4af98ffdf4a47837cdbe" target="_top" xlink:title="tlz::args_list::usage_fail">
<polygon fill="white" stroke="black" points="729,-38.5 729,-57.5 849,-57.5 849,-38.5 729,-38.5"/>
<text text-anchor="middle" x="789" y="-45.5" font-family="Helvetica,sans-Serif" font-size="10.00">tlz::args_list::usage_fail</text>
</a>
</g>
</g>
<!-- Node10&#45;&gt;Node14 -->
<g id="edge19" class="edge"><title>Node10&#45;&gt;Node14</title>
<path fill="none" stroke="midnightblue" d="M376.292,-76.4164C391.297,-72.8774 408.879,-69.1976 425,-67 526.673,-53.1403 645.634,-49.2217 718.904,-48.2073"/>
<polygon fill="midnightblue" stroke="midnightblue" points="718.977,-51.7067 728.933,-48.0827 718.89,-44.7073 718.977,-51.7067"/>
</g>
<!-- Node16 -->
<g id="node16" class="node"><title>Node16</title>
<g id="a_node16"><a xlink:href="namespacetlz.html#abb019466ea9f56c0dab27e893d891837" target="_top" xlink:title="tlz::file_exists">
<polygon fill="white" stroke="black" points="446,-0.5 446,-19.5 523,-19.5 523,-0.5 446,-0.5"/>
<text text-anchor="middle" x="484.5" y="-7.5" font-family="Helvetica,sans-Serif" font-size="10.00">tlz::file_exists</text>
</a>
</g>
</g>
<!-- Node10&#45;&gt;Node16 -->
<g id="edge17" class="edge"><title>Node10&#45;&gt;Node16</title>
<path fill="none" stroke="midnightblue" d="M353.628,-76.457C370.268,-65.4441 398.949,-47.1631 425,-34 432.453,-30.2339 440.643,-26.5869 448.472,-23.3207"/>
<polygon fill="midnightblue" stroke="midnightblue" points="449.824,-26.5496 457.771,-19.5431 447.189,-20.0643 449.824,-26.5496"/>
</g>
<!-- Node11&#45;&gt;Node12 -->
<g id="edge13" class="edge"><title>Node11&#45;&gt;Node12</title>
<path fill="none" stroke="midnightblue" d="M522.579,-95.3933C546.309,-101.405 576.912,-109.158 600.272,-115.076"/>
<polygon fill="midnightblue" stroke="midnightblue" points="599.568,-118.508 610.121,-117.571 601.287,-111.722 599.568,-118.508"/>
</g>
<!-- Node13 -->
<g id="node13" class="node"><title>Node13</title>
<g id="a_node13"><a xlink:href="classtlz_1_1args__list.html#a73d99bc75998dc14607a3a372d28dc6d" target="_top" xlink:title="tlz::args_list::next_arg">
<polygon fill="white" stroke="black" points="580,-76.5 580,-95.5 693,-95.5 693,-76.5 580,-76.5"/>
<text text-anchor="middle" x="636.5" y="-83.5" font-family="Helvetica,sans-Serif" font-size="10.00">tlz::args_list::next_arg</text>
</a>
</g>
</g>
<!-- Node11&#45;&gt;Node13 -->
<g id="edge14" class="edge"><title>Node11&#45;&gt;Node13</title>
<path fill="none" stroke="midnightblue" d="M522.579,-86C536.741,-86 553.351,-86 569.409,-86"/>
<polygon fill="midnightblue" stroke="midnightblue" points="569.85,-89.5001 579.85,-86 569.85,-82.5001 569.85,-89.5001"/>
</g>
<!-- Node13&#45;&gt;Node14 -->
<g id="edge15" class="edge"><title>Node13&#45;&gt;Node14</title>
<path fill="none" stroke="midnightblue" d="M675.478,-76.411C695.159,-71.4417 719.391,-65.3233 740.321,-60.0387"/>
<polygon fill="midnightblue" stroke="midnightblue" points="741.457,-63.3617 750.296,-57.5201 739.743,-56.5747 741.457,-63.3617"/>
</g>
<!-- Node15 -->
<g id="node15" class="node"><title>Node15</title>
<g id="a_node15"><a xlink:href="namespacetlz.html#a8e4f8c8c2927bc4350de13bfa0f8f9e1" target="_top" xlink:title="tlz::to_string">
<polygon fill="white" stroke="black" points="753.5,-76.5 753.5,-95.5 824.5,-95.5 824.5,-76.5 753.5,-76.5"/>
<text text-anchor="middle" x="789" y="-83.5" font-family="Helvetica,sans-Serif" font-size="10.00">tlz::to_string</text>
</a>
</g>
</g>
<!-- Node13&#45;&gt;Node15 -->
<g id="edge16" class="edge"><title>Node13&#45;&gt;Node15</title>
<path fill="none" stroke="midnightblue" d="M693.113,-86C709.441,-86 727.096,-86 742.698,-86"/>
<polygon fill="midnightblue" stroke="midnightblue" points="743.13,-89.5001 753.13,-86 743.129,-82.5001 743.13,-89.5001"/>
</g>
</g>
</svg>
