<?xml version="1.0" encoding="UTF-8" standalone="no"?>
<!DOCTYPE svg PUBLIC "-//W3C//DTD SVG 1.1//EN"
 "http://www.w3.org/Graphics/SVG/1.1/DTD/svg11.dtd">
<!-- Generated by graphviz version 2.38.0 (20140413.2041)
 -->
<!-- Title: tlz::in_filename_arg Pages: 1 -->
<svg width="527pt" height="142pt"
 viewBox="0.00 0.00 527.00 142.00" xmlns="http://www.w3.org/2000/svg" xmlns:xlink="http://www.w3.org/1999/xlink">
<g id="graph0" class="graph" transform="scale(1 1) rotate(0) translate(4 138)">
<title>tlz::in_filename_arg</title>
<polygon fill="white" stroke="none" points="-4,4 -4,-138 523,-138 523,4 -4,4"/>
<!-- Node1 -->
<g id="node1" class="node"><title>Node1</title>
<polygon fill="#bfbfbf" stroke="black" points="0,-57.5 0,-76.5 101,-76.5 101,-57.5 0,-57.5"/>
<text text-anchor="middle" x="50.5" y="-64.5" font-family="Helvetica,sans-Serif" font-size="10.00">tlz::in_filename_arg</text>
</g>
<!-- Node2 -->
<g id="node2" class="node"><title>Node2</title>
<g id="a_node2"><a xlink:href="namespacetlz.html#a0621d598fb83b13bf028f3e6293d04f8" target="_top" xlink:title="tlz::string_arg">
<polygon fill="white" stroke="black" points="137.5,-76.5 137.5,-95.5 213.5,-95.5 213.5,-76.5 137.5,-76.5"/>
<text text-anchor="middle" x="175.5" y="-83.5" font-family="Helvetica,sans-Serif" font-size="10.00">tlz::string_arg</text>
</a>
</g>
</g>
<!-- Node1&#45;&gt;Node2 -->
<g id="edge1" class="edge"><title>Node1&#45;&gt;Node2</title>
<path fill="none" stroke="midnightblue" d="M101.174,-74.6733C109.706,-75.9912 118.554,-77.358 127.027,-78.6667"/>
<polygon fill="midnightblue" stroke="midnightblue" points="126.712,-82.1595 137.129,-80.2272 127.781,-75.2416 126.712,-82.1595"/>
</g>
<!-- Node3 -->
<g id="node3" class="node"><title>Node3</title>
<g id="a_node3"><a xlink:href="namespacetlz.html#a780431daab8d2595372eacb43143b52d" target="_top" xlink:title="tlz::args">
<polygon fill="white" stroke="black" points="280.5,-114.5 280.5,-133.5 332.5,-133.5 332.5,-114.5 280.5,-114.5"/>
<text text-anchor="middle" x="306.5" y="-121.5" font-family="Helvetica,sans-Serif" font-size="10.00">tlz::args</text>
</a>
</g>
</g>
<!-- Node1&#45;&gt;Node3 -->
<g id="edge7" class="edge"><title>Node1&#45;&gt;Node3</title>
<path fill="none" stroke="midnightblue" d="M68.9285,-76.6539C85.8074,-85.5367 112.389,-98.3143 137,-105 182.055,-117.24 235.955,-121.606 270.449,-123.157"/>
<polygon fill="midnightblue" stroke="midnightblue" points="270.369,-126.657 280.5,-123.554 270.645,-119.662 270.369,-126.657"/>
</g>
<!-- Node5 -->
<g id="node5" class="node"><title>Node5</title>
<g id="a_node5"><a xlink:href="classtlz_1_1args__list.html#a38ad21acd64a4af98ffdf4a47837cdbe" target="_top" xlink:title="tlz::args_list::usage_fail">
<polygon fill="white" stroke="black" points="399,-38.5 399,-57.5 519,-57.5 519,-38.5 399,-38.5"/>
<text text-anchor="middle" x="459" y="-45.5" font-family="Helvetica,sans-Serif" font-size="10.00">tlz::args_list::usage_fail</text>
</a>
</g>
</g>
<!-- Node1&#45;&gt;Node5 -->
<g id="edge8" class="edge"><title>Node1&#45;&gt;Node5</title>
<path fill="none" stroke="midnightblue" d="M101.345,-64.6702C173.419,-61.3015 307.021,-55.0568 388.668,-51.2406"/>
<polygon fill="midnightblue" stroke="midnightblue" points="389.025,-54.7278 398.851,-50.7647 388.698,-47.7355 389.025,-54.7278"/>
</g>
<!-- Node7 -->
<g id="node7" class="node"><title>Node7</title>
<g id="a_node7"><a xlink:href="namespacetlz.html#abb019466ea9f56c0dab27e893d891837" target="_top" xlink:title="tlz::file_exists">
<polygon fill="white" stroke="black" points="137,-0.5 137,-19.5 214,-19.5 214,-0.5 137,-0.5"/>
<text text-anchor="middle" x="175.5" y="-7.5" font-family="Helvetica,sans-Serif" font-size="10.00">tlz::file_exists</text>
</a>
</g>
</g>
<!-- Node1&#45;&gt;Node7 -->
<g id="edge6" class="edge"><title>Node1&#45;&gt;Node7</title>
<path fill="none" stroke="midnightblue" d="M72.0874,-57.4595C91.9544,-48.2528 122.246,-34.2153 144.737,-23.7926"/>
<polygon fill="midnightblue" stroke="midnightblue" points="146.244,-26.9519 153.845,-19.5716 143.301,-20.6007 146.244,-26.9519"/>
</g>
<!-- Node2&#45;&gt;Node3 -->
<g id="edge2" class="edge"><title>Node2&#45;&gt;Node3</title>
<path fill="none" stroke="midnightblue" d="M209.052,-95.589C227.78,-101.106 251.314,-108.038 270.447,-113.674"/>
<polygon fill="midnightblue" stroke="midnightblue" points="269.701,-117.103 280.283,-116.572 271.679,-110.389 269.701,-117.103"/>
</g>
<!-- Node4 -->
<g id="node4" class="node"><title>Node4</title>
<g id="a_node4"><a xlink:href="classtlz_1_1args__list.html#a73d99bc75998dc14607a3a372d28dc6d" target="_top" xlink:title="tlz::args_list::next_arg">
<polygon fill="white" stroke="black" points="250,-76.5 250,-95.5 363,-95.5 363,-76.5 250,-76.5"/>
<text text-anchor="middle" x="306.5" y="-83.5" font-family="Helvetica,sans-Serif" font-size="10.00">tlz::args_list::next_arg</text>
</a>
</g>
</g>
<!-- Node2&#45;&gt;Node4 -->
<g id="edge3" class="edge"><title>Node2&#45;&gt;Node4</title>
<path fill="none" stroke="midnightblue" d="M213.812,-86C221.835,-86 230.544,-86 239.295,-86"/>
<polygon fill="midnightblue" stroke="midnightblue" points="239.549,-89.5001 249.549,-86 239.549,-82.5001 239.549,-89.5001"/>
</g>
<!-- Node4&#45;&gt;Node5 -->
<g id="edge4" class="edge"><title>Node4&#45;&gt;Node5</title>
<path fill="none" stroke="midnightblue" d="M345.478,-76.411C365.159,-71.4417 389.391,-65.3233 410.321,-60.0387"/>
<polygon fill="midnightblue" stroke="midnightblue" points="411.457,-63.3617 420.296,-57.5201 409.743,-56.5747 411.457,-63.3617"/>
</g>
<!-- Node6 -->
<g id="node6" class="node"><title>Node6</title>
<g id="a_node6"><a xlink:href="namespacetlz.html#a8e4f8c8c2927bc4350de13bfa0f8f9e1" target="_top" xlink:title="tlz::to_string">
<polygon fill="white" stroke="black" points="423.5,-76.5 423.5,-95.5 494.5,-95.5 494.5,-76.5 423.5,-76.5"/>
<text text-anchor="middle" x="459" y="-83.5" font-family="Helvetica,sans-Serif" font-size="10.00">tlz::to_string</text>
</a>
</g>
</g>
<!-- Node4&#45;&gt;Node6 -->
<g id="edge5" class="edge"><title>Node4&#45;&gt;Node6</title>
<path fill="none" stroke="midnightblue" d="M363.113,-86C379.441,-86 397.096,-86 412.698,-86"/>
<polygon fill="midnightblue" stroke="midnightblue" points="413.13,-89.5001 423.13,-86 413.129,-82.5001 413.13,-89.5001"/>
</g>
</g>
</svg>
