<?xml version="1.0" encoding="UTF-8" standalone="no"?>
<!DOCTYPE svg PUBLIC "-//W3C//DTD SVG 1.1//EN"
 "http://www.w3.org/Graphics/SVG/1.1/DTD/svg11.dtd">
<!-- Generated by graphviz version 2.38.0 (20140413.2041)
 -->
<!-- Title: tlz::import_image_correspondences Pages: 1 -->
<svg width="933pt" height="154pt"
 viewBox="0.00 0.00 933.00 153.50" xmlns="http://www.w3.org/2000/svg" xmlns:xlink="http://www.w3.org/1999/xlink">
<g id="graph0" class="graph" transform="scale(1 1) rotate(0) translate(4 149.5)">
<title>tlz::import_image_correspondences</title>
<polygon fill="white" stroke="none" points="-4,4 -4,-149.5 929,-149.5 929,4 -4,4"/>
<!-- Node1 -->
<g id="node1" class="node"><title>Node1</title>
<polygon fill="#bfbfbf" stroke="black" points="0,-69 0,-88 171,-88 171,-69 0,-69"/>
<text text-anchor="middle" x="85.5" y="-76" font-family="Helvetica,sans-Serif" font-size="10.00">tlz::import_image_correspondences</text>
</g>
<!-- Node2 -->
<g id="node2" class="node"><title>Node2</title>
<g id="a_node2"><a xlink:href="namespacetlz.html#ae11c827ac9e581f9d2f98c39aab3750d" target="_top" xlink:title="tlz::file_name_extension">
<polygon fill="white" stroke="black" points="234,-126 234,-145 356,-145 356,-126 234,-126"/>
<text text-anchor="middle" x="295" y="-133" font-family="Helvetica,sans-Serif" font-size="10.00">tlz::file_name_extension</text>
</a>
</g>
</g>
<!-- Node1&#45;&gt;Node2 -->
<g id="edge1" class="edge"><title>Node1&#45;&gt;Node2</title>
<path fill="none" stroke="midnightblue" d="M114.532,-88.1325C138.82,-96.2875 174.992,-107.977 207,-116.5 216.524,-119.036 226.7,-121.487 236.612,-123.739"/>
<polygon fill="midnightblue" stroke="midnightblue" points="235.881,-127.162 246.402,-125.919 237.402,-120.329 235.881,-127.162"/>
</g>
<!-- Node3 -->
<g id="node3" class="node"><title>Node3</title>
<g id="a_node3"><a xlink:href="namespacetlz.html#a24915249769d936c24ceb34f50b06104" target="_top" xlink:title="tlz::decode_image_correspondences">
<polygon fill="white" stroke="black" points="207,-88 207,-107 383,-107 383,-88 207,-88"/>
<text text-anchor="middle" x="295" y="-95" font-family="Helvetica,sans-Serif" font-size="10.00">tlz::decode_image_correspondences</text>
</a>
</g>
</g>
<!-- Node1&#45;&gt;Node3 -->
<g id="edge2" class="edge"><title>Node1&#45;&gt;Node3</title>
<path fill="none" stroke="midnightblue" d="M171.197,-86.2554C179.655,-87.0298 188.287,-87.8202 196.859,-88.6051"/>
<polygon fill="midnightblue" stroke="midnightblue" points="196.602,-92.0962 206.879,-89.5227 197.24,-85.1253 196.602,-92.0962"/>
</g>
<!-- Node9 -->
<g id="node9" class="node"><title>Node9</title>
<g id="a_node9"><a xlink:href="namespacetlz.html#aa1be9362f548fcf9378e1fc9074089c4" target="_top" xlink:title="tlz::import_json_file">
<polygon fill="white" stroke="black" points="244.5,-50 244.5,-69 345.5,-69 345.5,-50 244.5,-50"/>
<text text-anchor="middle" x="295" y="-57" font-family="Helvetica,sans-Serif" font-size="10.00">tlz::import_json_file</text>
</a>
</g>
</g>
<!-- Node1&#45;&gt;Node9 -->
<g id="edge10" class="edge"><title>Node1&#45;&gt;Node9</title>
<path fill="none" stroke="midnightblue" d="M171.197,-70.7446C192.383,-68.8047 214.665,-66.7644 234.347,-64.9622"/>
<polygon fill="midnightblue" stroke="midnightblue" points="234.743,-68.4407 244.382,-64.0433 234.105,-61.4699 234.743,-68.4407"/>
</g>
<!-- Node10 -->
<g id="node10" class="node"><title>Node10</title>
<g id="a_node10"><a xlink:href="namespacetlz.html#a2ec439452fda5eeb03f60715e50fa96a" target="_top" xlink:title="tlz::import_binary\l_image_correspondences">
<polygon fill="white" stroke="black" points="231,-0.5 231,-30.5 359,-30.5 359,-0.5 231,-0.5"/>
<text text-anchor="start" x="239" y="-18.5" font-family="Helvetica,sans-Serif" font-size="10.00">tlz::import_binary</text>
<text text-anchor="middle" x="295" y="-7.5" font-family="Helvetica,sans-Serif" font-size="10.00">_image_correspondences</text>
</a>
</g>
</g>
<!-- Node1&#45;&gt;Node10 -->
<g id="edge11" class="edge"><title>Node1&#45;&gt;Node10</title>
<path fill="none" stroke="midnightblue" d="M116.147,-68.9176C140.498,-61.1031 175.915,-49.8658 207,-40.5 214.702,-38.1793 222.803,-35.7871 230.834,-33.4449"/>
<polygon fill="midnightblue" stroke="midnightblue" points="231.937,-36.7693 240.565,-30.6207 229.986,-30.0467 231.937,-36.7693"/>
</g>
<!-- Node4 -->
<g id="node4" class="node"><title>Node4</title>
<g id="a_node4"><a xlink:href="namespacetlz.html#a252af14b9b4ac6502d3e9c5dd8dc90b8" target="_top" xlink:title="tlz::has">
<polygon fill="white" stroke="black" points="876,-88 876,-107 925,-107 925,-88 876,-88"/>
<text text-anchor="middle" x="900.5" y="-95" font-family="Helvetica,sans-Serif" font-size="10.00">tlz::has</text>
</a>
</g>
</g>
<!-- Node3&#45;&gt;Node4 -->
<g id="edge3" class="edge"><title>Node3&#45;&gt;Node4</title>
<path fill="none" stroke="midnightblue" d="M383.016,-99.7364C395.102,-100.014 407.361,-100.277 419,-100.5 579.431,-103.567 619.544,-104.389 780,-105.5 806.666,-105.685 813.393,-107.281 840,-105.5 848.429,-104.936 857.484,-103.927 865.924,-102.812"/>
<polygon fill="midnightblue" stroke="midnightblue" points="866.415,-106.277 875.832,-101.421 865.442,-99.3453 866.415,-106.277"/>
</g>
<!-- Node5 -->
<g id="node5" class="node"><title>Node5</title>
<g id="a_node5"><a xlink:href="namespacetlz.html#ab83b0eb933afca1abe8ccd3470207691" target="_top" xlink:title="tlz::decode_image_correspondence\l_feature">
<polygon fill="white" stroke="black" points="419,-60.5 419,-90.5 589,-90.5 589,-60.5 419,-60.5"/>
<text text-anchor="start" x="427" y="-78.5" font-family="Helvetica,sans-Serif" font-size="10.00">tlz::decode_image_correspondence</text>
<text text-anchor="middle" x="504" y="-67.5" font-family="Helvetica,sans-Serif" font-size="10.00">_feature</text>
</a>
</g>
</g>
<!-- Node3&#45;&gt;Node5 -->
<g id="edge4" class="edge"><title>Node3&#45;&gt;Node5</title>
<path fill="none" stroke="midnightblue" d="M383.187,-88.2338C391.684,-87.3307 400.332,-86.4116 408.894,-85.5016"/>
<polygon fill="midnightblue" stroke="midnightblue" points="409.316,-88.9765 418.89,-84.4392 408.576,-82.0157 409.316,-88.9765"/>
</g>
<!-- Node5&#45;&gt;Node4 -->
<g id="edge5" class="edge"><title>Node5&#45;&gt;Node4</title>
<path fill="none" stroke="midnightblue" d="M589.146,-80.1926C675.176,-84.9902 804.559,-92.2055 865.482,-95.6029"/>
<polygon fill="midnightblue" stroke="midnightblue" points="865.511,-99.1099 875.691,-96.1722 865.901,-92.1208 865.511,-99.1099"/>
</g>
<!-- Node6 -->
<g id="node6" class="node"><title>Node6</title>
<g id="a_node6"><a xlink:href="namespacetlz.html#a74e8454f97dace7cffb1afdb6d3ca87b" target="_top" xlink:title="tlz::decode_view_index">
<polygon fill="white" stroke="black" points="625,-50 625,-69 744,-69 744,-50 625,-50"/>
<text text-anchor="middle" x="684.5" y="-57" font-family="Helvetica,sans-Serif" font-size="10.00">tlz::decode_view_index</text>
</a>
</g>
</g>
<!-- Node5&#45;&gt;Node6 -->
<g id="edge6" class="edge"><title>Node5&#45;&gt;Node6</title>
<path fill="none" stroke="midnightblue" d="M589.023,-67.9685C597.638,-67.1964 606.317,-66.4184 614.739,-65.6634"/>
<polygon fill="midnightblue" stroke="midnightblue" points="615.216,-69.1349 624.863,-64.756 614.591,-62.1628 615.216,-69.1349"/>
</g>
<!-- Node7 -->
<g id="node7" class="node"><title>Node7</title>
<g id="a_node7"><a xlink:href="namespacetlz.html#ae8f9175a86bbe49ac0f4485d5db3080b" target="_top" xlink:title="tlz::decode_feature\l_point">
<polygon fill="white" stroke="black" points="634.5,-0.5 634.5,-30.5 734.5,-30.5 734.5,-0.5 634.5,-0.5"/>
<text text-anchor="start" x="642.5" y="-18.5" font-family="Helvetica,sans-Serif" font-size="10.00">tlz::decode_feature</text>
<text text-anchor="middle" x="684.5" y="-7.5" font-family="Helvetica,sans-Serif" font-size="10.00">_point</text>
</a>
</g>
</g>
<!-- Node5&#45;&gt;Node7 -->
<g id="edge7" class="edge"><title>Node5&#45;&gt;Node7</title>
<path fill="none" stroke="midnightblue" d="M550.043,-60.3595C574.023,-52.2992 603.698,-42.3242 628.972,-33.8287"/>
<polygon fill="midnightblue" stroke="midnightblue" points="630.417,-37.0355 638.781,-30.5317 628.187,-30.4003 630.417,-37.0355"/>
</g>
<!-- Node8 -->
<g id="node8" class="node"><title>Node8</title>
<g id="a_node8"><a xlink:href="namespacetlz.html#add846dc50c32dfb356cb1a7ac11d37ac" target="_top" xlink:title="tlz::get_or">
<polygon fill="white" stroke="black" points="780,-28 780,-47 840,-47 840,-28 780,-28"/>
<text text-anchor="middle" x="810" y="-35" font-family="Helvetica,sans-Serif" font-size="10.00">tlz::get_or</text>
</a>
</g>
</g>
<!-- Node7&#45;&gt;Node8 -->
<g id="edge8" class="edge"><title>Node7&#45;&gt;Node8</title>
<path fill="none" stroke="midnightblue" d="M734.665,-24.2582C746.407,-26.3499 758.784,-28.5546 769.996,-30.552"/>
<polygon fill="midnightblue" stroke="midnightblue" points="769.457,-34.0109 779.915,-32.3189 770.684,-27.1193 769.457,-34.0109"/>
</g>
<!-- Node8&#45;&gt;Node4 -->
<g id="edge9" class="edge"><title>Node8&#45;&gt;Node4</title>
<path fill="none" stroke="midnightblue" d="M825.219,-47.14C839.154,-56.5872 860.611,-71.1346 876.887,-82.1695"/>
<polygon fill="midnightblue" stroke="midnightblue" points="875.075,-85.1692 885.316,-87.8839 879.003,-79.3753 875.075,-85.1692"/>
</g>
</g>
</svg>
