<?xml version="1.0" encoding="UTF-8" standalone="no"?>
<!DOCTYPE svg PUBLIC "-//W3C//DTD SVG 1.1//EN"
 "http://www.w3.org/Graphics/SVG/1.1/DTD/svg11.dtd">
<!-- Generated by graphviz version 2.38.0 (20140413.2041)
 -->
<!-- Title: tlz::maximal_border Pages: 1 -->
<svg width="370pt" height="28pt"
 viewBox="0.00 0.00 370.00 28.00" xmlns="http://www.w3.org/2000/svg" xmlns:xlink="http://www.w3.org/1999/xlink">
<g id="graph0" class="graph" transform="scale(1 1) rotate(0) translate(4 24)">
<title>tlz::maximal_border</title>
<polygon fill="white" stroke="none" points="-4,4 -4,-24 366,-24 366,4 -4,4"/>
<!-- Node1 -->
<g id="node1" class="node"><title>Node1</title>
<polygon fill="#bfbfbf" stroke="black" points="0,-0.5 0,-19.5 102,-19.5 102,-0.5 0,-0.5"/>
<text text-anchor="middle" x="51" y="-7.5" font-family="Helvetica,sans-Serif" font-size="10.00">tlz::maximal_border</text>
</g>
<!-- Node2 -->
<g id="node2" class="node"><title>Node2</title>
<g id="a_node2"><a xlink:href="namespacetlz.html#a55aaec653a81676fbd03d8eacef449f0" target="_top" xlink:title="tlz::maximal_border">
<polygon fill="white" stroke="black" points="138,-0.5 138,-19.5 240,-19.5 240,-0.5 138,-0.5"/>
<text text-anchor="middle" x="189" y="-7.5" font-family="Helvetica,sans-Serif" font-size="10.00">tlz::maximal_border</text>
</a>
</g>
</g>
<!-- Node1&#45;&gt;Node2 -->
<g id="edge1" class="edge"><title>Node1&#45;&gt;Node2</title>
<path fill="none" stroke="midnightblue" d="M102.255,-10C110.539,-10 119.201,-10 127.701,-10"/>
<polygon fill="midnightblue" stroke="midnightblue" points="127.952,-13.5001 137.952,-10 127.952,-6.5001 127.952,-13.5001"/>
</g>
<!-- Node3 -->
<g id="node3" class="node"><title>Node3</title>
<g id="a_node3"><a xlink:href="namespacetlz.html#ab111b1a9325e29c39936e5d7443ade4d" target="_top" xlink:title="tlz::quadrilateral">
<polygon fill="white" stroke="black" points="276,-0.5 276,-19.5 362,-19.5 362,-0.5 276,-0.5"/>
<text text-anchor="middle" x="319" y="-7.5" font-family="Helvetica,sans-Serif" font-size="10.00">tlz::quadrilateral</text>
</a>
</g>
</g>
<!-- Node2&#45;&gt;Node3 -->
<g id="edge2" class="edge"><title>Node2&#45;&gt;Node3</title>
<path fill="none" stroke="midnightblue" d="M240.222,-10C248.587,-10 257.282,-10 265.697,-10"/>
<polygon fill="midnightblue" stroke="midnightblue" points="265.783,-13.5001 275.783,-10 265.783,-6.5001 265.783,-13.5001"/>
</g>
</g>
</svg>
