<?xml version="1.0" encoding="UTF-8" standalone="no"?>
<!DOCTYPE svg PUBLIC "-//W3C//DTD SVG 1.1//EN"
 "http://www.w3.org/Graphics/SVG/1.1/DTD/svg11.dtd">
<!-- Generated by graphviz version 2.38.0 (20140413.2041)
 -->
<!-- Title: tlz::encode_image_correspondence_feature Pages: 1 -->
<svg width="480pt" height="97pt"
 viewBox="0.00 0.00 480.00 96.50" xmlns="http://www.w3.org/2000/svg" xmlns:xlink="http://www.w3.org/1999/xlink">
<g id="graph0" class="graph" transform="scale(1 1) rotate(0) translate(4 92.5)">
<title>tlz::encode_image_correspondence_feature</title>
<polygon fill="white" stroke="none" points="-4,4 -4,-92.5 476,-92.5 476,4 -4,4"/>
<!-- Node1 -->
<g id="node1" class="node"><title>Node1</title>
<polygon fill="#bfbfbf" stroke="black" points="0,-22.5 0,-52.5 170,-52.5 170,-22.5 0,-22.5"/>
<text text-anchor="start" x="8" y="-40.5" font-family="Helvetica,sans-Serif" font-size="10.00">tlz::encode_image_correspondence</text>
<text text-anchor="middle" x="85" y="-29.5" font-family="Helvetica,sans-Serif" font-size="10.00">_feature</text>
</g>
<!-- Node2 -->
<g id="node2" class="node"><title>Node2</title>
<g id="a_node2"><a xlink:href="namespacetlz.html#aadab29bdc80bc1d0ad6d3784dd427992" target="_top" xlink:title="tlz::encode_view_index">
<polygon fill="white" stroke="black" points="206,-50 206,-69 325,-69 325,-50 206,-50"/>
<text text-anchor="middle" x="265.5" y="-57" font-family="Helvetica,sans-Serif" font-size="10.00">tlz::encode_view_index</text>
</a>
</g>
</g>
<!-- Node1&#45;&gt;Node2 -->
<g id="edge1" class="edge"><title>Node1&#45;&gt;Node2</title>
<path fill="none" stroke="midnightblue" d="M170.023,-47.8558C178.638,-48.9175 187.317,-49.9873 195.739,-51.0253"/>
<polygon fill="midnightblue" stroke="midnightblue" points="195.51,-54.5234 205.863,-52.2731 196.366,-47.576 195.51,-54.5234"/>
</g>
<!-- Node5 -->
<g id="node5" class="node"><title>Node5</title>
<g id="a_node5"><a xlink:href="namespacetlz.html#a8f6c31dc4b1dffe7950bcb1f4ff85cbc" target="_top" xlink:title="tlz::encode_feature\l_point">
<polygon fill="white" stroke="black" points="215.5,-0.5 215.5,-30.5 315.5,-30.5 315.5,-0.5 215.5,-0.5"/>
<text text-anchor="start" x="223.5" y="-18.5" font-family="Helvetica,sans-Serif" font-size="10.00">tlz::encode_feature</text>
<text text-anchor="middle" x="265.5" y="-7.5" font-family="Helvetica,sans-Serif" font-size="10.00">_point</text>
</a>
</g>
</g>
<!-- Node1&#45;&gt;Node5 -->
<g id="edge4" class="edge"><title>Node1&#45;&gt;Node5</title>
<path fill="none" stroke="midnightblue" d="M170.023,-27.1442C181.931,-25.6766 193.963,-24.1936 205.268,-22.8003"/>
<polygon fill="midnightblue" stroke="midnightblue" points="205.925,-26.2459 215.422,-21.5489 205.068,-19.2985 205.925,-26.2459"/>
</g>
<!-- Node3 -->
<g id="node3" class="node"><title>Node3</title>
<g id="a_node3"><a xlink:href="namespacetlz.html#a8e4f8c8c2927bc4350de13bfa0f8f9e1" target="_top" xlink:title="tlz::to_string">
<polygon fill="white" stroke="black" points="381,-69 381,-88 452,-88 452,-69 381,-69"/>
<text text-anchor="middle" x="416.5" y="-76" font-family="Helvetica,sans-Serif" font-size="10.00">tlz::to_string</text>
</a>
</g>
</g>
<!-- Node2&#45;&gt;Node3 -->
<g id="edge2" class="edge"><title>Node2&#45;&gt;Node3</title>
<path fill="none" stroke="midnightblue" d="M325.389,-67.0093C340.444,-68.9291 356.389,-70.9624 370.614,-72.7763"/>
<polygon fill="midnightblue" stroke="midnightblue" points="370.268,-76.2605 380.631,-74.0536 371.154,-69.3167 370.268,-76.2605"/>
</g>
<!-- Node4 -->
<g id="node4" class="node"><title>Node4</title>
<g id="a_node4"><a xlink:href="structtlz_1_1view__index.html#a20518c30015d833cdb2a69b524886b96" target="_top" xlink:title="tlz::view_index::is_2d">
<polygon fill="white" stroke="black" points="361,-31 361,-50 472,-50 472,-31 361,-31"/>
<text text-anchor="middle" x="416.5" y="-38" font-family="Helvetica,sans-Serif" font-size="10.00">tlz::view_index::is_2d</text>
</a>
</g>
</g>
<!-- Node2&#45;&gt;Node4 -->
<g id="edge3" class="edge"><title>Node2&#45;&gt;Node4</title>
<path fill="none" stroke="midnightblue" d="M325.389,-51.9907C333.716,-50.9288 342.316,-49.8321 350.747,-48.7571"/>
<polygon fill="midnightblue" stroke="midnightblue" points="351.44,-52.1972 360.917,-47.4603 350.554,-45.2534 351.44,-52.1972"/>
</g>
</g>
</svg>
