<?xml version="1.0" encoding="UTF-8" standalone="no"?>
<!DOCTYPE svg PUBLIC "-//W3C//DTD SVG 1.1//EN"
 "http://www.w3.org/Graphics/SVG/1.1/DTD/svg11.dtd">
<!-- Generated by graphviz version 2.38.0 (20140413.2041)
 -->
<!-- Title: tlz::estimate_checkerboard_extrinsics Pages: 1 -->
<svg width="439pt" height="186pt"
 viewBox="0.00 0.00 439.00 186.00" xmlns="http://www.w3.org/2000/svg" xmlns:xlink="http://www.w3.org/1999/xlink">
<g id="graph0" class="graph" transform="scale(1 1) rotate(0) translate(4 182)">
<title>tlz::estimate_checkerboard_extrinsics</title>
<polygon fill="white" stroke="none" points="-4,4 -4,-182 435,-182 435,4 -4,4"/>
<!-- Node1 -->
<g id="node1" class="node"><title>Node1</title>
<polygon fill="#bfbfbf" stroke="black" points="0,-73.5 0,-103.5 134,-103.5 134,-73.5 0,-73.5"/>
<text text-anchor="start" x="8" y="-91.5" font-family="Helvetica,sans-Serif" font-size="10.00">tlz::estimate_checkerboard</text>
<text text-anchor="middle" x="67" y="-80.5" font-family="Helvetica,sans-Serif" font-size="10.00">_extrinsics</text>
</g>
<!-- Node2 -->
<g id="node2" class="node"><title>Node2</title>
<g id="a_node2"><a xlink:href="namespacetlz.html#acc37da60bde41595da4139110c2d36e6" target="_top" xlink:title="tlz::checkerboard_world\l_corners">
<polygon fill="white" stroke="black" points="173.5,-147.5 173.5,-177.5 293.5,-177.5 293.5,-147.5 173.5,-147.5"/>
<text text-anchor="start" x="181.5" y="-165.5" font-family="Helvetica,sans-Serif" font-size="10.00">tlz::checkerboard_world</text>
<text text-anchor="middle" x="233.5" y="-154.5" font-family="Helvetica,sans-Serif" font-size="10.00">_corners</text>
</a>
</g>
</g>
<!-- Node1&#45;&gt;Node2 -->
<g id="edge1" class="edge"><title>Node1&#45;&gt;Node2</title>
<path fill="none" stroke="midnightblue" d="M97.1347,-103.642C117.362,-113.942 145.053,-127.621 170,-138.5 173.895,-140.199 177.953,-141.902 182.047,-143.573"/>
<polygon fill="midnightblue" stroke="midnightblue" points="181.022,-146.933 191.607,-147.399 183.623,-140.434 181.022,-146.933"/>
</g>
<!-- Node3 -->
<g id="node3" class="node"><title>Node3</title>
<g id="a_node3"><a xlink:href="namespacetlz.html#a6693dca816d6f48429d1c607ced26f3b" target="_top" xlink:title="tlz::checkerboard_image\l_corners">
<polygon fill="white" stroke="black" points="172,-98.5 172,-128.5 295,-128.5 295,-98.5 172,-98.5"/>
<text text-anchor="start" x="180" y="-116.5" font-family="Helvetica,sans-Serif" font-size="10.00">tlz::checkerboard_image</text>
<text text-anchor="middle" x="233.5" y="-105.5" font-family="Helvetica,sans-Serif" font-size="10.00">_corners</text>
</a>
</g>
</g>
<!-- Node1&#45;&gt;Node3 -->
<g id="edge2" class="edge"><title>Node1&#45;&gt;Node3</title>
<path fill="none" stroke="midnightblue" d="M134.434,-98.5964C143.44,-99.965 152.708,-101.374 161.785,-102.753"/>
<polygon fill="midnightblue" stroke="midnightblue" points="161.516,-106.252 171.928,-104.295 162.567,-99.3317 161.516,-106.252"/>
</g>
<!-- Node4 -->
<g id="node4" class="node"><title>Node4</title>
<g id="a_node4"><a xlink:href="structtlz_1_1checkerboard.html#aefd2234a4be7f364920076cdd8a977f1" target="_top" xlink:title="tlz::checkerboard::\lcorners_count">
<polygon fill="white" stroke="black" points="184.5,-49.5 184.5,-79.5 282.5,-79.5 282.5,-49.5 184.5,-49.5"/>
<text text-anchor="start" x="192.5" y="-67.5" font-family="Helvetica,sans-Serif" font-size="10.00">tlz::checkerboard::</text>
<text text-anchor="middle" x="233.5" y="-56.5" font-family="Helvetica,sans-Serif" font-size="10.00">corners_count</text>
</a>
</g>
</g>
<!-- Node1&#45;&gt;Node4 -->
<g id="edge3" class="edge"><title>Node1&#45;&gt;Node4</title>
<path fill="none" stroke="midnightblue" d="M134.434,-78.8075C147.592,-76.8878 161.31,-74.8864 174.174,-73.0096"/>
<polygon fill="midnightblue" stroke="midnightblue" points="174.89,-76.4423 184.279,-71.5352 173.879,-69.5156 174.89,-76.4423"/>
</g>
<!-- Node6 -->
<g id="node6" class="node"><title>Node6</title>
<g id="a_node6"><a xlink:href="structtlz_1_1distortion__parameters.html#a96312c5d7baa4b7b1f2a76e9396037f8" target="_top" xlink:title="tlz::distortion_parameters\l::cv_coeffs">
<polygon fill="white" stroke="black" points="170,-0.5 170,-30.5 297,-30.5 297,-0.5 170,-0.5"/>
<text text-anchor="start" x="178" y="-18.5" font-family="Helvetica,sans-Serif" font-size="10.00">tlz::distortion_parameters</text>
<text text-anchor="middle" x="233.5" y="-7.5" font-family="Helvetica,sans-Serif" font-size="10.00">::cv_coeffs</text>
</a>
</g>
</g>
<!-- Node1&#45;&gt;Node6 -->
<g id="edge5" class="edge"><title>Node1&#45;&gt;Node6</title>
<path fill="none" stroke="midnightblue" d="M99.0306,-73.3116C119.131,-63.619 145.95,-50.9579 170,-40.5 174.637,-38.4837 179.492,-36.4349 184.358,-34.4221"/>
<polygon fill="midnightblue" stroke="midnightblue" points="185.744,-37.6367 193.677,-30.6139 183.096,-31.1569 185.744,-37.6367"/>
</g>
<!-- Node5 -->
<g id="node5" class="node"><title>Node5</title>
<g id="a_node5"><a xlink:href="structtlz_1_1checkerboard.html#a2684fe6c45bc112b0a5c3d6e833ba22e" target="_top" xlink:title="tlz::checkerboard::\louter_corners_i">
<polygon fill="white" stroke="black" points="333,-49.5 333,-79.5 431,-79.5 431,-49.5 333,-49.5"/>
<text text-anchor="start" x="341" y="-67.5" font-family="Helvetica,sans-Serif" font-size="10.00">tlz::checkerboard::</text>
<text text-anchor="middle" x="382" y="-56.5" font-family="Helvetica,sans-Serif" font-size="10.00">outer_corners_i</text>
</a>
</g>
</g>
<!-- Node4&#45;&gt;Node5 -->
<g id="edge4" class="edge"><title>Node4&#45;&gt;Node5</title>
<path fill="none" stroke="midnightblue" d="M282.876,-64.5C295.502,-64.5 309.248,-64.5 322.345,-64.5"/>
<polygon fill="midnightblue" stroke="midnightblue" points="322.675,-68.0001 332.675,-64.5 322.675,-61.0001 322.675,-68.0001"/>
</g>
</g>
</svg>
