<?xml version="1.0" encoding="UTF-8" standalone="no"?>
<!DOCTYPE svg PUBLIC "-//W3C//DTD SVG 1.1//EN"
 "http://www.w3.org/Graphics/SVG/1.1/DTD/svg11.dtd">
<!-- Generated by graphviz version 2.38.0 (20140413.2041)
 -->
<!-- Title: tlz::undistort Pages: 1 -->
<svg width="380pt" height="88pt"
 viewBox="0.00 0.00 380.00 88.00" xmlns="http://www.w3.org/2000/svg" xmlns:xlink="http://www.w3.org/1999/xlink">
<g id="graph0" class="graph" transform="scale(1 1) rotate(0) translate(4 84)">
<title>tlz::undistort</title>
<polygon fill="white" stroke="none" points="-4,4 -4,-84 376,-84 376,4 -4,4"/>
<!-- Node1 -->
<g id="node1" class="node"><title>Node1</title>
<polygon fill="#bfbfbf" stroke="black" points="0,-36 0,-55 71,-55 71,-36 0,-36"/>
<text text-anchor="middle" x="35.5" y="-43" font-family="Helvetica,sans-Serif" font-size="10.00">tlz::undistort</text>
</g>
<!-- Node2 -->
<g id="node2" class="node"><title>Node2</title>
<g id="a_node2"><a xlink:href="structtlz_1_1distortion__parameters.html#a307fee036b04519d633fb8456899850c" target="_top" xlink:title="tlz::distortion_parameters\l::is_none">
<polygon fill="white" stroke="black" points="245,-49.5 245,-79.5 372,-79.5 372,-49.5 245,-49.5"/>
<text text-anchor="start" x="253" y="-67.5" font-family="Helvetica,sans-Serif" font-size="10.00">tlz::distortion_parameters</text>
<text text-anchor="middle" x="308.5" y="-56.5" font-family="Helvetica,sans-Serif" font-size="10.00">::is_none</text>
</a>
</g>
</g>
<!-- Node1&#45;&gt;Node2 -->
<g id="edge1" class="edge"><title>Node1&#45;&gt;Node2</title>
<path fill="none" stroke="midnightblue" d="M71.0976,-47.9257C112.185,-50.8063 181.827,-55.689 234.912,-59.4108"/>
<polygon fill="midnightblue" stroke="midnightblue" points="234.737,-62.907 244.957,-60.1151 235.227,-55.9242 234.737,-62.907"/>
</g>
<!-- Node3 -->
<g id="node3" class="node"><title>Node3</title>
<g id="a_node3"><a xlink:href="namespacetlz.html#a8b5e4acbb884887859e414ffe06a09f8" target="_top" xlink:title="tlz::undistort_points">
<polygon fill="white" stroke="black" points="107,-17 107,-36 209,-36 209,-17 107,-17"/>
<text text-anchor="middle" x="158" y="-24" font-family="Helvetica,sans-Serif" font-size="10.00">tlz::undistort_points</text>
</a>
</g>
</g>
<!-- Node1&#45;&gt;Node3 -->
<g id="edge2" class="edge"><title>Node1&#45;&gt;Node3</title>
<path fill="none" stroke="midnightblue" d="M71.0305,-40.0554C79.1152,-38.7806 87.9605,-37.3859 96.8043,-35.9914"/>
<polygon fill="midnightblue" stroke="midnightblue" points="97.4151,-39.4385 106.748,-34.4236 96.3248,-32.5239 97.4151,-39.4385"/>
</g>
<!-- Node3&#45;&gt;Node2 -->
<g id="edge3" class="edge"><title>Node3&#45;&gt;Node2</title>
<path fill="none" stroke="midnightblue" d="M196.473,-36.089C209.318,-39.376 224.128,-43.1658 238.66,-46.8844"/>
<polygon fill="midnightblue" stroke="midnightblue" points="238.093,-50.3521 248.649,-49.4405 239.829,-43.5706 238.093,-50.3521"/>
</g>
<!-- Node4 -->
<g id="node4" class="node"><title>Node4</title>
<g id="a_node4"><a xlink:href="structtlz_1_1distortion__parameters.html#a96312c5d7baa4b7b1f2a76e9396037f8" target="_top" xlink:title="tlz::distortion_parameters\l::cv_coeffs">
<polygon fill="white" stroke="black" points="245,-0.5 245,-30.5 372,-30.5 372,-0.5 245,-0.5"/>
<text text-anchor="start" x="253" y="-18.5" font-family="Helvetica,sans-Serif" font-size="10.00">tlz::distortion_parameters</text>
<text text-anchor="middle" x="308.5" y="-7.5" font-family="Helvetica,sans-Serif" font-size="10.00">::cv_coeffs</text>
</a>
</g>
</g>
<!-- Node3&#45;&gt;Node4 -->
<g id="edge4" class="edge"><title>Node3&#45;&gt;Node4</title>
<path fill="none" stroke="midnightblue" d="M209.275,-22.7759C217.5,-22.1666 226.165,-21.5248 234.801,-20.8851"/>
<polygon fill="midnightblue" stroke="midnightblue" points="235.185,-24.3663 244.899,-20.1371 234.668,-17.3855 235.185,-24.3663"/>
</g>
</g>
</svg>
