<?xml version="1.0" encoding="UTF-8" standalone="no"?>
<!DOCTYPE svg PUBLIC "-//W3C//DTD SVG 1.1//EN"
 "http://www.w3.org/Graphics/SVG/1.1/DTD/svg11.dtd">
<!-- Generated by graphviz version 2.38.0 (20140413.2041)
 -->
<!-- Title: tlz::json_arg Pages: 1 -->
<svg width="633pt" height="142pt"
 viewBox="0.00 0.00 633.00 142.00" xmlns="http://www.w3.org/2000/svg" xmlns:xlink="http://www.w3.org/1999/xlink">
<g id="graph0" class="graph" transform="scale(1 1) rotate(0) translate(4 138)">
<title>tlz::json_arg</title>
<polygon fill="white" stroke="none" points="-4,4 -4,-138 629,-138 629,4 -4,4"/>
<!-- Node1 -->
<g id="node1" class="node"><title>Node1</title>
<polygon fill="#bfbfbf" stroke="black" points="0,-76.5 0,-95.5 70,-95.5 70,-76.5 0,-76.5"/>
<text text-anchor="middle" x="35" y="-83.5" font-family="Helvetica,sans-Serif" font-size="10.00">tlz::json_arg</text>
</g>
<!-- Node2 -->
<g id="node2" class="node"><title>Node2</title>
<g id="a_node2"><a xlink:href="namespacetlz.html#aa1be9362f548fcf9378e1fc9074089c4" target="_top" xlink:title="tlz::import_json_file">
<polygon fill="white" stroke="black" points="106,-95.5 106,-114.5 207,-114.5 207,-95.5 106,-95.5"/>
<text text-anchor="middle" x="156.5" y="-102.5" font-family="Helvetica,sans-Serif" font-size="10.00">tlz::import_json_file</text>
</a>
</g>
</g>
<!-- Node1&#45;&gt;Node2 -->
<g id="edge1" class="edge"><title>Node1&#45;&gt;Node2</title>
<path fill="none" stroke="midnightblue" d="M70.2439,-91.4446C78.1753,-92.7057 86.8449,-94.0841 95.5209,-95.4636"/>
<polygon fill="midnightblue" stroke="midnightblue" points="95.2394,-98.9627 105.665,-97.0764 96.3386,-92.0495 95.2394,-98.9627"/>
</g>
<!-- Node3 -->
<g id="node3" class="node"><title>Node3</title>
<g id="a_node3"><a xlink:href="namespacetlz.html#a634de7ca11e100e4a118dffe80376a75" target="_top" xlink:title="tlz::in_filename_arg">
<polygon fill="white" stroke="black" points="106,-57.5 106,-76.5 207,-76.5 207,-57.5 106,-57.5"/>
<text text-anchor="middle" x="156.5" y="-64.5" font-family="Helvetica,sans-Serif" font-size="10.00">tlz::in_filename_arg</text>
</a>
</g>
</g>
<!-- Node1&#45;&gt;Node3 -->
<g id="edge2" class="edge"><title>Node1&#45;&gt;Node3</title>
<path fill="none" stroke="midnightblue" d="M70.2439,-80.5554C78.1753,-79.2943 86.8449,-77.9159 95.5209,-76.5364"/>
<polygon fill="midnightblue" stroke="midnightblue" points="96.3386,-79.9505 105.665,-74.9236 95.2394,-73.0373 96.3386,-79.9505"/>
</g>
<!-- Node4 -->
<g id="node4" class="node"><title>Node4</title>
<g id="a_node4"><a xlink:href="namespacetlz.html#a0621d598fb83b13bf028f3e6293d04f8" target="_top" xlink:title="tlz::string_arg">
<polygon fill="white" stroke="black" points="243.5,-76.5 243.5,-95.5 319.5,-95.5 319.5,-76.5 243.5,-76.5"/>
<text text-anchor="middle" x="281.5" y="-83.5" font-family="Helvetica,sans-Serif" font-size="10.00">tlz::string_arg</text>
</a>
</g>
</g>
<!-- Node3&#45;&gt;Node4 -->
<g id="edge3" class="edge"><title>Node3&#45;&gt;Node4</title>
<path fill="none" stroke="midnightblue" d="M207.174,-74.6733C215.706,-75.9912 224.554,-77.358 233.027,-78.6667"/>
<polygon fill="midnightblue" stroke="midnightblue" points="232.712,-82.1595 243.129,-80.2272 233.781,-75.2416 232.712,-82.1595"/>
</g>
<!-- Node5 -->
<g id="node5" class="node"><title>Node5</title>
<g id="a_node5"><a xlink:href="namespacetlz.html#a780431daab8d2595372eacb43143b52d" target="_top" xlink:title="tlz::args">
<polygon fill="white" stroke="black" points="386.5,-114.5 386.5,-133.5 438.5,-133.5 438.5,-114.5 386.5,-114.5"/>
<text text-anchor="middle" x="412.5" y="-121.5" font-family="Helvetica,sans-Serif" font-size="10.00">tlz::args</text>
</a>
</g>
</g>
<!-- Node3&#45;&gt;Node5 -->
<g id="edge9" class="edge"><title>Node3&#45;&gt;Node5</title>
<path fill="none" stroke="midnightblue" d="M184.201,-76.5811C191.655,-79.4357 199.708,-82.6902 207,-86 223.474,-93.477 225.711,-99.6716 243,-105 287.617,-118.751 341.622,-122.756 376.259,-123.813"/>
<polygon fill="midnightblue" stroke="midnightblue" points="376.274,-127.315 386.354,-124.054 376.441,-120.317 376.274,-127.315"/>
</g>
<!-- Node7 -->
<g id="node7" class="node"><title>Node7</title>
<g id="a_node7"><a xlink:href="classtlz_1_1args__list.html#a38ad21acd64a4af98ffdf4a47837cdbe" target="_top" xlink:title="tlz::args_list::usage_fail">
<polygon fill="white" stroke="black" points="505,-38.5 505,-57.5 625,-57.5 625,-38.5 505,-38.5"/>
<text text-anchor="middle" x="565" y="-45.5" font-family="Helvetica,sans-Serif" font-size="10.00">tlz::args_list::usage_fail</text>
</a>
</g>
</g>
<!-- Node3&#45;&gt;Node7 -->
<g id="edge10" class="edge"><title>Node3&#45;&gt;Node7</title>
<path fill="none" stroke="midnightblue" d="M207.345,-64.6702C279.419,-61.3015 413.021,-55.0568 494.668,-51.2406"/>
<polygon fill="midnightblue" stroke="midnightblue" points="495.025,-54.7278 504.851,-50.7647 494.698,-47.7355 495.025,-54.7278"/>
</g>
<!-- Node9 -->
<g id="node9" class="node"><title>Node9</title>
<g id="a_node9"><a xlink:href="namespacetlz.html#abb019466ea9f56c0dab27e893d891837" target="_top" xlink:title="tlz::file_exists">
<polygon fill="white" stroke="black" points="243,-0.5 243,-19.5 320,-19.5 320,-0.5 243,-0.5"/>
<text text-anchor="middle" x="281.5" y="-7.5" font-family="Helvetica,sans-Serif" font-size="10.00">tlz::file_exists</text>
</a>
</g>
</g>
<!-- Node3&#45;&gt;Node9 -->
<g id="edge8" class="edge"><title>Node3&#45;&gt;Node9</title>
<path fill="none" stroke="midnightblue" d="M178.087,-57.4595C197.954,-48.2528 228.246,-34.2153 250.737,-23.7926"/>
<polygon fill="midnightblue" stroke="midnightblue" points="252.244,-26.9519 259.845,-19.5716 249.301,-20.6007 252.244,-26.9519"/>
</g>
<!-- Node4&#45;&gt;Node5 -->
<g id="edge4" class="edge"><title>Node4&#45;&gt;Node5</title>
<path fill="none" stroke="midnightblue" d="M315.052,-95.589C333.78,-101.106 357.314,-108.038 376.447,-113.674"/>
<polygon fill="midnightblue" stroke="midnightblue" points="375.701,-117.103 386.283,-116.572 377.679,-110.389 375.701,-117.103"/>
</g>
<!-- Node6 -->
<g id="node6" class="node"><title>Node6</title>
<g id="a_node6"><a xlink:href="classtlz_1_1args__list.html#a73d99bc75998dc14607a3a372d28dc6d" target="_top" xlink:title="tlz::args_list::next_arg">
<polygon fill="white" stroke="black" points="356,-76.5 356,-95.5 469,-95.5 469,-76.5 356,-76.5"/>
<text text-anchor="middle" x="412.5" y="-83.5" font-family="Helvetica,sans-Serif" font-size="10.00">tlz::args_list::next_arg</text>
</a>
</g>
</g>
<!-- Node4&#45;&gt;Node6 -->
<g id="edge5" class="edge"><title>Node4&#45;&gt;Node6</title>
<path fill="none" stroke="midnightblue" d="M319.812,-86C327.835,-86 336.544,-86 345.295,-86"/>
<polygon fill="midnightblue" stroke="midnightblue" points="345.549,-89.5001 355.549,-86 345.549,-82.5001 345.549,-89.5001"/>
</g>
<!-- Node6&#45;&gt;Node7 -->
<g id="edge6" class="edge"><title>Node6&#45;&gt;Node7</title>
<path fill="none" stroke="midnightblue" d="M451.478,-76.411C471.159,-71.4417 495.391,-65.3233 516.321,-60.0387"/>
<polygon fill="midnightblue" stroke="midnightblue" points="517.457,-63.3617 526.296,-57.5201 515.743,-56.5747 517.457,-63.3617"/>
</g>
<!-- Node8 -->
<g id="node8" class="node"><title>Node8</title>
<g id="a_node8"><a xlink:href="namespacetlz.html#a8e4f8c8c2927bc4350de13bfa0f8f9e1" target="_top" xlink:title="tlz::to_string">
<polygon fill="white" stroke="black" points="529.5,-76.5 529.5,-95.5 600.5,-95.5 600.5,-76.5 529.5,-76.5"/>
<text text-anchor="middle" x="565" y="-83.5" font-family="Helvetica,sans-Serif" font-size="10.00">tlz::to_string</text>
</a>
</g>
</g>
<!-- Node6&#45;&gt;Node8 -->
<g id="edge7" class="edge"><title>Node6&#45;&gt;Node8</title>
<path fill="none" stroke="midnightblue" d="M469.113,-86C485.441,-86 503.096,-86 518.698,-86"/>
<polygon fill="midnightblue" stroke="midnightblue" points="519.13,-89.5001 529.13,-86 519.129,-82.5001 519.13,-89.5001"/>
</g>
</g>
</svg>
