<?xml version="1.0" encoding="UTF-8" standalone="no"?>
<!DOCTYPE svg PUBLIC "-//W3C//DTD SVG 1.1//EN"
 "http://www.w3.org/Graphics/SVG/1.1/DTD/svg11.dtd">
<!-- Generated by graphviz version 2.38.0 (20140413.2041)
 -->
<!-- Title: tlz::enum_opt_arg Pages: 1 -->
<svg width="536pt" height="173pt"
 viewBox="0.00 0.00 536.00 172.50" xmlns="http://www.w3.org/2000/svg" xmlns:xlink="http://www.w3.org/1999/xlink">
<g id="graph0" class="graph" transform="scale(1 1) rotate(0) translate(4 168.5)">
<title>tlz::enum_opt_arg</title>
<polygon fill="white" stroke="none" points="-4,4 -4,-168.5 532,-168.5 532,4 -4,4"/>
<!-- Node1 -->
<g id="node1" class="node"><title>Node1</title>
<polygon fill="#bfbfbf" stroke="black" points="0,-69 0,-88 95,-88 95,-69 0,-69"/>
<text text-anchor="middle" x="47.5" y="-76" font-family="Helvetica,sans-Serif" font-size="10.00">tlz::enum_opt_arg</text>
</g>
<!-- Node2 -->
<g id="node2" class="node"><title>Node2</title>
<g id="a_node2"><a xlink:href="namespacetlz.html#a780431daab8d2595372eacb43143b52d" target="_top" xlink:title="tlz::args">
<polygon fill="white" stroke="black" points="289.5,-69 289.5,-88 341.5,-88 341.5,-69 289.5,-69"/>
<text text-anchor="middle" x="315.5" y="-76" font-family="Helvetica,sans-Serif" font-size="10.00">tlz::args</text>
</a>
</g>
</g>
<!-- Node1&#45;&gt;Node2 -->
<g id="edge1" class="edge"><title>Node1&#45;&gt;Node2</title>
<path fill="none" stroke="midnightblue" d="M95.1381,-78.5C147.638,-78.5 231.769,-78.5 279.13,-78.5"/>
<polygon fill="midnightblue" stroke="midnightblue" points="279.215,-82.0001 289.215,-78.5 279.215,-75.0001 279.215,-82.0001"/>
</g>
<!-- Node3 -->
<g id="node3" class="node"><title>Node3</title>
<g id="a_node3"><a xlink:href="classtlz_1_1args__list.html#a4aee93f4b0d9b5b4e7a5d13cb637337c" target="_top" xlink:title="tlz::args_list::has\l_next_arg">
<polygon fill="white" stroke="black" points="131,-0.5 131,-30.5 223,-30.5 223,-0.5 131,-0.5"/>
<text text-anchor="start" x="139" y="-18.5" font-family="Helvetica,sans-Serif" font-size="10.00">tlz::args_list::has</text>
<text text-anchor="middle" x="177" y="-7.5" font-family="Helvetica,sans-Serif" font-size="10.00">_next_arg</text>
</a>
</g>
</g>
<!-- Node1&#45;&gt;Node3 -->
<g id="edge2" class="edge"><title>Node1&#45;&gt;Node3</title>
<path fill="none" stroke="midnightblue" d="M67.8645,-68.9317C85.9879,-59.9766 113.612,-46.3268 136.404,-35.0653"/>
<polygon fill="midnightblue" stroke="midnightblue" points="138.096,-38.1328 145.511,-30.565 134.995,-31.8571 138.096,-38.1328"/>
</g>
<!-- Node4 -->
<g id="node4" class="node"><title>Node4</title>
<g id="a_node4"><a xlink:href="namespacetlz.html#aea648783e0ac6c50afae30a01cfc260d" target="_top" xlink:title="tlz::enum_arg">
<polygon fill="white" stroke="black" points="139,-126 139,-145 215,-145 215,-126 139,-126"/>
<text text-anchor="middle" x="177" y="-133" font-family="Helvetica,sans-Serif" font-size="10.00">tlz::enum_arg</text>
</a>
</g>
</g>
<!-- Node1&#45;&gt;Node4 -->
<g id="edge3" class="edge"><title>Node1&#45;&gt;Node4</title>
<path fill="none" stroke="midnightblue" d="M68.7601,-88.0523C85.4104,-95.8494 109.648,-107.078 131,-116.5 135.127,-118.321 139.481,-120.205 143.79,-122.048"/>
<polygon fill="midnightblue" stroke="midnightblue" points="142.473,-125.292 153.046,-125.976 145.208,-118.848 142.473,-125.292"/>
</g>
<!-- Node8 -->
<g id="node8" class="node"><title>Node8</title>
<g id="a_node8"><a xlink:href="namespacetlz.html#ac18630fe66cc71c8cc5eb6acce057f5f" target="_top" xlink:title="tlz::bool_arg">
<polygon fill="white" stroke="black" points="142,-88 142,-107 212,-107 212,-88 142,-88"/>
<text text-anchor="middle" x="177" y="-95" font-family="Helvetica,sans-Serif" font-size="10.00">tlz::bool_arg</text>
</a>
</g>
</g>
<!-- Node1&#45;&gt;Node8 -->
<g id="edge9" class="edge"><title>Node1&#45;&gt;Node8</title>
<path fill="none" stroke="midnightblue" d="M95.2523,-85.467C107.126,-87.2364 119.848,-89.1322 131.6,-90.8836"/>
<polygon fill="midnightblue" stroke="midnightblue" points="131.226,-94.3664 141.633,-92.3787 132.258,-87.4429 131.226,-94.3664"/>
</g>
<!-- Node4&#45;&gt;Node2 -->
<g id="edge4" class="edge"><title>Node4&#45;&gt;Node2</title>
<path fill="none" stroke="midnightblue" d="M201.991,-125.821C208.832,-122.94 216.256,-119.696 223,-116.5 239.349,-108.752 242.391,-104.674 259,-97.5 265.533,-94.6782 272.634,-91.9813 279.507,-89.5513"/>
<polygon fill="midnightblue" stroke="midnightblue" points="280.989,-92.7438 289.321,-86.1987 278.726,-86.1197 280.989,-92.7438"/>
</g>
<!-- Node5 -->
<g id="node5" class="node"><title>Node5</title>
<g id="a_node5"><a xlink:href="classtlz_1_1args__list.html#a73d99bc75998dc14607a3a372d28dc6d" target="_top" xlink:title="tlz::args_list::next_arg">
<polygon fill="white" stroke="black" points="259,-107 259,-126 372,-126 372,-107 259,-107"/>
<text text-anchor="middle" x="315.5" y="-114" font-family="Helvetica,sans-Serif" font-size="10.00">tlz::args_list::next_arg</text>
</a>
</g>
</g>
<!-- Node4&#45;&gt;Node5 -->
<g id="edge5" class="edge"><title>Node4&#45;&gt;Node5</title>
<path fill="none" stroke="midnightblue" d="M215.299,-130.308C225.678,-128.863 237.268,-127.25 248.764,-125.65"/>
<polygon fill="midnightblue" stroke="midnightblue" points="249.386,-129.097 258.808,-124.252 248.421,-122.164 249.386,-129.097"/>
</g>
<!-- Node6 -->
<g id="node6" class="node"><title>Node6</title>
<g id="a_node6"><a xlink:href="classtlz_1_1args__list.html#a38ad21acd64a4af98ffdf4a47837cdbe" target="_top" xlink:title="tlz::args_list::usage_fail">
<polygon fill="white" stroke="black" points="408,-145 408,-164 528,-164 528,-145 408,-145"/>
<text text-anchor="middle" x="468" y="-152" font-family="Helvetica,sans-Serif" font-size="10.00">tlz::args_list::usage_fail</text>
</a>
</g>
</g>
<!-- Node4&#45;&gt;Node6 -->
<g id="edge8" class="edge"><title>Node4&#45;&gt;Node6</title>
<path fill="none" stroke="midnightblue" d="M215.19,-137.945C261.211,-140.971 340.5,-146.183 397.83,-149.952"/>
<polygon fill="midnightblue" stroke="midnightblue" points="397.698,-153.451 407.906,-150.615 398.158,-146.466 397.698,-153.451"/>
</g>
<!-- Node5&#45;&gt;Node6 -->
<g id="edge6" class="edge"><title>Node5&#45;&gt;Node6</title>
<path fill="none" stroke="midnightblue" d="M354.478,-126.089C374.159,-131.058 398.391,-137.177 419.321,-142.461"/>
<polygon fill="midnightblue" stroke="midnightblue" points="418.743,-145.925 429.296,-144.98 420.457,-139.138 418.743,-145.925"/>
</g>
<!-- Node7 -->
<g id="node7" class="node"><title>Node7</title>
<g id="a_node7"><a xlink:href="namespacetlz.html#a8e4f8c8c2927bc4350de13bfa0f8f9e1" target="_top" xlink:title="tlz::to_string">
<polygon fill="white" stroke="black" points="432.5,-107 432.5,-126 503.5,-126 503.5,-107 432.5,-107"/>
<text text-anchor="middle" x="468" y="-114" font-family="Helvetica,sans-Serif" font-size="10.00">tlz::to_string</text>
</a>
</g>
</g>
<!-- Node5&#45;&gt;Node7 -->
<g id="edge7" class="edge"><title>Node5&#45;&gt;Node7</title>
<path fill="none" stroke="midnightblue" d="M372.113,-116.5C388.441,-116.5 406.096,-116.5 421.698,-116.5"/>
<polygon fill="midnightblue" stroke="midnightblue" points="422.13,-120 432.13,-116.5 422.129,-113 422.13,-120"/>
</g>
<!-- Node8&#45;&gt;Node2 -->
<g id="edge10" class="edge"><title>Node8&#45;&gt;Node2</title>
<path fill="none" stroke="midnightblue" d="M212.093,-92.7545C232.629,-89.896 258.724,-86.2638 279.432,-83.3813"/>
<polygon fill="midnightblue" stroke="midnightblue" points="279.992,-86.8371 289.414,-81.9918 279.027,-79.904 279.992,-86.8371"/>
</g>
<!-- Node8&#45;&gt;Node5 -->
<g id="edge11" class="edge"><title>Node8&#45;&gt;Node5</title>
<path fill="none" stroke="midnightblue" d="M212.093,-102.245C223.246,-103.798 236.039,-105.579 248.718,-107.344"/>
<polygon fill="midnightblue" stroke="midnightblue" points="248.442,-110.839 258.829,-108.751 249.407,-103.906 248.442,-110.839"/>
</g>
</g>
</svg>
