<?xml version="1.0" encoding="UTF-8" standalone="no"?>
<!DOCTYPE svg PUBLIC "-//W3C//DTD SVG 1.1//EN"
 "http://www.w3.org/Graphics/SVG/1.1/DTD/svg11.dtd">
<!-- Generated by graphviz version 2.38.0 (20140413.2041)
 -->
<!-- Title: tlz::int_opt_arg Pages: 1 -->
<svg width="522pt" height="154pt"
 viewBox="0.00 0.00 522.00 153.50" xmlns="http://www.w3.org/2000/svg" xmlns:xlink="http://www.w3.org/1999/xlink">
<g id="graph0" class="graph" transform="scale(1 1) rotate(0) translate(4 149.5)">
<title>tlz::int_opt_arg</title>
<polygon fill="white" stroke="none" points="-4,4 -4,-149.5 518,-149.5 518,4 -4,4"/>
<!-- Node1 -->
<g id="node1" class="node"><title>Node1</title>
<polygon fill="#bfbfbf" stroke="black" points="0,-69 0,-88 81,-88 81,-69 0,-69"/>
<text text-anchor="middle" x="40.5" y="-76" font-family="Helvetica,sans-Serif" font-size="10.00">tlz::int_opt_arg</text>
</g>
<!-- Node2 -->
<g id="node2" class="node"><title>Node2</title>
<g id="a_node2"><a xlink:href="namespacetlz.html#a780431daab8d2595372eacb43143b52d" target="_top" xlink:title="tlz::args">
<polygon fill="white" stroke="black" points="275.5,-126 275.5,-145 327.5,-145 327.5,-126 275.5,-126"/>
<text text-anchor="middle" x="301.5" y="-133" font-family="Helvetica,sans-Serif" font-size="10.00">tlz::args</text>
</a>
</g>
</g>
<!-- Node1&#45;&gt;Node2 -->
<g id="edge1" class="edge"><title>Node1&#45;&gt;Node2</title>
<path fill="none" stroke="midnightblue" d="M56.4388,-88.0794C71.204,-97.0387 94.7482,-109.987 117,-116.5 166.938,-131.116 227.396,-134.833 264.91,-135.598"/>
<polygon fill="midnightblue" stroke="midnightblue" points="265.267,-139.103 275.316,-135.746 265.367,-132.104 265.267,-139.103"/>
</g>
<!-- Node3 -->
<g id="node3" class="node"><title>Node3</title>
<g id="a_node3"><a xlink:href="classtlz_1_1args__list.html#a4aee93f4b0d9b5b4e7a5d13cb637337c" target="_top" xlink:title="tlz::args_list::has\l_next_arg">
<polygon fill="white" stroke="black" points="117,-0.5 117,-30.5 209,-30.5 209,-0.5 117,-0.5"/>
<text text-anchor="start" x="125" y="-18.5" font-family="Helvetica,sans-Serif" font-size="10.00">tlz::args_list::has</text>
<text text-anchor="middle" x="163" y="-7.5" font-family="Helvetica,sans-Serif" font-size="10.00">_next_arg</text>
</a>
</g>
</g>
<!-- Node1&#45;&gt;Node3 -->
<g id="edge2" class="edge"><title>Node1&#45;&gt;Node3</title>
<path fill="none" stroke="midnightblue" d="M59.8014,-68.9317C76.8536,-60.0164 102.806,-46.448 124.29,-35.2156"/>
<polygon fill="midnightblue" stroke="midnightblue" points="125.945,-38.3 133.185,-30.565 122.702,-32.0966 125.945,-38.3"/>
</g>
<!-- Node4 -->
<g id="node4" class="node"><title>Node4</title>
<g id="a_node4"><a xlink:href="namespacetlz.html#af0d1e8ba5b9f2dbc2b589afab3a21fc8" target="_top" xlink:title="tlz::int_arg">
<polygon fill="white" stroke="black" points="132,-50 132,-69 194,-69 194,-50 132,-50"/>
<text text-anchor="middle" x="163" y="-57" font-family="Helvetica,sans-Serif" font-size="10.00">tlz::int_arg</text>
</a>
</g>
</g>
<!-- Node1&#45;&gt;Node4 -->
<g id="edge3" class="edge"><title>Node1&#45;&gt;Node4</title>
<path fill="none" stroke="midnightblue" d="M81.2902,-72.226C94.2723,-70.1791 108.693,-67.9053 121.711,-65.8526"/>
<polygon fill="midnightblue" stroke="midnightblue" points="122.464,-69.2772 131.797,-64.2623 121.374,-62.3626 122.464,-69.2772"/>
</g>
<!-- Node8 -->
<g id="node8" class="node"><title>Node8</title>
<g id="a_node8"><a xlink:href="namespacetlz.html#a63246890b0c946b5f62a1d3e2bea6103" target="_top" xlink:title="tlz::real_arg">
<polygon fill="white" stroke="black" points="129,-88 129,-107 197,-107 197,-88 129,-88"/>
<text text-anchor="middle" x="163" y="-95" font-family="Helvetica,sans-Serif" font-size="10.00">tlz::real_arg</text>
</a>
</g>
</g>
<!-- Node1&#45;&gt;Node8 -->
<g id="edge9" class="edge"><title>Node1&#45;&gt;Node8</title>
<path fill="none" stroke="midnightblue" d="M81.2902,-84.774C93.2869,-86.6656 106.512,-88.7508 118.723,-90.6763"/>
<polygon fill="midnightblue" stroke="midnightblue" points="118.271,-94.1481 128.694,-92.2484 119.361,-87.2335 118.271,-94.1481"/>
</g>
<!-- Node4&#45;&gt;Node2 -->
<g id="edge4" class="edge"><title>Node4&#45;&gt;Node2</title>
<path fill="none" stroke="midnightblue" d="M188.611,-69.067C195.323,-71.8974 202.525,-75.1431 209,-78.5 233.336,-91.1177 259.777,-107.956 277.948,-120.055"/>
<polygon fill="midnightblue" stroke="midnightblue" points="276.39,-123.225 286.641,-125.902 280.297,-117.417 276.39,-123.225"/>
</g>
<!-- Node5 -->
<g id="node5" class="node"><title>Node5</title>
<g id="a_node5"><a xlink:href="classtlz_1_1args__list.html#a73d99bc75998dc14607a3a372d28dc6d" target="_top" xlink:title="tlz::args_list::next_arg">
<polygon fill="white" stroke="black" points="245,-50 245,-69 358,-69 358,-50 245,-50"/>
<text text-anchor="middle" x="301.5" y="-57" font-family="Helvetica,sans-Serif" font-size="10.00">tlz::args_list::next_arg</text>
</a>
</g>
</g>
<!-- Node4&#45;&gt;Node5 -->
<g id="edge5" class="edge"><title>Node4&#45;&gt;Node5</title>
<path fill="none" stroke="midnightblue" d="M194.294,-59.5C206.239,-59.5 220.459,-59.5 234.548,-59.5"/>
<polygon fill="midnightblue" stroke="midnightblue" points="234.75,-63.0001 244.75,-59.5 234.749,-56.0001 234.75,-63.0001"/>
</g>
<!-- Node6 -->
<g id="node6" class="node"><title>Node6</title>
<g id="a_node6"><a xlink:href="classtlz_1_1args__list.html#a38ad21acd64a4af98ffdf4a47837cdbe" target="_top" xlink:title="tlz::args_list::usage_fail">
<polygon fill="white" stroke="black" points="394,-31 394,-50 514,-50 514,-31 394,-31"/>
<text text-anchor="middle" x="454" y="-38" font-family="Helvetica,sans-Serif" font-size="10.00">tlz::args_list::usage_fail</text>
</a>
</g>
</g>
<!-- Node4&#45;&gt;Node6 -->
<g id="edge8" class="edge"><title>Node4&#45;&gt;Node6</title>
<path fill="none" stroke="midnightblue" d="M194.094,-50.6972C209.222,-46.7202 227.925,-42.4758 245,-40.5 290.966,-35.1811 343.03,-35.1869 383.57,-36.5196"/>
<polygon fill="midnightblue" stroke="midnightblue" points="383.498,-40.0191 393.618,-36.8845 383.752,-33.0238 383.498,-40.0191"/>
</g>
<!-- Node5&#45;&gt;Node6 -->
<g id="edge6" class="edge"><title>Node5&#45;&gt;Node6</title>
<path fill="none" stroke="midnightblue" d="M358.113,-52.4791C366.479,-51.423 375.192,-50.3229 383.8,-49.2362"/>
<polygon fill="midnightblue" stroke="midnightblue" points="384.345,-52.6952 393.828,-47.9702 383.468,-45.7504 384.345,-52.6952"/>
</g>
<!-- Node7 -->
<g id="node7" class="node"><title>Node7</title>
<g id="a_node7"><a xlink:href="namespacetlz.html#a8e4f8c8c2927bc4350de13bfa0f8f9e1" target="_top" xlink:title="tlz::to_string">
<polygon fill="white" stroke="black" points="418.5,-69 418.5,-88 489.5,-88 489.5,-69 418.5,-69"/>
<text text-anchor="middle" x="454" y="-76" font-family="Helvetica,sans-Serif" font-size="10.00">tlz::to_string</text>
</a>
</g>
</g>
<!-- Node5&#45;&gt;Node7 -->
<g id="edge7" class="edge"><title>Node5&#45;&gt;Node7</title>
<path fill="none" stroke="midnightblue" d="M358.113,-66.5209C374.598,-68.6021 392.435,-70.8539 408.147,-72.8375"/>
<polygon fill="midnightblue" stroke="midnightblue" points="407.77,-76.3176 418.13,-74.0977 408.647,-69.3727 407.77,-76.3176"/>
</g>
<!-- Node8&#45;&gt;Node2 -->
<g id="edge10" class="edge"><title>Node8&#45;&gt;Node2</title>
<path fill="none" stroke="midnightblue" d="M197.043,-106.699C217.791,-112.475 244.518,-119.915 265.609,-125.787"/>
<polygon fill="midnightblue" stroke="midnightblue" points="264.886,-129.219 275.459,-128.529 266.764,-122.475 264.886,-129.219"/>
</g>
<!-- Node8&#45;&gt;Node5 -->
<g id="edge11" class="edge"><title>Node8&#45;&gt;Node5</title>
<path fill="none" stroke="midnightblue" d="M197.043,-88.3013C214.915,-83.3258 237.223,-77.1155 256.544,-71.7368"/>
<polygon fill="midnightblue" stroke="midnightblue" points="257.641,-75.0646 266.336,-69.0109 255.764,-68.3211 257.641,-75.0646"/>
</g>
<!-- Node8&#45;&gt;Node6 -->
<g id="edge12" class="edge"><title>Node8&#45;&gt;Node6</title>
<path fill="none" stroke="midnightblue" d="M197.009,-98.1057C236.222,-97.9566 303.222,-94.9433 358,-78.5 375.328,-73.2985 377.327,-66.5216 394,-59.5 399.145,-57.3334 404.627,-55.2647 410.099,-53.3432"/>
<polygon fill="midnightblue" stroke="midnightblue" points="411.503,-56.5637 419.862,-50.0541 409.268,-49.93 411.503,-56.5637"/>
</g>
</g>
</svg>
