<?xml version="1.0" encoding="UTF-8" standalone="no"?>
<!DOCTYPE svg PUBLIC "-//W3C//DTD SVG 1.1//EN"
 "http://www.w3.org/Graphics/SVG/1.1/DTD/svg11.dtd">
<!-- Generated by graphviz version 2.38.0 (20140413.2041)
 -->
<!-- Title: tlz::out_filename_opt_arg Pages: 1 -->
<svg width="694pt" height="180pt"
 viewBox="0.00 0.00 694.00 179.69" xmlns="http://www.w3.org/2000/svg" xmlns:xlink="http://www.w3.org/1999/xlink">
<g id="graph0" class="graph" transform="scale(1 1) rotate(0) translate(4 175.687)">
<title>tlz::out_filename_opt_arg</title>
<polygon fill="white" stroke="none" points="-4,4 -4,-175.687 690,-175.687 690,4 -4,4"/>
<!-- Node1 -->
<g id="node1" class="node"><title>Node1</title>
<polygon fill="#bfbfbf" stroke="black" points="0,-88 0,-107 126,-107 126,-88 0,-88"/>
<text text-anchor="middle" x="63" y="-95" font-family="Helvetica,sans-Serif" font-size="10.00">tlz::out_filename_opt_arg</text>
</g>
<!-- Node2 -->
<g id="node2" class="node"><title>Node2</title>
<g id="a_node2"><a xlink:href="namespacetlz.html#a780431daab8d2595372eacb43143b52d" target="_top" xlink:title="tlz::args">
<polygon fill="white" stroke="black" points="447.5,-148 447.5,-167 499.5,-167 499.5,-148 447.5,-148"/>
<text text-anchor="middle" x="473.5" y="-155" font-family="Helvetica,sans-Serif" font-size="10.00">tlz::args</text>
</a>
</g>
</g>
<!-- Node1&#45;&gt;Node2 -->
<g id="edge1" class="edge"><title>Node1&#45;&gt;Node2</title>
<path fill="none" stroke="midnightblue" d="M75.7508,-107.106C93.2669,-120.745 127.838,-145.11 162,-154.5 258.647,-181.064 378.692,-170.625 437.168,-162.919"/>
<polygon fill="midnightblue" stroke="midnightblue" points="437.92,-166.349 447.351,-161.522 436.968,-159.414 437.92,-166.349"/>
</g>
<!-- Node3 -->
<g id="node3" class="node"><title>Node3</title>
<g id="a_node3"><a xlink:href="classtlz_1_1args__list.html#a4aee93f4b0d9b5b4e7a5d13cb637337c" target="_top" xlink:title="tlz::args_list::has\l_next_arg">
<polygon fill="white" stroke="black" points="169.5,-0.5 169.5,-30.5 261.5,-30.5 261.5,-0.5 169.5,-0.5"/>
<text text-anchor="start" x="177.5" y="-18.5" font-family="Helvetica,sans-Serif" font-size="10.00">tlz::args_list::has</text>
<text text-anchor="middle" x="215.5" y="-7.5" font-family="Helvetica,sans-Serif" font-size="10.00">_next_arg</text>
</a>
</g>
</g>
<!-- Node1&#45;&gt;Node3 -->
<g id="edge2" class="edge"><title>Node1&#45;&gt;Node3</title>
<path fill="none" stroke="midnightblue" d="M81.5588,-87.9331C105.029,-75.1453 147.212,-52.162 177.779,-35.5074"/>
<polygon fill="midnightblue" stroke="midnightblue" points="179.752,-38.4181 186.859,-30.5602 176.403,-32.2713 179.752,-38.4181"/>
</g>
<!-- Node4 -->
<g id="node4" class="node"><title>Node4</title>
<g id="a_node4"><a xlink:href="classtlz_1_1args__list.html#ae7c07d1c8f24c2aa4fe0ba68ec45d353" target="_top" xlink:title="tlz::args_list::next\l_arg_is">
<polygon fill="white" stroke="black" points="426,-44.5 426,-74.5 521,-74.5 521,-44.5 426,-44.5"/>
<text text-anchor="start" x="434" y="-62.5" font-family="Helvetica,sans-Serif" font-size="10.00">tlz::args_list::next</text>
<text text-anchor="middle" x="473.5" y="-51.5" font-family="Helvetica,sans-Serif" font-size="10.00">_arg_is</text>
</a>
</g>
</g>
<!-- Node1&#45;&gt;Node4 -->
<g id="edge3" class="edge"><title>Node1&#45;&gt;Node4</title>
<path fill="none" stroke="midnightblue" d="M126.042,-91.7286C204.702,-84.4114 339.224,-71.8977 415.437,-64.8082"/>
<polygon fill="midnightblue" stroke="midnightblue" points="416.159,-68.2562 425.792,-63.8449 415.511,-61.2863 416.159,-68.2562"/>
</g>
<!-- Node7 -->
<g id="node7" class="node"><title>Node7</title>
<g id="a_node7"><a xlink:href="classtlz_1_1args__list.html#a73d99bc75998dc14607a3a372d28dc6d" target="_top" xlink:title="tlz::args_list::next_arg">
<polygon fill="white" stroke="black" points="417,-94 417,-113 530,-113 530,-94 417,-94"/>
<text text-anchor="middle" x="473.5" y="-101" font-family="Helvetica,sans-Serif" font-size="10.00">tlz::args_list::next_arg</text>
</a>
</g>
</g>
<!-- Node1&#45;&gt;Node7 -->
<g id="edge6" class="edge"><title>Node1&#45;&gt;Node7</title>
<path fill="none" stroke="midnightblue" d="M126.042,-98.4113C201.766,-99.5235 329.259,-101.396 406.664,-102.533"/>
<polygon fill="midnightblue" stroke="midnightblue" points="406.728,-106.034 416.778,-102.682 406.831,-99.035 406.728,-106.034"/>
</g>
<!-- Node8 -->
<g id="node8" class="node"><title>Node8</title>
<g id="a_node8"><a xlink:href="namespacetlz.html#a65770a2c1ff57c5ae6542d4465a3d3f4" target="_top" xlink:title="tlz::out_filename_arg">
<polygon fill="white" stroke="black" points="162,-126 162,-145 269,-145 269,-126 162,-126"/>
<text text-anchor="middle" x="215.5" y="-133" font-family="Helvetica,sans-Serif" font-size="10.00">tlz::out_filename_arg</text>
</a>
</g>
</g>
<!-- Node1&#45;&gt;Node8 -->
<g id="edge9" class="edge"><title>Node1&#45;&gt;Node8</title>
<path fill="none" stroke="midnightblue" d="M101.978,-107.089C121.659,-112.058 145.891,-118.177 166.821,-123.461"/>
<polygon fill="midnightblue" stroke="midnightblue" points="166.243,-126.925 176.796,-125.98 167.957,-120.138 166.243,-126.925"/>
</g>
<!-- Node5 -->
<g id="node5" class="node"><title>Node5</title>
<g id="a_node5"><a xlink:href="classtlz_1_1args__list.html#a38ad21acd64a4af98ffdf4a47837cdbe" target="_top" xlink:title="tlz::args_list::usage_fail">
<polygon fill="white" stroke="black" points="566,-92 566,-111 686,-111 686,-92 566,-92"/>
<text text-anchor="middle" x="626" y="-99" font-family="Helvetica,sans-Serif" font-size="10.00">tlz::args_list::usage_fail</text>
</a>
</g>
</g>
<!-- Node4&#45;&gt;Node5 -->
<g id="edge4" class="edge"><title>Node4&#45;&gt;Node5</title>
<path fill="none" stroke="midnightblue" d="M521.294,-72.5588C540.311,-77.8659 562.172,-83.9666 580.905,-89.1943"/>
<polygon fill="midnightblue" stroke="midnightblue" points="580.094,-92.6018 590.667,-91.9186 581.976,-85.8594 580.094,-92.6018"/>
</g>
<!-- Node6 -->
<g id="node6" class="node"><title>Node6</title>
<g id="a_node6"><a xlink:href="namespacetlz.html#a8e4f8c8c2927bc4350de13bfa0f8f9e1" target="_top" xlink:title="tlz::to_string">
<polygon fill="white" stroke="black" points="590.5,-53 590.5,-72 661.5,-72 661.5,-53 590.5,-53"/>
<text text-anchor="middle" x="626" y="-60" font-family="Helvetica,sans-Serif" font-size="10.00">tlz::to_string</text>
</a>
</g>
</g>
<!-- Node4&#45;&gt;Node6 -->
<g id="edge5" class="edge"><title>Node4&#45;&gt;Node6</title>
<path fill="none" stroke="midnightblue" d="M521.294,-60.4328C539.991,-60.8055 561.437,-61.233 579.956,-61.6021"/>
<polygon fill="midnightblue" stroke="midnightblue" points="580.124,-65.1061 590.192,-61.8061 580.263,-58.1074 580.124,-65.1061"/>
</g>
<!-- Node7&#45;&gt;Node5 -->
<g id="edge7" class="edge"><title>Node7&#45;&gt;Node5</title>
<path fill="none" stroke="midnightblue" d="M530.113,-102.761C538.479,-102.65 547.192,-102.534 555.8,-102.42"/>
<polygon fill="midnightblue" stroke="midnightblue" points="555.876,-105.919 565.828,-102.286 555.782,-98.9196 555.876,-105.919"/>
</g>
<!-- Node7&#45;&gt;Node6 -->
<g id="edge8" class="edge"><title>Node7&#45;&gt;Node6</title>
<path fill="none" stroke="midnightblue" d="M509.406,-93.9907C530.585,-88.2209 557.819,-80.8019 580.531,-74.6144"/>
<polygon fill="midnightblue" stroke="midnightblue" points="581.555,-77.9632 590.283,-71.9577 579.715,-71.2093 581.555,-77.9632"/>
</g>
<!-- Node9 -->
<g id="node9" class="node"><title>Node9</title>
<g id="a_node9"><a xlink:href="namespacetlz.html#a0621d598fb83b13bf028f3e6293d04f8" target="_top" xlink:title="tlz::string_arg">
<polygon fill="white" stroke="black" points="305,-126 305,-145 381,-145 381,-126 305,-126"/>
<text text-anchor="middle" x="343" y="-133" font-family="Helvetica,sans-Serif" font-size="10.00">tlz::string_arg</text>
</a>
</g>
</g>
<!-- Node8&#45;&gt;Node9 -->
<g id="edge10" class="edge"><title>Node8&#45;&gt;Node9</title>
<path fill="none" stroke="midnightblue" d="M269.36,-135.5C277.744,-135.5 286.369,-135.5 294.618,-135.5"/>
<polygon fill="midnightblue" stroke="midnightblue" points="294.817,-139 304.817,-135.5 294.817,-132 294.817,-139"/>
</g>
<!-- Node9&#45;&gt;Node2 -->
<g id="edge11" class="edge"><title>Node9&#45;&gt;Node2</title>
<path fill="none" stroke="midnightblue" d="M381.168,-141.863C398.723,-144.869 419.581,-148.44 436.928,-151.41"/>
<polygon fill="midnightblue" stroke="midnightblue" points="436.768,-154.933 447.216,-153.171 437.95,-148.034 436.768,-154.933"/>
</g>
<!-- Node9&#45;&gt;Node7 -->
<g id="edge12" class="edge"><title>Node9&#45;&gt;Node7</title>
<path fill="none" stroke="midnightblue" d="M381.168,-126.244C394.528,-122.917 409.801,-119.114 423.984,-115.582"/>
<polygon fill="midnightblue" stroke="midnightblue" points="425.218,-118.881 434.076,-113.069 423.527,-112.089 425.218,-118.881"/>
</g>
</g>
</svg>
