<?xml version="1.0" encoding="UTF-8" standalone="no"?>
<!DOCTYPE svg PUBLIC "-//W3C//DTD SVG 1.1//EN"
 "http://www.w3.org/Graphics/SVG/1.1/DTD/svg11.dtd">
<!-- Generated by graphviz version 2.38.0 (20140413.2041)
 -->
<!-- Title: tlz::undistorted_feature_points_for_view Pages: 1 -->
<svg width="556pt" height="107pt"
 viewBox="0.00 0.00 556.00 107.00" xmlns="http://www.w3.org/2000/svg" xmlns:xlink="http://www.w3.org/1999/xlink">
<g id="graph0" class="graph" transform="scale(1 1) rotate(0) translate(4 103)">
<title>tlz::undistorted_feature_points_for_view</title>
<polygon fill="white" stroke="none" points="-4,4 -4,-103 552,-103 552,4 -4,4"/>
<!-- Node1 -->
<g id="node1" class="node"><title>Node1</title>
<polygon fill="#bfbfbf" stroke="black" points="0,-46.5 0,-76.5 116,-76.5 116,-46.5 0,-46.5"/>
<text text-anchor="start" x="8" y="-64.5" font-family="Helvetica,sans-Serif" font-size="10.00">tlz::undistorted_feature</text>
<text text-anchor="middle" x="58" y="-53.5" font-family="Helvetica,sans-Serif" font-size="10.00">_points_for_view</text>
</g>
<!-- Node2 -->
<g id="node2" class="node"><title>Node2</title>
<g id="a_node2"><a xlink:href="namespacetlz.html#abab56a7d5e8f6eba9520c66a15fafa6d" target="_top" xlink:title="tlz::feature_points\l_for_view">
<polygon fill="white" stroke="black" points="152,-68.5 152,-98.5 247,-98.5 247,-68.5 152,-68.5"/>
<text text-anchor="start" x="160" y="-86.5" font-family="Helvetica,sans-Serif" font-size="10.00">tlz::feature_points</text>
<text text-anchor="middle" x="199.5" y="-75.5" font-family="Helvetica,sans-Serif" font-size="10.00">_for_view</text>
</a>
</g>
</g>
<!-- Node1&#45;&gt;Node2 -->
<g id="edge1" class="edge"><title>Node1&#45;&gt;Node2</title>
<path fill="none" stroke="midnightblue" d="M116.142,-70.5117C124.594,-71.8447 133.302,-73.2179 141.746,-74.5495"/>
<polygon fill="midnightblue" stroke="midnightblue" points="141.457,-78.0472 151.88,-76.1478 142.548,-71.1326 141.457,-78.0472"/>
</g>
<!-- Node3 -->
<g id="node3" class="node"><title>Node3</title>
<g id="a_node3"><a xlink:href="namespacetlz.html#ae9eeca909bec8ca797356b56d3cfbb90" target="_top" xlink:title="tlz::undistort">
<polygon fill="white" stroke="black" points="164,-30 164,-49 235,-49 235,-30 164,-30"/>
<text text-anchor="middle" x="199.5" y="-37" font-family="Helvetica,sans-Serif" font-size="10.00">tlz::undistort</text>
</a>
</g>
</g>
<!-- Node1&#45;&gt;Node3 -->
<g id="edge2" class="edge"><title>Node1&#45;&gt;Node3</title>
<path fill="none" stroke="midnightblue" d="M116.142,-52.4883C128.597,-50.5242 141.605,-48.4727 153.509,-46.5954"/>
<polygon fill="midnightblue" stroke="midnightblue" points="154.31,-50.0124 163.643,-44.9972 153.219,-43.0978 154.31,-50.0124"/>
</g>
<!-- Node4 -->
<g id="node4" class="node"><title>Node4</title>
<g id="a_node4"><a xlink:href="namespacetlz.html#a8b5e4acbb884887859e414ffe06a09f8" target="_top" xlink:title="tlz::undistort_points">
<polygon fill="white" stroke="black" points="283,-30 283,-49 385,-49 385,-30 283,-30"/>
<text text-anchor="middle" x="334" y="-37" font-family="Helvetica,sans-Serif" font-size="10.00">tlz::undistort_points</text>
</a>
</g>
</g>
<!-- Node3&#45;&gt;Node4 -->
<g id="edge3" class="edge"><title>Node3&#45;&gt;Node4</title>
<path fill="none" stroke="midnightblue" d="M235.313,-39.5C246.808,-39.5 259.947,-39.5 272.782,-39.5"/>
<polygon fill="midnightblue" stroke="midnightblue" points="272.972,-43.0001 282.972,-39.5 272.972,-36.0001 272.972,-43.0001"/>
</g>
<!-- Node5 -->
<g id="node5" class="node"><title>Node5</title>
<g id="a_node5"><a xlink:href="structtlz_1_1distortion__parameters.html#a307fee036b04519d633fb8456899850c" target="_top" xlink:title="tlz::distortion_parameters\l::is_none">
<polygon fill="white" stroke="black" points="421,-49.5 421,-79.5 548,-79.5 548,-49.5 421,-49.5"/>
<text text-anchor="start" x="429" y="-67.5" font-family="Helvetica,sans-Serif" font-size="10.00">tlz::distortion_parameters</text>
<text text-anchor="middle" x="484.5" y="-56.5" font-family="Helvetica,sans-Serif" font-size="10.00">::is_none</text>
</a>
</g>
</g>
<!-- Node4&#45;&gt;Node5 -->
<g id="edge4" class="edge"><title>Node4&#45;&gt;Node5</title>
<path fill="none" stroke="midnightblue" d="M385.275,-47.9639C393.5,-49.3485 402.165,-50.8072 410.801,-52.2612"/>
<polygon fill="midnightblue" stroke="midnightblue" points="410.457,-55.7524 420.899,-53.9612 411.619,-48.8495 410.457,-55.7524"/>
</g>
<!-- Node6 -->
<g id="node6" class="node"><title>Node6</title>
<g id="a_node6"><a xlink:href="structtlz_1_1distortion__parameters.html#a96312c5d7baa4b7b1f2a76e9396037f8" target="_top" xlink:title="tlz::distortion_parameters\l::cv_coeffs">
<polygon fill="white" stroke="black" points="421,-0.5 421,-30.5 548,-30.5 548,-0.5 421,-0.5"/>
<text text-anchor="start" x="429" y="-18.5" font-family="Helvetica,sans-Serif" font-size="10.00">tlz::distortion_parameters</text>
<text text-anchor="middle" x="484.5" y="-7.5" font-family="Helvetica,sans-Serif" font-size="10.00">::cv_coeffs</text>
</a>
</g>
</g>
<!-- Node4&#45;&gt;Node6 -->
<g id="edge5" class="edge"><title>Node4&#45;&gt;Node6</title>
<path fill="none" stroke="midnightblue" d="M385.275,-31.3747C393.5,-30.0454 402.165,-28.6451 410.801,-27.2493"/>
<polygon fill="midnightblue" stroke="midnightblue" points="411.586,-30.668 420.899,-25.6173 410.469,-23.7577 411.586,-30.668"/>
</g>
</g>
</svg>
