<?xml version="1.0" encoding="UTF-8" standalone="no"?>
<!DOCTYPE svg PUBLIC "-//W3C//DTD SVG 1.1//EN"
 "http://www.w3.org/Graphics/SVG/1.1/DTD/svg11.dtd">
<!-- Generated by graphviz version 2.38.0 (20140413.2041)
 -->
<!-- Title: tlz::out_dirname_arg Pages: 1 -->
<svg width="530pt" height="85pt"
 viewBox="0.00 0.00 530.00 85.00" xmlns="http://www.w3.org/2000/svg" xmlns:xlink="http://www.w3.org/1999/xlink">
<g id="graph0" class="graph" transform="scale(1 1) rotate(0) translate(4 81)">
<title>tlz::out_dirname_arg</title>
<polygon fill="white" stroke="none" points="-4,4 -4,-81 526,-81 526,4 -4,4"/>
<!-- Node1 -->
<g id="node1" class="node"><title>Node1</title>
<polygon fill="#bfbfbf" stroke="black" points="0,-38.5 0,-57.5 105,-57.5 105,-38.5 0,-38.5"/>
<text text-anchor="middle" x="52.5" y="-45.5" font-family="Helvetica,sans-Serif" font-size="10.00">tlz::out_dirname_arg</text>
</g>
<!-- Node2 -->
<g id="node2" class="node"><title>Node2</title>
<g id="a_node2"><a xlink:href="namespacetlz.html#a0621d598fb83b13bf028f3e6293d04f8" target="_top" xlink:title="tlz::string_arg">
<polygon fill="white" stroke="black" points="141,-38.5 141,-57.5 217,-57.5 217,-38.5 141,-38.5"/>
<text text-anchor="middle" x="179" y="-45.5" font-family="Helvetica,sans-Serif" font-size="10.00">tlz::string_arg</text>
</a>
</g>
</g>
<!-- Node1&#45;&gt;Node2 -->
<g id="edge1" class="edge"><title>Node1&#45;&gt;Node2</title>
<path fill="none" stroke="midnightblue" d="M105.218,-48C113.579,-48 122.202,-48 130.458,-48"/>
<polygon fill="midnightblue" stroke="midnightblue" points="130.674,-51.5001 140.674,-48 130.674,-44.5001 130.674,-51.5001"/>
</g>
<!-- Node3 -->
<g id="node3" class="node"><title>Node3</title>
<g id="a_node3"><a xlink:href="namespacetlz.html#a780431daab8d2595372eacb43143b52d" target="_top" xlink:title="tlz::args">
<polygon fill="white" stroke="black" points="283.5,-57.5 283.5,-76.5 335.5,-76.5 335.5,-57.5 283.5,-57.5"/>
<text text-anchor="middle" x="309.5" y="-64.5" font-family="Helvetica,sans-Serif" font-size="10.00">tlz::args</text>
</a>
</g>
</g>
<!-- Node2&#45;&gt;Node3 -->
<g id="edge2" class="edge"><title>Node2&#45;&gt;Node3</title>
<path fill="none" stroke="midnightblue" d="M217.168,-53.4956C234.723,-56.0913 255.581,-59.1753 272.928,-61.7404"/>
<polygon fill="midnightblue" stroke="midnightblue" points="272.811,-65.261 283.216,-63.2614 273.835,-58.3363 272.811,-65.261"/>
</g>
<!-- Node4 -->
<g id="node4" class="node"><title>Node4</title>
<g id="a_node4"><a xlink:href="classtlz_1_1args__list.html#a73d99bc75998dc14607a3a372d28dc6d" target="_top" xlink:title="tlz::args_list::next_arg">
<polygon fill="white" stroke="black" points="253,-19.5 253,-38.5 366,-38.5 366,-19.5 253,-19.5"/>
<text text-anchor="middle" x="309.5" y="-26.5" font-family="Helvetica,sans-Serif" font-size="10.00">tlz::args_list::next_arg</text>
</a>
</g>
</g>
<!-- Node2&#45;&gt;Node4 -->
<g id="edge3" class="edge"><title>Node2&#45;&gt;Node4</title>
<path fill="none" stroke="midnightblue" d="M217.168,-42.5044C225.246,-41.31 234.023,-40.0121 242.836,-38.7091"/>
<polygon fill="midnightblue" stroke="midnightblue" points="243.385,-42.166 252.766,-37.2409 242.361,-35.2413 243.385,-42.166"/>
</g>
<!-- Node5 -->
<g id="node5" class="node"><title>Node5</title>
<g id="a_node5"><a xlink:href="classtlz_1_1args__list.html#a38ad21acd64a4af98ffdf4a47837cdbe" target="_top" xlink:title="tlz::args_list::usage_fail">
<polygon fill="white" stroke="black" points="402,-38.5 402,-57.5 522,-57.5 522,-38.5 402,-38.5"/>
<text text-anchor="middle" x="462" y="-45.5" font-family="Helvetica,sans-Serif" font-size="10.00">tlz::args_list::usage_fail</text>
</a>
</g>
</g>
<!-- Node4&#45;&gt;Node5 -->
<g id="edge4" class="edge"><title>Node4&#45;&gt;Node5</title>
<path fill="none" stroke="midnightblue" d="M366.113,-36.0209C374.479,-37.077 383.192,-38.1771 391.8,-39.2638"/>
<polygon fill="midnightblue" stroke="midnightblue" points="391.468,-42.7496 401.828,-40.5298 392.345,-35.8048 391.468,-42.7496"/>
</g>
<!-- Node6 -->
<g id="node6" class="node"><title>Node6</title>
<g id="a_node6"><a xlink:href="namespacetlz.html#a8e4f8c8c2927bc4350de13bfa0f8f9e1" target="_top" xlink:title="tlz::to_string">
<polygon fill="white" stroke="black" points="426.5,-0.5 426.5,-19.5 497.5,-19.5 497.5,-0.5 426.5,-0.5"/>
<text text-anchor="middle" x="462" y="-7.5" font-family="Helvetica,sans-Serif" font-size="10.00">tlz::to_string</text>
</a>
</g>
</g>
<!-- Node4&#45;&gt;Node6 -->
<g id="edge5" class="edge"><title>Node4&#45;&gt;Node6</title>
<path fill="none" stroke="midnightblue" d="M366.113,-21.9791C382.598,-19.8979 400.435,-17.6461 416.147,-15.6625"/>
<polygon fill="midnightblue" stroke="midnightblue" points="416.647,-19.1273 426.13,-14.4023 415.77,-12.1824 416.647,-19.1273"/>
</g>
</g>
</svg>
