<?xml version="1.0" encoding="UTF-8" standalone="no"?>
<!DOCTYPE svg PUBLIC "-//W3C//DTD SVG 1.1//EN"
 "http://www.w3.org/Graphics/SVG/1.1/DTD/svg11.dtd">
<!-- Generated by graphviz version 2.38.0 (20140413.2041)
 -->
<!-- Title: tlz::get_references_grid Pages: 1 -->
<svg width="263pt" height="186pt"
 viewBox="0.00 0.00 263.00 186.00" xmlns="http://www.w3.org/2000/svg" xmlns:xlink="http://www.w3.org/1999/xlink">
<g id="graph0" class="graph" transform="scale(1 1) rotate(0) translate(4 182)">
<title>tlz::get_references_grid</title>
<polygon fill="white" stroke="none" points="-4,4 -4,-182 259,-182 259,4 -4,4"/>
<!-- Node1 -->
<g id="node1" class="node"><title>Node1</title>
<polygon fill="#bfbfbf" stroke="black" points="0,-79 0,-98 119,-98 119,-79 0,-79"/>
<text text-anchor="middle" x="59.5" y="-86" font-family="Helvetica,sans-Serif" font-size="10.00">tlz::get_references_grid</text>
</g>
<!-- Node2 -->
<g id="node2" class="node"><title>Node2</title>
<g id="a_node2"><a xlink:href="namespacetlz.html#a50da847dcfcd4a37035f36baf5658b0d" target="_top" xlink:title="tlz::get_reference\l_views_set">
<polygon fill="white" stroke="black" points="159,-147.5 159,-177.5 251,-177.5 251,-147.5 159,-147.5"/>
<text text-anchor="start" x="167" y="-165.5" font-family="Helvetica,sans-Serif" font-size="10.00">tlz::get_reference</text>
<text text-anchor="middle" x="205" y="-154.5" font-family="Helvetica,sans-Serif" font-size="10.00">_views_set</text>
</a>
</g>
</g>
<!-- Node1&#45;&gt;Node2 -->
<g id="edge1" class="edge"><title>Node1&#45;&gt;Node2</title>
<path fill="none" stroke="midnightblue" d="M78.1792,-98.0655C97.1008,-108.254 128.04,-124.77 155,-138.5 157.87,-139.962 160.842,-141.458 163.838,-142.955"/>
<polygon fill="midnightblue" stroke="midnightblue" points="162.308,-146.103 172.822,-147.41 165.418,-139.832 162.308,-146.103"/>
</g>
<!-- Node3 -->
<g id="node3" class="node"><title>Node3</title>
<g id="a_node3"><a xlink:href="structtlz_1_1references__grid.html#a5b4c4debbacfe143fd93753c04d84bca" target="_top" xlink:title="tlz::references_grid\l::rows">
<polygon fill="white" stroke="black" points="155,-98.5 155,-128.5 255,-128.5 255,-98.5 155,-98.5"/>
<text text-anchor="start" x="163" y="-116.5" font-family="Helvetica,sans-Serif" font-size="10.00">tlz::references_grid</text>
<text text-anchor="middle" x="205" y="-105.5" font-family="Helvetica,sans-Serif" font-size="10.00">::rows</text>
</a>
</g>
</g>
<!-- Node1&#45;&gt;Node3 -->
<g id="edge2" class="edge"><title>Node1&#45;&gt;Node3</title>
<path fill="none" stroke="midnightblue" d="M115.161,-98.0227C124.801,-99.7023 134.879,-101.458 144.641,-103.159"/>
<polygon fill="midnightblue" stroke="midnightblue" points="144.216,-106.637 154.669,-104.906 145.418,-99.7413 144.216,-106.637"/>
</g>
<!-- Node4 -->
<g id="node4" class="node"><title>Node4</title>
<g id="a_node4"><a xlink:href="structtlz_1_1references__grid.html#ac2d383bed7f034aa729ae386b689ad6d" target="_top" xlink:title="tlz::references_grid\l::cols">
<polygon fill="white" stroke="black" points="155,-49.5 155,-79.5 255,-79.5 255,-49.5 155,-49.5"/>
<text text-anchor="start" x="163" y="-67.5" font-family="Helvetica,sans-Serif" font-size="10.00">tlz::references_grid</text>
<text text-anchor="middle" x="205" y="-56.5" font-family="Helvetica,sans-Serif" font-size="10.00">::cols</text>
</a>
</g>
</g>
<!-- Node1&#45;&gt;Node4 -->
<g id="edge3" class="edge"><title>Node1&#45;&gt;Node4</title>
<path fill="none" stroke="midnightblue" d="M117.627,-78.9456C126.6,-77.445 135.891,-75.8911 144.907,-74.3832"/>
<polygon fill="midnightblue" stroke="midnightblue" points="145.651,-77.8074 154.937,-72.7057 144.497,-70.9033 145.651,-77.8074"/>
</g>
<!-- Node5 -->
<g id="node5" class="node"><title>Node5</title>
<g id="a_node5"><a xlink:href="structtlz_1_1references__grid.html#a3ad2b6212dea0a1b71addfee4fc6bfba" target="_top" xlink:title="tlz::references_grid\l::view">
<polygon fill="white" stroke="black" points="155,-0.5 155,-30.5 255,-30.5 255,-0.5 155,-0.5"/>
<text text-anchor="start" x="163" y="-18.5" font-family="Helvetica,sans-Serif" font-size="10.00">tlz::references_grid</text>
<text text-anchor="middle" x="205" y="-7.5" font-family="Helvetica,sans-Serif" font-size="10.00">::view</text>
</a>
</g>
</g>
<!-- Node1&#45;&gt;Node5 -->
<g id="edge4" class="edge"><title>Node1&#45;&gt;Node5</title>
<path fill="none" stroke="midnightblue" d="M79.2601,-78.9565C100.965,-67.9148 137.288,-49.4369 165.157,-35.2599"/>
<polygon fill="midnightblue" stroke="midnightblue" points="166.924,-38.2877 174.25,-30.634 163.75,-32.0486 166.924,-38.2877"/>
</g>
</g>
</svg>
