<?xml version="1.0" encoding="UTF-8" standalone="no"?>
<!DOCTYPE svg PUBLIC "-//W3C//DTD SVG 1.1//EN"
 "http://www.w3.org/Graphics/SVG/1.1/DTD/svg11.dtd">
<!-- Generated by graphviz version 2.38.0 (20140413.2041)
 -->
<!-- Title: tlz::decode_view_homography Pages: 1 -->
<svg width="364pt" height="66pt"
 viewBox="0.00 0.00 364.00 66.00" xmlns="http://www.w3.org/2000/svg" xmlns:xlink="http://www.w3.org/1999/xlink">
<g id="graph0" class="graph" transform="scale(1 1) rotate(0) translate(4 62)">
<title>tlz::decode_view_homography</title>
<polygon fill="white" stroke="none" points="-4,4 -4,-62 360,-62 360,4 -4,4"/>
<!-- Node1 -->
<g id="node1" class="node"><title>Node1</title>
<polygon fill="#bfbfbf" stroke="black" points="0,-19.5 0,-38.5 149,-38.5 149,-19.5 0,-19.5"/>
<text text-anchor="middle" x="74.5" y="-26.5" font-family="Helvetica,sans-Serif" font-size="10.00">tlz::decode_view_homography</text>
</g>
<!-- Node2 -->
<g id="node2" class="node"><title>Node2</title>
<g id="a_node2"><a xlink:href="namespacetlz.html#a066563a26e2de02f215b179f3d3a53da" target="_top" xlink:title="tlz::decode_mat">
<polygon fill="white" stroke="black" points="185,-38.5 185,-57.5 271,-57.5 271,-38.5 185,-38.5"/>
<text text-anchor="middle" x="228" y="-45.5" font-family="Helvetica,sans-Serif" font-size="10.00">tlz::decode_mat</text>
</a>
</g>
</g>
<!-- Node1&#45;&gt;Node2 -->
<g id="edge1" class="edge"><title>Node1&#45;&gt;Node2</title>
<path fill="none" stroke="midnightblue" d="M149.031,-38.2217C157.619,-39.2987 166.244,-40.3804 174.466,-41.4115"/>
<polygon fill="midnightblue" stroke="midnightblue" points="174.273,-44.9147 184.63,-42.6863 175.144,-37.9691 174.273,-44.9147"/>
</g>
<!-- Node3 -->
<g id="node3" class="node"><title>Node3</title>
<g id="a_node3"><a xlink:href="namespacetlz.html#add846dc50c32dfb356cb1a7ac11d37ac" target="_top" xlink:title="tlz::get_or">
<polygon fill="white" stroke="black" points="198,-0.5 198,-19.5 258,-19.5 258,-0.5 198,-0.5"/>
<text text-anchor="middle" x="228" y="-7.5" font-family="Helvetica,sans-Serif" font-size="10.00">tlz::get_or</text>
</a>
</g>
</g>
<!-- Node1&#45;&gt;Node3 -->
<g id="edge2" class="edge"><title>Node1&#45;&gt;Node3</title>
<path fill="none" stroke="midnightblue" d="M149.031,-19.7783C162.442,-18.0963 175.946,-16.4028 187.86,-14.9087"/>
<polygon fill="midnightblue" stroke="midnightblue" points="188.391,-18.3696 197.878,-13.6523 187.52,-11.424 188.391,-18.3696"/>
</g>
<!-- Node4 -->
<g id="node4" class="node"><title>Node4</title>
<g id="a_node4"><a xlink:href="namespacetlz.html#a252af14b9b4ac6502d3e9c5dd8dc90b8" target="_top" xlink:title="tlz::has">
<polygon fill="white" stroke="black" points="307,-0.5 307,-19.5 356,-19.5 356,-0.5 307,-0.5"/>
<text text-anchor="middle" x="331.5" y="-7.5" font-family="Helvetica,sans-Serif" font-size="10.00">tlz::has</text>
</a>
</g>
</g>
<!-- Node3&#45;&gt;Node4 -->
<g id="edge3" class="edge"><title>Node3&#45;&gt;Node4</title>
<path fill="none" stroke="midnightblue" d="M258.086,-10C270.168,-10 284.267,-10 296.797,-10"/>
<polygon fill="midnightblue" stroke="midnightblue" points="296.875,-13.5001 306.875,-10 296.875,-6.5001 296.875,-13.5001"/>
</g>
</g>
</svg>
