<?xml version="1.0" encoding="UTF-8" standalone="no"?>
<!DOCTYPE svg PUBLIC "-//W3C//DTD SVG 1.1//EN"
 "http://www.w3.org/Graphics/SVG/1.1/DTD/svg11.dtd">
<!-- Generated by graphviz version 2.38.0 (20140413.2041)
 -->
<!-- Title: tlz::image_correspondences_arg Pages: 1 -->
<svg width="1128pt" height="306pt"
 viewBox="0.00 0.00 1128.00 306.00" xmlns="http://www.w3.org/2000/svg" xmlns:xlink="http://www.w3.org/1999/xlink">
<g id="graph0" class="graph" transform="scale(1 1) rotate(0) translate(4 302)">
<title>tlz::image_correspondences_arg</title>
<polygon fill="white" stroke="none" points="-4,4 -4,-302 1124,-302 1124,4 -4,4"/>
<!-- Node1 -->
<g id="node1" class="node"><title>Node1</title>
<polygon fill="#bfbfbf" stroke="black" points="0,-139.5 0,-158.5 158,-158.5 158,-139.5 0,-139.5"/>
<text text-anchor="middle" x="79" y="-146.5" font-family="Helvetica,sans-Serif" font-size="10.00">tlz::image_correspondences_arg</text>
</g>
<!-- Node2 -->
<g id="node2" class="node"><title>Node2</title>
<g id="a_node2"><a xlink:href="namespacetlz.html#ad75d99f2e1623434fbadee66f3ff29a1" target="_top" xlink:title="tlz::import_image_correspondences">
<polygon fill="white" stroke="black" points="194,-202.5 194,-221.5 365,-221.5 365,-202.5 194,-202.5"/>
<text text-anchor="middle" x="279.5" y="-209.5" font-family="Helvetica,sans-Serif" font-size="10.00">tlz::import_image_correspondences</text>
</a>
</g>
</g>
<!-- Node1&#45;&gt;Node2 -->
<g id="edge1" class="edge"><title>Node1&#45;&gt;Node2</title>
<path fill="none" stroke="midnightblue" d="M110.148,-158.568C144.496,-169.47 200.765,-187.328 238.694,-199.366"/>
<polygon fill="midnightblue" stroke="midnightblue" points="237.804,-202.756 248.394,-202.445 239.922,-196.084 237.804,-202.756"/>
</g>
<!-- Node12 -->
<g id="node12" class="node"><title>Node12</title>
<g id="a_node12"><a xlink:href="namespacetlz.html#a634de7ca11e100e4a118dffe80376a75" target="_top" xlink:title="tlz::in_filename_arg">
<polygon fill="white" stroke="black" points="229,-76.5 229,-95.5 330,-95.5 330,-76.5 229,-76.5"/>
<text text-anchor="middle" x="279.5" y="-83.5" font-family="Helvetica,sans-Serif" font-size="10.00">tlz::in_filename_arg</text>
</a>
</g>
</g>
<!-- Node1&#45;&gt;Node12 -->
<g id="edge13" class="edge"><title>Node1&#45;&gt;Node12</title>
<path fill="none" stroke="midnightblue" d="M110.148,-139.432C144.496,-128.53 200.765,-110.672 238.694,-98.6336"/>
<polygon fill="midnightblue" stroke="midnightblue" points="239.922,-101.916 248.394,-95.555 237.804,-95.2441 239.922,-101.916"/>
</g>
<!-- Node3 -->
<g id="node3" class="node"><title>Node3</title>
<g id="a_node3"><a xlink:href="namespacetlz.html#ae11c827ac9e581f9d2f98c39aab3750d" target="_top" xlink:title="tlz::file_name_extension">
<polygon fill="white" stroke="black" points="428,-278.5 428,-297.5 550,-297.5 550,-278.5 428,-278.5"/>
<text text-anchor="middle" x="489" y="-285.5" font-family="Helvetica,sans-Serif" font-size="10.00">tlz::file_name_extension</text>
</a>
</g>
</g>
<!-- Node2&#45;&gt;Node3 -->
<g id="edge2" class="edge"><title>Node2&#45;&gt;Node3</title>
<path fill="none" stroke="midnightblue" d="M297.543,-221.585C320.432,-234.097 362.665,-255.937 401,-269 408.699,-271.623 416.907,-273.971 425.091,-276.045"/>
<polygon fill="midnightblue" stroke="midnightblue" points="424.484,-279.499 435.026,-278.44 426.125,-272.694 424.484,-279.499"/>
</g>
<!-- Node4 -->
<g id="node4" class="node"><title>Node4</title>
<g id="a_node4"><a xlink:href="namespacetlz.html#a24915249769d936c24ceb34f50b06104" target="_top" xlink:title="tlz::decode_image_correspondences">
<polygon fill="white" stroke="black" points="401,-240.5 401,-259.5 577,-259.5 577,-240.5 401,-240.5"/>
<text text-anchor="middle" x="489" y="-247.5" font-family="Helvetica,sans-Serif" font-size="10.00">tlz::decode_image_correspondences</text>
</a>
</g>
</g>
<!-- Node2&#45;&gt;Node4 -->
<g id="edge3" class="edge"><title>Node2&#45;&gt;Node4</title>
<path fill="none" stroke="midnightblue" d="M332.593,-221.54C360.96,-226.735 396.243,-233.196 426.017,-238.649"/>
<polygon fill="midnightblue" stroke="midnightblue" points="425.418,-242.097 435.885,-240.456 426.679,-235.212 425.418,-242.097"/>
</g>
<!-- Node10 -->
<g id="node10" class="node"><title>Node10</title>
<g id="a_node10"><a xlink:href="namespacetlz.html#aa1be9362f548fcf9378e1fc9074089c4" target="_top" xlink:title="tlz::import_json_file">
<polygon fill="white" stroke="black" points="438.5,-202.5 438.5,-221.5 539.5,-221.5 539.5,-202.5 438.5,-202.5"/>
<text text-anchor="middle" x="489" y="-209.5" font-family="Helvetica,sans-Serif" font-size="10.00">tlz::import_json_file</text>
</a>
</g>
</g>
<!-- Node2&#45;&gt;Node10 -->
<g id="edge11" class="edge"><title>Node2&#45;&gt;Node10</title>
<path fill="none" stroke="midnightblue" d="M365.197,-212C386.383,-212 408.665,-212 428.347,-212"/>
<polygon fill="midnightblue" stroke="midnightblue" points="428.382,-215.5 438.382,-212 428.382,-208.5 428.382,-215.5"/>
</g>
<!-- Node11 -->
<g id="node11" class="node"><title>Node11</title>
<g id="a_node11"><a xlink:href="namespacetlz.html#a2ec439452fda5eeb03f60715e50fa96a" target="_top" xlink:title="tlz::import_binary\l_image_correspondences">
<polygon fill="white" stroke="black" points="425,-153 425,-183 553,-183 553,-153 425,-153"/>
<text text-anchor="start" x="433" y="-171" font-family="Helvetica,sans-Serif" font-size="10.00">tlz::import_binary</text>
<text text-anchor="middle" x="489" y="-160" font-family="Helvetica,sans-Serif" font-size="10.00">_image_correspondences</text>
</a>
</g>
</g>
<!-- Node2&#45;&gt;Node11 -->
<g id="edge12" class="edge"><title>Node2&#45;&gt;Node11</title>
<path fill="none" stroke="midnightblue" d="M325.524,-202.453C351.654,-196.912 385.194,-189.8 415.008,-183.478"/>
<polygon fill="midnightblue" stroke="midnightblue" points="415.903,-186.866 424.96,-181.368 414.451,-180.018 415.903,-186.866"/>
</g>
<!-- Node5 -->
<g id="node5" class="node"><title>Node5</title>
<g id="a_node5"><a xlink:href="namespacetlz.html#a252af14b9b4ac6502d3e9c5dd8dc90b8" target="_top" xlink:title="tlz::has">
<polygon fill="white" stroke="black" points="1071,-232.5 1071,-251.5 1120,-251.5 1120,-232.5 1071,-232.5"/>
<text text-anchor="middle" x="1095.5" y="-239.5" font-family="Helvetica,sans-Serif" font-size="10.00">tlz::has</text>
</a>
</g>
</g>
<!-- Node4&#45;&gt;Node5 -->
<g id="edge4" class="edge"><title>Node4&#45;&gt;Node5</title>
<path fill="none" stroke="midnightblue" d="M577.431,-253.589C685.18,-257.185 873.8,-260.788 1035,-250 1043.43,-249.436 1052.48,-248.427 1060.92,-247.312"/>
<polygon fill="midnightblue" stroke="midnightblue" points="1061.42,-250.777 1070.83,-245.921 1060.44,-243.845 1061.42,-250.777"/>
</g>
<!-- Node6 -->
<g id="node6" class="node"><title>Node6</title>
<g id="a_node6"><a xlink:href="namespacetlz.html#ab83b0eb933afca1abe8ccd3470207691" target="_top" xlink:title="tlz::decode_image_correspondence\l_feature">
<polygon fill="white" stroke="black" points="613,-205 613,-235 783,-235 783,-205 613,-205"/>
<text text-anchor="start" x="621" y="-223" font-family="Helvetica,sans-Serif" font-size="10.00">tlz::decode_image_correspondence</text>
<text text-anchor="middle" x="698" y="-212" font-family="Helvetica,sans-Serif" font-size="10.00">_feature</text>
</a>
</g>
</g>
<!-- Node4&#45;&gt;Node6 -->
<g id="edge5" class="edge"><title>Node4&#45;&gt;Node6</title>
<path fill="none" stroke="midnightblue" d="M555.781,-240.467C570.639,-238.313 586.698,-235.986 602.477,-233.699"/>
<polygon fill="midnightblue" stroke="midnightblue" points="603.396,-237.102 612.791,-232.204 602.392,-230.175 603.396,-237.102"/>
</g>
<!-- Node6&#45;&gt;Node5 -->
<g id="edge6" class="edge"><title>Node6&#45;&gt;Node5</title>
<path fill="none" stroke="midnightblue" d="M783.36,-224.693C869.607,-229.49 999.319,-236.705 1060.4,-240.103"/>
<polygon fill="midnightblue" stroke="midnightblue" points="1060.45,-243.611 1070.63,-240.672 1060.84,-236.622 1060.45,-243.611"/>
</g>
<!-- Node7 -->
<g id="node7" class="node"><title>Node7</title>
<g id="a_node7"><a xlink:href="namespacetlz.html#a74e8454f97dace7cffb1afdb6d3ca87b" target="_top" xlink:title="tlz::decode_view_index">
<polygon fill="white" stroke="black" points="819.5,-194.5 819.5,-213.5 938.5,-213.5 938.5,-194.5 819.5,-194.5"/>
<text text-anchor="middle" x="879" y="-201.5" font-family="Helvetica,sans-Serif" font-size="10.00">tlz::decode_view_index</text>
</a>
</g>
</g>
<!-- Node6&#45;&gt;Node7 -->
<g id="edge7" class="edge"><title>Node6&#45;&gt;Node7</title>
<path fill="none" stroke="midnightblue" d="M783.259,-212.469C791.961,-211.691 800.731,-210.907 809.236,-210.147"/>
<polygon fill="midnightblue" stroke="midnightblue" points="809.808,-213.609 819.456,-209.233 809.185,-206.637 809.808,-213.609"/>
</g>
<!-- Node8 -->
<g id="node8" class="node"><title>Node8</title>
<g id="a_node8"><a xlink:href="namespacetlz.html#ae8f9175a86bbe49ac0f4485d5db3080b" target="_top" xlink:title="tlz::decode_feature\l_point">
<polygon fill="white" stroke="black" points="829,-145 829,-175 929,-175 929,-145 829,-145"/>
<text text-anchor="start" x="837" y="-163" font-family="Helvetica,sans-Serif" font-size="10.00">tlz::decode_feature</text>
<text text-anchor="middle" x="879" y="-152" font-family="Helvetica,sans-Serif" font-size="10.00">_point</text>
</a>
</g>
</g>
<!-- Node6&#45;&gt;Node8 -->
<g id="edge8" class="edge"><title>Node6&#45;&gt;Node8</title>
<path fill="none" stroke="midnightblue" d="M744.169,-204.859C768.322,-196.763 798.238,-186.736 823.656,-178.216"/>
<polygon fill="midnightblue" stroke="midnightblue" points="824.786,-181.528 833.156,-175.032 822.562,-174.891 824.786,-181.528"/>
</g>
<!-- Node9 -->
<g id="node9" class="node"><title>Node9</title>
<g id="a_node9"><a xlink:href="namespacetlz.html#add846dc50c32dfb356cb1a7ac11d37ac" target="_top" xlink:title="tlz::get_or">
<polygon fill="white" stroke="black" points="975,-172.5 975,-191.5 1035,-191.5 1035,-172.5 975,-172.5"/>
<text text-anchor="middle" x="1005" y="-179.5" font-family="Helvetica,sans-Serif" font-size="10.00">tlz::get_or</text>
</a>
</g>
</g>
<!-- Node8&#45;&gt;Node9 -->
<g id="edge9" class="edge"><title>Node8&#45;&gt;Node9</title>
<path fill="none" stroke="midnightblue" d="M929.008,-168.695C940.929,-170.81 953.521,-173.044 964.911,-175.065"/>
<polygon fill="midnightblue" stroke="midnightblue" points="964.524,-178.551 974.981,-176.852 965.747,-171.658 964.524,-178.551"/>
</g>
<!-- Node9&#45;&gt;Node5 -->
<g id="edge10" class="edge"><title>Node9&#45;&gt;Node5</title>
<path fill="none" stroke="midnightblue" d="M1020.22,-191.64C1034.15,-201.087 1055.61,-215.635 1071.89,-226.669"/>
<polygon fill="midnightblue" stroke="midnightblue" points="1070.08,-229.669 1080.32,-232.384 1074,-223.875 1070.08,-229.669"/>
</g>
<!-- Node13 -->
<g id="node13" class="node"><title>Node13</title>
<g id="a_node13"><a xlink:href="namespacetlz.html#a0621d598fb83b13bf028f3e6293d04f8" target="_top" xlink:title="tlz::string_arg">
<polygon fill="white" stroke="black" points="451,-76.5 451,-95.5 527,-95.5 527,-76.5 451,-76.5"/>
<text text-anchor="middle" x="489" y="-83.5" font-family="Helvetica,sans-Serif" font-size="10.00">tlz::string_arg</text>
</a>
</g>
</g>
<!-- Node12&#45;&gt;Node13 -->
<g id="edge14" class="edge"><title>Node12&#45;&gt;Node13</title>
<path fill="none" stroke="midnightblue" d="M330.201,-86C363.631,-86 407.449,-86 440.425,-86"/>
<polygon fill="midnightblue" stroke="midnightblue" points="440.724,-89.5001 450.724,-86 440.724,-82.5001 440.724,-89.5001"/>
</g>
<!-- Node14 -->
<g id="node14" class="node"><title>Node14</title>
<g id="a_node14"><a xlink:href="namespacetlz.html#a780431daab8d2595372eacb43143b52d" target="_top" xlink:title="tlz::args">
<polygon fill="white" stroke="black" points="672,-114.5 672,-133.5 724,-133.5 724,-114.5 672,-114.5"/>
<text text-anchor="middle" x="698" y="-121.5" font-family="Helvetica,sans-Serif" font-size="10.00">tlz::args</text>
</a>
</g>
</g>
<!-- Node12&#45;&gt;Node14 -->
<g id="edge20" class="edge"><title>Node12&#45;&gt;Node14</title>
<path fill="none" stroke="midnightblue" d="M330.194,-94.8922C351.877,-98.498 377.634,-102.414 401,-105 495.003,-115.405 606.478,-120.66 661.972,-122.799"/>
<polygon fill="midnightblue" stroke="midnightblue" points="661.86,-126.297 671.984,-123.174 662.122,-119.302 661.86,-126.297"/>
</g>
<!-- Node16 -->
<g id="node16" class="node"><title>Node16</title>
<g id="a_node16"><a xlink:href="classtlz_1_1args__list.html#a38ad21acd64a4af98ffdf4a47837cdbe" target="_top" xlink:title="tlz::args_list::usage_fail">
<polygon fill="white" stroke="black" points="819,-38.5 819,-57.5 939,-57.5 939,-38.5 819,-38.5"/>
<text text-anchor="middle" x="879" y="-45.5" font-family="Helvetica,sans-Serif" font-size="10.00">tlz::args_list::usage_fail</text>
</a>
</g>
</g>
<!-- Node12&#45;&gt;Node16 -->
<g id="edge21" class="edge"><title>Node12&#45;&gt;Node16</title>
<path fill="none" stroke="midnightblue" d="M330.166,-76.8345C351.843,-73.1803 377.605,-69.3025 401,-67 545.49,-52.7799 715.597,-49.1244 808.6,-48.2335"/>
<polygon fill="midnightblue" stroke="midnightblue" points="808.76,-51.7324 818.729,-48.1446 808.698,-44.7326 808.76,-51.7324"/>
</g>
<!-- Node18 -->
<g id="node18" class="node"><title>Node18</title>
<g id="a_node18"><a xlink:href="namespacetlz.html#abb019466ea9f56c0dab27e893d891837" target="_top" xlink:title="tlz::file_exists">
<polygon fill="white" stroke="black" points="450.5,-0.5 450.5,-19.5 527.5,-19.5 527.5,-0.5 450.5,-0.5"/>
<text text-anchor="middle" x="489" y="-7.5" font-family="Helvetica,sans-Serif" font-size="10.00">tlz::file_exists</text>
</a>
</g>
</g>
<!-- Node12&#45;&gt;Node18 -->
<g id="edge19" class="edge"><title>Node12&#45;&gt;Node18</title>
<path fill="none" stroke="midnightblue" d="M300.206,-76.4926C323.796,-65.3476 364.676,-46.779 401,-34 413.72,-29.5249 427.721,-25.3463 440.703,-21.7706"/>
<polygon fill="midnightblue" stroke="midnightblue" points="441.649,-25.1405 450.393,-19.1588 439.827,-18.3817 441.649,-25.1405"/>
</g>
<!-- Node13&#45;&gt;Node14 -->
<g id="edge15" class="edge"><title>Node13&#45;&gt;Node14</title>
<path fill="none" stroke="midnightblue" d="M527.007,-92.7936C565.168,-99.7989 624.241,-110.643 661.746,-117.528"/>
<polygon fill="midnightblue" stroke="midnightblue" points="661.249,-120.995 671.716,-119.359 662.513,-114.11 661.249,-120.995"/>
</g>
<!-- Node15 -->
<g id="node15" class="node"><title>Node15</title>
<g id="a_node15"><a xlink:href="classtlz_1_1args__list.html#a73d99bc75998dc14607a3a372d28dc6d" target="_top" xlink:title="tlz::args_list::next_arg">
<polygon fill="white" stroke="black" points="641.5,-76.5 641.5,-95.5 754.5,-95.5 754.5,-76.5 641.5,-76.5"/>
<text text-anchor="middle" x="698" y="-83.5" font-family="Helvetica,sans-Serif" font-size="10.00">tlz::args_list::next_arg</text>
</a>
</g>
</g>
<!-- Node13&#45;&gt;Node15 -->
<g id="edge16" class="edge"><title>Node13&#45;&gt;Node15</title>
<path fill="none" stroke="midnightblue" d="M527.007,-86C555.778,-86 596.437,-86 630.777,-86"/>
<polygon fill="midnightblue" stroke="midnightblue" points="631.211,-89.5001 641.211,-86 631.211,-82.5001 631.211,-89.5001"/>
</g>
<!-- Node15&#45;&gt;Node16 -->
<g id="edge17" class="edge"><title>Node15&#45;&gt;Node16</title>
<path fill="none" stroke="midnightblue" d="M744.169,-76.411C768.216,-71.3061 797.974,-64.9887 823.319,-59.6082"/>
<polygon fill="midnightblue" stroke="midnightblue" points="824.1,-63.0205 833.156,-57.5201 822.647,-56.1731 824.1,-63.0205"/>
</g>
<!-- Node17 -->
<g id="node17" class="node"><title>Node17</title>
<g id="a_node17"><a xlink:href="namespacetlz.html#a8e4f8c8c2927bc4350de13bfa0f8f9e1" target="_top" xlink:title="tlz::to_string">
<polygon fill="white" stroke="black" points="843.5,-76.5 843.5,-95.5 914.5,-95.5 914.5,-76.5 843.5,-76.5"/>
<text text-anchor="middle" x="879" y="-83.5" font-family="Helvetica,sans-Serif" font-size="10.00">tlz::to_string</text>
</a>
</g>
</g>
<!-- Node15&#45;&gt;Node17 -->
<g id="edge18" class="edge"><title>Node15&#45;&gt;Node17</title>
<path fill="none" stroke="midnightblue" d="M754.656,-86C779.955,-86 809.487,-86 833.31,-86"/>
<polygon fill="midnightblue" stroke="midnightblue" points="833.479,-89.5001 843.479,-86 833.479,-82.5001 833.479,-89.5001"/>
</g>
</g>
</svg>
