<?xml version="1.0" encoding="UTF-8" standalone="no"?>
<!DOCTYPE svg PUBLIC "-//W3C//DTD SVG 1.1//EN"
 "http://www.w3.org/Graphics/SVG/1.1/DTD/svg11.dtd">
<!-- Generated by graphviz version 2.38.0 (20140413.2041)
 -->
<!-- Title: tlz::decode_feature_points Pages: 1 -->
<svg width="444pt" height="133pt"
 viewBox="0.00 0.00 444.00 132.87" xmlns="http://www.w3.org/2000/svg" xmlns:xlink="http://www.w3.org/1999/xlink">
<g id="graph0" class="graph" transform="scale(1 1) rotate(0) translate(4 128.865)">
<title>tlz::decode_feature_points</title>
<polygon fill="white" stroke="none" points="-4,4 -4,-128.865 440,-128.865 440,4 -4,4"/>
<!-- Node1 -->
<g id="node1" class="node"><title>Node1</title>
<polygon fill="#bfbfbf" stroke="black" points="0,-63.5 0,-93.5 100,-93.5 100,-63.5 0,-63.5"/>
<text text-anchor="start" x="8" y="-81.5" font-family="Helvetica,sans-Serif" font-size="10.00">tlz::decode_feature</text>
<text text-anchor="middle" x="50" y="-70.5" font-family="Helvetica,sans-Serif" font-size="10.00">_points</text>
</g>
<!-- Node2 -->
<g id="node2" class="node"><title>Node2</title>
<g id="a_node2"><a xlink:href="namespacetlz.html#a252af14b9b4ac6502d3e9c5dd8dc90b8" target="_top" xlink:title="tlz::has">
<polygon fill="white" stroke="black" points="387,-88 387,-107 436,-107 436,-88 387,-88"/>
<text text-anchor="middle" x="411.5" y="-95" font-family="Helvetica,sans-Serif" font-size="10.00">tlz::has</text>
</a>
</g>
</g>
<!-- Node1&#45;&gt;Node2 -->
<g id="edge1" class="edge"><title>Node1&#45;&gt;Node2</title>
<path fill="none" stroke="midnightblue" d="M77.1936,-93.6718C93.5182,-102.235 115.291,-112.082 136,-116.5 221.23,-134.684 324.386,-117.303 376.637,-105.811"/>
<polygon fill="midnightblue" stroke="midnightblue" points="377.709,-109.156 386.689,-103.533 376.162,-102.33 377.709,-109.156"/>
</g>
<!-- Node3 -->
<g id="node3" class="node"><title>Node3</title>
<g id="a_node3"><a xlink:href="namespacetlz.html#a74e8454f97dace7cffb1afdb6d3ca87b" target="_top" xlink:title="tlz::decode_view_index">
<polygon fill="white" stroke="black" points="136,-88 136,-107 255,-107 255,-88 136,-88"/>
<text text-anchor="middle" x="195.5" y="-95" font-family="Helvetica,sans-Serif" font-size="10.00">tlz::decode_view_index</text>
</a>
</g>
</g>
<!-- Node1&#45;&gt;Node3 -->
<g id="edge2" class="edge"><title>Node1&#45;&gt;Node3</title>
<path fill="none" stroke="midnightblue" d="M100.385,-85.0387C108.601,-86.1266 117.252,-87.272 125.844,-88.4096"/>
<polygon fill="midnightblue" stroke="midnightblue" points="125.5,-91.8945 135.873,-89.7375 126.419,-84.9551 125.5,-91.8945"/>
</g>
<!-- Node4 -->
<g id="node4" class="node"><title>Node4</title>
<g id="a_node4"><a xlink:href="namespacetlz.html#add846dc50c32dfb356cb1a7ac11d37ac" target="_top" xlink:title="tlz::get_or">
<polygon fill="white" stroke="black" points="291,-50 291,-69 351,-69 351,-50 291,-50"/>
<text text-anchor="middle" x="321" y="-57" font-family="Helvetica,sans-Serif" font-size="10.00">tlz::get_or</text>
</a>
</g>
</g>
<!-- Node1&#45;&gt;Node4 -->
<g id="edge3" class="edge"><title>Node1&#45;&gt;Node4</title>
<path fill="none" stroke="midnightblue" d="M100.026,-75.0372C151.872,-71.3752 232.65,-65.6697 280.545,-62.2868"/>
<polygon fill="midnightblue" stroke="midnightblue" points="281.092,-65.757 290.821,-61.561 280.599,-58.7744 281.092,-65.757"/>
</g>
<!-- Node5 -->
<g id="node5" class="node"><title>Node5</title>
<g id="a_node5"><a xlink:href="namespacetlz.html#ae8f9175a86bbe49ac0f4485d5db3080b" target="_top" xlink:title="tlz::decode_feature\l_point">
<polygon fill="white" stroke="black" points="145.5,-0.5 145.5,-30.5 245.5,-30.5 245.5,-0.5 145.5,-0.5"/>
<text text-anchor="start" x="153.5" y="-18.5" font-family="Helvetica,sans-Serif" font-size="10.00">tlz::decode_feature</text>
<text text-anchor="middle" x="195.5" y="-7.5" font-family="Helvetica,sans-Serif" font-size="10.00">_point</text>
</a>
</g>
</g>
<!-- Node1&#45;&gt;Node5 -->
<g id="edge5" class="edge"><title>Node1&#45;&gt;Node5</title>
<path fill="none" stroke="midnightblue" d="M85.3718,-63.4099C104.93,-54.8235 129.628,-43.9802 150.58,-34.7818"/>
<polygon fill="midnightblue" stroke="midnightblue" points="152.162,-37.91 159.911,-30.6853 149.348,-31.5005 152.162,-37.91"/>
</g>
<!-- Node4&#45;&gt;Node2 -->
<g id="edge4" class="edge"><title>Node4&#45;&gt;Node2</title>
<path fill="none" stroke="midnightblue" d="M344.332,-69.089C354.813,-73.5894 367.49,-79.0322 378.93,-83.9447"/>
<polygon fill="midnightblue" stroke="midnightblue" points="377.605,-87.1846 388.175,-87.9141 380.367,-80.7525 377.605,-87.1846"/>
</g>
<!-- Node5&#45;&gt;Node4 -->
<g id="edge6" class="edge"><title>Node5&#45;&gt;Node4</title>
<path fill="none" stroke="midnightblue" d="M238.656,-30.5192C253.163,-35.6878 269.28,-41.4298 283.316,-46.4303"/>
<polygon fill="midnightblue" stroke="midnightblue" points="282.521,-49.8625 293.115,-49.9217 284.87,-43.2685 282.521,-49.8625"/>
</g>
</g>
</svg>
