<?xml version="1.0" encoding="UTF-8" standalone="no"?>
<!DOCTYPE svg PUBLIC "-//W3C//DTD SVG 1.1//EN"
 "http://www.w3.org/Graphics/SVG/1.1/DTD/svg11.dtd">
<!-- Generated by graphviz version 2.38.0 (20140413.2041)
 -->
<!-- Title: tlz::decode_kinect_reprojection_parameters Pages: 1 -->
<svg width="486pt" height="117pt"
 viewBox="0.00 0.00 486.00 117.33" xmlns="http://www.w3.org/2000/svg" xmlns:xlink="http://www.w3.org/1999/xlink">
<g id="graph0" class="graph" transform="scale(1 1) rotate(0) translate(4 113.328)">
<title>tlz::decode_kinect_reprojection_parameters</title>
<polygon fill="white" stroke="none" points="-4,4 -4,-113.328 482,-113.328 482,4 -4,4"/>
<!-- Node1 -->
<g id="node1" class="node"><title>Node1</title>
<polygon fill="#bfbfbf" stroke="black" points="0,-46.3278 0,-76.3278 126,-76.3278 126,-46.3278 0,-46.3278"/>
<text text-anchor="start" x="8" y="-64.3278" font-family="Helvetica,sans-Serif" font-size="10.00">tlz::decode_kinect</text>
<text text-anchor="middle" x="63" y="-53.3278" font-family="Helvetica,sans-Serif" font-size="10.00">_reprojection_parameters</text>
</g>
<!-- Node2 -->
<g id="node2" class="node"><title>Node2</title>
<g id="a_node2"><a xlink:href="namespacetlz.html#a8cba4853d0d796a01c72f59f36f2a492" target="_top" xlink:title="tlz::decode_intrinsics">
<polygon fill="white" stroke="black" points="162,-51.8278 162,-70.8278 271,-70.8278 271,-51.8278 162,-51.8278"/>
<text text-anchor="middle" x="216.5" y="-58.8278" font-family="Helvetica,sans-Serif" font-size="10.00">tlz::decode_intrinsics</text>
</a>
</g>
</g>
<!-- Node1&#45;&gt;Node2 -->
<g id="edge1" class="edge"><title>Node1&#45;&gt;Node2</title>
<path fill="none" stroke="midnightblue" d="M126.058,-61.3278C134.424,-61.3278 143.02,-61.3278 151.42,-61.3278"/>
<polygon fill="midnightblue" stroke="midnightblue" points="151.54,-64.8279 161.54,-61.3278 151.54,-57.8279 151.54,-64.8279"/>
</g>
<!-- Node3 -->
<g id="node3" class="node"><title>Node3</title>
<g id="a_node3"><a xlink:href="namespacetlz.html#a066563a26e2de02f215b179f3d3a53da" target="_top" xlink:title="tlz::decode_mat">
<polygon fill="white" stroke="black" points="307,-89.8278 307,-108.828 393,-108.828 393,-89.8278 307,-89.8278"/>
<text text-anchor="middle" x="350" y="-96.8278" font-family="Helvetica,sans-Serif" font-size="10.00">tlz::decode_mat</text>
</a>
</g>
</g>
<!-- Node1&#45;&gt;Node3 -->
<g id="edge6" class="edge"><title>Node1&#45;&gt;Node3</title>
<path fill="none" stroke="midnightblue" d="M126.067,-74.2372C137.962,-76.4626 150.341,-78.6089 162,-80.3278 207.296,-87.006 259.114,-92.0713 296.698,-95.2856"/>
<polygon fill="midnightblue" stroke="midnightblue" points="296.646,-98.7934 306.904,-96.1429 297.232,-91.818 296.646,-98.7934"/>
</g>
<!-- Node4 -->
<g id="node4" class="node"><title>Node4</title>
<g id="a_node4"><a xlink:href="namespacetlz.html#a252af14b9b4ac6502d3e9c5dd8dc90b8" target="_top" xlink:title="tlz::has">
<polygon fill="white" stroke="black" points="429,-13.8278 429,-32.8278 478,-32.8278 478,-13.8278 429,-13.8278"/>
<text text-anchor="middle" x="453.5" y="-20.8278" font-family="Helvetica,sans-Serif" font-size="10.00">tlz::has</text>
</a>
</g>
</g>
<!-- Node1&#45;&gt;Node4 -->
<g id="edge7" class="edge"><title>Node1&#45;&gt;Node4</title>
<path fill="none" stroke="midnightblue" d="M102.926,-46.2625C164.428,-24.3398 287.895,12.0464 393,-4.32779 401.702,-5.6835 410.872,-8.09141 419.336,-10.7474"/>
<polygon fill="midnightblue" stroke="midnightblue" points="418.284,-14.0862 428.878,-13.9311 420.5,-7.44603 418.284,-14.0862"/>
</g>
<!-- Node2&#45;&gt;Node3 -->
<g id="edge2" class="edge"><title>Node2&#45;&gt;Node3</title>
<path fill="none" stroke="midnightblue" d="M250.683,-70.9168C267.503,-75.7772 288.126,-81.7369 306.134,-86.9405"/>
<polygon fill="midnightblue" stroke="midnightblue" points="305.249,-90.3281 315.828,-89.7419 307.192,-83.6032 305.249,-90.3281"/>
</g>
<!-- Node2&#45;&gt;Node4 -->
<g id="edge3" class="edge"><title>Node2&#45;&gt;Node4</title>
<path fill="none" stroke="midnightblue" d="M271.32,-58.3157C306.276,-55.6702 352.673,-50.8587 393,-42.3278 401.616,-40.5051 410.755,-37.9265 419.216,-35.2551"/>
<polygon fill="midnightblue" stroke="midnightblue" points="420.359,-38.5636 428.766,-32.1162 418.173,-31.9136 420.359,-38.5636"/>
</g>
<!-- Node5 -->
<g id="node5" class="node"><title>Node5</title>
<g id="a_node5"><a xlink:href="namespacetlz.html#add846dc50c32dfb356cb1a7ac11d37ac" target="_top" xlink:title="tlz::get_or">
<polygon fill="white" stroke="black" points="320,-13.8278 320,-32.8278 380,-32.8278 380,-13.8278 320,-13.8278"/>
<text text-anchor="middle" x="350" y="-20.8278" font-family="Helvetica,sans-Serif" font-size="10.00">tlz::get_or</text>
</a>
</g>
</g>
<!-- Node2&#45;&gt;Node5 -->
<g id="edge4" class="edge"><title>Node2&#45;&gt;Node5</title>
<path fill="none" stroke="midnightblue" d="M250.683,-51.7388C268.741,-46.5204 291.185,-40.0349 310.067,-34.5784"/>
<polygon fill="midnightblue" stroke="midnightblue" points="311.221,-37.8881 319.857,-31.7494 309.278,-31.1632 311.221,-37.8881"/>
</g>
<!-- Node5&#45;&gt;Node4 -->
<g id="edge5" class="edge"><title>Node5&#45;&gt;Node4</title>
<path fill="none" stroke="midnightblue" d="M380.086,-23.3278C392.168,-23.3278 406.267,-23.3278 418.797,-23.3278"/>
<polygon fill="midnightblue" stroke="midnightblue" points="418.875,-26.8279 428.875,-23.3278 418.875,-19.8279 418.875,-26.8279"/>
</g>
</g>
</svg>
