<?xml version="1.0" encoding="UTF-8" standalone="no"?>
<!DOCTYPE svg PUBLIC "-//W3C//DTD SVG 1.1//EN"
 "http://www.w3.org/Graphics/SVG/1.1/DTD/svg11.dtd">
<!-- Generated by graphviz version 2.38.0 (20140413.2041)
 -->
<!-- Title: tlz::string_arg Pages: 1 -->
<svg width="389pt" height="85pt"
 viewBox="0.00 0.00 389.00 85.00" xmlns="http://www.w3.org/2000/svg" xmlns:xlink="http://www.w3.org/1999/xlink">
<g id="graph0" class="graph" transform="scale(1 1) rotate(0) translate(4 81)">
<title>tlz::string_arg</title>
<polygon fill="white" stroke="none" points="-4,4 -4,-81 385,-81 385,4 -4,4"/>
<!-- Node1 -->
<g id="node1" class="node"><title>Node1</title>
<polygon fill="#bfbfbf" stroke="black" points="0,-38.5 0,-57.5 76,-57.5 76,-38.5 0,-38.5"/>
<text text-anchor="middle" x="38" y="-45.5" font-family="Helvetica,sans-Serif" font-size="10.00">tlz::string_arg</text>
</g>
<!-- Node2 -->
<g id="node2" class="node"><title>Node2</title>
<g id="a_node2"><a xlink:href="namespacetlz.html#a780431daab8d2595372eacb43143b52d" target="_top" xlink:title="tlz::args">
<polygon fill="white" stroke="black" points="142.5,-57.5 142.5,-76.5 194.5,-76.5 194.5,-57.5 142.5,-57.5"/>
<text text-anchor="middle" x="168.5" y="-64.5" font-family="Helvetica,sans-Serif" font-size="10.00">tlz::args</text>
</a>
</g>
</g>
<!-- Node1&#45;&gt;Node2 -->
<g id="edge1" class="edge"><title>Node1&#45;&gt;Node2</title>
<path fill="none" stroke="midnightblue" d="M76.1675,-53.4956C93.7231,-56.0913 114.581,-59.1753 131.928,-61.7404"/>
<polygon fill="midnightblue" stroke="midnightblue" points="131.811,-65.261 142.216,-63.2614 132.835,-58.3363 131.811,-65.261"/>
</g>
<!-- Node3 -->
<g id="node3" class="node"><title>Node3</title>
<g id="a_node3"><a xlink:href="classtlz_1_1args__list.html#a73d99bc75998dc14607a3a372d28dc6d" target="_top" xlink:title="tlz::args_list::next_arg">
<polygon fill="white" stroke="black" points="112,-19.5 112,-38.5 225,-38.5 225,-19.5 112,-19.5"/>
<text text-anchor="middle" x="168.5" y="-26.5" font-family="Helvetica,sans-Serif" font-size="10.00">tlz::args_list::next_arg</text>
</a>
</g>
</g>
<!-- Node1&#45;&gt;Node3 -->
<g id="edge2" class="edge"><title>Node1&#45;&gt;Node3</title>
<path fill="none" stroke="midnightblue" d="M76.1675,-42.5044C84.2458,-41.31 93.0232,-40.0121 101.836,-38.7091"/>
<polygon fill="midnightblue" stroke="midnightblue" points="102.385,-42.166 111.766,-37.2409 101.361,-35.2413 102.385,-42.166"/>
</g>
<!-- Node4 -->
<g id="node4" class="node"><title>Node4</title>
<g id="a_node4"><a xlink:href="classtlz_1_1args__list.html#a38ad21acd64a4af98ffdf4a47837cdbe" target="_top" xlink:title="tlz::args_list::usage_fail">
<polygon fill="white" stroke="black" points="261,-38.5 261,-57.5 381,-57.5 381,-38.5 261,-38.5"/>
<text text-anchor="middle" x="321" y="-45.5" font-family="Helvetica,sans-Serif" font-size="10.00">tlz::args_list::usage_fail</text>
</a>
</g>
</g>
<!-- Node3&#45;&gt;Node4 -->
<g id="edge3" class="edge"><title>Node3&#45;&gt;Node4</title>
<path fill="none" stroke="midnightblue" d="M225.113,-36.0209C233.479,-37.077 242.192,-38.1771 250.8,-39.2638"/>
<polygon fill="midnightblue" stroke="midnightblue" points="250.468,-42.7496 260.828,-40.5298 251.345,-35.8048 250.468,-42.7496"/>
</g>
<!-- Node5 -->
<g id="node5" class="node"><title>Node5</title>
<g id="a_node5"><a xlink:href="namespacetlz.html#a8e4f8c8c2927bc4350de13bfa0f8f9e1" target="_top" xlink:title="tlz::to_string">
<polygon fill="white" stroke="black" points="285.5,-0.5 285.5,-19.5 356.5,-19.5 356.5,-0.5 285.5,-0.5"/>
<text text-anchor="middle" x="321" y="-7.5" font-family="Helvetica,sans-Serif" font-size="10.00">tlz::to_string</text>
</a>
</g>
</g>
<!-- Node3&#45;&gt;Node5 -->
<g id="edge4" class="edge"><title>Node3&#45;&gt;Node5</title>
<path fill="none" stroke="midnightblue" d="M225.113,-21.9791C241.598,-19.8979 259.435,-17.6461 275.147,-15.6625"/>
<polygon fill="midnightblue" stroke="midnightblue" points="275.647,-19.1273 285.13,-14.4023 274.77,-12.1824 275.647,-19.1273"/>
</g>
</g>
</svg>
