<?xml version="1.0" encoding="UTF-8" standalone="no"?>
<!DOCTYPE svg PUBLIC "-//W3C//DTD SVG 1.1//EN"
 "http://www.w3.org/Graphics/SVG/1.1/DTD/svg11.dtd">
<!-- Generated by graphviz version 2.38.0 (20140413.2041)
 -->
<!-- Title: tlz::detect_color_checkerboard Pages: 1 -->
<svg width="292pt" height="39pt"
 viewBox="0.00 0.00 292.00 39.00" xmlns="http://www.w3.org/2000/svg" xmlns:xlink="http://www.w3.org/1999/xlink">
<g id="graph0" class="graph" transform="scale(1 1) rotate(0) translate(4 35)">
<title>tlz::detect_color_checkerboard</title>
<polygon fill="white" stroke="none" points="-4,4 -4,-35 288,-35 288,4 -4,4"/>
<!-- Node1 -->
<g id="node1" class="node"><title>Node1</title>
<polygon fill="#bfbfbf" stroke="black" points="-2.84217e-14,-6 -2.84217e-14,-25 150,-25 150,-6 -2.84217e-14,-6"/>
<text text-anchor="middle" x="75" y="-13" font-family="Helvetica,sans-Serif" font-size="10.00">tlz::detect_color_checkerboard</text>
</g>
<!-- Node2 -->
<g id="node2" class="node"><title>Node2</title>
<g id="a_node2"><a xlink:href="structtlz_1_1checkerboard.html#a44b150a25091e74cfaec42635d392369" target="_top" xlink:title="tlz::checkerboard::\lcheckerboard">
<polygon fill="white" stroke="black" points="186,-0.5 186,-30.5 284,-30.5 284,-0.5 186,-0.5"/>
<text text-anchor="start" x="194" y="-18.5" font-family="Helvetica,sans-Serif" font-size="10.00">tlz::checkerboard::</text>
<text text-anchor="middle" x="235" y="-7.5" font-family="Helvetica,sans-Serif" font-size="10.00">checkerboard</text>
</a>
</g>
</g>
<!-- Node1&#45;&gt;Node2 -->
<g id="edge1" class="edge"><title>Node1&#45;&gt;Node2</title>
<path fill="none" stroke="midnightblue" d="M150.373,-15.5C158.815,-15.5 167.328,-15.5 175.523,-15.5"/>
<polygon fill="midnightblue" stroke="midnightblue" points="175.706,-19.0001 185.706,-15.5 175.706,-12.0001 175.706,-19.0001"/>
</g>
</g>
</svg>
