<?xml version="1.0" encoding="UTF-8" standalone="no"?>
<!DOCTYPE svg PUBLIC "-//W3C//DTD SVG 1.1//EN"
 "http://www.w3.org/Graphics/SVG/1.1/DTD/svg11.dtd">
<!-- Generated by graphviz version 2.38.0 (20140413.2041)
 -->
<!-- Title: tlz::int_arg Pages: 1 -->
<svg width="375pt" height="104pt"
 viewBox="0.00 0.00 375.00 104.00" xmlns="http://www.w3.org/2000/svg" xmlns:xlink="http://www.w3.org/1999/xlink">
<g id="graph0" class="graph" transform="scale(1 1) rotate(0) translate(4 100)">
<title>tlz::int_arg</title>
<polygon fill="white" stroke="none" points="-4,4 -4,-100 371,-100 371,4 -4,4"/>
<!-- Node1 -->
<g id="node1" class="node"><title>Node1</title>
<polygon fill="#bfbfbf" stroke="black" points="0,-38.5 0,-57.5 62,-57.5 62,-38.5 0,-38.5"/>
<text text-anchor="middle" x="31" y="-45.5" font-family="Helvetica,sans-Serif" font-size="10.00">tlz::int_arg</text>
</g>
<!-- Node2 -->
<g id="node2" class="node"><title>Node2</title>
<g id="a_node2"><a xlink:href="namespacetlz.html#a780431daab8d2595372eacb43143b52d" target="_top" xlink:title="tlz::args">
<polygon fill="white" stroke="black" points="128.5,-76.5 128.5,-95.5 180.5,-95.5 180.5,-76.5 128.5,-76.5"/>
<text text-anchor="middle" x="154.5" y="-83.5" font-family="Helvetica,sans-Serif" font-size="10.00">tlz::args</text>
</a>
</g>
</g>
<!-- Node1&#45;&gt;Node2 -->
<g id="edge1" class="edge"><title>Node1&#45;&gt;Node2</title>
<path fill="none" stroke="midnightblue" d="M62.0337,-57.3933C79.149,-62.7462 100.678,-69.4796 118.549,-75.0689"/>
<polygon fill="midnightblue" stroke="midnightblue" points="117.729,-78.4796 128.318,-78.1242 119.819,-71.7987 117.729,-78.4796"/>
</g>
<!-- Node3 -->
<g id="node3" class="node"><title>Node3</title>
<g id="a_node3"><a xlink:href="classtlz_1_1args__list.html#a73d99bc75998dc14607a3a372d28dc6d" target="_top" xlink:title="tlz::args_list::next_arg">
<polygon fill="white" stroke="black" points="98,-0.5 98,-19.5 211,-19.5 211,-0.5 98,-0.5"/>
<text text-anchor="middle" x="154.5" y="-7.5" font-family="Helvetica,sans-Serif" font-size="10.00">tlz::args_list::next_arg</text>
</a>
</g>
</g>
<!-- Node1&#45;&gt;Node3 -->
<g id="edge2" class="edge"><title>Node1&#45;&gt;Node3</title>
<path fill="none" stroke="midnightblue" d="M62.0337,-38.6067C77.3971,-33.8017 96.3172,-27.8843 112.955,-22.6806"/>
<polygon fill="midnightblue" stroke="midnightblue" points="114.469,-25.8746 122.968,-19.5491 112.379,-19.1938 114.469,-25.8746"/>
</g>
<!-- Node4 -->
<g id="node4" class="node"><title>Node4</title>
<g id="a_node4"><a xlink:href="classtlz_1_1args__list.html#a38ad21acd64a4af98ffdf4a47837cdbe" target="_top" xlink:title="tlz::args_list::usage_fail">
<polygon fill="white" stroke="black" points="247,-38.5 247,-57.5 367,-57.5 367,-38.5 247,-38.5"/>
<text text-anchor="middle" x="307" y="-45.5" font-family="Helvetica,sans-Serif" font-size="10.00">tlz::args_list::usage_fail</text>
</a>
</g>
</g>
<!-- Node1&#45;&gt;Node4 -->
<g id="edge5" class="edge"><title>Node1&#45;&gt;Node4</title>
<path fill="none" stroke="midnightblue" d="M62.1066,-48C103.79,-48 180.296,-48 236.543,-48"/>
<polygon fill="midnightblue" stroke="midnightblue" points="236.797,-51.5001 246.797,-48 236.797,-44.5001 236.797,-51.5001"/>
</g>
<!-- Node3&#45;&gt;Node4 -->
<g id="edge3" class="edge"><title>Node3&#45;&gt;Node4</title>
<path fill="none" stroke="midnightblue" d="M193.478,-19.589C213.159,-24.5583 237.391,-30.6767 258.321,-35.9613"/>
<polygon fill="midnightblue" stroke="midnightblue" points="257.743,-39.4253 268.296,-38.4799 259.457,-32.6383 257.743,-39.4253"/>
</g>
<!-- Node5 -->
<g id="node5" class="node"><title>Node5</title>
<g id="a_node5"><a xlink:href="namespacetlz.html#a8e4f8c8c2927bc4350de13bfa0f8f9e1" target="_top" xlink:title="tlz::to_string">
<polygon fill="white" stroke="black" points="271.5,-0.5 271.5,-19.5 342.5,-19.5 342.5,-0.5 271.5,-0.5"/>
<text text-anchor="middle" x="307" y="-7.5" font-family="Helvetica,sans-Serif" font-size="10.00">tlz::to_string</text>
</a>
</g>
</g>
<!-- Node3&#45;&gt;Node5 -->
<g id="edge4" class="edge"><title>Node3&#45;&gt;Node5</title>
<path fill="none" stroke="midnightblue" d="M211.113,-10C227.441,-10 245.096,-10 260.698,-10"/>
<polygon fill="midnightblue" stroke="midnightblue" points="261.13,-13.5001 271.13,-10 261.129,-6.5001 261.13,-13.5001"/>
</g>
</g>
</svg>
