<?xml version="1.0" encoding="UTF-8" standalone="no"?>
<!DOCTYPE svg PUBLIC "-//W3C//DTD SVG 1.1//EN"
 "http://www.w3.org/Graphics/SVG/1.1/DTD/svg11.dtd">
<!-- Generated by graphviz version 2.38.0 (20140413.2041)
 -->
<!-- Title: tlz::visualize_feature_points Pages: 1 -->
<svg width="243pt" height="104pt"
 viewBox="0.00 0.00 243.00 104.00" xmlns="http://www.w3.org/2000/svg" xmlns:xlink="http://www.w3.org/1999/xlink">
<g id="graph0" class="graph" transform="scale(1 1) rotate(0) translate(4 100)">
<title>tlz::visualize_feature_points</title>
<polygon fill="white" stroke="none" points="-4,4 -4,-100 239,-100 239,4 -4,4"/>
<!-- Node1 -->
<g id="node1" class="node"><title>Node1</title>
<polygon fill="#bfbfbf" stroke="black" points="0,-33 0,-63 107,-63 107,-33 0,-33"/>
<text text-anchor="start" x="8" y="-51" font-family="Helvetica,sans-Serif" font-size="10.00">tlz::visualize_feature</text>
<text text-anchor="middle" x="53.5" y="-40" font-family="Helvetica,sans-Serif" font-size="10.00">_points</text>
</g>
<!-- Node2 -->
<g id="node2" class="node"><title>Node2</title>
<g id="a_node2"><a xlink:href="namespacetlz.html#ac822758bd15e79a45a9529097026c9bc" target="_top" xlink:title="tlz::random_color">
<polygon fill="white" stroke="black" points="143,-76.5 143,-95.5 235,-95.5 235,-76.5 143,-76.5"/>
<text text-anchor="middle" x="189" y="-83.5" font-family="Helvetica,sans-Serif" font-size="10.00">tlz::random_color</text>
</a>
</g>
</g>
<!-- Node1&#45;&gt;Node2 -->
<g id="edge1" class="edge"><title>Node1&#45;&gt;Node2</title>
<path fill="none" stroke="midnightblue" d="M107.263,-63.0186C119.675,-66.5518 132.764,-70.2773 144.705,-73.6763"/>
<polygon fill="midnightblue" stroke="midnightblue" points="143.849,-77.0717 154.425,-76.4432 145.766,-70.3391 143.849,-77.0717"/>
</g>
<!-- Node3 -->
<g id="node3" class="node"><title>Node3</title>
<g id="a_node3"><a xlink:href="namespacetlz.html#ae5932564ec9a5798fa5dbfdd1ed411a1" target="_top" xlink:title="tlz::string_hash">
<polygon fill="white" stroke="black" points="147.5,-38.5 147.5,-57.5 230.5,-57.5 230.5,-38.5 147.5,-38.5"/>
<text text-anchor="middle" x="189" y="-45.5" font-family="Helvetica,sans-Serif" font-size="10.00">tlz::string_hash</text>
</a>
</g>
</g>
<!-- Node1&#45;&gt;Node3 -->
<g id="edge2" class="edge"><title>Node1&#45;&gt;Node3</title>
<path fill="none" stroke="midnightblue" d="M107.263,-48C117.004,-48 127.161,-48 136.853,-48"/>
<polygon fill="midnightblue" stroke="midnightblue" points="137.146,-51.5001 147.146,-48 137.146,-44.5001 137.146,-51.5001"/>
</g>
<!-- Node4 -->
<g id="node4" class="node"><title>Node4</title>
<g id="a_node4"><a xlink:href="namespacetlz.html#a6c23bd1f5f2f91d3c3af2c32bfe32065" target="_top" xlink:title="tlz::cv_aa_circle">
<polygon fill="white" stroke="black" points="145,-0.5 145,-19.5 233,-19.5 233,-0.5 145,-0.5"/>
<text text-anchor="middle" x="189" y="-7.5" font-family="Helvetica,sans-Serif" font-size="10.00">tlz::cv_aa_circle</text>
</a>
</g>
</g>
<!-- Node1&#45;&gt;Node4 -->
<g id="edge3" class="edge"><title>Node1&#45;&gt;Node4</title>
<path fill="none" stroke="midnightblue" d="M107.263,-32.9814C119.675,-29.4482 132.764,-25.7227 144.705,-22.3237"/>
<polygon fill="midnightblue" stroke="midnightblue" points="145.766,-25.6609 154.425,-19.5568 143.849,-18.9283 145.766,-25.6609"/>
</g>
</g>
</svg>
