<?xml version="1.0" encoding="UTF-8" standalone="no"?>
<!DOCTYPE svg PUBLIC "-//W3C//DTD SVG 1.1//EN"
 "http://www.w3.org/Graphics/SVG/1.1/DTD/svg11.dtd">
<!-- Generated by graphviz version 2.38.0 (20140413.2041)
 -->
<!-- Title: tlz::encode_image_correspondences Pages: 1 -->
<svg width="692pt" height="97pt"
 viewBox="0.00 0.00 692.00 96.50" xmlns="http://www.w3.org/2000/svg" xmlns:xlink="http://www.w3.org/1999/xlink">
<g id="graph0" class="graph" transform="scale(1 1) rotate(0) translate(4 92.5)">
<title>tlz::encode_image_correspondences</title>
<polygon fill="white" stroke="none" points="-4,4 -4,-92.5 688,-92.5 688,4 -4,4"/>
<!-- Node1 -->
<g id="node1" class="node"><title>Node1</title>
<polygon fill="#bfbfbf" stroke="black" points="0,-28 0,-47 176,-47 176,-28 0,-28"/>
<text text-anchor="middle" x="88" y="-35" font-family="Helvetica,sans-Serif" font-size="10.00">tlz::encode_image_correspondences</text>
</g>
<!-- Node2 -->
<g id="node2" class="node"><title>Node2</title>
<g id="a_node2"><a xlink:href="namespacetlz.html#aa875dcb2a47f0a406887a14c6f515bfd" target="_top" xlink:title="tlz::encode_image_correspondence\l_feature">
<polygon fill="white" stroke="black" points="212,-22.5 212,-52.5 382,-52.5 382,-22.5 212,-22.5"/>
<text text-anchor="start" x="220" y="-40.5" font-family="Helvetica,sans-Serif" font-size="10.00">tlz::encode_image_correspondence</text>
<text text-anchor="middle" x="297" y="-29.5" font-family="Helvetica,sans-Serif" font-size="10.00">_feature</text>
</a>
</g>
</g>
<!-- Node1&#45;&gt;Node2 -->
<g id="edge1" class="edge"><title>Node1&#45;&gt;Node2</title>
<path fill="none" stroke="midnightblue" d="M176.187,-37.5C184.592,-37.5 193.144,-37.5 201.614,-37.5"/>
<polygon fill="midnightblue" stroke="midnightblue" points="201.89,-41.0001 211.89,-37.5 201.89,-34.0001 201.89,-41.0001"/>
</g>
<!-- Node3 -->
<g id="node3" class="node"><title>Node3</title>
<g id="a_node3"><a xlink:href="namespacetlz.html#aadab29bdc80bc1d0ad6d3784dd427992" target="_top" xlink:title="tlz::encode_view_index">
<polygon fill="white" stroke="black" points="418,-50 418,-69 537,-69 537,-50 418,-50"/>
<text text-anchor="middle" x="477.5" y="-57" font-family="Helvetica,sans-Serif" font-size="10.00">tlz::encode_view_index</text>
</a>
</g>
</g>
<!-- Node2&#45;&gt;Node3 -->
<g id="edge2" class="edge"><title>Node2&#45;&gt;Node3</title>
<path fill="none" stroke="midnightblue" d="M382.023,-47.8558C390.638,-48.9175 399.317,-49.9873 407.739,-51.0253"/>
<polygon fill="midnightblue" stroke="midnightblue" points="407.51,-54.5234 417.863,-52.2731 408.366,-47.576 407.51,-54.5234"/>
</g>
<!-- Node6 -->
<g id="node6" class="node"><title>Node6</title>
<g id="a_node6"><a xlink:href="namespacetlz.html#a8f6c31dc4b1dffe7950bcb1f4ff85cbc" target="_top" xlink:title="tlz::encode_feature\l_point">
<polygon fill="white" stroke="black" points="427.5,-0.5 427.5,-30.5 527.5,-30.5 527.5,-0.5 427.5,-0.5"/>
<text text-anchor="start" x="435.5" y="-18.5" font-family="Helvetica,sans-Serif" font-size="10.00">tlz::encode_feature</text>
<text text-anchor="middle" x="477.5" y="-7.5" font-family="Helvetica,sans-Serif" font-size="10.00">_point</text>
</a>
</g>
</g>
<!-- Node2&#45;&gt;Node6 -->
<g id="edge5" class="edge"><title>Node2&#45;&gt;Node6</title>
<path fill="none" stroke="midnightblue" d="M382.023,-27.1442C393.931,-25.6766 405.963,-24.1936 417.268,-22.8003"/>
<polygon fill="midnightblue" stroke="midnightblue" points="417.925,-26.2459 427.422,-21.5489 417.068,-19.2985 417.925,-26.2459"/>
</g>
<!-- Node4 -->
<g id="node4" class="node"><title>Node4</title>
<g id="a_node4"><a xlink:href="namespacetlz.html#a8e4f8c8c2927bc4350de13bfa0f8f9e1" target="_top" xlink:title="tlz::to_string">
<polygon fill="white" stroke="black" points="593,-69 593,-88 664,-88 664,-69 593,-69"/>
<text text-anchor="middle" x="628.5" y="-76" font-family="Helvetica,sans-Serif" font-size="10.00">tlz::to_string</text>
</a>
</g>
</g>
<!-- Node3&#45;&gt;Node4 -->
<g id="edge3" class="edge"><title>Node3&#45;&gt;Node4</title>
<path fill="none" stroke="midnightblue" d="M537.389,-67.0093C552.444,-68.9291 568.389,-70.9624 582.614,-72.7763"/>
<polygon fill="midnightblue" stroke="midnightblue" points="582.268,-76.2605 592.631,-74.0536 583.154,-69.3167 582.268,-76.2605"/>
</g>
<!-- Node5 -->
<g id="node5" class="node"><title>Node5</title>
<g id="a_node5"><a xlink:href="structtlz_1_1view__index.html#a20518c30015d833cdb2a69b524886b96" target="_top" xlink:title="tlz::view_index::is_2d">
<polygon fill="white" stroke="black" points="573,-31 573,-50 684,-50 684,-31 573,-31"/>
<text text-anchor="middle" x="628.5" y="-38" font-family="Helvetica,sans-Serif" font-size="10.00">tlz::view_index::is_2d</text>
</a>
</g>
</g>
<!-- Node3&#45;&gt;Node5 -->
<g id="edge4" class="edge"><title>Node3&#45;&gt;Node5</title>
<path fill="none" stroke="midnightblue" d="M537.389,-51.9907C545.716,-50.9288 554.316,-49.8321 562.747,-48.7571"/>
<polygon fill="midnightblue" stroke="midnightblue" points="563.44,-52.1972 572.917,-47.4603 562.554,-45.2534 563.44,-52.1972"/>
</g>
</g>
</svg>
