<?xml version="1.0" encoding="UTF-8" standalone="no"?>
<!DOCTYPE svg PUBLIC "-//W3C//DTD SVG 1.1//EN"
 "http://www.w3.org/Graphics/SVG/1.1/DTD/svg11.dtd">
<!-- Generated by graphviz version 2.38.0 (20140413.2041)
 -->
<!-- Title: tlz::encode_view_index Pages: 1 -->
<svg width="274pt" height="66pt"
 viewBox="0.00 0.00 274.00 66.00" xmlns="http://www.w3.org/2000/svg" xmlns:xlink="http://www.w3.org/1999/xlink">
<g id="graph0" class="graph" transform="scale(1 1) rotate(0) translate(4 62)">
<title>tlz::encode_view_index</title>
<polygon fill="white" stroke="none" points="-4,4 -4,-62 270,-62 270,4 -4,4"/>
<!-- Node1 -->
<g id="node1" class="node"><title>Node1</title>
<polygon fill="#bfbfbf" stroke="black" points="0,-19.5 0,-38.5 119,-38.5 119,-19.5 0,-19.5"/>
<text text-anchor="middle" x="59.5" y="-26.5" font-family="Helvetica,sans-Serif" font-size="10.00">tlz::encode_view_index</text>
</g>
<!-- Node2 -->
<g id="node2" class="node"><title>Node2</title>
<g id="a_node2"><a xlink:href="namespacetlz.html#a8e4f8c8c2927bc4350de13bfa0f8f9e1" target="_top" xlink:title="tlz::to_string">
<polygon fill="white" stroke="black" points="175,-38.5 175,-57.5 246,-57.5 246,-38.5 175,-38.5"/>
<text text-anchor="middle" x="210.5" y="-45.5" font-family="Helvetica,sans-Serif" font-size="10.00">tlz::to_string</text>
</a>
</g>
</g>
<!-- Node1&#45;&gt;Node2 -->
<g id="edge1" class="edge"><title>Node1&#45;&gt;Node2</title>
<path fill="none" stroke="midnightblue" d="M119.389,-36.5093C134.444,-38.4291 150.389,-40.4624 164.614,-42.2763"/>
<polygon fill="midnightblue" stroke="midnightblue" points="164.268,-45.7605 174.631,-43.5536 165.154,-38.8167 164.268,-45.7605"/>
</g>
<!-- Node3 -->
<g id="node3" class="node"><title>Node3</title>
<g id="a_node3"><a xlink:href="structtlz_1_1view__index.html#a20518c30015d833cdb2a69b524886b96" target="_top" xlink:title="tlz::view_index::is_2d">
<polygon fill="white" stroke="black" points="155,-0.5 155,-19.5 266,-19.5 266,-0.5 155,-0.5"/>
<text text-anchor="middle" x="210.5" y="-7.5" font-family="Helvetica,sans-Serif" font-size="10.00">tlz::view_index::is_2d</text>
</a>
</g>
</g>
<!-- Node1&#45;&gt;Node3 -->
<g id="edge2" class="edge"><title>Node1&#45;&gt;Node3</title>
<path fill="none" stroke="midnightblue" d="M119.389,-21.4907C127.716,-20.4288 136.316,-19.3321 144.747,-18.2571"/>
<polygon fill="midnightblue" stroke="midnightblue" points="145.44,-21.6972 154.917,-16.9603 144.554,-14.7534 145.44,-21.6972"/>
</g>
</g>
</svg>
