<?xml version="1.0" encoding="UTF-8" standalone="no"?>
<!DOCTYPE svg PUBLIC "-//W3C//DTD SVG 1.1//EN"
 "http://www.w3.org/Graphics/SVG/1.1/DTD/svg11.dtd">
<!-- Generated by graphviz version 2.38.0 (20140413.2041)
 -->
<!-- Title: tlz::decode_image_correspondences Pages: 1 -->
<svg width="726pt" height="132pt"
 viewBox="0.00 0.00 726.00 131.50" xmlns="http://www.w3.org/2000/svg" xmlns:xlink="http://www.w3.org/1999/xlink">
<g id="graph0" class="graph" transform="scale(1 1) rotate(0) translate(4 127.5)">
<title>tlz::decode_image_correspondences</title>
<polygon fill="white" stroke="none" points="-4,4 -4,-127.5 722,-127.5 722,4 -4,4"/>
<!-- Node1 -->
<g id="node1" class="node"><title>Node1</title>
<polygon fill="#bfbfbf" stroke="black" points="0,-104 0,-123 176,-123 176,-104 0,-104"/>
<text text-anchor="middle" x="88" y="-111" font-family="Helvetica,sans-Serif" font-size="10.00">tlz::decode_image_correspondences</text>
</g>
<!-- Node2 -->
<g id="node2" class="node"><title>Node2</title>
<g id="a_node2"><a xlink:href="namespacetlz.html#a252af14b9b4ac6502d3e9c5dd8dc90b8" target="_top" xlink:title="tlz::has">
<polygon fill="white" stroke="black" points="669,-88 669,-107 718,-107 718,-88 669,-88"/>
<text text-anchor="middle" x="693.5" y="-95" font-family="Helvetica,sans-Serif" font-size="10.00">tlz::has</text>
</a>
</g>
</g>
<!-- Node1&#45;&gt;Node2 -->
<g id="edge1" class="edge"><title>Node1&#45;&gt;Node2</title>
<path fill="none" stroke="midnightblue" d="M176.325,-116.056C283.929,-118.358 472.258,-119.629 633,-106.5 641.439,-105.811 650.498,-104.656 658.939,-103.399"/>
<polygon fill="midnightblue" stroke="midnightblue" points="659.511,-106.852 668.845,-101.84 658.423,-99.9375 659.511,-106.852"/>
</g>
<!-- Node3 -->
<g id="node3" class="node"><title>Node3</title>
<g id="a_node3"><a xlink:href="namespacetlz.html#ab83b0eb933afca1abe8ccd3470207691" target="_top" xlink:title="tlz::decode_image_correspondence\l_feature">
<polygon fill="white" stroke="black" points="212,-60.5 212,-90.5 382,-90.5 382,-60.5 212,-60.5"/>
<text text-anchor="start" x="220" y="-78.5" font-family="Helvetica,sans-Serif" font-size="10.00">tlz::decode_image_correspondence</text>
<text text-anchor="middle" x="297" y="-67.5" font-family="Helvetica,sans-Serif" font-size="10.00">_feature</text>
</a>
</g>
</g>
<!-- Node1&#45;&gt;Node3 -->
<g id="edge2" class="edge"><title>Node1&#45;&gt;Node3</title>
<path fill="none" stroke="midnightblue" d="M140.968,-103.96C160.181,-100.433 182.575,-96.322 204.27,-92.3393"/>
<polygon fill="midnightblue" stroke="midnightblue" points="204.971,-95.7692 214.175,-90.5211 203.707,-88.8842 204.971,-95.7692"/>
</g>
<!-- Node3&#45;&gt;Node2 -->
<g id="edge3" class="edge"><title>Node3&#45;&gt;Node2</title>
<path fill="none" stroke="midnightblue" d="M382.146,-80.1926C468.176,-84.9902 597.559,-92.2055 658.482,-95.6029"/>
<polygon fill="midnightblue" stroke="midnightblue" points="658.511,-99.1099 668.691,-96.1722 658.901,-92.1208 658.511,-99.1099"/>
</g>
<!-- Node4 -->
<g id="node4" class="node"><title>Node4</title>
<g id="a_node4"><a xlink:href="namespacetlz.html#a74e8454f97dace7cffb1afdb6d3ca87b" target="_top" xlink:title="tlz::decode_view_index">
<polygon fill="white" stroke="black" points="418,-50 418,-69 537,-69 537,-50 418,-50"/>
<text text-anchor="middle" x="477.5" y="-57" font-family="Helvetica,sans-Serif" font-size="10.00">tlz::decode_view_index</text>
</a>
</g>
</g>
<!-- Node3&#45;&gt;Node4 -->
<g id="edge4" class="edge"><title>Node3&#45;&gt;Node4</title>
<path fill="none" stroke="midnightblue" d="M382.023,-67.9685C390.638,-67.1964 399.317,-66.4184 407.739,-65.6634"/>
<polygon fill="midnightblue" stroke="midnightblue" points="408.216,-69.1349 417.863,-64.756 407.591,-62.1628 408.216,-69.1349"/>
</g>
<!-- Node5 -->
<g id="node5" class="node"><title>Node5</title>
<g id="a_node5"><a xlink:href="namespacetlz.html#ae8f9175a86bbe49ac0f4485d5db3080b" target="_top" xlink:title="tlz::decode_feature\l_point">
<polygon fill="white" stroke="black" points="427.5,-0.5 427.5,-30.5 527.5,-30.5 527.5,-0.5 427.5,-0.5"/>
<text text-anchor="start" x="435.5" y="-18.5" font-family="Helvetica,sans-Serif" font-size="10.00">tlz::decode_feature</text>
<text text-anchor="middle" x="477.5" y="-7.5" font-family="Helvetica,sans-Serif" font-size="10.00">_point</text>
</a>
</g>
</g>
<!-- Node3&#45;&gt;Node5 -->
<g id="edge5" class="edge"><title>Node3&#45;&gt;Node5</title>
<path fill="none" stroke="midnightblue" d="M343.043,-60.3595C367.023,-52.2992 396.698,-42.3242 421.972,-33.8287"/>
<polygon fill="midnightblue" stroke="midnightblue" points="423.417,-37.0355 431.781,-30.5317 421.187,-30.4003 423.417,-37.0355"/>
</g>
<!-- Node6 -->
<g id="node6" class="node"><title>Node6</title>
<g id="a_node6"><a xlink:href="namespacetlz.html#add846dc50c32dfb356cb1a7ac11d37ac" target="_top" xlink:title="tlz::get_or">
<polygon fill="white" stroke="black" points="573,-28 573,-47 633,-47 633,-28 573,-28"/>
<text text-anchor="middle" x="603" y="-35" font-family="Helvetica,sans-Serif" font-size="10.00">tlz::get_or</text>
</a>
</g>
</g>
<!-- Node5&#45;&gt;Node6 -->
<g id="edge6" class="edge"><title>Node5&#45;&gt;Node6</title>
<path fill="none" stroke="midnightblue" d="M527.665,-24.2582C539.407,-26.3499 551.784,-28.5546 562.996,-30.552"/>
<polygon fill="midnightblue" stroke="midnightblue" points="562.457,-34.0109 572.915,-32.3189 563.684,-27.1193 562.457,-34.0109"/>
</g>
<!-- Node6&#45;&gt;Node2 -->
<g id="edge7" class="edge"><title>Node6&#45;&gt;Node2</title>
<path fill="none" stroke="midnightblue" d="M618.219,-47.14C632.154,-56.5872 653.611,-71.1346 669.887,-82.1695"/>
<polygon fill="midnightblue" stroke="midnightblue" points="668.075,-85.1692 678.316,-87.8839 672.003,-79.3753 668.075,-85.1692"/>
</g>
</g>
</svg>
