<?xml version="1.0" encoding="UTF-8" standalone="no"?>
<!DOCTYPE svg PUBLIC "-//W3C//DTD SVG 1.1//EN"
 "http://www.w3.org/Graphics/SVG/1.1/DTD/svg11.dtd">
<!-- Generated by graphviz version 2.38.0 (20140413.2041)
 -->
<!-- Title: tlz::dataset_arg Pages: 1 -->
<svg width="647pt" height="142pt"
 viewBox="0.00 0.00 647.00 142.00" xmlns="http://www.w3.org/2000/svg" xmlns:xlink="http://www.w3.org/1999/xlink">
<g id="graph0" class="graph" transform="scale(1 1) rotate(0) translate(4 138)">
<title>tlz::dataset_arg</title>
<polygon fill="white" stroke="none" points="-4,4 -4,-138 643,-138 643,4 -4,4"/>
<!-- Node1 -->
<g id="node1" class="node"><title>Node1</title>
<polygon fill="#bfbfbf" stroke="black" points="0,-57.5 0,-76.5 84,-76.5 84,-57.5 0,-57.5"/>
<text text-anchor="middle" x="42" y="-64.5" font-family="Helvetica,sans-Serif" font-size="10.00">tlz::dataset_arg</text>
</g>
<!-- Node2 -->
<g id="node2" class="node"><title>Node2</title>
<g id="a_node2"><a xlink:href="namespacetlz.html#a634de7ca11e100e4a118dffe80376a75" target="_top" xlink:title="tlz::in_filename_arg">
<polygon fill="white" stroke="black" points="120,-57.5 120,-76.5 221,-76.5 221,-57.5 120,-57.5"/>
<text text-anchor="middle" x="170.5" y="-64.5" font-family="Helvetica,sans-Serif" font-size="10.00">tlz::in_filename_arg</text>
</a>
</g>
</g>
<!-- Node1&#45;&gt;Node2 -->
<g id="edge1" class="edge"><title>Node1&#45;&gt;Node2</title>
<path fill="none" stroke="midnightblue" d="M84.0709,-67C92.2637,-67 101.025,-67 109.699,-67"/>
<polygon fill="midnightblue" stroke="midnightblue" points="109.803,-70.5001 119.803,-67 109.803,-63.5001 109.803,-70.5001"/>
</g>
<!-- Node3 -->
<g id="node3" class="node"><title>Node3</title>
<g id="a_node3"><a xlink:href="namespacetlz.html#a0621d598fb83b13bf028f3e6293d04f8" target="_top" xlink:title="tlz::string_arg">
<polygon fill="white" stroke="black" points="257.5,-76.5 257.5,-95.5 333.5,-95.5 333.5,-76.5 257.5,-76.5"/>
<text text-anchor="middle" x="295.5" y="-83.5" font-family="Helvetica,sans-Serif" font-size="10.00">tlz::string_arg</text>
</a>
</g>
</g>
<!-- Node2&#45;&gt;Node3 -->
<g id="edge2" class="edge"><title>Node2&#45;&gt;Node3</title>
<path fill="none" stroke="midnightblue" d="M221.174,-74.6733C229.706,-75.9912 238.554,-77.358 247.027,-78.6667"/>
<polygon fill="midnightblue" stroke="midnightblue" points="246.712,-82.1595 257.129,-80.2272 247.781,-75.2416 246.712,-82.1595"/>
</g>
<!-- Node4 -->
<g id="node4" class="node"><title>Node4</title>
<g id="a_node4"><a xlink:href="namespacetlz.html#a780431daab8d2595372eacb43143b52d" target="_top" xlink:title="tlz::args">
<polygon fill="white" stroke="black" points="400.5,-114.5 400.5,-133.5 452.5,-133.5 452.5,-114.5 400.5,-114.5"/>
<text text-anchor="middle" x="426.5" y="-121.5" font-family="Helvetica,sans-Serif" font-size="10.00">tlz::args</text>
</a>
</g>
</g>
<!-- Node2&#45;&gt;Node4 -->
<g id="edge8" class="edge"><title>Node2&#45;&gt;Node4</title>
<path fill="none" stroke="midnightblue" d="M188.929,-76.6539C205.807,-85.5367 232.389,-98.3143 257,-105 302.055,-117.24 355.955,-121.606 390.449,-123.157"/>
<polygon fill="midnightblue" stroke="midnightblue" points="390.369,-126.657 400.5,-123.554 390.645,-119.662 390.369,-126.657"/>
</g>
<!-- Node6 -->
<g id="node6" class="node"><title>Node6</title>
<g id="a_node6"><a xlink:href="classtlz_1_1args__list.html#a38ad21acd64a4af98ffdf4a47837cdbe" target="_top" xlink:title="tlz::args_list::usage_fail">
<polygon fill="white" stroke="black" points="519,-38.5 519,-57.5 639,-57.5 639,-38.5 519,-38.5"/>
<text text-anchor="middle" x="579" y="-45.5" font-family="Helvetica,sans-Serif" font-size="10.00">tlz::args_list::usage_fail</text>
</a>
</g>
</g>
<!-- Node2&#45;&gt;Node6 -->
<g id="edge9" class="edge"><title>Node2&#45;&gt;Node6</title>
<path fill="none" stroke="midnightblue" d="M221.345,-64.6702C293.419,-61.3015 427.021,-55.0568 508.668,-51.2406"/>
<polygon fill="midnightblue" stroke="midnightblue" points="509.025,-54.7278 518.851,-50.7647 508.698,-47.7355 509.025,-54.7278"/>
</g>
<!-- Node8 -->
<g id="node8" class="node"><title>Node8</title>
<g id="a_node8"><a xlink:href="namespacetlz.html#abb019466ea9f56c0dab27e893d891837" target="_top" xlink:title="tlz::file_exists">
<polygon fill="white" stroke="black" points="257,-0.5 257,-19.5 334,-19.5 334,-0.5 257,-0.5"/>
<text text-anchor="middle" x="295.5" y="-7.5" font-family="Helvetica,sans-Serif" font-size="10.00">tlz::file_exists</text>
</a>
</g>
</g>
<!-- Node2&#45;&gt;Node8 -->
<g id="edge7" class="edge"><title>Node2&#45;&gt;Node8</title>
<path fill="none" stroke="midnightblue" d="M192.087,-57.4595C211.954,-48.2528 242.246,-34.2153 264.737,-23.7926"/>
<polygon fill="midnightblue" stroke="midnightblue" points="266.244,-26.9519 273.845,-19.5716 263.301,-20.6007 266.244,-26.9519"/>
</g>
<!-- Node3&#45;&gt;Node4 -->
<g id="edge3" class="edge"><title>Node3&#45;&gt;Node4</title>
<path fill="none" stroke="midnightblue" d="M329.052,-95.589C347.78,-101.106 371.314,-108.038 390.447,-113.674"/>
<polygon fill="midnightblue" stroke="midnightblue" points="389.701,-117.103 400.283,-116.572 391.679,-110.389 389.701,-117.103"/>
</g>
<!-- Node5 -->
<g id="node5" class="node"><title>Node5</title>
<g id="a_node5"><a xlink:href="classtlz_1_1args__list.html#a73d99bc75998dc14607a3a372d28dc6d" target="_top" xlink:title="tlz::args_list::next_arg">
<polygon fill="white" stroke="black" points="370,-76.5 370,-95.5 483,-95.5 483,-76.5 370,-76.5"/>
<text text-anchor="middle" x="426.5" y="-83.5" font-family="Helvetica,sans-Serif" font-size="10.00">tlz::args_list::next_arg</text>
</a>
</g>
</g>
<!-- Node3&#45;&gt;Node5 -->
<g id="edge4" class="edge"><title>Node3&#45;&gt;Node5</title>
<path fill="none" stroke="midnightblue" d="M333.812,-86C341.835,-86 350.544,-86 359.295,-86"/>
<polygon fill="midnightblue" stroke="midnightblue" points="359.549,-89.5001 369.549,-86 359.549,-82.5001 359.549,-89.5001"/>
</g>
<!-- Node5&#45;&gt;Node6 -->
<g id="edge5" class="edge"><title>Node5&#45;&gt;Node6</title>
<path fill="none" stroke="midnightblue" d="M465.478,-76.411C485.159,-71.4417 509.391,-65.3233 530.321,-60.0387"/>
<polygon fill="midnightblue" stroke="midnightblue" points="531.457,-63.3617 540.296,-57.5201 529.743,-56.5747 531.457,-63.3617"/>
</g>
<!-- Node7 -->
<g id="node7" class="node"><title>Node7</title>
<g id="a_node7"><a xlink:href="namespacetlz.html#a8e4f8c8c2927bc4350de13bfa0f8f9e1" target="_top" xlink:title="tlz::to_string">
<polygon fill="white" stroke="black" points="543.5,-76.5 543.5,-95.5 614.5,-95.5 614.5,-76.5 543.5,-76.5"/>
<text text-anchor="middle" x="579" y="-83.5" font-family="Helvetica,sans-Serif" font-size="10.00">tlz::to_string</text>
</a>
</g>
</g>
<!-- Node5&#45;&gt;Node7 -->
<g id="edge6" class="edge"><title>Node5&#45;&gt;Node7</title>
<path fill="none" stroke="midnightblue" d="M483.113,-86C499.441,-86 517.096,-86 532.698,-86"/>
<polygon fill="midnightblue" stroke="midnightblue" points="533.13,-89.5001 543.13,-86 533.129,-82.5001 533.13,-89.5001"/>
</g>
</g>
</svg>
