<?xml version="1.0" encoding="UTF-8" standalone="no"?>
<!DOCTYPE svg PUBLIC "-//W3C//DTD SVG 1.1//EN"
 "http://www.w3.org/Graphics/SVG/1.1/DTD/svg11.dtd">
<!-- Generated by graphviz version 2.38.0 (20140413.2041)
 -->
<!-- Title: tlz::straight_depths_arg Pages: 1 -->
<svg width="820pt" height="189pt"
 viewBox="0.00 0.00 820.00 188.50" xmlns="http://www.w3.org/2000/svg" xmlns:xlink="http://www.w3.org/1999/xlink">
<g id="graph0" class="graph" transform="scale(1 1) rotate(0) translate(4 184.5)">
<title>tlz::straight_depths_arg</title>
<polygon fill="white" stroke="none" points="-4,4 -4,-184.5 816,-184.5 816,4 -4,4"/>
<!-- Node1 -->
<g id="node1" class="node"><title>Node1</title>
<polygon fill="#bfbfbf" stroke="black" points="0,-133.5 0,-152.5 119,-152.5 119,-133.5 0,-133.5"/>
<text text-anchor="middle" x="59.5" y="-140.5" font-family="Helvetica,sans-Serif" font-size="10.00">tlz::straight_depths_arg</text>
</g>
<!-- Node2 -->
<g id="node2" class="node"><title>Node2</title>
<g id="a_node2"><a xlink:href="namespacetlz.html#a18ebdbd3058b74f2195388d86343b21d" target="_top" xlink:title="tlz::decode_straight\l_depths">
<polygon fill="white" stroke="black" points="155,-150 155,-180 257,-180 257,-150 155,-150"/>
<text text-anchor="start" x="163" y="-168" font-family="Helvetica,sans-Serif" font-size="10.00">tlz::decode_straight</text>
<text text-anchor="middle" x="206" y="-157" font-family="Helvetica,sans-Serif" font-size="10.00">_depths</text>
</a>
</g>
</g>
<!-- Node1&#45;&gt;Node2 -->
<g id="edge1" class="edge"><title>Node1&#45;&gt;Node2</title>
<path fill="none" stroke="midnightblue" d="M119.274,-151.948C127.606,-153.217 136.187,-154.523 144.55,-155.797"/>
<polygon fill="midnightblue" stroke="midnightblue" points="144.2,-159.284 154.613,-157.329 145.254,-152.363 144.2,-159.284"/>
</g>
<!-- Node5 -->
<g id="node5" class="node"><title>Node5</title>
<g id="a_node5"><a xlink:href="namespacetlz.html#a35f9e03fa4fd9cec699f5fa27962400f" target="_top" xlink:title="tlz::json_arg">
<polygon fill="white" stroke="black" points="171,-111.5 171,-130.5 241,-130.5 241,-111.5 171,-111.5"/>
<text text-anchor="middle" x="206" y="-118.5" font-family="Helvetica,sans-Serif" font-size="10.00">tlz::json_arg</text>
</a>
</g>
</g>
<!-- Node1&#45;&gt;Node5 -->
<g id="edge4" class="edge"><title>Node1&#45;&gt;Node5</title>
<path fill="none" stroke="midnightblue" d="M119.274,-134.052C133.084,-131.949 147.576,-129.743 160.632,-127.755"/>
<polygon fill="midnightblue" stroke="midnightblue" points="161.396,-131.179 170.756,-126.214 160.343,-124.259 161.396,-131.179"/>
</g>
<!-- Node3 -->
<g id="node3" class="node"><title>Node3</title>
<g id="a_node3"><a xlink:href="namespacetlz.html#add846dc50c32dfb356cb1a7ac11d37ac" target="_top" xlink:title="tlz::get_or">
<polygon fill="white" stroke="black" points="313.5,-155.5 313.5,-174.5 373.5,-174.5 373.5,-155.5 313.5,-155.5"/>
<text text-anchor="middle" x="343.5" y="-162.5" font-family="Helvetica,sans-Serif" font-size="10.00">tlz::get_or</text>
</a>
</g>
</g>
<!-- Node2&#45;&gt;Node3 -->
<g id="edge2" class="edge"><title>Node2&#45;&gt;Node3</title>
<path fill="none" stroke="midnightblue" d="M257.07,-165C272.358,-165 288.936,-165 303.385,-165"/>
<polygon fill="midnightblue" stroke="midnightblue" points="303.481,-168.5 313.481,-165 303.481,-161.5 303.481,-168.5"/>
</g>
<!-- Node4 -->
<g id="node4" class="node"><title>Node4</title>
<g id="a_node4"><a xlink:href="namespacetlz.html#a252af14b9b4ac6502d3e9c5dd8dc90b8" target="_top" xlink:title="tlz::has">
<polygon fill="white" stroke="black" points="444,-155.5 444,-174.5 493,-174.5 493,-155.5 444,-155.5"/>
<text text-anchor="middle" x="468.5" y="-162.5" font-family="Helvetica,sans-Serif" font-size="10.00">tlz::has</text>
</a>
</g>
</g>
<!-- Node3&#45;&gt;Node4 -->
<g id="edge3" class="edge"><title>Node3&#45;&gt;Node4</title>
<path fill="none" stroke="midnightblue" d="M373.649,-165C391.667,-165 414.865,-165 433.689,-165"/>
<polygon fill="midnightblue" stroke="midnightblue" points="433.914,-168.5 443.914,-165 433.914,-161.5 433.914,-168.5"/>
</g>
<!-- Node6 -->
<g id="node6" class="node"><title>Node6</title>
<g id="a_node6"><a xlink:href="namespacetlz.html#aa1be9362f548fcf9378e1fc9074089c4" target="_top" xlink:title="tlz::import_json_file">
<polygon fill="white" stroke="black" points="293,-112.5 293,-131.5 394,-131.5 394,-112.5 293,-112.5"/>
<text text-anchor="middle" x="343.5" y="-119.5" font-family="Helvetica,sans-Serif" font-size="10.00">tlz::import_json_file</text>
</a>
</g>
</g>
<!-- Node5&#45;&gt;Node6 -->
<g id="edge5" class="edge"><title>Node5&#45;&gt;Node6</title>
<path fill="none" stroke="midnightblue" d="M241.192,-121.252C253.81,-121.345 268.505,-121.454 282.725,-121.559"/>
<polygon fill="midnightblue" stroke="midnightblue" points="282.933,-125.06 292.958,-121.634 282.984,-118.061 282.933,-125.06"/>
</g>
<!-- Node7 -->
<g id="node7" class="node"><title>Node7</title>
<g id="a_node7"><a xlink:href="namespacetlz.html#a634de7ca11e100e4a118dffe80376a75" target="_top" xlink:title="tlz::in_filename_arg">
<polygon fill="white" stroke="black" points="293,-74.5 293,-93.5 394,-93.5 394,-74.5 293,-74.5"/>
<text text-anchor="middle" x="343.5" y="-81.5" font-family="Helvetica,sans-Serif" font-size="10.00">tlz::in_filename_arg</text>
</a>
</g>
</g>
<!-- Node5&#45;&gt;Node7 -->
<g id="edge6" class="edge"><title>Node5&#45;&gt;Node7</title>
<path fill="none" stroke="midnightblue" d="M241.192,-111.663C258.259,-107.003 279.127,-101.305 297.478,-96.2939"/>
<polygon fill="midnightblue" stroke="midnightblue" points="298.649,-99.6022 307.374,-93.5916 296.805,-92.8495 298.649,-99.6022"/>
</g>
<!-- Node8 -->
<g id="node8" class="node"><title>Node8</title>
<g id="a_node8"><a xlink:href="namespacetlz.html#a0621d598fb83b13bf028f3e6293d04f8" target="_top" xlink:title="tlz::string_arg">
<polygon fill="white" stroke="black" points="430.5,-76.5 430.5,-95.5 506.5,-95.5 506.5,-76.5 430.5,-76.5"/>
<text text-anchor="middle" x="468.5" y="-83.5" font-family="Helvetica,sans-Serif" font-size="10.00">tlz::string_arg</text>
</a>
</g>
</g>
<!-- Node7&#45;&gt;Node8 -->
<g id="edge7" class="edge"><title>Node7&#45;&gt;Node8</title>
<path fill="none" stroke="midnightblue" d="M394.174,-84.8077C402.706,-84.9464 411.554,-85.0903 420.027,-85.2281"/>
<polygon fill="midnightblue" stroke="midnightblue" points="420.073,-88.7292 430.129,-85.3923 420.187,-81.7301 420.073,-88.7292"/>
</g>
<!-- Node9 -->
<g id="node9" class="node"><title>Node9</title>
<g id="a_node9"><a xlink:href="namespacetlz.html#a780431daab8d2595372eacb43143b52d" target="_top" xlink:title="tlz::args">
<polygon fill="white" stroke="black" points="573.5,-114.5 573.5,-133.5 625.5,-133.5 625.5,-114.5 573.5,-114.5"/>
<text text-anchor="middle" x="599.5" y="-121.5" font-family="Helvetica,sans-Serif" font-size="10.00">tlz::args</text>
</a>
</g>
</g>
<!-- Node7&#45;&gt;Node9 -->
<g id="edge13" class="edge"><title>Node7&#45;&gt;Node9</title>
<path fill="none" stroke="midnightblue" d="M379.227,-93.6042C394.675,-97.5976 413.147,-101.993 430,-105 475.7,-113.154 529.032,-118.472 563.255,-121.353"/>
<polygon fill="midnightblue" stroke="midnightblue" points="562.98,-124.843 573.232,-122.17 563.551,-117.866 562.98,-124.843"/>
</g>
<!-- Node11 -->
<g id="node11" class="node"><title>Node11</title>
<g id="a_node11"><a xlink:href="classtlz_1_1args__list.html#a38ad21acd64a4af98ffdf4a47837cdbe" target="_top" xlink:title="tlz::args_list::usage_fail">
<polygon fill="white" stroke="black" points="692,-38.5 692,-57.5 812,-57.5 812,-38.5 692,-38.5"/>
<text text-anchor="middle" x="752" y="-45.5" font-family="Helvetica,sans-Serif" font-size="10.00">tlz::args_list::usage_fail</text>
</a>
</g>
</g>
<!-- Node7&#45;&gt;Node11 -->
<g id="edge14" class="edge"><title>Node7&#45;&gt;Node11</title>
<path fill="none" stroke="midnightblue" d="M386.495,-74.4583C400.289,-71.6441 415.739,-68.831 430,-67 516.33,-55.9157 616.567,-51.2853 681.752,-49.3589"/>
<polygon fill="midnightblue" stroke="midnightblue" points="682.008,-52.8532 691.905,-49.0724 681.811,-45.856 682.008,-52.8532"/>
</g>
<!-- Node13 -->
<g id="node13" class="node"><title>Node13</title>
<g id="a_node13"><a xlink:href="namespacetlz.html#abb019466ea9f56c0dab27e893d891837" target="_top" xlink:title="tlz::file_exists">
<polygon fill="white" stroke="black" points="430,-0.5 430,-19.5 507,-19.5 507,-0.5 430,-0.5"/>
<text text-anchor="middle" x="468.5" y="-7.5" font-family="Helvetica,sans-Serif" font-size="10.00">tlz::file_exists</text>
</a>
</g>
</g>
<!-- Node7&#45;&gt;Node13 -->
<g id="edge12" class="edge"><title>Node7&#45;&gt;Node13</title>
<path fill="none" stroke="midnightblue" d="M360.328,-74.4773C381.155,-61.9472 417.992,-39.7854 442.578,-24.9938"/>
<polygon fill="midnightblue" stroke="midnightblue" points="444.577,-27.8755 451.342,-19.7211 440.969,-21.8773 444.577,-27.8755"/>
</g>
<!-- Node8&#45;&gt;Node9 -->
<g id="edge8" class="edge"><title>Node8&#45;&gt;Node9</title>
<path fill="none" stroke="midnightblue" d="M502.052,-95.589C520.78,-101.106 544.314,-108.038 563.447,-113.674"/>
<polygon fill="midnightblue" stroke="midnightblue" points="562.701,-117.103 573.283,-116.572 564.679,-110.389 562.701,-117.103"/>
</g>
<!-- Node10 -->
<g id="node10" class="node"><title>Node10</title>
<g id="a_node10"><a xlink:href="classtlz_1_1args__list.html#a73d99bc75998dc14607a3a372d28dc6d" target="_top" xlink:title="tlz::args_list::next_arg">
<polygon fill="white" stroke="black" points="543,-76.5 543,-95.5 656,-95.5 656,-76.5 543,-76.5"/>
<text text-anchor="middle" x="599.5" y="-83.5" font-family="Helvetica,sans-Serif" font-size="10.00">tlz::args_list::next_arg</text>
</a>
</g>
</g>
<!-- Node8&#45;&gt;Node10 -->
<g id="edge9" class="edge"><title>Node8&#45;&gt;Node10</title>
<path fill="none" stroke="midnightblue" d="M506.812,-86C514.835,-86 523.544,-86 532.295,-86"/>
<polygon fill="midnightblue" stroke="midnightblue" points="532.549,-89.5001 542.549,-86 532.549,-82.5001 532.549,-89.5001"/>
</g>
<!-- Node10&#45;&gt;Node11 -->
<g id="edge10" class="edge"><title>Node10&#45;&gt;Node11</title>
<path fill="none" stroke="midnightblue" d="M638.478,-76.411C658.159,-71.4417 682.391,-65.3233 703.321,-60.0387"/>
<polygon fill="midnightblue" stroke="midnightblue" points="704.457,-63.3617 713.296,-57.5201 702.743,-56.5747 704.457,-63.3617"/>
</g>
<!-- Node12 -->
<g id="node12" class="node"><title>Node12</title>
<g id="a_node12"><a xlink:href="namespacetlz.html#a8e4f8c8c2927bc4350de13bfa0f8f9e1" target="_top" xlink:title="tlz::to_string">
<polygon fill="white" stroke="black" points="716.5,-76.5 716.5,-95.5 787.5,-95.5 787.5,-76.5 716.5,-76.5"/>
<text text-anchor="middle" x="752" y="-83.5" font-family="Helvetica,sans-Serif" font-size="10.00">tlz::to_string</text>
</a>
</g>
</g>
<!-- Node10&#45;&gt;Node12 -->
<g id="edge11" class="edge"><title>Node10&#45;&gt;Node12</title>
<path fill="none" stroke="midnightblue" d="M656.113,-86C672.441,-86 690.096,-86 705.698,-86"/>
<polygon fill="midnightblue" stroke="midnightblue" points="706.13,-89.5001 716.13,-86 706.129,-82.5001 706.13,-89.5001"/>
</g>
</g>
</svg>
