<?xml version="1.0" encoding="UTF-8" standalone="no"?>
<!DOCTYPE svg PUBLIC "-//W3C//DTD SVG 1.1//EN"
 "http://www.w3.org/Graphics/SVG/1.1/DTD/svg11.dtd">
<!-- Generated by graphviz version 2.38.0 (20140413.2041)
 -->
<!-- Title: tlz::encode_view_homographies Pages: 1 -->
<svg width="624pt" height="104pt"
 viewBox="0.00 0.00 624.00 104.00" xmlns="http://www.w3.org/2000/svg" xmlns:xlink="http://www.w3.org/1999/xlink">
<g id="graph0" class="graph" transform="scale(1 1) rotate(0) translate(4 100)">
<title>tlz::encode_view_homographies</title>
<polygon fill="white" stroke="none" points="-4,4 -4,-100 620,-100 620,4 -4,4"/>
<!-- Node1 -->
<g id="node1" class="node"><title>Node1</title>
<polygon fill="#bfbfbf" stroke="black" points="0,-19.5 0,-38.5 156,-38.5 156,-19.5 0,-19.5"/>
<text text-anchor="middle" x="78" y="-26.5" font-family="Helvetica,sans-Serif" font-size="10.00">tlz::encode_view_homographies</text>
</g>
<!-- Node2 -->
<g id="node2" class="node"><title>Node2</title>
<g id="a_node2"><a xlink:href="namespacetlz.html#aadab29bdc80bc1d0ad6d3784dd427992" target="_top" xlink:title="tlz::encode_view_index">
<polygon fill="white" stroke="black" points="207,-38.5 207,-57.5 326,-57.5 326,-38.5 207,-38.5"/>
<text text-anchor="middle" x="266.5" y="-45.5" font-family="Helvetica,sans-Serif" font-size="10.00">tlz::encode_view_index</text>
</a>
</g>
</g>
<!-- Node1&#45;&gt;Node2 -->
<g id="edge1" class="edge"><title>Node1&#45;&gt;Node2</title>
<path fill="none" stroke="midnightblue" d="M156.203,-36.8652C169.698,-38.24 183.656,-39.662 196.899,-41.0112"/>
<polygon fill="midnightblue" stroke="midnightblue" points="196.564,-44.4951 206.868,-42.0267 197.274,-37.5311 196.564,-44.4951"/>
</g>
<!-- Node5 -->
<g id="node5" class="node"><title>Node5</title>
<g id="a_node5"><a xlink:href="namespacetlz.html#a1a6da36ecd0f152dec63f309b9cb9504" target="_top" xlink:title="tlz::encode_view_homography">
<polygon fill="white" stroke="black" points="192,-0.5 192,-19.5 341,-19.5 341,-0.5 192,-0.5"/>
<text text-anchor="middle" x="266.5" y="-7.5" font-family="Helvetica,sans-Serif" font-size="10.00">tlz::encode_view_homography</text>
</a>
</g>
</g>
<!-- Node1&#45;&gt;Node5 -->
<g id="edge4" class="edge"><title>Node1&#45;&gt;Node5</title>
<path fill="none" stroke="midnightblue" d="M156.203,-21.1348C164.702,-20.269 173.384,-19.3844 181.956,-18.5112"/>
<polygon fill="midnightblue" stroke="midnightblue" points="182.357,-21.9886 191.95,-17.493 181.647,-15.0246 182.357,-21.9886"/>
</g>
<!-- Node3 -->
<g id="node3" class="node"><title>Node3</title>
<g id="a_node3"><a xlink:href="namespacetlz.html#a8e4f8c8c2927bc4350de13bfa0f8f9e1" target="_top" xlink:title="tlz::to_string">
<polygon fill="white" stroke="black" points="397,-76.5 397,-95.5 468,-95.5 468,-76.5 397,-76.5"/>
<text text-anchor="middle" x="432.5" y="-83.5" font-family="Helvetica,sans-Serif" font-size="10.00">tlz::to_string</text>
</a>
</g>
</g>
<!-- Node2&#45;&gt;Node3 -->
<g id="edge2" class="edge"><title>Node2&#45;&gt;Node3</title>
<path fill="none" stroke="midnightblue" d="M308.884,-57.589C332.63,-63.0912 362.456,-70.002 386.746,-75.6301"/>
<polygon fill="midnightblue" stroke="midnightblue" points="386.251,-79.108 396.782,-77.9557 387.831,-72.2887 386.251,-79.108"/>
</g>
<!-- Node4 -->
<g id="node4" class="node"><title>Node4</title>
<g id="a_node4"><a xlink:href="structtlz_1_1view__index.html#a20518c30015d833cdb2a69b524886b96" target="_top" xlink:title="tlz::view_index::is_2d">
<polygon fill="white" stroke="black" points="377,-38.5 377,-57.5 488,-57.5 488,-38.5 377,-38.5"/>
<text text-anchor="middle" x="432.5" y="-45.5" font-family="Helvetica,sans-Serif" font-size="10.00">tlz::view_index::is_2d</text>
</a>
</g>
</g>
<!-- Node2&#45;&gt;Node4 -->
<g id="edge3" class="edge"><title>Node2&#45;&gt;Node4</title>
<path fill="none" stroke="midnightblue" d="M326.245,-48C339.428,-48 353.486,-48 366.893,-48"/>
<polygon fill="midnightblue" stroke="midnightblue" points="366.994,-51.5001 376.994,-48 366.994,-44.5001 366.994,-51.5001"/>
</g>
<!-- Node6 -->
<g id="node6" class="node"><title>Node6</title>
<g id="a_node6"><a xlink:href="namespacetlz.html#acf7ca4ee1b750cf31a40170bea887d46" target="_top" xlink:title="tlz::encode_mat">
<polygon fill="white" stroke="black" points="389.5,-0.5 389.5,-19.5 475.5,-19.5 475.5,-0.5 389.5,-0.5"/>
<text text-anchor="middle" x="432.5" y="-7.5" font-family="Helvetica,sans-Serif" font-size="10.00">tlz::encode_mat</text>
</a>
</g>
</g>
<!-- Node5&#45;&gt;Node6 -->
<g id="edge5" class="edge"><title>Node5&#45;&gt;Node6</title>
<path fill="none" stroke="midnightblue" d="M341.344,-10C354.101,-10 367.124,-10 379.161,-10"/>
<polygon fill="midnightblue" stroke="midnightblue" points="379.454,-13.5001 389.454,-10 379.454,-6.5001 379.454,-13.5001"/>
</g>
<!-- Node7 -->
<g id="node7" class="node"><title>Node7</title>
<g id="a_node7"><a xlink:href="namespacetlz.html#a7b27ca69fad329b4a00aceee41d2962b" target="_top" xlink:title="tlz::encode_mat_">
<polygon fill="white" stroke="black" points="524,-0.5 524,-19.5 616,-19.5 616,-0.5 524,-0.5"/>
<text text-anchor="middle" x="570" y="-7.5" font-family="Helvetica,sans-Serif" font-size="10.00">tlz::encode_mat_</text>
</a>
</g>
</g>
<!-- Node6&#45;&gt;Node7 -->
<g id="edge6" class="edge"><title>Node6&#45;&gt;Node7</title>
<path fill="none" stroke="midnightblue" d="M475.63,-10C487.645,-10 500.921,-10 513.599,-10"/>
<polygon fill="midnightblue" stroke="midnightblue" points="513.604,-13.5001 523.604,-10 513.604,-6.5001 513.604,-13.5001"/>
</g>
</g>
</svg>
