<?xml version="1.0" encoding="UTF-8" standalone="no"?>
<!DOCTYPE svg PUBLIC "-//W3C//DTD SVG 1.1//EN"
 "http://www.w3.org/Graphics/SVG/1.1/DTD/svg11.dtd">
<!-- Generated by graphviz version 2.38.0 (20140413.2041)
 -->
<!-- Title: tlz::enum_arg Pages: 1 -->
<svg width="389pt" height="104pt"
 viewBox="0.00 0.00 389.00 104.00" xmlns="http://www.w3.org/2000/svg" xmlns:xlink="http://www.w3.org/1999/xlink">
<g id="graph0" class="graph" transform="scale(1 1) rotate(0) translate(4 100)">
<title>tlz::enum_arg</title>
<polygon fill="white" stroke="none" points="-4,4 -4,-100 385,-100 385,4 -4,4"/>
<!-- Node1 -->
<g id="node1" class="node"><title>Node1</title>
<polygon fill="#bfbfbf" stroke="black" points="0,-38.5 0,-57.5 76,-57.5 76,-38.5 0,-38.5"/>
<text text-anchor="middle" x="38" y="-45.5" font-family="Helvetica,sans-Serif" font-size="10.00">tlz::enum_arg</text>
</g>
<!-- Node2 -->
<g id="node2" class="node"><title>Node2</title>
<g id="a_node2"><a xlink:href="namespacetlz.html#a780431daab8d2595372eacb43143b52d" target="_top" xlink:title="tlz::args">
<polygon fill="white" stroke="black" points="142.5,-76.5 142.5,-95.5 194.5,-95.5 194.5,-76.5 142.5,-76.5"/>
<text text-anchor="middle" x="168.5" y="-83.5" font-family="Helvetica,sans-Serif" font-size="10.00">tlz::args</text>
</a>
</g>
</g>
<!-- Node1&#45;&gt;Node2 -->
<g id="edge1" class="edge"><title>Node1&#45;&gt;Node2</title>
<path fill="none" stroke="midnightblue" d="M71.426,-57.589C90.0808,-63.1056 113.524,-70.0383 132.583,-75.6743"/>
<polygon fill="midnightblue" stroke="midnightblue" points="131.799,-79.0922 142.381,-78.5717 133.784,-72.3795 131.799,-79.0922"/>
</g>
<!-- Node3 -->
<g id="node3" class="node"><title>Node3</title>
<g id="a_node3"><a xlink:href="classtlz_1_1args__list.html#a73d99bc75998dc14607a3a372d28dc6d" target="_top" xlink:title="tlz::args_list::next_arg">
<polygon fill="white" stroke="black" points="112,-0.5 112,-19.5 225,-19.5 225,-0.5 112,-0.5"/>
<text text-anchor="middle" x="168.5" y="-7.5" font-family="Helvetica,sans-Serif" font-size="10.00">tlz::args_list::next_arg</text>
</a>
</g>
</g>
<!-- Node1&#45;&gt;Node3 -->
<g id="edge2" class="edge"><title>Node1&#45;&gt;Node3</title>
<path fill="none" stroke="midnightblue" d="M71.426,-38.411C87.7097,-33.5956 107.642,-27.7012 125.122,-22.532"/>
<polygon fill="midnightblue" stroke="midnightblue" points="126.487,-25.7781 135.084,-19.5859 124.502,-19.0655 126.487,-25.7781"/>
</g>
<!-- Node4 -->
<g id="node4" class="node"><title>Node4</title>
<g id="a_node4"><a xlink:href="classtlz_1_1args__list.html#a38ad21acd64a4af98ffdf4a47837cdbe" target="_top" xlink:title="tlz::args_list::usage_fail">
<polygon fill="white" stroke="black" points="261,-38.5 261,-57.5 381,-57.5 381,-38.5 261,-38.5"/>
<text text-anchor="middle" x="321" y="-45.5" font-family="Helvetica,sans-Serif" font-size="10.00">tlz::args_list::usage_fail</text>
</a>
</g>
</g>
<!-- Node1&#45;&gt;Node4 -->
<g id="edge5" class="edge"><title>Node1&#45;&gt;Node4</title>
<path fill="none" stroke="midnightblue" d="M76.0248,-48C120.359,-48 195.538,-48 250.752,-48"/>
<polygon fill="midnightblue" stroke="midnightblue" points="250.818,-51.5001 260.817,-48 250.817,-44.5001 250.818,-51.5001"/>
</g>
<!-- Node3&#45;&gt;Node4 -->
<g id="edge3" class="edge"><title>Node3&#45;&gt;Node4</title>
<path fill="none" stroke="midnightblue" d="M207.478,-19.589C227.159,-24.5583 251.391,-30.6767 272.321,-35.9613"/>
<polygon fill="midnightblue" stroke="midnightblue" points="271.743,-39.4253 282.296,-38.4799 273.457,-32.6383 271.743,-39.4253"/>
</g>
<!-- Node5 -->
<g id="node5" class="node"><title>Node5</title>
<g id="a_node5"><a xlink:href="namespacetlz.html#a8e4f8c8c2927bc4350de13bfa0f8f9e1" target="_top" xlink:title="tlz::to_string">
<polygon fill="white" stroke="black" points="285.5,-0.5 285.5,-19.5 356.5,-19.5 356.5,-0.5 285.5,-0.5"/>
<text text-anchor="middle" x="321" y="-7.5" font-family="Helvetica,sans-Serif" font-size="10.00">tlz::to_string</text>
</a>
</g>
</g>
<!-- Node3&#45;&gt;Node5 -->
<g id="edge4" class="edge"><title>Node3&#45;&gt;Node5</title>
<path fill="none" stroke="midnightblue" d="M225.113,-10C241.441,-10 259.096,-10 274.698,-10"/>
<polygon fill="midnightblue" stroke="midnightblue" points="275.13,-13.5001 285.13,-10 275.129,-6.5001 275.13,-13.5001"/>
</g>
</g>
</svg>
