<?xml version="1.0" encoding="UTF-8" standalone="no"?>
<!DOCTYPE svg PUBLIC "-//W3C//DTD SVG 1.1//EN"
 "http://www.w3.org/Graphics/SVG/1.1/DTD/svg11.dtd">
<!-- Generated by graphviz version 2.38.0 (20140413.2041)
 -->
<!-- Title: tlz::detect_ir_checkerboard Pages: 1 -->
<svg width="446pt" height="88pt"
 viewBox="0.00 0.00 446.00 88.00" xmlns="http://www.w3.org/2000/svg" xmlns:xlink="http://www.w3.org/1999/xlink">
<g id="graph0" class="graph" transform="scale(1 1) rotate(0) translate(4 84)">
<title>tlz::detect_ir_checkerboard</title>
<polygon fill="white" stroke="none" points="-4,4 -4,-84 442,-84 442,4 -4,4"/>
<!-- Node1 -->
<g id="node1" class="node"><title>Node1</title>
<polygon fill="#bfbfbf" stroke="black" points="0,-30 0,-49 134,-49 134,-30 0,-30"/>
<text text-anchor="middle" x="67" y="-37" font-family="Helvetica,sans-Serif" font-size="10.00">tlz::detect_ir_checkerboard</text>
</g>
<!-- Node2 -->
<g id="node2" class="node"><title>Node2</title>
<g id="a_node2"><a xlink:href="namespacetlz.html#abc33c7b74cbbd686b06228c1fdad9214" target="_top" xlink:title="tlz::detect_ir_checkerboard">
<polygon fill="white" stroke="black" points="170,-30 170,-49 304,-49 304,-30 170,-30"/>
<text text-anchor="middle" x="237" y="-37" font-family="Helvetica,sans-Serif" font-size="10.00">tlz::detect_ir_checkerboard</text>
</a>
</g>
</g>
<!-- Node1&#45;&gt;Node2 -->
<g id="edge1" class="edge"><title>Node1&#45;&gt;Node2</title>
<path fill="none" stroke="midnightblue" d="M134.398,-39.5C142.679,-39.5 151.199,-39.5 159.616,-39.5"/>
<polygon fill="midnightblue" stroke="midnightblue" points="159.809,-43.0001 169.809,-39.5 159.809,-36.0001 159.809,-43.0001"/>
</g>
<!-- Node3 -->
<g id="node3" class="node"><title>Node3</title>
<g id="a_node3"><a xlink:href="structtlz_1_1checkerboard.html#a44b150a25091e74cfaec42635d392369" target="_top" xlink:title="tlz::checkerboard::\lcheckerboard">
<polygon fill="white" stroke="black" points="340,-49.5 340,-79.5 438,-79.5 438,-49.5 340,-49.5"/>
<text text-anchor="start" x="348" y="-67.5" font-family="Helvetica,sans-Serif" font-size="10.00">tlz::checkerboard::</text>
<text text-anchor="middle" x="389" y="-56.5" font-family="Helvetica,sans-Serif" font-size="10.00">checkerboard</text>
</a>
</g>
</g>
<!-- Node2&#45;&gt;Node3 -->
<g id="edge2" class="edge"><title>Node2&#45;&gt;Node3</title>
<path fill="none" stroke="midnightblue" d="M295.136,-49.0227C306.535,-50.9225 318.517,-52.9196 329.946,-54.8244"/>
<polygon fill="midnightblue" stroke="midnightblue" points="329.379,-58.278 339.818,-56.4697 330.53,-51.3733 329.379,-58.278"/>
</g>
<!-- Node4 -->
<g id="node4" class="node"><title>Node4</title>
<g id="a_node4"><a xlink:href="structtlz_1_1checkerboard.html#aa0961b41552bc73fc4f75d2dca128637" target="_top" xlink:title="tlz::checkerboard::\lcorner">
<polygon fill="white" stroke="black" points="340,-0.5 340,-30.5 438,-30.5 438,-0.5 340,-0.5"/>
<text text-anchor="start" x="348" y="-18.5" font-family="Helvetica,sans-Serif" font-size="10.00">tlz::checkerboard::</text>
<text text-anchor="middle" x="389" y="-7.5" font-family="Helvetica,sans-Serif" font-size="10.00">corner</text>
</a>
</g>
</g>
<!-- Node2&#45;&gt;Node4 -->
<g id="edge3" class="edge"><title>Node2&#45;&gt;Node4</title>
<path fill="none" stroke="midnightblue" d="M297.715,-29.9456C308.24,-28.2616 319.185,-26.5104 329.671,-24.8326"/>
<polygon fill="midnightblue" stroke="midnightblue" points="330.235,-28.287 339.557,-23.2509 329.129,-21.3749 330.235,-28.287"/>
</g>
</g>
</svg>
