<?xml version="1.0" encoding="UTF-8" standalone="no"?>
<!DOCTYPE svg PUBLIC "-//W3C//DTD SVG 1.1//EN"
 "http://www.w3.org/Graphics/SVG/1.1/DTD/svg11.dtd">
<!-- Generated by graphviz version 2.38.0 (20140413.2041)
 -->
<!-- Title: tlz::sq Pages: 1 -->
<svg width="147pt" height="104pt"
 viewBox="0.00 0.00 147.00 104.00" xmlns="http://www.w3.org/2000/svg" xmlns:xlink="http://www.w3.org/1999/xlink">
<g id="graph0" class="graph" transform="scale(1 1) rotate(0) translate(4 100)">
<title>tlz::sq</title>
<polygon fill="white" stroke="none" points="-4,4 -4,-100 143,-100 143,4 -4,4"/>
<!-- Node1 -->
<g id="node1" class="node"><title>Node1</title>
<polygon fill="#bfbfbf" stroke="black" points="0,-38.5 0,-57.5 44,-57.5 44,-38.5 0,-38.5"/>
<text text-anchor="middle" x="22" y="-45.5" font-family="Helvetica,sans-Serif" font-size="10.00">tlz::sq</text>
</g>
<!-- Node2 -->
<g id="node2" class="node"><title>Node2</title>
<g id="a_node2"><a xlink:href="namespacetlz.html#a643b2d03bd805fe78dcd684ef45e52fb" target="_top" xlink:title="Clamp value between minimum and maximum value. ">
<polygon fill="white" stroke="black" points="80,-76.5 80,-95.5 139,-95.5 139,-76.5 80,-76.5"/>
<text text-anchor="middle" x="109.5" y="-83.5" font-family="Helvetica,sans-Serif" font-size="10.00">tlz::clamp</text>
</a>
</g>
</g>
<!-- Node1&#45;&gt;Node2 -->
<g id="edge1" class="edge"><title>Node1&#45;&gt;Node2</title>
<path fill="none" stroke="midnightblue" d="M44.1348,-57.3933C54.2321,-61.881 66.5127,-67.339 77.6292,-72.2796"/>
<polygon fill="midnightblue" stroke="midnightblue" points="76.4548,-75.5878 87.0144,-76.4509 79.2978,-69.1911 76.4548,-75.5878"/>
</g>
<!-- Node3 -->
<g id="node3" class="node"><title>Node3</title>
<g id="a_node3"><a xlink:href="namespacetlz.html#a4fe5757a830e199f84d229eee11f616e" target="_top" xlink:title="Compute greatest common divisor of a and b. ">
<polygon fill="white" stroke="black" points="85,-38.5 85,-57.5 134,-57.5 134,-38.5 85,-38.5"/>
<text text-anchor="middle" x="109.5" y="-45.5" font-family="Helvetica,sans-Serif" font-size="10.00">tlz::gcd</text>
</a>
</g>
</g>
<!-- Node1&#45;&gt;Node3 -->
<g id="edge2" class="edge"><title>Node1&#45;&gt;Node3</title>
<path fill="none" stroke="midnightblue" d="M44.1348,-48C53.4069,-48 64.52,-48 74.8821,-48"/>
<polygon fill="midnightblue" stroke="midnightblue" points="74.8981,-51.5001 84.898,-48 74.898,-44.5001 74.8981,-51.5001"/>
</g>
<!-- Node4 -->
<g id="node4" class="node"><title>Node4</title>
<g id="a_node4"><a xlink:href="namespacetlz.html#aec6e2158ce198aa20a8493fde3d3b552" target="_top" xlink:title="Compute least common multiple of a and b. ">
<polygon fill="white" stroke="black" points="85,-0.5 85,-19.5 134,-19.5 134,-0.5 85,-0.5"/>
<text text-anchor="middle" x="109.5" y="-7.5" font-family="Helvetica,sans-Serif" font-size="10.00">tlz::lcm</text>
</a>
</g>
</g>
<!-- Node1&#45;&gt;Node4 -->
<g id="edge3" class="edge"><title>Node1&#45;&gt;Node4</title>
<path fill="none" stroke="midnightblue" d="M44.1348,-38.6067C54.2321,-34.119 66.5127,-28.661 77.6292,-23.7204"/>
<polygon fill="midnightblue" stroke="midnightblue" points="79.2978,-26.8089 87.0144,-19.5491 76.4548,-20.4122 79.2978,-26.8089"/>
</g>
</g>
</svg>
