<?xml version="1.0" encoding="UTF-8" standalone="no"?>
<!DOCTYPE svg PUBLIC "-//W3C//DTD SVG 1.1//EN"
 "http://www.w3.org/Graphics/SVG/1.1/DTD/svg11.dtd">
<!-- Generated by graphviz version 2.38.0 (20140413.2041)
 -->
<!-- Title: tlz::decode_view_homographies Pages: 1 -->
<svg width="556pt" height="85pt"
 viewBox="0.00 0.00 556.00 85.00" xmlns="http://www.w3.org/2000/svg" xmlns:xlink="http://www.w3.org/1999/xlink">
<g id="graph0" class="graph" transform="scale(1 1) rotate(0) translate(4 81)">
<title>tlz::decode_view_homographies</title>
<polygon fill="white" stroke="none" points="-4,4 -4,-81 552,-81 552,4 -4,4"/>
<!-- Node1 -->
<g id="node1" class="node"><title>Node1</title>
<polygon fill="#bfbfbf" stroke="black" points="0,-38.5 0,-57.5 156,-57.5 156,-38.5 0,-38.5"/>
<text text-anchor="middle" x="78" y="-45.5" font-family="Helvetica,sans-Serif" font-size="10.00">tlz::decode_view_homographies</text>
</g>
<!-- Node2 -->
<g id="node2" class="node"><title>Node2</title>
<g id="a_node2"><a xlink:href="namespacetlz.html#a74e8454f97dace7cffb1afdb6d3ca87b" target="_top" xlink:title="tlz::decode_view_index">
<polygon fill="white" stroke="black" points="207,-57.5 207,-76.5 326,-76.5 326,-57.5 207,-57.5"/>
<text text-anchor="middle" x="266.5" y="-64.5" font-family="Helvetica,sans-Serif" font-size="10.00">tlz::decode_view_index</text>
</a>
</g>
</g>
<!-- Node1&#45;&gt;Node2 -->
<g id="edge1" class="edge"><title>Node1&#45;&gt;Node2</title>
<path fill="none" stroke="midnightblue" d="M156.203,-55.8652C169.698,-57.24 183.656,-58.662 196.899,-60.0112"/>
<polygon fill="midnightblue" stroke="midnightblue" points="196.564,-63.4951 206.868,-61.0267 197.274,-56.5311 196.564,-63.4951"/>
</g>
<!-- Node3 -->
<g id="node3" class="node"><title>Node3</title>
<g id="a_node3"><a xlink:href="namespacetlz.html#acc042de1df74e590015a1efe234a338c" target="_top" xlink:title="tlz::decode_view_homography">
<polygon fill="white" stroke="black" points="192,-19.5 192,-38.5 341,-38.5 341,-19.5 192,-19.5"/>
<text text-anchor="middle" x="266.5" y="-26.5" font-family="Helvetica,sans-Serif" font-size="10.00">tlz::decode_view_homography</text>
</a>
</g>
</g>
<!-- Node1&#45;&gt;Node3 -->
<g id="edge2" class="edge"><title>Node1&#45;&gt;Node3</title>
<path fill="none" stroke="midnightblue" d="M156.203,-40.1348C164.702,-39.269 173.384,-38.3844 181.956,-37.5112"/>
<polygon fill="midnightblue" stroke="midnightblue" points="182.357,-40.9886 191.95,-36.493 181.647,-34.0246 182.357,-40.9886"/>
</g>
<!-- Node4 -->
<g id="node4" class="node"><title>Node4</title>
<g id="a_node4"><a xlink:href="namespacetlz.html#a066563a26e2de02f215b179f3d3a53da" target="_top" xlink:title="tlz::decode_mat">
<polygon fill="white" stroke="black" points="377,-38.5 377,-57.5 463,-57.5 463,-38.5 377,-38.5"/>
<text text-anchor="middle" x="420" y="-45.5" font-family="Helvetica,sans-Serif" font-size="10.00">tlz::decode_mat</text>
</a>
</g>
</g>
<!-- Node3&#45;&gt;Node4 -->
<g id="edge3" class="edge"><title>Node3&#45;&gt;Node4</title>
<path fill="none" stroke="midnightblue" d="M341.031,-38.2217C349.619,-39.2987 358.244,-40.3804 366.466,-41.4115"/>
<polygon fill="midnightblue" stroke="midnightblue" points="366.273,-44.9147 376.63,-42.6863 367.144,-37.9691 366.273,-44.9147"/>
</g>
<!-- Node5 -->
<g id="node5" class="node"><title>Node5</title>
<g id="a_node5"><a xlink:href="namespacetlz.html#add846dc50c32dfb356cb1a7ac11d37ac" target="_top" xlink:title="tlz::get_or">
<polygon fill="white" stroke="black" points="390,-0.5 390,-19.5 450,-19.5 450,-0.5 390,-0.5"/>
<text text-anchor="middle" x="420" y="-7.5" font-family="Helvetica,sans-Serif" font-size="10.00">tlz::get_or</text>
</a>
</g>
</g>
<!-- Node3&#45;&gt;Node5 -->
<g id="edge4" class="edge"><title>Node3&#45;&gt;Node5</title>
<path fill="none" stroke="midnightblue" d="M341.031,-19.7783C354.442,-18.0963 367.946,-16.4028 379.86,-14.9087"/>
<polygon fill="midnightblue" stroke="midnightblue" points="380.391,-18.3696 389.878,-13.6523 379.52,-11.424 380.391,-18.3696"/>
</g>
<!-- Node6 -->
<g id="node6" class="node"><title>Node6</title>
<g id="a_node6"><a xlink:href="namespacetlz.html#a252af14b9b4ac6502d3e9c5dd8dc90b8" target="_top" xlink:title="tlz::has">
<polygon fill="white" stroke="black" points="499,-0.5 499,-19.5 548,-19.5 548,-0.5 499,-0.5"/>
<text text-anchor="middle" x="523.5" y="-7.5" font-family="Helvetica,sans-Serif" font-size="10.00">tlz::has</text>
</a>
</g>
</g>
<!-- Node5&#45;&gt;Node6 -->
<g id="edge5" class="edge"><title>Node5&#45;&gt;Node6</title>
<path fill="none" stroke="midnightblue" d="M450.086,-10C462.168,-10 476.267,-10 488.797,-10"/>
<polygon fill="midnightblue" stroke="midnightblue" points="488.875,-13.5001 498.875,-10 488.875,-6.5001 488.875,-13.5001"/>
</g>
</g>
</svg>
