<?xml version="1.0" encoding="UTF-8" standalone="no"?>
<!DOCTYPE svg PUBLIC "-//W3C//DTD SVG 1.1//EN"
 "http://www.w3.org/Graphics/SVG/1.1/DTD/svg11.dtd">
<!-- Generated by graphviz version 2.38.0 (20140413.2041)
 -->
<!-- Title: tlz::detect_ir_checkerboard Pages: 1 -->
<svg width="276pt" height="88pt"
 viewBox="0.00 0.00 276.00 88.00" xmlns="http://www.w3.org/2000/svg" xmlns:xlink="http://www.w3.org/1999/xlink">
<g id="graph0" class="graph" transform="scale(1 1) rotate(0) translate(4 84)">
<title>tlz::detect_ir_checkerboard</title>
<polygon fill="white" stroke="none" points="-4,4 -4,-84 272,-84 272,4 -4,4"/>
<!-- Node1 -->
<g id="node1" class="node"><title>Node1</title>
<polygon fill="#bfbfbf" stroke="black" points="0,-30 0,-49 134,-49 134,-30 0,-30"/>
<text text-anchor="middle" x="67" y="-37" font-family="Helvetica,sans-Serif" font-size="10.00">tlz::detect_ir_checkerboard</text>
</g>
<!-- Node2 -->
<g id="node2" class="node"><title>Node2</title>
<g id="a_node2"><a xlink:href="structtlz_1_1checkerboard.html#a44b150a25091e74cfaec42635d392369" target="_top" xlink:title="tlz::checkerboard::\lcheckerboard">
<polygon fill="white" stroke="black" points="170,-49.5 170,-79.5 268,-79.5 268,-49.5 170,-49.5"/>
<text text-anchor="start" x="178" y="-67.5" font-family="Helvetica,sans-Serif" font-size="10.00">tlz::checkerboard::</text>
<text text-anchor="middle" x="219" y="-56.5" font-family="Helvetica,sans-Serif" font-size="10.00">checkerboard</text>
</a>
</g>
</g>
<!-- Node1&#45;&gt;Node2 -->
<g id="edge1" class="edge"><title>Node1&#45;&gt;Node2</title>
<path fill="none" stroke="midnightblue" d="M125.136,-49.0227C136.535,-50.9225 148.517,-52.9196 159.946,-54.8244"/>
<polygon fill="midnightblue" stroke="midnightblue" points="159.379,-58.278 169.818,-56.4697 160.53,-51.3733 159.379,-58.278"/>
</g>
<!-- Node3 -->
<g id="node3" class="node"><title>Node3</title>
<g id="a_node3"><a xlink:href="structtlz_1_1checkerboard.html#aa0961b41552bc73fc4f75d2dca128637" target="_top" xlink:title="tlz::checkerboard::\lcorner">
<polygon fill="white" stroke="black" points="170,-0.5 170,-30.5 268,-30.5 268,-0.5 170,-0.5"/>
<text text-anchor="start" x="178" y="-18.5" font-family="Helvetica,sans-Serif" font-size="10.00">tlz::checkerboard::</text>
<text text-anchor="middle" x="219" y="-7.5" font-family="Helvetica,sans-Serif" font-size="10.00">corner</text>
</a>
</g>
</g>
<!-- Node1&#45;&gt;Node3 -->
<g id="edge2" class="edge"><title>Node1&#45;&gt;Node3</title>
<path fill="none" stroke="midnightblue" d="M127.715,-29.9456C138.24,-28.2616 149.185,-26.5104 159.671,-24.8326"/>
<polygon fill="midnightblue" stroke="midnightblue" points="160.235,-28.287 169.557,-23.2509 159.129,-21.3749 160.235,-28.287"/>
</g>
</g>
</svg>
