<?xml version="1.0" encoding="UTF-8" standalone="no"?>
<!DOCTYPE svg PUBLIC "-//W3C//DTD SVG 1.1//EN"
 "http://www.w3.org/Graphics/SVG/1.1/DTD/svg11.dtd">
<!-- Generated by graphviz version 2.38.0 (20140413.2041)
 -->
<!-- Title: tlz::out_dirname_opt_arg Pages: 1 -->
<svg width="690pt" height="180pt"
 viewBox="0.00 0.00 690.00 179.71" xmlns="http://www.w3.org/2000/svg" xmlns:xlink="http://www.w3.org/1999/xlink">
<g id="graph0" class="graph" transform="scale(1 1) rotate(0) translate(4 175.707)">
<title>tlz::out_dirname_opt_arg</title>
<polygon fill="white" stroke="none" points="-4,4 -4,-175.707 686,-175.707 686,4 -4,4"/>
<!-- Node1 -->
<g id="node1" class="node"><title>Node1</title>
<polygon fill="#bfbfbf" stroke="black" points="0,-88 0,-107 124,-107 124,-88 0,-88"/>
<text text-anchor="middle" x="62" y="-95" font-family="Helvetica,sans-Serif" font-size="10.00">tlz::out_dirname_opt_arg</text>
</g>
<!-- Node2 -->
<g id="node2" class="node"><title>Node2</title>
<g id="a_node2"><a xlink:href="namespacetlz.html#a780431daab8d2595372eacb43143b52d" target="_top" xlink:title="tlz::args">
<polygon fill="white" stroke="black" points="443.5,-148 443.5,-167 495.5,-167 495.5,-148 443.5,-148"/>
<text text-anchor="middle" x="469.5" y="-155" font-family="Helvetica,sans-Serif" font-size="10.00">tlz::args</text>
</a>
</g>
</g>
<!-- Node1&#45;&gt;Node2 -->
<g id="edge1" class="edge"><title>Node1&#45;&gt;Node2</title>
<path fill="none" stroke="midnightblue" d="M74.6131,-107.104C91.9283,-120.742 126.12,-145.105 160,-154.5 255.722,-181.043 374.659,-170.703 432.94,-162.989"/>
<polygon fill="midnightblue" stroke="midnightblue" points="433.668,-166.421 443.097,-161.588 432.712,-159.487 433.668,-166.421"/>
</g>
<!-- Node3 -->
<g id="node3" class="node"><title>Node3</title>
<g id="a_node3"><a xlink:href="classtlz_1_1args__list.html#a4aee93f4b0d9b5b4e7a5d13cb637337c" target="_top" xlink:title="tlz::args_list::has\l_next_arg">
<polygon fill="white" stroke="black" points="166.5,-0.5 166.5,-30.5 258.5,-30.5 258.5,-0.5 166.5,-0.5"/>
<text text-anchor="start" x="174.5" y="-18.5" font-family="Helvetica,sans-Serif" font-size="10.00">tlz::args_list::has</text>
<text text-anchor="middle" x="212.5" y="-7.5" font-family="Helvetica,sans-Serif" font-size="10.00">_next_arg</text>
</a>
</g>
</g>
<!-- Node1&#45;&gt;Node3 -->
<g id="edge2" class="edge"><title>Node1&#45;&gt;Node3</title>
<path fill="none" stroke="midnightblue" d="M80.3255,-87.9331C103.484,-75.1453 145.106,-52.162 175.267,-35.5074"/>
<polygon fill="midnightblue" stroke="midnightblue" points="177.164,-38.4581 184.226,-30.5602 173.78,-32.3302 177.164,-38.4581"/>
</g>
<!-- Node4 -->
<g id="node4" class="node"><title>Node4</title>
<g id="a_node4"><a xlink:href="classtlz_1_1args__list.html#ae7c07d1c8f24c2aa4fe0ba68ec45d353" target="_top" xlink:title="tlz::args_list::next\l_arg_is">
<polygon fill="white" stroke="black" points="422,-44.5 422,-74.5 517,-74.5 517,-44.5 422,-44.5"/>
<text text-anchor="start" x="430" y="-62.5" font-family="Helvetica,sans-Serif" font-size="10.00">tlz::args_list::next</text>
<text text-anchor="middle" x="469.5" y="-51.5" font-family="Helvetica,sans-Serif" font-size="10.00">_arg_is</text>
</a>
</g>
</g>
<!-- Node1&#45;&gt;Node4 -->
<g id="edge3" class="edge"><title>Node1&#45;&gt;Node4</title>
<path fill="none" stroke="midnightblue" d="M124.146,-91.7699C202.015,-84.4727 335.542,-71.9597 411.415,-64.8496"/>
<polygon fill="midnightblue" stroke="midnightblue" points="412.096,-68.3011 421.726,-63.8832 411.443,-61.3316 412.096,-68.3011"/>
</g>
<!-- Node7 -->
<g id="node7" class="node"><title>Node7</title>
<g id="a_node7"><a xlink:href="classtlz_1_1args__list.html#a73d99bc75998dc14607a3a372d28dc6d" target="_top" xlink:title="tlz::args_list::next_arg">
<polygon fill="white" stroke="black" points="413,-94 413,-113 526,-113 526,-94 413,-94"/>
<text text-anchor="middle" x="469.5" y="-101" font-family="Helvetica,sans-Serif" font-size="10.00">tlz::args_list::next_arg</text>
</a>
</g>
</g>
<!-- Node1&#45;&gt;Node7 -->
<g id="edge6" class="edge"><title>Node1&#45;&gt;Node7</title>
<path fill="none" stroke="midnightblue" d="M124.146,-98.4048C199.104,-99.5139 325.636,-101.386 402.669,-102.526"/>
<polygon fill="midnightblue" stroke="midnightblue" points="402.686,-106.026 412.737,-102.675 402.79,-99.0272 402.686,-106.026"/>
</g>
<!-- Node8 -->
<g id="node8" class="node"><title>Node8</title>
<g id="a_node8"><a xlink:href="namespacetlz.html#a0783a9e66143c507b2680fc68834657c" target="_top" xlink:title="tlz::out_dirname_arg">
<polygon fill="white" stroke="black" points="160,-126 160,-145 265,-145 265,-126 160,-126"/>
<text text-anchor="middle" x="212.5" y="-133" font-family="Helvetica,sans-Serif" font-size="10.00">tlz::out_dirname_arg</text>
</a>
</g>
</g>
<!-- Node1&#45;&gt;Node8 -->
<g id="edge9" class="edge"><title>Node1&#45;&gt;Node8</title>
<path fill="none" stroke="midnightblue" d="M100.473,-107.089C119.892,-112.058 143.802,-118.177 164.454,-123.461"/>
<polygon fill="midnightblue" stroke="midnightblue" points="163.741,-126.892 174.297,-125.98 165.476,-120.11 163.741,-126.892"/>
</g>
<!-- Node5 -->
<g id="node5" class="node"><title>Node5</title>
<g id="a_node5"><a xlink:href="classtlz_1_1args__list.html#a38ad21acd64a4af98ffdf4a47837cdbe" target="_top" xlink:title="tlz::args_list::usage_fail">
<polygon fill="white" stroke="black" points="562,-92 562,-111 682,-111 682,-92 562,-92"/>
<text text-anchor="middle" x="622" y="-99" font-family="Helvetica,sans-Serif" font-size="10.00">tlz::args_list::usage_fail</text>
</a>
</g>
</g>
<!-- Node4&#45;&gt;Node5 -->
<g id="edge4" class="edge"><title>Node4&#45;&gt;Node5</title>
<path fill="none" stroke="midnightblue" d="M517.294,-72.5588C536.311,-77.8659 558.172,-83.9666 576.905,-89.1943"/>
<polygon fill="midnightblue" stroke="midnightblue" points="576.094,-92.6018 586.667,-91.9186 577.976,-85.8594 576.094,-92.6018"/>
</g>
<!-- Node6 -->
<g id="node6" class="node"><title>Node6</title>
<g id="a_node6"><a xlink:href="namespacetlz.html#a8e4f8c8c2927bc4350de13bfa0f8f9e1" target="_top" xlink:title="tlz::to_string">
<polygon fill="white" stroke="black" points="586.5,-53 586.5,-72 657.5,-72 657.5,-53 586.5,-53"/>
<text text-anchor="middle" x="622" y="-60" font-family="Helvetica,sans-Serif" font-size="10.00">tlz::to_string</text>
</a>
</g>
</g>
<!-- Node4&#45;&gt;Node6 -->
<g id="edge5" class="edge"><title>Node4&#45;&gt;Node6</title>
<path fill="none" stroke="midnightblue" d="M517.294,-60.4328C535.991,-60.8055 557.437,-61.233 575.956,-61.6021"/>
<polygon fill="midnightblue" stroke="midnightblue" points="576.124,-65.1061 586.192,-61.8061 576.263,-58.1074 576.124,-65.1061"/>
</g>
<!-- Node7&#45;&gt;Node5 -->
<g id="edge7" class="edge"><title>Node7&#45;&gt;Node5</title>
<path fill="none" stroke="midnightblue" d="M526.113,-102.761C534.479,-102.65 543.192,-102.534 551.8,-102.42"/>
<polygon fill="midnightblue" stroke="midnightblue" points="551.876,-105.919 561.828,-102.286 551.782,-98.9196 551.876,-105.919"/>
</g>
<!-- Node7&#45;&gt;Node6 -->
<g id="edge8" class="edge"><title>Node7&#45;&gt;Node6</title>
<path fill="none" stroke="midnightblue" d="M505.406,-93.9907C526.585,-88.2209 553.819,-80.8019 576.531,-74.6144"/>
<polygon fill="midnightblue" stroke="midnightblue" points="577.555,-77.9632 586.283,-71.9577 575.715,-71.2093 577.555,-77.9632"/>
</g>
<!-- Node9 -->
<g id="node9" class="node"><title>Node9</title>
<g id="a_node9"><a xlink:href="namespacetlz.html#a0621d598fb83b13bf028f3e6293d04f8" target="_top" xlink:title="tlz::string_arg">
<polygon fill="white" stroke="black" points="301,-126 301,-145 377,-145 377,-126 301,-126"/>
<text text-anchor="middle" x="339" y="-133" font-family="Helvetica,sans-Serif" font-size="10.00">tlz::string_arg</text>
</a>
</g>
</g>
<!-- Node8&#45;&gt;Node9 -->
<g id="edge10" class="edge"><title>Node8&#45;&gt;Node9</title>
<path fill="none" stroke="midnightblue" d="M265.218,-135.5C273.579,-135.5 282.202,-135.5 290.458,-135.5"/>
<polygon fill="midnightblue" stroke="midnightblue" points="290.674,-139 300.674,-135.5 290.674,-132 290.674,-139"/>
</g>
<!-- Node9&#45;&gt;Node2 -->
<g id="edge11" class="edge"><title>Node9&#45;&gt;Node2</title>
<path fill="none" stroke="midnightblue" d="M377.168,-141.863C394.723,-144.869 415.581,-148.44 432.928,-151.41"/>
<polygon fill="midnightblue" stroke="midnightblue" points="432.768,-154.933 443.216,-153.171 433.95,-148.034 432.768,-154.933"/>
</g>
<!-- Node9&#45;&gt;Node7 -->
<g id="edge12" class="edge"><title>Node9&#45;&gt;Node7</title>
<path fill="none" stroke="midnightblue" d="M377.168,-126.244C390.528,-122.917 405.801,-119.114 419.984,-115.582"/>
<polygon fill="midnightblue" stroke="midnightblue" points="421.218,-118.881 430.076,-113.069 419.527,-112.089 421.218,-118.881"/>
</g>
</g>
</svg>
