<?xml version="1.0" encoding="UTF-8" standalone="no"?>
<!DOCTYPE svg PUBLIC "-//W3C//DTD SVG 1.1//EN"
 "http://www.w3.org/Graphics/SVG/1.1/DTD/svg11.dtd">
<!-- Generated by graphviz version 2.38.0 (20140413.2041)
 -->
<!-- Title: tlz::references_grid_arg Pages: 1 -->
<svg width="855pt" height="142pt"
 viewBox="0.00 0.00 855.00 142.00" xmlns="http://www.w3.org/2000/svg" xmlns:xlink="http://www.w3.org/1999/xlink">
<g id="graph0" class="graph" transform="scale(1 1) rotate(0) translate(4 138)">
<title>tlz::references_grid_arg</title>
<polygon fill="white" stroke="none" points="-4,4 -4,-138 851,-138 851,4 -4,4"/>
<!-- Node1 -->
<g id="node1" class="node"><title>Node1</title>
<polygon fill="#bfbfbf" stroke="black" points="0,-95.5 0,-114.5 119,-114.5 119,-95.5 0,-95.5"/>
<text text-anchor="middle" x="59.5" y="-102.5" font-family="Helvetica,sans-Serif" font-size="10.00">tlz::references_grid_arg</text>
</g>
<!-- Node2 -->
<g id="node2" class="node"><title>Node2</title>
<g id="a_node2"><a xlink:href="namespacetlz.html#a01838f5b78a259fcff3c50ad9567f6c8" target="_top" xlink:title="tlz::decode_references_grid">
<polygon fill="white" stroke="black" points="155,-114.5 155,-133.5 292,-133.5 292,-114.5 155,-114.5"/>
<text text-anchor="middle" x="223.5" y="-121.5" font-family="Helvetica,sans-Serif" font-size="10.00">tlz::decode_references_grid</text>
</a>
</g>
</g>
<!-- Node1&#45;&gt;Node2 -->
<g id="edge1" class="edge"><title>Node1&#45;&gt;Node2</title>
<path fill="none" stroke="midnightblue" d="M119.444,-111.913C127.702,-112.882 136.291,-113.889 144.831,-114.891"/>
<polygon fill="midnightblue" stroke="midnightblue" points="144.471,-118.372 154.81,-116.061 145.286,-111.42 144.471,-118.372"/>
</g>
<!-- Node3 -->
<g id="node3" class="node"><title>Node3</title>
<g id="a_node3"><a xlink:href="namespacetlz.html#a35f9e03fa4fd9cec699f5fa27962400f" target="_top" xlink:title="tlz::json_arg">
<polygon fill="white" stroke="black" points="188.5,-76.5 188.5,-95.5 258.5,-95.5 258.5,-76.5 188.5,-76.5"/>
<text text-anchor="middle" x="223.5" y="-83.5" font-family="Helvetica,sans-Serif" font-size="10.00">tlz::json_arg</text>
</a>
</g>
</g>
<!-- Node1&#45;&gt;Node3 -->
<g id="edge2" class="edge"><title>Node1&#45;&gt;Node3</title>
<path fill="none" stroke="midnightblue" d="M119.444,-98.0868C138.895,-95.8056 160.182,-93.3089 178.334,-91.18"/>
<polygon fill="midnightblue" stroke="midnightblue" points="178.818,-94.6473 188.342,-90.0062 178.002,-87.695 178.818,-94.6473"/>
</g>
<!-- Node4 -->
<g id="node4" class="node"><title>Node4</title>
<g id="a_node4"><a xlink:href="namespacetlz.html#aa1be9362f548fcf9378e1fc9074089c4" target="_top" xlink:title="tlz::import_json_file">
<polygon fill="white" stroke="black" points="328,-95.5 328,-114.5 429,-114.5 429,-95.5 328,-95.5"/>
<text text-anchor="middle" x="378.5" y="-102.5" font-family="Helvetica,sans-Serif" font-size="10.00">tlz::import_json_file</text>
</a>
</g>
</g>
<!-- Node3&#45;&gt;Node4 -->
<g id="edge3" class="edge"><title>Node3&#45;&gt;Node4</title>
<path fill="none" stroke="midnightblue" d="M258.836,-90.264C276.247,-92.4261 297.895,-95.1144 317.916,-97.6006"/>
<polygon fill="midnightblue" stroke="midnightblue" points="317.54,-101.081 327.895,-98.84 318.403,-94.1342 317.54,-101.081"/>
</g>
<!-- Node5 -->
<g id="node5" class="node"><title>Node5</title>
<g id="a_node5"><a xlink:href="namespacetlz.html#a634de7ca11e100e4a118dffe80376a75" target="_top" xlink:title="tlz::in_filename_arg">
<polygon fill="white" stroke="black" points="328,-57.5 328,-76.5 429,-76.5 429,-57.5 328,-57.5"/>
<text text-anchor="middle" x="378.5" y="-64.5" font-family="Helvetica,sans-Serif" font-size="10.00">tlz::in_filename_arg</text>
</a>
</g>
</g>
<!-- Node3&#45;&gt;Node5 -->
<g id="edge4" class="edge"><title>Node3&#45;&gt;Node5</title>
<path fill="none" stroke="midnightblue" d="M258.836,-81.736C276.247,-79.5739 297.895,-76.8856 317.916,-74.3994"/>
<polygon fill="midnightblue" stroke="midnightblue" points="318.403,-77.8658 327.895,-73.16 317.54,-70.9192 318.403,-77.8658"/>
</g>
<!-- Node6 -->
<g id="node6" class="node"><title>Node6</title>
<g id="a_node6"><a xlink:href="namespacetlz.html#a0621d598fb83b13bf028f3e6293d04f8" target="_top" xlink:title="tlz::string_arg">
<polygon fill="white" stroke="black" points="465.5,-76.5 465.5,-95.5 541.5,-95.5 541.5,-76.5 465.5,-76.5"/>
<text text-anchor="middle" x="503.5" y="-83.5" font-family="Helvetica,sans-Serif" font-size="10.00">tlz::string_arg</text>
</a>
</g>
</g>
<!-- Node5&#45;&gt;Node6 -->
<g id="edge5" class="edge"><title>Node5&#45;&gt;Node6</title>
<path fill="none" stroke="midnightblue" d="M429.174,-74.6733C437.706,-75.9912 446.554,-77.358 455.027,-78.6667"/>
<polygon fill="midnightblue" stroke="midnightblue" points="454.712,-82.1595 465.129,-80.2272 455.781,-75.2416 454.712,-82.1595"/>
</g>
<!-- Node7 -->
<g id="node7" class="node"><title>Node7</title>
<g id="a_node7"><a xlink:href="namespacetlz.html#a780431daab8d2595372eacb43143b52d" target="_top" xlink:title="tlz::args">
<polygon fill="white" stroke="black" points="608.5,-114.5 608.5,-133.5 660.5,-133.5 660.5,-114.5 608.5,-114.5"/>
<text text-anchor="middle" x="634.5" y="-121.5" font-family="Helvetica,sans-Serif" font-size="10.00">tlz::args</text>
</a>
</g>
</g>
<!-- Node5&#45;&gt;Node7 -->
<g id="edge11" class="edge"><title>Node5&#45;&gt;Node7</title>
<path fill="none" stroke="midnightblue" d="M406.201,-76.5811C413.655,-79.4357 421.708,-82.6902 429,-86 445.474,-93.477 447.711,-99.6716 465,-105 509.617,-118.751 563.622,-122.756 598.259,-123.813"/>
<polygon fill="midnightblue" stroke="midnightblue" points="598.274,-127.315 608.354,-124.054 598.441,-120.317 598.274,-127.315"/>
</g>
<!-- Node9 -->
<g id="node9" class="node"><title>Node9</title>
<g id="a_node9"><a xlink:href="classtlz_1_1args__list.html#a38ad21acd64a4af98ffdf4a47837cdbe" target="_top" xlink:title="tlz::args_list::usage_fail">
<polygon fill="white" stroke="black" points="727,-38.5 727,-57.5 847,-57.5 847,-38.5 727,-38.5"/>
<text text-anchor="middle" x="787" y="-45.5" font-family="Helvetica,sans-Serif" font-size="10.00">tlz::args_list::usage_fail</text>
</a>
</g>
</g>
<!-- Node5&#45;&gt;Node9 -->
<g id="edge12" class="edge"><title>Node5&#45;&gt;Node9</title>
<path fill="none" stroke="midnightblue" d="M429.345,-64.6702C501.419,-61.3015 635.021,-55.0568 716.668,-51.2406"/>
<polygon fill="midnightblue" stroke="midnightblue" points="717.025,-54.7278 726.851,-50.7647 716.698,-47.7355 717.025,-54.7278"/>
</g>
<!-- Node11 -->
<g id="node11" class="node"><title>Node11</title>
<g id="a_node11"><a xlink:href="namespacetlz.html#abb019466ea9f56c0dab27e893d891837" target="_top" xlink:title="tlz::file_exists">
<polygon fill="white" stroke="black" points="465,-0.5 465,-19.5 542,-19.5 542,-0.5 465,-0.5"/>
<text text-anchor="middle" x="503.5" y="-7.5" font-family="Helvetica,sans-Serif" font-size="10.00">tlz::file_exists</text>
</a>
</g>
</g>
<!-- Node5&#45;&gt;Node11 -->
<g id="edge10" class="edge"><title>Node5&#45;&gt;Node11</title>
<path fill="none" stroke="midnightblue" d="M400.087,-57.4595C419.954,-48.2528 450.246,-34.2153 472.737,-23.7926"/>
<polygon fill="midnightblue" stroke="midnightblue" points="474.244,-26.9519 481.845,-19.5716 471.301,-20.6007 474.244,-26.9519"/>
</g>
<!-- Node6&#45;&gt;Node7 -->
<g id="edge6" class="edge"><title>Node6&#45;&gt;Node7</title>
<path fill="none" stroke="midnightblue" d="M537.052,-95.589C555.78,-101.106 579.314,-108.038 598.447,-113.674"/>
<polygon fill="midnightblue" stroke="midnightblue" points="597.701,-117.103 608.283,-116.572 599.679,-110.389 597.701,-117.103"/>
</g>
<!-- Node8 -->
<g id="node8" class="node"><title>Node8</title>
<g id="a_node8"><a xlink:href="classtlz_1_1args__list.html#a73d99bc75998dc14607a3a372d28dc6d" target="_top" xlink:title="tlz::args_list::next_arg">
<polygon fill="white" stroke="black" points="578,-76.5 578,-95.5 691,-95.5 691,-76.5 578,-76.5"/>
<text text-anchor="middle" x="634.5" y="-83.5" font-family="Helvetica,sans-Serif" font-size="10.00">tlz::args_list::next_arg</text>
</a>
</g>
</g>
<!-- Node6&#45;&gt;Node8 -->
<g id="edge7" class="edge"><title>Node6&#45;&gt;Node8</title>
<path fill="none" stroke="midnightblue" d="M541.812,-86C549.835,-86 558.544,-86 567.295,-86"/>
<polygon fill="midnightblue" stroke="midnightblue" points="567.549,-89.5001 577.549,-86 567.549,-82.5001 567.549,-89.5001"/>
</g>
<!-- Node8&#45;&gt;Node9 -->
<g id="edge8" class="edge"><title>Node8&#45;&gt;Node9</title>
<path fill="none" stroke="midnightblue" d="M673.478,-76.411C693.159,-71.4417 717.391,-65.3233 738.321,-60.0387"/>
<polygon fill="midnightblue" stroke="midnightblue" points="739.457,-63.3617 748.296,-57.5201 737.743,-56.5747 739.457,-63.3617"/>
</g>
<!-- Node10 -->
<g id="node10" class="node"><title>Node10</title>
<g id="a_node10"><a xlink:href="namespacetlz.html#a8e4f8c8c2927bc4350de13bfa0f8f9e1" target="_top" xlink:title="tlz::to_string">
<polygon fill="white" stroke="black" points="751.5,-76.5 751.5,-95.5 822.5,-95.5 822.5,-76.5 751.5,-76.5"/>
<text text-anchor="middle" x="787" y="-83.5" font-family="Helvetica,sans-Serif" font-size="10.00">tlz::to_string</text>
</a>
</g>
</g>
<!-- Node8&#45;&gt;Node10 -->
<g id="edge9" class="edge"><title>Node8&#45;&gt;Node10</title>
<path fill="none" stroke="midnightblue" d="M691.113,-86C707.441,-86 725.096,-86 740.698,-86"/>
<polygon fill="midnightblue" stroke="midnightblue" points="741.13,-89.5001 751.13,-86 741.129,-82.5001 741.13,-89.5001"/>
</g>
</g>
</svg>
