<?xml version="1.0" encoding="UTF-8" standalone="no"?>
<!DOCTYPE svg PUBLIC "-//W3C//DTD SVG 1.1//EN"
 "http://www.w3.org/Graphics/SVG/1.1/DTD/svg11.dtd">
<!-- Generated by graphviz version 2.38.0 (20140413.2041)
 -->
<!-- Title: tlz::checkerboard_reprojection_error Pages: 1 -->
<svg width="452pt" height="291pt"
 viewBox="0.00 0.00 452.00 290.50" xmlns="http://www.w3.org/2000/svg" xmlns:xlink="http://www.w3.org/1999/xlink">
<g id="graph0" class="graph" transform="scale(1 1) rotate(0) translate(4 286.5)">
<title>tlz::checkerboard_reprojection_error</title>
<polygon fill="white" stroke="none" points="-4,4 -4,-286.5 448,-286.5 448,4 -4,4"/>
<!-- Node1 -->
<g id="node1" class="node"><title>Node1</title>
<polygon fill="#bfbfbf" stroke="black" points="0,-154 0,-184 147,-184 147,-154 0,-154"/>
<text text-anchor="start" x="8" y="-172" font-family="Helvetica,sans-Serif" font-size="10.00">tlz::checkerboard_reprojection</text>
<text text-anchor="middle" x="73.5" y="-161" font-family="Helvetica,sans-Serif" font-size="10.00">_error</text>
</g>
<!-- Node2 -->
<g id="node2" class="node"><title>Node2</title>
<g id="a_node2"><a xlink:href="namespacetlz.html#acc37da60bde41595da4139110c2d36e6" target="_top" xlink:title="tlz::checkerboard_world\l_corners">
<polygon fill="white" stroke="black" points="186.5,-252 186.5,-282 306.5,-282 306.5,-252 186.5,-252"/>
<text text-anchor="start" x="194.5" y="-270" font-family="Helvetica,sans-Serif" font-size="10.00">tlz::checkerboard_world</text>
<text text-anchor="middle" x="246.5" y="-259" font-family="Helvetica,sans-Serif" font-size="10.00">_corners</text>
</a>
</g>
</g>
<!-- Node1&#45;&gt;Node2 -->
<g id="edge1" class="edge"><title>Node1&#45;&gt;Node2</title>
<path fill="none" stroke="midnightblue" d="M93.6333,-184.079C114.665,-200.157 149.877,-225.646 183,-243 186.227,-244.691 189.601,-246.327 193.037,-247.897"/>
<polygon fill="midnightblue" stroke="midnightblue" points="191.654,-251.113 202.221,-251.891 194.446,-244.693 191.654,-251.113"/>
</g>
<!-- Node3 -->
<g id="node3" class="node"><title>Node3</title>
<g id="a_node3"><a xlink:href="namespacetlz.html#a6693dca816d6f48429d1c607ced26f3b" target="_top" xlink:title="tlz::checkerboard_image\l_corners">
<polygon fill="white" stroke="black" points="185,-203 185,-233 308,-233 308,-203 185,-203"/>
<text text-anchor="start" x="193" y="-221" font-family="Helvetica,sans-Serif" font-size="10.00">tlz::checkerboard_image</text>
<text text-anchor="middle" x="246.5" y="-210" font-family="Helvetica,sans-Serif" font-size="10.00">_corners</text>
</a>
</g>
</g>
<!-- Node1&#45;&gt;Node3 -->
<g id="edge2" class="edge"><title>Node1&#45;&gt;Node3</title>
<path fill="none" stroke="midnightblue" d="M127.201,-184.101C144.919,-189.179 164.852,-194.89 183.234,-200.158"/>
<polygon fill="midnightblue" stroke="midnightblue" points="182.396,-203.558 192.973,-202.948 184.324,-196.829 182.396,-203.558"/>
</g>
<!-- Node4 -->
<g id="node4" class="node"><title>Node4</title>
<g id="a_node4"><a xlink:href="structtlz_1_1distortion__parameters.html#a96312c5d7baa4b7b1f2a76e9396037f8" target="_top" xlink:title="tlz::distortion_parameters\l::cv_coeffs">
<polygon fill="white" stroke="black" points="183,-154 183,-184 310,-184 310,-154 183,-154"/>
<text text-anchor="start" x="191" y="-172" font-family="Helvetica,sans-Serif" font-size="10.00">tlz::distortion_parameters</text>
<text text-anchor="middle" x="246.5" y="-161" font-family="Helvetica,sans-Serif" font-size="10.00">::cv_coeffs</text>
</a>
</g>
</g>
<!-- Node1&#45;&gt;Node4 -->
<g id="edge3" class="edge"><title>Node1&#45;&gt;Node4</title>
<path fill="none" stroke="midnightblue" d="M147.019,-169C155.497,-169 164.149,-169 172.631,-169"/>
<polygon fill="midnightblue" stroke="midnightblue" points="172.871,-172.5 182.871,-169 172.871,-165.5 172.871,-172.5"/>
</g>
<!-- Node5 -->
<g id="node5" class="node"><title>Node5</title>
<g id="a_node5"><a xlink:href="structtlz_1_1checkerboard.html#aefd2234a4be7f364920076cdd8a977f1" target="_top" xlink:title="tlz::checkerboard::\lcorners_count">
<polygon fill="white" stroke="black" points="197.5,-105 197.5,-135 295.5,-135 295.5,-105 197.5,-105"/>
<text text-anchor="start" x="205.5" y="-123" font-family="Helvetica,sans-Serif" font-size="10.00">tlz::checkerboard::</text>
<text text-anchor="middle" x="246.5" y="-112" font-family="Helvetica,sans-Serif" font-size="10.00">corners_count</text>
</a>
</g>
</g>
<!-- Node1&#45;&gt;Node5 -->
<g id="edge4" class="edge"><title>Node1&#45;&gt;Node5</title>
<path fill="none" stroke="midnightblue" d="M127.201,-153.899C146.341,-148.414 168.067,-142.188 187.63,-136.583"/>
<polygon fill="midnightblue" stroke="midnightblue" points="188.688,-139.92 197.337,-133.801 186.76,-133.191 188.688,-139.92"/>
</g>
<!-- Node7 -->
<g id="node7" class="node"><title>Node7</title>
<g id="a_node7"><a xlink:href="namespacetlz.html#a318f0ec11ecbe39c32ad870473ea9c35" target="_top" xlink:title="Compute square of a number. ">
<polygon fill="white" stroke="black" points="224.5,-47.5 224.5,-66.5 268.5,-66.5 268.5,-47.5 224.5,-47.5"/>
<text text-anchor="middle" x="246.5" y="-54.5" font-family="Helvetica,sans-Serif" font-size="10.00">tlz::sq</text>
</a>
</g>
</g>
<!-- Node1&#45;&gt;Node7 -->
<g id="edge6" class="edge"><title>Node1&#45;&gt;Node7</title>
<path fill="none" stroke="midnightblue" d="M96.3801,-153.957C118.189,-139.039 152.708,-115.633 183,-96 195.449,-87.9313 209.448,-79.1679 221.036,-71.9957"/>
<polygon fill="midnightblue" stroke="midnightblue" points="223.064,-74.8574 229.738,-66.6286 219.389,-68.8996 223.064,-74.8574"/>
</g>
<!-- Node6 -->
<g id="node6" class="node"><title>Node6</title>
<g id="a_node6"><a xlink:href="structtlz_1_1checkerboard.html#a2684fe6c45bc112b0a5c3d6e833ba22e" target="_top" xlink:title="tlz::checkerboard::\louter_corners_i">
<polygon fill="white" stroke="black" points="346,-115 346,-145 444,-145 444,-115 346,-115"/>
<text text-anchor="start" x="354" y="-133" font-family="Helvetica,sans-Serif" font-size="10.00">tlz::checkerboard::</text>
<text text-anchor="middle" x="395" y="-122" font-family="Helvetica,sans-Serif" font-size="10.00">outer_corners_i</text>
</a>
</g>
</g>
<!-- Node5&#45;&gt;Node6 -->
<g id="edge5" class="edge"><title>Node5&#45;&gt;Node6</title>
<path fill="none" stroke="midnightblue" d="M295.876,-123.302C308.502,-124.164 322.248,-125.102 335.345,-125.996"/>
<polygon fill="midnightblue" stroke="midnightblue" points="335.46,-129.512 345.675,-126.701 335.937,-122.528 335.46,-129.512"/>
</g>
<!-- Node8 -->
<g id="node8" class="node"><title>Node8</title>
<g id="a_node8"><a xlink:href="namespacetlz.html#a643b2d03bd805fe78dcd684ef45e52fb" target="_top" xlink:title="Clamp value between minimum and maximum value. ">
<polygon fill="white" stroke="black" points="365.5,-76.5 365.5,-95.5 424.5,-95.5 424.5,-76.5 365.5,-76.5"/>
<text text-anchor="middle" x="395" y="-83.5" font-family="Helvetica,sans-Serif" font-size="10.00">tlz::clamp</text>
</a>
</g>
</g>
<!-- Node7&#45;&gt;Node8 -->
<g id="edge7" class="edge"><title>Node7&#45;&gt;Node8</title>
<path fill="none" stroke="midnightblue" d="M268.802,-61.2168C291.391,-65.6882 327.557,-72.8475 355.224,-78.3242"/>
<polygon fill="midnightblue" stroke="midnightblue" points="354.876,-81.8232 365.365,-80.3317 356.235,-74.9564 354.876,-81.8232"/>
</g>
<!-- Node9 -->
<g id="node9" class="node"><title>Node9</title>
<g id="a_node9"><a xlink:href="namespacetlz.html#a4fe5757a830e199f84d229eee11f616e" target="_top" xlink:title="Compute greatest common divisor of a and b. ">
<polygon fill="white" stroke="black" points="370.5,-38.5 370.5,-57.5 419.5,-57.5 419.5,-38.5 370.5,-38.5"/>
<text text-anchor="middle" x="395" y="-45.5" font-family="Helvetica,sans-Serif" font-size="10.00">tlz::gcd</text>
</a>
</g>
</g>
<!-- Node7&#45;&gt;Node9 -->
<g id="edge8" class="edge"><title>Node7&#45;&gt;Node9</title>
<path fill="none" stroke="midnightblue" d="M268.802,-55.6913C292.728,-54.2215 331.886,-51.8159 360.043,-50.0861"/>
<polygon fill="midnightblue" stroke="midnightblue" points="360.474,-53.5663 370.241,-49.4596 360.045,-46.5795 360.474,-53.5663"/>
</g>
<!-- Node10 -->
<g id="node10" class="node"><title>Node10</title>
<g id="a_node10"><a xlink:href="namespacetlz.html#aec6e2158ce198aa20a8493fde3d3b552" target="_top" xlink:title="Compute least common multiple of a and b. ">
<polygon fill="white" stroke="black" points="370.5,-0.5 370.5,-19.5 419.5,-19.5 419.5,-0.5 370.5,-0.5"/>
<text text-anchor="middle" x="395" y="-7.5" font-family="Helvetica,sans-Serif" font-size="10.00">tlz::lcm</text>
</a>
</g>
</g>
<!-- Node7&#45;&gt;Node10 -->
<g id="edge9" class="edge"><title>Node7&#45;&gt;Node10</title>
<path fill="none" stroke="midnightblue" d="M268.802,-50.1658C292.833,-42.4563 332.232,-29.8165 360.414,-20.7749"/>
<polygon fill="midnightblue" stroke="midnightblue" points="361.788,-24.01 370.241,-17.6224 359.65,-17.3446 361.788,-24.01"/>
</g>
</g>
</svg>
