<?xml version="1.0" encoding="UTF-8" standalone="no"?>
<!DOCTYPE svg PUBLIC "-//W3C//DTD SVG 1.1//EN"
 "http://www.w3.org/Graphics/SVG/1.1/DTD/svg11.dtd">
<!-- Generated by graphviz version 2.38.0 (20140413.2041)
 -->
<!-- Title: tlz::checkerboard_parallel_measures Pages: 1 -->
<svg width="365pt" height="116pt"
 viewBox="0.00 0.00 365.00 115.50" xmlns="http://www.w3.org/2000/svg" xmlns:xlink="http://www.w3.org/1999/xlink">
<g id="graph0" class="graph" transform="scale(1 1) rotate(0) translate(4 111.5)">
<title>tlz::checkerboard_parallel_measures</title>
<polygon fill="white" stroke="none" points="-4,4 -4,-111.5 361,-111.5 361,4 -4,4"/>
<!-- Node1 -->
<g id="node1" class="node"><title>Node1</title>
<polygon fill="#bfbfbf" stroke="black" points="0,-22.5 0,-52.5 128,-52.5 128,-22.5 0,-22.5"/>
<text text-anchor="start" x="8" y="-40.5" font-family="Helvetica,sans-Serif" font-size="10.00">tlz::checkerboard_parallel</text>
<text text-anchor="middle" x="64" y="-29.5" font-family="Helvetica,sans-Serif" font-size="10.00">_measures</text>
</g>
<!-- Node2 -->
<g id="node2" class="node"><title>Node2</title>
<g id="a_node2"><a xlink:href="namespacetlz.html#a318f0ec11ecbe39c32ad870473ea9c35" target="_top" xlink:title="Compute square of a number. ">
<polygon fill="white" stroke="black" points="191,-50 191,-69 235,-69 235,-50 191,-50"/>
<text text-anchor="middle" x="213" y="-57" font-family="Helvetica,sans-Serif" font-size="10.00">tlz::sq</text>
</a>
</g>
</g>
<!-- Node1&#45;&gt;Node2 -->
<g id="edge1" class="edge"><title>Node1&#45;&gt;Node2</title>
<path fill="none" stroke="midnightblue" d="M128.194,-46.9577C146.403,-49.6828 165.473,-52.5368 180.814,-54.8327"/>
<polygon fill="midnightblue" stroke="midnightblue" points="180.374,-58.3058 190.782,-56.3245 181.41,-51.3829 180.374,-58.3058"/>
</g>
<!-- Node6 -->
<g id="node6" class="node"><title>Node6</title>
<g id="a_node6"><a xlink:href="structtlz_1_1checkerboard.html#aa0961b41552bc73fc4f75d2dca128637" target="_top" xlink:title="tlz::checkerboard::\lcorner">
<polygon fill="white" stroke="black" points="164,-0.5 164,-30.5 262,-30.5 262,-0.5 164,-0.5"/>
<text text-anchor="start" x="172" y="-18.5" font-family="Helvetica,sans-Serif" font-size="10.00">tlz::checkerboard::</text>
<text text-anchor="middle" x="213" y="-7.5" font-family="Helvetica,sans-Serif" font-size="10.00">corner</text>
</a>
</g>
</g>
<!-- Node1&#45;&gt;Node6 -->
<g id="edge5" class="edge"><title>Node1&#45;&gt;Node6</title>
<path fill="none" stroke="midnightblue" d="M128.194,-28.0423C136.714,-26.7673 145.422,-25.464 153.849,-24.2029"/>
<polygon fill="midnightblue" stroke="midnightblue" points="154.584,-27.6319 163.956,-22.6903 153.548,-20.709 154.584,-27.6319"/>
</g>
<!-- Node3 -->
<g id="node3" class="node"><title>Node3</title>
<g id="a_node3"><a xlink:href="namespacetlz.html#a643b2d03bd805fe78dcd684ef45e52fb" target="_top" xlink:title="Clamp value between minimum and maximum value. ">
<polygon fill="white" stroke="black" points="298,-88 298,-107 357,-107 357,-88 298,-88"/>
<text text-anchor="middle" x="327.5" y="-95" font-family="Helvetica,sans-Serif" font-size="10.00">tlz::clamp</text>
</a>
</g>
</g>
<!-- Node2&#45;&gt;Node3 -->
<g id="edge2" class="edge"><title>Node2&#45;&gt;Node3</title>
<path fill="none" stroke="midnightblue" d="M235.16,-66.6475C250.198,-71.7267 270.805,-78.6875 288.641,-84.712"/>
<polygon fill="midnightblue" stroke="midnightblue" points="287.617,-88.0605 298.211,-87.9447 289.857,-81.4286 287.617,-88.0605"/>
</g>
<!-- Node4 -->
<g id="node4" class="node"><title>Node4</title>
<g id="a_node4"><a xlink:href="namespacetlz.html#a4fe5757a830e199f84d229eee11f616e" target="_top" xlink:title="Compute greatest common divisor of a and b. ">
<polygon fill="white" stroke="black" points="303,-50 303,-69 352,-69 352,-50 303,-50"/>
<text text-anchor="middle" x="327.5" y="-57" font-family="Helvetica,sans-Serif" font-size="10.00">tlz::gcd</text>
</a>
</g>
</g>
<!-- Node2&#45;&gt;Node4 -->
<g id="edge3" class="edge"><title>Node2&#45;&gt;Node4</title>
<path fill="none" stroke="midnightblue" d="M235.16,-59.5C251.304,-59.5 273.868,-59.5 292.529,-59.5"/>
<polygon fill="midnightblue" stroke="midnightblue" points="292.708,-63.0001 302.708,-59.5 292.708,-56.0001 292.708,-63.0001"/>
</g>
<!-- Node5 -->
<g id="node5" class="node"><title>Node5</title>
<g id="a_node5"><a xlink:href="namespacetlz.html#aec6e2158ce198aa20a8493fde3d3b552" target="_top" xlink:title="Compute least common multiple of a and b. ">
<polygon fill="white" stroke="black" points="303,-12 303,-31 352,-31 352,-12 303,-12"/>
<text text-anchor="middle" x="327.5" y="-19" font-family="Helvetica,sans-Serif" font-size="10.00">tlz::lcm</text>
</a>
</g>
</g>
<!-- Node2&#45;&gt;Node5 -->
<g id="edge4" class="edge"><title>Node2&#45;&gt;Node5</title>
<path fill="none" stroke="midnightblue" d="M235.16,-52.3525C251.454,-46.8488 274.288,-39.136 293.049,-32.7989"/>
<polygon fill="midnightblue" stroke="midnightblue" points="294.354,-36.0525 302.708,-29.5363 292.114,-29.4206 294.354,-36.0525"/>
</g>
</g>
</svg>
