<?xml version="1.0" encoding="UTF-8" standalone="no"?>
<!DOCTYPE svg PUBLIC "-//W3C//DTD SVG 1.1//EN"
 "http://www.w3.org/Graphics/SVG/1.1/DTD/svg11.dtd">
<!-- Generated by graphviz version 2.38.0 (20140413.2041)
 -->
<!-- Title: tlz::distort_points Pages: 1 -->
<svg width="1218pt" height="398pt"
 viewBox="0.00 0.00 1218.00 398.00" xmlns="http://www.w3.org/2000/svg" xmlns:xlink="http://www.w3.org/1999/xlink">
<g id="graph0" class="graph" transform="scale(1 1) rotate(0) translate(4 394)">
<title>tlz::distort_points</title>
<polygon fill="white" stroke="none" points="-4,4 -4,-394 1214,-394 1214,4 -4,4"/>
<!-- Node1 -->
<g id="node1" class="node"><title>Node1</title>
<polygon fill="#bfbfbf" stroke="black" points="0,-247.5 0,-266.5 92,-266.5 92,-247.5 0,-247.5"/>
<text text-anchor="middle" x="46" y="-254.5" font-family="Helvetica,sans-Serif" font-size="10.00">tlz::distort_points</text>
</g>
<!-- Node2 -->
<g id="node2" class="node"><title>Node2</title>
<g id="a_node2"><a xlink:href="structtlz_1_1distortion__parameters.html#a307fee036b04519d633fb8456899850c" target="_top" xlink:title="tlz::distortion_parameters\l::is_none">
<polygon fill="white" stroke="black" points="665,-278 665,-308 792,-308 792,-278 665,-278"/>
<text text-anchor="start" x="673" y="-296" font-family="Helvetica,sans-Serif" font-size="10.00">tlz::distortion_parameters</text>
<text text-anchor="middle" x="728.5" y="-285" font-family="Helvetica,sans-Serif" font-size="10.00">::is_none</text>
</a>
</g>
</g>
<!-- Node1&#45;&gt;Node2 -->
<g id="edge1" class="edge"><title>Node1&#45;&gt;Node2</title>
<path fill="none" stroke="midnightblue" d="M56.3247,-266.565C87.1026,-297.061 189.438,-390 293.5,-390 293.5,-390 293.5,-390 430.5,-390 528.951,-390 637.091,-341.242 691.694,-312.863"/>
<polygon fill="midnightblue" stroke="midnightblue" points="693.408,-315.917 700.621,-308.156 690.143,-309.725 693.408,-315.917"/>
</g>
<!-- Node3 -->
<g id="node3" class="node"><title>Node3</title>
<g id="a_node3"><a xlink:href="namespacetlz.html#aa0b38daa346fbb57c8f6668de69ea2d1" target="_top" xlink:title="tlz::distort_point">
<polygon fill="white" stroke="black" points="128,-247.5 128,-266.5 214,-266.5 214,-247.5 128,-247.5"/>
<text text-anchor="middle" x="171" y="-254.5" font-family="Helvetica,sans-Serif" font-size="10.00">tlz::distort_point</text>
</a>
</g>
</g>
<!-- Node1&#45;&gt;Node3 -->
<g id="edge2" class="edge"><title>Node1&#45;&gt;Node3</title>
<path fill="none" stroke="midnightblue" d="M92.1022,-257C100.389,-257 109.104,-257 117.583,-257"/>
<polygon fill="midnightblue" stroke="midnightblue" points="117.765,-260.5 127.765,-257 117.764,-253.5 117.765,-260.5"/>
</g>
<!-- Node3&#45;&gt;Node2 -->
<g id="edge3" class="edge"><title>Node3&#45;&gt;Node2</title>
<path fill="none" stroke="midnightblue" d="M214.209,-259.735C308.435,-265.842 536.869,-280.646 654.627,-288.277"/>
<polygon fill="midnightblue" stroke="midnightblue" points="654.43,-291.772 664.635,-288.926 654.882,-284.786 654.43,-291.772"/>
</g>
<!-- Node4 -->
<g id="node4" class="node"><title>Node4</title>
<g id="a_node4"><a xlink:href="structtlz_1_1intrinsics.html#acc9b666adbc970c279c56a4549cc90d5" target="_top" xlink:title="tlz::intrinsics::cx">
<polygon fill="white" stroke="black" points="250,-228.5 250,-247.5 339,-247.5 339,-228.5 250,-228.5"/>
<text text-anchor="middle" x="294.5" y="-235.5" font-family="Helvetica,sans-Serif" font-size="10.00">tlz::intrinsics::cx</text>
</a>
</g>
</g>
<!-- Node3&#45;&gt;Node4 -->
<g id="edge4" class="edge"><title>Node3&#45;&gt;Node4</title>
<path fill="none" stroke="midnightblue" d="M214.154,-250.408C222.43,-249.114 231.216,-247.74 239.81,-246.396"/>
<polygon fill="midnightblue" stroke="midnightblue" points="240.431,-249.842 249.77,-244.838 239.349,-242.926 240.431,-249.842"/>
</g>
<!-- Node5 -->
<g id="node5" class="node"><title>Node5</title>
<g id="a_node5"><a xlink:href="structtlz_1_1intrinsics.html#ad5875d6c77076468aebce0d88ef61c20" target="_top" xlink:title="tlz::intrinsics::fx">
<polygon fill="white" stroke="black" points="251.5,-342.5 251.5,-361.5 337.5,-361.5 337.5,-342.5 251.5,-342.5"/>
<text text-anchor="middle" x="294.5" y="-349.5" font-family="Helvetica,sans-Serif" font-size="10.00">tlz::intrinsics::fx</text>
</a>
</g>
</g>
<!-- Node3&#45;&gt;Node5 -->
<g id="edge5" class="edge"><title>Node3&#45;&gt;Node5</title>
<path fill="none" stroke="midnightblue" d="M179.761,-266.537C192.866,-282.147 220.82,-313.373 250,-333 252.584,-334.738 255.352,-336.376 258.194,-337.907"/>
<polygon fill="midnightblue" stroke="midnightblue" points="256.871,-341.156 267.39,-342.42 259.955,-334.872 256.871,-341.156"/>
</g>
<!-- Node6 -->
<g id="node6" class="node"><title>Node6</title>
<g id="a_node6"><a xlink:href="structtlz_1_1intrinsics.html#af7acb0b51e36fbb45d73bc10efef7d25" target="_top" xlink:title="tlz::intrinsics::cy">
<polygon fill="white" stroke="black" points="250,-190.5 250,-209.5 339,-209.5 339,-190.5 250,-190.5"/>
<text text-anchor="middle" x="294.5" y="-197.5" font-family="Helvetica,sans-Serif" font-size="10.00">tlz::intrinsics::cy</text>
</a>
</g>
</g>
<!-- Node3&#45;&gt;Node6 -->
<g id="edge6" class="edge"><title>Node3&#45;&gt;Node6</title>
<path fill="none" stroke="midnightblue" d="M180.144,-247.458C192.675,-238.008 217.693,-225.199 241.755,-213.852"/>
<polygon fill="midnightblue" stroke="midnightblue" points="243.319,-216.984 250.902,-209.585 240.359,-210.641 243.319,-216.984"/>
</g>
<!-- Node27 -->
<g id="node27" class="node"><title>Node27</title>
<g id="a_node27"><a xlink:href="structtlz_1_1intrinsics.html#a52e02ae0e8bbea245fcced1c38964f29" target="_top" xlink:title="tlz::intrinsics::fy">
<polygon fill="white" stroke="black" points="251.5,-304.5 251.5,-323.5 337.5,-323.5 337.5,-304.5 251.5,-304.5"/>
<text text-anchor="middle" x="294.5" y="-311.5" font-family="Helvetica,sans-Serif" font-size="10.00">tlz::intrinsics::fy</text>
</a>
</g>
</g>
<!-- Node3&#45;&gt;Node27 -->
<g id="edge35" class="edge"><title>Node3&#45;&gt;Node27</title>
<path fill="none" stroke="midnightblue" d="M192.336,-266.541C211.873,-275.706 241.616,-289.659 263.802,-300.068"/>
<polygon fill="midnightblue" stroke="midnightblue" points="262.557,-303.35 273.097,-304.428 265.531,-297.012 262.557,-303.35"/>
</g>
<!-- Node6&#45;&gt;Node1 -->
<g id="edge21" class="edge"><title>Node6&#45;&gt;Node1</title>
<path fill="none" stroke="midnightblue" d="M251.656,-209.55C218.189,-217.203 170.07,-228.236 128,-238 118.08,-240.302 107.481,-242.777 97.3294,-245.156"/>
<polygon fill="midnightblue" stroke="midnightblue" points="96.3049,-241.801 87.3681,-247.492 97.9031,-248.616 96.3049,-241.801"/>
</g>
<!-- Node6&#45;&gt;Node3 -->
<g id="edge20" class="edge"><title>Node6&#45;&gt;Node3</title>
<path fill="none" stroke="midnightblue" d="M286.069,-209.591C277.376,-215.827 262.57,-222.196 250,-228 239.423,-232.884 228.117,-238.285 217.488,-243.198"/>
<polygon fill="midnightblue" stroke="midnightblue" points="216.003,-240.028 208.358,-247.363 218.908,-246.397 216.003,-240.028"/>
</g>
<!-- Node7 -->
<g id="node7" class="node"><title>Node7</title>
<g id="a_node7"><a xlink:href="namespacetlz.html#a8cba4853d0d796a01c72f59f36f2a492" target="_top" xlink:title="tlz::decode_intrinsics">
<polygon fill="white" stroke="black" points="520,-114.5 520,-133.5 629,-133.5 629,-114.5 520,-114.5"/>
<text text-anchor="middle" x="574.5" y="-121.5" font-family="Helvetica,sans-Serif" font-size="10.00">tlz::decode_intrinsics</text>
</a>
</g>
</g>
<!-- Node6&#45;&gt;Node7 -->
<g id="edge7" class="edge"><title>Node6&#45;&gt;Node7</title>
<path fill="none" stroke="midnightblue" d="M305.26,-190.306C319.316,-177.025 346.694,-153.613 375,-143 418.09,-126.843 469.951,-122.343 509.856,-121.749"/>
<polygon fill="midnightblue" stroke="midnightblue" points="510.017,-125.248 519.992,-121.678 509.967,-118.249 510.017,-125.248"/>
</g>
<!-- Node11 -->
<g id="node11" class="node"><title>Node11</title>
<g id="a_node11"><a xlink:href="namespacetlz.html#a46c3e46d56bc36cf6b1236522563bc4a" target="_top" xlink:title="tlz::encode_intrinsics">
<polygon fill="white" stroke="black" points="375,-57.5 375,-76.5 484,-76.5 484,-57.5 375,-57.5"/>
<text text-anchor="middle" x="429.5" y="-64.5" font-family="Helvetica,sans-Serif" font-size="10.00">tlz::encode_intrinsics</text>
</a>
</g>
</g>
<!-- Node6&#45;&gt;Node11 -->
<g id="edge12" class="edge"><title>Node6&#45;&gt;Node11</title>
<path fill="none" stroke="midnightblue" d="M303.129,-190.323C316.749,-173.296 346.498,-137.206 375,-110 385,-100.454 396.924,-90.7293 406.975,-82.948"/>
<polygon fill="midnightblue" stroke="midnightblue" points="409.393,-85.5061 415.229,-76.6636 405.152,-79.9366 409.393,-85.5061"/>
</g>
<!-- Node14 -->
<g id="node14" class="node"><title>Node14</title>
<g id="a_node14"><a xlink:href="namespacetlz.html#a67f7411515a0538e3a39b9d0602ed854" target="_top" xlink:title="tlz::undistort_point">
<polygon fill="white" stroke="black" points="381,-228.5 381,-247.5 478,-247.5 478,-228.5 381,-228.5"/>
<text text-anchor="middle" x="429.5" y="-235.5" font-family="Helvetica,sans-Serif" font-size="10.00">tlz::undistort_point</text>
</a>
</g>
</g>
<!-- Node6&#45;&gt;Node14 -->
<g id="edge15" class="edge"><title>Node6&#45;&gt;Node14</title>
<path fill="none" stroke="midnightblue" d="M329.062,-209.589C346.073,-214.449 366.932,-220.409 385.145,-225.613"/>
<polygon fill="midnightblue" stroke="midnightblue" points="384.372,-229.032 394.949,-228.414 386.296,-222.301 384.372,-229.032"/>
</g>
<!-- Node15 -->
<g id="node15" class="node"><title>Node15</title>
<g id="a_node15"><a xlink:href="namespacetlz.html#a8b5e4acbb884887859e414ffe06a09f8" target="_top" xlink:title="tlz::undistort_points">
<polygon fill="white" stroke="black" points="523.5,-228.5 523.5,-247.5 625.5,-247.5 625.5,-228.5 523.5,-228.5"/>
<text text-anchor="middle" x="574.5" y="-235.5" font-family="Helvetica,sans-Serif" font-size="10.00">tlz::undistort_points</text>
</a>
</g>
</g>
<!-- Node6&#45;&gt;Node15 -->
<g id="edge19" class="edge"><title>Node6&#45;&gt;Node15</title>
<path fill="none" stroke="midnightblue" d="M339.095,-203.042C377.411,-206.038 434.603,-211.291 484,-219 496.755,-220.991 510.433,-223.632 523.16,-226.311"/>
<polygon fill="midnightblue" stroke="midnightblue" points="522.616,-229.774 533.129,-228.456 524.089,-222.931 522.616,-229.774"/>
</g>
<!-- Node17 -->
<g id="node17" class="node"><title>Node17</title>
<g id="a_node17"><a xlink:href="namespacetlz.html#a170805c7a8ede64a93e0ee23196e5b7c" target="_top" xlink:title="tlz::intrinsics_arg">
<polygon fill="white" stroke="black" points="384,-152.5 384,-171.5 475,-171.5 475,-152.5 384,-152.5"/>
<text text-anchor="middle" x="429.5" y="-159.5" font-family="Helvetica,sans-Serif" font-size="10.00">tlz::intrinsics_arg</text>
</a>
</g>
</g>
<!-- Node6&#45;&gt;Node17 -->
<g id="edge22" class="edge"><title>Node6&#45;&gt;Node17</title>
<path fill="none" stroke="midnightblue" d="M329.062,-190.411C346.073,-185.551 366.932,-179.591 385.145,-174.387"/>
<polygon fill="midnightblue" stroke="midnightblue" points="386.296,-177.699 394.949,-171.586 384.372,-170.968 386.296,-177.699"/>
</g>
<!-- Node8 -->
<g id="node8" class="node"><title>Node8</title>
<g id="a_node8"><a xlink:href="namespacetlz.html#a066563a26e2de02f215b179f3d3a53da" target="_top" xlink:title="tlz::decode_mat">
<polygon fill="white" stroke="black" points="685.5,-114.5 685.5,-133.5 771.5,-133.5 771.5,-114.5 685.5,-114.5"/>
<text text-anchor="middle" x="728.5" y="-121.5" font-family="Helvetica,sans-Serif" font-size="10.00">tlz::decode_mat</text>
</a>
</g>
</g>
<!-- Node7&#45;&gt;Node8 -->
<g id="edge8" class="edge"><title>Node7&#45;&gt;Node8</title>
<path fill="none" stroke="midnightblue" d="M629.09,-124C644.09,-124 660.369,-124 675.289,-124"/>
<polygon fill="midnightblue" stroke="midnightblue" points="675.368,-127.5 685.368,-124 675.368,-120.5 675.368,-127.5"/>
</g>
<!-- Node9 -->
<g id="node9" class="node"><title>Node9</title>
<g id="a_node9"><a xlink:href="namespacetlz.html#a252af14b9b4ac6502d3e9c5dd8dc90b8" target="_top" xlink:title="tlz::has">
<polygon fill="white" stroke="black" points="842,-47.5 842,-66.5 891,-66.5 891,-47.5 842,-47.5"/>
<text text-anchor="middle" x="866.5" y="-54.5" font-family="Helvetica,sans-Serif" font-size="10.00">tlz::has</text>
</a>
</g>
</g>
<!-- Node7&#45;&gt;Node9 -->
<g id="edge9" class="edge"><title>Node7&#45;&gt;Node9</title>
<path fill="none" stroke="midnightblue" d="M616.742,-114.472C674.503,-101.127 778.393,-77.1247 831.791,-64.7879"/>
<polygon fill="midnightblue" stroke="midnightblue" points="832.814,-68.144 841.769,-62.4827 831.238,-61.3236 832.814,-68.144"/>
</g>
<!-- Node10 -->
<g id="node10" class="node"><title>Node10</title>
<g id="a_node10"><a xlink:href="namespacetlz.html#add846dc50c32dfb356cb1a7ac11d37ac" target="_top" xlink:title="tlz::get_or">
<polygon fill="white" stroke="black" points="698.5,-38.5 698.5,-57.5 758.5,-57.5 758.5,-38.5 698.5,-38.5"/>
<text text-anchor="middle" x="728.5" y="-45.5" font-family="Helvetica,sans-Serif" font-size="10.00">tlz::get_or</text>
</a>
</g>
</g>
<!-- Node7&#45;&gt;Node10 -->
<g id="edge10" class="edge"><title>Node7&#45;&gt;Node10</title>
<path fill="none" stroke="midnightblue" d="M590.303,-114.412C607.734,-103.357 637.769,-85.0362 665,-72 672.987,-68.1762 681.756,-64.5027 690.134,-61.2288"/>
<polygon fill="midnightblue" stroke="midnightblue" points="691.616,-64.4098 699.719,-57.5838 689.127,-57.867 691.616,-64.4098"/>
</g>
<!-- Node10&#45;&gt;Node9 -->
<g id="edge11" class="edge"><title>Node10&#45;&gt;Node9</title>
<path fill="none" stroke="midnightblue" d="M758.675,-49.9307C780.102,-51.3486 809.262,-53.2784 831.703,-54.7634"/>
<polygon fill="midnightblue" stroke="midnightblue" points="831.593,-58.2637 841.802,-55.4318 832.055,-51.279 831.593,-58.2637"/>
</g>
<!-- Node12 -->
<g id="node12" class="node"><title>Node12</title>
<g id="a_node12"><a xlink:href="namespacetlz.html#acf7ca4ee1b750cf31a40170bea887d46" target="_top" xlink:title="tlz::encode_mat">
<polygon fill="white" stroke="black" points="531.5,-19.5 531.5,-38.5 617.5,-38.5 617.5,-19.5 531.5,-19.5"/>
<text text-anchor="middle" x="574.5" y="-26.5" font-family="Helvetica,sans-Serif" font-size="10.00">tlz::encode_mat</text>
</a>
</g>
</g>
<!-- Node11&#45;&gt;Node12 -->
<g id="edge13" class="edge"><title>Node11&#45;&gt;Node12</title>
<path fill="none" stroke="midnightblue" d="M466.585,-57.411C485.13,-52.4831 507.926,-46.4251 527.699,-41.1709"/>
<polygon fill="midnightblue" stroke="midnightblue" points="528.661,-44.5368 537.427,-38.5859 526.863,-37.7716 528.661,-44.5368"/>
</g>
<!-- Node13 -->
<g id="node13" class="node"><title>Node13</title>
<g id="a_node13"><a xlink:href="namespacetlz.html#a7b27ca69fad329b4a00aceee41d2962b" target="_top" xlink:title="tlz::encode_mat_">
<polygon fill="white" stroke="black" points="682.5,-0.5 682.5,-19.5 774.5,-19.5 774.5,-0.5 682.5,-0.5"/>
<text text-anchor="middle" x="728.5" y="-7.5" font-family="Helvetica,sans-Serif" font-size="10.00">tlz::encode_mat_</text>
</a>
</g>
</g>
<!-- Node12&#45;&gt;Node13 -->
<g id="edge14" class="edge"><title>Node12&#45;&gt;Node13</title>
<path fill="none" stroke="midnightblue" d="M617.84,-23.7074C634.735,-21.5957 654.41,-19.1363 672.393,-16.8884"/>
<polygon fill="midnightblue" stroke="midnightblue" points="672.977,-20.3427 682.465,-15.6293 672.108,-13.3968 672.977,-20.3427"/>
</g>
<!-- Node14&#45;&gt;Node15 -->
<g id="edge16" class="edge"><title>Node14&#45;&gt;Node15</title>
<path fill="none" stroke="midnightblue" d="M478.117,-238C489.302,-238 501.369,-238 513.034,-238"/>
<polygon fill="midnightblue" stroke="midnightblue" points="513.15,-241.5 523.15,-238 513.15,-234.5 513.15,-241.5"/>
</g>
<!-- Node15&#45;&gt;Node2 -->
<g id="edge17" class="edge"><title>Node15&#45;&gt;Node2</title>
<path fill="none" stroke="midnightblue" d="M601.976,-247.58C622.401,-254.971 651.277,-265.419 676.185,-274.432"/>
<polygon fill="midnightblue" stroke="midnightblue" points="675.271,-277.823 685.865,-277.935 677.652,-271.241 675.271,-277.823"/>
</g>
<!-- Node16 -->
<g id="node16" class="node"><title>Node16</title>
<g id="a_node16"><a xlink:href="structtlz_1_1distortion__parameters.html#a96312c5d7baa4b7b1f2a76e9396037f8" target="_top" xlink:title="tlz::distortion_parameters\l::cv_coeffs">
<polygon fill="white" stroke="black" points="665,-229 665,-259 792,-259 792,-229 665,-229"/>
<text text-anchor="start" x="673" y="-247" font-family="Helvetica,sans-Serif" font-size="10.00">tlz::distortion_parameters</text>
<text text-anchor="middle" x="728.5" y="-236" font-family="Helvetica,sans-Serif" font-size="10.00">::cv_coeffs</text>
</a>
</g>
</g>
<!-- Node15&#45;&gt;Node16 -->
<g id="edge18" class="edge"><title>Node15&#45;&gt;Node16</title>
<path fill="none" stroke="midnightblue" d="M625.692,-239.981C634.998,-240.349 644.89,-240.739 654.71,-241.127"/>
<polygon fill="midnightblue" stroke="midnightblue" points="654.76,-244.631 664.89,-241.529 655.036,-237.637 654.76,-244.631"/>
</g>
<!-- Node17&#45;&gt;Node7 -->
<g id="edge23" class="edge"><title>Node17&#45;&gt;Node7</title>
<path fill="none" stroke="midnightblue" d="M466.585,-152.411C485.13,-147.483 507.926,-141.425 527.699,-136.171"/>
<polygon fill="midnightblue" stroke="midnightblue" points="528.661,-139.537 537.427,-133.586 526.863,-132.772 528.661,-139.537"/>
</g>
<!-- Node18 -->
<g id="node18" class="node"><title>Node18</title>
<g id="a_node18"><a xlink:href="namespacetlz.html#a35f9e03fa4fd9cec699f5fa27962400f" target="_top" xlink:title="tlz::json_arg">
<polygon fill="white" stroke="black" points="539.5,-152.5 539.5,-171.5 609.5,-171.5 609.5,-152.5 539.5,-152.5"/>
<text text-anchor="middle" x="574.5" y="-159.5" font-family="Helvetica,sans-Serif" font-size="10.00">tlz::json_arg</text>
</a>
</g>
</g>
<!-- Node17&#45;&gt;Node18 -->
<g id="edge24" class="edge"><title>Node17&#45;&gt;Node18</title>
<path fill="none" stroke="midnightblue" d="M475.354,-162C492.447,-162 511.911,-162 528.974,-162"/>
<polygon fill="midnightblue" stroke="midnightblue" points="529.245,-165.5 539.245,-162 529.245,-158.5 529.245,-165.5"/>
</g>
<!-- Node19 -->
<g id="node19" class="node"><title>Node19</title>
<g id="a_node19"><a xlink:href="namespacetlz.html#aa1be9362f548fcf9378e1fc9074089c4" target="_top" xlink:title="tlz::import_json_file">
<polygon fill="white" stroke="black" points="678,-190.5 678,-209.5 779,-209.5 779,-190.5 678,-190.5"/>
<text text-anchor="middle" x="728.5" y="-197.5" font-family="Helvetica,sans-Serif" font-size="10.00">tlz::import_json_file</text>
</a>
</g>
</g>
<!-- Node18&#45;&gt;Node19 -->
<g id="edge25" class="edge"><title>Node18&#45;&gt;Node19</title>
<path fill="none" stroke="midnightblue" d="M609.612,-170.528C630.274,-175.694 656.944,-182.361 679.689,-188.047"/>
<polygon fill="midnightblue" stroke="midnightblue" points="678.947,-191.469 689.497,-190.499 680.645,-184.678 678.947,-191.469"/>
</g>
<!-- Node20 -->
<g id="node20" class="node"><title>Node20</title>
<g id="a_node20"><a xlink:href="namespacetlz.html#a634de7ca11e100e4a118dffe80376a75" target="_top" xlink:title="tlz::in_filename_arg">
<polygon fill="white" stroke="black" points="678,-152.5 678,-171.5 779,-171.5 779,-152.5 678,-152.5"/>
<text text-anchor="middle" x="728.5" y="-159.5" font-family="Helvetica,sans-Serif" font-size="10.00">tlz::in_filename_arg</text>
</a>
</g>
</g>
<!-- Node18&#45;&gt;Node20 -->
<g id="edge26" class="edge"><title>Node18&#45;&gt;Node20</title>
<path fill="none" stroke="midnightblue" d="M609.612,-162C626.755,-162 648.034,-162 667.775,-162"/>
<polygon fill="midnightblue" stroke="midnightblue" points="667.928,-165.5 677.928,-162 667.928,-158.5 667.928,-165.5"/>
</g>
<!-- Node21 -->
<g id="node21" class="node"><title>Node21</title>
<g id="a_node21"><a xlink:href="namespacetlz.html#a0621d598fb83b13bf028f3e6293d04f8" target="_top" xlink:title="tlz::string_arg">
<polygon fill="white" stroke="black" points="828.5,-142.5 828.5,-161.5 904.5,-161.5 904.5,-142.5 828.5,-142.5"/>
<text text-anchor="middle" x="866.5" y="-149.5" font-family="Helvetica,sans-Serif" font-size="10.00">tlz::string_arg</text>
</a>
</g>
</g>
<!-- Node20&#45;&gt;Node21 -->
<g id="edge27" class="edge"><title>Node20&#45;&gt;Node21</title>
<path fill="none" stroke="midnightblue" d="M779.369,-158.333C792.043,-157.401 805.624,-156.403 818.168,-155.48"/>
<polygon fill="midnightblue" stroke="midnightblue" points="818.702,-158.951 828.419,-154.727 818.189,-151.969 818.702,-158.951"/>
</g>
<!-- Node22 -->
<g id="node22" class="node"><title>Node22</title>
<g id="a_node22"><a xlink:href="namespacetlz.html#a780431daab8d2595372eacb43143b52d" target="_top" xlink:title="tlz::args">
<polygon fill="white" stroke="black" points="971.5,-180.5 971.5,-199.5 1023.5,-199.5 1023.5,-180.5 971.5,-180.5"/>
<text text-anchor="middle" x="997.5" y="-187.5" font-family="Helvetica,sans-Serif" font-size="10.00">tlz::args</text>
</a>
</g>
</g>
<!-- Node20&#45;&gt;Node22 -->
<g id="edge33" class="edge"><title>Node20&#45;&gt;Node22</title>
<path fill="none" stroke="midnightblue" d="M779.095,-167.201C831.981,-172.747 914.412,-181.391 961.104,-186.288"/>
<polygon fill="midnightblue" stroke="midnightblue" points="961.024,-189.799 971.334,-187.361 961.754,-182.837 961.024,-189.799"/>
</g>
<!-- Node24 -->
<g id="node24" class="node"><title>Node24</title>
<g id="a_node24"><a xlink:href="classtlz_1_1args__list.html#a38ad21acd64a4af98ffdf4a47837cdbe" target="_top" xlink:title="tlz::args_list::usage_fail">
<polygon fill="white" stroke="black" points="1090,-104.5 1090,-123.5 1210,-123.5 1210,-104.5 1090,-104.5"/>
<text text-anchor="middle" x="1150" y="-111.5" font-family="Helvetica,sans-Serif" font-size="10.00">tlz::args_list::usage_fail</text>
</a>
</g>
</g>
<!-- Node20&#45;&gt;Node24 -->
<g id="edge34" class="edge"><title>Node20&#45;&gt;Node24</title>
<path fill="none" stroke="midnightblue" d="M760.475,-152.497C786.745,-144.501 821.217,-134.183 828,-133 913.874,-118.018 1014.41,-114.244 1079.78,-113.579"/>
<polygon fill="midnightblue" stroke="midnightblue" points="1079.99,-117.077 1089.96,-113.498 1079.94,-110.078 1079.99,-117.077"/>
</g>
<!-- Node26 -->
<g id="node26" class="node"><title>Node26</title>
<g id="a_node26"><a xlink:href="namespacetlz.html#abb019466ea9f56c0dab27e893d891837" target="_top" xlink:title="tlz::file_exists">
<polygon fill="white" stroke="black" points="828,-218.5 828,-237.5 905,-237.5 905,-218.5 828,-218.5"/>
<text text-anchor="middle" x="866.5" y="-225.5" font-family="Helvetica,sans-Serif" font-size="10.00">tlz::file_exists</text>
</a>
</g>
</g>
<!-- Node20&#45;&gt;Node26 -->
<g id="edge32" class="edge"><title>Node20&#45;&gt;Node26</title>
<path fill="none" stroke="midnightblue" d="M766.807,-171.514C775.256,-174.168 784.07,-177.344 792,-181 792.34,-181.157 820.39,-199.108 841.734,-212.776"/>
<polygon fill="midnightblue" stroke="midnightblue" points="840.062,-215.862 850.371,-218.308 843.838,-209.967 840.062,-215.862"/>
</g>
<!-- Node21&#45;&gt;Node22 -->
<g id="edge28" class="edge"><title>Node21&#45;&gt;Node22</title>
<path fill="none" stroke="midnightblue" d="M900.052,-161.589C918.78,-167.106 942.314,-174.038 961.447,-179.674"/>
<polygon fill="midnightblue" stroke="midnightblue" points="960.701,-183.103 971.283,-182.572 962.679,-176.389 960.701,-183.103"/>
</g>
<!-- Node23 -->
<g id="node23" class="node"><title>Node23</title>
<g id="a_node23"><a xlink:href="classtlz_1_1args__list.html#a73d99bc75998dc14607a3a372d28dc6d" target="_top" xlink:title="tlz::args_list::next_arg">
<polygon fill="white" stroke="black" points="941,-142.5 941,-161.5 1054,-161.5 1054,-142.5 941,-142.5"/>
<text text-anchor="middle" x="997.5" y="-149.5" font-family="Helvetica,sans-Serif" font-size="10.00">tlz::args_list::next_arg</text>
</a>
</g>
</g>
<!-- Node21&#45;&gt;Node23 -->
<g id="edge29" class="edge"><title>Node21&#45;&gt;Node23</title>
<path fill="none" stroke="midnightblue" d="M904.812,-152C912.835,-152 921.544,-152 930.295,-152"/>
<polygon fill="midnightblue" stroke="midnightblue" points="930.549,-155.5 940.549,-152 930.549,-148.5 930.549,-155.5"/>
</g>
<!-- Node23&#45;&gt;Node24 -->
<g id="edge30" class="edge"><title>Node23&#45;&gt;Node24</title>
<path fill="none" stroke="midnightblue" d="M1036.48,-142.411C1056.16,-137.442 1080.39,-131.323 1101.32,-126.039"/>
<polygon fill="midnightblue" stroke="midnightblue" points="1102.46,-129.362 1111.3,-123.52 1100.74,-122.575 1102.46,-129.362"/>
</g>
<!-- Node25 -->
<g id="node25" class="node"><title>Node25</title>
<g id="a_node25"><a xlink:href="namespacetlz.html#a8e4f8c8c2927bc4350de13bfa0f8f9e1" target="_top" xlink:title="tlz::to_string">
<polygon fill="white" stroke="black" points="1114.5,-142.5 1114.5,-161.5 1185.5,-161.5 1185.5,-142.5 1114.5,-142.5"/>
<text text-anchor="middle" x="1150" y="-149.5" font-family="Helvetica,sans-Serif" font-size="10.00">tlz::to_string</text>
</a>
</g>
</g>
<!-- Node23&#45;&gt;Node25 -->
<g id="edge31" class="edge"><title>Node23&#45;&gt;Node25</title>
<path fill="none" stroke="midnightblue" d="M1054.11,-152C1070.44,-152 1088.1,-152 1103.7,-152"/>
<polygon fill="midnightblue" stroke="midnightblue" points="1104.13,-155.5 1114.13,-152 1104.13,-148.5 1104.13,-155.5"/>
</g>
</g>
</svg>
