<?xml version="1.0" encoding="UTF-8" standalone="no"?>
<!DOCTYPE svg PUBLIC "-//W3C//DTD SVG 1.1//EN"
 "http://www.w3.org/Graphics/SVG/1.1/DTD/svg11.dtd">
<!-- Generated by graphviz version 2.38.0 (20140413.2041)
 -->
<!-- Title: tlz::decode_feature_slopes Pages: 1 -->
<svg width="580pt" height="133pt"
 viewBox="0.00 0.00 580.00 132.87" xmlns="http://www.w3.org/2000/svg" xmlns:xlink="http://www.w3.org/1999/xlink">
<g id="graph0" class="graph" transform="scale(1 1) rotate(0) translate(4 128.865)">
<title>tlz::decode_feature_slopes</title>
<polygon fill="white" stroke="none" points="-4,4 -4,-128.865 576,-128.865 576,4 -4,4"/>
<!-- Node1 -->
<g id="node1" class="node"><title>Node1</title>
<polygon fill="#bfbfbf" stroke="black" points="0,-63.5 0,-93.5 100,-93.5 100,-63.5 0,-63.5"/>
<text text-anchor="start" x="8" y="-81.5" font-family="Helvetica,sans-Serif" font-size="10.00">tlz::decode_feature</text>
<text text-anchor="middle" x="50" y="-70.5" font-family="Helvetica,sans-Serif" font-size="10.00">_slopes</text>
</g>
<!-- Node2 -->
<g id="node2" class="node"><title>Node2</title>
<g id="a_node2"><a xlink:href="namespacetlz.html#abc92401653ee5627160c4f3c48a11311" target="_top" xlink:title="tlz::decode_feature\l_points">
<polygon fill="white" stroke="black" points="136,-63.5 136,-93.5 236,-93.5 236,-63.5 136,-63.5"/>
<text text-anchor="start" x="144" y="-81.5" font-family="Helvetica,sans-Serif" font-size="10.00">tlz::decode_feature</text>
<text text-anchor="middle" x="186" y="-70.5" font-family="Helvetica,sans-Serif" font-size="10.00">_points</text>
</a>
</g>
</g>
<!-- Node1&#45;&gt;Node2 -->
<g id="edge1" class="edge"><title>Node1&#45;&gt;Node2</title>
<path fill="none" stroke="midnightblue" d="M100.136,-78.5C108.42,-78.5 117.097,-78.5 125.608,-78.5"/>
<polygon fill="midnightblue" stroke="midnightblue" points="125.87,-82.0001 135.87,-78.5 125.87,-75.0001 125.87,-82.0001"/>
</g>
<!-- Node3 -->
<g id="node3" class="node"><title>Node3</title>
<g id="a_node3"><a xlink:href="namespacetlz.html#a252af14b9b4ac6502d3e9c5dd8dc90b8" target="_top" xlink:title="tlz::has">
<polygon fill="white" stroke="black" points="523,-88 523,-107 572,-107 572,-88 523,-88"/>
<text text-anchor="middle" x="547.5" y="-95" font-family="Helvetica,sans-Serif" font-size="10.00">tlz::has</text>
</a>
</g>
</g>
<!-- Node2&#45;&gt;Node3 -->
<g id="edge2" class="edge"><title>Node2&#45;&gt;Node3</title>
<path fill="none" stroke="midnightblue" d="M213.194,-93.6718C229.518,-102.235 251.291,-112.082 272,-116.5 357.23,-134.684 460.386,-117.303 512.637,-105.811"/>
<polygon fill="midnightblue" stroke="midnightblue" points="513.709,-109.156 522.689,-103.533 512.162,-102.33 513.709,-109.156"/>
</g>
<!-- Node4 -->
<g id="node4" class="node"><title>Node4</title>
<g id="a_node4"><a xlink:href="namespacetlz.html#a74e8454f97dace7cffb1afdb6d3ca87b" target="_top" xlink:title="tlz::decode_view_index">
<polygon fill="white" stroke="black" points="272,-88 272,-107 391,-107 391,-88 272,-88"/>
<text text-anchor="middle" x="331.5" y="-95" font-family="Helvetica,sans-Serif" font-size="10.00">tlz::decode_view_index</text>
</a>
</g>
</g>
<!-- Node2&#45;&gt;Node4 -->
<g id="edge3" class="edge"><title>Node2&#45;&gt;Node4</title>
<path fill="none" stroke="midnightblue" d="M236.385,-85.0387C244.601,-86.1266 253.252,-87.272 261.844,-88.4096"/>
<polygon fill="midnightblue" stroke="midnightblue" points="261.5,-91.8945 271.873,-89.7375 262.419,-84.9551 261.5,-91.8945"/>
</g>
<!-- Node5 -->
<g id="node5" class="node"><title>Node5</title>
<g id="a_node5"><a xlink:href="namespacetlz.html#add846dc50c32dfb356cb1a7ac11d37ac" target="_top" xlink:title="tlz::get_or">
<polygon fill="white" stroke="black" points="427,-50 427,-69 487,-69 487,-50 427,-50"/>
<text text-anchor="middle" x="457" y="-57" font-family="Helvetica,sans-Serif" font-size="10.00">tlz::get_or</text>
</a>
</g>
</g>
<!-- Node2&#45;&gt;Node5 -->
<g id="edge4" class="edge"><title>Node2&#45;&gt;Node5</title>
<path fill="none" stroke="midnightblue" d="M236.026,-75.0372C287.872,-71.3752 368.65,-65.6697 416.545,-62.2868"/>
<polygon fill="midnightblue" stroke="midnightblue" points="417.092,-65.757 426.821,-61.561 416.599,-58.7744 417.092,-65.757"/>
</g>
<!-- Node6 -->
<g id="node6" class="node"><title>Node6</title>
<g id="a_node6"><a xlink:href="namespacetlz.html#ae8f9175a86bbe49ac0f4485d5db3080b" target="_top" xlink:title="tlz::decode_feature\l_point">
<polygon fill="white" stroke="black" points="281.5,-0.5 281.5,-30.5 381.5,-30.5 381.5,-0.5 281.5,-0.5"/>
<text text-anchor="start" x="289.5" y="-18.5" font-family="Helvetica,sans-Serif" font-size="10.00">tlz::decode_feature</text>
<text text-anchor="middle" x="331.5" y="-7.5" font-family="Helvetica,sans-Serif" font-size="10.00">_point</text>
</a>
</g>
</g>
<!-- Node2&#45;&gt;Node6 -->
<g id="edge6" class="edge"><title>Node2&#45;&gt;Node6</title>
<path fill="none" stroke="midnightblue" d="M221.372,-63.4099C240.93,-54.8235 265.628,-43.9802 286.58,-34.7818"/>
<polygon fill="midnightblue" stroke="midnightblue" points="288.162,-37.91 295.911,-30.6853 285.348,-31.5005 288.162,-37.91"/>
</g>
<!-- Node5&#45;&gt;Node3 -->
<g id="edge5" class="edge"><title>Node5&#45;&gt;Node3</title>
<path fill="none" stroke="midnightblue" d="M480.332,-69.089C490.813,-73.5894 503.49,-79.0322 514.93,-83.9447"/>
<polygon fill="midnightblue" stroke="midnightblue" points="513.605,-87.1846 524.175,-87.9141 516.367,-80.7525 513.605,-87.1846"/>
</g>
<!-- Node6&#45;&gt;Node5 -->
<g id="edge7" class="edge"><title>Node6&#45;&gt;Node5</title>
<path fill="none" stroke="midnightblue" d="M374.656,-30.5192C389.163,-35.6878 405.28,-41.4298 419.316,-46.4303"/>
<polygon fill="midnightblue" stroke="midnightblue" points="418.521,-49.8625 429.115,-49.9217 420.87,-43.2685 418.521,-49.8625"/>
</g>
</g>
</svg>
