<?xml version="1.0" encoding="UTF-8" standalone="no"?>
<!DOCTYPE svg PUBLIC "-//W3C//DTD SVG 1.1//EN"
 "http://www.w3.org/Graphics/SVG/1.1/DTD/svg11.dtd">
<!-- Generated by graphviz version 2.38.0 (20140413.2041)
 -->
<!-- Title: tlz::bool_opt_arg Pages: 1 -->
<svg width="651pt" height="135pt"
 viewBox="0.00 0.00 651.00 134.79" xmlns="http://www.w3.org/2000/svg" xmlns:xlink="http://www.w3.org/1999/xlink">
<g id="graph0" class="graph" transform="scale(1 1) rotate(0) translate(4 130.788)">
<title>tlz::bool_opt_arg</title>
<polygon fill="white" stroke="none" points="-4,4 -4,-130.788 647,-130.788 647,4 -4,4"/>
<!-- Node1 -->
<g id="node1" class="node"><title>Node1</title>
<polygon fill="#bfbfbf" stroke="black" points="0,-69 0,-88 89,-88 89,-69 0,-69"/>
<text text-anchor="middle" x="44.5" y="-76" font-family="Helvetica,sans-Serif" font-size="10.00">tlz::bool_opt_arg</text>
</g>
<!-- Node2 -->
<g id="node2" class="node"><title>Node2</title>
<g id="a_node2"><a xlink:href="namespacetlz.html#a780431daab8d2595372eacb43143b52d" target="_top" xlink:title="tlz::args">
<polygon fill="white" stroke="black" points="404.5,-88 404.5,-107 456.5,-107 456.5,-88 404.5,-88"/>
<text text-anchor="middle" x="430.5" y="-95" font-family="Helvetica,sans-Serif" font-size="10.00">tlz::args</text>
</a>
</g>
</g>
<!-- Node1&#45;&gt;Node2 -->
<g id="edge1" class="edge"><title>Node1&#45;&gt;Node2</title>
<path fill="none" stroke="midnightblue" d="M60.2952,-88.0654C75.7287,-97.4285 100.98,-111.054 125,-116.5 220.558,-138.164 337.011,-118.598 394.266,-106.076"/>
<polygon fill="midnightblue" stroke="midnightblue" points="395.26,-109.44 404.249,-103.831 393.725,-102.61 395.26,-109.44"/>
</g>
<!-- Node3 -->
<g id="node3" class="node"><title>Node3</title>
<g id="a_node3"><a xlink:href="classtlz_1_1args__list.html#a4aee93f4b0d9b5b4e7a5d13cb637337c" target="_top" xlink:title="tlz::args_list::has\l_next_arg">
<polygon fill="white" stroke="black" points="129.5,-0.5 129.5,-30.5 221.5,-30.5 221.5,-0.5 129.5,-0.5"/>
<text text-anchor="start" x="137.5" y="-18.5" font-family="Helvetica,sans-Serif" font-size="10.00">tlz::args_list::has</text>
<text text-anchor="middle" x="175.5" y="-7.5" font-family="Helvetica,sans-Serif" font-size="10.00">_next_arg</text>
</a>
</g>
</g>
<!-- Node1&#45;&gt;Node3 -->
<g id="edge2" class="edge"><title>Node1&#45;&gt;Node3</title>
<path fill="none" stroke="midnightblue" d="M65.0923,-68.9317C83.4289,-59.9766 111.379,-46.3268 134.438,-35.0653"/>
<polygon fill="midnightblue" stroke="midnightblue" points="136.203,-38.0984 143.653,-30.565 133.131,-31.8085 136.203,-38.0984"/>
</g>
<!-- Node4 -->
<g id="node4" class="node"><title>Node4</title>
<g id="a_node4"><a xlink:href="namespacetlz.html#ac18630fe66cc71c8cc5eb6acce057f5f" target="_top" xlink:title="tlz::bool_arg">
<polygon fill="white" stroke="black" points="265,-50 265,-69 335,-69 335,-50 265,-50"/>
<text text-anchor="middle" x="300" y="-57" font-family="Helvetica,sans-Serif" font-size="10.00">tlz::bool_arg</text>
</a>
</g>
</g>
<!-- Node1&#45;&gt;Node4 -->
<g id="edge3" class="edge"><title>Node1&#45;&gt;Node4</title>
<path fill="none" stroke="midnightblue" d="M89.0782,-75.2338C135.404,-71.7616 208.269,-66.3003 254.822,-62.8111"/>
<polygon fill="midnightblue" stroke="midnightblue" points="255.2,-66.2927 264.911,-62.055 254.677,-59.3123 255.2,-66.2927"/>
</g>
<!-- Node8 -->
<g id="node8" class="node"><title>Node8</title>
<g id="a_node8"><a xlink:href="namespacetlz.html#abea9308e4287a82deb9e44e7cc9782a0" target="_top" xlink:title="tlz::view_index_arg">
<polygon fill="white" stroke="black" points="125,-88 125,-107 226,-107 226,-88 125,-88"/>
<text text-anchor="middle" x="175.5" y="-95" font-family="Helvetica,sans-Serif" font-size="10.00">tlz::view_index_arg</text>
</a>
</g>
</g>
<!-- Node1&#45;&gt;Node8 -->
<g id="edge8" class="edge"><title>Node1&#45;&gt;Node8</title>
<path fill="none" stroke="midnightblue" d="M89.1735,-84.9325C97.3691,-86.1396 106.067,-87.4208 114.655,-88.6856"/>
<polygon fill="midnightblue" stroke="midnightblue" points="114.245,-92.1629 124.648,-90.1575 115.265,-85.2376 114.245,-92.1629"/>
</g>
<!-- Node4&#45;&gt;Node2 -->
<g id="edge4" class="edge"><title>Node4&#45;&gt;Node2</title>
<path fill="none" stroke="midnightblue" d="M333.426,-69.089C352.081,-74.6056 375.524,-81.5383 394.583,-87.1743"/>
<polygon fill="midnightblue" stroke="midnightblue" points="393.799,-90.5922 404.381,-90.0717 395.784,-83.8795 393.799,-90.5922"/>
</g>
<!-- Node5 -->
<g id="node5" class="node"><title>Node5</title>
<g id="a_node5"><a xlink:href="classtlz_1_1args__list.html#a73d99bc75998dc14607a3a372d28dc6d" target="_top" xlink:title="tlz::args_list::next_arg">
<polygon fill="white" stroke="black" points="374,-50 374,-69 487,-69 487,-50 374,-50"/>
<text text-anchor="middle" x="430.5" y="-57" font-family="Helvetica,sans-Serif" font-size="10.00">tlz::args_list::next_arg</text>
</a>
</g>
</g>
<!-- Node4&#45;&gt;Node5 -->
<g id="edge5" class="edge"><title>Node4&#45;&gt;Node5</title>
<path fill="none" stroke="midnightblue" d="M335.098,-59.5C343.928,-59.5 353.74,-59.5 363.603,-59.5"/>
<polygon fill="midnightblue" stroke="midnightblue" points="363.862,-63.0001 373.862,-59.5 363.862,-56.0001 363.862,-63.0001"/>
</g>
<!-- Node6 -->
<g id="node6" class="node"><title>Node6</title>
<g id="a_node6"><a xlink:href="classtlz_1_1args__list.html#a38ad21acd64a4af98ffdf4a47837cdbe" target="_top" xlink:title="tlz::args_list::usage_fail">
<polygon fill="white" stroke="black" points="523,-69 523,-88 643,-88 643,-69 523,-69"/>
<text text-anchor="middle" x="583" y="-76" font-family="Helvetica,sans-Serif" font-size="10.00">tlz::args_list::usage_fail</text>
</a>
</g>
</g>
<!-- Node5&#45;&gt;Node6 -->
<g id="edge6" class="edge"><title>Node5&#45;&gt;Node6</title>
<path fill="none" stroke="midnightblue" d="M487.113,-66.5209C495.479,-67.577 504.192,-68.6771 512.8,-69.7638"/>
<polygon fill="midnightblue" stroke="midnightblue" points="512.468,-73.2496 522.828,-71.0298 513.345,-66.3048 512.468,-73.2496"/>
</g>
<!-- Node7 -->
<g id="node7" class="node"><title>Node7</title>
<g id="a_node7"><a xlink:href="namespacetlz.html#a8e4f8c8c2927bc4350de13bfa0f8f9e1" target="_top" xlink:title="tlz::to_string">
<polygon fill="white" stroke="black" points="547.5,-31 547.5,-50 618.5,-50 618.5,-31 547.5,-31"/>
<text text-anchor="middle" x="583" y="-38" font-family="Helvetica,sans-Serif" font-size="10.00">tlz::to_string</text>
</a>
</g>
</g>
<!-- Node5&#45;&gt;Node7 -->
<g id="edge7" class="edge"><title>Node5&#45;&gt;Node7</title>
<path fill="none" stroke="midnightblue" d="M487.113,-52.4791C503.598,-50.3979 521.435,-48.1461 537.147,-46.1625"/>
<polygon fill="midnightblue" stroke="midnightblue" points="537.647,-49.6273 547.13,-44.9023 536.77,-42.6824 537.647,-49.6273"/>
</g>
<!-- Node9 -->
<g id="node9" class="node"><title>Node9</title>
<g id="a_node9"><a xlink:href="namespacetlz.html#a0621d598fb83b13bf028f3e6293d04f8" target="_top" xlink:title="tlz::string_arg">
<polygon fill="white" stroke="black" points="262,-88 262,-107 338,-107 338,-88 262,-88"/>
<text text-anchor="middle" x="300" y="-95" font-family="Helvetica,sans-Serif" font-size="10.00">tlz::string_arg</text>
</a>
</g>
</g>
<!-- Node8&#45;&gt;Node9 -->
<g id="edge9" class="edge"><title>Node8&#45;&gt;Node9</title>
<path fill="none" stroke="midnightblue" d="M226.325,-97.5C234.802,-97.5 243.581,-97.5 251.982,-97.5"/>
<polygon fill="midnightblue" stroke="midnightblue" points="251.997,-101 261.997,-97.5 251.997,-94.0001 251.997,-101"/>
</g>
<!-- Node9&#45;&gt;Node2 -->
<g id="edge10" class="edge"><title>Node9&#45;&gt;Node2</title>
<path fill="none" stroke="midnightblue" d="M338.168,-97.5C355.723,-97.5 376.581,-97.5 393.928,-97.5"/>
<polygon fill="midnightblue" stroke="midnightblue" points="394.216,-101 404.216,-97.5 394.216,-94.0001 394.216,-101"/>
</g>
<!-- Node9&#45;&gt;Node5 -->
<g id="edge11" class="edge"><title>Node9&#45;&gt;Node5</title>
<path fill="none" stroke="midnightblue" d="M333.426,-87.911C349.71,-83.0956 369.642,-77.2012 387.122,-72.032"/>
<polygon fill="midnightblue" stroke="midnightblue" points="388.487,-75.2781 397.084,-69.0859 386.502,-68.5655 388.487,-75.2781"/>
</g>
</g>
</svg>
