<?xml version="1.0" encoding="UTF-8" standalone="no"?>
<!DOCTYPE svg PUBLIC "-//W3C//DTD SVG 1.1//EN"
 "http://www.w3.org/Graphics/SVG/1.1/DTD/svg11.dtd">
<!-- Generated by graphviz version 2.38.0 (20140413.2041)
 -->
<!-- Title: tlz::get_reference_views Pages: 1 -->
<svg width="228pt" height="39pt"
 viewBox="0.00 0.00 228.00 39.00" xmlns="http://www.w3.org/2000/svg" xmlns:xlink="http://www.w3.org/1999/xlink">
<g id="graph0" class="graph" transform="scale(1 1) rotate(0) translate(4 35)">
<title>tlz::get_reference_views</title>
<polygon fill="white" stroke="none" points="-4,4 -4,-35 224,-35 224,4 -4,4"/>
<!-- Node1 -->
<g id="node1" class="node"><title>Node1</title>
<polygon fill="#bfbfbf" stroke="black" points="0,-0.5 0,-30.5 92,-30.5 92,-0.5 0,-0.5"/>
<text text-anchor="start" x="8" y="-18.5" font-family="Helvetica,sans-Serif" font-size="10.00">tlz::get_reference</text>
<text text-anchor="middle" x="46" y="-7.5" font-family="Helvetica,sans-Serif" font-size="10.00">_views</text>
</g>
<!-- Node2 -->
<g id="node2" class="node"><title>Node2</title>
<g id="a_node2"><a xlink:href="namespacetlz.html#a50da847dcfcd4a37035f36baf5658b0d" target="_top" xlink:title="tlz::get_reference\l_views_set">
<polygon fill="white" stroke="black" points="128,-0.5 128,-30.5 220,-30.5 220,-0.5 128,-0.5"/>
<text text-anchor="start" x="136" y="-18.5" font-family="Helvetica,sans-Serif" font-size="10.00">tlz::get_reference</text>
<text text-anchor="middle" x="174" y="-7.5" font-family="Helvetica,sans-Serif" font-size="10.00">_views_set</text>
</a>
</g>
</g>
<!-- Node1&#45;&gt;Node2 -->
<g id="edge1" class="edge"><title>Node1&#45;&gt;Node2</title>
<path fill="none" stroke="midnightblue" d="M92.133,-15.5C100.366,-15.5 109.043,-15.5 117.535,-15.5"/>
<polygon fill="midnightblue" stroke="midnightblue" points="117.759,-19.0001 127.759,-15.5 117.759,-12.0001 117.759,-19.0001"/>
</g>
</g>
</svg>
