<?xml version="1.0" encoding="UTF-8" standalone="no"?>
<!DOCTYPE svg PUBLIC "-//W3C//DTD SVG 1.1//EN"
 "http://www.w3.org/Graphics/SVG/1.1/DTD/svg11.dtd">
<!-- Generated by graphviz version 2.38.0 (20140413.2041)
 -->
<!-- Title: tlz::checkerboard_obj_2img_correspondences Pages: 1 -->
<svg width="289pt" height="88pt"
 viewBox="0.00 0.00 289.00 88.00" xmlns="http://www.w3.org/2000/svg" xmlns:xlink="http://www.w3.org/1999/xlink">
<g id="graph0" class="graph" transform="scale(1 1) rotate(0) translate(4 84)">
<title>tlz::checkerboard_obj_2img_correspondences</title>
<polygon fill="white" stroke="none" points="-4,4 -4,-84 285,-84 285,4 -4,4"/>
<!-- Node1 -->
<g id="node1" class="node"><title>Node1</title>
<polygon fill="#bfbfbf" stroke="black" points="0,-24.5 0,-54.5 122,-54.5 122,-24.5 0,-24.5"/>
<text text-anchor="start" x="8" y="-42.5" font-family="Helvetica,sans-Serif" font-size="10.00">tlz::checkerboard_obj</text>
<text text-anchor="middle" x="61" y="-31.5" font-family="Helvetica,sans-Serif" font-size="10.00">_2img_correspondences</text>
</g>
<!-- Node2 -->
<g id="node2" class="node"><title>Node2</title>
<g id="a_node2"><a xlink:href="namespacetlz.html#acc37da60bde41595da4139110c2d36e6" target="_top" xlink:title="tlz::checkerboard_world\l_corners">
<polygon fill="white" stroke="black" points="159.5,-49.5 159.5,-79.5 279.5,-79.5 279.5,-49.5 159.5,-49.5"/>
<text text-anchor="start" x="167.5" y="-67.5" font-family="Helvetica,sans-Serif" font-size="10.00">tlz::checkerboard_world</text>
<text text-anchor="middle" x="219.5" y="-56.5" font-family="Helvetica,sans-Serif" font-size="10.00">_corners</text>
</a>
</g>
</g>
<!-- Node1&#45;&gt;Node2 -->
<g id="edge1" class="edge"><title>Node1&#45;&gt;Node2</title>
<path fill="none" stroke="midnightblue" d="M122.059,-49.0942C130.953,-50.5148 140.178,-51.9885 149.24,-53.4361"/>
<polygon fill="midnightblue" stroke="midnightblue" points="148.949,-56.9339 159.376,-55.0553 150.053,-50.0215 148.949,-56.9339"/>
</g>
<!-- Node3 -->
<g id="node3" class="node"><title>Node3</title>
<g id="a_node3"><a xlink:href="namespacetlz.html#a6693dca816d6f48429d1c607ced26f3b" target="_top" xlink:title="tlz::checkerboard_image\l_corners">
<polygon fill="white" stroke="black" points="158,-0.5 158,-30.5 281,-30.5 281,-0.5 158,-0.5"/>
<text text-anchor="start" x="166" y="-18.5" font-family="Helvetica,sans-Serif" font-size="10.00">tlz::checkerboard_image</text>
<text text-anchor="middle" x="219.5" y="-7.5" font-family="Helvetica,sans-Serif" font-size="10.00">_corners</text>
</a>
</g>
</g>
<!-- Node1&#45;&gt;Node3 -->
<g id="edge2" class="edge"><title>Node1&#45;&gt;Node3</title>
<path fill="none" stroke="midnightblue" d="M122.059,-30.2896C130.485,-28.9975 139.209,-27.6596 147.81,-26.3406"/>
<polygon fill="midnightblue" stroke="midnightblue" points="148.471,-29.7803 157.825,-24.8048 147.41,-22.8611 148.471,-29.7803"/>
</g>
</g>
</svg>
