<?xml version="1.0" encoding="UTF-8" standalone="no"?>
<!DOCTYPE svg PUBLIC "-//W3C//DTD SVG 1.1//EN"
 "http://www.w3.org/Graphics/SVG/1.1/DTD/svg11.dtd">
<!-- Generated by graphviz version 2.38.0 (20140413.2041)
 -->
<!-- Title: tlz::string_opt_arg Pages: 1 -->
<svg width="658pt" height="156pt"
 viewBox="0.00 0.00 658.00 156.37" xmlns="http://www.w3.org/2000/svg" xmlns:xlink="http://www.w3.org/1999/xlink">
<g id="graph0" class="graph" transform="scale(1 1) rotate(0) translate(4 152.368)">
<title>tlz::string_opt_arg</title>
<polygon fill="white" stroke="none" points="-4,4 -4,-152.368 654,-152.368 654,4 -4,4"/>
<!-- Node1 -->
<g id="node1" class="node"><title>Node1</title>
<polygon fill="#bfbfbf" stroke="black" points="0,-69 0,-88 95,-88 95,-69 0,-69"/>
<text text-anchor="middle" x="47.5" y="-76" font-family="Helvetica,sans-Serif" font-size="10.00">tlz::string_opt_arg</text>
</g>
<!-- Node2 -->
<g id="node2" class="node"><title>Node2</title>
<g id="a_node2"><a xlink:href="namespacetlz.html#a780431daab8d2595372eacb43143b52d" target="_top" xlink:title="tlz::args">
<polygon fill="white" stroke="black" points="411.5,-69 411.5,-88 463.5,-88 463.5,-69 411.5,-69"/>
<text text-anchor="middle" x="437.5" y="-76" font-family="Helvetica,sans-Serif" font-size="10.00">tlz::args</text>
</a>
</g>
</g>
<!-- Node1&#45;&gt;Node2 -->
<g id="edge1" class="edge"><title>Node1&#45;&gt;Node2</title>
<path fill="none" stroke="midnightblue" d="M65.3108,-88.0334C81.593,-96.829 107.239,-109.546 131,-116.5 222.641,-143.321 253.196,-161.756 345,-135.5 372.582,-127.612 399.937,-108.735 417.45,-94.8563"/>
<polygon fill="midnightblue" stroke="midnightblue" points="420.136,-97.1804 425.659,-88.139 415.703,-91.7628 420.136,-97.1804"/>
</g>
<!-- Node3 -->
<g id="node3" class="node"><title>Node3</title>
<g id="a_node3"><a xlink:href="classtlz_1_1args__list.html#a4aee93f4b0d9b5b4e7a5d13cb637337c" target="_top" xlink:title="tlz::args_list::has\l_next_arg">
<polygon fill="white" stroke="black" points="135.5,-0.5 135.5,-30.5 227.5,-30.5 227.5,-0.5 135.5,-0.5"/>
<text text-anchor="start" x="143.5" y="-18.5" font-family="Helvetica,sans-Serif" font-size="10.00">tlz::args_list::has</text>
<text text-anchor="middle" x="181.5" y="-7.5" font-family="Helvetica,sans-Serif" font-size="10.00">_next_arg</text>
</a>
</g>
</g>
<!-- Node1&#45;&gt;Node3 -->
<g id="edge2" class="edge"><title>Node1&#45;&gt;Node3</title>
<path fill="none" stroke="midnightblue" d="M68.548,-68.9317C87.3944,-59.9368 116.165,-46.2054 139.82,-34.9153"/>
<polygon fill="midnightblue" stroke="midnightblue" points="141.418,-38.0311 148.935,-30.565 138.403,-31.7137 141.418,-38.0311"/>
</g>
<!-- Node4 -->
<g id="node4" class="node"><title>Node4</title>
<g id="a_node4"><a xlink:href="namespacetlz.html#a0621d598fb83b13bf028f3e6293d04f8" target="_top" xlink:title="tlz::string_arg">
<polygon fill="white" stroke="black" points="268.5,-31 268.5,-50 344.5,-50 344.5,-31 268.5,-31"/>
<text text-anchor="middle" x="306.5" y="-38" font-family="Helvetica,sans-Serif" font-size="10.00">tlz::string_arg</text>
</a>
</g>
</g>
<!-- Node1&#45;&gt;Node4 -->
<g id="edge3" class="edge"><title>Node1&#45;&gt;Node4</title>
<path fill="none" stroke="midnightblue" d="M95.0408,-71.6185C141.301,-64.7784 211.884,-54.342 258.355,-47.4708"/>
<polygon fill="midnightblue" stroke="midnightblue" points="259.084,-50.9012 268.464,-45.9761 258.06,-43.9765 259.084,-50.9012"/>
</g>
<!-- Node8 -->
<g id="node8" class="node"><title>Node8</title>
<g id="a_node8"><a xlink:href="namespacetlz.html#a634de7ca11e100e4a118dffe80376a75" target="_top" xlink:title="tlz::in_filename_arg">
<polygon fill="white" stroke="black" points="131,-88 131,-107 232,-107 232,-88 131,-88"/>
<text text-anchor="middle" x="181.5" y="-95" font-family="Helvetica,sans-Serif" font-size="10.00">tlz::in_filename_arg</text>
</a>
</g>
</g>
<!-- Node1&#45;&gt;Node8 -->
<g id="edge8" class="edge"><title>Node1&#45;&gt;Node8</title>
<path fill="none" stroke="midnightblue" d="M95.0383,-85.1987C103.361,-86.3966 112.137,-87.6598 120.768,-88.9023"/>
<polygon fill="midnightblue" stroke="midnightblue" points="120.403,-92.3856 130.799,-90.3461 121.4,-85.457 120.403,-92.3856"/>
</g>
<!-- Node4&#45;&gt;Node2 -->
<g id="edge4" class="edge"><title>Node4&#45;&gt;Node2</title>
<path fill="none" stroke="midnightblue" d="M340.052,-50.089C358.78,-55.6056 382.314,-62.5383 401.447,-68.1743"/>
<polygon fill="midnightblue" stroke="midnightblue" points="400.701,-71.6033 411.283,-71.0717 402.679,-64.8886 400.701,-71.6033"/>
</g>
<!-- Node5 -->
<g id="node5" class="node"><title>Node5</title>
<g id="a_node5"><a xlink:href="classtlz_1_1args__list.html#a73d99bc75998dc14607a3a372d28dc6d" target="_top" xlink:title="tlz::args_list::next_arg">
<polygon fill="white" stroke="black" points="381,-31 381,-50 494,-50 494,-31 381,-31"/>
<text text-anchor="middle" x="437.5" y="-38" font-family="Helvetica,sans-Serif" font-size="10.00">tlz::args_list::next_arg</text>
</a>
</g>
</g>
<!-- Node4&#45;&gt;Node5 -->
<g id="edge5" class="edge"><title>Node4&#45;&gt;Node5</title>
<path fill="none" stroke="midnightblue" d="M344.812,-40.5C352.835,-40.5 361.544,-40.5 370.295,-40.5"/>
<polygon fill="midnightblue" stroke="midnightblue" points="370.549,-44.0001 380.549,-40.5 370.549,-37.0001 370.549,-44.0001"/>
</g>
<!-- Node6 -->
<g id="node6" class="node"><title>Node6</title>
<g id="a_node6"><a xlink:href="classtlz_1_1args__list.html#a38ad21acd64a4af98ffdf4a47837cdbe" target="_top" xlink:title="tlz::args_list::usage_fail">
<polygon fill="white" stroke="black" points="530,-107 530,-126 650,-126 650,-107 530,-107"/>
<text text-anchor="middle" x="590" y="-114" font-family="Helvetica,sans-Serif" font-size="10.00">tlz::args_list::usage_fail</text>
</a>
</g>
</g>
<!-- Node5&#45;&gt;Node6 -->
<g id="edge6" class="edge"><title>Node5&#45;&gt;Node6</title>
<path fill="none" stroke="midnightblue" d="M470.069,-50.0218C478.011,-52.7652 486.427,-55.9797 494,-59.5 519.931,-71.5538 547.784,-88.8315 566.58,-101.2"/>
<polygon fill="midnightblue" stroke="midnightblue" points="564.77,-104.2 575.032,-106.833 568.652,-98.3749 564.77,-104.2"/>
</g>
<!-- Node7 -->
<g id="node7" class="node"><title>Node7</title>
<g id="a_node7"><a xlink:href="namespacetlz.html#a8e4f8c8c2927bc4350de13bfa0f8f9e1" target="_top" xlink:title="tlz::to_string">
<polygon fill="white" stroke="black" points="554.5,-31 554.5,-50 625.5,-50 625.5,-31 554.5,-31"/>
<text text-anchor="middle" x="590" y="-38" font-family="Helvetica,sans-Serif" font-size="10.00">tlz::to_string</text>
</a>
</g>
</g>
<!-- Node5&#45;&gt;Node7 -->
<g id="edge7" class="edge"><title>Node5&#45;&gt;Node7</title>
<path fill="none" stroke="midnightblue" d="M494.113,-40.5C510.441,-40.5 528.096,-40.5 543.698,-40.5"/>
<polygon fill="midnightblue" stroke="midnightblue" points="544.13,-44.0001 554.13,-40.5 544.129,-37.0001 544.13,-44.0001"/>
</g>
<!-- Node8&#45;&gt;Node2 -->
<g id="edge11" class="edge"><title>Node8&#45;&gt;Node2</title>
<path fill="none" stroke="midnightblue" d="M232.077,-93.7915C281.826,-90.0701 357.206,-84.4315 401.182,-81.1419"/>
<polygon fill="midnightblue" stroke="midnightblue" points="401.677,-84.6148 411.388,-80.3785 401.154,-77.6343 401.677,-84.6148"/>
</g>
<!-- Node8&#45;&gt;Node4 -->
<g id="edge9" class="edge"><title>Node8&#45;&gt;Node4</title>
<path fill="none" stroke="midnightblue" d="M203.087,-87.9595C222.954,-78.7528 253.246,-64.7153 275.737,-54.2926"/>
<polygon fill="midnightblue" stroke="midnightblue" points="277.244,-57.4519 284.845,-50.0716 274.301,-51.1007 277.244,-57.4519"/>
</g>
<!-- Node8&#45;&gt;Node6 -->
<g id="edge12" class="edge"><title>Node8&#45;&gt;Node6</title>
<path fill="none" stroke="midnightblue" d="M198.515,-107.072C215.196,-116.441 242.417,-130.071 268,-135.5 361.307,-155.301 473.053,-140.207 537.062,-127.977"/>
<polygon fill="midnightblue" stroke="midnightblue" points="537.775,-131.404 546.915,-126.045 536.428,-124.535 537.775,-131.404"/>
</g>
<!-- Node9 -->
<g id="node9" class="node"><title>Node9</title>
<g id="a_node9"><a xlink:href="namespacetlz.html#abb019466ea9f56c0dab27e893d891837" target="_top" xlink:title="tlz::file_exists">
<polygon fill="white" stroke="black" points="268,-107 268,-126 345,-126 345,-107 268,-107"/>
<text text-anchor="middle" x="306.5" y="-114" font-family="Helvetica,sans-Serif" font-size="10.00">tlz::file_exists</text>
</a>
</g>
</g>
<!-- Node8&#45;&gt;Node9 -->
<g id="edge10" class="edge"><title>Node8&#45;&gt;Node9</title>
<path fill="none" stroke="midnightblue" d="M232.174,-105.173C240.612,-106.477 249.358,-107.828 257.744,-109.123"/>
<polygon fill="midnightblue" stroke="midnightblue" points="257.334,-112.601 267.751,-110.669 258.402,-105.683 257.334,-112.601"/>
</g>
</g>
</svg>
