<?xml version="1.0" encoding="UTF-8" standalone="no"?>
<!DOCTYPE svg PUBLIC "-//W3C//DTD SVG 1.1//EN"
 "http://www.w3.org/Graphics/SVG/1.1/DTD/svg11.dtd">
<!-- Generated by graphviz version 2.38.0 (20140413.2041)
 -->
<!-- Title: tlz::decode_image_correspondence_feature Pages: 1 -->
<svg width="514pt" height="89pt"
 viewBox="0.00 0.00 514.00 89.11" xmlns="http://www.w3.org/2000/svg" xmlns:xlink="http://www.w3.org/1999/xlink">
<g id="graph0" class="graph" transform="scale(1 1) rotate(0) translate(4 85.113)">
<title>tlz::decode_image_correspondence_feature</title>
<polygon fill="white" stroke="none" points="-4,4 -4,-85.113 510,-85.113 510,4 -4,4"/>
<!-- Node1 -->
<g id="node1" class="node"><title>Node1</title>
<polygon fill="#bfbfbf" stroke="black" points="0,-44.5 0,-74.5 170,-74.5 170,-44.5 0,-44.5"/>
<text text-anchor="start" x="8" y="-62.5" font-family="Helvetica,sans-Serif" font-size="10.00">tlz::decode_image_correspondence</text>
<text text-anchor="middle" x="85" y="-51.5" font-family="Helvetica,sans-Serif" font-size="10.00">_feature</text>
</g>
<!-- Node2 -->
<g id="node2" class="node"><title>Node2</title>
<g id="a_node2"><a xlink:href="namespacetlz.html#a252af14b9b4ac6502d3e9c5dd8dc90b8" target="_top" xlink:title="tlz::has">
<polygon fill="white" stroke="black" points="457,-58 457,-77 506,-77 506,-58 457,-58"/>
<text text-anchor="middle" x="481.5" y="-65" font-family="Helvetica,sans-Serif" font-size="10.00">tlz::has</text>
</a>
</g>
</g>
<!-- Node1&#45;&gt;Node2 -->
<g id="edge1" class="edge"><title>Node1&#45;&gt;Node2</title>
<path fill="none" stroke="midnightblue" d="M170.049,-74.5185C182.079,-76.1687 194.33,-77.5818 206,-78.5 292.742,-85.3246 395.255,-76.8363 447.011,-71.394"/>
<polygon fill="midnightblue" stroke="midnightblue" points="447.398,-74.8727 456.964,-70.3186 446.646,-67.9132 447.398,-74.8727"/>
</g>
<!-- Node3 -->
<g id="node3" class="node"><title>Node3</title>
<g id="a_node3"><a xlink:href="namespacetlz.html#a74e8454f97dace7cffb1afdb6d3ca87b" target="_top" xlink:title="tlz::decode_view_index">
<polygon fill="white" stroke="black" points="206,-50 206,-69 325,-69 325,-50 206,-50"/>
<text text-anchor="middle" x="265.5" y="-57" font-family="Helvetica,sans-Serif" font-size="10.00">tlz::decode_view_index</text>
</a>
</g>
</g>
<!-- Node1&#45;&gt;Node3 -->
<g id="edge2" class="edge"><title>Node1&#45;&gt;Node3</title>
<path fill="none" stroke="midnightblue" d="M170.023,-59.5C178.638,-59.5 187.317,-59.5 195.739,-59.5"/>
<polygon fill="midnightblue" stroke="midnightblue" points="195.863,-63.0001 205.863,-59.5 195.863,-56.0001 195.863,-63.0001"/>
</g>
<!-- Node4 -->
<g id="node4" class="node"><title>Node4</title>
<g id="a_node4"><a xlink:href="namespacetlz.html#ae8f9175a86bbe49ac0f4485d5db3080b" target="_top" xlink:title="tlz::decode_feature\l_point">
<polygon fill="white" stroke="black" points="215.5,-0.5 215.5,-30.5 315.5,-30.5 315.5,-0.5 215.5,-0.5"/>
<text text-anchor="start" x="223.5" y="-18.5" font-family="Helvetica,sans-Serif" font-size="10.00">tlz::decode_feature</text>
<text text-anchor="middle" x="265.5" y="-7.5" font-family="Helvetica,sans-Serif" font-size="10.00">_point</text>
</a>
</g>
</g>
<!-- Node1&#45;&gt;Node4 -->
<g id="edge3" class="edge"><title>Node1&#45;&gt;Node4</title>
<path fill="none" stroke="midnightblue" d="M146.93,-44.4808C165.85,-39.817 186.664,-34.6864 205.454,-30.0549"/>
<polygon fill="midnightblue" stroke="midnightblue" points="206.494,-33.4034 215.365,-27.6117 204.818,-26.6068 206.494,-33.4034"/>
</g>
<!-- Node5 -->
<g id="node5" class="node"><title>Node5</title>
<g id="a_node5"><a xlink:href="namespacetlz.html#add846dc50c32dfb356cb1a7ac11d37ac" target="_top" xlink:title="tlz::get_or">
<polygon fill="white" stroke="black" points="361,-28 361,-47 421,-47 421,-28 361,-28"/>
<text text-anchor="middle" x="391" y="-35" font-family="Helvetica,sans-Serif" font-size="10.00">tlz::get_or</text>
</a>
</g>
</g>
<!-- Node4&#45;&gt;Node5 -->
<g id="edge4" class="edge"><title>Node4&#45;&gt;Node5</title>
<path fill="none" stroke="midnightblue" d="M315.665,-24.2582C327.407,-26.3499 339.784,-28.5546 350.996,-30.552"/>
<polygon fill="midnightblue" stroke="midnightblue" points="350.457,-34.0109 360.915,-32.3189 351.684,-27.1193 350.457,-34.0109"/>
</g>
<!-- Node5&#45;&gt;Node2 -->
<g id="edge5" class="edge"><title>Node5&#45;&gt;Node2</title>
<path fill="none" stroke="midnightblue" d="M420.489,-47.1573C429.007,-50.0446 438.42,-53.2357 447.217,-56.2175"/>
<polygon fill="midnightblue" stroke="midnightblue" points="446.211,-59.5722 456.805,-59.4679 448.458,-52.9428 446.211,-59.5722"/>
</g>
</g>
</svg>
