<?xml version="1.0" encoding="UTF-8" standalone="no"?>
<!DOCTYPE svg PUBLIC "-//W3C//DTD SVG 1.1//EN"
 "http://www.w3.org/Graphics/SVG/1.1/DTD/svg11.dtd">
<!-- Generated by graphviz version 2.38.0 (20140413.2041)
 -->
<!-- Title: tlz::checkerboard_obj_img_correspondences Pages: 1 -->
<svg width="284pt" height="88pt"
 viewBox="0.00 0.00 284.00 88.00" xmlns="http://www.w3.org/2000/svg" xmlns:xlink="http://www.w3.org/1999/xlink">
<g id="graph0" class="graph" transform="scale(1 1) rotate(0) translate(4 84)">
<title>tlz::checkerboard_obj_img_correspondences</title>
<polygon fill="white" stroke="none" points="-4,4 -4,-84 280,-84 280,4 -4,4"/>
<!-- Node1 -->
<g id="node1" class="node"><title>Node1</title>
<polygon fill="#bfbfbf" stroke="black" points="0,-24.5 0,-54.5 117,-54.5 117,-24.5 0,-24.5"/>
<text text-anchor="start" x="8" y="-42.5" font-family="Helvetica,sans-Serif" font-size="10.00">tlz::checkerboard_obj</text>
<text text-anchor="middle" x="58.5" y="-31.5" font-family="Helvetica,sans-Serif" font-size="10.00">_img_correspondences</text>
</g>
<!-- Node2 -->
<g id="node2" class="node"><title>Node2</title>
<g id="a_node2"><a xlink:href="namespacetlz.html#acc37da60bde41595da4139110c2d36e6" target="_top" xlink:title="tlz::checkerboard_world\l_corners">
<polygon fill="white" stroke="black" points="154.5,-49.5 154.5,-79.5 274.5,-79.5 274.5,-49.5 154.5,-49.5"/>
<text text-anchor="start" x="162.5" y="-67.5" font-family="Helvetica,sans-Serif" font-size="10.00">tlz::checkerboard_world</text>
<text text-anchor="middle" x="214.5" y="-56.5" font-family="Helvetica,sans-Serif" font-size="10.00">_corners</text>
</a>
</g>
</g>
<!-- Node1&#45;&gt;Node2 -->
<g id="edge1" class="edge"><title>Node1&#45;&gt;Node2</title>
<path fill="none" stroke="midnightblue" d="M117.282,-48.8802C126.088,-50.3097 135.251,-51.7973 144.271,-53.2616"/>
<polygon fill="midnightblue" stroke="midnightblue" points="143.936,-56.7528 154.367,-54.9005 145.057,-49.8433 143.936,-56.7528"/>
</g>
<!-- Node3 -->
<g id="node3" class="node"><title>Node3</title>
<g id="a_node3"><a xlink:href="namespacetlz.html#a6693dca816d6f48429d1c607ced26f3b" target="_top" xlink:title="tlz::checkerboard_image\l_corners">
<polygon fill="white" stroke="black" points="153,-0.5 153,-30.5 276,-30.5 276,-0.5 153,-0.5"/>
<text text-anchor="start" x="161" y="-18.5" font-family="Helvetica,sans-Serif" font-size="10.00">tlz::checkerboard_image</text>
<text text-anchor="middle" x="214.5" y="-7.5" font-family="Helvetica,sans-Serif" font-size="10.00">_corners</text>
</a>
</g>
</g>
<!-- Node1&#45;&gt;Node3 -->
<g id="edge2" class="edge"><title>Node1&#45;&gt;Node3</title>
<path fill="none" stroke="midnightblue" d="M117.282,-30.495C125.625,-29.1948 134.289,-27.8446 142.848,-26.5107"/>
<polygon fill="midnightblue" stroke="midnightblue" points="143.48,-29.9546 152.822,-24.9564 142.402,-23.038 143.48,-29.9546"/>
</g>
</g>
</svg>
