<?xml version="1.0" encoding="UTF-8" standalone="no"?>
<!DOCTYPE svg PUBLIC "-//W3C//DTD SVG 1.1//EN"
 "http://www.w3.org/Graphics/SVG/1.1/DTD/svg11.dtd">
<!-- Generated by graphviz version 2.38.0 (20140413.2041)
 -->
<!-- Title: tlz::real_opt_arg Pages: 1 -->
<svg width="527pt" height="154pt"
 viewBox="0.00 0.00 527.00 153.50" xmlns="http://www.w3.org/2000/svg" xmlns:xlink="http://www.w3.org/1999/xlink">
<g id="graph0" class="graph" transform="scale(1 1) rotate(0) translate(4 149.5)">
<title>tlz::real_opt_arg</title>
<polygon fill="white" stroke="none" points="-4,4 -4,-149.5 523,-149.5 523,4 -4,4"/>
<!-- Node1 -->
<g id="node1" class="node"><title>Node1</title>
<polygon fill="#bfbfbf" stroke="black" points="0,-69 0,-88 86,-88 86,-69 0,-69"/>
<text text-anchor="middle" x="43" y="-76" font-family="Helvetica,sans-Serif" font-size="10.00">tlz::real_opt_arg</text>
</g>
<!-- Node2 -->
<g id="node2" class="node"><title>Node2</title>
<g id="a_node2"><a xlink:href="namespacetlz.html#a780431daab8d2595372eacb43143b52d" target="_top" xlink:title="tlz::args">
<polygon fill="white" stroke="black" points="280.5,-126 280.5,-145 332.5,-145 332.5,-126 280.5,-126"/>
<text text-anchor="middle" x="306.5" y="-133" font-family="Helvetica,sans-Serif" font-size="10.00">tlz::args</text>
</a>
</g>
</g>
<!-- Node1&#45;&gt;Node2 -->
<g id="edge1" class="edge"><title>Node1&#45;&gt;Node2</title>
<path fill="none" stroke="midnightblue" d="M59.4793,-88.0686C74.7673,-97.0199 99.1156,-109.963 122,-116.5 172.032,-130.793 232.465,-134.597 269.947,-135.468"/>
<polygon fill="midnightblue" stroke="midnightblue" points="270.285,-138.975 280.344,-135.648 270.406,-131.976 270.285,-138.975"/>
</g>
<!-- Node3 -->
<g id="node3" class="node"><title>Node3</title>
<g id="a_node3"><a xlink:href="classtlz_1_1args__list.html#a4aee93f4b0d9b5b4e7a5d13cb637337c" target="_top" xlink:title="tlz::args_list::has\l_next_arg">
<polygon fill="white" stroke="black" points="122,-0.5 122,-30.5 214,-30.5 214,-0.5 122,-0.5"/>
<text text-anchor="start" x="130" y="-18.5" font-family="Helvetica,sans-Serif" font-size="10.00">tlz::args_list::has</text>
<text text-anchor="middle" x="168" y="-7.5" font-family="Helvetica,sans-Serif" font-size="10.00">_next_arg</text>
</a>
</g>
</g>
<!-- Node1&#45;&gt;Node3 -->
<g id="edge2" class="edge"><title>Node1&#45;&gt;Node3</title>
<path fill="none" stroke="midnightblue" d="M62.6811,-68.9317C80.0871,-60.0164 106.578,-46.448 128.508,-35.2156"/>
<polygon fill="midnightblue" stroke="midnightblue" points="130.282,-38.239 137.587,-30.565 127.091,-32.0087 130.282,-38.239"/>
</g>
<!-- Node4 -->
<g id="node4" class="node"><title>Node4</title>
<g id="a_node4"><a xlink:href="namespacetlz.html#a63246890b0c946b5f62a1d3e2bea6103" target="_top" xlink:title="tlz::real_arg">
<polygon fill="white" stroke="black" points="134,-50 134,-69 202,-69 202,-50 134,-50"/>
<text text-anchor="middle" x="168" y="-57" font-family="Helvetica,sans-Serif" font-size="10.00">tlz::real_arg</text>
</a>
</g>
</g>
<!-- Node1&#45;&gt;Node4 -->
<g id="edge3" class="edge"><title>Node1&#45;&gt;Node4</title>
<path fill="none" stroke="midnightblue" d="M86.3296,-71.9613C98.4906,-70.0828 111.763,-68.0326 123.966,-66.1476"/>
<polygon fill="midnightblue" stroke="midnightblue" points="124.568,-69.5961 133.917,-64.6104 123.5,-62.6781 124.568,-69.5961"/>
</g>
<!-- Node8 -->
<g id="node8" class="node"><title>Node8</title>
<g id="a_node8"><a xlink:href="namespacetlz.html#aea648783e0ac6c50afae30a01cfc260d" target="_top" xlink:title="tlz::enum_arg">
<polygon fill="white" stroke="black" points="130,-88 130,-107 206,-107 206,-88 130,-88"/>
<text text-anchor="middle" x="168" y="-95" font-family="Helvetica,sans-Serif" font-size="10.00">tlz::enum_arg</text>
</a>
</g>
</g>
<!-- Node1&#45;&gt;Node8 -->
<g id="edge9" class="edge"><title>Node1&#45;&gt;Node8</title>
<path fill="none" stroke="midnightblue" d="M86.3296,-85.0387C97.1833,-86.7153 108.922,-88.5286 119.996,-90.2392"/>
<polygon fill="midnightblue" stroke="midnightblue" points="119.517,-93.7067 129.934,-91.7744 120.586,-86.7887 119.517,-93.7067"/>
</g>
<!-- Node4&#45;&gt;Node2 -->
<g id="edge4" class="edge"><title>Node4&#45;&gt;Node2</title>
<path fill="none" stroke="midnightblue" d="M193.611,-69.067C200.323,-71.8974 207.525,-75.1431 214,-78.5 238.336,-91.1177 264.777,-107.956 282.948,-120.055"/>
<polygon fill="midnightblue" stroke="midnightblue" points="281.39,-123.225 291.641,-125.902 285.297,-117.417 281.39,-123.225"/>
</g>
<!-- Node5 -->
<g id="node5" class="node"><title>Node5</title>
<g id="a_node5"><a xlink:href="classtlz_1_1args__list.html#a73d99bc75998dc14607a3a372d28dc6d" target="_top" xlink:title="tlz::args_list::next_arg">
<polygon fill="white" stroke="black" points="250,-50 250,-69 363,-69 363,-50 250,-50"/>
<text text-anchor="middle" x="306.5" y="-57" font-family="Helvetica,sans-Serif" font-size="10.00">tlz::args_list::next_arg</text>
</a>
</g>
</g>
<!-- Node4&#45;&gt;Node5 -->
<g id="edge5" class="edge"><title>Node4&#45;&gt;Node5</title>
<path fill="none" stroke="midnightblue" d="M202.043,-59.5C213.374,-59.5 226.488,-59.5 239.493,-59.5"/>
<polygon fill="midnightblue" stroke="midnightblue" points="239.863,-63.0001 249.863,-59.5 239.863,-56.0001 239.863,-63.0001"/>
</g>
<!-- Node6 -->
<g id="node6" class="node"><title>Node6</title>
<g id="a_node6"><a xlink:href="classtlz_1_1args__list.html#a38ad21acd64a4af98ffdf4a47837cdbe" target="_top" xlink:title="tlz::args_list::usage_fail">
<polygon fill="white" stroke="black" points="399,-31 399,-50 519,-50 519,-31 399,-31"/>
<text text-anchor="middle" x="459" y="-38" font-family="Helvetica,sans-Serif" font-size="10.00">tlz::args_list::usage_fail</text>
</a>
</g>
</g>
<!-- Node4&#45;&gt;Node6 -->
<g id="edge8" class="edge"><title>Node4&#45;&gt;Node6</title>
<path fill="none" stroke="midnightblue" d="M201.8,-49.9931C216.417,-46.2287 233.93,-42.3595 250,-40.5 295.966,-35.1811 348.03,-35.1869 388.57,-36.5196"/>
<polygon fill="midnightblue" stroke="midnightblue" points="388.498,-40.0191 398.618,-36.8845 388.752,-33.0238 388.498,-40.0191"/>
</g>
<!-- Node5&#45;&gt;Node6 -->
<g id="edge6" class="edge"><title>Node5&#45;&gt;Node6</title>
<path fill="none" stroke="midnightblue" d="M363.113,-52.4791C371.479,-51.423 380.192,-50.3229 388.8,-49.2362"/>
<polygon fill="midnightblue" stroke="midnightblue" points="389.345,-52.6952 398.828,-47.9702 388.468,-45.7504 389.345,-52.6952"/>
</g>
<!-- Node7 -->
<g id="node7" class="node"><title>Node7</title>
<g id="a_node7"><a xlink:href="namespacetlz.html#a8e4f8c8c2927bc4350de13bfa0f8f9e1" target="_top" xlink:title="tlz::to_string">
<polygon fill="white" stroke="black" points="423.5,-69 423.5,-88 494.5,-88 494.5,-69 423.5,-69"/>
<text text-anchor="middle" x="459" y="-76" font-family="Helvetica,sans-Serif" font-size="10.00">tlz::to_string</text>
</a>
</g>
</g>
<!-- Node5&#45;&gt;Node7 -->
<g id="edge7" class="edge"><title>Node5&#45;&gt;Node7</title>
<path fill="none" stroke="midnightblue" d="M363.113,-66.5209C379.598,-68.6021 397.435,-70.8539 413.147,-72.8375"/>
<polygon fill="midnightblue" stroke="midnightblue" points="412.77,-76.3176 423.13,-74.0977 413.647,-69.3727 412.77,-76.3176"/>
</g>
<!-- Node8&#45;&gt;Node2 -->
<g id="edge10" class="edge"><title>Node8&#45;&gt;Node2</title>
<path fill="none" stroke="midnightblue" d="M203.445,-107.089C223.942,-112.795 249.882,-120.017 270.48,-125.751"/>
<polygon fill="midnightblue" stroke="midnightblue" points="269.543,-129.123 280.115,-128.433 271.42,-122.379 269.543,-129.123"/>
</g>
<!-- Node8&#45;&gt;Node5 -->
<g id="edge11" class="edge"><title>Node8&#45;&gt;Node5</title>
<path fill="none" stroke="midnightblue" d="M203.445,-87.911C220.985,-83.0281 242.51,-77.0357 261.263,-71.815"/>
<polygon fill="midnightblue" stroke="midnightblue" points="262.371,-75.1397 271.066,-69.0859 260.494,-68.3961 262.371,-75.1397"/>
</g>
<!-- Node8&#45;&gt;Node6 -->
<g id="edge12" class="edge"><title>Node8&#45;&gt;Node6</title>
<path fill="none" stroke="midnightblue" d="M206.289,-98.0785C245.964,-97.7257 310.167,-94.3595 363,-78.5 380.328,-73.2985 382.327,-66.5216 399,-59.5 404.145,-57.3334 409.627,-55.2647 415.099,-53.3432"/>
<polygon fill="midnightblue" stroke="midnightblue" points="416.503,-56.5637 424.862,-50.0541 414.268,-49.93 416.503,-56.5637"/>
</g>
</g>
</svg>
