<?xml version="1.0" encoding="UTF-8" standalone="no"?>
<!DOCTYPE svg PUBLIC "-//W3C//DTD SVG 1.1//EN"
 "http://www.w3.org/Graphics/SVG/1.1/DTD/svg11.dtd">
<!-- Generated by graphviz version 2.38.0 (20140413.2041)
 -->
<!-- Title: tlz::feature_points_arg Pages: 1 -->
<svg width="830pt" height="273pt"
 viewBox="0.00 0.00 830.00 272.87" xmlns="http://www.w3.org/2000/svg" xmlns:xlink="http://www.w3.org/1999/xlink">
<g id="graph0" class="graph" transform="scale(1 1) rotate(0) translate(4 268.875)">
<title>tlz::feature_points_arg</title>
<polygon fill="white" stroke="none" points="-4,4 -4,-268.875 826,-268.875 826,4 -4,4"/>
<!-- Node1 -->
<g id="node1" class="node"><title>Node1</title>
<polygon fill="#bfbfbf" stroke="black" points="0,-139.5 0,-158.5 113,-158.5 113,-139.5 0,-139.5"/>
<text text-anchor="middle" x="56.5" y="-146.5" font-family="Helvetica,sans-Serif" font-size="10.00">tlz::feature_points_arg</text>
</g>
<!-- Node2 -->
<g id="node2" class="node"><title>Node2</title>
<g id="a_node2"><a xlink:href="namespacetlz.html#abc92401653ee5627160c4f3c48a11311" target="_top" xlink:title="tlz::decode_feature\l_points">
<polygon fill="white" stroke="black" points="149,-178 149,-208 249,-208 249,-178 149,-178"/>
<text text-anchor="start" x="157" y="-196" font-family="Helvetica,sans-Serif" font-size="10.00">tlz::decode_feature</text>
<text text-anchor="middle" x="199" y="-185" font-family="Helvetica,sans-Serif" font-size="10.00">_points</text>
</a>
</g>
</g>
<!-- Node1&#45;&gt;Node2 -->
<g id="edge1" class="edge"><title>Node1&#45;&gt;Node2</title>
<path fill="none" stroke="midnightblue" d="M87.9864,-158.547C103.24,-163.324 122.223,-169.269 140.104,-174.869"/>
<polygon fill="midnightblue" stroke="midnightblue" points="139.305,-178.286 149.894,-177.935 141.397,-171.606 139.305,-178.286"/>
</g>
<!-- Node7 -->
<g id="node7" class="node"><title>Node7</title>
<g id="a_node7"><a xlink:href="namespacetlz.html#a35f9e03fa4fd9cec699f5fa27962400f" target="_top" xlink:title="tlz::json_arg">
<polygon fill="white" stroke="black" points="164,-95.5 164,-114.5 234,-114.5 234,-95.5 164,-95.5"/>
<text text-anchor="middle" x="199" y="-102.5" font-family="Helvetica,sans-Serif" font-size="10.00">tlz::json_arg</text>
</a>
</g>
</g>
<!-- Node1&#45;&gt;Node7 -->
<g id="edge8" class="edge"><title>Node1&#45;&gt;Node7</title>
<path fill="none" stroke="midnightblue" d="M87.9864,-139.453C108.423,-133.053 135.554,-124.556 157.759,-117.602"/>
<polygon fill="midnightblue" stroke="midnightblue" points="159.076,-120.857 167.573,-114.529 156.984,-114.177 159.076,-120.857"/>
</g>
<!-- Node3 -->
<g id="node3" class="node"><title>Node3</title>
<g id="a_node3"><a xlink:href="namespacetlz.html#a252af14b9b4ac6502d3e9c5dd8dc90b8" target="_top" xlink:title="tlz::has">
<polygon fill="white" stroke="black" points="585,-221.5 585,-240.5 634,-240.5 634,-221.5 585,-221.5"/>
<text text-anchor="middle" x="609.5" y="-228.5" font-family="Helvetica,sans-Serif" font-size="10.00">tlz::has</text>
</a>
</g>
</g>
<!-- Node2&#45;&gt;Node3 -->
<g id="edge2" class="edge"><title>Node2&#45;&gt;Node3</title>
<path fill="none" stroke="midnightblue" d="M216.025,-208.071C232.059,-222.031 258.142,-241.828 285,-250 386.804,-280.975 514.769,-255.807 574.663,-240.548"/>
<polygon fill="midnightblue" stroke="midnightblue" points="575.908,-243.841 584.695,-237.922 574.134,-237.069 575.908,-243.841"/>
</g>
<!-- Node4 -->
<g id="node4" class="node"><title>Node4</title>
<g id="a_node4"><a xlink:href="namespacetlz.html#a74e8454f97dace7cffb1afdb6d3ca87b" target="_top" xlink:title="tlz::decode_view_index">
<polygon fill="white" stroke="black" points="285,-221.5 285,-240.5 404,-240.5 404,-221.5 285,-221.5"/>
<text text-anchor="middle" x="344.5" y="-228.5" font-family="Helvetica,sans-Serif" font-size="10.00">tlz::decode_view_index</text>
</a>
</g>
</g>
<!-- Node2&#45;&gt;Node4 -->
<g id="edge3" class="edge"><title>Node2&#45;&gt;Node4</title>
<path fill="none" stroke="midnightblue" d="M249.385,-206.077C265.08,-210.234 282.362,-214.81 297.786,-218.895"/>
<polygon fill="midnightblue" stroke="midnightblue" points="297.056,-222.322 307.619,-221.498 298.848,-215.555 297.056,-222.322"/>
</g>
<!-- Node5 -->
<g id="node5" class="node"><title>Node5</title>
<g id="a_node5"><a xlink:href="namespacetlz.html#add846dc50c32dfb356cb1a7ac11d37ac" target="_top" xlink:title="tlz::get_or">
<polygon fill="white" stroke="black" points="448.5,-183.5 448.5,-202.5 508.5,-202.5 508.5,-183.5 448.5,-183.5"/>
<text text-anchor="middle" x="478.5" y="-190.5" font-family="Helvetica,sans-Serif" font-size="10.00">tlz::get_or</text>
</a>
</g>
</g>
<!-- Node2&#45;&gt;Node5 -->
<g id="edge4" class="edge"><title>Node2&#45;&gt;Node5</title>
<path fill="none" stroke="midnightblue" d="M249.292,-193C303.237,-193 388.632,-193 438.239,-193"/>
<polygon fill="midnightblue" stroke="midnightblue" points="438.257,-196.5 448.257,-193 438.257,-189.5 438.257,-196.5"/>
</g>
<!-- Node6 -->
<g id="node6" class="node"><title>Node6</title>
<g id="a_node6"><a xlink:href="namespacetlz.html#ae8f9175a86bbe49ac0f4485d5db3080b" target="_top" xlink:title="tlz::decode_feature\l_point">
<polygon fill="white" stroke="black" points="294.5,-134 294.5,-164 394.5,-164 394.5,-134 294.5,-134"/>
<text text-anchor="start" x="302.5" y="-152" font-family="Helvetica,sans-Serif" font-size="10.00">tlz::decode_feature</text>
<text text-anchor="middle" x="344.5" y="-141" font-family="Helvetica,sans-Serif" font-size="10.00">_point</text>
</a>
</g>
</g>
<!-- Node2&#45;&gt;Node6 -->
<g id="edge6" class="edge"><title>Node2&#45;&gt;Node6</title>
<path fill="none" stroke="midnightblue" d="M248.983,-177.981C260.401,-174.48 272.677,-170.716 284.478,-167.097"/>
<polygon fill="midnightblue" stroke="midnightblue" points="285.716,-170.379 294.25,-164.101 283.664,-163.686 285.716,-170.379"/>
</g>
<!-- Node5&#45;&gt;Node3 -->
<g id="edge5" class="edge"><title>Node5&#45;&gt;Node3</title>
<path fill="none" stroke="midnightblue" d="M508.772,-201.623C528.576,-207.456 554.771,-215.173 575.345,-221.233"/>
<polygon fill="midnightblue" stroke="midnightblue" points="574.359,-224.592 584.94,-224.06 576.337,-217.877 574.359,-224.592"/>
</g>
<!-- Node6&#45;&gt;Node5 -->
<g id="edge7" class="edge"><title>Node6&#45;&gt;Node5</title>
<path fill="none" stroke="midnightblue" d="M390.558,-164.019C406.364,-169.288 423.959,-175.153 439.162,-180.221"/>
<polygon fill="midnightblue" stroke="midnightblue" points="438.171,-183.58 448.765,-183.422 440.385,-176.939 438.171,-183.58"/>
</g>
<!-- Node8 -->
<g id="node8" class="node"><title>Node8</title>
<g id="a_node8"><a xlink:href="namespacetlz.html#aa1be9362f548fcf9378e1fc9074089c4" target="_top" xlink:title="tlz::import_json_file">
<polygon fill="white" stroke="black" points="294,-95.5 294,-114.5 395,-114.5 395,-95.5 294,-95.5"/>
<text text-anchor="middle" x="344.5" y="-102.5" font-family="Helvetica,sans-Serif" font-size="10.00">tlz::import_json_file</text>
</a>
</g>
</g>
<!-- Node7&#45;&gt;Node8 -->
<g id="edge9" class="edge"><title>Node7&#45;&gt;Node8</title>
<path fill="none" stroke="midnightblue" d="M234.007,-105C248.833,-105 266.663,-105 283.59,-105"/>
<polygon fill="midnightblue" stroke="midnightblue" points="283.977,-108.5 293.977,-105 283.977,-101.5 283.977,-108.5"/>
</g>
<!-- Node9 -->
<g id="node9" class="node"><title>Node9</title>
<g id="a_node9"><a xlink:href="namespacetlz.html#a634de7ca11e100e4a118dffe80376a75" target="_top" xlink:title="tlz::in_filename_arg">
<polygon fill="white" stroke="black" points="294,-57.5 294,-76.5 395,-76.5 395,-57.5 294,-57.5"/>
<text text-anchor="middle" x="344.5" y="-64.5" font-family="Helvetica,sans-Serif" font-size="10.00">tlz::in_filename_arg</text>
</a>
</g>
</g>
<!-- Node7&#45;&gt;Node9 -->
<g id="edge10" class="edge"><title>Node7&#45;&gt;Node9</title>
<path fill="none" stroke="midnightblue" d="M234.007,-95.9945C253.025,-90.9586 276.987,-84.6132 297.643,-79.1433"/>
<polygon fill="midnightblue" stroke="midnightblue" points="298.711,-82.4813 307.481,-76.538 296.919,-75.7146 298.711,-82.4813"/>
</g>
<!-- Node10 -->
<g id="node10" class="node"><title>Node10</title>
<g id="a_node10"><a xlink:href="namespacetlz.html#a0621d598fb83b13bf028f3e6293d04f8" target="_top" xlink:title="tlz::string_arg">
<polygon fill="white" stroke="black" points="440.5,-76.5 440.5,-95.5 516.5,-95.5 516.5,-76.5 440.5,-76.5"/>
<text text-anchor="middle" x="478.5" y="-83.5" font-family="Helvetica,sans-Serif" font-size="10.00">tlz::string_arg</text>
</a>
</g>
</g>
<!-- Node9&#45;&gt;Node10 -->
<g id="edge11" class="edge"><title>Node9&#45;&gt;Node10</title>
<path fill="none" stroke="midnightblue" d="M395.027,-74.129C406.565,-75.7897 418.821,-77.5538 430.257,-79.1999"/>
<polygon fill="midnightblue" stroke="midnightblue" points="430.088,-82.7116 440.485,-80.6721 431.086,-75.783 430.088,-82.7116"/>
</g>
<!-- Node11 -->
<g id="node11" class="node"><title>Node11</title>
<g id="a_node11"><a xlink:href="namespacetlz.html#a780431daab8d2595372eacb43143b52d" target="_top" xlink:title="tlz::args">
<polygon fill="white" stroke="black" points="583.5,-114.5 583.5,-133.5 635.5,-133.5 635.5,-114.5 583.5,-114.5"/>
<text text-anchor="middle" x="609.5" y="-121.5" font-family="Helvetica,sans-Serif" font-size="10.00">tlz::args</text>
</a>
</g>
</g>
<!-- Node9&#45;&gt;Node11 -->
<g id="edge17" class="edge"><title>Node9&#45;&gt;Node11</title>
<path fill="none" stroke="midnightblue" d="M378.354,-76.5766C386.816,-79.3398 395.836,-82.5499 404,-86 420.665,-93.0424 422.711,-99.6716 440,-105 484.617,-118.751 538.622,-122.756 573.259,-123.813"/>
<polygon fill="midnightblue" stroke="midnightblue" points="573.274,-127.315 583.354,-124.054 573.441,-120.317 573.274,-127.315"/>
</g>
<!-- Node13 -->
<g id="node13" class="node"><title>Node13</title>
<g id="a_node13"><a xlink:href="classtlz_1_1args__list.html#a38ad21acd64a4af98ffdf4a47837cdbe" target="_top" xlink:title="tlz::args_list::usage_fail">
<polygon fill="white" stroke="black" points="702,-38.5 702,-57.5 822,-57.5 822,-38.5 702,-38.5"/>
<text text-anchor="middle" x="762" y="-45.5" font-family="Helvetica,sans-Serif" font-size="10.00">tlz::args_list::usage_fail</text>
</a>
</g>
</g>
<!-- Node9&#45;&gt;Node13 -->
<g id="edge18" class="edge"><title>Node9&#45;&gt;Node13</title>
<path fill="none" stroke="midnightblue" d="M395.206,-64.727C469.027,-61.3514 607.909,-55.0005 691.682,-51.1698"/>
<polygon fill="midnightblue" stroke="midnightblue" points="692.038,-54.6572 701.868,-50.704 691.719,-47.6645 692.038,-54.6572"/>
</g>
<!-- Node15 -->
<g id="node15" class="node"><title>Node15</title>
<g id="a_node15"><a xlink:href="namespacetlz.html#abb019466ea9f56c0dab27e893d891837" target="_top" xlink:title="tlz::file_exists">
<polygon fill="white" stroke="black" points="440,-0.5 440,-19.5 517,-19.5 517,-0.5 440,-0.5"/>
<text text-anchor="middle" x="478.5" y="-7.5" font-family="Helvetica,sans-Serif" font-size="10.00">tlz::file_exists</text>
</a>
</g>
</g>
<!-- Node9&#45;&gt;Node15 -->
<g id="edge16" class="edge"><title>Node9&#45;&gt;Node15</title>
<path fill="none" stroke="midnightblue" d="M367.594,-57.4595C389.01,-48.2117 421.713,-34.0898 445.882,-23.6532"/>
<polygon fill="midnightblue" stroke="midnightblue" points="447.541,-26.7493 455.334,-19.5716 444.766,-20.3228 447.541,-26.7493"/>
</g>
<!-- Node10&#45;&gt;Node11 -->
<g id="edge12" class="edge"><title>Node10&#45;&gt;Node11</title>
<path fill="none" stroke="midnightblue" d="M512.052,-95.589C530.78,-101.106 554.314,-108.038 573.447,-113.674"/>
<polygon fill="midnightblue" stroke="midnightblue" points="572.701,-117.103 583.283,-116.572 574.679,-110.389 572.701,-117.103"/>
</g>
<!-- Node12 -->
<g id="node12" class="node"><title>Node12</title>
<g id="a_node12"><a xlink:href="classtlz_1_1args__list.html#a73d99bc75998dc14607a3a372d28dc6d" target="_top" xlink:title="tlz::args_list::next_arg">
<polygon fill="white" stroke="black" points="553,-76.5 553,-95.5 666,-95.5 666,-76.5 553,-76.5"/>
<text text-anchor="middle" x="609.5" y="-83.5" font-family="Helvetica,sans-Serif" font-size="10.00">tlz::args_list::next_arg</text>
</a>
</g>
</g>
<!-- Node10&#45;&gt;Node12 -->
<g id="edge13" class="edge"><title>Node10&#45;&gt;Node12</title>
<path fill="none" stroke="midnightblue" d="M516.812,-86C524.835,-86 533.544,-86 542.295,-86"/>
<polygon fill="midnightblue" stroke="midnightblue" points="542.549,-89.5001 552.549,-86 542.549,-82.5001 542.549,-89.5001"/>
</g>
<!-- Node12&#45;&gt;Node13 -->
<g id="edge14" class="edge"><title>Node12&#45;&gt;Node13</title>
<path fill="none" stroke="midnightblue" d="M648.478,-76.411C668.159,-71.4417 692.391,-65.3233 713.321,-60.0387"/>
<polygon fill="midnightblue" stroke="midnightblue" points="714.457,-63.3617 723.296,-57.5201 712.743,-56.5747 714.457,-63.3617"/>
</g>
<!-- Node14 -->
<g id="node14" class="node"><title>Node14</title>
<g id="a_node14"><a xlink:href="namespacetlz.html#a8e4f8c8c2927bc4350de13bfa0f8f9e1" target="_top" xlink:title="tlz::to_string">
<polygon fill="white" stroke="black" points="726.5,-76.5 726.5,-95.5 797.5,-95.5 797.5,-76.5 726.5,-76.5"/>
<text text-anchor="middle" x="762" y="-83.5" font-family="Helvetica,sans-Serif" font-size="10.00">tlz::to_string</text>
</a>
</g>
</g>
<!-- Node12&#45;&gt;Node14 -->
<g id="edge15" class="edge"><title>Node12&#45;&gt;Node14</title>
<path fill="none" stroke="midnightblue" d="M666.113,-86C682.441,-86 700.096,-86 715.698,-86"/>
<polygon fill="midnightblue" stroke="midnightblue" points="716.13,-89.5001 726.13,-86 716.129,-82.5001 716.13,-89.5001"/>
</g>
</g>
</svg>
