<?xml version="1.0" encoding="UTF-8" standalone="no"?>
<!DOCTYPE svg PUBLIC "-//W3C//DTD SVG 1.1//EN"
 "http://www.w3.org/Graphics/SVG/1.1/DTD/svg11.dtd">
<!-- Generated by graphviz version 2.38.0 (20140413.2041)
 -->
<!-- Title: tlz::relative_camera_positions_arg Pages: 1 -->
<svg width="802pt" height="170pt"
 viewBox="0.00 0.00 802.00 169.50" xmlns="http://www.w3.org/2000/svg" xmlns:xlink="http://www.w3.org/1999/xlink">
<g id="graph0" class="graph" transform="scale(1 1) rotate(0) translate(4 165.5)">
<title>tlz::relative_camera_positions_arg</title>
<polygon fill="white" stroke="none" points="-4,4 -4,-165.5 798,-165.5 798,4 -4,4"/>
<!-- Node1 -->
<g id="node1" class="node"><title>Node1</title>
<polygon fill="#bfbfbf" stroke="black" points="0,-109 0,-139 102,-139 102,-109 0,-109"/>
<text text-anchor="start" x="8" y="-127" font-family="Helvetica,sans-Serif" font-size="10.00">tlz::relative_camera</text>
<text text-anchor="middle" x="51" y="-116" font-family="Helvetica,sans-Serif" font-size="10.00">_positions_arg</text>
</g>
<!-- Node2 -->
<g id="node2" class="node"><title>Node2</title>
<g id="a_node2"><a xlink:href="namespacetlz.html#a387370f41b7b1fcbaf5478adc6143309" target="_top" xlink:title="tlz::decode_relative\l_camera_positions">
<polygon fill="white" stroke="black" points="138,-131 138,-161 239,-161 239,-131 138,-131"/>
<text text-anchor="start" x="146" y="-149" font-family="Helvetica,sans-Serif" font-size="10.00">tlz::decode_relative</text>
<text text-anchor="middle" x="188.5" y="-138" font-family="Helvetica,sans-Serif" font-size="10.00">_camera_positions</text>
</a>
</g>
</g>
<!-- Node1&#45;&gt;Node2 -->
<g id="edge1" class="edge"><title>Node1&#45;&gt;Node2</title>
<path fill="none" stroke="midnightblue" d="M102.07,-132.129C110.415,-133.484 119.144,-134.902 127.702,-136.291"/>
<polygon fill="midnightblue" stroke="midnightblue" points="127.204,-139.756 137.636,-137.904 128.326,-132.846 127.204,-139.756"/>
</g>
<!-- Node4 -->
<g id="node4" class="node"><title>Node4</title>
<g id="a_node4"><a xlink:href="namespacetlz.html#a35f9e03fa4fd9cec699f5fa27962400f" target="_top" xlink:title="tlz::json_arg">
<polygon fill="white" stroke="black" points="153.5,-92.5 153.5,-111.5 223.5,-111.5 223.5,-92.5 153.5,-92.5"/>
<text text-anchor="middle" x="188.5" y="-99.5" font-family="Helvetica,sans-Serif" font-size="10.00">tlz::json_arg</text>
</a>
</g>
</g>
<!-- Node1&#45;&gt;Node4 -->
<g id="edge3" class="edge"><title>Node1&#45;&gt;Node4</title>
<path fill="none" stroke="midnightblue" d="M102.07,-115.871C115.514,-113.688 129.957,-111.343 143.071,-109.214"/>
<polygon fill="midnightblue" stroke="midnightblue" points="143.95,-112.617 153.26,-107.559 142.828,-105.707 143.95,-112.617"/>
</g>
<!-- Node3 -->
<g id="node3" class="node"><title>Node3</title>
<g id="a_node3"><a xlink:href="namespacetlz.html#a066563a26e2de02f215b179f3d3a53da" target="_top" xlink:title="tlz::decode_mat">
<polygon fill="white" stroke="black" points="282.5,-136.5 282.5,-155.5 368.5,-155.5 368.5,-136.5 282.5,-136.5"/>
<text text-anchor="middle" x="325.5" y="-143.5" font-family="Helvetica,sans-Serif" font-size="10.00">tlz::decode_mat</text>
</a>
</g>
</g>
<!-- Node2&#45;&gt;Node3 -->
<g id="edge2" class="edge"><title>Node2&#45;&gt;Node3</title>
<path fill="none" stroke="midnightblue" d="M239.002,-146C249.723,-146 261.098,-146 271.932,-146"/>
<polygon fill="midnightblue" stroke="midnightblue" points="272.115,-149.5 282.115,-146 272.115,-142.5 272.115,-149.5"/>
</g>
<!-- Node5 -->
<g id="node5" class="node"><title>Node5</title>
<g id="a_node5"><a xlink:href="namespacetlz.html#aa1be9362f548fcf9378e1fc9074089c4" target="_top" xlink:title="tlz::import_json_file">
<polygon fill="white" stroke="black" points="275,-95.5 275,-114.5 376,-114.5 376,-95.5 275,-95.5"/>
<text text-anchor="middle" x="325.5" y="-102.5" font-family="Helvetica,sans-Serif" font-size="10.00">tlz::import_json_file</text>
</a>
</g>
</g>
<!-- Node4&#45;&gt;Node5 -->
<g id="edge4" class="edge"><title>Node4&#45;&gt;Node5</title>
<path fill="none" stroke="midnightblue" d="M223.566,-102.757C236.074,-103.035 250.631,-103.358 264.733,-103.672"/>
<polygon fill="midnightblue" stroke="midnightblue" points="264.809,-107.174 274.884,-103.897 264.964,-100.176 264.809,-107.174"/>
</g>
<!-- Node6 -->
<g id="node6" class="node"><title>Node6</title>
<g id="a_node6"><a xlink:href="namespacetlz.html#a634de7ca11e100e4a118dffe80376a75" target="_top" xlink:title="tlz::in_filename_arg">
<polygon fill="white" stroke="black" points="275,-57.5 275,-76.5 376,-76.5 376,-57.5 275,-57.5"/>
<text text-anchor="middle" x="325.5" y="-64.5" font-family="Helvetica,sans-Serif" font-size="10.00">tlz::in_filename_arg</text>
</a>
</g>
</g>
<!-- Node4&#45;&gt;Node6 -->
<g id="edge5" class="edge"><title>Node4&#45;&gt;Node6</title>
<path fill="none" stroke="midnightblue" d="M223.566,-93.168C239.89,-88.9359 259.704,-83.7989 277.439,-79.2009"/>
<polygon fill="midnightblue" stroke="midnightblue" points="278.798,-82.4645 287.6,-76.5668 277.041,-75.6885 278.798,-82.4645"/>
</g>
<!-- Node7 -->
<g id="node7" class="node"><title>Node7</title>
<g id="a_node7"><a xlink:href="namespacetlz.html#a0621d598fb83b13bf028f3e6293d04f8" target="_top" xlink:title="tlz::string_arg">
<polygon fill="white" stroke="black" points="412.5,-76.5 412.5,-95.5 488.5,-95.5 488.5,-76.5 412.5,-76.5"/>
<text text-anchor="middle" x="450.5" y="-83.5" font-family="Helvetica,sans-Serif" font-size="10.00">tlz::string_arg</text>
</a>
</g>
</g>
<!-- Node6&#45;&gt;Node7 -->
<g id="edge6" class="edge"><title>Node6&#45;&gt;Node7</title>
<path fill="none" stroke="midnightblue" d="M376.174,-74.6733C384.706,-75.9912 393.554,-77.358 402.027,-78.6667"/>
<polygon fill="midnightblue" stroke="midnightblue" points="401.712,-82.1595 412.129,-80.2272 402.781,-75.2416 401.712,-82.1595"/>
</g>
<!-- Node8 -->
<g id="node8" class="node"><title>Node8</title>
<g id="a_node8"><a xlink:href="namespacetlz.html#a780431daab8d2595372eacb43143b52d" target="_top" xlink:title="tlz::args">
<polygon fill="white" stroke="black" points="555.5,-114.5 555.5,-133.5 607.5,-133.5 607.5,-114.5 555.5,-114.5"/>
<text text-anchor="middle" x="581.5" y="-121.5" font-family="Helvetica,sans-Serif" font-size="10.00">tlz::args</text>
</a>
</g>
</g>
<!-- Node6&#45;&gt;Node8 -->
<g id="edge12" class="edge"><title>Node6&#45;&gt;Node8</title>
<path fill="none" stroke="midnightblue" d="M353.201,-76.5811C360.655,-79.4357 368.708,-82.6902 376,-86 392.474,-93.477 394.711,-99.6716 412,-105 456.617,-118.751 510.622,-122.756 545.259,-123.813"/>
<polygon fill="midnightblue" stroke="midnightblue" points="545.274,-127.315 555.354,-124.054 545.441,-120.317 545.274,-127.315"/>
</g>
<!-- Node10 -->
<g id="node10" class="node"><title>Node10</title>
<g id="a_node10"><a xlink:href="classtlz_1_1args__list.html#a38ad21acd64a4af98ffdf4a47837cdbe" target="_top" xlink:title="tlz::args_list::usage_fail">
<polygon fill="white" stroke="black" points="674,-38.5 674,-57.5 794,-57.5 794,-38.5 674,-38.5"/>
<text text-anchor="middle" x="734" y="-45.5" font-family="Helvetica,sans-Serif" font-size="10.00">tlz::args_list::usage_fail</text>
</a>
</g>
</g>
<!-- Node6&#45;&gt;Node10 -->
<g id="edge13" class="edge"><title>Node6&#45;&gt;Node10</title>
<path fill="none" stroke="midnightblue" d="M376.345,-64.6702C448.419,-61.3015 582.021,-55.0568 663.668,-51.2406"/>
<polygon fill="midnightblue" stroke="midnightblue" points="664.025,-54.7278 673.851,-50.7647 663.698,-47.7355 664.025,-54.7278"/>
</g>
<!-- Node12 -->
<g id="node12" class="node"><title>Node12</title>
<g id="a_node12"><a xlink:href="namespacetlz.html#abb019466ea9f56c0dab27e893d891837" target="_top" xlink:title="tlz::file_exists">
<polygon fill="white" stroke="black" points="412,-0.5 412,-19.5 489,-19.5 489,-0.5 412,-0.5"/>
<text text-anchor="middle" x="450.5" y="-7.5" font-family="Helvetica,sans-Serif" font-size="10.00">tlz::file_exists</text>
</a>
</g>
</g>
<!-- Node6&#45;&gt;Node12 -->
<g id="edge11" class="edge"><title>Node6&#45;&gt;Node12</title>
<path fill="none" stroke="midnightblue" d="M347.087,-57.4595C366.954,-48.2528 397.246,-34.2153 419.737,-23.7926"/>
<polygon fill="midnightblue" stroke="midnightblue" points="421.244,-26.9519 428.845,-19.5716 418.301,-20.6007 421.244,-26.9519"/>
</g>
<!-- Node7&#45;&gt;Node8 -->
<g id="edge7" class="edge"><title>Node7&#45;&gt;Node8</title>
<path fill="none" stroke="midnightblue" d="M484.052,-95.589C502.78,-101.106 526.314,-108.038 545.447,-113.674"/>
<polygon fill="midnightblue" stroke="midnightblue" points="544.701,-117.103 555.283,-116.572 546.679,-110.389 544.701,-117.103"/>
</g>
<!-- Node9 -->
<g id="node9" class="node"><title>Node9</title>
<g id="a_node9"><a xlink:href="classtlz_1_1args__list.html#a73d99bc75998dc14607a3a372d28dc6d" target="_top" xlink:title="tlz::args_list::next_arg">
<polygon fill="white" stroke="black" points="525,-76.5 525,-95.5 638,-95.5 638,-76.5 525,-76.5"/>
<text text-anchor="middle" x="581.5" y="-83.5" font-family="Helvetica,sans-Serif" font-size="10.00">tlz::args_list::next_arg</text>
</a>
</g>
</g>
<!-- Node7&#45;&gt;Node9 -->
<g id="edge8" class="edge"><title>Node7&#45;&gt;Node9</title>
<path fill="none" stroke="midnightblue" d="M488.812,-86C496.835,-86 505.544,-86 514.295,-86"/>
<polygon fill="midnightblue" stroke="midnightblue" points="514.549,-89.5001 524.549,-86 514.549,-82.5001 514.549,-89.5001"/>
</g>
<!-- Node9&#45;&gt;Node10 -->
<g id="edge9" class="edge"><title>Node9&#45;&gt;Node10</title>
<path fill="none" stroke="midnightblue" d="M620.478,-76.411C640.159,-71.4417 664.391,-65.3233 685.321,-60.0387"/>
<polygon fill="midnightblue" stroke="midnightblue" points="686.457,-63.3617 695.296,-57.5201 684.743,-56.5747 686.457,-63.3617"/>
</g>
<!-- Node11 -->
<g id="node11" class="node"><title>Node11</title>
<g id="a_node11"><a xlink:href="namespacetlz.html#a8e4f8c8c2927bc4350de13bfa0f8f9e1" target="_top" xlink:title="tlz::to_string">
<polygon fill="white" stroke="black" points="698.5,-76.5 698.5,-95.5 769.5,-95.5 769.5,-76.5 698.5,-76.5"/>
<text text-anchor="middle" x="734" y="-83.5" font-family="Helvetica,sans-Serif" font-size="10.00">tlz::to_string</text>
</a>
</g>
</g>
<!-- Node9&#45;&gt;Node11 -->
<g id="edge10" class="edge"><title>Node9&#45;&gt;Node11</title>
<path fill="none" stroke="midnightblue" d="M638.113,-86C654.441,-86 672.096,-86 687.698,-86"/>
<polygon fill="midnightblue" stroke="midnightblue" points="688.13,-89.5001 698.13,-86 688.129,-82.5001 688.13,-89.5001"/>
</g>
</g>
</svg>
