<?xml version="1.0" encoding="UTF-8" standalone="no"?>
<!DOCTYPE svg PUBLIC "-//W3C//DTD SVG 1.1//EN"
 "http://www.w3.org/Graphics/SVG/1.1/DTD/svg11.dtd">
<!-- Generated by graphviz version 2.38.0 (20140413.2041)
 -->
<!-- Title: tlz::homography_arg Pages: 1 -->
<svg width="853pt" height="218pt"
 viewBox="0.00 0.00 853.00 218.00" xmlns="http://www.w3.org/2000/svg" xmlns:xlink="http://www.w3.org/1999/xlink">
<g id="graph0" class="graph" transform="scale(1 1) rotate(0) translate(4 214)">
<title>tlz::homography_arg</title>
<polygon fill="white" stroke="none" points="-4,4 -4,-214 849,-214 849,4 -4,4"/>
<!-- Node1 -->
<g id="node1" class="node"><title>Node1</title>
<polygon fill="#bfbfbf" stroke="black" points="0,-133.5 0,-152.5 105,-152.5 105,-133.5 0,-133.5"/>
<text text-anchor="middle" x="52.5" y="-140.5" font-family="Helvetica,sans-Serif" font-size="10.00">tlz::homography_arg</text>
</g>
<!-- Node2 -->
<g id="node2" class="node"><title>Node2</title>
<g id="a_node2"><a xlink:href="namespacetlz.html#acc042de1df74e590015a1efe234a338c" target="_top" xlink:title="tlz::decode_view_homography">
<polygon fill="white" stroke="black" points="141,-152.5 141,-171.5 290,-171.5 290,-152.5 141,-152.5"/>
<text text-anchor="middle" x="215.5" y="-159.5" font-family="Helvetica,sans-Serif" font-size="10.00">tlz::decode_view_homography</text>
</a>
</g>
</g>
<!-- Node1&#45;&gt;Node2 -->
<g id="edge1" class="edge"><title>Node1&#45;&gt;Node2</title>
<path fill="none" stroke="midnightblue" d="M105.328,-149.116C113.454,-150.075 122.03,-151.087 130.656,-152.105"/>
<polygon fill="midnightblue" stroke="midnightblue" points="130.441,-155.604 140.782,-153.3 131.262,-148.652 130.441,-155.604"/>
</g>
<!-- Node6 -->
<g id="node6" class="node"><title>Node6</title>
<g id="a_node6"><a xlink:href="namespacetlz.html#a35f9e03fa4fd9cec699f5fa27962400f" target="_top" xlink:title="tlz::json_arg">
<polygon fill="white" stroke="black" points="180.5,-114.5 180.5,-133.5 250.5,-133.5 250.5,-114.5 180.5,-114.5"/>
<text text-anchor="middle" x="215.5" y="-121.5" font-family="Helvetica,sans-Serif" font-size="10.00">tlz::json_arg</text>
</a>
</g>
</g>
<!-- Node1&#45;&gt;Node6 -->
<g id="edge5" class="edge"><title>Node1&#45;&gt;Node6</title>
<path fill="none" stroke="midnightblue" d="M105.328,-136.884C126.15,-134.426 149.916,-131.622 169.946,-129.258"/>
<polygon fill="midnightblue" stroke="midnightblue" points="170.524,-132.714 180.045,-128.066 169.704,-125.762 170.524,-132.714"/>
</g>
<!-- Node3 -->
<g id="node3" class="node"><title>Node3</title>
<g id="a_node3"><a xlink:href="namespacetlz.html#a066563a26e2de02f215b179f3d3a53da" target="_top" xlink:title="tlz::decode_mat">
<polygon fill="white" stroke="black" points="333.5,-190.5 333.5,-209.5 419.5,-209.5 419.5,-190.5 333.5,-190.5"/>
<text text-anchor="middle" x="376.5" y="-197.5" font-family="Helvetica,sans-Serif" font-size="10.00">tlz::decode_mat</text>
</a>
</g>
</g>
<!-- Node2&#45;&gt;Node3 -->
<g id="edge2" class="edge"><title>Node2&#45;&gt;Node3</title>
<path fill="none" stroke="midnightblue" d="M256.622,-171.589C277.604,-176.604 303.482,-182.788 325.73,-188.105"/>
<polygon fill="midnightblue" stroke="midnightblue" points="325.126,-191.56 335.666,-190.48 326.754,-184.751 325.126,-191.56"/>
</g>
<!-- Node4 -->
<g id="node4" class="node"><title>Node4</title>
<g id="a_node4"><a xlink:href="namespacetlz.html#add846dc50c32dfb356cb1a7ac11d37ac" target="_top" xlink:title="tlz::get_or">
<polygon fill="white" stroke="black" points="346.5,-152.5 346.5,-171.5 406.5,-171.5 406.5,-152.5 346.5,-152.5"/>
<text text-anchor="middle" x="376.5" y="-159.5" font-family="Helvetica,sans-Serif" font-size="10.00">tlz::get_or</text>
</a>
</g>
</g>
<!-- Node2&#45;&gt;Node4 -->
<g id="edge3" class="edge"><title>Node2&#45;&gt;Node4</title>
<path fill="none" stroke="midnightblue" d="M290.414,-162C306.183,-162 322.245,-162 336.105,-162"/>
<polygon fill="midnightblue" stroke="midnightblue" points="336.233,-165.5 346.233,-162 336.233,-158.5 336.233,-165.5"/>
</g>
<!-- Node5 -->
<g id="node5" class="node"><title>Node5</title>
<g id="a_node5"><a xlink:href="namespacetlz.html#a252af14b9b4ac6502d3e9c5dd8dc90b8" target="_top" xlink:title="tlz::has">
<polygon fill="white" stroke="black" points="477,-152.5 477,-171.5 526,-171.5 526,-152.5 477,-152.5"/>
<text text-anchor="middle" x="501.5" y="-159.5" font-family="Helvetica,sans-Serif" font-size="10.00">tlz::has</text>
</a>
</g>
</g>
<!-- Node4&#45;&gt;Node5 -->
<g id="edge4" class="edge"><title>Node4&#45;&gt;Node5</title>
<path fill="none" stroke="midnightblue" d="M406.649,-162C424.667,-162 447.865,-162 466.689,-162"/>
<polygon fill="midnightblue" stroke="midnightblue" points="466.914,-165.5 476.914,-162 466.914,-158.5 466.914,-165.5"/>
</g>
<!-- Node7 -->
<g id="node7" class="node"><title>Node7</title>
<g id="a_node7"><a xlink:href="namespacetlz.html#aa1be9362f548fcf9378e1fc9074089c4" target="_top" xlink:title="tlz::import_json_file">
<polygon fill="white" stroke="black" points="326,-114.5 326,-133.5 427,-133.5 427,-114.5 326,-114.5"/>
<text text-anchor="middle" x="376.5" y="-121.5" font-family="Helvetica,sans-Serif" font-size="10.00">tlz::import_json_file</text>
</a>
</g>
</g>
<!-- Node6&#45;&gt;Node7 -->
<g id="edge6" class="edge"><title>Node6&#45;&gt;Node7</title>
<path fill="none" stroke="midnightblue" d="M250.609,-124C269.515,-124 293.571,-124 315.513,-124"/>
<polygon fill="midnightblue" stroke="midnightblue" points="315.75,-127.5 325.75,-124 315.75,-120.5 315.75,-127.5"/>
</g>
<!-- Node8 -->
<g id="node8" class="node"><title>Node8</title>
<g id="a_node8"><a xlink:href="namespacetlz.html#a634de7ca11e100e4a118dffe80376a75" target="_top" xlink:title="tlz::in_filename_arg">
<polygon fill="white" stroke="black" points="326,-76.5 326,-95.5 427,-95.5 427,-76.5 326,-76.5"/>
<text text-anchor="middle" x="376.5" y="-83.5" font-family="Helvetica,sans-Serif" font-size="10.00">tlz::in_filename_arg</text>
</a>
</g>
</g>
<!-- Node6&#45;&gt;Node8 -->
<g id="edge7" class="edge"><title>Node6&#45;&gt;Node8</title>
<path fill="none" stroke="midnightblue" d="M250.609,-115.848C272.504,-110.615 301.306,-103.732 325.732,-97.8942"/>
<polygon fill="midnightblue" stroke="midnightblue" points="326.637,-101.276 335.55,-95.5478 325.01,-94.4682 326.637,-101.276"/>
</g>
<!-- Node9 -->
<g id="node9" class="node"><title>Node9</title>
<g id="a_node9"><a xlink:href="namespacetlz.html#a0621d598fb83b13bf028f3e6293d04f8" target="_top" xlink:title="tlz::string_arg">
<polygon fill="white" stroke="black" points="463.5,-76.5 463.5,-95.5 539.5,-95.5 539.5,-76.5 463.5,-76.5"/>
<text text-anchor="middle" x="501.5" y="-83.5" font-family="Helvetica,sans-Serif" font-size="10.00">tlz::string_arg</text>
</a>
</g>
</g>
<!-- Node8&#45;&gt;Node9 -->
<g id="edge8" class="edge"><title>Node8&#45;&gt;Node9</title>
<path fill="none" stroke="midnightblue" d="M427.174,-86C435.706,-86 444.554,-86 453.027,-86"/>
<polygon fill="midnightblue" stroke="midnightblue" points="453.129,-89.5001 463.129,-86 453.129,-82.5001 453.129,-89.5001"/>
</g>
<!-- Node10 -->
<g id="node10" class="node"><title>Node10</title>
<g id="a_node10"><a xlink:href="namespacetlz.html#a780431daab8d2595372eacb43143b52d" target="_top" xlink:title="tlz::args">
<polygon fill="white" stroke="black" points="606.5,-114.5 606.5,-133.5 658.5,-133.5 658.5,-114.5 606.5,-114.5"/>
<text text-anchor="middle" x="632.5" y="-121.5" font-family="Helvetica,sans-Serif" font-size="10.00">tlz::args</text>
</a>
</g>
</g>
<!-- Node8&#45;&gt;Node10 -->
<g id="edge14" class="edge"><title>Node8&#45;&gt;Node10</title>
<path fill="none" stroke="midnightblue" d="M416.488,-95.5811C431.021,-98.9099 447.702,-102.445 463,-105 508.787,-112.647 562.099,-118.082 596.293,-121.129"/>
<polygon fill="midnightblue" stroke="midnightblue" points="595.996,-124.616 606.262,-121.998 596.604,-117.643 595.996,-124.616"/>
</g>
<!-- Node12 -->
<g id="node12" class="node"><title>Node12</title>
<g id="a_node12"><a xlink:href="classtlz_1_1args__list.html#a38ad21acd64a4af98ffdf4a47837cdbe" target="_top" xlink:title="tlz::args_list::usage_fail">
<polygon fill="white" stroke="black" points="725,-38.5 725,-57.5 845,-57.5 845,-38.5 725,-38.5"/>
<text text-anchor="middle" x="785" y="-45.5" font-family="Helvetica,sans-Serif" font-size="10.00">tlz::args_list::usage_fail</text>
</a>
</g>
</g>
<!-- Node8&#45;&gt;Node12 -->
<g id="edge15" class="edge"><title>Node8&#45;&gt;Node12</title>
<path fill="none" stroke="midnightblue" d="M414.3,-76.4724C429.306,-72.9414 446.886,-69.2526 463,-67 549.201,-54.9496 649.466,-50.5298 714.693,-48.9159"/>
<polygon fill="midnightblue" stroke="midnightblue" points="714.937,-52.4113 724.853,-48.6802 714.774,-45.4131 714.937,-52.4113"/>
</g>
<!-- Node14 -->
<g id="node14" class="node"><title>Node14</title>
<g id="a_node14"><a xlink:href="namespacetlz.html#abb019466ea9f56c0dab27e893d891837" target="_top" xlink:title="tlz::file_exists">
<polygon fill="white" stroke="black" points="463,-0.5 463,-19.5 540,-19.5 540,-0.5 463,-0.5"/>
<text text-anchor="middle" x="501.5" y="-7.5" font-family="Helvetica,sans-Serif" font-size="10.00">tlz::file_exists</text>
</a>
</g>
</g>
<!-- Node8&#45;&gt;Node14 -->
<g id="edge13" class="edge"><title>Node8&#45;&gt;Node14</title>
<path fill="none" stroke="midnightblue" d="M393.078,-76.3745C414.057,-63.4117 451.601,-40.2139 476.281,-24.9646"/>
<polygon fill="midnightblue" stroke="midnightblue" points="478.381,-27.7812 485.048,-19.5473 474.702,-21.8263 478.381,-27.7812"/>
</g>
<!-- Node9&#45;&gt;Node10 -->
<g id="edge9" class="edge"><title>Node9&#45;&gt;Node10</title>
<path fill="none" stroke="midnightblue" d="M535.052,-95.589C553.78,-101.106 577.314,-108.038 596.447,-113.674"/>
<polygon fill="midnightblue" stroke="midnightblue" points="595.701,-117.103 606.283,-116.572 597.679,-110.389 595.701,-117.103"/>
</g>
<!-- Node11 -->
<g id="node11" class="node"><title>Node11</title>
<g id="a_node11"><a xlink:href="classtlz_1_1args__list.html#a73d99bc75998dc14607a3a372d28dc6d" target="_top" xlink:title="tlz::args_list::next_arg">
<polygon fill="white" stroke="black" points="576,-76.5 576,-95.5 689,-95.5 689,-76.5 576,-76.5"/>
<text text-anchor="middle" x="632.5" y="-83.5" font-family="Helvetica,sans-Serif" font-size="10.00">tlz::args_list::next_arg</text>
</a>
</g>
</g>
<!-- Node9&#45;&gt;Node11 -->
<g id="edge10" class="edge"><title>Node9&#45;&gt;Node11</title>
<path fill="none" stroke="midnightblue" d="M539.812,-86C547.835,-86 556.544,-86 565.295,-86"/>
<polygon fill="midnightblue" stroke="midnightblue" points="565.549,-89.5001 575.549,-86 565.549,-82.5001 565.549,-89.5001"/>
</g>
<!-- Node11&#45;&gt;Node12 -->
<g id="edge11" class="edge"><title>Node11&#45;&gt;Node12</title>
<path fill="none" stroke="midnightblue" d="M671.478,-76.411C691.159,-71.4417 715.391,-65.3233 736.321,-60.0387"/>
<polygon fill="midnightblue" stroke="midnightblue" points="737.457,-63.3617 746.296,-57.5201 735.743,-56.5747 737.457,-63.3617"/>
</g>
<!-- Node13 -->
<g id="node13" class="node"><title>Node13</title>
<g id="a_node13"><a xlink:href="namespacetlz.html#a8e4f8c8c2927bc4350de13bfa0f8f9e1" target="_top" xlink:title="tlz::to_string">
<polygon fill="white" stroke="black" points="749.5,-76.5 749.5,-95.5 820.5,-95.5 820.5,-76.5 749.5,-76.5"/>
<text text-anchor="middle" x="785" y="-83.5" font-family="Helvetica,sans-Serif" font-size="10.00">tlz::to_string</text>
</a>
</g>
</g>
<!-- Node11&#45;&gt;Node13 -->
<g id="edge12" class="edge"><title>Node11&#45;&gt;Node13</title>
<path fill="none" stroke="midnightblue" d="M689.113,-86C705.441,-86 723.096,-86 738.698,-86"/>
<polygon fill="midnightblue" stroke="midnightblue" points="739.13,-89.5001 749.13,-86 739.129,-82.5001 739.13,-89.5001"/>
</g>
</g>
</svg>
