<?xml version="1.0" encoding="UTF-8" standalone="no"?>
<!DOCTYPE svg PUBLIC "-//W3C//DTD SVG 1.1//EN"
 "http://www.w3.org/Graphics/SVG/1.1/DTD/svg11.dtd">
<!-- Generated by graphviz version 2.38.0 (20140413.2041)
 -->
<!-- Title: tlz::out_filename_arg Pages: 1 -->
<svg width="532pt" height="85pt"
 viewBox="0.00 0.00 532.00 85.00" xmlns="http://www.w3.org/2000/svg" xmlns:xlink="http://www.w3.org/1999/xlink">
<g id="graph0" class="graph" transform="scale(1 1) rotate(0) translate(4 81)">
<title>tlz::out_filename_arg</title>
<polygon fill="white" stroke="none" points="-4,4 -4,-81 528,-81 528,4 -4,4"/>
<!-- Node1 -->
<g id="node1" class="node"><title>Node1</title>
<polygon fill="#bfbfbf" stroke="black" points="0,-38.5 0,-57.5 107,-57.5 107,-38.5 0,-38.5"/>
<text text-anchor="middle" x="53.5" y="-45.5" font-family="Helvetica,sans-Serif" font-size="10.00">tlz::out_filename_arg</text>
</g>
<!-- Node2 -->
<g id="node2" class="node"><title>Node2</title>
<g id="a_node2"><a xlink:href="namespacetlz.html#a0621d598fb83b13bf028f3e6293d04f8" target="_top" xlink:title="tlz::string_arg">
<polygon fill="white" stroke="black" points="143,-38.5 143,-57.5 219,-57.5 219,-38.5 143,-38.5"/>
<text text-anchor="middle" x="181" y="-45.5" font-family="Helvetica,sans-Serif" font-size="10.00">tlz::string_arg</text>
</a>
</g>
</g>
<!-- Node1&#45;&gt;Node2 -->
<g id="edge1" class="edge"><title>Node1&#45;&gt;Node2</title>
<path fill="none" stroke="midnightblue" d="M107.36,-48C115.744,-48 124.369,-48 132.618,-48"/>
<polygon fill="midnightblue" stroke="midnightblue" points="132.817,-51.5001 142.817,-48 132.817,-44.5001 132.817,-51.5001"/>
</g>
<!-- Node3 -->
<g id="node3" class="node"><title>Node3</title>
<g id="a_node3"><a xlink:href="namespacetlz.html#a780431daab8d2595372eacb43143b52d" target="_top" xlink:title="tlz::args">
<polygon fill="white" stroke="black" points="285.5,-57.5 285.5,-76.5 337.5,-76.5 337.5,-57.5 285.5,-57.5"/>
<text text-anchor="middle" x="311.5" y="-64.5" font-family="Helvetica,sans-Serif" font-size="10.00">tlz::args</text>
</a>
</g>
</g>
<!-- Node2&#45;&gt;Node3 -->
<g id="edge2" class="edge"><title>Node2&#45;&gt;Node3</title>
<path fill="none" stroke="midnightblue" d="M219.168,-53.4956C236.723,-56.0913 257.581,-59.1753 274.928,-61.7404"/>
<polygon fill="midnightblue" stroke="midnightblue" points="274.811,-65.261 285.216,-63.2614 275.835,-58.3363 274.811,-65.261"/>
</g>
<!-- Node4 -->
<g id="node4" class="node"><title>Node4</title>
<g id="a_node4"><a xlink:href="classtlz_1_1args__list.html#a73d99bc75998dc14607a3a372d28dc6d" target="_top" xlink:title="tlz::args_list::next_arg">
<polygon fill="white" stroke="black" points="255,-19.5 255,-38.5 368,-38.5 368,-19.5 255,-19.5"/>
<text text-anchor="middle" x="311.5" y="-26.5" font-family="Helvetica,sans-Serif" font-size="10.00">tlz::args_list::next_arg</text>
</a>
</g>
</g>
<!-- Node2&#45;&gt;Node4 -->
<g id="edge3" class="edge"><title>Node2&#45;&gt;Node4</title>
<path fill="none" stroke="midnightblue" d="M219.168,-42.5044C227.246,-41.31 236.023,-40.0121 244.836,-38.7091"/>
<polygon fill="midnightblue" stroke="midnightblue" points="245.385,-42.166 254.766,-37.2409 244.361,-35.2413 245.385,-42.166"/>
</g>
<!-- Node5 -->
<g id="node5" class="node"><title>Node5</title>
<g id="a_node5"><a xlink:href="classtlz_1_1args__list.html#a38ad21acd64a4af98ffdf4a47837cdbe" target="_top" xlink:title="tlz::args_list::usage_fail">
<polygon fill="white" stroke="black" points="404,-38.5 404,-57.5 524,-57.5 524,-38.5 404,-38.5"/>
<text text-anchor="middle" x="464" y="-45.5" font-family="Helvetica,sans-Serif" font-size="10.00">tlz::args_list::usage_fail</text>
</a>
</g>
</g>
<!-- Node4&#45;&gt;Node5 -->
<g id="edge4" class="edge"><title>Node4&#45;&gt;Node5</title>
<path fill="none" stroke="midnightblue" d="M368.113,-36.0209C376.479,-37.077 385.192,-38.1771 393.8,-39.2638"/>
<polygon fill="midnightblue" stroke="midnightblue" points="393.468,-42.7496 403.828,-40.5298 394.345,-35.8048 393.468,-42.7496"/>
</g>
<!-- Node6 -->
<g id="node6" class="node"><title>Node6</title>
<g id="a_node6"><a xlink:href="namespacetlz.html#a8e4f8c8c2927bc4350de13bfa0f8f9e1" target="_top" xlink:title="tlz::to_string">
<polygon fill="white" stroke="black" points="428.5,-0.5 428.5,-19.5 499.5,-19.5 499.5,-0.5 428.5,-0.5"/>
<text text-anchor="middle" x="464" y="-7.5" font-family="Helvetica,sans-Serif" font-size="10.00">tlz::to_string</text>
</a>
</g>
</g>
<!-- Node4&#45;&gt;Node6 -->
<g id="edge5" class="edge"><title>Node4&#45;&gt;Node6</title>
<path fill="none" stroke="midnightblue" d="M368.113,-21.9791C384.598,-19.8979 402.435,-17.6461 418.147,-15.6625"/>
<polygon fill="midnightblue" stroke="midnightblue" points="418.647,-19.1273 428.13,-14.4023 417.77,-12.1824 418.647,-19.1273"/>
</g>
</g>
</svg>
