<?xml version="1.0" encoding="UTF-8" standalone="no"?>
<!DOCTYPE svg PUBLIC "-//W3C//DTD SVG 1.1//EN"
 "http://www.w3.org/Graphics/SVG/1.1/DTD/svg11.dtd">
<!-- Generated by graphviz version 2.38.0 (20140413.2041)
 -->
<!-- Title: tlz::distort_point Pages: 1 -->
<svg width="1090pt" height="390pt"
 viewBox="0.00 0.00 1090.00 389.94" xmlns="http://www.w3.org/2000/svg" xmlns:xlink="http://www.w3.org/1999/xlink">
<g id="graph0" class="graph" transform="scale(1 1) rotate(0) translate(4 385.936)">
<title>tlz::distort_point</title>
<polygon fill="white" stroke="none" points="-4,4 -4,-385.936 1086,-385.936 1086,4 -4,4"/>
<!-- Node1 -->
<g id="node1" class="node"><title>Node1</title>
<polygon fill="#bfbfbf" stroke="black" points="0,-247.5 0,-266.5 86,-266.5 86,-247.5 0,-247.5"/>
<text text-anchor="middle" x="43" y="-254.5" font-family="Helvetica,sans-Serif" font-size="10.00">tlz::distort_point</text>
</g>
<!-- Node2 -->
<g id="node2" class="node"><title>Node2</title>
<g id="a_node2"><a xlink:href="structtlz_1_1distortion__parameters.html#a307fee036b04519d633fb8456899850c" target="_top" xlink:title="tlz::distortion_parameters\l::is_none">
<polygon fill="white" stroke="black" points="537,-278 537,-308 664,-308 664,-278 537,-278"/>
<text text-anchor="start" x="545" y="-296" font-family="Helvetica,sans-Serif" font-size="10.00">tlz::distortion_parameters</text>
<text text-anchor="middle" x="600.5" y="-285" font-family="Helvetica,sans-Serif" font-size="10.00">::is_none</text>
</a>
</g>
</g>
<!-- Node1&#45;&gt;Node2 -->
<g id="edge1" class="edge"><title>Node1&#45;&gt;Node2</title>
<path fill="none" stroke="midnightblue" d="M48.3149,-266.638C58.0313,-286.986 83.8015,-333.939 122,-352 270.695,-422.307 473.153,-349.549 558.691,-312.216"/>
<polygon fill="midnightblue" stroke="midnightblue" points="560.327,-315.32 568.051,-308.068 557.49,-308.92 560.327,-315.32"/>
</g>
<!-- Node3 -->
<g id="node3" class="node"><title>Node3</title>
<g id="a_node3"><a xlink:href="structtlz_1_1intrinsics.html#acc9b666adbc970c279c56a4549cc90d5" target="_top" xlink:title="tlz::intrinsics::cx">
<polygon fill="white" stroke="black" points="122,-323.5 122,-342.5 211,-342.5 211,-323.5 122,-323.5"/>
<text text-anchor="middle" x="166.5" y="-330.5" font-family="Helvetica,sans-Serif" font-size="10.00">tlz::intrinsics::cx</text>
</a>
</g>
</g>
<!-- Node1&#45;&gt;Node3 -->
<g id="edge2" class="edge"><title>Node1&#45;&gt;Node3</title>
<path fill="none" stroke="midnightblue" d="M55.3467,-266.532C70.0645,-278.597 96.8404,-299.546 122,-314 125.095,-315.778 128.388,-317.498 131.723,-319.129"/>
<polygon fill="midnightblue" stroke="midnightblue" points="130.56,-322.447 141.106,-323.464 133.496,-316.093 130.56,-322.447"/>
</g>
<!-- Node4 -->
<g id="node4" class="node"><title>Node4</title>
<g id="a_node4"><a xlink:href="structtlz_1_1intrinsics.html#ad5875d6c77076468aebce0d88ef61c20" target="_top" xlink:title="tlz::intrinsics::fx">
<polygon fill="white" stroke="black" points="123.5,-285.5 123.5,-304.5 209.5,-304.5 209.5,-285.5 123.5,-285.5"/>
<text text-anchor="middle" x="166.5" y="-292.5" font-family="Helvetica,sans-Serif" font-size="10.00">tlz::intrinsics::fx</text>
</a>
</g>
</g>
<!-- Node1&#45;&gt;Node4 -->
<g id="edge3" class="edge"><title>Node1&#45;&gt;Node4</title>
<path fill="none" stroke="midnightblue" d="M74.6596,-266.589C89.9124,-271.359 108.551,-277.189 124.967,-282.323"/>
<polygon fill="midnightblue" stroke="midnightblue" points="124.261,-285.769 134.85,-285.414 126.351,-279.089 124.261,-285.769"/>
</g>
<!-- Node5 -->
<g id="node5" class="node"><title>Node5</title>
<g id="a_node5"><a xlink:href="structtlz_1_1intrinsics.html#af7acb0b51e36fbb45d73bc10efef7d25" target="_top" xlink:title="tlz::intrinsics::cy">
<polygon fill="white" stroke="black" points="122,-171.5 122,-190.5 211,-190.5 211,-171.5 122,-171.5"/>
<text text-anchor="middle" x="166.5" y="-178.5" font-family="Helvetica,sans-Serif" font-size="10.00">tlz::intrinsics::cy</text>
</a>
</g>
</g>
<!-- Node1&#45;&gt;Node5 -->
<g id="edge4" class="edge"><title>Node1&#45;&gt;Node5</title>
<path fill="none" stroke="midnightblue" d="M49.7629,-247.26C61.0685,-234.026 87.3423,-212.336 114.156,-195.711"/>
<polygon fill="midnightblue" stroke="midnightblue" points="116.074,-198.643 122.862,-190.509 112.483,-192.634 116.074,-198.643"/>
</g>
<!-- Node27 -->
<g id="node27" class="node"><title>Node27</title>
<g id="a_node27"><a xlink:href="structtlz_1_1intrinsics.html#a52e02ae0e8bbea245fcced1c38964f29" target="_top" xlink:title="tlz::intrinsics::fy">
<polygon fill="white" stroke="black" points="123.5,-209.5 123.5,-228.5 209.5,-228.5 209.5,-209.5 123.5,-209.5"/>
<text text-anchor="middle" x="166.5" y="-216.5" font-family="Helvetica,sans-Serif" font-size="10.00">tlz::intrinsics::fy</text>
</a>
</g>
</g>
<!-- Node1&#45;&gt;Node27 -->
<g id="edge35" class="edge"><title>Node1&#45;&gt;Node27</title>
<path fill="none" stroke="midnightblue" d="M74.6596,-247.411C89.9124,-242.641 108.551,-236.811 124.967,-231.677"/>
<polygon fill="midnightblue" stroke="midnightblue" points="126.351,-234.911 134.85,-228.586 124.261,-228.231 126.351,-234.911"/>
</g>
<!-- Node5&#45;&gt;Node1 -->
<g id="edge18" class="edge"><title>Node5&#45;&gt;Node1</title>
<path fill="none" stroke="midnightblue" d="M157.224,-190.623C148.276,-196.363 133.719,-202.268 122,-209 105.019,-218.755 87.301,-231.47 73.0515,-241.561"/>
<polygon fill="midnightblue" stroke="midnightblue" points="70.8341,-238.841 64.665,-247.455 74.8591,-244.568 70.8341,-238.841"/>
</g>
<!-- Node6 -->
<g id="node6" class="node"><title>Node6</title>
<g id="a_node6"><a xlink:href="namespacetlz.html#a8cba4853d0d796a01c72f59f36f2a492" target="_top" xlink:title="tlz::decode_intrinsics">
<polygon fill="white" stroke="black" points="392,-114.5 392,-133.5 501,-133.5 501,-114.5 392,-114.5"/>
<text text-anchor="middle" x="446.5" y="-121.5" font-family="Helvetica,sans-Serif" font-size="10.00">tlz::decode_intrinsics</text>
</a>
</g>
</g>
<!-- Node5&#45;&gt;Node6 -->
<g id="edge5" class="edge"><title>Node5&#45;&gt;Node6</title>
<path fill="none" stroke="midnightblue" d="M183.292,-171.398C198.885,-162.423 223.709,-149.462 247,-143 291.037,-130.781 342.44,-126.112 381.902,-124.455"/>
<polygon fill="midnightblue" stroke="midnightblue" points="382.059,-127.952 391.924,-124.088 381.802,-120.956 382.059,-127.952"/>
</g>
<!-- Node10 -->
<g id="node10" class="node"><title>Node10</title>
<g id="a_node10"><a xlink:href="namespacetlz.html#a46c3e46d56bc36cf6b1236522563bc4a" target="_top" xlink:title="tlz::encode_intrinsics">
<polygon fill="white" stroke="black" points="247,-57.5 247,-76.5 356,-76.5 356,-57.5 247,-57.5"/>
<text text-anchor="middle" x="301.5" y="-64.5" font-family="Helvetica,sans-Serif" font-size="10.00">tlz::encode_intrinsics</text>
</a>
</g>
</g>
<!-- Node5&#45;&gt;Node10 -->
<g id="edge10" class="edge"><title>Node5&#45;&gt;Node10</title>
<path fill="none" stroke="midnightblue" d="M177.892,-171.406C192.93,-157.595 221.729,-131.415 247,-110 257.796,-100.851 270.088,-90.9379 280.165,-82.9376"/>
<polygon fill="midnightblue" stroke="midnightblue" points="282.35,-85.6716 288.027,-76.7261 278.011,-80.1789 282.35,-85.6716"/>
</g>
<!-- Node13 -->
<g id="node13" class="node"><title>Node13</title>
<g id="a_node13"><a xlink:href="namespacetlz.html#a67f7411515a0538e3a39b9d0602ed854" target="_top" xlink:title="tlz::undistort_point">
<polygon fill="white" stroke="black" points="253,-190.5 253,-209.5 350,-209.5 350,-190.5 253,-190.5"/>
<text text-anchor="middle" x="301.5" y="-197.5" font-family="Helvetica,sans-Serif" font-size="10.00">tlz::undistort_point</text>
</a>
</g>
</g>
<!-- Node5&#45;&gt;Node13 -->
<g id="edge13" class="edge"><title>Node5&#45;&gt;Node13</title>
<path fill="none" stroke="midnightblue" d="M211.049,-187.221C221.153,-188.665 232.064,-190.223 242.674,-191.739"/>
<polygon fill="midnightblue" stroke="midnightblue" points="242.324,-195.225 252.719,-193.174 243.314,-188.295 242.324,-195.225"/>
</g>
<!-- Node14 -->
<g id="node14" class="node"><title>Node14</title>
<g id="a_node14"><a xlink:href="namespacetlz.html#a8b5e4acbb884887859e414ffe06a09f8" target="_top" xlink:title="tlz::undistort_points">
<polygon fill="white" stroke="black" points="395.5,-231.5 395.5,-250.5 497.5,-250.5 497.5,-231.5 395.5,-231.5"/>
<text text-anchor="middle" x="446.5" y="-238.5" font-family="Helvetica,sans-Serif" font-size="10.00">tlz::undistort_points</text>
</a>
</g>
</g>
<!-- Node5&#45;&gt;Node14 -->
<g id="edge17" class="edge"><title>Node5&#45;&gt;Node14</title>
<path fill="none" stroke="midnightblue" d="M190.221,-190.548C196.957,-193.479 204.317,-196.782 211,-200 227.301,-207.848 229.706,-213.688 247,-219 291.973,-232.813 345.038,-238.164 384.981,-240.143"/>
<polygon fill="midnightblue" stroke="midnightblue" points="384.957,-243.645 395.1,-240.586 385.263,-236.652 384.957,-243.645"/>
</g>
<!-- Node16 -->
<g id="node16" class="node"><title>Node16</title>
<g id="a_node16"><a xlink:href="namespacetlz.html#ab01b1e8009a6b2ae9fe0fd559de7dd20" target="_top" xlink:title="tlz::distort_points">
<polygon fill="white" stroke="black" points="255.5,-266.5 255.5,-285.5 347.5,-285.5 347.5,-266.5 255.5,-266.5"/>
<text text-anchor="middle" x="301.5" y="-273.5" font-family="Helvetica,sans-Serif" font-size="10.00">tlz::distort_points</text>
</a>
</g>
</g>
<!-- Node5&#45;&gt;Node16 -->
<g id="edge19" class="edge"><title>Node5&#45;&gt;Node16</title>
<path fill="none" stroke="midnightblue" d="M195.967,-190.71C201.275,-193.253 206.545,-196.335 211,-200 232.705,-217.861 225.383,-234.032 247,-252 251.614,-255.835 256.939,-259.176 262.404,-262.048"/>
<polygon fill="midnightblue" stroke="midnightblue" points="261.097,-265.302 271.63,-266.442 264.106,-258.982 261.097,-265.302"/>
</g>
<!-- Node17 -->
<g id="node17" class="node"><title>Node17</title>
<g id="a_node17"><a xlink:href="namespacetlz.html#a170805c7a8ede64a93e0ee23196e5b7c" target="_top" xlink:title="tlz::intrinsics_arg">
<polygon fill="white" stroke="black" points="256,-152.5 256,-171.5 347,-171.5 347,-152.5 256,-152.5"/>
<text text-anchor="middle" x="301.5" y="-159.5" font-family="Helvetica,sans-Serif" font-size="10.00">tlz::intrinsics_arg</text>
</a>
</g>
</g>
<!-- Node5&#45;&gt;Node17 -->
<g id="edge22" class="edge"><title>Node5&#45;&gt;Node17</title>
<path fill="none" stroke="midnightblue" d="M211.049,-174.779C222.182,-173.188 234.293,-171.458 245.904,-169.799"/>
<polygon fill="midnightblue" stroke="midnightblue" points="246.537,-173.245 255.941,-168.366 245.547,-166.315 246.537,-173.245"/>
</g>
<!-- Node7 -->
<g id="node7" class="node"><title>Node7</title>
<g id="a_node7"><a xlink:href="namespacetlz.html#a066563a26e2de02f215b179f3d3a53da" target="_top" xlink:title="tlz::decode_mat">
<polygon fill="white" stroke="black" points="557.5,-114.5 557.5,-133.5 643.5,-133.5 643.5,-114.5 557.5,-114.5"/>
<text text-anchor="middle" x="600.5" y="-121.5" font-family="Helvetica,sans-Serif" font-size="10.00">tlz::decode_mat</text>
</a>
</g>
</g>
<!-- Node6&#45;&gt;Node7 -->
<g id="edge6" class="edge"><title>Node6&#45;&gt;Node7</title>
<path fill="none" stroke="midnightblue" d="M501.09,-124C516.09,-124 532.369,-124 547.289,-124"/>
<polygon fill="midnightblue" stroke="midnightblue" points="547.368,-127.5 557.368,-124 547.368,-120.5 547.368,-127.5"/>
</g>
<!-- Node8 -->
<g id="node8" class="node"><title>Node8</title>
<g id="a_node8"><a xlink:href="namespacetlz.html#a252af14b9b4ac6502d3e9c5dd8dc90b8" target="_top" xlink:title="tlz::has">
<polygon fill="white" stroke="black" points="714,-47.5 714,-66.5 763,-66.5 763,-47.5 714,-47.5"/>
<text text-anchor="middle" x="738.5" y="-54.5" font-family="Helvetica,sans-Serif" font-size="10.00">tlz::has</text>
</a>
</g>
</g>
<!-- Node6&#45;&gt;Node8 -->
<g id="edge7" class="edge"><title>Node6&#45;&gt;Node8</title>
<path fill="none" stroke="midnightblue" d="M488.742,-114.472C546.503,-101.127 650.393,-77.1247 703.791,-64.7879"/>
<polygon fill="midnightblue" stroke="midnightblue" points="704.814,-68.144 713.769,-62.4827 703.238,-61.3236 704.814,-68.144"/>
</g>
<!-- Node9 -->
<g id="node9" class="node"><title>Node9</title>
<g id="a_node9"><a xlink:href="namespacetlz.html#add846dc50c32dfb356cb1a7ac11d37ac" target="_top" xlink:title="tlz::get_or">
<polygon fill="white" stroke="black" points="570.5,-38.5 570.5,-57.5 630.5,-57.5 630.5,-38.5 570.5,-38.5"/>
<text text-anchor="middle" x="600.5" y="-45.5" font-family="Helvetica,sans-Serif" font-size="10.00">tlz::get_or</text>
</a>
</g>
</g>
<!-- Node6&#45;&gt;Node9 -->
<g id="edge8" class="edge"><title>Node6&#45;&gt;Node9</title>
<path fill="none" stroke="midnightblue" d="M462.303,-114.412C479.734,-103.357 509.769,-85.0362 537,-72 544.987,-68.1762 553.756,-64.5027 562.134,-61.2288"/>
<polygon fill="midnightblue" stroke="midnightblue" points="563.616,-64.4098 571.719,-57.5838 561.127,-57.867 563.616,-64.4098"/>
</g>
<!-- Node9&#45;&gt;Node8 -->
<g id="edge9" class="edge"><title>Node9&#45;&gt;Node8</title>
<path fill="none" stroke="midnightblue" d="M630.675,-49.9307C652.102,-51.3486 681.262,-53.2784 703.703,-54.7634"/>
<polygon fill="midnightblue" stroke="midnightblue" points="703.593,-58.2637 713.802,-55.4318 704.055,-51.279 703.593,-58.2637"/>
</g>
<!-- Node11 -->
<g id="node11" class="node"><title>Node11</title>
<g id="a_node11"><a xlink:href="namespacetlz.html#acf7ca4ee1b750cf31a40170bea887d46" target="_top" xlink:title="tlz::encode_mat">
<polygon fill="white" stroke="black" points="403.5,-19.5 403.5,-38.5 489.5,-38.5 489.5,-19.5 403.5,-19.5"/>
<text text-anchor="middle" x="446.5" y="-26.5" font-family="Helvetica,sans-Serif" font-size="10.00">tlz::encode_mat</text>
</a>
</g>
</g>
<!-- Node10&#45;&gt;Node11 -->
<g id="edge11" class="edge"><title>Node10&#45;&gt;Node11</title>
<path fill="none" stroke="midnightblue" d="M338.585,-57.411C357.13,-52.4831 379.926,-46.4251 399.699,-41.1709"/>
<polygon fill="midnightblue" stroke="midnightblue" points="400.661,-44.5368 409.427,-38.5859 398.863,-37.7716 400.661,-44.5368"/>
</g>
<!-- Node12 -->
<g id="node12" class="node"><title>Node12</title>
<g id="a_node12"><a xlink:href="namespacetlz.html#a7b27ca69fad329b4a00aceee41d2962b" target="_top" xlink:title="tlz::encode_mat_">
<polygon fill="white" stroke="black" points="554.5,-0.5 554.5,-19.5 646.5,-19.5 646.5,-0.5 554.5,-0.5"/>
<text text-anchor="middle" x="600.5" y="-7.5" font-family="Helvetica,sans-Serif" font-size="10.00">tlz::encode_mat_</text>
</a>
</g>
</g>
<!-- Node11&#45;&gt;Node12 -->
<g id="edge12" class="edge"><title>Node11&#45;&gt;Node12</title>
<path fill="none" stroke="midnightblue" d="M489.84,-23.7074C506.735,-21.5957 526.41,-19.1363 544.393,-16.8884"/>
<polygon fill="midnightblue" stroke="midnightblue" points="544.977,-20.3427 554.465,-15.6293 544.108,-13.3968 544.977,-20.3427"/>
</g>
<!-- Node13&#45;&gt;Node14 -->
<g id="edge14" class="edge"><title>Node13&#45;&gt;Node14</title>
<path fill="none" stroke="midnightblue" d="M335.667,-209.509C355.468,-215.187 380.838,-222.46 402.205,-228.587"/>
<polygon fill="midnightblue" stroke="midnightblue" points="401.441,-232.009 412.018,-231.4 403.37,-225.28 401.441,-232.009"/>
</g>
<!-- Node14&#45;&gt;Node2 -->
<g id="edge15" class="edge"><title>Node14&#45;&gt;Node2</title>
<path fill="none" stroke="midnightblue" d="M475.379,-250.538C495.039,-257.264 521.998,-266.486 545.769,-274.618"/>
<polygon fill="midnightblue" stroke="midnightblue" points="544.791,-277.983 555.385,-277.908 547.057,-271.36 544.791,-277.983"/>
</g>
<!-- Node15 -->
<g id="node15" class="node"><title>Node15</title>
<g id="a_node15"><a xlink:href="structtlz_1_1distortion__parameters.html#a96312c5d7baa4b7b1f2a76e9396037f8" target="_top" xlink:title="tlz::distortion_parameters\l::cv_coeffs">
<polygon fill="white" stroke="black" points="537,-229 537,-259 664,-259 664,-229 537,-229"/>
<text text-anchor="start" x="545" y="-247" font-family="Helvetica,sans-Serif" font-size="10.00">tlz::distortion_parameters</text>
<text text-anchor="middle" x="600.5" y="-236" font-family="Helvetica,sans-Serif" font-size="10.00">::cv_coeffs</text>
</a>
</g>
</g>
<!-- Node14&#45;&gt;Node15 -->
<g id="edge16" class="edge"><title>Node14&#45;&gt;Node15</title>
<path fill="none" stroke="midnightblue" d="M497.692,-241.991C506.998,-242.174 516.89,-242.37 526.71,-242.563"/>
<polygon fill="midnightblue" stroke="midnightblue" points="526.823,-246.066 536.89,-242.764 526.961,-239.068 526.823,-246.066"/>
</g>
<!-- Node16&#45;&gt;Node1 -->
<g id="edge21" class="edge"><title>Node16&#45;&gt;Node1</title>
<path fill="none" stroke="midnightblue" d="M255.385,-272.658C210.939,-269.366 143.084,-264.34 96.302,-260.874"/>
<polygon fill="midnightblue" stroke="midnightblue" points="96.2998,-257.365 86.0685,-260.116 95.7826,-264.345 96.2998,-257.365"/>
</g>
<!-- Node16&#45;&gt;Node2 -->
<g id="edge20" class="edge"><title>Node16&#45;&gt;Node2</title>
<path fill="none" stroke="midnightblue" d="M347.608,-278.582C395.118,-281.301 470.659,-285.625 526.638,-288.829"/>
<polygon fill="midnightblue" stroke="midnightblue" points="526.668,-292.337 536.851,-289.414 527.068,-285.348 526.668,-292.337"/>
</g>
<!-- Node17&#45;&gt;Node6 -->
<g id="edge23" class="edge"><title>Node17&#45;&gt;Node6</title>
<path fill="none" stroke="midnightblue" d="M338.585,-152.411C357.13,-147.483 379.926,-141.425 399.699,-136.171"/>
<polygon fill="midnightblue" stroke="midnightblue" points="400.661,-139.537 409.427,-133.586 398.863,-132.772 400.661,-139.537"/>
</g>
<!-- Node18 -->
<g id="node18" class="node"><title>Node18</title>
<g id="a_node18"><a xlink:href="namespacetlz.html#a35f9e03fa4fd9cec699f5fa27962400f" target="_top" xlink:title="tlz::json_arg">
<polygon fill="white" stroke="black" points="411.5,-152.5 411.5,-171.5 481.5,-171.5 481.5,-152.5 411.5,-152.5"/>
<text text-anchor="middle" x="446.5" y="-159.5" font-family="Helvetica,sans-Serif" font-size="10.00">tlz::json_arg</text>
</a>
</g>
</g>
<!-- Node17&#45;&gt;Node18 -->
<g id="edge24" class="edge"><title>Node17&#45;&gt;Node18</title>
<path fill="none" stroke="midnightblue" d="M347.354,-162C364.447,-162 383.911,-162 400.974,-162"/>
<polygon fill="midnightblue" stroke="midnightblue" points="401.245,-165.5 411.245,-162 401.245,-158.5 401.245,-165.5"/>
</g>
<!-- Node19 -->
<g id="node19" class="node"><title>Node19</title>
<g id="a_node19"><a xlink:href="namespacetlz.html#aa1be9362f548fcf9378e1fc9074089c4" target="_top" xlink:title="tlz::import_json_file">
<polygon fill="white" stroke="black" points="550,-190.5 550,-209.5 651,-209.5 651,-190.5 550,-190.5"/>
<text text-anchor="middle" x="600.5" y="-197.5" font-family="Helvetica,sans-Serif" font-size="10.00">tlz::import_json_file</text>
</a>
</g>
</g>
<!-- Node18&#45;&gt;Node19 -->
<g id="edge25" class="edge"><title>Node18&#45;&gt;Node19</title>
<path fill="none" stroke="midnightblue" d="M481.612,-170.528C502.274,-175.694 528.944,-182.361 551.689,-188.047"/>
<polygon fill="midnightblue" stroke="midnightblue" points="550.947,-191.469 561.497,-190.499 552.645,-184.678 550.947,-191.469"/>
</g>
<!-- Node20 -->
<g id="node20" class="node"><title>Node20</title>
<g id="a_node20"><a xlink:href="namespacetlz.html#a634de7ca11e100e4a118dffe80376a75" target="_top" xlink:title="tlz::in_filename_arg">
<polygon fill="white" stroke="black" points="550,-152.5 550,-171.5 651,-171.5 651,-152.5 550,-152.5"/>
<text text-anchor="middle" x="600.5" y="-159.5" font-family="Helvetica,sans-Serif" font-size="10.00">tlz::in_filename_arg</text>
</a>
</g>
</g>
<!-- Node18&#45;&gt;Node20 -->
<g id="edge26" class="edge"><title>Node18&#45;&gt;Node20</title>
<path fill="none" stroke="midnightblue" d="M481.612,-162C498.755,-162 520.034,-162 539.775,-162"/>
<polygon fill="midnightblue" stroke="midnightblue" points="539.928,-165.5 549.928,-162 539.928,-158.5 539.928,-165.5"/>
</g>
<!-- Node21 -->
<g id="node21" class="node"><title>Node21</title>
<g id="a_node21"><a xlink:href="namespacetlz.html#a0621d598fb83b13bf028f3e6293d04f8" target="_top" xlink:title="tlz::string_arg">
<polygon fill="white" stroke="black" points="700.5,-142.5 700.5,-161.5 776.5,-161.5 776.5,-142.5 700.5,-142.5"/>
<text text-anchor="middle" x="738.5" y="-149.5" font-family="Helvetica,sans-Serif" font-size="10.00">tlz::string_arg</text>
</a>
</g>
</g>
<!-- Node20&#45;&gt;Node21 -->
<g id="edge27" class="edge"><title>Node20&#45;&gt;Node21</title>
<path fill="none" stroke="midnightblue" d="M651.369,-158.333C664.043,-157.401 677.624,-156.403 690.168,-155.48"/>
<polygon fill="midnightblue" stroke="midnightblue" points="690.702,-158.951 700.419,-154.727 690.189,-151.969 690.702,-158.951"/>
</g>
<!-- Node22 -->
<g id="node22" class="node"><title>Node22</title>
<g id="a_node22"><a xlink:href="namespacetlz.html#a780431daab8d2595372eacb43143b52d" target="_top" xlink:title="tlz::args">
<polygon fill="white" stroke="black" points="843.5,-180.5 843.5,-199.5 895.5,-199.5 895.5,-180.5 843.5,-180.5"/>
<text text-anchor="middle" x="869.5" y="-187.5" font-family="Helvetica,sans-Serif" font-size="10.00">tlz::args</text>
</a>
</g>
</g>
<!-- Node20&#45;&gt;Node22 -->
<g id="edge33" class="edge"><title>Node20&#45;&gt;Node22</title>
<path fill="none" stroke="midnightblue" d="M651.095,-167.201C703.981,-172.747 786.412,-181.391 833.104,-186.288"/>
<polygon fill="midnightblue" stroke="midnightblue" points="833.024,-189.799 843.334,-187.361 833.754,-182.837 833.024,-189.799"/>
</g>
<!-- Node24 -->
<g id="node24" class="node"><title>Node24</title>
<g id="a_node24"><a xlink:href="classtlz_1_1args__list.html#a38ad21acd64a4af98ffdf4a47837cdbe" target="_top" xlink:title="tlz::args_list::usage_fail">
<polygon fill="white" stroke="black" points="962,-104.5 962,-123.5 1082,-123.5 1082,-104.5 962,-104.5"/>
<text text-anchor="middle" x="1022" y="-111.5" font-family="Helvetica,sans-Serif" font-size="10.00">tlz::args_list::usage_fail</text>
</a>
</g>
</g>
<!-- Node20&#45;&gt;Node24 -->
<g id="edge34" class="edge"><title>Node20&#45;&gt;Node24</title>
<path fill="none" stroke="midnightblue" d="M632.475,-152.497C658.745,-144.501 693.217,-134.183 700,-133 785.874,-118.018 886.414,-114.244 951.781,-113.579"/>
<polygon fill="midnightblue" stroke="midnightblue" points="951.991,-117.077 961.963,-113.498 951.935,-110.078 951.991,-117.077"/>
</g>
<!-- Node26 -->
<g id="node26" class="node"><title>Node26</title>
<g id="a_node26"><a xlink:href="namespacetlz.html#abb019466ea9f56c0dab27e893d891837" target="_top" xlink:title="tlz::file_exists">
<polygon fill="white" stroke="black" points="700,-218.5 700,-237.5 777,-237.5 777,-218.5 700,-218.5"/>
<text text-anchor="middle" x="738.5" y="-225.5" font-family="Helvetica,sans-Serif" font-size="10.00">tlz::file_exists</text>
</a>
</g>
</g>
<!-- Node20&#45;&gt;Node26 -->
<g id="edge32" class="edge"><title>Node20&#45;&gt;Node26</title>
<path fill="none" stroke="midnightblue" d="M638.807,-171.514C647.256,-174.168 656.07,-177.344 664,-181 664.34,-181.157 692.39,-199.108 713.734,-212.776"/>
<polygon fill="midnightblue" stroke="midnightblue" points="712.062,-215.862 722.371,-218.308 715.838,-209.967 712.062,-215.862"/>
</g>
<!-- Node21&#45;&gt;Node22 -->
<g id="edge28" class="edge"><title>Node21&#45;&gt;Node22</title>
<path fill="none" stroke="midnightblue" d="M772.052,-161.589C790.78,-167.106 814.314,-174.038 833.447,-179.674"/>
<polygon fill="midnightblue" stroke="midnightblue" points="832.701,-183.103 843.283,-182.572 834.679,-176.389 832.701,-183.103"/>
</g>
<!-- Node23 -->
<g id="node23" class="node"><title>Node23</title>
<g id="a_node23"><a xlink:href="classtlz_1_1args__list.html#a73d99bc75998dc14607a3a372d28dc6d" target="_top" xlink:title="tlz::args_list::next_arg">
<polygon fill="white" stroke="black" points="813,-142.5 813,-161.5 926,-161.5 926,-142.5 813,-142.5"/>
<text text-anchor="middle" x="869.5" y="-149.5" font-family="Helvetica,sans-Serif" font-size="10.00">tlz::args_list::next_arg</text>
</a>
</g>
</g>
<!-- Node21&#45;&gt;Node23 -->
<g id="edge29" class="edge"><title>Node21&#45;&gt;Node23</title>
<path fill="none" stroke="midnightblue" d="M776.812,-152C784.835,-152 793.544,-152 802.295,-152"/>
<polygon fill="midnightblue" stroke="midnightblue" points="802.549,-155.5 812.549,-152 802.549,-148.5 802.549,-155.5"/>
</g>
<!-- Node23&#45;&gt;Node24 -->
<g id="edge30" class="edge"><title>Node23&#45;&gt;Node24</title>
<path fill="none" stroke="midnightblue" d="M908.478,-142.411C928.159,-137.442 952.391,-131.323 973.321,-126.039"/>
<polygon fill="midnightblue" stroke="midnightblue" points="974.457,-129.362 983.296,-123.52 972.743,-122.575 974.457,-129.362"/>
</g>
<!-- Node25 -->
<g id="node25" class="node"><title>Node25</title>
<g id="a_node25"><a xlink:href="namespacetlz.html#a8e4f8c8c2927bc4350de13bfa0f8f9e1" target="_top" xlink:title="tlz::to_string">
<polygon fill="white" stroke="black" points="986.5,-142.5 986.5,-161.5 1057.5,-161.5 1057.5,-142.5 986.5,-142.5"/>
<text text-anchor="middle" x="1022" y="-149.5" font-family="Helvetica,sans-Serif" font-size="10.00">tlz::to_string</text>
</a>
</g>
</g>
<!-- Node23&#45;&gt;Node25 -->
<g id="edge31" class="edge"><title>Node23&#45;&gt;Node25</title>
<path fill="none" stroke="midnightblue" d="M926.113,-152C942.441,-152 960.096,-152 975.698,-152"/>
<polygon fill="midnightblue" stroke="midnightblue" points="976.13,-155.5 986.13,-152 976.129,-148.5 976.13,-155.5"/>
</g>
</g>
</svg>
