<?xml version="1.0" encoding="UTF-8" standalone="no"?>
<!DOCTYPE svg PUBLIC "-//W3C//DTD SVG 1.1//EN"
 "http://www.w3.org/Graphics/SVG/1.1/DTD/svg11.dtd">
<!-- Generated by graphviz version 2.38.0 (20140413.2041)
 -->
<!-- Title: tlz::homographies_arg Pages: 1 -->
<svg width="925pt" height="218pt"
 viewBox="0.00 0.00 925.00 218.00" xmlns="http://www.w3.org/2000/svg" xmlns:xlink="http://www.w3.org/1999/xlink">
<g id="graph0" class="graph" transform="scale(1 1) rotate(0) translate(4 214)">
<title>tlz::homographies_arg</title>
<polygon fill="white" stroke="none" points="-4,4 -4,-214 921,-214 921,4 -4,4"/>
<!-- Node1 -->
<g id="node1" class="node"><title>Node1</title>
<polygon fill="#bfbfbf" stroke="black" points="0,-133.5 0,-152.5 113,-152.5 113,-133.5 0,-133.5"/>
<text text-anchor="middle" x="56.5" y="-140.5" font-family="Helvetica,sans-Serif" font-size="10.00">tlz::homographies_arg</text>
</g>
<!-- Node2 -->
<g id="node2" class="node"><title>Node2</title>
<g id="a_node2"><a xlink:href="namespacetlz.html#a2b9ca660faf3db42377043477bcee30b" target="_top" xlink:title="tlz::decode_view_homographies">
<polygon fill="white" stroke="black" points="149,-152.5 149,-171.5 305,-171.5 305,-152.5 149,-152.5"/>
<text text-anchor="middle" x="227" y="-159.5" font-family="Helvetica,sans-Serif" font-size="10.00">tlz::decode_view_homographies</text>
</a>
</g>
</g>
<!-- Node1&#45;&gt;Node2 -->
<g id="edge1" class="edge"><title>Node1&#45;&gt;Node2</title>
<path fill="none" stroke="midnightblue" d="M113.14,-149.274C121.339,-150.198 129.948,-151.169 138.602,-152.145"/>
<polygon fill="midnightblue" stroke="midnightblue" points="138.43,-155.648 148.759,-153.29 139.214,-148.692 138.43,-155.648"/>
</g>
<!-- Node8 -->
<g id="node8" class="node"><title>Node8</title>
<g id="a_node8"><a xlink:href="namespacetlz.html#a35f9e03fa4fd9cec699f5fa27962400f" target="_top" xlink:title="tlz::json_arg">
<polygon fill="white" stroke="black" points="192,-114.5 192,-133.5 262,-133.5 262,-114.5 192,-114.5"/>
<text text-anchor="middle" x="227" y="-121.5" font-family="Helvetica,sans-Serif" font-size="10.00">tlz::json_arg</text>
</a>
</g>
</g>
<!-- Node1&#45;&gt;Node8 -->
<g id="edge7" class="edge"><title>Node1&#45;&gt;Node8</title>
<path fill="none" stroke="midnightblue" d="M113.14,-136.726C135.465,-134.209 160.831,-131.348 181.853,-128.978"/>
<polygon fill="midnightblue" stroke="midnightblue" points="182.246,-132.456 191.791,-127.857 181.462,-125.5 182.246,-132.456"/>
</g>
<!-- Node3 -->
<g id="node3" class="node"><title>Node3</title>
<g id="a_node3"><a xlink:href="namespacetlz.html#a74e8454f97dace7cffb1afdb6d3ca87b" target="_top" xlink:title="tlz::decode_view_index">
<polygon fill="white" stroke="black" points="356,-190.5 356,-209.5 475,-209.5 475,-190.5 356,-190.5"/>
<text text-anchor="middle" x="415.5" y="-197.5" font-family="Helvetica,sans-Serif" font-size="10.00">tlz::decode_view_index</text>
</a>
</g>
</g>
<!-- Node2&#45;&gt;Node3 -->
<g id="edge2" class="edge"><title>Node2&#45;&gt;Node3</title>
<path fill="none" stroke="midnightblue" d="M275.062,-171.589C300.227,-176.716 331.396,-183.067 357.879,-188.463"/>
<polygon fill="midnightblue" stroke="midnightblue" points="357.279,-191.913 367.777,-190.48 358.677,-185.054 357.279,-191.913"/>
</g>
<!-- Node4 -->
<g id="node4" class="node"><title>Node4</title>
<g id="a_node4"><a xlink:href="namespacetlz.html#acc042de1df74e590015a1efe234a338c" target="_top" xlink:title="tlz::decode_view_homography">
<polygon fill="white" stroke="black" points="341,-152.5 341,-171.5 490,-171.5 490,-152.5 341,-152.5"/>
<text text-anchor="middle" x="415.5" y="-159.5" font-family="Helvetica,sans-Serif" font-size="10.00">tlz::decode_view_homography</text>
</a>
</g>
</g>
<!-- Node2&#45;&gt;Node4 -->
<g id="edge3" class="edge"><title>Node2&#45;&gt;Node4</title>
<path fill="none" stroke="midnightblue" d="M305.203,-162C313.61,-162 322.196,-162 330.677,-162"/>
<polygon fill="midnightblue" stroke="midnightblue" points="330.95,-165.5 340.95,-162 330.95,-158.5 330.95,-165.5"/>
</g>
<!-- Node5 -->
<g id="node5" class="node"><title>Node5</title>
<g id="a_node5"><a xlink:href="namespacetlz.html#a066563a26e2de02f215b179f3d3a53da" target="_top" xlink:title="tlz::decode_mat">
<polygon fill="white" stroke="black" points="526,-190.5 526,-209.5 612,-209.5 612,-190.5 526,-190.5"/>
<text text-anchor="middle" x="569" y="-197.5" font-family="Helvetica,sans-Serif" font-size="10.00">tlz::decode_mat</text>
</a>
</g>
</g>
<!-- Node4&#45;&gt;Node5 -->
<g id="edge4" class="edge"><title>Node4&#45;&gt;Node5</title>
<path fill="none" stroke="midnightblue" d="M454.73,-171.589C474.632,-176.581 499.157,-182.732 520.291,-188.033"/>
<polygon fill="midnightblue" stroke="midnightblue" points="519.494,-191.442 530.045,-190.48 521.197,-184.652 519.494,-191.442"/>
</g>
<!-- Node6 -->
<g id="node6" class="node"><title>Node6</title>
<g id="a_node6"><a xlink:href="namespacetlz.html#add846dc50c32dfb356cb1a7ac11d37ac" target="_top" xlink:title="tlz::get_or">
<polygon fill="white" stroke="black" points="539,-152.5 539,-171.5 599,-171.5 599,-152.5 539,-152.5"/>
<text text-anchor="middle" x="569" y="-159.5" font-family="Helvetica,sans-Serif" font-size="10.00">tlz::get_or</text>
</a>
</g>
</g>
<!-- Node4&#45;&gt;Node6 -->
<g id="edge5" class="edge"><title>Node4&#45;&gt;Node6</title>
<path fill="none" stroke="midnightblue" d="M490.031,-162C503.442,-162 516.946,-162 528.86,-162"/>
<polygon fill="midnightblue" stroke="midnightblue" points="528.878,-165.5 538.878,-162 528.878,-158.5 528.878,-165.5"/>
</g>
<!-- Node7 -->
<g id="node7" class="node"><title>Node7</title>
<g id="a_node7"><a xlink:href="namespacetlz.html#a252af14b9b4ac6502d3e9c5dd8dc90b8" target="_top" xlink:title="tlz::has">
<polygon fill="white" stroke="black" points="680,-152.5 680,-171.5 729,-171.5 729,-152.5 680,-152.5"/>
<text text-anchor="middle" x="704.5" y="-159.5" font-family="Helvetica,sans-Serif" font-size="10.00">tlz::has</text>
</a>
</g>
</g>
<!-- Node6&#45;&gt;Node7 -->
<g id="edge6" class="edge"><title>Node6&#45;&gt;Node7</title>
<path fill="none" stroke="midnightblue" d="M599.297,-162C620.009,-162 647.833,-162 669.52,-162"/>
<polygon fill="midnightblue" stroke="midnightblue" points="669.615,-165.5 679.615,-162 669.615,-158.5 669.615,-165.5"/>
</g>
<!-- Node9 -->
<g id="node9" class="node"><title>Node9</title>
<g id="a_node9"><a xlink:href="namespacetlz.html#aa1be9362f548fcf9378e1fc9074089c4" target="_top" xlink:title="tlz::import_json_file">
<polygon fill="white" stroke="black" points="365,-114.5 365,-133.5 466,-133.5 466,-114.5 365,-114.5"/>
<text text-anchor="middle" x="415.5" y="-121.5" font-family="Helvetica,sans-Serif" font-size="10.00">tlz::import_json_file</text>
</a>
</g>
</g>
<!-- Node8&#45;&gt;Node9 -->
<g id="edge8" class="edge"><title>Node8&#45;&gt;Node9</title>
<path fill="none" stroke="midnightblue" d="M262.207,-124C287.999,-124 324.03,-124 354.57,-124"/>
<polygon fill="midnightblue" stroke="midnightblue" points="354.694,-127.5 364.694,-124 354.694,-120.5 354.694,-127.5"/>
</g>
<!-- Node10 -->
<g id="node10" class="node"><title>Node10</title>
<g id="a_node10"><a xlink:href="namespacetlz.html#a634de7ca11e100e4a118dffe80376a75" target="_top" xlink:title="tlz::in_filename_arg">
<polygon fill="white" stroke="black" points="365,-76.5 365,-95.5 466,-95.5 466,-76.5 365,-76.5"/>
<text text-anchor="middle" x="415.5" y="-83.5" font-family="Helvetica,sans-Serif" font-size="10.00">tlz::in_filename_arg</text>
</a>
</g>
</g>
<!-- Node8&#45;&gt;Node10 -->
<g id="edge9" class="edge"><title>Node8&#45;&gt;Node10</title>
<path fill="none" stroke="midnightblue" d="M262.207,-117.03C288.966,-111.578 326.743,-103.881 357.978,-97.5166"/>
<polygon fill="midnightblue" stroke="midnightblue" points="358.767,-100.928 367.867,-95.5017 357.369,-94.0687 358.767,-100.928"/>
</g>
<!-- Node11 -->
<g id="node11" class="node"><title>Node11</title>
<g id="a_node11"><a xlink:href="namespacetlz.html#a0621d598fb83b13bf028f3e6293d04f8" target="_top" xlink:title="tlz::string_arg">
<polygon fill="white" stroke="black" points="531,-76.5 531,-95.5 607,-95.5 607,-76.5 531,-76.5"/>
<text text-anchor="middle" x="569" y="-83.5" font-family="Helvetica,sans-Serif" font-size="10.00">tlz::string_arg</text>
</a>
</g>
</g>
<!-- Node10&#45;&gt;Node11 -->
<g id="edge10" class="edge"><title>Node10&#45;&gt;Node11</title>
<path fill="none" stroke="midnightblue" d="M466.107,-86C483.544,-86 503.088,-86 520.36,-86"/>
<polygon fill="midnightblue" stroke="midnightblue" points="520.781,-89.5001 530.781,-86 520.781,-82.5001 520.781,-89.5001"/>
</g>
<!-- Node12 -->
<g id="node12" class="node"><title>Node12</title>
<g id="a_node12"><a xlink:href="namespacetlz.html#a780431daab8d2595372eacb43143b52d" target="_top" xlink:title="tlz::args">
<polygon fill="white" stroke="black" points="678.5,-114.5 678.5,-133.5 730.5,-133.5 730.5,-114.5 678.5,-114.5"/>
<text text-anchor="middle" x="704.5" y="-121.5" font-family="Helvetica,sans-Serif" font-size="10.00">tlz::args</text>
</a>
</g>
</g>
<!-- Node10&#45;&gt;Node12 -->
<g id="edge16" class="edge"><title>Node10&#45;&gt;Node12</title>
<path fill="none" stroke="midnightblue" d="M466.27,-95.3412C484.958,-98.6629 506.415,-102.256 526,-105 575.305,-111.909 632.625,-117.629 668.486,-120.931"/>
<polygon fill="midnightblue" stroke="midnightblue" points="668.175,-124.417 678.451,-121.837 668.809,-117.446 668.175,-124.417"/>
</g>
<!-- Node14 -->
<g id="node14" class="node"><title>Node14</title>
<g id="a_node14"><a xlink:href="classtlz_1_1args__list.html#a38ad21acd64a4af98ffdf4a47837cdbe" target="_top" xlink:title="tlz::args_list::usage_fail">
<polygon fill="white" stroke="black" points="797,-38.5 797,-57.5 917,-57.5 917,-38.5 797,-38.5"/>
<text text-anchor="middle" x="857" y="-45.5" font-family="Helvetica,sans-Serif" font-size="10.00">tlz::args_list::usage_fail</text>
</a>
</g>
</g>
<!-- Node10&#45;&gt;Node14 -->
<g id="edge17" class="edge"><title>Node10&#45;&gt;Node14</title>
<path fill="none" stroke="midnightblue" d="M464.299,-76.4849C483.416,-72.9996 505.682,-69.3399 526,-67 615.744,-56.6647 719.899,-51.8558 786.807,-49.6847"/>
<polygon fill="midnightblue" stroke="midnightblue" points="786.924,-53.1828 796.809,-49.3708 786.704,-46.1863 786.924,-53.1828"/>
</g>
<!-- Node16 -->
<g id="node16" class="node"><title>Node16</title>
<g id="a_node16"><a xlink:href="namespacetlz.html#abb019466ea9f56c0dab27e893d891837" target="_top" xlink:title="tlz::file_exists">
<polygon fill="white" stroke="black" points="530.5,-0.5 530.5,-19.5 607.5,-19.5 607.5,-0.5 530.5,-0.5"/>
<text text-anchor="middle" x="569" y="-7.5" font-family="Helvetica,sans-Serif" font-size="10.00">tlz::file_exists</text>
</a>
</g>
</g>
<!-- Node10&#45;&gt;Node16 -->
<g id="edge15" class="edge"><title>Node10&#45;&gt;Node16</title>
<path fill="none" stroke="midnightblue" d="M435.688,-76.3745C461.983,-63.1832 509.407,-39.3932 539.761,-24.166"/>
<polygon fill="midnightblue" stroke="midnightblue" points="541.599,-27.1597 548.968,-19.5473 538.46,-20.9029 541.599,-27.1597"/>
</g>
<!-- Node11&#45;&gt;Node12 -->
<g id="edge11" class="edge"><title>Node11&#45;&gt;Node12</title>
<path fill="none" stroke="midnightblue" d="M603.688,-95.589C623.511,-101.232 648.54,-108.356 668.575,-114.059"/>
<polygon fill="midnightblue" stroke="midnightblue" points="667.676,-117.442 678.252,-116.813 669.593,-110.709 667.676,-117.442"/>
</g>
<!-- Node13 -->
<g id="node13" class="node"><title>Node13</title>
<g id="a_node13"><a xlink:href="classtlz_1_1args__list.html#a73d99bc75998dc14607a3a372d28dc6d" target="_top" xlink:title="tlz::args_list::next_arg">
<polygon fill="white" stroke="black" points="648,-76.5 648,-95.5 761,-95.5 761,-76.5 648,-76.5"/>
<text text-anchor="middle" x="704.5" y="-83.5" font-family="Helvetica,sans-Serif" font-size="10.00">tlz::args_list::next_arg</text>
</a>
</g>
</g>
<!-- Node11&#45;&gt;Node13 -->
<g id="edge12" class="edge"><title>Node11&#45;&gt;Node13</title>
<path fill="none" stroke="midnightblue" d="M607.187,-86C616.717,-86 627.255,-86 637.759,-86"/>
<polygon fill="midnightblue" stroke="midnightblue" points="637.786,-89.5001 647.786,-86 637.786,-82.5001 637.786,-89.5001"/>
</g>
<!-- Node13&#45;&gt;Node14 -->
<g id="edge13" class="edge"><title>Node13&#45;&gt;Node14</title>
<path fill="none" stroke="midnightblue" d="M743.478,-76.411C763.159,-71.4417 787.391,-65.3233 808.321,-60.0387"/>
<polygon fill="midnightblue" stroke="midnightblue" points="809.457,-63.3617 818.296,-57.5201 807.743,-56.5747 809.457,-63.3617"/>
</g>
<!-- Node15 -->
<g id="node15" class="node"><title>Node15</title>
<g id="a_node15"><a xlink:href="namespacetlz.html#a8e4f8c8c2927bc4350de13bfa0f8f9e1" target="_top" xlink:title="tlz::to_string">
<polygon fill="white" stroke="black" points="821.5,-76.5 821.5,-95.5 892.5,-95.5 892.5,-76.5 821.5,-76.5"/>
<text text-anchor="middle" x="857" y="-83.5" font-family="Helvetica,sans-Serif" font-size="10.00">tlz::to_string</text>
</a>
</g>
</g>
<!-- Node13&#45;&gt;Node15 -->
<g id="edge14" class="edge"><title>Node13&#45;&gt;Node15</title>
<path fill="none" stroke="midnightblue" d="M761.113,-86C777.441,-86 795.096,-86 810.698,-86"/>
<polygon fill="midnightblue" stroke="midnightblue" points="811.13,-89.5001 821.13,-86 811.129,-82.5001 811.13,-89.5001"/>
</g>
</g>
</svg>
