<?xml version="1.0" encoding="UTF-8" standalone="no"?>
<!DOCTYPE svg PUBLIC "-//W3C//DTD SVG 1.1//EN"
 "http://www.w3.org/Graphics/SVG/1.1/DTD/svg11.dtd">
<!-- Generated by graphviz version 2.38.0 (20140413.2041)
 -->
<!-- Title: tlz::export_image_corresponcences Pages: 1 -->
<svg width="899pt" height="138pt"
 viewBox="0.00 0.00 899.00 137.50" xmlns="http://www.w3.org/2000/svg" xmlns:xlink="http://www.w3.org/1999/xlink">
<g id="graph0" class="graph" transform="scale(1 1) rotate(0) translate(4 133.5)">
<title>tlz::export_image_corresponcences</title>
<polygon fill="white" stroke="none" points="-4,4 -4,-133.5 895,-133.5 895,4 -4,4"/>
<!-- Node1 -->
<g id="node1" class="node"><title>Node1</title>
<polygon fill="#bfbfbf" stroke="black" points="0,-69 0,-88 171,-88 171,-69 0,-69"/>
<text text-anchor="middle" x="85.5" y="-76" font-family="Helvetica,sans-Serif" font-size="10.00">tlz::export_image_corresponcences</text>
</g>
<!-- Node2 -->
<g id="node2" class="node"><title>Node2</title>
<g id="a_node2"><a xlink:href="namespacetlz.html#ae11c827ac9e581f9d2f98c39aab3750d" target="_top" xlink:title="tlz::file_name_extension">
<polygon fill="white" stroke="black" points="443,-110 443,-129 565,-129 565,-110 443,-110"/>
<text text-anchor="middle" x="504" y="-117" font-family="Helvetica,sans-Serif" font-size="10.00">tlz::file_name_extension</text>
</a>
</g>
</g>
<!-- Node1&#45;&gt;Node2 -->
<g id="edge1" class="edge"><title>Node1&#45;&gt;Node2</title>
<path fill="none" stroke="midnightblue" d="M109.557,-88.0222C133.454,-97.3509 172.122,-110.95 207,-116.5 283.404,-128.658 372.307,-127.555 432.588,-124.582"/>
<polygon fill="midnightblue" stroke="midnightblue" points="432.952,-128.068 442.755,-124.05 432.585,-121.077 432.952,-128.068"/>
</g>
<!-- Node3 -->
<g id="node3" class="node"><title>Node3</title>
<g id="a_node3"><a xlink:href="namespacetlz.html#ab98de0b10e3e079dee189f81adc638a0" target="_top" xlink:title="tlz::export_json_file">
<polygon fill="white" stroke="black" points="244.5,-88 244.5,-107 345.5,-107 345.5,-88 244.5,-88"/>
<text text-anchor="middle" x="295" y="-95" font-family="Helvetica,sans-Serif" font-size="10.00">tlz::export_json_file</text>
</a>
</g>
</g>
<!-- Node1&#45;&gt;Node3 -->
<g id="edge2" class="edge"><title>Node1&#45;&gt;Node3</title>
<path fill="none" stroke="midnightblue" d="M171.197,-86.2554C192.383,-88.1953 214.665,-90.2356 234.347,-92.0378"/>
<polygon fill="midnightblue" stroke="midnightblue" points="234.105,-95.5301 244.382,-92.9567 234.743,-88.5593 234.105,-95.5301"/>
</g>
<!-- Node4 -->
<g id="node4" class="node"><title>Node4</title>
<g id="a_node4"><a xlink:href="namespacetlz.html#a5425610b090d56218f8a7272ba402bfb" target="_top" xlink:title="tlz::encode_image_correspondences">
<polygon fill="white" stroke="black" points="207,-50 207,-69 383,-69 383,-50 207,-50"/>
<text text-anchor="middle" x="295" y="-57" font-family="Helvetica,sans-Serif" font-size="10.00">tlz::encode_image_correspondences</text>
</a>
</g>
</g>
<!-- Node1&#45;&gt;Node4 -->
<g id="edge4" class="edge"><title>Node1&#45;&gt;Node4</title>
<path fill="none" stroke="midnightblue" d="M171.197,-70.7446C179.655,-69.9702 188.287,-69.1798 196.859,-68.3949"/>
<polygon fill="midnightblue" stroke="midnightblue" points="197.24,-71.8747 206.879,-67.4773 196.602,-64.9038 197.24,-71.8747"/>
</g>
<!-- Node10 -->
<g id="node10" class="node"><title>Node10</title>
<g id="a_node10"><a xlink:href="namespacetlz.html#a24bb23db2319f38046e6de526a0cb20e" target="_top" xlink:title="tlz::export_binary\l_image_correspondences">
<polygon fill="white" stroke="black" points="231,-0.5 231,-30.5 359,-30.5 359,-0.5 231,-0.5"/>
<text text-anchor="start" x="239" y="-18.5" font-family="Helvetica,sans-Serif" font-size="10.00">tlz::export_binary</text>
<text text-anchor="middle" x="295" y="-7.5" font-family="Helvetica,sans-Serif" font-size="10.00">_image_correspondences</text>
</a>
</g>
</g>
<!-- Node1&#45;&gt;Node10 -->
<g id="edge10" class="edge"><title>Node1&#45;&gt;Node10</title>
<path fill="none" stroke="midnightblue" d="M116.147,-68.9176C140.498,-61.1031 175.915,-49.8658 207,-40.5 214.702,-38.1793 222.803,-35.7871 230.834,-33.4449"/>
<polygon fill="midnightblue" stroke="midnightblue" points="231.937,-36.7693 240.565,-30.6207 229.986,-30.0467 231.937,-36.7693"/>
</g>
<!-- Node3&#45;&gt;Node2 -->
<g id="edge3" class="edge"><title>Node3&#45;&gt;Node2</title>
<path fill="none" stroke="midnightblue" d="M345.582,-102.77C371.688,-105.544 404.144,-108.994 432.791,-112.038"/>
<polygon fill="midnightblue" stroke="midnightblue" points="432.435,-115.52 442.749,-113.097 433.175,-108.559 432.435,-115.52"/>
</g>
<!-- Node5 -->
<g id="node5" class="node"><title>Node5</title>
<g id="a_node5"><a xlink:href="namespacetlz.html#aa875dcb2a47f0a406887a14c6f515bfd" target="_top" xlink:title="tlz::encode_image_correspondence\l_feature">
<polygon fill="white" stroke="black" points="419,-44.5 419,-74.5 589,-74.5 589,-44.5 419,-44.5"/>
<text text-anchor="start" x="427" y="-62.5" font-family="Helvetica,sans-Serif" font-size="10.00">tlz::encode_image_correspondence</text>
<text text-anchor="middle" x="504" y="-51.5" font-family="Helvetica,sans-Serif" font-size="10.00">_feature</text>
</a>
</g>
</g>
<!-- Node4&#45;&gt;Node5 -->
<g id="edge5" class="edge"><title>Node4&#45;&gt;Node5</title>
<path fill="none" stroke="midnightblue" d="M383.187,-59.5C391.592,-59.5 400.144,-59.5 408.614,-59.5"/>
<polygon fill="midnightblue" stroke="midnightblue" points="408.89,-63.0001 418.89,-59.5 408.89,-56.0001 408.89,-63.0001"/>
</g>
<!-- Node6 -->
<g id="node6" class="node"><title>Node6</title>
<g id="a_node6"><a xlink:href="namespacetlz.html#aadab29bdc80bc1d0ad6d3784dd427992" target="_top" xlink:title="tlz::encode_view_index">
<polygon fill="white" stroke="black" points="625,-72 625,-91 744,-91 744,-72 625,-72"/>
<text text-anchor="middle" x="684.5" y="-79" font-family="Helvetica,sans-Serif" font-size="10.00">tlz::encode_view_index</text>
</a>
</g>
</g>
<!-- Node5&#45;&gt;Node6 -->
<g id="edge6" class="edge"><title>Node5&#45;&gt;Node6</title>
<path fill="none" stroke="midnightblue" d="M589.023,-69.8558C597.638,-70.9175 606.317,-71.9873 614.739,-73.0253"/>
<polygon fill="midnightblue" stroke="midnightblue" points="614.51,-76.5234 624.863,-74.2731 615.366,-69.576 614.51,-76.5234"/>
</g>
<!-- Node9 -->
<g id="node9" class="node"><title>Node9</title>
<g id="a_node9"><a xlink:href="namespacetlz.html#a8f6c31dc4b1dffe7950bcb1f4ff85cbc" target="_top" xlink:title="tlz::encode_feature\l_point">
<polygon fill="white" stroke="black" points="634.5,-22.5 634.5,-52.5 734.5,-52.5 734.5,-22.5 634.5,-22.5"/>
<text text-anchor="start" x="642.5" y="-40.5" font-family="Helvetica,sans-Serif" font-size="10.00">tlz::encode_feature</text>
<text text-anchor="middle" x="684.5" y="-29.5" font-family="Helvetica,sans-Serif" font-size="10.00">_point</text>
</a>
</g>
</g>
<!-- Node5&#45;&gt;Node9 -->
<g id="edge9" class="edge"><title>Node5&#45;&gt;Node9</title>
<path fill="none" stroke="midnightblue" d="M589.023,-49.1442C600.931,-47.6766 612.963,-46.1936 624.268,-44.8003"/>
<polygon fill="midnightblue" stroke="midnightblue" points="624.925,-48.2459 634.422,-43.5489 624.068,-41.2985 624.925,-48.2459"/>
</g>
<!-- Node7 -->
<g id="node7" class="node"><title>Node7</title>
<g id="a_node7"><a xlink:href="namespacetlz.html#a8e4f8c8c2927bc4350de13bfa0f8f9e1" target="_top" xlink:title="tlz::to_string">
<polygon fill="white" stroke="black" points="800,-91 800,-110 871,-110 871,-91 800,-91"/>
<text text-anchor="middle" x="835.5" y="-98" font-family="Helvetica,sans-Serif" font-size="10.00">tlz::to_string</text>
</a>
</g>
</g>
<!-- Node6&#45;&gt;Node7 -->
<g id="edge7" class="edge"><title>Node6&#45;&gt;Node7</title>
<path fill="none" stroke="midnightblue" d="M744.389,-89.0093C759.444,-90.9291 775.389,-92.9624 789.614,-94.7763"/>
<polygon fill="midnightblue" stroke="midnightblue" points="789.268,-98.2605 799.631,-96.0536 790.154,-91.3167 789.268,-98.2605"/>
</g>
<!-- Node8 -->
<g id="node8" class="node"><title>Node8</title>
<g id="a_node8"><a xlink:href="structtlz_1_1view__index.html#a20518c30015d833cdb2a69b524886b96" target="_top" xlink:title="tlz::view_index::is_2d">
<polygon fill="white" stroke="black" points="780,-53 780,-72 891,-72 891,-53 780,-53"/>
<text text-anchor="middle" x="835.5" y="-60" font-family="Helvetica,sans-Serif" font-size="10.00">tlz::view_index::is_2d</text>
</a>
</g>
</g>
<!-- Node6&#45;&gt;Node8 -->
<g id="edge8" class="edge"><title>Node6&#45;&gt;Node8</title>
<path fill="none" stroke="midnightblue" d="M744.389,-73.9907C752.716,-72.9288 761.316,-71.8321 769.747,-70.7571"/>
<polygon fill="midnightblue" stroke="midnightblue" points="770.44,-74.1972 779.917,-69.4603 769.554,-67.2534 770.44,-74.1972"/>
</g>
</g>
</svg>
