<?xml version="1.0" encoding="UTF-8" standalone="no"?>
<!DOCTYPE svg PUBLIC "-//W3C//DTD SVG 1.1//EN"
 "http://www.w3.org/Graphics/SVG/1.1/DTD/svg11.dtd">
<!-- Generated by graphviz version 2.38.0 (20140413.2041)
 -->
<!-- Title: tlz::cameras_arg Pages: 1 -->
<svg width="795pt" height="161pt"
 viewBox="0.00 0.00 795.00 161.00" xmlns="http://www.w3.org/2000/svg" xmlns:xlink="http://www.w3.org/1999/xlink">
<g id="graph0" class="graph" transform="scale(1 1) rotate(0) translate(4 157)">
<title>tlz::cameras_arg</title>
<polygon fill="white" stroke="none" points="-4,4 -4,-157 791,-157 791,4 -4,4"/>
<!-- Node1 -->
<g id="node1" class="node"><title>Node1</title>
<polygon fill="#bfbfbf" stroke="black" points="0,-114.5 0,-133.5 89,-133.5 89,-114.5 0,-114.5"/>
<text text-anchor="middle" x="44.5" y="-121.5" font-family="Helvetica,sans-Serif" font-size="10.00">tlz::cameras_arg</text>
</g>
<!-- Node2 -->
<g id="node2" class="node"><title>Node2</title>
<g id="a_node2"><a xlink:href="namespacetlz.html#a8d445609e681336909da63eb443186b4" target="_top" xlink:title="tlz::decode_cameras">
<polygon fill="white" stroke="black" points="125,-133.5 125,-152.5 232,-152.5 232,-133.5 125,-133.5"/>
<text text-anchor="middle" x="178.5" y="-140.5" font-family="Helvetica,sans-Serif" font-size="10.00">tlz::decode_cameras</text>
</a>
</g>
</g>
<!-- Node1&#45;&gt;Node2 -->
<g id="edge1" class="edge"><title>Node1&#45;&gt;Node2</title>
<path fill="none" stroke="midnightblue" d="M89.0876,-130.274C97.2917,-131.455 106.02,-132.711 114.676,-133.957"/>
<polygon fill="midnightblue" stroke="midnightblue" points="114.37,-137.449 124.767,-135.41 115.368,-130.521 114.37,-137.449"/>
</g>
<!-- Node4 -->
<g id="node4" class="node"><title>Node4</title>
<g id="a_node4"><a xlink:href="namespacetlz.html#a35f9e03fa4fd9cec699f5fa27962400f" target="_top" xlink:title="tlz::json_arg">
<polygon fill="white" stroke="black" points="143.5,-95.5 143.5,-114.5 213.5,-114.5 213.5,-95.5 143.5,-95.5"/>
<text text-anchor="middle" x="178.5" y="-102.5" font-family="Helvetica,sans-Serif" font-size="10.00">tlz::json_arg</text>
</a>
</g>
</g>
<!-- Node1&#45;&gt;Node4 -->
<g id="edge3" class="edge"><title>Node1&#45;&gt;Node4</title>
<path fill="none" stroke="midnightblue" d="M89.0876,-117.726C103.228,-115.691 118.925,-113.431 133.122,-111.388"/>
<polygon fill="midnightblue" stroke="midnightblue" points="133.752,-114.833 143.151,-109.944 132.754,-107.905 133.752,-114.833"/>
</g>
<!-- Node3 -->
<g id="node3" class="node"><title>Node3</title>
<g id="a_node3"><a xlink:href="namespacetlz.html#a066563a26e2de02f215b179f3d3a53da" target="_top" xlink:title="tlz::decode_mat">
<polygon fill="white" stroke="black" points="275.5,-133.5 275.5,-152.5 361.5,-152.5 361.5,-133.5 275.5,-133.5"/>
<text text-anchor="middle" x="318.5" y="-140.5" font-family="Helvetica,sans-Serif" font-size="10.00">tlz::decode_mat</text>
</a>
</g>
</g>
<!-- Node2&#45;&gt;Node3 -->
<g id="edge2" class="edge"><title>Node2&#45;&gt;Node3</title>
<path fill="none" stroke="midnightblue" d="M232.066,-143C242.917,-143 254.345,-143 265.188,-143"/>
<polygon fill="midnightblue" stroke="midnightblue" points="265.366,-146.5 275.366,-143 265.366,-139.5 265.366,-146.5"/>
</g>
<!-- Node5 -->
<g id="node5" class="node"><title>Node5</title>
<g id="a_node5"><a xlink:href="namespacetlz.html#aa1be9362f548fcf9378e1fc9074089c4" target="_top" xlink:title="tlz::import_json_file">
<polygon fill="white" stroke="black" points="268,-95.5 268,-114.5 369,-114.5 369,-95.5 268,-95.5"/>
<text text-anchor="middle" x="318.5" y="-102.5" font-family="Helvetica,sans-Serif" font-size="10.00">tlz::import_json_file</text>
</a>
</g>
</g>
<!-- Node4&#45;&gt;Node5 -->
<g id="edge4" class="edge"><title>Node4&#45;&gt;Node5</title>
<path fill="none" stroke="midnightblue" d="M213.612,-105C226.907,-105 242.546,-105 257.597,-105"/>
<polygon fill="midnightblue" stroke="midnightblue" points="257.888,-108.5 267.888,-105 257.887,-101.5 257.888,-108.5"/>
</g>
<!-- Node6 -->
<g id="node6" class="node"><title>Node6</title>
<g id="a_node6"><a xlink:href="namespacetlz.html#a634de7ca11e100e4a118dffe80376a75" target="_top" xlink:title="tlz::in_filename_arg">
<polygon fill="white" stroke="black" points="268,-57.5 268,-76.5 369,-76.5 369,-57.5 268,-57.5"/>
<text text-anchor="middle" x="318.5" y="-64.5" font-family="Helvetica,sans-Serif" font-size="10.00">tlz::in_filename_arg</text>
</a>
</g>
</g>
<!-- Node4&#45;&gt;Node6 -->
<g id="edge5" class="edge"><title>Node4&#45;&gt;Node6</title>
<path fill="none" stroke="midnightblue" d="M213.612,-95.6067C231.556,-90.6657 253.771,-84.5485 273.047,-79.2406"/>
<polygon fill="midnightblue" stroke="midnightblue" points="274.11,-82.5784 282.822,-76.5491 272.251,-75.8296 274.11,-82.5784"/>
</g>
<!-- Node7 -->
<g id="node7" class="node"><title>Node7</title>
<g id="a_node7"><a xlink:href="namespacetlz.html#a0621d598fb83b13bf028f3e6293d04f8" target="_top" xlink:title="tlz::string_arg">
<polygon fill="white" stroke="black" points="405.5,-76.5 405.5,-95.5 481.5,-95.5 481.5,-76.5 405.5,-76.5"/>
<text text-anchor="middle" x="443.5" y="-83.5" font-family="Helvetica,sans-Serif" font-size="10.00">tlz::string_arg</text>
</a>
</g>
</g>
<!-- Node6&#45;&gt;Node7 -->
<g id="edge6" class="edge"><title>Node6&#45;&gt;Node7</title>
<path fill="none" stroke="midnightblue" d="M369.174,-74.6733C377.706,-75.9912 386.554,-77.358 395.027,-78.6667"/>
<polygon fill="midnightblue" stroke="midnightblue" points="394.712,-82.1595 405.129,-80.2272 395.781,-75.2416 394.712,-82.1595"/>
</g>
<!-- Node8 -->
<g id="node8" class="node"><title>Node8</title>
<g id="a_node8"><a xlink:href="namespacetlz.html#a780431daab8d2595372eacb43143b52d" target="_top" xlink:title="tlz::args">
<polygon fill="white" stroke="black" points="548.5,-114.5 548.5,-133.5 600.5,-133.5 600.5,-114.5 548.5,-114.5"/>
<text text-anchor="middle" x="574.5" y="-121.5" font-family="Helvetica,sans-Serif" font-size="10.00">tlz::args</text>
</a>
</g>
</g>
<!-- Node6&#45;&gt;Node8 -->
<g id="edge12" class="edge"><title>Node6&#45;&gt;Node8</title>
<path fill="none" stroke="midnightblue" d="M346.201,-76.5811C353.655,-79.4357 361.708,-82.6902 369,-86 385.474,-93.477 387.711,-99.6716 405,-105 449.617,-118.751 503.622,-122.756 538.259,-123.813"/>
<polygon fill="midnightblue" stroke="midnightblue" points="538.274,-127.315 548.354,-124.054 538.441,-120.317 538.274,-127.315"/>
</g>
<!-- Node10 -->
<g id="node10" class="node"><title>Node10</title>
<g id="a_node10"><a xlink:href="classtlz_1_1args__list.html#a38ad21acd64a4af98ffdf4a47837cdbe" target="_top" xlink:title="tlz::args_list::usage_fail">
<polygon fill="white" stroke="black" points="667,-38.5 667,-57.5 787,-57.5 787,-38.5 667,-38.5"/>
<text text-anchor="middle" x="727" y="-45.5" font-family="Helvetica,sans-Serif" font-size="10.00">tlz::args_list::usage_fail</text>
</a>
</g>
</g>
<!-- Node6&#45;&gt;Node10 -->
<g id="edge13" class="edge"><title>Node6&#45;&gt;Node10</title>
<path fill="none" stroke="midnightblue" d="M369.345,-64.6702C441.419,-61.3015 575.021,-55.0568 656.668,-51.2406"/>
<polygon fill="midnightblue" stroke="midnightblue" points="657.025,-54.7278 666.851,-50.7647 656.698,-47.7355 657.025,-54.7278"/>
</g>
<!-- Node12 -->
<g id="node12" class="node"><title>Node12</title>
<g id="a_node12"><a xlink:href="namespacetlz.html#abb019466ea9f56c0dab27e893d891837" target="_top" xlink:title="tlz::file_exists">
<polygon fill="white" stroke="black" points="405,-0.5 405,-19.5 482,-19.5 482,-0.5 405,-0.5"/>
<text text-anchor="middle" x="443.5" y="-7.5" font-family="Helvetica,sans-Serif" font-size="10.00">tlz::file_exists</text>
</a>
</g>
</g>
<!-- Node6&#45;&gt;Node12 -->
<g id="edge11" class="edge"><title>Node6&#45;&gt;Node12</title>
<path fill="none" stroke="midnightblue" d="M340.087,-57.4595C359.954,-48.2528 390.246,-34.2153 412.737,-23.7926"/>
<polygon fill="midnightblue" stroke="midnightblue" points="414.244,-26.9519 421.845,-19.5716 411.301,-20.6007 414.244,-26.9519"/>
</g>
<!-- Node7&#45;&gt;Node8 -->
<g id="edge7" class="edge"><title>Node7&#45;&gt;Node8</title>
<path fill="none" stroke="midnightblue" d="M477.052,-95.589C495.78,-101.106 519.314,-108.038 538.447,-113.674"/>
<polygon fill="midnightblue" stroke="midnightblue" points="537.701,-117.103 548.283,-116.572 539.679,-110.389 537.701,-117.103"/>
</g>
<!-- Node9 -->
<g id="node9" class="node"><title>Node9</title>
<g id="a_node9"><a xlink:href="classtlz_1_1args__list.html#a73d99bc75998dc14607a3a372d28dc6d" target="_top" xlink:title="tlz::args_list::next_arg">
<polygon fill="white" stroke="black" points="518,-76.5 518,-95.5 631,-95.5 631,-76.5 518,-76.5"/>
<text text-anchor="middle" x="574.5" y="-83.5" font-family="Helvetica,sans-Serif" font-size="10.00">tlz::args_list::next_arg</text>
</a>
</g>
</g>
<!-- Node7&#45;&gt;Node9 -->
<g id="edge8" class="edge"><title>Node7&#45;&gt;Node9</title>
<path fill="none" stroke="midnightblue" d="M481.812,-86C489.835,-86 498.544,-86 507.295,-86"/>
<polygon fill="midnightblue" stroke="midnightblue" points="507.549,-89.5001 517.549,-86 507.549,-82.5001 507.549,-89.5001"/>
</g>
<!-- Node9&#45;&gt;Node10 -->
<g id="edge9" class="edge"><title>Node9&#45;&gt;Node10</title>
<path fill="none" stroke="midnightblue" d="M613.478,-76.411C633.159,-71.4417 657.391,-65.3233 678.321,-60.0387"/>
<polygon fill="midnightblue" stroke="midnightblue" points="679.457,-63.3617 688.296,-57.5201 677.743,-56.5747 679.457,-63.3617"/>
</g>
<!-- Node11 -->
<g id="node11" class="node"><title>Node11</title>
<g id="a_node11"><a xlink:href="namespacetlz.html#a8e4f8c8c2927bc4350de13bfa0f8f9e1" target="_top" xlink:title="tlz::to_string">
<polygon fill="white" stroke="black" points="691.5,-76.5 691.5,-95.5 762.5,-95.5 762.5,-76.5 691.5,-76.5"/>
<text text-anchor="middle" x="727" y="-83.5" font-family="Helvetica,sans-Serif" font-size="10.00">tlz::to_string</text>
</a>
</g>
</g>
<!-- Node9&#45;&gt;Node11 -->
<g id="edge10" class="edge"><title>Node9&#45;&gt;Node11</title>
<path fill="none" stroke="midnightblue" d="M631.113,-86C647.441,-86 665.096,-86 680.698,-86"/>
<polygon fill="midnightblue" stroke="midnightblue" points="681.13,-89.5001 691.13,-86 681.129,-82.5001 681.13,-89.5001"/>
</g>
</g>
</svg>
