<?xml version="1.0" encoding="UTF-8" standalone="no"?>
<!DOCTYPE svg PUBLIC "-//W3C//DTD SVG 1.1//EN"
 "http://www.w3.org/Graphics/SVG/1.1/DTD/svg11.dtd">
<!-- Generated by graphviz version 2.38.0 (20140413.2041)
 -->
<!-- Title: tlz::in_filename_opt_arg Pages: 1 -->
<svg width="851pt" height="510pt"
 viewBox="0.00 0.00 851.00 510.08" xmlns="http://www.w3.org/2000/svg" xmlns:xlink="http://www.w3.org/1999/xlink">
<g id="graph0" class="graph" transform="scale(1 1) rotate(0) translate(4 506.077)">
<title>tlz::in_filename_opt_arg</title>
<polygon fill="white" stroke="none" points="-4,4 -4,-506.077 847,-506.077 847,4 -4,4"/>
<!-- Node1 -->
<g id="node1" class="node"><title>Node1</title>
<polygon fill="#bfbfbf" stroke="black" points="0,-256.45 0,-275.45 120,-275.45 120,-256.45 0,-256.45"/>
<text text-anchor="middle" x="60" y="-263.45" font-family="Helvetica,sans-Serif" font-size="10.00">tlz::in_filename_opt_arg</text>
</g>
<!-- Node2 -->
<g id="node2" class="node"><title>Node2</title>
<g id="a_node2"><a xlink:href="namespacetlz.html#a780431daab8d2595372eacb43143b52d" target="_top" xlink:title="tlz::args">
<polygon fill="white" stroke="black" points="604.5,-313.45 604.5,-332.45 656.5,-332.45 656.5,-313.45 604.5,-313.45"/>
<text text-anchor="middle" x="630.5" y="-320.45" font-family="Helvetica,sans-Serif" font-size="10.00">tlz::args</text>
</a>
</g>
</g>
<!-- Node1&#45;&gt;Node2 -->
<g id="edge1" class="edge"><title>Node1&#45;&gt;Node2</title>
<path fill="none" stroke="midnightblue" d="M74.8218,-275.471C92.7494,-287.384 125.363,-307.596 156,-318.95 285.624,-366.991 323.405,-366.606 461,-379.95 495.062,-383.254 505.097,-389.361 538,-379.95 565.582,-372.062 592.937,-353.185 610.45,-339.307"/>
<polygon fill="midnightblue" stroke="midnightblue" points="613.136,-341.631 618.659,-332.589 608.703,-336.213 613.136,-341.631"/>
</g>
<!-- Node3 -->
<g id="node3" class="node"><title>Node3</title>
<g id="a_node3"><a xlink:href="classtlz_1_1args__list.html#a4aee93f4b0d9b5b4e7a5d13cb637337c" target="_top" xlink:title="tlz::args_list::has\l_next_arg">
<polygon fill="white" stroke="black" points="325.5,-149.95 325.5,-179.95 417.5,-179.95 417.5,-149.95 325.5,-149.95"/>
<text text-anchor="start" x="333.5" y="-167.95" font-family="Helvetica,sans-Serif" font-size="10.00">tlz::args_list::has</text>
<text text-anchor="middle" x="371.5" y="-156.95" font-family="Helvetica,sans-Serif" font-size="10.00">_next_arg</text>
</a>
</g>
</g>
<!-- Node1&#45;&gt;Node3 -->
<g id="edge2" class="edge"><title>Node1&#45;&gt;Node3</title>
<path fill="none" stroke="midnightblue" d="M83.042,-256.443C102.154,-248.365 130.651,-236.721 156,-227.95 209.595,-209.408 271.889,-191.508 315.492,-179.558"/>
<polygon fill="midnightblue" stroke="midnightblue" points="316.601,-182.884 325.328,-176.877 314.759,-176.13 316.601,-182.884"/>
</g>
<!-- Node4 -->
<g id="node4" class="node"><title>Node4</title>
<g id="a_node4"><a xlink:href="namespacetlz.html#a634de7ca11e100e4a118dffe80376a75" target="_top" xlink:title="tlz::in_filename_arg">
<polygon fill="white" stroke="black" points="321,-427.45 321,-446.45 422,-446.45 422,-427.45 321,-427.45"/>
<text text-anchor="middle" x="371.5" y="-434.45" font-family="Helvetica,sans-Serif" font-size="10.00">tlz::in_filename_arg</text>
</a>
</g>
</g>
<!-- Node1&#45;&gt;Node4 -->
<g id="edge3" class="edge"><title>Node1&#45;&gt;Node4</title>
<path fill="none" stroke="midnightblue" d="M63.9701,-275.616C72.8524,-302.699 101.999,-379.527 156,-412.95 202.21,-441.553 264.907,-445.45 310.578,-443.454"/>
<polygon fill="midnightblue" stroke="midnightblue" points="310.838,-446.945 320.633,-442.908 310.458,-439.956 310.838,-446.945"/>
</g>
<!-- Node10 -->
<g id="node10" class="node"><title>Node10</title>
<g id="a_node10"><a xlink:href="namespacetlz.html#a65770a2c1ff57c5ae6542d4465a3d3f4" target="_top" xlink:title="tlz::out_filename_arg">
<polygon fill="white" stroke="black" points="318,-111.45 318,-130.45 425,-130.45 425,-111.45 318,-111.45"/>
<text text-anchor="middle" x="371.5" y="-118.45" font-family="Helvetica,sans-Serif" font-size="10.00">tlz::out_filename_arg</text>
</a>
</g>
</g>
<!-- Node1&#45;&gt;Node10 -->
<g id="edge12" class="edge"><title>Node1&#45;&gt;Node10</title>
<path fill="none" stroke="midnightblue" d="M70.0407,-256.253C85.9248,-239.753 120.534,-206.146 156,-186.95 204.899,-160.484 265.937,-143.015 310.384,-132.737"/>
<polygon fill="midnightblue" stroke="midnightblue" points="311.188,-136.144 320.171,-130.528 309.646,-129.316 311.188,-136.144"/>
</g>
<!-- Node11 -->
<g id="node11" class="node"><title>Node11</title>
<g id="a_node11"><a xlink:href="namespacetlz.html#a4791154460ea7bf2fa5984b1748bc9d1" target="_top" xlink:title="tlz::out_filename_opt_arg">
<polygon fill="white" stroke="black" points="156,-92.4504 156,-111.45 282,-111.45 282,-92.4504 156,-92.4504"/>
<text text-anchor="middle" x="219" y="-99.4504" font-family="Helvetica,sans-Serif" font-size="10.00">tlz::out_filename_opt_arg</text>
</a>
</g>
</g>
<!-- Node1&#45;&gt;Node11 -->
<g id="edge14" class="edge"><title>Node1&#45;&gt;Node11</title>
<path fill="none" stroke="midnightblue" d="M65.3495,-256.289C76.8121,-231.806 110.148,-166.609 156,-128.95 162.45,-123.653 170.099,-119.215 177.784,-115.569"/>
<polygon fill="midnightblue" stroke="midnightblue" points="179.329,-118.713 187.097,-111.508 176.532,-112.297 179.329,-118.713"/>
</g>
<!-- Node13 -->
<g id="node13" class="node"><title>Node13</title>
<g id="a_node13"><a xlink:href="namespacetlz.html#a0783a9e66143c507b2680fc68834657c" target="_top" xlink:title="tlz::out_dirname_arg">
<polygon fill="white" stroke="black" points="319,-275.45 319,-294.45 424,-294.45 424,-275.45 319,-275.45"/>
<text text-anchor="middle" x="371.5" y="-282.45" font-family="Helvetica,sans-Serif" font-size="10.00">tlz::out_dirname_arg</text>
</a>
</g>
</g>
<!-- Node1&#45;&gt;Node13 -->
<g id="edge22" class="edge"><title>Node1&#45;&gt;Node13</title>
<path fill="none" stroke="midnightblue" d="M120.309,-269.591C174.312,-272.907 253.757,-277.784 308.567,-281.148"/>
<polygon fill="midnightblue" stroke="midnightblue" points="308.648,-284.66 318.843,-281.779 309.077,-277.673 308.648,-284.66"/>
</g>
<!-- Node14 -->
<g id="node14" class="node"><title>Node14</title>
<g id="a_node14"><a xlink:href="namespacetlz.html#a401e3de191fb11547a91972b97244c3a" target="_top" xlink:title="tlz::out_dirname_opt_arg">
<polygon fill="white" stroke="black" points="157,-237.45 157,-256.45 281,-256.45 281,-237.45 157,-237.45"/>
<text text-anchor="middle" x="219" y="-244.45" font-family="Helvetica,sans-Serif" font-size="10.00">tlz::out_dirname_opt_arg</text>
</a>
</g>
</g>
<!-- Node1&#45;&gt;Node14 -->
<g id="edge24" class="edge"><title>Node1&#45;&gt;Node14</title>
<path fill="none" stroke="midnightblue" d="M120.355,-258.767C129.062,-257.714 138.103,-256.62 147.014,-255.541"/>
<polygon fill="midnightblue" stroke="midnightblue" points="147.487,-259.009 156.994,-254.333 146.646,-252.06 147.487,-259.009"/>
</g>
<!-- Node15 -->
<g id="node15" class="node"><title>Node15</title>
<g id="a_node15"><a xlink:href="namespacetlz.html#af0d1e8ba5b9f2dbc2b589afab3a21fc8" target="_top" xlink:title="tlz::int_arg">
<polygon fill="white" stroke="black" points="468.5,-351.45 468.5,-370.45 530.5,-370.45 530.5,-351.45 468.5,-351.45"/>
<text text-anchor="middle" x="499.5" y="-358.45" font-family="Helvetica,sans-Serif" font-size="10.00">tlz::int_arg</text>
</a>
</g>
</g>
<!-- Node1&#45;&gt;Node15 -->
<g id="edge30" class="edge"><title>Node1&#45;&gt;Node15</title>
<path fill="none" stroke="midnightblue" d="M98.4134,-275.559C115.892,-280.007 136.993,-285.321 156,-289.95 227.853,-307.453 245.604,-312.851 318,-327.95 365.968,-337.955 421.456,-347.85 458.111,-354.156"/>
<polygon fill="midnightblue" stroke="midnightblue" points="457.943,-357.678 468.39,-355.916 459.124,-350.779 457.943,-357.678"/>
</g>
<!-- Node4&#45;&gt;Node2 -->
<g id="edge10" class="edge"><title>Node4&#45;&gt;Node2</title>
<path fill="none" stroke="midnightblue" d="M422.326,-437.719C456.492,-436.381 501.979,-430.823 538,-412.95 572.057,-396.053 601.363,-361.699 617.121,-340.665"/>
<polygon fill="midnightblue" stroke="midnightblue" points="619.968,-342.702 623.02,-332.556 614.307,-338.584 619.968,-342.702"/>
</g>
<!-- Node5 -->
<g id="node5" class="node"><title>Node5</title>
<g id="a_node5"><a xlink:href="namespacetlz.html#a0621d598fb83b13bf028f3e6293d04f8" target="_top" xlink:title="tlz::string_arg">
<polygon fill="white" stroke="black" points="461.5,-275.45 461.5,-294.45 537.5,-294.45 537.5,-275.45 461.5,-275.45"/>
<text text-anchor="middle" x="499.5" y="-282.45" font-family="Helvetica,sans-Serif" font-size="10.00">tlz::string_arg</text>
</a>
</g>
</g>
<!-- Node4&#45;&gt;Node5 -->
<g id="edge4" class="edge"><title>Node4&#45;&gt;Node5</title>
<path fill="none" stroke="midnightblue" d="M380.382,-427.442C401.065,-402.491 457.14,-334.845 483.904,-302.559"/>
<polygon fill="midnightblue" stroke="midnightblue" points="486.934,-304.388 490.621,-294.455 481.545,-299.92 486.934,-304.388"/>
</g>
<!-- Node7 -->
<g id="node7" class="node"><title>Node7</title>
<g id="a_node7"><a xlink:href="classtlz_1_1args__list.html#a38ad21acd64a4af98ffdf4a47837cdbe" target="_top" xlink:title="tlz::args_list::usage_fail">
<polygon fill="white" stroke="black" points="723,-280.45 723,-299.45 843,-299.45 843,-280.45 723,-280.45"/>
<text text-anchor="middle" x="783" y="-287.45" font-family="Helvetica,sans-Serif" font-size="10.00">tlz::args_list::usage_fail</text>
</a>
</g>
</g>
<!-- Node4&#45;&gt;Node7 -->
<g id="edge11" class="edge"><title>Node4&#45;&gt;Node7</title>
<path fill="none" stroke="midnightblue" d="M382.924,-446.584C398.509,-460.258 429.441,-484.667 461,-493.95 493.831,-503.608 505.831,-505.626 538,-493.95 643.15,-455.785 734.683,-350.268 768.3,-307.901"/>
<polygon fill="midnightblue" stroke="midnightblue" points="771.18,-309.9 774.579,-299.865 765.664,-305.59 771.18,-309.9"/>
</g>
<!-- Node9 -->
<g id="node9" class="node"><title>Node9</title>
<g id="a_node9"><a xlink:href="namespacetlz.html#abb019466ea9f56c0dab27e893d891837" target="_top" xlink:title="tlz::file_exists">
<polygon fill="white" stroke="black" points="461,-465.45 461,-484.45 538,-484.45 538,-465.45 461,-465.45"/>
<text text-anchor="middle" x="499.5" y="-472.45" font-family="Helvetica,sans-Serif" font-size="10.00">tlz::file_exists</text>
</a>
</g>
</g>
<!-- Node4&#45;&gt;Node9 -->
<g id="edge9" class="edge"><title>Node4&#45;&gt;Node9</title>
<path fill="none" stroke="midnightblue" d="M404.295,-446.539C420.262,-451.355 439.807,-457.249 456.947,-462.418"/>
<polygon fill="midnightblue" stroke="midnightblue" points="456.13,-465.828 466.715,-465.364 458.152,-459.126 456.13,-465.828"/>
</g>
<!-- Node5&#45;&gt;Node2 -->
<g id="edge5" class="edge"><title>Node5&#45;&gt;Node2</title>
<path fill="none" stroke="midnightblue" d="M533.052,-294.539C551.78,-300.056 575.314,-306.989 594.447,-312.625"/>
<polygon fill="midnightblue" stroke="midnightblue" points="593.701,-316.054 604.283,-315.522 595.679,-309.339 593.701,-316.054"/>
</g>
<!-- Node6 -->
<g id="node6" class="node"><title>Node6</title>
<g id="a_node6"><a xlink:href="classtlz_1_1args__list.html#a73d99bc75998dc14607a3a372d28dc6d" target="_top" xlink:title="tlz::args_list::next_arg">
<polygon fill="white" stroke="black" points="574,-256.45 574,-275.45 687,-275.45 687,-256.45 574,-256.45"/>
<text text-anchor="middle" x="630.5" y="-263.45" font-family="Helvetica,sans-Serif" font-size="10.00">tlz::args_list::next_arg</text>
</a>
</g>
</g>
<!-- Node5&#45;&gt;Node6 -->
<g id="edge6" class="edge"><title>Node5&#45;&gt;Node6</title>
<path fill="none" stroke="midnightblue" d="M537.812,-279.455C545.922,-278.26 554.733,-276.963 563.581,-275.659"/>
<polygon fill="midnightblue" stroke="midnightblue" points="564.166,-279.111 573.549,-274.191 563.146,-272.186 564.166,-279.111"/>
</g>
<!-- Node6&#45;&gt;Node7 -->
<g id="edge7" class="edge"><title>Node6&#45;&gt;Node7</title>
<path fill="none" stroke="midnightblue" d="M687.113,-274.819C695.479,-276.153 704.192,-277.543 712.8,-278.915"/>
<polygon fill="midnightblue" stroke="midnightblue" points="712.402,-282.396 722.828,-280.514 713.504,-275.483 712.402,-282.396"/>
</g>
<!-- Node8 -->
<g id="node8" class="node"><title>Node8</title>
<g id="a_node8"><a xlink:href="namespacetlz.html#a8e4f8c8c2927bc4350de13bfa0f8f9e1" target="_top" xlink:title="tlz::to_string">
<polygon fill="white" stroke="black" points="747.5,-231.45 747.5,-250.45 818.5,-250.45 818.5,-231.45 747.5,-231.45"/>
<text text-anchor="middle" x="783" y="-238.45" font-family="Helvetica,sans-Serif" font-size="10.00">tlz::to_string</text>
</a>
</g>
</g>
<!-- Node6&#45;&gt;Node8 -->
<g id="edge8" class="edge"><title>Node6&#45;&gt;Node8</title>
<path fill="none" stroke="midnightblue" d="M687.113,-256.712C703.598,-253.974 721.435,-251.011 737.147,-248.401"/>
<polygon fill="midnightblue" stroke="midnightblue" points="737.838,-251.834 747.13,-246.743 736.691,-244.929 737.838,-251.834"/>
</g>
<!-- Node10&#45;&gt;Node5 -->
<g id="edge13" class="edge"><title>Node10&#45;&gt;Node5</title>
<path fill="none" stroke="midnightblue" d="M410.785,-130.557C415.968,-133.019 420.903,-136.1 425,-139.95 454.3,-167.488 442.553,-187.222 461,-222.95 468.741,-237.944 478.666,-254.248 486.361,-266.372"/>
<polygon fill="midnightblue" stroke="midnightblue" points="483.617,-268.576 491.969,-275.094 489.504,-264.79 483.617,-268.576"/>
</g>
<!-- Node11&#45;&gt;Node2 -->
<g id="edge15" class="edge"><title>Node11&#45;&gt;Node2</title>
<path fill="none" stroke="midnightblue" d="M255.381,-92.4464C298.247,-82.9793 371.375,-73.5493 425,-101.95 450.164,-115.278 443.629,-132.387 461,-154.95 507.701,-215.61 516.842,-234.024 574,-284.95 583.346,-293.277 594.595,-301.293 604.515,-307.798"/>
<polygon fill="midnightblue" stroke="midnightblue" points="602.847,-310.885 613.16,-313.313 606.612,-304.984 602.847,-310.885"/>
</g>
<!-- Node11&#45;&gt;Node3 -->
<g id="edge16" class="edge"><title>Node11&#45;&gt;Node3</title>
<path fill="none" stroke="midnightblue" d="M242.858,-111.519C264.631,-120.633 298.021,-134.61 325.19,-145.983"/>
<polygon fill="midnightblue" stroke="midnightblue" points="323.935,-149.252 334.511,-149.885 326.638,-142.795 323.935,-149.252"/>
</g>
<!-- Node11&#45;&gt;Node6 -->
<g id="edge20" class="edge"><title>Node11&#45;&gt;Node6</title>
<path fill="none" stroke="midnightblue" d="M238.4,-92.4271C275.36,-74.6815 360.589,-40.7987 425,-68.9504 514.336,-107.996 499.415,-167.16 574,-229.95 583.055,-237.574 593.814,-244.894 603.438,-250.919"/>
<polygon fill="midnightblue" stroke="midnightblue" points="601.863,-254.057 612.225,-256.267 605.502,-248.078 601.863,-254.057"/>
</g>
<!-- Node11&#45;&gt;Node10 -->
<g id="edge21" class="edge"><title>Node11&#45;&gt;Node10</title>
<path fill="none" stroke="midnightblue" d="M282.083,-109.788C290.488,-110.849 299.118,-111.939 307.538,-113.002"/>
<polygon fill="midnightblue" stroke="midnightblue" points="307.314,-116.501 317.674,-114.281 308.191,-109.556 307.314,-116.501"/>
</g>
<!-- Node12 -->
<g id="node12" class="node"><title>Node12</title>
<g id="a_node12"><a xlink:href="classtlz_1_1args__list.html#ae7c07d1c8f24c2aa4fe0ba68ec45d353" target="_top" xlink:title="tlz::args_list::next\l_arg_is">
<polygon fill="white" stroke="black" points="583,-190.95 583,-220.95 678,-220.95 678,-190.95 583,-190.95"/>
<text text-anchor="start" x="591" y="-208.95" font-family="Helvetica,sans-Serif" font-size="10.00">tlz::args_list::next</text>
<text text-anchor="middle" x="630.5" y="-197.95" font-family="Helvetica,sans-Serif" font-size="10.00">_arg_is</text>
</a>
</g>
</g>
<!-- Node11&#45;&gt;Node12 -->
<g id="edge17" class="edge"><title>Node11&#45;&gt;Node12</title>
<path fill="none" stroke="midnightblue" d="M228.862,-92.4225C244.812,-76.0592 280.227,-43.1956 318,-30.9504 411.012,-0.797963 454.363,19.6988 538,-30.9504 592.398,-63.8928 616.003,-140.975 624.88,-180.935"/>
<polygon fill="midnightblue" stroke="midnightblue" points="621.496,-181.852 626.962,-190.928 628.349,-180.424 621.496,-181.852"/>
</g>
<!-- Node12&#45;&gt;Node7 -->
<g id="edge18" class="edge"><title>Node12&#45;&gt;Node7</title>
<path fill="none" stroke="midnightblue" d="M656.113,-221.044C674.395,-232.115 700.036,-247.352 723,-259.95 732.747,-265.298 743.554,-270.888 753.227,-275.774"/>
<polygon fill="midnightblue" stroke="midnightblue" points="751.933,-279.041 762.441,-280.39 755.068,-272.782 751.933,-279.041"/>
</g>
<!-- Node12&#45;&gt;Node8 -->
<g id="edge19" class="edge"><title>Node12&#45;&gt;Node8</title>
<path fill="none" stroke="midnightblue" d="M678.294,-216.833C697.078,-221.201 718.636,-226.215 737.214,-230.535"/>
<polygon fill="midnightblue" stroke="midnightblue" points="736.659,-233.999 747.192,-232.855 738.244,-227.181 736.659,-233.999"/>
</g>
<!-- Node13&#45;&gt;Node5 -->
<g id="edge23" class="edge"><title>Node13&#45;&gt;Node5</title>
<path fill="none" stroke="midnightblue" d="M424.113,-284.95C433.101,-284.95 442.408,-284.95 451.271,-284.95"/>
<polygon fill="midnightblue" stroke="midnightblue" points="451.425,-288.451 461.425,-284.95 451.425,-281.451 451.425,-288.451"/>
</g>
<!-- Node14&#45;&gt;Node2 -->
<g id="edge25" class="edge"><title>Node14&#45;&gt;Node2</title>
<path fill="none" stroke="midnightblue" d="M232.112,-256.549C249.802,-269.944 284.279,-293.746 318,-303.95 414.418,-333.129 535.094,-329.946 593.933,-326.017"/>
<polygon fill="midnightblue" stroke="midnightblue" points="594.456,-329.489 604.18,-325.283 593.955,-322.507 594.456,-329.489"/>
</g>
<!-- Node14&#45;&gt;Node3 -->
<g id="edge26" class="edge"><title>Node14&#45;&gt;Node3</title>
<path fill="none" stroke="midnightblue" d="M240.924,-237.45C253.065,-231.783 268.565,-224.283 282,-216.95 298.459,-207.967 301.858,-204.492 318,-194.95 323.456,-191.725 329.259,-188.353 334.941,-185.082"/>
<polygon fill="midnightblue" stroke="midnightblue" points="336.767,-188.069 343.704,-180.061 333.287,-181.996 336.767,-188.069"/>
</g>
<!-- Node14&#45;&gt;Node6 -->
<g id="edge28" class="edge"><title>Node14&#45;&gt;Node6</title>
<path fill="none" stroke="midnightblue" d="M281.306,-249.795C357.11,-253.312 485.629,-259.275 563.525,-262.889"/>
<polygon fill="midnightblue" stroke="midnightblue" points="563.55,-266.394 573.702,-263.361 563.875,-259.402 563.55,-266.394"/>
</g>
<!-- Node14&#45;&gt;Node12 -->
<g id="edge27" class="edge"><title>Node14&#45;&gt;Node12</title>
<path fill="none" stroke="midnightblue" d="M281.306,-240.812C360.045,-232.929 495.661,-219.351 572.34,-211.673"/>
<polygon fill="midnightblue" stroke="midnightblue" points="573.155,-215.109 582.757,-210.63 572.458,-208.144 573.155,-215.109"/>
</g>
<!-- Node14&#45;&gt;Node13 -->
<g id="edge29" class="edge"><title>Node14&#45;&gt;Node13</title>
<path fill="none" stroke="midnightblue" d="M257.978,-256.539C277.659,-261.509 301.891,-267.627 322.821,-272.912"/>
<polygon fill="midnightblue" stroke="midnightblue" points="322.243,-276.376 332.796,-275.43 323.957,-269.589 322.243,-276.376"/>
</g>
<!-- Node15&#45;&gt;Node2 -->
<g id="edge31" class="edge"><title>Node15&#45;&gt;Node2</title>
<path fill="none" stroke="midnightblue" d="M530.745,-352.041C549.857,-346.411 574.621,-339.116 594.57,-333.24"/>
<polygon fill="midnightblue" stroke="midnightblue" points="595.615,-336.581 604.218,-330.398 593.637,-329.866 595.615,-336.581"/>
</g>
<!-- Node15&#45;&gt;Node6 -->
<g id="edge32" class="edge"><title>Node15&#45;&gt;Node6</title>
<path fill="none" stroke="midnightblue" d="M512.301,-351.45C526.685,-339.952 551.818,-320.123 574,-303.95 584.403,-296.365 596.139,-288.266 606.131,-281.501"/>
<polygon fill="midnightblue" stroke="midnightblue" points="608.385,-284.204 614.728,-275.718 604.477,-278.396 608.385,-284.204"/>
</g>
<!-- Node15&#45;&gt;Node7 -->
<g id="edge33" class="edge"><title>Node15&#45;&gt;Node7</title>
<path fill="none" stroke="midnightblue" d="M530.622,-361.519C568.111,-361.408 633.696,-358.508 687,-341.95 713.85,-333.61 741.745,-317.272 760.304,-305.124"/>
<polygon fill="midnightblue" stroke="midnightblue" points="762.262,-308.026 768.62,-299.551 758.364,-302.211 762.262,-308.026"/>
</g>
</g>
</svg>
