<?xml version="1.0" encoding="UTF-8" standalone="no"?>
<!DOCTYPE svg PUBLIC "-//W3C//DTD SVG 1.1//EN"
 "http://www.w3.org/Graphics/SVG/1.1/DTD/svg11.dtd">
<!-- Generated by graphviz version 2.38.0 (20140413.2041)
 -->
<!-- Title: tlz::encode_feature_slopes Pages: 1 -->
<svg width="546pt" height="97pt"
 viewBox="0.00 0.00 546.00 96.50" xmlns="http://www.w3.org/2000/svg" xmlns:xlink="http://www.w3.org/1999/xlink">
<g id="graph0" class="graph" transform="scale(1 1) rotate(0) translate(4 92.5)">
<title>tlz::encode_feature_slopes</title>
<polygon fill="white" stroke="none" points="-4,4 -4,-92.5 542,-92.5 542,4 -4,4"/>
<!-- Node1 -->
<g id="node1" class="node"><title>Node1</title>
<polygon fill="#bfbfbf" stroke="black" points="0,-36 0,-66 100,-66 100,-36 0,-36"/>
<text text-anchor="start" x="8" y="-54" font-family="Helvetica,sans-Serif" font-size="10.00">tlz::encode_feature</text>
<text text-anchor="middle" x="50" y="-43" font-family="Helvetica,sans-Serif" font-size="10.00">_slopes</text>
</g>
<!-- Node2 -->
<g id="node2" class="node"><title>Node2</title>
<g id="a_node2"><a xlink:href="namespacetlz.html#a0b42822a3802ba98cfb8d42223b3149d" target="_top" xlink:title="tlz::encode_feature\l_points">
<polygon fill="white" stroke="black" points="136,-36 136,-66 236,-66 236,-36 136,-36"/>
<text text-anchor="start" x="144" y="-54" font-family="Helvetica,sans-Serif" font-size="10.00">tlz::encode_feature</text>
<text text-anchor="middle" x="186" y="-43" font-family="Helvetica,sans-Serif" font-size="10.00">_points</text>
</a>
</g>
</g>
<!-- Node1&#45;&gt;Node2 -->
<g id="edge1" class="edge"><title>Node1&#45;&gt;Node2</title>
<path fill="none" stroke="midnightblue" d="M100.136,-51C108.42,-51 117.097,-51 125.608,-51"/>
<polygon fill="midnightblue" stroke="midnightblue" points="125.87,-54.5001 135.87,-51 125.87,-47.5001 125.87,-54.5001"/>
</g>
<!-- Node3 -->
<g id="node3" class="node"><title>Node3</title>
<g id="a_node3"><a xlink:href="namespacetlz.html#a8f6c31dc4b1dffe7950bcb1f4ff85cbc" target="_top" xlink:title="tlz::encode_feature\l_point">
<polygon fill="white" stroke="black" points="281.5,-58 281.5,-88 381.5,-88 381.5,-58 281.5,-58"/>
<text text-anchor="start" x="289.5" y="-76" font-family="Helvetica,sans-Serif" font-size="10.00">tlz::encode_feature</text>
<text text-anchor="middle" x="331.5" y="-65" font-family="Helvetica,sans-Serif" font-size="10.00">_point</text>
</a>
</g>
</g>
<!-- Node2&#45;&gt;Node3 -->
<g id="edge2" class="edge"><title>Node2&#45;&gt;Node3</title>
<path fill="none" stroke="midnightblue" d="M236.385,-58.5712C247.546,-60.2823 259.51,-62.1165 271.037,-63.8838"/>
<polygon fill="midnightblue" stroke="midnightblue" points="270.609,-67.359 281.024,-65.4149 271.67,-60.4398 270.609,-67.359"/>
</g>
<!-- Node4 -->
<g id="node4" class="node"><title>Node4</title>
<g id="a_node4"><a xlink:href="namespacetlz.html#aadab29bdc80bc1d0ad6d3784dd427992" target="_top" xlink:title="tlz::encode_view_index">
<polygon fill="white" stroke="black" points="272,-19.5 272,-38.5 391,-38.5 391,-19.5 272,-19.5"/>
<text text-anchor="middle" x="331.5" y="-26.5" font-family="Helvetica,sans-Serif" font-size="10.00">tlz::encode_view_index</text>
</a>
</g>
</g>
<!-- Node2&#45;&gt;Node4 -->
<g id="edge3" class="edge"><title>Node2&#45;&gt;Node4</title>
<path fill="none" stroke="midnightblue" d="M236.385,-43.4288C244.601,-42.1692 253.252,-40.8429 261.844,-39.5257"/>
<polygon fill="midnightblue" stroke="midnightblue" points="262.519,-42.9632 271.873,-37.9882 261.458,-36.0441 262.519,-42.9632"/>
</g>
<!-- Node5 -->
<g id="node5" class="node"><title>Node5</title>
<g id="a_node5"><a xlink:href="namespacetlz.html#a8e4f8c8c2927bc4350de13bfa0f8f9e1" target="_top" xlink:title="tlz::to_string">
<polygon fill="white" stroke="black" points="447,-38.5 447,-57.5 518,-57.5 518,-38.5 447,-38.5"/>
<text text-anchor="middle" x="482.5" y="-45.5" font-family="Helvetica,sans-Serif" font-size="10.00">tlz::to_string</text>
</a>
</g>
</g>
<!-- Node4&#45;&gt;Node5 -->
<g id="edge4" class="edge"><title>Node4&#45;&gt;Node5</title>
<path fill="none" stroke="midnightblue" d="M391.389,-36.5093C406.444,-38.4291 422.389,-40.4624 436.614,-42.2763"/>
<polygon fill="midnightblue" stroke="midnightblue" points="436.268,-45.7605 446.631,-43.5536 437.154,-38.8167 436.268,-45.7605"/>
</g>
<!-- Node6 -->
<g id="node6" class="node"><title>Node6</title>
<g id="a_node6"><a xlink:href="structtlz_1_1view__index.html#a20518c30015d833cdb2a69b524886b96" target="_top" xlink:title="tlz::view_index::is_2d">
<polygon fill="white" stroke="black" points="427,-0.5 427,-19.5 538,-19.5 538,-0.5 427,-0.5"/>
<text text-anchor="middle" x="482.5" y="-7.5" font-family="Helvetica,sans-Serif" font-size="10.00">tlz::view_index::is_2d</text>
</a>
</g>
</g>
<!-- Node4&#45;&gt;Node6 -->
<g id="edge5" class="edge"><title>Node4&#45;&gt;Node6</title>
<path fill="none" stroke="midnightblue" d="M391.389,-21.4907C399.716,-20.4288 408.316,-19.3321 416.747,-18.2571"/>
<polygon fill="midnightblue" stroke="midnightblue" points="417.44,-21.6972 426.917,-16.9603 416.554,-14.7534 417.44,-21.6972"/>
</g>
</g>
</svg>
