<?xml version="1.0" encoding="UTF-8" standalone="no"?>
<!DOCTYPE svg PUBLIC "-//W3C//DTD SVG 1.1//EN"
 "http://www.w3.org/Graphics/SVG/1.1/DTD/svg11.dtd">
<!-- Generated by graphviz version 2.38.0 (20140413.2041)
 -->
<!-- Title: tlz::encode_kinect_reprojection_parameters Pages: 1 -->
<svg width="529pt" height="53pt"
 viewBox="0.00 0.00 529.00 52.50" xmlns="http://www.w3.org/2000/svg" xmlns:xlink="http://www.w3.org/1999/xlink">
<g id="graph0" class="graph" transform="scale(1 1) rotate(0) translate(4 48.5)">
<title>tlz::encode_kinect_reprojection_parameters</title>
<polygon fill="white" stroke="none" points="-4,4 -4,-48.5 525,-48.5 525,4 -4,4"/>
<!-- Node1 -->
<g id="node1" class="node"><title>Node1</title>
<polygon fill="#bfbfbf" stroke="black" points="0,-0.5 0,-30.5 126,-30.5 126,-0.5 0,-0.5"/>
<text text-anchor="start" x="8" y="-18.5" font-family="Helvetica,sans-Serif" font-size="10.00">tlz::encode_kinect</text>
<text text-anchor="middle" x="63" y="-7.5" font-family="Helvetica,sans-Serif" font-size="10.00">_reprojection_parameters</text>
</g>
<!-- Node2 -->
<g id="node2" class="node"><title>Node2</title>
<g id="a_node2"><a xlink:href="namespacetlz.html#a46c3e46d56bc36cf6b1236522563bc4a" target="_top" xlink:title="tlz::encode_intrinsics">
<polygon fill="white" stroke="black" points="162,-25 162,-44 271,-44 271,-25 162,-25"/>
<text text-anchor="middle" x="216.5" y="-32" font-family="Helvetica,sans-Serif" font-size="10.00">tlz::encode_intrinsics</text>
</a>
</g>
</g>
<!-- Node1&#45;&gt;Node2 -->
<g id="edge1" class="edge"><title>Node1&#45;&gt;Node2</title>
<path fill="none" stroke="midnightblue" d="M126.058,-23.2828C134.424,-24.332 143.02,-25.4101 151.42,-26.4636"/>
<polygon fill="midnightblue" stroke="midnightblue" points="151.182,-29.9611 161.54,-27.7328 152.053,-23.0155 151.182,-29.9611"/>
</g>
<!-- Node3 -->
<g id="node3" class="node"><title>Node3</title>
<g id="a_node3"><a xlink:href="namespacetlz.html#acf7ca4ee1b750cf31a40170bea887d46" target="_top" xlink:title="tlz::encode_mat">
<polygon fill="white" stroke="black" points="307,-6 307,-25 393,-25 393,-6 307,-6"/>
<text text-anchor="middle" x="350" y="-13" font-family="Helvetica,sans-Serif" font-size="10.00">tlz::encode_mat</text>
</a>
</g>
</g>
<!-- Node1&#45;&gt;Node3 -->
<g id="edge4" class="edge"><title>Node1&#45;&gt;Node3</title>
<path fill="none" stroke="midnightblue" d="M126.192,-15.5C177.157,-15.5 248.47,-15.5 296.574,-15.5"/>
<polygon fill="midnightblue" stroke="midnightblue" points="296.771,-19.0001 306.771,-15.5 296.771,-12.0001 296.771,-19.0001"/>
</g>
<!-- Node2&#45;&gt;Node3 -->
<g id="edge2" class="edge"><title>Node2&#45;&gt;Node3</title>
<path fill="none" stroke="midnightblue" d="M271.366,-26.7172C279.736,-25.5077 288.373,-24.2598 296.708,-23.0555"/>
<polygon fill="midnightblue" stroke="midnightblue" points="297.29,-26.5078 306.687,-21.6136 296.289,-19.5797 297.29,-26.5078"/>
</g>
<!-- Node4 -->
<g id="node4" class="node"><title>Node4</title>
<g id="a_node4"><a xlink:href="namespacetlz.html#a7b27ca69fad329b4a00aceee41d2962b" target="_top" xlink:title="tlz::encode_mat_">
<polygon fill="white" stroke="black" points="429,-6 429,-25 521,-25 521,-6 429,-6"/>
<text text-anchor="middle" x="475" y="-13" font-family="Helvetica,sans-Serif" font-size="10.00">tlz::encode_mat_</text>
</a>
</g>
</g>
<!-- Node3&#45;&gt;Node4 -->
<g id="edge3" class="edge"><title>Node3&#45;&gt;Node4</title>
<path fill="none" stroke="midnightblue" d="M393.33,-15.5C401.432,-15.5 410.027,-15.5 418.471,-15.5"/>
<polygon fill="midnightblue" stroke="midnightblue" points="418.652,-19.0001 428.652,-15.5 418.652,-12.0001 418.652,-19.0001"/>
</g>
</g>
</svg>
