<?xml version="1.0" encoding="UTF-8" standalone="no"?>
<!DOCTYPE svg PUBLIC "-//W3C//DTD SVG 1.1//EN"
 "http://www.w3.org/Graphics/SVG/1.1/DTD/svg11.dtd">
<!-- Generated by graphviz version 2.38.0 (20140413.2041)
 -->
<!-- Title: tlz::intrinsics_arg Pages: 1 -->
<svg width="799pt" height="237pt"
 viewBox="0.00 0.00 799.00 237.00" xmlns="http://www.w3.org/2000/svg" xmlns:xlink="http://www.w3.org/1999/xlink">
<g id="graph0" class="graph" transform="scale(1 1) rotate(0) translate(4 233)">
<title>tlz::intrinsics_arg</title>
<polygon fill="white" stroke="none" points="-4,4 -4,-233 795,-233 795,4 -4,4"/>
<!-- Node1 -->
<g id="node1" class="node"><title>Node1</title>
<polygon fill="#bfbfbf" stroke="black" points="0,-123.5 0,-142.5 91,-142.5 91,-123.5 0,-123.5"/>
<text text-anchor="middle" x="45.5" y="-130.5" font-family="Helvetica,sans-Serif" font-size="10.00">tlz::intrinsics_arg</text>
</g>
<!-- Node2 -->
<g id="node2" class="node"><title>Node2</title>
<g id="a_node2"><a xlink:href="namespacetlz.html#a8cba4853d0d796a01c72f59f36f2a492" target="_top" xlink:title="tlz::decode_intrinsics">
<polygon fill="white" stroke="black" points="127,-152.5 127,-171.5 236,-171.5 236,-152.5 127,-152.5"/>
<text text-anchor="middle" x="181.5" y="-159.5" font-family="Helvetica,sans-Serif" font-size="10.00">tlz::decode_intrinsics</text>
</a>
</g>
</g>
<!-- Node1&#45;&gt;Node2 -->
<g id="edge1" class="edge"><title>Node1&#45;&gt;Node2</title>
<path fill="none" stroke="midnightblue" d="M90.748,-142.576C102.183,-145.051 114.621,-147.743 126.493,-150.312"/>
<polygon fill="midnightblue" stroke="midnightblue" points="125.784,-153.74 136.298,-152.434 127.265,-146.898 125.784,-153.74"/>
</g>
<!-- Node6 -->
<g id="node6" class="node"><title>Node6</title>
<g id="a_node6"><a xlink:href="namespacetlz.html#a35f9e03fa4fd9cec699f5fa27962400f" target="_top" xlink:title="tlz::json_arg">
<polygon fill="white" stroke="black" points="146.5,-95.5 146.5,-114.5 216.5,-114.5 216.5,-95.5 146.5,-95.5"/>
<text text-anchor="middle" x="181.5" y="-102.5" font-family="Helvetica,sans-Serif" font-size="10.00">tlz::json_arg</text>
</a>
</g>
</g>
<!-- Node1&#45;&gt;Node6 -->
<g id="edge6" class="edge"><title>Node1&#45;&gt;Node6</title>
<path fill="none" stroke="midnightblue" d="M91.1201,-123.676C105.578,-120.655 121.608,-117.306 136.053,-114.287"/>
<polygon fill="midnightblue" stroke="midnightblue" points="137.174,-117.629 146.247,-112.157 135.743,-110.777 137.174,-117.629"/>
</g>
<!-- Node3 -->
<g id="node3" class="node"><title>Node3</title>
<g id="a_node3"><a xlink:href="namespacetlz.html#a066563a26e2de02f215b179f3d3a53da" target="_top" xlink:title="tlz::decode_mat">
<polygon fill="white" stroke="black" points="279.5,-209.5 279.5,-228.5 365.5,-228.5 365.5,-209.5 279.5,-209.5"/>
<text text-anchor="middle" x="322.5" y="-216.5" font-family="Helvetica,sans-Serif" font-size="10.00">tlz::decode_mat</text>
</a>
</g>
</g>
<!-- Node2&#45;&gt;Node3 -->
<g id="edge2" class="edge"><title>Node2&#45;&gt;Node3</title>
<path fill="none" stroke="midnightblue" d="M205.765,-171.541C228.517,-180.87 263.368,-195.162 288.882,-205.624"/>
<polygon fill="midnightblue" stroke="midnightblue" points="287.578,-208.872 298.159,-209.428 290.234,-202.396 287.578,-208.872"/>
</g>
<!-- Node4 -->
<g id="node4" class="node"><title>Node4</title>
<g id="a_node4"><a xlink:href="namespacetlz.html#a252af14b9b4ac6502d3e9c5dd8dc90b8" target="_top" xlink:title="tlz::has">
<polygon fill="white" stroke="black" points="423,-171.5 423,-190.5 472,-190.5 472,-171.5 423,-171.5"/>
<text text-anchor="middle" x="447.5" y="-178.5" font-family="Helvetica,sans-Serif" font-size="10.00">tlz::has</text>
</a>
</g>
</g>
<!-- Node2&#45;&gt;Node4 -->
<g id="edge3" class="edge"><title>Node2&#45;&gt;Node4</title>
<path fill="none" stroke="midnightblue" d="M236.243,-165.868C289.14,-169.675 368.28,-175.371 412.852,-178.578"/>
<polygon fill="midnightblue" stroke="midnightblue" points="412.649,-182.073 422.874,-179.3 413.152,-175.091 412.649,-182.073"/>
</g>
<!-- Node5 -->
<g id="node5" class="node"><title>Node5</title>
<g id="a_node5"><a xlink:href="namespacetlz.html#add846dc50c32dfb356cb1a7ac11d37ac" target="_top" xlink:title="tlz::get_or">
<polygon fill="white" stroke="black" points="292.5,-133.5 292.5,-152.5 352.5,-152.5 352.5,-133.5 292.5,-133.5"/>
<text text-anchor="middle" x="322.5" y="-140.5" font-family="Helvetica,sans-Serif" font-size="10.00">tlz::get_or</text>
</a>
</g>
</g>
<!-- Node2&#45;&gt;Node5 -->
<g id="edge4" class="edge"><title>Node2&#45;&gt;Node5</title>
<path fill="none" stroke="midnightblue" d="M236.241,-154.654C251.61,-152.553 268.064,-150.304 282.377,-148.348"/>
<polygon fill="midnightblue" stroke="midnightblue" points="282.942,-151.803 292.376,-146.981 281.994,-144.868 282.942,-151.803"/>
</g>
<!-- Node5&#45;&gt;Node4 -->
<g id="edge5" class="edge"><title>Node5&#45;&gt;Node4</title>
<path fill="none" stroke="midnightblue" d="M352.649,-152.005C370.835,-157.624 394.297,-164.872 413.213,-170.716"/>
<polygon fill="midnightblue" stroke="midnightblue" points="412.326,-174.105 422.914,-173.713 414.393,-167.417 412.326,-174.105"/>
</g>
<!-- Node7 -->
<g id="node7" class="node"><title>Node7</title>
<g id="a_node7"><a xlink:href="namespacetlz.html#aa1be9362f548fcf9378e1fc9074089c4" target="_top" xlink:title="tlz::import_json_file">
<polygon fill="white" stroke="black" points="272,-95.5 272,-114.5 373,-114.5 373,-95.5 272,-95.5"/>
<text text-anchor="middle" x="322.5" y="-102.5" font-family="Helvetica,sans-Serif" font-size="10.00">tlz::import_json_file</text>
</a>
</g>
</g>
<!-- Node6&#45;&gt;Node7 -->
<g id="edge7" class="edge"><title>Node6&#45;&gt;Node7</title>
<path fill="none" stroke="midnightblue" d="M216.503,-105C230.151,-105 246.295,-105 261.778,-105"/>
<polygon fill="midnightblue" stroke="midnightblue" points="261.825,-108.5 271.825,-105 261.825,-101.5 261.825,-108.5"/>
</g>
<!-- Node8 -->
<g id="node8" class="node"><title>Node8</title>
<g id="a_node8"><a xlink:href="namespacetlz.html#a634de7ca11e100e4a118dffe80376a75" target="_top" xlink:title="tlz::in_filename_arg">
<polygon fill="white" stroke="black" points="272,-57.5 272,-76.5 373,-76.5 373,-57.5 272,-57.5"/>
<text text-anchor="middle" x="322.5" y="-64.5" font-family="Helvetica,sans-Serif" font-size="10.00">tlz::in_filename_arg</text>
</a>
</g>
</g>
<!-- Node6&#45;&gt;Node8 -->
<g id="edge8" class="edge"><title>Node6&#45;&gt;Node8</title>
<path fill="none" stroke="midnightblue" d="M216.503,-95.7042C234.572,-90.7645 257.016,-84.6286 276.51,-79.2994"/>
<polygon fill="midnightblue" stroke="midnightblue" points="277.673,-82.6099 286.396,-76.5967 275.827,-75.8577 277.673,-82.6099"/>
</g>
<!-- Node9 -->
<g id="node9" class="node"><title>Node9</title>
<g id="a_node9"><a xlink:href="namespacetlz.html#a0621d598fb83b13bf028f3e6293d04f8" target="_top" xlink:title="tlz::string_arg">
<polygon fill="white" stroke="black" points="409.5,-76.5 409.5,-95.5 485.5,-95.5 485.5,-76.5 409.5,-76.5"/>
<text text-anchor="middle" x="447.5" y="-83.5" font-family="Helvetica,sans-Serif" font-size="10.00">tlz::string_arg</text>
</a>
</g>
</g>
<!-- Node8&#45;&gt;Node9 -->
<g id="edge9" class="edge"><title>Node8&#45;&gt;Node9</title>
<path fill="none" stroke="midnightblue" d="M373.174,-74.6733C381.706,-75.9912 390.554,-77.358 399.027,-78.6667"/>
<polygon fill="midnightblue" stroke="midnightblue" points="398.712,-82.1595 409.129,-80.2272 399.781,-75.2416 398.712,-82.1595"/>
</g>
<!-- Node10 -->
<g id="node10" class="node"><title>Node10</title>
<g id="a_node10"><a xlink:href="namespacetlz.html#a780431daab8d2595372eacb43143b52d" target="_top" xlink:title="tlz::args">
<polygon fill="white" stroke="black" points="552.5,-114.5 552.5,-133.5 604.5,-133.5 604.5,-114.5 552.5,-114.5"/>
<text text-anchor="middle" x="578.5" y="-121.5" font-family="Helvetica,sans-Serif" font-size="10.00">tlz::args</text>
</a>
</g>
</g>
<!-- Node8&#45;&gt;Node10 -->
<g id="edge15" class="edge"><title>Node8&#45;&gt;Node10</title>
<path fill="none" stroke="midnightblue" d="M350.201,-76.5811C357.655,-79.4357 365.708,-82.6902 373,-86 389.474,-93.477 391.711,-99.6716 409,-105 453.617,-118.751 507.622,-122.756 542.259,-123.813"/>
<polygon fill="midnightblue" stroke="midnightblue" points="542.274,-127.315 552.354,-124.054 542.441,-120.317 542.274,-127.315"/>
</g>
<!-- Node12 -->
<g id="node12" class="node"><title>Node12</title>
<g id="a_node12"><a xlink:href="classtlz_1_1args__list.html#a38ad21acd64a4af98ffdf4a47837cdbe" target="_top" xlink:title="tlz::args_list::usage_fail">
<polygon fill="white" stroke="black" points="671,-38.5 671,-57.5 791,-57.5 791,-38.5 671,-38.5"/>
<text text-anchor="middle" x="731" y="-45.5" font-family="Helvetica,sans-Serif" font-size="10.00">tlz::args_list::usage_fail</text>
</a>
</g>
</g>
<!-- Node8&#45;&gt;Node12 -->
<g id="edge16" class="edge"><title>Node8&#45;&gt;Node12</title>
<path fill="none" stroke="midnightblue" d="M373.345,-64.6702C445.419,-61.3015 579.021,-55.0568 660.668,-51.2406"/>
<polygon fill="midnightblue" stroke="midnightblue" points="661.025,-54.7278 670.851,-50.7647 660.698,-47.7355 661.025,-54.7278"/>
</g>
<!-- Node14 -->
<g id="node14" class="node"><title>Node14</title>
<g id="a_node14"><a xlink:href="namespacetlz.html#abb019466ea9f56c0dab27e893d891837" target="_top" xlink:title="tlz::file_exists">
<polygon fill="white" stroke="black" points="409,-0.5 409,-19.5 486,-19.5 486,-0.5 409,-0.5"/>
<text text-anchor="middle" x="447.5" y="-7.5" font-family="Helvetica,sans-Serif" font-size="10.00">tlz::file_exists</text>
</a>
</g>
</g>
<!-- Node8&#45;&gt;Node14 -->
<g id="edge14" class="edge"><title>Node8&#45;&gt;Node14</title>
<path fill="none" stroke="midnightblue" d="M344.087,-57.4595C363.954,-48.2528 394.246,-34.2153 416.737,-23.7926"/>
<polygon fill="midnightblue" stroke="midnightblue" points="418.244,-26.9519 425.845,-19.5716 415.301,-20.6007 418.244,-26.9519"/>
</g>
<!-- Node9&#45;&gt;Node10 -->
<g id="edge10" class="edge"><title>Node9&#45;&gt;Node10</title>
<path fill="none" stroke="midnightblue" d="M481.052,-95.589C499.78,-101.106 523.314,-108.038 542.447,-113.674"/>
<polygon fill="midnightblue" stroke="midnightblue" points="541.701,-117.103 552.283,-116.572 543.679,-110.389 541.701,-117.103"/>
</g>
<!-- Node11 -->
<g id="node11" class="node"><title>Node11</title>
<g id="a_node11"><a xlink:href="classtlz_1_1args__list.html#a73d99bc75998dc14607a3a372d28dc6d" target="_top" xlink:title="tlz::args_list::next_arg">
<polygon fill="white" stroke="black" points="522,-76.5 522,-95.5 635,-95.5 635,-76.5 522,-76.5"/>
<text text-anchor="middle" x="578.5" y="-83.5" font-family="Helvetica,sans-Serif" font-size="10.00">tlz::args_list::next_arg</text>
</a>
</g>
</g>
<!-- Node9&#45;&gt;Node11 -->
<g id="edge11" class="edge"><title>Node9&#45;&gt;Node11</title>
<path fill="none" stroke="midnightblue" d="M485.812,-86C493.835,-86 502.544,-86 511.295,-86"/>
<polygon fill="midnightblue" stroke="midnightblue" points="511.549,-89.5001 521.549,-86 511.549,-82.5001 511.549,-89.5001"/>
</g>
<!-- Node11&#45;&gt;Node12 -->
<g id="edge12" class="edge"><title>Node11&#45;&gt;Node12</title>
<path fill="none" stroke="midnightblue" d="M617.478,-76.411C637.159,-71.4417 661.391,-65.3233 682.321,-60.0387"/>
<polygon fill="midnightblue" stroke="midnightblue" points="683.457,-63.3617 692.296,-57.5201 681.743,-56.5747 683.457,-63.3617"/>
</g>
<!-- Node13 -->
<g id="node13" class="node"><title>Node13</title>
<g id="a_node13"><a xlink:href="namespacetlz.html#a8e4f8c8c2927bc4350de13bfa0f8f9e1" target="_top" xlink:title="tlz::to_string">
<polygon fill="white" stroke="black" points="695.5,-76.5 695.5,-95.5 766.5,-95.5 766.5,-76.5 695.5,-76.5"/>
<text text-anchor="middle" x="731" y="-83.5" font-family="Helvetica,sans-Serif" font-size="10.00">tlz::to_string</text>
</a>
</g>
</g>
<!-- Node11&#45;&gt;Node13 -->
<g id="edge13" class="edge"><title>Node11&#45;&gt;Node13</title>
<path fill="none" stroke="midnightblue" d="M635.113,-86C651.441,-86 669.096,-86 684.698,-86"/>
<polygon fill="midnightblue" stroke="midnightblue" points="685.13,-89.5001 695.13,-86 685.129,-82.5001 685.13,-89.5001"/>
</g>
</g>
</svg>
