<?xml version="1.0" encoding="UTF-8" standalone="no"?>
<!DOCTYPE svg PUBLIC "-//W3C//DTD SVG 1.1//EN"
 "http://www.w3.org/Graphics/SVG/1.1/DTD/svg11.dtd">
<!-- Generated by graphviz version 2.38.0 (20140413.2041)
 -->
<!-- Title: main Pages: 1 -->
<svg width="931pt" height="1197pt"
 viewBox="0.00 0.00 931.00 1197.01" xmlns="http://www.w3.org/2000/svg" xmlns:xlink="http://www.w3.org/1999/xlink">
<g id="graph0" class="graph" transform="scale(1 1) rotate(0) translate(4 1193.01)">
<title>main</title>
<polygon fill="white" stroke="none" points="-4,4 -4,-1193.01 927,-1193.01 927,4 -4,4"/>
<!-- Node1 -->
<g id="node1" class="node"><title>Node1</title>
<polygon fill="#bfbfbf" stroke="black" points="0,-388.5 0,-407.5 38,-407.5 38,-388.5 0,-388.5"/>
<text text-anchor="middle" x="19" y="-395.5" font-family="Helvetica,sans-Serif" font-size="10.00">main</text>
</g>
<!-- Node2 -->
<g id="node2" class="node"><title>Node2</title>
<g id="a_node2"><a xlink:href="namespacetlz.html#a3c03f5d9d6261ec2909938822fc47f8a" target="_top" xlink:title="tlz::get_args">
<polygon fill="white" stroke="black" points="101.5,-876.5 101.5,-895.5 172.5,-895.5 172.5,-876.5 101.5,-876.5"/>
<text text-anchor="middle" x="137" y="-883.5" font-family="Helvetica,sans-Serif" font-size="10.00">tlz::get_args</text>
</a>
</g>
</g>
<!-- Node1&#45;&gt;Node2 -->
<g id="edge1" class="edge"><title>Node1&#45;&gt;Node2</title>
<path fill="none" stroke="midnightblue" d="M20.4898,-407.788C23.7799,-471.893 43.4618,-830.302 74,-867 78.7032,-872.652 85.0421,-876.657 91.8761,-879.487"/>
<polygon fill="midnightblue" stroke="midnightblue" points="90.801,-882.818 101.395,-882.662 93.0163,-876.177 90.801,-882.818"/>
</g>
<!-- Node3 -->
<g id="node3" class="node"><title>Node3</title>
<g id="a_node3"><a xlink:href="namespacetlz.html#a89b5e26ad069ef85937a1cb5f20c1d64" target="_top" xlink:title="tlz::in_filename_opt_arg">
<polygon fill="white" stroke="black" points="77,-838.5 77,-857.5 197,-857.5 197,-838.5 77,-838.5"/>
<text text-anchor="middle" x="137" y="-845.5" font-family="Helvetica,sans-Serif" font-size="10.00">tlz::in_filename_opt_arg</text>
</a>
</g>
</g>
<!-- Node1&#45;&gt;Node3 -->
<g id="edge2" class="edge"><title>Node1&#45;&gt;Node3</title>
<path fill="none" stroke="midnightblue" d="M20.9115,-407.638C24.677,-445.693 40.4262,-588.951 74,-702 88.0427,-749.284 112.787,-801.875 126.382,-829.199"/>
<polygon fill="midnightblue" stroke="midnightblue" points="123.377,-831.013 131.002,-838.37 129.629,-827.864 123.377,-831.013"/>
</g>
<!-- Node18 -->
<g id="node18" class="node"><title>Node18</title>
<g id="a_node18"><a xlink:href="namespacetlz.html#ad5e7c69f85c8a3b9aad1bd4aeb551148" target="_top" xlink:title="tlz::decode_kinect\l_reprojection_parameters">
<polygon fill="white" stroke="black" points="74,-662 74,-692 200,-692 200,-662 74,-662"/>
<text text-anchor="start" x="82" y="-680" font-family="Helvetica,sans-Serif" font-size="10.00">tlz::decode_kinect</text>
<text text-anchor="middle" x="137" y="-669" font-family="Helvetica,sans-Serif" font-size="10.00">_reprojection_parameters</text>
</a>
</g>
</g>
<!-- Node1&#45;&gt;Node18 -->
<g id="edge36" class="edge"><title>Node1&#45;&gt;Node18</title>
<path fill="none" stroke="midnightblue" d="M20.8492,-407.655C24.6907,-449.339 41.6748,-613.505 74,-652 75.0029,-653.194 76.0713,-654.332 77.1957,-655.416"/>
<polygon fill="midnightblue" stroke="midnightblue" points="75.3029,-658.381 85.3252,-661.816 79.633,-652.88 75.3029,-658.381"/>
</g>
<!-- Node23 -->
<g id="node23" class="node"><title>Node23</title>
<g id="a_node23"><a xlink:href="namespacetlz.html#aa1be9362f548fcf9378e1fc9074089c4" target="_top" xlink:title="tlz::import_json_file">
<polygon fill="white" stroke="black" points="86.5,-623.5 86.5,-642.5 187.5,-642.5 187.5,-623.5 86.5,-623.5"/>
<text text-anchor="middle" x="137" y="-630.5" font-family="Helvetica,sans-Serif" font-size="10.00">tlz::import_json_file</text>
</a>
</g>
</g>
<!-- Node1&#45;&gt;Node23 -->
<g id="edge44" class="edge"><title>Node1&#45;&gt;Node23</title>
<path fill="none" stroke="midnightblue" d="M21.1669,-407.783C25.888,-445.804 44.7319,-583.157 74,-614 75.252,-615.319 76.5929,-616.548 78.0066,-617.692"/>
<polygon fill="midnightblue" stroke="midnightblue" points="76.4856,-620.876 86.7849,-623.361 80.2831,-614.996 76.4856,-620.876"/>
</g>
<!-- Node24 -->
<g id="node24" class="node"><title>Node24</title>
<g id="a_node24"><a xlink:href="classtlz_1_1viewer.html#a2bf9d63d7a1a5ec4d5bdabc13d9ab688" target="_top" xlink:title="tlz::viewer::add_int\l_slider">
<polygon fill="white" stroke="black" points="87.5,-574 87.5,-604 186.5,-604 186.5,-574 87.5,-574"/>
<text text-anchor="start" x="95.5" y="-592" font-family="Helvetica,sans-Serif" font-size="10.00">tlz::viewer::add_int</text>
<text text-anchor="middle" x="137" y="-581" font-family="Helvetica,sans-Serif" font-size="10.00">_slider</text>
</a>
</g>
</g>
<!-- Node1&#45;&gt;Node24 -->
<g id="edge45" class="edge"><title>Node1&#45;&gt;Node24</title>
<path fill="none" stroke="midnightblue" d="M20.347,-407.733C21.8685,-435.909 30.051,-518.491 74,-565 75.4269,-566.51 76.9597,-567.926 78.5764,-569.255"/>
<polygon fill="midnightblue" stroke="midnightblue" points="77.0271,-572.435 87.2577,-575.19 80.9778,-566.657 77.0271,-572.435"/>
</g>
<!-- Node25 -->
<g id="node25" class="node"><title>Node25</title>
<g id="a_node25"><a xlink:href="classtlz_1_1viewer.html#a4be73d43a59e54ac622a45ecb042e351" target="_top" xlink:title="tlz::viewer::add_real\l_slider">
<polygon fill="white" stroke="black" points="85,-525 85,-555 189,-555 189,-525 85,-525"/>
<text text-anchor="start" x="93" y="-543" font-family="Helvetica,sans-Serif" font-size="10.00">tlz::viewer::add_real</text>
<text text-anchor="middle" x="137" y="-532" font-family="Helvetica,sans-Serif" font-size="10.00">_slider</text>
</a>
</g>
</g>
<!-- Node1&#45;&gt;Node25 -->
<g id="edge46" class="edge"><title>Node1&#45;&gt;Node25</title>
<path fill="none" stroke="midnightblue" d="M21.8968,-407.587C26.7167,-429.55 41.4323,-483.994 74,-515 75.6391,-516.561 77.3883,-518.028 79.2212,-519.409"/>
<polygon fill="midnightblue" stroke="midnightblue" points="77.4177,-522.411 87.7124,-524.915 81.2262,-516.537 77.4177,-522.411"/>
</g>
<!-- Node26 -->
<g id="node26" class="node"><title>Node26</title>
<g id="a_node26"><a xlink:href="namespacetlz.html#a91d341001d1d4c6e2e464c33493a646f" target="_top" xlink:title="tlz::make_depth_densify">
<polygon fill="white" stroke="black" points="75.5,-486.5 75.5,-505.5 198.5,-505.5 198.5,-486.5 75.5,-486.5"/>
<text text-anchor="middle" x="137" y="-493.5" font-family="Helvetica,sans-Serif" font-size="10.00">tlz::make_depth_densify</text>
</a>
</g>
</g>
<!-- Node1&#45;&gt;Node26 -->
<g id="edge47" class="edge"><title>Node1&#45;&gt;Node26</title>
<path fill="none" stroke="midnightblue" d="M23.9631,-407.578C31.3281,-424.201 48.7082,-458.393 74,-477 76.6298,-478.935 79.4594,-480.675 82.4098,-482.24"/>
<polygon fill="midnightblue" stroke="midnightblue" points="80.9955,-485.442 91.5444,-486.428 83.9131,-479.079 80.9955,-485.442"/>
</g>
<!-- Node27 -->
<g id="node27" class="node"><title>Node27</title>
<g id="a_node27"><a xlink:href="classtlz_1_1grabber.html#a14d256bd7ef0af5be70f2bd7713a7e54" target="_top" xlink:title="tlz::grabber::grab">
<polygon fill="white" stroke="black" points="92,-448.5 92,-467.5 182,-467.5 182,-448.5 92,-448.5"/>
<text text-anchor="middle" x="137" y="-455.5" font-family="Helvetica,sans-Serif" font-size="10.00">tlz::grabber::grab</text>
</a>
</g>
</g>
<!-- Node1&#45;&gt;Node27 -->
<g id="edge48" class="edge"><title>Node1&#45;&gt;Node27</title>
<path fill="none" stroke="midnightblue" d="M30.4043,-407.697C40.7569,-416.891 57.447,-430.521 74,-439 78.343,-441.225 82.9927,-443.241 87.7207,-445.055"/>
<polygon fill="midnightblue" stroke="midnightblue" points="86.8677,-448.465 97.4625,-448.498 89.2002,-441.865 86.8677,-448.465"/>
</g>
<!-- Node28 -->
<g id="node28" class="node"><title>Node28</title>
<g id="a_node28"><a xlink:href="classtlz_1_1viewer.html#a0ad9ee28b8127c63b2886b04fb36e3dc" target="_top" xlink:title="tlz::viewer::clear">
<polygon fill="white" stroke="black" points="92.5,-410.5 92.5,-429.5 181.5,-429.5 181.5,-410.5 92.5,-410.5"/>
<text text-anchor="middle" x="137" y="-417.5" font-family="Helvetica,sans-Serif" font-size="10.00">tlz::viewer::clear</text>
</a>
</g>
</g>
<!-- Node1&#45;&gt;Node28 -->
<g id="edge49" class="edge"><title>Node1&#45;&gt;Node28</title>
<path fill="none" stroke="midnightblue" d="M38.125,-401.438C50.1563,-403.719 66.6244,-406.843 82.6207,-409.876"/>
<polygon fill="midnightblue" stroke="midnightblue" points="81.9988,-413.321 92.4759,-411.745 83.3032,-406.443 81.9988,-413.321"/>
</g>
<!-- Node31 -->
<g id="node31" class="node"><title>Node31</title>
<g id="a_node31"><a xlink:href="classtlz_1_1grabber.html#a64e9af7d0c0e982539c7465f4c8c2755" target="_top" xlink:title="tlz::grabber::get_color\l_frame">
<polygon fill="white" stroke="black" points="81.5,-361 81.5,-391 192.5,-391 192.5,-361 81.5,-361"/>
<text text-anchor="start" x="89.5" y="-379" font-family="Helvetica,sans-Serif" font-size="10.00">tlz::grabber::get_color</text>
<text text-anchor="middle" x="137" y="-368" font-family="Helvetica,sans-Serif" font-size="10.00">_frame</text>
</a>
</g>
</g>
<!-- Node1&#45;&gt;Node31 -->
<g id="edge52" class="edge"><title>Node1&#45;&gt;Node31</title>
<path fill="none" stroke="midnightblue" d="M38.125,-394.562C47.3764,-392.808 59.2513,-390.556 71.5179,-388.229"/>
<polygon fill="midnightblue" stroke="midnightblue" points="72.224,-391.658 81.3967,-386.356 70.9196,-384.781 72.224,-391.658"/>
</g>
<!-- Node32 -->
<g id="node32" class="node"><title>Node32</title>
<g id="a_node32"><a xlink:href="classtlz_1_1grabber.html#a22caa426aef0275c5cdf9bfebe352940" target="_top" xlink:title="tlz::grabber::get_depth\l_frame">
<polygon fill="white" stroke="black" points="80,-312 80,-342 194,-342 194,-312 80,-312"/>
<text text-anchor="start" x="88" y="-330" font-family="Helvetica,sans-Serif" font-size="10.00">tlz::grabber::get_depth</text>
<text text-anchor="middle" x="137" y="-319" font-family="Helvetica,sans-Serif" font-size="10.00">_frame</text>
</a>
</g>
</g>
<!-- Node1&#45;&gt;Node32 -->
<g id="edge53" class="edge"><title>Node1&#45;&gt;Node32</title>
<path fill="none" stroke="midnightblue" d="M29.5921,-388.128C39.8424,-378.009 56.9335,-362.333 74,-352 77.2173,-350.052 80.6136,-348.197 84.092,-346.442"/>
<polygon fill="midnightblue" stroke="midnightblue" points="85.876,-349.47 93.4246,-342.036 82.8875,-343.14 85.876,-349.47"/>
</g>
<!-- Node33 -->
<g id="node33" class="node"><title>Node33</title>
<g id="a_node33"><a xlink:href="classtlz_1_1kinect__reprojection.html#a0e55570a8afb6c70598495ea716e1dfe" target="_top" xlink:title="tlz::kinect_reprojection\l::reproject_ir_to_color\l_samples">
<polygon fill="white" stroke="black" points="79.5,-252.5 79.5,-293.5 194.5,-293.5 194.5,-252.5 79.5,-252.5"/>
<text text-anchor="start" x="87.5" y="-281.5" font-family="Helvetica,sans-Serif" font-size="10.00">tlz::kinect_reprojection</text>
<text text-anchor="start" x="87.5" y="-270.5" font-family="Helvetica,sans-Serif" font-size="10.00">::reproject_ir_to_color</text>
<text text-anchor="middle" x="137" y="-259.5" font-family="Helvetica,sans-Serif" font-size="10.00">_samples</text>
</a>
</g>
</g>
<!-- Node1&#45;&gt;Node33 -->
<g id="edge54" class="edge"><title>Node1&#45;&gt;Node33</title>
<path fill="none" stroke="midnightblue" d="M23.2394,-388.408C29.9729,-369.738 47.1282,-328.149 74,-303 75.2605,-301.82 76.576,-300.678 77.9363,-299.573"/>
<polygon fill="midnightblue" stroke="midnightblue" points="80.0857,-302.339 86.146,-293.648 75.989,-296.662 80.0857,-302.339"/>
</g>
<!-- Node34 -->
<g id="node34" class="node"><title>Node34</title>
<g id="a_node34"><a xlink:href="classtlz_1_1grabber.html#a412843d3f5dbbcb179e5ae4709577b91" target="_top" xlink:title="tlz::grabber::release">
<polygon fill="white" stroke="black" points="85.5,-214.5 85.5,-233.5 188.5,-233.5 188.5,-214.5 85.5,-214.5"/>
<text text-anchor="middle" x="137" y="-221.5" font-family="Helvetica,sans-Serif" font-size="10.00">tlz::grabber::release</text>
</a>
</g>
</g>
<!-- Node1&#45;&gt;Node34 -->
<g id="edge55" class="edge"><title>Node1&#45;&gt;Node34</title>
<path fill="none" stroke="midnightblue" d="M20.4538,-388.422C22.2546,-361.478 31.0972,-284.308 74,-243 75.6473,-241.414 77.4236,-239.96 79.2979,-238.627"/>
<polygon fill="midnightblue" stroke="midnightblue" points="81.1728,-241.585 88.0485,-233.525 77.6468,-235.538 81.1728,-241.585"/>
</g>
<!-- Node35 -->
<g id="node35" class="node"><title>Node35</title>
<g id="a_node35"><a xlink:href="parallel__wall_8cc.html#afcd23386ba8a2a7d29d328c923075b2d" target="_top" xlink:title="compute_depth_slopes">
<polygon fill="white" stroke="black" points="78.5,-176.5 78.5,-195.5 195.5,-195.5 195.5,-176.5 78.5,-176.5"/>
<text text-anchor="middle" x="137" y="-183.5" font-family="Helvetica,sans-Serif" font-size="10.00">compute_depth_slopes</text>
</a>
</g>
</g>
<!-- Node1&#45;&gt;Node35 -->
<g id="edge56" class="edge"><title>Node1&#45;&gt;Node35</title>
<path fill="none" stroke="midnightblue" d="M19.6846,-388.423C19.2028,-357.353 22,-258.292 74,-205 75.4152,-203.55 76.9379,-202.209 78.546,-200.971"/>
<polygon fill="midnightblue" stroke="midnightblue" points="80.5555,-203.843 87.1958,-195.587 76.8565,-197.9 80.5555,-203.843"/>
</g>
<!-- Node36 -->
<g id="node36" class="node"><title>Node36</title>
<g id="a_node36"><a xlink:href="classtlz_1_1viewer.html#a6a59617413dc76948b6802399ddf555b" target="_top" xlink:title="tlz::viewer::visualize\l_depth">
<polygon fill="white" stroke="black" points="84,-127 84,-157 190,-157 190,-127 84,-127"/>
<text text-anchor="start" x="92" y="-145" font-family="Helvetica,sans-Serif" font-size="10.00">tlz::viewer::visualize</text>
<text text-anchor="middle" x="137" y="-134" font-family="Helvetica,sans-Serif" font-size="10.00">_depth</text>
</a>
</g>
</g>
<!-- Node1&#45;&gt;Node36 -->
<g id="edge57" class="edge"><title>Node1&#45;&gt;Node36</title>
<path fill="none" stroke="midnightblue" d="M21.0606,-388.432C25.5735,-349.268 44.3173,-201.633 74,-167 75.1423,-165.667 76.3661,-164.405 77.6577,-163.208"/>
<polygon fill="midnightblue" stroke="midnightblue" points="79.8817,-165.914 85.702,-157.061 75.6313,-160.352 79.8817,-165.914"/>
</g>
<!-- Node37 -->
<g id="node37" class="node"><title>Node37</title>
<g id="a_node37"><a xlink:href="classtlz_1_1viewer.html#a5f0412cff89a343ad52431689502389d" target="_top" xlink:title="tlz::viewer::draw">
<polygon fill="white" stroke="black" points="92.5,-88.5 92.5,-107.5 181.5,-107.5 181.5,-88.5 92.5,-88.5"/>
<text text-anchor="middle" x="137" y="-95.5" font-family="Helvetica,sans-Serif" font-size="10.00">tlz::viewer::draw</text>
</a>
</g>
</g>
<!-- Node1&#45;&gt;Node37 -->
<g id="edge58" class="edge"><title>Node1&#45;&gt;Node37</title>
<path fill="none" stroke="midnightblue" d="M20.5784,-388.215C23.4063,-343.573 37.1637,-159.609 74,-118 76.706,-114.943 79.8814,-112.351 83.34,-110.153"/>
<polygon fill="midnightblue" stroke="midnightblue" points="85.1393,-113.163 92.4148,-105.461 81.9244,-106.945 85.1393,-113.163"/>
</g>
<!-- Node38 -->
<g id="node38" class="node"><title>Node38</title>
<g id="a_node38"><a xlink:href="classtlz_1_1viewer.html#a09c3c6e9c5a5341576cea9210a6d8246" target="_top" xlink:title="tlz::viewer::draw_2d\l_cross_indicator">
<polygon fill="white" stroke="black" points="85,-39 85,-69 189,-69 189,-39 85,-39"/>
<text text-anchor="start" x="93" y="-57" font-family="Helvetica,sans-Serif" font-size="10.00">tlz::viewer::draw_2d</text>
<text text-anchor="middle" x="137" y="-46" font-family="Helvetica,sans-Serif" font-size="10.00">_cross_indicator</text>
</a>
</g>
</g>
<!-- Node1&#45;&gt;Node38 -->
<g id="edge61" class="edge"><title>Node1&#45;&gt;Node38</title>
<path fill="none" stroke="midnightblue" d="M20.3972,-388.243C22.5371,-340.138 34.1198,-128.559 74,-79 74.9777,-77.785 76.0236,-76.6286 77.1279,-75.5282"/>
<polygon fill="midnightblue" stroke="midnightblue" points="79.5751,-78.0507 85.1579,-69.0461 75.1783,-72.6039 79.5751,-78.0507"/>
</g>
<!-- Node39 -->
<g id="node39" class="node"><title>Node39</title>
<g id="a_node39"><a xlink:href="classtlz_1_1viewer.html#aabb3cdde75783ed1a41801fb236bc50e" target="_top" xlink:title="tlz::viewer::show">
<polygon fill="white" stroke="black" points="91.5,-0.5 91.5,-19.5 182.5,-19.5 182.5,-0.5 91.5,-0.5"/>
<text text-anchor="middle" x="137" y="-7.5" font-family="Helvetica,sans-Serif" font-size="10.00">tlz::viewer::show</text>
</a>
</g>
</g>
<!-- Node1&#45;&gt;Node39 -->
<g id="edge62" class="edge"><title>Node1&#45;&gt;Node39</title>
<path fill="none" stroke="midnightblue" d="M20.0816,-388.467C20.7163,-336.375 26.2432,-86.4433 74,-30 76.445,-27.1103 79.3105,-24.6343 82.4446,-22.5132"/>
<polygon fill="midnightblue" stroke="midnightblue" points="84.1716,-25.558 91.2641,-17.6874 80.8114,-19.4172 84.1716,-25.558"/>
</g>
<!-- Node4 -->
<g id="node4" class="node"><title>Node4</title>
<g id="a_node4"><a xlink:href="namespacetlz.html#a780431daab8d2595372eacb43143b52d" target="_top" xlink:title="tlz::args">
<polygon fill="white" stroke="black" points="684.5,-832.5 684.5,-851.5 736.5,-851.5 736.5,-832.5 684.5,-832.5"/>
<text text-anchor="middle" x="710.5" y="-839.5" font-family="Helvetica,sans-Serif" font-size="10.00">tlz::args</text>
</a>
</g>
</g>
<!-- Node3&#45;&gt;Node4 -->
<g id="edge3" class="edge"><title>Node3&#45;&gt;Node4</title>
<path fill="none" stroke="midnightblue" d="M197.008,-847.38C315.364,-846.138 578.561,-843.375 674.034,-842.372"/>
<polygon fill="midnightblue" stroke="midnightblue" points="674.345,-845.869 684.307,-842.264 674.271,-838.87 674.345,-845.869"/>
</g>
<!-- Node5 -->
<g id="node5" class="node"><title>Node5</title>
<g id="a_node5"><a xlink:href="classtlz_1_1args__list.html#a4aee93f4b0d9b5b4e7a5d13cb637337c" target="_top" xlink:title="tlz::args_list::has\l_next_arg">
<polygon fill="white" stroke="black" points="405.5,-1010 405.5,-1040 497.5,-1040 497.5,-1010 405.5,-1010"/>
<text text-anchor="start" x="413.5" y="-1028" font-family="Helvetica,sans-Serif" font-size="10.00">tlz::args_list::has</text>
<text text-anchor="middle" x="451.5" y="-1017" font-family="Helvetica,sans-Serif" font-size="10.00">_next_arg</text>
</a>
</g>
</g>
<!-- Node3&#45;&gt;Node5 -->
<g id="edge4" class="edge"><title>Node3&#45;&gt;Node5</title>
<path fill="none" stroke="midnightblue" d="M184.556,-857.6C190.136,-860.053 195.456,-863.133 200,-867 227.551,-890.443 209.407,-915.475 236,-940 280.81,-981.325 348.141,-1003.56 395.385,-1014.79"/>
<polygon fill="midnightblue" stroke="midnightblue" points="394.617,-1018.2 405.146,-1017.02 396.179,-1011.38 394.617,-1018.2"/>
</g>
<!-- Node6 -->
<g id="node6" class="node"><title>Node6</title>
<g id="a_node6"><a xlink:href="namespacetlz.html#a634de7ca11e100e4a118dffe80376a75" target="_top" xlink:title="tlz::in_filename_arg">
<polygon fill="white" stroke="black" points="401,-743.5 401,-762.5 502,-762.5 502,-743.5 401,-743.5"/>
<text text-anchor="middle" x="451.5" y="-750.5" font-family="Helvetica,sans-Serif" font-size="10.00">tlz::in_filename_arg</text>
</a>
</g>
</g>
<!-- Node3&#45;&gt;Node6 -->
<g id="edge5" class="edge"><title>Node3&#45;&gt;Node6</title>
<path fill="none" stroke="midnightblue" d="M147.535,-838.397C163.957,-822.527 199.359,-791.178 236,-777 285.662,-757.784 346.286,-752.506 390.398,-751.614"/>
<polygon fill="midnightblue" stroke="midnightblue" points="390.721,-755.11 400.675,-751.479 390.629,-748.11 390.721,-755.11"/>
</g>
<!-- Node12 -->
<g id="node12" class="node"><title>Node12</title>
<g id="a_node12"><a xlink:href="namespacetlz.html#a65770a2c1ff57c5ae6542d4465a3d3f4" target="_top" xlink:title="tlz::out_filename_arg">
<polygon fill="white" stroke="black" points="398,-857.5 398,-876.5 505,-876.5 505,-857.5 398,-857.5"/>
<text text-anchor="middle" x="451.5" y="-864.5" font-family="Helvetica,sans-Serif" font-size="10.00">tlz::out_filename_arg</text>
</a>
</g>
</g>
<!-- Node3&#45;&gt;Node12 -->
<g id="edge14" class="edge"><title>Node3&#45;&gt;Node12</title>
<path fill="none" stroke="midnightblue" d="M197.146,-851.596C251.618,-854.908 332.175,-859.806 387.758,-863.185"/>
<polygon fill="midnightblue" stroke="midnightblue" points="387.64,-866.685 397.834,-863.798 388.065,-859.697 387.64,-866.685"/>
</g>
<!-- Node13 -->
<g id="node13" class="node"><title>Node13</title>
<g id="a_node13"><a xlink:href="namespacetlz.html#a4791154460ea7bf2fa5984b1748bc9d1" target="_top" xlink:title="tlz::out_filename_opt_arg">
<polygon fill="white" stroke="black" points="236,-911.5 236,-930.5 362,-930.5 362,-911.5 236,-911.5"/>
<text text-anchor="middle" x="299" y="-918.5" font-family="Helvetica,sans-Serif" font-size="10.00">tlz::out_filename_opt_arg</text>
</a>
</g>
</g>
<!-- Node3&#45;&gt;Node13 -->
<g id="edge16" class="edge"><title>Node3&#45;&gt;Node13</title>
<path fill="none" stroke="midnightblue" d="M173.535,-857.513C182.312,-860.237 191.603,-863.445 200,-867 226.288,-878.13 254.688,-894.276 274.113,-906.011"/>
<polygon fill="midnightblue" stroke="midnightblue" points="272.523,-909.142 282.88,-911.377 276.178,-903.171 272.523,-909.142"/>
</g>
<!-- Node15 -->
<g id="node15" class="node"><title>Node15</title>
<g id="a_node15"><a xlink:href="namespacetlz.html#a0783a9e66143c507b2680fc68834657c" target="_top" xlink:title="tlz::out_dirname_arg">
<polygon fill="white" stroke="black" points="399,-1059.5 399,-1078.5 504,-1078.5 504,-1059.5 399,-1059.5"/>
<text text-anchor="middle" x="451.5" y="-1066.5" font-family="Helvetica,sans-Serif" font-size="10.00">tlz::out_dirname_arg</text>
</a>
</g>
</g>
<!-- Node3&#45;&gt;Node15 -->
<g id="edge24" class="edge"><title>Node3&#45;&gt;Node15</title>
<path fill="none" stroke="midnightblue" d="M186.418,-857.513C191.432,-859.984 196.106,-863.092 200,-867 239.002,-906.142 198.572,-945.351 236,-986 275.77,-1029.19 340.62,-1050.15 388.618,-1060.17"/>
<polygon fill="midnightblue" stroke="midnightblue" points="388.1,-1063.63 398.59,-1062.14 389.461,-1056.76 388.1,-1063.63"/>
</g>
<!-- Node16 -->
<g id="node16" class="node"><title>Node16</title>
<g id="a_node16"><a xlink:href="namespacetlz.html#a401e3de191fb11547a91972b97244c3a" target="_top" xlink:title="tlz::out_dirname_opt_arg">
<polygon fill="white" stroke="black" points="237,-1078.5 237,-1097.5 361,-1097.5 361,-1078.5 237,-1078.5"/>
<text text-anchor="middle" x="299" y="-1085.5" font-family="Helvetica,sans-Serif" font-size="10.00">tlz::out_dirname_opt_arg</text>
</a>
</g>
</g>
<!-- Node3&#45;&gt;Node16 -->
<g id="edge26" class="edge"><title>Node3&#45;&gt;Node16</title>
<path fill="none" stroke="midnightblue" d="M187.72,-857.609C192.314,-860.071 196.536,-863.151 200,-867 256.035,-929.262 187.435,-983.751 236,-1052 242.575,-1061.24 252.323,-1068.46 262.153,-1073.93"/>
<polygon fill="midnightblue" stroke="midnightblue" points="260.612,-1077.08 271.114,-1078.47 263.775,-1070.83 260.612,-1077.08"/>
</g>
<!-- Node17 -->
<g id="node17" class="node"><title>Node17</title>
<g id="a_node17"><a xlink:href="namespacetlz.html#af0d1e8ba5b9f2dbc2b589afab3a21fc8" target="_top" xlink:title="tlz::int_arg">
<polygon fill="white" stroke="black" points="548.5,-781.5 548.5,-800.5 610.5,-800.5 610.5,-781.5 548.5,-781.5"/>
<text text-anchor="middle" x="579.5" y="-788.5" font-family="Helvetica,sans-Serif" font-size="10.00">tlz::int_arg</text>
</a>
</g>
</g>
<!-- Node3&#45;&gt;Node17 -->
<g id="edge32" class="edge"><title>Node3&#45;&gt;Node17</title>
<path fill="none" stroke="midnightblue" d="M160.91,-838.428C180.487,-830.703 209.594,-820.281 236,-815 343.691,-793.463 473.775,-790.495 538.24,-790.524"/>
<polygon fill="midnightblue" stroke="midnightblue" points="538.371,-794.024 548.381,-790.553 538.391,-787.024 538.371,-794.024"/>
</g>
<!-- Node6&#45;&gt;Node4 -->
<g id="edge12" class="edge"><title>Node6&#45;&gt;Node4</title>
<path fill="none" stroke="midnightblue" d="M502.351,-751.876C536.117,-752.738 581.124,-757.114 618,-772 647.646,-783.967 675.943,-808.281 693.018,-824.857"/>
<polygon fill="midnightblue" stroke="midnightblue" points="690.906,-827.694 700.455,-832.285 695.853,-822.742 690.906,-827.694"/>
</g>
<!-- Node7 -->
<g id="node7" class="node"><title>Node7</title>
<g id="a_node7"><a xlink:href="namespacetlz.html#a0621d598fb83b13bf028f3e6293d04f8" target="_top" xlink:title="tlz::string_arg">
<polygon fill="white" stroke="black" points="541.5,-857.5 541.5,-876.5 617.5,-876.5 617.5,-857.5 541.5,-857.5"/>
<text text-anchor="middle" x="579.5" y="-864.5" font-family="Helvetica,sans-Serif" font-size="10.00">tlz::string_arg</text>
</a>
</g>
</g>
<!-- Node6&#45;&gt;Node7 -->
<g id="edge6" class="edge"><title>Node6&#45;&gt;Node7</title>
<path fill="none" stroke="midnightblue" d="M463.243,-762.72C484.816,-782.238 533.617,-826.391 560.276,-850.512"/>
<polygon fill="midnightblue" stroke="midnightblue" points="558.021,-853.191 567.785,-857.305 562.717,-848 558.021,-853.191"/>
</g>
<!-- Node9 -->
<g id="node9" class="node"><title>Node9</title>
<g id="a_node9"><a xlink:href="classtlz_1_1args__list.html#a38ad21acd64a4af98ffdf4a47837cdbe" target="_top" xlink:title="tlz::args_list::usage_fail">
<polygon fill="white" stroke="black" points="803,-857.5 803,-876.5 923,-876.5 923,-857.5 803,-857.5"/>
<text text-anchor="middle" x="863" y="-864.5" font-family="Helvetica,sans-Serif" font-size="10.00">tlz::args_list::usage_fail</text>
</a>
</g>
</g>
<!-- Node6&#45;&gt;Node9 -->
<g id="edge13" class="edge"><title>Node6&#45;&gt;Node9</title>
<path fill="none" stroke="midnightblue" d="M465.404,-743.38C485.787,-728.413 524.782,-700.771 541,-696 573.831,-686.342 585.239,-686.108 618,-696 716.522,-725.747 809.28,-812.538 845.728,-849.742"/>
<polygon fill="midnightblue" stroke="midnightblue" points="843.546,-852.521 853.009,-857.286 848.583,-847.66 843.546,-852.521"/>
</g>
<!-- Node11 -->
<g id="node11" class="node"><title>Node11</title>
<g id="a_node11"><a xlink:href="namespacetlz.html#abb019466ea9f56c0dab27e893d891837" target="_top" xlink:title="tlz::file_exists">
<polygon fill="white" stroke="black" points="541,-705.5 541,-724.5 618,-724.5 618,-705.5 541,-705.5"/>
<text text-anchor="middle" x="579.5" y="-712.5" font-family="Helvetica,sans-Serif" font-size="10.00">tlz::file_exists</text>
</a>
</g>
</g>
<!-- Node6&#45;&gt;Node11 -->
<g id="edge11" class="edge"><title>Node6&#45;&gt;Node11</title>
<path fill="none" stroke="midnightblue" d="M484.295,-743.411C500.262,-738.596 519.807,-732.701 536.947,-727.532"/>
<polygon fill="midnightblue" stroke="midnightblue" points="538.152,-730.824 546.715,-724.586 536.13,-724.122 538.152,-730.824"/>
</g>
<!-- Node7&#45;&gt;Node4 -->
<g id="edge7" class="edge"><title>Node7&#45;&gt;Node4</title>
<path fill="none" stroke="midnightblue" d="M617.812,-859.769C635.602,-856.321 656.77,-852.219 674.282,-848.825"/>
<polygon fill="midnightblue" stroke="midnightblue" points="674.966,-852.258 684.117,-846.919 673.634,-845.386 674.966,-852.258"/>
</g>
<!-- Node8 -->
<g id="node8" class="node"><title>Node8</title>
<g id="a_node8"><a xlink:href="classtlz_1_1args__list.html#a73d99bc75998dc14607a3a372d28dc6d" target="_top" xlink:title="tlz::args_list::next_arg">
<polygon fill="white" stroke="black" points="654,-924.5 654,-943.5 767,-943.5 767,-924.5 654,-924.5"/>
<text text-anchor="middle" x="710.5" y="-931.5" font-family="Helvetica,sans-Serif" font-size="10.00">tlz::args_list::next_arg</text>
</a>
</g>
</g>
<!-- Node7&#45;&gt;Node8 -->
<g id="edge8" class="edge"><title>Node7&#45;&gt;Node8</title>
<path fill="none" stroke="midnightblue" d="M598.983,-876.599C620.727,-887.893 657.032,-906.749 682.064,-919.75"/>
<polygon fill="midnightblue" stroke="midnightblue" points="680.564,-922.915 691.052,-924.418 683.791,-916.703 680.564,-922.915"/>
</g>
<!-- Node8&#45;&gt;Node9 -->
<g id="edge9" class="edge"><title>Node8&#45;&gt;Node9</title>
<path fill="none" stroke="midnightblue" d="M733.063,-924.401C758.767,-912.957 801.91,-893.751 831.142,-880.737"/>
<polygon fill="midnightblue" stroke="midnightblue" points="832.765,-883.846 840.477,-876.582 829.918,-877.451 832.765,-883.846"/>
</g>
<!-- Node10 -->
<g id="node10" class="node"><title>Node10</title>
<g id="a_node10"><a xlink:href="namespacetlz.html#a8e4f8c8c2927bc4350de13bfa0f8f9e1" target="_top" xlink:title="tlz::to_string">
<polygon fill="white" stroke="black" points="827.5,-959.5 827.5,-978.5 898.5,-978.5 898.5,-959.5 827.5,-959.5"/>
<text text-anchor="middle" x="863" y="-966.5" font-family="Helvetica,sans-Serif" font-size="10.00">tlz::to_string</text>
</a>
</g>
</g>
<!-- Node8&#45;&gt;Node10 -->
<g id="edge10" class="edge"><title>Node8&#45;&gt;Node10</title>
<path fill="none" stroke="midnightblue" d="M752.625,-943.564C772.578,-948.204 796.593,-953.789 817.031,-958.542"/>
<polygon fill="midnightblue" stroke="midnightblue" points="816.514,-962.015 827.047,-960.871 818.099,-955.197 816.514,-962.015"/>
</g>
<!-- Node12&#45;&gt;Node7 -->
<g id="edge15" class="edge"><title>Node12&#45;&gt;Node7</title>
<path fill="none" stroke="midnightblue" d="M505.205,-867C513.835,-867 522.73,-867 531.218,-867"/>
<polygon fill="midnightblue" stroke="midnightblue" points="531.324,-870.5 541.324,-867 531.324,-863.5 531.324,-870.5"/>
</g>
<!-- Node13&#45;&gt;Node4 -->
<g id="edge17" class="edge"><title>Node13&#45;&gt;Node4</title>
<path fill="none" stroke="midnightblue" d="M362.151,-920.329C427.133,-918.208 531.5,-910.773 618,-886 641.734,-879.203 666.887,-866.672 684.802,-856.717"/>
<polygon fill="midnightblue" stroke="midnightblue" points="686.997,-859.494 693.955,-851.504 683.533,-853.412 686.997,-859.494"/>
</g>
<!-- Node13&#45;&gt;Node5 -->
<g id="edge18" class="edge"><title>Node13&#45;&gt;Node5</title>
<path fill="none" stroke="midnightblue" d="M316.616,-930.576C329.433,-938.23 347.383,-949.54 362,-961 379.32,-974.578 380.321,-981.893 398,-995 402.533,-998.361 407.476,-1001.63 412.459,-1004.7"/>
<polygon fill="midnightblue" stroke="midnightblue" points="411.001,-1007.91 421.388,-1010 414.569,-1001.89 411.001,-1007.91"/>
</g>
<!-- Node13&#45;&gt;Node8 -->
<g id="edge22" class="edge"><title>Node13&#45;&gt;Node8</title>
<path fill="none" stroke="midnightblue" d="M362.194,-922.974C438.21,-925.388 566.269,-929.453 643.831,-931.915"/>
<polygon fill="midnightblue" stroke="midnightblue" points="643.857,-935.418 653.963,-932.237 644.08,-928.421 643.857,-935.418"/>
</g>
<!-- Node13&#45;&gt;Node12 -->
<g id="edge23" class="edge"><title>Node13&#45;&gt;Node12</title>
<path fill="none" stroke="midnightblue" d="M326.56,-911.47C350.986,-902.706 387.406,-889.638 414.452,-879.934"/>
<polygon fill="midnightblue" stroke="midnightblue" points="415.722,-883.197 423.953,-876.525 413.358,-876.608 415.722,-883.197"/>
</g>
<!-- Node14 -->
<g id="node14" class="node"><title>Node14</title>
<g id="a_node14"><a xlink:href="classtlz_1_1args__list.html#ae7c07d1c8f24c2aa4fe0ba68ec45d353" target="_top" xlink:title="tlz::args_list::next\l_arg_is">
<polygon fill="white" stroke="black" points="663,-990 663,-1020 758,-1020 758,-990 663,-990"/>
<text text-anchor="start" x="671" y="-1008" font-family="Helvetica,sans-Serif" font-size="10.00">tlz::args_list::next</text>
<text text-anchor="middle" x="710.5" y="-997" font-family="Helvetica,sans-Serif" font-size="10.00">_arg_is</text>
</a>
</g>
</g>
<!-- Node13&#45;&gt;Node14 -->
<g id="edge19" class="edge"><title>Node13&#45;&gt;Node14</title>
<path fill="none" stroke="midnightblue" d="M346.576,-930.554C422.163,-946.059 571.286,-976.648 652.88,-993.386"/>
<polygon fill="midnightblue" stroke="midnightblue" points="652.468,-996.874 662.967,-995.455 653.875,-990.017 652.468,-996.874"/>
</g>
<!-- Node14&#45;&gt;Node9 -->
<g id="edge20" class="edge"><title>Node14&#45;&gt;Node9</title>
<path fill="none" stroke="midnightblue" d="M727.893,-989.969C756.305,-963.917 814.478,-910.575 843.983,-883.521"/>
<polygon fill="midnightblue" stroke="midnightblue" points="846.49,-885.97 851.496,-876.632 841.76,-880.811 846.49,-885.97"/>
</g>
<!-- Node14&#45;&gt;Node10 -->
<g id="edge21" class="edge"><title>Node14&#45;&gt;Node10</title>
<path fill="none" stroke="midnightblue" d="M758.294,-993.807C777.078,-989.314 798.636,-984.157 817.214,-979.713"/>
<polygon fill="midnightblue" stroke="midnightblue" points="818.28,-983.057 827.192,-977.326 816.652,-976.249 818.28,-983.057"/>
</g>
<!-- Node15&#45;&gt;Node7 -->
<g id="edge25" class="edge"><title>Node15&#45;&gt;Node7</title>
<path fill="none" stroke="midnightblue" d="M492.005,-1059.43C496.831,-1056.97 501.341,-1053.88 505,-1050 543.506,-1009.19 518.297,-980.309 541,-929 547.828,-913.569 557.796,-897.286 565.74,-885.281"/>
<polygon fill="midnightblue" stroke="midnightblue" points="568.864,-886.91 571.577,-876.669 563.069,-882.983 568.864,-886.91"/>
</g>
<!-- Node16&#45;&gt;Node4 -->
<g id="edge27" class="edge"><title>Node16&#45;&gt;Node4</title>
<path fill="none" stroke="midnightblue" d="M331.571,-1097.55C374.366,-1108.51 451.565,-1121.02 505,-1088 535.434,-1069.19 520.314,-1045.19 541,-1016 586.948,-951.159 656.884,-887.227 690.351,-858.199"/>
<polygon fill="midnightblue" stroke="midnightblue" points="692.735,-860.764 698.037,-851.591 688.172,-855.456 692.735,-860.764"/>
</g>
<!-- Node16&#45;&gt;Node5 -->
<g id="edge28" class="edge"><title>Node16&#45;&gt;Node5</title>
<path fill="none" stroke="midnightblue" d="M322.858,-1078.43C344.631,-1069.32 378.021,-1055.34 405.19,-1043.97"/>
<polygon fill="midnightblue" stroke="midnightblue" points="406.638,-1047.16 414.511,-1040.07 403.935,-1040.7 406.638,-1047.16"/>
</g>
<!-- Node16&#45;&gt;Node8 -->
<g id="edge30" class="edge"><title>Node16&#45;&gt;Node8</title>
<path fill="none" stroke="midnightblue" d="M319.094,-1097.53C356.213,-1114.69 440.148,-1146.69 505,-1121 589.482,-1087.54 586.194,-1041.49 654,-981 665.746,-970.521 679.214,-959.101 689.942,-950.143"/>
<polygon fill="midnightblue" stroke="midnightblue" points="692.419,-952.635 697.872,-943.551 687.944,-947.252 692.419,-952.635"/>
</g>
<!-- Node16&#45;&gt;Node14 -->
<g id="edge29" class="edge"><title>Node16&#45;&gt;Node14</title>
<path fill="none" stroke="midnightblue" d="M308.862,-1097.53C324.812,-1113.89 360.227,-1146.75 398,-1159 491.012,-1189.15 533.018,-1207.36 618,-1159 666.71,-1131.28 692.184,-1066.27 702.997,-1030.21"/>
<polygon fill="midnightblue" stroke="midnightblue" points="706.407,-1031.02 705.779,-1020.44 699.674,-1029.1 706.407,-1031.02"/>
</g>
<!-- Node16&#45;&gt;Node15 -->
<g id="edge31" class="edge"><title>Node16&#45;&gt;Node15</title>
<path fill="none" stroke="midnightblue" d="M361.214,-1080.27C370.32,-1079.12 379.71,-1077.94 388.825,-1076.79"/>
<polygon fill="midnightblue" stroke="midnightblue" points="389.487,-1080.23 398.97,-1075.51 388.61,-1073.29 389.487,-1080.23"/>
</g>
<!-- Node17&#45;&gt;Node4 -->
<g id="edge33" class="edge"><title>Node17&#45;&gt;Node4</title>
<path fill="none" stroke="midnightblue" d="M604.764,-800.593C624.854,-808.535 653.616,-819.906 675.917,-828.723"/>
<polygon fill="midnightblue" stroke="midnightblue" points="674.758,-832.029 685.345,-832.45 677.332,-825.519 674.758,-832.029"/>
</g>
<!-- Node17&#45;&gt;Node8 -->
<g id="edge34" class="edge"><title>Node17&#45;&gt;Node8</title>
<path fill="none" stroke="midnightblue" d="M589.367,-800.829C611.012,-824.823 666.768,-886.63 694.029,-916.851"/>
<polygon fill="midnightblue" stroke="midnightblue" points="691.614,-919.398 700.911,-924.479 696.812,-914.709 691.614,-919.398"/>
</g>
<!-- Node17&#45;&gt;Node9 -->
<g id="edge35" class="edge"><title>Node17&#45;&gt;Node9</title>
<path fill="none" stroke="midnightblue" d="M610.789,-793.718C648.169,-797.633 713.363,-806.3 767,-823 791.237,-830.546 817.302,-842.953 835.988,-852.673"/>
<polygon fill="midnightblue" stroke="midnightblue" points="834.563,-855.879 845.038,-857.47 837.842,-849.694 834.563,-855.879"/>
</g>
<!-- Node19 -->
<g id="node19" class="node"><title>Node19</title>
<g id="a_node19"><a xlink:href="namespacetlz.html#a8cba4853d0d796a01c72f59f36f2a492" target="_top" xlink:title="tlz::decode_intrinsics">
<polygon fill="white" stroke="black" points="244.5,-667.5 244.5,-686.5 353.5,-686.5 353.5,-667.5 244.5,-667.5"/>
<text text-anchor="middle" x="299" y="-674.5" font-family="Helvetica,sans-Serif" font-size="10.00">tlz::decode_intrinsics</text>
</a>
</g>
</g>
<!-- Node18&#45;&gt;Node19 -->
<g id="edge37" class="edge"><title>Node18&#45;&gt;Node19</title>
<path fill="none" stroke="midnightblue" d="M200.318,-677C211.47,-677 223.104,-677 234.295,-677"/>
<polygon fill="midnightblue" stroke="midnightblue" points="234.42,-680.5 244.42,-677 234.42,-673.5 234.42,-680.5"/>
</g>
<!-- Node20 -->
<g id="node20" class="node"><title>Node20</title>
<g id="a_node20"><a xlink:href="namespacetlz.html#a066563a26e2de02f215b179f3d3a53da" target="_top" xlink:title="tlz::decode_mat">
<polygon fill="white" stroke="black" points="408.5,-629.5 408.5,-648.5 494.5,-648.5 494.5,-629.5 408.5,-629.5"/>
<text text-anchor="middle" x="451.5" y="-636.5" font-family="Helvetica,sans-Serif" font-size="10.00">tlz::decode_mat</text>
</a>
</g>
</g>
<!-- Node18&#45;&gt;Node20 -->
<g id="edge42" class="edge"><title>Node18&#45;&gt;Node20</title>
<path fill="none" stroke="midnightblue" d="M200.049,-663.969C211.946,-661.755 224.33,-659.644 236,-658 291.179,-650.228 354.818,-645.066 398.36,-642.108"/>
<polygon fill="midnightblue" stroke="midnightblue" points="398.684,-645.595 408.43,-641.439 398.22,-638.61 398.684,-645.595"/>
</g>
<!-- Node21 -->
<g id="node21" class="node"><title>Node21</title>
<g id="a_node21"><a xlink:href="namespacetlz.html#a252af14b9b4ac6502d3e9c5dd8dc90b8" target="_top" xlink:title="tlz::has">
<polygon fill="white" stroke="black" points="555,-629.5 555,-648.5 604,-648.5 604,-629.5 555,-629.5"/>
<text text-anchor="middle" x="579.5" y="-636.5" font-family="Helvetica,sans-Serif" font-size="10.00">tlz::has</text>
</a>
</g>
</g>
<!-- Node18&#45;&gt;Node21 -->
<g id="edge43" class="edge"><title>Node18&#45;&gt;Node21</title>
<path fill="none" stroke="midnightblue" d="M176.274,-661.946C198.494,-653.403 224.337,-643.86 236,-641 352.469,-612.439 386.039,-604.873 505,-620 518.279,-621.689 532.59,-625.028 545.024,-628.442"/>
<polygon fill="midnightblue" stroke="midnightblue" points="544.386,-631.9 554.964,-631.293 546.316,-625.172 544.386,-631.9"/>
</g>
<!-- Node19&#45;&gt;Node20 -->
<g id="edge38" class="edge"><title>Node19&#45;&gt;Node20</title>
<path fill="none" stroke="midnightblue" d="M337.978,-667.411C357.659,-662.442 381.891,-656.323 402.821,-651.039"/>
<polygon fill="midnightblue" stroke="midnightblue" points="403.957,-654.362 412.796,-648.52 402.243,-647.575 403.957,-654.362"/>
</g>
<!-- Node19&#45;&gt;Node21 -->
<g id="edge39" class="edge"><title>Node19&#45;&gt;Node21</title>
<path fill="none" stroke="midnightblue" d="M325.631,-686.538C365.479,-699.814 444.04,-719.712 505,-696 525.229,-688.131 523.795,-676.233 541,-663 544.929,-659.978 549.242,-656.964 553.501,-654.144"/>
<polygon fill="midnightblue" stroke="midnightblue" points="555.491,-657.026 562.026,-648.687 551.717,-651.131 555.491,-657.026"/>
</g>
<!-- Node22 -->
<g id="node22" class="node"><title>Node22</title>
<g id="a_node22"><a xlink:href="namespacetlz.html#add846dc50c32dfb356cb1a7ac11d37ac" target="_top" xlink:title="tlz::get_or">
<polygon fill="white" stroke="black" points="421.5,-667.5 421.5,-686.5 481.5,-686.5 481.5,-667.5 421.5,-667.5"/>
<text text-anchor="middle" x="451.5" y="-674.5" font-family="Helvetica,sans-Serif" font-size="10.00">tlz::get_or</text>
</a>
</g>
</g>
<!-- Node19&#45;&gt;Node22 -->
<g id="edge40" class="edge"><title>Node19&#45;&gt;Node22</title>
<path fill="none" stroke="midnightblue" d="M353.909,-677C372.768,-677 393.576,-677 411.035,-677"/>
<polygon fill="midnightblue" stroke="midnightblue" points="411.425,-680.5 421.425,-677 411.425,-673.5 411.425,-680.5"/>
</g>
<!-- Node22&#45;&gt;Node21 -->
<g id="edge41" class="edge"><title>Node22&#45;&gt;Node21</title>
<path fill="none" stroke="midnightblue" d="M481.724,-668.187C500.667,-662.473 525.396,-655.016 545.114,-649.069"/>
<polygon fill="midnightblue" stroke="midnightblue" points="546.348,-652.352 554.911,-646.114 544.327,-645.651 546.348,-652.352"/>
</g>
<!-- Node29 -->
<g id="node29" class="node"><title>Node29</title>
<g id="a_node29"><a xlink:href="classtlz_1_1viewer.html#af74a8aef9dde68eeff6b1e2561b39014" target="_top" xlink:title="tlz::viewer::height">
<polygon fill="white" stroke="black" points="252,-159.5 252,-178.5 346,-178.5 346,-159.5 252,-159.5"/>
<text text-anchor="middle" x="299" y="-166.5" font-family="Helvetica,sans-Serif" font-size="10.00">tlz::viewer::height</text>
</a>
</g>
</g>
<!-- Node28&#45;&gt;Node29 -->
<g id="edge50" class="edge"><title>Node28&#45;&gt;Node29</title>
<path fill="none" stroke="midnightblue" d="M181.612,-412.903C188.474,-410.133 194.954,-406.3 200,-401 244.895,-353.846 209.11,-318.295 236,-259 248.279,-231.925 268.753,-204.277 282.791,-186.901"/>
<polygon fill="midnightblue" stroke="midnightblue" points="285.803,-188.749 289.467,-178.808 280.404,-184.294 285.803,-188.749"/>
</g>
<!-- Node30 -->
<g id="node30" class="node"><title>Node30</title>
<g id="a_node30"><a xlink:href="classtlz_1_1viewer.html#acc43bf1dd1d0c3cdc35a948d4c194769" target="_top" xlink:title="tlz::viewer::width">
<polygon fill="white" stroke="black" points="253.5,-268.5 253.5,-287.5 344.5,-287.5 344.5,-268.5 253.5,-268.5"/>
<text text-anchor="middle" x="299" y="-275.5" font-family="Helvetica,sans-Serif" font-size="10.00">tlz::viewer::width</text>
</a>
</g>
</g>
<!-- Node28&#45;&gt;Node30 -->
<g id="edge51" class="edge"><title>Node28&#45;&gt;Node30</title>
<path fill="none" stroke="midnightblue" d="M181.236,-410.449C187.832,-407.966 194.323,-404.865 200,-401 240.805,-373.221 272.854,-323.33 288.162,-296.415"/>
<polygon fill="midnightblue" stroke="midnightblue" points="291.248,-298.067 293.029,-287.622 285.124,-294.676 291.248,-298.067"/>
</g>
<!-- Node37&#45;&gt;Node29 -->
<g id="edge60" class="edge"><title>Node37&#45;&gt;Node29</title>
<path fill="none" stroke="midnightblue" d="M171.194,-107.575C180.621,-110.599 190.817,-114.161 200,-118 225.549,-128.68 253.45,-143.534 272.924,-154.458"/>
<polygon fill="midnightblue" stroke="midnightblue" points="271.335,-157.581 281.76,-159.469 274.788,-151.492 271.335,-157.581"/>
</g>
<!-- Node37&#45;&gt;Node30 -->
<g id="edge59" class="edge"><title>Node37&#45;&gt;Node30</title>
<path fill="none" stroke="midnightblue" d="M181.642,-107.23C188.262,-109.948 194.654,-113.462 200,-118 226.669,-140.642 218.04,-157.978 236,-188 251.428,-213.79 271.499,-242.119 284.562,-259.973"/>
<polygon fill="midnightblue" stroke="midnightblue" points="281.94,-262.315 290.692,-268.286 287.574,-258.16 281.94,-262.315"/>
</g>
</g>
</svg>
