<?xml version="1.0" encoding="UTF-8" standalone="no"?>
<!DOCTYPE svg PUBLIC "-//W3C//DTD SVG 1.1//EN"
 "http://www.w3.org/Graphics/SVG/1.1/DTD/svg11.dtd">
<!-- Generated by graphviz version 2.38.0 (20140413.2041)
 -->
<!-- Title: main Pages: 1 -->
<svg width="601pt" height="142pt"
 viewBox="0.00 0.00 601.00 142.00" xmlns="http://www.w3.org/2000/svg" xmlns:xlink="http://www.w3.org/1999/xlink">
<g id="graph0" class="graph" transform="scale(1 1) rotate(0) translate(4 138)">
<title>main</title>
<polygon fill="white" stroke="none" points="-4,4 -4,-138 597,-138 597,4 -4,4"/>
<!-- Node1 -->
<g id="node1" class="node"><title>Node1</title>
<polygon fill="#bfbfbf" stroke="black" points="0,-76.5 0,-95.5 38,-95.5 38,-76.5 0,-76.5"/>
<text text-anchor="middle" x="19" y="-83.5" font-family="Helvetica,sans-Serif" font-size="10.00">main</text>
</g>
<!-- Node2 -->
<g id="node2" class="node"><title>Node2</title>
<g id="a_node2"><a xlink:href="namespacetlz.html#a3c03f5d9d6261ec2909938822fc47f8a" target="_top" xlink:title="tlz::get_args">
<polygon fill="white" stroke="black" points="89,-95.5 89,-114.5 160,-114.5 160,-95.5 89,-95.5"/>
<text text-anchor="middle" x="124.5" y="-102.5" font-family="Helvetica,sans-Serif" font-size="10.00">tlz::get_args</text>
</a>
</g>
</g>
<!-- Node1&#45;&gt;Node2 -->
<g id="edge1" class="edge"><title>Node1&#45;&gt;Node2</title>
<path fill="none" stroke="midnightblue" d="M38.0283,-89.3095C49.3067,-91.38 64.3701,-94.1452 78.7078,-96.7773"/>
<polygon fill="midnightblue" stroke="midnightblue" points="78.4874,-100.295 88.9551,-98.6584 79.7514,-93.4103 78.4874,-100.295"/>
</g>
<!-- Node3 -->
<g id="node3" class="node"><title>Node3</title>
<g id="a_node3"><a xlink:href="namespacetlz.html#a634de7ca11e100e4a118dffe80376a75" target="_top" xlink:title="tlz::in_filename_arg">
<polygon fill="white" stroke="black" points="74,-57.5 74,-76.5 175,-76.5 175,-57.5 74,-57.5"/>
<text text-anchor="middle" x="124.5" y="-64.5" font-family="Helvetica,sans-Serif" font-size="10.00">tlz::in_filename_arg</text>
</a>
</g>
</g>
<!-- Node1&#45;&gt;Node3 -->
<g id="edge2" class="edge"><title>Node1&#45;&gt;Node3</title>
<path fill="none" stroke="midnightblue" d="M38.0283,-82.6905C45.4218,-81.3332 54.4418,-79.6774 63.8176,-77.9562"/>
<polygon fill="midnightblue" stroke="midnightblue" points="64.46,-81.3968 73.6637,-76.1487 63.1961,-74.5119 64.46,-81.3968"/>
</g>
<!-- Node4 -->
<g id="node4" class="node"><title>Node4</title>
<g id="a_node4"><a xlink:href="namespacetlz.html#a0621d598fb83b13bf028f3e6293d04f8" target="_top" xlink:title="tlz::string_arg">
<polygon fill="white" stroke="black" points="211.5,-76.5 211.5,-95.5 287.5,-95.5 287.5,-76.5 211.5,-76.5"/>
<text text-anchor="middle" x="249.5" y="-83.5" font-family="Helvetica,sans-Serif" font-size="10.00">tlz::string_arg</text>
</a>
</g>
</g>
<!-- Node3&#45;&gt;Node4 -->
<g id="edge3" class="edge"><title>Node3&#45;&gt;Node4</title>
<path fill="none" stroke="midnightblue" d="M175.174,-74.6733C183.706,-75.9912 192.554,-77.358 201.027,-78.6667"/>
<polygon fill="midnightblue" stroke="midnightblue" points="200.712,-82.1595 211.129,-80.2272 201.781,-75.2416 200.712,-82.1595"/>
</g>
<!-- Node5 -->
<g id="node5" class="node"><title>Node5</title>
<g id="a_node5"><a xlink:href="namespacetlz.html#a780431daab8d2595372eacb43143b52d" target="_top" xlink:title="tlz::args">
<polygon fill="white" stroke="black" points="354.5,-114.5 354.5,-133.5 406.5,-133.5 406.5,-114.5 354.5,-114.5"/>
<text text-anchor="middle" x="380.5" y="-121.5" font-family="Helvetica,sans-Serif" font-size="10.00">tlz::args</text>
</a>
</g>
</g>
<!-- Node3&#45;&gt;Node5 -->
<g id="edge9" class="edge"><title>Node3&#45;&gt;Node5</title>
<path fill="none" stroke="midnightblue" d="M152.201,-76.5811C159.655,-79.4357 167.708,-82.6902 175,-86 191.474,-93.477 193.711,-99.6716 211,-105 255.617,-118.751 309.622,-122.756 344.259,-123.813"/>
<polygon fill="midnightblue" stroke="midnightblue" points="344.274,-127.315 354.354,-124.054 344.441,-120.317 344.274,-127.315"/>
</g>
<!-- Node7 -->
<g id="node7" class="node"><title>Node7</title>
<g id="a_node7"><a xlink:href="classtlz_1_1args__list.html#a38ad21acd64a4af98ffdf4a47837cdbe" target="_top" xlink:title="tlz::args_list::usage_fail">
<polygon fill="white" stroke="black" points="473,-38.5 473,-57.5 593,-57.5 593,-38.5 473,-38.5"/>
<text text-anchor="middle" x="533" y="-45.5" font-family="Helvetica,sans-Serif" font-size="10.00">tlz::args_list::usage_fail</text>
</a>
</g>
</g>
<!-- Node3&#45;&gt;Node7 -->
<g id="edge10" class="edge"><title>Node3&#45;&gt;Node7</title>
<path fill="none" stroke="midnightblue" d="M175.345,-64.6702C247.419,-61.3015 381.021,-55.0568 462.668,-51.2406"/>
<polygon fill="midnightblue" stroke="midnightblue" points="463.025,-54.7278 472.851,-50.7647 462.698,-47.7355 463.025,-54.7278"/>
</g>
<!-- Node9 -->
<g id="node9" class="node"><title>Node9</title>
<g id="a_node9"><a xlink:href="namespacetlz.html#abb019466ea9f56c0dab27e893d891837" target="_top" xlink:title="tlz::file_exists">
<polygon fill="white" stroke="black" points="211,-0.5 211,-19.5 288,-19.5 288,-0.5 211,-0.5"/>
<text text-anchor="middle" x="249.5" y="-7.5" font-family="Helvetica,sans-Serif" font-size="10.00">tlz::file_exists</text>
</a>
</g>
</g>
<!-- Node3&#45;&gt;Node9 -->
<g id="edge8" class="edge"><title>Node3&#45;&gt;Node9</title>
<path fill="none" stroke="midnightblue" d="M146.087,-57.4595C165.954,-48.2528 196.246,-34.2153 218.737,-23.7926"/>
<polygon fill="midnightblue" stroke="midnightblue" points="220.244,-26.9519 227.845,-19.5716 217.301,-20.6007 220.244,-26.9519"/>
</g>
<!-- Node4&#45;&gt;Node5 -->
<g id="edge4" class="edge"><title>Node4&#45;&gt;Node5</title>
<path fill="none" stroke="midnightblue" d="M283.052,-95.589C301.78,-101.106 325.314,-108.038 344.447,-113.674"/>
<polygon fill="midnightblue" stroke="midnightblue" points="343.701,-117.103 354.283,-116.572 345.679,-110.389 343.701,-117.103"/>
</g>
<!-- Node6 -->
<g id="node6" class="node"><title>Node6</title>
<g id="a_node6"><a xlink:href="classtlz_1_1args__list.html#a73d99bc75998dc14607a3a372d28dc6d" target="_top" xlink:title="tlz::args_list::next_arg">
<polygon fill="white" stroke="black" points="324,-76.5 324,-95.5 437,-95.5 437,-76.5 324,-76.5"/>
<text text-anchor="middle" x="380.5" y="-83.5" font-family="Helvetica,sans-Serif" font-size="10.00">tlz::args_list::next_arg</text>
</a>
</g>
</g>
<!-- Node4&#45;&gt;Node6 -->
<g id="edge5" class="edge"><title>Node4&#45;&gt;Node6</title>
<path fill="none" stroke="midnightblue" d="M287.812,-86C295.835,-86 304.544,-86 313.295,-86"/>
<polygon fill="midnightblue" stroke="midnightblue" points="313.549,-89.5001 323.549,-86 313.549,-82.5001 313.549,-89.5001"/>
</g>
<!-- Node6&#45;&gt;Node7 -->
<g id="edge6" class="edge"><title>Node6&#45;&gt;Node7</title>
<path fill="none" stroke="midnightblue" d="M419.478,-76.411C439.159,-71.4417 463.391,-65.3233 484.321,-60.0387"/>
<polygon fill="midnightblue" stroke="midnightblue" points="485.457,-63.3617 494.296,-57.5201 483.743,-56.5747 485.457,-63.3617"/>
</g>
<!-- Node8 -->
<g id="node8" class="node"><title>Node8</title>
<g id="a_node8"><a xlink:href="namespacetlz.html#a8e4f8c8c2927bc4350de13bfa0f8f9e1" target="_top" xlink:title="tlz::to_string">
<polygon fill="white" stroke="black" points="497.5,-76.5 497.5,-95.5 568.5,-95.5 568.5,-76.5 497.5,-76.5"/>
<text text-anchor="middle" x="533" y="-83.5" font-family="Helvetica,sans-Serif" font-size="10.00">tlz::to_string</text>
</a>
</g>
</g>
<!-- Node6&#45;&gt;Node8 -->
<g id="edge7" class="edge"><title>Node6&#45;&gt;Node8</title>
<path fill="none" stroke="midnightblue" d="M437.113,-86C453.441,-86 471.096,-86 486.698,-86"/>
<polygon fill="midnightblue" stroke="midnightblue" points="487.13,-89.5001 497.13,-86 487.129,-82.5001 487.13,-89.5001"/>
</g>
</g>
</svg>
