<?xml version="1.0" encoding="UTF-8" standalone="no"?>
<!DOCTYPE svg PUBLIC "-//W3C//DTD SVG 1.1//EN"
 "http://www.w3.org/Graphics/SVG/1.1/DTD/svg11.dtd">
<!-- Generated by graphviz version 2.38.0 (20140413.2041)
 -->
<!-- Title: main Pages: 1 -->
<svg width="1220pt" height="627pt"
 viewBox="0.00 0.00 1220.00 627.37" xmlns="http://www.w3.org/2000/svg" xmlns:xlink="http://www.w3.org/1999/xlink">
<g id="graph0" class="graph" transform="scale(1 1) rotate(0) translate(4 623.367)">
<title>main</title>
<polygon fill="white" stroke="none" points="-4,4 -4,-623.367 1216,-623.367 1216,4 -4,4"/>
<!-- Node1 -->
<g id="node1" class="node"><title>Node1</title>
<polygon fill="#bfbfbf" stroke="black" points="0,-289.5 0,-308.5 38,-308.5 38,-289.5 0,-289.5"/>
<text text-anchor="middle" x="19" y="-296.5" font-family="Helvetica,sans-Serif" font-size="10.00">main</text>
</g>
<!-- Node2 -->
<g id="node2" class="node"><title>Node2</title>
<g id="a_node2"><a xlink:href="namespacetlz.html#a3c03f5d9d6261ec2909938822fc47f8a" target="_top" xlink:title="tlz::get_args">
<polygon fill="white" stroke="black" points="124,-479.5 124,-498.5 195,-498.5 195,-479.5 124,-479.5"/>
<text text-anchor="middle" x="159.5" y="-486.5" font-family="Helvetica,sans-Serif" font-size="10.00">tlz::get_args</text>
</a>
</g>
</g>
<!-- Node1&#45;&gt;Node2 -->
<g id="edge1" class="edge"><title>Node1&#45;&gt;Node2</title>
<path fill="none" stroke="midnightblue" d="M20.1635,-308.877C21.1876,-337.432 28.1562,-420.856 74,-465 84.6961,-475.3 99.4796,-481.236 113.694,-484.639"/>
<polygon fill="midnightblue" stroke="midnightblue" points="113.382,-488.147 123.877,-486.695 114.768,-481.285 113.382,-488.147"/>
</g>
<!-- Node3 -->
<g id="node3" class="node"><title>Node3</title>
<g id="a_node3"><a xlink:href="namespacetlz.html#a91f1aec7120c97452c495ee447e56b57" target="_top" xlink:title="tlz::dataset_arg">
<polygon fill="white" stroke="black" points="117.5,-365.5 117.5,-384.5 201.5,-384.5 201.5,-365.5 117.5,-365.5"/>
<text text-anchor="middle" x="159.5" y="-372.5" font-family="Helvetica,sans-Serif" font-size="10.00">tlz::dataset_arg</text>
</a>
</g>
</g>
<!-- Node1&#45;&gt;Node3 -->
<g id="edge2" class="edge"><title>Node1&#45;&gt;Node3</title>
<path fill="none" stroke="midnightblue" d="M26.4136,-308.747C35.4401,-321.65 53.1417,-344.146 74,-356 84.111,-361.746 95.8255,-365.755 107.252,-368.551"/>
<polygon fill="midnightblue" stroke="midnightblue" points="106.656,-372.003 117.171,-370.709 108.144,-365.163 106.656,-372.003"/>
</g>
<!-- Node10 -->
<g id="node10" class="node"><title>Node10</title>
<g id="a_node10"><a xlink:href="namespacetlz.html#abb019466ea9f56c0dab27e893d891837" target="_top" xlink:title="tlz::file_exists">
<polygon fill="white" stroke="black" points="542.5,-332.5 542.5,-351.5 619.5,-351.5 619.5,-332.5 542.5,-332.5"/>
<text text-anchor="middle" x="581" y="-339.5" font-family="Helvetica,sans-Serif" font-size="10.00">tlz::file_exists</text>
</a>
</g>
</g>
<!-- Node1&#45;&gt;Node10 -->
<g id="edge47" class="edge"><title>Node1&#45;&gt;Node10</title>
<path fill="none" stroke="midnightblue" d="M38.3138,-300.406C115.348,-306.321 414.508,-329.293 532.126,-338.324"/>
<polygon fill="midnightblue" stroke="midnightblue" points="532.03,-341.827 542.269,-339.103 532.566,-334.847 532.03,-341.827"/>
</g>
<!-- Node11 -->
<g id="node11" class="node"><title>Node11</title>
<g id="a_node11"><a xlink:href="namespacetlz.html#a11d8bb3ca89f4957bfde1cd0d5429a16" target="_top" xlink:title="tlz::image_correspondences_arg">
<polygon fill="white" stroke="black" points="80.5,-327.5 80.5,-346.5 238.5,-346.5 238.5,-327.5 80.5,-327.5"/>
<text text-anchor="middle" x="159.5" y="-334.5" font-family="Helvetica,sans-Serif" font-size="10.00">tlz::image_correspondences_arg</text>
</a>
</g>
</g>
<!-- Node1&#45;&gt;Node11 -->
<g id="edge12" class="edge"><title>Node1&#45;&gt;Node11</title>
<path fill="none" stroke="midnightblue" d="M38.1065,-303.968C57.2023,-309.207 88.0209,-317.663 113.696,-324.707"/>
<polygon fill="midnightblue" stroke="midnightblue" points="113.04,-328.156 123.609,-327.427 114.892,-321.406 113.04,-328.156"/>
</g>
<!-- Node22 -->
<g id="node22" class="node"><title>Node22</title>
<g id="a_node22"><a xlink:href="namespacetlz.html#a65770a2c1ff57c5ae6542d4465a3d3f4" target="_top" xlink:title="tlz::out_filename_arg">
<polygon fill="white" stroke="black" points="315.5,-407.5 315.5,-426.5 422.5,-426.5 422.5,-407.5 315.5,-407.5"/>
<text text-anchor="middle" x="369" y="-414.5" font-family="Helvetica,sans-Serif" font-size="10.00">tlz::out_filename_arg</text>
</a>
</g>
</g>
<!-- Node1&#45;&gt;Node22 -->
<g id="edge26" class="edge"><title>Node1&#45;&gt;Node22</title>
<path fill="none" stroke="midnightblue" d="M22.256,-308.619C27.482,-328.505 42.4547,-373.958 74,-394 144.203,-438.602 243.702,-435.858 307.043,-427.897"/>
<polygon fill="midnightblue" stroke="midnightblue" points="307.828,-431.324 317.274,-426.527 306.898,-424.386 307.828,-431.324"/>
</g>
<!-- Node23 -->
<g id="node23" class="node"><title>Node23</title>
<g id="a_node23"><a xlink:href="namespacetlz.html#a59931291e2fb8d804edf4ea1b95c35d9" target="_top" xlink:title="tlz::int_opt_arg">
<polygon fill="white" stroke="black" points="328.5,-522.5 328.5,-541.5 409.5,-541.5 409.5,-522.5 328.5,-522.5"/>
<text text-anchor="middle" x="369" y="-529.5" font-family="Helvetica,sans-Serif" font-size="10.00">tlz::int_opt_arg</text>
</a>
</g>
</g>
<!-- Node1&#45;&gt;Node23 -->
<g id="edge28" class="edge"><title>Node1&#45;&gt;Node23</title>
<path fill="none" stroke="midnightblue" d="M21.1562,-308.733C24.5375,-332.705 36.6536,-394.967 74,-427 133.483,-478.02 171.565,-442.641 245,-470 280.214,-483.119 318.542,-503.493 342.893,-517.273"/>
<polygon fill="midnightblue" stroke="midnightblue" points="341.394,-520.447 351.811,-522.379 344.872,-514.373 341.394,-520.447"/>
</g>
<!-- Node27 -->
<g id="node27" class="node"><title>Node27</title>
<g id="a_node27"><a xlink:href="namespacetlz.html#ace8122bb9e3521f3fbaa00a88a1d5928" target="_top" xlink:title="tlz::get_all_views">
<polygon fill="white" stroke="black" points="113.5,-125.5 113.5,-144.5 205.5,-144.5 205.5,-125.5 113.5,-125.5"/>
<text text-anchor="middle" x="159.5" y="-132.5" font-family="Helvetica,sans-Serif" font-size="10.00">tlz::get_all_views</text>
</a>
</g>
</g>
<!-- Node1&#45;&gt;Node27 -->
<g id="edge39" class="edge"><title>Node1&#45;&gt;Node27</title>
<path fill="none" stroke="midnightblue" d="M20.6197,-289.208C22.818,-263.137 32.5293,-191.536 74,-155 82.3141,-147.675 92.8196,-142.908 103.573,-139.833"/>
<polygon fill="midnightblue" stroke="midnightblue" points="104.555,-143.197 113.462,-137.461 102.921,-136.39 104.555,-143.197"/>
</g>
<!-- Node29 -->
<g id="node29" class="node"><title>Node29</title>
<g id="a_node29"><a xlink:href="classtlz_1_1dataset.html#acbdb309b8dd22f687fff41f6e9ac6ed4" target="_top" xlink:title="tlz::dataset::view">
<polygon fill="white" stroke="black" points="113.5,-87.5 113.5,-106.5 205.5,-106.5 205.5,-87.5 113.5,-87.5"/>
<text text-anchor="middle" x="159.5" y="-94.5" font-family="Helvetica,sans-Serif" font-size="10.00">tlz::dataset::view</text>
</a>
</g>
</g>
<!-- Node1&#45;&gt;Node29 -->
<g id="edge41" class="edge"><title>Node1&#45;&gt;Node29</title>
<path fill="none" stroke="midnightblue" d="M19.6994,-289.327C19.3149,-258.887 22.4957,-164.224 74,-116 82.0675,-108.446 92.4679,-103.664 103.197,-100.684"/>
<polygon fill="midnightblue" stroke="midnightblue" points="104.114,-104.065 113.085,-98.4266 102.556,-97.2404 104.114,-104.065"/>
</g>
<!-- Node30 -->
<g id="node30" class="node"><title>Node30</title>
<g id="a_node30"><a xlink:href="classtlz_1_1dataset__view.html#a63238745feff55e3d0bea101589895c1" target="_top" xlink:title="tlz::dataset_view::\ldepth_filename">
<polygon fill="white" stroke="black" points="111,-164 111,-194 208,-194 208,-164 111,-164"/>
<text text-anchor="start" x="119" y="-182" font-family="Helvetica,sans-Serif" font-size="10.00">tlz::dataset_view::</text>
<text text-anchor="middle" x="159.5" y="-171" font-family="Helvetica,sans-Serif" font-size="10.00">depth_filename</text>
</a>
</g>
</g>
<!-- Node1&#45;&gt;Node30 -->
<g id="edge42" class="edge"><title>Node1&#45;&gt;Node30</title>
<path fill="none" stroke="midnightblue" d="M22.8008,-289.306C28.8582,-270.079 45.0213,-226.996 74,-204 81.9094,-197.724 91.3571,-193.022 101.024,-189.5"/>
<polygon fill="midnightblue" stroke="midnightblue" points="102.283,-192.771 110.715,-186.357 100.123,-186.113 102.283,-192.771"/>
</g>
<!-- Node34 -->
<g id="node34" class="node"><title>Node34</title>
<g id="a_node34"><a xlink:href="namespacetlz.html#a55912f12ae3521ac51a3d4ab3d75183a" target="_top" xlink:title="tlz::load_depth">
<polygon fill="white" stroke="black" points="119.5,-49.5 119.5,-68.5 199.5,-68.5 199.5,-49.5 119.5,-49.5"/>
<text text-anchor="middle" x="159.5" y="-56.5" font-family="Helvetica,sans-Serif" font-size="10.00">tlz::load_depth</text>
</a>
</g>
</g>
<!-- Node1&#45;&gt;Node34 -->
<g id="edge48" class="edge"><title>Node1&#45;&gt;Node34</title>
<path fill="none" stroke="midnightblue" d="M21.0056,-289.451C25.2401,-251.061 42.8553,-108.575 74,-78 83.3981,-68.774 96.2565,-63.637 109.107,-60.8709"/>
<polygon fill="midnightblue" stroke="midnightblue" points="110.075,-64.2567 119.346,-59.1281 108.9,-57.3559 110.075,-64.2567"/>
</g>
<!-- Node35 -->
<g id="node35" class="node"><title>Node35</title>
<g id="a_node35"><a xlink:href="namespacetlz.html#a703280f6c42435c957e976f0ab000b30" target="_top" xlink:title="tlz::export_image_corresponcences">
<polygon fill="white" stroke="black" points="74,-213.5 74,-232.5 245,-232.5 245,-213.5 74,-213.5"/>
<text text-anchor="middle" x="159.5" y="-220.5" font-family="Helvetica,sans-Serif" font-size="10.00">tlz::export_image_corresponcences</text>
</a>
</g>
</g>
<!-- Node1&#45;&gt;Node35 -->
<g id="edge49" class="edge"><title>Node1&#45;&gt;Node35</title>
<path fill="none" stroke="midnightblue" d="M37.5411,-289.375C61.4765,-276.24 104.56,-252.599 132.323,-237.364"/>
<polygon fill="midnightblue" stroke="midnightblue" points="134.018,-240.426 141.101,-232.547 130.651,-234.29 134.018,-240.426"/>
</g>
<!-- Node4 -->
<g id="node4" class="node"><title>Node4</title>
<g id="a_node4"><a xlink:href="namespacetlz.html#a634de7ca11e100e4a118dffe80376a75" target="_top" xlink:title="tlz::in_filename_arg">
<polygon fill="white" stroke="black" points="318.5,-368.5 318.5,-387.5 419.5,-387.5 419.5,-368.5 318.5,-368.5"/>
<text text-anchor="middle" x="369" y="-375.5" font-family="Helvetica,sans-Serif" font-size="10.00">tlz::in_filename_arg</text>
</a>
</g>
</g>
<!-- Node3&#45;&gt;Node4 -->
<g id="edge3" class="edge"><title>Node3&#45;&gt;Node4</title>
<path fill="none" stroke="midnightblue" d="M201.992,-375.6C232.324,-376.038 273.923,-376.64 307.89,-377.131"/>
<polygon fill="midnightblue" stroke="midnightblue" points="308.116,-380.634 318.166,-377.28 308.217,-373.635 308.116,-380.634"/>
</g>
<!-- Node5 -->
<g id="node5" class="node"><title>Node5</title>
<g id="a_node5"><a xlink:href="namespacetlz.html#a0621d598fb83b13bf028f3e6293d04f8" target="_top" xlink:title="tlz::string_arg">
<polygon fill="white" stroke="black" points="543,-408.5 543,-427.5 619,-427.5 619,-408.5 543,-408.5"/>
<text text-anchor="middle" x="581" y="-415.5" font-family="Helvetica,sans-Serif" font-size="10.00">tlz::string_arg</text>
</a>
</g>
</g>
<!-- Node4&#45;&gt;Node5 -->
<g id="edge4" class="edge"><title>Node4&#45;&gt;Node5</title>
<path fill="none" stroke="midnightblue" d="M419.501,-387.429C453.787,-393.96 499.153,-402.601 532.904,-409.029"/>
<polygon fill="midnightblue" stroke="midnightblue" points="532.503,-412.516 542.981,-410.949 533.813,-405.639 532.503,-412.516"/>
</g>
<!-- Node6 -->
<g id="node6" class="node"><title>Node6</title>
<g id="a_node6"><a xlink:href="namespacetlz.html#a780431daab8d2595372eacb43143b52d" target="_top" xlink:title="tlz::args">
<polygon fill="white" stroke="black" points="764,-484.5 764,-503.5 816,-503.5 816,-484.5 764,-484.5"/>
<text text-anchor="middle" x="790" y="-491.5" font-family="Helvetica,sans-Serif" font-size="10.00">tlz::args</text>
</a>
</g>
</g>
<!-- Node4&#45;&gt;Node6 -->
<g id="edge10" class="edge"><title>Node4&#45;&gt;Node6</title>
<path fill="none" stroke="midnightblue" d="M419.522,-381.459C432.798,-384.385 446.393,-389.427 457,-398 486.382,-421.746 461.795,-453.707 493,-475 534.385,-503.239 683.877,-499.526 753.217,-496.12"/>
<polygon fill="midnightblue" stroke="midnightblue" points="753.823,-499.593 763.629,-495.58 753.461,-492.602 753.823,-499.593"/>
</g>
<!-- Node8 -->
<g id="node8" class="node"><title>Node8</title>
<g id="a_node8"><a xlink:href="classtlz_1_1args__list.html#a38ad21acd64a4af98ffdf4a47837cdbe" target="_top" xlink:title="tlz::args_list::usage_fail">
<polygon fill="white" stroke="black" points="911,-427.5 911,-446.5 1031,-446.5 1031,-427.5 911,-427.5"/>
<text text-anchor="middle" x="971" y="-434.5" font-family="Helvetica,sans-Serif" font-size="10.00">tlz::args_list::usage_fail</text>
</a>
</g>
</g>
<!-- Node4&#45;&gt;Node8 -->
<g id="edge11" class="edge"><title>Node4&#45;&gt;Node8</title>
<path fill="none" stroke="midnightblue" d="M419.8,-374.564C511.192,-369.468 711.331,-363.938 875,-399 898.666,-404.07 924.051,-414.507 942.621,-423.162"/>
<polygon fill="midnightblue" stroke="midnightblue" points="941.134,-426.331 951.666,-427.488 944.155,-420.016 941.134,-426.331"/>
</g>
<!-- Node4&#45;&gt;Node10 -->
<g id="edge9" class="edge"><title>Node4&#45;&gt;Node10</title>
<path fill="none" stroke="midnightblue" d="M419.501,-369.514C453.568,-363.674 498.572,-355.959 532.254,-350.185"/>
<polygon fill="midnightblue" stroke="midnightblue" points="533.054,-353.599 542.319,-348.46 531.871,-346.7 533.054,-353.599"/>
</g>
<!-- Node5&#45;&gt;Node6 -->
<g id="edge5" class="edge"><title>Node5&#45;&gt;Node6</title>
<path fill="none" stroke="midnightblue" d="M619.34,-424.21C634.914,-427.298 653.054,-431.552 669,-437 702.569,-448.47 739.118,-466.733 762.948,-479.486"/>
<polygon fill="midnightblue" stroke="midnightblue" points="761.574,-482.722 772.033,-484.411 764.91,-476.568 761.574,-482.722"/>
</g>
<!-- Node7 -->
<g id="node7" class="node"><title>Node7</title>
<g id="a_node7"><a xlink:href="classtlz_1_1args__list.html#a73d99bc75998dc14607a3a372d28dc6d" target="_top" xlink:title="tlz::args_list::next_arg">
<polygon fill="white" stroke="black" points="733.5,-408.5 733.5,-427.5 846.5,-427.5 846.5,-408.5 733.5,-408.5"/>
<text text-anchor="middle" x="790" y="-415.5" font-family="Helvetica,sans-Serif" font-size="10.00">tlz::args_list::next_arg</text>
</a>
</g>
</g>
<!-- Node5&#45;&gt;Node7 -->
<g id="edge6" class="edge"><title>Node5&#45;&gt;Node7</title>
<path fill="none" stroke="midnightblue" d="M619.007,-418C647.778,-418 688.437,-418 722.777,-418"/>
<polygon fill="midnightblue" stroke="midnightblue" points="723.211,-421.5 733.211,-418 723.211,-414.5 723.211,-421.5"/>
</g>
<!-- Node7&#45;&gt;Node8 -->
<g id="edge7" class="edge"><title>Node7&#45;&gt;Node8</title>
<path fill="none" stroke="midnightblue" d="M846.656,-423.908C863.808,-425.728 882.905,-427.755 900.849,-429.66"/>
<polygon fill="midnightblue" stroke="midnightblue" points="900.655,-433.159 910.968,-430.734 901.394,-426.198 900.655,-433.159"/>
</g>
<!-- Node9 -->
<g id="node9" class="node"><title>Node9</title>
<g id="a_node9"><a xlink:href="namespacetlz.html#a8e4f8c8c2927bc4350de13bfa0f8f9e1" target="_top" xlink:title="tlz::to_string">
<polygon fill="white" stroke="black" points="935.5,-241.5 935.5,-260.5 1006.5,-260.5 1006.5,-241.5 935.5,-241.5"/>
<text text-anchor="middle" x="971" y="-248.5" font-family="Helvetica,sans-Serif" font-size="10.00">tlz::to_string</text>
</a>
</g>
</g>
<!-- Node7&#45;&gt;Node9 -->
<g id="edge8" class="edge"><title>Node7&#45;&gt;Node9</title>
<path fill="none" stroke="midnightblue" d="M801.397,-408.3C830.81,-380.859 914.871,-302.433 951.999,-267.794"/>
<polygon fill="midnightblue" stroke="midnightblue" points="954.649,-270.108 959.574,-260.727 949.874,-264.99 954.649,-270.108"/>
</g>
<!-- Node11&#45;&gt;Node4 -->
<g id="edge25" class="edge"><title>Node11&#45;&gt;Node4</title>
<path fill="none" stroke="midnightblue" d="M208.626,-346.509C238.767,-352.465 277.799,-360.177 309.692,-366.479"/>
<polygon fill="midnightblue" stroke="midnightblue" points="309.287,-369.966 319.776,-368.471 310.644,-363.099 309.287,-369.966"/>
</g>
<!-- Node12 -->
<g id="node12" class="node"><title>Node12</title>
<g id="a_node12"><a xlink:href="namespacetlz.html#ad75d99f2e1623434fbadee66f3ff29a1" target="_top" xlink:title="tlz::import_image_correspondences">
<polygon fill="white" stroke="black" points="283.5,-251.5 283.5,-270.5 454.5,-270.5 454.5,-251.5 283.5,-251.5"/>
<text text-anchor="middle" x="369" y="-258.5" font-family="Helvetica,sans-Serif" font-size="10.00">tlz::import_image_correspondences</text>
</a>
</g>
</g>
<!-- Node11&#45;&gt;Node12 -->
<g id="edge13" class="edge"><title>Node11&#45;&gt;Node12</title>
<path fill="none" stroke="midnightblue" d="M186.78,-327.375C223.731,-313.841 291.143,-289.15 332.514,-273.997"/>
<polygon fill="midnightblue" stroke="midnightblue" points="333.747,-277.273 341.933,-270.547 331.34,-270.7 333.747,-277.273"/>
</g>
<!-- Node13 -->
<g id="node13" class="node"><title>Node13</title>
<g id="a_node13"><a xlink:href="namespacetlz.html#ae11c827ac9e581f9d2f98c39aab3750d" target="_top" xlink:title="tlz::file_name_extension">
<polygon fill="white" stroke="black" points="520,-168.5 520,-187.5 642,-187.5 642,-168.5 520,-168.5"/>
<text text-anchor="middle" x="581" y="-175.5" font-family="Helvetica,sans-Serif" font-size="10.00">tlz::file_name_extension</text>
</a>
</g>
</g>
<!-- Node12&#45;&gt;Node13 -->
<g id="edge14" class="edge"><title>Node12&#45;&gt;Node13</title>
<path fill="none" stroke="midnightblue" d="M423.526,-251.375C435.088,-247.919 446.871,-243.26 457,-237 477.345,-224.426 472.322,-209.019 493,-197 498.351,-193.89 504.155,-191.288 510.141,-189.111"/>
<polygon fill="midnightblue" stroke="midnightblue" points="511.223,-192.44 519.657,-186.029 509.065,-185.781 511.223,-192.44"/>
</g>
<!-- Node14 -->
<g id="node14" class="node"><title>Node14</title>
<g id="a_node14"><a xlink:href="namespacetlz.html#a24915249769d936c24ceb34f50b06104" target="_top" xlink:title="tlz::decode_image_correspondences">
<polygon fill="white" stroke="black" points="493,-206.5 493,-225.5 669,-225.5 669,-206.5 493,-206.5"/>
<text text-anchor="middle" x="581" y="-213.5" font-family="Helvetica,sans-Serif" font-size="10.00">tlz::decode_image_correspondences</text>
</a>
</g>
</g>
<!-- Node12&#45;&gt;Node14 -->
<g id="edge15" class="edge"><title>Node12&#45;&gt;Node14</title>
<path fill="none" stroke="midnightblue" d="M414.536,-251.457C446.971,-244.506 491.085,-235.053 525.606,-227.656"/>
<polygon fill="midnightblue" stroke="midnightblue" points="526.484,-231.047 535.529,-225.53 525.017,-224.203 526.484,-231.047"/>
</g>
<!-- Node20 -->
<g id="node20" class="node"><title>Node20</title>
<g id="a_node20"><a xlink:href="namespacetlz.html#aa1be9362f548fcf9378e1fc9074089c4" target="_top" xlink:title="tlz::import_json_file">
<polygon fill="white" stroke="black" points="530.5,-294.5 530.5,-313.5 631.5,-313.5 631.5,-294.5 530.5,-294.5"/>
<text text-anchor="middle" x="581" y="-301.5" font-family="Helvetica,sans-Serif" font-size="10.00">tlz::import_json_file</text>
</a>
</g>
</g>
<!-- Node12&#45;&gt;Node20 -->
<g id="edge23" class="edge"><title>Node12&#45;&gt;Node20</title>
<path fill="none" stroke="midnightblue" d="M416.606,-270.543C448.144,-277.001 489.988,-285.569 523.435,-292.418"/>
<polygon fill="midnightblue" stroke="midnightblue" points="523.026,-295.906 533.524,-294.484 524.43,-289.049 523.026,-295.906"/>
</g>
<!-- Node21 -->
<g id="node21" class="node"><title>Node21</title>
<g id="a_node21"><a xlink:href="namespacetlz.html#a2ec439452fda5eeb03f60715e50fa96a" target="_top" xlink:title="tlz::import_binary\l_image_correspondences">
<polygon fill="white" stroke="black" points="517,-245 517,-275 645,-275 645,-245 517,-245"/>
<text text-anchor="start" x="525" y="-263" font-family="Helvetica,sans-Serif" font-size="10.00">tlz::import_binary</text>
<text text-anchor="middle" x="581" y="-252" font-family="Helvetica,sans-Serif" font-size="10.00">_image_correspondences</text>
</a>
</g>
</g>
<!-- Node12&#45;&gt;Node21 -->
<g id="edge24" class="edge"><title>Node12&#45;&gt;Node21</title>
<path fill="none" stroke="midnightblue" d="M454.507,-260.598C471.779,-260.515 489.821,-260.429 506.664,-260.349"/>
<polygon fill="midnightblue" stroke="midnightblue" points="506.995,-263.848 516.978,-260.3 506.961,-256.848 506.995,-263.848"/>
</g>
<!-- Node15 -->
<g id="node15" class="node"><title>Node15</title>
<g id="a_node15"><a xlink:href="namespacetlz.html#a252af14b9b4ac6502d3e9c5dd8dc90b8" target="_top" xlink:title="tlz::has">
<polygon fill="white" stroke="black" points="1163,-279.5 1163,-298.5 1212,-298.5 1212,-279.5 1163,-279.5"/>
<text text-anchor="middle" x="1187.5" y="-286.5" font-family="Helvetica,sans-Serif" font-size="10.00">tlz::has</text>
</a>
</g>
</g>
<!-- Node14&#45;&gt;Node15 -->
<g id="edge16" class="edge"><title>Node14&#45;&gt;Node15</title>
<path fill="none" stroke="midnightblue" d="M623.601,-225.55C637.982,-228.856 654.2,-232.587 669,-236 776.573,-260.811 801.877,-275.275 911,-292 979.735,-302.535 997.513,-301.331 1067,-304 1093.65,-305.023 1100.54,-307.284 1127,-304 1135.49,-302.946 1144.52,-301.076 1152.9,-299.007"/>
<polygon fill="midnightblue" stroke="midnightblue" points="1153.94,-302.35 1162.73,-296.424 1152.17,-295.58 1153.94,-302.35"/>
</g>
<!-- Node16 -->
<g id="node16" class="node"><title>Node16</title>
<g id="a_node16"><a xlink:href="namespacetlz.html#ab83b0eb933afca1abe8ccd3470207691" target="_top" xlink:title="tlz::decode_image_correspondence\l_feature">
<polygon fill="white" stroke="black" points="705,-201 705,-231 875,-231 875,-201 705,-201"/>
<text text-anchor="start" x="713" y="-219" font-family="Helvetica,sans-Serif" font-size="10.00">tlz::decode_image_correspondence</text>
<text text-anchor="middle" x="790" y="-208" font-family="Helvetica,sans-Serif" font-size="10.00">_feature</text>
</a>
</g>
</g>
<!-- Node14&#45;&gt;Node16 -->
<g id="edge17" class="edge"><title>Node14&#45;&gt;Node16</title>
<path fill="none" stroke="midnightblue" d="M669.187,-216C677.592,-216 686.144,-216 694.614,-216"/>
<polygon fill="midnightblue" stroke="midnightblue" points="694.89,-219.5 704.89,-216 694.89,-212.5 694.89,-219.5"/>
</g>
<!-- Node16&#45;&gt;Node15 -->
<g id="edge18" class="edge"><title>Node16&#45;&gt;Node15</title>
<path fill="none" stroke="midnightblue" d="M817.181,-231.059C840.856,-243.866 877.097,-261.493 911,-270 996.051,-291.342 1100.2,-291.887 1152.74,-290.458"/>
<polygon fill="midnightblue" stroke="midnightblue" points="1152.96,-293.953 1162.84,-290.14 1152.74,-286.956 1152.96,-293.953"/>
</g>
<!-- Node17 -->
<g id="node17" class="node"><title>Node17</title>
<g id="a_node17"><a xlink:href="namespacetlz.html#a74e8454f97dace7cffb1afdb6d3ca87b" target="_top" xlink:title="tlz::decode_view_index">
<polygon fill="white" stroke="black" points="911.5,-203.5 911.5,-222.5 1030.5,-222.5 1030.5,-203.5 911.5,-203.5"/>
<text text-anchor="middle" x="971" y="-210.5" font-family="Helvetica,sans-Serif" font-size="10.00">tlz::decode_view_index</text>
</a>
</g>
</g>
<!-- Node16&#45;&gt;Node17 -->
<g id="edge19" class="edge"><title>Node16&#45;&gt;Node17</title>
<path fill="none" stroke="midnightblue" d="M875.259,-214.588C883.961,-214.442 892.731,-214.295 901.236,-214.152"/>
<polygon fill="midnightblue" stroke="midnightblue" points="901.517,-217.648 911.456,-213.981 901.399,-210.649 901.517,-217.648"/>
</g>
<!-- Node18 -->
<g id="node18" class="node"><title>Node18</title>
<g id="a_node18"><a xlink:href="namespacetlz.html#ae8f9175a86bbe49ac0f4485d5db3080b" target="_top" xlink:title="tlz::decode_feature\l_point">
<polygon fill="white" stroke="black" points="921,-154 921,-184 1021,-184 1021,-154 921,-154"/>
<text text-anchor="start" x="929" y="-172" font-family="Helvetica,sans-Serif" font-size="10.00">tlz::decode_feature</text>
<text text-anchor="middle" x="971" y="-161" font-family="Helvetica,sans-Serif" font-size="10.00">_point</text>
</a>
</g>
</g>
<!-- Node16&#45;&gt;Node18 -->
<g id="edge20" class="edge"><title>Node16&#45;&gt;Node18</title>
<path fill="none" stroke="midnightblue" d="M848.129,-201C868.264,-195.713 890.926,-189.762 911.197,-184.44"/>
<polygon fill="midnightblue" stroke="midnightblue" points="912.152,-187.808 920.935,-181.883 910.374,-181.037 912.152,-187.808"/>
</g>
<!-- Node19 -->
<g id="node19" class="node"><title>Node19</title>
<g id="a_node19"><a xlink:href="namespacetlz.html#add846dc50c32dfb356cb1a7ac11d37ac" target="_top" xlink:title="tlz::get_or">
<polygon fill="white" stroke="black" points="1067,-159.5 1067,-178.5 1127,-178.5 1127,-159.5 1067,-159.5"/>
<text text-anchor="middle" x="1097" y="-166.5" font-family="Helvetica,sans-Serif" font-size="10.00">tlz::get_or</text>
</a>
</g>
</g>
<!-- Node18&#45;&gt;Node19 -->
<g id="edge21" class="edge"><title>Node18&#45;&gt;Node19</title>
<path fill="none" stroke="midnightblue" d="M1021.01,-169C1032.93,-169 1045.52,-169 1056.91,-169"/>
<polygon fill="midnightblue" stroke="midnightblue" points="1056.98,-172.5 1066.98,-169 1056.98,-165.5 1056.98,-172.5"/>
</g>
<!-- Node19&#45;&gt;Node15 -->
<g id="edge22" class="edge"><title>Node19&#45;&gt;Node15</title>
<path fill="none" stroke="midnightblue" d="M1105.24,-178.82C1120.16,-199.049 1154.5,-245.614 1173.42,-271.259"/>
<polygon fill="midnightblue" stroke="midnightblue" points="1170.65,-273.409 1179.4,-279.38 1176.29,-269.254 1170.65,-273.409"/>
</g>
<!-- Node22&#45;&gt;Node5 -->
<g id="edge27" class="edge"><title>Node22&#45;&gt;Node5</title>
<path fill="none" stroke="midnightblue" d="M422.721,-417.251C456.487,-417.412 499.938,-417.619 532.61,-417.774"/>
<polygon fill="midnightblue" stroke="midnightblue" points="532.797,-421.275 542.813,-417.823 532.83,-414.275 532.797,-421.275"/>
</g>
<!-- Node23&#45;&gt;Node6 -->
<g id="edge29" class="edge"><title>Node23&#45;&gt;Node6</title>
<path fill="none" stroke="midnightblue" d="M381.998,-541.555C403.006,-557.605 448.464,-589.361 493,-601 568.681,-620.778 595.906,-628.855 669,-601 716.13,-583.039 756.513,-537.125 776.193,-511.667"/>
<polygon fill="midnightblue" stroke="midnightblue" points="779.051,-513.689 782.267,-503.594 773.458,-509.48 779.051,-513.689"/>
</g>
<!-- Node24 -->
<g id="node24" class="node"><title>Node24</title>
<g id="a_node24"><a xlink:href="classtlz_1_1args__list.html#a4aee93f4b0d9b5b4e7a5d13cb637337c" target="_top" xlink:title="tlz::args_list::has\l_next_arg">
<polygon fill="white" stroke="black" points="535,-561 535,-591 627,-591 627,-561 535,-561"/>
<text text-anchor="start" x="543" y="-579" font-family="Helvetica,sans-Serif" font-size="10.00">tlz::args_list::has</text>
<text text-anchor="middle" x="581" y="-568" font-family="Helvetica,sans-Serif" font-size="10.00">_next_arg</text>
</a>
</g>
</g>
<!-- Node23&#45;&gt;Node24 -->
<g id="edge30" class="edge"><title>Node23&#45;&gt;Node24</title>
<path fill="none" stroke="midnightblue" d="M409.994,-540.38C442.518,-547.194 488.761,-556.883 524.809,-564.436"/>
<polygon fill="midnightblue" stroke="midnightblue" points="524.181,-567.881 534.687,-566.506 525.617,-561.029 524.181,-567.881"/>
</g>
<!-- Node25 -->
<g id="node25" class="node"><title>Node25</title>
<g id="a_node25"><a xlink:href="namespacetlz.html#af0d1e8ba5b9f2dbc2b589afab3a21fc8" target="_top" xlink:title="tlz::int_arg">
<polygon fill="white" stroke="black" points="550,-446.5 550,-465.5 612,-465.5 612,-446.5 550,-446.5"/>
<text text-anchor="middle" x="581" y="-453.5" font-family="Helvetica,sans-Serif" font-size="10.00">tlz::int_arg</text>
</a>
</g>
</g>
<!-- Node23&#45;&gt;Node25 -->
<g id="edge31" class="edge"><title>Node23&#45;&gt;Node25</title>
<path fill="none" stroke="midnightblue" d="M396.597,-522.375C433.993,-508.841 502.217,-484.15 544.087,-468.997"/>
<polygon fill="midnightblue" stroke="midnightblue" points="545.407,-472.242 553.619,-465.547 543.025,-465.659 545.407,-472.242"/>
</g>
<!-- Node26 -->
<g id="node26" class="node"><title>Node26</title>
<g id="a_node26"><a xlink:href="namespacetlz.html#a63246890b0c946b5f62a1d3e2bea6103" target="_top" xlink:title="tlz::real_arg">
<polygon fill="white" stroke="black" points="547,-522.5 547,-541.5 615,-541.5 615,-522.5 547,-522.5"/>
<text text-anchor="middle" x="581" y="-529.5" font-family="Helvetica,sans-Serif" font-size="10.00">tlz::real_arg</text>
</a>
</g>
</g>
<!-- Node23&#45;&gt;Node26 -->
<g id="edge35" class="edge"><title>Node23&#45;&gt;Node26</title>
<path fill="none" stroke="midnightblue" d="M409.994,-532C446.216,-532 499.455,-532 536.676,-532"/>
<polygon fill="midnightblue" stroke="midnightblue" points="536.722,-535.5 546.722,-532 536.722,-528.5 536.722,-535.5"/>
</g>
<!-- Node25&#45;&gt;Node6 -->
<g id="edge32" class="edge"><title>Node25&#45;&gt;Node6</title>
<path fill="none" stroke="midnightblue" d="M612.1,-461.526C649.67,-468.423 713.826,-480.2 753.682,-487.516"/>
<polygon fill="midnightblue" stroke="midnightblue" points="753.28,-491.001 763.748,-489.364 754.544,-484.116 753.28,-491.001"/>
</g>
<!-- Node25&#45;&gt;Node7 -->
<g id="edge33" class="edge"><title>Node25&#45;&gt;Node7</title>
<path fill="none" stroke="midnightblue" d="M612.1,-450.474C642.156,-444.957 689.227,-436.316 727.259,-429.334"/>
<polygon fill="midnightblue" stroke="midnightblue" points="728.016,-432.754 737.22,-427.506 726.752,-425.869 728.016,-432.754"/>
</g>
<!-- Node25&#45;&gt;Node8 -->
<g id="edge34" class="edge"><title>Node25&#45;&gt;Node8</title>
<path fill="none" stroke="midnightblue" d="M612.123,-454.525C673.632,-451.513 815.061,-444.587 900.561,-440.4"/>
<polygon fill="midnightblue" stroke="midnightblue" points="900.884,-443.889 910.701,-439.904 900.542,-436.897 900.884,-443.889"/>
</g>
<!-- Node26&#45;&gt;Node6 -->
<g id="edge36" class="edge"><title>Node26&#45;&gt;Node6</title>
<path fill="none" stroke="midnightblue" d="M615.258,-525.895C653.179,-518.933 714.917,-507.6 753.678,-500.484"/>
<polygon fill="midnightblue" stroke="midnightblue" points="754.758,-503.845 763.962,-498.596 753.494,-496.96 754.758,-503.845"/>
</g>
<!-- Node26&#45;&gt;Node7 -->
<g id="edge37" class="edge"><title>Node26&#45;&gt;Node7</title>
<path fill="none" stroke="midnightblue" d="M599.293,-522.477C635.518,-502.527 719.568,-456.238 762.592,-432.544"/>
<polygon fill="midnightblue" stroke="midnightblue" points="764.54,-435.466 771.611,-427.577 761.163,-429.335 764.54,-435.466"/>
</g>
<!-- Node26&#45;&gt;Node8 -->
<g id="edge38" class="edge"><title>Node26&#45;&gt;Node8</title>
<path fill="none" stroke="midnightblue" d="M615.012,-536.111C670.747,-541.708 786.119,-547.448 875,-513 907.449,-500.424 937.481,-472.554 954.766,-454.286"/>
<polygon fill="midnightblue" stroke="midnightblue" points="957.586,-456.39 961.774,-446.658 952.431,-451.654 957.586,-456.39"/>
</g>
<!-- Node28 -->
<g id="node28" class="node"><title>Node28</title>
<g id="a_node28"><a xlink:href="namespacetlz.html#a5649e44b2c9d8527dcdcc6282b4850c3" target="_top" xlink:title="tlz::get_all_views_set">
<polygon fill="white" stroke="black" points="313.5,-0.5 313.5,-19.5 424.5,-19.5 424.5,-0.5 313.5,-0.5"/>
<text text-anchor="middle" x="369" y="-7.5" font-family="Helvetica,sans-Serif" font-size="10.00">tlz::get_all_views_set</text>
</a>
</g>
</g>
<!-- Node27&#45;&gt;Node28 -->
<g id="edge40" class="edge"><title>Node27&#45;&gt;Node28</title>
<path fill="none" stroke="midnightblue" d="M205.761,-132.824C219.619,-130.189 234.073,-125.2 245,-116 277.011,-89.0478 248.906,-55.8535 281,-29 287.562,-23.5093 295.353,-19.5047 303.535,-16.6001"/>
<polygon fill="midnightblue" stroke="midnightblue" points="304.7,-19.9045 313.269,-13.6727 302.684,-13.2011 304.7,-19.9045"/>
</g>
<!-- Node31 -->
<g id="node31" class="node"><title>Node31</title>
<g id="a_node31"><a xlink:href="classtlz_1_1dataset__view.html#a327a842dc304656596d65b9bbf52fb1c" target="_top" xlink:title="tlz::dataset_view::\llocal_filename">
<polygon fill="white" stroke="black" points="320.5,-39 320.5,-69 417.5,-69 417.5,-39 320.5,-39"/>
<text text-anchor="start" x="328.5" y="-57" font-family="Helvetica,sans-Serif" font-size="10.00">tlz::dataset_view::</text>
<text text-anchor="middle" x="369" y="-46" font-family="Helvetica,sans-Serif" font-size="10.00">local_filename</text>
</a>
</g>
</g>
<!-- Node30&#45;&gt;Node31 -->
<g id="edge43" class="edge"><title>Node30&#45;&gt;Node31</title>
<path fill="none" stroke="midnightblue" d="M208.257,-172.269C221.292,-168.575 234.657,-162.855 245,-154 273.392,-129.693 252.385,-102.044 281,-78 289.45,-70.9003 299.836,-65.8906 310.453,-62.3583"/>
<polygon fill="midnightblue" stroke="midnightblue" points="311.599,-65.6702 320.22,-59.5121 309.64,-58.9497 311.599,-65.6702"/>
</g>
<!-- Node31&#45;&gt;Node19 -->
<g id="edge44" class="edge"><title>Node31&#45;&gt;Node19</title>
<path fill="none" stroke="midnightblue" d="M417.601,-57.9059C440.411,-59.7683 468.119,-62.0174 493,-64 612.54,-73.5254 921.692,-56.6814 1031,-106 1052.79,-115.833 1071.64,-136.23 1083.35,-151.161"/>
<polygon fill="midnightblue" stroke="midnightblue" points="1080.58,-153.304 1089.38,-159.2 1086.18,-149.101 1080.58,-153.304"/>
</g>
<!-- Node32 -->
<g id="node32" class="node"><title>Node32</title>
<g id="a_node32"><a xlink:href="classtlz_1_1dataset__view.html#a4951a6300847e0fed4fecf79d8753b58" target="_top" xlink:title="tlz::dataset_view::\llocal_parameters">
<polygon fill="white" stroke="black" points="532.5,-25 532.5,-55 629.5,-55 629.5,-25 532.5,-25"/>
<text text-anchor="start" x="540.5" y="-43" font-family="Helvetica,sans-Serif" font-size="10.00">tlz::dataset_view::</text>
<text text-anchor="middle" x="581" y="-32" font-family="Helvetica,sans-Serif" font-size="10.00">local_parameters</text>
</a>
</g>
</g>
<!-- Node31&#45;&gt;Node32 -->
<g id="edge45" class="edge"><title>Node31&#45;&gt;Node32</title>
<path fill="none" stroke="midnightblue" d="M417.652,-50.8232C448.555,-48.763 489.017,-46.0655 521.815,-43.879"/>
<polygon fill="midnightblue" stroke="midnightblue" points="522.428,-47.346 532.173,-43.1884 521.963,-40.3615 522.428,-47.346"/>
</g>
<!-- Node33 -->
<g id="node33" class="node"><title>Node33</title>
<g id="a_node33"><a xlink:href="classtlz_1_1dataset.html#ab14f5b1f18c0ab423c18270b7ca46bd2" target="_top" xlink:title="tlz::dataset::parameters">
<polygon fill="white" stroke="black" points="730,-30.5 730,-49.5 850,-49.5 850,-30.5 730,-30.5"/>
<text text-anchor="middle" x="790" y="-37.5" font-family="Helvetica,sans-Serif" font-size="10.00">tlz::dataset::parameters</text>
</a>
</g>
</g>
<!-- Node32&#45;&gt;Node33 -->
<g id="edge46" class="edge"><title>Node32&#45;&gt;Node33</title>
<path fill="none" stroke="midnightblue" d="M629.75,-40C656.345,-40 689.939,-40 719.41,-40"/>
<polygon fill="midnightblue" stroke="midnightblue" points="719.644,-43.5001 729.644,-40 719.644,-36.5001 719.644,-43.5001"/>
</g>
<!-- Node35&#45;&gt;Node13 -->
<g id="edge50" class="edge"><title>Node35&#45;&gt;Node13</title>
<path fill="none" stroke="midnightblue" d="M245.174,-220.82C304.657,-218.497 385.966,-213.732 457,-204 464.14,-203.022 496.649,-196.133 526.452,-189.692"/>
<polygon fill="midnightblue" stroke="midnightblue" points="527.382,-193.072 536.415,-187.535 525.901,-186.231 527.382,-193.072"/>
</g>
<!-- Node36 -->
<g id="node36" class="node"><title>Node36</title>
<g id="a_node36"><a xlink:href="namespacetlz.html#ab98de0b10e3e079dee189f81adc638a0" target="_top" xlink:title="tlz::export_json_file">
<polygon fill="white" stroke="black" points="318.5,-175.5 318.5,-194.5 419.5,-194.5 419.5,-175.5 318.5,-175.5"/>
<text text-anchor="middle" x="369" y="-182.5" font-family="Helvetica,sans-Serif" font-size="10.00">tlz::export_json_file</text>
</a>
</g>
</g>
<!-- Node35&#45;&gt;Node36 -->
<g id="edge51" class="edge"><title>Node35&#45;&gt;Node36</title>
<path fill="none" stroke="midnightblue" d="M212.593,-213.46C241.715,-208.127 278.126,-201.459 308.383,-195.918"/>
<polygon fill="midnightblue" stroke="midnightblue" points="309.182,-199.33 318.388,-194.086 307.921,-192.444 309.182,-199.33"/>
</g>
<!-- Node37 -->
<g id="node37" class="node"><title>Node37</title>
<g id="a_node37"><a xlink:href="namespacetlz.html#a5425610b090d56218f8a7272ba402bfb" target="_top" xlink:title="tlz::encode_image_correspondences">
<polygon fill="white" stroke="black" points="281,-137.5 281,-156.5 457,-156.5 457,-137.5 281,-137.5"/>
<text text-anchor="middle" x="369" y="-144.5" font-family="Helvetica,sans-Serif" font-size="10.00">tlz::encode_image_correspondences</text>
</a>
</g>
</g>
<!-- Node35&#45;&gt;Node37 -->
<g id="edge53" class="edge"><title>Node35&#45;&gt;Node37</title>
<path fill="none" stroke="midnightblue" d="M223.007,-213.393C230.679,-210.941 238.202,-207.863 245,-204 265.226,-192.505 260.738,-177.433 281,-166 284.97,-163.76 289.18,-161.784 293.521,-160.041"/>
<polygon fill="midnightblue" stroke="midnightblue" points="294.954,-163.245 303.193,-156.584 292.599,-156.653 294.954,-163.245"/>
</g>
<!-- Node42 -->
<g id="node42" class="node"><title>Node42</title>
<g id="a_node42"><a xlink:href="namespacetlz.html#a24bb23db2319f38046e6de526a0cb20e" target="_top" xlink:title="tlz::export_binary\l_image_correspondences">
<polygon fill="white" stroke="black" points="305,-88 305,-118 433,-118 433,-88 305,-88"/>
<text text-anchor="start" x="313" y="-106" font-family="Helvetica,sans-Serif" font-size="10.00">tlz::export_binary</text>
<text text-anchor="middle" x="369" y="-95" font-family="Helvetica,sans-Serif" font-size="10.00">_image_correspondences</text>
</a>
</g>
</g>
<!-- Node35&#45;&gt;Node42 -->
<g id="edge59" class="edge"><title>Node35&#45;&gt;Node42</title>
<path fill="none" stroke="midnightblue" d="M229.006,-213.456C234.747,-210.957 240.186,-207.851 245,-204 274.184,-180.65 252.513,-152.196 281,-128 285.451,-124.22 290.442,-121.01 295.723,-118.286"/>
<polygon fill="midnightblue" stroke="midnightblue" points="297.185,-121.466 304.841,-114.142 294.289,-115.093 297.185,-121.466"/>
</g>
<!-- Node36&#45;&gt;Node13 -->
<g id="edge52" class="edge"><title>Node36&#45;&gt;Node13</title>
<path fill="none" stroke="midnightblue" d="M419.501,-183.35C446.402,-182.453 480.123,-181.329 509.704,-180.343"/>
<polygon fill="midnightblue" stroke="midnightblue" points="510.098,-183.832 519.976,-180.001 509.865,-176.836 510.098,-183.832"/>
</g>
<!-- Node38 -->
<g id="node38" class="node"><title>Node38</title>
<g id="a_node38"><a xlink:href="namespacetlz.html#aa875dcb2a47f0a406887a14c6f515bfd" target="_top" xlink:title="tlz::encode_image_correspondence\l_feature">
<polygon fill="white" stroke="black" points="496,-119 496,-149 666,-149 666,-119 496,-119"/>
<text text-anchor="start" x="504" y="-137" font-family="Helvetica,sans-Serif" font-size="10.00">tlz::encode_image_correspondence</text>
<text text-anchor="middle" x="581" y="-126" font-family="Helvetica,sans-Serif" font-size="10.00">_feature</text>
</a>
</g>
</g>
<!-- Node37&#45;&gt;Node38 -->
<g id="edge54" class="edge"><title>Node37&#45;&gt;Node38</title>
<path fill="none" stroke="midnightblue" d="M457.235,-141.6C466.586,-141.021 476.131,-140.43 485.561,-139.846"/>
<polygon fill="midnightblue" stroke="midnightblue" points="485.97,-143.328 495.735,-139.216 485.538,-136.341 485.97,-143.328"/>
</g>
<!-- Node39 -->
<g id="node39" class="node"><title>Node39</title>
<g id="a_node39"><a xlink:href="namespacetlz.html#aadab29bdc80bc1d0ad6d3784dd427992" target="_top" xlink:title="tlz::encode_view_index">
<polygon fill="white" stroke="black" points="730.5,-162.5 730.5,-181.5 849.5,-181.5 849.5,-162.5 730.5,-162.5"/>
<text text-anchor="middle" x="790" y="-169.5" font-family="Helvetica,sans-Serif" font-size="10.00">tlz::encode_view_index</text>
</a>
</g>
</g>
<!-- Node38&#45;&gt;Node39 -->
<g id="edge55" class="edge"><title>Node38&#45;&gt;Node39</title>
<path fill="none" stroke="midnightblue" d="M663.812,-149.019C684.984,-152.905 707.423,-157.025 727.368,-160.686"/>
<polygon fill="midnightblue" stroke="midnightblue" points="726.777,-164.136 737.245,-162.499 728.041,-157.251 726.777,-164.136"/>
</g>
<!-- Node41 -->
<g id="node41" class="node"><title>Node41</title>
<g id="a_node41"><a xlink:href="namespacetlz.html#a8f6c31dc4b1dffe7950bcb1f4ff85cbc" target="_top" xlink:title="tlz::encode_feature\l_point">
<polygon fill="white" stroke="black" points="740,-113 740,-143 840,-143 840,-113 740,-113"/>
<text text-anchor="start" x="748" y="-131" font-family="Helvetica,sans-Serif" font-size="10.00">tlz::encode_feature</text>
<text text-anchor="middle" x="790" y="-120" font-family="Helvetica,sans-Serif" font-size="10.00">_point</text>
</a>
</g>
</g>
<!-- Node38&#45;&gt;Node41 -->
<g id="edge58" class="edge"><title>Node38&#45;&gt;Node41</title>
<path fill="none" stroke="midnightblue" d="M666.195,-131.56C687.546,-130.941 710.033,-130.289 729.847,-129.715"/>
<polygon fill="midnightblue" stroke="midnightblue" points="730.05,-133.21 739.944,-129.422 729.847,-126.213 730.05,-133.21"/>
</g>
<!-- Node39&#45;&gt;Node9 -->
<g id="edge56" class="edge"><title>Node39&#45;&gt;Node9</title>
<path fill="none" stroke="midnightblue" d="M849.72,-181.143C858.543,-183.869 867.266,-187.408 875,-192 895.565,-204.212 890.926,-218.998 911,-232 915.572,-234.962 920.644,-237.495 925.838,-239.653"/>
<polygon fill="midnightblue" stroke="midnightblue" points="924.645,-242.944 935.238,-243.146 927.083,-236.382 924.645,-242.944"/>
</g>
<!-- Node40 -->
<g id="node40" class="node"><title>Node40</title>
<g id="a_node40"><a xlink:href="structtlz_1_1view__index.html#a20518c30015d833cdb2a69b524886b96" target="_top" xlink:title="tlz::view_index::is_2d">
<polygon fill="white" stroke="black" points="915.5,-115.5 915.5,-134.5 1026.5,-134.5 1026.5,-115.5 915.5,-115.5"/>
<text text-anchor="middle" x="971" y="-122.5" font-family="Helvetica,sans-Serif" font-size="10.00">tlz::view_index::is_2d</text>
</a>
</g>
</g>
<!-- Node39&#45;&gt;Node40 -->
<g id="edge57" class="edge"><title>Node39&#45;&gt;Node40</title>
<path fill="none" stroke="midnightblue" d="M835.595,-162.472C848.361,-159.593 862.266,-156.313 875,-153 892.915,-148.339 912.562,-142.647 929.317,-137.614"/>
<polygon fill="midnightblue" stroke="midnightblue" points="930.778,-140.829 939.335,-134.582 928.749,-134.129 930.778,-140.829"/>
</g>
</g>
</svg>
