<?xml version="1.0" encoding="UTF-8" standalone="no"?>
<!DOCTYPE svg PUBLIC "-//W3C//DTD SVG 1.1//EN"
 "http://www.w3.org/Graphics/SVG/1.1/DTD/svg11.dtd">
<!-- Generated by graphviz version 2.38.0 (20140413.2041)
 -->
<!-- Title: main Pages: 1 -->
<svg width="658pt" height="866pt"
 viewBox="0.00 0.00 658.00 865.62" xmlns="http://www.w3.org/2000/svg" xmlns:xlink="http://www.w3.org/1999/xlink">
<g id="graph0" class="graph" transform="scale(1 1) rotate(0) translate(4 861.615)">
<title>main</title>
<polygon fill="white" stroke="none" points="-4,4 -4,-861.615 654,-861.615 654,4 -4,4"/>
<!-- Node1 -->
<g id="node1" class="node"><title>Node1</title>
<polygon fill="#bfbfbf" stroke="black" points="0,-397.5 0,-416.5 38,-416.5 38,-397.5 0,-397.5"/>
<text text-anchor="middle" x="19" y="-404.5" font-family="Helvetica,sans-Serif" font-size="10.00">main</text>
</g>
<!-- Node2 -->
<g id="node2" class="node"><title>Node2</title>
<g id="a_node2"><a xlink:href="namespacetlz.html#a3c03f5d9d6261ec2909938822fc47f8a" target="_top" xlink:title="tlz::get_args">
<polygon fill="white" stroke="black" points="101.5,-794.5 101.5,-813.5 172.5,-813.5 172.5,-794.5 101.5,-794.5"/>
<text text-anchor="middle" x="137" y="-801.5" font-family="Helvetica,sans-Serif" font-size="10.00">tlz::get_args</text>
</a>
</g>
</g>
<!-- Node1&#45;&gt;Node2 -->
<g id="edge1" class="edge"><title>Node1&#45;&gt;Node2</title>
<path fill="none" stroke="midnightblue" d="M20.0287,-416.803C20.3819,-470.363 24.6581,-727.322 74,-785 78.622,-790.403 84.737,-794.296 91.327,-797.096"/>
<polygon fill="midnightblue" stroke="midnightblue" points="90.6089,-800.549 101.203,-800.465 92.8684,-793.924 90.6089,-800.549"/>
</g>
<!-- Node3 -->
<g id="node3" class="node"><title>Node3</title>
<g id="a_node3"><a xlink:href="namespacetlz.html#a634de7ca11e100e4a118dffe80376a75" target="_top" xlink:title="tlz::in_filename_arg">
<polygon fill="white" stroke="black" points="86.5,-756.5 86.5,-775.5 187.5,-775.5 187.5,-756.5 86.5,-756.5"/>
<text text-anchor="middle" x="137" y="-763.5" font-family="Helvetica,sans-Serif" font-size="10.00">tlz::in_filename_arg</text>
</a>
</g>
</g>
<!-- Node1&#45;&gt;Node3 -->
<g id="edge2" class="edge"><title>Node1&#45;&gt;Node3</title>
<path fill="none" stroke="midnightblue" d="M20.6376,-416.503C23.928,-463.377 40.1548,-669.827 74,-723 81.5482,-734.859 93.6628,-744.331 105.189,-751.334"/>
<polygon fill="midnightblue" stroke="midnightblue" points="103.778,-754.557 114.208,-756.42 107.216,-748.459 103.778,-754.557"/>
</g>
<!-- Node8 -->
<g id="node8" class="node"><title>Node8</title>
<g id="a_node8"><a xlink:href="namespacetlz.html#a8e4f8c8c2927bc4350de13bfa0f8f9e1" target="_top" xlink:title="tlz::to_string">
<polygon fill="white" stroke="black" points="554.5,-737.5 554.5,-756.5 625.5,-756.5 625.5,-737.5 554.5,-737.5"/>
<text text-anchor="middle" x="590" y="-744.5" font-family="Helvetica,sans-Serif" font-size="10.00">tlz::to_string</text>
</a>
</g>
</g>
<!-- Node1&#45;&gt;Node8 -->
<g id="edge40" class="edge"><title>Node1&#45;&gt;Node8</title>
<path fill="none" stroke="midnightblue" d="M20.3662,-416.764C22.2799,-462.137 32.6835,-651.799 74,-690 91.208,-705.911 421.768,-733.697 544.035,-743.474"/>
<polygon fill="midnightblue" stroke="midnightblue" points="543.936,-746.978 554.182,-744.283 544.492,-740 543.936,-746.978"/>
</g>
<!-- Node10 -->
<g id="node10" class="node"><title>Node10</title>
<g id="a_node10"><a xlink:href="namespacetlz.html#a23ae826b33c7d428c32ce1bf2e6b1630" target="_top" xlink:title="tlz::decode_kinect\l_internal_parameters">
<polygon fill="white" stroke="black" points="83.5,-650 83.5,-680 190.5,-680 190.5,-650 83.5,-650"/>
<text text-anchor="start" x="91.5" y="-668" font-family="Helvetica,sans-Serif" font-size="10.00">tlz::decode_kinect</text>
<text text-anchor="middle" x="137" y="-657" font-family="Helvetica,sans-Serif" font-size="10.00">_internal_parameters</text>
</a>
</g>
</g>
<!-- Node1&#45;&gt;Node10 -->
<g id="edge11" class="edge"><title>Node1&#45;&gt;Node10</title>
<path fill="none" stroke="midnightblue" d="M21.0491,-416.65C25.5168,-456.15 44.1068,-605.054 74,-640 75.1411,-641.334 76.3637,-642.598 77.6544,-643.794"/>
<polygon fill="midnightblue" stroke="midnightblue" points="75.6255,-646.649 85.6944,-649.945 79.8789,-641.089 75.6255,-646.649"/>
</g>
<!-- Node11 -->
<g id="node11" class="node"><title>Node11</title>
<g id="a_node11"><a xlink:href="namespacetlz.html#aa1be9362f548fcf9378e1fc9074089c4" target="_top" xlink:title="tlz::import_json_file">
<polygon fill="white" stroke="black" points="86.5,-611.5 86.5,-630.5 187.5,-630.5 187.5,-611.5 86.5,-611.5"/>
<text text-anchor="middle" x="137" y="-618.5" font-family="Helvetica,sans-Serif" font-size="10.00">tlz::import_json_file</text>
</a>
</g>
</g>
<!-- Node1&#45;&gt;Node11 -->
<g id="edge12" class="edge"><title>Node1&#45;&gt;Node11</title>
<path fill="none" stroke="midnightblue" d="M19.65,-416.674C19.0622,-448.058 21.5717,-548.125 74,-602 75.4133,-603.452 76.9343,-604.794 78.541,-606.034"/>
<polygon fill="midnightblue" stroke="midnightblue" points="76.8479,-609.103 87.1856,-611.423 80.551,-603.163 76.8479,-609.103"/>
</g>
<!-- Node12 -->
<g id="node12" class="node"><title>Node12</title>
<g id="a_node12"><a xlink:href="namespacetlz.html#ad5e7c69f85c8a3b9aad1bd4aeb551148" target="_top" xlink:title="tlz::decode_kinect\l_reprojection_parameters">
<polygon fill="white" stroke="black" points="74,-562 74,-592 200,-592 200,-562 74,-562"/>
<text text-anchor="start" x="82" y="-580" font-family="Helvetica,sans-Serif" font-size="10.00">tlz::decode_kinect</text>
<text text-anchor="middle" x="137" y="-569" font-family="Helvetica,sans-Serif" font-size="10.00">_reprojection_parameters</text>
</a>
</g>
</g>
<!-- Node1&#45;&gt;Node12 -->
<g id="edge13" class="edge"><title>Node1&#45;&gt;Node12</title>
<path fill="none" stroke="midnightblue" d="M20.9145,-416.524C23.8446,-441.943 35.2109,-512.158 74,-552 75.3966,-553.434 76.8864,-554.789 78.4507,-556.068"/>
<polygon fill="midnightblue" stroke="midnightblue" points="76.5906,-559.037 86.8042,-561.854 80.5761,-553.283 76.5906,-559.037"/>
</g>
<!-- Node17 -->
<g id="node17" class="node"><title>Node17</title>
<g id="a_node17"><a xlink:href="namespacetlz.html#a6f3975e223ba94b96abba39598db17af" target="_top" xlink:title="tlz::to_freenect2">
<polygon fill="white" stroke="black" points="93.5,-523.5 93.5,-542.5 180.5,-542.5 180.5,-523.5 93.5,-523.5"/>
<text text-anchor="middle" x="137" y="-530.5" font-family="Helvetica,sans-Serif" font-size="10.00">tlz::to_freenect2</text>
</a>
</g>
</g>
<!-- Node1&#45;&gt;Node17 -->
<g id="edge21" class="edge"><title>Node1&#45;&gt;Node17</title>
<path fill="none" stroke="midnightblue" d="M22.1304,-416.582C27.2712,-437.459 42.3399,-487.312 74,-514 77.0598,-516.579 80.4652,-518.809 84.0614,-520.735"/>
<polygon fill="midnightblue" stroke="midnightblue" points="82.7522,-523.985 93.3049,-524.929 85.6442,-517.61 82.7522,-523.985"/>
</g>
<!-- Node18 -->
<g id="node18" class="node"><title>Node18</title>
<g id="a_node18"><a xlink:href="classtlz_1_1viewer.html#a2bf9d63d7a1a5ec4d5bdabc13d9ab688" target="_top" xlink:title="tlz::viewer::add_int\l_slider">
<polygon fill="white" stroke="black" points="87.5,-474 87.5,-504 186.5,-504 186.5,-474 87.5,-474"/>
<text text-anchor="start" x="95.5" y="-492" font-family="Helvetica,sans-Serif" font-size="10.00">tlz::viewer::add_int</text>
<text text-anchor="middle" x="137" y="-481" font-family="Helvetica,sans-Serif" font-size="10.00">_slider</text>
</a>
</g>
</g>
<!-- Node1&#45;&gt;Node18 -->
<g id="edge22" class="edge"><title>Node1&#45;&gt;Node18</title>
<path fill="none" stroke="midnightblue" d="M27.0376,-416.689C36.4941,-429.115 54.3953,-450.649 74,-464 76.734,-465.862 79.6276,-467.619 82.6116,-469.272"/>
<polygon fill="midnightblue" stroke="midnightblue" points="81.2632,-472.512 91.7646,-473.916 84.431,-466.27 81.2632,-472.512"/>
</g>
<!-- Node19 -->
<g id="node19" class="node"><title>Node19</title>
<g id="a_node19"><a xlink:href="classtlz_1_1grabber.html#a14d256bd7ef0af5be70f2bd7713a7e54" target="_top" xlink:title="tlz::grabber::grab">
<polygon fill="white" stroke="black" points="92,-435.5 92,-454.5 182,-454.5 182,-435.5 92,-435.5"/>
<text text-anchor="middle" x="137" y="-442.5" font-family="Helvetica,sans-Serif" font-size="10.00">tlz::grabber::grab</text>
</a>
</g>
</g>
<!-- Node1&#45;&gt;Node19 -->
<g id="edge23" class="edge"><title>Node1&#45;&gt;Node19</title>
<path fill="none" stroke="midnightblue" d="M38.4304,-413.695C48.8376,-417.423 62.1049,-422.087 74,-426 80.5384,-428.151 87.4902,-430.359 94.2849,-432.473"/>
<polygon fill="midnightblue" stroke="midnightblue" points="93.4738,-435.885 104.061,-435.486 95.5356,-429.196 93.4738,-435.885"/>
</g>
<!-- Node20 -->
<g id="node20" class="node"><title>Node20</title>
<g id="a_node20"><a xlink:href="classtlz_1_1viewer.html#a0ad9ee28b8127c63b2886b04fb36e3dc" target="_top" xlink:title="tlz::viewer::clear">
<polygon fill="white" stroke="black" points="92.5,-359.5 92.5,-378.5 181.5,-378.5 181.5,-359.5 92.5,-359.5"/>
<text text-anchor="middle" x="137" y="-366.5" font-family="Helvetica,sans-Serif" font-size="10.00">tlz::viewer::clear</text>
</a>
</g>
</g>
<!-- Node1&#45;&gt;Node20 -->
<g id="edge24" class="edge"><title>Node1&#45;&gt;Node20</title>
<path fill="none" stroke="midnightblue" d="M38.4304,-400.305C48.8376,-396.577 62.1049,-391.913 74,-388 80.5384,-385.849 87.4902,-383.641 94.2849,-381.527"/>
<polygon fill="midnightblue" stroke="midnightblue" points="95.5356,-384.804 104.061,-378.514 93.4738,-378.115 95.5356,-384.804"/>
</g>
<!-- Node23 -->
<g id="node23" class="node"><title>Node23</title>
<g id="a_node23"><a xlink:href="classtlz_1_1grabber.html#a64e9af7d0c0e982539c7465f4c8c2755" target="_top" xlink:title="tlz::grabber::get_color\l_frame">
<polygon fill="white" stroke="black" points="81.5,-310 81.5,-340 192.5,-340 192.5,-310 81.5,-310"/>
<text text-anchor="start" x="89.5" y="-328" font-family="Helvetica,sans-Serif" font-size="10.00">tlz::grabber::get_color</text>
<text text-anchor="middle" x="137" y="-317" font-family="Helvetica,sans-Serif" font-size="10.00">_frame</text>
</a>
</g>
</g>
<!-- Node1&#45;&gt;Node23 -->
<g id="edge27" class="edge"><title>Node1&#45;&gt;Node23</title>
<path fill="none" stroke="midnightblue" d="M27.0376,-397.311C36.4941,-384.885 54.3953,-363.351 74,-350 76.734,-348.138 79.6276,-346.381 82.6116,-344.728"/>
<polygon fill="midnightblue" stroke="midnightblue" points="84.431,-347.73 91.7646,-340.084 81.2632,-341.488 84.431,-347.73"/>
</g>
<!-- Node24 -->
<g id="node24" class="node"><title>Node24</title>
<g id="a_node24"><a xlink:href="classtlz_1_1grabber.html#ab0a7ab9197c8d2676a072c3f9eadd96d" target="_top" xlink:title="tlz::grabber::get_ir\l_frame">
<polygon fill="white" stroke="black" points="89.5,-261 89.5,-291 184.5,-291 184.5,-261 89.5,-261"/>
<text text-anchor="start" x="97.5" y="-279" font-family="Helvetica,sans-Serif" font-size="10.00">tlz::grabber::get_ir</text>
<text text-anchor="middle" x="137" y="-268" font-family="Helvetica,sans-Serif" font-size="10.00">_frame</text>
</a>
</g>
</g>
<!-- Node1&#45;&gt;Node24 -->
<g id="edge28" class="edge"><title>Node1&#45;&gt;Node24</title>
<path fill="none" stroke="midnightblue" d="M22.4154,-397.395C28.0315,-376.924 43.8418,-328.618 74,-301 76.1264,-299.053 78.4241,-297.248 80.8396,-295.576"/>
<polygon fill="midnightblue" stroke="midnightblue" points="82.6761,-298.556 89.4294,-290.392 79.0593,-292.563 82.6761,-298.556"/>
</g>
<!-- Node25 -->
<g id="node25" class="node"><title>Node25</title>
<g id="a_node25"><a xlink:href="classtlz_1_1grabber.html#a22caa426aef0275c5cdf9bfebe352940" target="_top" xlink:title="tlz::grabber::get_depth\l_frame">
<polygon fill="white" stroke="black" points="80,-212 80,-242 194,-242 194,-212 80,-212"/>
<text text-anchor="start" x="88" y="-230" font-family="Helvetica,sans-Serif" font-size="10.00">tlz::grabber::get_depth</text>
<text text-anchor="middle" x="137" y="-219" font-family="Helvetica,sans-Serif" font-size="10.00">_frame</text>
</a>
</g>
</g>
<!-- Node1&#45;&gt;Node25 -->
<g id="edge29" class="edge"><title>Node1&#45;&gt;Node25</title>
<path fill="none" stroke="midnightblue" d="M20.6705,-397.221C23.0168,-370.414 33.1074,-294.906 74,-252 75.3812,-250.551 76.8578,-249.183 78.4107,-247.893"/>
<polygon fill="midnightblue" stroke="midnightblue" points="80.5426,-250.673 86.7217,-242.067 76.5243,-244.941 80.5426,-250.673"/>
</g>
<!-- Node26 -->
<g id="node26" class="node"><title>Node26</title>
<g id="a_node26"><a xlink:href="classtlz_1_1kinect__reprojection.html#a0e55570a8afb6c70598495ea716e1dfe" target="_top" xlink:title="tlz::kinect_reprojection\l::reproject_ir_to_color\l_samples">
<polygon fill="white" stroke="black" points="79.5,-152.5 79.5,-193.5 194.5,-193.5 194.5,-152.5 79.5,-152.5"/>
<text text-anchor="start" x="87.5" y="-181.5" font-family="Helvetica,sans-Serif" font-size="10.00">tlz::kinect_reprojection</text>
<text text-anchor="start" x="87.5" y="-170.5" font-family="Helvetica,sans-Serif" font-size="10.00">::reproject_ir_to_color</text>
<text text-anchor="middle" x="137" y="-159.5" font-family="Helvetica,sans-Serif" font-size="10.00">_samples</text>
</a>
</g>
</g>
<!-- Node1&#45;&gt;Node26 -->
<g id="edge30" class="edge"><title>Node1&#45;&gt;Node26</title>
<path fill="none" stroke="midnightblue" d="M19.8563,-397.214C19.9008,-365.403 24.1273,-263.495 74,-203 74.7226,-202.123 75.477,-201.271 76.2598,-200.441"/>
<polygon fill="midnightblue" stroke="midnightblue" points="78.8267,-202.842 83.9809,-193.586 74.1792,-197.608 78.8267,-202.842"/>
</g>
<!-- Node27 -->
<g id="node27" class="node"><title>Node27</title>
<g id="a_node27"><a xlink:href="classtlz_1_1viewer.html#a5f0412cff89a343ad52431689502389d" target="_top" xlink:title="tlz::viewer::draw">
<polygon fill="white" stroke="black" points="92.5,-397.5 92.5,-416.5 181.5,-416.5 181.5,-397.5 92.5,-397.5"/>
<text text-anchor="middle" x="137" y="-404.5" font-family="Helvetica,sans-Serif" font-size="10.00">tlz::viewer::draw</text>
</a>
</g>
</g>
<!-- Node1&#45;&gt;Node27 -->
<g id="edge31" class="edge"><title>Node1&#45;&gt;Node27</title>
<path fill="none" stroke="midnightblue" d="M38.125,-407C50.0428,-407 66.314,-407 82.1679,-407"/>
<polygon fill="midnightblue" stroke="midnightblue" points="82.4759,-410.5 92.4759,-407 82.4758,-403.5 82.4759,-410.5"/>
</g>
<!-- Node28 -->
<g id="node28" class="node"><title>Node28</title>
<g id="a_node28"><a xlink:href="classtlz_1_1grabber.html#a412843d3f5dbbcb179e5ae4709577b91" target="_top" xlink:title="tlz::grabber::release">
<polygon fill="white" stroke="black" points="85.5,-114.5 85.5,-133.5 188.5,-133.5 188.5,-114.5 85.5,-114.5"/>
<text text-anchor="middle" x="137" y="-121.5" font-family="Helvetica,sans-Serif" font-size="10.00">tlz::grabber::release</text>
</a>
</g>
</g>
<!-- Node1&#45;&gt;Node28 -->
<g id="edge34" class="edge"><title>Node1&#45;&gt;Node28</title>
<path fill="none" stroke="midnightblue" d="M20.6686,-397.474C23.847,-354.819 38.763,-181.778 74,-143 75.1972,-141.683 76.483,-140.455 77.842,-139.312"/>
<polygon fill="midnightblue" stroke="midnightblue" points="79.9512,-142.112 86.3168,-133.643 76.059,-136.294 79.9512,-142.112"/>
</g>
<!-- Node29 -->
<g id="node29" class="node"><title>Node29</title>
<g id="a_node29"><a xlink:href="namespacetlz.html#a318f0ec11ecbe39c32ad870473ea9c35" target="_top" xlink:title="Compute square of a number. ">
<polygon fill="white" stroke="black" points="115,-76.5 115,-95.5 159,-95.5 159,-76.5 115,-76.5"/>
<text text-anchor="middle" x="137" y="-83.5" font-family="Helvetica,sans-Serif" font-size="10.00">tlz::sq</text>
</a>
</g>
</g>
<!-- Node1&#45;&gt;Node29 -->
<g id="edge35" class="edge"><title>Node1&#45;&gt;Node29</title>
<path fill="none" stroke="midnightblue" d="M20.4063,-397.386C22.5584,-350.923 34.0801,-150.042 74,-105 81.8323,-96.1627 93.6548,-91.3776 104.883,-88.8075"/>
<polygon fill="midnightblue" stroke="midnightblue" points="105.668,-92.2228 114.896,-87.0174 104.436,-85.3321 105.668,-92.2228"/>
</g>
<!-- Node33 -->
<g id="node33" class="node"><title>Node33</title>
<g id="a_node33"><a xlink:href="classtlz_1_1viewer.html#ad4fda702b7c5af2cb0bb9bc3842113f3" target="_top" xlink:title="tlz::viewer::draw_text">
<polygon fill="white" stroke="black" points="82,-38.5 82,-57.5 192,-57.5 192,-38.5 82,-38.5"/>
<text text-anchor="middle" x="137" y="-45.5" font-family="Helvetica,sans-Serif" font-size="10.00">tlz::viewer::draw_text</text>
</a>
</g>
</g>
<!-- Node1&#45;&gt;Node33 -->
<g id="edge39" class="edge"><title>Node1&#45;&gt;Node33</title>
<path fill="none" stroke="midnightblue" d="M20.2006,-397.204C21.4244,-346.936 29.4033,-118.315 74,-67 75.0385,-65.8051 76.15,-64.6841 77.3233,-63.6325"/>
<polygon fill="midnightblue" stroke="midnightblue" points="79.6708,-66.261 85.8465,-57.6522 75.6502,-60.5309 79.6708,-66.261"/>
</g>
<!-- Node34 -->
<g id="node34" class="node"><title>Node34</title>
<g id="a_node34"><a xlink:href="classtlz_1_1viewer.html#aabb3cdde75783ed1a41801fb236bc50e" target="_top" xlink:title="tlz::viewer::show">
<polygon fill="white" stroke="black" points="91.5,-0.5 91.5,-19.5 182.5,-19.5 182.5,-0.5 91.5,-0.5"/>
<text text-anchor="middle" x="137" y="-7.5" font-family="Helvetica,sans-Serif" font-size="10.00">tlz::viewer::show</text>
</a>
</g>
</g>
<!-- Node1&#45;&gt;Node34 -->
<g id="edge41" class="edge"><title>Node1&#45;&gt;Node34</title>
<path fill="none" stroke="midnightblue" d="M20.0287,-397.197C20.3819,-343.637 24.6581,-86.6777 74,-29 76.3773,-26.221 79.1496,-23.8414 82.1784,-21.8045"/>
<polygon fill="midnightblue" stroke="midnightblue" points="84.1195,-24.7351 91.2781,-16.9246 80.8112,-18.5662 84.1195,-24.7351"/>
</g>
<!-- Node4 -->
<g id="node4" class="node"><title>Node4</title>
<g id="a_node4"><a xlink:href="namespacetlz.html#a0621d598fb83b13bf028f3e6293d04f8" target="_top" xlink:title="tlz::string_arg">
<polygon fill="white" stroke="black" points="252.5,-775.5 252.5,-794.5 328.5,-794.5 328.5,-775.5 252.5,-775.5"/>
<text text-anchor="middle" x="290.5" y="-782.5" font-family="Helvetica,sans-Serif" font-size="10.00">tlz::string_arg</text>
</a>
</g>
</g>
<!-- Node3&#45;&gt;Node4 -->
<g id="edge3" class="edge"><title>Node3&#45;&gt;Node4</title>
<path fill="none" stroke="midnightblue" d="M187.607,-772.221C205.209,-774.429 224.957,-776.905 242.348,-779.087"/>
<polygon fill="midnightblue" stroke="midnightblue" points="241.923,-782.561 252.281,-780.332 242.795,-775.615 241.923,-782.561"/>
</g>
<!-- Node5 -->
<g id="node5" class="node"><title>Node5</title>
<g id="a_node5"><a xlink:href="namespacetlz.html#a780431daab8d2595372eacb43143b52d" target="_top" xlink:title="tlz::args">
<polygon fill="white" stroke="black" points="411.5,-813.5 411.5,-832.5 463.5,-832.5 463.5,-813.5 411.5,-813.5"/>
<text text-anchor="middle" x="437.5" y="-820.5" font-family="Helvetica,sans-Serif" font-size="10.00">tlz::args</text>
</a>
</g>
</g>
<!-- Node3&#45;&gt;Node5 -->
<g id="edge9" class="edge"><title>Node3&#45;&gt;Node5</title>
<path fill="none" stroke="midnightblue" d="M173.165,-775.519C182.039,-778.262 191.467,-781.478 200,-785 216.723,-791.903 218.664,-798.826 236,-804 291.976,-820.707 360.285,-823.7 400.989,-823.763"/>
<polygon fill="midnightblue" stroke="midnightblue" points="401.227,-827.262 411.211,-823.717 401.196,-820.262 401.227,-827.262"/>
</g>
<!-- Node7 -->
<g id="node7" class="node"><title>Node7</title>
<g id="a_node7"><a xlink:href="classtlz_1_1args__list.html#a38ad21acd64a4af98ffdf4a47837cdbe" target="_top" xlink:title="tlz::args_list::usage_fail">
<polygon fill="white" stroke="black" points="530,-813.5 530,-832.5 650,-832.5 650,-813.5 530,-813.5"/>
<text text-anchor="middle" x="590" y="-820.5" font-family="Helvetica,sans-Serif" font-size="10.00">tlz::args_list::usage_fail</text>
</a>
</g>
</g>
<!-- Node3&#45;&gt;Node7 -->
<g id="edge10" class="edge"><title>Node3&#45;&gt;Node7</title>
<path fill="none" stroke="midnightblue" d="M180.427,-775.55C187.264,-778.044 194.043,-781.15 200,-785 220.366,-798.163 214.491,-814.8 236,-826 337.342,-878.769 478.289,-853.09 547.412,-835.236"/>
<polygon fill="midnightblue" stroke="midnightblue" points="548.71,-838.512 557.475,-832.56 546.911,-831.747 548.71,-838.512"/>
</g>
<!-- Node9 -->
<g id="node9" class="node"><title>Node9</title>
<g id="a_node9"><a xlink:href="namespacetlz.html#abb019466ea9f56c0dab27e893d891837" target="_top" xlink:title="tlz::file_exists">
<polygon fill="white" stroke="black" points="252,-737.5 252,-756.5 329,-756.5 329,-737.5 252,-737.5"/>
<text text-anchor="middle" x="290.5" y="-744.5" font-family="Helvetica,sans-Serif" font-size="10.00">tlz::file_exists</text>
</a>
</g>
</g>
<!-- Node3&#45;&gt;Node9 -->
<g id="edge8" class="edge"><title>Node3&#45;&gt;Node9</title>
<path fill="none" stroke="midnightblue" d="M187.607,-759.779C204.901,-757.61 224.268,-755.181 241.435,-753.028"/>
<polygon fill="midnightblue" stroke="midnightblue" points="242.314,-756.445 251.801,-751.728 241.443,-749.5 242.314,-756.445"/>
</g>
<!-- Node4&#45;&gt;Node5 -->
<g id="edge4" class="edge"><title>Node4&#45;&gt;Node5</title>
<path fill="none" stroke="midnightblue" d="M328.09,-794.589C350.643,-800.5 379.4,-808.036 401.628,-813.861"/>
<polygon fill="midnightblue" stroke="midnightblue" points="400.775,-817.256 411.336,-816.405 402.55,-810.484 400.775,-817.256"/>
</g>
<!-- Node6 -->
<g id="node6" class="node"><title>Node6</title>
<g id="a_node6"><a xlink:href="classtlz_1_1args__list.html#a73d99bc75998dc14607a3a372d28dc6d" target="_top" xlink:title="tlz::args_list::next_arg">
<polygon fill="white" stroke="black" points="381,-775.5 381,-794.5 494,-794.5 494,-775.5 381,-775.5"/>
<text text-anchor="middle" x="437.5" y="-782.5" font-family="Helvetica,sans-Serif" font-size="10.00">tlz::args_list::next_arg</text>
</a>
</g>
</g>
<!-- Node4&#45;&gt;Node6 -->
<g id="edge5" class="edge"><title>Node4&#45;&gt;Node6</title>
<path fill="none" stroke="midnightblue" d="M328.841,-785C341.603,-785 356.282,-785 370.614,-785"/>
<polygon fill="midnightblue" stroke="midnightblue" points="370.956,-788.5 380.956,-785 370.956,-781.5 370.956,-788.5"/>
</g>
<!-- Node6&#45;&gt;Node7 -->
<g id="edge6" class="edge"><title>Node6&#45;&gt;Node7</title>
<path fill="none" stroke="midnightblue" d="M476.478,-794.589C496.159,-799.558 520.391,-805.677 541.321,-810.961"/>
<polygon fill="midnightblue" stroke="midnightblue" points="540.743,-814.425 551.296,-813.48 542.457,-807.638 540.743,-814.425"/>
</g>
<!-- Node6&#45;&gt;Node8 -->
<g id="edge7" class="edge"><title>Node6&#45;&gt;Node8</title>
<path fill="none" stroke="midnightblue" d="M476.478,-775.411C497.15,-770.191 522.844,-763.704 544.458,-758.247"/>
<polygon fill="midnightblue" stroke="midnightblue" points="545.545,-761.582 554.384,-755.74 543.831,-754.795 545.545,-761.582"/>
</g>
<!-- Node13 -->
<g id="node13" class="node"><title>Node13</title>
<g id="a_node13"><a xlink:href="namespacetlz.html#a8cba4853d0d796a01c72f59f36f2a492" target="_top" xlink:title="tlz::decode_intrinsics">
<polygon fill="white" stroke="black" points="236,-567.5 236,-586.5 345,-586.5 345,-567.5 236,-567.5"/>
<text text-anchor="middle" x="290.5" y="-574.5" font-family="Helvetica,sans-Serif" font-size="10.00">tlz::decode_intrinsics</text>
</a>
</g>
</g>
<!-- Node12&#45;&gt;Node13 -->
<g id="edge14" class="edge"><title>Node12&#45;&gt;Node13</title>
<path fill="none" stroke="midnightblue" d="M200.058,-577C208.424,-577 217.02,-577 225.42,-577"/>
<polygon fill="midnightblue" stroke="midnightblue" points="225.54,-580.5 235.54,-577 225.54,-573.5 225.54,-580.5"/>
</g>
<!-- Node14 -->
<g id="node14" class="node"><title>Node14</title>
<g id="a_node14"><a xlink:href="namespacetlz.html#a066563a26e2de02f215b179f3d3a53da" target="_top" xlink:title="tlz::decode_mat">
<polygon fill="white" stroke="black" points="394.5,-529.5 394.5,-548.5 480.5,-548.5 480.5,-529.5 394.5,-529.5"/>
<text text-anchor="middle" x="437.5" y="-536.5" font-family="Helvetica,sans-Serif" font-size="10.00">tlz::decode_mat</text>
</a>
</g>
</g>
<!-- Node12&#45;&gt;Node14 -->
<g id="edge19" class="edge"><title>Node12&#45;&gt;Node14</title>
<path fill="none" stroke="midnightblue" d="M200.057,-564.027C211.953,-561.807 224.335,-559.679 236,-558 285.984,-550.804 343.386,-545.68 383.926,-542.58"/>
<polygon fill="midnightblue" stroke="midnightblue" points="384.403,-546.055 394.114,-541.817 383.88,-539.074 384.403,-546.055"/>
</g>
<!-- Node15 -->
<g id="node15" class="node"><title>Node15</title>
<g id="a_node15"><a xlink:href="namespacetlz.html#a252af14b9b4ac6502d3e9c5dd8dc90b8" target="_top" xlink:title="tlz::has">
<polygon fill="white" stroke="black" points="565.5,-605.5 565.5,-624.5 614.5,-624.5 614.5,-605.5 565.5,-605.5"/>
<text text-anchor="middle" x="590" y="-612.5" font-family="Helvetica,sans-Serif" font-size="10.00">tlz::has</text>
</a>
</g>
</g>
<!-- Node12&#45;&gt;Node15 -->
<g id="edge20" class="edge"><title>Node12&#45;&gt;Node15</title>
<path fill="none" stroke="midnightblue" d="M200.119,-589.572C212.009,-591.829 224.374,-594.073 236,-596 300.179,-606.639 316.098,-611.545 381,-616 431.104,-619.439 443.778,-616.264 494,-616 514.268,-615.893 536.967,-615.659 555.094,-615.443"/>
<polygon fill="midnightblue" stroke="midnightblue" points="555.229,-618.942 565.185,-615.32 555.143,-611.943 555.229,-618.942"/>
</g>
<!-- Node13&#45;&gt;Node14 -->
<g id="edge15" class="edge"><title>Node13&#45;&gt;Node14</title>
<path fill="none" stroke="midnightblue" d="M328.09,-567.411C346.965,-562.464 370.186,-556.379 390.288,-551.111"/>
<polygon fill="midnightblue" stroke="midnightblue" points="391.387,-554.441 400.173,-548.52 389.613,-547.67 391.387,-554.441"/>
</g>
<!-- Node13&#45;&gt;Node15 -->
<g id="edge16" class="edge"><title>Node13&#45;&gt;Node15</title>
<path fill="none" stroke="midnightblue" d="M331.413,-586.527C346.832,-589.93 364.666,-593.529 381,-596 442.182,-605.256 514.22,-610.614 555.455,-613.159"/>
<polygon fill="midnightblue" stroke="midnightblue" points="555.305,-616.656 565.496,-613.76 555.723,-609.668 555.305,-616.656"/>
</g>
<!-- Node16 -->
<g id="node16" class="node"><title>Node16</title>
<g id="a_node16"><a xlink:href="namespacetlz.html#add846dc50c32dfb356cb1a7ac11d37ac" target="_top" xlink:title="tlz::get_or">
<polygon fill="white" stroke="black" points="407.5,-567.5 407.5,-586.5 467.5,-586.5 467.5,-567.5 407.5,-567.5"/>
<text text-anchor="middle" x="437.5" y="-574.5" font-family="Helvetica,sans-Serif" font-size="10.00">tlz::get_or</text>
</a>
</g>
</g>
<!-- Node13&#45;&gt;Node16 -->
<g id="edge17" class="edge"><title>Node13&#45;&gt;Node16</title>
<path fill="none" stroke="midnightblue" d="M345.081,-577C362.287,-577 381.022,-577 397.026,-577"/>
<polygon fill="midnightblue" stroke="midnightblue" points="397.105,-580.5 407.105,-577 397.105,-573.5 397.105,-580.5"/>
</g>
<!-- Node16&#45;&gt;Node15 -->
<g id="edge18" class="edge"><title>Node16&#45;&gt;Node15</title>
<path fill="none" stroke="midnightblue" d="M467.518,-584.327C492.553,-590.648 528.735,-599.784 555.098,-606.44"/>
<polygon fill="midnightblue" stroke="midnightblue" points="554.475,-609.893 565.028,-608.947 556.189,-603.106 554.475,-609.893"/>
</g>
<!-- Node21 -->
<g id="node21" class="node"><title>Node21</title>
<g id="a_node21"><a xlink:href="classtlz_1_1viewer.html#af74a8aef9dde68eeff6b1e2561b39014" target="_top" xlink:title="tlz::viewer::height">
<polygon fill="white" stroke="black" points="243.5,-397.5 243.5,-416.5 337.5,-416.5 337.5,-397.5 243.5,-397.5"/>
<text text-anchor="middle" x="290.5" y="-404.5" font-family="Helvetica,sans-Serif" font-size="10.00">tlz::viewer::height</text>
</a>
</g>
</g>
<!-- Node20&#45;&gt;Node21 -->
<g id="edge25" class="edge"><title>Node20&#45;&gt;Node21</title>
<path fill="none" stroke="midnightblue" d="M176.23,-378.589C196.132,-383.581 220.657,-389.732 241.791,-395.033"/>
<polygon fill="midnightblue" stroke="midnightblue" points="240.994,-398.442 251.545,-397.48 242.697,-391.652 240.994,-398.442"/>
</g>
<!-- Node22 -->
<g id="node22" class="node"><title>Node22</title>
<g id="a_node22"><a xlink:href="classtlz_1_1viewer.html#acc43bf1dd1d0c3cdc35a948d4c194769" target="_top" xlink:title="tlz::viewer::width">
<polygon fill="white" stroke="black" points="245,-359.5 245,-378.5 336,-378.5 336,-359.5 245,-359.5"/>
<text text-anchor="middle" x="290.5" y="-366.5" font-family="Helvetica,sans-Serif" font-size="10.00">tlz::viewer::width</text>
</a>
</g>
</g>
<!-- Node20&#45;&gt;Node22 -->
<g id="edge26" class="edge"><title>Node20&#45;&gt;Node22</title>
<path fill="none" stroke="midnightblue" d="M181.82,-369C198.403,-369 217.485,-369 234.936,-369"/>
<polygon fill="midnightblue" stroke="midnightblue" points="234.991,-372.5 244.991,-369 234.99,-365.5 234.991,-372.5"/>
</g>
<!-- Node27&#45;&gt;Node21 -->
<g id="edge33" class="edge"><title>Node27&#45;&gt;Node21</title>
<path fill="none" stroke="midnightblue" d="M181.82,-407C197.814,-407 216.132,-407 233.069,-407"/>
<polygon fill="midnightblue" stroke="midnightblue" points="233.404,-410.5 243.404,-407 233.404,-403.5 233.404,-410.5"/>
</g>
<!-- Node27&#45;&gt;Node22 -->
<g id="edge32" class="edge"><title>Node27&#45;&gt;Node22</title>
<path fill="none" stroke="midnightblue" d="M176.23,-397.411C196.132,-392.419 220.657,-386.268 241.791,-380.967"/>
<polygon fill="midnightblue" stroke="midnightblue" points="242.697,-384.348 251.545,-378.52 240.994,-377.558 242.697,-384.348"/>
</g>
<!-- Node30 -->
<g id="node30" class="node"><title>Node30</title>
<g id="a_node30"><a xlink:href="namespacetlz.html#a643b2d03bd805fe78dcd684ef45e52fb" target="_top" xlink:title="Clamp value between minimum and maximum value. ">
<polygon fill="white" stroke="black" points="261,-76.5 261,-95.5 320,-95.5 320,-76.5 261,-76.5"/>
<text text-anchor="middle" x="290.5" y="-83.5" font-family="Helvetica,sans-Serif" font-size="10.00">tlz::clamp</text>
</a>
</g>
</g>
<!-- Node29&#45;&gt;Node30 -->
<g id="edge36" class="edge"><title>Node29&#45;&gt;Node30</title>
<path fill="none" stroke="midnightblue" d="M159.065,-86C182.672,-86 221.45,-86 250.601,-86"/>
<polygon fill="midnightblue" stroke="midnightblue" points="250.859,-89.5001 260.859,-86 250.859,-82.5001 250.859,-89.5001"/>
</g>
<!-- Node31 -->
<g id="node31" class="node"><title>Node31</title>
<g id="a_node31"><a xlink:href="namespacetlz.html#a4fe5757a830e199f84d229eee11f616e" target="_top" xlink:title="Compute greatest common divisor of a and b. ">
<polygon fill="white" stroke="black" points="266,-38.5 266,-57.5 315,-57.5 315,-38.5 266,-38.5"/>
<text text-anchor="middle" x="290.5" y="-45.5" font-family="Helvetica,sans-Serif" font-size="10.00">tlz::gcd</text>
</a>
</g>
</g>
<!-- Node29&#45;&gt;Node31 -->
<g id="edge37" class="edge"><title>Node29&#45;&gt;Node31</title>
<path fill="none" stroke="midnightblue" d="M159.065,-80.7163C184.157,-74.4226 226.39,-63.8296 255.983,-56.4068"/>
<polygon fill="midnightblue" stroke="midnightblue" points="257.027,-59.7536 265.875,-53.9258 255.324,-52.9639 257.027,-59.7536"/>
</g>
<!-- Node32 -->
<g id="node32" class="node"><title>Node32</title>
<g id="a_node32"><a xlink:href="namespacetlz.html#aec6e2158ce198aa20a8493fde3d3b552" target="_top" xlink:title="Compute least common multiple of a and b. ">
<polygon fill="white" stroke="black" points="266,-114.5 266,-133.5 315,-133.5 315,-114.5 266,-114.5"/>
<text text-anchor="middle" x="290.5" y="-121.5" font-family="Helvetica,sans-Serif" font-size="10.00">tlz::lcm</text>
</a>
</g>
</g>
<!-- Node29&#45;&gt;Node32 -->
<g id="edge38" class="edge"><title>Node29&#45;&gt;Node32</title>
<path fill="none" stroke="midnightblue" d="M159.065,-91.2837C184.157,-97.5774 226.39,-108.17 255.983,-115.593"/>
<polygon fill="midnightblue" stroke="midnightblue" points="255.324,-119.036 265.875,-118.074 257.027,-112.246 255.324,-119.036"/>
</g>
</g>
</svg>
