<?xml version="1.0" encoding="UTF-8" standalone="no"?>
<!DOCTYPE svg PUBLIC "-//W3C//DTD SVG 1.1//EN"
 "http://www.w3.org/Graphics/SVG/1.1/DTD/svg11.dtd">
<!-- Generated by graphviz version 2.38.0 (20140413.2041)
 -->
<!-- Title: main Pages: 1 -->
<svg width="1220pt" height="526pt"
 viewBox="0.00 0.00 1220.00 525.50" xmlns="http://www.w3.org/2000/svg" xmlns:xlink="http://www.w3.org/1999/xlink">
<g id="graph0" class="graph" transform="scale(1 1) rotate(0) translate(4 521.5)">
<title>main</title>
<polygon fill="white" stroke="none" points="-4,4 -4,-521.5 1216,-521.5 1216,4 -4,4"/>
<!-- Node1 -->
<g id="node1" class="node"><title>Node1</title>
<polygon fill="#bfbfbf" stroke="black" points="0,-183 0,-202 38,-202 38,-183 0,-183"/>
<text text-anchor="middle" x="19" y="-190" font-family="Helvetica,sans-Serif" font-size="10.00">main</text>
</g>
<!-- Node2 -->
<g id="node2" class="node"><title>Node2</title>
<g id="a_node2"><a xlink:href="namespacetlz.html#a3c03f5d9d6261ec2909938822fc47f8a" target="_top" xlink:title="tlz::get_args">
<polygon fill="white" stroke="black" points="124,-278 124,-297 195,-297 195,-278 124,-278"/>
<text text-anchor="middle" x="159.5" y="-285" font-family="Helvetica,sans-Serif" font-size="10.00">tlz::get_args</text>
</a>
</g>
</g>
<!-- Node1&#45;&gt;Node2 -->
<g id="edge1" class="edge"><title>Node1&#45;&gt;Node2</title>
<path fill="none" stroke="midnightblue" d="M24.0436,-202.17C31.4188,-218.558 48.666,-251.643 74,-268.5 85.6716,-276.266 100.05,-280.895 113.615,-283.643"/>
<polygon fill="midnightblue" stroke="midnightblue" points="113.321,-287.144 123.771,-285.398 114.513,-280.246 113.321,-287.144"/>
</g>
<!-- Node3 -->
<g id="node3" class="node"><title>Node3</title>
<g id="a_node3"><a xlink:href="namespacetlz.html#a11d8bb3ca89f4957bfde1cd0d5429a16" target="_top" xlink:title="tlz::image_correspondences_arg">
<polygon fill="white" stroke="black" points="80.5,-240 80.5,-259 238.5,-259 238.5,-240 80.5,-240"/>
<text text-anchor="middle" x="159.5" y="-247" font-family="Helvetica,sans-Serif" font-size="10.00">tlz::image_correspondences_arg</text>
</a>
</g>
</g>
<!-- Node1&#45;&gt;Node3 -->
<g id="edge2" class="edge"><title>Node1&#45;&gt;Node3</title>
<path fill="none" stroke="midnightblue" d="M33.6415,-202.279C44.2324,-209.507 59.5067,-219.155 74,-225.5 84.2682,-229.995 95.6057,-233.887 106.552,-237.153"/>
<polygon fill="midnightblue" stroke="midnightblue" points="105.877,-240.599 116.453,-239.974 107.795,-233.867 105.877,-240.599"/>
</g>
<!-- Node15 -->
<g id="node15" class="node"><title>Node15</title>
<g id="a_node15"><a xlink:href="namespacetlz.html#a0621d598fb83b13bf028f3e6293d04f8" target="_top" xlink:title="tlz::string_arg">
<polygon fill="white" stroke="black" points="543,-164 543,-183 619,-183 619,-164 543,-164"/>
<text text-anchor="middle" x="581" y="-171" font-family="Helvetica,sans-Serif" font-size="10.00">tlz::string_arg</text>
</a>
</g>
</g>
<!-- Node1&#45;&gt;Node15 -->
<g id="edge26" class="edge"><title>Node1&#45;&gt;Node15</title>
<path fill="none" stroke="midnightblue" d="M38.3475,-193.037C98.4758,-194.638 295.012,-198.607 457,-187.5 482.102,-185.779 509.968,-182.704 532.821,-179.874"/>
<polygon fill="midnightblue" stroke="midnightblue" points="533.457,-183.321 542.94,-178.596 532.58,-176.376 533.457,-183.321"/>
</g>
<!-- Node21 -->
<g id="node21" class="node"><title>Node21</title>
<g id="a_node21"><a xlink:href="namespacetlz.html#a65770a2c1ff57c5ae6542d4465a3d3f4" target="_top" xlink:title="tlz::out_filename_arg">
<polygon fill="white" stroke="black" points="106,-164 106,-183 213,-183 213,-164 106,-164"/>
<text text-anchor="middle" x="159.5" y="-171" font-family="Helvetica,sans-Serif" font-size="10.00">tlz::out_filename_arg</text>
</a>
</g>
</g>
<!-- Node1&#45;&gt;Node21 -->
<g id="edge24" class="edge"><title>Node1&#45;&gt;Node21</title>
<path fill="none" stroke="midnightblue" d="M38.1065,-190.016C52.8515,-187.993 74.5861,-185.012 95.5451,-182.136"/>
<polygon fill="midnightblue" stroke="midnightblue" points="96.3063,-185.565 105.738,-180.738 95.3549,-178.63 96.3063,-185.565"/>
</g>
<!-- Node22 -->
<g id="node22" class="node"><title>Node22</title>
<g id="a_node22"><a xlink:href="namespacetlz.html#a61f6a6d670ff102367298c39a1a3b0b4" target="_top" xlink:title="tlz::explode">
<polygon fill="white" stroke="black" points="126,-126 126,-145 193,-145 193,-126 126,-126"/>
<text text-anchor="middle" x="159.5" y="-133" font-family="Helvetica,sans-Serif" font-size="10.00">tlz::explode</text>
</a>
</g>
</g>
<!-- Node1&#45;&gt;Node22 -->
<g id="edge27" class="edge"><title>Node1&#45;&gt;Node22</title>
<path fill="none" stroke="midnightblue" d="M30.7978,-182.952C41.1748,-174.272 57.6506,-161.746 74,-154.5 87.0358,-148.722 102.009,-144.618 115.695,-141.74"/>
<polygon fill="midnightblue" stroke="midnightblue" points="116.705,-145.11 125.856,-139.771 115.373,-138.237 116.705,-145.11"/>
</g>
<!-- Node23 -->
<g id="node23" class="node"><title>Node23</title>
<g id="a_node23"><a xlink:href="namespacetlz.html#a703280f6c42435c957e976f0ab000b30" target="_top" xlink:title="tlz::export_image_corresponcences">
<polygon fill="white" stroke="black" points="74,-88 74,-107 245,-107 245,-88 74,-88"/>
<text text-anchor="middle" x="159.5" y="-95" font-family="Helvetica,sans-Serif" font-size="10.00">tlz::export_image_corresponcences</text>
</a>
</g>
</g>
<!-- Node1&#45;&gt;Node23 -->
<g id="edge28" class="edge"><title>Node1&#45;&gt;Node23</title>
<path fill="none" stroke="midnightblue" d="M24.0436,-182.83C31.4188,-166.442 48.666,-133.357 74,-116.5 76.9692,-114.524 80.1136,-112.752 83.3753,-111.161"/>
<polygon fill="midnightblue" stroke="midnightblue" points="84.9939,-114.277 92.8294,-107.145 82.2569,-107.834 84.9939,-114.277"/>
</g>
<!-- Node4 -->
<g id="node4" class="node"><title>Node4</title>
<g id="a_node4"><a xlink:href="namespacetlz.html#ad75d99f2e1623434fbadee66f3ff29a1" target="_top" xlink:title="tlz::import_image_correspondences">
<polygon fill="white" stroke="black" points="283.5,-322 283.5,-341 454.5,-341 454.5,-322 283.5,-322"/>
<text text-anchor="middle" x="369" y="-329" font-family="Helvetica,sans-Serif" font-size="10.00">tlz::import_image_correspondences</text>
</a>
</g>
</g>
<!-- Node3&#45;&gt;Node4 -->
<g id="edge3" class="edge"><title>Node3&#45;&gt;Node4</title>
<path fill="none" stroke="midnightblue" d="M212.483,-259.019C223.373,-261.614 234.679,-264.764 245,-268.5 280.65,-281.403 319.155,-302.382 343.407,-316.55"/>
<polygon fill="midnightblue" stroke="midnightblue" points="341.883,-319.715 352.271,-321.797 345.449,-313.691 341.883,-319.715"/>
</g>
<!-- Node14 -->
<g id="node14" class="node"><title>Node14</title>
<g id="a_node14"><a xlink:href="namespacetlz.html#a634de7ca11e100e4a118dffe80376a75" target="_top" xlink:title="tlz::in_filename_arg">
<polygon fill="white" stroke="black" points="318.5,-240 318.5,-259 419.5,-259 419.5,-240 318.5,-240"/>
<text text-anchor="middle" x="369" y="-247" font-family="Helvetica,sans-Serif" font-size="10.00">tlz::in_filename_arg</text>
</a>
</g>
</g>
<!-- Node3&#45;&gt;Node14 -->
<g id="edge15" class="edge"><title>Node3&#45;&gt;Node14</title>
<path fill="none" stroke="midnightblue" d="M238.651,-249.5C261.759,-249.5 286.674,-249.5 308.41,-249.5"/>
<polygon fill="midnightblue" stroke="midnightblue" points="308.478,-253 318.478,-249.5 308.478,-246 308.478,-253"/>
</g>
<!-- Node5 -->
<g id="node5" class="node"><title>Node5</title>
<g id="a_node5"><a xlink:href="namespacetlz.html#ae11c827ac9e581f9d2f98c39aab3750d" target="_top" xlink:title="tlz::file_name_extension">
<polygon fill="white" stroke="black" points="520,-126 520,-145 642,-145 642,-126 520,-126"/>
<text text-anchor="middle" x="581" y="-133" font-family="Helvetica,sans-Serif" font-size="10.00">tlz::file_name_extension</text>
</a>
</g>
</g>
<!-- Node4&#45;&gt;Node5 -->
<g id="edge4" class="edge"><title>Node4&#45;&gt;Node5</title>
<path fill="none" stroke="midnightblue" d="M389.793,-321.971C409.552,-311.489 439.434,-292.849 457,-268.5 488.086,-225.41 453.762,-190.326 493,-154.5 498.063,-149.878 503.982,-146.286 510.309,-143.508"/>
<polygon fill="midnightblue" stroke="midnightblue" points="511.652,-146.743 519.819,-139.993 509.225,-140.177 511.652,-146.743"/>
</g>
<!-- Node6 -->
<g id="node6" class="node"><title>Node6</title>
<g id="a_node6"><a xlink:href="namespacetlz.html#a24915249769d936c24ceb34f50b06104" target="_top" xlink:title="tlz::decode_image_correspondences">
<polygon fill="white" stroke="black" points="493,-404 493,-423 669,-423 669,-404 493,-404"/>
<text text-anchor="middle" x="581" y="-411" font-family="Helvetica,sans-Serif" font-size="10.00">tlz::decode_image_correspondences</text>
</a>
</g>
</g>
<!-- Node4&#45;&gt;Node6 -->
<g id="edge5" class="edge"><title>Node4&#45;&gt;Node6</title>
<path fill="none" stroke="midnightblue" d="M385.336,-341.008C408.053,-354.701 452.347,-379.928 493,-394.5 500.368,-397.141 508.224,-399.48 516.087,-401.534"/>
<polygon fill="midnightblue" stroke="midnightblue" points="515.467,-404.986 526.014,-403.985 517.144,-398.19 515.467,-404.986"/>
</g>
<!-- Node12 -->
<g id="node12" class="node"><title>Node12</title>
<g id="a_node12"><a xlink:href="namespacetlz.html#aa1be9362f548fcf9378e1fc9074089c4" target="_top" xlink:title="tlz::import_json_file">
<polygon fill="white" stroke="black" points="530.5,-366 530.5,-385 631.5,-385 631.5,-366 530.5,-366"/>
<text text-anchor="middle" x="581" y="-373" font-family="Helvetica,sans-Serif" font-size="10.00">tlz::import_json_file</text>
</a>
</g>
</g>
<!-- Node4&#45;&gt;Node12 -->
<g id="edge13" class="edge"><title>Node4&#45;&gt;Node12</title>
<path fill="none" stroke="midnightblue" d="M415.567,-341.047C447.626,-347.765 490.708,-356.791 524.731,-363.92"/>
<polygon fill="midnightblue" stroke="midnightblue" points="524.017,-367.346 534.522,-365.971 525.452,-360.495 524.017,-367.346"/>
</g>
<!-- Node13 -->
<g id="node13" class="node"><title>Node13</title>
<g id="a_node13"><a xlink:href="namespacetlz.html#a2ec439452fda5eeb03f60715e50fa96a" target="_top" xlink:title="tlz::import_binary\l_image_correspondences">
<polygon fill="white" stroke="black" points="517,-316.5 517,-346.5 645,-346.5 645,-316.5 517,-316.5"/>
<text text-anchor="start" x="525" y="-334.5" font-family="Helvetica,sans-Serif" font-size="10.00">tlz::import_binary</text>
<text text-anchor="middle" x="581" y="-323.5" font-family="Helvetica,sans-Serif" font-size="10.00">_image_correspondences</text>
</a>
</g>
</g>
<!-- Node4&#45;&gt;Node13 -->
<g id="edge14" class="edge"><title>Node4&#45;&gt;Node13</title>
<path fill="none" stroke="midnightblue" d="M454.507,-331.5C471.779,-331.5 489.821,-331.5 506.664,-331.5"/>
<polygon fill="midnightblue" stroke="midnightblue" points="506.978,-335 516.978,-331.5 506.978,-328 506.978,-335"/>
</g>
<!-- Node7 -->
<g id="node7" class="node"><title>Node7</title>
<g id="a_node7"><a xlink:href="namespacetlz.html#a252af14b9b4ac6502d3e9c5dd8dc90b8" target="_top" xlink:title="tlz::has">
<polygon fill="white" stroke="black" points="1163,-410 1163,-429 1212,-429 1212,-410 1163,-410"/>
<text text-anchor="middle" x="1187.5" y="-417" font-family="Helvetica,sans-Serif" font-size="10.00">tlz::has</text>
</a>
</g>
</g>
<!-- Node6&#45;&gt;Node7 -->
<g id="edge6" class="edge"><title>Node6&#45;&gt;Node7</title>
<path fill="none" stroke="midnightblue" d="M669.254,-414.366C805.122,-415.715 1061.16,-418.256 1152.81,-419.166"/>
<polygon fill="midnightblue" stroke="midnightblue" points="1152.87,-422.666 1162.91,-419.266 1152.94,-415.667 1152.87,-422.666"/>
</g>
<!-- Node8 -->
<g id="node8" class="node"><title>Node8</title>
<g id="a_node8"><a xlink:href="namespacetlz.html#ab83b0eb933afca1abe8ccd3470207691" target="_top" xlink:title="tlz::decode_image_correspondence\l_feature">
<polygon fill="white" stroke="black" points="705,-429.5 705,-459.5 875,-459.5 875,-429.5 705,-429.5"/>
<text text-anchor="start" x="713" y="-447.5" font-family="Helvetica,sans-Serif" font-size="10.00">tlz::decode_image_correspondence</text>
<text text-anchor="middle" x="790" y="-436.5" font-family="Helvetica,sans-Serif" font-size="10.00">_feature</text>
</a>
</g>
</g>
<!-- Node6&#45;&gt;Node8 -->
<g id="edge7" class="edge"><title>Node6&#45;&gt;Node8</title>
<path fill="none" stroke="midnightblue" d="M645.514,-423.012C660.965,-425.326 677.822,-427.85 694.374,-430.329"/>
<polygon fill="midnightblue" stroke="midnightblue" points="694.217,-433.844 704.625,-431.864 695.254,-426.922 694.217,-433.844"/>
</g>
<!-- Node8&#45;&gt;Node7 -->
<g id="edge8" class="edge"><title>Node8&#45;&gt;Node7</title>
<path fill="none" stroke="midnightblue" d="M875.36,-439.168C961.607,-433.716 1091.32,-425.517 1152.4,-421.656"/>
<polygon fill="midnightblue" stroke="midnightblue" points="1152.87,-425.133 1162.63,-421.009 1152.43,-418.147 1152.87,-425.133"/>
</g>
<!-- Node9 -->
<g id="node9" class="node"><title>Node9</title>
<g id="a_node9"><a xlink:href="namespacetlz.html#a74e8454f97dace7cffb1afdb6d3ca87b" target="_top" xlink:title="tlz::decode_view_index">
<polygon fill="white" stroke="black" points="911.5,-498 911.5,-517 1030.5,-517 1030.5,-498 911.5,-498"/>
<text text-anchor="middle" x="971" y="-505" font-family="Helvetica,sans-Serif" font-size="10.00">tlz::decode_view_index</text>
</a>
</g>
</g>
<!-- Node8&#45;&gt;Node9 -->
<g id="edge9" class="edge"><title>Node8&#45;&gt;Node9</title>
<path fill="none" stroke="midnightblue" d="M832.312,-459.502C855.423,-467.844 884.774,-478.357 911,-487.5 917.656,-489.82 924.747,-492.256 931.619,-494.597"/>
<polygon fill="midnightblue" stroke="midnightblue" points="930.863,-498.036 941.457,-497.935 933.112,-491.407 930.863,-498.036"/>
</g>
<!-- Node10 -->
<g id="node10" class="node"><title>Node10</title>
<g id="a_node10"><a xlink:href="namespacetlz.html#ae8f9175a86bbe49ac0f4485d5db3080b" target="_top" xlink:title="tlz::decode_feature\l_point">
<polygon fill="white" stroke="black" points="921,-448.5 921,-478.5 1021,-478.5 1021,-448.5 921,-448.5"/>
<text text-anchor="start" x="929" y="-466.5" font-family="Helvetica,sans-Serif" font-size="10.00">tlz::decode_feature</text>
<text text-anchor="middle" x="971" y="-455.5" font-family="Helvetica,sans-Serif" font-size="10.00">_point</text>
</a>
</g>
</g>
<!-- Node8&#45;&gt;Node10 -->
<g id="edge10" class="edge"><title>Node8&#45;&gt;Node10</title>
<path fill="none" stroke="midnightblue" d="M875.259,-453.444C887.2,-454.711 899.266,-455.992 910.602,-457.195"/>
<polygon fill="midnightblue" stroke="midnightblue" points="910.47,-460.701 920.784,-458.276 911.209,-453.74 910.47,-460.701"/>
</g>
<!-- Node11 -->
<g id="node11" class="node"><title>Node11</title>
<g id="a_node11"><a xlink:href="namespacetlz.html#add846dc50c32dfb356cb1a7ac11d37ac" target="_top" xlink:title="tlz::get_or">
<polygon fill="white" stroke="black" points="1067,-451 1067,-470 1127,-470 1127,-451 1067,-451"/>
<text text-anchor="middle" x="1097" y="-458" font-family="Helvetica,sans-Serif" font-size="10.00">tlz::get_or</text>
</a>
</g>
</g>
<!-- Node10&#45;&gt;Node11 -->
<g id="edge11" class="edge"><title>Node10&#45;&gt;Node11</title>
<path fill="none" stroke="midnightblue" d="M1021.01,-462.314C1032.93,-462.026 1045.52,-461.721 1056.91,-461.446"/>
<polygon fill="midnightblue" stroke="midnightblue" points="1057.07,-464.943 1066.98,-461.202 1056.9,-457.945 1057.07,-464.943"/>
</g>
<!-- Node11&#45;&gt;Node7 -->
<g id="edge12" class="edge"><title>Node11&#45;&gt;Node7</title>
<path fill="none" stroke="midnightblue" d="M1118.53,-450.991C1129.84,-445.75 1144.09,-439.149 1156.61,-433.346"/>
<polygon fill="midnightblue" stroke="midnightblue" points="1158.18,-436.479 1165.78,-429.1 1155.23,-430.128 1158.18,-436.479"/>
</g>
<!-- Node14&#45;&gt;Node15 -->
<g id="edge16" class="edge"><title>Node14&#45;&gt;Node15</title>
<path fill="none" stroke="midnightblue" d="M419.906,-240.061C432.477,-236.535 445.622,-231.798 457,-225.5 475.99,-214.988 473.732,-202.494 493,-192.5 505.249,-186.147 519.531,-181.914 532.941,-179.096"/>
<polygon fill="midnightblue" stroke="midnightblue" points="533.798,-182.496 542.976,-177.204 532.501,-175.617 533.798,-182.496"/>
</g>
<!-- Node16 -->
<g id="node16" class="node"><title>Node16</title>
<g id="a_node16"><a xlink:href="namespacetlz.html#a780431daab8d2595372eacb43143b52d" target="_top" xlink:title="tlz::args">
<polygon fill="white" stroke="black" points="764,-221 764,-240 816,-240 816,-221 764,-221"/>
<text text-anchor="middle" x="790" y="-228" font-family="Helvetica,sans-Serif" font-size="10.00">tlz::args</text>
</a>
</g>
</g>
<!-- Node14&#45;&gt;Node16 -->
<g id="edge22" class="edge"><title>Node14&#45;&gt;Node16</title>
<path fill="none" stroke="midnightblue" d="M419.71,-247.246C505.455,-243.358 679.121,-235.483 753.685,-232.101"/>
<polygon fill="midnightblue" stroke="midnightblue" points="754.114,-235.586 763.945,-231.636 753.797,-228.593 754.114,-235.586"/>
</g>
<!-- Node18 -->
<g id="node18" class="node"><title>Node18</title>
<g id="a_node18"><a xlink:href="classtlz_1_1args__list.html#a38ad21acd64a4af98ffdf4a47837cdbe" target="_top" xlink:title="tlz::args_list::usage_fail">
<polygon fill="white" stroke="black" points="911,-221 911,-240 1031,-240 1031,-221 911,-221"/>
<text text-anchor="middle" x="971" y="-228" font-family="Helvetica,sans-Serif" font-size="10.00">tlz::args_list::usage_fail</text>
</a>
</g>
</g>
<!-- Node14&#45;&gt;Node18 -->
<g id="edge23" class="edge"><title>Node14&#45;&gt;Node18</title>
<path fill="none" stroke="midnightblue" d="M419.659,-251.978C442.06,-252.978 468.855,-254.009 493,-254.5 662.757,-257.949 706.249,-268.28 875,-249.5 889.662,-247.868 905.429,-245.124 919.823,-242.222"/>
<polygon fill="midnightblue" stroke="midnightblue" points="920.951,-245.562 930.025,-240.094 919.521,-238.709 920.951,-245.562"/>
</g>
<!-- Node20 -->
<g id="node20" class="node"><title>Node20</title>
<g id="a_node20"><a xlink:href="namespacetlz.html#abb019466ea9f56c0dab27e893d891837" target="_top" xlink:title="tlz::file_exists">
<polygon fill="white" stroke="black" points="542.5,-202 542.5,-221 619.5,-221 619.5,-202 542.5,-202"/>
<text text-anchor="middle" x="581" y="-209" font-family="Helvetica,sans-Serif" font-size="10.00">tlz::file_exists</text>
</a>
</g>
</g>
<!-- Node14&#45;&gt;Node20 -->
<g id="edge21" class="edge"><title>Node14&#45;&gt;Node20</title>
<path fill="none" stroke="midnightblue" d="M419.501,-240.543C453.568,-234.378 498.572,-226.235 532.254,-220.14"/>
<polygon fill="midnightblue" stroke="midnightblue" points="533.102,-223.543 542.319,-218.318 531.855,-216.655 533.102,-223.543"/>
</g>
<!-- Node15&#45;&gt;Node16 -->
<g id="edge17" class="edge"><title>Node15&#45;&gt;Node16</title>
<path fill="none" stroke="midnightblue" d="M619.009,-180.801C634.529,-184.064 652.718,-188.154 669,-192.5 698.005,-200.242 730.436,-210.618 754.264,-218.571"/>
<polygon fill="midnightblue" stroke="midnightblue" points="753.32,-221.946 763.914,-221.816 755.551,-215.311 753.32,-221.946"/>
</g>
<!-- Node17 -->
<g id="node17" class="node"><title>Node17</title>
<g id="a_node17"><a xlink:href="classtlz_1_1args__list.html#a73d99bc75998dc14607a3a372d28dc6d" target="_top" xlink:title="tlz::args_list::next_arg">
<polygon fill="white" stroke="black" points="733.5,-164 733.5,-183 846.5,-183 846.5,-164 733.5,-164"/>
<text text-anchor="middle" x="790" y="-171" font-family="Helvetica,sans-Serif" font-size="10.00">tlz::args_list::next_arg</text>
</a>
</g>
</g>
<!-- Node15&#45;&gt;Node17 -->
<g id="edge18" class="edge"><title>Node15&#45;&gt;Node17</title>
<path fill="none" stroke="midnightblue" d="M619.007,-173.5C647.778,-173.5 688.437,-173.5 722.777,-173.5"/>
<polygon fill="midnightblue" stroke="midnightblue" points="723.211,-177 733.211,-173.5 723.211,-170 723.211,-177"/>
</g>
<!-- Node17&#45;&gt;Node18 -->
<g id="edge19" class="edge"><title>Node17&#45;&gt;Node18</title>
<path fill="none" stroke="midnightblue" d="M820.961,-183.041C850.905,-192.576 897.124,-207.294 930.149,-217.81"/>
<polygon fill="midnightblue" stroke="midnightblue" points="929.351,-221.229 939.942,-220.928 931.475,-214.559 929.351,-221.229"/>
</g>
<!-- Node19 -->
<g id="node19" class="node"><title>Node19</title>
<g id="a_node19"><a xlink:href="namespacetlz.html#a8e4f8c8c2927bc4350de13bfa0f8f9e1" target="_top" xlink:title="tlz::to_string">
<polygon fill="white" stroke="black" points="935.5,-116 935.5,-135 1006.5,-135 1006.5,-116 935.5,-116"/>
<text text-anchor="middle" x="971" y="-123" font-family="Helvetica,sans-Serif" font-size="10.00">tlz::to_string</text>
</a>
</g>
</g>
<!-- Node17&#45;&gt;Node19 -->
<g id="edge20" class="edge"><title>Node17&#45;&gt;Node19</title>
<path fill="none" stroke="midnightblue" d="M826.793,-163.902C855.209,-156.282 895.086,-145.589 925.546,-137.421"/>
<polygon fill="midnightblue" stroke="midnightblue" points="926.733,-140.726 935.485,-134.755 924.92,-133.965 926.733,-140.726"/>
</g>
<!-- Node21&#45;&gt;Node15 -->
<g id="edge25" class="edge"><title>Node21&#45;&gt;Node15</title>
<path fill="none" stroke="midnightblue" d="M213.205,-173.5C295.656,-173.5 453.859,-173.5 532.79,-173.5"/>
<polygon fill="midnightblue" stroke="midnightblue" points="532.929,-177 542.929,-173.5 532.929,-170 532.929,-177"/>
</g>
<!-- Node23&#45;&gt;Node5 -->
<g id="edge29" class="edge"><title>Node23&#45;&gt;Node5</title>
<path fill="none" stroke="midnightblue" d="M214.043,-107.036C234.884,-110.46 259.002,-114.072 281,-116.5 358.953,-125.104 448.801,-130.163 509.492,-132.87"/>
<polygon fill="midnightblue" stroke="midnightblue" points="509.582,-136.377 519.725,-133.316 509.887,-129.383 509.582,-136.377"/>
</g>
<!-- Node24 -->
<g id="node24" class="node"><title>Node24</title>
<g id="a_node24"><a xlink:href="namespacetlz.html#ab98de0b10e3e079dee189f81adc638a0" target="_top" xlink:title="tlz::export_json_file">
<polygon fill="white" stroke="black" points="318.5,-88 318.5,-107 419.5,-107 419.5,-88 318.5,-88"/>
<text text-anchor="middle" x="369" y="-95" font-family="Helvetica,sans-Serif" font-size="10.00">tlz::export_json_file</text>
</a>
</g>
</g>
<!-- Node23&#45;&gt;Node24 -->
<g id="edge30" class="edge"><title>Node23&#45;&gt;Node24</title>
<path fill="none" stroke="midnightblue" d="M245.197,-97.5C266.383,-97.5 288.665,-97.5 308.347,-97.5"/>
<polygon fill="midnightblue" stroke="midnightblue" points="308.382,-101 318.382,-97.5 308.382,-94.0001 308.382,-101"/>
</g>
<!-- Node25 -->
<g id="node25" class="node"><title>Node25</title>
<g id="a_node25"><a xlink:href="namespacetlz.html#a5425610b090d56218f8a7272ba402bfb" target="_top" xlink:title="tlz::encode_image_correspondences">
<polygon fill="white" stroke="black" points="281,-50 281,-69 457,-69 457,-50 281,-50"/>
<text text-anchor="middle" x="369" y="-57" font-family="Helvetica,sans-Serif" font-size="10.00">tlz::encode_image_correspondences</text>
</a>
</g>
</g>
<!-- Node23&#45;&gt;Node25 -->
<g id="edge32" class="edge"><title>Node23&#45;&gt;Node25</title>
<path fill="none" stroke="midnightblue" d="M212.593,-87.96C240.96,-82.7652 276.243,-76.3037 306.017,-70.8511"/>
<polygon fill="midnightblue" stroke="midnightblue" points="306.679,-74.2881 315.885,-69.0439 305.418,-67.4026 306.679,-74.2881"/>
</g>
<!-- Node30 -->
<g id="node30" class="node"><title>Node30</title>
<g id="a_node30"><a xlink:href="namespacetlz.html#a24bb23db2319f38046e6de526a0cb20e" target="_top" xlink:title="tlz::export_binary\l_image_correspondences">
<polygon fill="white" stroke="black" points="305,-0.5 305,-30.5 433,-30.5 433,-0.5 305,-0.5"/>
<text text-anchor="start" x="313" y="-18.5" font-family="Helvetica,sans-Serif" font-size="10.00">tlz::export_binary</text>
<text text-anchor="middle" x="369" y="-7.5" font-family="Helvetica,sans-Serif" font-size="10.00">_image_correspondences</text>
</a>
</g>
</g>
<!-- Node23&#45;&gt;Node30 -->
<g id="edge38" class="edge"><title>Node23&#45;&gt;Node30</title>
<path fill="none" stroke="midnightblue" d="M178.474,-87.8676C201.681,-75.6964 243.541,-54.6349 281,-40.5 287.322,-38.1142 293.976,-35.8246 300.67,-33.6661"/>
<polygon fill="midnightblue" stroke="midnightblue" points="301.973,-36.9258 310.473,-30.6016 299.885,-30.2446 301.973,-36.9258"/>
</g>
<!-- Node24&#45;&gt;Node5 -->
<g id="edge31" class="edge"><title>Node24&#45;&gt;Node5</title>
<path fill="none" stroke="midnightblue" d="M419.501,-106.457C448.716,-111.744 485.975,-118.486 517.238,-124.143"/>
<polygon fill="midnightblue" stroke="midnightblue" points="516.697,-127.602 527.16,-125.938 517.943,-120.714 516.697,-127.602"/>
</g>
<!-- Node26 -->
<g id="node26" class="node"><title>Node26</title>
<g id="a_node26"><a xlink:href="namespacetlz.html#aa875dcb2a47f0a406887a14c6f515bfd" target="_top" xlink:title="tlz::encode_image_correspondence\l_feature">
<polygon fill="white" stroke="black" points="496,-53.5 496,-83.5 666,-83.5 666,-53.5 496,-53.5"/>
<text text-anchor="start" x="504" y="-71.5" font-family="Helvetica,sans-Serif" font-size="10.00">tlz::encode_image_correspondence</text>
<text text-anchor="middle" x="581" y="-60.5" font-family="Helvetica,sans-Serif" font-size="10.00">_feature</text>
</a>
</g>
</g>
<!-- Node25&#45;&gt;Node26 -->
<g id="edge33" class="edge"><title>Node25&#45;&gt;Node26</title>
<path fill="none" stroke="midnightblue" d="M457.235,-63.2386C466.586,-63.6394 476.131,-64.0485 485.561,-64.4526"/>
<polygon fill="midnightblue" stroke="midnightblue" points="485.594,-67.9572 495.735,-64.8886 485.894,-60.9636 485.594,-67.9572"/>
</g>
<!-- Node27 -->
<g id="node27" class="node"><title>Node27</title>
<g id="a_node27"><a xlink:href="namespacetlz.html#aadab29bdc80bc1d0ad6d3784dd427992" target="_top" xlink:title="tlz::encode_view_index">
<polygon fill="white" stroke="black" points="730.5,-59 730.5,-78 849.5,-78 849.5,-59 730.5,-59"/>
<text text-anchor="middle" x="790" y="-66" font-family="Helvetica,sans-Serif" font-size="10.00">tlz::encode_view_index</text>
</a>
</g>
</g>
<!-- Node26&#45;&gt;Node27 -->
<g id="edge34" class="edge"><title>Node26&#45;&gt;Node27</title>
<path fill="none" stroke="midnightblue" d="M666.195,-68.5C684.16,-68.5 702.929,-68.5 720.234,-68.5"/>
<polygon fill="midnightblue" stroke="midnightblue" points="720.236,-72.0001 730.236,-68.5 720.236,-65.0001 720.236,-72.0001"/>
</g>
<!-- Node29 -->
<g id="node29" class="node"><title>Node29</title>
<g id="a_node29"><a xlink:href="namespacetlz.html#a8f6c31dc4b1dffe7950bcb1f4ff85cbc" target="_top" xlink:title="tlz::encode_feature\l_point">
<polygon fill="white" stroke="black" points="740,-97.5 740,-127.5 840,-127.5 840,-97.5 740,-97.5"/>
<text text-anchor="start" x="748" y="-115.5" font-family="Helvetica,sans-Serif" font-size="10.00">tlz::encode_feature</text>
<text text-anchor="middle" x="790" y="-104.5" font-family="Helvetica,sans-Serif" font-size="10.00">_point</text>
</a>
</g>
</g>
<!-- Node26&#45;&gt;Node29 -->
<g id="edge37" class="edge"><title>Node26&#45;&gt;Node29</title>
<path fill="none" stroke="midnightblue" d="M652.659,-83.5192C677.767,-88.8562 705.751,-94.8046 729.802,-99.9168"/>
<polygon fill="midnightblue" stroke="midnightblue" points="729.339,-103.397 739.849,-102.052 730.795,-96.5496 729.339,-103.397"/>
</g>
<!-- Node27&#45;&gt;Node19 -->
<g id="edge35" class="edge"><title>Node27&#45;&gt;Node19</title>
<path fill="none" stroke="midnightblue" d="M839.322,-78.0571C851.092,-80.7609 863.578,-83.9483 875,-87.5 896.999,-94.3406 921.09,-104.003 939.507,-111.872"/>
<polygon fill="midnightblue" stroke="midnightblue" points="938.275,-115.153 948.843,-115.915 941.057,-108.729 938.275,-115.153"/>
</g>
<!-- Node28 -->
<g id="node28" class="node"><title>Node28</title>
<g id="a_node28"><a xlink:href="structtlz_1_1view__index.html#a20518c30015d833cdb2a69b524886b96" target="_top" xlink:title="tlz::view_index::is_2d">
<polygon fill="white" stroke="black" points="915.5,-59 915.5,-78 1026.5,-78 1026.5,-59 915.5,-59"/>
<text text-anchor="middle" x="971" y="-66" font-family="Helvetica,sans-Serif" font-size="10.00">tlz::view_index::is_2d</text>
</a>
</g>
</g>
<!-- Node27&#45;&gt;Node28 -->
<g id="edge36" class="edge"><title>Node27&#45;&gt;Node28</title>
<path fill="none" stroke="midnightblue" d="M849.611,-68.5C867.337,-68.5 886.905,-68.5 905.021,-68.5"/>
<polygon fill="midnightblue" stroke="midnightblue" points="905.203,-72.0001 915.203,-68.5 905.203,-65.0001 905.203,-72.0001"/>
</g>
</g>
</svg>
