<?xml version="1.0" encoding="UTF-8" standalone="no"?>
<!DOCTYPE svg PUBLIC "-//W3C//DTD SVG 1.1//EN"
 "http://www.w3.org/Graphics/SVG/1.1/DTD/svg11.dtd">
<!-- Generated by graphviz version 2.38.0 (20140413.2041)
 -->
<!-- Title: main Pages: 1 -->
<svg width="788pt" height="797pt"
 viewBox="0.00 0.00 788.00 796.53" xmlns="http://www.w3.org/2000/svg" xmlns:xlink="http://www.w3.org/1999/xlink">
<g id="graph0" class="graph" transform="scale(1 1) rotate(0) translate(4 792.53)">
<title>main</title>
<polygon fill="white" stroke="none" points="-4,4 -4,-792.53 784,-792.53 784,4 -4,4"/>
<!-- Node1 -->
<g id="node1" class="node"><title>Node1</title>
<polygon fill="#bfbfbf" stroke="black" points="0,-348.5 0,-367.5 38,-367.5 38,-348.5 0,-348.5"/>
<text text-anchor="middle" x="19" y="-355.5" font-family="Helvetica,sans-Serif" font-size="10.00">main</text>
</g>
<!-- Node2 -->
<g id="node2" class="node"><title>Node2</title>
<g id="a_node2"><a xlink:href="namespacetlz.html#a3c03f5d9d6261ec2909938822fc47f8a" target="_top" xlink:title="tlz::get_args">
<polygon fill="white" stroke="black" points="101.5,-687.5 101.5,-706.5 172.5,-706.5 172.5,-687.5 101.5,-687.5"/>
<text text-anchor="middle" x="137" y="-694.5" font-family="Helvetica,sans-Serif" font-size="10.00">tlz::get_args</text>
</a>
</g>
</g>
<!-- Node1&#45;&gt;Node2 -->
<g id="edge1" class="edge"><title>Node1&#45;&gt;Node2</title>
<path fill="none" stroke="midnightblue" d="M20.401,-367.647C22.5589,-415.205 34.2145,-624.362 74,-673 78.7228,-678.774 85.0122,-683.162 91.7762,-686.496"/>
<polygon fill="midnightblue" stroke="midnightblue" points="90.6148,-689.803 101.192,-690.42 93.3079,-683.342 90.6148,-689.803"/>
</g>
<!-- Node3 -->
<g id="node3" class="node"><title>Node3</title>
<g id="a_node3"><a xlink:href="namespacetlz.html#a634de7ca11e100e4a118dffe80376a75" target="_top" xlink:title="tlz::in_filename_arg">
<polygon fill="white" stroke="black" points="240,-709.5 240,-728.5 341,-728.5 341,-709.5 240,-709.5"/>
<text text-anchor="middle" x="290.5" y="-716.5" font-family="Helvetica,sans-Serif" font-size="10.00">tlz::in_filename_arg</text>
</a>
</g>
</g>
<!-- Node1&#45;&gt;Node3 -->
<g id="edge2" class="edge"><title>Node1&#45;&gt;Node3</title>
<path fill="none" stroke="midnightblue" d="M20.5321,-367.572C23.1933,-412.073 36.455,-598.344 74,-640 113.16,-683.448 145.405,-657.01 200,-678 216.516,-684.35 219.927,-687.601 236,-695 243.184,-698.307 250.935,-701.817 258.246,-705.103"/>
<polygon fill="midnightblue" stroke="midnightblue" points="257.294,-708.511 267.851,-709.403 260.154,-702.122 257.294,-708.511"/>
</g>
<!-- Node10 -->
<g id="node10" class="node"><title>Node10</title>
<g id="a_node10"><a xlink:href="namespacetlz.html#a8d3380a8873e542207e21a4384957425" target="_top" xlink:title="tlz::string_opt_arg">
<polygon fill="white" stroke="black" points="89.5,-611.5 89.5,-630.5 184.5,-630.5 184.5,-611.5 89.5,-611.5"/>
<text text-anchor="middle" x="137" y="-618.5" font-family="Helvetica,sans-Serif" font-size="10.00">tlz::string_opt_arg</text>
</a>
</g>
</g>
<!-- Node1&#45;&gt;Node10 -->
<g id="edge11" class="edge"><title>Node1&#45;&gt;Node10</title>
<path fill="none" stroke="midnightblue" d="M19.4627,-367.673C18.0666,-402.133 17.7677,-520.594 74,-591 79.1946,-597.504 86.1482,-602.689 93.5203,-606.791"/>
<polygon fill="midnightblue" stroke="midnightblue" points="92.4611,-610.17 102.981,-611.427 95.5409,-603.884 92.4611,-610.17"/>
</g>
<!-- Node12 -->
<g id="node12" class="node"><title>Node12</title>
<g id="a_node12"><a xlink:href="namespacetlz.html#ad5e7c69f85c8a3b9aad1bd4aeb551148" target="_top" xlink:title="tlz::decode_kinect\l_reprojection_parameters">
<polygon fill="white" stroke="black" points="74,-551 74,-581 200,-581 200,-551 74,-551"/>
<text text-anchor="start" x="82" y="-569" font-family="Helvetica,sans-Serif" font-size="10.00">tlz::decode_kinect</text>
<text text-anchor="middle" x="137" y="-558" font-family="Helvetica,sans-Serif" font-size="10.00">_reprojection_parameters</text>
</a>
</g>
</g>
<!-- Node1&#45;&gt;Node12 -->
<g id="edge16" class="edge"><title>Node1&#45;&gt;Node12</title>
<path fill="none" stroke="midnightblue" d="M20.0536,-367.752C20.7395,-397.629 26.792,-489.01 74,-541 75.2069,-542.329 76.4943,-543.589 77.848,-544.783"/>
<polygon fill="midnightblue" stroke="midnightblue" points="76.0944,-547.837 86.2289,-550.926 80.2327,-542.191 76.0944,-547.837"/>
</g>
<!-- Node17 -->
<g id="node17" class="node"><title>Node17</title>
<g id="a_node17"><a xlink:href="namespacetlz.html#aa1be9362f548fcf9378e1fc9074089c4" target="_top" xlink:title="tlz::import_json_file">
<polygon fill="white" stroke="black" points="86.5,-512.5 86.5,-531.5 187.5,-531.5 187.5,-512.5 86.5,-512.5"/>
<text text-anchor="middle" x="137" y="-519.5" font-family="Helvetica,sans-Serif" font-size="10.00">tlz::import_json_file</text>
</a>
</g>
</g>
<!-- Node1&#45;&gt;Node17 -->
<g id="edge24" class="edge"><title>Node1&#45;&gt;Node17</title>
<path fill="none" stroke="midnightblue" d="M20.7303,-367.711C23.2032,-393.595 33.5356,-464.86 74,-503 75.6641,-504.568 77.4544,-506.008 79.3405,-507.328"/>
<polygon fill="midnightblue" stroke="midnightblue" points="77.7166,-510.432 88.1287,-512.391 81.211,-504.367 77.7166,-510.432"/>
</g>
<!-- Node18 -->
<g id="node18" class="node"><title>Node18</title>
<g id="a_node18"><a xlink:href="classtlz_1_1viewer.html#a2bf9d63d7a1a5ec4d5bdabc13d9ab688" target="_top" xlink:title="tlz::viewer::add_int\l_slider">
<polygon fill="white" stroke="black" points="87.5,-463 87.5,-493 186.5,-493 186.5,-463 87.5,-463"/>
<text text-anchor="start" x="95.5" y="-481" font-family="Helvetica,sans-Serif" font-size="10.00">tlz::viewer::add_int</text>
<text text-anchor="middle" x="137" y="-470" font-family="Helvetica,sans-Serif" font-size="10.00">_slider</text>
</a>
</g>
</g>
<!-- Node1&#45;&gt;Node18 -->
<g id="edge25" class="edge"><title>Node1&#45;&gt;Node18</title>
<path fill="none" stroke="midnightblue" d="M23.093,-367.754C29.5699,-386.707 46.2964,-428.77 74,-453 75.911,-454.671 77.9482,-456.24 80.0759,-457.71"/>
<polygon fill="midnightblue" stroke="midnightblue" points="78.2905,-460.721 88.6567,-462.91 81.9181,-454.734 78.2905,-460.721"/>
</g>
<!-- Node19 -->
<g id="node19" class="node"><title>Node19</title>
<g id="a_node19"><a xlink:href="namespacetlz.html#a91d341001d1d4c6e2e464c33493a646f" target="_top" xlink:title="tlz::make_depth_densify">
<polygon fill="white" stroke="black" points="75.5,-424.5 75.5,-443.5 198.5,-443.5 198.5,-424.5 75.5,-424.5"/>
<text text-anchor="middle" x="137" y="-431.5" font-family="Helvetica,sans-Serif" font-size="10.00">tlz::make_depth_densify</text>
</a>
</g>
</g>
<!-- Node1&#45;&gt;Node19 -->
<g id="edge26" class="edge"><title>Node1&#45;&gt;Node19</title>
<path fill="none" stroke="midnightblue" d="M26.5503,-367.517C35.7317,-380.159 53.6083,-402.36 74,-415 77.4014,-417.108 81.0536,-418.998 84.8214,-420.688"/>
<polygon fill="midnightblue" stroke="midnightblue" points="83.7631,-424.034 94.3481,-424.491 86.3585,-417.533 83.7631,-424.034"/>
</g>
<!-- Node20 -->
<g id="node20" class="node"><title>Node20</title>
<g id="a_node20"><a xlink:href="classtlz_1_1grabber.html#a14d256bd7ef0af5be70f2bd7713a7e54" target="_top" xlink:title="tlz::grabber::grab">
<polygon fill="white" stroke="black" points="92,-386.5 92,-405.5 182,-405.5 182,-386.5 92,-386.5"/>
<text text-anchor="middle" x="137" y="-393.5" font-family="Helvetica,sans-Serif" font-size="10.00">tlz::grabber::grab</text>
</a>
</g>
</g>
<!-- Node1&#45;&gt;Node20 -->
<g id="edge27" class="edge"><title>Node1&#45;&gt;Node20</title>
<path fill="none" stroke="midnightblue" d="M38.125,-363.938C53.8242,-369.08 77.0778,-376.698 96.9803,-383.218"/>
<polygon fill="midnightblue" stroke="midnightblue" points="96.1356,-386.624 106.728,-386.411 98.3148,-379.972 96.1356,-386.624"/>
</g>
<!-- Node21 -->
<g id="node21" class="node"><title>Node21</title>
<g id="a_node21"><a xlink:href="classtlz_1_1viewer.html#a0ad9ee28b8127c63b2886b04fb36e3dc" target="_top" xlink:title="tlz::viewer::clear">
<polygon fill="white" stroke="black" points="246,-348.5 246,-367.5 335,-367.5 335,-348.5 246,-348.5"/>
<text text-anchor="middle" x="290.5" y="-355.5" font-family="Helvetica,sans-Serif" font-size="10.00">tlz::viewer::clear</text>
</a>
</g>
</g>
<!-- Node1&#45;&gt;Node21 -->
<g id="edge28" class="edge"><title>Node1&#45;&gt;Node21</title>
<path fill="none" stroke="midnightblue" d="M38.1011,-358C77.9295,-358 174.476,-358 235.666,-358"/>
<polygon fill="midnightblue" stroke="midnightblue" points="235.914,-361.5 245.914,-358 235.913,-354.5 235.914,-361.5"/>
</g>
<!-- Node24 -->
<g id="node24" class="node"><title>Node24</title>
<g id="a_node24"><a xlink:href="classtlz_1_1grabber.html#a64e9af7d0c0e982539c7465f4c8c2755" target="_top" xlink:title="tlz::grabber::get_color\l_frame">
<polygon fill="white" stroke="black" points="81.5,-223 81.5,-253 192.5,-253 192.5,-223 81.5,-223"/>
<text text-anchor="start" x="89.5" y="-241" font-family="Helvetica,sans-Serif" font-size="10.00">tlz::grabber::get_color</text>
<text text-anchor="middle" x="137" y="-230" font-family="Helvetica,sans-Serif" font-size="10.00">_frame</text>
</a>
</g>
</g>
<!-- Node1&#45;&gt;Node24 -->
<g id="edge31" class="edge"><title>Node1&#45;&gt;Node24</title>
<path fill="none" stroke="midnightblue" d="M23.093,-348.246C29.5699,-329.293 46.2964,-287.23 74,-263 75.911,-261.329 77.9482,-259.76 80.0759,-258.29"/>
<polygon fill="midnightblue" stroke="midnightblue" points="81.9181,-261.266 88.6567,-253.09 78.2905,-255.279 81.9181,-261.266"/>
</g>
<!-- Node25 -->
<g id="node25" class="node"><title>Node25</title>
<g id="a_node25"><a xlink:href="classtlz_1_1grabber.html#a22caa426aef0275c5cdf9bfebe352940" target="_top" xlink:title="tlz::grabber::get_depth\l_frame">
<polygon fill="white" stroke="black" points="80,-174 80,-204 194,-204 194,-174 80,-174"/>
<text text-anchor="start" x="88" y="-192" font-family="Helvetica,sans-Serif" font-size="10.00">tlz::grabber::get_depth</text>
<text text-anchor="middle" x="137" y="-181" font-family="Helvetica,sans-Serif" font-size="10.00">_frame</text>
</a>
</g>
</g>
<!-- Node1&#45;&gt;Node25 -->
<g id="edge32" class="edge"><title>Node1&#45;&gt;Node25</title>
<path fill="none" stroke="midnightblue" d="M20.9792,-348.171C24.0289,-322.621 35.5873,-253.366 74,-214 75.3982,-212.567 76.8895,-211.214 78.4549,-209.936"/>
<polygon fill="midnightblue" stroke="midnightblue" points="80.5796,-212.722 86.813,-204.155 76.5976,-206.965 80.5796,-212.722"/>
</g>
<!-- Node26 -->
<g id="node26" class="node"><title>Node26</title>
<g id="a_node26"><a xlink:href="classtlz_1_1kinect__reprojection.html#a0e55570a8afb6c70598495ea716e1dfe" target="_top" xlink:title="tlz::kinect_reprojection\l::reproject_ir_to_color\l_samples">
<polygon fill="white" stroke="black" points="79.5,-114.5 79.5,-155.5 194.5,-155.5 194.5,-114.5 79.5,-114.5"/>
<text text-anchor="start" x="87.5" y="-143.5" font-family="Helvetica,sans-Serif" font-size="10.00">tlz::kinect_reprojection</text>
<text text-anchor="start" x="87.5" y="-132.5" font-family="Helvetica,sans-Serif" font-size="10.00">::reproject_ir_to_color</text>
<text text-anchor="middle" x="137" y="-121.5" font-family="Helvetica,sans-Serif" font-size="10.00">_samples</text>
</a>
</g>
</g>
<!-- Node1&#45;&gt;Node26 -->
<g id="edge33" class="edge"><title>Node1&#45;&gt;Node26</title>
<path fill="none" stroke="midnightblue" d="M20.0347,-348.306C20.6455,-317.708 26.4566,-221.851 74,-165 74.7288,-164.129 75.4888,-163.281 76.2768,-162.455"/>
<polygon fill="midnightblue" stroke="midnightblue" points="78.8384,-164.863 84.0343,-155.63 74.2145,-159.608 78.8384,-164.863"/>
</g>
<!-- Node27 -->
<g id="node27" class="node"><title>Node27</title>
<g id="a_node27"><a xlink:href="classtlz_1_1viewer.html#a5f0412cff89a343ad52431689502389d" target="_top" xlink:title="tlz::viewer::draw">
<polygon fill="white" stroke="black" points="246,-310.5 246,-329.5 335,-329.5 335,-310.5 246,-310.5"/>
<text text-anchor="middle" x="290.5" y="-317.5" font-family="Helvetica,sans-Serif" font-size="10.00">tlz::viewer::draw</text>
</a>
</g>
</g>
<!-- Node1&#45;&gt;Node27 -->
<g id="edge34" class="edge"><title>Node1&#45;&gt;Node27</title>
<path fill="none" stroke="midnightblue" d="M38.1011,-355.448C77.9295,-349.832 174.476,-336.219 235.666,-327.591"/>
<polygon fill="midnightblue" stroke="midnightblue" points="236.5,-331.008 245.914,-326.146 235.523,-324.076 236.5,-331.008"/>
</g>
<!-- Node28 -->
<g id="node28" class="node"><title>Node28</title>
<g id="a_node28"><a xlink:href="classtlz_1_1viewer.html#a7f8bb5582e18ad278881cc065d7c21fa" target="_top" xlink:title="tlz::viewer::draw_depth">
<polygon fill="white" stroke="black" points="78,-272.5 78,-291.5 196,-291.5 196,-272.5 78,-272.5"/>
<text text-anchor="middle" x="137" y="-279.5" font-family="Helvetica,sans-Serif" font-size="10.00">tlz::viewer::draw_depth</text>
</a>
</g>
</g>
<!-- Node1&#45;&gt;Node28 -->
<g id="edge37" class="edge"><title>Node1&#45;&gt;Node28</title>
<path fill="none" stroke="midnightblue" d="M27.8729,-348.367C37.6552,-336.927 55.3478,-317.901 74,-306 80.3551,-301.945 87.503,-298.397 94.6256,-295.361"/>
<polygon fill="midnightblue" stroke="midnightblue" points="96.2444,-298.484 104.246,-291.539 93.6599,-291.979 96.2444,-298.484"/>
</g>
<!-- Node30 -->
<g id="node30" class="node"><title>Node30</title>
<g id="a_node30"><a xlink:href="classtlz_1_1viewer.html#ad4fda702b7c5af2cb0bb9bc3842113f3" target="_top" xlink:title="tlz::viewer::draw_text">
<polygon fill="white" stroke="black" points="82,-76.5 82,-95.5 192,-95.5 192,-76.5 82,-76.5"/>
<text text-anchor="middle" x="137" y="-83.5" font-family="Helvetica,sans-Serif" font-size="10.00">tlz::viewer::draw_text</text>
</a>
</g>
</g>
<!-- Node1&#45;&gt;Node30 -->
<g id="edge40" class="edge"><title>Node1&#45;&gt;Node30</title>
<path fill="none" stroke="midnightblue" d="M20.7739,-348.312C24.3013,-306.495 40.1644,-141.918 74,-105 75.2289,-103.659 76.5497,-102.412 77.9458,-101.252"/>
<polygon fill="midnightblue" stroke="midnightblue" points="80.2273,-103.94 86.6507,-95.514 76.375,-98.095 80.2273,-103.94"/>
</g>
<!-- Node31 -->
<g id="node31" class="node"><title>Node31</title>
<g id="a_node31"><a xlink:href="classtlz_1_1grabber.html#a412843d3f5dbbcb179e5ae4709577b91" target="_top" xlink:title="tlz::grabber::release">
<polygon fill="white" stroke="black" points="85.5,-38.5 85.5,-57.5 188.5,-57.5 188.5,-38.5 85.5,-38.5"/>
<text text-anchor="middle" x="137" y="-45.5" font-family="Helvetica,sans-Serif" font-size="10.00">tlz::grabber::release</text>
</a>
</g>
</g>
<!-- Node1&#45;&gt;Node31 -->
<g id="edge41" class="edge"><title>Node1&#45;&gt;Node31</title>
<path fill="none" stroke="midnightblue" d="M20.4745,-348.433C22.9106,-303.092 35.4318,-110.231 74,-67 75.1851,-65.6716 76.4603,-64.4349 77.81,-63.2835"/>
<polygon fill="midnightblue" stroke="midnightblue" points="79.9226,-66.0801 86.2458,-57.579 76.0014,-60.2814 79.9226,-66.0801"/>
</g>
<!-- Node32 -->
<g id="node32" class="node"><title>Node32</title>
<g id="a_node32"><a xlink:href="classtlz_1_1viewer.html#aabb3cdde75783ed1a41801fb236bc50e" target="_top" xlink:title="tlz::viewer::show">
<polygon fill="white" stroke="black" points="91.5,-0.5 91.5,-19.5 182.5,-19.5 182.5,-0.5 91.5,-0.5"/>
<text text-anchor="middle" x="137" y="-7.5" font-family="Helvetica,sans-Serif" font-size="10.00">tlz::viewer::show</text>
</a>
</g>
</g>
<!-- Node1&#45;&gt;Node32 -->
<g id="edge42" class="edge"><title>Node1&#45;&gt;Node32</title>
<path fill="none" stroke="midnightblue" d="M20.2579,-348.195C21.7487,-298.892 30.7768,-78.475 74,-29 76.479,-26.1624 79.3695,-23.7421 82.5216,-21.6783"/>
<polygon fill="midnightblue" stroke="midnightblue" points="84.1629,-24.7697 91.3731,-17.0068 80.8956,-18.579 84.1629,-24.7697"/>
</g>
<!-- Node4 -->
<g id="node4" class="node"><title>Node4</title>
<g id="a_node4"><a xlink:href="namespacetlz.html#a0621d598fb83b13bf028f3e6293d04f8" target="_top" xlink:title="tlz::string_arg">
<polygon fill="white" stroke="black" points="390,-633.5 390,-652.5 466,-652.5 466,-633.5 390,-633.5"/>
<text text-anchor="middle" x="428" y="-640.5" font-family="Helvetica,sans-Serif" font-size="10.00">tlz::string_arg</text>
</a>
</g>
</g>
<!-- Node3&#45;&gt;Node4 -->
<g id="edge3" class="edge"><title>Node3&#45;&gt;Node4</title>
<path fill="none" stroke="midnightblue" d="M308.661,-709.375C331.976,-696.297 373.862,-672.804 401.035,-657.563"/>
<polygon fill="midnightblue" stroke="midnightblue" points="402.969,-660.492 409.978,-652.547 399.544,-654.387 402.969,-660.492"/>
</g>
<!-- Node5 -->
<g id="node5" class="node"><title>Node5</title>
<g id="a_node5"><a xlink:href="namespacetlz.html#a780431daab8d2595372eacb43143b52d" target="_top" xlink:title="tlz::args">
<polygon fill="white" stroke="black" points="541.5,-671.5 541.5,-690.5 593.5,-690.5 593.5,-671.5 541.5,-671.5"/>
<text text-anchor="middle" x="567.5" y="-678.5" font-family="Helvetica,sans-Serif" font-size="10.00">tlz::args</text>
</a>
</g>
</g>
<!-- Node3&#45;&gt;Node5 -->
<g id="edge9" class="edge"><title>Node3&#45;&gt;Node5</title>
<path fill="none" stroke="midnightblue" d="M341.385,-712.774C378.311,-708.092 429.829,-701.409 475,-695 493.579,-692.364 514.245,-689.22 531.229,-686.58"/>
<polygon fill="midnightblue" stroke="midnightblue" points="531.937,-690.012 541.277,-685.01 530.857,-683.096 531.937,-690.012"/>
</g>
<!-- Node7 -->
<g id="node7" class="node"><title>Node7</title>
<g id="a_node7"><a xlink:href="classtlz_1_1args__list.html#a38ad21acd64a4af98ffdf4a47837cdbe" target="_top" xlink:title="tlz::args_list::usage_fail">
<polygon fill="white" stroke="black" points="660,-728.5 660,-747.5 780,-747.5 780,-728.5 660,-728.5"/>
<text text-anchor="middle" x="720" y="-735.5" font-family="Helvetica,sans-Serif" font-size="10.00">tlz::args_list::usage_fail</text>
</a>
</g>
</g>
<!-- Node3&#45;&gt;Node7 -->
<g id="edge10" class="edge"><title>Node3&#45;&gt;Node7</title>
<path fill="none" stroke="midnightblue" d="M302.063,-728.635C317.85,-742.312 349.165,-766.723 381,-776 488.137,-807.219 621.287,-771.639 683.661,-750.869"/>
<polygon fill="midnightblue" stroke="midnightblue" points="685.065,-754.088 693.403,-747.552 682.808,-747.462 685.065,-754.088"/>
</g>
<!-- Node9 -->
<g id="node9" class="node"><title>Node9</title>
<g id="a_node9"><a xlink:href="namespacetlz.html#abb019466ea9f56c0dab27e893d891837" target="_top" xlink:title="tlz::file_exists">
<polygon fill="white" stroke="black" points="389.5,-747.5 389.5,-766.5 466.5,-766.5 466.5,-747.5 389.5,-747.5"/>
<text text-anchor="middle" x="428" y="-754.5" font-family="Helvetica,sans-Serif" font-size="10.00">tlz::file_exists</text>
</a>
</g>
</g>
<!-- Node3&#45;&gt;Node9 -->
<g id="edge8" class="edge"><title>Node3&#45;&gt;Node9</title>
<path fill="none" stroke="midnightblue" d="M325.692,-728.589C343.104,-733.472 364.471,-739.464 383.087,-744.685"/>
<polygon fill="midnightblue" stroke="midnightblue" points="382.245,-748.084 392.819,-747.414 384.135,-741.344 382.245,-748.084"/>
</g>
<!-- Node4&#45;&gt;Node5 -->
<g id="edge4" class="edge"><title>Node4&#45;&gt;Node5</title>
<path fill="none" stroke="midnightblue" d="M463.697,-652.589C484.481,-658.333 510.821,-665.612 531.635,-671.365"/>
<polygon fill="midnightblue" stroke="midnightblue" points="530.789,-674.762 541.36,-674.052 532.654,-668.015 530.789,-674.762"/>
</g>
<!-- Node6 -->
<g id="node6" class="node"><title>Node6</title>
<g id="a_node6"><a xlink:href="classtlz_1_1args__list.html#a73d99bc75998dc14607a3a372d28dc6d" target="_top" xlink:title="tlz::args_list::next_arg">
<polygon fill="white" stroke="black" points="511,-633.5 511,-652.5 624,-652.5 624,-633.5 511,-633.5"/>
<text text-anchor="middle" x="567.5" y="-640.5" font-family="Helvetica,sans-Serif" font-size="10.00">tlz::args_list::next_arg</text>
</a>
</g>
</g>
<!-- Node4&#45;&gt;Node6 -->
<g id="edge5" class="edge"><title>Node4&#45;&gt;Node6</title>
<path fill="none" stroke="midnightblue" d="M466.209,-643C476.851,-643 488.781,-643 500.598,-643"/>
<polygon fill="midnightblue" stroke="midnightblue" points="500.918,-646.5 510.918,-643 500.918,-639.5 500.918,-646.5"/>
</g>
<!-- Node6&#45;&gt;Node7 -->
<g id="edge6" class="edge"><title>Node6&#45;&gt;Node7</title>
<path fill="none" stroke="midnightblue" d="M602.46,-652.548C609.769,-655.169 617.305,-658.323 624,-662 653.86,-678.402 683.806,-704.306 701.876,-721.227"/>
<polygon fill="midnightblue" stroke="midnightblue" points="699.646,-723.937 709.299,-728.303 704.475,-718.87 699.646,-723.937"/>
</g>
<!-- Node8 -->
<g id="node8" class="node"><title>Node8</title>
<g id="a_node8"><a xlink:href="namespacetlz.html#a8e4f8c8c2927bc4350de13bfa0f8f9e1" target="_top" xlink:title="tlz::to_string">
<polygon fill="white" stroke="black" points="684.5,-633.5 684.5,-652.5 755.5,-652.5 755.5,-633.5 684.5,-633.5"/>
<text text-anchor="middle" x="720" y="-640.5" font-family="Helvetica,sans-Serif" font-size="10.00">tlz::to_string</text>
</a>
</g>
</g>
<!-- Node6&#45;&gt;Node8 -->
<g id="edge7" class="edge"><title>Node6&#45;&gt;Node8</title>
<path fill="none" stroke="midnightblue" d="M624.113,-643C640.441,-643 658.096,-643 673.698,-643"/>
<polygon fill="midnightblue" stroke="midnightblue" points="674.13,-646.5 684.13,-643 674.129,-639.5 674.13,-646.5"/>
</g>
<!-- Node10&#45;&gt;Node3 -->
<g id="edge15" class="edge"><title>Node10&#45;&gt;Node3</title>
<path fill="none" stroke="midnightblue" d="M172.998,-630.539C182.35,-634.12 192.055,-638.859 200,-645 221.665,-661.747 214.781,-677.692 236,-695 240.7,-698.834 246.11,-702.183 251.645,-705.065"/>
<polygon fill="midnightblue" stroke="midnightblue" points="250.438,-708.366 260.974,-709.479 253.432,-702.039 250.438,-708.366"/>
</g>
<!-- Node10&#45;&gt;Node4 -->
<g id="edge14" class="edge"><title>Node10&#45;&gt;Node4</title>
<path fill="none" stroke="midnightblue" d="M184.754,-624.559C238.371,-628.641 325.788,-635.295 379.653,-639.396"/>
<polygon fill="midnightblue" stroke="midnightblue" points="379.722,-642.911 389.958,-640.18 380.253,-635.931 379.722,-642.911"/>
</g>
<!-- Node10&#45;&gt;Node5 -->
<g id="edge12" class="edge"><title>Node10&#45;&gt;Node5</title>
<path fill="none" stroke="midnightblue" d="M178.404,-630.567C185.607,-632.332 193.033,-634.19 200,-636 216.072,-640.175 219.694,-642.857 236,-646 342.36,-666.502 470.456,-675.756 531.214,-679.234"/>
<polygon fill="midnightblue" stroke="midnightblue" points="531.232,-682.741 541.41,-679.799 531.619,-675.751 531.232,-682.741"/>
</g>
<!-- Node11 -->
<g id="node11" class="node"><title>Node11</title>
<g id="a_node11"><a xlink:href="classtlz_1_1args__list.html#a4aee93f4b0d9b5b4e7a5d13cb637337c" target="_top" xlink:title="tlz::args_list::has\l_next_arg">
<polygon fill="white" stroke="black" points="244.5,-584 244.5,-614 336.5,-614 336.5,-584 244.5,-584"/>
<text text-anchor="start" x="252.5" y="-602" font-family="Helvetica,sans-Serif" font-size="10.00">tlz::args_list::has</text>
<text text-anchor="middle" x="290.5" y="-591" font-family="Helvetica,sans-Serif" font-size="10.00">_next_arg</text>
</a>
</g>
</g>
<!-- Node10&#45;&gt;Node11 -->
<g id="edge13" class="edge"><title>Node10&#45;&gt;Node11</title>
<path fill="none" stroke="midnightblue" d="M184.691,-614.22C200.387,-611.941 218.045,-609.376 234.329,-607.012"/>
<polygon fill="midnightblue" stroke="midnightblue" points="234.868,-610.47 244.261,-605.569 233.862,-603.543 234.868,-610.47"/>
</g>
<!-- Node13 -->
<g id="node13" class="node"><title>Node13</title>
<g id="a_node13"><a xlink:href="namespacetlz.html#a8cba4853d0d796a01c72f59f36f2a492" target="_top" xlink:title="tlz::decode_intrinsics">
<polygon fill="white" stroke="black" points="236,-469.5 236,-488.5 345,-488.5 345,-469.5 236,-469.5"/>
<text text-anchor="middle" x="290.5" y="-476.5" font-family="Helvetica,sans-Serif" font-size="10.00">tlz::decode_intrinsics</text>
</a>
</g>
</g>
<!-- Node12&#45;&gt;Node13 -->
<g id="edge17" class="edge"><title>Node12&#45;&gt;Node13</title>
<path fill="none" stroke="midnightblue" d="M182.235,-550.916C188.425,-548.028 194.532,-544.724 200,-541 219.229,-527.905 217.026,-516.462 236,-503 241.34,-499.212 247.373,-495.812 253.414,-492.845"/>
<polygon fill="midnightblue" stroke="midnightblue" points="255.178,-495.887 262.816,-488.545 252.266,-489.521 255.178,-495.887"/>
</g>
<!-- Node14 -->
<g id="node14" class="node"><title>Node14</title>
<g id="a_node14"><a xlink:href="namespacetlz.html#a066563a26e2de02f215b179f3d3a53da" target="_top" xlink:title="tlz::decode_mat">
<polygon fill="white" stroke="black" points="385,-507.5 385,-526.5 471,-526.5 471,-507.5 385,-507.5"/>
<text text-anchor="middle" x="428" y="-514.5" font-family="Helvetica,sans-Serif" font-size="10.00">tlz::decode_mat</text>
</a>
</g>
</g>
<!-- Node12&#45;&gt;Node14 -->
<g id="edge22" class="edge"><title>Node12&#45;&gt;Node14</title>
<path fill="none" stroke="midnightblue" d="M191.902,-550.965C206.161,-547.341 221.595,-543.731 236,-541 282.569,-532.17 336.162,-525.758 374.702,-521.794"/>
<polygon fill="midnightblue" stroke="midnightblue" points="375.06,-525.276 384.658,-520.79 374.357,-518.311 375.06,-525.276"/>
</g>
<!-- Node15 -->
<g id="node15" class="node"><title>Node15</title>
<g id="a_node15"><a xlink:href="namespacetlz.html#a252af14b9b4ac6502d3e9c5dd8dc90b8" target="_top" xlink:title="tlz::has">
<polygon fill="white" stroke="black" points="543,-469.5 543,-488.5 592,-488.5 592,-469.5 543,-469.5"/>
<text text-anchor="middle" x="567.5" y="-476.5" font-family="Helvetica,sans-Serif" font-size="10.00">tlz::has</text>
</a>
</g>
</g>
<!-- Node12&#45;&gt;Node15 -->
<g id="edge23" class="edge"><title>Node12&#45;&gt;Node15</title>
<path fill="none" stroke="midnightblue" d="M200.008,-568.97C268.975,-570.352 382.814,-566.852 475,-536 501.902,-526.997 529.025,-508.672 546.676,-495.22"/>
<polygon fill="midnightblue" stroke="midnightblue" points="549.278,-497.628 554.992,-488.706 544.961,-492.118 549.278,-497.628"/>
</g>
<!-- Node13&#45;&gt;Node14 -->
<g id="edge18" class="edge"><title>Node13&#45;&gt;Node14</title>
<path fill="none" stroke="midnightblue" d="M325.692,-488.589C343.104,-493.472 364.471,-499.464 383.087,-504.685"/>
<polygon fill="midnightblue" stroke="midnightblue" points="382.245,-508.084 392.819,-507.414 384.135,-501.344 382.245,-508.084"/>
</g>
<!-- Node13&#45;&gt;Node15 -->
<g id="edge19" class="edge"><title>Node13&#45;&gt;Node15</title>
<path fill="none" stroke="midnightblue" d="M345.176,-479C400.716,-479 485.762,-479 532.611,-479"/>
<polygon fill="midnightblue" stroke="midnightblue" points="532.832,-482.5 542.831,-479 532.831,-475.5 532.832,-482.5"/>
</g>
<!-- Node16 -->
<g id="node16" class="node"><title>Node16</title>
<g id="a_node16"><a xlink:href="namespacetlz.html#add846dc50c32dfb356cb1a7ac11d37ac" target="_top" xlink:title="tlz::get_or">
<polygon fill="white" stroke="black" points="398,-431.5 398,-450.5 458,-450.5 458,-431.5 398,-431.5"/>
<text text-anchor="middle" x="428" y="-438.5" font-family="Helvetica,sans-Serif" font-size="10.00">tlz::get_or</text>
</a>
</g>
</g>
<!-- Node13&#45;&gt;Node16 -->
<g id="edge20" class="edge"><title>Node13&#45;&gt;Node16</title>
<path fill="none" stroke="midnightblue" d="M325.692,-469.411C344.653,-464.094 368.305,-457.461 387.985,-451.941"/>
<polygon fill="midnightblue" stroke="midnightblue" points="389.186,-455.24 397.869,-449.169 387.296,-448.5 389.186,-455.24"/>
</g>
<!-- Node16&#45;&gt;Node15 -->
<g id="edge21" class="edge"><title>Node16&#45;&gt;Node15</title>
<path fill="none" stroke="midnightblue" d="M458.16,-449.059C480.135,-455.132 510.295,-463.467 533.214,-469.801"/>
<polygon fill="midnightblue" stroke="midnightblue" points="532.292,-473.177 542.863,-472.468 534.157,-466.43 532.292,-473.177"/>
</g>
<!-- Node22 -->
<g id="node22" class="node"><title>Node22</title>
<g id="a_node22"><a xlink:href="classtlz_1_1viewer.html#af74a8aef9dde68eeff6b1e2561b39014" target="_top" xlink:title="tlz::viewer::height">
<polygon fill="white" stroke="black" points="381,-310.5 381,-329.5 475,-329.5 475,-310.5 381,-310.5"/>
<text text-anchor="middle" x="428" y="-317.5" font-family="Helvetica,sans-Serif" font-size="10.00">tlz::viewer::height</text>
</a>
</g>
</g>
<!-- Node21&#45;&gt;Node22 -->
<g id="edge29" class="edge"><title>Node21&#45;&gt;Node22</title>
<path fill="none" stroke="midnightblue" d="M325.692,-348.411C343.104,-343.528 364.471,-337.536 383.087,-332.315"/>
<polygon fill="midnightblue" stroke="midnightblue" points="384.135,-335.656 392.819,-329.586 382.245,-328.916 384.135,-335.656"/>
</g>
<!-- Node23 -->
<g id="node23" class="node"><title>Node23</title>
<g id="a_node23"><a xlink:href="classtlz_1_1viewer.html#acc43bf1dd1d0c3cdc35a948d4c194769" target="_top" xlink:title="tlz::viewer::width">
<polygon fill="white" stroke="black" points="382.5,-348.5 382.5,-367.5 473.5,-367.5 473.5,-348.5 382.5,-348.5"/>
<text text-anchor="middle" x="428" y="-355.5" font-family="Helvetica,sans-Serif" font-size="10.00">tlz::viewer::width</text>
</a>
</g>
</g>
<!-- Node21&#45;&gt;Node23 -->
<g id="edge30" class="edge"><title>Node21&#45;&gt;Node23</title>
<path fill="none" stroke="midnightblue" d="M335.119,-358C346.845,-358 359.68,-358 371.94,-358"/>
<polygon fill="midnightblue" stroke="midnightblue" points="372.066,-361.5 382.066,-358 372.066,-354.5 372.066,-361.5"/>
</g>
<!-- Node27&#45;&gt;Node22 -->
<g id="edge36" class="edge"><title>Node27&#45;&gt;Node22</title>
<path fill="none" stroke="midnightblue" d="M335.119,-320C346.368,-320 358.639,-320 370.443,-320"/>
<polygon fill="midnightblue" stroke="midnightblue" points="370.659,-323.5 380.659,-320 370.659,-316.5 370.659,-323.5"/>
</g>
<!-- Node27&#45;&gt;Node23 -->
<g id="edge35" class="edge"><title>Node27&#45;&gt;Node23</title>
<path fill="none" stroke="midnightblue" d="M325.692,-329.589C343.104,-334.472 364.471,-340.464 383.087,-345.685"/>
<polygon fill="midnightblue" stroke="midnightblue" points="382.245,-349.084 392.819,-348.414 384.135,-342.344 382.245,-349.084"/>
</g>
<!-- Node28&#45;&gt;Node27 -->
<g id="edge39" class="edge"><title>Node28&#45;&gt;Node27</title>
<path fill="none" stroke="midnightblue" d="M176.23,-291.589C196.132,-296.581 220.657,-302.732 241.791,-308.033"/>
<polygon fill="midnightblue" stroke="midnightblue" points="240.994,-311.442 251.545,-310.48 242.697,-304.652 240.994,-311.442"/>
</g>
<!-- Node29 -->
<g id="node29" class="node"><title>Node29</title>
<g id="a_node29"><a xlink:href="classtlz_1_1viewer.html#a6a59617413dc76948b6802399ddf555b" target="_top" xlink:title="tlz::viewer::visualize\l_depth">
<polygon fill="white" stroke="black" points="237.5,-261 237.5,-291 343.5,-291 343.5,-261 237.5,-261"/>
<text text-anchor="start" x="245.5" y="-279" font-family="Helvetica,sans-Serif" font-size="10.00">tlz::viewer::visualize</text>
<text text-anchor="middle" x="290.5" y="-268" font-family="Helvetica,sans-Serif" font-size="10.00">_depth</text>
</a>
</g>
</g>
<!-- Node28&#45;&gt;Node29 -->
<g id="edge38" class="edge"><title>Node28&#45;&gt;Node29</title>
<path fill="none" stroke="midnightblue" d="M196.141,-279.697C206.279,-279.296 216.863,-278.877 227.11,-278.471"/>
<polygon fill="midnightblue" stroke="midnightblue" points="227.363,-281.964 237.216,-278.071 227.086,-274.969 227.363,-281.964"/>
</g>
</g>
</svg>
