<?xml version="1.0" encoding="UTF-8" standalone="no"?>
<!DOCTYPE svg PUBLIC "-//W3C//DTD SVG 1.1//EN"
 "http://www.w3.org/Graphics/SVG/1.1/DTD/svg11.dtd">
<!-- Generated by graphviz version 2.38.0 (20140413.2041)
 -->
<!-- Title: main Pages: 1 -->
<svg width="920pt" height="382pt"
 viewBox="0.00 0.00 920.00 382.00" xmlns="http://www.w3.org/2000/svg" xmlns:xlink="http://www.w3.org/1999/xlink">
<g id="graph0" class="graph" transform="scale(1 1) rotate(0) translate(4 378)">
<title>main</title>
<polygon fill="white" stroke="none" points="-4,4 -4,-378 916,-378 916,4 -4,4"/>
<!-- Node1 -->
<g id="node1" class="node"><title>Node1</title>
<polygon fill="#bfbfbf" stroke="black" points="0,-164.5 0,-183.5 38,-183.5 38,-164.5 0,-164.5"/>
<text text-anchor="middle" x="19" y="-171.5" font-family="Helvetica,sans-Serif" font-size="10.00">main</text>
</g>
<!-- Node2 -->
<g id="node2" class="node"><title>Node2</title>
<g id="a_node2"><a xlink:href="namespacetlz.html#a3c03f5d9d6261ec2909938822fc47f8a" target="_top" xlink:title="tlz::get_args">
<polygon fill="white" stroke="black" points="99,-316.5 99,-335.5 170,-335.5 170,-316.5 99,-316.5"/>
<text text-anchor="middle" x="134.5" y="-323.5" font-family="Helvetica,sans-Serif" font-size="10.00">tlz::get_args</text>
</a>
</g>
</g>
<!-- Node1&#45;&gt;Node2 -->
<g id="edge1" class="edge"><title>Node1&#45;&gt;Node2</title>
<path fill="none" stroke="midnightblue" d="M21.4984,-183.771C25.5967,-207.292 39.1064,-267.654 74,-302 78.5322,-306.461 84.0023,-310.126 89.7666,-313.128"/>
<polygon fill="midnightblue" stroke="midnightblue" points="88.4227,-316.362 98.9742,-317.319 91.3227,-309.991 88.4227,-316.362"/>
</g>
<!-- Node3 -->
<g id="node3" class="node"><title>Node3</title>
<g id="a_node3"><a xlink:href="namespacetlz.html#a91f1aec7120c97452c495ee447e56b57" target="_top" xlink:title="tlz::dataset_arg">
<polygon fill="white" stroke="black" points="249,-316.5 249,-335.5 333,-335.5 333,-316.5 249,-316.5"/>
<text text-anchor="middle" x="291" y="-323.5" font-family="Helvetica,sans-Serif" font-size="10.00">tlz::dataset_arg</text>
</a>
</g>
</g>
<!-- Node1&#45;&gt;Node3 -->
<g id="edge2" class="edge"><title>Node1&#45;&gt;Node3</title>
<path fill="none" stroke="midnightblue" d="M22.7433,-183.768C28.6973,-203.127 44.6836,-246.436 74,-269 87.1468,-279.119 179.21,-301.174 238.826,-314.69"/>
<polygon fill="midnightblue" stroke="midnightblue" points="238.301,-318.159 248.826,-316.946 239.841,-311.331 238.301,-318.159"/>
</g>
<!-- Node11 -->
<g id="node11" class="node"><title>Node11</title>
<g id="a_node11"><a xlink:href="namespacetlz.html#aa5e0f8e51747ba6008a12ea8942ad9f7" target="_top" xlink:title="tlz::cameras_arg">
<polygon fill="white" stroke="black" points="90,-240.5 90,-259.5 179,-259.5 179,-240.5 90,-240.5"/>
<text text-anchor="middle" x="134.5" y="-247.5" font-family="Helvetica,sans-Serif" font-size="10.00">tlz::cameras_arg</text>
</a>
</g>
</g>
<!-- Node1&#45;&gt;Node11 -->
<g id="edge12" class="edge"><title>Node1&#45;&gt;Node11</title>
<path fill="none" stroke="midnightblue" d="M27.9014,-183.589C37.7117,-194.985 55.432,-213.968 74,-226 80.1694,-229.998 87.1125,-233.529 94.0203,-236.57"/>
<polygon fill="midnightblue" stroke="midnightblue" points="92.7628,-239.837 103.342,-240.408 95.4282,-233.364 92.7628,-239.837"/>
</g>
<!-- Node16 -->
<g id="node16" class="node"><title>Node16</title>
<g id="a_node16"><a xlink:href="namespacetlz.html#a65770a2c1ff57c5ae6542d4465a3d3f4" target="_top" xlink:title="tlz::out_filename_arg">
<polygon fill="white" stroke="black" points="387,-202.5 387,-221.5 494,-221.5 494,-202.5 387,-202.5"/>
<text text-anchor="middle" x="440.5" y="-209.5" font-family="Helvetica,sans-Serif" font-size="10.00">tlz::out_filename_arg</text>
</a>
</g>
</g>
<!-- Node1&#45;&gt;Node16 -->
<g id="edge18" class="edge"><title>Node1&#45;&gt;Node16</title>
<path fill="none" stroke="midnightblue" d="M38.129,-181.844C48.4419,-185.931 61.7153,-190.572 74,-193 178.781,-213.709 303.543,-215.414 376.871,-214.143"/>
<polygon fill="midnightblue" stroke="midnightblue" points="376.941,-217.643 386.87,-213.946 376.802,-210.644 376.941,-217.643"/>
</g>
<!-- Node17 -->
<g id="node17" class="node"><title>Node17</title>
<g id="a_node17"><a xlink:href="namespacetlz.html#a5472d5ad8c55959e7d55be8551f53706" target="_top" xlink:title="tlz::cameras_map">
<polygon fill="white" stroke="black" points="87,-164.5 87,-183.5 182,-183.5 182,-164.5 87,-164.5"/>
<text text-anchor="middle" x="134.5" y="-171.5" font-family="Helvetica,sans-Serif" font-size="10.00">tlz::cameras_map</text>
</a>
</g>
</g>
<!-- Node1&#45;&gt;Node17 -->
<g id="edge20" class="edge"><title>Node1&#45;&gt;Node17</title>
<path fill="none" stroke="midnightblue" d="M38.2357,-174C48.8249,-174 62.8015,-174 76.776,-174"/>
<polygon fill="midnightblue" stroke="midnightblue" points="76.9028,-177.5 86.9028,-174 76.9027,-170.5 76.9028,-177.5"/>
</g>
<!-- Node18 -->
<g id="node18" class="node"><title>Node18</title>
<g id="a_node18"><a xlink:href="classtlz_1_1dataset.html#a8214662ec50b7214c1e5993185247a0a" target="_top" xlink:title="tlz::dataset::indices">
<polygon fill="white" stroke="black" points="83.5,-126.5 83.5,-145.5 185.5,-145.5 185.5,-126.5 83.5,-126.5"/>
<text text-anchor="middle" x="134.5" y="-133.5" font-family="Helvetica,sans-Serif" font-size="10.00">tlz::dataset::indices</text>
</a>
</g>
</g>
<!-- Node1&#45;&gt;Node18 -->
<g id="edge21" class="edge"><title>Node1&#45;&gt;Node18</title>
<path fill="none" stroke="midnightblue" d="M38.4484,-167.359C48.8611,-163.648 62.128,-158.983 74,-155 80.1394,-152.94 86.6523,-150.807 93.0304,-148.748"/>
<polygon fill="midnightblue" stroke="midnightblue" points="94.4155,-151.979 102.869,-145.593 92.2779,-145.314 94.4155,-151.979"/>
</g>
<!-- Node19 -->
<g id="node19" class="node"><title>Node19</title>
<g id="a_node19"><a xlink:href="classtlz_1_1dataset.html#acbdb309b8dd22f687fff41f6e9ac6ed4" target="_top" xlink:title="tlz::dataset::view">
<polygon fill="white" stroke="black" points="88.5,-88.5 88.5,-107.5 180.5,-107.5 180.5,-88.5 88.5,-88.5"/>
<text text-anchor="middle" x="134.5" y="-95.5" font-family="Helvetica,sans-Serif" font-size="10.00">tlz::dataset::view</text>
</a>
</g>
</g>
<!-- Node1&#45;&gt;Node19 -->
<g id="edge22" class="edge"><title>Node1&#45;&gt;Node19</title>
<path fill="none" stroke="midnightblue" d="M26.8893,-164.085C36.1855,-151.414 53.9136,-129.614 74,-117 77.3145,-114.918 80.8772,-113.046 84.5521,-111.366"/>
<polygon fill="midnightblue" stroke="midnightblue" points="85.9061,-114.593 93.8409,-107.573 83.2598,-108.113 85.9061,-114.593"/>
</g>
<!-- Node20 -->
<g id="node20" class="node"><title>Node20</title>
<g id="a_node20"><a xlink:href="classtlz_1_1dataset__view.html#a38cfd9cd54168855c54c607d01184c17" target="_top" xlink:title="tlz::dataset_view::\lcamera_name">
<polygon fill="white" stroke="black" points="86,-39 86,-69 183,-69 183,-39 86,-39"/>
<text text-anchor="start" x="94" y="-57" font-family="Helvetica,sans-Serif" font-size="10.00">tlz::dataset_view::</text>
<text text-anchor="middle" x="134.5" y="-46" font-family="Helvetica,sans-Serif" font-size="10.00">camera_name</text>
</a>
</g>
</g>
<!-- Node1&#45;&gt;Node20 -->
<g id="edge23" class="edge"><title>Node1&#45;&gt;Node20</title>
<path fill="none" stroke="midnightblue" d="M23.124,-164.281C29.6553,-145.39 46.4726,-103.43 74,-79 75.7363,-77.4591 77.5813,-76.0038 79.506,-74.6305"/>
<polygon fill="midnightblue" stroke="midnightblue" points="81.7213,-77.3745 88.3655,-69.1219 78.0251,-71.4299 81.7213,-77.3745"/>
</g>
<!-- Node22 -->
<g id="node22" class="node"><title>Node22</title>
<g id="a_node22"><a xlink:href="namespacetlz.html#a445f7e177edcda36ece43a5fcd78615f" target="_top" xlink:title="tlz::export_cameras_file">
<polygon fill="white" stroke="black" points="74,-0.5 74,-19.5 195,-19.5 195,-0.5 74,-0.5"/>
<text text-anchor="middle" x="134.5" y="-7.5" font-family="Helvetica,sans-Serif" font-size="10.00">tlz::export_cameras_file</text>
</a>
</g>
</g>
<!-- Node1&#45;&gt;Node22 -->
<g id="edge25" class="edge"><title>Node1&#45;&gt;Node22</title>
<path fill="none" stroke="midnightblue" d="M20.8089,-164.413C23.4769,-138.851 34.2506,-68.4011 74,-30 76.1309,-27.9414 78.4802,-26.0945 80.9776,-24.4375"/>
<polygon fill="midnightblue" stroke="midnightblue" points="82.8653,-27.3936 89.9367,-19.504 79.4887,-21.2619 82.8653,-27.3936"/>
</g>
<!-- Node4 -->
<g id="node4" class="node"><title>Node4</title>
<g id="a_node4"><a xlink:href="namespacetlz.html#a634de7ca11e100e4a118dffe80376a75" target="_top" xlink:title="tlz::in_filename_arg">
<polygon fill="white" stroke="black" points="390,-316.5 390,-335.5 491,-335.5 491,-316.5 390,-316.5"/>
<text text-anchor="middle" x="440.5" y="-323.5" font-family="Helvetica,sans-Serif" font-size="10.00">tlz::in_filename_arg</text>
</a>
</g>
</g>
<!-- Node3&#45;&gt;Node4 -->
<g id="edge3" class="edge"><title>Node3&#45;&gt;Node4</title>
<path fill="none" stroke="midnightblue" d="M333.087,-326C347.562,-326 364.14,-326 379.834,-326"/>
<polygon fill="midnightblue" stroke="midnightblue" points="379.989,-329.5 389.989,-326 379.989,-322.5 379.989,-329.5"/>
</g>
<!-- Node5 -->
<g id="node5" class="node"><title>Node5</title>
<g id="a_node5"><a xlink:href="namespacetlz.html#a0621d598fb83b13bf028f3e6293d04f8" target="_top" xlink:title="tlz::string_arg">
<polygon fill="white" stroke="black" points="530.5,-240.5 530.5,-259.5 606.5,-259.5 606.5,-240.5 530.5,-240.5"/>
<text text-anchor="middle" x="568.5" y="-247.5" font-family="Helvetica,sans-Serif" font-size="10.00">tlz::string_arg</text>
</a>
</g>
</g>
<!-- Node4&#45;&gt;Node5 -->
<g id="edge4" class="edge"><title>Node4&#45;&gt;Node5</title>
<path fill="none" stroke="midnightblue" d="M474.073,-316.48C480.89,-313.871 487.865,-310.716 494,-307 512.565,-295.755 512.795,-287.233 530,-274 533.929,-270.978 538.242,-267.964 542.501,-265.144"/>
<polygon fill="midnightblue" stroke="midnightblue" points="544.491,-268.026 551.026,-259.687 540.717,-262.131 544.491,-268.026"/>
</g>
<!-- Node6 -->
<g id="node6" class="node"><title>Node6</title>
<g id="a_node6"><a xlink:href="namespacetlz.html#a780431daab8d2595372eacb43143b52d" target="_top" xlink:title="tlz::args">
<polygon fill="white" stroke="black" points="673.5,-278.5 673.5,-297.5 725.5,-297.5 725.5,-278.5 673.5,-278.5"/>
<text text-anchor="middle" x="699.5" y="-285.5" font-family="Helvetica,sans-Serif" font-size="10.00">tlz::args</text>
</a>
</g>
</g>
<!-- Node4&#45;&gt;Node6 -->
<g id="edge10" class="edge"><title>Node4&#45;&gt;Node6</title>
<path fill="none" stroke="midnightblue" d="M491.095,-318.017C503.773,-316.014 517.386,-313.896 530,-312 576.077,-305.074 629.322,-297.575 663.422,-292.836"/>
<polygon fill="midnightblue" stroke="midnightblue" points="663.936,-296.298 673.361,-291.458 662.975,-289.364 663.936,-296.298"/>
</g>
<!-- Node8 -->
<g id="node8" class="node"><title>Node8</title>
<g id="a_node8"><a xlink:href="classtlz_1_1args__list.html#a38ad21acd64a4af98ffdf4a47837cdbe" target="_top" xlink:title="tlz::args_list::usage_fail">
<polygon fill="white" stroke="black" points="792,-297.5 792,-316.5 912,-316.5 912,-297.5 792,-297.5"/>
<text text-anchor="middle" x="852" y="-304.5" font-family="Helvetica,sans-Serif" font-size="10.00">tlz::args_list::usage_fail</text>
</a>
</g>
</g>
<!-- Node4&#45;&gt;Node8 -->
<g id="edge11" class="edge"><title>Node4&#45;&gt;Node8</title>
<path fill="none" stroke="midnightblue" d="M491.303,-323.689C564.044,-320.314 699.618,-314.024 781.948,-310.204"/>
<polygon fill="midnightblue" stroke="midnightblue" points="782.137,-313.699 791.964,-309.739 781.812,-306.707 782.137,-313.699"/>
</g>
<!-- Node10 -->
<g id="node10" class="node"><title>Node10</title>
<g id="a_node10"><a xlink:href="namespacetlz.html#abb019466ea9f56c0dab27e893d891837" target="_top" xlink:title="tlz::file_exists">
<polygon fill="white" stroke="black" points="530,-354.5 530,-373.5 607,-373.5 607,-354.5 530,-354.5"/>
<text text-anchor="middle" x="568.5" y="-361.5" font-family="Helvetica,sans-Serif" font-size="10.00">tlz::file_exists</text>
</a>
</g>
</g>
<!-- Node4&#45;&gt;Node10 -->
<g id="edge9" class="edge"><title>Node4&#45;&gt;Node10</title>
<path fill="none" stroke="midnightblue" d="M473.295,-335.589C489.262,-340.404 508.807,-346.299 525.947,-351.468"/>
<polygon fill="midnightblue" stroke="midnightblue" points="525.13,-354.878 535.715,-354.414 527.152,-348.176 525.13,-354.878"/>
</g>
<!-- Node5&#45;&gt;Node6 -->
<g id="edge5" class="edge"><title>Node5&#45;&gt;Node6</title>
<path fill="none" stroke="midnightblue" d="M602.052,-259.589C620.78,-265.106 644.314,-272.038 663.447,-277.674"/>
<polygon fill="midnightblue" stroke="midnightblue" points="662.701,-281.103 673.283,-280.572 664.679,-274.389 662.701,-281.103"/>
</g>
<!-- Node7 -->
<g id="node7" class="node"><title>Node7</title>
<g id="a_node7"><a xlink:href="classtlz_1_1args__list.html#a73d99bc75998dc14607a3a372d28dc6d" target="_top" xlink:title="tlz::args_list::next_arg">
<polygon fill="white" stroke="black" points="643,-240.5 643,-259.5 756,-259.5 756,-240.5 643,-240.5"/>
<text text-anchor="middle" x="699.5" y="-247.5" font-family="Helvetica,sans-Serif" font-size="10.00">tlz::args_list::next_arg</text>
</a>
</g>
</g>
<!-- Node5&#45;&gt;Node7 -->
<g id="edge6" class="edge"><title>Node5&#45;&gt;Node7</title>
<path fill="none" stroke="midnightblue" d="M606.812,-250C614.835,-250 623.544,-250 632.295,-250"/>
<polygon fill="midnightblue" stroke="midnightblue" points="632.549,-253.5 642.549,-250 632.549,-246.5 632.549,-253.5"/>
</g>
<!-- Node7&#45;&gt;Node8 -->
<g id="edge7" class="edge"><title>Node7&#45;&gt;Node8</title>
<path fill="none" stroke="midnightblue" d="M729.404,-259.585C737.995,-262.518 747.406,-265.813 756,-269 777.035,-276.802 800.438,-286.155 818.752,-293.63"/>
<polygon fill="midnightblue" stroke="midnightblue" points="817.51,-296.903 828.09,-297.458 820.165,-290.426 817.51,-296.903"/>
</g>
<!-- Node9 -->
<g id="node9" class="node"><title>Node9</title>
<g id="a_node9"><a xlink:href="namespacetlz.html#a8e4f8c8c2927bc4350de13bfa0f8f9e1" target="_top" xlink:title="tlz::to_string">
<polygon fill="white" stroke="black" points="816.5,-240.5 816.5,-259.5 887.5,-259.5 887.5,-240.5 816.5,-240.5"/>
<text text-anchor="middle" x="852" y="-247.5" font-family="Helvetica,sans-Serif" font-size="10.00">tlz::to_string</text>
</a>
</g>
</g>
<!-- Node7&#45;&gt;Node9 -->
<g id="edge8" class="edge"><title>Node7&#45;&gt;Node9</title>
<path fill="none" stroke="midnightblue" d="M756.113,-250C772.441,-250 790.096,-250 805.698,-250"/>
<polygon fill="midnightblue" stroke="midnightblue" points="806.13,-253.5 816.13,-250 806.129,-246.5 806.13,-253.5"/>
</g>
<!-- Node12 -->
<g id="node12" class="node"><title>Node12</title>
<g id="a_node12"><a xlink:href="namespacetlz.html#a8d445609e681336909da63eb443186b4" target="_top" xlink:title="tlz::decode_cameras">
<polygon fill="white" stroke="black" points="237.5,-240.5 237.5,-259.5 344.5,-259.5 344.5,-240.5 237.5,-240.5"/>
<text text-anchor="middle" x="291" y="-247.5" font-family="Helvetica,sans-Serif" font-size="10.00">tlz::decode_cameras</text>
</a>
</g>
</g>
<!-- Node11&#45;&gt;Node12 -->
<g id="edge13" class="edge"><title>Node11&#45;&gt;Node12</title>
<path fill="none" stroke="midnightblue" d="M179.36,-250C194.143,-250 210.946,-250 226.913,-250"/>
<polygon fill="midnightblue" stroke="midnightblue" points="227.255,-253.5 237.255,-250 227.255,-246.5 227.255,-253.5"/>
</g>
<!-- Node14 -->
<g id="node14" class="node"><title>Node14</title>
<g id="a_node14"><a xlink:href="namespacetlz.html#a35f9e03fa4fd9cec699f5fa27962400f" target="_top" xlink:title="tlz::json_arg">
<polygon fill="white" stroke="black" points="256,-278.5 256,-297.5 326,-297.5 326,-278.5 256,-278.5"/>
<text text-anchor="middle" x="291" y="-285.5" font-family="Helvetica,sans-Serif" font-size="10.00">tlz::json_arg</text>
</a>
</g>
</g>
<!-- Node11&#45;&gt;Node14 -->
<g id="edge15" class="edge"><title>Node11&#45;&gt;Node14</title>
<path fill="none" stroke="midnightblue" d="M174.487,-259.589C196.193,-264.928 223.29,-271.592 245.784,-277.125"/>
<polygon fill="midnightblue" stroke="midnightblue" points="245.213,-280.589 255.759,-279.578 246.885,-273.791 245.213,-280.589"/>
</g>
<!-- Node13 -->
<g id="node13" class="node"><title>Node13</title>
<g id="a_node13"><a xlink:href="namespacetlz.html#a066563a26e2de02f215b179f3d3a53da" target="_top" xlink:title="tlz::decode_mat">
<polygon fill="white" stroke="black" points="397.5,-240.5 397.5,-259.5 483.5,-259.5 483.5,-240.5 397.5,-240.5"/>
<text text-anchor="middle" x="440.5" y="-247.5" font-family="Helvetica,sans-Serif" font-size="10.00">tlz::decode_mat</text>
</a>
</g>
</g>
<!-- Node12&#45;&gt;Node13 -->
<g id="edge14" class="edge"><title>Node12&#45;&gt;Node13</title>
<path fill="none" stroke="midnightblue" d="M344.834,-250C358.536,-250 373.287,-250 386.973,-250"/>
<polygon fill="midnightblue" stroke="midnightblue" points="387.195,-253.5 397.195,-250 387.195,-246.5 387.195,-253.5"/>
</g>
<!-- Node14&#45;&gt;Node4 -->
<g id="edge17" class="edge"><title>Node14&#45;&gt;Node4</title>
<path fill="none" stroke="midnightblue" d="M326.21,-296.813C345.9,-301.886 370.927,-308.334 392.449,-313.878"/>
<polygon fill="midnightblue" stroke="midnightblue" points="391.818,-317.33 402.375,-316.436 393.564,-310.551 391.818,-317.33"/>
</g>
<!-- Node15 -->
<g id="node15" class="node"><title>Node15</title>
<g id="a_node15"><a xlink:href="namespacetlz.html#aa1be9362f548fcf9378e1fc9074089c4" target="_top" xlink:title="tlz::import_json_file">
<polygon fill="white" stroke="black" points="390,-278.5 390,-297.5 491,-297.5 491,-278.5 390,-278.5"/>
<text text-anchor="middle" x="440.5" y="-285.5" font-family="Helvetica,sans-Serif" font-size="10.00">tlz::import_json_file</text>
</a>
</g>
</g>
<!-- Node14&#45;&gt;Node15 -->
<g id="edge16" class="edge"><title>Node14&#45;&gt;Node15</title>
<path fill="none" stroke="midnightblue" d="M326.21,-288C342.077,-288 361.411,-288 379.583,-288"/>
<polygon fill="midnightblue" stroke="midnightblue" points="379.82,-291.5 389.82,-288 379.82,-284.5 379.82,-291.5"/>
</g>
<!-- Node16&#45;&gt;Node5 -->
<g id="edge19" class="edge"><title>Node16&#45;&gt;Node5</title>
<path fill="none" stroke="midnightblue" d="M473.295,-221.589C489.262,-226.404 508.807,-232.299 525.947,-237.468"/>
<polygon fill="midnightblue" stroke="midnightblue" points="525.13,-240.878 535.715,-240.414 527.152,-234.176 525.13,-240.878"/>
</g>
<!-- Node21 -->
<g id="node21" class="node"><title>Node21</title>
<g id="a_node21"><a xlink:href="classtlz_1_1dataset.html#ab14f5b1f18c0ab423c18270b7ca46bd2" target="_top" xlink:title="tlz::dataset::parameters">
<polygon fill="white" stroke="black" points="231,-44.5 231,-63.5 351,-63.5 351,-44.5 231,-44.5"/>
<text text-anchor="middle" x="291" y="-51.5" font-family="Helvetica,sans-Serif" font-size="10.00">tlz::dataset::parameters</text>
</a>
</g>
</g>
<!-- Node20&#45;&gt;Node21 -->
<g id="edge24" class="edge"><title>Node20&#45;&gt;Node21</title>
<path fill="none" stroke="midnightblue" d="M183.116,-54C195.009,-54 208.007,-54 220.715,-54"/>
<polygon fill="midnightblue" stroke="midnightblue" points="220.817,-57.5001 230.817,-54 220.817,-50.5001 220.817,-57.5001"/>
</g>
</g>
</svg>
