<?xml version="1.0" encoding="UTF-8" standalone="no"?>
<!DOCTYPE svg PUBLIC "-//W3C//DTD SVG 1.1//EN"
 "http://www.w3.org/Graphics/SVG/1.1/DTD/svg11.dtd">
<!-- Generated by graphviz version 2.38.0 (20140413.2041)
 -->
<!-- Title: tlz::kinect_reprojection_parameters::depth_offset_polyfit::operator bool Pages: 1 -->
<svg width="306pt" height="50pt"
 viewBox="0.00 0.00 306.00 50.00" xmlns="http://www.w3.org/2000/svg" xmlns:xlink="http://www.w3.org/1999/xlink">
<g id="graph0" class="graph" transform="scale(1 1) rotate(0) translate(4 46)">
<title>tlz::kinect_reprojection_parameters::depth_offset_polyfit::operator bool</title>
<polygon fill="white" stroke="none" points="-4,4 -4,-46 302,-46 302,4 -4,4"/>
<!-- Node1 -->
<g id="node1" class="node"><title>Node1</title>
<polygon fill="#bfbfbf" stroke="black" points="0,-0.5 0,-41.5 131,-41.5 131,-0.5 0,-0.5"/>
<text text-anchor="start" x="8" y="-29.5" font-family="Helvetica,sans-Serif" font-size="10.00">tlz::kinect_reprojection</text>
<text text-anchor="start" x="8" y="-18.5" font-family="Helvetica,sans-Serif" font-size="10.00">_parameters::depth_offset</text>
<text text-anchor="middle" x="65.5" y="-7.5" font-family="Helvetica,sans-Serif" font-size="10.00">_polyfit::operator bool</text>
</g>
<!-- Node2 -->
<g id="node2" class="node"><title>Node2</title>
<g id="a_node2"><a xlink:href="structtlz_1_1kinect__reprojection__parameters_1_1depth__offset__polyfit.html#a265113b81e71bfb85e60a917967f10e5" target="_top" xlink:title="tlz::kinect_reprojection\l_parameters::depth_offset\l_polyfit::is_none">
<polygon fill="white" stroke="black" points="167,-0.5 167,-41.5 298,-41.5 298,-0.5 167,-0.5"/>
<text text-anchor="start" x="175" y="-29.5" font-family="Helvetica,sans-Serif" font-size="10.00">tlz::kinect_reprojection</text>
<text text-anchor="start" x="175" y="-18.5" font-family="Helvetica,sans-Serif" font-size="10.00">_parameters::depth_offset</text>
<text text-anchor="middle" x="232.5" y="-7.5" font-family="Helvetica,sans-Serif" font-size="10.00">_polyfit::is_none</text>
</a>
</g>
</g>
<!-- Node1&#45;&gt;Node2 -->
<g id="edge1" class="edge"><title>Node1&#45;&gt;Node2</title>
<path fill="none" stroke="midnightblue" d="M131.239,-21C139.583,-21 148.182,-21 156.671,-21"/>
<polygon fill="midnightblue" stroke="midnightblue" points="156.948,-24.5001 166.948,-21 156.948,-17.5001 156.948,-24.5001"/>
</g>
</g>
</svg>
