<?xml version="1.0" encoding="UTF-8" standalone="no"?>
<!DOCTYPE svg PUBLIC "-//W3C//DTD SVG 1.1//EN"
 "http://www.w3.org/Graphics/SVG/1.1/DTD/svg11.dtd">
<!-- Generated by graphviz version 2.38.0 (20140413.2041)
 -->
<!-- Title: tlz::references_grid::size Pages: 1 -->
<svg width="244pt" height="186pt"
 viewBox="0.00 0.00 244.00 186.00" xmlns="http://www.w3.org/2000/svg" xmlns:xlink="http://www.w3.org/1999/xlink">
<g id="graph0" class="graph" transform="scale(1 1) rotate(0) translate(4 182)">
<title>tlz::references_grid::size</title>
<polygon fill="white" stroke="none" points="-4,4 -4,-182 240,-182 240,4 -4,4"/>
<!-- Node1 -->
<g id="node1" class="node"><title>Node1</title>
<polygon fill="#bfbfbf" stroke="black" points="0,-73.5 0,-103.5 100,-103.5 100,-73.5 0,-73.5"/>
<text text-anchor="start" x="8" y="-91.5" font-family="Helvetica,sans-Serif" font-size="10.00">tlz::references_grid</text>
<text text-anchor="middle" x="50" y="-80.5" font-family="Helvetica,sans-Serif" font-size="10.00">::size</text>
</g>
<!-- Node2 -->
<g id="node2" class="node"><title>Node2</title>
<g id="a_node2"><a xlink:href="structtlz_1_1references__grid.html#ac2d383bed7f034aa729ae386b689ad6d" target="_top" xlink:title="tlz::references_grid\l::cols">
<polygon fill="white" stroke="black" points="136,-147.5 136,-177.5 236,-177.5 236,-147.5 136,-147.5"/>
<text text-anchor="start" x="144" y="-165.5" font-family="Helvetica,sans-Serif" font-size="10.00">tlz::references_grid</text>
<text text-anchor="middle" x="186" y="-154.5" font-family="Helvetica,sans-Serif" font-size="10.00">::cols</text>
</a>
</g>
</g>
<!-- Node1&#45;&gt;Node2 -->
<g id="edge1" class="edge"><title>Node1&#45;&gt;Node2</title>
<path fill="none" stroke="midnightblue" d="M75.6351,-103.664C92.4533,-113.849 115.344,-127.387 136,-138.5 138.707,-139.956 141.515,-141.429 144.356,-142.891"/>
<polygon fill="midnightblue" stroke="midnightblue" points="142.948,-146.101 153.451,-147.488 146.105,-139.854 142.948,-146.101"/>
</g>
<!-- Node3 -->
<g id="node3" class="node"><title>Node3</title>
<g id="a_node3"><a xlink:href="structtlz_1_1references__grid.html#a5b4c4debbacfe143fd93753c04d84bca" target="_top" xlink:title="tlz::references_grid\l::rows">
<polygon fill="white" stroke="black" points="136,-98.5 136,-128.5 236,-128.5 236,-98.5 136,-98.5"/>
<text text-anchor="start" x="144" y="-116.5" font-family="Helvetica,sans-Serif" font-size="10.00">tlz::references_grid</text>
<text text-anchor="middle" x="186" y="-105.5" font-family="Helvetica,sans-Serif" font-size="10.00">::rows</text>
</a>
</g>
</g>
<!-- Node1&#45;&gt;Node3 -->
<g id="edge2" class="edge"><title>Node1&#45;&gt;Node3</title>
<path fill="none" stroke="midnightblue" d="M100.136,-97.6671C108.511,-99.2296 117.288,-100.867 125.889,-102.472"/>
<polygon fill="midnightblue" stroke="midnightblue" points="125.398,-105.941 135.87,-104.334 126.682,-99.0592 125.398,-105.941"/>
</g>
<!-- Node4 -->
<g id="node4" class="node"><title>Node4</title>
<g id="a_node4"><a xlink:href="structtlz_1_1references__grid.html#a3ad2b6212dea0a1b71addfee4fc6bfba" target="_top" xlink:title="tlz::references_grid\l::view">
<polygon fill="white" stroke="black" points="136,-49.5 136,-79.5 236,-79.5 236,-49.5 136,-49.5"/>
<text text-anchor="start" x="144" y="-67.5" font-family="Helvetica,sans-Serif" font-size="10.00">tlz::references_grid</text>
<text text-anchor="middle" x="186" y="-56.5" font-family="Helvetica,sans-Serif" font-size="10.00">::view</text>
</a>
</g>
</g>
<!-- Node1&#45;&gt;Node4 -->
<g id="edge3" class="edge"><title>Node1&#45;&gt;Node4</title>
<path fill="none" stroke="midnightblue" d="M100.136,-79.6996C108.511,-78.1995 117.288,-76.6276 125.889,-75.0871"/>
<polygon fill="midnightblue" stroke="midnightblue" points="126.644,-78.5076 135.87,-73.2994 125.41,-71.6173 126.644,-78.5076"/>
</g>
<!-- Node5 -->
<g id="node5" class="node"><title>Node5</title>
<g id="a_node5"><a xlink:href="structtlz_1_1references__grid.html#a14d7b4abd9087b92b5061f9d1a0c4745" target="_top" xlink:title="tlz::references_grid\l::has_view">
<polygon fill="white" stroke="black" points="136,-0.5 136,-30.5 236,-30.5 236,-0.5 136,-0.5"/>
<text text-anchor="start" x="144" y="-18.5" font-family="Helvetica,sans-Serif" font-size="10.00">tlz::references_grid</text>
<text text-anchor="middle" x="186" y="-7.5" font-family="Helvetica,sans-Serif" font-size="10.00">::has_view</text>
</a>
</g>
</g>
<!-- Node1&#45;&gt;Node5 -->
<g id="edge4" class="edge"><title>Node1&#45;&gt;Node5</title>
<path fill="none" stroke="midnightblue" d="M77.2593,-73.2922C93.9764,-63.7051 116.143,-51.1659 136,-40.5 139.263,-38.7474 142.662,-36.9521 146.08,-35.1672"/>
<polygon fill="midnightblue" stroke="midnightblue" points="147.822,-38.2067 155.096,-30.5034 144.606,-31.9893 147.822,-38.2067"/>
</g>
</g>
</svg>
