<?xml version="1.0" encoding="UTF-8" standalone="no"?>
<!DOCTYPE svg PUBLIC "-//W3C//DTD SVG 1.1//EN"
 "http://www.w3.org/Graphics/SVG/1.1/DTD/svg11.dtd">
<!-- Generated by graphviz version 2.38.0 (20140413.2041)
 -->
<!-- Title: tlz::rgb_color::rgb_color Pages: 1 -->
<svg width="256pt" height="78pt"
 viewBox="0.00 0.00 256.00 77.50" xmlns="http://www.w3.org/2000/svg" xmlns:xlink="http://www.w3.org/1999/xlink">
<g id="graph0" class="graph" transform="scale(1 1) rotate(0) translate(4 73.5)">
<title>tlz::rgb_color::rgb_color</title>
<polygon fill="white" stroke="none" points="-4,4 -4,-73.5 252,-73.5 252,4 -4,4"/>
<!-- Node1 -->
<g id="node1" class="node"><title>Node1</title>
<polygon fill="#bfbfbf" stroke="black" points="0,-17 0,-47 92,-47 92,-17 0,-17"/>
<text text-anchor="start" x="8" y="-35" font-family="Helvetica,sans-Serif" font-size="10.00">tlz::rgb_color::rgb</text>
<text text-anchor="middle" x="46" y="-24" font-family="Helvetica,sans-Serif" font-size="10.00">_color</text>
</g>
<!-- Node2 -->
<g id="node2" class="node"><title>Node2</title>
<g id="a_node2"><a xlink:href="structtlz_1_1rgb__color.html#a160ee6cf678c18984fbe61cbbca23d7d" target="_top" xlink:title="tlz::rgb_color::rgb\l_color">
<polygon fill="white" stroke="black" points="142,-39 142,-69 234,-69 234,-39 142,-39"/>
<text text-anchor="start" x="150" y="-57" font-family="Helvetica,sans-Serif" font-size="10.00">tlz::rgb_color::rgb</text>
<text text-anchor="middle" x="188" y="-46" font-family="Helvetica,sans-Serif" font-size="10.00">_color</text>
</a>
</g>
</g>
<!-- Node1&#45;&gt;Node2 -->
<g id="edge1" class="edge"><title>Node1&#45;&gt;Node2</title>
<path fill="none" stroke="midnightblue" d="M92.0675,-39.082C104.556,-41.0445 118.262,-43.1984 131.281,-45.2441"/>
<polygon fill="midnightblue" stroke="midnightblue" points="131.115,-48.7609 141.537,-46.8558 132.202,-41.8458 131.115,-48.7609"/>
</g>
<!-- Node3 -->
<g id="node3" class="node"><title>Node3</title>
<g id="a_node3"><a xlink:href="structtlz_1_1rgb__color.html#a247ac65eca6801974bd71fd94b92930f" target="_top" xlink:title="tlz::rgb_color::operator=">
<polygon fill="white" stroke="black" points="128,-0.5 128,-19.5 248,-19.5 248,-0.5 128,-0.5"/>
<text text-anchor="middle" x="188" y="-7.5" font-family="Helvetica,sans-Serif" font-size="10.00">tlz::rgb_color::operator=</text>
</a>
</g>
</g>
<!-- Node1&#45;&gt;Node3 -->
<g id="edge2" class="edge"><title>Node1&#45;&gt;Node3</title>
<path fill="none" stroke="midnightblue" d="M92.0675,-24.918C100.373,-23.6129 109.216,-22.2232 118.038,-20.8369"/>
<polygon fill="midnightblue" stroke="midnightblue" points="118.623,-24.288 127.959,-19.2779 117.537,-17.3728 118.623,-24.288"/>
</g>
</g>
</svg>
