<?xml version="1.0" encoding="UTF-8" standalone="no"?>
<!DOCTYPE svg PUBLIC "-//W3C//DTD SVG 1.1//EN"
 "http://www.w3.org/Graphics/SVG/1.1/DTD/svg11.dtd">
<!-- Generated by graphviz version 2.38.0 (20140413.2041)
 -->
<!-- Title: tlz::border::operator bool Pages: 1 -->
<svg width="447pt" height="142pt"
 viewBox="0.00 0.00 447.00 142.00" xmlns="http://www.w3.org/2000/svg" xmlns:xlink="http://www.w3.org/1999/xlink">
<g id="graph0" class="graph" transform="scale(1 1) rotate(0) translate(4 138)">
<title>tlz::border::operator bool</title>
<polygon fill="white" stroke="none" points="-4,4 -4,-138 443,-138 443,4 -4,4"/>
<!-- Node1 -->
<g id="node1" class="node"><title>Node1</title>
<polygon fill="#bfbfbf" stroke="black" points="0,-57.5 0,-76.5 122,-76.5 122,-57.5 0,-57.5"/>
<text text-anchor="middle" x="61" y="-64.5" font-family="Helvetica,sans-Serif" font-size="10.00">tlz::border::operator bool</text>
</g>
<!-- Node2 -->
<g id="node2" class="node"><title>Node2</title>
<g id="a_node2"><a xlink:href="structtlz_1_1border.html#a6187b6ab499b6dc802e99244f7506def" target="_top" xlink:title="tlz::border::is_none">
<polygon fill="white" stroke="black" points="158,-114.5 158,-133.5 258,-133.5 258,-114.5 158,-114.5"/>
<text text-anchor="middle" x="208" y="-121.5" font-family="Helvetica,sans-Serif" font-size="10.00">tlz::border::is_none</text>
</a>
</g>
</g>
<!-- Node1&#45;&gt;Node2 -->
<g id="edge1" class="edge"><title>Node1&#45;&gt;Node2</title>
<path fill="none" stroke="midnightblue" d="M86.0478,-76.5729C105.454,-84.2851 133.466,-95.3879 158,-105 162.814,-106.886 167.899,-108.868 172.897,-110.812"/>
<polygon fill="midnightblue" stroke="midnightblue" points="171.722,-114.11 182.311,-114.465 174.255,-107.584 171.722,-114.11"/>
</g>
<!-- Node3 -->
<g id="node3" class="node"><title>Node3</title>
<g id="a_node3"><a xlink:href="namespacetlz.html#a0f52424381098b5c19e34aef5da5232e" target="_top" xlink:title="tlz::encode_border">
<polygon fill="white" stroke="black" points="159.5,-76.5 159.5,-95.5 256.5,-95.5 256.5,-76.5 159.5,-76.5"/>
<text text-anchor="middle" x="208" y="-83.5" font-family="Helvetica,sans-Serif" font-size="10.00">tlz::encode_border</text>
</a>
</g>
</g>
<!-- Node1&#45;&gt;Node3 -->
<g id="edge2" class="edge"><title>Node1&#45;&gt;Node3</title>
<path fill="none" stroke="midnightblue" d="M122.233,-74.8926C131.07,-76.0505 140.156,-77.2412 148.948,-78.3931"/>
<polygon fill="midnightblue" stroke="midnightblue" points="148.729,-81.8944 159.099,-79.7234 149.639,-74.9537 148.729,-81.8944"/>
</g>
<!-- Node4 -->
<g id="node4" class="node"><title>Node4</title>
<g id="a_node4"><a xlink:href="namespacetlz.html#a9517e892e5486b965a722d5589dc58c4" target="_top" xlink:title="tlz::decode_border">
<polygon fill="white" stroke="black" points="159.5,-38.5 159.5,-57.5 256.5,-57.5 256.5,-38.5 159.5,-38.5"/>
<text text-anchor="middle" x="208" y="-45.5" font-family="Helvetica,sans-Serif" font-size="10.00">tlz::decode_border</text>
</a>
</g>
</g>
<!-- Node1&#45;&gt;Node4 -->
<g id="edge3" class="edge"><title>Node1&#45;&gt;Node4</title>
<path fill="none" stroke="midnightblue" d="M122.233,-59.1074C131.07,-57.9495 140.156,-56.7588 148.948,-55.6069"/>
<polygon fill="midnightblue" stroke="midnightblue" points="149.639,-59.0463 159.099,-54.2766 148.729,-52.1056 149.639,-59.0463"/>
</g>
<!-- Node7 -->
<g id="node7" class="node"><title>Node7</title>
<g id="a_node7"><a xlink:href="namespacetlz.html#a0b91e1131356fee9a4c7a72c3b398186" target="_top" xlink:title="tlz::add_border">
<polygon fill="white" stroke="black" points="167.5,-0.5 167.5,-19.5 248.5,-19.5 248.5,-0.5 167.5,-0.5"/>
<text text-anchor="middle" x="208" y="-7.5" font-family="Helvetica,sans-Serif" font-size="10.00">tlz::add_border</text>
</a>
</g>
</g>
<!-- Node1&#45;&gt;Node7 -->
<g id="edge6" class="edge"><title>Node1&#45;&gt;Node7</title>
<path fill="none" stroke="midnightblue" d="M86.0478,-57.4271C105.454,-49.7149 133.466,-38.6121 158,-29 162.814,-27.1137 167.899,-25.1315 172.897,-23.1882"/>
<polygon fill="midnightblue" stroke="midnightblue" points="174.255,-26.4158 182.311,-19.5347 171.722,-19.8901 174.255,-26.4158"/>
</g>
<!-- Node5 -->
<g id="node5" class="node"><title>Node5</title>
<g id="a_node5"><a xlink:href="namespacetlz.html#add846dc50c32dfb356cb1a7ac11d37ac" target="_top" xlink:title="tlz::get_or">
<polygon fill="white" stroke="black" points="294,-38.5 294,-57.5 354,-57.5 354,-38.5 294,-38.5"/>
<text text-anchor="middle" x="324" y="-45.5" font-family="Helvetica,sans-Serif" font-size="10.00">tlz::get_or</text>
</a>
</g>
</g>
<!-- Node4&#45;&gt;Node5 -->
<g id="edge4" class="edge"><title>Node4&#45;&gt;Node5</title>
<path fill="none" stroke="midnightblue" d="M256.686,-48C265.621,-48 274.871,-48 283.524,-48"/>
<polygon fill="midnightblue" stroke="midnightblue" points="283.721,-51.5001 293.721,-48 283.721,-44.5001 283.721,-51.5001"/>
</g>
<!-- Node6 -->
<g id="node6" class="node"><title>Node6</title>
<g id="a_node6"><a xlink:href="namespacetlz.html#a252af14b9b4ac6502d3e9c5dd8dc90b8" target="_top" xlink:title="tlz::has">
<polygon fill="white" stroke="black" points="390,-38.5 390,-57.5 439,-57.5 439,-38.5 390,-38.5"/>
<text text-anchor="middle" x="414.5" y="-45.5" font-family="Helvetica,sans-Serif" font-size="10.00">tlz::has</text>
</a>
</g>
</g>
<!-- Node5&#45;&gt;Node6 -->
<g id="edge5" class="edge"><title>Node5&#45;&gt;Node6</title>
<path fill="none" stroke="midnightblue" d="M354.469,-48C362.53,-48 371.33,-48 379.617,-48"/>
<polygon fill="midnightblue" stroke="midnightblue" points="379.744,-51.5001 389.744,-48 379.744,-44.5001 379.744,-51.5001"/>
</g>
</g>
</svg>
