<?xml version="1.0" encoding="UTF-8" standalone="no"?>
<!DOCTYPE svg PUBLIC "-//W3C//DTD SVG 1.1//EN"
 "http://www.w3.org/Graphics/SVG/1.1/DTD/svg11.dtd">
<!-- Generated by graphviz version 2.38.0 (20140413.2041)
 -->
<!-- Title: tlz::image_correspondences::has_feature Pages: 1 -->
<svg width="1321pt" height="961pt"
 viewBox="0.00 0.00 1321.00 960.50" xmlns="http://www.w3.org/2000/svg" xmlns:xlink="http://www.w3.org/1999/xlink">
<g id="graph0" class="graph" transform="scale(1 1) rotate(0) translate(4 956.5)">
<title>tlz::image_correspondences::has_feature</title>
<polygon fill="white" stroke="none" points="-4,4 -4,-956.5 1317,-956.5 1317,4 -4,4"/>
<!-- Node1 -->
<g id="node1" class="node"><title>Node1</title>
<polygon fill="#bfbfbf" stroke="black" points="0,-521 0,-551 139,-551 139,-521 0,-521"/>
<text text-anchor="start" x="8" y="-539" font-family="Helvetica,sans-Serif" font-size="10.00">tlz::image_correspondences</text>
<text text-anchor="middle" x="69.5" y="-528" font-family="Helvetica,sans-Serif" font-size="10.00">::has_feature</text>
</g>
<!-- Node2 -->
<g id="node2" class="node"><title>Node2</title>
<g id="a_node2"><a xlink:href="namespacetlz.html#a50da847dcfcd4a37035f36baf5658b0d" target="_top" xlink:title="tlz::get_reference\l_views_set">
<polygon fill="white" stroke="black" points="214.5,-922 214.5,-952 306.5,-952 306.5,-922 214.5,-922"/>
<text text-anchor="start" x="222.5" y="-940" font-family="Helvetica,sans-Serif" font-size="10.00">tlz::get_reference</text>
<text text-anchor="middle" x="260.5" y="-929" font-family="Helvetica,sans-Serif" font-size="10.00">_views_set</text>
</a>
</g>
</g>
<!-- Node1&#45;&gt;Node2 -->
<g id="edge1" class="edge"><title>Node1&#45;&gt;Node2</title>
<path fill="none" stroke="midnightblue" d="M69.8364,-551.122C68.2271,-607.519 70.3958,-807.731 175,-913 183.065,-921.116 193.66,-926.536 204.609,-930.144"/>
<polygon fill="midnightblue" stroke="midnightblue" points="203.694,-933.522 214.268,-932.869 205.595,-926.785 203.694,-933.522"/>
</g>
<!-- Node3 -->
<g id="node3" class="node"><title>Node3</title>
<g id="a_node3"><a xlink:href="namespacetlz.html#a4c8ba0cd4f8d2e01c0aa3c58056bd648" target="_top" xlink:title="tlz::get_reference\l_views">
<polygon fill="white" stroke="black" points="214.5,-873 214.5,-903 306.5,-903 306.5,-873 214.5,-873"/>
<text text-anchor="start" x="222.5" y="-891" font-family="Helvetica,sans-Serif" font-size="10.00">tlz::get_reference</text>
<text text-anchor="middle" x="260.5" y="-880" font-family="Helvetica,sans-Serif" font-size="10.00">_views</text>
</a>
</g>
</g>
<!-- Node1&#45;&gt;Node3 -->
<g id="edge2" class="edge"><title>Node1&#45;&gt;Node3</title>
<path fill="none" stroke="midnightblue" d="M70.5733,-551.302C71.6808,-603.217 82.498,-774.384 175,-864 183.217,-871.961 193.876,-877.317 204.838,-880.911"/>
<polygon fill="midnightblue" stroke="midnightblue" points="203.922,-884.29 214.497,-883.638 205.824,-877.553 203.922,-884.29"/>
</g>
<!-- Node4 -->
<g id="node4" class="node"><title>Node4</title>
<g id="a_node4"><a xlink:href="namespacetlz.html#ae26f7675ecb867cba4f721a2533bceb6" target="_top" xlink:title="tlz::image_correspondences\l_with_reference">
<polygon fill="white" stroke="black" points="191,-824 191,-854 330,-854 330,-824 191,-824"/>
<text text-anchor="start" x="199" y="-842" font-family="Helvetica,sans-Serif" font-size="10.00">tlz::image_correspondences</text>
<text text-anchor="middle" x="260.5" y="-831" font-family="Helvetica,sans-Serif" font-size="10.00">_with_reference</text>
</a>
</g>
</g>
<!-- Node1&#45;&gt;Node4 -->
<g id="edge3" class="edge"><title>Node1&#45;&gt;Node4</title>
<path fill="none" stroke="midnightblue" d="M71.9115,-551.084C76.966,-596.599 98.1812,-734.035 175,-809 178.802,-812.71 183.092,-815.964 187.672,-818.818"/>
<polygon fill="midnightblue" stroke="midnightblue" points="186.336,-822.078 196.786,-823.827 189.708,-815.943 186.336,-822.078"/>
</g>
<!-- Node5 -->
<g id="node5" class="node"><title>Node5</title>
<g id="a_node5"><a xlink:href="namespacetlz.html#a5649e44b2c9d8527dcdcc6282b4850c3" target="_top" xlink:title="tlz::get_all_views_set">
<polygon fill="white" stroke="black" points="414.5,-766.5 414.5,-785.5 525.5,-785.5 525.5,-766.5 414.5,-766.5"/>
<text text-anchor="middle" x="470" y="-773.5" font-family="Helvetica,sans-Serif" font-size="10.00">tlz::get_all_views_set</text>
</a>
</g>
</g>
<!-- Node1&#45;&gt;Node5 -->
<g id="edge4" class="edge"><title>Node1&#45;&gt;Node5</title>
<path fill="none" stroke="midnightblue" d="M71.6471,-551.081C75.9029,-595.094 94.9859,-723.57 175,-776 253.294,-827.303 370.29,-805.102 430.358,-788.381"/>
<polygon fill="midnightblue" stroke="midnightblue" points="431.552,-791.68 440.193,-785.55 429.615,-784.953 431.552,-791.68"/>
</g>
<!-- Node6 -->
<g id="node6" class="node"><title>Node6</title>
<g id="a_node6"><a xlink:href="namespacetlz.html#ace8122bb9e3521f3fbaa00a88a1d5928" target="_top" xlink:title="tlz::get_all_views">
<polygon fill="white" stroke="black" points="214.5,-747.5 214.5,-766.5 306.5,-766.5 306.5,-747.5 214.5,-747.5"/>
<text text-anchor="middle" x="260.5" y="-754.5" font-family="Helvetica,sans-Serif" font-size="10.00">tlz::get_all_views</text>
</a>
</g>
</g>
<!-- Node1&#45;&gt;Node6 -->
<g id="edge5" class="edge"><title>Node1&#45;&gt;Node6</title>
<path fill="none" stroke="midnightblue" d="M73.7249,-551.246C82.5969,-589.25 111.077,-688.667 175,-738 183.48,-744.544 193.783,-748.917 204.238,-751.821"/>
<polygon fill="midnightblue" stroke="midnightblue" points="203.719,-755.295 214.254,-754.178 205.322,-748.481 203.719,-755.295"/>
</g>
<!-- Node7 -->
<g id="node7" class="node"><title>Node7</title>
<g id="a_node7"><a xlink:href="namespacetlz.html#a45905d439e8ba051a7159b7fef851eb7" target="_top" xlink:title="tlz::get_feature_names_set">
<polygon fill="white" stroke="black" points="193,-709.5 193,-728.5 328,-728.5 328,-709.5 193,-709.5"/>
<text text-anchor="middle" x="260.5" y="-716.5" font-family="Helvetica,sans-Serif" font-size="10.00">tlz::get_feature_names_set</text>
</a>
</g>
</g>
<!-- Node1&#45;&gt;Node7 -->
<g id="edge7" class="edge"><title>Node1&#45;&gt;Node7</title>
<path fill="none" stroke="midnightblue" d="M76.2333,-551.309C88.9346,-583.099 122.536,-656.502 175,-695 180.917,-699.342 187.596,-702.9 194.54,-705.814"/>
<polygon fill="midnightblue" stroke="midnightblue" points="193.537,-709.176 204.129,-709.404 195.991,-702.62 193.537,-709.176"/>
</g>
<!-- Node8 -->
<g id="node8" class="node"><title>Node8</title>
<g id="a_node8"><a xlink:href="namespacetlz.html#adeaba792165d6750fff2c8a9b692d10b" target="_top" xlink:title="tlz::get_feature_names">
<polygon fill="white" stroke="black" points="412,-690.5 412,-709.5 528,-709.5 528,-690.5 412,-690.5"/>
<text text-anchor="middle" x="470" y="-697.5" font-family="Helvetica,sans-Serif" font-size="10.00">tlz::get_feature_names</text>
</a>
</g>
</g>
<!-- Node1&#45;&gt;Node8 -->
<g id="edge9" class="edge"><title>Node1&#45;&gt;Node8</title>
<path fill="none" stroke="midnightblue" d="M78.0942,-551.179C92.6853,-578.562 127.455,-635.811 175,-662 212.781,-682.81 327.125,-692.66 401.576,-696.981"/>
<polygon fill="midnightblue" stroke="midnightblue" points="401.624,-700.489 411.805,-697.554 402.016,-693.5 401.624,-700.489"/>
</g>
<!-- Node9 -->
<g id="node9" class="node"><title>Node9</title>
<g id="a_node9"><a xlink:href="namespacetlz.html#a322d5c4e810a487f114fd4a5e7dcf826" target="_top" xlink:title="tlz::short_feature_name">
<polygon fill="white" stroke="black" points="201,-633.5 201,-652.5 320,-652.5 320,-633.5 201,-633.5"/>
<text text-anchor="middle" x="260.5" y="-640.5" font-family="Helvetica,sans-Serif" font-size="10.00">tlz::short_feature_name</text>
</a>
</g>
</g>
<!-- Node1&#45;&gt;Node9 -->
<g id="edge10" class="edge"><title>Node1&#45;&gt;Node9</title>
<path fill="none" stroke="midnightblue" d="M84.0977,-551.314C102.638,-571.204 137.817,-605.553 175,-624 180.177,-626.569 185.705,-628.794 191.361,-630.722"/>
<polygon fill="midnightblue" stroke="midnightblue" points="190.374,-634.08 200.962,-633.693 192.443,-627.393 190.374,-634.08"/>
</g>
<!-- Node10 -->
<g id="node10" class="node"><title>Node10</title>
<g id="a_node10"><a xlink:href="namespacetlz.html#ae9eeca909bec8ca797356b56d3cfbb90" target="_top" xlink:title="tlz::undistort">
<polygon fill="white" stroke="black" points="225,-595.5 225,-614.5 296,-614.5 296,-595.5 225,-595.5"/>
<text text-anchor="middle" x="260.5" y="-602.5" font-family="Helvetica,sans-Serif" font-size="10.00">tlz::undistort</text>
</a>
</g>
</g>
<!-- Node1&#45;&gt;Node10 -->
<g id="edge11" class="edge"><title>Node1&#45;&gt;Node10</title>
<path fill="none" stroke="midnightblue" d="M98.6663,-551.15C119.33,-561.78 148.321,-575.7 175,-585 187.693,-589.425 201.795,-593.194 214.784,-596.226"/>
<polygon fill="midnightblue" stroke="midnightblue" points="214.391,-599.725 224.915,-598.499 215.924,-592.895 214.391,-599.725"/>
</g>
<!-- Node14 -->
<g id="node14" class="node"><title>Node14</title>
<g id="a_node14"><a xlink:href="namespacetlz.html#abf1d01f09b5e0671d1538ea8259cdb1e" target="_top" xlink:title="tlz::visualize_view\l_points">
<polygon fill="white" stroke="black" points="212,-546 212,-576 309,-576 309,-546 212,-546"/>
<text text-anchor="start" x="220" y="-564" font-family="Helvetica,sans-Serif" font-size="10.00">tlz::visualize_view</text>
<text text-anchor="middle" x="260.5" y="-553" font-family="Helvetica,sans-Serif" font-size="10.00">_points</text>
</a>
</g>
</g>
<!-- Node1&#45;&gt;Node14 -->
<g id="edge15" class="edge"><title>Node1&#45;&gt;Node14</title>
<path fill="none" stroke="midnightblue" d="M139.001,-545.061C159.602,-547.786 181.99,-550.747 201.816,-553.37"/>
<polygon fill="midnightblue" stroke="midnightblue" points="201.554,-556.866 211.927,-554.707 202.472,-549.926 201.554,-556.866"/>
</g>
<!-- Node16 -->
<g id="node16" class="node"><title>Node16</title>
<g id="a_node16"><a xlink:href="namespacetlz.html#a7f1e6601e70df95f0c06c82252c66e1b" target="_top" xlink:title="tlz::visualize_view\l_points_closeup">
<polygon fill="white" stroke="black" points="212,-497 212,-527 309,-527 309,-497 212,-497"/>
<text text-anchor="start" x="220" y="-515" font-family="Helvetica,sans-Serif" font-size="10.00">tlz::visualize_view</text>
<text text-anchor="middle" x="260.5" y="-504" font-family="Helvetica,sans-Serif" font-size="10.00">_points_closeup</text>
</a>
</g>
</g>
<!-- Node1&#45;&gt;Node16 -->
<g id="edge17" class="edge"><title>Node1&#45;&gt;Node16</title>
<path fill="none" stroke="midnightblue" d="M139.001,-527.302C159.602,-524.686 181.99,-521.843 201.816,-519.325"/>
<polygon fill="midnightblue" stroke="midnightblue" points="202.448,-522.773 211.927,-518.041 201.566,-515.829 202.448,-522.773"/>
</g>
<!-- Node17 -->
<g id="node17" class="node"><title>Node17</title>
<g id="a_node17"><a xlink:href="namespacetlz.html#ab83b0eb933afca1abe8ccd3470207691" target="_top" xlink:title="tlz::decode_image_correspondence\l_feature">
<polygon fill="white" stroke="black" points="806,-445 806,-475 976,-475 976,-445 806,-445"/>
<text text-anchor="start" x="814" y="-463" font-family="Helvetica,sans-Serif" font-size="10.00">tlz::decode_image_correspondence</text>
<text text-anchor="middle" x="891" y="-452" font-family="Helvetica,sans-Serif" font-size="10.00">_feature</text>
</a>
</g>
</g>
<!-- Node1&#45;&gt;Node17 -->
<g id="edge19" class="edge"><title>Node1&#45;&gt;Node17</title>
<path fill="none" stroke="midnightblue" d="M95.2159,-520.93C115.757,-509.279 146.181,-493.995 175,-487 392.283,-434.264 657.487,-442.339 795.809,-451.781"/>
<polygon fill="midnightblue" stroke="midnightblue" points="795.732,-455.284 805.952,-452.492 796.221,-448.302 795.732,-455.284"/>
</g>
<!-- Node22 -->
<g id="node22" class="node"><title>Node22</title>
<g id="a_node22"><a xlink:href="namespacetlz.html#aa875dcb2a47f0a406887a14c6f515bfd" target="_top" xlink:title="tlz::encode_image_correspondence\l_feature">
<polygon fill="white" stroke="black" points="597,-380 597,-410 767,-410 767,-380 597,-380"/>
<text text-anchor="start" x="605" y="-398" font-family="Helvetica,sans-Serif" font-size="10.00">tlz::encode_image_correspondence</text>
<text text-anchor="middle" x="682" y="-387" font-family="Helvetica,sans-Serif" font-size="10.00">_feature</text>
</a>
</g>
</g>
<!-- Node1&#45;&gt;Node22 -->
<g id="edge25" class="edge"><title>Node1&#45;&gt;Node22</title>
<path fill="none" stroke="midnightblue" d="M84.3664,-520.829C102.934,-501.621 137.865,-469.202 175,-454 333.522,-389.104 387.952,-431.604 558,-411 567.361,-409.866 577.119,-408.651 586.863,-407.418"/>
<polygon fill="midnightblue" stroke="midnightblue" points="587.518,-410.862 596.996,-406.127 586.633,-403.919 587.518,-410.862"/>
</g>
<!-- Node27 -->
<g id="node27" class="node"><title>Node27</title>
<g id="a_node27"><a xlink:href="namespacetlz.html#a24915249769d936c24ceb34f50b06104" target="_top" xlink:title="tlz::decode_image_correspondences">
<polygon fill="white" stroke="black" points="594,-319.5 594,-338.5 770,-338.5 770,-319.5 594,-319.5"/>
<text text-anchor="middle" x="682" y="-326.5" font-family="Helvetica,sans-Serif" font-size="10.00">tlz::decode_image_correspondences</text>
</a>
</g>
</g>
<!-- Node1&#45;&gt;Node27 -->
<g id="edge30" class="edge"><title>Node1&#45;&gt;Node27</title>
<path fill="none" stroke="midnightblue" d="M75.5686,-520.513C87.2025,-487.724 119.199,-411.563 175,-378 209.126,-357.475 446.637,-341.535 583.793,-333.918"/>
<polygon fill="midnightblue" stroke="midnightblue" points="584.105,-337.406 593.897,-333.362 583.72,-330.417 584.105,-337.406"/>
</g>
<!-- Node28 -->
<g id="node28" class="node"><title>Node28</title>
<g id="a_node28"><a xlink:href="namespacetlz.html#a5425610b090d56218f8a7272ba402bfb" target="_top" xlink:title="tlz::encode_image_correspondences">
<polygon fill="white" stroke="black" points="382,-382.5 382,-401.5 558,-401.5 558,-382.5 382,-382.5"/>
<text text-anchor="middle" x="470" y="-389.5" font-family="Helvetica,sans-Serif" font-size="10.00">tlz::encode_image_correspondences</text>
</a>
</g>
</g>
<!-- Node1&#45;&gt;Node28 -->
<g id="edge33" class="edge"><title>Node1&#45;&gt;Node28</title>
<path fill="none" stroke="midnightblue" d="M78.4146,-520.905C93.2814,-494.307 128.153,-439.673 175,-416 236.139,-385.106 313.653,-379.944 373.738,-382.059"/>
<polygon fill="midnightblue" stroke="midnightblue" points="373.844,-385.566 383.984,-382.495 374.142,-378.572 373.844,-385.566"/>
</g>
<!-- Node29 -->
<g id="node29" class="node"><title>Node29</title>
<g id="a_node29"><a xlink:href="namespacetlz.html#a24bb23db2319f38046e6de526a0cb20e" target="_top" xlink:title="tlz::export_binary\l_image_correspondences">
<polygon fill="white" stroke="black" points="406,-295 406,-325 534,-325 534,-295 406,-295"/>
<text text-anchor="start" x="414" y="-313" font-family="Helvetica,sans-Serif" font-size="10.00">tlz::export_binary</text>
<text text-anchor="middle" x="470" y="-302" font-family="Helvetica,sans-Serif" font-size="10.00">_image_correspondences</text>
</a>
</g>
</g>
<!-- Node1&#45;&gt;Node29 -->
<g id="edge35" class="edge"><title>Node1&#45;&gt;Node29</title>
<path fill="none" stroke="midnightblue" d="M73.5372,-520.732C81.9747,-482.76 109.531,-383.961 175,-340 240.095,-296.29 332.244,-294.076 395.948,-299.391"/>
<polygon fill="midnightblue" stroke="midnightblue" points="395.642,-302.878 405.92,-300.304 396.28,-295.907 395.642,-302.878"/>
</g>
<!-- Node30 -->
<g id="node30" class="node"><title>Node30</title>
<g id="a_node30"><a xlink:href="namespacetlz.html#a2ec439452fda5eeb03f60715e50fa96a" target="_top" xlink:title="tlz::import_binary\l_image_correspondences">
<polygon fill="white" stroke="black" points="618,-153 618,-183 746,-183 746,-153 618,-153"/>
<text text-anchor="start" x="626" y="-171" font-family="Helvetica,sans-Serif" font-size="10.00">tlz::import_binary</text>
<text text-anchor="middle" x="682" y="-160" font-family="Helvetica,sans-Serif" font-size="10.00">_image_correspondences</text>
</a>
</g>
</g>
<!-- Node1&#45;&gt;Node30 -->
<g id="edge36" class="edge"><title>Node1&#45;&gt;Node30</title>
<path fill="none" stroke="midnightblue" d="M72.4556,-520.735C80.9307,-457.23 116.708,-215.217 175,-171 240.95,-120.975 484.006,-142.975 607.68,-158.068"/>
<polygon fill="midnightblue" stroke="midnightblue" points="607.466,-161.568 617.821,-159.323 608.326,-154.621 607.466,-161.568"/>
</g>
<!-- Node31 -->
<g id="node31" class="node"><title>Node31</title>
<g id="a_node31"><a xlink:href="namespacetlz.html#a703280f6c42435c957e976f0ab000b30" target="_top" xlink:title="tlz::export_image_corresponcences">
<polygon fill="white" stroke="black" points="175,-268.5 175,-287.5 346,-287.5 346,-268.5 175,-268.5"/>
<text text-anchor="middle" x="260.5" y="-275.5" font-family="Helvetica,sans-Serif" font-size="10.00">tlz::export_image_corresponcences</text>
</a>
</g>
</g>
<!-- Node1&#45;&gt;Node31 -->
<g id="edge37" class="edge"><title>Node1&#45;&gt;Node31</title>
<path fill="none" stroke="midnightblue" d="M72.7659,-520.795C79.781,-479.196 105.046,-362.586 175,-302 179.766,-297.872 185.197,-294.452 190.953,-291.618"/>
<polygon fill="midnightblue" stroke="midnightblue" points="192.416,-294.798 200.217,-287.63 189.648,-288.369 192.416,-294.798"/>
</g>
<!-- Node34 -->
<g id="node34" class="node"><title>Node34</title>
<g id="a_node34"><a xlink:href="namespacetlz.html#ad75d99f2e1623434fbadee66f3ff29a1" target="_top" xlink:title="tlz::import_image_correspondences">
<polygon fill="white" stroke="black" points="384.5,-180.5 384.5,-199.5 555.5,-199.5 555.5,-180.5 384.5,-180.5"/>
<text text-anchor="middle" x="470" y="-187.5" font-family="Helvetica,sans-Serif" font-size="10.00">tlz::import_image_correspondences</text>
</a>
</g>
</g>
<!-- Node1&#45;&gt;Node34 -->
<g id="edge43" class="edge"><title>Node1&#45;&gt;Node34</title>
<path fill="none" stroke="midnightblue" d="M71.4155,-520.965C75.0975,-474.345 92.9068,-331.043 175,-259 192.383,-243.745 325.48,-216.738 406.517,-201.427"/>
<polygon fill="midnightblue" stroke="midnightblue" points="407.434,-204.816 416.615,-199.529 406.141,-197.937 407.434,-204.816"/>
</g>
<!-- Node36 -->
<g id="node36" class="node"><title>Node36</title>
<g id="a_node36"><a xlink:href="namespacetlz.html#a11d8bb3ca89f4957bfde1cd0d5429a16" target="_top" xlink:title="tlz::image_correspondences_arg">
<polygon fill="white" stroke="black" points="181.5,-180.5 181.5,-199.5 339.5,-199.5 339.5,-180.5 181.5,-180.5"/>
<text text-anchor="middle" x="260.5" y="-187.5" font-family="Helvetica,sans-Serif" font-size="10.00">tlz::image_correspondences_arg</text>
</a>
</g>
</g>
<!-- Node1&#45;&gt;Node36 -->
<g id="edge48" class="edge"><title>Node1&#45;&gt;Node36</title>
<path fill="none" stroke="midnightblue" d="M71.0143,-520.764C73.5304,-470.574 88.3171,-308.591 175,-220 181.941,-212.907 190.665,-207.486 199.853,-203.344"/>
<polygon fill="midnightblue" stroke="midnightblue" points="201.171,-206.587 209.148,-199.614 198.564,-200.09 201.171,-206.587"/>
</g>
<!-- Node6&#45;&gt;Node5 -->
<g id="edge6" class="edge"><title>Node6&#45;&gt;Node5</title>
<path fill="none" stroke="midnightblue" d="M306.524,-761.123C335.134,-763.742 372.626,-767.175 404.386,-770.084"/>
<polygon fill="midnightblue" stroke="midnightblue" points="404.2,-773.581 414.478,-771.008 404.838,-766.61 404.2,-773.581"/>
</g>
<!-- Node7&#45;&gt;Node8 -->
<g id="edge8" class="edge"><title>Node7&#45;&gt;Node8</title>
<path fill="none" stroke="midnightblue" d="M328.01,-712.91C351.554,-710.754 378.047,-708.328 401.659,-706.166"/>
<polygon fill="midnightblue" stroke="midnightblue" points="402.294,-709.623 411.933,-705.225 401.655,-702.652 402.294,-709.623"/>
</g>
<!-- Node11 -->
<g id="node11" class="node"><title>Node11</title>
<g id="a_node11"><a xlink:href="namespacetlz.html#a8b5e4acbb884887859e414ffe06a09f8" target="_top" xlink:title="tlz::undistort_points">
<polygon fill="white" stroke="black" points="419,-595.5 419,-614.5 521,-614.5 521,-595.5 419,-595.5"/>
<text text-anchor="middle" x="470" y="-602.5" font-family="Helvetica,sans-Serif" font-size="10.00">tlz::undistort_points</text>
</a>
</g>
</g>
<!-- Node10&#45;&gt;Node11 -->
<g id="edge12" class="edge"><title>Node10&#45;&gt;Node11</title>
<path fill="none" stroke="midnightblue" d="M296.231,-605C326.919,-605 372.351,-605 408.925,-605"/>
<polygon fill="midnightblue" stroke="midnightblue" points="408.986,-608.5 418.986,-605 408.986,-601.5 408.986,-608.5"/>
</g>
<!-- Node12 -->
<g id="node12" class="node"><title>Node12</title>
<g id="a_node12"><a xlink:href="structtlz_1_1distortion__parameters.html#a307fee036b04519d633fb8456899850c" target="_top" xlink:title="tlz::distortion_parameters\l::is_none">
<polygon fill="white" stroke="black" points="618.5,-614 618.5,-644 745.5,-644 745.5,-614 618.5,-614"/>
<text text-anchor="start" x="626.5" y="-632" font-family="Helvetica,sans-Serif" font-size="10.00">tlz::distortion_parameters</text>
<text text-anchor="middle" x="682" y="-621" font-family="Helvetica,sans-Serif" font-size="10.00">::is_none</text>
</a>
</g>
</g>
<!-- Node11&#45;&gt;Node12 -->
<g id="edge13" class="edge"><title>Node11&#45;&gt;Node12</title>
<path fill="none" stroke="midnightblue" d="M521.033,-610.718C547.078,-613.695 579.407,-617.389 608.171,-620.677"/>
<polygon fill="midnightblue" stroke="midnightblue" points="607.847,-624.162 618.18,-621.821 608.642,-617.208 607.847,-624.162"/>
</g>
<!-- Node13 -->
<g id="node13" class="node"><title>Node13</title>
<g id="a_node13"><a xlink:href="structtlz_1_1distortion__parameters.html#a96312c5d7baa4b7b1f2a76e9396037f8" target="_top" xlink:title="tlz::distortion_parameters\l::cv_coeffs">
<polygon fill="white" stroke="black" points="618.5,-565 618.5,-595 745.5,-595 745.5,-565 618.5,-565"/>
<text text-anchor="start" x="626.5" y="-583" font-family="Helvetica,sans-Serif" font-size="10.00">tlz::distortion_parameters</text>
<text text-anchor="middle" x="682" y="-572" font-family="Helvetica,sans-Serif" font-size="10.00">::cv_coeffs</text>
</a>
</g>
</g>
<!-- Node11&#45;&gt;Node13 -->
<g id="edge14" class="edge"><title>Node11&#45;&gt;Node13</title>
<path fill="none" stroke="midnightblue" d="M521.033,-599.044C547.078,-595.943 579.407,-592.094 608.171,-588.67"/>
<polygon fill="midnightblue" stroke="midnightblue" points="608.664,-592.136 618.18,-587.479 607.836,-585.185 608.664,-592.136"/>
</g>
<!-- Node15 -->
<g id="node15" class="node"><title>Node15</title>
<g id="a_node15"><a xlink:href="namespacetlz.html#a6c23bd1f5f2f91d3c3af2c32bfe32065" target="_top" xlink:title="tlz::cv_aa_circle">
<polygon fill="white" stroke="black" points="426,-526.5 426,-545.5 514,-545.5 514,-526.5 426,-526.5"/>
<text text-anchor="middle" x="470" y="-533.5" font-family="Helvetica,sans-Serif" font-size="10.00">tlz::cv_aa_circle</text>
</a>
</g>
</g>
<!-- Node14&#45;&gt;Node15 -->
<g id="edge16" class="edge"><title>Node14&#45;&gt;Node15</title>
<path fill="none" stroke="midnightblue" d="M309.105,-555.264C340.847,-551.44 382.622,-546.407 415.512,-542.444"/>
<polygon fill="midnightblue" stroke="midnightblue" points="416.345,-545.869 425.854,-541.198 415.507,-538.92 416.345,-545.869"/>
</g>
<!-- Node16&#45;&gt;Node15 -->
<g id="edge18" class="edge"><title>Node16&#45;&gt;Node15</title>
<path fill="none" stroke="midnightblue" d="M309.105,-517.506C340.847,-521.177 382.622,-526.009 415.512,-529.813"/>
<polygon fill="midnightblue" stroke="midnightblue" points="415.518,-533.337 425.854,-531.01 416.323,-526.384 415.518,-533.337"/>
</g>
<!-- Node18 -->
<g id="node18" class="node"><title>Node18</title>
<g id="a_node18"><a xlink:href="namespacetlz.html#a252af14b9b4ac6502d3e9c5dd8dc90b8" target="_top" xlink:title="tlz::has">
<polygon fill="white" stroke="black" points="1264,-450.5 1264,-469.5 1313,-469.5 1313,-450.5 1264,-450.5"/>
<text text-anchor="middle" x="1288.5" y="-457.5" font-family="Helvetica,sans-Serif" font-size="10.00">tlz::has</text>
</a>
</g>
</g>
<!-- Node17&#45;&gt;Node18 -->
<g id="edge20" class="edge"><title>Node17&#45;&gt;Node18</title>
<path fill="none" stroke="midnightblue" d="M976.36,-460C1062.61,-460 1192.32,-460 1253.4,-460"/>
<polygon fill="midnightblue" stroke="midnightblue" points="1253.63,-463.5 1263.63,-460 1253.63,-456.5 1253.63,-463.5"/>
</g>
<!-- Node19 -->
<g id="node19" class="node"><title>Node19</title>
<g id="a_node19"><a xlink:href="namespacetlz.html#a74e8454f97dace7cffb1afdb6d3ca87b" target="_top" xlink:title="tlz::decode_view_index">
<polygon fill="white" stroke="black" points="1012.5,-412.5 1012.5,-431.5 1131.5,-431.5 1131.5,-412.5 1012.5,-412.5"/>
<text text-anchor="middle" x="1072" y="-419.5" font-family="Helvetica,sans-Serif" font-size="10.00">tlz::decode_view_index</text>
</a>
</g>
</g>
<!-- Node17&#45;&gt;Node19 -->
<g id="edge21" class="edge"><title>Node17&#45;&gt;Node19</title>
<path fill="none" stroke="midnightblue" d="M962.746,-444.981C980.468,-441.219 999.218,-437.239 1016.04,-433.667"/>
<polygon fill="midnightblue" stroke="midnightblue" points="1017.19,-437.001 1026.25,-431.501 1015.74,-430.154 1017.19,-437.001"/>
</g>
<!-- Node20 -->
<g id="node20" class="node"><title>Node20</title>
<g id="a_node20"><a xlink:href="namespacetlz.html#ae8f9175a86bbe49ac0f4485d5db3080b" target="_top" xlink:title="tlz::decode_feature\l_point">
<polygon fill="white" stroke="black" points="1022,-489 1022,-519 1122,-519 1122,-489 1022,-489"/>
<text text-anchor="start" x="1030" y="-507" font-family="Helvetica,sans-Serif" font-size="10.00">tlz::decode_feature</text>
<text text-anchor="middle" x="1072" y="-496" font-family="Helvetica,sans-Serif" font-size="10.00">_point</text>
</a>
</g>
</g>
<!-- Node17&#45;&gt;Node20 -->
<g id="edge22" class="edge"><title>Node17&#45;&gt;Node20</title>
<path fill="none" stroke="midnightblue" d="M953.101,-475.019C972.074,-479.683 992.946,-484.814 1011.79,-489.445"/>
<polygon fill="midnightblue" stroke="midnightblue" points="1011.18,-492.9 1021.73,-491.888 1012.85,-486.102 1011.18,-492.9"/>
</g>
<!-- Node21 -->
<g id="node21" class="node"><title>Node21</title>
<g id="a_node21"><a xlink:href="namespacetlz.html#add846dc50c32dfb356cb1a7ac11d37ac" target="_top" xlink:title="tlz::get_or">
<polygon fill="white" stroke="black" points="1168,-491.5 1168,-510.5 1228,-510.5 1228,-491.5 1168,-491.5"/>
<text text-anchor="middle" x="1198" y="-498.5" font-family="Helvetica,sans-Serif" font-size="10.00">tlz::get_or</text>
</a>
</g>
</g>
<!-- Node20&#45;&gt;Node21 -->
<g id="edge23" class="edge"><title>Node20&#45;&gt;Node21</title>
<path fill="none" stroke="midnightblue" d="M1122.01,-502.814C1133.93,-502.526 1146.52,-502.221 1157.91,-501.946"/>
<polygon fill="midnightblue" stroke="midnightblue" points="1158.07,-505.443 1167.98,-501.702 1157.9,-498.445 1158.07,-505.443"/>
</g>
<!-- Node21&#45;&gt;Node18 -->
<g id="edge24" class="edge"><title>Node21&#45;&gt;Node18</title>
<path fill="none" stroke="midnightblue" d="M1219.53,-491.491C1230.84,-486.25 1245.09,-479.649 1257.61,-473.846"/>
<polygon fill="midnightblue" stroke="midnightblue" points="1259.18,-476.979 1266.78,-469.6 1256.23,-470.628 1259.18,-476.979"/>
</g>
<!-- Node23 -->
<g id="node23" class="node"><title>Node23</title>
<g id="a_node23"><a xlink:href="namespacetlz.html#aadab29bdc80bc1d0ad6d3784dd427992" target="_top" xlink:title="tlz::encode_view_index">
<polygon fill="white" stroke="black" points="831.5,-392.5 831.5,-411.5 950.5,-411.5 950.5,-392.5 831.5,-392.5"/>
<text text-anchor="middle" x="891" y="-399.5" font-family="Helvetica,sans-Serif" font-size="10.00">tlz::encode_view_index</text>
</a>
</g>
</g>
<!-- Node22&#45;&gt;Node23 -->
<g id="edge26" class="edge"><title>Node22&#45;&gt;Node23</title>
<path fill="none" stroke="midnightblue" d="M767.195,-397.847C785.16,-398.455 803.929,-399.089 821.234,-399.675"/>
<polygon fill="midnightblue" stroke="midnightblue" points="821.123,-403.173 831.236,-400.013 821.36,-396.177 821.123,-403.173"/>
</g>
<!-- Node26 -->
<g id="node26" class="node"><title>Node26</title>
<g id="a_node26"><a xlink:href="namespacetlz.html#a8f6c31dc4b1dffe7950bcb1f4ff85cbc" target="_top" xlink:title="tlz::encode_feature\l_point">
<polygon fill="white" stroke="black" points="841,-343 841,-373 941,-373 941,-343 841,-343"/>
<text text-anchor="start" x="849" y="-361" font-family="Helvetica,sans-Serif" font-size="10.00">tlz::encode_feature</text>
<text text-anchor="middle" x="891" y="-350" font-family="Helvetica,sans-Serif" font-size="10.00">_point</text>
</a>
</g>
</g>
<!-- Node22&#45;&gt;Node26 -->
<g id="edge29" class="edge"><title>Node22&#45;&gt;Node26</title>
<path fill="none" stroke="midnightblue" d="M767.195,-379.951C788.546,-376.134 811.033,-372.115 830.847,-368.573"/>
<polygon fill="midnightblue" stroke="midnightblue" points="831.716,-371.974 840.944,-366.768 830.484,-365.083 831.716,-371.974"/>
</g>
<!-- Node24 -->
<g id="node24" class="node"><title>Node24</title>
<g id="a_node24"><a xlink:href="namespacetlz.html#a8e4f8c8c2927bc4350de13bfa0f8f9e1" target="_top" xlink:title="tlz::to_string">
<polygon fill="white" stroke="black" points="1036.5,-142.5 1036.5,-161.5 1107.5,-161.5 1107.5,-142.5 1036.5,-142.5"/>
<text text-anchor="middle" x="1072" y="-149.5" font-family="Helvetica,sans-Serif" font-size="10.00">tlz::to_string</text>
</a>
</g>
</g>
<!-- Node23&#45;&gt;Node24 -->
<g id="edge27" class="edge"><title>Node23&#45;&gt;Node24</title>
<path fill="none" stroke="midnightblue" d="M950.559,-395.634C959.803,-392.592 968.702,-388.228 976,-382 1041.91,-325.761 1062.85,-216.49 1068.84,-171.786"/>
<polygon fill="midnightblue" stroke="midnightblue" points="1072.33,-172.009 1070.08,-161.658 1065.39,-171.157 1072.33,-172.009"/>
</g>
<!-- Node25 -->
<g id="node25" class="node"><title>Node25</title>
<g id="a_node25"><a xlink:href="structtlz_1_1view__index.html#a20518c30015d833cdb2a69b524886b96" target="_top" xlink:title="tlz::view_index::is_2d">
<polygon fill="white" stroke="black" points="1016.5,-374.5 1016.5,-393.5 1127.5,-393.5 1127.5,-374.5 1016.5,-374.5"/>
<text text-anchor="middle" x="1072" y="-381.5" font-family="Helvetica,sans-Serif" font-size="10.00">tlz::view_index::is_2d</text>
</a>
</g>
</g>
<!-- Node23&#45;&gt;Node25 -->
<g id="edge28" class="edge"><title>Node23&#45;&gt;Node25</title>
<path fill="none" stroke="midnightblue" d="M950.611,-396.106C968.337,-394.324 987.905,-392.356 1006.02,-390.534"/>
<polygon fill="midnightblue" stroke="midnightblue" points="1006.6,-393.993 1016.2,-389.51 1005.9,-387.028 1006.6,-393.993"/>
</g>
<!-- Node27&#45;&gt;Node17 -->
<g id="edge32" class="edge"><title>Node27&#45;&gt;Node17</title>
<path fill="none" stroke="midnightblue" d="M712.579,-338.566C730.515,-345.373 753.118,-355.83 770,-370 791.251,-387.837 784.698,-403.224 806,-421 815.259,-428.726 826.302,-435.273 837.29,-440.667"/>
<polygon fill="midnightblue" stroke="midnightblue" points="835.922,-443.891 846.466,-444.929 838.871,-437.542 835.922,-443.891"/>
</g>
<!-- Node27&#45;&gt;Node18 -->
<g id="edge31" class="edge"><title>Node27&#45;&gt;Node18</title>
<path fill="none" stroke="midnightblue" d="M770.334,-321.321C863.346,-316.446 1013.22,-318.196 1132,-365 1184.01,-385.496 1238.32,-422.965 1266.96,-444.207"/>
<polygon fill="midnightblue" stroke="midnightblue" points="1264.9,-447.035 1275,-450.241 1269.1,-441.437 1264.9,-447.035"/>
</g>
<!-- Node28&#45;&gt;Node22 -->
<g id="edge34" class="edge"><title>Node28&#45;&gt;Node22</title>
<path fill="none" stroke="midnightblue" d="M558.235,-393.246C567.586,-393.38 577.131,-393.516 586.561,-393.651"/>
<polygon fill="midnightblue" stroke="midnightblue" points="586.686,-397.153 596.735,-393.796 586.786,-390.154 586.686,-397.153"/>
</g>
<!-- Node31&#45;&gt;Node28 -->
<g id="edge41" class="edge"><title>Node31&#45;&gt;Node28</title>
<path fill="none" stroke="midnightblue" d="M278.834,-287.523C315.223,-307.515 399.755,-353.957 442.799,-377.605"/>
<polygon fill="midnightblue" stroke="midnightblue" points="441.119,-380.676 451.569,-382.423 444.49,-374.541 441.119,-380.676"/>
</g>
<!-- Node31&#45;&gt;Node29 -->
<g id="edge42" class="edge"><title>Node31&#45;&gt;Node29</title>
<path fill="none" stroke="midnightblue" d="M323.195,-287.514C345.983,-291.029 372.029,-295.045 395.742,-298.702"/>
<polygon fill="midnightblue" stroke="midnightblue" points="395.329,-302.18 405.746,-300.245 396.396,-295.262 395.329,-302.18"/>
</g>
<!-- Node32 -->
<g id="node32" class="node"><title>Node32</title>
<g id="a_node32"><a xlink:href="namespacetlz.html#ae11c827ac9e581f9d2f98c39aab3750d" target="_top" xlink:title="tlz::file_name_extension">
<polygon fill="white" stroke="black" points="621,-240.5 621,-259.5 743,-259.5 743,-240.5 621,-240.5"/>
<text text-anchor="middle" x="682" y="-247.5" font-family="Helvetica,sans-Serif" font-size="10.00">tlz::file_name_extension</text>
</a>
</g>
</g>
<!-- Node31&#45;&gt;Node32 -->
<g id="edge38" class="edge"><title>Node31&#45;&gt;Node32</title>
<path fill="none" stroke="midnightblue" d="M290.321,-268.398C314.487,-260.88 350.069,-251.042 382,-247 459.774,-237.156 549.836,-239.97 610.626,-243.933"/>
<polygon fill="midnightblue" stroke="midnightblue" points="610.659,-247.444 620.874,-244.631 611.135,-240.46 610.659,-247.444"/>
</g>
<!-- Node33 -->
<g id="node33" class="node"><title>Node33</title>
<g id="a_node33"><a xlink:href="namespacetlz.html#ab98de0b10e3e079dee189f81adc638a0" target="_top" xlink:title="tlz::export_json_file">
<polygon fill="white" stroke="black" points="419.5,-256.5 419.5,-275.5 520.5,-275.5 520.5,-256.5 419.5,-256.5"/>
<text text-anchor="middle" x="470" y="-263.5" font-family="Helvetica,sans-Serif" font-size="10.00">tlz::export_json_file</text>
</a>
</g>
</g>
<!-- Node31&#45;&gt;Node33 -->
<g id="edge39" class="edge"><title>Node31&#45;&gt;Node33</title>
<path fill="none" stroke="midnightblue" d="M346.197,-273.102C367.383,-271.877 389.665,-270.588 409.347,-269.45"/>
<polygon fill="midnightblue" stroke="midnightblue" points="409.601,-272.941 419.382,-268.869 409.197,-265.953 409.601,-272.941"/>
</g>
<!-- Node33&#45;&gt;Node32 -->
<g id="edge40" class="edge"><title>Node33&#45;&gt;Node32</title>
<path fill="none" stroke="midnightblue" d="M520.501,-262.228C547.402,-260.179 581.123,-257.61 610.704,-255.356"/>
<polygon fill="midnightblue" stroke="midnightblue" points="611.271,-258.823 620.976,-254.573 610.739,-251.843 611.271,-258.823"/>
</g>
<!-- Node34&#45;&gt;Node27 -->
<g id="edge45" class="edge"><title>Node34&#45;&gt;Node27</title>
<path fill="none" stroke="midnightblue" d="M485.802,-199.646C503.133,-210.953 532.692,-230.274 558,-247 593.087,-270.189 633.655,-297.291 658.31,-313.795"/>
<polygon fill="midnightblue" stroke="midnightblue" points="656.377,-316.712 666.633,-319.368 660.272,-310.896 656.377,-316.712"/>
</g>
<!-- Node34&#45;&gt;Node30 -->
<g id="edge47" class="edge"><title>Node34&#45;&gt;Node30</title>
<path fill="none" stroke="midnightblue" d="M555.507,-181.147C572.779,-179.337 590.821,-177.447 607.664,-175.683"/>
<polygon fill="midnightblue" stroke="midnightblue" points="608.397,-179.125 617.978,-174.602 607.668,-172.163 608.397,-179.125"/>
</g>
<!-- Node34&#45;&gt;Node32 -->
<g id="edge44" class="edge"><title>Node34&#45;&gt;Node32</title>
<path fill="none" stroke="midnightblue" d="M511.304,-199.572C526.161,-203.503 543.016,-208.442 558,-214 574.59,-220.153 577.25,-225.298 594,-231 601.7,-233.621 609.909,-235.967 618.093,-238.041"/>
<polygon fill="midnightblue" stroke="midnightblue" points="617.486,-241.494 628.028,-240.435 619.126,-234.689 617.486,-241.494"/>
</g>
<!-- Node35 -->
<g id="node35" class="node"><title>Node35</title>
<g id="a_node35"><a xlink:href="namespacetlz.html#aa1be9362f548fcf9378e1fc9074089c4" target="_top" xlink:title="tlz::import_json_file">
<polygon fill="white" stroke="black" points="631.5,-202.5 631.5,-221.5 732.5,-221.5 732.5,-202.5 631.5,-202.5"/>
<text text-anchor="middle" x="682" y="-209.5" font-family="Helvetica,sans-Serif" font-size="10.00">tlz::import_json_file</text>
</a>
</g>
</g>
<!-- Node34&#45;&gt;Node35 -->
<g id="edge46" class="edge"><title>Node34&#45;&gt;Node35</title>
<path fill="none" stroke="midnightblue" d="M555.507,-198.853C577.542,-201.162 600.83,-203.601 621.282,-205.744"/>
<polygon fill="midnightblue" stroke="midnightblue" points="621.075,-209.241 631.386,-206.802 621.805,-202.279 621.075,-209.241"/>
</g>
<!-- Node36&#45;&gt;Node34 -->
<g id="edge49" class="edge"><title>Node36&#45;&gt;Node34</title>
<path fill="none" stroke="midnightblue" d="M339.651,-190C350.936,-190 362.651,-190 374.217,-190"/>
<polygon fill="midnightblue" stroke="midnightblue" points="374.328,-193.5 384.328,-190 374.328,-186.5 374.328,-193.5"/>
</g>
<!-- Node37 -->
<g id="node37" class="node"><title>Node37</title>
<g id="a_node37"><a xlink:href="namespacetlz.html#a634de7ca11e100e4a118dffe80376a75" target="_top" xlink:title="tlz::in_filename_arg">
<polygon fill="white" stroke="black" points="419.5,-76.5 419.5,-95.5 520.5,-95.5 520.5,-76.5 419.5,-76.5"/>
<text text-anchor="middle" x="470" y="-83.5" font-family="Helvetica,sans-Serif" font-size="10.00">tlz::in_filename_arg</text>
</a>
</g>
</g>
<!-- Node36&#45;&gt;Node37 -->
<g id="edge50" class="edge"><title>Node36&#45;&gt;Node37</title>
<path fill="none" stroke="midnightblue" d="M280.649,-180.402C317.399,-161.983 397.969,-121.601 440.85,-100.109"/>
<polygon fill="midnightblue" stroke="midnightblue" points="442.525,-103.184 449.897,-95.5745 439.389,-96.9263 442.525,-103.184"/>
</g>
<!-- Node38 -->
<g id="node38" class="node"><title>Node38</title>
<g id="a_node38"><a xlink:href="namespacetlz.html#a0621d598fb83b13bf028f3e6293d04f8" target="_top" xlink:title="tlz::string_arg">
<polygon fill="white" stroke="black" points="644,-114.5 644,-133.5 720,-133.5 720,-114.5 644,-114.5"/>
<text text-anchor="middle" x="682" y="-121.5" font-family="Helvetica,sans-Serif" font-size="10.00">tlz::string_arg</text>
</a>
</g>
</g>
<!-- Node37&#45;&gt;Node38 -->
<g id="edge51" class="edge"><title>Node37&#45;&gt;Node38</title>
<path fill="none" stroke="midnightblue" d="M520.501,-94.9574C554.787,-101.162 600.153,-109.371 633.904,-115.478"/>
<polygon fill="midnightblue" stroke="midnightblue" points="633.518,-118.965 643.981,-117.301 634.764,-112.077 633.518,-118.965"/>
</g>
<!-- Node39 -->
<g id="node39" class="node"><title>Node39</title>
<g id="a_node39"><a xlink:href="namespacetlz.html#a780431daab8d2595372eacb43143b52d" target="_top" xlink:title="tlz::args">
<polygon fill="white" stroke="black" points="865,-76.5 865,-95.5 917,-95.5 917,-76.5 865,-76.5"/>
<text text-anchor="middle" x="891" y="-83.5" font-family="Helvetica,sans-Serif" font-size="10.00">tlz::args</text>
</a>
</g>
</g>
<!-- Node37&#45;&gt;Node39 -->
<g id="edge57" class="edge"><title>Node37&#45;&gt;Node39</title>
<path fill="none" stroke="midnightblue" d="M520.71,-86C606.455,-86 780.121,-86 854.685,-86"/>
<polygon fill="midnightblue" stroke="midnightblue" points="854.945,-89.5001 864.945,-86 854.945,-82.5001 854.945,-89.5001"/>
</g>
<!-- Node41 -->
<g id="node41" class="node"><title>Node41</title>
<g id="a_node41"><a xlink:href="classtlz_1_1args__list.html#a38ad21acd64a4af98ffdf4a47837cdbe" target="_top" xlink:title="tlz::args_list::usage_fail">
<polygon fill="white" stroke="black" points="1012,-85.5 1012,-104.5 1132,-104.5 1132,-85.5 1012,-85.5"/>
<text text-anchor="middle" x="1072" y="-92.5" font-family="Helvetica,sans-Serif" font-size="10.00">tlz::args_list::usage_fail</text>
</a>
</g>
</g>
<!-- Node37&#45;&gt;Node41 -->
<g id="edge58" class="edge"><title>Node37&#45;&gt;Node41</title>
<path fill="none" stroke="midnightblue" d="M520.773,-78.2171C611.709,-65.3062 810.577,-43.1295 976,-67 996.201,-69.915 1018.09,-76.1468 1035.77,-81.9928"/>
<polygon fill="midnightblue" stroke="midnightblue" points="1035.04,-85.4446 1045.64,-85.3622 1037.3,-78.8198 1035.04,-85.4446"/>
</g>
<!-- Node42 -->
<g id="node42" class="node"><title>Node42</title>
<g id="a_node42"><a xlink:href="namespacetlz.html#abb019466ea9f56c0dab27e893d891837" target="_top" xlink:title="tlz::file_exists">
<polygon fill="white" stroke="black" points="643.5,-0.5 643.5,-19.5 720.5,-19.5 720.5,-0.5 643.5,-0.5"/>
<text text-anchor="middle" x="682" y="-7.5" font-family="Helvetica,sans-Serif" font-size="10.00">tlz::file_exists</text>
</a>
</g>
</g>
<!-- Node37&#45;&gt;Node42 -->
<g id="edge56" class="edge"><title>Node37&#45;&gt;Node42</title>
<path fill="none" stroke="midnightblue" d="M491.569,-76.3246C515.736,-65.1873 557.21,-46.7895 594,-34 606.737,-29.5721 620.743,-25.409 633.724,-21.833"/>
<polygon fill="midnightblue" stroke="midnightblue" points="634.671,-25.2027 643.414,-19.2182 632.848,-18.4444 634.671,-25.2027"/>
</g>
<!-- Node38&#45;&gt;Node39 -->
<g id="edge52" class="edge"><title>Node38&#45;&gt;Node39</title>
<path fill="none" stroke="midnightblue" d="M720.007,-117.206C758.168,-110.201 817.241,-99.3567 854.746,-92.4718"/>
<polygon fill="midnightblue" stroke="midnightblue" points="855.513,-95.8896 864.716,-90.6414 854.249,-89.0046 855.513,-95.8896"/>
</g>
<!-- Node40 -->
<g id="node40" class="node"><title>Node40</title>
<g id="a_node40"><a xlink:href="classtlz_1_1args__list.html#a73d99bc75998dc14607a3a372d28dc6d" target="_top" xlink:title="tlz::args_list::next_arg">
<polygon fill="white" stroke="black" points="834.5,-114.5 834.5,-133.5 947.5,-133.5 947.5,-114.5 834.5,-114.5"/>
<text text-anchor="middle" x="891" y="-121.5" font-family="Helvetica,sans-Serif" font-size="10.00">tlz::args_list::next_arg</text>
</a>
</g>
</g>
<!-- Node38&#45;&gt;Node40 -->
<g id="edge53" class="edge"><title>Node38&#45;&gt;Node40</title>
<path fill="none" stroke="midnightblue" d="M720.007,-124C748.778,-124 789.437,-124 823.777,-124"/>
<polygon fill="midnightblue" stroke="midnightblue" points="824.211,-127.5 834.211,-124 824.211,-120.5 824.211,-127.5"/>
</g>
<!-- Node40&#45;&gt;Node24 -->
<g id="edge55" class="edge"><title>Node40&#45;&gt;Node24</title>
<path fill="none" stroke="midnightblue" d="M947.656,-132.706C972.955,-136.663 1002.49,-141.283 1026.31,-145.009"/>
<polygon fill="midnightblue" stroke="midnightblue" points="1026.06,-148.512 1036.48,-146.6 1027.14,-141.597 1026.06,-148.512"/>
</g>
<!-- Node40&#45;&gt;Node41 -->
<g id="edge54" class="edge"><title>Node40&#45;&gt;Node41</title>
<path fill="none" stroke="midnightblue" d="M947.656,-114.983C964.974,-112.177 984.275,-109.05 1002.37,-106.119"/>
<polygon fill="midnightblue" stroke="midnightblue" points="1002.97,-109.568 1012.28,-104.513 1001.85,-102.658 1002.97,-109.568"/>
</g>
</g>
</svg>
