<?xml version="1.0" encoding="UTF-8" standalone="no"?>
<!DOCTYPE svg PUBLIC "-//W3C//DTD SVG 1.1//EN"
 "http://www.w3.org/Graphics/SVG/1.1/DTD/svg11.dtd">
<!-- Generated by graphviz version 2.38.0 (20140413.2041)
 -->
<!-- Title: tlz::obj_img_correspondences_set_dim::obj_img_correspondences_set_dim Pages: 1 -->
<svg width="356pt" height="50pt"
 viewBox="0.00 0.00 356.00 50.00" xmlns="http://www.w3.org/2000/svg" xmlns:xlink="http://www.w3.org/1999/xlink">
<g id="graph0" class="graph" transform="scale(1 1) rotate(0) translate(4 46)">
<title>tlz::obj_img_correspondences_set_dim::obj_img_correspondences_set_dim</title>
<polygon fill="white" stroke="none" points="-4,4 -4,-46 352,-46 352,4 -4,4"/>
<!-- Node1 -->
<g id="node1" class="node"><title>Node1</title>
<polygon fill="#bfbfbf" stroke="black" points="0,-0.5 0,-41.5 176,-41.5 176,-0.5 0,-0.5"/>
<text text-anchor="start" x="8" y="-29.5" font-family="Helvetica,sans-Serif" font-size="10.00">tlz::obj_img_correspondences</text>
<text text-anchor="start" x="8" y="-18.5" font-family="Helvetica,sans-Serif" font-size="10.00">_set_dim::obj_img_correspondences</text>
<text text-anchor="middle" x="88" y="-7.5" font-family="Helvetica,sans-Serif" font-size="10.00">_set_dim</text>
</g>
<!-- Node2 -->
<g id="node2" class="node"><title>Node2</title>
<g id="a_node2"><a xlink:href="namespacetlz.html#acac95b93493a5cbc6fb4717d68231a20" target="_top" xlink:title="tlz::decode_obj_img\l_correspondences_set_dim">
<polygon fill="white" stroke="black" points="212,-6 212,-36 348,-36 348,-6 212,-6"/>
<text text-anchor="start" x="220" y="-24" font-family="Helvetica,sans-Serif" font-size="10.00">tlz::decode_obj_img</text>
<text text-anchor="middle" x="280" y="-13" font-family="Helvetica,sans-Serif" font-size="10.00">_correspondences_set_dim</text>
</a>
</g>
</g>
<!-- Node1&#45;&gt;Node2 -->
<g id="edge1" class="edge"><title>Node1&#45;&gt;Node2</title>
<path fill="none" stroke="midnightblue" d="M176.215,-21C184.745,-21 193.36,-21 201.782,-21"/>
<polygon fill="midnightblue" stroke="midnightblue" points="201.94,-24.5001 211.94,-21 201.94,-17.5001 201.94,-24.5001"/>
</g>
</g>
</svg>
