<?xml version="1.0" encoding="UTF-8" standalone="no"?>
<!DOCTYPE svg PUBLIC "-//W3C//DTD SVG 1.1//EN"
 "http://www.w3.org/Graphics/SVG/1.1/DTD/svg11.dtd">
<!-- Generated by graphviz version 2.38.0 (20140413.2041)
 -->
<!-- Title: tlz::feature_points::count Pages: 1 -->
<svg width="1033pt" height="478pt"
 viewBox="0.00 0.00 1033.00 478.00" xmlns="http://www.w3.org/2000/svg" xmlns:xlink="http://www.w3.org/1999/xlink">
<g id="graph0" class="graph" transform="scale(1 1) rotate(0) translate(4 474)">
<title>tlz::feature_points::count</title>
<polygon fill="white" stroke="none" points="-4,4 -4,-474 1029,-474 1029,4 -4,4"/>
<!-- Node1 -->
<g id="node1" class="node"><title>Node1</title>
<polygon fill="#bfbfbf" stroke="black" points="0,-226 0,-256 95,-256 95,-226 0,-226"/>
<text text-anchor="start" x="8" y="-244" font-family="Helvetica,sans-Serif" font-size="10.00">tlz::feature_points</text>
<text text-anchor="middle" x="47.5" y="-233" font-family="Helvetica,sans-Serif" font-size="10.00">::count</text>
</g>
<!-- Node2 -->
<g id="node2" class="node"><title>Node2</title>
<g id="a_node2"><a xlink:href="structtlz_1_1feature__points.html#a6e84713a19d756fd342b47b2685ef84a" target="_top" xlink:title="tlz::feature_points\l::normalize_weights">
<polygon fill="white" stroke="black" points="137,-407 137,-437 241,-437 241,-407 137,-407"/>
<text text-anchor="start" x="145" y="-425" font-family="Helvetica,sans-Serif" font-size="10.00">tlz::feature_points</text>
<text text-anchor="middle" x="189" y="-414" font-family="Helvetica,sans-Serif" font-size="10.00">::normalize_weights</text>
</a>
</g>
</g>
<!-- Node1&#45;&gt;Node2 -->
<g id="edge1" class="edge"><title>Node1&#45;&gt;Node2</title>
<path fill="none" stroke="midnightblue" d="M52.8663,-256.423C62.2775,-287.104 87.2393,-356.328 131,-397 132.672,-398.554 134.456,-400.022 136.323,-401.407"/>
<polygon fill="midnightblue" stroke="midnightblue" points="134.639,-404.486 144.941,-406.963 138.432,-398.603 134.639,-404.486"/>
</g>
<!-- Node3 -->
<g id="node3" class="node"><title>Node3</title>
<g id="a_node3"><a xlink:href="namespacetlz.html#abc92401653ee5627160c4f3c48a11311" target="_top" xlink:title="tlz::decode_feature\l_points">
<polygon fill="white" stroke="black" points="292.5,-188 292.5,-218 392.5,-218 392.5,-188 292.5,-188"/>
<text text-anchor="start" x="300.5" y="-206" font-family="Helvetica,sans-Serif" font-size="10.00">tlz::decode_feature</text>
<text text-anchor="middle" x="342.5" y="-195" font-family="Helvetica,sans-Serif" font-size="10.00">_points</text>
</a>
</g>
</g>
<!-- Node1&#45;&gt;Node3 -->
<g id="edge2" class="edge"><title>Node1&#45;&gt;Node3</title>
<path fill="none" stroke="midnightblue" d="M95.2507,-234.937C146.052,-228.348 227.328,-217.807 282.49,-210.653"/>
<polygon fill="midnightblue" stroke="midnightblue" points="283.006,-214.116 292.473,-209.359 282.105,-207.174 283.006,-214.116"/>
</g>
<!-- Node8 -->
<g id="node8" class="node"><title>Node8</title>
<g id="a_node8"><a xlink:href="namespacetlz.html#a0b42822a3802ba98cfb8d42223b3149d" target="_top" xlink:title="tlz::encode_feature\l_points">
<polygon fill="white" stroke="black" points="139,-358 139,-388 239,-388 239,-358 139,-358"/>
<text text-anchor="start" x="147" y="-376" font-family="Helvetica,sans-Serif" font-size="10.00">tlz::encode_feature</text>
<text text-anchor="middle" x="189" y="-365" font-family="Helvetica,sans-Serif" font-size="10.00">_points</text>
</a>
</g>
</g>
<!-- Node1&#45;&gt;Node8 -->
<g id="edge9" class="edge"><title>Node1&#45;&gt;Node8</title>
<path fill="none" stroke="midnightblue" d="M57.8506,-256.11C71.713,-277.566 99.495,-317.125 131,-343 135.267,-346.504 140.008,-349.773 144.882,-352.766"/>
<polygon fill="midnightblue" stroke="midnightblue" points="143.311,-355.9 153.725,-357.849 146.799,-349.831 143.311,-355.9"/>
</g>
<!-- Node13 -->
<g id="node13" class="node"><title>Node13</title>
<g id="a_node13"><a xlink:href="namespacetlz.html#ae9eeca909bec8ca797356b56d3cfbb90" target="_top" xlink:title="tlz::undistort">
<polygon fill="white" stroke="black" points="307,-319.5 307,-338.5 378,-338.5 378,-319.5 307,-319.5"/>
<text text-anchor="middle" x="342.5" y="-326.5" font-family="Helvetica,sans-Serif" font-size="10.00">tlz::undistort</text>
</a>
</g>
</g>
<!-- Node1&#45;&gt;Node13 -->
<g id="edge14" class="edge"><title>Node1&#45;&gt;Node13</title>
<path fill="none" stroke="midnightblue" d="M61.6337,-256.233C76.6066,-272.432 102.698,-297.299 131,-309 184.863,-331.269 252.883,-333.608 296.781,-332.173"/>
<polygon fill="midnightblue" stroke="midnightblue" points="297.004,-335.667 306.854,-331.764 296.72,-328.673 297.004,-335.667"/>
</g>
<!-- Node17 -->
<g id="node17" class="node"><title>Node17</title>
<g id="a_node17"><a xlink:href="namespacetlz.html#abab56a7d5e8f6eba9520c66a15fafa6d" target="_top" xlink:title="tlz::feature_points\l_for_view">
<polygon fill="white" stroke="black" points="295,-254 295,-284 390,-284 390,-254 295,-254"/>
<text text-anchor="start" x="303" y="-272" font-family="Helvetica,sans-Serif" font-size="10.00">tlz::feature_points</text>
<text text-anchor="middle" x="342.5" y="-261" font-family="Helvetica,sans-Serif" font-size="10.00">_for_view</text>
</a>
</g>
</g>
<!-- Node1&#45;&gt;Node17 -->
<g id="edge18" class="edge"><title>Node1&#45;&gt;Node17</title>
<path fill="none" stroke="midnightblue" d="M95.2507,-245.468C146.812,-250.395 229.769,-258.323 284.949,-263.596"/>
<polygon fill="midnightblue" stroke="midnightblue" points="284.628,-267.081 294.916,-264.548 285.294,-260.113 284.628,-267.081"/>
</g>
<!-- Node18 -->
<g id="node18" class="node"><title>Node18</title>
<g id="a_node18"><a xlink:href="namespacetlz.html#aff19d91ea9462be84d8e7db9015686bf" target="_top" xlink:title="tlz::undistorted_feature\l_points_for_view">
<polygon fill="white" stroke="black" points="131,-270 131,-300 247,-300 247,-270 131,-270"/>
<text text-anchor="start" x="139" y="-288" font-family="Helvetica,sans-Serif" font-size="10.00">tlz::undistorted_feature</text>
<text text-anchor="middle" x="189" y="-277" font-family="Helvetica,sans-Serif" font-size="10.00">_points_for_view</text>
</a>
</g>
</g>
<!-- Node1&#45;&gt;Node18 -->
<g id="edge19" class="edge"><title>Node1&#45;&gt;Node18</title>
<path fill="none" stroke="midnightblue" d="M95.3396,-255.774C106.594,-259.324 118.744,-263.156 130.424,-266.84"/>
<polygon fill="midnightblue" stroke="midnightblue" points="129.504,-270.22 140.094,-269.89 131.61,-263.544 129.504,-270.22"/>
</g>
<!-- Node19 -->
<g id="node19" class="node"><title>Node19</title>
<g id="a_node19"><a xlink:href="namespacetlz.html#a2d22b0db00d90ecf5eb79fd0a5b7bcf9" target="_top" xlink:title="tlz::positions">
<polygon fill="white" stroke="black" points="153,-155.5 153,-174.5 225,-174.5 225,-155.5 153,-155.5"/>
<text text-anchor="middle" x="189" y="-162.5" font-family="Helvetica,sans-Serif" font-size="10.00">tlz::positions</text>
</a>
</g>
</g>
<!-- Node1&#45;&gt;Node19 -->
<g id="edge22" class="edge"><title>Node1&#45;&gt;Node19</title>
<path fill="none" stroke="midnightblue" d="M70.3262,-225.859C86.6288,-214.896 109.68,-200.112 131,-189 138.164,-185.266 146.04,-181.654 153.591,-178.415"/>
<polygon fill="midnightblue" stroke="midnightblue" points="155.022,-181.61 162.903,-174.53 152.327,-175.15 155.022,-181.61"/>
</g>
<!-- Node20 -->
<g id="node20" class="node"><title>Node20</title>
<g id="a_node20"><a xlink:href="namespacetlz.html#a4f0806fc3ebaf4a594e02c8a01792197" target="_top" xlink:title="tlz::visualize_feature\l_points">
<polygon fill="white" stroke="black" points="135.5,-52 135.5,-82 242.5,-82 242.5,-52 135.5,-52"/>
<text text-anchor="start" x="143.5" y="-70" font-family="Helvetica,sans-Serif" font-size="10.00">tlz::visualize_feature</text>
<text text-anchor="middle" x="189" y="-59" font-family="Helvetica,sans-Serif" font-size="10.00">_points</text>
</a>
</g>
</g>
<!-- Node1&#45;&gt;Node20 -->
<g id="edge23" class="edge"><title>Node1&#45;&gt;Node20</title>
<path fill="none" stroke="midnightblue" d="M55.4903,-225.736C67.9847,-199.562 96.1341,-145.334 131,-108 137.854,-100.66 146.2,-93.7988 154.367,-87.8675"/>
<polygon fill="midnightblue" stroke="midnightblue" points="156.532,-90.6251 162.744,-82.0423 152.536,-84.8781 156.532,-90.6251"/>
</g>
<!-- Node24 -->
<g id="node24" class="node"><title>Node24</title>
<g id="a_node24"><a xlink:href="namespacetlz.html#accab66b2847b4c4ea3170487b64903c1" target="_top" xlink:title="tlz::feature_points_arg">
<polygon fill="white" stroke="black" points="132.5,-117.5 132.5,-136.5 245.5,-136.5 245.5,-117.5 132.5,-117.5"/>
<text text-anchor="middle" x="189" y="-124.5" font-family="Helvetica,sans-Serif" font-size="10.00">tlz::feature_points_arg</text>
</a>
</g>
</g>
<!-- Node1&#45;&gt;Node24 -->
<g id="edge27" class="edge"><title>Node1&#45;&gt;Node24</title>
<path fill="none" stroke="midnightblue" d="M57.8036,-225.93C71.4095,-205.086 98.6634,-167.592 131,-146 133.952,-144.029 137.127,-142.246 140.412,-140.636"/>
<polygon fill="midnightblue" stroke="midnightblue" points="142.084,-143.726 149.874,-136.545 139.306,-137.301 142.084,-143.726"/>
</g>
<!-- Node4 -->
<g id="node4" class="node"><title>Node4</title>
<g id="a_node4"><a xlink:href="namespacetlz.html#a252af14b9b4ac6502d3e9c5dd8dc90b8" target="_top" xlink:title="tlz::has">
<polygon fill="white" stroke="black" points="788,-256.5 788,-275.5 837,-275.5 837,-256.5 788,-256.5"/>
<text text-anchor="middle" x="812.5" y="-263.5" font-family="Helvetica,sans-Serif" font-size="10.00">tlz::has</text>
</a>
</g>
</g>
<!-- Node3&#45;&gt;Node4 -->
<g id="edge3" class="edge"><title>Node3&#45;&gt;Node4</title>
<path fill="none" stroke="midnightblue" d="M368.612,-218.187C387.125,-228.633 413.282,-241.862 438,-249 558.806,-283.886 710.649,-275.709 777.384,-269.666"/>
<polygon fill="midnightblue" stroke="midnightblue" points="778.094,-273.114 787.719,-268.684 777.432,-266.146 778.094,-273.114"/>
</g>
<!-- Node5 -->
<g id="node5" class="node"><title>Node5</title>
<g id="a_node5"><a xlink:href="namespacetlz.html#a74e8454f97dace7cffb1afdb6d3ca87b" target="_top" xlink:title="tlz::decode_view_index">
<polygon fill="white" stroke="black" points="438,-149.5 438,-168.5 557,-168.5 557,-149.5 438,-149.5"/>
<text text-anchor="middle" x="497.5" y="-156.5" font-family="Helvetica,sans-Serif" font-size="10.00">tlz::decode_view_index</text>
</a>
</g>
</g>
<!-- Node3&#45;&gt;Node5 -->
<g id="edge4" class="edge"><title>Node3&#45;&gt;Node5</title>
<path fill="none" stroke="midnightblue" d="M392.752,-188.836C412.301,-183.214 434.581,-176.807 453.469,-171.375"/>
<polygon fill="midnightblue" stroke="midnightblue" points="454.646,-174.678 463.289,-168.551 452.712,-167.951 454.646,-174.678"/>
</g>
<!-- Node6 -->
<g id="node6" class="node"><title>Node6</title>
<g id="a_node6"><a xlink:href="namespacetlz.html#add846dc50c32dfb356cb1a7ac11d37ac" target="_top" xlink:title="tlz::get_or">
<polygon fill="white" stroke="black" points="626.5,-237.5 626.5,-256.5 686.5,-256.5 686.5,-237.5 626.5,-237.5"/>
<text text-anchor="middle" x="656.5" y="-244.5" font-family="Helvetica,sans-Serif" font-size="10.00">tlz::get_or</text>
</a>
</g>
</g>
<!-- Node3&#45;&gt;Node6 -->
<g id="edge5" class="edge"><title>Node3&#45;&gt;Node6</title>
<path fill="none" stroke="midnightblue" d="M392.721,-217.057C407.207,-220.77 423.153,-224.448 438,-227 499.8,-237.621 572.514,-242.866 616.255,-245.248"/>
<polygon fill="midnightblue" stroke="midnightblue" points="616.293,-248.755 626.462,-245.781 616.658,-241.765 616.293,-248.755"/>
</g>
<!-- Node7 -->
<g id="node7" class="node"><title>Node7</title>
<g id="a_node7"><a xlink:href="namespacetlz.html#ae8f9175a86bbe49ac0f4485d5db3080b" target="_top" xlink:title="tlz::decode_feature\l_point">
<polygon fill="white" stroke="black" points="447.5,-188 447.5,-218 547.5,-218 547.5,-188 447.5,-188"/>
<text text-anchor="start" x="455.5" y="-206" font-family="Helvetica,sans-Serif" font-size="10.00">tlz::decode_feature</text>
<text text-anchor="middle" x="497.5" y="-195" font-family="Helvetica,sans-Serif" font-size="10.00">_point</text>
</a>
</g>
</g>
<!-- Node3&#45;&gt;Node7 -->
<g id="edge7" class="edge"><title>Node3&#45;&gt;Node7</title>
<path fill="none" stroke="midnightblue" d="M392.752,-203C406.948,-203 422.583,-203 437.315,-203"/>
<polygon fill="midnightblue" stroke="midnightblue" points="437.34,-206.5 447.34,-203 437.34,-199.5 437.34,-206.5"/>
</g>
<!-- Node6&#45;&gt;Node4 -->
<g id="edge6" class="edge"><title>Node6&#45;&gt;Node4</title>
<path fill="none" stroke="midnightblue" d="M686.829,-250.618C712.715,-253.812 750.452,-258.468 777.62,-261.82"/>
<polygon fill="midnightblue" stroke="midnightblue" points="777.474,-265.328 787.828,-263.079 778.331,-258.381 777.474,-265.328"/>
</g>
<!-- Node7&#45;&gt;Node6 -->
<g id="edge8" class="edge"><title>Node7&#45;&gt;Node6</title>
<path fill="none" stroke="midnightblue" d="M547.745,-216.801C569.848,-222.995 595.561,-230.202 616.325,-236.021"/>
<polygon fill="midnightblue" stroke="midnightblue" points="615.51,-239.427 626.083,-238.756 617.399,-232.687 615.51,-239.427"/>
</g>
<!-- Node9 -->
<g id="node9" class="node"><title>Node9</title>
<g id="a_node9"><a xlink:href="namespacetlz.html#a8f6c31dc4b1dffe7950bcb1f4ff85cbc" target="_top" xlink:title="tlz::encode_feature\l_point">
<polygon fill="white" stroke="black" points="292.5,-358 292.5,-388 392.5,-388 392.5,-358 292.5,-358"/>
<text text-anchor="start" x="300.5" y="-376" font-family="Helvetica,sans-Serif" font-size="10.00">tlz::encode_feature</text>
<text text-anchor="middle" x="342.5" y="-365" font-family="Helvetica,sans-Serif" font-size="10.00">_point</text>
</a>
</g>
</g>
<!-- Node8&#45;&gt;Node9 -->
<g id="edge10" class="edge"><title>Node8&#45;&gt;Node9</title>
<path fill="none" stroke="midnightblue" d="M239.188,-373C252.884,-373 267.907,-373 282.122,-373"/>
<polygon fill="midnightblue" stroke="midnightblue" points="282.3,-376.5 292.3,-373 282.3,-369.5 282.3,-376.5"/>
</g>
<!-- Node10 -->
<g id="node10" class="node"><title>Node10</title>
<g id="a_node10"><a xlink:href="namespacetlz.html#aadab29bdc80bc1d0ad6d3784dd427992" target="_top" xlink:title="tlz::encode_view_index">
<polygon fill="white" stroke="black" points="283,-412.5 283,-431.5 402,-431.5 402,-412.5 283,-412.5"/>
<text text-anchor="middle" x="342.5" y="-419.5" font-family="Helvetica,sans-Serif" font-size="10.00">tlz::encode_view_index</text>
</a>
</g>
</g>
<!-- Node8&#45;&gt;Node10 -->
<g id="edge11" class="edge"><title>Node8&#45;&gt;Node10</title>
<path fill="none" stroke="midnightblue" d="M236.691,-388.101C257.665,-394.885 282.143,-402.802 302.166,-409.278"/>
<polygon fill="midnightblue" stroke="midnightblue" points="301.303,-412.677 311.894,-412.425 303.457,-406.017 301.303,-412.677"/>
</g>
<!-- Node11 -->
<g id="node11" class="node"><title>Node11</title>
<g id="a_node11"><a xlink:href="namespacetlz.html#a8e4f8c8c2927bc4350de13bfa0f8f9e1" target="_top" xlink:title="tlz::to_string">
<polygon fill="white" stroke="black" points="929.5,-130.5 929.5,-149.5 1000.5,-149.5 1000.5,-130.5 929.5,-130.5"/>
<text text-anchor="middle" x="965" y="-137.5" font-family="Helvetica,sans-Serif" font-size="10.00">tlz::to_string</text>
</a>
</g>
</g>
<!-- Node10&#45;&gt;Node11 -->
<g id="edge12" class="edge"><title>Node10&#45;&gt;Node11</title>
<path fill="none" stroke="midnightblue" d="M402.151,-429.52C478.153,-436.915 613.534,-441.998 720,-402 841.645,-356.3 927.335,-210.509 954.668,-158.584"/>
<polygon fill="midnightblue" stroke="midnightblue" points="957.876,-160 959.35,-149.508 951.655,-156.791 957.876,-160"/>
</g>
<!-- Node12 -->
<g id="node12" class="node"><title>Node12</title>
<g id="a_node12"><a xlink:href="structtlz_1_1view__index.html#a20518c30015d833cdb2a69b524886b96" target="_top" xlink:title="tlz::view_index::is_2d">
<polygon fill="white" stroke="black" points="442,-450.5 442,-469.5 553,-469.5 553,-450.5 442,-450.5"/>
<text text-anchor="middle" x="497.5" y="-457.5" font-family="Helvetica,sans-Serif" font-size="10.00">tlz::view_index::is_2d</text>
</a>
</g>
</g>
<!-- Node10&#45;&gt;Node12 -->
<g id="edge13" class="edge"><title>Node10&#45;&gt;Node12</title>
<path fill="none" stroke="midnightblue" d="M382.108,-431.589C402.207,-436.581 426.975,-442.732 448.319,-448.033"/>
<polygon fill="midnightblue" stroke="midnightblue" points="447.62,-451.466 458.169,-450.48 449.308,-444.673 447.62,-451.466"/>
</g>
<!-- Node14 -->
<g id="node14" class="node"><title>Node14</title>
<g id="a_node14"><a xlink:href="namespacetlz.html#a8b5e4acbb884887859e414ffe06a09f8" target="_top" xlink:title="tlz::undistort_points">
<polygon fill="white" stroke="black" points="446.5,-319.5 446.5,-338.5 548.5,-338.5 548.5,-319.5 446.5,-319.5"/>
<text text-anchor="middle" x="497.5" y="-326.5" font-family="Helvetica,sans-Serif" font-size="10.00">tlz::undistort_points</text>
</a>
</g>
</g>
<!-- Node13&#45;&gt;Node14 -->
<g id="edge15" class="edge"><title>Node13&#45;&gt;Node14</title>
<path fill="none" stroke="midnightblue" d="M378.218,-329C395.336,-329 416.481,-329 436.136,-329"/>
<polygon fill="midnightblue" stroke="midnightblue" points="436.25,-332.5 446.25,-329 436.25,-325.5 436.25,-332.5"/>
</g>
<!-- Node15 -->
<g id="node15" class="node"><title>Node15</title>
<g id="a_node15"><a xlink:href="structtlz_1_1distortion__parameters.html#a307fee036b04519d633fb8456899850c" target="_top" xlink:title="tlz::distortion_parameters\l::is_none">
<polygon fill="white" stroke="black" points="593,-314 593,-344 720,-344 720,-314 593,-314"/>
<text text-anchor="start" x="601" y="-332" font-family="Helvetica,sans-Serif" font-size="10.00">tlz::distortion_parameters</text>
<text text-anchor="middle" x="656.5" y="-321" font-family="Helvetica,sans-Serif" font-size="10.00">::is_none</text>
</a>
</g>
</g>
<!-- Node14&#45;&gt;Node15 -->
<g id="edge16" class="edge"><title>Node14&#45;&gt;Node15</title>
<path fill="none" stroke="midnightblue" d="M548.607,-329C559.505,-329 571.245,-329 582.817,-329"/>
<polygon fill="midnightblue" stroke="midnightblue" points="582.916,-332.5 592.916,-329 582.916,-325.5 582.916,-332.5"/>
</g>
<!-- Node16 -->
<g id="node16" class="node"><title>Node16</title>
<g id="a_node16"><a xlink:href="structtlz_1_1distortion__parameters.html#a96312c5d7baa4b7b1f2a76e9396037f8" target="_top" xlink:title="tlz::distortion_parameters\l::cv_coeffs">
<polygon fill="white" stroke="black" points="593,-363 593,-393 720,-393 720,-363 593,-363"/>
<text text-anchor="start" x="601" y="-381" font-family="Helvetica,sans-Serif" font-size="10.00">tlz::distortion_parameters</text>
<text text-anchor="middle" x="656.5" y="-370" font-family="Helvetica,sans-Serif" font-size="10.00">::cv_coeffs</text>
</a>
</g>
</g>
<!-- Node14&#45;&gt;Node16 -->
<g id="edge17" class="edge"><title>Node14&#45;&gt;Node16</title>
<path fill="none" stroke="midnightblue" d="M529.144,-338.564C548.587,-344.632 574.363,-352.677 597.562,-359.917"/>
<polygon fill="midnightblue" stroke="midnightblue" points="596.732,-363.325 607.32,-362.963 598.817,-356.643 596.732,-363.325"/>
</g>
<!-- Node18&#45;&gt;Node13 -->
<g id="edge21" class="edge"><title>Node18&#45;&gt;Node13</title>
<path fill="none" stroke="midnightblue" d="M241.714,-300.019C260.201,-305.388 280.819,-311.377 298.493,-316.51"/>
<polygon fill="midnightblue" stroke="midnightblue" points="297.941,-319.994 308.52,-319.422 299.893,-313.271 297.941,-319.994"/>
</g>
<!-- Node18&#45;&gt;Node17 -->
<g id="edge20" class="edge"><title>Node18&#45;&gt;Node17</title>
<path fill="none" stroke="midnightblue" d="M247.276,-278.951C259.583,-277.651 272.583,-276.278 284.865,-274.981"/>
<polygon fill="midnightblue" stroke="midnightblue" points="285.406,-278.444 294.983,-273.913 284.671,-271.482 285.406,-278.444"/>
</g>
<!-- Node21 -->
<g id="node21" class="node"><title>Node21</title>
<g id="a_node21"><a xlink:href="namespacetlz.html#ac822758bd15e79a45a9529097026c9bc" target="_top" xlink:title="tlz::random_color">
<polygon fill="white" stroke="black" points="296.5,-76.5 296.5,-95.5 388.5,-95.5 388.5,-76.5 296.5,-76.5"/>
<text text-anchor="middle" x="342.5" y="-83.5" font-family="Helvetica,sans-Serif" font-size="10.00">tlz::random_color</text>
</a>
</g>
</g>
<!-- Node20&#45;&gt;Node21 -->
<g id="edge24" class="edge"><title>Node20&#45;&gt;Node21</title>
<path fill="none" stroke="midnightblue" d="M242.562,-73.592C256.591,-75.3514 271.795,-77.2581 285.978,-79.0368"/>
<polygon fill="midnightblue" stroke="midnightblue" points="285.735,-82.5337 296.093,-80.3054 286.606,-75.5881 285.735,-82.5337"/>
</g>
<!-- Node22 -->
<g id="node22" class="node"><title>Node22</title>
<g id="a_node22"><a xlink:href="namespacetlz.html#ae5932564ec9a5798fa5dbfdd1ed411a1" target="_top" xlink:title="tlz::string_hash">
<polygon fill="white" stroke="black" points="301,-38.5 301,-57.5 384,-57.5 384,-38.5 301,-38.5"/>
<text text-anchor="middle" x="342.5" y="-45.5" font-family="Helvetica,sans-Serif" font-size="10.00">tlz::string_hash</text>
</a>
</g>
</g>
<!-- Node20&#45;&gt;Node22 -->
<g id="edge25" class="edge"><title>Node20&#45;&gt;Node22</title>
<path fill="none" stroke="midnightblue" d="M242.562,-60.408C258.266,-58.4386 275.441,-56.2846 291.009,-54.3322"/>
<polygon fill="midnightblue" stroke="midnightblue" points="291.489,-57.7995 300.975,-53.0823 290.618,-50.854 291.489,-57.7995"/>
</g>
<!-- Node23 -->
<g id="node23" class="node"><title>Node23</title>
<g id="a_node23"><a xlink:href="namespacetlz.html#a6c23bd1f5f2f91d3c3af2c32bfe32065" target="_top" xlink:title="tlz::cv_aa_circle">
<polygon fill="white" stroke="black" points="298.5,-0.5 298.5,-19.5 386.5,-19.5 386.5,-0.5 298.5,-0.5"/>
<text text-anchor="middle" x="342.5" y="-7.5" font-family="Helvetica,sans-Serif" font-size="10.00">tlz::cv_aa_circle</text>
</a>
</g>
</g>
<!-- Node20&#45;&gt;Node23 -->
<g id="edge26" class="edge"><title>Node20&#45;&gt;Node23</title>
<path fill="none" stroke="midnightblue" d="M225.09,-51.9465C242.404,-44.7024 263.673,-36.076 283,-29 288.717,-26.9068 294.79,-24.8035 300.775,-22.7984"/>
<polygon fill="midnightblue" stroke="midnightblue" points="302.284,-25.9866 310.689,-19.536 300.096,-19.3374 302.284,-25.9866"/>
</g>
<!-- Node24&#45;&gt;Node3 -->
<g id="edge28" class="edge"><title>Node24&#45;&gt;Node3</title>
<path fill="none" stroke="midnightblue" d="M222.736,-136.535C230.804,-139.259 239.328,-142.46 247,-146 269.426,-156.346 293.228,-170.726 311.334,-182.453"/>
<polygon fill="midnightblue" stroke="midnightblue" points="309.454,-185.405 319.734,-187.968 313.296,-179.554 309.454,-185.405"/>
</g>
<!-- Node25 -->
<g id="node25" class="node"><title>Node25</title>
<g id="a_node25"><a xlink:href="namespacetlz.html#a35f9e03fa4fd9cec699f5fa27962400f" target="_top" xlink:title="tlz::json_arg">
<polygon fill="white" stroke="black" points="307.5,-114.5 307.5,-133.5 377.5,-133.5 377.5,-114.5 307.5,-114.5"/>
<text text-anchor="middle" x="342.5" y="-121.5" font-family="Helvetica,sans-Serif" font-size="10.00">tlz::json_arg</text>
</a>
</g>
</g>
<!-- Node24&#45;&gt;Node25 -->
<g id="edge29" class="edge"><title>Node24&#45;&gt;Node25</title>
<path fill="none" stroke="midnightblue" d="M245.553,-125.9C262.456,-125.565 280.806,-125.202 296.889,-124.883"/>
<polygon fill="midnightblue" stroke="midnightblue" points="297.164,-128.379 307.093,-124.681 297.025,-121.38 297.164,-128.379"/>
</g>
<!-- Node26 -->
<g id="node26" class="node"><title>Node26</title>
<g id="a_node26"><a xlink:href="namespacetlz.html#aa1be9362f548fcf9378e1fc9074089c4" target="_top" xlink:title="tlz::import_json_file">
<polygon fill="white" stroke="black" points="447,-73.5 447,-92.5 548,-92.5 548,-73.5 447,-73.5"/>
<text text-anchor="middle" x="497.5" y="-80.5" font-family="Helvetica,sans-Serif" font-size="10.00">tlz::import_json_file</text>
</a>
</g>
</g>
<!-- Node25&#45;&gt;Node26 -->
<g id="edge30" class="edge"><title>Node25&#45;&gt;Node26</title>
<path fill="none" stroke="midnightblue" d="M377.836,-114.799C399.499,-108.994 427.721,-101.431 451.208,-95.1372"/>
<polygon fill="midnightblue" stroke="midnightblue" points="452.197,-98.4956 460.95,-92.5264 450.385,-91.7342 452.197,-98.4956"/>
</g>
<!-- Node27 -->
<g id="node27" class="node"><title>Node27</title>
<g id="a_node27"><a xlink:href="namespacetlz.html#a634de7ca11e100e4a118dffe80376a75" target="_top" xlink:title="tlz::in_filename_arg">
<polygon fill="white" stroke="black" points="447,-111.5 447,-130.5 548,-130.5 548,-111.5 447,-111.5"/>
<text text-anchor="middle" x="497.5" y="-118.5" font-family="Helvetica,sans-Serif" font-size="10.00">tlz::in_filename_arg</text>
</a>
</g>
</g>
<!-- Node25&#45;&gt;Node27 -->
<g id="edge31" class="edge"><title>Node25&#45;&gt;Node27</title>
<path fill="none" stroke="midnightblue" d="M377.836,-123.327C395.167,-122.987 416.697,-122.565 436.641,-122.174"/>
<polygon fill="midnightblue" stroke="midnightblue" points="436.966,-125.668 446.895,-121.973 436.829,-118.669 436.966,-125.668"/>
</g>
<!-- Node28 -->
<g id="node28" class="node"><title>Node28</title>
<g id="a_node28"><a xlink:href="namespacetlz.html#a0621d598fb83b13bf028f3e6293d04f8" target="_top" xlink:title="tlz::string_arg">
<polygon fill="white" stroke="black" points="618.5,-111.5 618.5,-130.5 694.5,-130.5 694.5,-111.5 618.5,-111.5"/>
<text text-anchor="middle" x="656.5" y="-118.5" font-family="Helvetica,sans-Serif" font-size="10.00">tlz::string_arg</text>
</a>
</g>
</g>
<!-- Node27&#45;&gt;Node28 -->
<g id="edge32" class="edge"><title>Node27&#45;&gt;Node28</title>
<path fill="none" stroke="midnightblue" d="M548.176,-121C567.277,-121 589.023,-121 607.922,-121"/>
<polygon fill="midnightblue" stroke="midnightblue" points="608.094,-124.5 618.094,-121 608.094,-117.5 608.094,-124.5"/>
</g>
<!-- Node29 -->
<g id="node29" class="node"><title>Node29</title>
<g id="a_node29"><a xlink:href="namespacetlz.html#a780431daab8d2595372eacb43143b52d" target="_top" xlink:title="tlz::args">
<polygon fill="white" stroke="black" points="786.5,-149.5 786.5,-168.5 838.5,-168.5 838.5,-149.5 786.5,-149.5"/>
<text text-anchor="middle" x="812.5" y="-156.5" font-family="Helvetica,sans-Serif" font-size="10.00">tlz::args</text>
</a>
</g>
</g>
<!-- Node27&#45;&gt;Node29 -->
<g id="edge38" class="edge"><title>Node27&#45;&gt;Node29</title>
<path fill="none" stroke="midnightblue" d="M540.663,-130.525C556.946,-133.928 575.773,-137.527 593,-140 657.417,-149.247 733.209,-154.616 776.477,-157.163"/>
<polygon fill="midnightblue" stroke="midnightblue" points="776.308,-160.659 786.492,-157.736 776.709,-153.67 776.308,-160.659"/>
</g>
<!-- Node31 -->
<g id="node31" class="node"><title>Node31</title>
<g id="a_node31"><a xlink:href="classtlz_1_1args__list.html#a38ad21acd64a4af98ffdf4a47837cdbe" target="_top" xlink:title="tlz::args_list::usage_fail">
<polygon fill="white" stroke="black" points="905,-92.5 905,-111.5 1025,-111.5 1025,-92.5 905,-92.5"/>
<text text-anchor="middle" x="965" y="-99.5" font-family="Helvetica,sans-Serif" font-size="10.00">tlz::args_list::usage_fail</text>
</a>
</g>
</g>
<!-- Node27&#45;&gt;Node31 -->
<g id="edge39" class="edge"><title>Node27&#45;&gt;Node31</title>
<path fill="none" stroke="midnightblue" d="M536.86,-111.49C553.93,-107.725 574.349,-103.856 593,-102 697.676,-91.5813 819.789,-94.4561 894.488,-97.9032"/>
<polygon fill="midnightblue" stroke="midnightblue" points="894.551,-101.41 904.706,-98.3921 894.885,-94.4181 894.551,-101.41"/>
</g>
<!-- Node32 -->
<g id="node32" class="node"><title>Node32</title>
<g id="a_node32"><a xlink:href="namespacetlz.html#abb019466ea9f56c0dab27e893d891837" target="_top" xlink:title="tlz::file_exists">
<polygon fill="white" stroke="black" points="618,-187.5 618,-206.5 695,-206.5 695,-187.5 618,-187.5"/>
<text text-anchor="middle" x="656.5" y="-194.5" font-family="Helvetica,sans-Serif" font-size="10.00">tlz::file_exists</text>
</a>
</g>
</g>
<!-- Node27&#45;&gt;Node32 -->
<g id="edge37" class="edge"><title>Node27&#45;&gt;Node32</title>
<path fill="none" stroke="midnightblue" d="M536.044,-130.551C543.243,-133.107 550.543,-136.234 557,-140 575.749,-150.935 574.545,-161.576 593,-173 599.523,-177.038 606.836,-180.589 614.1,-183.636"/>
<polygon fill="midnightblue" stroke="midnightblue" points="613.306,-187.084 623.894,-187.476 615.862,-180.567 613.306,-187.084"/>
</g>
<!-- Node28&#45;&gt;Node29 -->
<g id="edge33" class="edge"><title>Node28&#45;&gt;Node29</title>
<path fill="none" stroke="midnightblue" d="M694.779,-130.199C719.548,-136.311 751.868,-144.286 776.217,-150.294"/>
<polygon fill="midnightblue" stroke="midnightblue" points="775.571,-153.739 786.119,-152.737 777.248,-146.943 775.571,-153.739"/>
</g>
<!-- Node30 -->
<g id="node30" class="node"><title>Node30</title>
<g id="a_node30"><a xlink:href="classtlz_1_1args__list.html#a73d99bc75998dc14607a3a372d28dc6d" target="_top" xlink:title="tlz::args_list::next_arg">
<polygon fill="white" stroke="black" points="756,-111.5 756,-130.5 869,-130.5 869,-111.5 756,-111.5"/>
<text text-anchor="middle" x="812.5" y="-118.5" font-family="Helvetica,sans-Serif" font-size="10.00">tlz::args_list::next_arg</text>
</a>
</g>
</g>
<!-- Node28&#45;&gt;Node30 -->
<g id="edge34" class="edge"><title>Node28&#45;&gt;Node30</title>
<path fill="none" stroke="midnightblue" d="M694.779,-121C710.108,-121 728.329,-121 745.763,-121"/>
<polygon fill="midnightblue" stroke="midnightblue" points="745.909,-124.5 755.909,-121 745.909,-117.5 745.909,-124.5"/>
</g>
<!-- Node30&#45;&gt;Node11 -->
<g id="edge36" class="edge"><title>Node30&#45;&gt;Node11</title>
<path fill="none" stroke="midnightblue" d="M869.113,-128.021C885.598,-130.102 903.435,-132.354 919.147,-134.338"/>
<polygon fill="midnightblue" stroke="midnightblue" points="918.77,-137.818 929.13,-135.598 919.647,-130.873 918.77,-137.818"/>
</g>
<!-- Node30&#45;&gt;Node31 -->
<g id="edge35" class="edge"><title>Node30&#45;&gt;Node31</title>
<path fill="none" stroke="midnightblue" d="M869.113,-113.979C877.479,-112.923 886.192,-111.823 894.8,-110.736"/>
<polygon fill="midnightblue" stroke="midnightblue" points="895.345,-114.195 904.828,-109.47 894.468,-107.25 895.345,-114.195"/>
</g>
</g>
</svg>
