<?xml version="1.0" encoding="UTF-8" standalone="no"?>
<!DOCTYPE svg PUBLIC "-//W3C//DTD SVG 1.1//EN"
 "http://www.w3.org/Graphics/SVG/1.1/DTD/svg11.dtd">
<!-- Generated by graphviz version 2.38.0 (20140413.2041)
 -->
<!-- Title: tlz::intrinsics::cy Pages: 1 -->
<svg width="968pt" height="431pt"
 viewBox="0.00 0.00 968.00 431.00" xmlns="http://www.w3.org/2000/svg" xmlns:xlink="http://www.w3.org/1999/xlink">
<g id="graph0" class="graph" transform="scale(1 1) rotate(0) translate(4 427)">
<title>tlz::intrinsics::cy</title>
<polygon fill="white" stroke="none" points="-4,4 -4,-427 964,-427 964,4 -4,4"/>
<!-- Node1 -->
<g id="node1" class="node"><title>Node1</title>
<polygon fill="#bfbfbf" stroke="black" points="0,-183.5 0,-202.5 89,-202.5 89,-183.5 0,-183.5"/>
<text text-anchor="middle" x="44.5" y="-190.5" font-family="Helvetica,sans-Serif" font-size="10.00">tlz::intrinsics::cy</text>
</g>
<!-- Node2 -->
<g id="node2" class="node"><title>Node2</title>
<g id="a_node2"><a xlink:href="namespacetlz.html#a8cba4853d0d796a01c72f59f36f2a492" target="_top" xlink:title="tlz::decode_intrinsics">
<polygon fill="white" stroke="black" points="270,-289.5 270,-308.5 379,-308.5 379,-289.5 270,-289.5"/>
<text text-anchor="middle" x="324.5" y="-296.5" font-family="Helvetica,sans-Serif" font-size="10.00">tlz::decode_intrinsics</text>
</a>
</g>
</g>
<!-- Node1&#45;&gt;Node2 -->
<g id="edge1" class="edge"><title>Node1&#45;&gt;Node2</title>
<path fill="none" stroke="midnightblue" d="M51.5658,-202.507C63.3317,-220.04 91.1009,-257.204 125,-274 166.747,-294.684 219.241,-300.556 259.759,-301.46"/>
<polygon fill="midnightblue" stroke="midnightblue" points="259.744,-304.96 269.788,-301.588 259.834,-297.96 259.744,-304.96"/>
</g>
<!-- Node6 -->
<g id="node6" class="node"><title>Node6</title>
<g id="a_node6"><a xlink:href="namespacetlz.html#a46c3e46d56bc36cf6b1236522563bc4a" target="_top" xlink:title="tlz::encode_intrinsics">
<polygon fill="white" stroke="black" points="125,-344.5 125,-363.5 234,-363.5 234,-344.5 125,-344.5"/>
<text text-anchor="middle" x="179.5" y="-351.5" font-family="Helvetica,sans-Serif" font-size="10.00">tlz::encode_intrinsics</text>
</a>
</g>
</g>
<!-- Node1&#45;&gt;Node6 -->
<g id="edge6" class="edge"><title>Node1&#45;&gt;Node6</title>
<path fill="none" stroke="midnightblue" d="M50.8461,-202.765C62.5912,-223.734 92.2245,-274.081 125,-310 134.499,-320.41 146.513,-330.51 156.748,-338.401"/>
<polygon fill="midnightblue" stroke="midnightblue" points="154.734,-341.266 164.833,-344.47 158.936,-335.668 154.734,-341.266"/>
</g>
<!-- Node9 -->
<g id="node9" class="node"><title>Node9</title>
<g id="a_node9"><a xlink:href="namespacetlz.html#a67f7411515a0538e3a39b9d0602ed854" target="_top" xlink:title="tlz::undistort_point">
<polygon fill="white" stroke="black" points="131,-164.5 131,-183.5 228,-183.5 228,-164.5 131,-164.5"/>
<text text-anchor="middle" x="179.5" y="-171.5" font-family="Helvetica,sans-Serif" font-size="10.00">tlz::undistort_point</text>
</a>
</g>
</g>
<!-- Node1&#45;&gt;Node9 -->
<g id="edge9" class="edge"><title>Node1&#45;&gt;Node9</title>
<path fill="none" stroke="midnightblue" d="M89.0492,-186.779C99.1535,-185.335 110.064,-183.777 120.674,-182.261"/>
<polygon fill="midnightblue" stroke="midnightblue" points="121.314,-185.705 130.719,-180.826 120.324,-178.775 121.314,-185.705"/>
</g>
<!-- Node10 -->
<g id="node10" class="node"><title>Node10</title>
<g id="a_node10"><a xlink:href="namespacetlz.html#a8b5e4acbb884887859e414ffe06a09f8" target="_top" xlink:title="tlz::undistort_points">
<polygon fill="white" stroke="black" points="273.5,-168.5 273.5,-187.5 375.5,-187.5 375.5,-168.5 273.5,-168.5"/>
<text text-anchor="middle" x="324.5" y="-175.5" font-family="Helvetica,sans-Serif" font-size="10.00">tlz::undistort_points</text>
</a>
</g>
</g>
<!-- Node1&#45;&gt;Node10 -->
<g id="edge13" class="edge"><title>Node1&#45;&gt;Node10</title>
<path fill="none" stroke="midnightblue" d="M89.009,-195.042C127.269,-196.352 184.428,-197.125 234,-193 244.127,-192.157 254.832,-190.787 265.182,-189.208"/>
<polygon fill="midnightblue" stroke="midnightblue" points="266.059,-192.613 275.378,-187.572 264.95,-185.701 266.059,-192.613"/>
</g>
<!-- Node13 -->
<g id="node13" class="node"><title>Node13</title>
<g id="a_node13"><a xlink:href="namespacetlz.html#aa0b38daa346fbb57c8f6668de69ea2d1" target="_top" xlink:title="tlz::distort_point">
<polygon fill="white" stroke="black" points="281.5,-78.5 281.5,-97.5 367.5,-97.5 367.5,-78.5 281.5,-78.5"/>
<text text-anchor="middle" x="324.5" y="-85.5" font-family="Helvetica,sans-Serif" font-size="10.00">tlz::distort_point</text>
</a>
</g>
</g>
<!-- Node1&#45;&gt;Node13 -->
<g id="edge14" class="edge"><title>Node1&#45;&gt;Node13</title>
<path fill="none" stroke="midnightblue" d="M49.1956,-183.295C59.3425,-164.033 89.2684,-124.471 125,-107 170.973,-84.5211 229.62,-78.6274 271.216,-79.388"/>
<polygon fill="midnightblue" stroke="midnightblue" points="271.297,-82.8924 281.406,-79.7187 271.524,-75.8961 271.297,-82.8924"/>
</g>
<!-- Node17 -->
<g id="node17" class="node"><title>Node17</title>
<g id="a_node17"><a xlink:href="namespacetlz.html#ab01b1e8009a6b2ae9fe0fd559de7dd20" target="_top" xlink:title="tlz::distort_points">
<polygon fill="white" stroke="black" points="133.5,-125.5 133.5,-144.5 225.5,-144.5 225.5,-125.5 133.5,-125.5"/>
<text text-anchor="middle" x="179.5" y="-132.5" font-family="Helvetica,sans-Serif" font-size="10.00">tlz::distort_points</text>
</a>
</g>
</g>
<!-- Node1&#45;&gt;Node17 -->
<g id="edge20" class="edge"><title>Node1&#45;&gt;Node17</title>
<path fill="none" stroke="midnightblue" d="M64.2405,-183.466C80.2167,-175.478 103.881,-163.974 125,-155 130.496,-152.665 136.366,-150.321 142.131,-148.103"/>
<polygon fill="midnightblue" stroke="midnightblue" points="143.528,-151.317 151.648,-144.511 141.057,-144.768 143.528,-151.317"/>
</g>
<!-- Node18 -->
<g id="node18" class="node"><title>Node18</title>
<g id="a_node18"><a xlink:href="namespacetlz.html#a170805c7a8ede64a93e0ee23196e5b7c" target="_top" xlink:title="tlz::intrinsics_arg">
<polygon fill="white" stroke="black" points="134,-245.5 134,-264.5 225,-264.5 225,-245.5 134,-245.5"/>
<text text-anchor="middle" x="179.5" y="-252.5" font-family="Helvetica,sans-Serif" font-size="10.00">tlz::intrinsics_arg</text>
</a>
</g>
</g>
<!-- Node1&#45;&gt;Node18 -->
<g id="edge23" class="edge"><title>Node1&#45;&gt;Node18</title>
<path fill="none" stroke="midnightblue" d="M65.9898,-202.552C88.0871,-212.853 123.479,-229.351 148.664,-241.091"/>
<polygon fill="midnightblue" stroke="midnightblue" points="147.225,-244.282 157.768,-245.335 150.183,-237.938 147.225,-244.282"/>
</g>
<!-- Node3 -->
<g id="node3" class="node"><title>Node3</title>
<g id="a_node3"><a xlink:href="namespacetlz.html#a066563a26e2de02f215b179f3d3a53da" target="_top" xlink:title="tlz::decode_mat">
<polygon fill="white" stroke="black" points="435.5,-365.5 435.5,-384.5 521.5,-384.5 521.5,-365.5 435.5,-365.5"/>
<text text-anchor="middle" x="478.5" y="-372.5" font-family="Helvetica,sans-Serif" font-size="10.00">tlz::decode_mat</text>
</a>
</g>
</g>
<!-- Node2&#45;&gt;Node3 -->
<g id="edge2" class="edge"><title>Node2&#45;&gt;Node3</title>
<path fill="none" stroke="midnightblue" d="M338.202,-308.675C354.998,-321.087 385.879,-342.605 415,-356 419.958,-358.281 425.261,-360.375 430.604,-362.273"/>
<polygon fill="midnightblue" stroke="midnightblue" points="429.604,-365.629 440.198,-365.475 431.82,-358.989 429.604,-365.629"/>
</g>
<!-- Node4 -->
<g id="node4" class="node"><title>Node4</title>
<g id="a_node4"><a xlink:href="namespacetlz.html#a252af14b9b4ac6502d3e9c5dd8dc90b8" target="_top" xlink:title="tlz::has">
<polygon fill="white" stroke="black" points="592,-327.5 592,-346.5 641,-346.5 641,-327.5 592,-327.5"/>
<text text-anchor="middle" x="616.5" y="-334.5" font-family="Helvetica,sans-Serif" font-size="10.00">tlz::has</text>
</a>
</g>
</g>
<!-- Node2&#45;&gt;Node4 -->
<g id="edge3" class="edge"><title>Node2&#45;&gt;Node4</title>
<path fill="none" stroke="midnightblue" d="M379.2,-301.24C423.204,-303.667 486.965,-308.539 542,-318 555.192,-320.268 569.485,-323.727 581.93,-327.075"/>
<polygon fill="midnightblue" stroke="midnightblue" points="581.312,-330.535 591.883,-329.832 583.181,-323.789 581.312,-330.535"/>
</g>
<!-- Node5 -->
<g id="node5" class="node"><title>Node5</title>
<g id="a_node5"><a xlink:href="namespacetlz.html#add846dc50c32dfb356cb1a7ac11d37ac" target="_top" xlink:title="tlz::get_or">
<polygon fill="white" stroke="black" points="448.5,-327.5 448.5,-346.5 508.5,-346.5 508.5,-327.5 448.5,-327.5"/>
<text text-anchor="middle" x="478.5" y="-334.5" font-family="Helvetica,sans-Serif" font-size="10.00">tlz::get_or</text>
</a>
</g>
</g>
<!-- Node2&#45;&gt;Node5 -->
<g id="edge4" class="edge"><title>Node2&#45;&gt;Node5</title>
<path fill="none" stroke="midnightblue" d="M363.856,-308.589C386.686,-314.296 415.578,-321.52 438.518,-327.254"/>
<polygon fill="midnightblue" stroke="midnightblue" points="437.721,-330.663 448.272,-329.693 439.419,-323.872 437.721,-330.663"/>
</g>
<!-- Node5&#45;&gt;Node4 -->
<g id="edge5" class="edge"><title>Node5&#45;&gt;Node4</title>
<path fill="none" stroke="midnightblue" d="M508.675,-337C530.102,-337 559.262,-337 581.703,-337"/>
<polygon fill="midnightblue" stroke="midnightblue" points="581.802,-340.5 591.802,-337 581.802,-333.5 581.802,-340.5"/>
</g>
<!-- Node7 -->
<g id="node7" class="node"><title>Node7</title>
<g id="a_node7"><a xlink:href="namespacetlz.html#acf7ca4ee1b750cf31a40170bea887d46" target="_top" xlink:title="tlz::encode_mat">
<polygon fill="white" stroke="black" points="281.5,-365.5 281.5,-384.5 367.5,-384.5 367.5,-365.5 281.5,-365.5"/>
<text text-anchor="middle" x="324.5" y="-372.5" font-family="Helvetica,sans-Serif" font-size="10.00">tlz::encode_mat</text>
</a>
</g>
</g>
<!-- Node6&#45;&gt;Node7 -->
<g id="edge7" class="edge"><title>Node6&#45;&gt;Node7</title>
<path fill="none" stroke="midnightblue" d="M234.155,-361.879C246.29,-363.661 259.158,-365.551 271.235,-367.325"/>
<polygon fill="midnightblue" stroke="midnightblue" points="270.758,-370.792 281.161,-368.782 271.775,-363.866 270.758,-370.792"/>
</g>
<!-- Node8 -->
<g id="node8" class="node"><title>Node8</title>
<g id="a_node8"><a xlink:href="namespacetlz.html#a7b27ca69fad329b4a00aceee41d2962b" target="_top" xlink:title="tlz::encode_mat_">
<polygon fill="white" stroke="black" points="432.5,-403.5 432.5,-422.5 524.5,-422.5 524.5,-403.5 432.5,-403.5"/>
<text text-anchor="middle" x="478.5" y="-410.5" font-family="Helvetica,sans-Serif" font-size="10.00">tlz::encode_mat_</text>
</a>
</g>
</g>
<!-- Node7&#45;&gt;Node8 -->
<g id="edge8" class="edge"><title>Node7&#45;&gt;Node8</title>
<path fill="none" stroke="midnightblue" d="M363.856,-384.589C383.824,-389.581 408.43,-395.732 429.633,-401.033"/>
<polygon fill="midnightblue" stroke="midnightblue" points="428.869,-404.45 439.42,-403.48 430.567,-397.659 428.869,-404.45"/>
</g>
<!-- Node9&#45;&gt;Node10 -->
<g id="edge10" class="edge"><title>Node9&#45;&gt;Node10</title>
<path fill="none" stroke="midnightblue" d="M228.117,-175.332C239.302,-175.645 251.369,-175.982 263.034,-176.309"/>
<polygon fill="midnightblue" stroke="midnightblue" points="263.056,-179.811 273.15,-176.592 263.251,-172.813 263.056,-179.811"/>
</g>
<!-- Node11 -->
<g id="node11" class="node"><title>Node11</title>
<g id="a_node11"><a xlink:href="structtlz_1_1distortion__parameters.html#a307fee036b04519d633fb8456899850c" target="_top" xlink:title="tlz::distortion_parameters\l::is_none">
<polygon fill="white" stroke="black" points="415,-115 415,-145 542,-145 542,-115 415,-115"/>
<text text-anchor="start" x="423" y="-133" font-family="Helvetica,sans-Serif" font-size="10.00">tlz::distortion_parameters</text>
<text text-anchor="middle" x="478.5" y="-122" font-family="Helvetica,sans-Serif" font-size="10.00">::is_none</text>
</a>
</g>
</g>
<!-- Node10&#45;&gt;Node11 -->
<g id="edge11" class="edge"><title>Node10&#45;&gt;Node11</title>
<path fill="none" stroke="midnightblue" d="M355.894,-168.402C374.308,-162.587 398.391,-154.982 420.262,-148.075"/>
<polygon fill="midnightblue" stroke="midnightblue" points="421.319,-151.412 429.801,-145.063 419.211,-144.737 421.319,-151.412"/>
</g>
<!-- Node12 -->
<g id="node12" class="node"><title>Node12</title>
<g id="a_node12"><a xlink:href="structtlz_1_1distortion__parameters.html#a96312c5d7baa4b7b1f2a76e9396037f8" target="_top" xlink:title="tlz::distortion_parameters\l::cv_coeffs">
<polygon fill="white" stroke="black" points="415,-164 415,-194 542,-194 542,-164 415,-164"/>
<text text-anchor="start" x="423" y="-182" font-family="Helvetica,sans-Serif" font-size="10.00">tlz::distortion_parameters</text>
<text text-anchor="middle" x="478.5" y="-171" font-family="Helvetica,sans-Serif" font-size="10.00">::cv_coeffs</text>
</a>
</g>
</g>
<!-- Node10&#45;&gt;Node12 -->
<g id="edge12" class="edge"><title>Node10&#45;&gt;Node12</title>
<path fill="none" stroke="midnightblue" d="M375.692,-178.33C384.998,-178.391 394.89,-178.457 404.71,-178.521"/>
<polygon fill="midnightblue" stroke="midnightblue" points="404.867,-182.022 414.89,-178.588 404.913,-175.022 404.867,-182.022"/>
</g>
<!-- Node13&#45;&gt;Node1 -->
<g id="edge18" class="edge"><title>Node13&#45;&gt;Node1</title>
<path fill="none" stroke="midnightblue" d="M281.406,-93.3653C239.651,-95.7476 174.869,-100.616 125,-125 100.305,-137.075 78.3832,-159.701 63.8473,-175.744"/>
<polygon fill="midnightblue" stroke="midnightblue" points="61.0142,-173.661 56.9436,-183.442 66.2257,-178.334 61.0142,-173.661"/>
</g>
<!-- Node13&#45;&gt;Node11 -->
<g id="edge15" class="edge"><title>Node13&#45;&gt;Node11</title>
<path fill="none" stroke="midnightblue" d="M359.991,-97.5305C375.806,-101.9 395.079,-107.226 413.406,-112.29"/>
<polygon fill="midnightblue" stroke="midnightblue" points="412.598,-115.698 423.169,-114.988 414.463,-108.951 412.598,-115.698"/>
</g>
<!-- Node14 -->
<g id="node14" class="node"><title>Node14</title>
<g id="a_node14"><a xlink:href="structtlz_1_1intrinsics.html#acc9b666adbc970c279c56a4549cc90d5" target="_top" xlink:title="tlz::intrinsics::cx">
<polygon fill="white" stroke="black" points="434,-0.5 434,-19.5 523,-19.5 523,-0.5 434,-0.5"/>
<text text-anchor="middle" x="478.5" y="-7.5" font-family="Helvetica,sans-Serif" font-size="10.00">tlz::intrinsics::cx</text>
</a>
</g>
</g>
<!-- Node13&#45;&gt;Node14 -->
<g id="edge16" class="edge"><title>Node13&#45;&gt;Node14</title>
<path fill="none" stroke="midnightblue" d="M337.572,-78.3944C354.167,-65.5874 385.351,-42.9211 415,-29 419.754,-26.7677 424.834,-24.7213 429.966,-22.8665"/>
<polygon fill="midnightblue" stroke="midnightblue" points="431.471,-26.0523 439.826,-19.5374 429.232,-19.4201 431.471,-26.0523"/>
</g>
<!-- Node15 -->
<g id="node15" class="node"><title>Node15</title>
<g id="a_node15"><a xlink:href="structtlz_1_1intrinsics.html#ad5875d6c77076468aebce0d88ef61c20" target="_top" xlink:title="tlz::intrinsics::fx">
<polygon fill="white" stroke="black" points="435.5,-76.5 435.5,-95.5 521.5,-95.5 521.5,-76.5 435.5,-76.5"/>
<text text-anchor="middle" x="478.5" y="-83.5" font-family="Helvetica,sans-Serif" font-size="10.00">tlz::intrinsics::fx</text>
</a>
</g>
</g>
<!-- Node13&#45;&gt;Node15 -->
<g id="edge17" class="edge"><title>Node13&#45;&gt;Node15</title>
<path fill="none" stroke="midnightblue" d="M367.84,-87.4429C385.629,-87.2088 406.5,-86.9342 425.233,-86.6877"/>
<polygon fill="midnightblue" stroke="midnightblue" points="425.434,-90.1855 435.387,-86.5541 425.341,-83.1861 425.434,-90.1855"/>
</g>
<!-- Node16 -->
<g id="node16" class="node"><title>Node16</title>
<g id="a_node16"><a xlink:href="structtlz_1_1intrinsics.html#a52e02ae0e8bbea245fcced1c38964f29" target="_top" xlink:title="tlz::intrinsics::fy">
<polygon fill="white" stroke="black" points="435.5,-38.5 435.5,-57.5 521.5,-57.5 521.5,-38.5 435.5,-38.5"/>
<text text-anchor="middle" x="478.5" y="-45.5" font-family="Helvetica,sans-Serif" font-size="10.00">tlz::intrinsics::fy</text>
</a>
</g>
</g>
<!-- Node13&#45;&gt;Node16 -->
<g id="edge19" class="edge"><title>Node13&#45;&gt;Node16</title>
<path fill="none" stroke="midnightblue" d="M361.908,-78.419C382.777,-72.9272 409.171,-65.9813 431.468,-60.1138"/>
<polygon fill="midnightblue" stroke="midnightblue" points="432.609,-63.4326 441.389,-57.5028 430.828,-56.6631 432.609,-63.4326"/>
</g>
<!-- Node17&#45;&gt;Node11 -->
<g id="edge21" class="edge"><title>Node17&#45;&gt;Node11</title>
<path fill="none" stroke="midnightblue" d="M225.608,-134.241C273.118,-133.441 348.659,-132.169 404.638,-131.227"/>
<polygon fill="midnightblue" stroke="midnightblue" points="404.912,-134.723 414.851,-131.055 404.794,-127.724 404.912,-134.723"/>
</g>
<!-- Node17&#45;&gt;Node13 -->
<g id="edge22" class="edge"><title>Node17&#45;&gt;Node13</title>
<path fill="none" stroke="midnightblue" d="M209.438,-125.489C231.004,-118.401 260.692,-108.643 284.374,-100.86"/>
<polygon fill="midnightblue" stroke="midnightblue" points="285.707,-104.106 294.114,-97.6583 283.521,-97.4558 285.707,-104.106"/>
</g>
<!-- Node18&#45;&gt;Node2 -->
<g id="edge24" class="edge"><title>Node18&#45;&gt;Node2</title>
<path fill="none" stroke="midnightblue" d="M211.529,-264.547C232.423,-270.976 260.192,-279.521 282.848,-286.492"/>
<polygon fill="midnightblue" stroke="midnightblue" points="281.945,-289.876 292.532,-289.471 284.003,-283.185 281.945,-289.876"/>
</g>
<!-- Node19 -->
<g id="node19" class="node"><title>Node19</title>
<g id="a_node19"><a xlink:href="namespacetlz.html#a35f9e03fa4fd9cec699f5fa27962400f" target="_top" xlink:title="tlz::json_arg">
<polygon fill="white" stroke="black" points="289.5,-245.5 289.5,-264.5 359.5,-264.5 359.5,-245.5 289.5,-245.5"/>
<text text-anchor="middle" x="324.5" y="-252.5" font-family="Helvetica,sans-Serif" font-size="10.00">tlz::json_arg</text>
</a>
</g>
</g>
<!-- Node18&#45;&gt;Node19 -->
<g id="edge25" class="edge"><title>Node18&#45;&gt;Node19</title>
<path fill="none" stroke="midnightblue" d="M225.354,-255C242.447,-255 261.911,-255 278.974,-255"/>
<polygon fill="midnightblue" stroke="midnightblue" points="279.245,-258.5 289.245,-255 279.245,-251.5 279.245,-258.5"/>
</g>
<!-- Node20 -->
<g id="node20" class="node"><title>Node20</title>
<g id="a_node20"><a xlink:href="namespacetlz.html#aa1be9362f548fcf9378e1fc9074089c4" target="_top" xlink:title="tlz::import_json_file">
<polygon fill="white" stroke="black" points="428,-213.5 428,-232.5 529,-232.5 529,-213.5 428,-213.5"/>
<text text-anchor="middle" x="478.5" y="-220.5" font-family="Helvetica,sans-Serif" font-size="10.00">tlz::import_json_file</text>
</a>
</g>
</g>
<!-- Node19&#45;&gt;Node20 -->
<g id="edge26" class="edge"><title>Node19&#45;&gt;Node20</title>
<path fill="none" stroke="midnightblue" d="M359.612,-247.819C378.041,-243.939 401.248,-239.053 422.188,-234.645"/>
<polygon fill="midnightblue" stroke="midnightblue" points="423.19,-238.011 432.254,-232.525 421.748,-231.161 423.19,-238.011"/>
</g>
<!-- Node21 -->
<g id="node21" class="node"><title>Node21</title>
<g id="a_node21"><a xlink:href="namespacetlz.html#a634de7ca11e100e4a118dffe80376a75" target="_top" xlink:title="tlz::in_filename_arg">
<polygon fill="white" stroke="black" points="428,-251.5 428,-270.5 529,-270.5 529,-251.5 428,-251.5"/>
<text text-anchor="middle" x="478.5" y="-258.5" font-family="Helvetica,sans-Serif" font-size="10.00">tlz::in_filename_arg</text>
</a>
</g>
</g>
<!-- Node19&#45;&gt;Node21 -->
<g id="edge27" class="edge"><title>Node19&#45;&gt;Node21</title>
<path fill="none" stroke="midnightblue" d="M359.612,-256.347C376.755,-257.023 398.034,-257.863 417.775,-258.642"/>
<polygon fill="midnightblue" stroke="midnightblue" points="417.798,-262.146 427.928,-259.043 418.074,-255.151 417.798,-262.146"/>
</g>
<!-- Node22 -->
<g id="node22" class="node"><title>Node22</title>
<g id="a_node22"><a xlink:href="namespacetlz.html#a0621d598fb83b13bf028f3e6293d04f8" target="_top" xlink:title="tlz::string_arg">
<polygon fill="white" stroke="black" points="578.5,-213.5 578.5,-232.5 654.5,-232.5 654.5,-213.5 578.5,-213.5"/>
<text text-anchor="middle" x="616.5" y="-220.5" font-family="Helvetica,sans-Serif" font-size="10.00">tlz::string_arg</text>
</a>
</g>
</g>
<!-- Node21&#45;&gt;Node22 -->
<g id="edge28" class="edge"><title>Node21&#45;&gt;Node22</title>
<path fill="none" stroke="midnightblue" d="M513.819,-251.411C531.294,-246.528 552.741,-240.536 571.425,-235.315"/>
<polygon fill="midnightblue" stroke="midnightblue" points="572.503,-238.648 581.192,-232.586 570.619,-231.906 572.503,-238.648"/>
</g>
<!-- Node23 -->
<g id="node23" class="node"><title>Node23</title>
<g id="a_node23"><a xlink:href="namespacetlz.html#a780431daab8d2595372eacb43143b52d" target="_top" xlink:title="tlz::args">
<polygon fill="white" stroke="black" points="721.5,-251.5 721.5,-270.5 773.5,-270.5 773.5,-251.5 721.5,-251.5"/>
<text text-anchor="middle" x="747.5" y="-258.5" font-family="Helvetica,sans-Serif" font-size="10.00">tlz::args</text>
</a>
</g>
</g>
<!-- Node21&#45;&gt;Node23 -->
<g id="edge34" class="edge"><title>Node21&#45;&gt;Node23</title>
<path fill="none" stroke="midnightblue" d="M529.095,-261C581.981,-261 664.412,-261 711.104,-261"/>
<polygon fill="midnightblue" stroke="midnightblue" points="711.334,-264.5 721.334,-261 711.334,-257.5 711.334,-264.5"/>
</g>
<!-- Node25 -->
<g id="node25" class="node"><title>Node25</title>
<g id="a_node25"><a xlink:href="classtlz_1_1args__list.html#a38ad21acd64a4af98ffdf4a47837cdbe" target="_top" xlink:title="tlz::args_list::usage_fail">
<polygon fill="white" stroke="black" points="840,-175.5 840,-194.5 960,-194.5 960,-175.5 840,-175.5"/>
<text text-anchor="middle" x="900" y="-182.5" font-family="Helvetica,sans-Serif" font-size="10.00">tlz::args_list::usage_fail</text>
</a>
</g>
</g>
<!-- Node21&#45;&gt;Node25 -->
<g id="edge35" class="edge"><title>Node21&#45;&gt;Node25</title>
<path fill="none" stroke="midnightblue" d="M521.817,-251.41C528.834,-248.913 535.827,-245.817 542,-242 561.788,-229.765 556.91,-213.82 578,-204 658.271,-166.624 762.294,-168.268 829.825,-174.929"/>
<polygon fill="midnightblue" stroke="midnightblue" points="829.618,-178.426 839.929,-175.99 830.349,-171.465 829.618,-178.426"/>
</g>
<!-- Node27 -->
<g id="node27" class="node"><title>Node27</title>
<g id="a_node27"><a xlink:href="namespacetlz.html#abb019466ea9f56c0dab27e893d891837" target="_top" xlink:title="tlz::file_exists">
<polygon fill="white" stroke="black" points="578,-289.5 578,-308.5 655,-308.5 655,-289.5 578,-289.5"/>
<text text-anchor="middle" x="616.5" y="-296.5" font-family="Helvetica,sans-Serif" font-size="10.00">tlz::file_exists</text>
</a>
</g>
</g>
<!-- Node21&#45;&gt;Node27 -->
<g id="edge33" class="edge"><title>Node21&#45;&gt;Node27</title>
<path fill="none" stroke="midnightblue" d="M513.819,-270.589C531.294,-275.472 552.741,-281.464 571.425,-286.685"/>
<polygon fill="midnightblue" stroke="midnightblue" points="570.619,-290.094 581.192,-289.414 572.503,-283.352 570.619,-290.094"/>
</g>
<!-- Node22&#45;&gt;Node23 -->
<g id="edge29" class="edge"><title>Node22&#45;&gt;Node23</title>
<path fill="none" stroke="midnightblue" d="M650.052,-232.589C668.78,-238.106 692.314,-245.038 711.447,-250.674"/>
<polygon fill="midnightblue" stroke="midnightblue" points="710.701,-254.103 721.283,-253.572 712.679,-247.389 710.701,-254.103"/>
</g>
<!-- Node24 -->
<g id="node24" class="node"><title>Node24</title>
<g id="a_node24"><a xlink:href="classtlz_1_1args__list.html#a73d99bc75998dc14607a3a372d28dc6d" target="_top" xlink:title="tlz::args_list::next_arg">
<polygon fill="white" stroke="black" points="691,-213.5 691,-232.5 804,-232.5 804,-213.5 691,-213.5"/>
<text text-anchor="middle" x="747.5" y="-220.5" font-family="Helvetica,sans-Serif" font-size="10.00">tlz::args_list::next_arg</text>
</a>
</g>
</g>
<!-- Node22&#45;&gt;Node24 -->
<g id="edge30" class="edge"><title>Node22&#45;&gt;Node24</title>
<path fill="none" stroke="midnightblue" d="M654.812,-223C662.835,-223 671.544,-223 680.295,-223"/>
<polygon fill="midnightblue" stroke="midnightblue" points="680.549,-226.5 690.549,-223 680.549,-219.5 680.549,-226.5"/>
</g>
<!-- Node24&#45;&gt;Node25 -->
<g id="edge31" class="edge"><title>Node24&#45;&gt;Node25</title>
<path fill="none" stroke="midnightblue" d="M786.478,-213.411C806.159,-208.442 830.391,-202.323 851.321,-197.039"/>
<polygon fill="midnightblue" stroke="midnightblue" points="852.457,-200.362 861.296,-194.52 850.743,-193.575 852.457,-200.362"/>
</g>
<!-- Node26 -->
<g id="node26" class="node"><title>Node26</title>
<g id="a_node26"><a xlink:href="namespacetlz.html#a8e4f8c8c2927bc4350de13bfa0f8f9e1" target="_top" xlink:title="tlz::to_string">
<polygon fill="white" stroke="black" points="864.5,-213.5 864.5,-232.5 935.5,-232.5 935.5,-213.5 864.5,-213.5"/>
<text text-anchor="middle" x="900" y="-220.5" font-family="Helvetica,sans-Serif" font-size="10.00">tlz::to_string</text>
</a>
</g>
</g>
<!-- Node24&#45;&gt;Node26 -->
<g id="edge32" class="edge"><title>Node24&#45;&gt;Node26</title>
<path fill="none" stroke="midnightblue" d="M804.113,-223C820.441,-223 838.096,-223 853.698,-223"/>
<polygon fill="midnightblue" stroke="midnightblue" points="854.13,-226.5 864.13,-223 854.129,-219.5 854.13,-226.5"/>
</g>
</g>
</svg>
