<?xml version="1.0" encoding="UTF-8" standalone="no"?>
<!DOCTYPE svg PUBLIC "-//W3C//DTD SVG 1.1//EN"
 "http://www.w3.org/Graphics/SVG/1.1/DTD/svg11.dtd">
<!-- Generated by graphviz version 2.38.0 (20140413.2041)
 -->
<!-- Title: tlz::relative_camera_positions::position Pages: 1 -->
<svg width="945pt" height="286pt"
 viewBox="0.00 0.00 945.00 285.50" xmlns="http://www.w3.org/2000/svg" xmlns:xlink="http://www.w3.org/1999/xlink">
<g id="graph0" class="graph" transform="scale(1 1) rotate(0) translate(4 281.5)">
<title>tlz::relative_camera_positions::position</title>
<polygon fill="white" stroke="none" points="-4,4 -4,-281.5 941,-281.5 941,4 -4,4"/>
<!-- Node1 -->
<g id="node1" class="node"><title>Node1</title>
<polygon fill="#bfbfbf" stroke="black" points="0,-159 0,-189 102,-189 102,-159 0,-159"/>
<text text-anchor="start" x="8" y="-177" font-family="Helvetica,sans-Serif" font-size="10.00">tlz::relative_camera</text>
<text text-anchor="middle" x="51" y="-166" font-family="Helvetica,sans-Serif" font-size="10.00">_positions::position</text>
</g>
<!-- Node2 -->
<g id="node2" class="node"><title>Node2</title>
<g id="a_node2"><a xlink:href="namespacetlz.html#a6bfcea8cf5a5125db91b5f84542f8044" target="_top" xlink:title="tlz::encode_relative\l_camera_positions">
<polygon fill="white" stroke="black" points="141,-247 141,-277 242,-277 242,-247 141,-247"/>
<text text-anchor="start" x="149" y="-265" font-family="Helvetica,sans-Serif" font-size="10.00">tlz::encode_relative</text>
<text text-anchor="middle" x="191.5" y="-254" font-family="Helvetica,sans-Serif" font-size="10.00">_camera_positions</text>
</a>
</g>
</g>
<!-- Node1&#45;&gt;Node2 -->
<g id="edge1" class="edge"><title>Node1&#45;&gt;Node2</title>
<path fill="none" stroke="midnightblue" d="M73.6216,-189.234C90.839,-201.205 115.671,-218.117 138,-232 143.324,-235.31 149.021,-238.708 154.627,-241.974"/>
<polygon fill="midnightblue" stroke="midnightblue" points="152.883,-245.008 163.296,-246.963 156.375,-238.941 152.883,-245.008"/>
</g>
<!-- Node5 -->
<g id="node5" class="node"><title>Node5</title>
<g id="a_node5"><a xlink:href="namespacetlz.html#a387370f41b7b1fcbaf5478adc6143309" target="_top" xlink:title="tlz::decode_relative\l_camera_positions">
<polygon fill="white" stroke="black" points="281,-166 281,-196 382,-196 382,-166 281,-166"/>
<text text-anchor="start" x="289" y="-184" font-family="Helvetica,sans-Serif" font-size="10.00">tlz::decode_relative</text>
<text text-anchor="middle" x="331.5" y="-173" font-family="Helvetica,sans-Serif" font-size="10.00">_camera_positions</text>
</a>
</g>
</g>
<!-- Node1&#45;&gt;Node5 -->
<g id="edge4" class="edge"><title>Node1&#45;&gt;Node5</title>
<path fill="none" stroke="midnightblue" d="M94.7858,-189.02C108.42,-193.105 123.684,-196.961 138,-199 185.081,-205.704 197.7,-203.925 245,-199 253.35,-198.131 262.086,-196.796 270.65,-195.238"/>
<polygon fill="midnightblue" stroke="midnightblue" points="271.436,-198.651 280.592,-193.32 270.11,-191.777 271.436,-198.651"/>
</g>
<!-- Node7 -->
<g id="node7" class="node"><title>Node7</title>
<g id="a_node7"><a xlink:href="namespacetlz.html#a4c8ba0cd4f8d2e01c0aa3c58056bd648" target="_top" xlink:title="tlz::get_reference\l_views">
<polygon fill="white" stroke="black" points="145.5,-159 145.5,-189 237.5,-189 237.5,-159 145.5,-159"/>
<text text-anchor="start" x="153.5" y="-177" font-family="Helvetica,sans-Serif" font-size="10.00">tlz::get_reference</text>
<text text-anchor="middle" x="191.5" y="-166" font-family="Helvetica,sans-Serif" font-size="10.00">_views</text>
</a>
</g>
</g>
<!-- Node1&#45;&gt;Node7 -->
<g id="edge6" class="edge"><title>Node1&#45;&gt;Node7</title>
<path fill="none" stroke="midnightblue" d="M102.002,-174C112.688,-174 124.039,-174 134.921,-174"/>
<polygon fill="midnightblue" stroke="midnightblue" points="135.174,-177.5 145.174,-174 135.174,-170.5 135.174,-177.5"/>
</g>
<!-- Node8 -->
<g id="node8" class="node"><title>Node8</title>
<g id="a_node8"><a xlink:href="namespacetlz.html#a4f0a2bcf6828f70de313375cf8b67fd1" target="_top" xlink:title="tlz::get_target_views">
<polygon fill="white" stroke="black" points="138,-120.5 138,-139.5 245,-139.5 245,-120.5 138,-120.5"/>
<text text-anchor="middle" x="191.5" y="-127.5" font-family="Helvetica,sans-Serif" font-size="10.00">tlz::get_target_views</text>
</a>
</g>
</g>
<!-- Node1&#45;&gt;Node8 -->
<g id="edge7" class="edge"><title>Node1&#45;&gt;Node8</title>
<path fill="none" stroke="midnightblue" d="M99.2765,-158.981C116.019,-153.662 134.674,-147.735 150.73,-142.635"/>
<polygon fill="midnightblue" stroke="midnightblue" points="151.879,-145.942 160.35,-139.578 149.76,-139.27 151.879,-145.942"/>
</g>
<!-- Node9 -->
<g id="node9" class="node"><title>Node9</title>
<g id="a_node9"><a xlink:href="namespacetlz.html#a922b23e21d7b208319196b18bd9a3ea6" target="_top" xlink:title="tlz::relative_camera\l_positions_arg">
<polygon fill="white" stroke="black" points="140.5,-71 140.5,-101 242.5,-101 242.5,-71 140.5,-71"/>
<text text-anchor="start" x="148.5" y="-89" font-family="Helvetica,sans-Serif" font-size="10.00">tlz::relative_camera</text>
<text text-anchor="middle" x="191.5" y="-78" font-family="Helvetica,sans-Serif" font-size="10.00">_positions_arg</text>
</a>
</g>
</g>
<!-- Node1&#45;&gt;Node9 -->
<g id="edge8" class="edge"><title>Node1&#45;&gt;Node9</title>
<path fill="none" stroke="midnightblue" d="M70.424,-158.925C87.378,-145.443 113.529,-125.613 138,-111 140.994,-109.212 144.137,-107.451 147.332,-105.743"/>
<polygon fill="midnightblue" stroke="midnightblue" points="149.103,-108.768 156.402,-101.089 145.907,-102.54 149.103,-108.768"/>
</g>
<!-- Node3 -->
<g id="node3" class="node"><title>Node3</title>
<g id="a_node3"><a xlink:href="namespacetlz.html#acf7ca4ee1b750cf31a40170bea887d46" target="_top" xlink:title="tlz::encode_mat">
<polygon fill="white" stroke="black" points="288.5,-252.5 288.5,-271.5 374.5,-271.5 374.5,-252.5 288.5,-252.5"/>
<text text-anchor="middle" x="331.5" y="-259.5" font-family="Helvetica,sans-Serif" font-size="10.00">tlz::encode_mat</text>
</a>
</g>
</g>
<!-- Node2&#45;&gt;Node3 -->
<g id="edge2" class="edge"><title>Node2&#45;&gt;Node3</title>
<path fill="none" stroke="midnightblue" d="M242.321,-262C254.025,-262 266.528,-262 278.332,-262"/>
<polygon fill="midnightblue" stroke="midnightblue" points="278.486,-265.5 288.486,-262 278.486,-258.5 278.486,-265.5"/>
</g>
<!-- Node4 -->
<g id="node4" class="node"><title>Node4</title>
<g id="a_node4"><a xlink:href="namespacetlz.html#a7b27ca69fad329b4a00aceee41d2962b" target="_top" xlink:title="tlz::encode_mat_">
<polygon fill="white" stroke="black" points="422.5,-252.5 422.5,-271.5 514.5,-271.5 514.5,-252.5 422.5,-252.5"/>
<text text-anchor="middle" x="468.5" y="-259.5" font-family="Helvetica,sans-Serif" font-size="10.00">tlz::encode_mat_</text>
</a>
</g>
</g>
<!-- Node3&#45;&gt;Node4 -->
<g id="edge3" class="edge"><title>Node3&#45;&gt;Node4</title>
<path fill="none" stroke="midnightblue" d="M374.844,-262C386.564,-262 399.465,-262 411.82,-262"/>
<polygon fill="midnightblue" stroke="midnightblue" points="412.032,-265.5 422.032,-262 412.032,-258.5 412.032,-265.5"/>
</g>
<!-- Node6 -->
<g id="node6" class="node"><title>Node6</title>
<g id="a_node6"><a xlink:href="namespacetlz.html#a066563a26e2de02f215b179f3d3a53da" target="_top" xlink:title="tlz::decode_mat">
<polygon fill="white" stroke="black" points="425.5,-171.5 425.5,-190.5 511.5,-190.5 511.5,-171.5 425.5,-171.5"/>
<text text-anchor="middle" x="468.5" y="-178.5" font-family="Helvetica,sans-Serif" font-size="10.00">tlz::decode_mat</text>
</a>
</g>
</g>
<!-- Node5&#45;&gt;Node6 -->
<g id="edge5" class="edge"><title>Node5&#45;&gt;Node6</title>
<path fill="none" stroke="midnightblue" d="M382.002,-181C392.723,-181 404.098,-181 414.932,-181"/>
<polygon fill="midnightblue" stroke="midnightblue" points="415.115,-184.5 425.115,-181 415.115,-177.5 415.115,-184.5"/>
</g>
<!-- Node9&#45;&gt;Node5 -->
<g id="edge9" class="edge"><title>Node9&#45;&gt;Node5</title>
<path fill="none" stroke="midnightblue" d="M227.311,-101.114C233.347,-104.144 239.459,-107.485 245,-111 267.275,-125.128 290.288,-144.274 306.819,-158.971"/>
<polygon fill="midnightblue" stroke="midnightblue" points="304.611,-161.693 314.382,-165.787 309.297,-156.493 304.611,-161.693"/>
</g>
<!-- Node10 -->
<g id="node10" class="node"><title>Node10</title>
<g id="a_node10"><a xlink:href="namespacetlz.html#a35f9e03fa4fd9cec699f5fa27962400f" target="_top" xlink:title="tlz::json_arg">
<polygon fill="white" stroke="black" points="296.5,-76.5 296.5,-95.5 366.5,-95.5 366.5,-76.5 296.5,-76.5"/>
<text text-anchor="middle" x="331.5" y="-83.5" font-family="Helvetica,sans-Serif" font-size="10.00">tlz::json_arg</text>
</a>
</g>
</g>
<!-- Node9&#45;&gt;Node10 -->
<g id="edge10" class="edge"><title>Node9&#45;&gt;Node10</title>
<path fill="none" stroke="midnightblue" d="M242.712,-86C256.959,-86 272.363,-86 286.232,-86"/>
<polygon fill="midnightblue" stroke="midnightblue" points="286.493,-89.5001 296.493,-86 286.493,-82.5001 286.493,-89.5001"/>
</g>
<!-- Node11 -->
<g id="node11" class="node"><title>Node11</title>
<g id="a_node11"><a xlink:href="namespacetlz.html#aa1be9362f548fcf9378e1fc9074089c4" target="_top" xlink:title="tlz::import_json_file">
<polygon fill="white" stroke="black" points="418,-95.5 418,-114.5 519,-114.5 519,-95.5 418,-95.5"/>
<text text-anchor="middle" x="468.5" y="-102.5" font-family="Helvetica,sans-Serif" font-size="10.00">tlz::import_json_file</text>
</a>
</g>
</g>
<!-- Node10&#45;&gt;Node11 -->
<g id="edge11" class="edge"><title>Node10&#45;&gt;Node11</title>
<path fill="none" stroke="midnightblue" d="M366.566,-90.7945C379.074,-92.5549 393.631,-94.6037 407.733,-96.5883"/>
<polygon fill="midnightblue" stroke="midnightblue" points="407.494,-100.089 417.884,-98.017 408.469,-93.1574 407.494,-100.089"/>
</g>
<!-- Node12 -->
<g id="node12" class="node"><title>Node12</title>
<g id="a_node12"><a xlink:href="namespacetlz.html#a634de7ca11e100e4a118dffe80376a75" target="_top" xlink:title="tlz::in_filename_arg">
<polygon fill="white" stroke="black" points="418,-57.5 418,-76.5 519,-76.5 519,-57.5 418,-57.5"/>
<text text-anchor="middle" x="468.5" y="-64.5" font-family="Helvetica,sans-Serif" font-size="10.00">tlz::in_filename_arg</text>
</a>
</g>
</g>
<!-- Node10&#45;&gt;Node12 -->
<g id="edge12" class="edge"><title>Node10&#45;&gt;Node12</title>
<path fill="none" stroke="midnightblue" d="M366.566,-81.2055C379.074,-79.4451 393.631,-77.3963 407.733,-75.4117"/>
<polygon fill="midnightblue" stroke="midnightblue" points="408.469,-78.8426 417.884,-73.983 407.494,-71.9109 408.469,-78.8426"/>
</g>
<!-- Node13 -->
<g id="node13" class="node"><title>Node13</title>
<g id="a_node13"><a xlink:href="namespacetlz.html#a0621d598fb83b13bf028f3e6293d04f8" target="_top" xlink:title="tlz::string_arg">
<polygon fill="white" stroke="black" points="555.5,-76.5 555.5,-95.5 631.5,-95.5 631.5,-76.5 555.5,-76.5"/>
<text text-anchor="middle" x="593.5" y="-83.5" font-family="Helvetica,sans-Serif" font-size="10.00">tlz::string_arg</text>
</a>
</g>
</g>
<!-- Node12&#45;&gt;Node13 -->
<g id="edge13" class="edge"><title>Node12&#45;&gt;Node13</title>
<path fill="none" stroke="midnightblue" d="M519.174,-74.6733C527.706,-75.9912 536.554,-77.358 545.027,-78.6667"/>
<polygon fill="midnightblue" stroke="midnightblue" points="544.712,-82.1595 555.129,-80.2272 545.781,-75.2416 544.712,-82.1595"/>
</g>
<!-- Node14 -->
<g id="node14" class="node"><title>Node14</title>
<g id="a_node14"><a xlink:href="namespacetlz.html#a780431daab8d2595372eacb43143b52d" target="_top" xlink:title="tlz::args">
<polygon fill="white" stroke="black" points="698.5,-114.5 698.5,-133.5 750.5,-133.5 750.5,-114.5 698.5,-114.5"/>
<text text-anchor="middle" x="724.5" y="-121.5" font-family="Helvetica,sans-Serif" font-size="10.00">tlz::args</text>
</a>
</g>
</g>
<!-- Node12&#45;&gt;Node14 -->
<g id="edge19" class="edge"><title>Node12&#45;&gt;Node14</title>
<path fill="none" stroke="midnightblue" d="M496.201,-76.5811C503.655,-79.4357 511.708,-82.6902 519,-86 535.474,-93.477 537.711,-99.6716 555,-105 599.617,-118.751 653.622,-122.756 688.259,-123.813"/>
<polygon fill="midnightblue" stroke="midnightblue" points="688.274,-127.315 698.354,-124.054 688.441,-120.317 688.274,-127.315"/>
</g>
<!-- Node16 -->
<g id="node16" class="node"><title>Node16</title>
<g id="a_node16"><a xlink:href="classtlz_1_1args__list.html#a38ad21acd64a4af98ffdf4a47837cdbe" target="_top" xlink:title="tlz::args_list::usage_fail">
<polygon fill="white" stroke="black" points="817,-38.5 817,-57.5 937,-57.5 937,-38.5 817,-38.5"/>
<text text-anchor="middle" x="877" y="-45.5" font-family="Helvetica,sans-Serif" font-size="10.00">tlz::args_list::usage_fail</text>
</a>
</g>
</g>
<!-- Node12&#45;&gt;Node16 -->
<g id="edge20" class="edge"><title>Node12&#45;&gt;Node16</title>
<path fill="none" stroke="midnightblue" d="M519.345,-64.6702C591.419,-61.3015 725.021,-55.0568 806.668,-51.2406"/>
<polygon fill="midnightblue" stroke="midnightblue" points="807.025,-54.7278 816.851,-50.7647 806.698,-47.7355 807.025,-54.7278"/>
</g>
<!-- Node18 -->
<g id="node18" class="node"><title>Node18</title>
<g id="a_node18"><a xlink:href="namespacetlz.html#abb019466ea9f56c0dab27e893d891837" target="_top" xlink:title="tlz::file_exists">
<polygon fill="white" stroke="black" points="555,-0.5 555,-19.5 632,-19.5 632,-0.5 555,-0.5"/>
<text text-anchor="middle" x="593.5" y="-7.5" font-family="Helvetica,sans-Serif" font-size="10.00">tlz::file_exists</text>
</a>
</g>
</g>
<!-- Node12&#45;&gt;Node18 -->
<g id="edge18" class="edge"><title>Node12&#45;&gt;Node18</title>
<path fill="none" stroke="midnightblue" d="M490.087,-57.4595C509.954,-48.2528 540.246,-34.2153 562.737,-23.7926"/>
<polygon fill="midnightblue" stroke="midnightblue" points="564.244,-26.9519 571.845,-19.5716 561.301,-20.6007 564.244,-26.9519"/>
</g>
<!-- Node13&#45;&gt;Node14 -->
<g id="edge14" class="edge"><title>Node13&#45;&gt;Node14</title>
<path fill="none" stroke="midnightblue" d="M627.052,-95.589C645.78,-101.106 669.314,-108.038 688.447,-113.674"/>
<polygon fill="midnightblue" stroke="midnightblue" points="687.701,-117.103 698.283,-116.572 689.679,-110.389 687.701,-117.103"/>
</g>
<!-- Node15 -->
<g id="node15" class="node"><title>Node15</title>
<g id="a_node15"><a xlink:href="classtlz_1_1args__list.html#a73d99bc75998dc14607a3a372d28dc6d" target="_top" xlink:title="tlz::args_list::next_arg">
<polygon fill="white" stroke="black" points="668,-76.5 668,-95.5 781,-95.5 781,-76.5 668,-76.5"/>
<text text-anchor="middle" x="724.5" y="-83.5" font-family="Helvetica,sans-Serif" font-size="10.00">tlz::args_list::next_arg</text>
</a>
</g>
</g>
<!-- Node13&#45;&gt;Node15 -->
<g id="edge15" class="edge"><title>Node13&#45;&gt;Node15</title>
<path fill="none" stroke="midnightblue" d="M631.812,-86C639.835,-86 648.544,-86 657.295,-86"/>
<polygon fill="midnightblue" stroke="midnightblue" points="657.549,-89.5001 667.549,-86 657.549,-82.5001 657.549,-89.5001"/>
</g>
<!-- Node15&#45;&gt;Node16 -->
<g id="edge16" class="edge"><title>Node15&#45;&gt;Node16</title>
<path fill="none" stroke="midnightblue" d="M763.478,-76.411C783.159,-71.4417 807.391,-65.3233 828.321,-60.0387"/>
<polygon fill="midnightblue" stroke="midnightblue" points="829.457,-63.3617 838.296,-57.5201 827.743,-56.5747 829.457,-63.3617"/>
</g>
<!-- Node17 -->
<g id="node17" class="node"><title>Node17</title>
<g id="a_node17"><a xlink:href="namespacetlz.html#a8e4f8c8c2927bc4350de13bfa0f8f9e1" target="_top" xlink:title="tlz::to_string">
<polygon fill="white" stroke="black" points="841.5,-76.5 841.5,-95.5 912.5,-95.5 912.5,-76.5 841.5,-76.5"/>
<text text-anchor="middle" x="877" y="-83.5" font-family="Helvetica,sans-Serif" font-size="10.00">tlz::to_string</text>
</a>
</g>
</g>
<!-- Node15&#45;&gt;Node17 -->
<g id="edge17" class="edge"><title>Node15&#45;&gt;Node17</title>
<path fill="none" stroke="midnightblue" d="M781.113,-86C797.441,-86 815.096,-86 830.698,-86"/>
<polygon fill="midnightblue" stroke="midnightblue" points="831.13,-89.5001 841.13,-86 831.129,-82.5001 831.13,-89.5001"/>
</g>
</g>
</svg>
