<?xml version="1.0" encoding="UTF-8" standalone="no"?>
<!DOCTYPE svg PUBLIC "-//W3C//DTD SVG 1.1//EN"
 "http://www.w3.org/Graphics/SVG/1.1/DTD/svg11.dtd">
<!-- Generated by graphviz version 2.38.0 (20140413.2041)
 -->
<!-- Title: tlz::references_grid::is_valid Pages: 1 -->
<svg width="1009pt" height="339pt"
 viewBox="0.00 0.00 1009.00 338.50" xmlns="http://www.w3.org/2000/svg" xmlns:xlink="http://www.w3.org/1999/xlink">
<g id="graph0" class="graph" transform="scale(1 1) rotate(0) translate(4 334.5)">
<title>tlz::references_grid::is_valid</title>
<polygon fill="white" stroke="none" points="-4,4 -4,-334.5 1005,-334.5 1005,4 -4,4"/>
<!-- Node1 -->
<g id="node1" class="node"><title>Node1</title>
<polygon fill="#bfbfbf" stroke="black" points="0,-174 0,-204 100,-204 100,-174 0,-174"/>
<text text-anchor="start" x="8" y="-192" font-family="Helvetica,sans-Serif" font-size="10.00">tlz::references_grid</text>
<text text-anchor="middle" x="50" y="-181" font-family="Helvetica,sans-Serif" font-size="10.00">::is_valid</text>
</g>
<!-- Node2 -->
<g id="node2" class="node"><title>Node2</title>
<g id="a_node2"><a xlink:href="namespacetlz.html#a8448b40853e010ac63c82c46bb6484dc" target="_top" xlink:title="tlz::encode_references_grid">
<polygon fill="white" stroke="black" points="136,-240.5 136,-259.5 273,-259.5 273,-240.5 136,-240.5"/>
<text text-anchor="middle" x="204.5" y="-247.5" font-family="Helvetica,sans-Serif" font-size="10.00">tlz::encode_references_grid</text>
</a>
</g>
</g>
<!-- Node1&#45;&gt;Node2 -->
<g id="edge1" class="edge"><title>Node1&#45;&gt;Node2</title>
<path fill="none" stroke="midnightblue" d="M78.3667,-204.134C94.7493,-212.783 116.178,-223.388 136,-231 142.041,-233.32 148.484,-235.496 154.901,-237.487"/>
<polygon fill="midnightblue" stroke="midnightblue" points="154.319,-240.965 164.902,-240.459 156.313,-234.255 154.319,-240.965"/>
</g>
<!-- Node3 -->
<g id="node3" class="node"><title>Node3</title>
<g id="a_node3"><a xlink:href="namespacetlz.html#a01838f5b78a259fcff3c50ad9567f6c8" target="_top" xlink:title="tlz::decode_references_grid">
<polygon fill="white" stroke="black" points="309,-114.5 309,-133.5 446,-133.5 446,-114.5 309,-114.5"/>
<text text-anchor="middle" x="377.5" y="-121.5" font-family="Helvetica,sans-Serif" font-size="10.00">tlz::decode_references_grid</text>
</a>
</g>
</g>
<!-- Node1&#45;&gt;Node3 -->
<g id="edge2" class="edge"><title>Node1&#45;&gt;Node3</title>
<path fill="none" stroke="midnightblue" d="M100.083,-179.198C158.713,-167.491 256.651,-147.933 318.835,-135.515"/>
<polygon fill="midnightblue" stroke="midnightblue" points="319.753,-138.901 328.874,-133.51 318.383,-132.037 319.753,-138.901"/>
</g>
<!-- Node4 -->
<g id="node4" class="node"><title>Node4</title>
<g id="a_node4"><a xlink:href="namespacetlz.html#ac3ed451219922f0c9f792a355bbf629d" target="_top" xlink:title="tlz::get_references_grid">
<polygon fill="white" stroke="black" points="145,-202.5 145,-221.5 264,-221.5 264,-202.5 145,-202.5"/>
<text text-anchor="middle" x="204.5" y="-209.5" font-family="Helvetica,sans-Serif" font-size="10.00">tlz::get_references_grid</text>
</a>
</g>
</g>
<!-- Node1&#45;&gt;Node4 -->
<g id="edge3" class="edge"><title>Node1&#45;&gt;Node4</title>
<path fill="none" stroke="midnightblue" d="M100.091,-196.404C111.136,-198.07 123.055,-199.867 134.737,-201.629"/>
<polygon fill="midnightblue" stroke="midnightblue" points="134.504,-205.134 144.914,-203.164 135.548,-198.212 134.504,-205.134"/>
</g>
<!-- Node9 -->
<g id="node9" class="node"><title>Node9</title>
<g id="a_node9"><a xlink:href="namespacetlz.html#a097b9c15e0cbb06c775671b1239ec594" target="_top" xlink:title="tlz::references_grid_arg">
<polygon fill="white" stroke="black" points="145,-114.5 145,-133.5 264,-133.5 264,-114.5 145,-114.5"/>
<text text-anchor="middle" x="204.5" y="-121.5" font-family="Helvetica,sans-Serif" font-size="10.00">tlz::references_grid_arg</text>
</a>
</g>
</g>
<!-- Node1&#45;&gt;Node9 -->
<g id="edge8" class="edge"><title>Node1&#45;&gt;Node9</title>
<path fill="none" stroke="midnightblue" d="M85.2687,-173.922C100.74,-167.156 119.262,-159.114 136,-152 147.288,-147.202 159.678,-142.035 170.726,-137.461"/>
<polygon fill="midnightblue" stroke="midnightblue" points="172.123,-140.671 180.029,-133.619 169.45,-134.201 172.123,-140.671"/>
</g>
<!-- Node5 -->
<g id="node5" class="node"><title>Node5</title>
<g id="a_node5"><a xlink:href="namespacetlz.html#a50da847dcfcd4a37035f36baf5658b0d" target="_top" xlink:title="tlz::get_reference\l_views_set">
<polygon fill="white" stroke="black" points="331.5,-251 331.5,-281 423.5,-281 423.5,-251 331.5,-251"/>
<text text-anchor="start" x="339.5" y="-269" font-family="Helvetica,sans-Serif" font-size="10.00">tlz::get_reference</text>
<text text-anchor="middle" x="377.5" y="-258" font-family="Helvetica,sans-Serif" font-size="10.00">_views_set</text>
</a>
</g>
</g>
<!-- Node4&#45;&gt;Node5 -->
<g id="edge4" class="edge"><title>Node4&#45;&gt;Node5</title>
<path fill="none" stroke="midnightblue" d="M240.635,-221.519C251.083,-224.449 262.533,-227.76 273,-231 289.581,-236.133 307.533,-242.069 323.756,-247.577"/>
<polygon fill="midnightblue" stroke="midnightblue" points="323.012,-251.022 333.607,-250.941 325.274,-244.397 323.012,-251.022"/>
</g>
<!-- Node6 -->
<g id="node6" class="node"><title>Node6</title>
<g id="a_node6"><a xlink:href="structtlz_1_1references__grid.html#a5b4c4debbacfe143fd93753c04d84bca" target="_top" xlink:title="tlz::references_grid\l::rows">
<polygon fill="white" stroke="black" points="327.5,-202 327.5,-232 427.5,-232 427.5,-202 327.5,-202"/>
<text text-anchor="start" x="335.5" y="-220" font-family="Helvetica,sans-Serif" font-size="10.00">tlz::references_grid</text>
<text text-anchor="middle" x="377.5" y="-209" font-family="Helvetica,sans-Serif" font-size="10.00">::rows</text>
</a>
</g>
</g>
<!-- Node4&#45;&gt;Node6 -->
<g id="edge5" class="edge"><title>Node4&#45;&gt;Node6</title>
<path fill="none" stroke="midnightblue" d="M264.348,-213.721C281.39,-214.219 300,-214.763 317.076,-215.262"/>
<polygon fill="midnightblue" stroke="midnightblue" points="317.384,-218.773 327.482,-215.567 317.589,-211.776 317.384,-218.773"/>
</g>
<!-- Node7 -->
<g id="node7" class="node"><title>Node7</title>
<g id="a_node7"><a xlink:href="structtlz_1_1references__grid.html#ac2d383bed7f034aa729ae386b689ad6d" target="_top" xlink:title="tlz::references_grid\l::cols">
<polygon fill="white" stroke="black" points="327.5,-153 327.5,-183 427.5,-183 427.5,-153 327.5,-153"/>
<text text-anchor="start" x="335.5" y="-171" font-family="Helvetica,sans-Serif" font-size="10.00">tlz::references_grid</text>
<text text-anchor="middle" x="377.5" y="-160" font-family="Helvetica,sans-Serif" font-size="10.00">::cols</text>
</a>
</g>
</g>
<!-- Node4&#45;&gt;Node7 -->
<g id="edge6" class="edge"><title>Node4&#45;&gt;Node7</title>
<path fill="none" stroke="midnightblue" d="M242.604,-202.453C264.544,-196.807 292.822,-189.531 317.734,-183.121"/>
<polygon fill="midnightblue" stroke="midnightblue" points="318.641,-186.502 327.454,-180.62 316.897,-179.723 318.641,-186.502"/>
</g>
<!-- Node8 -->
<g id="node8" class="node"><title>Node8</title>
<g id="a_node8"><a xlink:href="structtlz_1_1references__grid.html#a3ad2b6212dea0a1b71addfee4fc6bfba" target="_top" xlink:title="tlz::references_grid\l::view">
<polygon fill="white" stroke="black" points="327.5,-300 327.5,-330 427.5,-330 427.5,-300 327.5,-300"/>
<text text-anchor="start" x="335.5" y="-318" font-family="Helvetica,sans-Serif" font-size="10.00">tlz::references_grid</text>
<text text-anchor="middle" x="377.5" y="-307" font-family="Helvetica,sans-Serif" font-size="10.00">::view</text>
</a>
</g>
</g>
<!-- Node4&#45;&gt;Node8 -->
<g id="edge7" class="edge"><title>Node4&#45;&gt;Node8</title>
<path fill="none" stroke="midnightblue" d="M255.846,-221.505C261.975,-223.973 267.873,-227.083 273,-231 297.712,-249.879 284.936,-271.301 309,-291 311.914,-293.386 315.084,-295.543 318.407,-297.492"/>
<polygon fill="midnightblue" stroke="midnightblue" points="317.002,-300.705 327.493,-302.18 320.211,-294.485 317.002,-300.705"/>
</g>
<!-- Node9&#45;&gt;Node3 -->
<g id="edge9" class="edge"><title>Node9&#45;&gt;Node3</title>
<path fill="none" stroke="midnightblue" d="M264.348,-124C275.407,-124 287.127,-124 298.659,-124"/>
<polygon fill="midnightblue" stroke="midnightblue" points="298.724,-127.5 308.724,-124 298.724,-120.5 298.724,-127.5"/>
</g>
<!-- Node10 -->
<g id="node10" class="node"><title>Node10</title>
<g id="a_node10"><a xlink:href="namespacetlz.html#a35f9e03fa4fd9cec699f5fa27962400f" target="_top" xlink:title="tlz::json_arg">
<polygon fill="white" stroke="black" points="342.5,-76.5 342.5,-95.5 412.5,-95.5 412.5,-76.5 342.5,-76.5"/>
<text text-anchor="middle" x="377.5" y="-83.5" font-family="Helvetica,sans-Serif" font-size="10.00">tlz::json_arg</text>
</a>
</g>
</g>
<!-- Node9&#45;&gt;Node10 -->
<g id="edge10" class="edge"><title>Node9&#45;&gt;Node10</title>
<path fill="none" stroke="midnightblue" d="M248.651,-114.411C274.243,-108.724 306.608,-101.532 332.37,-95.8067"/>
<polygon fill="midnightblue" stroke="midnightblue" points="333.246,-99.1974 342.249,-93.6114 331.728,-92.3641 333.246,-99.1974"/>
</g>
<!-- Node11 -->
<g id="node11" class="node"><title>Node11</title>
<g id="a_node11"><a xlink:href="namespacetlz.html#aa1be9362f548fcf9378e1fc9074089c4" target="_top" xlink:title="tlz::import_json_file">
<polygon fill="white" stroke="black" points="482,-95.5 482,-114.5 583,-114.5 583,-95.5 482,-95.5"/>
<text text-anchor="middle" x="532.5" y="-102.5" font-family="Helvetica,sans-Serif" font-size="10.00">tlz::import_json_file</text>
</a>
</g>
</g>
<!-- Node10&#45;&gt;Node11 -->
<g id="edge11" class="edge"><title>Node10&#45;&gt;Node11</title>
<path fill="none" stroke="midnightblue" d="M412.836,-90.264C430.247,-92.4261 451.895,-95.1144 471.916,-97.6006"/>
<polygon fill="midnightblue" stroke="midnightblue" points="471.54,-101.081 481.895,-98.84 472.403,-94.1342 471.54,-101.081"/>
</g>
<!-- Node12 -->
<g id="node12" class="node"><title>Node12</title>
<g id="a_node12"><a xlink:href="namespacetlz.html#a634de7ca11e100e4a118dffe80376a75" target="_top" xlink:title="tlz::in_filename_arg">
<polygon fill="white" stroke="black" points="482,-57.5 482,-76.5 583,-76.5 583,-57.5 482,-57.5"/>
<text text-anchor="middle" x="532.5" y="-64.5" font-family="Helvetica,sans-Serif" font-size="10.00">tlz::in_filename_arg</text>
</a>
</g>
</g>
<!-- Node10&#45;&gt;Node12 -->
<g id="edge12" class="edge"><title>Node10&#45;&gt;Node12</title>
<path fill="none" stroke="midnightblue" d="M412.836,-81.736C430.247,-79.5739 451.895,-76.8856 471.916,-74.3994"/>
<polygon fill="midnightblue" stroke="midnightblue" points="472.403,-77.8658 481.895,-73.16 471.54,-70.9192 472.403,-77.8658"/>
</g>
<!-- Node13 -->
<g id="node13" class="node"><title>Node13</title>
<g id="a_node13"><a xlink:href="namespacetlz.html#a0621d598fb83b13bf028f3e6293d04f8" target="_top" xlink:title="tlz::string_arg">
<polygon fill="white" stroke="black" points="619.5,-76.5 619.5,-95.5 695.5,-95.5 695.5,-76.5 619.5,-76.5"/>
<text text-anchor="middle" x="657.5" y="-83.5" font-family="Helvetica,sans-Serif" font-size="10.00">tlz::string_arg</text>
</a>
</g>
</g>
<!-- Node12&#45;&gt;Node13 -->
<g id="edge13" class="edge"><title>Node12&#45;&gt;Node13</title>
<path fill="none" stroke="midnightblue" d="M583.174,-74.6733C591.706,-75.9912 600.554,-77.358 609.027,-78.6667"/>
<polygon fill="midnightblue" stroke="midnightblue" points="608.712,-82.1595 619.129,-80.2272 609.781,-75.2416 608.712,-82.1595"/>
</g>
<!-- Node14 -->
<g id="node14" class="node"><title>Node14</title>
<g id="a_node14"><a xlink:href="namespacetlz.html#a780431daab8d2595372eacb43143b52d" target="_top" xlink:title="tlz::args">
<polygon fill="white" stroke="black" points="762.5,-114.5 762.5,-133.5 814.5,-133.5 814.5,-114.5 762.5,-114.5"/>
<text text-anchor="middle" x="788.5" y="-121.5" font-family="Helvetica,sans-Serif" font-size="10.00">tlz::args</text>
</a>
</g>
</g>
<!-- Node12&#45;&gt;Node14 -->
<g id="edge19" class="edge"><title>Node12&#45;&gt;Node14</title>
<path fill="none" stroke="midnightblue" d="M560.201,-76.5811C567.655,-79.4357 575.708,-82.6902 583,-86 599.474,-93.477 601.711,-99.6716 619,-105 663.617,-118.751 717.622,-122.756 752.259,-123.813"/>
<polygon fill="midnightblue" stroke="midnightblue" points="752.274,-127.315 762.354,-124.054 752.441,-120.317 752.274,-127.315"/>
</g>
<!-- Node16 -->
<g id="node16" class="node"><title>Node16</title>
<g id="a_node16"><a xlink:href="classtlz_1_1args__list.html#a38ad21acd64a4af98ffdf4a47837cdbe" target="_top" xlink:title="tlz::args_list::usage_fail">
<polygon fill="white" stroke="black" points="881,-38.5 881,-57.5 1001,-57.5 1001,-38.5 881,-38.5"/>
<text text-anchor="middle" x="941" y="-45.5" font-family="Helvetica,sans-Serif" font-size="10.00">tlz::args_list::usage_fail</text>
</a>
</g>
</g>
<!-- Node12&#45;&gt;Node16 -->
<g id="edge20" class="edge"><title>Node12&#45;&gt;Node16</title>
<path fill="none" stroke="midnightblue" d="M583.345,-64.6702C655.419,-61.3015 789.021,-55.0568 870.668,-51.2406"/>
<polygon fill="midnightblue" stroke="midnightblue" points="871.025,-54.7278 880.851,-50.7647 870.698,-47.7355 871.025,-54.7278"/>
</g>
<!-- Node18 -->
<g id="node18" class="node"><title>Node18</title>
<g id="a_node18"><a xlink:href="namespacetlz.html#abb019466ea9f56c0dab27e893d891837" target="_top" xlink:title="tlz::file_exists">
<polygon fill="white" stroke="black" points="619,-0.5 619,-19.5 696,-19.5 696,-0.5 619,-0.5"/>
<text text-anchor="middle" x="657.5" y="-7.5" font-family="Helvetica,sans-Serif" font-size="10.00">tlz::file_exists</text>
</a>
</g>
</g>
<!-- Node12&#45;&gt;Node18 -->
<g id="edge18" class="edge"><title>Node12&#45;&gt;Node18</title>
<path fill="none" stroke="midnightblue" d="M554.087,-57.4595C573.954,-48.2528 604.246,-34.2153 626.737,-23.7926"/>
<polygon fill="midnightblue" stroke="midnightblue" points="628.244,-26.9519 635.845,-19.5716 625.301,-20.6007 628.244,-26.9519"/>
</g>
<!-- Node13&#45;&gt;Node14 -->
<g id="edge14" class="edge"><title>Node13&#45;&gt;Node14</title>
<path fill="none" stroke="midnightblue" d="M691.052,-95.589C709.78,-101.106 733.314,-108.038 752.447,-113.674"/>
<polygon fill="midnightblue" stroke="midnightblue" points="751.701,-117.103 762.283,-116.572 753.679,-110.389 751.701,-117.103"/>
</g>
<!-- Node15 -->
<g id="node15" class="node"><title>Node15</title>
<g id="a_node15"><a xlink:href="classtlz_1_1args__list.html#a73d99bc75998dc14607a3a372d28dc6d" target="_top" xlink:title="tlz::args_list::next_arg">
<polygon fill="white" stroke="black" points="732,-76.5 732,-95.5 845,-95.5 845,-76.5 732,-76.5"/>
<text text-anchor="middle" x="788.5" y="-83.5" font-family="Helvetica,sans-Serif" font-size="10.00">tlz::args_list::next_arg</text>
</a>
</g>
</g>
<!-- Node13&#45;&gt;Node15 -->
<g id="edge15" class="edge"><title>Node13&#45;&gt;Node15</title>
<path fill="none" stroke="midnightblue" d="M695.812,-86C703.835,-86 712.544,-86 721.295,-86"/>
<polygon fill="midnightblue" stroke="midnightblue" points="721.549,-89.5001 731.549,-86 721.549,-82.5001 721.549,-89.5001"/>
</g>
<!-- Node15&#45;&gt;Node16 -->
<g id="edge16" class="edge"><title>Node15&#45;&gt;Node16</title>
<path fill="none" stroke="midnightblue" d="M827.478,-76.411C847.159,-71.4417 871.391,-65.3233 892.321,-60.0387"/>
<polygon fill="midnightblue" stroke="midnightblue" points="893.457,-63.3617 902.296,-57.5201 891.743,-56.5747 893.457,-63.3617"/>
</g>
<!-- Node17 -->
<g id="node17" class="node"><title>Node17</title>
<g id="a_node17"><a xlink:href="namespacetlz.html#a8e4f8c8c2927bc4350de13bfa0f8f9e1" target="_top" xlink:title="tlz::to_string">
<polygon fill="white" stroke="black" points="905.5,-76.5 905.5,-95.5 976.5,-95.5 976.5,-76.5 905.5,-76.5"/>
<text text-anchor="middle" x="941" y="-83.5" font-family="Helvetica,sans-Serif" font-size="10.00">tlz::to_string</text>
</a>
</g>
</g>
<!-- Node15&#45;&gt;Node17 -->
<g id="edge17" class="edge"><title>Node15&#45;&gt;Node17</title>
<path fill="none" stroke="midnightblue" d="M845.113,-86C861.441,-86 879.096,-86 894.698,-86"/>
<polygon fill="midnightblue" stroke="midnightblue" points="895.13,-89.5001 905.13,-86 895.129,-82.5001 895.13,-89.5001"/>
</g>
</g>
</svg>
