<?xml version="1.0" encoding="UTF-8" standalone="no"?>
<!DOCTYPE svg PUBLIC "-//W3C//DTD SVG 1.1//EN"
 "http://www.w3.org/Graphics/SVG/1.1/DTD/svg11.dtd">
<!-- Generated by graphviz version 2.38.0 (20140413.2041)
 -->
<!-- Title: tlz::view_index::view_index Pages: 1 -->
<svg width="418pt" height="104pt"
 viewBox="0.00 0.00 418.00 104.00" xmlns="http://www.w3.org/2000/svg" xmlns:xlink="http://www.w3.org/1999/xlink">
<g id="graph0" class="graph" transform="scale(1 1) rotate(0) translate(4 100)">
<title>tlz::view_index::view_index</title>
<polygon fill="white" stroke="none" points="-4,4 -4,-100 414,-100 414,4 -4,4"/>
<!-- Node1 -->
<g id="node1" class="node"><title>Node1</title>
<polygon fill="#bfbfbf" stroke="black" points="0,-33 0,-63 108,-63 108,-33 0,-33"/>
<text text-anchor="start" x="8" y="-51" font-family="Helvetica,sans-Serif" font-size="10.00">tlz::view_index::view</text>
<text text-anchor="middle" x="54" y="-40" font-family="Helvetica,sans-Serif" font-size="10.00">_index</text>
</g>
<!-- Node2 -->
<g id="node2" class="node"><title>Node2</title>
<g id="a_node2"><a xlink:href="namespacetlz.html#aadab29bdc80bc1d0ad6d3784dd427992" target="_top" xlink:title="tlz::encode_view_index">
<polygon fill="white" stroke="black" points="144,-76.5 144,-95.5 263,-95.5 263,-76.5 144,-76.5"/>
<text text-anchor="middle" x="203.5" y="-83.5" font-family="Helvetica,sans-Serif" font-size="10.00">tlz::encode_view_index</text>
</a>
</g>
</g>
<!-- Node1&#45;&gt;Node2 -->
<g id="edge1" class="edge"><title>Node1&#45;&gt;Node2</title>
<path fill="none" stroke="midnightblue" d="M108.251,-61.7189C123.672,-65.6917 140.391,-69.9991 155.407,-73.8676"/>
<polygon fill="midnightblue" stroke="midnightblue" points="154.937,-77.3606 165.494,-76.4662 156.683,-70.582 154.937,-77.3606"/>
</g>
<!-- Node5 -->
<g id="node5" class="node"><title>Node5</title>
<g id="a_node5"><a xlink:href="namespacetlz.html#a74e8454f97dace7cffb1afdb6d3ca87b" target="_top" xlink:title="tlz::decode_view_index">
<polygon fill="white" stroke="black" points="144,-38.5 144,-57.5 263,-57.5 263,-38.5 144,-38.5"/>
<text text-anchor="middle" x="203.5" y="-45.5" font-family="Helvetica,sans-Serif" font-size="10.00">tlz::decode_view_index</text>
</a>
</g>
</g>
<!-- Node1&#45;&gt;Node5 -->
<g id="edge4" class="edge"><title>Node1&#45;&gt;Node5</title>
<path fill="none" stroke="midnightblue" d="M108.251,-48C116.554,-48 125.234,-48 133.822,-48"/>
<polygon fill="midnightblue" stroke="midnightblue" points="133.833,-51.5001 143.833,-48 133.833,-44.5001 133.833,-51.5001"/>
</g>
<!-- Node6 -->
<g id="node6" class="node"><title>Node6</title>
<g id="a_node6"><a xlink:href="namespacetlz.html#ae05c31549882702b59b5eb314196d14c" target="_top" xlink:title="tlz::operator\&lt;\&lt;">
<polygon fill="white" stroke="black" points="163.5,-0.5 163.5,-19.5 243.5,-19.5 243.5,-0.5 163.5,-0.5"/>
<text text-anchor="middle" x="203.5" y="-7.5" font-family="Helvetica,sans-Serif" font-size="10.00">tlz::operator&lt;&lt;</text>
</a>
</g>
</g>
<!-- Node1&#45;&gt;Node6 -->
<g id="edge5" class="edge"><title>Node1&#45;&gt;Node6</title>
<path fill="none" stroke="midnightblue" d="M108.251,-34.2811C123.672,-30.3083 140.391,-26.0009 155.407,-22.1324"/>
<polygon fill="midnightblue" stroke="midnightblue" points="156.683,-25.418 165.494,-19.5338 154.937,-18.6394 156.683,-25.418"/>
</g>
<!-- Node3 -->
<g id="node3" class="node"><title>Node3</title>
<g id="a_node3"><a xlink:href="namespacetlz.html#a8e4f8c8c2927bc4350de13bfa0f8f9e1" target="_top" xlink:title="tlz::to_string">
<polygon fill="white" stroke="black" points="319,-76.5 319,-95.5 390,-95.5 390,-76.5 319,-76.5"/>
<text text-anchor="middle" x="354.5" y="-83.5" font-family="Helvetica,sans-Serif" font-size="10.00">tlz::to_string</text>
</a>
</g>
</g>
<!-- Node2&#45;&gt;Node3 -->
<g id="edge2" class="edge"><title>Node2&#45;&gt;Node3</title>
<path fill="none" stroke="midnightblue" d="M263.389,-86C278.444,-86 294.389,-86 308.614,-86"/>
<polygon fill="midnightblue" stroke="midnightblue" points="308.631,-89.5001 318.631,-86 308.631,-82.5001 308.631,-89.5001"/>
</g>
<!-- Node4 -->
<g id="node4" class="node"><title>Node4</title>
<g id="a_node4"><a xlink:href="structtlz_1_1view__index.html#a20518c30015d833cdb2a69b524886b96" target="_top" xlink:title="tlz::view_index::is_2d">
<polygon fill="white" stroke="black" points="299,-19.5 299,-38.5 410,-38.5 410,-19.5 299,-19.5"/>
<text text-anchor="middle" x="354.5" y="-26.5" font-family="Helvetica,sans-Serif" font-size="10.00">tlz::view_index::is_2d</text>
</a>
</g>
</g>
<!-- Node2&#45;&gt;Node4 -->
<g id="edge3" class="edge"><title>Node2&#45;&gt;Node4</title>
<path fill="none" stroke="midnightblue" d="M235.634,-76.4209C244.526,-73.5413 254.191,-70.2733 263,-67 283.029,-59.5571 305.149,-50.2888 322.507,-42.7689"/>
<polygon fill="midnightblue" stroke="midnightblue" points="324.36,-45.7789 332.125,-38.5703 321.56,-39.3635 324.36,-45.7789"/>
</g>
<!-- Node6&#45;&gt;Node4 -->
<g id="edge6" class="edge"><title>Node6&#45;&gt;Node4</title>
<path fill="none" stroke="midnightblue" d="M243.648,-14.992C257.511,-16.7598 273.5,-18.7987 288.913,-20.7641"/>
<polygon fill="midnightblue" stroke="midnightblue" points="288.568,-24.2483 298.93,-22.0414 289.453,-17.3045 288.568,-24.2483"/>
</g>
</g>
</svg>
