<?xml version="1.0" encoding="UTF-8" standalone="no"?>
<!DOCTYPE svg PUBLIC "-//W3C//DTD SVG 1.1//EN"
 "http://www.w3.org/Graphics/SVG/1.1/DTD/svg11.dtd">
<!-- Generated by graphviz version 2.38.0 (20140413.2041)
 -->
<!-- Title: main Pages: 1 -->
<svg width="731pt" height="154pt"
 viewBox="0.00 0.00 731.00 154.11" xmlns="http://www.w3.org/2000/svg" xmlns:xlink="http://www.w3.org/1999/xlink">
<g id="graph0" class="graph" transform="scale(1 1) rotate(0) translate(4 150.109)">
<title>main</title>
<polygon fill="white" stroke="none" points="-4,4 -4,-150.109 727,-150.109 727,4 -4,4"/>
<!-- Node1 -->
<g id="node1" class="node"><title>Node1</title>
<polygon fill="#bfbfbf" stroke="black" points="0,-82.5 0,-101.5 38,-101.5 38,-82.5 0,-82.5"/>
<text text-anchor="middle" x="19" y="-89.5" font-family="Helvetica,sans-Serif" font-size="10.00">main</text>
</g>
<!-- Node2 -->
<g id="node2" class="node"><title>Node2</title>
<g id="a_node2"><a xlink:href="namespacetlz.html#a3c03f5d9d6261ec2909938822fc47f8a" target="_top" xlink:title="tlz::get_args">
<polygon fill="white" stroke="black" points="83,-120.5 83,-139.5 154,-139.5 154,-120.5 83,-120.5"/>
<text text-anchor="middle" x="118.5" y="-127.5" font-family="Helvetica,sans-Serif" font-size="10.00">tlz::get_args</text>
</a>
</g>
</g>
<!-- Node1&#45;&gt;Node2 -->
<g id="edge1" class="edge"><title>Node1&#45;&gt;Node2</title>
<path fill="none" stroke="midnightblue" d="M38.339,-99.1475C51.0092,-104.086 68.2426,-110.802 83.3952,-116.708"/>
<polygon fill="midnightblue" stroke="midnightblue" points="82.3948,-120.074 92.9832,-120.445 84.9368,-113.552 82.3948,-120.074"/>
</g>
<!-- Node3 -->
<g id="node3" class="node"><title>Node3</title>
<g id="a_node3"><a xlink:href="namespacetlz.html#a65770a2c1ff57c5ae6542d4465a3d3f4" target="_top" xlink:title="tlz::out_filename_arg">
<polygon fill="white" stroke="black" points="199,-0.5 199,-19.5 306,-19.5 306,-0.5 199,-0.5"/>
<text text-anchor="middle" x="252.5" y="-7.5" font-family="Helvetica,sans-Serif" font-size="10.00">tlz::out_filename_arg</text>
</a>
</g>
</g>
<!-- Node1&#45;&gt;Node3 -->
<g id="edge2" class="edge"><title>Node1&#45;&gt;Node3</title>
<path fill="none" stroke="midnightblue" d="M38.1654,-85.5656C76.138,-72.1153 164.551,-40.7982 214.828,-22.9896"/>
<polygon fill="midnightblue" stroke="midnightblue" points="216.091,-26.2554 224.349,-19.6173 213.754,-19.6571 216.091,-26.2554"/>
</g>
<!-- Node9 -->
<g id="node9" class="node"><title>Node9</title>
<g id="a_node9"><a xlink:href="namespacetlz.html#a5186c46291b525427b48828632f7adec" target="_top" xlink:title="tlz::bool_opt_arg">
<polygon fill="white" stroke="black" points="74,-82.5 74,-101.5 163,-101.5 163,-82.5 74,-82.5"/>
<text text-anchor="middle" x="118.5" y="-89.5" font-family="Helvetica,sans-Serif" font-size="10.00">tlz::bool_opt_arg</text>
</a>
</g>
</g>
<!-- Node1&#45;&gt;Node9 -->
<g id="edge8" class="edge"><title>Node1&#45;&gt;Node9</title>
<path fill="none" stroke="midnightblue" d="M38.339,-92C45.6334,-92 54.4403,-92 63.4918,-92"/>
<polygon fill="midnightblue" stroke="midnightblue" points="63.7477,-95.5001 73.7477,-92 63.7476,-88.5001 63.7477,-95.5001"/>
</g>
<!-- Node4 -->
<g id="node4" class="node"><title>Node4</title>
<g id="a_node4"><a xlink:href="namespacetlz.html#a0621d598fb83b13bf028f3e6293d04f8" target="_top" xlink:title="tlz::string_arg">
<polygon fill="white" stroke="black" points="342,-45.5 342,-64.5 418,-64.5 418,-45.5 342,-45.5"/>
<text text-anchor="middle" x="380" y="-52.5" font-family="Helvetica,sans-Serif" font-size="10.00">tlz::string_arg</text>
</a>
</g>
</g>
<!-- Node3&#45;&gt;Node4 -->
<g id="edge3" class="edge"><title>Node3&#45;&gt;Node4</title>
<path fill="none" stroke="midnightblue" d="M280.115,-19.5433C298.418,-26.1061 322.943,-34.8997 342.989,-42.0876"/>
<polygon fill="midnightblue" stroke="midnightblue" points="341.829,-45.3897 352.423,-45.4704 344.191,-38.8005 341.829,-45.3897"/>
</g>
<!-- Node5 -->
<g id="node5" class="node"><title>Node5</title>
<g id="a_node5"><a xlink:href="namespacetlz.html#a780431daab8d2595372eacb43143b52d" target="_top" xlink:title="tlz::args">
<polygon fill="white" stroke="black" points="484.5,-101.5 484.5,-120.5 536.5,-120.5 536.5,-101.5 484.5,-101.5"/>
<text text-anchor="middle" x="510.5" y="-108.5" font-family="Helvetica,sans-Serif" font-size="10.00">tlz::args</text>
</a>
</g>
</g>
<!-- Node4&#45;&gt;Node5 -->
<g id="edge4" class="edge"><title>Node4&#45;&gt;Node5</title>
<path fill="none" stroke="midnightblue" d="M403.09,-64.6267C423.81,-73.6565 455.004,-87.2506 478.267,-97.3889"/>
<polygon fill="midnightblue" stroke="midnightblue" points="477.133,-100.712 487.698,-101.499 479.929,-94.2952 477.133,-100.712"/>
</g>
<!-- Node6 -->
<g id="node6" class="node"><title>Node6</title>
<g id="a_node6"><a xlink:href="classtlz_1_1args__list.html#a73d99bc75998dc14607a3a372d28dc6d" target="_top" xlink:title="tlz::args_list::next_arg">
<polygon fill="white" stroke="black" points="454,-51.5 454,-70.5 567,-70.5 567,-51.5 454,-51.5"/>
<text text-anchor="middle" x="510.5" y="-58.5" font-family="Helvetica,sans-Serif" font-size="10.00">tlz::args_list::next_arg</text>
</a>
</g>
</g>
<!-- Node4&#45;&gt;Node6 -->
<g id="edge5" class="edge"><title>Node4&#45;&gt;Node6</title>
<path fill="none" stroke="midnightblue" d="M418.168,-56.7354C426.159,-57.1086 434.834,-57.5137 443.552,-57.9207"/>
<polygon fill="midnightblue" stroke="midnightblue" points="443.613,-61.4273 453.766,-58.3976 443.94,-54.4349 443.613,-61.4273"/>
</g>
<!-- Node7 -->
<g id="node7" class="node"><title>Node7</title>
<g id="a_node7"><a xlink:href="classtlz_1_1args__list.html#a38ad21acd64a4af98ffdf4a47837cdbe" target="_top" xlink:title="tlz::args_list::usage_fail">
<polygon fill="white" stroke="black" points="603,-70.5 603,-89.5 723,-89.5 723,-70.5 603,-70.5"/>
<text text-anchor="middle" x="663" y="-77.5" font-family="Helvetica,sans-Serif" font-size="10.00">tlz::args_list::usage_fail</text>
</a>
</g>
</g>
<!-- Node6&#45;&gt;Node7 -->
<g id="edge6" class="edge"><title>Node6&#45;&gt;Node7</title>
<path fill="none" stroke="midnightblue" d="M567.113,-68.0209C575.479,-69.077 584.192,-70.1771 592.8,-71.2638"/>
<polygon fill="midnightblue" stroke="midnightblue" points="592.468,-74.7496 602.828,-72.5298 593.345,-67.8048 592.468,-74.7496"/>
</g>
<!-- Node8 -->
<g id="node8" class="node"><title>Node8</title>
<g id="a_node8"><a xlink:href="namespacetlz.html#a8e4f8c8c2927bc4350de13bfa0f8f9e1" target="_top" xlink:title="tlz::to_string">
<polygon fill="white" stroke="black" points="627.5,-32.5 627.5,-51.5 698.5,-51.5 698.5,-32.5 627.5,-32.5"/>
<text text-anchor="middle" x="663" y="-39.5" font-family="Helvetica,sans-Serif" font-size="10.00">tlz::to_string</text>
</a>
</g>
</g>
<!-- Node6&#45;&gt;Node8 -->
<g id="edge7" class="edge"><title>Node6&#45;&gt;Node8</title>
<path fill="none" stroke="midnightblue" d="M567.113,-53.9791C583.598,-51.8979 601.435,-49.6461 617.147,-47.6625"/>
<polygon fill="midnightblue" stroke="midnightblue" points="617.647,-51.1273 627.13,-46.4023 616.77,-44.1824 617.647,-51.1273"/>
</g>
<!-- Node9&#45;&gt;Node5 -->
<g id="edge9" class="edge"><title>Node9&#45;&gt;Node5</title>
<path fill="none" stroke="midnightblue" d="M143.255,-101.677C149.743,-104.508 156.714,-107.726 163,-111 179.631,-119.662 180.95,-127.921 199,-133 295.923,-160.271 416.231,-136.194 474.548,-121.065"/>
<polygon fill="midnightblue" stroke="midnightblue" points="475.602,-124.407 484.363,-118.45 473.799,-117.643 475.602,-124.407"/>
</g>
<!-- Node10 -->
<g id="node10" class="node"><title>Node10</title>
<g id="a_node10"><a xlink:href="classtlz_1_1args__list.html#a4aee93f4b0d9b5b4e7a5d13cb637337c" target="_top" xlink:title="tlz::args_list::has\l_next_arg">
<polygon fill="white" stroke="black" points="206.5,-77 206.5,-107 298.5,-107 298.5,-77 206.5,-77"/>
<text text-anchor="start" x="214.5" y="-95" font-family="Helvetica,sans-Serif" font-size="10.00">tlz::args_list::has</text>
<text text-anchor="middle" x="252.5" y="-84" font-family="Helvetica,sans-Serif" font-size="10.00">_next_arg</text>
</a>
</g>
</g>
<!-- Node9&#45;&gt;Node10 -->
<g id="edge10" class="edge"><title>Node9&#45;&gt;Node10</title>
<path fill="none" stroke="midnightblue" d="M163.088,-92C173.559,-92 184.884,-92 195.821,-92"/>
<polygon fill="midnightblue" stroke="midnightblue" points="196.148,-95.5001 206.148,-92 196.148,-88.5001 196.148,-95.5001"/>
</g>
<!-- Node11 -->
<g id="node11" class="node"><title>Node11</title>
<g id="a_node11"><a xlink:href="namespacetlz.html#ac18630fe66cc71c8cc5eb6acce057f5f" target="_top" xlink:title="tlz::bool_arg">
<polygon fill="white" stroke="black" points="345,-101.5 345,-120.5 415,-120.5 415,-101.5 345,-101.5"/>
<text text-anchor="middle" x="380" y="-108.5" font-family="Helvetica,sans-Serif" font-size="10.00">tlz::bool_arg</text>
</a>
</g>
</g>
<!-- Node9&#45;&gt;Node11 -->
<g id="edge11" class="edge"><title>Node9&#45;&gt;Node11</title>
<path fill="none" stroke="midnightblue" d="M144.489,-101.605C159.936,-107.021 180.316,-113.241 199,-116 244.882,-122.775 298.036,-120.018 334.624,-116.502"/>
<polygon fill="midnightblue" stroke="midnightblue" points="335.36,-119.945 344.953,-115.447 334.649,-112.981 335.36,-119.945"/>
</g>
<!-- Node12 -->
<g id="node12" class="node"><title>Node12</title>
<g id="a_node12"><a xlink:href="namespacetlz.html#abea9308e4287a82deb9e44e7cc9782a0" target="_top" xlink:title="tlz::view_index_arg">
<polygon fill="white" stroke="black" points="202,-38.5 202,-57.5 303,-57.5 303,-38.5 202,-38.5"/>
<text text-anchor="middle" x="252.5" y="-45.5" font-family="Helvetica,sans-Serif" font-size="10.00">tlz::view_index_arg</text>
</a>
</g>
</g>
<!-- Node9&#45;&gt;Node12 -->
<g id="edge14" class="edge"><title>Node9&#45;&gt;Node12</title>
<path fill="none" stroke="midnightblue" d="M148.142,-82.4527C167.256,-76.0814 192.602,-67.6325 213.411,-60.6962"/>
<polygon fill="midnightblue" stroke="midnightblue" points="214.534,-64.0115 222.914,-57.5287 212.32,-57.3707 214.534,-64.0115"/>
</g>
<!-- Node11&#45;&gt;Node5 -->
<g id="edge12" class="edge"><title>Node11&#45;&gt;Node5</title>
<path fill="none" stroke="midnightblue" d="M415.098,-111C433.332,-111 455.756,-111 474.173,-111"/>
<polygon fill="midnightblue" stroke="midnightblue" points="474.216,-114.5 484.216,-111 474.216,-107.5 474.216,-114.5"/>
</g>
<!-- Node11&#45;&gt;Node6 -->
<g id="edge13" class="edge"><title>Node11&#45;&gt;Node6</title>
<path fill="none" stroke="midnightblue" d="M405.472,-101.478C425.263,-93.777 453.355,-82.8462 475.359,-74.2844"/>
<polygon fill="midnightblue" stroke="midnightblue" points="476.631,-77.5452 484.681,-70.6572 474.093,-71.0217 476.631,-77.5452"/>
</g>
<!-- Node12&#45;&gt;Node4 -->
<g id="edge15" class="edge"><title>Node12&#45;&gt;Node4</title>
<path fill="none" stroke="midnightblue" d="M303.101,-50.7666C312.46,-51.2886 322.227,-51.8334 331.518,-52.3516"/>
<polygon fill="midnightblue" stroke="midnightblue" points="331.58,-55.8604 341.76,-52.9229 331.97,-48.8713 331.58,-55.8604"/>
</g>
</g>
</svg>
