<?xml version="1.0" encoding="UTF-8" standalone="no"?>
<!DOCTYPE svg PUBLIC "-//W3C//DTD SVG 1.1//EN"
 "http://www.w3.org/Graphics/SVG/1.1/DTD/svg11.dtd">
<!-- Generated by graphviz version 2.38.0 (20140413.2041)
 -->
<!-- Title: main Pages: 1 -->
<svg width="410pt" height="180pt"
 viewBox="0.00 0.00 410.00 180.00" xmlns="http://www.w3.org/2000/svg" xmlns:xlink="http://www.w3.org/1999/xlink">
<g id="graph0" class="graph" transform="scale(1 1) rotate(0) translate(4 176)">
<title>main</title>
<polygon fill="white" stroke="none" points="-4,4 -4,-176 406,-176 406,4 -4,4"/>
<!-- Node1 -->
<g id="node1" class="node"><title>Node1</title>
<polygon fill="#bfbfbf" stroke="black" points="0,-76.5 0,-95.5 38,-95.5 38,-76.5 0,-76.5"/>
<text text-anchor="middle" x="19" y="-83.5" font-family="Helvetica,sans-Serif" font-size="10.00">main</text>
</g>
<!-- Node2 -->
<g id="node2" class="node"><title>Node2</title>
<g id="a_node2"><a xlink:href="transform_8cc.html#a205ae6ee6c7633d92fbdff0e8851ca79" target="_top" xlink:title="usage_fail">
<polygon fill="white" stroke="black" points="104,-152.5 104,-171.5 165,-171.5 165,-152.5 104,-152.5"/>
<text text-anchor="middle" x="134.5" y="-159.5" font-family="Helvetica,sans-Serif" font-size="10.00">usage_fail</text>
</a>
</g>
</g>
<!-- Node1&#45;&gt;Node2 -->
<g id="edge1" class="edge"><title>Node1&#45;&gt;Node2</title>
<path fill="none" stroke="midnightblue" d="M26.8893,-95.9154C36.1855,-108.586 53.9136,-130.386 74,-143 80.0465,-146.797 86.9187,-149.898 93.792,-152.409"/>
<polygon fill="midnightblue" stroke="midnightblue" points="93.1739,-155.89 103.767,-155.68 95.3548,-149.238 93.1739,-155.89"/>
</g>
<!-- Node3 -->
<g id="node3" class="node"><title>Node3</title>
<g id="a_node3"><a xlink:href="namespacetlz.html#a8d445609e681336909da63eb443186b4" target="_top" xlink:title="tlz::decode_cameras">
<polygon fill="white" stroke="black" points="81,-114.5 81,-133.5 188,-133.5 188,-114.5 81,-114.5"/>
<text text-anchor="middle" x="134.5" y="-121.5" font-family="Helvetica,sans-Serif" font-size="10.00">tlz::decode_cameras</text>
</a>
</g>
</g>
<!-- Node1&#45;&gt;Node3 -->
<g id="edge2" class="edge"><title>Node1&#45;&gt;Node3</title>
<path fill="none" stroke="midnightblue" d="M38.4484,-92.6412C48.8611,-96.3519 62.128,-101.017 74,-105 80.1394,-107.06 86.6523,-109.193 93.0304,-111.252"/>
<polygon fill="midnightblue" stroke="midnightblue" points="92.2779,-114.686 102.869,-114.407 94.4155,-108.021 92.2779,-114.686"/>
</g>
<!-- Node5 -->
<g id="node5" class="node"><title>Node5</title>
<g id="a_node5"><a xlink:href="namespacetlz.html#aa1be9362f548fcf9378e1fc9074089c4" target="_top" xlink:title="tlz::import_json_file">
<polygon fill="white" stroke="black" points="84,-76.5 84,-95.5 185,-95.5 185,-76.5 84,-76.5"/>
<text text-anchor="middle" x="134.5" y="-83.5" font-family="Helvetica,sans-Serif" font-size="10.00">tlz::import_json_file</text>
</a>
</g>
</g>
<!-- Node1&#45;&gt;Node5 -->
<g id="edge4" class="edge"><title>Node1&#45;&gt;Node5</title>
<path fill="none" stroke="midnightblue" d="M38.2357,-86C48.026,-86 60.7117,-86 73.6143,-86"/>
<polygon fill="midnightblue" stroke="midnightblue" points="73.9572,-89.5001 83.9572,-86 73.9571,-82.5001 73.9572,-89.5001"/>
</g>
<!-- Node6 -->
<g id="node6" class="node"><title>Node6</title>
<g id="a_node6"><a xlink:href="namespacetlz.html#a9517e892e5486b965a722d5589dc58c4" target="_top" xlink:title="tlz::decode_border">
<polygon fill="white" stroke="black" points="86,-38.5 86,-57.5 183,-57.5 183,-38.5 86,-38.5"/>
<text text-anchor="middle" x="134.5" y="-45.5" font-family="Helvetica,sans-Serif" font-size="10.00">tlz::decode_border</text>
</a>
</g>
</g>
<!-- Node1&#45;&gt;Node6 -->
<g id="edge5" class="edge"><title>Node1&#45;&gt;Node6</title>
<path fill="none" stroke="midnightblue" d="M38.4484,-79.3588C48.8611,-75.6481 62.128,-70.9832 74,-67 80.1394,-64.9402 86.6523,-62.8074 93.0304,-60.7479"/>
<polygon fill="midnightblue" stroke="midnightblue" points="94.4155,-63.9793 102.869,-57.5927 92.2779,-57.3137 94.4155,-63.9793"/>
</g>
<!-- Node9 -->
<g id="node9" class="node"><title>Node9</title>
<g id="a_node9"><a xlink:href="namespacetlz.html#a445f7e177edcda36ece43a5fcd78615f" target="_top" xlink:title="tlz::export_cameras_file">
<polygon fill="white" stroke="black" points="74,-0.5 74,-19.5 195,-19.5 195,-0.5 74,-0.5"/>
<text text-anchor="middle" x="134.5" y="-7.5" font-family="Helvetica,sans-Serif" font-size="10.00">tlz::export_cameras_file</text>
</a>
</g>
</g>
<!-- Node1&#45;&gt;Node9 -->
<g id="edge8" class="edge"><title>Node1&#45;&gt;Node9</title>
<path fill="none" stroke="midnightblue" d="M26.8893,-76.0846C36.1855,-63.4136 53.9136,-41.6143 74,-29 77.3145,-26.9185 80.8772,-25.0462 84.5521,-23.3656"/>
<polygon fill="midnightblue" stroke="midnightblue" points="85.9061,-26.5933 93.8409,-19.5727 83.2598,-20.1128 85.9061,-26.5933"/>
</g>
<!-- Node4 -->
<g id="node4" class="node"><title>Node4</title>
<g id="a_node4"><a xlink:href="namespacetlz.html#a066563a26e2de02f215b179f3d3a53da" target="_top" xlink:title="tlz::decode_mat">
<polygon fill="white" stroke="black" points="231,-114.5 231,-133.5 317,-133.5 317,-114.5 231,-114.5"/>
<text text-anchor="middle" x="274" y="-121.5" font-family="Helvetica,sans-Serif" font-size="10.00">tlz::decode_mat</text>
</a>
</g>
</g>
<!-- Node3&#45;&gt;Node4 -->
<g id="edge3" class="edge"><title>Node3&#45;&gt;Node4</title>
<path fill="none" stroke="midnightblue" d="M188.268,-124C198.943,-124 210.162,-124 220.817,-124"/>
<polygon fill="midnightblue" stroke="midnightblue" points="220.823,-127.5 230.823,-124 220.823,-120.5 220.823,-127.5"/>
</g>
<!-- Node7 -->
<g id="node7" class="node"><title>Node7</title>
<g id="a_node7"><a xlink:href="namespacetlz.html#add846dc50c32dfb356cb1a7ac11d37ac" target="_top" xlink:title="tlz::get_or">
<polygon fill="white" stroke="black" points="244,-38.5 244,-57.5 304,-57.5 304,-38.5 244,-38.5"/>
<text text-anchor="middle" x="274" y="-45.5" font-family="Helvetica,sans-Serif" font-size="10.00">tlz::get_or</text>
</a>
</g>
</g>
<!-- Node6&#45;&gt;Node7 -->
<g id="edge6" class="edge"><title>Node6&#45;&gt;Node7</title>
<path fill="none" stroke="midnightblue" d="M183.205,-48C199.591,-48 217.741,-48 233.411,-48"/>
<polygon fill="midnightblue" stroke="midnightblue" points="233.811,-51.5001 243.811,-48 233.811,-44.5001 233.811,-51.5001"/>
</g>
<!-- Node8 -->
<g id="node8" class="node"><title>Node8</title>
<g id="a_node8"><a xlink:href="namespacetlz.html#a252af14b9b4ac6502d3e9c5dd8dc90b8" target="_top" xlink:title="tlz::has">
<polygon fill="white" stroke="black" points="353,-38.5 353,-57.5 402,-57.5 402,-38.5 353,-38.5"/>
<text text-anchor="middle" x="377.5" y="-45.5" font-family="Helvetica,sans-Serif" font-size="10.00">tlz::has</text>
</a>
</g>
</g>
<!-- Node7&#45;&gt;Node8 -->
<g id="edge7" class="edge"><title>Node7&#45;&gt;Node8</title>
<path fill="none" stroke="midnightblue" d="M304.086,-48C316.168,-48 330.267,-48 342.797,-48"/>
<polygon fill="midnightblue" stroke="midnightblue" points="342.875,-51.5001 352.875,-48 342.875,-44.5001 342.875,-51.5001"/>
</g>
</g>
</svg>
