<?xml version="1.0" encoding="UTF-8" standalone="no"?>
<!DOCTYPE svg PUBLIC "-//W3C//DTD SVG 1.1//EN"
 "http://www.w3.org/Graphics/SVG/1.1/DTD/svg11.dtd">
<!-- Generated by graphviz version 2.38.0 (20140413.2041)
 -->
<!-- Title: main Pages: 1 -->
<svg width="899pt" height="408pt"
 viewBox="0.00 0.00 899.00 408.00" xmlns="http://www.w3.org/2000/svg" xmlns:xlink="http://www.w3.org/1999/xlink">
<g id="graph0" class="graph" transform="scale(1 1) rotate(0) translate(4 404)">
<title>main</title>
<polygon fill="white" stroke="none" points="-4,4 -4,-404 895,-404 895,4 -4,4"/>
<!-- Node1 -->
<g id="node1" class="node"><title>Node1</title>
<polygon fill="#bfbfbf" stroke="black" points="0,-190.5 0,-209.5 38,-209.5 38,-190.5 0,-190.5"/>
<text text-anchor="middle" x="19" y="-197.5" font-family="Helvetica,sans-Serif" font-size="10.00">main</text>
</g>
<!-- Node2 -->
<g id="node2" class="node"><title>Node2</title>
<g id="a_node2"><a xlink:href="namespacetlz.html#a3c03f5d9d6261ec2909938822fc47f8a" target="_top" xlink:title="tlz::get_args">
<polygon fill="white" stroke="black" points="84,-380.5 84,-399.5 155,-399.5 155,-380.5 84,-380.5"/>
<text text-anchor="middle" x="119.5" y="-387.5" font-family="Helvetica,sans-Serif" font-size="10.00">tlz::get_args</text>
</a>
</g>
</g>
<!-- Node1&#45;&gt;Node2 -->
<g id="edge1" class="edge"><title>Node1&#45;&gt;Node2</title>
<path fill="none" stroke="midnightblue" d="M20.6888,-209.814C23.1081,-237.5 33.4216,-317.366 74,-366 76.9259,-369.507 80.5008,-372.58 84.3398,-375.25"/>
<polygon fill="midnightblue" stroke="midnightblue" points="82.6429,-378.313 93.017,-380.465 86.2488,-372.314 82.6429,-378.313"/>
</g>
<!-- Node3 -->
<g id="node3" class="node"><title>Node3</title>
<g id="a_node3"><a xlink:href="namespacetlz.html#a634de7ca11e100e4a118dffe80376a75" target="_top" xlink:title="tlz::in_filename_arg">
<polygon fill="white" stroke="black" points="359,-266.5 359,-285.5 460,-285.5 460,-266.5 359,-266.5"/>
<text text-anchor="middle" x="409.5" y="-273.5" font-family="Helvetica,sans-Serif" font-size="10.00">tlz::in_filename_arg</text>
</a>
</g>
</g>
<!-- Node1&#45;&gt;Node3 -->
<g id="edge2" class="edge"><title>Node1&#45;&gt;Node3</title>
<path fill="none" stroke="midnightblue" d="M25.8549,-209.805C34.4817,-223.218 51.9913,-246.784 74,-257 162.7,-298.172 279.16,-293.462 348.666,-285.376"/>
<polygon fill="midnightblue" stroke="midnightblue" points="349.489,-288.801 358.989,-284.11 348.637,-281.853 349.489,-288.801"/>
</g>
<!-- Node10 -->
<g id="node10" class="node"><title>Node10</title>
<g id="a_node10"><a xlink:href="namespacetlz.html#a65770a2c1ff57c5ae6542d4465a3d3f4" target="_top" xlink:title="tlz::out_filename_arg">
<polygon fill="white" stroke="black" points="202,-342.5 202,-361.5 309,-361.5 309,-342.5 202,-342.5"/>
<text text-anchor="middle" x="255.5" y="-349.5" font-family="Helvetica,sans-Serif" font-size="10.00">tlz::out_filename_arg</text>
</a>
</g>
</g>
<!-- Node1&#45;&gt;Node10 -->
<g id="edge11" class="edge"><title>Node1&#45;&gt;Node10</title>
<path fill="none" stroke="midnightblue" d="M20.8958,-209.645C23.7119,-233.968 34.6951,-298.003 74,-328 107.078,-353.244 153.858,-358.874 191.506,-358.386"/>
<polygon fill="midnightblue" stroke="midnightblue" points="191.965,-361.874 201.863,-358.097 191.77,-354.877 191.965,-361.874"/>
</g>
<!-- Node11 -->
<g id="node11" class="node"><title>Node11</title>
<g id="a_node11"><a xlink:href="namespacetlz.html#a170805c7a8ede64a93e0ee23196e5b7c" target="_top" xlink:title="tlz::intrinsics_arg">
<polygon fill="white" stroke="black" points="74,-228.5 74,-247.5 165,-247.5 165,-228.5 74,-228.5"/>
<text text-anchor="middle" x="119.5" y="-235.5" font-family="Helvetica,sans-Serif" font-size="10.00">tlz::intrinsics_arg</text>
</a>
</g>
</g>
<!-- Node1&#45;&gt;Node11 -->
<g id="edge13" class="edge"><title>Node1&#45;&gt;Node11</title>
<path fill="none" stroke="midnightblue" d="M38.0664,-206.97C51.0366,-211.974 68.9085,-218.868 84.5123,-224.888"/>
<polygon fill="midnightblue" stroke="midnightblue" points="83.281,-228.164 93.8706,-228.498 85.8006,-221.634 83.281,-228.164"/>
</g>
<!-- Node18 -->
<g id="node18" class="node"><title>Node18</title>
<g id="a_node18"><a xlink:href="namespacetlz.html#aea648783e0ac6c50afae30a01cfc260d" target="_top" xlink:title="tlz::enum_arg">
<polygon fill="white" stroke="black" points="509.5,-361.5 509.5,-380.5 585.5,-380.5 585.5,-361.5 509.5,-361.5"/>
<text text-anchor="middle" x="547.5" y="-368.5" font-family="Helvetica,sans-Serif" font-size="10.00">tlz::enum_arg</text>
</a>
</g>
</g>
<!-- Node1&#45;&gt;Node18 -->
<g id="edge22" class="edge"><title>Node1&#45;&gt;Node18</title>
<path fill="none" stroke="midnightblue" d="M23.2541,-209.649C29.8026,-227.48 46.3551,-265.459 74,-284 91.7145,-295.881 382.855,-344.331 499.106,-363.317"/>
<polygon fill="midnightblue" stroke="midnightblue" points="498.709,-366.798 509.142,-364.954 499.836,-359.89 498.709,-366.798"/>
</g>
<!-- Node19 -->
<g id="node19" class="node"><title>Node19</title>
<g id="a_node19"><a xlink:href="namespacetlz.html#afbf92393383d3dde6ffd98700ea014f1" target="_top" xlink:title="tlz::load_texture">
<polygon fill="white" stroke="black" points="76.5,-190.5 76.5,-209.5 162.5,-209.5 162.5,-190.5 76.5,-190.5"/>
<text text-anchor="middle" x="119.5" y="-197.5" font-family="Helvetica,sans-Serif" font-size="10.00">tlz::load_texture</text>
</a>
</g>
</g>
<!-- Node1&#45;&gt;Node19 -->
<g id="edge26" class="edge"><title>Node1&#45;&gt;Node19</title>
<path fill="none" stroke="midnightblue" d="M38.0664,-200C46.1474,-200 56.1311,-200 66.2836,-200"/>
<polygon fill="midnightblue" stroke="midnightblue" points="66.4281,-203.5 76.428,-200 66.428,-196.5 66.4281,-203.5"/>
</g>
<!-- Node20 -->
<g id="node20" class="node"><title>Node20</title>
<g id="a_node20"><a xlink:href="namespacetlz.html#ae9eeca909bec8ca797356b56d3cfbb90" target="_top" xlink:title="tlz::undistort">
<polygon fill="white" stroke="black" points="84,-152.5 84,-171.5 155,-171.5 155,-152.5 84,-152.5"/>
<text text-anchor="middle" x="119.5" y="-159.5" font-family="Helvetica,sans-Serif" font-size="10.00">tlz::undistort</text>
</a>
</g>
</g>
<!-- Node1&#45;&gt;Node20 -->
<g id="edge27" class="edge"><title>Node1&#45;&gt;Node20</title>
<path fill="none" stroke="midnightblue" d="M38.0664,-193.03C51.0366,-188.026 68.9085,-181.132 84.5123,-175.112"/>
<polygon fill="midnightblue" stroke="midnightblue" points="85.8006,-178.366 93.8706,-171.502 83.281,-171.836 85.8006,-178.366"/>
</g>
<!-- Node23 -->
<g id="node23" class="node"><title>Node23</title>
<g id="a_node23"><a xlink:href="structtlz_1_1distortion__parameters.html#a96312c5d7baa4b7b1f2a76e9396037f8" target="_top" xlink:title="tlz::distortion_parameters\l::cv_coeffs">
<polygon fill="white" stroke="black" points="346,-16 346,-46 473,-46 473,-16 346,-16"/>
<text text-anchor="start" x="354" y="-34" font-family="Helvetica,sans-Serif" font-size="10.00">tlz::distortion_parameters</text>
<text text-anchor="middle" x="409.5" y="-23" font-family="Helvetica,sans-Serif" font-size="10.00">::cv_coeffs</text>
</a>
</g>
</g>
<!-- Node1&#45;&gt;Node23 -->
<g id="edge31" class="edge"><title>Node1&#45;&gt;Node23</title>
<path fill="none" stroke="midnightblue" d="M26.9166,-190.128C36.2424,-177.504 54.0024,-155.755 74,-143 97.733,-127.863 259.912,-76.6986 349.434,-49.064"/>
<polygon fill="midnightblue" stroke="midnightblue" points="350.659,-52.3489 359.184,-46.0585 348.597,-45.6595 350.659,-52.3489"/>
</g>
<!-- Node24 -->
<g id="node24" class="node"><title>Node24</title>
<g id="a_node24"><a xlink:href="namespacetlz.html#abef378599dee0140819b796094d46e0f" target="_top" xlink:title="tlz::save_texture">
<polygon fill="white" stroke="black" points="75,-76.5 75,-95.5 164,-95.5 164,-76.5 75,-76.5"/>
<text text-anchor="middle" x="119.5" y="-83.5" font-family="Helvetica,sans-Serif" font-size="10.00">tlz::save_texture</text>
</a>
</g>
</g>
<!-- Node1&#45;&gt;Node24 -->
<g id="edge32" class="edge"><title>Node1&#45;&gt;Node24</title>
<path fill="none" stroke="midnightblue" d="M23.694,-190.469C30.9756,-172.708 48.7013,-134.166 74,-110 77.6179,-106.544 81.8309,-103.437 86.1945,-100.696"/>
<polygon fill="midnightblue" stroke="midnightblue" points="88.2429,-103.558 95.2208,-95.5854 84.7942,-97.4664 88.2429,-103.558"/>
</g>
<!-- Node25 -->
<g id="node25" class="node"><title>Node25</title>
<g id="a_node25"><a xlink:href="namespacetlz.html#a55912f12ae3521ac51a3d4ab3d75183a" target="_top" xlink:title="tlz::load_depth">
<polygon fill="white" stroke="black" points="79.5,-38.5 79.5,-57.5 159.5,-57.5 159.5,-38.5 79.5,-38.5"/>
<text text-anchor="middle" x="119.5" y="-45.5" font-family="Helvetica,sans-Serif" font-size="10.00">tlz::load_depth</text>
</a>
</g>
</g>
<!-- Node1&#45;&gt;Node25 -->
<g id="edge33" class="edge"><title>Node1&#45;&gt;Node25</title>
<path fill="none" stroke="midnightblue" d="M21.3692,-190.256C25.2364,-166.19 38.374,-103.268 74,-67 75.4128,-65.5617 76.9518,-64.2261 78.581,-62.9866"/>
<polygon fill="midnightblue" stroke="midnightblue" points="80.6664,-65.8115 87.3108,-57.559 76.9703,-59.8667 80.6664,-65.8115"/>
</g>
<!-- Node26 -->
<g id="node26" class="node"><title>Node26</title>
<g id="a_node26"><a xlink:href="namespacetlz.html#a368c5ff91078bfc7c2584e90c147f953" target="_top" xlink:title="tlz::save_depth">
<polygon fill="white" stroke="black" points="78,-0.5 78,-19.5 161,-19.5 161,-0.5 78,-0.5"/>
<text text-anchor="middle" x="119.5" y="-7.5" font-family="Helvetica,sans-Serif" font-size="10.00">tlz::save_depth</text>
</a>
</g>
</g>
<!-- Node1&#45;&gt;Node26 -->
<g id="edge34" class="edge"><title>Node1&#45;&gt;Node26</title>
<path fill="none" stroke="midnightblue" d="M20.35,-190.112C21.8797,-161.473 30.082,-77.4308 74,-29 75.2027,-27.6738 76.5135,-26.4367 77.9062,-25.283"/>
<polygon fill="midnightblue" stroke="midnightblue" points="80.1754,-27.979 86.5938,-19.5495 76.3196,-22.1366 80.1754,-27.979"/>
</g>
<!-- Node4 -->
<g id="node4" class="node"><title>Node4</title>
<g id="a_node4"><a xlink:href="namespacetlz.html#a0621d598fb83b13bf028f3e6293d04f8" target="_top" xlink:title="tlz::string_arg">
<polygon fill="white" stroke="black" points="509.5,-323.5 509.5,-342.5 585.5,-342.5 585.5,-323.5 509.5,-323.5"/>
<text text-anchor="middle" x="547.5" y="-330.5" font-family="Helvetica,sans-Serif" font-size="10.00">tlz::string_arg</text>
</a>
</g>
</g>
<!-- Node3&#45;&gt;Node4 -->
<g id="edge3" class="edge"><title>Node3&#45;&gt;Node4</title>
<path fill="none" stroke="midnightblue" d="M436.475,-285.606C447.756,-289.873 461.088,-295.043 473,-300 487.549,-306.054 503.526,-313.17 516.858,-319.242"/>
<polygon fill="midnightblue" stroke="midnightblue" points="515.49,-322.465 526.039,-323.448 518.406,-316.101 515.49,-322.465"/>
</g>
<!-- Node5 -->
<g id="node5" class="node"><title>Node5</title>
<g id="a_node5"><a xlink:href="namespacetlz.html#a780431daab8d2595372eacb43143b52d" target="_top" xlink:title="tlz::args">
<polygon fill="white" stroke="black" points="652.5,-285.5 652.5,-304.5 704.5,-304.5 704.5,-285.5 652.5,-285.5"/>
<text text-anchor="middle" x="678.5" y="-292.5" font-family="Helvetica,sans-Serif" font-size="10.00">tlz::args</text>
</a>
</g>
</g>
<!-- Node3&#45;&gt;Node5 -->
<g id="edge9" class="edge"><title>Node3&#45;&gt;Node5</title>
<path fill="none" stroke="midnightblue" d="M460.187,-273.301C495.404,-272.047 543.719,-271.656 586,-276 604.845,-277.936 625.535,-282.059 642.466,-285.971"/>
<polygon fill="midnightblue" stroke="midnightblue" points="641.933,-289.442 652.472,-288.358 643.557,-282.633 641.933,-289.442"/>
</g>
<!-- Node7 -->
<g id="node7" class="node"><title>Node7</title>
<g id="a_node7"><a xlink:href="classtlz_1_1args__list.html#a38ad21acd64a4af98ffdf4a47837cdbe" target="_top" xlink:title="tlz::args_list::usage_fail">
<polygon fill="white" stroke="black" points="771,-342.5 771,-361.5 891,-361.5 891,-342.5 771,-342.5"/>
<text text-anchor="middle" x="831" y="-349.5" font-family="Helvetica,sans-Serif" font-size="10.00">tlz::args_list::usage_fail</text>
</a>
</g>
</g>
<!-- Node3&#45;&gt;Node7 -->
<g id="edge10" class="edge"><title>Node3&#45;&gt;Node7</title>
<path fill="none" stroke="midnightblue" d="M441.322,-266.4C502.275,-249.36 640.489,-220.553 735,-276 760.844,-291.162 747.321,-314.641 771,-333 773.43,-334.884 776.053,-336.585 778.796,-338.119"/>
<polygon fill="midnightblue" stroke="midnightblue" points="777.341,-341.303 787.871,-342.474 780.369,-334.992 777.341,-341.303"/>
</g>
<!-- Node9 -->
<g id="node9" class="node"><title>Node9</title>
<g id="a_node9"><a xlink:href="namespacetlz.html#abb019466ea9f56c0dab27e893d891837" target="_top" xlink:title="tlz::file_exists">
<polygon fill="white" stroke="black" points="509,-285.5 509,-304.5 586,-304.5 586,-285.5 509,-285.5"/>
<text text-anchor="middle" x="547.5" y="-292.5" font-family="Helvetica,sans-Serif" font-size="10.00">tlz::file_exists</text>
</a>
</g>
</g>
<!-- Node3&#45;&gt;Node9 -->
<g id="edge8" class="edge"><title>Node3&#45;&gt;Node9</title>
<path fill="none" stroke="midnightblue" d="M460.369,-282.967C472.925,-284.721 486.371,-286.6 498.816,-288.338"/>
<polygon fill="midnightblue" stroke="midnightblue" points="498.606,-291.843 508.994,-289.76 499.575,-284.91 498.606,-291.843"/>
</g>
<!-- Node4&#45;&gt;Node5 -->
<g id="edge4" class="edge"><title>Node4&#45;&gt;Node5</title>
<path fill="none" stroke="midnightblue" d="M581.052,-323.411C599.78,-317.894 623.314,-310.962 642.447,-305.326"/>
<polygon fill="midnightblue" stroke="midnightblue" points="643.679,-308.611 652.283,-302.428 641.701,-301.897 643.679,-308.611"/>
</g>
<!-- Node6 -->
<g id="node6" class="node"><title>Node6</title>
<g id="a_node6"><a xlink:href="classtlz_1_1args__list.html#a73d99bc75998dc14607a3a372d28dc6d" target="_top" xlink:title="tlz::args_list::next_arg">
<polygon fill="white" stroke="black" points="622,-323.5 622,-342.5 735,-342.5 735,-323.5 622,-323.5"/>
<text text-anchor="middle" x="678.5" y="-330.5" font-family="Helvetica,sans-Serif" font-size="10.00">tlz::args_list::next_arg</text>
</a>
</g>
</g>
<!-- Node4&#45;&gt;Node6 -->
<g id="edge5" class="edge"><title>Node4&#45;&gt;Node6</title>
<path fill="none" stroke="midnightblue" d="M585.812,-333C593.835,-333 602.544,-333 611.295,-333"/>
<polygon fill="midnightblue" stroke="midnightblue" points="611.549,-336.5 621.549,-333 611.549,-329.5 611.549,-336.5"/>
</g>
<!-- Node6&#45;&gt;Node7 -->
<g id="edge6" class="edge"><title>Node6&#45;&gt;Node7</title>
<path fill="none" stroke="midnightblue" d="M735.113,-340.021C743.479,-341.077 752.192,-342.177 760.8,-343.264"/>
<polygon fill="midnightblue" stroke="midnightblue" points="760.468,-346.75 770.828,-344.53 761.345,-339.805 760.468,-346.75"/>
</g>
<!-- Node8 -->
<g id="node8" class="node"><title>Node8</title>
<g id="a_node8"><a xlink:href="namespacetlz.html#a8e4f8c8c2927bc4350de13bfa0f8f9e1" target="_top" xlink:title="tlz::to_string">
<polygon fill="white" stroke="black" points="795.5,-304.5 795.5,-323.5 866.5,-323.5 866.5,-304.5 795.5,-304.5"/>
<text text-anchor="middle" x="831" y="-311.5" font-family="Helvetica,sans-Serif" font-size="10.00">tlz::to_string</text>
</a>
</g>
</g>
<!-- Node6&#45;&gt;Node8 -->
<g id="edge7" class="edge"><title>Node6&#45;&gt;Node8</title>
<path fill="none" stroke="midnightblue" d="M735.113,-325.979C751.598,-323.898 769.435,-321.646 785.147,-319.662"/>
<polygon fill="midnightblue" stroke="midnightblue" points="785.647,-323.127 795.13,-318.402 784.77,-316.182 785.647,-323.127"/>
</g>
<!-- Node10&#45;&gt;Node4 -->
<g id="edge12" class="edge"><title>Node10&#45;&gt;Node4</title>
<path fill="none" stroke="midnightblue" d="M309.017,-348.559C363.186,-345.01 446.911,-339.525 499.116,-336.104"/>
<polygon fill="midnightblue" stroke="midnightblue" points="499.369,-339.595 509.119,-335.449 498.911,-332.61 499.369,-339.595"/>
</g>
<!-- Node12 -->
<g id="node12" class="node"><title>Node12</title>
<g id="a_node12"><a xlink:href="namespacetlz.html#a8cba4853d0d796a01c72f59f36f2a492" target="_top" xlink:title="tlz::decode_intrinsics">
<polygon fill="white" stroke="black" points="201,-190.5 201,-209.5 310,-209.5 310,-190.5 201,-190.5"/>
<text text-anchor="middle" x="255.5" y="-197.5" font-family="Helvetica,sans-Serif" font-size="10.00">tlz::decode_intrinsics</text>
</a>
</g>
</g>
<!-- Node11&#45;&gt;Node12 -->
<g id="edge14" class="edge"><title>Node11&#45;&gt;Node12</title>
<path fill="none" stroke="midnightblue" d="M154.314,-228.411C171.533,-223.528 192.664,-217.536 211.073,-212.315"/>
<polygon fill="midnightblue" stroke="midnightblue" points="212.031,-215.681 220.697,-209.586 210.121,-208.947 212.031,-215.681"/>
</g>
<!-- Node16 -->
<g id="node16" class="node"><title>Node16</title>
<g id="a_node16"><a xlink:href="namespacetlz.html#a35f9e03fa4fd9cec699f5fa27962400f" target="_top" xlink:title="tlz::json_arg">
<polygon fill="white" stroke="black" points="220.5,-228.5 220.5,-247.5 290.5,-247.5 290.5,-228.5 220.5,-228.5"/>
<text text-anchor="middle" x="255.5" y="-235.5" font-family="Helvetica,sans-Serif" font-size="10.00">tlz::json_arg</text>
</a>
</g>
</g>
<!-- Node11&#45;&gt;Node16 -->
<g id="edge19" class="edge"><title>Node11&#45;&gt;Node16</title>
<path fill="none" stroke="midnightblue" d="M165.12,-238C179.578,-238 195.608,-238 210.053,-238"/>
<polygon fill="midnightblue" stroke="midnightblue" points="210.247,-241.5 220.247,-238 210.247,-234.5 210.247,-241.5"/>
</g>
<!-- Node13 -->
<g id="node13" class="node"><title>Node13</title>
<g id="a_node13"><a xlink:href="namespacetlz.html#a066563a26e2de02f215b179f3d3a53da" target="_top" xlink:title="tlz::decode_mat">
<polygon fill="white" stroke="black" points="366.5,-190.5 366.5,-209.5 452.5,-209.5 452.5,-190.5 366.5,-190.5"/>
<text text-anchor="middle" x="409.5" y="-197.5" font-family="Helvetica,sans-Serif" font-size="10.00">tlz::decode_mat</text>
</a>
</g>
</g>
<!-- Node12&#45;&gt;Node13 -->
<g id="edge15" class="edge"><title>Node12&#45;&gt;Node13</title>
<path fill="none" stroke="midnightblue" d="M310.09,-200C325.09,-200 341.369,-200 356.289,-200"/>
<polygon fill="midnightblue" stroke="midnightblue" points="356.368,-203.5 366.368,-200 356.368,-196.5 356.368,-203.5"/>
</g>
<!-- Node14 -->
<g id="node14" class="node"><title>Node14</title>
<g id="a_node14"><a xlink:href="namespacetlz.html#a252af14b9b4ac6502d3e9c5dd8dc90b8" target="_top" xlink:title="tlz::has">
<polygon fill="white" stroke="black" points="523,-133.5 523,-152.5 572,-152.5 572,-133.5 523,-133.5"/>
<text text-anchor="middle" x="547.5" y="-140.5" font-family="Helvetica,sans-Serif" font-size="10.00">tlz::has</text>
</a>
</g>
</g>
<!-- Node12&#45;&gt;Node14 -->
<g id="edge16" class="edge"><title>Node12&#45;&gt;Node14</title>
<path fill="none" stroke="midnightblue" d="M291.029,-190.444C297.596,-187.888 304.217,-184.763 310,-181 329.5,-168.312 324.629,-152.192 346,-143 400.566,-119.529 471.476,-127.349 512.694,-135.173"/>
<polygon fill="midnightblue" stroke="midnightblue" points="512.259,-138.655 522.753,-137.195 513.639,-131.792 512.259,-138.655"/>
</g>
<!-- Node15 -->
<g id="node15" class="node"><title>Node15</title>
<g id="a_node15"><a xlink:href="namespacetlz.html#add846dc50c32dfb356cb1a7ac11d37ac" target="_top" xlink:title="tlz::get_or">
<polygon fill="white" stroke="black" points="379.5,-152.5 379.5,-171.5 439.5,-171.5 439.5,-152.5 379.5,-152.5"/>
<text text-anchor="middle" x="409.5" y="-159.5" font-family="Helvetica,sans-Serif" font-size="10.00">tlz::get_or</text>
</a>
</g>
</g>
<!-- Node12&#45;&gt;Node15 -->
<g id="edge17" class="edge"><title>Node12&#45;&gt;Node15</title>
<path fill="none" stroke="midnightblue" d="M294.856,-190.411C317.686,-184.704 346.578,-177.48 369.518,-171.746"/>
<polygon fill="midnightblue" stroke="midnightblue" points="370.419,-175.128 379.272,-169.307 368.721,-168.337 370.419,-175.128"/>
</g>
<!-- Node15&#45;&gt;Node14 -->
<g id="edge18" class="edge"><title>Node15&#45;&gt;Node14</title>
<path fill="none" stroke="midnightblue" d="M439.675,-157.924C461.102,-154.931 490.262,-150.857 512.703,-147.722"/>
<polygon fill="midnightblue" stroke="midnightblue" points="513.383,-151.161 522.802,-146.311 512.414,-144.228 513.383,-151.161"/>
</g>
<!-- Node16&#45;&gt;Node3 -->
<g id="edge21" class="edge"><title>Node16&#45;&gt;Node3</title>
<path fill="none" stroke="midnightblue" d="M290.612,-246.528C311.274,-251.694 337.944,-258.361 360.689,-264.047"/>
<polygon fill="midnightblue" stroke="midnightblue" points="359.947,-267.469 370.497,-266.499 361.645,-260.678 359.947,-267.469"/>
</g>
<!-- Node17 -->
<g id="node17" class="node"><title>Node17</title>
<g id="a_node17"><a xlink:href="namespacetlz.html#aa1be9362f548fcf9378e1fc9074089c4" target="_top" xlink:title="tlz::import_json_file">
<polygon fill="white" stroke="black" points="359,-228.5 359,-247.5 460,-247.5 460,-228.5 359,-228.5"/>
<text text-anchor="middle" x="409.5" y="-235.5" font-family="Helvetica,sans-Serif" font-size="10.00">tlz::import_json_file</text>
</a>
</g>
</g>
<!-- Node16&#45;&gt;Node17 -->
<g id="edge20" class="edge"><title>Node16&#45;&gt;Node17</title>
<path fill="none" stroke="midnightblue" d="M290.612,-238C307.755,-238 329.034,-238 348.775,-238"/>
<polygon fill="midnightblue" stroke="midnightblue" points="348.928,-241.5 358.928,-238 348.928,-234.5 348.928,-241.5"/>
</g>
<!-- Node18&#45;&gt;Node5 -->
<g id="edge23" class="edge"><title>Node18&#45;&gt;Node5</title>
<path fill="none" stroke="midnightblue" d="M570.665,-361.356C575.902,-358.654 581.319,-355.49 586,-352 604.651,-338.094 602.428,-326.576 622,-314 628.303,-309.95 635.566,-306.659 642.718,-304.025"/>
<polygon fill="midnightblue" stroke="midnightblue" points="643.92,-307.313 652.299,-300.83 641.706,-300.673 643.92,-307.313"/>
</g>
<!-- Node18&#45;&gt;Node6 -->
<g id="edge24" class="edge"><title>Node18&#45;&gt;Node6</title>
<path fill="none" stroke="midnightblue" d="M581.052,-361.411C597.399,-356.596 617.409,-350.701 634.957,-345.532"/>
<polygon fill="midnightblue" stroke="midnightblue" points="636.355,-348.769 644.958,-342.586 634.377,-342.054 636.355,-348.769"/>
</g>
<!-- Node18&#45;&gt;Node7 -->
<g id="edge25" class="edge"><title>Node18&#45;&gt;Node7</title>
<path fill="none" stroke="midnightblue" d="M585.591,-368.497C630.074,-365.494 705.555,-360.399 760.891,-356.665"/>
<polygon fill="midnightblue" stroke="midnightblue" points="761.236,-360.149 770.977,-355.984 760.764,-353.165 761.236,-360.149"/>
</g>
<!-- Node21 -->
<g id="node21" class="node"><title>Node21</title>
<g id="a_node21"><a xlink:href="namespacetlz.html#a8b5e4acbb884887859e414ffe06a09f8" target="_top" xlink:title="tlz::undistort_points">
<polygon fill="white" stroke="black" points="204.5,-152.5 204.5,-171.5 306.5,-171.5 306.5,-152.5 204.5,-152.5"/>
<text text-anchor="middle" x="255.5" y="-159.5" font-family="Helvetica,sans-Serif" font-size="10.00">tlz::undistort_points</text>
</a>
</g>
</g>
<!-- Node20&#45;&gt;Node21 -->
<g id="edge28" class="edge"><title>Node20&#45;&gt;Node21</title>
<path fill="none" stroke="midnightblue" d="M155.008,-162C166.996,-162 180.816,-162 194.267,-162"/>
<polygon fill="midnightblue" stroke="midnightblue" points="194.446,-165.5 204.446,-162 194.446,-158.5 194.446,-165.5"/>
</g>
<!-- Node22 -->
<g id="node22" class="node"><title>Node22</title>
<g id="a_node22"><a xlink:href="structtlz_1_1distortion__parameters.html#a307fee036b04519d633fb8456899850c" target="_top" xlink:title="tlz::distortion_parameters\l::is_none">
<polygon fill="white" stroke="black" points="346,-65 346,-95 473,-95 473,-65 346,-65"/>
<text text-anchor="start" x="354" y="-83" font-family="Helvetica,sans-Serif" font-size="10.00">tlz::distortion_parameters</text>
<text text-anchor="middle" x="409.5" y="-72" font-family="Helvetica,sans-Serif" font-size="10.00">::is_none</text>
</a>
</g>
</g>
<!-- Node21&#45;&gt;Node22 -->
<g id="edge29" class="edge"><title>Node21&#45;&gt;Node22</title>
<path fill="none" stroke="midnightblue" d="M281.089,-152.435C290.396,-148.44 300.927,-143.456 310,-138 327.371,-127.555 328.765,-120.669 346,-110 351.845,-106.382 358.192,-102.886 364.527,-99.636"/>
<polygon fill="midnightblue" stroke="midnightblue" points="366.336,-102.646 373.739,-95.0666 363.225,-96.3746 366.336,-102.646"/>
</g>
<!-- Node21&#45;&gt;Node23 -->
<g id="edge30" class="edge"><title>Node21&#45;&gt;Node23</title>
<path fill="none" stroke="midnightblue" d="M288.065,-152.403C295.961,-148.853 303.906,-144.143 310,-138 338.031,-109.743 317.393,-83.6734 346,-56 347.48,-54.5679 349.053,-53.2145 350.699,-51.9357"/>
<polygon fill="midnightblue" stroke="midnightblue" points="353.036,-54.5856 359.44,-46.1452 349.171,-48.7498 353.036,-54.5856"/>
</g>
</g>
</svg>
