<?xml version="1.0" encoding="UTF-8" standalone="no"?>
<!DOCTYPE svg PUBLIC "-//W3C//DTD SVG 1.1//EN"
 "http://www.w3.org/Graphics/SVG/1.1/DTD/svg11.dtd">
<!-- Generated by graphviz version 2.38.0 (20140413.2041)
 -->
<!-- Title: main Pages: 1 -->
<svg width="943pt" height="457pt"
 viewBox="0.00 0.00 943.00 456.96" xmlns="http://www.w3.org/2000/svg" xmlns:xlink="http://www.w3.org/1999/xlink">
<g id="graph0" class="graph" transform="scale(1 1) rotate(0) translate(4 452.958)">
<title>main</title>
<polygon fill="white" stroke="none" points="-4,4 -4,-452.958 939,-452.958 939,4 -4,4"/>
<!-- Node1 -->
<g id="node1" class="node"><title>Node1</title>
<polygon fill="#bfbfbf" stroke="black" points="0,-178 0,-197 38,-197 38,-178 0,-178"/>
<text text-anchor="middle" x="19" y="-185" font-family="Helvetica,sans-Serif" font-size="10.00">main</text>
</g>
<!-- Node2 -->
<g id="node2" class="node"><title>Node2</title>
<g id="a_node2"><a xlink:href="namespacetlz.html#a3c03f5d9d6261ec2909938822fc47f8a" target="_top" xlink:title="tlz::get_args">
<polygon fill="white" stroke="black" points="95,-292 95,-311 166,-311 166,-292 95,-292"/>
<text text-anchor="middle" x="130.5" y="-299" font-family="Helvetica,sans-Serif" font-size="10.00">tlz::get_args</text>
</a>
</g>
</g>
<!-- Node1&#45;&gt;Node2 -->
<g id="edge1" class="edge"><title>Node1&#45;&gt;Node2</title>
<path fill="none" stroke="midnightblue" d="M22.8845,-197.091C29.0924,-216.132 45.5127,-258.898 74,-282.5 77.4911,-285.392 81.4463,-287.853 85.5986,-289.946"/>
<polygon fill="midnightblue" stroke="midnightblue" points="84.3315,-293.211 94.8998,-293.961 87.1059,-286.784 84.3315,-293.211"/>
</g>
<!-- Node3 -->
<g id="node3" class="node"><title>Node3</title>
<g id="a_node3"><a xlink:href="namespacetlz.html#accab66b2847b4c4ea3170487b64903c1" target="_top" xlink:title="tlz::feature_points_arg">
<polygon fill="white" stroke="black" points="74,-254 74,-273 187,-273 187,-254 74,-254"/>
<text text-anchor="middle" x="130.5" y="-261" font-family="Helvetica,sans-Serif" font-size="10.00">tlz::feature_points_arg</text>
</a>
</g>
</g>
<!-- Node1&#45;&gt;Node3 -->
<g id="edge2" class="edge"><title>Node1&#45;&gt;Node3</title>
<path fill="none" stroke="midnightblue" d="M26.9299,-197.352C36.27,-209.953 54.0455,-231.678 74,-244.5 77.1407,-246.518 80.5199,-248.348 84.0049,-250.002"/>
<polygon fill="midnightblue" stroke="midnightblue" points="82.8129,-253.298 93.3859,-253.978 85.5446,-246.853 82.8129,-253.298"/>
</g>
<!-- Node18 -->
<g id="node18" class="node"><title>Node18</title>
<g id="a_node18"><a xlink:href="namespacetlz.html#a65770a2c1ff57c5ae6542d4465a3d3f4" target="_top" xlink:title="tlz::out_filename_arg">
<polygon fill="white" stroke="black" points="230.5,-178 230.5,-197 337.5,-197 337.5,-178 230.5,-178"/>
<text text-anchor="middle" x="284" y="-185" font-family="Helvetica,sans-Serif" font-size="10.00">tlz::out_filename_arg</text>
</a>
</g>
</g>
<!-- Node1&#45;&gt;Node18 -->
<g id="edge21" class="edge"><title>Node1&#45;&gt;Node18</title>
<path fill="none" stroke="midnightblue" d="M38.0771,-187.5C75.0481,-187.5 160.832,-187.5 220.372,-187.5"/>
<polygon fill="midnightblue" stroke="midnightblue" points="220.427,-191 230.427,-187.5 220.427,-184 220.427,-191"/>
</g>
<!-- Node19 -->
<g id="node19" class="node"><title>Node19</title>
<g id="a_node19"><a xlink:href="namespacetlz.html#a170805c7a8ede64a93e0ee23196e5b7c" target="_top" xlink:title="tlz::intrinsics_arg">
<polygon fill="white" stroke="black" points="85,-216 85,-235 176,-235 176,-216 85,-216"/>
<text text-anchor="middle" x="130.5" y="-223" font-family="Helvetica,sans-Serif" font-size="10.00">tlz::intrinsics_arg</text>
</a>
</g>
</g>
<!-- Node1&#45;&gt;Node19 -->
<g id="edge23" class="edge"><title>Node1&#45;&gt;Node19</title>
<path fill="none" stroke="midnightblue" d="M38.0817,-193.775C52.8079,-198.885 74.0843,-206.269 92.4064,-212.627"/>
<polygon fill="midnightblue" stroke="midnightblue" points="91.3488,-215.965 101.944,-215.937 93.6438,-209.352 91.3488,-215.965"/>
</g>
<!-- Node22 -->
<g id="node22" class="node"><title>Node22</title>
<g id="a_node22"><a xlink:href="namespacetlz.html#ae9eeca909bec8ca797356b56d3cfbb90" target="_top" xlink:title="tlz::undistort">
<polygon fill="white" stroke="black" points="95,-81 95,-100 166,-100 166,-81 95,-81"/>
<text text-anchor="middle" x="130.5" y="-88" font-family="Helvetica,sans-Serif" font-size="10.00">tlz::undistort</text>
</a>
</g>
</g>
<!-- Node1&#45;&gt;Node22 -->
<g id="edge29" class="edge"><title>Node1&#45;&gt;Node22</title>
<path fill="none" stroke="midnightblue" d="M25.5621,-177.938C34.332,-163.526 52.5952,-136.058 74,-118.5 80.4536,-113.206 88.0736,-108.555 95.5661,-104.642"/>
<polygon fill="midnightblue" stroke="midnightblue" points="97.442,-107.621 104.891,-100.087 94.3696,-101.331 97.442,-107.621"/>
</g>
<!-- Node26 -->
<g id="node26" class="node"><title>Node26</title>
<g id="a_node26"><a xlink:href="namespacetlz.html#ab98de0b10e3e079dee189f81adc638a0" target="_top" xlink:title="tlz::export_json_file">
<polygon fill="white" stroke="black" points="80,-24 80,-43 181,-43 181,-24 80,-24"/>
<text text-anchor="middle" x="130.5" y="-31" font-family="Helvetica,sans-Serif" font-size="10.00">tlz::export_json_file</text>
</a>
</g>
</g>
<!-- Node1&#45;&gt;Node26 -->
<g id="edge33" class="edge"><title>Node1&#45;&gt;Node26</title>
<path fill="none" stroke="midnightblue" d="M22.5883,-177.824C28.6421,-156.612 45.4186,-105.224 74,-71.5 81.7459,-62.3605 92.197,-54.4434 101.941,-48.2368"/>
<polygon fill="midnightblue" stroke="midnightblue" points="103.828,-51.186 110.593,-43.0317 100.22,-45.1878 103.828,-51.186"/>
</g>
<!-- Node28 -->
<g id="node28" class="node"><title>Node28</title>
<g id="a_node28"><a xlink:href="namespacetlz.html#a0b42822a3802ba98cfb8d42223b3149d" target="_top" xlink:title="tlz::encode_feature\l_points">
<polygon fill="white" stroke="black" points="80.5,-128.5 80.5,-158.5 180.5,-158.5 180.5,-128.5 80.5,-128.5"/>
<text text-anchor="start" x="88.5" y="-146.5" font-family="Helvetica,sans-Serif" font-size="10.00">tlz::encode_feature</text>
<text text-anchor="middle" x="130.5" y="-135.5" font-family="Helvetica,sans-Serif" font-size="10.00">_points</text>
</a>
</g>
</g>
<!-- Node1&#45;&gt;Node28 -->
<g id="edge35" class="edge"><title>Node1&#45;&gt;Node28</title>
<path fill="none" stroke="midnightblue" d="M38.0817,-180.234C50.1546,-175.383 66.63,-168.763 82.2707,-162.478"/>
<polygon fill="midnightblue" stroke="midnightblue" points="83.8807,-165.603 91.8546,-158.627 81.2707,-159.108 83.8807,-165.603"/>
</g>
<!-- Node4 -->
<g id="node4" class="node"><title>Node4</title>
<g id="a_node4"><a xlink:href="namespacetlz.html#abc92401653ee5627160c4f3c48a11311" target="_top" xlink:title="tlz::decode_feature\l_points">
<polygon fill="white" stroke="black" points="234,-384.5 234,-414.5 334,-414.5 334,-384.5 234,-384.5"/>
<text text-anchor="start" x="242" y="-402.5" font-family="Helvetica,sans-Serif" font-size="10.00">tlz::decode_feature</text>
<text text-anchor="middle" x="284" y="-391.5" font-family="Helvetica,sans-Serif" font-size="10.00">_points</text>
</a>
</g>
</g>
<!-- Node3&#45;&gt;Node4 -->
<g id="edge3" class="edge"><title>Node3&#45;&gt;Node4</title>
<path fill="none" stroke="midnightblue" d="M168.71,-273.029C175.114,-275.548 181.478,-278.667 187,-282.5 222.914,-307.428 252.696,-349.375 269.147,-375.689"/>
<polygon fill="midnightblue" stroke="midnightblue" points="266.2,-377.579 274.398,-384.291 272.175,-373.932 266.2,-377.579"/>
</g>
<!-- Node9 -->
<g id="node9" class="node"><title>Node9</title>
<g id="a_node9"><a xlink:href="namespacetlz.html#a35f9e03fa4fd9cec699f5fa27962400f" target="_top" xlink:title="tlz::json_arg">
<polygon fill="white" stroke="black" points="249,-254 249,-273 319,-273 319,-254 249,-254"/>
<text text-anchor="middle" x="284" y="-261" font-family="Helvetica,sans-Serif" font-size="10.00">tlz::json_arg</text>
</a>
</g>
</g>
<!-- Node3&#45;&gt;Node9 -->
<g id="edge10" class="edge"><title>Node3&#45;&gt;Node9</title>
<path fill="none" stroke="midnightblue" d="M187.053,-263.5C203.956,-263.5 222.306,-263.5 238.389,-263.5"/>
<polygon fill="midnightblue" stroke="midnightblue" points="238.593,-267 248.593,-263.5 238.593,-260 238.593,-267"/>
</g>
<!-- Node5 -->
<g id="node5" class="node"><title>Node5</title>
<g id="a_node5"><a xlink:href="namespacetlz.html#a252af14b9b4ac6502d3e9c5dd8dc90b8" target="_top" xlink:title="tlz::has">
<polygon fill="white" stroke="black" points="698,-406 698,-425 747,-425 747,-406 698,-406"/>
<text text-anchor="middle" x="722.5" y="-413" font-family="Helvetica,sans-Serif" font-size="10.00">tlz::has</text>
</a>
</g>
</g>
<!-- Node4&#45;&gt;Node5 -->
<g id="edge4" class="edge"><title>Node4&#45;&gt;Node5</title>
<path fill="none" stroke="midnightblue" d="M313.047,-414.657C331.709,-423.857 357.098,-434.72 381,-439.5 491.689,-461.638 626.17,-437.545 687.757,-423.762"/>
<polygon fill="midnightblue" stroke="midnightblue" points="688.729,-427.13 697.695,-421.484 687.165,-420.307 688.729,-427.13"/>
</g>
<!-- Node6 -->
<g id="node6" class="node"><title>Node6</title>
<g id="a_node6"><a xlink:href="namespacetlz.html#a74e8454f97dace7cffb1afdb6d3ca87b" target="_top" xlink:title="tlz::decode_view_index">
<polygon fill="white" stroke="black" points="385,-346 385,-365 504,-365 504,-346 385,-346"/>
<text text-anchor="middle" x="444.5" y="-353" font-family="Helvetica,sans-Serif" font-size="10.00">tlz::decode_view_index</text>
</a>
</g>
</g>
<!-- Node4&#45;&gt;Node6 -->
<g id="edge5" class="edge"><title>Node4&#45;&gt;Node6</title>
<path fill="none" stroke="midnightblue" d="M334.282,-385.819C354.961,-380.079 378.832,-373.452 398.974,-367.861"/>
<polygon fill="midnightblue" stroke="midnightblue" points="400.13,-371.172 408.83,-365.125 398.258,-364.427 400.13,-371.172"/>
</g>
<!-- Node7 -->
<g id="node7" class="node"><title>Node7</title>
<g id="a_node7"><a xlink:href="namespacetlz.html#add846dc50c32dfb356cb1a7ac11d37ac" target="_top" xlink:title="tlz::get_or">
<polygon fill="white" stroke="black" points="557,-406 557,-425 617,-425 617,-406 557,-406"/>
<text text-anchor="middle" x="587" y="-413" font-family="Helvetica,sans-Serif" font-size="10.00">tlz::get_or</text>
</a>
</g>
</g>
<!-- Node4&#45;&gt;Node7 -->
<g id="edge6" class="edge"><title>Node4&#45;&gt;Node7</title>
<path fill="none" stroke="midnightblue" d="M334.39,-414.304C349.233,-418.084 365.654,-421.611 381,-423.5 437.022,-430.397 451.629,-426.383 508,-423.5 520.639,-422.854 534.385,-421.622 546.767,-420.315"/>
<polygon fill="midnightblue" stroke="midnightblue" points="547.237,-423.784 556.793,-419.21 546.47,-416.826 547.237,-423.784"/>
</g>
<!-- Node8 -->
<g id="node8" class="node"><title>Node8</title>
<g id="a_node8"><a xlink:href="namespacetlz.html#ae8f9175a86bbe49ac0f4485d5db3080b" target="_top" xlink:title="tlz::decode_feature\l_point">
<polygon fill="white" stroke="black" points="394.5,-384.5 394.5,-414.5 494.5,-414.5 494.5,-384.5 394.5,-384.5"/>
<text text-anchor="start" x="402.5" y="-402.5" font-family="Helvetica,sans-Serif" font-size="10.00">tlz::decode_feature</text>
<text text-anchor="middle" x="444.5" y="-391.5" font-family="Helvetica,sans-Serif" font-size="10.00">_point</text>
</a>
</g>
</g>
<!-- Node4&#45;&gt;Node8 -->
<g id="edge8" class="edge"><title>Node4&#45;&gt;Node8</title>
<path fill="none" stroke="midnightblue" d="M334.282,-399.5C350.085,-399.5 367.754,-399.5 384.197,-399.5"/>
<polygon fill="midnightblue" stroke="midnightblue" points="384.249,-403 394.249,-399.5 384.249,-396 384.249,-403"/>
</g>
<!-- Node7&#45;&gt;Node5 -->
<g id="edge7" class="edge"><title>Node7&#45;&gt;Node5</title>
<path fill="none" stroke="midnightblue" d="M617.297,-415.5C638.009,-415.5 665.833,-415.5 687.52,-415.5"/>
<polygon fill="midnightblue" stroke="midnightblue" points="687.615,-419 697.615,-415.5 687.615,-412 687.615,-419"/>
</g>
<!-- Node8&#45;&gt;Node7 -->
<g id="edge9" class="edge"><title>Node8&#45;&gt;Node7</title>
<path fill="none" stroke="midnightblue" d="M494.64,-405.096C511.648,-407.033 530.475,-409.177 546.597,-411.013"/>
<polygon fill="midnightblue" stroke="midnightblue" points="546.423,-414.516 556.755,-412.17 547.215,-407.561 546.423,-414.516"/>
</g>
<!-- Node10 -->
<g id="node10" class="node"><title>Node10</title>
<g id="a_node10"><a xlink:href="namespacetlz.html#aa1be9362f548fcf9378e1fc9074089c4" target="_top" xlink:title="tlz::import_json_file">
<polygon fill="white" stroke="black" points="394,-308 394,-327 495,-327 495,-308 394,-308"/>
<text text-anchor="middle" x="444.5" y="-315" font-family="Helvetica,sans-Serif" font-size="10.00">tlz::import_json_file</text>
</a>
</g>
</g>
<!-- Node9&#45;&gt;Node10 -->
<g id="edge11" class="edge"><title>Node9&#45;&gt;Node10</title>
<path fill="none" stroke="midnightblue" d="M310.134,-273.089C329.424,-280.344 356.771,-290.407 381,-298.5 387.505,-300.673 394.423,-302.879 401.198,-304.982"/>
<polygon fill="midnightblue" stroke="midnightblue" points="400.368,-308.388 410.955,-307.973 402.42,-301.696 400.368,-308.388"/>
</g>
<!-- Node11 -->
<g id="node11" class="node"><title>Node11</title>
<g id="a_node11"><a xlink:href="namespacetlz.html#a634de7ca11e100e4a118dffe80376a75" target="_top" xlink:title="tlz::in_filename_arg">
<polygon fill="white" stroke="black" points="394,-232 394,-251 495,-251 495,-232 394,-232"/>
<text text-anchor="middle" x="444.5" y="-239" font-family="Helvetica,sans-Serif" font-size="10.00">tlz::in_filename_arg</text>
</a>
</g>
</g>
<!-- Node9&#45;&gt;Node11 -->
<g id="edge12" class="edge"><title>Node9&#45;&gt;Node11</title>
<path fill="none" stroke="midnightblue" d="M319.002,-258.78C337.934,-256.153 362.046,-252.806 383.999,-249.759"/>
<polygon fill="midnightblue" stroke="midnightblue" points="384.483,-253.225 393.907,-248.384 383.52,-246.292 384.483,-253.225"/>
</g>
<!-- Node12 -->
<g id="node12" class="node"><title>Node12</title>
<g id="a_node12"><a xlink:href="namespacetlz.html#a0621d598fb83b13bf028f3e6293d04f8" target="_top" xlink:title="tlz::string_arg">
<polygon fill="white" stroke="black" points="549,-178 549,-197 625,-197 625,-178 549,-178"/>
<text text-anchor="middle" x="587" y="-185" font-family="Helvetica,sans-Serif" font-size="10.00">tlz::string_arg</text>
</a>
</g>
</g>
<!-- Node11&#45;&gt;Node12 -->
<g id="edge13" class="edge"><title>Node11&#45;&gt;Node12</title>
<path fill="none" stroke="midnightblue" d="M470.295,-231.97C492.828,-223.31 526.296,-210.447 551.448,-200.78"/>
<polygon fill="midnightblue" stroke="midnightblue" points="552.901,-203.971 560.98,-197.116 550.39,-197.437 552.901,-203.971"/>
</g>
<!-- Node13 -->
<g id="node13" class="node"><title>Node13</title>
<g id="a_node13"><a xlink:href="namespacetlz.html#a780431daab8d2595372eacb43143b52d" target="_top" xlink:title="tlz::args">
<polygon fill="white" stroke="black" points="696.5,-216 696.5,-235 748.5,-235 748.5,-216 696.5,-216"/>
<text text-anchor="middle" x="722.5" y="-223" font-family="Helvetica,sans-Serif" font-size="10.00">tlz::args</text>
</a>
</g>
</g>
<!-- Node11&#45;&gt;Node13 -->
<g id="edge19" class="edge"><title>Node11&#45;&gt;Node13</title>
<path fill="none" stroke="midnightblue" d="M495.162,-238.621C550.251,-235.427 637.74,-230.356 686.229,-227.545"/>
<polygon fill="midnightblue" stroke="midnightblue" points="686.463,-231.037 696.244,-226.964 686.058,-224.049 686.463,-231.037"/>
</g>
<!-- Node15 -->
<g id="node15" class="node"><title>Node15</title>
<g id="a_node15"><a xlink:href="classtlz_1_1args__list.html#a38ad21acd64a4af98ffdf4a47837cdbe" target="_top" xlink:title="tlz::args_list::usage_fail">
<polygon fill="white" stroke="black" points="815,-197 815,-216 935,-216 935,-197 815,-197"/>
<text text-anchor="middle" x="875" y="-204" font-family="Helvetica,sans-Serif" font-size="10.00">tlz::args_list::usage_fail</text>
</a>
</g>
</g>
<!-- Node11&#45;&gt;Node15 -->
<g id="edge20" class="edge"><title>Node11&#45;&gt;Node15</title>
<path fill="none" stroke="midnightblue" d="M495.274,-248.332C560.998,-255.907 679.982,-264.605 779,-244.5 802.719,-239.684 828.1,-229.23 846.656,-220.504"/>
<polygon fill="midnightblue" stroke="midnightblue" points="848.211,-223.64 855.692,-216.138 845.165,-217.337 848.211,-223.64"/>
</g>
<!-- Node17 -->
<g id="node17" class="node"><title>Node17</title>
<g id="a_node17"><a xlink:href="namespacetlz.html#abb019466ea9f56c0dab27e893d891837" target="_top" xlink:title="tlz::file_exists">
<polygon fill="white" stroke="black" points="548.5,-292 548.5,-311 625.5,-311 625.5,-292 548.5,-292"/>
<text text-anchor="middle" x="587" y="-299" font-family="Helvetica,sans-Serif" font-size="10.00">tlz::file_exists</text>
</a>
</g>
</g>
<!-- Node11&#45;&gt;Node17 -->
<g id="edge18" class="edge"><title>Node11&#45;&gt;Node17</title>
<path fill="none" stroke="midnightblue" d="M480.947,-251.006C489.893,-253.75 499.397,-256.968 508,-260.5 526.4,-268.054 546.23,-278.51 561.29,-286.972"/>
<polygon fill="midnightblue" stroke="midnightblue" points="559.576,-290.024 569.996,-291.94 563.045,-283.944 559.576,-290.024"/>
</g>
<!-- Node12&#45;&gt;Node13 -->
<g id="edge14" class="edge"><title>Node12&#45;&gt;Node13</title>
<path fill="none" stroke="midnightblue" d="M621.688,-197.089C641.511,-202.732 666.54,-209.856 686.575,-215.559"/>
<polygon fill="midnightblue" stroke="midnightblue" points="685.676,-218.942 696.252,-218.313 687.593,-212.209 685.676,-218.942"/>
</g>
<!-- Node14 -->
<g id="node14" class="node"><title>Node14</title>
<g id="a_node14"><a xlink:href="classtlz_1_1args__list.html#a73d99bc75998dc14607a3a372d28dc6d" target="_top" xlink:title="tlz::args_list::next_arg">
<polygon fill="white" stroke="black" points="666,-178 666,-197 779,-197 779,-178 666,-178"/>
<text text-anchor="middle" x="722.5" y="-185" font-family="Helvetica,sans-Serif" font-size="10.00">tlz::args_list::next_arg</text>
</a>
</g>
</g>
<!-- Node12&#45;&gt;Node14 -->
<g id="edge15" class="edge"><title>Node12&#45;&gt;Node14</title>
<path fill="none" stroke="midnightblue" d="M625.187,-187.5C634.717,-187.5 645.255,-187.5 655.759,-187.5"/>
<polygon fill="midnightblue" stroke="midnightblue" points="655.786,-191 665.786,-187.5 655.786,-184 655.786,-191"/>
</g>
<!-- Node14&#45;&gt;Node15 -->
<g id="edge16" class="edge"><title>Node14&#45;&gt;Node15</title>
<path fill="none" stroke="midnightblue" d="M779.113,-194.521C787.479,-195.577 796.192,-196.677 804.8,-197.764"/>
<polygon fill="midnightblue" stroke="midnightblue" points="804.468,-201.25 814.828,-199.03 805.345,-194.305 804.468,-201.25"/>
</g>
<!-- Node16 -->
<g id="node16" class="node"><title>Node16</title>
<g id="a_node16"><a xlink:href="namespacetlz.html#a8e4f8c8c2927bc4350de13bfa0f8f9e1" target="_top" xlink:title="tlz::to_string">
<polygon fill="white" stroke="black" points="839.5,-159 839.5,-178 910.5,-178 910.5,-159 839.5,-159"/>
<text text-anchor="middle" x="875" y="-166" font-family="Helvetica,sans-Serif" font-size="10.00">tlz::to_string</text>
</a>
</g>
</g>
<!-- Node14&#45;&gt;Node16 -->
<g id="edge17" class="edge"><title>Node14&#45;&gt;Node16</title>
<path fill="none" stroke="midnightblue" d="M779.113,-180.479C795.598,-178.398 813.435,-176.146 829.147,-174.162"/>
<polygon fill="midnightblue" stroke="midnightblue" points="829.647,-177.627 839.13,-172.902 828.77,-170.682 829.647,-177.627"/>
</g>
<!-- Node18&#45;&gt;Node12 -->
<g id="edge22" class="edge"><title>Node18&#45;&gt;Node12</title>
<path fill="none" stroke="midnightblue" d="M337.775,-187.5C394.639,-187.5 484.295,-187.5 538.869,-187.5"/>
<polygon fill="midnightblue" stroke="midnightblue" points="538.965,-191 548.965,-187.5 538.965,-184 538.965,-191"/>
</g>
<!-- Node19&#45;&gt;Node9 -->
<g id="edge28" class="edge"><title>Node19&#45;&gt;Node9</title>
<path fill="none" stroke="midnightblue" d="M169.73,-235.089C190.862,-240.39 217.206,-246.997 239.169,-252.506"/>
<polygon fill="midnightblue" stroke="midnightblue" points="238.367,-255.913 248.918,-254.951 240.07,-249.124 238.367,-255.913"/>
</g>
<!-- Node20 -->
<g id="node20" class="node"><title>Node20</title>
<g id="a_node20"><a xlink:href="namespacetlz.html#a8cba4853d0d796a01c72f59f36f2a492" target="_top" xlink:title="tlz::decode_intrinsics">
<polygon fill="white" stroke="black" points="390,-270 390,-289 499,-289 499,-270 390,-270"/>
<text text-anchor="middle" x="444.5" y="-277" font-family="Helvetica,sans-Serif" font-size="10.00">tlz::decode_intrinsics</text>
</a>
</g>
</g>
<!-- Node19&#45;&gt;Node20 -->
<g id="edge24" class="edge"><title>Node19&#45;&gt;Node20</title>
<path fill="none" stroke="midnightblue" d="M176.385,-225.239C220.097,-225.973 288.083,-229.755 345,-244.5 361.95,-248.891 364.593,-254.387 381,-260.5 386.998,-262.735 393.389,-264.908 399.708,-266.937"/>
<polygon fill="midnightblue" stroke="midnightblue" points="398.923,-270.359 409.512,-269.997 401.009,-263.677 398.923,-270.359"/>
</g>
<!-- Node20&#45;&gt;Node5 -->
<g id="edge26" class="edge"><title>Node20&#45;&gt;Node5</title>
<path fill="none" stroke="midnightblue" d="M491.169,-289.015C497.187,-291.485 502.994,-294.592 508,-298.5 532.515,-317.634 519.635,-339.175 544,-358.5 566.526,-376.366 643.274,-396.887 688.136,-407.773"/>
<polygon fill="midnightblue" stroke="midnightblue" points="687.458,-411.21 697.999,-410.136 689.089,-404.402 687.458,-411.21"/>
</g>
<!-- Node20&#45;&gt;Node7 -->
<g id="edge27" class="edge"><title>Node20&#45;&gt;Node7</title>
<path fill="none" stroke="midnightblue" d="M493.706,-289.114C498.928,-291.566 503.844,-294.642 508,-298.5 540.481,-328.656 515.093,-357.902 544,-391.5 546.835,-394.794 550.239,-397.738 553.868,-400.337"/>
<polygon fill="midnightblue" stroke="midnightblue" points="552.244,-403.449 562.578,-405.782 555.954,-397.514 552.244,-403.449"/>
</g>
<!-- Node21 -->
<g id="node21" class="node"><title>Node21</title>
<g id="a_node21"><a xlink:href="namespacetlz.html#a066563a26e2de02f215b179f3d3a53da" target="_top" xlink:title="tlz::decode_mat">
<polygon fill="white" stroke="black" points="544,-330 544,-349 630,-349 630,-330 544,-330"/>
<text text-anchor="middle" x="587" y="-337" font-family="Helvetica,sans-Serif" font-size="10.00">tlz::decode_mat</text>
</a>
</g>
</g>
<!-- Node20&#45;&gt;Node21 -->
<g id="edge25" class="edge"><title>Node20&#45;&gt;Node21</title>
<path fill="none" stroke="midnightblue" d="M482.424,-289.03C490.975,-291.699 499.929,-294.878 508,-298.5 525.107,-306.177 527.426,-311.73 544,-320.5 547.307,-322.25 550.807,-323.994 554.319,-325.677"/>
<polygon fill="midnightblue" stroke="midnightblue" points="552.975,-328.912 563.519,-329.948 555.922,-322.562 552.975,-328.912"/>
</g>
<!-- Node23 -->
<g id="node23" class="node"><title>Node23</title>
<g id="a_node23"><a xlink:href="namespacetlz.html#a8b5e4acbb884887859e414ffe06a09f8" target="_top" xlink:title="tlz::undistort_points">
<polygon fill="white" stroke="black" points="233,-52 233,-71 335,-71 335,-52 233,-52"/>
<text text-anchor="middle" x="284" y="-59" font-family="Helvetica,sans-Serif" font-size="10.00">tlz::undistort_points</text>
</a>
</g>
</g>
<!-- Node22&#45;&gt;Node23 -->
<g id="edge30" class="edge"><title>Node22&#45;&gt;Node23</title>
<path fill="none" stroke="midnightblue" d="M166.257,-83.8468C183.144,-80.6143 203.921,-76.6373 223.243,-72.9387"/>
<polygon fill="midnightblue" stroke="midnightblue" points="224.022,-76.3531 233.186,-71.0354 222.706,-69.4779 224.022,-76.3531"/>
</g>
<!-- Node24 -->
<g id="node24" class="node"><title>Node24</title>
<g id="a_node24"><a xlink:href="structtlz_1_1distortion__parameters.html#a307fee036b04519d633fb8456899850c" target="_top" xlink:title="tlz::distortion_parameters\l::is_none">
<polygon fill="white" stroke="black" points="381,-49.5 381,-79.5 508,-79.5 508,-49.5 381,-49.5"/>
<text text-anchor="start" x="389" y="-67.5" font-family="Helvetica,sans-Serif" font-size="10.00">tlz::distortion_parameters</text>
<text text-anchor="middle" x="444.5" y="-56.5" font-family="Helvetica,sans-Serif" font-size="10.00">::is_none</text>
</a>
</g>
</g>
<!-- Node23&#45;&gt;Node24 -->
<g id="edge31" class="edge"><title>Node23&#45;&gt;Node24</title>
<path fill="none" stroke="midnightblue" d="M335.15,-62.4492C346.487,-62.6638 358.747,-62.8958 370.802,-63.124"/>
<polygon fill="midnightblue" stroke="midnightblue" points="370.792,-66.6244 380.857,-63.3143 370.925,-59.6256 370.792,-66.6244"/>
</g>
<!-- Node25 -->
<g id="node25" class="node"><title>Node25</title>
<g id="a_node25"><a xlink:href="structtlz_1_1distortion__parameters.html#a96312c5d7baa4b7b1f2a76e9396037f8" target="_top" xlink:title="tlz::distortion_parameters\l::cv_coeffs">
<polygon fill="white" stroke="black" points="381,-0.5 381,-30.5 508,-30.5 508,-0.5 381,-0.5"/>
<text text-anchor="start" x="389" y="-18.5" font-family="Helvetica,sans-Serif" font-size="10.00">tlz::distortion_parameters</text>
<text text-anchor="middle" x="444.5" y="-7.5" font-family="Helvetica,sans-Serif" font-size="10.00">::cv_coeffs</text>
</a>
</g>
</g>
<!-- Node23&#45;&gt;Node25 -->
<g id="edge32" class="edge"><title>Node23&#45;&gt;Node25</title>
<path fill="none" stroke="midnightblue" d="M317.841,-51.9688C336.32,-46.6059 359.996,-39.7346 381.805,-33.4053"/>
<polygon fill="midnightblue" stroke="midnightblue" points="383.04,-36.6913 391.668,-30.5427 381.089,-29.9687 383.04,-36.6913"/>
</g>
<!-- Node27 -->
<g id="node27" class="node"><title>Node27</title>
<g id="a_node27"><a xlink:href="namespacetlz.html#ae11c827ac9e581f9d2f98c39aab3750d" target="_top" xlink:title="tlz::file_name_extension">
<polygon fill="white" stroke="black" points="223,-14 223,-33 345,-33 345,-14 223,-14"/>
<text text-anchor="middle" x="284" y="-21" font-family="Helvetica,sans-Serif" font-size="10.00">tlz::file_name_extension</text>
</a>
</g>
</g>
<!-- Node26&#45;&gt;Node27 -->
<g id="edge34" class="edge"><title>Node26&#45;&gt;Node27</title>
<path fill="none" stroke="midnightblue" d="M181.107,-30.2256C191.243,-29.5566 202.092,-28.8405 212.792,-28.1342"/>
<polygon fill="midnightblue" stroke="midnightblue" points="213.229,-31.613 222.977,-27.4619 212.768,-24.6282 213.229,-31.613"/>
</g>
<!-- Node29 -->
<g id="node29" class="node"><title>Node29</title>
<g id="a_node29"><a xlink:href="namespacetlz.html#a8f6c31dc4b1dffe7950bcb1f4ff85cbc" target="_top" xlink:title="tlz::encode_feature\l_point">
<polygon fill="white" stroke="black" points="234,-90.5 234,-120.5 334,-120.5 334,-90.5 234,-90.5"/>
<text text-anchor="start" x="242" y="-108.5" font-family="Helvetica,sans-Serif" font-size="10.00">tlz::encode_feature</text>
<text text-anchor="middle" x="284" y="-97.5" font-family="Helvetica,sans-Serif" font-size="10.00">_point</text>
</a>
</g>
</g>
<!-- Node28&#45;&gt;Node29 -->
<g id="edge36" class="edge"><title>Node28&#45;&gt;Node29</title>
<path fill="none" stroke="midnightblue" d="M180.688,-131.162C194.517,-127.694 209.699,-123.886 224.036,-120.29"/>
<polygon fill="midnightblue" stroke="midnightblue" points="224.952,-123.668 233.8,-117.841 223.249,-116.879 224.952,-123.668"/>
</g>
<!-- Node30 -->
<g id="node30" class="node"><title>Node30</title>
<g id="a_node30"><a xlink:href="namespacetlz.html#aadab29bdc80bc1d0ad6d3784dd427992" target="_top" xlink:title="tlz::encode_view_index">
<polygon fill="white" stroke="black" points="224.5,-140 224.5,-159 343.5,-159 343.5,-140 224.5,-140"/>
<text text-anchor="middle" x="284" y="-147" font-family="Helvetica,sans-Serif" font-size="10.00">tlz::encode_view_index</text>
</a>
</g>
</g>
<!-- Node28&#45;&gt;Node30 -->
<g id="edge37" class="edge"><title>Node28&#45;&gt;Node30</title>
<path fill="none" stroke="midnightblue" d="M180.688,-145.448C191.338,-145.87 202.79,-146.323 214.041,-146.769"/>
<polygon fill="midnightblue" stroke="midnightblue" points="214.157,-150.276 224.288,-147.175 214.434,-143.282 214.157,-150.276"/>
</g>
<!-- Node30&#45;&gt;Node16 -->
<g id="edge38" class="edge"><title>Node30&#45;&gt;Node16</title>
<path fill="none" stroke="midnightblue" d="M343.629,-151.391C461.219,-155.184 723.599,-163.648 828.946,-167.047"/>
<polygon fill="midnightblue" stroke="midnightblue" points="829.125,-170.554 839.232,-167.378 829.35,-163.558 829.125,-170.554"/>
</g>
<!-- Node31 -->
<g id="node31" class="node"><title>Node31</title>
<g id="a_node31"><a xlink:href="structtlz_1_1view__index.html#a20518c30015d833cdb2a69b524886b96" target="_top" xlink:title="tlz::view_index::is_2d">
<polygon fill="white" stroke="black" points="389,-102 389,-121 500,-121 500,-102 389,-102"/>
<text text-anchor="middle" x="444.5" y="-109" font-family="Helvetica,sans-Serif" font-size="10.00">tlz::view_index::is_2d</text>
</a>
</g>
</g>
<!-- Node30&#45;&gt;Node31 -->
<g id="edge39" class="edge"><title>Node30&#45;&gt;Node31</title>
<path fill="none" stroke="midnightblue" d="M324.996,-139.911C345.912,-134.896 371.708,-128.712 393.886,-123.395"/>
<polygon fill="midnightblue" stroke="midnightblue" points="394.883,-126.755 403.791,-121.02 393.251,-119.948 394.883,-126.755"/>
</g>
</g>
</svg>
