<?xml version="1.0" encoding="UTF-8" standalone="no"?>
<!DOCTYPE svg PUBLIC "-//W3C//DTD SVG 1.1//EN"
 "http://www.w3.org/Graphics/SVG/1.1/DTD/svg11.dtd">
<!-- Generated by graphviz version 2.38.0 (20140413.2041)
 -->
<!-- Title: main Pages: 1 -->
<svg width="1279pt" height="498pt"
 viewBox="0.00 0.00 1279.00 498.00" xmlns="http://www.w3.org/2000/svg" xmlns:xlink="http://www.w3.org/1999/xlink">
<g id="graph0" class="graph" transform="scale(1 1) rotate(0) translate(4 494)">
<title>main</title>
<polygon fill="white" stroke="none" points="-4,4 -4,-494 1275,-494 1275,4 -4,4"/>
<!-- Node1 -->
<g id="node1" class="node"><title>Node1</title>
<polygon fill="#bfbfbf" stroke="black" points="0,-282 0,-301 38,-301 38,-282 0,-282"/>
<text text-anchor="middle" x="19" y="-289" font-family="Helvetica,sans-Serif" font-size="10.00">main</text>
</g>
<!-- Node2 -->
<g id="node2" class="node"><title>Node2</title>
<g id="a_node2"><a xlink:href="namespacetlz.html#a3c03f5d9d6261ec2909938822fc47f8a" target="_top" xlink:title="tlz::get_args">
<polygon fill="white" stroke="black" points="124,-379 124,-398 195,-398 195,-379 124,-379"/>
<text text-anchor="middle" x="159.5" y="-386" font-family="Helvetica,sans-Serif" font-size="10.00">tlz::get_args</text>
</a>
</g>
</g>
<!-- Node1&#45;&gt;Node2 -->
<g id="edge1" class="edge"><title>Node1&#45;&gt;Node2</title>
<path fill="none" stroke="midnightblue" d="M23.8566,-301.156C31.0567,-317.877 48.1897,-352.098 74,-369.5 85.6239,-377.337 99.9891,-381.986 113.557,-384.729"/>
<polygon fill="midnightblue" stroke="midnightblue" points="113.27,-388.231 123.718,-386.477 114.456,-381.332 113.27,-388.231"/>
</g>
<!-- Node3 -->
<g id="node3" class="node"><title>Node3</title>
<g id="a_node3"><a xlink:href="namespacetlz.html#a11d8bb3ca89f4957bfde1cd0d5429a16" target="_top" xlink:title="tlz::image_correspondences_arg">
<polygon fill="white" stroke="black" points="80.5,-263 80.5,-282 238.5,-282 238.5,-263 80.5,-263"/>
<text text-anchor="middle" x="159.5" y="-270" font-family="Helvetica,sans-Serif" font-size="10.00">tlz::image_correspondences_arg</text>
</a>
</g>
</g>
<!-- Node1&#45;&gt;Node3 -->
<g id="edge2" class="edge"><title>Node1&#45;&gt;Node3</title>
<path fill="none" stroke="midnightblue" d="M38.1065,-289.016C48.9934,-287.523 63.6907,-285.506 79.0728,-283.396"/>
<polygon fill="midnightblue" stroke="midnightblue" points="79.8153,-286.827 89.2468,-282 78.8639,-279.892 79.8153,-286.827"/>
</g>
<!-- Node21 -->
<g id="node21" class="node"><title>Node21</title>
<g id="a_node21"><a xlink:href="namespacetlz.html#a65770a2c1ff57c5ae6542d4465a3d3f4" target="_top" xlink:title="tlz::out_filename_arg">
<polygon fill="white" stroke="black" points="106,-302 106,-321 213,-321 213,-302 106,-302"/>
<text text-anchor="middle" x="159.5" y="-309" font-family="Helvetica,sans-Serif" font-size="10.00">tlz::out_filename_arg</text>
</a>
</g>
</g>
<!-- Node1&#45;&gt;Node21 -->
<g id="edge24" class="edge"><title>Node1&#45;&gt;Node21</title>
<path fill="none" stroke="midnightblue" d="M38.1065,-294.115C52.9186,-296.254 74.7838,-299.411 95.8309,-302.45"/>
<polygon fill="midnightblue" stroke="midnightblue" points="95.3402,-305.916 105.738,-303.881 96.3407,-298.988 95.3402,-305.916"/>
</g>
<!-- Node22 -->
<g id="node22" class="node"><title>Node22</title>
<g id="a_node22"><a xlink:href="namespacetlz.html#a170805c7a8ede64a93e0ee23196e5b7c" target="_top" xlink:title="tlz::intrinsics_arg">
<polygon fill="white" stroke="black" points="114,-181 114,-200 205,-200 205,-181 114,-181"/>
<text text-anchor="middle" x="159.5" y="-188" font-family="Helvetica,sans-Serif" font-size="10.00">tlz::intrinsics_arg</text>
</a>
</g>
</g>
<!-- Node1&#45;&gt;Node22 -->
<g id="edge26" class="edge"><title>Node1&#45;&gt;Node22</title>
<path fill="none" stroke="midnightblue" d="M33.0297,-281.998C56.952,-264.553 108.082,-227.267 137.147,-206.072"/>
<polygon fill="midnightblue" stroke="midnightblue" points="139.386,-208.77 145.404,-200.05 135.262,-203.114 139.386,-208.77"/>
</g>
<!-- Node26 -->
<g id="node26" class="node"><title>Node26</title>
<g id="a_node26"><a xlink:href="namespacetlz.html#ae9eeca909bec8ca797356b56d3cfbb90" target="_top" xlink:title="tlz::undistort">
<polygon fill="white" stroke="black" points="124,-98 124,-117 195,-117 195,-98 124,-98"/>
<text text-anchor="middle" x="159.5" y="-105" font-family="Helvetica,sans-Serif" font-size="10.00">tlz::undistort</text>
</a>
</g>
</g>
<!-- Node1&#45;&gt;Node26 -->
<g id="edge34" class="edge"><title>Node1&#45;&gt;Node26</title>
<path fill="none" stroke="midnightblue" d="M22.5344,-281.916C28.5851,-260.377 45.5293,-207.236 74,-171.5 90.1861,-151.183 114.212,-133.814 132.512,-122.318"/>
<polygon fill="midnightblue" stroke="midnightblue" points="134.511,-125.199 141.231,-117.009 130.87,-119.22 134.511,-125.199"/>
</g>
<!-- Node30 -->
<g id="node30" class="node"><title>Node30</title>
<g id="a_node30"><a xlink:href="namespacetlz.html#a703280f6c42435c957e976f0ab000b30" target="_top" xlink:title="tlz::export_image_corresponcences">
<polygon fill="white" stroke="black" points="74,-341 74,-360 245,-360 245,-341 74,-341"/>
<text text-anchor="middle" x="159.5" y="-348" font-family="Helvetica,sans-Serif" font-size="10.00">tlz::export_image_corresponcences</text>
</a>
</g>
</g>
<!-- Node1&#45;&gt;Node30 -->
<g id="edge38" class="edge"><title>Node1&#45;&gt;Node30</title>
<path fill="none" stroke="midnightblue" d="M30.7718,-301.269C41.1305,-310.156 57.594,-322.997 74,-330.5 80.2636,-333.365 86.9829,-335.844 93.7957,-337.984"/>
<polygon fill="midnightblue" stroke="midnightblue" points="93.223,-341.462 103.802,-340.882 95.1704,-334.738 93.223,-341.462"/>
</g>
<!-- Node4 -->
<g id="node4" class="node"><title>Node4</title>
<g id="a_node4"><a xlink:href="namespacetlz.html#ad75d99f2e1623434fbadee66f3ff29a1" target="_top" xlink:title="tlz::import_image_correspondences">
<polygon fill="white" stroke="black" points="283.5,-225 283.5,-244 454.5,-244 454.5,-225 283.5,-225"/>
<text text-anchor="middle" x="369" y="-232" font-family="Helvetica,sans-Serif" font-size="10.00">tlz::import_image_correspondences</text>
</a>
</g>
</g>
<!-- Node3&#45;&gt;Node4 -->
<g id="edge3" class="edge"><title>Node3&#45;&gt;Node4</title>
<path fill="none" stroke="midnightblue" d="M212.593,-262.96C240.96,-257.765 276.243,-251.304 306.017,-245.851"/>
<polygon fill="midnightblue" stroke="midnightblue" points="306.679,-249.288 315.885,-244.044 305.418,-242.403 306.679,-249.288"/>
</g>
<!-- Node14 -->
<g id="node14" class="node"><title>Node14</title>
<g id="a_node14"><a xlink:href="namespacetlz.html#a634de7ca11e100e4a118dffe80376a75" target="_top" xlink:title="tlz::in_filename_arg">
<polygon fill="white" stroke="black" points="530.5,-216 530.5,-235 631.5,-235 631.5,-216 530.5,-216"/>
<text text-anchor="middle" x="581" y="-223" font-family="Helvetica,sans-Serif" font-size="10.00">tlz::in_filename_arg</text>
</a>
</g>
</g>
<!-- Node3&#45;&gt;Node14 -->
<g id="edge15" class="edge"><title>Node3&#45;&gt;Node14</title>
<path fill="none" stroke="midnightblue" d="M238.642,-271.344C298.673,-269.528 383.48,-264.949 457,-253.5 473.296,-250.962 476.942,-248.26 493,-244.5 503.381,-242.069 514.482,-239.57 525.162,-237.214"/>
<polygon fill="midnightblue" stroke="midnightblue" points="526.216,-240.566 535.236,-235.007 524.718,-233.729 526.216,-240.566"/>
</g>
<!-- Node5 -->
<g id="node5" class="node"><title>Node5</title>
<g id="a_node5"><a xlink:href="namespacetlz.html#ae11c827ac9e581f9d2f98c39aab3750d" target="_top" xlink:title="tlz::file_name_extension">
<polygon fill="white" stroke="black" points="520,-342 520,-361 642,-361 642,-342 520,-342"/>
<text text-anchor="middle" x="581" y="-349" font-family="Helvetica,sans-Serif" font-size="10.00">tlz::file_name_extension</text>
</a>
</g>
</g>
<!-- Node4&#45;&gt;Node5 -->
<g id="edge4" class="edge"><title>Node4&#45;&gt;Node5</title>
<path fill="none" stroke="midnightblue" d="M387.185,-244.075C423.963,-264.565 510.485,-312.77 554.02,-337.025"/>
<polygon fill="midnightblue" stroke="midnightblue" points="552.433,-340.148 562.872,-341.957 555.84,-334.033 552.433,-340.148"/>
</g>
<!-- Node6 -->
<g id="node6" class="node"><title>Node6</title>
<g id="a_node6"><a xlink:href="namespacetlz.html#a24915249769d936c24ceb34f50b06104" target="_top" xlink:title="tlz::decode_image_correspondences">
<polygon fill="white" stroke="black" points="493,-99 493,-118 669,-118 669,-99 493,-99"/>
<text text-anchor="middle" x="581" y="-106" font-family="Helvetica,sans-Serif" font-size="10.00">tlz::decode_image_correspondences</text>
</a>
</g>
</g>
<!-- Node4&#45;&gt;Node6 -->
<g id="edge5" class="edge"><title>Node4&#45;&gt;Node6</title>
<path fill="none" stroke="midnightblue" d="M421.31,-224.98C433.592,-221.321 446.249,-216.316 457,-209.5 477.481,-196.516 474.881,-184.617 493,-168.5 512.379,-151.262 536.883,-134.767 554.944,-123.45"/>
<polygon fill="midnightblue" stroke="midnightblue" points="557.064,-126.254 563.74,-118.027 553.391,-120.296 557.064,-126.254"/>
</g>
<!-- Node12 -->
<g id="node12" class="node"><title>Node12</title>
<g id="a_node12"><a xlink:href="namespacetlz.html#aa1be9362f548fcf9378e1fc9074089c4" target="_top" xlink:title="tlz::import_json_file">
<polygon fill="white" stroke="black" points="530.5,-178 530.5,-197 631.5,-197 631.5,-178 530.5,-178"/>
<text text-anchor="middle" x="581" y="-185" font-family="Helvetica,sans-Serif" font-size="10.00">tlz::import_json_file</text>
</a>
</g>
</g>
<!-- Node4&#45;&gt;Node12 -->
<g id="edge13" class="edge"><title>Node4&#45;&gt;Node12</title>
<path fill="none" stroke="midnightblue" d="M411.541,-224.948C435.37,-219.492 465.853,-212.554 493,-206.5 503.629,-204.13 514.995,-201.625 525.888,-199.24"/>
<polygon fill="midnightblue" stroke="midnightblue" points="526.702,-202.645 535.724,-197.09 525.208,-195.806 526.702,-202.645"/>
</g>
<!-- Node13 -->
<g id="node13" class="node"><title>Node13</title>
<g id="a_node13"><a xlink:href="namespacetlz.html#a2ec439452fda5eeb03f60715e50fa96a" target="_top" xlink:title="tlz::import_binary\l_image_correspondences">
<polygon fill="white" stroke="black" points="517,-254.5 517,-284.5 645,-284.5 645,-254.5 517,-254.5"/>
<text text-anchor="start" x="525" y="-272.5" font-family="Helvetica,sans-Serif" font-size="10.00">tlz::import_binary</text>
<text text-anchor="middle" x="581" y="-261.5" font-family="Helvetica,sans-Serif" font-size="10.00">_image_correspondences</text>
</a>
</g>
</g>
<!-- Node4&#45;&gt;Node13 -->
<g id="edge14" class="edge"><title>Node4&#45;&gt;Node13</title>
<path fill="none" stroke="midnightblue" d="M427.106,-244.018C451.769,-248.128 480.918,-252.986 507.115,-257.353"/>
<polygon fill="midnightblue" stroke="midnightblue" points="506.556,-260.808 516.996,-258.999 507.707,-253.903 506.556,-260.808"/>
</g>
<!-- Node7 -->
<g id="node7" class="node"><title>Node7</title>
<g id="a_node7"><a xlink:href="namespacetlz.html#a252af14b9b4ac6502d3e9c5dd8dc90b8" target="_top" xlink:title="tlz::has">
<polygon fill="white" stroke="black" points="1222,-116 1222,-135 1271,-135 1271,-116 1222,-116"/>
<text text-anchor="middle" x="1246.5" y="-123" font-family="Helvetica,sans-Serif" font-size="10.00">tlz::has</text>
</a>
</g>
</g>
<!-- Node6&#45;&gt;Node7 -->
<g id="edge6" class="edge"><title>Node6&#45;&gt;Node7</title>
<path fill="none" stroke="midnightblue" d="M623.714,-98.9315C657.755,-91.1345 700.886,-81.2868 705,-80.5 847.559,-53.2356 886.988,-23.7176 1030,-48.5 1099.44,-60.5325 1176.11,-92.8565 1216.65,-111.577"/>
<polygon fill="midnightblue" stroke="midnightblue" points="1215.38,-114.845 1225.92,-115.911 1218.34,-108.504 1215.38,-114.845"/>
</g>
<!-- Node8 -->
<g id="node8" class="node"><title>Node8</title>
<g id="a_node8"><a xlink:href="namespacetlz.html#ab83b0eb933afca1abe8ccd3470207691" target="_top" xlink:title="tlz::decode_image_correspondence\l_feature">
<polygon fill="white" stroke="black" points="705,-90.5 705,-120.5 875,-120.5 875,-90.5 705,-90.5"/>
<text text-anchor="start" x="713" y="-108.5" font-family="Helvetica,sans-Serif" font-size="10.00">tlz::decode_image_correspondence</text>
<text text-anchor="middle" x="790" y="-97.5" font-family="Helvetica,sans-Serif" font-size="10.00">_feature</text>
</a>
</g>
</g>
<!-- Node6&#45;&gt;Node8 -->
<g id="edge7" class="edge"><title>Node6&#45;&gt;Node8</title>
<path fill="none" stroke="midnightblue" d="M669.187,-107.236C677.592,-107.115 686.144,-106.991 694.614,-106.868"/>
<polygon fill="midnightblue" stroke="midnightblue" points="694.942,-110.364 704.89,-106.719 694.841,-103.364 694.942,-110.364"/>
</g>
<!-- Node8&#45;&gt;Node7 -->
<g id="edge8" class="edge"><title>Node8&#45;&gt;Node7</title>
<path fill="none" stroke="midnightblue" d="M875.157,-109.203C976.205,-113.65 1140.89,-120.897 1211.55,-124.006"/>
<polygon fill="midnightblue" stroke="midnightblue" points="1211.52,-127.508 1221.67,-124.451 1211.83,-120.515 1211.52,-127.508"/>
</g>
<!-- Node9 -->
<g id="node9" class="node"><title>Node9</title>
<g id="a_node9"><a xlink:href="namespacetlz.html#a74e8454f97dace7cffb1afdb6d3ca87b" target="_top" xlink:title="tlz::decode_view_index">
<polygon fill="white" stroke="black" points="911,-58 911,-77 1030,-77 1030,-58 911,-58"/>
<text text-anchor="middle" x="970.5" y="-65" font-family="Helvetica,sans-Serif" font-size="10.00">tlz::decode_view_index</text>
</a>
</g>
</g>
<!-- Node8&#45;&gt;Node9 -->
<g id="edge9" class="edge"><title>Node8&#45;&gt;Node9</title>
<path fill="none" stroke="midnightblue" d="M861.548,-90.4814C879.221,-86.719 897.919,-82.7386 914.698,-79.1666"/>
<polygon fill="midnightblue" stroke="midnightblue" points="915.819,-82.5065 924.871,-77.0009 914.361,-75.6599 915.819,-82.5065"/>
</g>
<!-- Node10 -->
<g id="node10" class="node"><title>Node10</title>
<g id="a_node10"><a xlink:href="namespacetlz.html#ae8f9175a86bbe49ac0f4485d5db3080b" target="_top" xlink:title="tlz::decode_feature\l_point">
<polygon fill="white" stroke="black" points="920.5,-134.5 920.5,-164.5 1020.5,-164.5 1020.5,-134.5 920.5,-134.5"/>
<text text-anchor="start" x="928.5" y="-152.5" font-family="Helvetica,sans-Serif" font-size="10.00">tlz::decode_feature</text>
<text text-anchor="middle" x="970.5" y="-141.5" font-family="Helvetica,sans-Serif" font-size="10.00">_point</text>
</a>
</g>
</g>
<!-- Node8&#45;&gt;Node10 -->
<g id="edge10" class="edge"><title>Node8&#45;&gt;Node10</title>
<path fill="none" stroke="midnightblue" d="M851.93,-120.519C870.85,-125.183 891.664,-130.314 910.454,-134.945"/>
<polygon fill="midnightblue" stroke="midnightblue" points="909.818,-138.393 920.365,-137.388 911.494,-131.597 909.818,-138.393"/>
</g>
<!-- Node11 -->
<g id="node11" class="node"><title>Node11</title>
<g id="a_node11"><a xlink:href="namespacetlz.html#add846dc50c32dfb356cb1a7ac11d37ac" target="_top" xlink:title="tlz::get_or">
<polygon fill="white" stroke="black" points="1096,-137 1096,-156 1156,-156 1156,-137 1096,-137"/>
<text text-anchor="middle" x="1126" y="-144" font-family="Helvetica,sans-Serif" font-size="10.00">tlz::get_or</text>
</a>
</g>
</g>
<!-- Node10&#45;&gt;Node11 -->
<g id="edge11" class="edge"><title>Node10&#45;&gt;Node11</title>
<path fill="none" stroke="midnightblue" d="M1020.91,-148.534C1041.86,-148.125 1065.94,-147.654 1085.66,-147.269"/>
<polygon fill="midnightblue" stroke="midnightblue" points="1085.89,-150.765 1095.82,-147.07 1085.75,-143.766 1085.89,-150.765"/>
</g>
<!-- Node11&#45;&gt;Node7 -->
<g id="edge12" class="edge"><title>Node11&#45;&gt;Node7</title>
<path fill="none" stroke="midnightblue" d="M1156.29,-141.309C1172.98,-138.352 1193.97,-134.632 1211.39,-131.544"/>
<polygon fill="midnightblue" stroke="midnightblue" points="1212.48,-134.907 1221.71,-129.715 1211.26,-128.014 1212.48,-134.907"/>
</g>
<!-- Node15 -->
<g id="node15" class="node"><title>Node15</title>
<g id="a_node15"><a xlink:href="namespacetlz.html#a0621d598fb83b13bf028f3e6293d04f8" target="_top" xlink:title="tlz::string_arg">
<polygon fill="white" stroke="black" points="752,-301 752,-320 828,-320 828,-301 752,-301"/>
<text text-anchor="middle" x="790" y="-308" font-family="Helvetica,sans-Serif" font-size="10.00">tlz::string_arg</text>
</a>
</g>
</g>
<!-- Node14&#45;&gt;Node15 -->
<g id="edge16" class="edge"><title>Node14&#45;&gt;Node15</title>
<path fill="none" stroke="midnightblue" d="M631.786,-230.964C644.491,-233.78 657.731,-238.045 669,-244.5 689.469,-256.225 685.117,-270.807 705,-283.5 716.105,-290.589 729.229,-295.963 741.763,-299.973"/>
<polygon fill="midnightblue" stroke="midnightblue" points="741.056,-303.414 751.638,-302.904 743.047,-296.703 741.056,-303.414"/>
</g>
<!-- Node16 -->
<g id="node16" class="node"><title>Node16</title>
<g id="a_node16"><a xlink:href="namespacetlz.html#a780431daab8d2595372eacb43143b52d" target="_top" xlink:title="tlz::args">
<polygon fill="white" stroke="black" points="944.5,-298 944.5,-317 996.5,-317 996.5,-298 944.5,-298"/>
<text text-anchor="middle" x="970.5" y="-305" font-family="Helvetica,sans-Serif" font-size="10.00">tlz::args</text>
</a>
</g>
</g>
<!-- Node14&#45;&gt;Node16 -->
<g id="edge22" class="edge"><title>Node14&#45;&gt;Node16</title>
<path fill="none" stroke="midnightblue" d="M631.754,-218.251C703.6,-208.633 832.45,-194.809 875,-212.5 912.382,-228.042 942.609,-266.353 958.135,-289.296"/>
<polygon fill="midnightblue" stroke="midnightblue" points="955.295,-291.347 963.695,-297.803 961.154,-287.518 955.295,-291.347"/>
</g>
<!-- Node18 -->
<g id="node18" class="node"><title>Node18</title>
<g id="a_node18"><a xlink:href="classtlz_1_1args__list.html#a38ad21acd64a4af98ffdf4a47837cdbe" target="_top" xlink:title="tlz::args_list::usage_fail">
<polygon fill="white" stroke="black" points="1066,-299 1066,-318 1186,-318 1186,-299 1066,-299"/>
<text text-anchor="middle" x="1126" y="-306" font-family="Helvetica,sans-Serif" font-size="10.00">tlz::args_list::usage_fail</text>
</a>
</g>
</g>
<!-- Node14&#45;&gt;Node18 -->
<g id="edge23" class="edge"><title>Node14&#45;&gt;Node18</title>
<path fill="none" stroke="midnightblue" d="M624.249,-235.002C647.907,-240.092 677.995,-246.185 705,-250.5 848.606,-273.448 886.474,-265.051 1030,-288.5 1044.19,-290.818 1059.47,-293.812 1073.54,-296.773"/>
<polygon fill="midnightblue" stroke="midnightblue" points="1073.02,-300.243 1083.53,-298.914 1074.49,-293.398 1073.02,-300.243"/>
</g>
<!-- Node20 -->
<g id="node20" class="node"><title>Node20</title>
<g id="a_node20"><a xlink:href="namespacetlz.html#abb019466ea9f56c0dab27e893d891837" target="_top" xlink:title="tlz::file_exists">
<polygon fill="white" stroke="black" points="751.5,-222 751.5,-241 828.5,-241 828.5,-222 751.5,-222"/>
<text text-anchor="middle" x="790" y="-229" font-family="Helvetica,sans-Serif" font-size="10.00">tlz::file_exists</text>
</a>
</g>
</g>
<!-- Node14&#45;&gt;Node20 -->
<g id="edge21" class="edge"><title>Node14&#45;&gt;Node20</title>
<path fill="none" stroke="midnightblue" d="M631.582,-226.937C664.823,-227.901 708.36,-229.163 741.22,-230.115"/>
<polygon fill="midnightblue" stroke="midnightblue" points="741.39,-233.621 751.488,-230.413 741.593,-226.624 741.39,-233.621"/>
</g>
<!-- Node15&#45;&gt;Node16 -->
<g id="edge17" class="edge"><title>Node15&#45;&gt;Node16</title>
<path fill="none" stroke="midnightblue" d="M828.419,-309.871C859.603,-309.347 903.706,-308.606 934.266,-308.092"/>
<polygon fill="midnightblue" stroke="midnightblue" points="934.527,-311.588 944.467,-307.921 934.409,-304.589 934.527,-311.588"/>
</g>
<!-- Node17 -->
<g id="node17" class="node"><title>Node17</title>
<g id="a_node17"><a xlink:href="classtlz_1_1args__list.html#a73d99bc75998dc14607a3a372d28dc6d" target="_top" xlink:title="tlz::args_list::next_arg">
<polygon fill="white" stroke="black" points="914,-336 914,-355 1027,-355 1027,-336 914,-336"/>
<text text-anchor="middle" x="970.5" y="-343" font-family="Helvetica,sans-Serif" font-size="10.00">tlz::args_list::next_arg</text>
</a>
</g>
</g>
<!-- Node15&#45;&gt;Node17 -->
<g id="edge18" class="edge"><title>Node15&#45;&gt;Node17</title>
<path fill="none" stroke="midnightblue" d="M828.419,-317.837C852.26,-322.512 883.652,-328.667 910.77,-333.984"/>
<polygon fill="midnightblue" stroke="midnightblue" points="910.443,-337.487 920.929,-335.976 911.79,-330.618 910.443,-337.487"/>
</g>
<!-- Node17&#45;&gt;Node18 -->
<g id="edge19" class="edge"><title>Node17&#45;&gt;Node18</title>
<path fill="none" stroke="midnightblue" d="M1011.03,-335.972C1030.65,-331.243 1054.55,-325.482 1075.39,-320.459"/>
<polygon fill="midnightblue" stroke="midnightblue" points="1076.44,-323.806 1085.34,-318.06 1074.8,-317.001 1076.44,-323.806"/>
</g>
<!-- Node19 -->
<g id="node19" class="node"><title>Node19</title>
<g id="a_node19"><a xlink:href="namespacetlz.html#a8e4f8c8c2927bc4350de13bfa0f8f9e1" target="_top" xlink:title="tlz::to_string">
<polygon fill="white" stroke="black" points="1090.5,-356 1090.5,-375 1161.5,-375 1161.5,-356 1090.5,-356"/>
<text text-anchor="middle" x="1126" y="-363" font-family="Helvetica,sans-Serif" font-size="10.00">tlz::to_string</text>
</a>
</g>
</g>
<!-- Node17&#45;&gt;Node19 -->
<g id="edge20" class="edge"><title>Node17&#45;&gt;Node19</title>
<path fill="none" stroke="midnightblue" d="M1027.35,-352.777C1044.81,-355.052 1063.84,-357.531 1080.42,-359.692"/>
<polygon fill="midnightblue" stroke="midnightblue" points="1080.02,-363.169 1090.39,-360.991 1080.93,-356.228 1080.02,-363.169"/>
</g>
<!-- Node21&#45;&gt;Node15 -->
<g id="edge25" class="edge"><title>Node21&#45;&gt;Node15</title>
<path fill="none" stroke="midnightblue" d="M213.005,-311.416C333.164,-311.225 626.637,-310.758 741.654,-310.575"/>
<polygon fill="midnightblue" stroke="midnightblue" points="741.899,-314.075 751.893,-310.559 741.888,-307.075 741.899,-314.075"/>
</g>
<!-- Node23 -->
<g id="node23" class="node"><title>Node23</title>
<g id="a_node23"><a xlink:href="namespacetlz.html#a8cba4853d0d796a01c72f59f36f2a492" target="_top" xlink:title="tlz::decode_intrinsics">
<polygon fill="white" stroke="black" points="916,-184 916,-203 1025,-203 1025,-184 916,-184"/>
<text text-anchor="middle" x="970.5" y="-191" font-family="Helvetica,sans-Serif" font-size="10.00">tlz::decode_intrinsics</text>
</a>
</g>
</g>
<!-- Node22&#45;&gt;Node23 -->
<g id="edge27" class="edge"><title>Node22&#45;&gt;Node23</title>
<path fill="none" stroke="midnightblue" d="M205.235,-181.893C227.852,-177.939 255.784,-173.655 281,-171.5 452.823,-156.813 496.699,-161.345 669,-168.5 750.831,-171.898 844.874,-180.48 905.64,-186.64"/>
<polygon fill="midnightblue" stroke="midnightblue" points="905.54,-190.148 915.844,-187.684 906.252,-183.184 905.54,-190.148"/>
</g>
<!-- Node25 -->
<g id="node25" class="node"><title>Node25</title>
<g id="a_node25"><a xlink:href="namespacetlz.html#a35f9e03fa4fd9cec699f5fa27962400f" target="_top" xlink:title="tlz::json_arg">
<polygon fill="white" stroke="black" points="334,-181 334,-200 404,-200 404,-181 334,-181"/>
<text text-anchor="middle" x="369" y="-188" font-family="Helvetica,sans-Serif" font-size="10.00">tlz::json_arg</text>
</a>
</g>
</g>
<!-- Node22&#45;&gt;Node25 -->
<g id="edge31" class="edge"><title>Node22&#45;&gt;Node25</title>
<path fill="none" stroke="midnightblue" d="M205.014,-190.5C239.98,-190.5 288.445,-190.5 323.426,-190.5"/>
<polygon fill="midnightblue" stroke="midnightblue" points="323.819,-194 333.819,-190.5 323.819,-187 323.819,-194"/>
</g>
<!-- Node23&#45;&gt;Node7 -->
<g id="edge29" class="edge"><title>Node23&#45;&gt;Node7</title>
<path fill="none" stroke="midnightblue" d="M999.664,-203.068C1042.43,-215.845 1125.19,-233.596 1186,-203.5 1210.71,-191.269 1227.97,-163.311 1237.31,-144.41"/>
<polygon fill="midnightblue" stroke="midnightblue" points="1240.53,-145.784 1241.58,-135.241 1234.19,-142.83 1240.53,-145.784"/>
</g>
<!-- Node23&#45;&gt;Node11 -->
<g id="edge30" class="edge"><title>Node23&#45;&gt;Node11</title>
<path fill="none" stroke="midnightblue" d="M1002.56,-183.989C1026.62,-176.624 1060.08,-166.378 1085.94,-158.458"/>
<polygon fill="midnightblue" stroke="midnightblue" points="1087.27,-161.714 1095.8,-155.44 1085.22,-155.021 1087.27,-161.714"/>
</g>
<!-- Node24 -->
<g id="node24" class="node"><title>Node24</title>
<g id="a_node24"><a xlink:href="namespacetlz.html#a066563a26e2de02f215b179f3d3a53da" target="_top" xlink:title="tlz::decode_mat">
<polygon fill="white" stroke="black" points="1083,-175 1083,-194 1169,-194 1169,-175 1083,-175"/>
<text text-anchor="middle" x="1126" y="-182" font-family="Helvetica,sans-Serif" font-size="10.00">tlz::decode_mat</text>
</a>
</g>
</g>
<!-- Node23&#45;&gt;Node24 -->
<g id="edge28" class="edge"><title>Node23&#45;&gt;Node24</title>
<path fill="none" stroke="midnightblue" d="M1025.19,-190.352C1040.5,-189.454 1057.16,-188.477 1072.41,-187.583"/>
<polygon fill="midnightblue" stroke="midnightblue" points="1072.93,-191.059 1082.71,-186.98 1072.52,-184.071 1072.93,-191.059"/>
</g>
<!-- Node25&#45;&gt;Node12 -->
<g id="edge32" class="edge"><title>Node25&#45;&gt;Node12</title>
<path fill="none" stroke="midnightblue" d="M404.208,-190.011C435.441,-189.565 482.316,-188.895 519.809,-188.36"/>
<polygon fill="midnightblue" stroke="midnightblue" points="520.165,-191.855 530.114,-188.213 520.065,-184.856 520.165,-191.855"/>
</g>
<!-- Node25&#45;&gt;Node14 -->
<g id="edge33" class="edge"><title>Node25&#45;&gt;Node14</title>
<path fill="none" stroke="midnightblue" d="M404.208,-196.201C435.441,-201.407 482.316,-209.219 519.809,-215.468"/>
<polygon fill="midnightblue" stroke="midnightblue" points="519.675,-218.994 530.114,-217.186 520.826,-212.089 519.675,-218.994"/>
</g>
<!-- Node27 -->
<g id="node27" class="node"><title>Node27</title>
<g id="a_node27"><a xlink:href="namespacetlz.html#a8b5e4acbb884887859e414ffe06a09f8" target="_top" xlink:title="tlz::undistort_points">
<polygon fill="white" stroke="black" points="318,-55 318,-74 420,-74 420,-55 318,-55"/>
<text text-anchor="middle" x="369" y="-62" font-family="Helvetica,sans-Serif" font-size="10.00">tlz::undistort_points</text>
</a>
</g>
</g>
<!-- Node26&#45;&gt;Node27 -->
<g id="edge35" class="edge"><title>Node26&#45;&gt;Node27</title>
<path fill="none" stroke="midnightblue" d="M195.231,-100.303C226.973,-93.7248 274.491,-83.8778 311.663,-76.1747"/>
<polygon fill="midnightblue" stroke="midnightblue" points="312.77,-79.5198 321.851,-74.0633 311.349,-72.6654 312.77,-79.5198"/>
</g>
<!-- Node28 -->
<g id="node28" class="node"><title>Node28</title>
<g id="a_node28"><a xlink:href="structtlz_1_1distortion__parameters.html#a307fee036b04519d633fb8456899850c" target="_top" xlink:title="tlz::distortion_parameters\l::is_none">
<polygon fill="white" stroke="black" points="517.5,-49.5 517.5,-79.5 644.5,-79.5 644.5,-49.5 517.5,-49.5"/>
<text text-anchor="start" x="525.5" y="-67.5" font-family="Helvetica,sans-Serif" font-size="10.00">tlz::distortion_parameters</text>
<text text-anchor="middle" x="581" y="-56.5" font-family="Helvetica,sans-Serif" font-size="10.00">::is_none</text>
</a>
</g>
</g>
<!-- Node27&#45;&gt;Node28 -->
<g id="edge36" class="edge"><title>Node27&#45;&gt;Node28</title>
<path fill="none" stroke="midnightblue" d="M420.033,-64.5C446.078,-64.5 478.407,-64.5 507.171,-64.5"/>
<polygon fill="midnightblue" stroke="midnightblue" points="507.18,-68.0001 517.18,-64.5 507.18,-61.0001 507.18,-68.0001"/>
</g>
<!-- Node29 -->
<g id="node29" class="node"><title>Node29</title>
<g id="a_node29"><a xlink:href="structtlz_1_1distortion__parameters.html#a96312c5d7baa4b7b1f2a76e9396037f8" target="_top" xlink:title="tlz::distortion_parameters\l::cv_coeffs">
<polygon fill="white" stroke="black" points="517.5,-0.5 517.5,-30.5 644.5,-30.5 644.5,-0.5 517.5,-0.5"/>
<text text-anchor="start" x="525.5" y="-18.5" font-family="Helvetica,sans-Serif" font-size="10.00">tlz::distortion_parameters</text>
<text text-anchor="middle" x="581" y="-7.5" font-family="Helvetica,sans-Serif" font-size="10.00">::cv_coeffs</text>
</a>
</g>
</g>
<!-- Node27&#45;&gt;Node29 -->
<g id="edge37" class="edge"><title>Node27&#45;&gt;Node29</title>
<path fill="none" stroke="midnightblue" d="M410.739,-54.9942C438.195,-48.5879 475.175,-39.9591 507.567,-32.4011"/>
<polygon fill="midnightblue" stroke="midnightblue" points="508.513,-35.7744 517.456,-30.0935 506.923,-28.9575 508.513,-35.7744"/>
</g>
<!-- Node30&#45;&gt;Node5 -->
<g id="edge39" class="edge"><title>Node30&#45;&gt;Node5</title>
<path fill="none" stroke="midnightblue" d="M245.14,-350.702C322.814,-350.887 436.56,-351.158 509.44,-351.332"/>
<polygon fill="midnightblue" stroke="midnightblue" points="509.879,-354.833 519.887,-351.357 509.896,-347.833 509.879,-354.833"/>
</g>
<!-- Node31 -->
<g id="node31" class="node"><title>Node31</title>
<g id="a_node31"><a xlink:href="namespacetlz.html#ab98de0b10e3e079dee189f81adc638a0" target="_top" xlink:title="tlz::export_json_file">
<polygon fill="white" stroke="black" points="318.5,-379 318.5,-398 419.5,-398 419.5,-379 318.5,-379"/>
<text text-anchor="middle" x="369" y="-386" font-family="Helvetica,sans-Serif" font-size="10.00">tlz::export_json_file</text>
</a>
</g>
</g>
<!-- Node30&#45;&gt;Node31 -->
<g id="edge40" class="edge"><title>Node30&#45;&gt;Node31</title>
<path fill="none" stroke="midnightblue" d="M212.593,-360.04C241.715,-365.373 278.126,-372.041 308.383,-377.582"/>
<polygon fill="midnightblue" stroke="midnightblue" points="307.921,-381.056 318.388,-379.414 309.182,-374.17 307.921,-381.056"/>
</g>
<!-- Node32 -->
<g id="node32" class="node"><title>Node32</title>
<g id="a_node32"><a xlink:href="namespacetlz.html#a5425610b090d56218f8a7272ba402bfb" target="_top" xlink:title="tlz::encode_image_correspondences">
<polygon fill="white" stroke="black" points="281,-467 281,-486 457,-486 457,-467 281,-467"/>
<text text-anchor="middle" x="369" y="-474" font-family="Helvetica,sans-Serif" font-size="10.00">tlz::encode_image_correspondences</text>
</a>
</g>
</g>
<!-- Node30&#45;&gt;Node32 -->
<g id="edge42" class="edge"><title>Node30&#45;&gt;Node32</title>
<path fill="none" stroke="midnightblue" d="M230.061,-360.15C235.447,-362.641 240.522,-365.714 245,-369.5 277.27,-396.782 248.646,-430.318 281,-457.5 282.827,-459.035 284.751,-460.454 286.752,-461.766"/>
<polygon fill="midnightblue" stroke="midnightblue" points="285.521,-465.084 295.967,-466.853 288.904,-458.956 285.521,-465.084"/>
</g>
<!-- Node37 -->
<g id="node37" class="node"><title>Node37</title>
<g id="a_node37"><a xlink:href="namespacetlz.html#a24bb23db2319f38046e6de526a0cb20e" target="_top" xlink:title="tlz::export_binary\l_image_correspondences">
<polygon fill="white" stroke="black" points="305,-417.5 305,-447.5 433,-447.5 433,-417.5 305,-417.5"/>
<text text-anchor="start" x="313" y="-435.5" font-family="Helvetica,sans-Serif" font-size="10.00">tlz::export_binary</text>
<text text-anchor="middle" x="369" y="-424.5" font-family="Helvetica,sans-Serif" font-size="10.00">_image_correspondences</text>
</a>
</g>
</g>
<!-- Node30&#45;&gt;Node37 -->
<g id="edge48" class="edge"><title>Node30&#45;&gt;Node37</title>
<path fill="none" stroke="midnightblue" d="M223.007,-360.107C230.679,-362.559 238.202,-365.637 245,-369.5 265.226,-380.995 261.119,-395.417 281,-407.5 285.616,-410.306 290.562,-412.809 295.664,-415.04"/>
<polygon fill="midnightblue" stroke="midnightblue" points="294.397,-418.303 304.982,-418.768 296.998,-411.804 294.397,-418.303"/>
</g>
<!-- Node31&#45;&gt;Node5 -->
<g id="edge41" class="edge"><title>Node31&#45;&gt;Node5</title>
<path fill="none" stroke="midnightblue" d="M419.501,-379.778C448.388,-374.689 485.138,-368.214 516.182,-362.744"/>
<polygon fill="midnightblue" stroke="midnightblue" points="516.802,-366.189 526.043,-361.007 515.588,-359.295 516.802,-366.189"/>
</g>
<!-- Node33 -->
<g id="node33" class="node"><title>Node33</title>
<g id="a_node33"><a xlink:href="namespacetlz.html#aa875dcb2a47f0a406887a14c6f515bfd" target="_top" xlink:title="tlz::encode_image_correspondence\l_feature">
<polygon fill="white" stroke="black" points="496,-459.5 496,-489.5 666,-489.5 666,-459.5 496,-459.5"/>
<text text-anchor="start" x="504" y="-477.5" font-family="Helvetica,sans-Serif" font-size="10.00">tlz::encode_image_correspondence</text>
<text text-anchor="middle" x="581" y="-466.5" font-family="Helvetica,sans-Serif" font-size="10.00">_feature</text>
</a>
</g>
</g>
<!-- Node32&#45;&gt;Node33 -->
<g id="edge43" class="edge"><title>Node32&#45;&gt;Node33</title>
<path fill="none" stroke="midnightblue" d="M457.235,-475.669C466.586,-475.58 476.131,-475.489 485.561,-475.399"/>
<polygon fill="midnightblue" stroke="midnightblue" points="485.769,-478.898 495.735,-475.303 485.702,-471.898 485.769,-478.898"/>
</g>
<!-- Node34 -->
<g id="node34" class="node"><title>Node34</title>
<g id="a_node34"><a xlink:href="namespacetlz.html#aadab29bdc80bc1d0ad6d3784dd427992" target="_top" xlink:title="tlz::encode_view_index">
<polygon fill="white" stroke="black" points="730.5,-416 730.5,-435 849.5,-435 849.5,-416 730.5,-416"/>
<text text-anchor="middle" x="790" y="-423" font-family="Helvetica,sans-Serif" font-size="10.00">tlz::encode_view_index</text>
</a>
</g>
</g>
<!-- Node33&#45;&gt;Node34 -->
<g id="edge44" class="edge"><title>Node33&#45;&gt;Node34</title>
<path fill="none" stroke="midnightblue" d="M645.514,-459.465C675.468,-452.375 710.703,-444.034 738.76,-437.393"/>
<polygon fill="midnightblue" stroke="midnightblue" points="739.824,-440.737 748.749,-435.028 738.212,-433.926 739.824,-440.737"/>
</g>
<!-- Node36 -->
<g id="node36" class="node"><title>Node36</title>
<g id="a_node36"><a xlink:href="namespacetlz.html#a8f6c31dc4b1dffe7950bcb1f4ff85cbc" target="_top" xlink:title="tlz::encode_feature\l_point">
<polygon fill="white" stroke="black" points="740,-459.5 740,-489.5 840,-489.5 840,-459.5 740,-459.5"/>
<text text-anchor="start" x="748" y="-477.5" font-family="Helvetica,sans-Serif" font-size="10.00">tlz::encode_feature</text>
<text text-anchor="middle" x="790" y="-466.5" font-family="Helvetica,sans-Serif" font-size="10.00">_point</text>
</a>
</g>
</g>
<!-- Node33&#45;&gt;Node36 -->
<g id="edge47" class="edge"><title>Node33&#45;&gt;Node36</title>
<path fill="none" stroke="midnightblue" d="M666.195,-474.5C687.546,-474.5 710.033,-474.5 729.847,-474.5"/>
<polygon fill="midnightblue" stroke="midnightblue" points="729.944,-478 739.944,-474.5 729.944,-471 729.944,-478"/>
</g>
<!-- Node34&#45;&gt;Node19 -->
<g id="edge45" class="edge"><title>Node34&#45;&gt;Node19</title>
<path fill="none" stroke="midnightblue" d="M843.923,-415.993C909.13,-404.279 1018.78,-384.581 1080.08,-373.57"/>
<polygon fill="midnightblue" stroke="midnightblue" points="1080.99,-376.962 1090.21,-371.749 1079.75,-370.073 1080.99,-376.962"/>
</g>
<!-- Node35 -->
<g id="node35" class="node"><title>Node35</title>
<g id="a_node35"><a xlink:href="structtlz_1_1view__index.html#a20518c30015d833cdb2a69b524886b96" target="_top" xlink:title="tlz::view_index::is_2d">
<polygon fill="white" stroke="black" points="915,-416 915,-435 1026,-435 1026,-416 915,-416"/>
<text text-anchor="middle" x="970.5" y="-423" font-family="Helvetica,sans-Serif" font-size="10.00">tlz::view_index::is_2d</text>
</a>
</g>
</g>
<!-- Node34&#45;&gt;Node35 -->
<g id="edge46" class="edge"><title>Node34&#45;&gt;Node35</title>
<path fill="none" stroke="midnightblue" d="M849.942,-425.5C867.511,-425.5 886.858,-425.5 904.775,-425.5"/>
<polygon fill="midnightblue" stroke="midnightblue" points="904.847,-429 914.847,-425.5 904.847,-422 904.847,-429"/>
</g>
</g>
</svg>
