<?xml version="1.0" encoding="UTF-8" standalone="no"?>
<!DOCTYPE svg PUBLIC "-//W3C//DTD SVG 1.1//EN"
 "http://www.w3.org/Graphics/SVG/1.1/DTD/svg11.dtd">
<!-- Generated by graphviz version 2.38.0 (20140413.2041)
 -->
<!-- Title: main Pages: 1 -->
<svg width="970pt" height="1037pt"
 viewBox="0.00 0.00 970.00 1037.00" xmlns="http://www.w3.org/2000/svg" xmlns:xlink="http://www.w3.org/1999/xlink">
<g id="graph0" class="graph" transform="scale(1 1) rotate(0) translate(4 1033)">
<title>main</title>
<polygon fill="white" stroke="none" points="-4,4 -4,-1033 966,-1033 966,4 -4,4"/>
<!-- Node1 -->
<g id="node1" class="node"><title>Node1</title>
<polygon fill="#bfbfbf" stroke="black" points="0,-529.5 0,-548.5 38,-548.5 38,-529.5 0,-529.5"/>
<text text-anchor="middle" x="19" y="-536.5" font-family="Helvetica,sans-Serif" font-size="10.00">main</text>
</g>
<!-- Node2 -->
<g id="node2" class="node"><title>Node2</title>
<g id="a_node2"><a xlink:href="namespacetlz.html#a3c03f5d9d6261ec2909938822fc47f8a" target="_top" xlink:title="tlz::get_args">
<polygon fill="white" stroke="black" points="102.5,-1009.5 102.5,-1028.5 173.5,-1028.5 173.5,-1009.5 102.5,-1009.5"/>
<text text-anchor="middle" x="138" y="-1016.5" font-family="Helvetica,sans-Serif" font-size="10.00">tlz::get_args</text>
</a>
</g>
</g>
<!-- Node1&#45;&gt;Node2 -->
<g id="edge1" class="edge"><title>Node1&#45;&gt;Node2</title>
<path fill="none" stroke="midnightblue" d="M19.7523,-548.506C18.3964,-607.95 13.9789,-928.341 74,-1000 78.8414,-1005.78 85.3739,-1009.84 92.4038,-1012.69"/>
<polygon fill="midnightblue" stroke="midnightblue" points="91.594,-1016.11 102.186,-1015.86 93.7549,-1009.45 91.594,-1016.11"/>
</g>
<!-- Node3 -->
<g id="node3" class="node"><title>Node3</title>
<g id="a_node3"><a xlink:href="namespacetlz.html#a91f1aec7120c97452c495ee447e56b57" target="_top" xlink:title="tlz::dataset_arg">
<polygon fill="white" stroke="black" points="259,-933.5 259,-952.5 343,-952.5 343,-933.5 259,-933.5"/>
<text text-anchor="middle" x="301" y="-940.5" font-family="Helvetica,sans-Serif" font-size="10.00">tlz::dataset_arg</text>
</a>
</g>
</g>
<!-- Node1&#45;&gt;Node3 -->
<g id="edge2" class="edge"><title>Node1&#45;&gt;Node3</title>
<path fill="none" stroke="midnightblue" d="M19.8555,-548.636C19.2625,-602.415 19.2326,-864.924 74,-918 119.71,-962.299 197.502,-960.711 248.825,-953.466"/>
<polygon fill="midnightblue" stroke="midnightblue" points="249.363,-956.925 258.719,-951.954 248.305,-950.005 249.363,-956.925"/>
</g>
<!-- Node10 -->
<g id="node10" class="node"><title>Node10</title>
<g id="a_node10"><a xlink:href="namespacetlz.html#aa5e0f8e51747ba6008a12ea8942ad9f7" target="_top" xlink:title="tlz::cameras_arg">
<polygon fill="white" stroke="black" points="93.5,-971.5 93.5,-990.5 182.5,-990.5 182.5,-971.5 93.5,-971.5"/>
<text text-anchor="middle" x="138" y="-978.5" font-family="Helvetica,sans-Serif" font-size="10.00">tlz::cameras_arg</text>
</a>
</g>
</g>
<!-- Node1&#45;&gt;Node10 -->
<g id="edge11" class="edge"><title>Node1&#45;&gt;Node10</title>
<path fill="none" stroke="midnightblue" d="M19.9465,-548.645C19.8202,-604.933 21.7872,-890.776 74,-957 76.8907,-960.666 80.4102,-963.773 84.2924,-966.405"/>
<polygon fill="midnightblue" stroke="midnightblue" points="82.8337,-969.6 93.2671,-971.443 86.26,-963.496 82.8337,-969.6"/>
</g>
<!-- Node15 -->
<g id="node15" class="node"><title>Node15</title>
<g id="a_node15"><a xlink:href="namespacetlz.html#a8d3380a8873e542207e21a4384957425" target="_top" xlink:title="tlz::string_opt_arg">
<polygon fill="white" stroke="black" points="253.5,-895.5 253.5,-914.5 348.5,-914.5 348.5,-895.5 253.5,-895.5"/>
<text text-anchor="middle" x="301" y="-902.5" font-family="Helvetica,sans-Serif" font-size="10.00">tlz::string_opt_arg</text>
</a>
</g>
</g>
<!-- Node1&#45;&gt;Node15 -->
<g id="edge17" class="edge"><title>Node1&#45;&gt;Node15</title>
<path fill="none" stroke="midnightblue" d="M19.9714,-548.508C20.03,-599.344 23.0402,-838.512 74,-886 121.296,-930.074 200.888,-925.429 251.895,-916.428"/>
<polygon fill="midnightblue" stroke="midnightblue" points="252.832,-919.813 262.01,-914.52 251.534,-912.934 252.832,-919.813"/>
</g>
<!-- Node17 -->
<g id="node17" class="node"><title>Node17</title>
<g id="a_node17"><a xlink:href="namespacetlz.html#a5472d5ad8c55959e7d55be8551f53706" target="_top" xlink:title="tlz::cameras_map">
<polygon fill="white" stroke="black" points="90.5,-857.5 90.5,-876.5 185.5,-876.5 185.5,-857.5 90.5,-857.5"/>
<text text-anchor="middle" x="138" y="-864.5" font-family="Helvetica,sans-Serif" font-size="10.00">tlz::cameras_map</text>
</a>
</g>
</g>
<!-- Node1&#45;&gt;Node17 -->
<g id="edge22" class="edge"><title>Node1&#45;&gt;Node17</title>
<path fill="none" stroke="midnightblue" d="M20.3558,-548.526C22.2976,-595.477 33.0807,-801.855 74,-848 76.236,-850.522 78.7932,-852.714 81.5679,-854.62"/>
<polygon fill="midnightblue" stroke="midnightblue" points="79.9953,-857.75 90.441,-859.522 83.3799,-851.623 79.9953,-857.75"/>
</g>
<!-- Node18 -->
<g id="node18" class="node"><title>Node18</title>
<g id="a_node18"><a xlink:href="classtlz_1_1dataset.html#ad7d438f87e20fd0a734aabff2e6d52a9" target="_top" xlink:title="tlz::dataset::group">
<polygon fill="white" stroke="black" points="90.5,-769.5 90.5,-788.5 185.5,-788.5 185.5,-769.5 90.5,-769.5"/>
<text text-anchor="middle" x="138" y="-776.5" font-family="Helvetica,sans-Serif" font-size="10.00">tlz::dataset::group</text>
</a>
</g>
</g>
<!-- Node1&#45;&gt;Node18 -->
<g id="edge23" class="edge"><title>Node1&#45;&gt;Node18</title>
<path fill="none" stroke="midnightblue" d="M21.0988,-548.748C25.6289,-587.279 44.0397,-728.4 74,-760 76.2794,-762.404 78.8509,-764.507 81.6189,-766.347"/>
<polygon fill="midnightblue" stroke="midnightblue" points="79.9576,-769.428 90.4175,-771.113 83.2916,-763.273 79.9576,-769.428"/>
</g>
<!-- Node21 -->
<g id="node21" class="node"><title>Node21</title>
<g id="a_node21"><a xlink:href="classtlz_1_1dataset__group.html#a782b8049db0faa9ecfd0f7b0d6f31766" target="_top" xlink:title="tlz::dataset_group\l::image_size_with_border">
<polygon fill="white" stroke="black" points="74,-808 74,-838 202,-838 202,-808 74,-808"/>
<text text-anchor="start" x="82" y="-826" font-family="Helvetica,sans-Serif" font-size="10.00">tlz::dataset_group</text>
<text text-anchor="middle" x="138" y="-815" font-family="Helvetica,sans-Serif" font-size="10.00">::image_size_with_border</text>
</a>
</g>
</g>
<!-- Node1&#45;&gt;Node21 -->
<g id="edge26" class="edge"><title>Node1&#45;&gt;Node21</title>
<path fill="none" stroke="midnightblue" d="M20.7925,-548.564C24.4517,-590.613 40.9607,-758.718 74,-798 75.1196,-799.331 76.3199,-800.592 77.5879,-801.786"/>
<polygon fill="midnightblue" stroke="midnightblue" points="75.4522,-804.559 85.4993,-807.921 79.7419,-799.027 75.4522,-804.559"/>
</g>
<!-- Node28 -->
<g id="node28" class="node"><title>Node28</title>
<g id="a_node28"><a xlink:href="classtlz_1_1viewer.html#a2bf9d63d7a1a5ec4d5bdabc13d9ab688" target="_top" xlink:title="tlz::viewer::add_int\l_slider">
<polygon fill="white" stroke="black" points="88.5,-720 88.5,-750 187.5,-750 187.5,-720 88.5,-720"/>
<text text-anchor="start" x="96.5" y="-738" font-family="Helvetica,sans-Serif" font-size="10.00">tlz::viewer::add_int</text>
<text text-anchor="middle" x="138" y="-727" font-family="Helvetica,sans-Serif" font-size="10.00">_slider</text>
</a>
</g>
</g>
<!-- Node1&#45;&gt;Node28 -->
<g id="edge34" class="edge"><title>Node1&#45;&gt;Node28</title>
<path fill="none" stroke="midnightblue" d="M20.2708,-548.536C21.5832,-576.927 29.2495,-661.911 74,-710 75.7886,-711.922 77.7441,-713.699 79.8236,-715.341"/>
<polygon fill="midnightblue" stroke="midnightblue" points="78.1064,-718.403 88.3697,-721.033 81.9865,-712.577 78.1064,-718.403"/>
</g>
<!-- Node29 -->
<g id="node29" class="node"><title>Node29</title>
<g id="a_node29"><a xlink:href="classtlz_1_1dataset.html#acff1e030f5c941654ea16f8061f49346" target="_top" xlink:title="tlz::dataset::x_mid">
<polygon fill="white" stroke="black" points="89,-681.5 89,-700.5 187,-700.5 187,-681.5 89,-681.5"/>
<text text-anchor="middle" x="138" y="-688.5" font-family="Helvetica,sans-Serif" font-size="10.00">tlz::dataset::x_mid</text>
</a>
</g>
</g>
<!-- Node1&#45;&gt;Node29 -->
<g id="edge35" class="edge"><title>Node1&#45;&gt;Node29</title>
<path fill="none" stroke="midnightblue" d="M21.0796,-548.635C24.3272,-573.003 36.2393,-637.589 74,-672 75.7495,-673.594 77.6284,-675.055 79.6044,-676.393"/>
<polygon fill="midnightblue" stroke="midnightblue" points="78.3502,-679.701 88.7893,-681.511 81.7576,-673.586 78.3502,-679.701"/>
</g>
<!-- Node30 -->
<g id="node30" class="node"><title>Node30</title>
<g id="a_node30"><a xlink:href="classtlz_1_1dataset.html#a15180d3b04937d9f1c69041a220b943b" target="_top" xlink:title="tlz::dataset::x_min">
<polygon fill="white" stroke="black" points="89,-643.5 89,-662.5 187,-662.5 187,-643.5 89,-643.5"/>
<text text-anchor="middle" x="138" y="-650.5" font-family="Helvetica,sans-Serif" font-size="10.00">tlz::dataset::x_min</text>
</a>
</g>
</g>
<!-- Node1&#45;&gt;Node30 -->
<g id="edge36" class="edge"><title>Node1&#45;&gt;Node30</title>
<path fill="none" stroke="midnightblue" d="M22.8111,-548.681C28.8871,-567.884 45.0819,-610.928 74,-634 76.2604,-635.803 78.6898,-637.436 81.2326,-638.914"/>
<polygon fill="midnightblue" stroke="midnightblue" points="79.719,-642.07 90.2342,-643.366 82.8222,-635.795 79.719,-642.07"/>
</g>
<!-- Node31 -->
<g id="node31" class="node"><title>Node31</title>
<g id="a_node31"><a xlink:href="classtlz_1_1dataset.html#a280e3ae6c4b37e1e18fabf00b70be20a" target="_top" xlink:title="tlz::dataset::x_max">
<polygon fill="white" stroke="black" points="87.5,-605.5 87.5,-624.5 188.5,-624.5 188.5,-605.5 87.5,-605.5"/>
<text text-anchor="middle" x="138" y="-612.5" font-family="Helvetica,sans-Serif" font-size="10.00">tlz::dataset::x_max</text>
</a>
</g>
</g>
<!-- Node1&#45;&gt;Node31 -->
<g id="edge37" class="edge"><title>Node1&#45;&gt;Node31</title>
<path fill="none" stroke="midnightblue" d="M26.542,-548.53C35.7142,-561.187 53.5802,-583.405 74,-596 77.4032,-598.099 81.0534,-599.979 84.8195,-601.661"/>
<polygon fill="midnightblue" stroke="midnightblue" points="83.7593,-605.006 94.345,-605.446 86.3439,-598.501 83.7593,-605.006"/>
</g>
<!-- Node32 -->
<g id="node32" class="node"><title>Node32</title>
<g id="a_node32"><a xlink:href="classtlz_1_1dataset.html#a7efef5473f244709a47ff506267652b1" target="_top" xlink:title="tlz::dataset::x_step">
<polygon fill="white" stroke="black" points="87.5,-567.5 87.5,-586.5 188.5,-586.5 188.5,-567.5 87.5,-567.5"/>
<text text-anchor="middle" x="138" y="-574.5" font-family="Helvetica,sans-Serif" font-size="10.00">tlz::dataset::x_step</text>
</a>
</g>
</g>
<!-- Node1&#45;&gt;Node32 -->
<g id="edge38" class="edge"><title>Node1&#45;&gt;Node32</title>
<path fill="none" stroke="midnightblue" d="M38.4237,-545.716C48.8288,-549.45 62.0962,-554.113 74,-558 80.5668,-560.144 87.5463,-562.336 94.3772,-564.432"/>
<polygon fill="midnightblue" stroke="midnightblue" points="93.628,-567.862 104.214,-567.42 95.6623,-561.165 93.628,-567.862"/>
</g>
<!-- Node33 -->
<g id="node33" class="node"><title>Node33</title>
<g id="a_node33"><a xlink:href="classtlz_1_1dataset.html#a1183ab5dd7eab8ff6478d9105dc5da19" target="_top" xlink:title="tlz::dataset::y_mid">
<polygon fill="white" stroke="black" points="89,-529.5 89,-548.5 187,-548.5 187,-529.5 89,-529.5"/>
<text text-anchor="middle" x="138" y="-536.5" font-family="Helvetica,sans-Serif" font-size="10.00">tlz::dataset::y_mid</text>
</a>
</g>
</g>
<!-- Node1&#45;&gt;Node33 -->
<g id="edge39" class="edge"><title>Node1&#45;&gt;Node33</title>
<path fill="none" stroke="midnightblue" d="M38.0248,-539C49.0661,-539 63.8805,-539 78.6796,-539"/>
<polygon fill="midnightblue" stroke="midnightblue" points="78.8761,-542.5 88.8761,-539 78.876,-535.5 78.8761,-542.5"/>
</g>
<!-- Node34 -->
<g id="node34" class="node"><title>Node34</title>
<g id="a_node34"><a xlink:href="classtlz_1_1dataset.html#a3a77e1219653f07bef6ec7b08cbf7dcf" target="_top" xlink:title="tlz::dataset::y_min">
<polygon fill="white" stroke="black" points="89,-491.5 89,-510.5 187,-510.5 187,-491.5 89,-491.5"/>
<text text-anchor="middle" x="138" y="-498.5" font-family="Helvetica,sans-Serif" font-size="10.00">tlz::dataset::y_min</text>
</a>
</g>
</g>
<!-- Node1&#45;&gt;Node34 -->
<g id="edge40" class="edge"><title>Node1&#45;&gt;Node34</title>
<path fill="none" stroke="midnightblue" d="M38.4237,-532.284C48.8288,-528.55 62.0962,-523.887 74,-520 80.5668,-517.856 87.5463,-515.664 94.3772,-513.568"/>
<polygon fill="midnightblue" stroke="midnightblue" points="95.6623,-516.835 104.214,-510.58 93.628,-510.138 95.6623,-516.835"/>
</g>
<!-- Node35 -->
<g id="node35" class="node"><title>Node35</title>
<g id="a_node35"><a xlink:href="classtlz_1_1dataset.html#a6900b6a88a2ac1e23d1a51da20f650e4" target="_top" xlink:title="tlz::dataset::y_max">
<polygon fill="white" stroke="black" points="87.5,-453.5 87.5,-472.5 188.5,-472.5 188.5,-453.5 87.5,-453.5"/>
<text text-anchor="middle" x="138" y="-460.5" font-family="Helvetica,sans-Serif" font-size="10.00">tlz::dataset::y_max</text>
</a>
</g>
</g>
<!-- Node1&#45;&gt;Node35 -->
<g id="edge41" class="edge"><title>Node1&#45;&gt;Node35</title>
<path fill="none" stroke="midnightblue" d="M26.542,-529.47C35.7142,-516.813 53.5802,-494.595 74,-482 77.4032,-479.901 81.0534,-478.021 84.8195,-476.339"/>
<polygon fill="midnightblue" stroke="midnightblue" points="86.3439,-479.499 94.345,-472.554 83.7593,-472.994 86.3439,-479.499"/>
</g>
<!-- Node36 -->
<g id="node36" class="node"><title>Node36</title>
<g id="a_node36"><a xlink:href="classtlz_1_1dataset.html#a95703f1285ba42a810d46644128daf9a" target="_top" xlink:title="tlz::dataset::y_step">
<polygon fill="white" stroke="black" points="87.5,-415.5 87.5,-434.5 188.5,-434.5 188.5,-415.5 87.5,-415.5"/>
<text text-anchor="middle" x="138" y="-422.5" font-family="Helvetica,sans-Serif" font-size="10.00">tlz::dataset::y_step</text>
</a>
</g>
</g>
<!-- Node1&#45;&gt;Node36 -->
<g id="edge42" class="edge"><title>Node1&#45;&gt;Node36</title>
<path fill="none" stroke="midnightblue" d="M22.8111,-529.319C28.8871,-510.116 45.0819,-467.072 74,-444 76.2604,-442.197 78.6898,-440.564 81.2326,-439.086"/>
<polygon fill="midnightblue" stroke="midnightblue" points="82.8222,-442.205 90.2342,-434.634 79.719,-435.93 82.8222,-442.205"/>
</g>
<!-- Node37 -->
<g id="node37" class="node"><title>Node37</title>
<g id="a_node37"><a xlink:href="classtlz_1_1dataset.html#acef78cfe5bb77142cbd71e420f36e48b" target="_top" xlink:title="tlz::dataset::valid">
<polygon fill="white" stroke="black" points="92,-377.5 92,-396.5 184,-396.5 184,-377.5 92,-377.5"/>
<text text-anchor="middle" x="138" y="-384.5" font-family="Helvetica,sans-Serif" font-size="10.00">tlz::dataset::valid</text>
</a>
</g>
</g>
<!-- Node1&#45;&gt;Node37 -->
<g id="edge43" class="edge"><title>Node1&#45;&gt;Node37</title>
<path fill="none" stroke="midnightblue" d="M21.0796,-529.365C24.3272,-504.997 36.2393,-440.411 74,-406 76.6559,-403.58 79.6101,-401.467 82.7494,-399.624"/>
<polygon fill="midnightblue" stroke="midnightblue" points="84.544,-402.642 91.9921,-395.107 81.4707,-396.353 84.544,-402.642"/>
</g>
<!-- Node38 -->
<g id="node38" class="node"><title>Node38</title>
<g id="a_node38"><a xlink:href="namespacetlz.html#afbf92393383d3dde6ffd98700ea014f1" target="_top" xlink:title="tlz::load_texture">
<polygon fill="white" stroke="black" points="95,-339.5 95,-358.5 181,-358.5 181,-339.5 95,-339.5"/>
<text text-anchor="middle" x="138" y="-346.5" font-family="Helvetica,sans-Serif" font-size="10.00">tlz::load_texture</text>
</a>
</g>
</g>
<!-- Node1&#45;&gt;Node38 -->
<g id="edge44" class="edge"><title>Node1&#45;&gt;Node38</title>
<path fill="none" stroke="midnightblue" d="M20.0855,-529.284C20.8803,-500.39 27.2502,-414.148 74,-368 77.4274,-364.617 81.4344,-361.833 85.7371,-359.542"/>
<polygon fill="midnightblue" stroke="midnightblue" points="87.1592,-362.74 94.8935,-355.499 84.3318,-356.336 87.1592,-362.74"/>
</g>
<!-- Node39 -->
<g id="node39" class="node"><title>Node39</title>
<g id="a_node39"><a xlink:href="classtlz_1_1dataset__group.html#aa0c9157fd56b01adebcecdcdd98f9e3f" target="_top" xlink:title="tlz::dataset_group\l::view">
<polygon fill="white" stroke="black" points="90.5,-252 90.5,-282 185.5,-282 185.5,-252 90.5,-252"/>
<text text-anchor="start" x="98.5" y="-270" font-family="Helvetica,sans-Serif" font-size="10.00">tlz::dataset_group</text>
<text text-anchor="middle" x="138" y="-259" font-family="Helvetica,sans-Serif" font-size="10.00">::view</text>
</a>
</g>
</g>
<!-- Node1&#45;&gt;Node39 -->
<g id="edge45" class="edge"><title>Node1&#45;&gt;Node39</title>
<path fill="none" stroke="midnightblue" d="M21.0285,-529.305C25.4801,-488.912 44.2171,-334.365 74,-297 76.7183,-293.59 79.918,-290.545 83.4098,-287.831"/>
<polygon fill="midnightblue" stroke="midnightblue" points="85.6358,-290.553 91.9987,-282.082 81.7418,-284.736 85.6358,-290.553"/>
</g>
<!-- Node40 -->
<g id="node40" class="node"><title>Node40</title>
<g id="a_node40"><a xlink:href="classtlz_1_1dataset.html#acbdb309b8dd22f687fff41f6e9ac6ed4" target="_top" xlink:title="tlz::dataset::view">
<polygon fill="white" stroke="black" points="255,-301.5 255,-320.5 347,-320.5 347,-301.5 255,-301.5"/>
<text text-anchor="middle" x="301" y="-308.5" font-family="Helvetica,sans-Serif" font-size="10.00">tlz::dataset::view</text>
</a>
</g>
</g>
<!-- Node1&#45;&gt;Node40 -->
<g id="edge56" class="edge"><title>Node1&#45;&gt;Node40</title>
<path fill="none" stroke="midnightblue" d="M21.0342,-529.34C25.2587,-491.829 42.4945,-356.586 74,-330 122,-289.495 197.926,-292.09 248.341,-299.8"/>
<polygon fill="midnightblue" stroke="midnightblue" points="247.944,-303.282 258.38,-301.454 249.082,-296.375 247.944,-303.282"/>
</g>
<!-- Node43 -->
<g id="node43" class="node"><title>Node43</title>
<g id="a_node43"><a xlink:href="classtlz_1_1dataset__view.html#af3c734eaed33af07993255db63d3fc54" target="_top" xlink:title="tlz::dataset_view::\limage_filename">
<polygon fill="white" stroke="black" points="89.5,-203 89.5,-233 186.5,-233 186.5,-203 89.5,-203"/>
<text text-anchor="start" x="97.5" y="-221" font-family="Helvetica,sans-Serif" font-size="10.00">tlz::dataset_view::</text>
<text text-anchor="middle" x="138" y="-210" font-family="Helvetica,sans-Serif" font-size="10.00">image_filename</text>
</a>
</g>
</g>
<!-- Node1&#45;&gt;Node43 -->
<g id="edge51" class="edge"><title>Node1&#45;&gt;Node43</title>
<path fill="none" stroke="midnightblue" d="M20.5087,-529.293C23.1021,-483.275 36.2353,-287.447 74,-242 75.9636,-239.637 78.1869,-237.506 80.5959,-235.585"/>
<polygon fill="midnightblue" stroke="midnightblue" points="82.9442,-238.231 89.3952,-229.827 79.1111,-232.374 82.9442,-238.231"/>
</g>
<!-- Node45 -->
<g id="node45" class="node"><title>Node45</title>
<g id="a_node45"><a xlink:href="namespacetlz.html#a55912f12ae3521ac51a3d4ab3d75183a" target="_top" xlink:title="tlz::load_depth">
<polygon fill="white" stroke="black" points="98,-164.5 98,-183.5 178,-183.5 178,-164.5 98,-164.5"/>
<text text-anchor="middle" x="138" y="-171.5" font-family="Helvetica,sans-Serif" font-size="10.00">tlz::load_depth</text>
</a>
</g>
</g>
<!-- Node1&#45;&gt;Node45 -->
<g id="edge53" class="edge"><title>Node1&#45;&gt;Node45</title>
<path fill="none" stroke="midnightblue" d="M20.1634,-529.364C21.2111,-478.886 28.4897,-245.273 74,-193 77.9406,-188.474 82.9168,-185.005 88.3375,-182.351"/>
<polygon fill="midnightblue" stroke="midnightblue" points="89.7696,-185.548 97.7757,-178.609 87.1896,-179.041 89.7696,-185.548"/>
</g>
<!-- Node46 -->
<g id="node46" class="node"><title>Node46</title>
<g id="a_node46"><a xlink:href="classtlz_1_1dataset__view.html#a63238745feff55e3d0bea101589895c1" target="_top" xlink:title="tlz::dataset_view::\ldepth_filename">
<polygon fill="white" stroke="black" points="89.5,-115 89.5,-145 186.5,-145 186.5,-115 89.5,-115"/>
<text text-anchor="start" x="97.5" y="-133" font-family="Helvetica,sans-Serif" font-size="10.00">tlz::dataset_view::</text>
<text text-anchor="middle" x="138" y="-122" font-family="Helvetica,sans-Serif" font-size="10.00">depth_filename</text>
</a>
</g>
</g>
<!-- Node1&#45;&gt;Node46 -->
<g id="edge54" class="edge"><title>Node1&#45;&gt;Node46</title>
<path fill="none" stroke="midnightblue" d="M20.081,-529.46C20.7148,-476.187 26.2473,-215.726 74,-155 76.073,-152.364 78.4653,-150.005 81.08,-147.894"/>
<polygon fill="midnightblue" stroke="midnightblue" points="83.1213,-150.739 89.4949,-142.276 79.2346,-144.917 83.1213,-150.739"/>
</g>
<!-- Node47 -->
<g id="node47" class="node"><title>Node47</title>
<g id="a_node47"><a xlink:href="classtlz_1_1dataset__view.html#a38cfd9cd54168855c54c607d01184c17" target="_top" xlink:title="tlz::dataset_view::\lcamera_name">
<polygon fill="white" stroke="black" points="402,-126 402,-156 499,-156 499,-126 402,-126"/>
<text text-anchor="start" x="410" y="-144" font-family="Helvetica,sans-Serif" font-size="10.00">tlz::dataset_view::</text>
<text text-anchor="middle" x="450.5" y="-133" font-family="Helvetica,sans-Serif" font-size="10.00">camera_name</text>
</a>
</g>
</g>
<!-- Node1&#45;&gt;Node47 -->
<g id="edge57" class="edge"><title>Node1&#45;&gt;Node47</title>
<path fill="none" stroke="midnightblue" d="M20.4454,-529.439C23.3862,-468.342 40.9225,-134.217 74,-105 119.819,-64.5284 298.521,-102.234 391.917,-125.616"/>
<polygon fill="midnightblue" stroke="midnightblue" points="391.222,-129.05 401.776,-128.11 392.939,-122.264 391.222,-129.05"/>
</g>
<!-- Node48 -->
<g id="node48" class="node"><title>Node48</title>
<g id="a_node48"><a xlink:href="view__syn_8cc.html#a79e5a2e8bf4974058dea8dad3dac2327" target="_top" xlink:title="view_synthesis">
<polygon fill="white" stroke="black" points="96,-38.5 96,-57.5 180,-57.5 180,-38.5 96,-38.5"/>
<text text-anchor="middle" x="138" y="-45.5" font-family="Helvetica,sans-Serif" font-size="10.00">view_synthesis</text>
</a>
</g>
</g>
<!-- Node1&#45;&gt;Node48 -->
<g id="edge59" class="edge"><title>Node1&#45;&gt;Node48</title>
<path fill="none" stroke="midnightblue" d="M19.8024,-529.427C18.753,-469.555 15.8806,-146.736 74,-72 77.4578,-67.5536 81.8419,-63.9307 86.682,-60.979"/>
<polygon fill="midnightblue" stroke="midnightblue" points="88.4524,-64.0055 95.7847,-56.3577 85.2835,-57.7638 88.4524,-64.0055"/>
</g>
<!-- Node4 -->
<g id="node4" class="node"><title>Node4</title>
<g id="a_node4"><a xlink:href="namespacetlz.html#a634de7ca11e100e4a118dffe80376a75" target="_top" xlink:title="tlz::in_filename_arg">
<polygon fill="white" stroke="black" points="400,-933.5 400,-952.5 501,-952.5 501,-933.5 400,-933.5"/>
<text text-anchor="middle" x="450.5" y="-940.5" font-family="Helvetica,sans-Serif" font-size="10.00">tlz::in_filename_arg</text>
</a>
</g>
</g>
<!-- Node3&#45;&gt;Node4 -->
<g id="edge3" class="edge"><title>Node3&#45;&gt;Node4</title>
<path fill="none" stroke="midnightblue" d="M343.087,-943C357.562,-943 374.14,-943 389.834,-943"/>
<polygon fill="midnightblue" stroke="midnightblue" points="389.989,-946.5 399.989,-943 389.989,-939.5 389.989,-946.5"/>
</g>
<!-- Node5 -->
<g id="node5" class="node"><title>Node5</title>
<g id="a_node5"><a xlink:href="namespacetlz.html#a0621d598fb83b13bf028f3e6293d04f8" target="_top" xlink:title="tlz::string_arg">
<polygon fill="white" stroke="black" points="559,-933.5 559,-952.5 635,-952.5 635,-933.5 559,-933.5"/>
<text text-anchor="middle" x="597" y="-940.5" font-family="Helvetica,sans-Serif" font-size="10.00">tlz::string_arg</text>
</a>
</g>
</g>
<!-- Node4&#45;&gt;Node5 -->
<g id="edge4" class="edge"><title>Node4&#45;&gt;Node5</title>
<path fill="none" stroke="midnightblue" d="M501.229,-943C516.617,-943 533.521,-943 548.738,-943"/>
<polygon fill="midnightblue" stroke="midnightblue" points="548.964,-946.5 558.964,-943 548.964,-939.5 548.964,-946.5"/>
</g>
<!-- Node6 -->
<g id="node6" class="node"><title>Node6</title>
<g id="a_node6"><a xlink:href="namespacetlz.html#a780431daab8d2595372eacb43143b52d" target="_top" xlink:title="tlz::args">
<polygon fill="white" stroke="black" points="723.5,-895.5 723.5,-914.5 775.5,-914.5 775.5,-895.5 723.5,-895.5"/>
<text text-anchor="middle" x="749.5" y="-902.5" font-family="Helvetica,sans-Serif" font-size="10.00">tlz::args</text>
</a>
</g>
</g>
<!-- Node4&#45;&gt;Node6 -->
<g id="edge9" class="edge"><title>Node4&#45;&gt;Node6</title>
<path fill="none" stroke="midnightblue" d="M489.606,-933.427C504.333,-930.019 521.373,-926.428 537,-924 598.626,-914.426 671.159,-909.208 713.276,-906.77"/>
<polygon fill="midnightblue" stroke="midnightblue" points="713.514,-910.263 723.303,-906.21 713.123,-903.274 713.514,-910.263"/>
</g>
<!-- Node8 -->
<g id="node8" class="node"><title>Node8</title>
<g id="a_node8"><a xlink:href="classtlz_1_1args__list.html#a38ad21acd64a4af98ffdf4a47837cdbe" target="_top" xlink:title="tlz::args_list::usage_fail">
<polygon fill="white" stroke="black" points="842,-980.5 842,-999.5 962,-999.5 962,-980.5 842,-980.5"/>
<text text-anchor="middle" x="902" y="-987.5" font-family="Helvetica,sans-Serif" font-size="10.00">tlz::args_list::usage_fail</text>
</a>
</g>
</g>
<!-- Node4&#45;&gt;Node8 -->
<g id="edge10" class="edge"><title>Node4&#45;&gt;Node8</title>
<path fill="none" stroke="midnightblue" d="M482.657,-952.52C488.989,-955.114 495.414,-958.264 501,-962 520.338,-974.933 515.629,-990.808 537,-1000 645.351,-1046.61 789.11,-1019.97 859.114,-1002.09"/>
<polygon fill="midnightblue" stroke="midnightblue" points="860.109,-1005.45 868.894,-999.526 858.334,-998.677 860.109,-1005.45"/>
</g>
<!-- Node9 -->
<g id="node9" class="node"><title>Node9</title>
<g id="a_node9"><a xlink:href="namespacetlz.html#abb019466ea9f56c0dab27e893d891837" target="_top" xlink:title="tlz::file_exists">
<polygon fill="white" stroke="black" points="558.5,-971.5 558.5,-990.5 635.5,-990.5 635.5,-971.5 558.5,-971.5"/>
<text text-anchor="middle" x="597" y="-978.5" font-family="Helvetica,sans-Serif" font-size="10.00">tlz::file_exists</text>
</a>
</g>
</g>
<!-- Node4&#45;&gt;Node9 -->
<g id="edge8" class="edge"><title>Node4&#45;&gt;Node9</title>
<path fill="none" stroke="midnightblue" d="M487.963,-952.589C506.774,-957.536 529.915,-963.621 549.947,-968.889"/>
<polygon fill="midnightblue" stroke="midnightblue" points="549.237,-972.322 559.799,-971.48 551.018,-965.552 549.237,-972.322"/>
</g>
<!-- Node5&#45;&gt;Node6 -->
<g id="edge5" class="edge"><title>Node5&#45;&gt;Node6</title>
<path fill="none" stroke="midnightblue" d="M635.202,-933.607C659.163,-927.557 690.108,-919.744 713.601,-913.812"/>
<polygon fill="midnightblue" stroke="midnightblue" points="714.656,-917.155 723.495,-911.314 712.942,-910.368 714.656,-917.155"/>
</g>
<!-- Node7 -->
<g id="node7" class="node"><title>Node7</title>
<g id="a_node7"><a xlink:href="classtlz_1_1args__list.html#a73d99bc75998dc14607a3a372d28dc6d" target="_top" xlink:title="tlz::args_list::next_arg">
<polygon fill="white" stroke="red" points="693,-952.5 693,-971.5 806,-971.5 806,-952.5 693,-952.5"/>
<text text-anchor="middle" x="749.5" y="-959.5" font-family="Helvetica,sans-Serif" font-size="10.00">tlz::args_list::next_arg</text>
</a>
</g>
</g>
<!-- Node5&#45;&gt;Node7 -->
<g id="edge6" class="edge"><title>Node5&#45;&gt;Node7</title>
<path fill="none" stroke="midnightblue" d="M635.202,-947.697C649.619,-949.517 666.565,-951.656 682.894,-953.718"/>
<polygon fill="midnightblue" stroke="midnightblue" points="682.594,-957.207 692.954,-954.988 683.471,-950.262 682.594,-957.207"/>
</g>
<!-- Node7&#45;&gt;Node8 -->
<g id="edge7" class="edge"><title>Node7&#45;&gt;Node8</title>
<path fill="none" stroke="midnightblue" d="M801.873,-971.558C814.101,-973.833 827.269,-976.283 839.886,-978.63"/>
<polygon fill="midnightblue" stroke="midnightblue" points="839.387,-982.097 849.859,-980.485 840.668,-975.215 839.387,-982.097"/>
</g>
<!-- Node11 -->
<g id="node11" class="node"><title>Node11</title>
<g id="a_node11"><a xlink:href="namespacetlz.html#a8d445609e681336909da63eb443186b4" target="_top" xlink:title="tlz::decode_cameras">
<polygon fill="white" stroke="black" points="247.5,-1009.5 247.5,-1028.5 354.5,-1028.5 354.5,-1009.5 247.5,-1009.5"/>
<text text-anchor="middle" x="301" y="-1016.5" font-family="Helvetica,sans-Serif" font-size="10.00">tlz::decode_cameras</text>
</a>
</g>
</g>
<!-- Node10&#45;&gt;Node11 -->
<g id="edge12" class="edge"><title>Node10&#45;&gt;Node11</title>
<path fill="none" stroke="midnightblue" d="M179.627,-990.589C200.968,-995.626 227.312,-1001.84 249.908,-1007.18"/>
<polygon fill="midnightblue" stroke="midnightblue" points="249.128,-1010.59 259.665,-1009.48 250.736,-1003.78 249.128,-1010.59"/>
</g>
<!-- Node13 -->
<g id="node13" class="node"><title>Node13</title>
<g id="a_node13"><a xlink:href="namespacetlz.html#a35f9e03fa4fd9cec699f5fa27962400f" target="_top" xlink:title="tlz::json_arg">
<polygon fill="white" stroke="black" points="266,-971.5 266,-990.5 336,-990.5 336,-971.5 266,-971.5"/>
<text text-anchor="middle" x="301" y="-978.5" font-family="Helvetica,sans-Serif" font-size="10.00">tlz::json_arg</text>
</a>
</g>
</g>
<!-- Node10&#45;&gt;Node13 -->
<g id="edge14" class="edge"><title>Node10&#45;&gt;Node13</title>
<path fill="none" stroke="midnightblue" d="M182.569,-981C205.262,-981 232.954,-981 255.747,-981"/>
<polygon fill="midnightblue" stroke="midnightblue" points="255.838,-984.5 265.838,-981 255.838,-977.5 255.838,-984.5"/>
</g>
<!-- Node12 -->
<g id="node12" class="node"><title>Node12</title>
<g id="a_node12"><a xlink:href="namespacetlz.html#a066563a26e2de02f215b179f3d3a53da" target="_top" xlink:title="tlz::decode_mat">
<polygon fill="white" stroke="black" points="407.5,-1009.5 407.5,-1028.5 493.5,-1028.5 493.5,-1009.5 407.5,-1009.5"/>
<text text-anchor="middle" x="450.5" y="-1016.5" font-family="Helvetica,sans-Serif" font-size="10.00">tlz::decode_mat</text>
</a>
</g>
</g>
<!-- Node11&#45;&gt;Node12 -->
<g id="edge13" class="edge"><title>Node11&#45;&gt;Node12</title>
<path fill="none" stroke="midnightblue" d="M354.834,-1019C368.536,-1019 383.287,-1019 396.973,-1019"/>
<polygon fill="midnightblue" stroke="midnightblue" points="397.195,-1022.5 407.195,-1019 397.195,-1015.5 397.195,-1022.5"/>
</g>
<!-- Node13&#45;&gt;Node4 -->
<g id="edge16" class="edge"><title>Node13&#45;&gt;Node4</title>
<path fill="none" stroke="midnightblue" d="M336.21,-972.187C355.9,-967.114 380.927,-960.666 402.449,-955.122"/>
<polygon fill="midnightblue" stroke="midnightblue" points="403.564,-958.449 412.375,-952.564 401.818,-951.67 403.564,-958.449"/>
</g>
<!-- Node14 -->
<g id="node14" class="node"><title>Node14</title>
<g id="a_node14"><a xlink:href="namespacetlz.html#aa1be9362f548fcf9378e1fc9074089c4" target="_top" xlink:title="tlz::import_json_file">
<polygon fill="white" stroke="black" points="400,-971.5 400,-990.5 501,-990.5 501,-971.5 400,-971.5"/>
<text text-anchor="middle" x="450.5" y="-978.5" font-family="Helvetica,sans-Serif" font-size="10.00">tlz::import_json_file</text>
</a>
</g>
</g>
<!-- Node13&#45;&gt;Node14 -->
<g id="edge15" class="edge"><title>Node13&#45;&gt;Node14</title>
<path fill="none" stroke="midnightblue" d="M336.21,-981C352.077,-981 371.411,-981 389.583,-981"/>
<polygon fill="midnightblue" stroke="midnightblue" points="389.82,-984.5 399.82,-981 389.82,-977.5 389.82,-984.5"/>
</g>
<!-- Node15&#45;&gt;Node4 -->
<g id="edge21" class="edge"><title>Node15&#45;&gt;Node4</title>
<path fill="none" stroke="midnightblue" d="M339.22,-914.589C358.509,-919.558 382.258,-925.677 402.771,-930.961"/>
<polygon fill="midnightblue" stroke="midnightblue" points="401.99,-934.374 412.547,-933.48 403.737,-927.596 401.99,-934.374"/>
</g>
<!-- Node15&#45;&gt;Node5 -->
<g id="edge20" class="edge"><title>Node15&#45;&gt;Node5</title>
<path fill="none" stroke="midnightblue" d="M348.804,-908.112C389.235,-911.123 449.154,-916.361 501,-924 516.548,-926.291 533.402,-929.441 548.537,-932.517"/>
<polygon fill="midnightblue" stroke="midnightblue" points="548.202,-936.022 558.704,-934.624 549.622,-929.167 548.202,-936.022"/>
</g>
<!-- Node15&#45;&gt;Node6 -->
<g id="edge18" class="edge"><title>Node15&#45;&gt;Node6</title>
<path fill="none" stroke="midnightblue" d="M348.52,-905C438.3,-905 633.632,-905 713.452,-905"/>
<polygon fill="midnightblue" stroke="midnightblue" points="713.485,-908.5 723.485,-905 713.485,-901.5 713.485,-908.5"/>
</g>
<!-- Node16 -->
<g id="node16" class="node"><title>Node16</title>
<g id="a_node16"><a xlink:href="classtlz_1_1args__list.html#a4aee93f4b0d9b5b4e7a5d13cb637337c" target="_top" xlink:title="tlz::args_list::has\l_next_arg">
<polygon fill="white" stroke="black" points="404.5,-808 404.5,-838 496.5,-838 496.5,-808 404.5,-808"/>
<text text-anchor="start" x="412.5" y="-826" font-family="Helvetica,sans-Serif" font-size="10.00">tlz::args_list::has</text>
<text text-anchor="middle" x="450.5" y="-815" font-family="Helvetica,sans-Serif" font-size="10.00">_next_arg</text>
</a>
</g>
</g>
<!-- Node15&#45;&gt;Node16 -->
<g id="edge19" class="edge"><title>Node15&#45;&gt;Node16</title>
<path fill="none" stroke="midnightblue" d="M319.209,-895.433C342.211,-882.645 383.553,-859.662 413.511,-843.007"/>
<polygon fill="midnightblue" stroke="midnightblue" points="415.37,-845.978 422.41,-838.06 411.969,-839.86 415.37,-845.978"/>
</g>
<!-- Node19 -->
<g id="node19" class="node"><title>Node19</title>
<g id="a_node19"><a xlink:href="classtlz_1_1dataset__group.html#acad4f6300bfc455279aaeb975d5e61de" target="_top" xlink:title="tlz::dataset_group\l::dataset_group">
<polygon fill="white" stroke="black" points="253.5,-701 253.5,-731 348.5,-731 348.5,-701 253.5,-701"/>
<text text-anchor="start" x="261.5" y="-719" font-family="Helvetica,sans-Serif" font-size="10.00">tlz::dataset_group</text>
<text text-anchor="middle" x="301" y="-708" font-family="Helvetica,sans-Serif" font-size="10.00">::dataset_group</text>
</a>
</g>
</g>
<!-- Node18&#45;&gt;Node19 -->
<g id="edge24" class="edge"><title>Node18&#45;&gt;Node19</title>
<path fill="none" stroke="midnightblue" d="M175.068,-769.426C183.988,-766.703 193.439,-763.512 202,-760 218.738,-753.134 221.589,-748.615 238,-741 242.313,-738.999 246.834,-736.998 251.385,-735.048"/>
<polygon fill="midnightblue" stroke="midnightblue" points="252.845,-738.231 260.713,-731.135 250.137,-731.776 252.845,-738.231"/>
</g>
<!-- Node20 -->
<g id="node20" class="node"><title>Node20</title>
<g id="a_node20"><a xlink:href="namespacetlz.html#a252af14b9b4ac6502d3e9c5dd8dc90b8" target="_top" xlink:title="tlz::has">
<polygon fill="white" stroke="black" points="426,-662.5 426,-681.5 475,-681.5 475,-662.5 426,-662.5"/>
<text text-anchor="middle" x="450.5" y="-669.5" font-family="Helvetica,sans-Serif" font-size="10.00">tlz::has</text>
</a>
</g>
</g>
<!-- Node18&#45;&gt;Node20 -->
<g id="edge25" class="edge"><title>Node18&#45;&gt;Node20</title>
<path fill="none" stroke="midnightblue" d="M185.552,-769.637C191.472,-767.145 197.148,-763.992 202,-760 228.408,-738.275 209.568,-711 238,-692 291.799,-656.05 371.188,-659.98 415.828,-666.014"/>
<polygon fill="midnightblue" stroke="midnightblue" points="415.461,-669.498 425.864,-667.487 416.478,-662.572 415.461,-669.498"/>
</g>
<!-- Node22 -->
<g id="node22" class="node"><title>Node22</title>
<g id="a_node22"><a xlink:href="namespacetlz.html#a0b91e1131356fee9a4c7a72c3b398186" target="_top" xlink:title="tlz::add_border">
<polygon fill="white" stroke="black" points="260.5,-788.5 260.5,-807.5 341.5,-807.5 341.5,-788.5 260.5,-788.5"/>
<text text-anchor="middle" x="301" y="-795.5" font-family="Helvetica,sans-Serif" font-size="10.00">tlz::add_border</text>
</a>
</g>
</g>
<!-- Node21&#45;&gt;Node22 -->
<g id="edge27" class="edge"><title>Node21&#45;&gt;Node22</title>
<path fill="none" stroke="midnightblue" d="M202.169,-813.191C218.06,-810.724 234.896,-808.109 250.039,-805.758"/>
<polygon fill="midnightblue" stroke="midnightblue" points="250.875,-809.17 260.22,-804.177 249.801,-802.253 250.875,-809.17"/>
</g>
<!-- Node23 -->
<g id="node23" class="node"><title>Node23</title>
<g id="a_node23"><a xlink:href="classtlz_1_1dataset__group.html#a1b2ebd9009b660773532e42691dc301e" target="_top" xlink:title="tlz::dataset_group\l::image_border">
<polygon fill="white" stroke="black" points="253.5,-827 253.5,-857 348.5,-857 348.5,-827 253.5,-827"/>
<text text-anchor="start" x="261.5" y="-845" font-family="Helvetica,sans-Serif" font-size="10.00">tlz::dataset_group</text>
<text text-anchor="middle" x="301" y="-834" font-family="Helvetica,sans-Serif" font-size="10.00">::image_border</text>
</a>
</g>
</g>
<!-- Node21&#45;&gt;Node23 -->
<g id="edge28" class="edge"><title>Node21&#45;&gt;Node23</title>
<path fill="none" stroke="midnightblue" d="M202.169,-830.455C215.788,-832.062 230.102,-833.751 243.45,-835.326"/>
<polygon fill="midnightblue" stroke="midnightblue" points="243.099,-838.809 253.441,-836.505 243.92,-831.857 243.099,-838.809"/>
</g>
<!-- Node27 -->
<g id="node27" class="node"><title>Node27</title>
<g id="a_node27"><a xlink:href="classtlz_1_1dataset.html#a7aecc40555a69a401c3d3b9c53025fcd" target="_top" xlink:title="tlz::dataset::image_size">
<polygon fill="white" stroke="black" points="240.5,-750.5 240.5,-769.5 361.5,-769.5 361.5,-750.5 240.5,-750.5"/>
<text text-anchor="middle" x="301" y="-757.5" font-family="Helvetica,sans-Serif" font-size="10.00">tlz::dataset::image_size</text>
</a>
</g>
</g>
<!-- Node21&#45;&gt;Node27 -->
<g id="edge33" class="edge"><title>Node21&#45;&gt;Node27</title>
<path fill="none" stroke="midnightblue" d="M178.932,-807.908C186.65,-804.779 194.626,-801.397 202,-798 218.432,-790.43 221.277,-785.903 238,-779 243.467,-776.743 249.3,-774.613 255.12,-772.652"/>
<polygon fill="midnightblue" stroke="midnightblue" points="256.392,-775.919 264.835,-769.519 254.243,-769.257 256.392,-775.919"/>
</g>
<!-- Node23&#45;&gt;Node20 -->
<g id="edge29" class="edge"><title>Node23&#45;&gt;Node20</title>
<path fill="none" stroke="midnightblue" d="M348.533,-828.544C354.251,-825.437 359.614,-821.638 364,-817 398.185,-780.849 371.276,-751.625 400,-711 406.443,-701.888 415.609,-693.846 424.307,-687.468"/>
<polygon fill="midnightblue" stroke="midnightblue" points="426.48,-690.221 432.73,-681.666 422.509,-684.456 426.48,-690.221"/>
</g>
<!-- Node24 -->
<g id="node24" class="node"><title>Node24</title>
<g id="a_node24"><a xlink:href="classtlz_1_1dataset__group.html#ac89fe02ba32a12258eadf8d91ef1fa37" target="_top" xlink:title="tlz::dataset_group\l::parameters">
<polygon fill="white" stroke="black" points="403,-759 403,-789 498,-789 498,-759 403,-759"/>
<text text-anchor="start" x="411" y="-777" font-family="Helvetica,sans-Serif" font-size="10.00">tlz::dataset_group</text>
<text text-anchor="middle" x="450.5" y="-766" font-family="Helvetica,sans-Serif" font-size="10.00">::parameters</text>
</a>
</g>
</g>
<!-- Node23&#45;&gt;Node24 -->
<g id="edge30" class="edge"><title>Node23&#45;&gt;Node24</title>
<path fill="none" stroke="midnightblue" d="M340.905,-826.886C348.607,-823.733 356.597,-820.347 364,-817 366.5,-815.869 389.195,-804.452 410.572,-793.667"/>
<polygon fill="midnightblue" stroke="midnightblue" points="412.24,-796.746 419.591,-789.115 409.086,-790.496 412.24,-796.746"/>
</g>
<!-- Node26 -->
<g id="node26" class="node"><title>Node26</title>
<g id="a_node26"><a xlink:href="namespacetlz.html#a9517e892e5486b965a722d5589dc58c4" target="_top" xlink:title="tlz::decode_border">
<polygon fill="white" stroke="red" points="402,-720.5 402,-739.5 499,-739.5 499,-720.5 402,-720.5"/>
<text text-anchor="middle" x="450.5" y="-727.5" font-family="Helvetica,sans-Serif" font-size="10.00">tlz::decode_border</text>
</a>
</g>
</g>
<!-- Node23&#45;&gt;Node26 -->
<g id="edge32" class="edge"><title>Node23&#45;&gt;Node26</title>
<path fill="none" stroke="midnightblue" d="M348.802,-827.347C354.278,-824.449 359.505,-821.027 364,-817 389.178,-794.444 374.83,-772.565 400,-750 402.307,-747.932 404.855,-746.063 407.542,-744.377"/>
<polygon fill="midnightblue" stroke="midnightblue" points="409.312,-747.399 416.472,-739.591 406.005,-741.23 409.312,-747.399"/>
</g>
<!-- Node25 -->
<g id="node25" class="node"><title>Node25</title>
<g id="a_node25"><a xlink:href="classtlz_1_1dataset.html#ab14f5b1f18c0ab423c18270b7ca46bd2" target="_top" xlink:title="tlz::dataset::parameters">
<polygon fill="white" stroke="black" points="537,-279.5 537,-298.5 657,-298.5 657,-279.5 537,-279.5"/>
<text text-anchor="middle" x="597" y="-286.5" font-family="Helvetica,sans-Serif" font-size="10.00">tlz::dataset::parameters</text>
</a>
</g>
</g>
<!-- Node24&#45;&gt;Node25 -->
<g id="edge31" class="edge"><title>Node24&#45;&gt;Node25</title>
<path fill="none" stroke="midnightblue" d="M490.388,-758.914C494.402,-756.105 498.074,-752.822 501,-749 555.688,-677.565 586.678,-387.543 594.194,-308.806"/>
<polygon fill="midnightblue" stroke="midnightblue" points="597.686,-309.056 595.133,-298.774 590.716,-308.404 597.686,-309.056"/>
</g>
<!-- Node39&#45;&gt;Node40 -->
<g id="edge46" class="edge"><title>Node39&#45;&gt;Node40</title>
<path fill="none" stroke="midnightblue" d="M185.568,-279.727C207.455,-285.708 233.439,-292.809 255.11,-298.732"/>
<polygon fill="midnightblue" stroke="midnightblue" points="254.479,-302.188 265.048,-301.448 256.325,-295.435 254.479,-302.188"/>
</g>
<!-- Node41 -->
<g id="node41" class="node"><title>Node41</title>
<g id="a_node41"><a xlink:href="classtlz_1_1dataset__view.html#a1ec7ba844d313cddc558874fe85246a8" target="_top" xlink:title="tlz::dataset_view::\lgroup_view">
<polygon fill="white" stroke="black" points="252.5,-252 252.5,-282 349.5,-282 349.5,-252 252.5,-252"/>
<text text-anchor="start" x="260.5" y="-270" font-family="Helvetica,sans-Serif" font-size="10.00">tlz::dataset_view::</text>
<text text-anchor="middle" x="301" y="-259" font-family="Helvetica,sans-Serif" font-size="10.00">group_view</text>
</a>
</g>
</g>
<!-- Node39&#45;&gt;Node41 -->
<g id="edge47" class="edge"><title>Node39&#45;&gt;Node41</title>
<path fill="none" stroke="midnightblue" d="M185.568,-267C203.277,-267 223.668,-267 242.286,-267"/>
<polygon fill="midnightblue" stroke="midnightblue" points="242.42,-270.5 252.42,-267 242.419,-263.5 242.42,-270.5"/>
</g>
<!-- Node41&#45;&gt;Node20 -->
<g id="edge49" class="edge"><title>Node41&#45;&gt;Node20</title>
<path fill="none" stroke="midnightblue" d="M349.614,-280.387C355.025,-283.495 360.017,-287.313 364,-292 411.496,-347.887 439.89,-581.908 447.452,-652.048"/>
<polygon fill="midnightblue" stroke="midnightblue" points="443.991,-652.602 448.521,-662.179 450.952,-651.867 443.991,-652.602"/>
</g>
<!-- Node41&#45;&gt;Node25 -->
<g id="edge50" class="edge"><title>Node41&#45;&gt;Node25</title>
<path fill="none" stroke="midnightblue" d="M349.563,-270.559C397.503,-274.147 472.006,-279.722 526.55,-283.803"/>
<polygon fill="midnightblue" stroke="midnightblue" points="526.602,-287.317 536.835,-284.573 527.124,-280.336 526.602,-287.317"/>
</g>
<!-- Node42 -->
<g id="node42" class="node"><title>Node42</title>
<g id="a_node42"><a xlink:href="classtlz_1_1dataset__view.html#a31a73cf70078f270c9045bc0babadee2" target="_top" xlink:title="tlz::dataset_view::\ldataset_view">
<polygon fill="white" stroke="black" points="402,-230 402,-260 499,-260 499,-230 402,-230"/>
<text text-anchor="start" x="410" y="-248" font-family="Helvetica,sans-Serif" font-size="10.00">tlz::dataset_view::</text>
<text text-anchor="middle" x="450.5" y="-237" font-family="Helvetica,sans-Serif" font-size="10.00">dataset_view</text>
</a>
</g>
</g>
<!-- Node41&#45;&gt;Node42 -->
<g id="edge48" class="edge"><title>Node41&#45;&gt;Node42</title>
<path fill="none" stroke="midnightblue" d="M349.889,-259.857C363.292,-257.858 377.999,-255.665 391.901,-253.591"/>
<polygon fill="midnightblue" stroke="midnightblue" points="392.477,-257.044 401.851,-252.107 391.444,-250.121 392.477,-257.044"/>
</g>
<!-- Node44 -->
<g id="node44" class="node"><title>Node44</title>
<g id="a_node44"><a xlink:href="classtlz_1_1dataset__view.html#a327a842dc304656596d65b9bbf52fb1c" target="_top" xlink:title="tlz::dataset_view::\llocal_filename">
<polygon fill="white" stroke="red" points="252.5,-159 252.5,-189 349.5,-189 349.5,-159 252.5,-159"/>
<text text-anchor="start" x="260.5" y="-177" font-family="Helvetica,sans-Serif" font-size="10.00">tlz::dataset_view::</text>
<text text-anchor="middle" x="301" y="-166" font-family="Helvetica,sans-Serif" font-size="10.00">local_filename</text>
</a>
</g>
</g>
<!-- Node43&#45;&gt;Node44 -->
<g id="edge52" class="edge"><title>Node43&#45;&gt;Node44</title>
<path fill="none" stroke="midnightblue" d="M186.869,-204.918C204.391,-200.129 224.395,-194.662 242.66,-189.671"/>
<polygon fill="midnightblue" stroke="midnightblue" points="243.591,-193.044 252.315,-187.032 241.746,-186.292 243.591,-193.044"/>
</g>
<!-- Node46&#45;&gt;Node44 -->
<g id="edge55" class="edge"><title>Node46&#45;&gt;Node44</title>
<path fill="none" stroke="midnightblue" d="M186.869,-143.082C204.391,-147.871 224.395,-153.338 242.66,-158.329"/>
<polygon fill="midnightblue" stroke="midnightblue" points="241.746,-161.708 252.315,-160.968 243.591,-154.956 241.746,-161.708"/>
</g>
<!-- Node47&#45;&gt;Node25 -->
<g id="edge58" class="edge"><title>Node47&#45;&gt;Node25</title>
<path fill="none" stroke="midnightblue" d="M466.151,-156.005C493.171,-183.681 550.693,-242.595 579.228,-271.821"/>
<polygon fill="midnightblue" stroke="midnightblue" points="576.968,-274.517 586.458,-279.227 581.976,-269.626 576.968,-274.517"/>
</g>
<!-- Node49 -->
<g id="node49" class="node"><title>Node49</title>
<g id="a_node49"><a xlink:href="structtlz_1_1camera.html#aace4b782f50c06158735709101fbdc86" target="_top" xlink:title="tlz::camera::extrinsic">
<polygon fill="white" stroke="black" points="247,-0.5 247,-19.5 355,-19.5 355,-0.5 247,-0.5"/>
<text text-anchor="middle" x="301" y="-7.5" font-family="Helvetica,sans-Serif" font-size="10.00">tlz::camera::extrinsic</text>
</a>
</g>
</g>
<!-- Node48&#45;&gt;Node49 -->
<g id="edge60" class="edge"><title>Node48&#45;&gt;Node49</title>
<path fill="none" stroke="midnightblue" d="M179.627,-38.411C200.968,-33.3739 227.312,-27.1562 249.908,-21.8229"/>
<polygon fill="midnightblue" stroke="midnightblue" points="250.736,-25.2237 259.665,-19.5201 249.128,-18.4109 250.736,-25.2237"/>
</g>
<!-- Node50 -->
<g id="node50" class="node"><title>Node50</title>
<g id="a_node50"><a xlink:href="structtlz_1_1camera.html#af623cd98390f6588c45ad59bbbe13355" target="_top" xlink:title="tlz::camera::extrinsic_inv">
<polygon fill="white" stroke="black" points="238,-38.5 238,-57.5 364,-57.5 364,-38.5 238,-38.5"/>
<text text-anchor="middle" x="301" y="-45.5" font-family="Helvetica,sans-Serif" font-size="10.00">tlz::camera::extrinsic_inv</text>
</a>
</g>
</g>
<!-- Node48&#45;&gt;Node50 -->
<g id="edge61" class="edge"><title>Node48&#45;&gt;Node50</title>
<path fill="none" stroke="midnightblue" d="M180.044,-48C194.548,-48 211.323,-48 227.647,-48"/>
<polygon fill="midnightblue" stroke="midnightblue" points="227.728,-51.5001 237.728,-48 227.728,-44.5001 227.728,-51.5001"/>
</g>
</g>
</svg>
