<?xml version="1.0" encoding="UTF-8" standalone="no"?>
<!DOCTYPE svg PUBLIC "-//W3C//DTD SVG 1.1//EN"
 "http://www.w3.org/Graphics/SVG/1.1/DTD/svg11.dtd">
<!-- Generated by graphviz version 2.38.0 (20140413.2041)
 -->
<!-- Title: main Pages: 1 -->
<svg width="1333pt" height="718pt"
 viewBox="0.00 0.00 1333.00 717.50" xmlns="http://www.w3.org/2000/svg" xmlns:xlink="http://www.w3.org/1999/xlink">
<g id="graph0" class="graph" transform="scale(1 1) rotate(0) translate(4 713.5)">
<title>main</title>
<polygon fill="white" stroke="none" points="-4,4 -4,-713.5 1329,-713.5 1329,4 -4,4"/>
<!-- Node1 -->
<g id="node1" class="node"><title>Node1</title>
<polygon fill="#bfbfbf" stroke="black" points="0,-240 0,-259 38,-259 38,-240 0,-240"/>
<text text-anchor="middle" x="19" y="-247" font-family="Helvetica,sans-Serif" font-size="10.00">main</text>
</g>
<!-- Node2 -->
<g id="node2" class="node"><title>Node2</title>
<g id="a_node2"><a xlink:href="namespacetlz.html#a3c03f5d9d6261ec2909938822fc47f8a" target="_top" xlink:title="tlz::get_args">
<polygon fill="white" stroke="black" points="99.5,-625 99.5,-644 170.5,-644 170.5,-625 99.5,-625"/>
<text text-anchor="middle" x="135" y="-632" font-family="Helvetica,sans-Serif" font-size="10.00">tlz::get_args</text>
</a>
</g>
</g>
<!-- Node1&#45;&gt;Node2 -->
<g id="edge1" class="edge"><title>Node1&#45;&gt;Node2</title>
<path fill="none" stroke="midnightblue" d="M20.1803,-259.137C21.3265,-310.695 29.0746,-553.723 74,-610.5 78.2563,-615.879 83.9019,-620.058 90.0305,-623.303"/>
<polygon fill="midnightblue" stroke="midnightblue" points="88.6914,-626.538 99.2495,-627.42 91.5458,-620.146 88.6914,-626.538"/>
</g>
<!-- Node3 -->
<g id="node3" class="node"><title>Node3</title>
<g id="a_node3"><a xlink:href="namespacetlz.html#a170805c7a8ede64a93e0ee23196e5b7c" target="_top" xlink:title="tlz::intrinsics_arg">
<polygon fill="white" stroke="black" points="499,-628 499,-647 590,-647 590,-628 499,-628"/>
<text text-anchor="middle" x="544.5" y="-635" font-family="Helvetica,sans-Serif" font-size="10.00">tlz::intrinsics_arg</text>
</a>
</g>
</g>
<!-- Node1&#45;&gt;Node3 -->
<g id="edge2" class="edge"><title>Node1&#45;&gt;Node3</title>
<path fill="none" stroke="midnightblue" d="M20.1408,-259.264C21.0593,-308.343 27.7343,-527.515 74,-572.5 103.35,-601.038 370.756,-624.484 488.392,-633.511"/>
<polygon fill="midnightblue" stroke="midnightblue" points="488.387,-637.021 498.624,-634.289 488.918,-630.041 488.387,-637.021"/>
</g>
<!-- Node15 -->
<g id="node15" class="node"><title>Node15</title>
<g id="a_node15"><a xlink:href="namespacetlz.html#a8e4f8c8c2927bc4350de13bfa0f8f9e1" target="_top" xlink:title="tlz::to_string">
<polygon fill="white" stroke="black" points="1229.5,-448 1229.5,-467 1300.5,-467 1300.5,-448 1229.5,-448"/>
<text text-anchor="middle" x="1265" y="-455" font-family="Helvetica,sans-Serif" font-size="10.00">tlz::to_string</text>
</a>
</g>
</g>
<!-- Node1&#45;&gt;Node15 -->
<g id="edge50" class="edge"><title>Node1&#45;&gt;Node15</title>
<path fill="none" stroke="midnightblue" d="M23.6934,-259.127C30.6409,-275.69 47.3952,-309.088 74,-322.5 127.652,-349.548 385.977,-292.5 408.5,-292.5 408.5,-292.5 408.5,-292.5 982.5,-292.5 1098.27,-292.5 1208.61,-397.662 1248.4,-440.076"/>
<polygon fill="midnightblue" stroke="midnightblue" points="1246.05,-442.689 1255.4,-447.673 1251.2,-437.946 1246.05,-442.689"/>
</g>
<!-- Node17 -->
<g id="node17" class="node"><title>Node17</title>
<g id="a_node17"><a xlink:href="classtlz_1_1viewer.html#a4be73d43a59e54ac622a45ecb042e351" target="_top" xlink:title="tlz::viewer::add_real\l_slider">
<polygon fill="white" stroke="black" points="83,-283.5 83,-313.5 187,-313.5 187,-283.5 83,-283.5"/>
<text text-anchor="start" x="91" y="-301.5" font-family="Helvetica,sans-Serif" font-size="10.00">tlz::viewer::add_real</text>
<text text-anchor="middle" x="135" y="-290.5" font-family="Helvetica,sans-Serif" font-size="10.00">_slider</text>
</a>
</g>
</g>
<!-- Node1&#45;&gt;Node17 -->
<g id="edge19" class="edge"><title>Node1&#45;&gt;Node17</title>
<path fill="none" stroke="midnightblue" d="M38.4474,-257.827C48.8599,-262.495 62.1268,-268.389 74,-273.5 78.4926,-275.434 83.1839,-277.43 87.8778,-279.411"/>
<polygon fill="midnightblue" stroke="midnightblue" points="86.8784,-282.787 97.4536,-283.433 89.589,-276.333 86.8784,-282.787"/>
</g>
<!-- Node18 -->
<g id="node18" class="node"><title>Node18</title>
<g id="a_node18"><a xlink:href="classtlz_1_1viewer.html#a2bf9d63d7a1a5ec4d5bdabc13d9ab688" target="_top" xlink:title="tlz::viewer::add_int\l_slider">
<polygon fill="white" stroke="black" points="85.5,-234.5 85.5,-264.5 184.5,-264.5 184.5,-234.5 85.5,-234.5"/>
<text text-anchor="start" x="93.5" y="-252.5" font-family="Helvetica,sans-Serif" font-size="10.00">tlz::viewer::add_int</text>
<text text-anchor="middle" x="135" y="-241.5" font-family="Helvetica,sans-Serif" font-size="10.00">_slider</text>
</a>
</g>
</g>
<!-- Node1&#45;&gt;Node18 -->
<g id="edge20" class="edge"><title>Node1&#45;&gt;Node18</title>
<path fill="none" stroke="midnightblue" d="M38.0636,-249.5C48.1697,-249.5 61.4039,-249.5 74.8003,-249.5"/>
<polygon fill="midnightblue" stroke="midnightblue" points="75.0271,-253 85.0271,-249.5 75.027,-246 75.0271,-253"/>
</g>
<!-- Node19 -->
<g id="node19" class="node"><title>Node19</title>
<g id="a_node19"><a xlink:href="namespacetlz.html#ab01b1e8009a6b2ae9fe0fd559de7dd20" target="_top" xlink:title="tlz::distort_points">
<polygon fill="white" stroke="black" points="89,-403 89,-422 181,-422 181,-403 89,-403"/>
<text text-anchor="middle" x="135" y="-410" font-family="Helvetica,sans-Serif" font-size="10.00">tlz::distort_points</text>
</a>
</g>
</g>
<!-- Node1&#45;&gt;Node19 -->
<g id="edge21" class="edge"><title>Node1&#45;&gt;Node19</title>
<path fill="none" stroke="midnightblue" d="M23.4752,-259.002C30.8739,-278.486 49.5258,-323.876 74,-356.5 85.2548,-371.503 100.798,-385.882 113.244,-396.313"/>
<polygon fill="midnightblue" stroke="midnightblue" points="111.313,-399.255 121.275,-402.862 115.737,-393.83 111.313,-399.255"/>
</g>
<!-- Node29 -->
<g id="node29" class="node"><title>Node29</title>
<g id="a_node29"><a xlink:href="namespacetlz.html#a8b5e4acbb884887859e414ffe06a09f8" target="_top" xlink:title="tlz::undistort_points">
<polygon fill="white" stroke="black" points="638.5,-443 638.5,-462 740.5,-462 740.5,-443 638.5,-443"/>
<text text-anchor="middle" x="689.5" y="-450" font-family="Helvetica,sans-Serif" font-size="10.00">tlz::undistort_points</text>
</a>
</g>
</g>
<!-- Node1&#45;&gt;Node29 -->
<g id="edge41" class="edge"><title>Node1&#45;&gt;Node29</title>
<path fill="none" stroke="midnightblue" d="M20.0498,-259.219C20.725,-288.992 26.7497,-380.026 74,-431.5 167.289,-533.128 228.954,-516.638 365,-539.5 468.977,-556.973 500.99,-539.364 599,-500.5 621.957,-491.397 646.584,-477.887 664.182,-467.516"/>
<polygon fill="midnightblue" stroke="midnightblue" points="666.401,-470.268 673.181,-462.126 662.803,-464.262 666.401,-470.268"/>
</g>
<!-- Node32 -->
<g id="node32" class="node"><title>Node32</title>
<g id="a_node32"><a xlink:href="classtlz_1_1viewer.html#a0ad9ee28b8127c63b2886b04fb36e3dc" target="_top" xlink:title="tlz::viewer::clear">
<polygon fill="white" stroke="black" points="90.5,-158 90.5,-177 179.5,-177 179.5,-158 90.5,-158"/>
<text text-anchor="middle" x="135" y="-165" font-family="Helvetica,sans-Serif" font-size="10.00">tlz::viewer::clear</text>
</a>
</g>
</g>
<!-- Node1&#45;&gt;Node32 -->
<g id="edge42" class="edge"><title>Node1&#45;&gt;Node32</title>
<path fill="none" stroke="midnightblue" d="M25.7339,-239.922C34.4626,-226.14 52.3736,-200.806 74,-186.5 77.0984,-184.45 80.4322,-182.61 83.8841,-180.96"/>
<polygon fill="midnightblue" stroke="midnightblue" points="85.3649,-184.134 93.2171,-177.021 82.643,-177.684 85.3649,-184.134"/>
</g>
<!-- Node35 -->
<g id="node35" class="node"><title>Node35</title>
<g id="a_node35"><a xlink:href="classtlz_1_1viewer.html#a5f0412cff89a343ad52431689502389d" target="_top" xlink:title="tlz::viewer::draw">
<polygon fill="white" stroke="black" points="90.5,-196 90.5,-215 179.5,-215 179.5,-196 90.5,-196"/>
<text text-anchor="middle" x="135" y="-203" font-family="Helvetica,sans-Serif" font-size="10.00">tlz::viewer::draw</text>
</a>
</g>
</g>
<!-- Node1&#45;&gt;Node35 -->
<g id="edge45" class="edge"><title>Node1&#45;&gt;Node35</title>
<path fill="none" stroke="midnightblue" d="M38.2445,-240.35C48.5935,-235.339 61.8645,-229.209 74,-224.5 79.6121,-222.322 85.5876,-220.202 91.5101,-218.215"/>
<polygon fill="midnightblue" stroke="midnightblue" points="92.9282,-221.435 101.354,-215.011 90.7615,-214.778 92.9282,-221.435"/>
</g>
<!-- Node36 -->
<g id="node36" class="node"><title>Node36</title>
<g id="a_node36"><a xlink:href="view__distortion_8cc.html#a83f48cf5e7d63121dd66e0baba366640" target="_top" xlink:title="marker_color1">
<polygon fill="white" stroke="black" points="96,-120 96,-139 174,-139 174,-120 96,-120"/>
<text text-anchor="middle" x="135" y="-127" font-family="Helvetica,sans-Serif" font-size="10.00">marker_color1</text>
</a>
</g>
</g>
<!-- Node1&#45;&gt;Node36 -->
<g id="edge48" class="edge"><title>Node1&#45;&gt;Node36</title>
<path fill="none" stroke="midnightblue" d="M22.4817,-239.867C28.1347,-219.848 43.8708,-173.531 74,-148.5 77.7426,-145.391 81.9986,-142.788 86.4763,-140.61"/>
<polygon fill="midnightblue" stroke="midnightblue" points="87.9877,-143.773 95.885,-136.71 85.3069,-137.306 87.9877,-143.773"/>
</g>
<!-- Node37 -->
<g id="node37" class="node"><title>Node37</title>
<g id="a_node37"><a xlink:href="view__distortion_8cc.html#ad1a5651e01c1a4167ac8631507d895dd" target="_top" xlink:title="marker_color2">
<polygon fill="white" stroke="black" points="96,-82 96,-101 174,-101 174,-82 96,-82"/>
<text text-anchor="middle" x="135" y="-89" font-family="Helvetica,sans-Serif" font-size="10.00">marker_color2</text>
</a>
</g>
</g>
<!-- Node1&#45;&gt;Node37 -->
<g id="edge49" class="edge"><title>Node1&#45;&gt;Node37</title>
<path fill="none" stroke="midnightblue" d="M20.9239,-239.84C23.8401,-214.759 35.1042,-146.988 74,-110.5 77.596,-107.127 81.7885,-104.352 86.2555,-102.07"/>
<polygon fill="midnightblue" stroke="midnightblue" points="87.8786,-105.183 95.707,-98.0442 85.1353,-98.7432 87.8786,-105.183"/>
</g>
<!-- Node38 -->
<g id="node38" class="node"><title>Node38</title>
<g id="a_node38"><a xlink:href="classtlz_1_1viewer.html#ad4fda702b7c5af2cb0bb9bc3842113f3" target="_top" xlink:title="tlz::viewer::draw_text">
<polygon fill="white" stroke="black" points="80,-44 80,-63 190,-63 190,-44 80,-44"/>
<text text-anchor="middle" x="135" y="-51" font-family="Helvetica,sans-Serif" font-size="10.00">tlz::viewer::draw_text</text>
</a>
</g>
</g>
<!-- Node1&#45;&gt;Node38 -->
<g id="edge51" class="edge"><title>Node1&#45;&gt;Node38</title>
<path fill="none" stroke="midnightblue" d="M19.9917,-239.902C20.4995,-210.528 26.0938,-120.915 74,-72.5 75.441,-71.0437 76.9928,-69.6988 78.6314,-68.4568"/>
<polygon fill="midnightblue" stroke="midnightblue" points="80.7365,-71.2719 87.437,-63.0649 77.081,-65.3021 80.7365,-71.2719"/>
</g>
<!-- Node39 -->
<g id="node39" class="node"><title>Node39</title>
<g id="a_node39"><a xlink:href="classtlz_1_1viewer.html#a4ccb30b02c81909ba1af97745375385a" target="_top" xlink:title="tlz::viewer::show_modal">
<polygon fill="white" stroke="black" points="74,-6 74,-25 196,-25 196,-6 74,-6"/>
<text text-anchor="middle" x="135" y="-13" font-family="Helvetica,sans-Serif" font-size="10.00">tlz::viewer::show_modal</text>
</a>
</g>
</g>
<!-- Node1&#45;&gt;Node39 -->
<g id="edge52" class="edge"><title>Node1&#45;&gt;Node39</title>
<path fill="none" stroke="midnightblue" d="M21.182,-239.77C25.9594,-201.953 44.9858,-65.3281 74,-34.5 75.376,-33.038 76.8636,-31.6879 78.4397,-30.4413"/>
<polygon fill="midnightblue" stroke="midnightblue" points="80.3891,-33.3495 86.9505,-25.0308 76.6336,-27.4421 80.3891,-33.3495"/>
</g>
<!-- Node4 -->
<g id="node4" class="node"><title>Node4</title>
<g id="a_node4"><a xlink:href="namespacetlz.html#a8cba4853d0d796a01c72f59f36f2a492" target="_top" xlink:title="tlz::decode_intrinsics">
<polygon fill="white" stroke="black" points="635,-590 635,-609 744,-609 744,-590 635,-590"/>
<text text-anchor="middle" x="689.5" y="-597" font-family="Helvetica,sans-Serif" font-size="10.00">tlz::decode_intrinsics</text>
</a>
</g>
</g>
<!-- Node3&#45;&gt;Node4 -->
<g id="edge3" class="edge"><title>Node3&#45;&gt;Node4</title>
<path fill="none" stroke="midnightblue" d="M581.585,-627.911C600.13,-622.983 622.926,-616.925 642.699,-611.671"/>
<polygon fill="midnightblue" stroke="midnightblue" points="643.661,-615.037 652.427,-609.086 641.863,-608.272 643.661,-615.037"/>
</g>
<!-- Node8 -->
<g id="node8" class="node"><title>Node8</title>
<g id="a_node8"><a xlink:href="namespacetlz.html#a35f9e03fa4fd9cec699f5fa27962400f" target="_top" xlink:title="tlz::json_arg">
<polygon fill="white" stroke="black" points="654.5,-652 654.5,-671 724.5,-671 724.5,-652 654.5,-652"/>
<text text-anchor="middle" x="689.5" y="-659" font-family="Helvetica,sans-Serif" font-size="10.00">tlz::json_arg</text>
</a>
</g>
</g>
<!-- Node3&#45;&gt;Node8 -->
<g id="edge8" class="edge"><title>Node3&#45;&gt;Node8</title>
<path fill="none" stroke="midnightblue" d="M590.354,-645.028C607.447,-647.897 626.911,-651.163 643.974,-654.027"/>
<polygon fill="midnightblue" stroke="midnightblue" points="643.804,-657.547 654.245,-655.751 644.962,-650.644 643.804,-657.547"/>
</g>
<!-- Node5 -->
<g id="node5" class="node"><title>Node5</title>
<g id="a_node5"><a xlink:href="namespacetlz.html#a066563a26e2de02f215b179f3d3a53da" target="_top" xlink:title="tlz::decode_mat">
<polygon fill="white" stroke="black" points="800.5,-576 800.5,-595 886.5,-595 886.5,-576 800.5,-576"/>
<text text-anchor="middle" x="843.5" y="-583" font-family="Helvetica,sans-Serif" font-size="10.00">tlz::decode_mat</text>
</a>
</g>
</g>
<!-- Node4&#45;&gt;Node5 -->
<g id="edge4" class="edge"><title>Node4&#45;&gt;Node5</title>
<path fill="none" stroke="midnightblue" d="M744.09,-594.564C759.09,-593.183 775.369,-591.683 790.289,-590.309"/>
<polygon fill="midnightblue" stroke="midnightblue" points="790.731,-593.783 800.368,-589.381 790.089,-586.813 790.731,-593.783"/>
</g>
<!-- Node6 -->
<g id="node6" class="node"><title>Node6</title>
<g id="a_node6"><a xlink:href="namespacetlz.html#a252af14b9b4ac6502d3e9c5dd8dc90b8" target="_top" xlink:title="tlz::has">
<polygon fill="white" stroke="black" points="957,-538 957,-557 1006,-557 1006,-538 957,-538"/>
<text text-anchor="middle" x="981.5" y="-545" font-family="Helvetica,sans-Serif" font-size="10.00">tlz::has</text>
</a>
</g>
</g>
<!-- Node4&#45;&gt;Node6 -->
<g id="edge5" class="edge"><title>Node4&#45;&gt;Node6</title>
<path fill="none" stroke="midnightblue" d="M711.727,-589.895C729.568,-582.258 755.94,-571.978 780,-566.5 837.584,-553.389 906.464,-549.308 946.666,-548.049"/>
<polygon fill="midnightblue" stroke="midnightblue" points="946.827,-551.546 956.728,-547.774 946.636,-544.548 946.827,-551.546"/>
</g>
<!-- Node7 -->
<g id="node7" class="node"><title>Node7</title>
<g id="a_node7"><a xlink:href="namespacetlz.html#add846dc50c32dfb356cb1a7ac11d37ac" target="_top" xlink:title="tlz::get_or">
<polygon fill="white" stroke="black" points="813.5,-614 813.5,-633 873.5,-633 873.5,-614 813.5,-614"/>
<text text-anchor="middle" x="843.5" y="-621" font-family="Helvetica,sans-Serif" font-size="10.00">tlz::get_or</text>
</a>
</g>
</g>
<!-- Node4&#45;&gt;Node7 -->
<g id="edge6" class="edge"><title>Node4&#45;&gt;Node7</title>
<path fill="none" stroke="midnightblue" d="M744.09,-607.962C763.615,-611.044 785.307,-614.469 803.346,-617.318"/>
<polygon fill="midnightblue" stroke="midnightblue" points="802.803,-620.775 813.227,-618.878 803.895,-613.861 802.803,-620.775"/>
</g>
<!-- Node7&#45;&gt;Node6 -->
<g id="edge7" class="edge"><title>Node7&#45;&gt;Node6</title>
<path fill="none" stroke="midnightblue" d="M873.511,-618.003C884.537,-615.084 896.872,-610.762 907,-604.5 926.788,-592.265 924.349,-580.406 943,-566.5 945.048,-564.973 947.237,-563.509 949.49,-562.118"/>
<polygon fill="midnightblue" stroke="midnightblue" points="951.334,-565.096 958.335,-557.144 947.903,-558.995 951.334,-565.096"/>
</g>
<!-- Node9 -->
<g id="node9" class="node"><title>Node9</title>
<g id="a_node9"><a xlink:href="namespacetlz.html#aa1be9362f548fcf9378e1fc9074089c4" target="_top" xlink:title="tlz::import_json_file">
<polygon fill="white" stroke="black" points="793,-690 793,-709 894,-709 894,-690 793,-690"/>
<text text-anchor="middle" x="843.5" y="-697" font-family="Helvetica,sans-Serif" font-size="10.00">tlz::import_json_file</text>
</a>
</g>
</g>
<!-- Node8&#45;&gt;Node9 -->
<g id="edge9" class="edge"><title>Node8&#45;&gt;Node9</title>
<path fill="none" stroke="midnightblue" d="M724.612,-670.028C745.274,-675.194 771.944,-681.861 794.689,-687.547"/>
<polygon fill="midnightblue" stroke="midnightblue" points="793.947,-690.969 804.497,-689.999 795.645,-684.178 793.947,-690.969"/>
</g>
<!-- Node10 -->
<g id="node10" class="node"><title>Node10</title>
<g id="a_node10"><a xlink:href="namespacetlz.html#a634de7ca11e100e4a118dffe80376a75" target="_top" xlink:title="tlz::in_filename_arg">
<polygon fill="white" stroke="black" points="793,-652 793,-671 894,-671 894,-652 793,-652"/>
<text text-anchor="middle" x="843.5" y="-659" font-family="Helvetica,sans-Serif" font-size="10.00">tlz::in_filename_arg</text>
</a>
</g>
</g>
<!-- Node8&#45;&gt;Node10 -->
<g id="edge10" class="edge"><title>Node8&#45;&gt;Node10</title>
<path fill="none" stroke="midnightblue" d="M724.612,-661.5C741.755,-661.5 763.034,-661.5 782.775,-661.5"/>
<polygon fill="midnightblue" stroke="midnightblue" points="782.928,-665 792.928,-661.5 782.928,-658 782.928,-665"/>
</g>
<!-- Node11 -->
<g id="node11" class="node"><title>Node11</title>
<g id="a_node11"><a xlink:href="namespacetlz.html#a0621d598fb83b13bf028f3e6293d04f8" target="_top" xlink:title="tlz::string_arg">
<polygon fill="white" stroke="black" points="943.5,-614 943.5,-633 1019.5,-633 1019.5,-614 943.5,-614"/>
<text text-anchor="middle" x="981.5" y="-621" font-family="Helvetica,sans-Serif" font-size="10.00">tlz::string_arg</text>
</a>
</g>
</g>
<!-- Node10&#45;&gt;Node11 -->
<g id="edge11" class="edge"><title>Node10&#45;&gt;Node11</title>
<path fill="none" stroke="midnightblue" d="M878.819,-651.911C896.294,-647.028 917.741,-641.036 936.425,-635.815"/>
<polygon fill="midnightblue" stroke="midnightblue" points="937.503,-639.148 946.192,-633.086 935.619,-632.406 937.503,-639.148"/>
</g>
<!-- Node12 -->
<g id="node12" class="node"><title>Node12</title>
<g id="a_node12"><a xlink:href="namespacetlz.html#a780431daab8d2595372eacb43143b52d" target="_top" xlink:title="tlz::args">
<polygon fill="white" stroke="black" points="1086.5,-652 1086.5,-671 1138.5,-671 1138.5,-652 1086.5,-652"/>
<text text-anchor="middle" x="1112.5" y="-659" font-family="Helvetica,sans-Serif" font-size="10.00">tlz::args</text>
</a>
</g>
</g>
<!-- Node10&#45;&gt;Node12 -->
<g id="edge17" class="edge"><title>Node10&#45;&gt;Node12</title>
<path fill="none" stroke="midnightblue" d="M894.095,-661.5C946.981,-661.5 1029.41,-661.5 1076.1,-661.5"/>
<polygon fill="midnightblue" stroke="midnightblue" points="1076.33,-665 1086.33,-661.5 1076.33,-658 1076.33,-665"/>
</g>
<!-- Node14 -->
<g id="node14" class="node"><title>Node14</title>
<g id="a_node14"><a xlink:href="classtlz_1_1args__list.html#a38ad21acd64a4af98ffdf4a47837cdbe" target="_top" xlink:title="tlz::args_list::usage_fail">
<polygon fill="white" stroke="black" points="1205,-652 1205,-671 1325,-671 1325,-652 1205,-652"/>
<text text-anchor="middle" x="1265" y="-659" font-family="Helvetica,sans-Serif" font-size="10.00">tlz::args_list::usage_fail</text>
</a>
</g>
</g>
<!-- Node10&#45;&gt;Node14 -->
<g id="edge18" class="edge"><title>Node10&#45;&gt;Node14</title>
<path fill="none" stroke="midnightblue" d="M894.246,-669.528C909.819,-671.783 927.091,-674.021 943,-675.5 1043.04,-684.8 1069.02,-690.4 1169,-680.5 1184.23,-678.992 1200.64,-676.155 1215.46,-673.125"/>
<polygon fill="midnightblue" stroke="midnightblue" points="1216.38,-676.508 1225.43,-671.01 1214.93,-669.66 1216.38,-676.508"/>
</g>
<!-- Node16 -->
<g id="node16" class="node"><title>Node16</title>
<g id="a_node16"><a xlink:href="namespacetlz.html#abb019466ea9f56c0dab27e893d891837" target="_top" xlink:title="tlz::file_exists">
<polygon fill="white" stroke="black" points="943,-576 943,-595 1020,-595 1020,-576 943,-576"/>
<text text-anchor="middle" x="981.5" y="-583" font-family="Helvetica,sans-Serif" font-size="10.00">tlz::file_exists</text>
</a>
</g>
</g>
<!-- Node10&#45;&gt;Node16 -->
<g id="edge16" class="edge"><title>Node10&#45;&gt;Node16</title>
<path fill="none" stroke="midnightblue" d="M886.817,-651.91C893.834,-649.413 900.827,-646.317 907,-642.5 926.788,-630.265 924.349,-618.406 943,-604.5 945.048,-602.973 947.237,-601.509 949.49,-600.118"/>
<polygon fill="midnightblue" stroke="midnightblue" points="951.334,-603.096 958.335,-595.144 947.903,-596.995 951.334,-603.096"/>
</g>
<!-- Node11&#45;&gt;Node12 -->
<g id="edge12" class="edge"><title>Node11&#45;&gt;Node12</title>
<path fill="none" stroke="midnightblue" d="M1015.05,-633.089C1033.78,-638.606 1057.31,-645.538 1076.45,-651.174"/>
<polygon fill="midnightblue" stroke="midnightblue" points="1075.7,-654.603 1086.28,-654.072 1077.68,-647.889 1075.7,-654.603"/>
</g>
<!-- Node13 -->
<g id="node13" class="node"><title>Node13</title>
<g id="a_node13"><a xlink:href="classtlz_1_1args__list.html#a73d99bc75998dc14607a3a372d28dc6d" target="_top" xlink:title="tlz::args_list::next_arg">
<polygon fill="white" stroke="black" points="1056,-614 1056,-633 1169,-633 1169,-614 1056,-614"/>
<text text-anchor="middle" x="1112.5" y="-621" font-family="Helvetica,sans-Serif" font-size="10.00">tlz::args_list::next_arg</text>
</a>
</g>
</g>
<!-- Node11&#45;&gt;Node13 -->
<g id="edge13" class="edge"><title>Node11&#45;&gt;Node13</title>
<path fill="none" stroke="midnightblue" d="M1019.81,-623.5C1027.83,-623.5 1036.54,-623.5 1045.3,-623.5"/>
<polygon fill="midnightblue" stroke="midnightblue" points="1045.55,-627 1055.55,-623.5 1045.55,-620 1045.55,-627"/>
</g>
<!-- Node13&#45;&gt;Node14 -->
<g id="edge14" class="edge"><title>Node13&#45;&gt;Node14</title>
<path fill="none" stroke="midnightblue" d="M1151.48,-633.089C1171.16,-638.058 1195.39,-644.177 1216.32,-649.461"/>
<polygon fill="midnightblue" stroke="midnightblue" points="1215.74,-652.925 1226.3,-651.98 1217.46,-646.138 1215.74,-652.925"/>
</g>
<!-- Node13&#45;&gt;Node15 -->
<g id="edge15" class="edge"><title>Node13&#45;&gt;Node15</title>
<path fill="none" stroke="midnightblue" d="M1122.46,-613.613C1147.3,-586.215 1217.25,-509.068 1248.54,-474.558"/>
<polygon fill="midnightblue" stroke="midnightblue" points="1251.15,-476.887 1255.27,-467.127 1245.96,-472.185 1251.15,-476.887"/>
</g>
<!-- Node20 -->
<g id="node20" class="node"><title>Node20</title>
<g id="a_node20"><a xlink:href="structtlz_1_1distortion__parameters.html#a307fee036b04519d633fb8456899850c" target="_top" xlink:title="tlz::distortion_parameters\l::is_none">
<polygon fill="white" stroke="black" points="780,-353.5 780,-383.5 907,-383.5 907,-353.5 780,-353.5"/>
<text text-anchor="start" x="788" y="-371.5" font-family="Helvetica,sans-Serif" font-size="10.00">tlz::distortion_parameters</text>
<text text-anchor="middle" x="843.5" y="-360.5" font-family="Helvetica,sans-Serif" font-size="10.00">::is_none</text>
</a>
</g>
</g>
<!-- Node19&#45;&gt;Node20 -->
<g id="edge22" class="edge"><title>Node19&#45;&gt;Node20</title>
<path fill="none" stroke="midnightblue" d="M154.257,-402.933C197.288,-381.302 308.95,-330.5 408.5,-330.5 408.5,-330.5 408.5,-330.5 545.5,-330.5 634.084,-330.5 656.35,-335.667 744,-348.5 752.468,-349.74 761.306,-351.238 770.062,-352.852"/>
<polygon fill="midnightblue" stroke="midnightblue" points="769.412,-356.291 779.889,-354.713 770.715,-349.413 769.412,-356.291"/>
</g>
<!-- Node21 -->
<g id="node21" class="node"><title>Node21</title>
<g id="a_node21"><a xlink:href="namespacetlz.html#aa0b38daa346fbb57c8f6668de69ea2d1" target="_top" xlink:title="tlz::distort_point">
<polygon fill="white" stroke="black" points="237.5,-435 237.5,-454 323.5,-454 323.5,-435 237.5,-435"/>
<text text-anchor="middle" x="280.5" y="-442" font-family="Helvetica,sans-Serif" font-size="10.00">tlz::distort_point</text>
</a>
</g>
</g>
<!-- Node19&#45;&gt;Node21 -->
<g id="edge23" class="edge"><title>Node19&#45;&gt;Node21</title>
<path fill="none" stroke="midnightblue" d="M178.666,-422.014C193.992,-425.432 211.448,-429.325 227.48,-432.9"/>
<polygon fill="midnightblue" stroke="midnightblue" points="226.724,-436.317 237.246,-435.077 228.247,-429.485 226.724,-436.317"/>
</g>
<!-- Node21&#45;&gt;Node20 -->
<g id="edge24" class="edge"><title>Node21&#45;&gt;Node20</title>
<path fill="none" stroke="midnightblue" d="M291.77,-434.582C306.555,-421.035 335.337,-397.309 365,-387.5 502.371,-342.072 674.176,-349.721 769.749,-359.213"/>
<polygon fill="midnightblue" stroke="midnightblue" points="769.582,-362.714 779.887,-360.255 770.298,-355.751 769.582,-362.714"/>
</g>
<!-- Node22 -->
<g id="node22" class="node"><title>Node22</title>
<g id="a_node22"><a xlink:href="structtlz_1_1intrinsics.html#acc9b666adbc970c279c56a4549cc90d5" target="_top" xlink:title="tlz::intrinsics::cx">
<polygon fill="white" stroke="black" points="365,-397 365,-416 454,-416 454,-397 365,-397"/>
<text text-anchor="middle" x="409.5" y="-404" font-family="Helvetica,sans-Serif" font-size="10.00">tlz::intrinsics::cx</text>
</a>
</g>
</g>
<!-- Node21&#45;&gt;Node22 -->
<g id="edge25" class="edge"><title>Node21&#45;&gt;Node22</title>
<path fill="none" stroke="midnightblue" d="M313.547,-434.911C329.641,-430.096 349.341,-424.201 366.617,-419.032"/>
<polygon fill="midnightblue" stroke="midnightblue" points="367.886,-422.306 376.463,-416.086 365.879,-415.599 367.886,-422.306"/>
</g>
<!-- Node23 -->
<g id="node23" class="node"><title>Node23</title>
<g id="a_node23"><a xlink:href="structtlz_1_1intrinsics.html#ad5875d6c77076468aebce0d88ef61c20" target="_top" xlink:title="tlz::intrinsics::fx">
<polygon fill="white" stroke="black" points="366.5,-473 366.5,-492 452.5,-492 452.5,-473 366.5,-473"/>
<text text-anchor="middle" x="409.5" y="-480" font-family="Helvetica,sans-Serif" font-size="10.00">tlz::intrinsics::fx</text>
</a>
</g>
</g>
<!-- Node21&#45;&gt;Node23 -->
<g id="edge26" class="edge"><title>Node21&#45;&gt;Node23</title>
<path fill="none" stroke="midnightblue" d="M313.547,-454.089C329.641,-458.904 349.341,-464.799 366.617,-469.968"/>
<polygon fill="midnightblue" stroke="midnightblue" points="365.879,-473.401 376.463,-472.914 367.886,-466.694 365.879,-473.401"/>
</g>
<!-- Node24 -->
<g id="node24" class="node"><title>Node24</title>
<g id="a_node24"><a xlink:href="structtlz_1_1intrinsics.html#af7acb0b51e36fbb45d73bc10efef7d25" target="_top" xlink:title="tlz::intrinsics::cy">
<polygon fill="white" stroke="black" points="365,-511 365,-530 454,-530 454,-511 365,-511"/>
<text text-anchor="middle" x="409.5" y="-518" font-family="Helvetica,sans-Serif" font-size="10.00">tlz::intrinsics::cy</text>
</a>
</g>
</g>
<!-- Node21&#45;&gt;Node24 -->
<g id="edge27" class="edge"><title>Node21&#45;&gt;Node24</title>
<path fill="none" stroke="midnightblue" d="M304.152,-454.148C320.542,-464.671 343.499,-480.603 365,-492.5 373.407,-497.152 383.18,-501.508 391.33,-505.722"/>
<polygon fill="midnightblue" stroke="midnightblue" points="389.843,-508.903 400.266,-510.804 393.303,-502.818 389.843,-508.903"/>
</g>
<!-- Node31 -->
<g id="node31" class="node"><title>Node31</title>
<g id="a_node31"><a xlink:href="structtlz_1_1intrinsics.html#a52e02ae0e8bbea245fcced1c38964f29" target="_top" xlink:title="tlz::intrinsics::fy">
<polygon fill="white" stroke="black" points="366.5,-435 366.5,-454 452.5,-454 452.5,-435 366.5,-435"/>
<text text-anchor="middle" x="409.5" y="-442" font-family="Helvetica,sans-Serif" font-size="10.00">tlz::intrinsics::fy</text>
</a>
</g>
</g>
<!-- Node21&#45;&gt;Node31 -->
<g id="edge40" class="edge"><title>Node21&#45;&gt;Node31</title>
<path fill="none" stroke="midnightblue" d="M323.789,-444.5C334.179,-444.5 345.424,-444.5 356.222,-444.5"/>
<polygon fill="midnightblue" stroke="midnightblue" points="356.396,-448 366.396,-444.5 356.395,-441 356.396,-448"/>
</g>
<!-- Node24&#45;&gt;Node3 -->
<g id="edge39" class="edge"><title>Node24&#45;&gt;Node3</title>
<path fill="none" stroke="midnightblue" d="M416.612,-530.161C428.661,-548.549 457.181,-588.933 490,-613.5 495.134,-617.343 500.981,-620.749 506.88,-623.699"/>
<polygon fill="midnightblue" stroke="midnightblue" points="505.55,-626.94 516.096,-627.957 508.486,-620.585 505.55,-626.94"/>
</g>
<!-- Node24&#45;&gt;Node4 -->
<g id="edge28" class="edge"><title>Node24&#45;&gt;Node4</title>
<path fill="none" stroke="midnightblue" d="M419.69,-530.241C433.473,-544.137 460.992,-569.217 490,-580.5 532.889,-597.183 584.757,-601.663 624.717,-602.116"/>
<polygon fill="midnightblue" stroke="midnightblue" points="624.856,-605.616 634.867,-602.147 624.878,-598.616 624.856,-605.616"/>
</g>
<!-- Node24&#45;&gt;Node19 -->
<g id="edge38" class="edge"><title>Node24&#45;&gt;Node19</title>
<path fill="none" stroke="midnightblue" d="M372.671,-510.936C336.531,-500.826 279.447,-483.58 232,-463.5 207.021,-452.929 179.832,-438.153 160.787,-427.226"/>
<polygon fill="midnightblue" stroke="midnightblue" points="162.287,-424.049 151.882,-422.055 158.773,-430.103 162.287,-424.049"/>
</g>
<!-- Node24&#45;&gt;Node21 -->
<g id="edge37" class="edge"><title>Node24&#45;&gt;Node21</title>
<path fill="none" stroke="midnightblue" d="M365.87,-510.978C365.578,-510.819 365.288,-510.66 365,-510.5 339.105,-496.172 311.099,-475.991 294.995,-461.312"/>
<polygon fill="midnightblue" stroke="midnightblue" points="297.326,-458.695 287.734,-454.197 292.427,-463.695 297.326,-458.695"/>
</g>
<!-- Node25 -->
<g id="node25" class="node"><title>Node25</title>
<g id="a_node25"><a xlink:href="namespacetlz.html#a46c3e46d56bc36cf6b1236522563bc4a" target="_top" xlink:title="tlz::encode_intrinsics">
<polygon fill="white" stroke="black" points="490,-552 490,-571 599,-571 599,-552 490,-552"/>
<text text-anchor="middle" x="544.5" y="-559" font-family="Helvetica,sans-Serif" font-size="10.00">tlz::encode_intrinsics</text>
</a>
</g>
</g>
<!-- Node24&#45;&gt;Node25 -->
<g id="edge29" class="edge"><title>Node24&#45;&gt;Node25</title>
<path fill="none" stroke="midnightblue" d="M441.347,-530.009C459.597,-535.635 482.933,-542.829 502.692,-548.92"/>
<polygon fill="midnightblue" stroke="midnightblue" points="501.772,-552.299 512.359,-551.9 503.834,-545.61 501.772,-552.299"/>
</g>
<!-- Node28 -->
<g id="node28" class="node"><title>Node28</title>
<g id="a_node28"><a xlink:href="namespacetlz.html#a67f7411515a0538e3a39b9d0602ed854" target="_top" xlink:title="tlz::undistort_point">
<polygon fill="white" stroke="black" points="496,-438 496,-457 593,-457 593,-438 496,-438"/>
<text text-anchor="middle" x="544.5" y="-445" font-family="Helvetica,sans-Serif" font-size="10.00">tlz::undistort_point</text>
</a>
</g>
</g>
<!-- Node24&#45;&gt;Node28 -->
<g id="edge32" class="edge"><title>Node24&#45;&gt;Node28</title>
<path fill="none" stroke="midnightblue" d="M435.957,-510.819C442.039,-508.119 448.391,-504.964 454,-501.5 471.72,-490.556 472.334,-482.532 490,-471.5 495.975,-467.769 502.63,-464.301 509.159,-461.227"/>
<polygon fill="midnightblue" stroke="midnightblue" points="510.85,-464.304 518.543,-457.02 507.986,-457.917 510.85,-464.304"/>
</g>
<!-- Node24&#45;&gt;Node29 -->
<g id="edge36" class="edge"><title>Node24&#45;&gt;Node29</title>
<path fill="none" stroke="midnightblue" d="M449.447,-510.973C499.247,-498.792 585.496,-477.695 639.646,-464.45"/>
<polygon fill="midnightblue" stroke="midnightblue" points="640.486,-467.848 649.368,-462.072 638.823,-461.048 640.486,-467.848"/>
</g>
<!-- Node26 -->
<g id="node26" class="node"><title>Node26</title>
<g id="a_node26"><a xlink:href="namespacetlz.html#acf7ca4ee1b750cf31a40170bea887d46" target="_top" xlink:title="tlz::encode_mat">
<polygon fill="white" stroke="black" points="646.5,-520 646.5,-539 732.5,-539 732.5,-520 646.5,-520"/>
<text text-anchor="middle" x="689.5" y="-527" font-family="Helvetica,sans-Serif" font-size="10.00">tlz::encode_mat</text>
</a>
</g>
</g>
<!-- Node25&#45;&gt;Node26 -->
<g id="edge30" class="edge"><title>Node25&#45;&gt;Node26</title>
<path fill="none" stroke="midnightblue" d="M588.018,-551.986C603.146,-548.6 620.357,-544.749 636.208,-541.202"/>
<polygon fill="midnightblue" stroke="midnightblue" points="637.399,-544.522 646.393,-538.923 635.87,-537.691 637.399,-544.522"/>
</g>
<!-- Node27 -->
<g id="node27" class="node"><title>Node27</title>
<g id="a_node27"><a xlink:href="namespacetlz.html#a7b27ca69fad329b4a00aceee41d2962b" target="_top" xlink:title="tlz::encode_mat_">
<polygon fill="white" stroke="black" points="797.5,-500 797.5,-519 889.5,-519 889.5,-500 797.5,-500"/>
<text text-anchor="middle" x="843.5" y="-507" font-family="Helvetica,sans-Serif" font-size="10.00">tlz::encode_mat_</text>
</a>
</g>
</g>
<!-- Node26&#45;&gt;Node27 -->
<g id="edge31" class="edge"><title>Node26&#45;&gt;Node27</title>
<path fill="none" stroke="midnightblue" d="M732.84,-523.929C749.735,-521.706 769.41,-519.117 787.393,-516.751"/>
<polygon fill="midnightblue" stroke="midnightblue" points="788.007,-520.2 797.465,-515.426 787.094,-513.26 788.007,-520.2"/>
</g>
<!-- Node28&#45;&gt;Node29 -->
<g id="edge33" class="edge"><title>Node28&#45;&gt;Node29</title>
<path fill="none" stroke="midnightblue" d="M593.117,-449.165C604.302,-449.556 616.369,-449.978 628.034,-450.386"/>
<polygon fill="midnightblue" stroke="midnightblue" points="628.033,-453.888 638.15,-450.739 628.278,-446.892 628.033,-453.888"/>
</g>
<!-- Node29&#45;&gt;Node20 -->
<g id="edge34" class="edge"><title>Node29&#45;&gt;Node20</title>
<path fill="none" stroke="midnightblue" d="M707.936,-442.864C731.854,-429.646 775.408,-405.577 806.487,-388.402"/>
<polygon fill="midnightblue" stroke="midnightblue" points="808.236,-391.434 815.295,-383.534 804.85,-385.308 808.236,-391.434"/>
</g>
<!-- Node30 -->
<g id="node30" class="node"><title>Node30</title>
<g id="a_node30"><a xlink:href="structtlz_1_1distortion__parameters.html#a96312c5d7baa4b7b1f2a76e9396037f8" target="_top" xlink:title="tlz::distortion_parameters\l::cv_coeffs">
<polygon fill="white" stroke="black" points="780,-437.5 780,-467.5 907,-467.5 907,-437.5 780,-437.5"/>
<text text-anchor="start" x="788" y="-455.5" font-family="Helvetica,sans-Serif" font-size="10.00">tlz::distortion_parameters</text>
<text text-anchor="middle" x="843.5" y="-444.5" font-family="Helvetica,sans-Serif" font-size="10.00">::cv_coeffs</text>
</a>
</g>
</g>
<!-- Node29&#45;&gt;Node30 -->
<g id="edge35" class="edge"><title>Node29&#45;&gt;Node30</title>
<path fill="none" stroke="midnightblue" d="M740.692,-452.5C749.998,-452.5 759.89,-452.5 769.71,-452.5"/>
<polygon fill="midnightblue" stroke="midnightblue" points="769.89,-456 779.89,-452.5 769.89,-449 769.89,-456"/>
</g>
<!-- Node33 -->
<g id="node33" class="node"><title>Node33</title>
<g id="a_node33"><a xlink:href="classtlz_1_1viewer.html#af74a8aef9dde68eeff6b1e2561b39014" target="_top" xlink:title="tlz::viewer::height">
<polygon fill="white" stroke="black" points="233.5,-158 233.5,-177 327.5,-177 327.5,-158 233.5,-158"/>
<text text-anchor="middle" x="280.5" y="-165" font-family="Helvetica,sans-Serif" font-size="10.00">tlz::viewer::height</text>
</a>
</g>
</g>
<!-- Node32&#45;&gt;Node33 -->
<g id="edge43" class="edge"><title>Node32&#45;&gt;Node33</title>
<path fill="none" stroke="midnightblue" d="M179.834,-167.5C193.497,-167.5 208.76,-167.5 223.155,-167.5"/>
<polygon fill="midnightblue" stroke="midnightblue" points="223.448,-171 233.448,-167.5 223.448,-164 223.448,-171"/>
</g>
<!-- Node34 -->
<g id="node34" class="node"><title>Node34</title>
<g id="a_node34"><a xlink:href="classtlz_1_1viewer.html#acc43bf1dd1d0c3cdc35a948d4c194769" target="_top" xlink:title="tlz::viewer::width">
<polygon fill="white" stroke="black" points="235,-196 235,-215 326,-215 326,-196 235,-196"/>
<text text-anchor="middle" x="280.5" y="-203" font-family="Helvetica,sans-Serif" font-size="10.00">tlz::viewer::width</text>
</a>
</g>
</g>
<!-- Node32&#45;&gt;Node34 -->
<g id="edge44" class="edge"><title>Node32&#45;&gt;Node34</title>
<path fill="none" stroke="midnightblue" d="M172.211,-177.089C190.821,-182.017 213.697,-188.075 233.539,-193.329"/>
<polygon fill="midnightblue" stroke="midnightblue" points="232.738,-196.738 243.3,-195.914 234.53,-189.971 232.738,-196.738"/>
</g>
<!-- Node35&#45;&gt;Node33 -->
<g id="edge47" class="edge"><title>Node35&#45;&gt;Node33</title>
<path fill="none" stroke="midnightblue" d="M172.211,-195.911C190.821,-190.983 213.697,-184.925 233.539,-179.671"/>
<polygon fill="midnightblue" stroke="midnightblue" points="234.53,-183.029 243.3,-177.086 232.738,-176.262 234.53,-183.029"/>
</g>
<!-- Node35&#45;&gt;Node34 -->
<g id="edge46" class="edge"><title>Node35&#45;&gt;Node34</title>
<path fill="none" stroke="midnightblue" d="M179.834,-205.5C194.032,-205.5 209.957,-205.5 224.84,-205.5"/>
<polygon fill="midnightblue" stroke="midnightblue" points="224.944,-209 234.944,-205.5 224.944,-202 224.944,-209"/>
</g>
<!-- Node40 -->
<g id="node40" class="node"><title>Node40</title>
<g id="a_node40"><a xlink:href="classtlz_1_1viewer.html#a39742c89e09f32e2d2c9162882dc158c" target="_top" xlink:title="tlz::viewer::update\l_modal">
<polygon fill="white" stroke="black" points="232,-0.5 232,-30.5 329,-30.5 329,-0.5 232,-0.5"/>
<text text-anchor="start" x="240" y="-18.5" font-family="Helvetica,sans-Serif" font-size="10.00">tlz::viewer::update</text>
<text text-anchor="middle" x="280.5" y="-7.5" font-family="Helvetica,sans-Serif" font-size="10.00">_modal</text>
</a>
</g>
</g>
<!-- Node39&#45;&gt;Node40 -->
<g id="edge53" class="edge"><title>Node39&#45;&gt;Node40</title>
<path fill="none" stroke="midnightblue" d="M196.025,-15.5C204.543,-15.5 213.288,-15.5 221.761,-15.5"/>
<polygon fill="midnightblue" stroke="midnightblue" points="221.928,-19.0001 231.928,-15.5 221.928,-12.0001 221.928,-19.0001"/>
</g>
</g>
</svg>
