<?xml version="1.0" encoding="UTF-8" standalone="no"?>
<!DOCTYPE svg PUBLIC "-//W3C//DTD SVG 1.1//EN"
 "http://www.w3.org/Graphics/SVG/1.1/DTD/svg11.dtd">
<!-- Generated by graphviz version 2.38.0 (20140413.2041)
 -->
<!-- Title: view_synthesis Pages: 1 -->
<svg width="254pt" height="66pt"
 viewBox="0.00 0.00 254.00 66.00" xmlns="http://www.w3.org/2000/svg" xmlns:xlink="http://www.w3.org/1999/xlink">
<g id="graph0" class="graph" transform="scale(1 1) rotate(0) translate(4 62)">
<title>view_synthesis</title>
<polygon fill="white" stroke="none" points="-4,4 -4,-62 250,-62 250,4 -4,4"/>
<!-- Node1 -->
<g id="node1" class="node"><title>Node1</title>
<polygon fill="#bfbfbf" stroke="black" points="0,-19.5 0,-38.5 84,-38.5 84,-19.5 0,-19.5"/>
<text text-anchor="middle" x="42" y="-26.5" font-family="Helvetica,sans-Serif" font-size="10.00">view_synthesis</text>
</g>
<!-- Node2 -->
<g id="node2" class="node"><title>Node2</title>
<g id="a_node2"><a xlink:href="structtlz_1_1camera.html#aace4b782f50c06158735709101fbdc86" target="_top" xlink:title="tlz::camera::extrinsic">
<polygon fill="white" stroke="black" points="129,-38.5 129,-57.5 237,-57.5 237,-38.5 129,-38.5"/>
<text text-anchor="middle" x="183" y="-45.5" font-family="Helvetica,sans-Serif" font-size="10.00">tlz::camera::extrinsic</text>
</a>
</g>
</g>
<!-- Node1&#45;&gt;Node2 -->
<g id="edge1" class="edge"><title>Node1&#45;&gt;Node2</title>
<path fill="none" stroke="midnightblue" d="M84.3282,-34.6492C95.1599,-36.1298 107.091,-37.7606 118.782,-39.3587"/>
<polygon fill="midnightblue" stroke="midnightblue" points="118.579,-42.8635 128.961,-40.7501 119.527,-35.928 118.579,-42.8635"/>
</g>
<!-- Node3 -->
<g id="node3" class="node"><title>Node3</title>
<g id="a_node3"><a xlink:href="structtlz_1_1camera.html#af623cd98390f6588c45ad59bbbe13355" target="_top" xlink:title="tlz::camera::extrinsic_inv">
<polygon fill="white" stroke="black" points="120,-0.5 120,-19.5 246,-19.5 246,-0.5 120,-0.5"/>
<text text-anchor="middle" x="183" y="-7.5" font-family="Helvetica,sans-Serif" font-size="10.00">tlz::camera::extrinsic_inv</text>
</a>
</g>
</g>
<!-- Node1&#45;&gt;Node3 -->
<g id="edge2" class="edge"><title>Node1&#45;&gt;Node3</title>
<path fill="none" stroke="midnightblue" d="M84.3282,-23.3508C92.4684,-22.2381 101.229,-21.0406 110.043,-19.8359"/>
<polygon fill="midnightblue" stroke="midnightblue" points="110.552,-23.2989 119.986,-18.4768 109.604,-16.3634 110.552,-23.2989"/>
</g>
</g>
</svg>
