<?xml version="1.0" encoding="UTF-8" standalone="no"?>
<!DOCTYPE svg PUBLIC "-//W3C//DTD SVG 1.1//EN"
 "http://www.w3.org/Graphics/SVG/1.1/DTD/svg11.dtd">
<!-- Generated by graphviz version 2.38.0 (20140413.2041)
 -->
<!-- Title: main Pages: 1 -->
<svg width="784pt" height="553pt"
 viewBox="0.00 0.00 784.00 553.01" xmlns="http://www.w3.org/2000/svg" xmlns:xlink="http://www.w3.org/1999/xlink">
<g id="graph0" class="graph" transform="scale(1 1) rotate(0) translate(4 549.008)">
<title>main</title>
<polygon fill="white" stroke="none" points="-4,4 -4,-549.008 780,-549.008 780,4 -4,4"/>
<!-- Node1 -->
<g id="node1" class="node"><title>Node1</title>
<polygon fill="#bfbfbf" stroke="black" points="0,-205 0,-224 38,-224 38,-205 0,-205"/>
<text text-anchor="middle" x="19" y="-212" font-family="Helvetica,sans-Serif" font-size="10.00">main</text>
</g>
<!-- Node2 -->
<g id="node2" class="node"><title>Node2</title>
<g id="a_node2"><a xlink:href="namespacetlz.html#a3c03f5d9d6261ec2909938822fc47f8a" target="_top" xlink:title="tlz::get_args">
<polygon fill="white" stroke="black" points="101.5,-388 101.5,-407 172.5,-407 172.5,-388 101.5,-388"/>
<text text-anchor="middle" x="137" y="-395" font-family="Helvetica,sans-Serif" font-size="10.00">tlz::get_args</text>
</a>
</g>
</g>
<!-- Node1&#45;&gt;Node2 -->
<g id="edge1" class="edge"><title>Node1&#45;&gt;Node2</title>
<path fill="none" stroke="midnightblue" d="M20.5278,-224.163C22.5234,-251.376 31.8293,-329.523 74,-373.5 79.0528,-378.769 85.3936,-382.9 92.0774,-386.133"/>
<polygon fill="midnightblue" stroke="midnightblue" points="90.74,-389.367 101.316,-390.007 93.4475,-382.912 90.74,-389.367"/>
</g>
<!-- Node3 -->
<g id="node3" class="node"><title>Node3</title>
<g id="a_node3"><a xlink:href="namespacetlz.html#a634de7ca11e100e4a118dffe80376a75" target="_top" xlink:title="tlz::in_filename_arg">
<polygon fill="white" stroke="black" points="239,-470 239,-489 340,-489 340,-470 239,-470"/>
<text text-anchor="middle" x="289.5" y="-477" font-family="Helvetica,sans-Serif" font-size="10.00">tlz::in_filename_arg</text>
</a>
</g>
</g>
<!-- Node1&#45;&gt;Node3 -->
<g id="edge2" class="edge"><title>Node1&#45;&gt;Node3</title>
<path fill="none" stroke="midnightblue" d="M21.5736,-224.293C25.7744,-247.261 39.3827,-305.023 74,-336.5 117.674,-376.212 150.836,-345.83 200,-378.5 233.471,-400.742 261.992,-438.823 277.054,-461.329"/>
<polygon fill="midnightblue" stroke="midnightblue" points="274.267,-463.463 282.66,-469.929 280.131,-459.641 274.267,-463.463"/>
</g>
<!-- Node10 -->
<g id="node10" class="node"><title>Node10</title>
<g id="a_node10"><a xlink:href="namespacetlz.html#a59931291e2fb8d804edf4ea1b95c35d9" target="_top" xlink:title="tlz::int_opt_arg">
<polygon fill="white" stroke="black" points="249,-356 249,-375 330,-375 330,-356 249,-356"/>
<text text-anchor="middle" x="289.5" y="-363" font-family="Helvetica,sans-Serif" font-size="10.00">tlz::int_opt_arg</text>
</a>
</g>
</g>
<!-- Node1&#45;&gt;Node10 -->
<g id="edge11" class="edge"><title>Node1&#45;&gt;Node10</title>
<path fill="none" stroke="midnightblue" d="M23.2093,-224.046C29.7841,-242.137 46.5233,-281.48 74,-302.5 87.4047,-312.755 181.616,-338.158 240.639,-353.391"/>
<polygon fill="midnightblue" stroke="midnightblue" points="239.951,-356.827 250.507,-355.927 241.694,-350.048 239.951,-356.827"/>
</g>
<!-- Node14 -->
<g id="node14" class="node"><title>Node14</title>
<g id="a_node14"><a xlink:href="namespacetlz.html#a4791154460ea7bf2fa5984b1748bc9d1" target="_top" xlink:title="tlz::out_filename_opt_arg">
<polygon fill="white" stroke="black" points="74,-274 74,-293 200,-293 200,-274 74,-274"/>
<text text-anchor="middle" x="137" y="-281" font-family="Helvetica,sans-Serif" font-size="10.00">tlz::out_filename_opt_arg</text>
</a>
</g>
</g>
<!-- Node1&#45;&gt;Node14 -->
<g id="edge22" class="edge"><title>Node1&#45;&gt;Node14</title>
<path fill="none" stroke="midnightblue" d="M28.2299,-224.114C38.0879,-235.076 55.5909,-252.85 74,-263.5 78.4146,-266.054 83.1977,-268.329 88.0825,-270.343"/>
<polygon fill="midnightblue" stroke="midnightblue" points="86.9396,-273.653 97.5315,-273.902 89.4069,-267.102 86.9396,-273.653"/>
</g>
<!-- Node17 -->
<g id="node17" class="node"><title>Node17</title>
<g id="a_node17"><a xlink:href="classtlz_1_1viewer.html#a4be73d43a59e54ac622a45ecb042e351" target="_top" xlink:title="tlz::viewer::add_real\l_slider">
<polygon fill="white" stroke="black" points="85,-224.5 85,-254.5 189,-254.5 189,-224.5 85,-224.5"/>
<text text-anchor="start" x="93" y="-242.5" font-family="Helvetica,sans-Serif" font-size="10.00">tlz::viewer::add_real</text>
<text text-anchor="middle" x="137" y="-231.5" font-family="Helvetica,sans-Serif" font-size="10.00">_slider</text>
</a>
</g>
</g>
<!-- Node1&#45;&gt;Node17 -->
<g id="edge31" class="edge"><title>Node1&#45;&gt;Node17</title>
<path fill="none" stroke="midnightblue" d="M38.125,-218.406C48.2775,-220.594 61.5893,-223.463 75.1111,-226.377"/>
<polygon fill="midnightblue" stroke="midnightblue" points="74.4389,-229.813 84.9519,-228.498 75.9138,-222.97 74.4389,-229.813"/>
</g>
<!-- Node18 -->
<g id="node18" class="node"><title>Node18</title>
<g id="a_node18"><a xlink:href="classtlz_1_1viewer_1_1real__slider.html#afc68e8dd902349e26e697fcc94d441c4" target="_top" xlink:title="tlz::viewer::real_slider\l::value">
<polygon fill="white" stroke="black" points="81,-175.5 81,-205.5 193,-205.5 193,-175.5 81,-175.5"/>
<text text-anchor="start" x="89" y="-193.5" font-family="Helvetica,sans-Serif" font-size="10.00">tlz::viewer::real_slider</text>
<text text-anchor="middle" x="137" y="-182.5" font-family="Helvetica,sans-Serif" font-size="10.00">::value</text>
</a>
</g>
</g>
<!-- Node1&#45;&gt;Node18 -->
<g id="edge32" class="edge"><title>Node1&#45;&gt;Node18</title>
<path fill="none" stroke="midnightblue" d="M38.125,-210.75C47.1853,-208.875 58.7617,-206.48 70.758,-203.998"/>
<polygon fill="midnightblue" stroke="midnightblue" points="71.8042,-207.356 80.8876,-201.903 70.3859,-200.501 71.8042,-207.356"/>
</g>
<!-- Node19 -->
<g id="node19" class="node"><title>Node19</title>
<g id="a_node19"><a xlink:href="classtlz_1_1viewer.html#a6a59617413dc76948b6802399ddf555b" target="_top" xlink:title="tlz::viewer::visualize\l_depth">
<polygon fill="white" stroke="black" points="84,-126.5 84,-156.5 190,-156.5 190,-126.5 84,-126.5"/>
<text text-anchor="start" x="92" y="-144.5" font-family="Helvetica,sans-Serif" font-size="10.00">tlz::viewer::visualize</text>
<text text-anchor="middle" x="137" y="-133.5" font-family="Helvetica,sans-Serif" font-size="10.00">_depth</text>
</a>
</g>
</g>
<!-- Node1&#45;&gt;Node19 -->
<g id="edge33" class="edge"><title>Node1&#45;&gt;Node19</title>
<path fill="none" stroke="midnightblue" d="M28.6997,-204.683C38.7219,-193.865 56.1189,-176.54 74,-165.5 76.486,-163.965 79.0865,-162.499 81.7546,-161.104"/>
<polygon fill="midnightblue" stroke="midnightblue" points="83.5347,-164.131 91.0183,-156.631 80.4911,-157.827 83.5347,-164.131"/>
</g>
<!-- Node20 -->
<g id="node20" class="node"><title>Node20</title>
<g id="a_node20"><a xlink:href="classtlz_1_1viewer.html#a0ad9ee28b8127c63b2886b04fb36e3dc" target="_top" xlink:title="tlz::viewer::clear">
<polygon fill="white" stroke="black" points="92.5,-50 92.5,-69 181.5,-69 181.5,-50 92.5,-50"/>
<text text-anchor="middle" x="137" y="-57" font-family="Helvetica,sans-Serif" font-size="10.00">tlz::viewer::clear</text>
</a>
</g>
</g>
<!-- Node1&#45;&gt;Node20 -->
<g id="edge34" class="edge"><title>Node1&#45;&gt;Node20</title>
<path fill="none" stroke="midnightblue" d="M21.0179,-204.662C24.1207,-179.78 35.721,-113.812 74,-78.5 76.7695,-75.9452 79.8746,-73.7337 83.1801,-71.8193"/>
<polygon fill="midnightblue" stroke="midnightblue" points="84.8214,-74.9135 92.3056,-67.4143 81.7784,-68.6095 84.8214,-74.9135"/>
</g>
<!-- Node23 -->
<g id="node23" class="node"><title>Node23</title>
<g id="a_node23"><a xlink:href="classtlz_1_1viewer.html#a5f0412cff89a343ad52431689502389d" target="_top" xlink:title="tlz::viewer::draw">
<polygon fill="white" stroke="black" points="92.5,-88 92.5,-107 181.5,-107 181.5,-88 92.5,-88"/>
<text text-anchor="middle" x="137" y="-95" font-family="Helvetica,sans-Serif" font-size="10.00">tlz::viewer::draw</text>
</a>
</g>
</g>
<!-- Node1&#45;&gt;Node23 -->
<g id="edge37" class="edge"><title>Node1&#45;&gt;Node23</title>
<path fill="none" stroke="midnightblue" d="M22.6385,-204.83C28.494,-185.2 44.4486,-140.508 74,-116.5 76.878,-114.162 80.0418,-112.111 83.3702,-110.312"/>
<polygon fill="midnightblue" stroke="midnightblue" points="84.8639,-113.477 92.4817,-106.114 81.9347,-107.12 84.8639,-113.477"/>
</g>
<!-- Node24 -->
<g id="node24" class="node"><title>Node24</title>
<g id="a_node24"><a xlink:href="classtlz_1_1viewer.html#a4ccb30b02c81909ba1af97745375385a" target="_top" xlink:title="tlz::viewer::show_modal">
<polygon fill="white" stroke="black" points="76,-9 76,-28 198,-28 198,-9 76,-9"/>
<text text-anchor="middle" x="137" y="-16" font-family="Helvetica,sans-Serif" font-size="10.00">tlz::viewer::show_modal</text>
</a>
</g>
</g>
<!-- Node1&#45;&gt;Node24 -->
<g id="edge40" class="edge"><title>Node1&#45;&gt;Node24</title>
<path fill="none" stroke="midnightblue" d="M20.133,-204.722C21.0608,-175.624 27.7633,-88.627 74,-40.5 76.8128,-37.5722 80.0398,-35.0334 83.5118,-32.8319"/>
<polygon fill="midnightblue" stroke="midnightblue" points="85.3649,-35.8106 92.5506,-28.025 82.078,-29.6302 85.3649,-35.8106"/>
</g>
<!-- Node4 -->
<g id="node4" class="node"><title>Node4</title>
<g id="a_node4"><a xlink:href="namespacetlz.html#a0621d598fb83b13bf028f3e6293d04f8" target="_top" xlink:title="tlz::string_arg">
<polygon fill="white" stroke="black" points="387,-318 387,-337 463,-337 463,-318 387,-318"/>
<text text-anchor="middle" x="425" y="-325" font-family="Helvetica,sans-Serif" font-size="10.00">tlz::string_arg</text>
</a>
</g>
</g>
<!-- Node3&#45;&gt;Node4 -->
<g id="edge3" class="edge"><title>Node3&#45;&gt;Node4</title>
<path fill="none" stroke="midnightblue" d="M294.577,-469.733C305.098,-445.616 335.421,-382.584 379,-346.5 381,-344.844 383.166,-343.312 385.429,-341.898"/>
<polygon fill="midnightblue" stroke="midnightblue" points="387.347,-344.84 394.495,-337.019 384.03,-338.676 387.347,-344.84"/>
</g>
<!-- Node5 -->
<g id="node5" class="node"><title>Node5</title>
<g id="a_node5"><a xlink:href="namespacetlz.html#a780431daab8d2595372eacb43143b52d" target="_top" xlink:title="tlz::args">
<polygon fill="white" stroke="black" points="537.5,-394 537.5,-413 589.5,-413 589.5,-394 537.5,-394"/>
<text text-anchor="middle" x="563.5" y="-401" font-family="Helvetica,sans-Serif" font-size="10.00">tlz::args</text>
</a>
</g>
</g>
<!-- Node3&#45;&gt;Node5 -->
<g id="edge9" class="edge"><title>Node3&#45;&gt;Node5</title>
<path fill="none" stroke="midnightblue" d="M340.05,-480.222C377.06,-479.356 428.387,-475.144 471,-460.5 497.829,-451.28 524.965,-432.995 542.639,-419.612"/>
<polygon fill="midnightblue" stroke="midnightblue" points="545.223,-422.037 550.968,-413.135 540.925,-416.512 545.223,-422.037"/>
</g>
<!-- Node7 -->
<g id="node7" class="node"><title>Node7</title>
<g id="a_node7"><a xlink:href="classtlz_1_1args__list.html#a38ad21acd64a4af98ffdf4a47837cdbe" target="_top" xlink:title="tlz::args_list::usage_fail">
<polygon fill="white" stroke="black" points="656,-356 656,-375 776,-375 776,-356 656,-356"/>
<text text-anchor="middle" x="716" y="-363" font-family="Helvetica,sans-Serif" font-size="10.00">tlz::args_list::usage_fail</text>
</a>
</g>
</g>
<!-- Node3&#45;&gt;Node7 -->
<g id="edge10" class="edge"><title>Node3&#45;&gt;Node7</title>
<path fill="none" stroke="midnightblue" d="M300.924,-489.134C316.509,-502.808 347.441,-527.216 379,-536.5 418.227,-548.039 431.638,-547.569 471,-536.5 570.072,-508.639 662.525,-420.803 698.81,-383.039"/>
<polygon fill="midnightblue" stroke="midnightblue" points="701.728,-385.048 706.057,-375.378 696.642,-380.237 701.728,-385.048"/>
</g>
<!-- Node9 -->
<g id="node9" class="node"><title>Node9</title>
<g id="a_node9"><a xlink:href="namespacetlz.html#abb019466ea9f56c0dab27e893d891837" target="_top" xlink:title="tlz::file_exists">
<polygon fill="white" stroke="black" points="386.5,-508 386.5,-527 463.5,-527 463.5,-508 386.5,-508"/>
<text text-anchor="middle" x="425" y="-515" font-family="Helvetica,sans-Serif" font-size="10.00">tlz::file_exists</text>
</a>
</g>
</g>
<!-- Node3&#45;&gt;Node9 -->
<g id="edge8" class="edge"><title>Node3&#45;&gt;Node9</title>
<path fill="none" stroke="midnightblue" d="M324.188,-489.089C341.263,-493.949 362.2,-499.909 380.482,-505.113"/>
<polygon fill="midnightblue" stroke="midnightblue" points="379.747,-508.543 390.323,-507.914 381.663,-501.81 379.747,-508.543"/>
</g>
<!-- Node4&#45;&gt;Node5 -->
<g id="edge4" class="edge"><title>Node4&#45;&gt;Node5</title>
<path fill="none" stroke="midnightblue" d="M450.611,-337.067C457.323,-339.897 464.525,-343.143 471,-346.5 495.336,-359.118 521.777,-375.956 539.948,-388.055"/>
<polygon fill="midnightblue" stroke="midnightblue" points="538.39,-391.225 548.641,-393.902 542.297,-385.417 538.39,-391.225"/>
</g>
<!-- Node6 -->
<g id="node6" class="node"><title>Node6</title>
<g id="a_node6"><a xlink:href="classtlz_1_1args__list.html#a73d99bc75998dc14607a3a372d28dc6d" target="_top" xlink:title="tlz::args_list::next_arg">
<polygon fill="white" stroke="black" points="507,-318 507,-337 620,-337 620,-318 507,-318"/>
<text text-anchor="middle" x="563.5" y="-325" font-family="Helvetica,sans-Serif" font-size="10.00">tlz::args_list::next_arg</text>
</a>
</g>
</g>
<!-- Node4&#45;&gt;Node6 -->
<g id="edge5" class="edge"><title>Node4&#45;&gt;Node6</title>
<path fill="none" stroke="midnightblue" d="M463.299,-327.5C473.678,-327.5 485.268,-327.5 496.764,-327.5"/>
<polygon fill="midnightblue" stroke="midnightblue" points="496.808,-331 506.808,-327.5 496.808,-324 496.808,-331"/>
</g>
<!-- Node6&#45;&gt;Node7 -->
<g id="edge6" class="edge"><title>Node6&#45;&gt;Node7</title>
<path fill="none" stroke="midnightblue" d="M602.478,-337.089C622.159,-342.058 646.391,-348.177 667.321,-353.461"/>
<polygon fill="midnightblue" stroke="midnightblue" points="666.743,-356.925 677.296,-355.98 668.457,-350.138 666.743,-356.925"/>
</g>
<!-- Node8 -->
<g id="node8" class="node"><title>Node8</title>
<g id="a_node8"><a xlink:href="namespacetlz.html#a8e4f8c8c2927bc4350de13bfa0f8f9e1" target="_top" xlink:title="tlz::to_string">
<polygon fill="white" stroke="black" points="680.5,-296 680.5,-315 751.5,-315 751.5,-296 680.5,-296"/>
<text text-anchor="middle" x="716" y="-303" font-family="Helvetica,sans-Serif" font-size="10.00">tlz::to_string</text>
</a>
</g>
</g>
<!-- Node6&#45;&gt;Node8 -->
<g id="edge7" class="edge"><title>Node6&#45;&gt;Node8</title>
<path fill="none" stroke="midnightblue" d="M620.113,-319.371C636.598,-316.961 654.435,-314.353 670.147,-312.057"/>
<polygon fill="midnightblue" stroke="midnightblue" points="670.741,-315.507 680.13,-310.597 669.728,-308.581 670.741,-315.507"/>
</g>
<!-- Node10&#45;&gt;Node5 -->
<g id="edge12" class="edge"><title>Node10&#45;&gt;Node5</title>
<path fill="none" stroke="midnightblue" d="M330.419,-375.03C345.565,-378.393 363.014,-381.964 379,-384.5 430.247,-392.63 490.121,-398.079 527.18,-400.985"/>
<polygon fill="midnightblue" stroke="midnightblue" points="527.219,-404.498 537.457,-401.771 527.753,-397.518 527.219,-404.498"/>
</g>
<!-- Node11 -->
<g id="node11" class="node"><title>Node11</title>
<g id="a_node11"><a xlink:href="classtlz_1_1args__list.html#a4aee93f4b0d9b5b4e7a5d13cb637337c" target="_top" xlink:title="tlz::args_list::has\l_next_arg">
<polygon fill="white" stroke="black" points="379,-268.5 379,-298.5 471,-298.5 471,-268.5 379,-268.5"/>
<text text-anchor="start" x="387" y="-286.5" font-family="Helvetica,sans-Serif" font-size="10.00">tlz::args_list::has</text>
<text text-anchor="middle" x="425" y="-275.5" font-family="Helvetica,sans-Serif" font-size="10.00">_next_arg</text>
</a>
</g>
</g>
<!-- Node10&#45;&gt;Node11 -->
<g id="edge13" class="edge"><title>Node10&#45;&gt;Node11</title>
<path fill="none" stroke="midnightblue" d="M318.737,-355.932C326.889,-352.58 335.58,-348.404 343,-343.5 361.616,-331.195 361.09,-321.812 379,-308.5 381.071,-306.961 383.248,-305.45 385.479,-303.982"/>
<polygon fill="midnightblue" stroke="midnightblue" points="387.589,-306.793 394.254,-298.557 383.908,-300.839 387.589,-306.793"/>
</g>
<!-- Node12 -->
<g id="node12" class="node"><title>Node12</title>
<g id="a_node12"><a xlink:href="namespacetlz.html#af0d1e8ba5b9f2dbc2b589afab3a21fc8" target="_top" xlink:title="tlz::int_arg">
<polygon fill="white" stroke="black" points="394,-432 394,-451 456,-451 456,-432 394,-432"/>
<text text-anchor="middle" x="425" y="-439" font-family="Helvetica,sans-Serif" font-size="10.00">tlz::int_arg</text>
</a>
</g>
</g>
<!-- Node10&#45;&gt;Node12 -->
<g id="edge14" class="edge"><title>Node10&#45;&gt;Node12</title>
<path fill="none" stroke="midnightblue" d="M306.373,-375.093C323.997,-385.682 353.346,-403.13 379,-417.5 384.678,-420.68 390.805,-424.013 396.655,-427.148"/>
<polygon fill="midnightblue" stroke="midnightblue" points="395.043,-430.255 405.516,-431.862 398.331,-424.075 395.043,-430.255"/>
</g>
<!-- Node13 -->
<g id="node13" class="node"><title>Node13</title>
<g id="a_node13"><a xlink:href="namespacetlz.html#a63246890b0c946b5f62a1d3e2bea6103" target="_top" xlink:title="tlz::real_arg">
<polygon fill="white" stroke="black" points="391,-356 391,-375 459,-375 459,-356 391,-356"/>
<text text-anchor="middle" x="425" y="-363" font-family="Helvetica,sans-Serif" font-size="10.00">tlz::real_arg</text>
</a>
</g>
</g>
<!-- Node10&#45;&gt;Node13 -->
<g id="edge18" class="edge"><title>Node10&#45;&gt;Node13</title>
<path fill="none" stroke="midnightblue" d="M330.193,-365.5C346.081,-365.5 364.432,-365.5 380.666,-365.5"/>
<polygon fill="midnightblue" stroke="midnightblue" points="380.981,-369 390.981,-365.5 380.981,-362 380.981,-369"/>
</g>
<!-- Node12&#45;&gt;Node5 -->
<g id="edge15" class="edge"><title>Node12&#45;&gt;Node5</title>
<path fill="none" stroke="midnightblue" d="M456.294,-433.067C477.408,-427.189 505.63,-419.332 527.674,-413.195"/>
<polygon fill="midnightblue" stroke="midnightblue" points="528.625,-416.564 537.32,-410.51 526.747,-409.82 528.625,-416.564"/>
</g>
<!-- Node12&#45;&gt;Node6 -->
<g id="edge16" class="edge"><title>Node12&#45;&gt;Node6</title>
<path fill="none" stroke="midnightblue" d="M437.638,-431.78C461.11,-412.178 514.333,-367.728 543.13,-343.677"/>
<polygon fill="midnightblue" stroke="midnightblue" points="545.46,-346.292 550.892,-337.195 540.973,-340.919 545.46,-346.292"/>
</g>
<!-- Node12&#45;&gt;Node7 -->
<g id="edge17" class="edge"><title>Node12&#45;&gt;Node7</title>
<path fill="none" stroke="midnightblue" d="M456.087,-442.59C494.957,-443.096 564.247,-440.915 620,-422.5 647.938,-413.272 676.407,-394.72 694.798,-381.282"/>
<polygon fill="midnightblue" stroke="midnightblue" points="697.066,-383.957 702.97,-375.16 692.869,-378.355 697.066,-383.957"/>
</g>
<!-- Node13&#45;&gt;Node5 -->
<g id="edge19" class="edge"><title>Node13&#45;&gt;Node5</title>
<path fill="none" stroke="midnightblue" d="M459.043,-374.699C479.791,-380.475 506.518,-387.915 527.609,-393.787"/>
<polygon fill="midnightblue" stroke="midnightblue" points="526.886,-397.219 537.459,-396.529 528.764,-390.475 526.886,-397.219"/>
</g>
<!-- Node13&#45;&gt;Node6 -->
<g id="edge20" class="edge"><title>Node13&#45;&gt;Node6</title>
<path fill="none" stroke="midnightblue" d="M459.043,-356.301C476.915,-351.326 499.223,-345.115 518.544,-339.737"/>
<polygon fill="midnightblue" stroke="midnightblue" points="519.641,-343.065 528.336,-337.011 517.764,-336.321 519.641,-343.065"/>
</g>
<!-- Node13&#45;&gt;Node7 -->
<g id="edge21" class="edge"><title>Node13&#45;&gt;Node7</title>
<path fill="none" stroke="midnightblue" d="M459.152,-365.5C504.422,-365.5 586.689,-365.5 645.725,-365.5"/>
<polygon fill="midnightblue" stroke="midnightblue" points="645.726,-369 655.726,-365.5 645.726,-362 645.726,-369"/>
</g>
<!-- Node14&#45;&gt;Node5 -->
<g id="edge23" class="edge"><title>Node14&#45;&gt;Node5</title>
<path fill="none" stroke="midnightblue" d="M180.443,-273.972C259.299,-257.283 424.611,-227.357 471,-258.5 506.084,-282.054 483.835,-311.158 507,-346.5 516.966,-361.705 531.356,-376.343 542.986,-386.977"/>
<polygon fill="midnightblue" stroke="midnightblue" points="540.707,-389.634 550.508,-393.658 545.355,-384.4 540.707,-389.634"/>
</g>
<!-- Node14&#45;&gt;Node6 -->
<g id="edge28" class="edge"><title>Node14&#45;&gt;Node6</title>
<path fill="none" stroke="midnightblue" d="M177.694,-273.968C185.411,-271.225 193.206,-267.781 200,-263.5 219.683,-251.098 214.629,-234.692 236,-225.5 331.945,-184.231 383.553,-168.388 471,-225.5 504.324,-247.264 477.918,-280.326 507,-307.5 509.247,-309.6 511.731,-311.482 514.365,-313.17"/>
<polygon fill="midnightblue" stroke="midnightblue" points="512.719,-316.258 523.183,-317.92 516.039,-310.096 512.719,-316.258"/>
</g>
<!-- Node14&#45;&gt;Node11 -->
<g id="edge24" class="edge"><title>Node14&#45;&gt;Node11</title>
<path fill="none" stroke="midnightblue" d="M200.058,-283.5C250.26,-283.5 320.308,-283.5 368.63,-283.5"/>
<polygon fill="midnightblue" stroke="midnightblue" points="368.899,-287 378.899,-283.5 368.899,-280 368.899,-287"/>
</g>
<!-- Node15 -->
<g id="node15" class="node"><title>Node15</title>
<g id="a_node15"><a xlink:href="classtlz_1_1args__list.html#ae7c07d1c8f24c2aa4fe0ba68ec45d353" target="_top" xlink:title="tlz::args_list::next\l_arg_is">
<polygon fill="white" stroke="black" points="516,-268.5 516,-298.5 611,-298.5 611,-268.5 516,-268.5"/>
<text text-anchor="start" x="524" y="-286.5" font-family="Helvetica,sans-Serif" font-size="10.00">tlz::args_list::next</text>
<text text-anchor="middle" x="563.5" y="-275.5" font-family="Helvetica,sans-Serif" font-size="10.00">_arg_is</text>
</a>
</g>
</g>
<!-- Node14&#45;&gt;Node15 -->
<g id="edge25" class="edge"><title>Node14&#45;&gt;Node15</title>
<path fill="none" stroke="midnightblue" d="M183.046,-273.879C189.19,-271.219 195.069,-267.827 200,-263.5 228.093,-238.849 204.417,-207.487 236,-187.5 324.257,-131.648 374.992,-146.376 471,-187.5 505.005,-202.066 532.369,-236.164 548.032,-259.538"/>
<polygon fill="midnightblue" stroke="midnightblue" points="545.27,-261.712 553.639,-268.209 551.148,-257.911 545.27,-261.712"/>
</g>
<!-- Node16 -->
<g id="node16" class="node"><title>Node16</title>
<g id="a_node16"><a xlink:href="namespacetlz.html#a65770a2c1ff57c5ae6542d4465a3d3f4" target="_top" xlink:title="tlz::out_filename_arg">
<polygon fill="white" stroke="black" points="236,-315 236,-334 343,-334 343,-315 236,-315"/>
<text text-anchor="middle" x="289.5" y="-322" font-family="Helvetica,sans-Serif" font-size="10.00">tlz::out_filename_arg</text>
</a>
</g>
</g>
<!-- Node14&#45;&gt;Node16 -->
<g id="edge29" class="edge"><title>Node14&#45;&gt;Node16</title>
<path fill="none" stroke="midnightblue" d="M172.906,-293.009C194.01,-298.758 221.124,-306.145 243.788,-312.319"/>
<polygon fill="midnightblue" stroke="midnightblue" points="242.955,-315.72 253.523,-314.971 244.795,-308.966 242.955,-315.72"/>
</g>
<!-- Node15&#45;&gt;Node7 -->
<g id="edge26" class="edge"><title>Node15&#45;&gt;Node7</title>
<path fill="none" stroke="midnightblue" d="M599.734,-298.622C606.528,-301.747 613.538,-305.121 620,-308.5 645.047,-321.598 672.642,-338.441 691.607,-350.413"/>
<polygon fill="midnightblue" stroke="midnightblue" points="689.858,-353.449 700.175,-355.862 693.615,-347.542 689.858,-353.449"/>
</g>
<!-- Node15&#45;&gt;Node8 -->
<g id="edge27" class="edge"><title>Node15&#45;&gt;Node8</title>
<path fill="none" stroke="midnightblue" d="M611.294,-290.34C630.078,-293.086 651.636,-296.238 670.214,-298.953"/>
<polygon fill="midnightblue" stroke="midnightblue" points="669.791,-302.428 680.192,-300.412 670.803,-295.502 669.791,-302.428"/>
</g>
<!-- Node16&#45;&gt;Node4 -->
<g id="edge30" class="edge"><title>Node16&#45;&gt;Node4</title>
<path fill="none" stroke="midnightblue" d="M343.263,-325.686C354.309,-325.934 365.89,-326.194 376.722,-326.438"/>
<polygon fill="midnightblue" stroke="midnightblue" points="376.759,-329.939 386.835,-326.665 376.916,-322.941 376.759,-329.939"/>
</g>
<!-- Node21 -->
<g id="node21" class="node"><title>Node21</title>
<g id="a_node21"><a xlink:href="classtlz_1_1viewer.html#af74a8aef9dde68eeff6b1e2561b39014" target="_top" xlink:title="tlz::viewer::height">
<polygon fill="white" stroke="black" points="242.5,-50 242.5,-69 336.5,-69 336.5,-50 242.5,-50"/>
<text text-anchor="middle" x="289.5" y="-57" font-family="Helvetica,sans-Serif" font-size="10.00">tlz::viewer::height</text>
</a>
</g>
</g>
<!-- Node20&#45;&gt;Node21 -->
<g id="edge35" class="edge"><title>Node20&#45;&gt;Node21</title>
<path fill="none" stroke="midnightblue" d="M181.531,-59.5C197.347,-59.5 215.452,-59.5 232.213,-59.5"/>
<polygon fill="midnightblue" stroke="midnightblue" points="232.444,-63.0001 242.444,-59.5 232.444,-56.0001 232.444,-63.0001"/>
</g>
<!-- Node22 -->
<g id="node22" class="node"><title>Node22</title>
<g id="a_node22"><a xlink:href="classtlz_1_1viewer.html#acc43bf1dd1d0c3cdc35a948d4c194769" target="_top" xlink:title="tlz::viewer::width">
<polygon fill="white" stroke="black" points="244,-88 244,-107 335,-107 335,-88 244,-88"/>
<text text-anchor="middle" x="289.5" y="-95" font-family="Helvetica,sans-Serif" font-size="10.00">tlz::viewer::width</text>
</a>
</g>
</g>
<!-- Node20&#45;&gt;Node22 -->
<g id="edge36" class="edge"><title>Node20&#45;&gt;Node22</title>
<path fill="none" stroke="midnightblue" d="M175.978,-69.089C195.659,-74.0583 219.891,-80.1767 240.821,-85.4613"/>
<polygon fill="midnightblue" stroke="midnightblue" points="240.243,-88.9253 250.796,-87.9799 241.957,-82.1383 240.243,-88.9253"/>
</g>
<!-- Node23&#45;&gt;Node21 -->
<g id="edge39" class="edge"><title>Node23&#45;&gt;Node21</title>
<path fill="none" stroke="midnightblue" d="M175.978,-87.911C195.659,-82.9417 219.891,-76.8233 240.821,-71.5387"/>
<polygon fill="midnightblue" stroke="midnightblue" points="241.957,-74.8617 250.796,-69.0201 240.243,-68.0747 241.957,-74.8617"/>
</g>
<!-- Node23&#45;&gt;Node22 -->
<g id="edge38" class="edge"><title>Node23&#45;&gt;Node22</title>
<path fill="none" stroke="midnightblue" d="M181.531,-97.5C197.707,-97.5 216.276,-97.5 233.354,-97.5"/>
<polygon fill="midnightblue" stroke="midnightblue" points="233.76,-101 243.76,-97.5 233.76,-94.0001 233.76,-101"/>
</g>
<!-- Node25 -->
<g id="node25" class="node"><title>Node25</title>
<g id="a_node25"><a xlink:href="classtlz_1_1viewer.html#a39742c89e09f32e2d2c9162882dc158c" target="_top" xlink:title="tlz::viewer::update\l_modal">
<polygon fill="white" stroke="black" points="241,-0.5 241,-30.5 338,-30.5 338,-0.5 241,-0.5"/>
<text text-anchor="start" x="249" y="-18.5" font-family="Helvetica,sans-Serif" font-size="10.00">tlz::viewer::update</text>
<text text-anchor="middle" x="289.5" y="-7.5" font-family="Helvetica,sans-Serif" font-size="10.00">_modal</text>
</a>
</g>
</g>
<!-- Node24&#45;&gt;Node25 -->
<g id="edge41" class="edge"><title>Node24&#45;&gt;Node25</title>
<path fill="none" stroke="midnightblue" d="M198.347,-17.2971C208.896,-17.0868 219.853,-16.8684 230.341,-16.6593"/>
<polygon fill="midnightblue" stroke="midnightblue" points="230.714,-20.1527 240.642,-16.454 230.574,-13.1541 230.714,-20.1527"/>
</g>
</g>
</svg>
