<?xml version="1.0" encoding="UTF-8" standalone="no"?>
<!DOCTYPE svg PUBLIC "-//W3C//DTD SVG 1.1//EN"
 "http://www.w3.org/Graphics/SVG/1.1/DTD/svg11.dtd">
<!-- Generated by graphviz version 2.38.0 (20140413.2041)
 -->
<!-- Title: main Pages: 1 -->
<svg width="805pt" height="1230pt"
 viewBox="0.00 0.00 805.00 1230.43" xmlns="http://www.w3.org/2000/svg" xmlns:xlink="http://www.w3.org/1999/xlink">
<g id="graph0" class="graph" transform="scale(1 1) rotate(0) translate(4 1226.43)">
<title>main</title>
<polygon fill="white" stroke="none" points="-4,4 -4,-1226.43 801,-1226.43 801,4 -4,4"/>
<!-- Node1 -->
<g id="node1" class="node"><title>Node1</title>
<polygon fill="#bfbfbf" stroke="black" points="0,-547 0,-566 38,-566 38,-547 0,-547"/>
<text text-anchor="middle" x="19" y="-554" font-family="Helvetica,sans-Serif" font-size="10.00">main</text>
</g>
<!-- Node2 -->
<g id="node2" class="node"><title>Node2</title>
<g id="a_node2"><a xlink:href="namespacetlz.html#a3c03f5d9d6261ec2909938822fc47f8a" target="_top" xlink:title="tlz::get_args">
<polygon fill="white" stroke="black" points="102.5,-1171 102.5,-1190 173.5,-1190 173.5,-1171 102.5,-1171"/>
<text text-anchor="middle" x="138" y="-1178" font-family="Helvetica,sans-Serif" font-size="10.00">tlz::get_args</text>
</a>
</g>
</g>
<!-- Node1&#45;&gt;Node2 -->
<g id="edge1" class="edge"><title>Node1&#45;&gt;Node2</title>
<path fill="none" stroke="midnightblue" d="M20.2179,-566.118C21.9691,-639.801 34.7117,-1113.26 74,-1161.5 78.8108,-1167.41 85.3904,-1171.53 92.4907,-1174.39"/>
<polygon fill="midnightblue" stroke="midnightblue" points="91.7873,-1177.84 102.378,-1177.56 93.9258,-1171.17 91.7873,-1177.84"/>
</g>
<!-- Node3 -->
<g id="node3" class="node"><title>Node3</title>
<g id="a_node3"><a xlink:href="namespacetlz.html#a91f1aec7120c97452c495ee447e56b57" target="_top" xlink:title="tlz::dataset_arg">
<polygon fill="white" stroke="black" points="96,-1133 96,-1152 180,-1152 180,-1133 96,-1133"/>
<text text-anchor="middle" x="138" y="-1140" font-family="Helvetica,sans-Serif" font-size="10.00">tlz::dataset_arg</text>
</a>
</g>
</g>
<!-- Node1&#45;&gt;Node3 -->
<g id="edge2" class="edge"><title>Node1&#45;&gt;Node3</title>
<path fill="none" stroke="midnightblue" d="M20.2872,-566.413C22.4555,-638.336 37.1819,-1078.56 74,-1123.5 77.3973,-1127.65 81.6656,-1130.91 86.3716,-1133.48"/>
<polygon fill="midnightblue" stroke="midnightblue" points="85.2811,-1136.82 95.847,-1137.6 88.0751,-1130.4 85.2811,-1136.82"/>
</g>
<!-- Node11 -->
<g id="node11" class="node"><title>Node11</title>
<g id="a_node11"><a xlink:href="namespacetlz.html#a8d3380a8873e542207e21a4384957425" target="_top" xlink:title="tlz::string_opt_arg">
<polygon fill="white" stroke="black" points="90.5,-1095 90.5,-1114 185.5,-1114 185.5,-1095 90.5,-1095"/>
<text text-anchor="middle" x="138" y="-1102" font-family="Helvetica,sans-Serif" font-size="10.00">tlz::string_opt_arg</text>
</a>
</g>
</g>
<!-- Node1&#45;&gt;Node11 -->
<g id="edge12" class="edge"><title>Node1&#45;&gt;Node11</title>
<path fill="none" stroke="midnightblue" d="M20.3603,-566.229C22.6744,-625.711 36.5564,-940.68 74,-1028.5 83.9251,-1051.78 103.36,-1073.49 118.032,-1087.69"/>
<polygon fill="midnightblue" stroke="midnightblue" points="115.909,-1090.5 125.603,-1094.78 120.691,-1085.39 115.909,-1090.5"/>
</g>
<!-- Node13 -->
<g id="node13" class="node"><title>Node13</title>
<g id="a_node13"><a xlink:href="classtlz_1_1dataset.html#ad7d438f87e20fd0a734aabff2e6d52a9" target="_top" xlink:title="tlz::dataset::group">
<polygon fill="white" stroke="black" points="90.5,-874 90.5,-893 185.5,-893 185.5,-874 90.5,-874"/>
<text text-anchor="middle" x="138" y="-881" font-family="Helvetica,sans-Serif" font-size="10.00">tlz::dataset::group</text>
</a>
</g>
</g>
<!-- Node1&#45;&gt;Node13 -->
<g id="edge17" class="edge"><title>Node1&#45;&gt;Node13</title>
<path fill="none" stroke="midnightblue" d="M20.3736,-566.307C22.3725,-613.703 33.2866,-818.613 74,-864.5 76.2367,-867.021 78.7944,-869.213 81.5696,-871.119"/>
<polygon fill="midnightblue" stroke="midnightblue" points="79.9976,-874.249 90.4435,-876.019 83.3815,-868.121 79.9976,-874.249"/>
</g>
<!-- Node16 -->
<g id="node16" class="node"><title>Node16</title>
<g id="a_node16"><a xlink:href="classtlz_1_1dataset__group.html#a782b8049db0faa9ecfd0f7b0d6f31766" target="_top" xlink:title="tlz::dataset_group\l::image_size_with_border">
<polygon fill="white" stroke="black" points="74,-824.5 74,-854.5 202,-854.5 202,-824.5 74,-824.5"/>
<text text-anchor="start" x="82" y="-842.5" font-family="Helvetica,sans-Serif" font-size="10.00">tlz::dataset_group</text>
<text text-anchor="middle" x="138" y="-831.5" font-family="Helvetica,sans-Serif" font-size="10.00">::image_size_with_border</text>
</a>
</g>
</g>
<!-- Node1&#45;&gt;Node16 -->
<g id="edge20" class="edge"><title>Node1&#45;&gt;Node16</title>
<path fill="none" stroke="midnightblue" d="M20.7794,-566.075C24.3832,-608.171 40.6907,-776.446 74,-815.5 74.7405,-816.368 75.5161,-817.205 76.3228,-818.012"/>
<polygon fill="midnightblue" stroke="midnightblue" points="74.3506,-820.918 84.3261,-824.488 78.7537,-815.477 74.3506,-820.918"/>
</g>
<!-- Node22 -->
<g id="node22" class="node"><title>Node22</title>
<g id="a_node22"><a xlink:href="classtlz_1_1viewer.html#a2bf9d63d7a1a5ec4d5bdabc13d9ab688" target="_top" xlink:title="tlz::viewer::add_int\l_slider">
<polygon fill="white" stroke="black" points="88.5,-775.5 88.5,-805.5 187.5,-805.5 187.5,-775.5 88.5,-775.5"/>
<text text-anchor="start" x="96.5" y="-793.5" font-family="Helvetica,sans-Serif" font-size="10.00">tlz::viewer::add_int</text>
<text text-anchor="middle" x="138" y="-782.5" font-family="Helvetica,sans-Serif" font-size="10.00">_slider</text>
</a>
</g>
</g>
<!-- Node1&#45;&gt;Node22 -->
<g id="edge27" class="edge"><title>Node1&#45;&gt;Node22</title>
<path fill="none" stroke="midnightblue" d="M19.6097,-566.216C18.8369,-598.731 20.6931,-705.08 74,-765.5 75.7711,-767.507 77.7249,-769.355 79.8151,-771.057"/>
<polygon fill="midnightblue" stroke="midnightblue" points="78.2135,-774.2 88.4541,-776.916 82.143,-768.406 78.2135,-774.2"/>
</g>
<!-- Node23 -->
<g id="node23" class="node"><title>Node23</title>
<g id="a_node23"><a xlink:href="classtlz_1_1dataset.html#acff1e030f5c941654ea16f8061f49346" target="_top" xlink:title="tlz::dataset::x_mid">
<polygon fill="white" stroke="black" points="89,-737 89,-756 187,-756 187,-737 89,-737"/>
<text text-anchor="middle" x="138" y="-744" font-family="Helvetica,sans-Serif" font-size="10.00">tlz::dataset::x_mid</text>
</a>
</g>
</g>
<!-- Node1&#45;&gt;Node23 -->
<g id="edge28" class="edge"><title>Node1&#45;&gt;Node23</title>
<path fill="none" stroke="midnightblue" d="M20.0855,-566.216C20.8803,-595.11 27.2502,-681.352 74,-727.5 75.8496,-729.326 77.8681,-730.977 80.0107,-732.471"/>
<polygon fill="midnightblue" stroke="midnightblue" points="78.3759,-735.567 88.7961,-737.484 81.8451,-729.488 78.3759,-735.567"/>
</g>
<!-- Node24 -->
<g id="node24" class="node"><title>Node24</title>
<g id="a_node24"><a xlink:href="classtlz_1_1dataset.html#a15180d3b04937d9f1c69041a220b943b" target="_top" xlink:title="tlz::dataset::x_min">
<polygon fill="white" stroke="black" points="89,-699 89,-718 187,-718 187,-699 89,-699"/>
<text text-anchor="middle" x="138" y="-706" font-family="Helvetica,sans-Serif" font-size="10.00">tlz::dataset::x_min</text>
</a>
</g>
</g>
<!-- Node1&#45;&gt;Node24 -->
<g id="edge29" class="edge"><title>Node1&#45;&gt;Node24</title>
<path fill="none" stroke="midnightblue" d="M21.0796,-566.135C24.3272,-590.503 36.2393,-655.089 74,-689.5 75.7495,-691.094 77.6284,-692.555 79.6044,-693.893"/>
<polygon fill="midnightblue" stroke="midnightblue" points="78.3502,-697.201 88.7893,-699.011 81.7576,-691.086 78.3502,-697.201"/>
</g>
<!-- Node25 -->
<g id="node25" class="node"><title>Node25</title>
<g id="a_node25"><a xlink:href="classtlz_1_1dataset.html#a280e3ae6c4b37e1e18fabf00b70be20a" target="_top" xlink:title="tlz::dataset::x_max">
<polygon fill="white" stroke="black" points="87.5,-661 87.5,-680 188.5,-680 188.5,-661 87.5,-661"/>
<text text-anchor="middle" x="138" y="-668" font-family="Helvetica,sans-Serif" font-size="10.00">tlz::dataset::x_max</text>
</a>
</g>
</g>
<!-- Node1&#45;&gt;Node25 -->
<g id="edge30" class="edge"><title>Node1&#45;&gt;Node25</title>
<path fill="none" stroke="midnightblue" d="M22.8111,-566.181C28.8871,-585.384 45.0819,-628.428 74,-651.5 76.2604,-653.303 78.6898,-654.936 81.2326,-656.414"/>
<polygon fill="midnightblue" stroke="midnightblue" points="79.719,-659.57 90.2342,-660.866 82.8222,-653.295 79.719,-659.57"/>
</g>
<!-- Node26 -->
<g id="node26" class="node"><title>Node26</title>
<g id="a_node26"><a xlink:href="classtlz_1_1dataset.html#a7efef5473f244709a47ff506267652b1" target="_top" xlink:title="tlz::dataset::x_step">
<polygon fill="white" stroke="black" points="87.5,-623 87.5,-642 188.5,-642 188.5,-623 87.5,-623"/>
<text text-anchor="middle" x="138" y="-630" font-family="Helvetica,sans-Serif" font-size="10.00">tlz::dataset::x_step</text>
</a>
</g>
</g>
<!-- Node1&#45;&gt;Node26 -->
<g id="edge31" class="edge"><title>Node1&#45;&gt;Node26</title>
<path fill="none" stroke="midnightblue" d="M26.542,-566.03C35.7142,-578.687 53.5802,-600.905 74,-613.5 77.4032,-615.599 81.0534,-617.479 84.8195,-619.161"/>
<polygon fill="midnightblue" stroke="midnightblue" points="83.7593,-622.506 94.345,-622.946 86.3439,-616.001 83.7593,-622.506"/>
</g>
<!-- Node27 -->
<g id="node27" class="node"><title>Node27</title>
<g id="a_node27"><a xlink:href="classtlz_1_1dataset.html#a1183ab5dd7eab8ff6478d9105dc5da19" target="_top" xlink:title="tlz::dataset::y_mid">
<polygon fill="white" stroke="black" points="89,-585 89,-604 187,-604 187,-585 89,-585"/>
<text text-anchor="middle" x="138" y="-592" font-family="Helvetica,sans-Serif" font-size="10.00">tlz::dataset::y_mid</text>
</a>
</g>
</g>
<!-- Node1&#45;&gt;Node27 -->
<g id="edge32" class="edge"><title>Node1&#45;&gt;Node27</title>
<path fill="none" stroke="midnightblue" d="M38.4237,-563.216C48.8288,-566.95 62.0962,-571.613 74,-575.5 80.5668,-577.644 87.5463,-579.836 94.3772,-581.932"/>
<polygon fill="midnightblue" stroke="midnightblue" points="93.628,-585.362 104.214,-584.92 95.6623,-578.665 93.628,-585.362"/>
</g>
<!-- Node28 -->
<g id="node28" class="node"><title>Node28</title>
<g id="a_node28"><a xlink:href="classtlz_1_1dataset.html#a3a77e1219653f07bef6ec7b08cbf7dcf" target="_top" xlink:title="tlz::dataset::y_min">
<polygon fill="white" stroke="black" points="89,-547 89,-566 187,-566 187,-547 89,-547"/>
<text text-anchor="middle" x="138" y="-554" font-family="Helvetica,sans-Serif" font-size="10.00">tlz::dataset::y_min</text>
</a>
</g>
</g>
<!-- Node1&#45;&gt;Node28 -->
<g id="edge33" class="edge"><title>Node1&#45;&gt;Node28</title>
<path fill="none" stroke="midnightblue" d="M38.0248,-556.5C49.0661,-556.5 63.8805,-556.5 78.6796,-556.5"/>
<polygon fill="midnightblue" stroke="midnightblue" points="78.8761,-560 88.8761,-556.5 78.876,-553 78.8761,-560"/>
</g>
<!-- Node29 -->
<g id="node29" class="node"><title>Node29</title>
<g id="a_node29"><a xlink:href="classtlz_1_1dataset.html#a6900b6a88a2ac1e23d1a51da20f650e4" target="_top" xlink:title="tlz::dataset::y_max">
<polygon fill="white" stroke="black" points="87.5,-509 87.5,-528 188.5,-528 188.5,-509 87.5,-509"/>
<text text-anchor="middle" x="138" y="-516" font-family="Helvetica,sans-Serif" font-size="10.00">tlz::dataset::y_max</text>
</a>
</g>
</g>
<!-- Node1&#45;&gt;Node29 -->
<g id="edge34" class="edge"><title>Node1&#45;&gt;Node29</title>
<path fill="none" stroke="midnightblue" d="M38.4237,-549.784C48.8288,-546.05 62.0962,-541.387 74,-537.5 80.5668,-535.356 87.5463,-533.164 94.3772,-531.068"/>
<polygon fill="midnightblue" stroke="midnightblue" points="95.6623,-534.335 104.214,-528.08 93.628,-527.638 95.6623,-534.335"/>
</g>
<!-- Node30 -->
<g id="node30" class="node"><title>Node30</title>
<g id="a_node30"><a xlink:href="classtlz_1_1dataset.html#a95703f1285ba42a810d46644128daf9a" target="_top" xlink:title="tlz::dataset::y_step">
<polygon fill="white" stroke="black" points="87.5,-471 87.5,-490 188.5,-490 188.5,-471 87.5,-471"/>
<text text-anchor="middle" x="138" y="-478" font-family="Helvetica,sans-Serif" font-size="10.00">tlz::dataset::y_step</text>
</a>
</g>
</g>
<!-- Node1&#45;&gt;Node30 -->
<g id="edge35" class="edge"><title>Node1&#45;&gt;Node30</title>
<path fill="none" stroke="midnightblue" d="M26.542,-546.97C35.7142,-534.313 53.5802,-512.095 74,-499.5 77.4032,-497.401 81.0534,-495.521 84.8195,-493.839"/>
<polygon fill="midnightblue" stroke="midnightblue" points="86.3439,-496.999 94.345,-490.054 83.7593,-490.494 86.3439,-496.999"/>
</g>
<!-- Node31 -->
<g id="node31" class="node"><title>Node31</title>
<g id="a_node31"><a xlink:href="classtlz_1_1viewer.html#a4be73d43a59e54ac622a45ecb042e351" target="_top" xlink:title="tlz::viewer::add_real\l_slider">
<polygon fill="white" stroke="black" points="86,-421.5 86,-451.5 190,-451.5 190,-421.5 86,-421.5"/>
<text text-anchor="start" x="94" y="-439.5" font-family="Helvetica,sans-Serif" font-size="10.00">tlz::viewer::add_real</text>
<text text-anchor="middle" x="138" y="-428.5" font-family="Helvetica,sans-Serif" font-size="10.00">_slider</text>
</a>
</g>
</g>
<!-- Node1&#45;&gt;Node31 -->
<g id="edge36" class="edge"><title>Node1&#45;&gt;Node31</title>
<path fill="none" stroke="midnightblue" d="M23.0813,-546.732C29.5376,-527.756 46.2296,-485.653 74,-461.5 75.9422,-459.811 78.0126,-458.228 80.1749,-456.745"/>
<polygon fill="midnightblue" stroke="midnightblue" points="82.122,-459.658 88.8949,-451.511 78.5195,-453.656 82.122,-459.658"/>
</g>
<!-- Node32 -->
<g id="node32" class="node"><title>Node32</title>
<g id="a_node32"><a xlink:href="classtlz_1_1dataset.html#acef78cfe5bb77142cbd71e420f36e48b" target="_top" xlink:title="tlz::dataset::valid">
<polygon fill="white" stroke="black" points="92,-383 92,-402 184,-402 184,-383 92,-383"/>
<text text-anchor="middle" x="138" y="-390" font-family="Helvetica,sans-Serif" font-size="10.00">tlz::dataset::valid</text>
</a>
</g>
</g>
<!-- Node1&#45;&gt;Node32 -->
<g id="edge37" class="edge"><title>Node1&#45;&gt;Node32</title>
<path fill="none" stroke="midnightblue" d="M20.721,-546.779C23.1708,-520.87 33.4508,-449.549 74,-411.5 76.6203,-409.041 79.5477,-406.9 82.6672,-405.035"/>
<polygon fill="midnightblue" stroke="midnightblue" points="84.4632,-408.051 91.8719,-400.478 81.3572,-401.778 84.4632,-408.051"/>
</g>
<!-- Node33 -->
<g id="node33" class="node"><title>Node33</title>
<g id="a_node33"><a xlink:href="classtlz_1_1dataset__group.html#aa0c9157fd56b01adebcecdcdd98f9e3f" target="_top" xlink:title="tlz::dataset_group\l::view">
<polygon fill="white" stroke="black" points="90.5,-912.5 90.5,-942.5 185.5,-942.5 185.5,-912.5 90.5,-912.5"/>
<text text-anchor="start" x="98.5" y="-930.5" font-family="Helvetica,sans-Serif" font-size="10.00">tlz::dataset_group</text>
<text text-anchor="middle" x="138" y="-919.5" font-family="Helvetica,sans-Serif" font-size="10.00">::view</text>
</a>
</g>
</g>
<!-- Node1&#45;&gt;Node33 -->
<g id="edge38" class="edge"><title>Node1&#45;&gt;Node33</title>
<path fill="none" stroke="midnightblue" d="M20.2444,-566.068C21.7051,-616.202 30.7477,-848.344 74,-902.5 76.234,-905.297 78.8267,-907.783 81.6614,-909.991"/>
<polygon fill="midnightblue" stroke="midnightblue" points="79.8958,-913.017 90.1935,-915.509 83.6974,-907.139 79.8958,-913.017"/>
</g>
<!-- Node36 -->
<g id="node36" class="node"><title>Node36</title>
<g id="a_node36"><a xlink:href="classtlz_1_1dataset__view.html#af3c734eaed33af07993255db63d3fc54" target="_top" xlink:title="tlz::dataset_view::\limage_filename">
<polygon fill="white" stroke="black" points="89.5,-284.5 89.5,-314.5 186.5,-314.5 186.5,-284.5 89.5,-284.5"/>
<text text-anchor="start" x="97.5" y="-302.5" font-family="Helvetica,sans-Serif" font-size="10.00">tlz::dataset_view::</text>
<text text-anchor="middle" x="138" y="-291.5" font-family="Helvetica,sans-Serif" font-size="10.00">image_filename</text>
</a>
</g>
</g>
<!-- Node1&#45;&gt;Node36 -->
<g id="edge42" class="edge"><title>Node1&#45;&gt;Node36</title>
<path fill="none" stroke="midnightblue" d="M21.0308,-546.834C25.4263,-507.272 43.7709,-358.156 74,-323.5 75.9835,-321.226 78.2065,-319.167 80.6005,-317.302"/>
<polygon fill="midnightblue" stroke="midnightblue" points="82.8002,-320.048 89.3001,-311.681 79.0013,-314.168 82.8002,-320.048"/>
</g>
<!-- Node38 -->
<g id="node38" class="node"><title>Node38</title>
<g id="a_node38"><a xlink:href="classtlz_1_1dataset__view.html#a63238745feff55e3d0bea101589895c1" target="_top" xlink:title="tlz::dataset_view::\ldepth_filename">
<polygon fill="white" stroke="black" points="89.5,-333.5 89.5,-363.5 186.5,-363.5 186.5,-333.5 89.5,-333.5"/>
<text text-anchor="start" x="97.5" y="-351.5" font-family="Helvetica,sans-Serif" font-size="10.00">tlz::dataset_view::</text>
<text text-anchor="middle" x="138" y="-340.5" font-family="Helvetica,sans-Serif" font-size="10.00">depth_filename</text>
</a>
</g>
</g>
<!-- Node1&#45;&gt;Node38 -->
<g id="edge44" class="edge"><title>Node1&#45;&gt;Node38</title>
<path fill="none" stroke="midnightblue" d="M20.0409,-546.736C20.6903,-516.827 26.6487,-425.36 74,-373.5 76.0084,-371.3 78.2355,-369.291 80.6185,-367.457"/>
<polygon fill="midnightblue" stroke="midnightblue" points="82.7474,-370.248 89.2298,-361.867 78.9363,-364.376 82.7474,-370.248"/>
</g>
<!-- Node39 -->
<g id="node39" class="node"><title>Node39</title>
<g id="a_node39"><a xlink:href="classtlz_1_1viewer.html#a0ad9ee28b8127c63b2886b04fb36e3dc" target="_top" xlink:title="tlz::viewer::clear">
<polygon fill="white" stroke="black" points="93.5,-208 93.5,-227 182.5,-227 182.5,-208 93.5,-208"/>
<text text-anchor="middle" x="138" y="-215" font-family="Helvetica,sans-Serif" font-size="10.00">tlz::viewer::clear</text>
</a>
</g>
</g>
<!-- Node1&#45;&gt;Node39 -->
<g id="edge46" class="edge"><title>Node1&#45;&gt;Node39</title>
<path fill="none" stroke="midnightblue" d="M20.2939,-546.958C21.9607,-498.974 31.7128,-284.469 74,-236.5 76.8896,-233.222 80.3222,-230.5 84.071,-228.24"/>
<polygon fill="midnightblue" stroke="midnightblue" points="85.8205,-231.281 93.2852,-223.762 82.7611,-224.985 85.8205,-231.281"/>
</g>
<!-- Node42 -->
<g id="node42" class="node"><title>Node42</title>
<g id="a_node42"><a xlink:href="classtlz_1_1viewer.html#ad4fda702b7c5af2cb0bb9bc3842113f3" target="_top" xlink:title="tlz::viewer::draw_text">
<polygon fill="white" stroke="black" points="83,-170 83,-189 193,-189 193,-170 83,-170"/>
<text text-anchor="middle" x="138" y="-177" font-family="Helvetica,sans-Serif" font-size="10.00">tlz::viewer::draw_text</text>
</a>
</g>
</g>
<!-- Node1&#45;&gt;Node42 -->
<g id="edge49" class="edge"><title>Node1&#45;&gt;Node42</title>
<path fill="none" stroke="midnightblue" d="M20.1079,-546.873C20.8772,-495.379 26.9836,-252.782 74,-198.5 75.157,-197.164 76.4042,-195.921 77.7264,-194.763"/>
<polygon fill="midnightblue" stroke="midnightblue" points="79.7844,-197.595 86.015,-189.026 75.8005,-191.839 79.7844,-197.595"/>
</g>
<!-- Node43 -->
<g id="node43" class="node"><title>Node43</title>
<g id="a_node43"><a xlink:href="namespacetlz.html#aadab29bdc80bc1d0ad6d3784dd427992" target="_top" xlink:title="tlz::encode_view_index">
<polygon fill="white" stroke="black" points="78.5,-1000 78.5,-1019 197.5,-1019 197.5,-1000 78.5,-1000"/>
<text text-anchor="middle" x="138" y="-1007" font-family="Helvetica,sans-Serif" font-size="10.00">tlz::encode_view_index</text>
</a>
</g>
</g>
<!-- Node1&#45;&gt;Node43 -->
<g id="edge50" class="edge"><title>Node1&#45;&gt;Node43</title>
<path fill="none" stroke="midnightblue" d="M20.4218,-566.088C22.9096,-619.661 36.849,-882.078 74,-952.5 82.92,-969.408 98.9564,-983.806 112.617,-993.902"/>
<polygon fill="midnightblue" stroke="midnightblue" points="110.957,-997.013 121.152,-999.898 114.981,-991.286 110.957,-997.013"/>
</g>
<!-- Node45 -->
<g id="node45" class="node"><title>Node45</title>
<g id="a_node45"><a xlink:href="namespacetlz.html#a55912f12ae3521ac51a3d4ab3d75183a" target="_top" xlink:title="tlz::load_depth">
<polygon fill="white" stroke="black" points="98,-132 98,-151 178,-151 178,-132 98,-132"/>
<text text-anchor="middle" x="138" y="-139" font-family="Helvetica,sans-Serif" font-size="10.00">tlz::load_depth</text>
</a>
</g>
</g>
<!-- Node1&#45;&gt;Node45 -->
<g id="edge53" class="edge"><title>Node1&#45;&gt;Node45</title>
<path fill="none" stroke="midnightblue" d="M19.9545,-546.953C19.8872,-492.474 22.1871,-221.184 74,-160.5 77.8968,-155.936 82.8471,-152.445 88.2544,-149.779"/>
<polygon fill="midnightblue" stroke="midnightblue" points="89.6841,-152.977 97.6808,-146.027 87.0954,-146.473 89.6841,-152.977"/>
</g>
<!-- Node46 -->
<g id="node46" class="node"><title>Node46</title>
<g id="a_node46"><a xlink:href="classtlz_1_1viewer.html#a6a59617413dc76948b6802399ddf555b" target="_top" xlink:title="tlz::viewer::visualize\l_depth">
<polygon fill="white" stroke="black" points="85,-82.5 85,-112.5 191,-112.5 191,-82.5 85,-82.5"/>
<text text-anchor="start" x="93" y="-100.5" font-family="Helvetica,sans-Serif" font-size="10.00">tlz::viewer::visualize</text>
<text text-anchor="middle" x="138" y="-89.5" font-family="Helvetica,sans-Serif" font-size="10.00">_depth</text>
</a>
</g>
</g>
<!-- Node1&#45;&gt;Node46 -->
<g id="edge54" class="edge"><title>Node1&#45;&gt;Node46</title>
<path fill="none" stroke="midnightblue" d="M19.9092,-546.876C19.5518,-489.421 20.3417,-191.865 74,-122.5 74.945,-121.278 75.9587,-120.116 77.0315,-119.011"/>
<polygon fill="midnightblue" stroke="midnightblue" points="79.4092,-121.586 84.8701,-112.507 74.9393,-116.199 79.4092,-121.586"/>
</g>
<!-- Node47 -->
<g id="node47" class="node"><title>Node47</title>
<g id="a_node47"><a xlink:href="classtlz_1_1viewer.html#a5f0412cff89a343ad52431689502389d" target="_top" xlink:title="tlz::viewer::draw">
<polygon fill="white" stroke="black" points="93.5,-246 93.5,-265 182.5,-265 182.5,-246 93.5,-246"/>
<text text-anchor="middle" x="138" y="-253" font-family="Helvetica,sans-Serif" font-size="10.00">tlz::viewer::draw</text>
</a>
</g>
</g>
<!-- Node1&#45;&gt;Node47 -->
<g id="edge55" class="edge"><title>Node1&#45;&gt;Node47</title>
<path fill="none" stroke="midnightblue" d="M20.5321,-546.928C23.1933,-502.427 36.455,-316.156 74,-274.5 76.9255,-271.254 80.3833,-268.554 84.1489,-266.309"/>
<polygon fill="midnightblue" stroke="midnightblue" points="85.9009,-269.35 93.3885,-261.854 82.8607,-263.045 85.9009,-269.35"/>
</g>
<!-- Node48 -->
<g id="node48" class="node"><title>Node48</title>
<g id="a_node48"><a xlink:href="namespacetlz.html#afbf92393383d3dde6ffd98700ea014f1" target="_top" xlink:title="tlz::load_texture">
<polygon fill="white" stroke="black" points="95,-44 95,-63 181,-63 181,-44 95,-44"/>
<text text-anchor="middle" x="138" y="-51" font-family="Helvetica,sans-Serif" font-size="10.00">tlz::load_texture</text>
</a>
</g>
</g>
<!-- Node1&#45;&gt;Node48 -->
<g id="edge58" class="edge"><title>Node1&#45;&gt;Node48</title>
<path fill="none" stroke="midnightblue" d="M20.4461,-546.82C23.5226,-481.827 42.4125,-110.424 74,-72.5 77.2124,-68.6432 81.178,-65.5506 85.5435,-63.0734"/>
<polygon fill="midnightblue" stroke="midnightblue" points="87.2916,-66.1238 94.9528,-58.8056 84.4001,-59.7489 87.2916,-66.1238"/>
</g>
<!-- Node49 -->
<g id="node49" class="node"><title>Node49</title>
<g id="a_node49"><a xlink:href="classtlz_1_1viewer.html#a4ccb30b02c81909ba1af97745375385a" target="_top" xlink:title="tlz::viewer::show_modal">
<polygon fill="white" stroke="black" points="77,-6 77,-25 199,-25 199,-6 77,-6"/>
<text text-anchor="middle" x="138" y="-13" font-family="Helvetica,sans-Serif" font-size="10.00">tlz::viewer::show_modal</text>
</a>
</g>
</g>
<!-- Node1&#45;&gt;Node49 -->
<g id="edge59" class="edge"><title>Node1&#45;&gt;Node49</title>
<path fill="none" stroke="midnightblue" d="M20.3588,-546.944C22.9753,-479.419 39.9811,-75.6777 74,-34.5 75.0005,-33.289 76.0752,-32.1533 77.2134,-31.0882"/>
<polygon fill="midnightblue" stroke="midnightblue" points="79.5036,-33.7503 85.5302,-25.0364 75.385,-28.0902 79.5036,-33.7503"/>
</g>
<!-- Node4 -->
<g id="node4" class="node"><title>Node4</title>
<g id="a_node4"><a xlink:href="namespacetlz.html#a634de7ca11e100e4a118dffe80376a75" target="_top" xlink:title="tlz::in_filename_arg">
<polygon fill="white" stroke="black" points="248,-1202 248,-1221 349,-1221 349,-1202 248,-1202"/>
<text text-anchor="middle" x="298.5" y="-1209" font-family="Helvetica,sans-Serif" font-size="10.00">tlz::in_filename_arg</text>
</a>
</g>
</g>
<!-- Node3&#45;&gt;Node4 -->
<g id="edge3" class="edge"><title>Node3&#45;&gt;Node4</title>
<path fill="none" stroke="midnightblue" d="M179.675,-1152.03C187.328,-1154.58 195.09,-1157.71 202,-1161.5 220.51,-1171.66 219.572,-1182.19 238,-1192.5 241.885,-1194.67 246.053,-1196.64 250.315,-1198.4"/>
<polygon fill="midnightblue" stroke="midnightblue" points="249.127,-1201.7 259.719,-1201.96 251.604,-1195.15 249.127,-1201.7"/>
</g>
<!-- Node5 -->
<g id="node5" class="node"><title>Node5</title>
<g id="a_node5"><a xlink:href="namespacetlz.html#a0621d598fb83b13bf028f3e6293d04f8" target="_top" xlink:title="tlz::string_arg">
<polygon fill="white" stroke="black" points="405.5,-1114 405.5,-1133 481.5,-1133 481.5,-1114 405.5,-1114"/>
<text text-anchor="middle" x="443.5" y="-1121" font-family="Helvetica,sans-Serif" font-size="10.00">tlz::string_arg</text>
</a>
</g>
</g>
<!-- Node4&#45;&gt;Node5 -->
<g id="edge4" class="edge"><title>Node4&#45;&gt;Node5</title>
<path fill="none" stroke="midnightblue" d="M340.366,-1201.99C346.91,-1199.49 353.372,-1196.37 359,-1192.5 380.102,-1177.98 375.116,-1163.64 395,-1147.5 399.393,-1143.93 404.404,-1140.7 409.484,-1137.84"/>
<polygon fill="midnightblue" stroke="midnightblue" points="411.322,-1140.83 418.586,-1133.12 408.098,-1134.62 411.322,-1140.83"/>
</g>
<!-- Node6 -->
<g id="node6" class="node"><title>Node6</title>
<g id="a_node6"><a xlink:href="namespacetlz.html#a780431daab8d2595372eacb43143b52d" target="_top" xlink:title="tlz::args">
<polygon fill="white" stroke="black" points="558.5,-1133 558.5,-1152 610.5,-1152 610.5,-1133 558.5,-1133"/>
<text text-anchor="middle" x="584.5" y="-1140" font-family="Helvetica,sans-Serif" font-size="10.00">tlz::args</text>
</a>
</g>
</g>
<!-- Node4&#45;&gt;Node6 -->
<g id="edge10" class="edge"><title>Node4&#45;&gt;Node6</title>
<path fill="none" stroke="midnightblue" d="M329.793,-1201.91C339.164,-1198.92 349.516,-1195.59 359,-1192.5 375.033,-1187.27 378.703,-1184.84 395,-1180.5 447.781,-1166.44 510.094,-1154.83 548.194,-1148.28"/>
<polygon fill="midnightblue" stroke="midnightblue" points="548.997,-1151.7 558.27,-1146.57 547.826,-1144.79 548.997,-1151.7"/>
</g>
<!-- Node8 -->
<g id="node8" class="node"><title>Node8</title>
<g id="a_node8"><a xlink:href="classtlz_1_1args__list.html#a38ad21acd64a4af98ffdf4a47837cdbe" target="_top" xlink:title="tlz::args_list::usage_fail">
<polygon fill="white" stroke="black" points="677,-1118 677,-1137 797,-1137 797,-1118 677,-1118"/>
<text text-anchor="middle" x="737" y="-1125" font-family="Helvetica,sans-Serif" font-size="10.00">tlz::args_list::usage_fail</text>
</a>
</g>
</g>
<!-- Node4&#45;&gt;Node8 -->
<g id="edge11" class="edge"><title>Node4&#45;&gt;Node8</title>
<path fill="none" stroke="midnightblue" d="M349.028,-1215.82C363.806,-1216.93 380.048,-1217.95 395,-1218.5 438.082,-1220.08 449.574,-1226.15 492,-1218.5 573.867,-1203.73 664.1,-1163.18 708.381,-1141.54"/>
<polygon fill="midnightblue" stroke="midnightblue" points="709.951,-1144.67 717.365,-1137.1 706.849,-1138.39 709.951,-1144.67"/>
</g>
<!-- Node10 -->
<g id="node10" class="node"><title>Node10</title>
<g id="a_node10"><a xlink:href="namespacetlz.html#abb019466ea9f56c0dab27e893d891837" target="_top" xlink:title="tlz::file_exists">
<polygon fill="white" stroke="black" points="405,-1190 405,-1209 482,-1209 482,-1190 405,-1190"/>
<text text-anchor="middle" x="443.5" y="-1197" font-family="Helvetica,sans-Serif" font-size="10.00">tlz::file_exists</text>
</a>
</g>
</g>
<!-- Node4&#45;&gt;Node10 -->
<g id="edge9" class="edge"><title>Node4&#45;&gt;Node10</title>
<path fill="none" stroke="midnightblue" d="M349.113,-1207.34C363.783,-1206.11 379.814,-1204.76 394.388,-1203.54"/>
<polygon fill="midnightblue" stroke="midnightblue" points="395.03,-1207 404.702,-1202.67 394.444,-1200.02 395.03,-1207"/>
</g>
<!-- Node5&#45;&gt;Node6 -->
<g id="edge5" class="edge"><title>Node5&#45;&gt;Node6</title>
<path fill="none" stroke="midnightblue" d="M481.749,-1128.59C502.43,-1131.42 528.007,-1134.91 548.343,-1137.69"/>
<polygon fill="midnightblue" stroke="midnightblue" points="548.064,-1141.19 558.446,-1139.08 549.013,-1134.25 548.064,-1141.19"/>
</g>
<!-- Node7 -->
<g id="node7" class="node"><title>Node7</title>
<g id="a_node7"><a xlink:href="classtlz_1_1args__list.html#a73d99bc75998dc14607a3a372d28dc6d" target="_top" xlink:title="tlz::args_list::next_arg">
<polygon fill="white" stroke="black" points="528,-1095 528,-1114 641,-1114 641,-1095 528,-1095"/>
<text text-anchor="middle" x="584.5" y="-1102" font-family="Helvetica,sans-Serif" font-size="10.00">tlz::args_list::next_arg</text>
</a>
</g>
</g>
<!-- Node5&#45;&gt;Node7 -->
<g id="edge6" class="edge"><title>Node5&#45;&gt;Node7</title>
<path fill="none" stroke="midnightblue" d="M481.749,-1118.41C492.807,-1116.9 505.264,-1115.19 517.571,-1113.51"/>
<polygon fill="midnightblue" stroke="midnightblue" points="518.405,-1116.93 527.839,-1112.11 517.457,-1109.99 518.405,-1116.93"/>
</g>
<!-- Node7&#45;&gt;Node8 -->
<g id="edge7" class="edge"><title>Node7&#45;&gt;Node8</title>
<path fill="none" stroke="midnightblue" d="M641.113,-1113C649.479,-1114.28 658.192,-1115.61 666.8,-1116.92"/>
<polygon fill="midnightblue" stroke="midnightblue" points="666.414,-1120.41 676.828,-1118.46 667.472,-1113.49 666.414,-1120.41"/>
</g>
<!-- Node9 -->
<g id="node9" class="node"><title>Node9</title>
<g id="a_node9"><a xlink:href="namespacetlz.html#a8e4f8c8c2927bc4350de13bfa0f8f9e1" target="_top" xlink:title="tlz::to_string">
<polygon fill="white" stroke="black" points="701.5,-1071 701.5,-1090 772.5,-1090 772.5,-1071 701.5,-1071"/>
<text text-anchor="middle" x="737" y="-1078" font-family="Helvetica,sans-Serif" font-size="10.00">tlz::to_string</text>
</a>
</g>
</g>
<!-- Node7&#45;&gt;Node9 -->
<g id="edge8" class="edge"><title>Node7&#45;&gt;Node9</title>
<path fill="none" stroke="midnightblue" d="M641.113,-1095.63C657.598,-1093 675.435,-1090.16 691.147,-1087.65"/>
<polygon fill="midnightblue" stroke="midnightblue" points="691.805,-1091.09 701.13,-1086.06 690.703,-1084.18 691.805,-1091.09"/>
</g>
<!-- Node11&#45;&gt;Node4 -->
<g id="edge16" class="edge"><title>Node11&#45;&gt;Node4</title>
<path fill="none" stroke="midnightblue" d="M185.574,-1113.84C191.491,-1116.33 197.16,-1119.49 202,-1123.5 228.646,-1145.56 211.533,-1170.23 238,-1192.5 240.033,-1194.21 242.222,-1195.77 244.518,-1197.19"/>
<polygon fill="midnightblue" stroke="midnightblue" points="243.314,-1200.5 253.804,-1201.99 246.53,-1194.29 243.314,-1200.5"/>
</g>
<!-- Node11&#45;&gt;Node5 -->
<g id="edge15" class="edge"><title>Node11&#45;&gt;Node5</title>
<path fill="none" stroke="midnightblue" d="M185.757,-1107.43C242.579,-1110.98 337.924,-1116.95 395.055,-1120.53"/>
<polygon fill="midnightblue" stroke="midnightblue" points="395.061,-1124.04 405.26,-1121.17 395.498,-1117.05 395.061,-1124.04"/>
</g>
<!-- Node11&#45;&gt;Node6 -->
<g id="edge13" class="edge"><title>Node11&#45;&gt;Node6</title>
<path fill="none" stroke="midnightblue" d="M185.551,-1097.49C253.905,-1088.75 384.923,-1077.98 492,-1104.5 509.561,-1108.85 511.391,-1116.33 528,-1123.5 534.533,-1126.32 541.634,-1129.02 548.507,-1131.45"/>
<polygon fill="midnightblue" stroke="midnightblue" points="547.726,-1134.88 558.321,-1134.8 549.989,-1128.26 547.726,-1134.88"/>
</g>
<!-- Node12 -->
<g id="node12" class="node"><title>Node12</title>
<g id="a_node12"><a xlink:href="classtlz_1_1args__list.html#a4aee93f4b0d9b5b4e7a5d13cb637337c" target="_top" xlink:title="tlz::args_list::has\l_next_arg">
<polygon fill="white" stroke="black" points="252.5,-1152.5 252.5,-1182.5 344.5,-1182.5 344.5,-1152.5 252.5,-1152.5"/>
<text text-anchor="start" x="260.5" y="-1170.5" font-family="Helvetica,sans-Serif" font-size="10.00">tlz::args_list::has</text>
<text text-anchor="middle" x="298.5" y="-1159.5" font-family="Helvetica,sans-Serif" font-size="10.00">_next_arg</text>
</a>
</g>
</g>
<!-- Node11&#45;&gt;Node12 -->
<g id="edge14" class="edge"><title>Node11&#45;&gt;Node12</title>
<path fill="none" stroke="midnightblue" d="M173.951,-1114.1C183.159,-1116.88 193.027,-1120.1 202,-1123.5 220.867,-1130.65 241.245,-1139.83 258.312,-1147.95"/>
<polygon fill="midnightblue" stroke="midnightblue" points="256.894,-1151.15 267.423,-1152.34 259.929,-1144.85 256.894,-1151.15"/>
</g>
<!-- Node14 -->
<g id="node14" class="node"><title>Node14</title>
<g id="a_node14"><a xlink:href="classtlz_1_1dataset__group.html#acad4f6300bfc455279aaeb975d5e61de" target="_top" xlink:title="tlz::dataset_group\l::dataset_group">
<polygon fill="white" stroke="black" points="251,-824.5 251,-854.5 346,-854.5 346,-824.5 251,-824.5"/>
<text text-anchor="start" x="259" y="-842.5" font-family="Helvetica,sans-Serif" font-size="10.00">tlz::dataset_group</text>
<text text-anchor="middle" x="298.5" y="-831.5" font-family="Helvetica,sans-Serif" font-size="10.00">::dataset_group</text>
</a>
</g>
</g>
<!-- Node13&#45;&gt;Node14 -->
<g id="edge18" class="edge"><title>Node13&#45;&gt;Node14</title>
<path fill="none" stroke="midnightblue" d="M173.392,-873.953C193.14,-868.47 218.43,-861.45 241.022,-855.179"/>
<polygon fill="midnightblue" stroke="midnightblue" points="242.148,-858.498 250.847,-852.451 240.275,-851.753 242.148,-858.498"/>
</g>
<!-- Node15 -->
<g id="node15" class="node"><title>Node15</title>
<g id="a_node15"><a xlink:href="namespacetlz.html#a252af14b9b4ac6502d3e9c5dd8dc90b8" target="_top" xlink:title="tlz::has">
<polygon fill="white" stroke="black" points="419,-874 419,-893 468,-893 468,-874 419,-874"/>
<text text-anchor="middle" x="443.5" y="-881" font-family="Helvetica,sans-Serif" font-size="10.00">tlz::has</text>
</a>
</g>
</g>
<!-- Node13&#45;&gt;Node15 -->
<g id="edge19" class="edge"><title>Node13&#45;&gt;Node15</title>
<path fill="none" stroke="midnightblue" d="M185.757,-883.5C247.331,-883.5 354.142,-883.5 408.543,-883.5"/>
<polygon fill="midnightblue" stroke="midnightblue" points="408.696,-887 418.696,-883.5 408.696,-880 408.696,-887"/>
</g>
<!-- Node17 -->
<g id="node17" class="node"><title>Node17</title>
<g id="a_node17"><a xlink:href="namespacetlz.html#a0b91e1131356fee9a4c7a72c3b398186" target="_top" xlink:title="tlz::add_border">
<polygon fill="white" stroke="black" points="258,-698 258,-717 339,-717 339,-698 258,-698"/>
<text text-anchor="middle" x="298.5" y="-705" font-family="Helvetica,sans-Serif" font-size="10.00">tlz::add_border</text>
</a>
</g>
</g>
<!-- Node16&#45;&gt;Node17 -->
<g id="edge21" class="edge"><title>Node16&#45;&gt;Node17</title>
<path fill="none" stroke="midnightblue" d="M190.094,-824.424C194.423,-821.886 198.482,-818.933 202,-815.5 232.242,-785.985 207.178,-756.408 238,-727.5 241.13,-724.565 244.704,-722.059 248.513,-719.92"/>
<polygon fill="midnightblue" stroke="midnightblue" points="250.179,-723.004 257.725,-715.567 247.188,-716.675 250.179,-723.004"/>
</g>
<!-- Node18 -->
<g id="node18" class="node"><title>Node18</title>
<g id="a_node18"><a xlink:href="classtlz_1_1dataset__group.html#a1b2ebd9009b660773532e42691dc301e" target="_top" xlink:title="tlz::dataset_group\l::image_border">
<polygon fill="white" stroke="black" points="251,-736.5 251,-766.5 346,-766.5 346,-736.5 251,-736.5"/>
<text text-anchor="start" x="259" y="-754.5" font-family="Helvetica,sans-Serif" font-size="10.00">tlz::dataset_group</text>
<text text-anchor="middle" x="298.5" y="-743.5" font-family="Helvetica,sans-Serif" font-size="10.00">::image_border</text>
</a>
</g>
</g>
<!-- Node16&#45;&gt;Node18 -->
<g id="edge22" class="edge"><title>Node16&#45;&gt;Node18</title>
<path fill="none" stroke="midnightblue" d="M185.983,-824.411C191.581,-821.808 197.056,-818.844 202,-815.5 221.54,-802.284 218.687,-790.044 238,-776.5 240.66,-774.634 243.482,-772.871 246.393,-771.21"/>
<polygon fill="midnightblue" stroke="midnightblue" points="248.089,-774.272 255.327,-766.535 244.844,-768.07 248.089,-774.272"/>
</g>
<!-- Node21 -->
<g id="node21" class="node"><title>Node21</title>
<g id="a_node21"><a xlink:href="classtlz_1_1dataset.html#a7aecc40555a69a401c3d3b9c53025fcd" target="_top" xlink:title="tlz::dataset::image_size">
<polygon fill="white" stroke="black" points="238,-786 238,-805 359,-805 359,-786 238,-786"/>
<text text-anchor="middle" x="298.5" y="-793" font-family="Helvetica,sans-Serif" font-size="10.00">tlz::dataset::image_size</text>
</a>
</g>
</g>
<!-- Node16&#45;&gt;Node21 -->
<g id="edge26" class="edge"><title>Node16&#45;&gt;Node21</title>
<path fill="none" stroke="midnightblue" d="M193.103,-824.481C212.716,-819.036 234.621,-812.955 253.282,-807.775"/>
<polygon fill="midnightblue" stroke="midnightblue" points="254.297,-811.126 262.996,-805.078 252.425,-804.381 254.297,-811.126"/>
</g>
<!-- Node18&#45;&gt;Node15 -->
<g id="edge23" class="edge"><title>Node18&#45;&gt;Node15</title>
<path fill="none" stroke="midnightblue" d="M342.888,-766.61C348.567,-769.467 354.105,-772.756 359,-776.5 391.426,-801.302 418.206,-841.54 432.131,-864.962"/>
<polygon fill="midnightblue" stroke="midnightblue" points="429.252,-866.975 437.29,-873.876 435.31,-863.468 429.252,-866.975"/>
</g>
<!-- Node19 -->
<g id="node19" class="node"><title>Node19</title>
<g id="a_node19"><a xlink:href="classtlz_1_1dataset__group.html#ac89fe02ba32a12258eadf8d91ef1fa37" target="_top" xlink:title="tlz::dataset_group\l::parameters">
<polygon fill="white" stroke="red" points="396,-714.5 396,-744.5 491,-744.5 491,-714.5 396,-714.5"/>
<text text-anchor="start" x="404" y="-732.5" font-family="Helvetica,sans-Serif" font-size="10.00">tlz::dataset_group</text>
<text text-anchor="middle" x="443.5" y="-721.5" font-family="Helvetica,sans-Serif" font-size="10.00">::parameters</text>
</a>
</g>
</g>
<!-- Node18&#45;&gt;Node19 -->
<g id="edge24" class="edge"><title>Node18&#45;&gt;Node19</title>
<path fill="none" stroke="midnightblue" d="M346.324,-744.296C358.792,-742.378 372.403,-740.284 385.357,-738.291"/>
<polygon fill="midnightblue" stroke="midnightblue" points="386.22,-741.7 395.571,-736.72 385.155,-734.781 386.22,-741.7"/>
</g>
<!-- Node20 -->
<g id="node20" class="node"><title>Node20</title>
<g id="a_node20"><a xlink:href="namespacetlz.html#a9517e892e5486b965a722d5589dc58c4" target="_top" xlink:title="tlz::decode_border">
<polygon fill="white" stroke="red" points="395,-764 395,-783 492,-783 492,-764 395,-764"/>
<text text-anchor="middle" x="443.5" y="-771" font-family="Helvetica,sans-Serif" font-size="10.00">tlz::decode_border</text>
</a>
</g>
</g>
<!-- Node18&#45;&gt;Node20 -->
<g id="edge25" class="edge"><title>Node18&#45;&gt;Node20</title>
<path fill="none" stroke="midnightblue" d="M346.324,-758.704C358.535,-760.582 371.842,-762.63 384.555,-764.585"/>
<polygon fill="midnightblue" stroke="midnightblue" points="384.175,-768.068 394.591,-766.129 385.24,-761.149 384.175,-768.068"/>
</g>
<!-- Node34 -->
<g id="node34" class="node"><title>Node34</title>
<g id="a_node34"><a xlink:href="classtlz_1_1dataset.html#acbdb309b8dd22f687fff41f6e9ac6ed4" target="_top" xlink:title="tlz::dataset::view">
<polygon fill="white" stroke="black" points="252.5,-962 252.5,-981 344.5,-981 344.5,-962 252.5,-962"/>
<text text-anchor="middle" x="298.5" y="-969" font-family="Helvetica,sans-Serif" font-size="10.00">tlz::dataset::view</text>
</a>
</g>
</g>
<!-- Node33&#45;&gt;Node34 -->
<g id="edge39" class="edge"><title>Node33&#45;&gt;Node34</title>
<path fill="none" stroke="midnightblue" d="M185.698,-940.463C207.14,-946.416 232.43,-953.436 253.529,-959.293"/>
<polygon fill="midnightblue" stroke="midnightblue" points="252.634,-962.677 263.205,-961.98 254.506,-955.932 252.634,-962.677"/>
</g>
<!-- Node35 -->
<g id="node35" class="node"><title>Node35</title>
<g id="a_node35"><a xlink:href="classtlz_1_1dataset__view.html#a1ec7ba844d313cddc558874fe85246a8" target="_top" xlink:title="tlz::dataset_view::\lgroup_view">
<polygon fill="white" stroke="red" points="250,-912.5 250,-942.5 347,-942.5 347,-912.5 250,-912.5"/>
<text text-anchor="start" x="258" y="-930.5" font-family="Helvetica,sans-Serif" font-size="10.00">tlz::dataset_view::</text>
<text text-anchor="middle" x="298.5" y="-919.5" font-family="Helvetica,sans-Serif" font-size="10.00">group_view</text>
</a>
</g>
</g>
<!-- Node33&#45;&gt;Node35 -->
<g id="edge40" class="edge"><title>Node33&#45;&gt;Node35</title>
<path fill="none" stroke="midnightblue" d="M185.698,-927.5C202.568,-927.5 221.82,-927.5 239.538,-927.5"/>
<polygon fill="midnightblue" stroke="midnightblue" points="239.763,-931 249.763,-927.5 239.763,-924 239.763,-931"/>
</g>
<!-- Node35&#45;&gt;Node15 -->
<g id="edge41" class="edge"><title>Node35&#45;&gt;Node15</title>
<path fill="none" stroke="midnightblue" d="M347.117,-912.849C367.409,-906.605 390.6,-899.469 409.033,-893.797"/>
<polygon fill="midnightblue" stroke="midnightblue" points="410.208,-897.098 418.736,-890.812 408.149,-890.408 410.208,-897.098"/>
</g>
<!-- Node37 -->
<g id="node37" class="node"><title>Node37</title>
<g id="a_node37"><a xlink:href="classtlz_1_1dataset__view.html#a327a842dc304656596d65b9bbf52fb1c" target="_top" xlink:title="tlz::dataset_view::\llocal_filename">
<polygon fill="white" stroke="red" points="250,-309.5 250,-339.5 347,-339.5 347,-309.5 250,-309.5"/>
<text text-anchor="start" x="258" y="-327.5" font-family="Helvetica,sans-Serif" font-size="10.00">tlz::dataset_view::</text>
<text text-anchor="middle" x="298.5" y="-316.5" font-family="Helvetica,sans-Serif" font-size="10.00">local_filename</text>
</a>
</g>
</g>
<!-- Node36&#45;&gt;Node37 -->
<g id="edge43" class="edge"><title>Node36&#45;&gt;Node37</title>
<path fill="none" stroke="midnightblue" d="M186.555,-307.001C203.325,-309.646 222.361,-312.648 239.873,-315.411"/>
<polygon fill="midnightblue" stroke="midnightblue" points="239.555,-318.904 249.978,-317.004 240.646,-311.989 239.555,-318.904"/>
</g>
<!-- Node38&#45;&gt;Node37 -->
<g id="edge45" class="edge"><title>Node38&#45;&gt;Node37</title>
<path fill="none" stroke="midnightblue" d="M186.555,-341.299C203.325,-338.76 222.361,-335.877 239.873,-333.226"/>
<polygon fill="midnightblue" stroke="midnightblue" points="240.615,-336.653 249.978,-331.696 239.567,-329.732 240.615,-336.653"/>
</g>
<!-- Node40 -->
<g id="node40" class="node"><title>Node40</title>
<g id="a_node40"><a xlink:href="classtlz_1_1viewer.html#af74a8aef9dde68eeff6b1e2561b39014" target="_top" xlink:title="tlz::viewer::height">
<polygon fill="white" stroke="black" points="251.5,-246 251.5,-265 345.5,-265 345.5,-246 251.5,-246"/>
<text text-anchor="middle" x="298.5" y="-253" font-family="Helvetica,sans-Serif" font-size="10.00">tlz::viewer::height</text>
</a>
</g>
</g>
<!-- Node39&#45;&gt;Node40 -->
<g id="edge47" class="edge"><title>Node39&#45;&gt;Node40</title>
<path fill="none" stroke="midnightblue" d="M178.996,-227.089C199.912,-232.104 225.708,-238.288 247.886,-243.605"/>
<polygon fill="midnightblue" stroke="midnightblue" points="247.251,-247.052 257.791,-245.98 248.883,-240.245 247.251,-247.052"/>
</g>
<!-- Node41 -->
<g id="node41" class="node"><title>Node41</title>
<g id="a_node41"><a xlink:href="classtlz_1_1viewer.html#acc43bf1dd1d0c3cdc35a948d4c194769" target="_top" xlink:title="tlz::viewer::width">
<polygon fill="white" stroke="black" points="253,-208 253,-227 344,-227 344,-208 253,-208"/>
<text text-anchor="middle" x="298.5" y="-215" font-family="Helvetica,sans-Serif" font-size="10.00">tlz::viewer::width</text>
</a>
</g>
</g>
<!-- Node39&#45;&gt;Node41 -->
<g id="edge48" class="edge"><title>Node39&#45;&gt;Node41</title>
<path fill="none" stroke="midnightblue" d="M182.73,-217.5C201.301,-217.5 223.153,-217.5 242.779,-217.5"/>
<polygon fill="midnightblue" stroke="midnightblue" points="242.81,-221 252.81,-217.5 242.81,-214 242.81,-221"/>
</g>
<!-- Node43&#45;&gt;Node9 -->
<g id="edge51" class="edge"><title>Node43&#45;&gt;Node9</title>
<path fill="none" stroke="midnightblue" d="M184.203,-1019.02C201.037,-1022.34 220.341,-1025.89 238,-1028.5 404.507,-1053.13 604.033,-1070.25 691.373,-1077.13"/>
<polygon fill="midnightblue" stroke="midnightblue" points="691.216,-1080.63 701.458,-1077.92 691.761,-1073.65 691.216,-1080.63"/>
</g>
<!-- Node44 -->
<g id="node44" class="node"><title>Node44</title>
<g id="a_node44"><a xlink:href="structtlz_1_1view__index.html#a20518c30015d833cdb2a69b524886b96" target="_top" xlink:title="tlz::view_index::is_2d">
<polygon fill="white" stroke="black" points="243,-1000 243,-1019 354,-1019 354,-1000 243,-1000"/>
<text text-anchor="middle" x="298.5" y="-1007" font-family="Helvetica,sans-Serif" font-size="10.00">tlz::view_index::is_2d</text>
</a>
</g>
</g>
<!-- Node43&#45;&gt;Node44 -->
<g id="edge52" class="edge"><title>Node43&#45;&gt;Node44</title>
<path fill="none" stroke="midnightblue" d="M197.569,-1009.5C209.028,-1009.5 221.106,-1009.5 232.753,-1009.5"/>
<polygon fill="midnightblue" stroke="midnightblue" points="232.849,-1013 242.849,-1009.5 232.849,-1006 232.849,-1013"/>
</g>
<!-- Node47&#45;&gt;Node40 -->
<g id="edge57" class="edge"><title>Node47&#45;&gt;Node40</title>
<path fill="none" stroke="midnightblue" d="M182.73,-255.5C200.828,-255.5 222.041,-255.5 241.274,-255.5"/>
<polygon fill="midnightblue" stroke="midnightblue" points="241.422,-259 251.422,-255.5 241.421,-252 241.422,-259"/>
</g>
<!-- Node47&#45;&gt;Node41 -->
<g id="edge56" class="edge"><title>Node47&#45;&gt;Node41</title>
<path fill="none" stroke="midnightblue" d="M178.996,-245.911C199.912,-240.896 225.708,-234.712 247.886,-229.395"/>
<polygon fill="midnightblue" stroke="midnightblue" points="248.883,-232.755 257.791,-227.02 247.251,-225.948 248.883,-232.755"/>
</g>
<!-- Node50 -->
<g id="node50" class="node"><title>Node50</title>
<g id="a_node50"><a xlink:href="classtlz_1_1viewer.html#a39742c89e09f32e2d2c9162882dc158c" target="_top" xlink:title="tlz::viewer::update\l_modal">
<polygon fill="white" stroke="black" points="250,-0.5 250,-30.5 347,-30.5 347,-0.5 250,-0.5"/>
<text text-anchor="start" x="258" y="-18.5" font-family="Helvetica,sans-Serif" font-size="10.00">tlz::viewer::update</text>
<text text-anchor="middle" x="298.5" y="-7.5" font-family="Helvetica,sans-Serif" font-size="10.00">_modal</text>
</a>
</g>
</g>
<!-- Node49&#45;&gt;Node50 -->
<g id="edge60" class="edge"><title>Node49&#45;&gt;Node50</title>
<path fill="none" stroke="midnightblue" d="M199.374,-15.5C212.559,-15.5 226.484,-15.5 239.571,-15.5"/>
<polygon fill="midnightblue" stroke="midnightblue" points="239.857,-19.0001 249.857,-15.5 239.857,-12.0001 239.857,-19.0001"/>
</g>
</g>
</svg>
