<?xml version="1.0" encoding="UTF-8" standalone="no"?>
<!DOCTYPE svg PUBLIC "-//W3C//DTD SVG 1.1//EN"
 "http://www.w3.org/Graphics/SVG/1.1/DTD/svg11.dtd">
<!-- Generated by graphviz version 2.38.0 (20140413.2041)
 -->
<!-- Title: main Pages: 1 -->
<svg width="884pt" height="287pt"
 viewBox="0.00 0.00 884.00 286.55" xmlns="http://www.w3.org/2000/svg" xmlns:xlink="http://www.w3.org/1999/xlink">
<g id="graph0" class="graph" transform="scale(1 1) rotate(0) translate(4 282.554)">
<title>main</title>
<polygon fill="white" stroke="none" points="-4,4 -4,-282.554 880,-282.554 880,4 -4,4"/>
<!-- Node1 -->
<g id="node1" class="node"><title>Node1</title>
<polygon fill="#bfbfbf" stroke="black" points="0,-107 0,-126 38,-126 38,-107 0,-107"/>
<text text-anchor="middle" x="19" y="-114" font-family="Helvetica,sans-Serif" font-size="10.00">main</text>
</g>
<!-- Node2 -->
<g id="node2" class="node"><title>Node2</title>
<g id="a_node2"><a xlink:href="namespacetlz.html#a3c03f5d9d6261ec2909938822fc47f8a" target="_top" xlink:title="tlz::get_args">
<polygon fill="white" stroke="black" points="83,-202 83,-221 154,-221 154,-202 83,-202"/>
<text text-anchor="middle" x="118.5" y="-209" font-family="Helvetica,sans-Serif" font-size="10.00">tlz::get_args</text>
</a>
</g>
</g>
<!-- Node1&#45;&gt;Node2 -->
<g id="edge1" class="edge"><title>Node1&#45;&gt;Node2</title>
<path fill="none" stroke="midnightblue" d="M24.6639,-126.181C32.7169,-141.997 50.6365,-173.513 74,-192.5 76.0146,-194.137 78.192,-195.659 80.4616,-197.069"/>
<polygon fill="midnightblue" stroke="midnightblue" points="79.0615,-200.291 89.5236,-201.963 82.3877,-194.132 79.0615,-200.291"/>
</g>
<!-- Node3 -->
<g id="node3" class="node"><title>Node3</title>
<g id="a_node3"><a xlink:href="namespacetlz.html#aa5e0f8e51747ba6008a12ea8942ad9f7" target="_top" xlink:title="tlz::cameras_arg">
<polygon fill="white" stroke="black" points="74,-164 74,-183 163,-183 163,-164 74,-164"/>
<text text-anchor="middle" x="118.5" y="-171" font-family="Helvetica,sans-Serif" font-size="10.00">tlz::cameras_arg</text>
</a>
</g>
</g>
<!-- Node1&#45;&gt;Node3 -->
<g id="edge2" class="edge"><title>Node1&#45;&gt;Node3</title>
<path fill="none" stroke="midnightblue" d="M35.4863,-126.215C46.2227,-132.888 60.8902,-141.883 74,-149.5 79.3509,-152.609 85.1195,-155.861 90.6512,-158.931"/>
<polygon fill="midnightblue" stroke="midnightblue" points="89.1734,-162.112 99.6217,-163.868 92.549,-155.98 89.1734,-162.112"/>
</g>
<!-- Node15 -->
<g id="node15" class="node"><title>Node15</title>
<g id="a_node15"><a xlink:href="namespacetlz.html#a65770a2c1ff57c5ae6542d4465a3d3f4" target="_top" xlink:title="tlz::out_filename_arg">
<polygon fill="white" stroke="black" points="199,-126 199,-145 306,-145 306,-126 199,-126"/>
<text text-anchor="middle" x="252.5" y="-133" font-family="Helvetica,sans-Serif" font-size="10.00">tlz::out_filename_arg</text>
</a>
</g>
</g>
<!-- Node1&#45;&gt;Node15 -->
<g id="edge16" class="edge"><title>Node1&#45;&gt;Node15</title>
<path fill="none" stroke="midnightblue" d="M38.1654,-117.991C70.1754,-120.618 138.029,-126.187 188.666,-130.343"/>
<polygon fill="midnightblue" stroke="midnightblue" points="188.617,-133.851 198.87,-131.18 189.189,-126.874 188.617,-133.851"/>
</g>
<!-- Node16 -->
<g id="node16" class="node"><title>Node16</title>
<g id="a_node16"><a xlink:href="namespacetlz.html#aea648783e0ac6c50afae30a01cfc260d" target="_top" xlink:title="tlz::enum_arg">
<polygon fill="white" stroke="black" points="487,-88 487,-107 563,-107 563,-88 487,-88"/>
<text text-anchor="middle" x="525" y="-95" font-family="Helvetica,sans-Serif" font-size="10.00">tlz::enum_arg</text>
</a>
</g>
</g>
<!-- Node1&#45;&gt;Node16 -->
<g id="edge18" class="edge"><title>Node1&#45;&gt;Node16</title>
<path fill="none" stroke="midnightblue" d="M38.2354,-115.813C109.284,-113.134 368.944,-103.345 476.67,-99.2843"/>
<polygon fill="midnightblue" stroke="midnightblue" points="477.053,-102.772 486.914,-98.8981 476.789,-95.7774 477.053,-102.772"/>
</g>
<!-- Node17 -->
<g id="node17" class="node"><title>Node17</title>
<g id="a_node17"><a xlink:href="namespacetlz.html#ab2ef4a40b14d664e0a0859866f06eff5" target="_top" xlink:title="tlz::real_opt_arg">
<polygon fill="white" stroke="black" points="349.5,-50 349.5,-69 435.5,-69 435.5,-50 349.5,-50"/>
<text text-anchor="middle" x="392.5" y="-57" font-family="Helvetica,sans-Serif" font-size="10.00">tlz::real_opt_arg</text>
</a>
</g>
</g>
<!-- Node1&#45;&gt;Node17 -->
<g id="edge22" class="edge"><title>Node1&#45;&gt;Node17</title>
<path fill="none" stroke="midnightblue" d="M32.0402,-106.814C42.4716,-99.019 58.3152,-88.5589 74,-83.5 163.829,-54.5273 275.071,-53.5261 339.202,-56.0726"/>
<polygon fill="midnightblue" stroke="midnightblue" points="339.318,-59.581 349.463,-56.5266 339.628,-52.5879 339.318,-59.581"/>
</g>
<!-- Node20 -->
<g id="node20" class="node"><title>Node20</title>
<g id="a_node20"><a xlink:href="namespacetlz.html#a1b96e05afba5d411f359ae7b873aa8fe" target="_top" xlink:title="tlz::mul_h">
<polygon fill="white" stroke="black" points="89,-12 89,-31 148,-31 148,-12 89,-12"/>
<text text-anchor="middle" x="118.5" y="-19" font-family="Helvetica,sans-Serif" font-size="10.00">tlz::mul_h</text>
</a>
</g>
</g>
<!-- Node1&#45;&gt;Node20 -->
<g id="edge30" class="edge"><title>Node1&#45;&gt;Node20</title>
<path fill="none" stroke="midnightblue" d="M25.5806,-106.75C34.3746,-92.0363 52.6689,-63.9227 74,-45.5 77.9778,-42.0645 82.5267,-38.9047 87.1494,-36.084"/>
<polygon fill="midnightblue" stroke="midnightblue" points="89.0073,-39.0545 95.9991,-31.0942 85.5693,-32.9569 89.0073,-39.0545"/>
</g>
<!-- Node4 -->
<g id="node4" class="node"><title>Node4</title>
<g id="a_node4"><a xlink:href="namespacetlz.html#a8d445609e681336909da63eb443186b4" target="_top" xlink:title="tlz::decode_cameras">
<polygon fill="white" stroke="black" points="199,-221 199,-240 306,-240 306,-221 199,-221"/>
<text text-anchor="middle" x="252.5" y="-228" font-family="Helvetica,sans-Serif" font-size="10.00">tlz::decode_cameras</text>
</a>
</g>
</g>
<!-- Node3&#45;&gt;Node4 -->
<g id="edge3" class="edge"><title>Node3&#45;&gt;Node4</title>
<path fill="none" stroke="midnightblue" d="M141.594,-183.041C163.01,-192.288 195.713,-206.41 219.882,-216.847"/>
<polygon fill="midnightblue" stroke="midnightblue" points="218.766,-220.177 229.334,-220.928 221.541,-213.751 218.766,-220.177"/>
</g>
<!-- Node6 -->
<g id="node6" class="node"><title>Node6</title>
<g id="a_node6"><a xlink:href="namespacetlz.html#a35f9e03fa4fd9cec699f5fa27962400f" target="_top" xlink:title="tlz::json_arg">
<polygon fill="white" stroke="black" points="217.5,-164 217.5,-183 287.5,-183 287.5,-164 217.5,-164"/>
<text text-anchor="middle" x="252.5" y="-171" font-family="Helvetica,sans-Serif" font-size="10.00">tlz::json_arg</text>
</a>
</g>
</g>
<!-- Node3&#45;&gt;Node6 -->
<g id="edge5" class="edge"><title>Node3&#45;&gt;Node6</title>
<path fill="none" stroke="midnightblue" d="M163.088,-173.5C177.228,-173.5 192.925,-173.5 207.122,-173.5"/>
<polygon fill="midnightblue" stroke="midnightblue" points="207.151,-177 217.151,-173.5 207.151,-170 207.151,-177"/>
</g>
<!-- Node5 -->
<g id="node5" class="node"><title>Node5</title>
<g id="a_node5"><a xlink:href="namespacetlz.html#a066563a26e2de02f215b179f3d3a53da" target="_top" xlink:title="tlz::decode_mat">
<polygon fill="white" stroke="black" points="349.5,-240 349.5,-259 435.5,-259 435.5,-240 349.5,-240"/>
<text text-anchor="middle" x="392.5" y="-247" font-family="Helvetica,sans-Serif" font-size="10.00">tlz::decode_mat</text>
</a>
</g>
</g>
<!-- Node4&#45;&gt;Node5 -->
<g id="edge4" class="edge"><title>Node4&#45;&gt;Node5</title>
<path fill="none" stroke="midnightblue" d="M306.066,-237.737C316.917,-239.231 328.345,-240.805 339.188,-242.298"/>
<polygon fill="midnightblue" stroke="midnightblue" points="338.982,-245.802 349.366,-243.699 339.937,-238.868 338.982,-245.802"/>
</g>
<!-- Node7 -->
<g id="node7" class="node"><title>Node7</title>
<g id="a_node7"><a xlink:href="namespacetlz.html#aa1be9362f548fcf9378e1fc9074089c4" target="_top" xlink:title="tlz::import_json_file">
<polygon fill="white" stroke="black" points="342,-164 342,-183 443,-183 443,-164 342,-164"/>
<text text-anchor="middle" x="392.5" y="-171" font-family="Helvetica,sans-Serif" font-size="10.00">tlz::import_json_file</text>
</a>
</g>
</g>
<!-- Node6&#45;&gt;Node7 -->
<g id="edge6" class="edge"><title>Node6&#45;&gt;Node7</title>
<path fill="none" stroke="midnightblue" d="M287.612,-173.5C300.907,-173.5 316.546,-173.5 331.597,-173.5"/>
<polygon fill="midnightblue" stroke="midnightblue" points="331.888,-177 341.888,-173.5 331.887,-170 331.888,-177"/>
</g>
<!-- Node8 -->
<g id="node8" class="node"><title>Node8</title>
<g id="a_node8"><a xlink:href="namespacetlz.html#a634de7ca11e100e4a118dffe80376a75" target="_top" xlink:title="tlz::in_filename_arg">
<polygon fill="white" stroke="black" points="342,-202 342,-221 443,-221 443,-202 342,-202"/>
<text text-anchor="middle" x="392.5" y="-209" font-family="Helvetica,sans-Serif" font-size="10.00">tlz::in_filename_arg</text>
</a>
</g>
</g>
<!-- Node6&#45;&gt;Node8 -->
<g id="edge7" class="edge"><title>Node6&#45;&gt;Node8</title>
<path fill="none" stroke="midnightblue" d="M287.612,-182.893C305.556,-187.834 327.771,-193.952 347.047,-199.259"/>
<polygon fill="midnightblue" stroke="midnightblue" points="346.251,-202.67 356.822,-201.951 348.11,-195.922 346.251,-202.67"/>
</g>
<!-- Node9 -->
<g id="node9" class="node"><title>Node9</title>
<g id="a_node9"><a xlink:href="namespacetlz.html#a0621d598fb83b13bf028f3e6293d04f8" target="_top" xlink:title="tlz::string_arg">
<polygon fill="white" stroke="black" points="487,-164 487,-183 563,-183 563,-164 487,-164"/>
<text text-anchor="middle" x="525" y="-171" font-family="Helvetica,sans-Serif" font-size="10.00">tlz::string_arg</text>
</a>
</g>
</g>
<!-- Node8&#45;&gt;Node9 -->
<g id="edge8" class="edge"><title>Node8&#45;&gt;Node9</title>
<path fill="none" stroke="midnightblue" d="M426.431,-201.911C443.122,-197.051 463.589,-191.091 481.46,-185.887"/>
<polygon fill="midnightblue" stroke="midnightblue" points="482.457,-189.242 491.08,-183.086 480.5,-182.521 482.457,-189.242"/>
</g>
<!-- Node10 -->
<g id="node10" class="node"><title>Node10</title>
<g id="a_node10"><a xlink:href="namespacetlz.html#a780431daab8d2595372eacb43143b52d" target="_top" xlink:title="tlz::args">
<polygon fill="white" stroke="black" points="637.5,-164 637.5,-183 689.5,-183 689.5,-164 637.5,-164"/>
<text text-anchor="middle" x="663.5" y="-171" font-family="Helvetica,sans-Serif" font-size="10.00">tlz::args</text>
</a>
</g>
</g>
<!-- Node8&#45;&gt;Node10 -->
<g id="edge14" class="edge"><title>Node8&#45;&gt;Node10</title>
<path fill="none" stroke="midnightblue" d="M443.022,-207.51C478.719,-204.316 527.983,-199.252 571,-192.5 589.715,-189.562 610.394,-185.352 627.351,-181.641"/>
<polygon fill="midnightblue" stroke="midnightblue" points="628.376,-184.998 637.377,-179.41 626.856,-178.165 628.376,-184.998"/>
</g>
<!-- Node12 -->
<g id="node12" class="node"><title>Node12</title>
<g id="a_node12"><a xlink:href="classtlz_1_1args__list.html#a38ad21acd64a4af98ffdf4a47837cdbe" target="_top" xlink:title="tlz::args_list::usage_fail">
<polygon fill="white" stroke="black" points="756,-126 756,-145 876,-145 876,-126 756,-126"/>
<text text-anchor="middle" x="816" y="-133" font-family="Helvetica,sans-Serif" font-size="10.00">tlz::args_list::usage_fail</text>
</a>
</g>
</g>
<!-- Node8&#45;&gt;Node12 -->
<g id="edge15" class="edge"><title>Node8&#45;&gt;Node12</title>
<path fill="none" stroke="midnightblue" d="M424.657,-221.02C430.989,-223.614 437.414,-226.764 443,-230.5 462.338,-243.433 457.629,-259.308 479,-268.5 516.562,-284.656 531.243,-278.054 571,-268.5 661.712,-246.701 754.605,-181.947 794.624,-151.57"/>
<polygon fill="midnightblue" stroke="midnightblue" points="796.981,-154.172 802.773,-145.301 792.713,-148.624 796.981,-154.172"/>
</g>
<!-- Node14 -->
<g id="node14" class="node"><title>Node14</title>
<g id="a_node14"><a xlink:href="namespacetlz.html#abb019466ea9f56c0dab27e893d891837" target="_top" xlink:title="tlz::file_exists">
<polygon fill="white" stroke="black" points="486.5,-240 486.5,-259 563.5,-259 563.5,-240 486.5,-240"/>
<text text-anchor="middle" x="525" y="-247" font-family="Helvetica,sans-Serif" font-size="10.00">tlz::file_exists</text>
</a>
</g>
</g>
<!-- Node8&#45;&gt;Node14 -->
<g id="edge13" class="edge"><title>Node8&#45;&gt;Node14</title>
<path fill="none" stroke="midnightblue" d="M426.431,-221.089C443.122,-225.949 463.589,-231.909 481.46,-237.113"/>
<polygon fill="midnightblue" stroke="midnightblue" points="480.5,-240.479 491.08,-239.914 482.457,-233.758 480.5,-240.479"/>
</g>
<!-- Node9&#45;&gt;Node10 -->
<g id="edge9" class="edge"><title>Node9&#45;&gt;Node10</title>
<path fill="none" stroke="midnightblue" d="M563.299,-173.5C583.239,-173.5 607.649,-173.5 627.266,-173.5"/>
<polygon fill="midnightblue" stroke="midnightblue" points="627.325,-177 637.325,-173.5 627.325,-170 627.325,-177"/>
</g>
<!-- Node11 -->
<g id="node11" class="node"><title>Node11</title>
<g id="a_node11"><a xlink:href="classtlz_1_1args__list.html#a73d99bc75998dc14607a3a372d28dc6d" target="_top" xlink:title="tlz::args_list::next_arg">
<polygon fill="white" stroke="black" points="607,-88 607,-107 720,-107 720,-88 607,-88"/>
<text text-anchor="middle" x="663.5" y="-95" font-family="Helvetica,sans-Serif" font-size="10.00">tlz::args_list::next_arg</text>
</a>
</g>
</g>
<!-- Node9&#45;&gt;Node11 -->
<g id="edge10" class="edge"><title>Node9&#45;&gt;Node11</title>
<path fill="none" stroke="midnightblue" d="M543.288,-163.875C566.775,-150.797 608.97,-127.304 636.343,-112.063"/>
<polygon fill="midnightblue" stroke="midnightblue" points="638.318,-114.97 645.353,-107.047 634.913,-108.854 638.318,-114.97"/>
</g>
<!-- Node11&#45;&gt;Node12 -->
<g id="edge11" class="edge"><title>Node11&#45;&gt;Node12</title>
<path fill="none" stroke="midnightblue" d="M702.478,-107.089C722.159,-112.058 746.391,-118.177 767.321,-123.461"/>
<polygon fill="midnightblue" stroke="midnightblue" points="766.743,-126.925 777.296,-125.98 768.457,-120.138 766.743,-126.925"/>
</g>
<!-- Node13 -->
<g id="node13" class="node"><title>Node13</title>
<g id="a_node13"><a xlink:href="namespacetlz.html#a8e4f8c8c2927bc4350de13bfa0f8f9e1" target="_top" xlink:title="tlz::to_string">
<polygon fill="white" stroke="black" points="780.5,-88 780.5,-107 851.5,-107 851.5,-88 780.5,-88"/>
<text text-anchor="middle" x="816" y="-95" font-family="Helvetica,sans-Serif" font-size="10.00">tlz::to_string</text>
</a>
</g>
</g>
<!-- Node11&#45;&gt;Node13 -->
<g id="edge12" class="edge"><title>Node11&#45;&gt;Node13</title>
<path fill="none" stroke="midnightblue" d="M720.113,-97.5C736.441,-97.5 754.096,-97.5 769.698,-97.5"/>
<polygon fill="midnightblue" stroke="midnightblue" points="770.13,-101 780.13,-97.5 770.129,-94.0001 770.13,-101"/>
</g>
<!-- Node15&#45;&gt;Node9 -->
<g id="edge17" class="edge"><title>Node15&#45;&gt;Node9</title>
<path fill="none" stroke="midnightblue" d="M306.025,-138.917C344.198,-141.849 397.014,-146.835 443,-154.5 454.46,-156.41 466.716,-158.996 478.135,-161.644"/>
<polygon fill="midnightblue" stroke="midnightblue" points="477.375,-165.061 487.914,-163.972 478.996,-158.251 477.375,-165.061"/>
</g>
<!-- Node16&#45;&gt;Node10 -->
<g id="edge19" class="edge"><title>Node16&#45;&gt;Node10</title>
<path fill="none" stroke="midnightblue" d="M545.687,-107.071C553.715,-111.211 562.978,-116.296 571,-121.5 588.005,-132.532 589.558,-139.173 607,-149.5 613.521,-153.361 620.777,-156.953 627.836,-160.12"/>
<polygon fill="midnightblue" stroke="midnightblue" points="626.681,-163.433 637.251,-164.162 629.442,-157.001 626.681,-163.433"/>
</g>
<!-- Node16&#45;&gt;Node11 -->
<g id="edge20" class="edge"><title>Node16&#45;&gt;Node11</title>
<path fill="none" stroke="midnightblue" d="M563.299,-97.5C573.678,-97.5 585.268,-97.5 596.764,-97.5"/>
<polygon fill="midnightblue" stroke="midnightblue" points="596.808,-101 606.808,-97.5 596.808,-94.0001 596.808,-101"/>
</g>
<!-- Node16&#45;&gt;Node12 -->
<g id="edge21" class="edge"><title>Node16&#45;&gt;Node12</title>
<path fill="none" stroke="midnightblue" d="M562.074,-107.098C576.023,-110.509 592.172,-114.096 607,-116.5 652.867,-123.937 704.931,-128.689 745.496,-131.581"/>
<polygon fill="midnightblue" stroke="midnightblue" points="745.333,-135.078 755.55,-132.277 745.816,-128.095 745.333,-135.078"/>
</g>
<!-- Node17&#45;&gt;Node10 -->
<g id="edge23" class="edge"><title>Node17&#45;&gt;Node10</title>
<path fill="none" stroke="midnightblue" d="M405.571,-69.1888C421.548,-81.6147 450.976,-103.149 479,-116.5 528.275,-139.975 589.521,-156.726 627.308,-165.76"/>
<polygon fill="midnightblue" stroke="midnightblue" points="626.78,-169.231 637.314,-168.102 628.375,-162.415 626.78,-169.231"/>
</g>
<!-- Node17&#45;&gt;Node16 -->
<g id="edge29" class="edge"><title>Node17&#45;&gt;Node16</title>
<path fill="none" stroke="midnightblue" d="M426.431,-69.089C443.122,-73.9494 463.589,-79.9091 481.46,-85.1127"/>
<polygon fill="midnightblue" stroke="midnightblue" points="480.5,-88.4787 491.08,-87.9141 482.457,-81.7578 480.5,-88.4787"/>
</g>
<!-- Node18 -->
<g id="node18" class="node"><title>Node18</title>
<g id="a_node18"><a xlink:href="classtlz_1_1args__list.html#a4aee93f4b0d9b5b4e7a5d13cb637337c" target="_top" xlink:title="tlz::args_list::has\l_next_arg">
<polygon fill="white" stroke="black" points="479,-0.5 479,-30.5 571,-30.5 571,-0.5 479,-0.5"/>
<text text-anchor="start" x="487" y="-18.5" font-family="Helvetica,sans-Serif" font-size="10.00">tlz::args_list::has</text>
<text text-anchor="middle" x="525" y="-7.5" font-family="Helvetica,sans-Serif" font-size="10.00">_next_arg</text>
</a>
</g>
</g>
<!-- Node17&#45;&gt;Node18 -->
<g id="edge24" class="edge"><title>Node17&#45;&gt;Node18</title>
<path fill="none" stroke="midnightblue" d="M421.817,-49.9527C435.853,-45.2199 453.29,-39.3408 469.763,-33.7868"/>
<polygon fill="midnightblue" stroke="midnightblue" points="470.96,-37.0769 479.318,-30.5654 468.723,-30.4438 470.96,-37.0769"/>
</g>
<!-- Node19 -->
<g id="node19" class="node"><title>Node19</title>
<g id="a_node19"><a xlink:href="namespacetlz.html#a63246890b0c946b5f62a1d3e2bea6103" target="_top" xlink:title="tlz::real_arg">
<polygon fill="white" stroke="black" points="491,-50 491,-69 559,-69 559,-50 491,-50"/>
<text text-anchor="middle" x="525" y="-57" font-family="Helvetica,sans-Serif" font-size="10.00">tlz::real_arg</text>
</a>
</g>
</g>
<!-- Node17&#45;&gt;Node19 -->
<g id="edge25" class="edge"><title>Node17&#45;&gt;Node19</title>
<path fill="none" stroke="midnightblue" d="M435.509,-59.5C449.899,-59.5 466.024,-59.5 480.527,-59.5"/>
<polygon fill="midnightblue" stroke="midnightblue" points="480.753,-63.0001 490.753,-59.5 480.753,-56.0001 480.753,-63.0001"/>
</g>
<!-- Node19&#45;&gt;Node10 -->
<g id="edge26" class="edge"><title>Node19&#45;&gt;Node10</title>
<path fill="none" stroke="midnightblue" d="M553.6,-69.0262C559.584,-71.6633 565.702,-74.8292 571,-78.5 590.122,-91.7504 590.885,-99.721 607,-116.5 619.934,-129.967 634.685,-145.106 645.727,-156.396"/>
<polygon fill="midnightblue" stroke="midnightblue" points="643.535,-159.16 653.032,-163.857 648.537,-154.263 643.535,-159.16"/>
</g>
<!-- Node19&#45;&gt;Node11 -->
<g id="edge27" class="edge"><title>Node19&#45;&gt;Node11</title>
<path fill="none" stroke="midnightblue" d="M559.043,-68.6987C576.915,-73.6742 599.223,-79.8845 618.544,-85.2632"/>
<polygon fill="midnightblue" stroke="midnightblue" points="617.764,-88.6789 628.336,-87.9891 619.641,-81.9354 617.764,-88.6789"/>
</g>
<!-- Node19&#45;&gt;Node12 -->
<g id="edge28" class="edge"><title>Node19&#45;&gt;Node12</title>
<path fill="none" stroke="midnightblue" d="M559.121,-55.9566C599.326,-53.1336 668.171,-53.1418 720,-78.5 740.897,-88.7243 736.314,-104.103 756,-116.5 759.193,-118.511 762.618,-120.327 766.151,-121.964"/>
<polygon fill="midnightblue" stroke="midnightblue" points="765.095,-125.315 775.674,-125.892 767.764,-118.843 765.095,-125.315"/>
</g>
</g>
</svg>
