<?xml version="1.0" encoding="UTF-8" standalone="no"?>
<!DOCTYPE svg PUBLIC "-//W3C//DTD SVG 1.1//EN"
 "http://www.w3.org/Graphics/SVG/1.1/DTD/svg11.dtd">
<!-- Generated by graphviz version 2.38.0 (20140413.2041)
 -->
<!-- Title: main Pages: 1 -->
<svg width="622pt" height="382pt"
 viewBox="0.00 0.00 622.00 382.00" xmlns="http://www.w3.org/2000/svg" xmlns:xlink="http://www.w3.org/1999/xlink">
<g id="graph0" class="graph" transform="scale(1 1) rotate(0) translate(4 378)">
<title>main</title>
<polygon fill="white" stroke="none" points="-4,4 -4,-378 618,-378 618,4 -4,4"/>
<!-- Node1 -->
<g id="node1" class="node"><title>Node1</title>
<polygon fill="#bfbfbf" stroke="black" points="0,-221.5 0,-240.5 38,-240.5 38,-221.5 0,-221.5"/>
<text text-anchor="middle" x="19" y="-228.5" font-family="Helvetica,sans-Serif" font-size="10.00">main</text>
</g>
<!-- Node2 -->
<g id="node2" class="node"><title>Node2</title>
<g id="a_node2"><a xlink:href="namespacetlz.html#a3c03f5d9d6261ec2909938822fc47f8a" target="_top" xlink:title="tlz::get_args">
<polygon fill="white" stroke="black" points="92,-316.5 92,-335.5 163,-335.5 163,-316.5 92,-316.5"/>
<text text-anchor="middle" x="127.5" y="-323.5" font-family="Helvetica,sans-Serif" font-size="10.00">tlz::get_args</text>
</a>
</g>
</g>
<!-- Node1&#45;&gt;Node2 -->
<g id="edge1" class="edge"><title>Node1&#45;&gt;Node2</title>
<path fill="none" stroke="midnightblue" d="M24.4033,-240.594C32.1988,-256.571 49.907,-288.679 74,-307 76.6619,-309.024 79.5599,-310.848 82.5819,-312.488"/>
<polygon fill="midnightblue" stroke="midnightblue" points="81.3696,-315.786 91.9081,-316.877 84.3503,-309.452 81.3696,-315.786"/>
</g>
<!-- Node3 -->
<g id="node3" class="node"><title>Node3</title>
<g id="a_node3"><a xlink:href="namespacetlz.html#a634de7ca11e100e4a118dffe80376a75" target="_top" xlink:title="tlz::in_filename_arg">
<polygon fill="white" stroke="black" points="77,-278.5 77,-297.5 178,-297.5 178,-278.5 77,-278.5"/>
<text text-anchor="middle" x="127.5" y="-285.5" font-family="Helvetica,sans-Serif" font-size="10.00">tlz::in_filename_arg</text>
</a>
</g>
</g>
<!-- Node1&#45;&gt;Node3 -->
<g id="edge2" class="edge"><title>Node1&#45;&gt;Node3</title>
<path fill="none" stroke="midnightblue" d="M34.8485,-240.739C45.5418,-247.587 60.4185,-256.779 74,-264 80.6311,-267.526 87.8787,-271.044 94.8135,-274.256"/>
<polygon fill="midnightblue" stroke="midnightblue" points="93.4365,-277.475 103.989,-278.42 96.3293,-271.101 93.4365,-277.475"/>
</g>
<!-- Node10 -->
<g id="node10" class="node"><title>Node10</title>
<g id="a_node10"><a xlink:href="namespacetlz.html#a65770a2c1ff57c5ae6542d4465a3d3f4" target="_top" xlink:title="tlz::out_filename_arg">
<polygon fill="white" stroke="black" points="74,-202.5 74,-221.5 181,-221.5 181,-202.5 74,-202.5"/>
<text text-anchor="middle" x="127.5" y="-209.5" font-family="Helvetica,sans-Serif" font-size="10.00">tlz::out_filename_arg</text>
</a>
</g>
</g>
<!-- Node1&#45;&gt;Node10 -->
<g id="edge11" class="edge"><title>Node1&#45;&gt;Node10</title>
<path fill="none" stroke="midnightblue" d="M38.0663,-227.777C45.4659,-226.457 54.5062,-224.844 63.9493,-223.159"/>
<polygon fill="midnightblue" stroke="midnightblue" points="64.6539,-226.589 73.8838,-221.387 63.4245,-219.698 64.6539,-226.589"/>
</g>
<!-- Node11 -->
<g id="node11" class="node"><title>Node11</title>
<g id="a_node11"><a xlink:href="namespacetlz.html#af0d1e8ba5b9f2dbc2b589afab3a21fc8" target="_top" xlink:title="tlz::int_arg">
<polygon fill="white" stroke="black" points="232,-240.5 232,-259.5 294,-259.5 294,-240.5 232,-240.5"/>
<text text-anchor="middle" x="263" y="-247.5" font-family="Helvetica,sans-Serif" font-size="10.00">tlz::int_arg</text>
</a>
</g>
</g>
<!-- Node1&#45;&gt;Node11 -->
<g id="edge13" class="edge"><title>Node1&#45;&gt;Node11</title>
<path fill="none" stroke="midnightblue" d="M38.1893,-232.428C76.9367,-235.47 168.417,-242.653 221.653,-246.832"/>
<polygon fill="midnightblue" stroke="midnightblue" points="221.52,-250.333 231.764,-247.626 222.068,-243.354 221.52,-250.333"/>
</g>
<!-- Node12 -->
<g id="node12" class="node"><title>Node12</title>
<g id="a_node12"><a xlink:href="namespacetlz.html#a7eb41c397465c7f7ae15dd4aa1de2383" target="_top" xlink:title="tlz::enum_opt_arg">
<polygon fill="white" stroke="black" points="80,-126.5 80,-145.5 175,-145.5 175,-126.5 80,-126.5"/>
<text text-anchor="middle" x="127.5" y="-133.5" font-family="Helvetica,sans-Serif" font-size="10.00">tlz::enum_opt_arg</text>
</a>
</g>
</g>
<!-- Node1&#45;&gt;Node12 -->
<g id="edge17" class="edge"><title>Node1&#45;&gt;Node12</title>
<path fill="none" stroke="midnightblue" d="M30.9962,-221.191C49.1866,-204.965 85.7366,-172.362 107.97,-152.529"/>
<polygon fill="midnightblue" stroke="midnightblue" points="110.59,-154.883 115.722,-145.614 105.93,-149.659 110.59,-154.883"/>
</g>
<!-- Node16 -->
<g id="node16" class="node"><title>Node16</title>
<g id="a_node16"><a xlink:href="vsrs__disparity_8cc.html#aaeecfa4f143fa01fed02306f743f729a" target="_top" xlink:title="export_yuv_disparity">
<polygon fill="white" stroke="black" points="74,-44.5 74,-63.5 181,-63.5 181,-44.5 74,-44.5"/>
<text text-anchor="middle" x="127.5" y="-51.5" font-family="Helvetica,sans-Serif" font-size="10.00">export_yuv_disparity</text>
</a>
</g>
</g>
<!-- Node1&#45;&gt;Node16 -->
<g id="edge27" class="edge"><title>Node1&#45;&gt;Node16</title>
<path fill="none" stroke="midnightblue" d="M23.5813,-221.419C31.3154,-201.266 50.7713,-153.355 74,-117 84.5882,-100.428 99.0342,-83.3989 110.093,-71.23"/>
<polygon fill="midnightblue" stroke="midnightblue" points="112.889,-73.3614 117.118,-63.6472 107.754,-68.6039 112.889,-73.3614"/>
</g>
<!-- Node4 -->
<g id="node4" class="node"><title>Node4</title>
<g id="a_node4"><a xlink:href="namespacetlz.html#a0621d598fb83b13bf028f3e6293d04f8" target="_top" xlink:title="tlz::string_arg">
<polygon fill="white" stroke="black" points="225,-202.5 225,-221.5 301,-221.5 301,-202.5 225,-202.5"/>
<text text-anchor="middle" x="263" y="-209.5" font-family="Helvetica,sans-Serif" font-size="10.00">tlz::string_arg</text>
</a>
</g>
</g>
<!-- Node3&#45;&gt;Node4 -->
<g id="edge3" class="edge"><title>Node3&#45;&gt;Node4</title>
<path fill="none" stroke="midnightblue" d="M141.854,-278.358C158.808,-266.364 189.204,-245.679 217,-231 220.527,-229.138 224.277,-227.318 228.048,-225.589"/>
<polygon fill="midnightblue" stroke="midnightblue" points="229.606,-228.728 237.355,-221.503 226.792,-222.318 229.606,-228.728"/>
</g>
<!-- Node5 -->
<g id="node5" class="node"><title>Node5</title>
<g id="a_node5"><a xlink:href="namespacetlz.html#a780431daab8d2595372eacb43143b52d" target="_top" xlink:title="tlz::args">
<polygon fill="white" stroke="black" points="375.5,-202.5 375.5,-221.5 427.5,-221.5 427.5,-202.5 375.5,-202.5"/>
<text text-anchor="middle" x="401.5" y="-209.5" font-family="Helvetica,sans-Serif" font-size="10.00">tlz::args</text>
</a>
</g>
</g>
<!-- Node3&#45;&gt;Node5 -->
<g id="edge9" class="edge"><title>Node3&#45;&gt;Node5</title>
<path fill="none" stroke="midnightblue" d="M178.05,-288.722C215.06,-287.856 266.387,-283.644 309,-269 335.829,-259.78 362.965,-241.495 380.639,-228.112"/>
<polygon fill="midnightblue" stroke="midnightblue" points="383.223,-230.537 388.968,-221.635 378.925,-225.012 383.223,-230.537"/>
</g>
<!-- Node7 -->
<g id="node7" class="node"><title>Node7</title>
<g id="a_node7"><a xlink:href="classtlz_1_1args__list.html#a38ad21acd64a4af98ffdf4a47837cdbe" target="_top" xlink:title="tlz::args_list::usage_fail">
<polygon fill="white" stroke="black" points="494,-221.5 494,-240.5 614,-240.5 614,-221.5 494,-221.5"/>
<text text-anchor="middle" x="554" y="-228.5" font-family="Helvetica,sans-Serif" font-size="10.00">tlz::args_list::usage_fail</text>
</a>
</g>
</g>
<!-- Node3&#45;&gt;Node7 -->
<g id="edge10" class="edge"><title>Node3&#45;&gt;Node7</title>
<path fill="none" stroke="midnightblue" d="M178.108,-289.978C190.786,-290.402 204.396,-290.786 217,-291 257.883,-291.693 268.383,-295.706 309,-291 376.573,-283.17 391.991,-272.435 458,-256 474.155,-251.978 491.803,-247.388 507.456,-243.248"/>
<polygon fill="midnightblue" stroke="midnightblue" points="508.652,-246.552 517.419,-240.603 506.856,-239.786 508.652,-246.552"/>
</g>
<!-- Node9 -->
<g id="node9" class="node"><title>Node9</title>
<g id="a_node9"><a xlink:href="namespacetlz.html#abb019466ea9f56c0dab27e893d891837" target="_top" xlink:title="tlz::file_exists">
<polygon fill="white" stroke="black" points="224.5,-354.5 224.5,-373.5 301.5,-373.5 301.5,-354.5 224.5,-354.5"/>
<text text-anchor="middle" x="263" y="-361.5" font-family="Helvetica,sans-Serif" font-size="10.00">tlz::file_exists</text>
</a>
</g>
</g>
<!-- Node3&#45;&gt;Node9 -->
<g id="edge8" class="edge"><title>Node3&#45;&gt;Node9</title>
<path fill="none" stroke="midnightblue" d="M161.073,-297.52C167.89,-300.129 174.865,-303.284 181,-307 199.565,-318.245 199.284,-327.46 217,-340 221.698,-343.325 226.911,-346.509 232.075,-349.409"/>
<polygon fill="midnightblue" stroke="midnightblue" points="230.727,-352.657 241.195,-354.291 234.031,-346.486 230.727,-352.657"/>
</g>
<!-- Node4&#45;&gt;Node5 -->
<g id="edge4" class="edge"><title>Node4&#45;&gt;Node5</title>
<path fill="none" stroke="midnightblue" d="M301.299,-212C321.239,-212 345.649,-212 365.266,-212"/>
<polygon fill="midnightblue" stroke="midnightblue" points="365.325,-215.5 375.325,-212 365.325,-208.5 365.325,-215.5"/>
</g>
<!-- Node6 -->
<g id="node6" class="node"><title>Node6</title>
<g id="a_node6"><a xlink:href="classtlz_1_1args__list.html#a73d99bc75998dc14607a3a372d28dc6d" target="_top" xlink:title="tlz::args_list::next_arg">
<polygon fill="white" stroke="black" points="345,-164.5 345,-183.5 458,-183.5 458,-164.5 345,-164.5"/>
<text text-anchor="middle" x="401.5" y="-171.5" font-family="Helvetica,sans-Serif" font-size="10.00">tlz::args_list::next_arg</text>
</a>
</g>
</g>
<!-- Node4&#45;&gt;Node6 -->
<g id="edge5" class="edge"><title>Node4&#45;&gt;Node6</title>
<path fill="none" stroke="midnightblue" d="M298.445,-202.411C315.985,-197.528 337.51,-191.536 356.263,-186.315"/>
<polygon fill="midnightblue" stroke="midnightblue" points="357.371,-189.64 366.066,-183.586 355.494,-182.896 357.371,-189.64"/>
</g>
<!-- Node6&#45;&gt;Node7 -->
<g id="edge6" class="edge"><title>Node6&#45;&gt;Node7</title>
<path fill="none" stroke="midnightblue" d="M431.404,-183.585C439.995,-186.518 449.406,-189.813 458,-193 479.035,-200.802 502.438,-210.155 520.752,-217.63"/>
<polygon fill="midnightblue" stroke="midnightblue" points="519.51,-220.903 530.09,-221.458 522.165,-214.426 519.51,-220.903"/>
</g>
<!-- Node8 -->
<g id="node8" class="node"><title>Node8</title>
<g id="a_node8"><a xlink:href="namespacetlz.html#a8e4f8c8c2927bc4350de13bfa0f8f9e1" target="_top" xlink:title="tlz::to_string">
<polygon fill="white" stroke="black" points="518.5,-164.5 518.5,-183.5 589.5,-183.5 589.5,-164.5 518.5,-164.5"/>
<text text-anchor="middle" x="554" y="-171.5" font-family="Helvetica,sans-Serif" font-size="10.00">tlz::to_string</text>
</a>
</g>
</g>
<!-- Node6&#45;&gt;Node8 -->
<g id="edge7" class="edge"><title>Node6&#45;&gt;Node8</title>
<path fill="none" stroke="midnightblue" d="M458.113,-174C474.441,-174 492.096,-174 507.698,-174"/>
<polygon fill="midnightblue" stroke="midnightblue" points="508.13,-177.5 518.13,-174 508.129,-170.5 508.13,-177.5"/>
</g>
<!-- Node10&#45;&gt;Node4 -->
<g id="edge12" class="edge"><title>Node10&#45;&gt;Node4</title>
<path fill="none" stroke="midnightblue" d="M181.263,-212C192.309,-212 203.89,-212 214.722,-212"/>
<polygon fill="midnightblue" stroke="midnightblue" points="214.835,-215.5 224.835,-212 214.835,-208.5 214.835,-215.5"/>
</g>
<!-- Node11&#45;&gt;Node5 -->
<g id="edge14" class="edge"><title>Node11&#45;&gt;Node5</title>
<path fill="none" stroke="midnightblue" d="M294.294,-241.567C315.408,-235.689 343.63,-227.832 365.674,-221.695"/>
<polygon fill="midnightblue" stroke="midnightblue" points="366.625,-225.064 375.32,-219.01 364.747,-218.32 366.625,-225.064"/>
</g>
<!-- Node11&#45;&gt;Node6 -->
<g id="edge15" class="edge"><title>Node11&#45;&gt;Node6</title>
<path fill="none" stroke="midnightblue" d="M291.6,-240.474C297.584,-237.837 303.702,-234.671 309,-231 328.122,-217.75 325.428,-205.576 345,-193 348.141,-190.982 351.52,-189.152 355.005,-187.498"/>
<polygon fill="midnightblue" stroke="midnightblue" points="356.545,-190.647 364.386,-183.522 353.813,-184.202 356.545,-190.647"/>
</g>
<!-- Node11&#45;&gt;Node7 -->
<g id="edge16" class="edge"><title>Node11&#45;&gt;Node7</title>
<path fill="none" stroke="midnightblue" d="M294.11,-248.02C338.663,-245.091 423.374,-239.522 483.761,-235.552"/>
<polygon fill="midnightblue" stroke="midnightblue" points="484.235,-239.029 493.984,-234.88 483.776,-232.044 484.235,-239.029"/>
</g>
<!-- Node12&#45;&gt;Node5 -->
<g id="edge18" class="edge"><title>Node12&#45;&gt;Node5</title>
<path fill="none" stroke="midnightblue" d="M162.674,-145.548C214.574,-160.05 312.77,-187.487 365.283,-202.16"/>
<polygon fill="midnightblue" stroke="midnightblue" points="364.576,-205.597 375.149,-204.917 366.46,-198.855 364.576,-205.597"/>
</g>
<!-- Node13 -->
<g id="node13" class="node"><title>Node13</title>
<g id="a_node13"><a xlink:href="classtlz_1_1args__list.html#a4aee93f4b0d9b5b4e7a5d13cb637337c" target="_top" xlink:title="tlz::args_list::has\l_next_arg">
<polygon fill="white" stroke="black" points="217,-39 217,-69 309,-69 309,-39 217,-39"/>
<text text-anchor="start" x="225" y="-57" font-family="Helvetica,sans-Serif" font-size="10.00">tlz::args_list::has</text>
<text text-anchor="middle" x="263" y="-46" font-family="Helvetica,sans-Serif" font-size="10.00">_next_arg</text>
</a>
</g>
</g>
<!-- Node12&#45;&gt;Node13 -->
<g id="edge19" class="edge"><title>Node12&#45;&gt;Node13</title>
<path fill="none" stroke="midnightblue" d="M142.729,-126.429C160.066,-114.862 190.347,-94.964 217,-79 219.76,-77.3468 222.634,-75.6642 225.535,-73.9931"/>
<polygon fill="midnightblue" stroke="midnightblue" points="227.264,-77.0364 234.232,-69.0555 223.808,-70.949 227.264,-77.0364"/>
</g>
<!-- Node14 -->
<g id="node14" class="node"><title>Node14</title>
<g id="a_node14"><a xlink:href="namespacetlz.html#aea648783e0ac6c50afae30a01cfc260d" target="_top" xlink:title="tlz::enum_arg">
<polygon fill="white" stroke="black" points="225,-88.5 225,-107.5 301,-107.5 301,-88.5 225,-88.5"/>
<text text-anchor="middle" x="263" y="-95.5" font-family="Helvetica,sans-Serif" font-size="10.00">tlz::enum_arg</text>
</a>
</g>
</g>
<!-- Node12&#45;&gt;Node14 -->
<g id="edge20" class="edge"><title>Node12&#45;&gt;Node14</title>
<path fill="none" stroke="midnightblue" d="M162.188,-126.411C179.263,-121.551 200.2,-115.591 218.482,-110.387"/>
<polygon fill="midnightblue" stroke="midnightblue" points="219.663,-113.69 228.323,-107.586 217.747,-106.957 219.663,-113.69"/>
</g>
<!-- Node15 -->
<g id="node15" class="node"><title>Node15</title>
<g id="a_node15"><a xlink:href="namespacetlz.html#ac18630fe66cc71c8cc5eb6acce057f5f" target="_top" xlink:title="tlz::bool_arg">
<polygon fill="white" stroke="black" points="228,-126.5 228,-145.5 298,-145.5 298,-126.5 228,-126.5"/>
<text text-anchor="middle" x="263" y="-133.5" font-family="Helvetica,sans-Serif" font-size="10.00">tlz::bool_arg</text>
</a>
</g>
</g>
<!-- Node12&#45;&gt;Node15 -->
<g id="edge24" class="edge"><title>Node12&#45;&gt;Node15</title>
<path fill="none" stroke="midnightblue" d="M175.192,-136C188.973,-136 204.011,-136 217.641,-136"/>
<polygon fill="midnightblue" stroke="midnightblue" points="217.745,-139.5 227.745,-136 217.745,-132.5 217.745,-139.5"/>
</g>
<!-- Node14&#45;&gt;Node5 -->
<g id="edge21" class="edge"><title>Node14&#45;&gt;Node5</title>
<path fill="none" stroke="midnightblue" d="M295.355,-107.695C300.309,-110.181 305.081,-113.245 309,-117 335.989,-142.856 317.127,-168.1 345,-193 350.862,-198.237 358.234,-202.043 365.672,-204.805"/>
<polygon fill="midnightblue" stroke="midnightblue" points="364.778,-208.193 375.368,-207.867 366.887,-201.518 364.778,-208.193"/>
</g>
<!-- Node14&#45;&gt;Node6 -->
<g id="edge22" class="edge"><title>Node14&#45;&gt;Node6</title>
<path fill="none" stroke="midnightblue" d="M288.611,-107.567C295.323,-110.397 302.525,-113.643 309,-117 333.336,-129.618 359.777,-146.456 377.948,-158.555"/>
<polygon fill="midnightblue" stroke="midnightblue" points="376.39,-161.725 386.641,-164.402 380.297,-155.917 376.39,-161.725"/>
</g>
<!-- Node14&#45;&gt;Node7 -->
<g id="edge23" class="edge"><title>Node14&#45;&gt;Node7</title>
<path fill="none" stroke="midnightblue" d="M301.013,-102.966C341.881,-109.739 408.443,-124.678 458,-155 477.845,-167.142 476.092,-178.15 494,-193 504.155,-201.421 516.275,-209.517 526.881,-216.056"/>
<polygon fill="midnightblue" stroke="midnightblue" points="525.35,-219.219 535.724,-221.371 528.956,-213.219 525.35,-219.219"/>
</g>
<!-- Node15&#45;&gt;Node5 -->
<g id="edge25" class="edge"><title>Node15&#45;&gt;Node5</title>
<path fill="none" stroke="midnightblue" d="M284.805,-145.709C292.648,-149.722 301.484,-154.68 309,-160 326.716,-172.54 326.338,-181.917 345,-193 351.381,-196.79 358.627,-199.961 365.728,-202.56"/>
<polygon fill="midnightblue" stroke="midnightblue" points="364.632,-205.884 375.226,-205.752 366.863,-199.249 364.632,-205.884"/>
</g>
<!-- Node15&#45;&gt;Node6 -->
<g id="edge26" class="edge"><title>Node15&#45;&gt;Node6</title>
<path fill="none" stroke="midnightblue" d="M298.093,-145.491C315.764,-150.41 337.551,-156.476 356.48,-161.745"/>
<polygon fill="midnightblue" stroke="midnightblue" points="355.797,-165.188 366.369,-164.498 357.674,-158.445 355.797,-165.188"/>
</g>
<!-- Node17 -->
<g id="node17" class="node"><title>Node17</title>
<g id="a_node17"><a xlink:href="vsrs__disparity_8cc.html#ae481341cfb6403843494cfdd000fcf1b" target="_top" xlink:title="append_null_tail">
<polygon fill="white" stroke="black" points="220,-0.5 220,-19.5 306,-19.5 306,-0.5 220,-0.5"/>
<text text-anchor="middle" x="263" y="-7.5" font-family="Helvetica,sans-Serif" font-size="10.00">append_null_tail</text>
</a>
</g>
</g>
<!-- Node16&#45;&gt;Node17 -->
<g id="edge28" class="edge"><title>Node16&#45;&gt;Node17</title>
<path fill="none" stroke="midnightblue" d="M157.468,-44.4527C176.798,-38.0814 202.433,-29.6325 223.479,-22.6962"/>
<polygon fill="midnightblue" stroke="midnightblue" points="224.687,-25.9831 233.089,-19.5287 222.496,-19.3349 224.687,-25.9831"/>
</g>
</g>
</svg>
