<?xml version="1.0" encoding="UTF-8" standalone="no"?>
<!DOCTYPE svg PUBLIC "-//W3C//DTD SVG 1.1//EN"
 "http://www.w3.org/Graphics/SVG/1.1/DTD/svg11.dtd">
<!-- Generated by graphviz version 2.38.0 (20140413.2041)
 -->
<!-- Title: main Pages: 1 -->
<svg width="610pt" height="218pt"
 viewBox="0.00 0.00 610.00 218.00" xmlns="http://www.w3.org/2000/svg" xmlns:xlink="http://www.w3.org/1999/xlink">
<g id="graph0" class="graph" transform="scale(1 1) rotate(0) translate(4 214)">
<title>main</title>
<polygon fill="white" stroke="none" points="-4,4 -4,-214 606,-214 606,4 -4,4"/>
<!-- Node1 -->
<g id="node1" class="node"><title>Node1</title>
<polygon fill="#bfbfbf" stroke="black" points="0,-95.5 0,-114.5 38,-114.5 38,-95.5 0,-95.5"/>
<text text-anchor="middle" x="19" y="-102.5" font-family="Helvetica,sans-Serif" font-size="10.00">main</text>
</g>
<!-- Node2 -->
<g id="node2" class="node"><title>Node2</title>
<g id="a_node2"><a xlink:href="namespacetlz.html#a3c03f5d9d6261ec2909938822fc47f8a" target="_top" xlink:title="tlz::get_args">
<polygon fill="white" stroke="black" points="93.5,-190.5 93.5,-209.5 164.5,-209.5 164.5,-190.5 93.5,-190.5"/>
<text text-anchor="middle" x="129" y="-197.5" font-family="Helvetica,sans-Serif" font-size="10.00">tlz::get_args</text>
</a>
</g>
</g>
<!-- Node1&#45;&gt;Node2 -->
<g id="edge1" class="edge"><title>Node1&#45;&gt;Node2</title>
<path fill="none" stroke="midnightblue" d="M25.2472,-114.737C33.7311,-129.69 51.7757,-158.415 74,-176 78.7932,-179.793 84.2801,-183.12 89.8783,-185.993"/>
<polygon fill="midnightblue" stroke="midnightblue" points="88.7608,-189.334 99.3017,-190.401 91.7269,-182.994 88.7608,-189.334"/>
</g>
<!-- Node3 -->
<g id="node3" class="node"><title>Node3</title>
<g id="a_node3"><a xlink:href="namespacetlz.html#a634de7ca11e100e4a118dffe80376a75" target="_top" xlink:title="tlz::in_filename_arg">
<polygon fill="white" stroke="black" points="78.5,-76.5 78.5,-95.5 179.5,-95.5 179.5,-76.5 78.5,-76.5"/>
<text text-anchor="middle" x="129" y="-83.5" font-family="Helvetica,sans-Serif" font-size="10.00">tlz::in_filename_arg</text>
</a>
</g>
</g>
<!-- Node1&#45;&gt;Node3 -->
<g id="edge2" class="edge"><title>Node1&#45;&gt;Node3</title>
<path fill="none" stroke="midnightblue" d="M38.3207,-101.777C46.7988,-100.285 57.4006,-98.4203 68.3158,-96.5"/>
<polygon fill="midnightblue" stroke="midnightblue" points="69.1337,-99.9099 78.376,-94.7302 67.9208,-93.0158 69.1337,-99.9099"/>
</g>
<!-- Node10 -->
<g id="node10" class="node"><title>Node10</title>
<g id="a_node10"><a xlink:href="namespacetlz.html#a65770a2c1ff57c5ae6542d4465a3d3f4" target="_top" xlink:title="tlz::out_filename_arg">
<polygon fill="white" stroke="black" points="75.5,-114.5 75.5,-133.5 182.5,-133.5 182.5,-114.5 75.5,-114.5"/>
<text text-anchor="middle" x="129" y="-121.5" font-family="Helvetica,sans-Serif" font-size="10.00">tlz::out_filename_arg</text>
</a>
</g>
</g>
<!-- Node1&#45;&gt;Node10 -->
<g id="edge11" class="edge"><title>Node1&#45;&gt;Node10</title>
<path fill="none" stroke="midnightblue" d="M38.3207,-108.223C45.9939,-109.573 55.4067,-111.229 65.2169,-112.955"/>
<polygon fill="midnightblue" stroke="midnightblue" points="64.6546,-116.41 75.1098,-114.695 65.8675,-109.515 64.6546,-116.41"/>
</g>
<!-- Node11 -->
<g id="node11" class="node"><title>Node11</title>
<g id="a_node11"><a xlink:href="namespacetlz.html#aea648783e0ac6c50afae30a01cfc260d" target="_top" xlink:title="tlz::enum_arg">
<polygon fill="white" stroke="black" points="220.5,-152.5 220.5,-171.5 296.5,-171.5 296.5,-152.5 220.5,-152.5"/>
<text text-anchor="middle" x="258.5" y="-159.5" font-family="Helvetica,sans-Serif" font-size="10.00">tlz::enum_arg</text>
</a>
</g>
</g>
<!-- Node1&#45;&gt;Node11 -->
<g id="edge13" class="edge"><title>Node1&#45;&gt;Node11</title>
<path fill="none" stroke="midnightblue" d="M30.2241,-114.651C40.4431,-123.663 57.0371,-136.65 74,-143 118.142,-159.524 172.173,-163.329 210.137,-163.577"/>
<polygon fill="midnightblue" stroke="midnightblue" points="210.402,-167.077 220.396,-163.561 210.391,-160.077 210.402,-167.077"/>
</g>
<!-- Node12 -->
<g id="node12" class="node"><title>Node12</title>
<g id="a_node12"><a xlink:href="namespacetlz.html#ae3f8393be662f8f617b5350138b7002f" target="_top" xlink:title="tlz::export_raw_color">
<polygon fill="white" stroke="black" points="75.5,-38.5 75.5,-57.5 182.5,-57.5 182.5,-38.5 75.5,-38.5"/>
<text text-anchor="middle" x="129" y="-45.5" font-family="Helvetica,sans-Serif" font-size="10.00">tlz::export_raw_color</text>
</a>
</g>
</g>
<!-- Node1&#45;&gt;Node12 -->
<g id="edge17" class="edge"><title>Node1&#45;&gt;Node12</title>
<path fill="none" stroke="midnightblue" d="M31.8261,-95.2326C42.3777,-86.8809 58.5105,-74.9808 74,-67 78.035,-64.921 82.3489,-62.9791 86.7139,-61.1915"/>
<polygon fill="midnightblue" stroke="midnightblue" points="88.1779,-64.3788 96.2627,-57.5314 85.6725,-57.8425 88.1779,-64.3788"/>
</g>
<!-- Node13 -->
<g id="node13" class="node"><title>Node13</title>
<g id="a_node13"><a xlink:href="namespacetlz.html#abe3f12fe91d69fddc9db8e838da1af11" target="_top" xlink:title="tlz::export_raw_mono">
<polygon fill="white" stroke="black" points="74,-0.5 74,-19.5 184,-19.5 184,-0.5 74,-0.5"/>
<text text-anchor="middle" x="129" y="-7.5" font-family="Helvetica,sans-Serif" font-size="10.00">tlz::export_raw_mono</text>
</a>
</g>
</g>
<!-- Node1&#45;&gt;Node13 -->
<g id="edge18" class="edge"><title>Node1&#45;&gt;Node13</title>
<path fill="none" stroke="midnightblue" d="M24.3855,-95.3822C32.1549,-79.3706 49.8255,-47.2134 74,-29 76.4607,-27.1461 79.1173,-25.4626 81.8862,-23.9353"/>
<polygon fill="midnightblue" stroke="midnightblue" points="83.4984,-27.044 91.0102,-19.5725 80.4787,-20.7289 83.4984,-27.044"/>
</g>
<!-- Node4 -->
<g id="node4" class="node"><title>Node4</title>
<g id="a_node4"><a xlink:href="namespacetlz.html#a0621d598fb83b13bf028f3e6293d04f8" target="_top" xlink:title="tlz::string_arg">
<polygon fill="white" stroke="black" points="220.5,-114.5 220.5,-133.5 296.5,-133.5 296.5,-114.5 220.5,-114.5"/>
<text text-anchor="middle" x="258.5" y="-121.5" font-family="Helvetica,sans-Serif" font-size="10.00">tlz::string_arg</text>
</a>
</g>
</g>
<!-- Node3&#45;&gt;Node4 -->
<g id="edge3" class="edge"><title>Node3&#45;&gt;Node4</title>
<path fill="none" stroke="midnightblue" d="M162.174,-95.589C178.331,-100.404 198.108,-106.299 215.452,-111.468"/>
<polygon fill="midnightblue" stroke="midnightblue" points="214.754,-114.912 225.337,-114.414 216.753,-108.204 214.754,-114.912"/>
</g>
<!-- Node5 -->
<g id="node5" class="node"><title>Node5</title>
<g id="a_node5"><a xlink:href="namespacetlz.html#a780431daab8d2595372eacb43143b52d" target="_top" xlink:title="tlz::args">
<polygon fill="white" stroke="black" points="363.5,-76.5 363.5,-95.5 415.5,-95.5 415.5,-76.5 363.5,-76.5"/>
<text text-anchor="middle" x="389.5" y="-83.5" font-family="Helvetica,sans-Serif" font-size="10.00">tlz::args</text>
</a>
</g>
</g>
<!-- Node3&#45;&gt;Node5 -->
<g id="edge9" class="edge"><title>Node3&#45;&gt;Node5</title>
<path fill="none" stroke="midnightblue" d="M166.508,-76.491C182.761,-72.7261 202.211,-68.8573 220,-67 254.037,-63.4463 262.957,-63.5028 297,-67 315.845,-68.936 336.535,-73.0587 353.466,-76.9705"/>
<polygon fill="midnightblue" stroke="midnightblue" points="352.933,-80.4415 363.472,-79.3576 354.557,-73.6326 352.933,-80.4415"/>
</g>
<!-- Node7 -->
<g id="node7" class="node"><title>Node7</title>
<g id="a_node7"><a xlink:href="classtlz_1_1args__list.html#a38ad21acd64a4af98ffdf4a47837cdbe" target="_top" xlink:title="tlz::args_list::usage_fail">
<polygon fill="white" stroke="black" points="482,-133.5 482,-152.5 602,-152.5 602,-133.5 482,-133.5"/>
<text text-anchor="middle" x="542" y="-140.5" font-family="Helvetica,sans-Serif" font-size="10.00">tlz::args_list::usage_fail</text>
</a>
</g>
</g>
<!-- Node3&#45;&gt;Node7 -->
<g id="edge10" class="edge"><title>Node3&#45;&gt;Node7</title>
<path fill="none" stroke="midnightblue" d="M155.96,-76.3932C173.714,-70.3495 197.938,-63.1228 220,-60 267.028,-53.3432 442.64,-65.0438 446,-67 471.894,-82.0751 458.321,-105.641 482,-124 484.43,-125.884 487.053,-127.585 489.796,-129.119"/>
<polygon fill="midnightblue" stroke="midnightblue" points="488.341,-132.303 498.871,-133.474 491.369,-125.992 488.341,-132.303"/>
</g>
<!-- Node9 -->
<g id="node9" class="node"><title>Node9</title>
<g id="a_node9"><a xlink:href="namespacetlz.html#abb019466ea9f56c0dab27e893d891837" target="_top" xlink:title="tlz::file_exists">
<polygon fill="white" stroke="black" points="220,-76.5 220,-95.5 297,-95.5 297,-76.5 220,-76.5"/>
<text text-anchor="middle" x="258.5" y="-83.5" font-family="Helvetica,sans-Serif" font-size="10.00">tlz::file_exists</text>
</a>
</g>
</g>
<!-- Node3&#45;&gt;Node9 -->
<g id="edge8" class="edge"><title>Node3&#45;&gt;Node9</title>
<path fill="none" stroke="midnightblue" d="M179.66,-86C189.416,-86 199.636,-86 209.342,-86"/>
<polygon fill="midnightblue" stroke="midnightblue" points="209.626,-89.5001 219.626,-86 209.626,-82.5001 209.626,-89.5001"/>
</g>
<!-- Node4&#45;&gt;Node5 -->
<g id="edge4" class="edge"><title>Node4&#45;&gt;Node5</title>
<path fill="none" stroke="midnightblue" d="M292.052,-114.411C310.78,-108.894 334.314,-101.962 353.447,-96.3257"/>
<polygon fill="midnightblue" stroke="midnightblue" points="354.679,-99.6114 363.283,-93.4283 352.701,-92.8967 354.679,-99.6114"/>
</g>
<!-- Node6 -->
<g id="node6" class="node"><title>Node6</title>
<g id="a_node6"><a xlink:href="classtlz_1_1args__list.html#a73d99bc75998dc14607a3a372d28dc6d" target="_top" xlink:title="tlz::args_list::next_arg">
<polygon fill="white" stroke="black" points="333,-114.5 333,-133.5 446,-133.5 446,-114.5 333,-114.5"/>
<text text-anchor="middle" x="389.5" y="-121.5" font-family="Helvetica,sans-Serif" font-size="10.00">tlz::args_list::next_arg</text>
</a>
</g>
</g>
<!-- Node4&#45;&gt;Node6 -->
<g id="edge5" class="edge"><title>Node4&#45;&gt;Node6</title>
<path fill="none" stroke="midnightblue" d="M296.812,-124C304.835,-124 313.544,-124 322.295,-124"/>
<polygon fill="midnightblue" stroke="midnightblue" points="322.549,-127.5 332.549,-124 322.549,-120.5 322.549,-127.5"/>
</g>
<!-- Node6&#45;&gt;Node7 -->
<g id="edge6" class="edge"><title>Node6&#45;&gt;Node7</title>
<path fill="none" stroke="midnightblue" d="M446.113,-131.021C454.479,-132.077 463.192,-133.177 471.8,-134.264"/>
<polygon fill="midnightblue" stroke="midnightblue" points="471.468,-137.75 481.828,-135.53 472.345,-130.805 471.468,-137.75"/>
</g>
<!-- Node8 -->
<g id="node8" class="node"><title>Node8</title>
<g id="a_node8"><a xlink:href="namespacetlz.html#a8e4f8c8c2927bc4350de13bfa0f8f9e1" target="_top" xlink:title="tlz::to_string">
<polygon fill="white" stroke="black" points="506.5,-95.5 506.5,-114.5 577.5,-114.5 577.5,-95.5 506.5,-95.5"/>
<text text-anchor="middle" x="542" y="-102.5" font-family="Helvetica,sans-Serif" font-size="10.00">tlz::to_string</text>
</a>
</g>
</g>
<!-- Node6&#45;&gt;Node8 -->
<g id="edge7" class="edge"><title>Node6&#45;&gt;Node8</title>
<path fill="none" stroke="midnightblue" d="M446.113,-116.979C462.598,-114.898 480.435,-112.646 496.147,-110.662"/>
<polygon fill="midnightblue" stroke="midnightblue" points="496.647,-114.127 506.13,-109.402 495.77,-107.182 496.647,-114.127"/>
</g>
<!-- Node10&#45;&gt;Node4 -->
<g id="edge12" class="edge"><title>Node10&#45;&gt;Node4</title>
<path fill="none" stroke="midnightblue" d="M182.595,-124C191.667,-124 201.05,-124 209.978,-124"/>
<polygon fill="midnightblue" stroke="midnightblue" points="210.204,-127.5 220.204,-124 210.204,-120.5 210.204,-127.5"/>
</g>
<!-- Node11&#45;&gt;Node5 -->
<g id="edge14" class="edge"><title>Node11&#45;&gt;Node5</title>
<path fill="none" stroke="midnightblue" d="M281.665,-152.356C286.902,-149.654 292.319,-146.49 297,-143 315.651,-129.094 313.428,-117.576 333,-105 339.303,-100.95 346.566,-97.6587 353.718,-95.0245"/>
<polygon fill="midnightblue" stroke="midnightblue" points="354.92,-98.3132 363.299,-91.8301 352.706,-91.6725 354.92,-98.3132"/>
</g>
<!-- Node11&#45;&gt;Node6 -->
<g id="edge15" class="edge"><title>Node11&#45;&gt;Node6</title>
<path fill="none" stroke="midnightblue" d="M292.052,-152.411C308.399,-147.596 328.409,-141.701 345.957,-136.532"/>
<polygon fill="midnightblue" stroke="midnightblue" points="347.355,-139.769 355.958,-133.586 345.377,-133.054 347.355,-139.769"/>
</g>
<!-- Node11&#45;&gt;Node7 -->
<g id="edge16" class="edge"><title>Node11&#45;&gt;Node7</title>
<path fill="none" stroke="midnightblue" d="M296.591,-159.497C341.074,-156.494 416.555,-151.399 471.891,-147.665"/>
<polygon fill="midnightblue" stroke="midnightblue" points="472.236,-151.149 481.977,-146.984 471.764,-144.165 472.236,-151.149"/>
</g>
</g>
</svg>
