<?xml version="1.0" encoding="UTF-8" standalone="no"?>
<!DOCTYPE svg PUBLIC "-//W3C//DTD SVG 1.1//EN"
 "http://www.w3.org/Graphics/SVG/1.1/DTD/svg11.dtd">
<!-- Generated by graphviz version 2.38.0 (20140413.2041)
 -->
<!-- Title: main Pages: 1 -->
<svg width="610pt" height="256pt"
 viewBox="0.00 0.00 610.00 256.00" xmlns="http://www.w3.org/2000/svg" xmlns:xlink="http://www.w3.org/1999/xlink">
<g id="graph0" class="graph" transform="scale(1 1) rotate(0) translate(4 252)">
<title>main</title>
<polygon fill="white" stroke="none" points="-4,4 -4,-252 606,-252 606,4 -4,4"/>
<!-- Node1 -->
<g id="node1" class="node"><title>Node1</title>
<polygon fill="#bfbfbf" stroke="black" points="0,-114.5 0,-133.5 38,-133.5 38,-114.5 0,-114.5"/>
<text text-anchor="middle" x="19" y="-121.5" font-family="Helvetica,sans-Serif" font-size="10.00">main</text>
</g>
<!-- Node2 -->
<g id="node2" class="node"><title>Node2</title>
<g id="a_node2"><a xlink:href="namespacetlz.html#a3c03f5d9d6261ec2909938822fc47f8a" target="_top" xlink:title="tlz::get_args">
<polygon fill="white" stroke="black" points="93.5,-228.5 93.5,-247.5 164.5,-247.5 164.5,-228.5 93.5,-228.5"/>
<text text-anchor="middle" x="129" y="-235.5" font-family="Helvetica,sans-Serif" font-size="10.00">tlz::get_args</text>
</a>
</g>
</g>
<!-- Node1&#45;&gt;Node2 -->
<g id="edge1" class="edge"><title>Node1&#45;&gt;Node2</title>
<path fill="none" stroke="midnightblue" d="M22.9016,-133.57C29.1403,-152.574 45.6131,-195.278 74,-219 77.0862,-221.579 80.5461,-223.818 84.1844,-225.759"/>
<polygon fill="midnightblue" stroke="midnightblue" points="82.9334,-229.035 93.4846,-229.996 85.8356,-222.665 82.9334,-229.035"/>
</g>
<!-- Node3 -->
<g id="node3" class="node"><title>Node3</title>
<g id="a_node3"><a xlink:href="namespacetlz.html#a634de7ca11e100e4a118dffe80376a75" target="_top" xlink:title="tlz::in_filename_arg">
<polygon fill="white" stroke="black" points="78.5,-152.5 78.5,-171.5 179.5,-171.5 179.5,-152.5 78.5,-152.5"/>
<text text-anchor="middle" x="129" y="-159.5" font-family="Helvetica,sans-Serif" font-size="10.00">tlz::in_filename_arg</text>
</a>
</g>
</g>
<!-- Node1&#45;&gt;Node3 -->
<g id="edge2" class="edge"><title>Node1&#45;&gt;Node3</title>
<path fill="none" stroke="midnightblue" d="M38.3207,-130.446C52.7417,-135.52 73.3075,-142.756 91.1076,-149.019"/>
<polygon fill="midnightblue" stroke="midnightblue" points="90.0606,-152.361 100.655,-152.379 92.384,-145.758 90.0606,-152.361"/>
</g>
<!-- Node10 -->
<g id="node10" class="node"><title>Node10</title>
<g id="a_node10"><a xlink:href="namespacetlz.html#a65770a2c1ff57c5ae6542d4465a3d3f4" target="_top" xlink:title="tlz::out_filename_arg">
<polygon fill="white" stroke="black" points="75.5,-190.5 75.5,-209.5 182.5,-209.5 182.5,-190.5 75.5,-190.5"/>
<text text-anchor="middle" x="129" y="-197.5" font-family="Helvetica,sans-Serif" font-size="10.00">tlz::out_filename_arg</text>
</a>
</g>
</g>
<!-- Node1&#45;&gt;Node10 -->
<g id="edge11" class="edge"><title>Node1&#45;&gt;Node10</title>
<path fill="none" stroke="midnightblue" d="M26.9467,-133.825C36.305,-146.399 54.1001,-168.093 74,-181 77.1008,-183.011 80.4402,-184.839 83.8834,-186.494"/>
<polygon fill="midnightblue" stroke="midnightblue" points="82.5788,-189.743 93.148,-190.48 85.3453,-183.313 82.5788,-189.743"/>
</g>
<!-- Node11 -->
<g id="node11" class="node"><title>Node11</title>
<g id="a_node11"><a xlink:href="namespacetlz.html#af0d1e8ba5b9f2dbc2b589afab3a21fc8" target="_top" xlink:title="tlz::int_arg">
<polygon fill="white" stroke="black" points="227.5,-114.5 227.5,-133.5 289.5,-133.5 289.5,-114.5 227.5,-114.5"/>
<text text-anchor="middle" x="258.5" y="-121.5" font-family="Helvetica,sans-Serif" font-size="10.00">tlz::int_arg</text>
</a>
</g>
</g>
<!-- Node1&#45;&gt;Node11 -->
<g id="edge13" class="edge"><title>Node1&#45;&gt;Node11</title>
<path fill="none" stroke="midnightblue" d="M38.2419,-124C76.2475,-124 164.706,-124 216.91,-124"/>
<polygon fill="midnightblue" stroke="midnightblue" points="217.155,-127.5 227.155,-124 217.155,-120.5 217.155,-127.5"/>
</g>
<!-- Node12 -->
<g id="node12" class="node"><title>Node12</title>
<g id="a_node12"><a xlink:href="namespacetlz.html#aea648783e0ac6c50afae30a01cfc260d" target="_top" xlink:title="tlz::enum_arg">
<polygon fill="white" stroke="black" points="220.5,-76.5 220.5,-95.5 296.5,-95.5 296.5,-76.5 220.5,-76.5"/>
<text text-anchor="middle" x="258.5" y="-83.5" font-family="Helvetica,sans-Serif" font-size="10.00">tlz::enum_arg</text>
</a>
</g>
</g>
<!-- Node1&#45;&gt;Node12 -->
<g id="edge17" class="edge"><title>Node1&#45;&gt;Node12</title>
<path fill="none" stroke="midnightblue" d="M38.2419,-121.081C74.6975,-115.248 157.574,-101.988 210.348,-93.5444"/>
<polygon fill="midnightblue" stroke="midnightblue" points="211.157,-96.9595 220.478,-91.9235 210.051,-90.0474 211.157,-96.9595"/>
</g>
<!-- Node13 -->
<g id="node13" class="node"><title>Node13</title>
<g id="a_node13"><a xlink:href="namespacetlz.html#a3bddcd47f2814721b6dcbce3ff38ad29" target="_top" xlink:title="tlz::import_raw_color">
<polygon fill="white" stroke="black" points="75.5,-38.5 75.5,-57.5 182.5,-57.5 182.5,-38.5 75.5,-38.5"/>
<text text-anchor="middle" x="129" y="-45.5" font-family="Helvetica,sans-Serif" font-size="10.00">tlz::import_raw_color</text>
</a>
</g>
</g>
<!-- Node1&#45;&gt;Node13 -->
<g id="edge21" class="edge"><title>Node1&#45;&gt;Node13</title>
<path fill="none" stroke="midnightblue" d="M28.3253,-114.118C38.2731,-102.788 55.8602,-84.2082 74,-72 79.6613,-68.1899 86.0262,-64.7395 92.3469,-61.7191"/>
<polygon fill="midnightblue" stroke="midnightblue" points="93.8029,-64.9021 101.489,-57.6097 90.9328,-58.5175 93.8029,-64.9021"/>
</g>
<!-- Node14 -->
<g id="node14" class="node"><title>Node14</title>
<g id="a_node14"><a xlink:href="namespacetlz.html#aca079a3372b17056eb30950d52737d38" target="_top" xlink:title="tlz::import_raw_mono">
<polygon fill="white" stroke="black" points="74,-0.5 74,-19.5 184,-19.5 184,-0.5 74,-0.5"/>
<text text-anchor="middle" x="129" y="-7.5" font-family="Helvetica,sans-Serif" font-size="10.00">tlz::import_raw_mono</text>
</a>
</g>
</g>
<!-- Node1&#45;&gt;Node14 -->
<g id="edge22" class="edge"><title>Node1&#45;&gt;Node14</title>
<path fill="none" stroke="midnightblue" d="M22.9016,-114.43C29.1403,-95.4256 45.6131,-52.7223 74,-29 76.0352,-27.2992 78.2329,-25.7466 80.5372,-24.3296"/>
<polygon fill="midnightblue" stroke="midnightblue" points="82.5664,-27.2201 89.8342,-19.511 79.3453,-21.0052 82.5664,-27.2201"/>
</g>
<!-- Node4 -->
<g id="node4" class="node"><title>Node4</title>
<g id="a_node4"><a xlink:href="namespacetlz.html#a0621d598fb83b13bf028f3e6293d04f8" target="_top" xlink:title="tlz::string_arg">
<polygon fill="white" stroke="black" points="220.5,-228.5 220.5,-247.5 296.5,-247.5 296.5,-228.5 220.5,-228.5"/>
<text text-anchor="middle" x="258.5" y="-235.5" font-family="Helvetica,sans-Serif" font-size="10.00">tlz::string_arg</text>
</a>
</g>
</g>
<!-- Node3&#45;&gt;Node4 -->
<g id="edge3" class="edge"><title>Node3&#45;&gt;Node4</title>
<path fill="none" stroke="midnightblue" d="M164.852,-171.52C171.481,-174.079 178.163,-177.214 184,-181 203.519,-193.659 201.349,-205.094 220,-219 222.048,-220.527 224.237,-221.991 226.49,-223.382"/>
<polygon fill="midnightblue" stroke="midnightblue" points="224.903,-226.505 235.335,-228.356 228.334,-220.404 224.903,-226.505"/>
</g>
<!-- Node5 -->
<g id="node5" class="node"><title>Node5</title>
<g id="a_node5"><a xlink:href="namespacetlz.html#a780431daab8d2595372eacb43143b52d" target="_top" xlink:title="tlz::args">
<polygon fill="white" stroke="black" points="363.5,-171.5 363.5,-190.5 415.5,-190.5 415.5,-171.5 363.5,-171.5"/>
<text text-anchor="middle" x="389.5" y="-178.5" font-family="Helvetica,sans-Serif" font-size="10.00">tlz::args</text>
</a>
</g>
</g>
<!-- Node3&#45;&gt;Node5 -->
<g id="edge9" class="edge"><title>Node3&#45;&gt;Node5</title>
<path fill="none" stroke="midnightblue" d="M179.536,-165.641C230.431,-169.382 308.381,-175.111 353.296,-178.412"/>
<polygon fill="midnightblue" stroke="midnightblue" points="353.201,-181.915 363.431,-179.157 353.714,-174.934 353.201,-181.915"/>
</g>
<!-- Node7 -->
<g id="node7" class="node"><title>Node7</title>
<g id="a_node7"><a xlink:href="classtlz_1_1args__list.html#a38ad21acd64a4af98ffdf4a47837cdbe" target="_top" xlink:title="tlz::args_list::usage_fail">
<polygon fill="white" stroke="black" points="482,-76.5 482,-95.5 602,-95.5 602,-76.5 482,-76.5"/>
<text text-anchor="middle" x="542" y="-83.5" font-family="Helvetica,sans-Serif" font-size="10.00">tlz::args_list::usage_fail</text>
</a>
</g>
</g>
<!-- Node3&#45;&gt;Node7 -->
<g id="edge10" class="edge"><title>Node3&#45;&gt;Node7</title>
<path fill="none" stroke="midnightblue" d="M135.402,-152.318C147.437,-131.884 178.677,-84.7745 220,-67 315.459,-25.9403 441.806,-54.6344 503.657,-73.3536"/>
<polygon fill="midnightblue" stroke="midnightblue" points="502.782,-76.7469 513.371,-76.3734 504.86,-70.0624 502.782,-76.7469"/>
</g>
<!-- Node9 -->
<g id="node9" class="node"><title>Node9</title>
<g id="a_node9"><a xlink:href="namespacetlz.html#abb019466ea9f56c0dab27e893d891837" target="_top" xlink:title="tlz::file_exists">
<polygon fill="white" stroke="black" points="220,-190.5 220,-209.5 297,-209.5 297,-190.5 220,-190.5"/>
<text text-anchor="middle" x="258.5" y="-197.5" font-family="Helvetica,sans-Serif" font-size="10.00">tlz::file_exists</text>
</a>
</g>
</g>
<!-- Node3&#45;&gt;Node9 -->
<g id="edge8" class="edge"><title>Node3&#45;&gt;Node9</title>
<path fill="none" stroke="midnightblue" d="M162.174,-171.589C178.331,-176.404 198.108,-182.299 215.452,-187.468"/>
<polygon fill="midnightblue" stroke="midnightblue" points="214.754,-190.912 225.337,-190.414 216.753,-184.204 214.754,-190.912"/>
</g>
<!-- Node4&#45;&gt;Node5 -->
<g id="edge4" class="edge"><title>Node4&#45;&gt;Node5</title>
<path fill="none" stroke="midnightblue" d="M281.092,-228.459C302.021,-219.212 333.981,-205.09 357.601,-194.653"/>
<polygon fill="midnightblue" stroke="midnightblue" points="359.106,-197.815 366.838,-190.572 356.276,-191.412 359.106,-197.815"/>
</g>
<!-- Node6 -->
<g id="node6" class="node"><title>Node6</title>
<g id="a_node6"><a xlink:href="classtlz_1_1args__list.html#a73d99bc75998dc14607a3a372d28dc6d" target="_top" xlink:title="tlz::args_list::next_arg">
<polygon fill="white" stroke="black" points="333,-133.5 333,-152.5 446,-152.5 446,-133.5 333,-133.5"/>
<text text-anchor="middle" x="389.5" y="-140.5" font-family="Helvetica,sans-Serif" font-size="10.00">tlz::args_list::next_arg</text>
</a>
</g>
</g>
<!-- Node4&#45;&gt;Node6 -->
<g id="edge5" class="edge"><title>Node4&#45;&gt;Node6</title>
<path fill="none" stroke="midnightblue" d="M283.354,-228.356C288.187,-225.756 293.005,-222.635 297,-219 319.163,-198.836 309.489,-180.575 333,-162 335.285,-160.195 337.752,-158.556 340.332,-157.068"/>
<polygon fill="midnightblue" stroke="midnightblue" points="342.019,-160.139 349.437,-152.574 338.921,-153.862 342.019,-160.139"/>
</g>
<!-- Node6&#45;&gt;Node7 -->
<g id="edge6" class="edge"><title>Node6&#45;&gt;Node7</title>
<path fill="none" stroke="midnightblue" d="M415.69,-133.459C440.433,-124.088 478.391,-109.712 506.048,-99.2377"/>
<polygon fill="midnightblue" stroke="midnightblue" points="507.615,-102.387 515.728,-95.5716 505.136,-95.8405 507.615,-102.387"/>
</g>
<!-- Node8 -->
<g id="node8" class="node"><title>Node8</title>
<g id="a_node8"><a xlink:href="namespacetlz.html#a8e4f8c8c2927bc4350de13bfa0f8f9e1" target="_top" xlink:title="tlz::to_string">
<polygon fill="white" stroke="black" points="506.5,-133.5 506.5,-152.5 577.5,-152.5 577.5,-133.5 506.5,-133.5"/>
<text text-anchor="middle" x="542" y="-140.5" font-family="Helvetica,sans-Serif" font-size="10.00">tlz::to_string</text>
</a>
</g>
</g>
<!-- Node6&#45;&gt;Node8 -->
<g id="edge7" class="edge"><title>Node6&#45;&gt;Node8</title>
<path fill="none" stroke="midnightblue" d="M446.113,-143C462.441,-143 480.096,-143 495.698,-143"/>
<polygon fill="midnightblue" stroke="midnightblue" points="496.13,-146.5 506.13,-143 496.129,-139.5 496.13,-146.5"/>
</g>
<!-- Node10&#45;&gt;Node4 -->
<g id="edge12" class="edge"><title>Node10&#45;&gt;Node4</title>
<path fill="none" stroke="midnightblue" d="M162.174,-209.589C178.331,-214.404 198.108,-220.299 215.452,-225.468"/>
<polygon fill="midnightblue" stroke="midnightblue" points="214.754,-228.912 225.337,-228.414 216.753,-222.204 214.754,-228.912"/>
</g>
<!-- Node11&#45;&gt;Node5 -->
<g id="edge14" class="edge"><title>Node11&#45;&gt;Node5</title>
<path fill="none" stroke="midnightblue" d="M276.383,-133.636C291.064,-141.793 313.051,-153.483 333,-162 339.545,-164.794 346.652,-167.479 353.526,-169.905"/>
<polygon fill="midnightblue" stroke="midnightblue" points="352.745,-173.336 363.339,-173.258 355.008,-166.712 352.745,-173.336"/>
</g>
<!-- Node11&#45;&gt;Node6 -->
<g id="edge15" class="edge"><title>Node11&#45;&gt;Node6</title>
<path fill="none" stroke="midnightblue" d="M289.745,-128.455C299.709,-129.922 311.21,-131.616 322.764,-133.318"/>
<polygon fill="midnightblue" stroke="midnightblue" points="322.49,-136.815 332.894,-134.81 323.51,-129.89 322.49,-136.815"/>
</g>
<!-- Node11&#45;&gt;Node7 -->
<g id="edge16" class="edge"><title>Node11&#45;&gt;Node7</title>
<path fill="none" stroke="midnightblue" d="M289.625,-119.933C332.776,-114.108 413.402,-103.225 471.731,-95.3508"/>
<polygon fill="midnightblue" stroke="midnightblue" points="472.541,-98.7732 481.983,-93.9668 471.605,-91.8361 472.541,-98.7732"/>
</g>
<!-- Node12&#45;&gt;Node5 -->
<g id="edge18" class="edge"><title>Node12&#45;&gt;Node5</title>
<path fill="none" stroke="midnightblue" d="M283.354,-95.6439C288.187,-98.2445 293.005,-101.365 297,-105 319.163,-125.164 309.489,-143.425 333,-162 338.988,-166.731 346.227,-170.321 353.47,-173.031"/>
<polygon fill="midnightblue" stroke="midnightblue" points="352.641,-176.442 363.233,-176.208 354.806,-169.786 352.641,-176.442"/>
</g>
<!-- Node12&#45;&gt;Node6 -->
<g id="edge19" class="edge"><title>Node12&#45;&gt;Node6</title>
<path fill="none" stroke="midnightblue" d="M281.092,-95.5405C302.021,-104.788 333.981,-118.91 357.601,-129.347"/>
<polygon fill="midnightblue" stroke="midnightblue" points="356.276,-132.588 366.838,-133.428 359.106,-126.185 356.276,-132.588"/>
</g>
<!-- Node12&#45;&gt;Node7 -->
<g id="edge20" class="edge"><title>Node12&#45;&gt;Node7</title>
<path fill="none" stroke="midnightblue" d="M296.591,-86C341.074,-86 416.555,-86 471.891,-86"/>
<polygon fill="midnightblue" stroke="midnightblue" points="471.977,-89.5001 481.977,-86 471.977,-82.5001 471.977,-89.5001"/>
</g>
</g>
</svg>
